<svg class="main-svg" xmlns="http://www.w3.org/2000/svg" xmlns:xlink="http://www.w3.org/1999/xlink" width="700" height="500" style="" viewBox="0 0 700 500"><rect x="0" y="0" width="700" height="500" style="fill: rgb(255, 255, 255); fill-opacity: 1;"/><defs id="defs-4f1f68"><g class="clips"><clipPath id="clip4f1f68xyplot" class="plotclip"><rect width="474" height="320"/></clipPath><clipPath class="axesclip" id="clip4f1f68x"><rect x="80" y="0" width="474" height="500"/></clipPath><clipPath class="axesclip" id="clip4f1f68y"><rect x="0" y="100" width="700" height="320"/></clipPath><clipPath class="axesclip" id="clip4f1f68xy"><rect x="80" y="100" width="474" height="320"/></clipPath></g><g class="gradients"/><g class="patterns"/></defs><g class="bglayer"><rect class="bg" x="80" y="100" width="474" height="320" style="fill: rgb(237, 237, 237); fill-opacity: 1; stroke-width: 0;"/></g><g class="layer-below"><g class="imagelayer"/><g class="shapelayer"/></g><g class="cartesianlayer"><g class="subplot xy"><g class="layer-subplot"><g class="shapelayer"/><g class="imagelayer"/></g><g class="gridlayer"><g class="x"><path class="xgrid crisp" transform="translate(200.75,0)" d="M0,100v320" style="stroke: rgb(255, 255, 255); stroke-opacity: 1; stroke-width: 1px;"/><path class="xgrid crisp" transform="translate(436.25,0)" d="M0,100v320" style="stroke: rgb(255, 255, 255); stroke-opacity: 1; stroke-width: 1px;"/></g><g class="y"><path class="ygrid crisp" transform="translate(0,341.83000000000004)" d="M80,0h474" style="stroke: rgb(255, 255, 255); stroke-opacity: 1; stroke-width: 1px;"/><path class="ygrid crisp" transform="translate(0,281.78)" d="M80,0h474" style="stroke: rgb(255, 255, 255); stroke-opacity: 1; stroke-width: 1px;"/><path class="ygrid crisp" transform="translate(0,221.73000000000002)" d="M80,0h474" style="stroke: rgb(255, 255, 255); stroke-opacity: 1; stroke-width: 1px;"/><path class="ygrid crisp" transform="translate(0,161.68)" d="M80,0h474" style="stroke: rgb(255, 255, 255); stroke-opacity: 1; stroke-width: 1px;"/><path class="ygrid crisp" transform="translate(0,101.64)" d="M80,0h474" style="stroke: rgb(255, 255, 255); stroke-opacity: 1; stroke-width: 1px;"/></g></g><g class="zerolinelayer"><path class="yzl zl crisp" transform="translate(0,401.88)" d="M80,0h474" style="stroke: rgb(255, 255, 255); stroke-opacity: 1; stroke-width: 1px;"/></g><path class="xlines-below"/><path class="ylines-below"/><g class="overlines-below"/><g class="xaxislayer-below"/><g class="yaxislayer-below"/><g class="overaxes-below"/><g class="plot" transform="translate(80,100)" clip-path="url(#clip4f1f68xyplot)"><g class="violinlayer mlayer"><g class="trace violins" style="opacity: 1;"><path class="violin" d="M122.5,304Q123.71,303.53 124.46,303.32C125.43,303.05 126.6,302.84 127.86,302.63C129.42,302.37 131.23,302.16 133.12,301.95C135.34,301.7 137.82,301.48 140.35,301.26C143.13,301.02 146.15,300.81 149.11,300.58C152.16,300.35 155.37,300.12 158.39,299.89C161.28,299.67 164.24,299.45 166.87,299.21C169.17,299 171.46,298.8 173.33,298.53C174.78,298.32 176.25,298.16 177.17,297.84C177.73,297.65 178.41,297.41 178.45,297.16C178.48,296.95 178.07,296.67 177.74,296.47C177.25,296.17 176.41,296 175.63,295.79C174.68,295.54 173.58,295.31 172.43,295.1C171.1,294.85 169.63,294.64 168.1,294.42C166.37,294.18 164.5,293.95 162.58,293.73C160.5,293.49 158.26,293.27 156.05,293.05C153.76,292.82 151.36,292.6 149.06,292.37C146.82,292.14 144.53,291.92 142.41,291.68C140.46,291.46 138.53,291.25 136.8,291C135.31,290.79 133.88,290.57 132.65,290.31C131.65,290.1 130.71,289.89 129.94,289.63C129.33,289.42 128.79,289.2 128.35,288.94C127.99,288.73 127.72,288.5 127.45,288.26C127.2,288.04 127.01,287.81 126.78,287.58C126.55,287.35 126.32,287.11 126.06,286.89C125.79,286.66 125.49,286.44 125.19,286.21C124.88,285.98 124.56,285.75 124.25,285.52C123.95,285.29 123.64,285.08 123.38,284.84C123.14,284.62 122.91,284.39 122.75,284.15C122.61,283.93 122.49,283.7 122.44,283.47C122.39,283.25 122.4,283.02 122.43,282.79C122.46,282.56 122.55,282.33 122.62,282.1C122.69,281.87 122.79,281.65 122.85,281.42C122.91,281.19 122.96,280.96 122.98,280.73C123,280.5 122.99,280.28 122.97,280.05C122.95,279.82 122.89,279.59 122.84,279.36C122.79,279.13 122.72,278.91 122.68,278.68C122.64,278.45 122.62,278.22 122.62,277.99C122.62,277.76 122.65,277.54 122.69,277.31C122.73,277.08 122.8,276.86 122.85,276.63C122.91,276.4 122.97,276.17 123.02,275.94C123.06,275.71 123.11,275.49 123.12,275.26C123.13,275.03 123.12,274.8 123.1,274.57C123.08,274.34 123.03,274.12 123.01,273.89C122.98,273.66 122.96,273.43 122.95,273.2C122.94,272.97 122.95,272.75 122.96,272.52C122.97,272.29 123.01,272.07 123.03,271.84C123.05,271.61 123.07,271.38 123.07,271.15C123.07,270.92 123.06,270.69 123.01,270.47C122.96,270.24 122.88,270 122.78,269.78C122.68,269.55 122.54,269.33 122.41,269.1C122.27,268.87 122.11,268.64 121.97,268.41C121.83,268.18 121.68,267.96 121.56,267.73C121.44,267.51 121.32,267.28 121.23,267.05C121.14,266.82 121.07,266.59 121.01,266.36C120.95,266.13 120.91,265.91 120.87,265.68C120.84,265.45 120.82,265.22 120.8,264.99C120.78,264.76 120.78,264.54 120.77,264.31C120.76,264.08 120.76,263.85 120.76,263.62C120.76,263.39 120.75,263.17 120.75,262.94C120.75,262.71 120.75,262.49 120.75,262.26C120.75,262.03 120.75,261.8 120.75,261.57C120.75,261.34 120.75,261.12 120.75,260.89C120.75,260.66 120.75,260.43 120.75,260.2C120.75,259.97 120.75,259.75 120.75,259.52C120.75,259.29 120.75,259.06 120.75,258.83C120.75,258.6 120.75,258.38 120.75,258.15C120.75,257.92 120.75,257.69 120.75,257.46C120.75,257.23 120.75,257.01 120.75,256.78C120.75,256.55 120.75,256.33 120.75,256.1C120.75,255.87 120.75,255.64 120.75,255.41C120.75,255.18 120.75,254.96 120.75,254.73C120.75,254.5 120.75,254.27 120.75,254.04C120.75,253.81 120.75,253.59 120.75,253.36C120.75,253.13 120.75,252.9 120.75,252.67C120.75,252.44 120.75,252.22 120.75,251.99C120.75,251.76 120.75,251.54 120.75,251.31C120.75,251.08 120.75,250.85 120.75,250.62C120.75,250.39 120.75,250.17 120.75,249.94C120.75,249.71 120.75,249.48 120.75,249.25C120.75,249.02 120.75,248.8 120.75,248.57C120.75,248.34 120.75,248.11 120.75,247.88C120.75,247.65 120.75,247.43 120.75,247.2C120.75,246.97 120.75,246.75 120.75,246.52C120.75,246.29 120.75,246.06 120.75,245.83C120.75,245.6 120.75,245.38 120.75,245.15C120.75,244.92 120.75,244.69 120.75,244.46C120.75,244.23 120.75,244.01 120.75,243.78C120.75,243.55 120.75,243.32 120.75,243.09C120.75,242.86 120.75,242.64 120.75,242.41C120.75,242.18 120.75,241.95 120.75,241.72C120.75,241.49 120.75,241.27 120.75,241.04C120.75,240.81 120.75,240.59 120.75,240.36C120.75,240.13 120.75,239.9 120.75,239.67C120.75,239.44 120.75,239.22 120.75,238.99C120.75,238.76 120.75,238.53 120.75,238.3C120.75,238.07 120.75,237.85 120.75,237.62C120.75,237.39 120.75,237.16 120.75,236.93C120.75,236.7 120.75,236.48 120.75,236.25C120.75,236.02 120.75,235.8 120.75,235.57C120.75,235.34 120.75,235.11 120.75,234.88C120.75,234.65 120.75,234.43 120.75,234.2C120.75,233.97 120.75,233.74 120.75,233.51C120.75,233.28 120.75,233.06 120.75,232.83C120.75,232.6 120.75,232.37 120.75,232.14C120.75,231.91 120.75,231.69 120.75,231.46C120.75,231.23 120.75,231.01 120.75,230.78C120.75,230.55 120.75,230.32 120.75,230.09C120.75,229.86 120.75,229.64 120.75,229.41C120.75,229.18 120.75,228.95 120.75,228.72C120.75,228.49 120.75,228.27 120.75,228.04C120.75,227.81 120.75,227.58 120.75,227.35C120.75,227.12 120.75,226.9 120.75,226.67C120.75,226.44 120.75,226.21 120.75,225.98C120.75,225.75 120.75,225.53 120.75,225.3C120.75,225.07 120.75,224.85 120.75,224.62C120.75,224.39 120.75,224.16 120.75,223.93C120.75,223.7 120.75,223.48 120.75,223.25C120.75,223.02 120.75,222.79 120.75,222.56C120.75,222.33 120.75,222.11 120.75,221.88C120.75,221.65 120.75,221.42 120.75,221.19C120.75,220.96 120.75,220.74 120.75,220.51C120.75,220.28 120.75,220.06 120.75,219.83C120.75,219.6 120.75,219.37 120.75,219.14C120.75,218.91 120.75,218.69 120.75,218.46C120.75,218.23 120.75,218 120.75,217.77C120.75,217.54 120.75,217.32 120.75,217.09C120.75,216.86 120.75,216.63 120.75,216.4C120.75,216.17 120.75,215.95 120.75,215.72C120.75,215.49 120.75,215.27 120.75,215.04C120.75,214.81 120.75,214.58 120.75,214.35C120.75,214.12 120.75,213.9 120.75,213.67C120.75,213.44 120.75,213.21 120.75,212.98C120.75,212.75 120.75,212.53 120.75,212.3C120.75,212.07 120.75,211.84 120.75,211.61C120.75,211.38 120.75,211.16 120.75,210.93C120.75,210.7 120.75,210.47 120.75,210.24C120.75,210.01 120.75,209.79 120.75,209.56C120.75,209.33 120.75,209.11 120.75,208.88C120.75,208.65 120.75,208.42 120.75,208.19C120.75,207.96 120.75,207.74 120.75,207.51C120.75,207.28 120.75,207.05 120.75,206.82C120.75,206.59 120.75,206.37 120.75,206.14C120.75,205.91 120.75,205.68 120.75,205.45C120.75,205.22 120.75,205 120.75,204.77C120.75,204.54 120.75,204.32 120.75,204.09C120.75,203.86 120.75,203.63 120.75,203.4C120.75,203.17 120.75,202.95 120.75,202.72C120.75,202.49 120.75,202.26 120.75,202.03C120.75,201.8 120.75,201.58 120.75,201.35C120.75,201.12 120.75,200.89 120.75,200.66C120.75,200.43 120.75,200.21 120.75,199.98C120.75,199.75 120.75,199.53 120.75,199.3C120.75,199.07 120.75,198.84 120.75,198.61C120.75,198.38 120.75,198.16 120.75,197.93C120.75,197.7 120.75,197.47 120.75,197.24C120.75,197.01 120.75,196.79 120.75,196.56C120.75,196.33 120.75,196.1 120.75,195.87C120.75,195.64 120.75,195.42 120.75,195.19C120.75,194.96 120.75,194.74 120.75,194.51C120.75,194.28 120.75,194.05 120.75,193.82C120.75,193.59 120.75,193.37 120.75,193.14C120.75,192.91 120.75,192.68 120.75,192.45C120.75,192.22 120.75,192 120.75,191.77C120.75,191.54 120.75,191.31 120.75,191.08C120.75,190.85 120.75,190.63 120.75,190.4C120.75,190.17 120.75,189.94 120.75,189.71C120.75,189.48 120.75,189.26 120.75,189.03C120.75,188.8 120.75,188.58 120.75,188.35C120.75,188.12 120.75,187.89 120.75,187.66C120.75,187.43 120.75,187.21 120.75,186.98C120.75,186.75 120.75,186.52 120.75,186.29C120.75,186.06 120.75,185.84 120.75,185.61C120.75,185.38 120.75,185.15 120.75,184.92C120.75,184.69 120.75,184.47 120.75,184.24C120.75,184.01 120.75,183.79 120.75,183.56C120.75,183.33 120.75,183.1 120.75,182.87C120.75,182.64 120.75,182.42 120.75,182.19C120.75,181.96 120.75,181.73 120.75,181.5C120.75,181.27 120.75,181.05 120.75,180.82C120.75,180.59 120.75,180.36 120.75,180.13C120.75,179.9 120.75,179.68 120.75,179.45C120.75,179.22 120.75,179 120.75,178.77C120.75,178.54 120.75,178.31 120.75,178.08C120.75,177.85 120.75,177.63 120.75,177.4C120.75,177.17 120.75,176.94 120.75,176.71C120.75,176.48 120.75,176.26 120.75,176.03C120.75,175.8 120.75,175.57 120.75,175.34C120.75,175.11 120.75,174.89 120.75,174.66C120.75,174.43 120.75,174.2 120.75,173.97C120.75,173.74 120.75,173.52 120.75,173.29C120.75,173.06 120.75,172.84 120.75,172.61C120.75,172.38 120.75,172.15 120.75,171.92C120.75,171.69 120.75,171.47 120.75,171.24C120.75,171.01 120.75,170.78 120.75,170.55C120.75,170.32 120.75,170.1 120.75,169.87C120.75,169.64 120.75,169.41 120.75,169.18C120.75,168.95 120.75,168.73 120.75,168.5C120.75,168.27 120.75,168.05 120.75,167.82C120.75,167.59 120.75,167.36 120.75,167.13C120.75,166.9 120.75,166.68 120.75,166.45C120.75,166.22 120.75,165.99 120.75,165.76C120.75,165.53 120.75,165.31 120.75,165.08C120.75,164.85 120.75,164.62 120.75,164.39C120.75,164.16 120.75,163.94 120.75,163.71C120.75,163.48 120.75,163.26 120.75,163.03C120.75,162.8 120.75,162.57 120.75,162.34C120.75,162.11 120.75,161.89 120.75,161.66C120.75,161.43 120.75,161.2 120.75,160.97C120.75,160.74 120.75,160.52 120.75,160.29C120.75,160.06 120.75,159.83 120.75,159.6C120.75,159.37 120.75,159.15 120.75,158.92C120.75,158.69 120.75,158.46 120.75,158.23C120.75,158 120.75,157.78 120.75,157.55C120.75,157.32 120.75,157.1 120.75,156.87C120.75,156.64 120.75,156.41 120.75,156.18C120.75,155.95 120.75,155.73 120.75,155.5C120.75,155.27 120.75,155.04 120.75,154.81C120.75,154.58 120.75,154.36 120.75,154.13C120.75,153.9 120.75,153.67 120.75,153.44C120.75,153.21 120.75,152.99 120.75,152.76C120.75,152.53 120.75,152.31 120.75,152.08C120.75,151.85 120.75,151.62 120.75,151.39C120.75,151.16 120.75,150.94 120.75,150.71C120.75,150.48 120.75,150.25 120.75,150.02C120.75,149.79 120.75,149.57 120.75,149.34C120.75,149.11 120.75,148.88 120.75,148.65C120.75,148.42 120.75,148.2 120.75,147.97C120.75,147.74 120.75,147.52 120.75,147.29C120.75,147.06 120.75,146.83 120.75,146.6C120.75,146.37 120.75,146.15 120.75,145.92C120.75,145.69 120.75,145.46 120.75,145.23C120.75,145 120.75,144.78 120.75,144.55C120.75,144.32 120.75,144.09 120.75,143.86C120.75,143.63 120.75,143.41 120.75,143.18C120.75,142.95 120.75,142.72 120.75,142.49C120.75,142.26 120.75,142.04 120.75,141.81C120.75,141.58 120.75,141.36 120.75,141.13C120.75,140.9 120.75,140.67 120.75,140.44C120.75,140.21 120.75,139.99 120.75,139.76C120.75,139.53 120.75,139.3 120.75,139.07C120.75,138.84 120.75,138.62 120.75,138.39C120.75,138.16 120.75,137.93 120.75,137.7C120.75,137.47 120.75,137.25 120.75,137.02C120.75,136.79 120.75,136.57 120.75,136.34C120.75,136.11 120.75,135.88 120.75,135.65C120.75,135.42 120.75,135.2 120.75,134.97C120.75,134.74 120.75,134.51 120.75,134.28C120.75,134.05 120.75,133.83 120.75,133.6C120.75,133.37 120.75,133.14 120.75,132.91C120.75,132.68 120.75,132.46 120.75,132.23C120.75,132 120.75,131.78 120.75,131.55C120.75,131.32 120.75,131.09 120.75,130.86C120.75,130.63 120.75,130.41 120.75,130.18C120.75,129.95 120.75,129.72 120.75,129.49C120.75,129.26 120.75,129.04 120.75,128.81C120.75,128.58 120.75,128.35 120.75,128.12C120.75,127.89 120.75,127.67 120.75,127.44C120.75,127.21 120.75,126.99 120.75,126.76C120.75,126.53 120.75,126.3 120.75,126.07C120.75,125.84 120.75,125.62 120.75,125.39C120.75,125.16 120.75,124.93 120.75,124.7C120.75,124.47 120.75,124.25 120.75,124.02C120.75,123.79 120.75,123.56 120.75,123.33C120.75,123.1 120.75,122.88 120.75,122.65C120.75,122.42 120.75,122.19 120.75,121.96C120.75,121.73 120.75,121.51 120.75,121.28C120.75,121.05 120.75,120.83 120.75,120.6C120.75,120.37 120.75,120.14 120.75,119.91C120.75,119.68 120.75,119.46 120.75,119.23C120.75,119 120.75,118.77 120.75,118.54C120.75,118.31 120.75,118.09 120.75,117.86C120.75,117.63 120.75,117.4 120.75,117.17C120.75,116.94 120.75,116.72 120.75,116.49C120.75,116.26 120.75,116.04 120.75,115.81C120.75,115.58 120.75,115.35 120.75,115.12C120.75,114.89 120.75,114.67 120.75,114.44C120.75,114.21 120.75,113.98 120.75,113.75C120.75,113.52 120.75,113.3 120.75,113.07C120.75,112.84 120.75,112.61 120.75,112.38C120.75,112.15 120.75,111.93 120.75,111.7C120.75,111.47 120.75,111.25 120.75,111.02C120.75,110.79 120.75,110.56 120.75,110.33C120.75,110.1 120.75,109.88 120.75,109.65C120.75,109.42 120.75,109.19 120.75,108.96C120.75,108.73 120.75,108.51 120.75,108.28C120.75,108.05 120.75,107.82 120.75,107.59C120.75,107.36 120.75,107.14 120.75,106.91C120.75,106.68 120.75,106.45 120.75,106.22C120.75,105.99 120.75,105.77 120.75,105.54C120.75,105.31 120.75,105.09 120.75,104.86C120.75,104.63 120.75,104.4 120.75,104.17C120.75,103.94 120.75,103.72 120.75,103.49C120.75,103.26 120.75,103.03 120.75,102.8C120.75,102.57 120.75,102.35 120.75,102.12C120.75,101.89 120.76,101.66 120.76,101.43C120.76,101.2 120.76,100.98 120.77,100.75C120.78,100.52 120.79,100.3 120.81,100.07C120.83,99.84 120.85,99.61 120.89,99.38C120.93,99.15 120.98,98.93 121.04,98.7C121.11,98.47 121.18,98.24 121.28,98.01C121.38,97.78 121.5,97.56 121.63,97.33C121.76,97.1 121.91,96.87 122.05,96.64C122.19,96.41 122.34,96.19 122.46,95.96C122.58,95.74 122.7,95.51 122.77,95.28C122.84,95.06 122.89,94.82 122.89,94.59C122.89,94.36 122.84,94.13 122.77,93.91C122.7,93.68 122.58,93.45 122.46,93.22C122.34,92.99 122.19,92.77 122.05,92.54C121.91,92.31 121.76,92.08 121.63,91.85C121.5,91.62 121.38,91.4 121.28,91.17Q121.18,90.94 121.04,90.48L120.46,90.48Q120.32,90.94 120.22,91.17C120.12,91.4 120,91.62 119.87,91.85C119.74,92.08 119.59,92.31 119.45,92.54C119.31,92.77 119.16,92.99 119.04,93.22C118.92,93.45 118.8,93.68 118.73,93.91C118.66,94.13 118.61,94.36 118.61,94.59C118.61,94.82 118.66,95.06 118.73,95.28C118.8,95.51 118.92,95.74 119.04,95.96C119.16,96.19 119.31,96.41 119.45,96.64C119.59,96.87 119.74,97.1 119.87,97.33C120,97.56 120.12,97.78 120.22,98.01C120.32,98.24 120.39,98.47 120.46,98.7C120.52,98.93 120.57,99.15 120.61,99.38C120.65,99.61 120.67,99.84 120.69,100.07C120.71,100.3 120.72,100.52 120.73,100.75C120.74,100.98 120.74,101.2 120.74,101.43C120.74,101.66 120.75,101.89 120.75,102.12C120.75,102.35 120.75,102.57 120.75,102.8C120.75,103.03 120.75,103.26 120.75,103.49C120.75,103.72 120.75,103.94 120.75,104.17C120.75,104.4 120.75,104.63 120.75,104.86C120.75,105.09 120.75,105.31 120.75,105.54C120.75,105.77 120.75,105.99 120.75,106.22C120.75,106.45 120.75,106.68 120.75,106.91C120.75,107.14 120.75,107.36 120.75,107.59C120.75,107.82 120.75,108.05 120.75,108.28C120.75,108.51 120.75,108.73 120.75,108.96C120.75,109.19 120.75,109.42 120.75,109.65C120.75,109.88 120.75,110.1 120.75,110.33C120.75,110.56 120.75,110.79 120.75,111.02C120.75,111.25 120.75,111.47 120.75,111.7C120.75,111.93 120.75,112.15 120.75,112.38C120.75,112.61 120.75,112.84 120.75,113.07C120.75,113.3 120.75,113.52 120.75,113.75C120.75,113.98 120.75,114.21 120.75,114.44C120.75,114.67 120.75,114.89 120.75,115.12C120.75,115.35 120.75,115.58 120.75,115.81C120.75,116.04 120.75,116.26 120.75,116.49C120.75,116.72 120.75,116.94 120.75,117.17C120.75,117.4 120.75,117.63 120.75,117.86C120.75,118.09 120.75,118.31 120.75,118.54C120.75,118.77 120.75,119 120.75,119.23C120.75,119.46 120.75,119.68 120.75,119.91C120.75,120.14 120.75,120.37 120.75,120.6C120.75,120.83 120.75,121.05 120.75,121.28C120.75,121.51 120.75,121.73 120.75,121.96C120.75,122.19 120.75,122.42 120.75,122.65C120.75,122.88 120.75,123.1 120.75,123.33C120.75,123.56 120.75,123.79 120.75,124.02C120.75,124.25 120.75,124.47 120.75,124.7C120.75,124.93 120.75,125.16 120.75,125.39C120.75,125.62 120.75,125.84 120.75,126.07C120.75,126.3 120.75,126.53 120.75,126.76C120.75,126.99 120.75,127.21 120.75,127.44C120.75,127.67 120.75,127.89 120.75,128.12C120.75,128.35 120.75,128.58 120.75,128.81C120.75,129.04 120.75,129.26 120.75,129.49C120.75,129.72 120.75,129.95 120.75,130.18C120.75,130.41 120.75,130.63 120.75,130.86C120.75,131.09 120.75,131.32 120.75,131.55C120.75,131.78 120.75,132 120.75,132.23C120.75,132.46 120.75,132.68 120.75,132.91C120.75,133.14 120.75,133.37 120.75,133.6C120.75,133.83 120.75,134.05 120.75,134.28C120.75,134.51 120.75,134.74 120.75,134.97C120.75,135.2 120.75,135.42 120.75,135.65C120.75,135.88 120.75,136.11 120.75,136.34C120.75,136.57 120.75,136.79 120.75,137.02C120.75,137.25 120.75,137.47 120.75,137.7C120.75,137.93 120.75,138.16 120.75,138.39C120.75,138.62 120.75,138.84 120.75,139.07C120.75,139.3 120.75,139.53 120.75,139.76C120.75,139.99 120.75,140.21 120.75,140.44C120.75,140.67 120.75,140.9 120.75,141.13C120.75,141.36 120.75,141.58 120.75,141.81C120.75,142.04 120.75,142.26 120.75,142.49C120.75,142.72 120.75,142.95 120.75,143.18C120.75,143.41 120.75,143.63 120.75,143.86C120.75,144.09 120.75,144.32 120.75,144.55C120.75,144.78 120.75,145 120.75,145.23C120.75,145.46 120.75,145.69 120.75,145.92C120.75,146.15 120.75,146.37 120.75,146.6C120.75,146.83 120.75,147.06 120.75,147.29C120.75,147.52 120.75,147.74 120.75,147.97C120.75,148.2 120.75,148.42 120.75,148.65C120.75,148.88 120.75,149.11 120.75,149.34C120.75,149.57 120.75,149.79 120.75,150.02C120.75,150.25 120.75,150.48 120.75,150.71C120.75,150.94 120.75,151.16 120.75,151.39C120.75,151.62 120.75,151.85 120.75,152.08C120.75,152.31 120.75,152.53 120.75,152.76C120.75,152.99 120.75,153.21 120.75,153.44C120.75,153.67 120.75,153.9 120.75,154.13C120.75,154.36 120.75,154.58 120.75,154.81C120.75,155.04 120.75,155.27 120.75,155.5C120.75,155.73 120.75,155.95 120.75,156.18C120.75,156.41 120.75,156.64 120.75,156.87C120.75,157.1 120.75,157.32 120.75,157.55C120.75,157.78 120.75,158 120.75,158.23C120.75,158.46 120.75,158.69 120.75,158.92C120.75,159.15 120.75,159.37 120.75,159.6C120.75,159.83 120.75,160.06 120.75,160.29C120.75,160.52 120.75,160.74 120.75,160.97C120.75,161.2 120.75,161.43 120.75,161.66C120.75,161.89 120.75,162.11 120.75,162.34C120.75,162.57 120.75,162.8 120.75,163.03C120.75,163.26 120.75,163.48 120.75,163.71C120.75,163.94 120.75,164.16 120.75,164.39C120.75,164.62 120.75,164.85 120.75,165.08C120.75,165.31 120.75,165.53 120.75,165.76C120.75,165.99 120.75,166.22 120.75,166.45C120.75,166.68 120.75,166.9 120.75,167.13C120.75,167.36 120.75,167.59 120.75,167.82C120.75,168.05 120.75,168.27 120.75,168.5C120.75,168.73 120.75,168.95 120.75,169.18C120.75,169.41 120.75,169.64 120.75,169.87C120.75,170.1 120.75,170.32 120.75,170.55C120.75,170.78 120.75,171.01 120.75,171.24C120.75,171.47 120.75,171.69 120.75,171.92C120.75,172.15 120.75,172.38 120.75,172.61C120.75,172.84 120.75,173.06 120.75,173.29C120.75,173.52 120.75,173.74 120.75,173.97C120.75,174.2 120.75,174.43 120.75,174.66C120.75,174.89 120.75,175.11 120.75,175.34C120.75,175.57 120.75,175.8 120.75,176.03C120.75,176.26 120.75,176.48 120.75,176.71C120.75,176.94 120.75,177.17 120.75,177.4C120.75,177.63 120.75,177.85 120.75,178.08C120.75,178.31 120.75,178.54 120.75,178.77C120.75,179 120.75,179.22 120.75,179.45C120.75,179.68 120.75,179.9 120.75,180.13C120.75,180.36 120.75,180.59 120.75,180.82C120.75,181.05 120.75,181.27 120.75,181.5C120.75,181.73 120.75,181.96 120.75,182.19C120.75,182.42 120.75,182.64 120.75,182.87C120.75,183.1 120.75,183.33 120.75,183.56C120.75,183.79 120.75,184.01 120.75,184.24C120.75,184.47 120.75,184.69 120.75,184.92C120.75,185.15 120.75,185.38 120.75,185.61C120.75,185.84 120.75,186.06 120.75,186.29C120.75,186.52 120.75,186.75 120.75,186.98C120.75,187.21 120.75,187.43 120.75,187.66C120.75,187.89 120.75,188.12 120.75,188.35C120.75,188.58 120.75,188.8 120.75,189.03C120.75,189.26 120.75,189.48 120.75,189.71C120.75,189.94 120.75,190.17 120.75,190.4C120.75,190.63 120.75,190.85 120.75,191.08C120.75,191.31 120.75,191.54 120.75,191.77C120.75,192 120.75,192.22 120.75,192.45C120.75,192.68 120.75,192.91 120.75,193.14C120.75,193.37 120.75,193.59 120.75,193.82C120.75,194.05 120.75,194.28 120.75,194.51C120.75,194.74 120.75,194.96 120.75,195.19C120.75,195.42 120.75,195.64 120.75,195.87C120.75,196.1 120.75,196.33 120.75,196.56C120.75,196.79 120.75,197.01 120.75,197.24C120.75,197.47 120.75,197.7 120.75,197.93C120.75,198.16 120.75,198.38 120.75,198.61C120.75,198.84 120.75,199.07 120.75,199.3C120.75,199.53 120.75,199.75 120.75,199.98C120.75,200.21 120.75,200.43 120.75,200.66C120.75,200.89 120.75,201.12 120.75,201.35C120.75,201.58 120.75,201.8 120.75,202.03C120.75,202.26 120.75,202.49 120.75,202.72C120.75,202.95 120.75,203.17 120.75,203.4C120.75,203.63 120.75,203.86 120.75,204.09C120.75,204.32 120.75,204.54 120.75,204.77C120.75,205 120.75,205.22 120.75,205.45C120.75,205.68 120.75,205.91 120.75,206.14C120.75,206.37 120.75,206.59 120.75,206.82C120.75,207.05 120.75,207.28 120.75,207.51C120.75,207.74 120.75,207.96 120.75,208.19C120.75,208.42 120.75,208.65 120.75,208.88C120.75,209.11 120.75,209.33 120.75,209.56C120.75,209.79 120.75,210.01 120.75,210.24C120.75,210.47 120.75,210.7 120.75,210.93C120.75,211.16 120.75,211.38 120.75,211.61C120.75,211.84 120.75,212.07 120.75,212.3C120.75,212.53 120.75,212.75 120.75,212.98C120.75,213.21 120.75,213.44 120.75,213.67C120.75,213.9 120.75,214.12 120.75,214.35C120.75,214.58 120.75,214.81 120.75,215.04C120.75,215.27 120.75,215.49 120.75,215.72C120.75,215.95 120.75,216.17 120.75,216.4C120.75,216.63 120.75,216.86 120.75,217.09C120.75,217.32 120.75,217.54 120.75,217.77C120.75,218 120.75,218.23 120.75,218.46C120.75,218.69 120.75,218.91 120.75,219.14C120.75,219.37 120.75,219.6 120.75,219.83C120.75,220.06 120.75,220.28 120.75,220.51C120.75,220.74 120.75,220.96 120.75,221.19C120.75,221.42 120.75,221.65 120.75,221.88C120.75,222.11 120.75,222.33 120.75,222.56C120.75,222.79 120.75,223.02 120.75,223.25C120.75,223.48 120.75,223.7 120.75,223.93C120.75,224.16 120.75,224.39 120.75,224.62C120.75,224.85 120.75,225.07 120.75,225.3C120.75,225.53 120.75,225.75 120.75,225.98C120.75,226.21 120.75,226.44 120.75,226.67C120.75,226.9 120.75,227.12 120.75,227.35C120.75,227.58 120.75,227.81 120.75,228.04C120.75,228.27 120.75,228.49 120.75,228.72C120.75,228.95 120.75,229.18 120.75,229.41C120.75,229.64 120.75,229.86 120.75,230.09C120.75,230.32 120.75,230.55 120.75,230.78C120.75,231.01 120.75,231.23 120.75,231.46C120.75,231.69 120.75,231.91 120.75,232.14C120.75,232.37 120.75,232.6 120.75,232.83C120.75,233.06 120.75,233.28 120.75,233.51C120.75,233.74 120.75,233.97 120.75,234.2C120.75,234.43 120.75,234.65 120.75,234.88C120.75,235.11 120.75,235.34 120.75,235.57C120.75,235.8 120.75,236.02 120.75,236.25C120.75,236.48 120.75,236.7 120.75,236.93C120.75,237.16 120.75,237.39 120.75,237.62C120.75,237.85 120.75,238.07 120.75,238.3C120.75,238.53 120.75,238.76 120.75,238.99C120.75,239.22 120.75,239.44 120.75,239.67C120.75,239.9 120.75,240.13 120.75,240.36C120.75,240.59 120.75,240.81 120.75,241.04C120.75,241.27 120.75,241.49 120.75,241.72C120.75,241.95 120.75,242.18 120.75,242.41C120.75,242.64 120.75,242.86 120.75,243.09C120.75,243.32 120.75,243.55 120.75,243.78C120.75,244.01 120.75,244.23 120.75,244.46C120.75,244.69 120.75,244.92 120.75,245.15C120.75,245.38 120.75,245.6 120.75,245.83C120.75,246.06 120.75,246.29 120.75,246.52C120.75,246.75 120.75,246.97 120.75,247.2C120.75,247.43 120.75,247.65 120.75,247.88C120.75,248.11 120.75,248.34 120.75,248.57C120.75,248.8 120.75,249.02 120.75,249.25C120.75,249.48 120.75,249.71 120.75,249.94C120.75,250.17 120.75,250.39 120.75,250.62C120.75,250.85 120.75,251.08 120.75,251.31C120.75,251.54 120.75,251.76 120.75,251.99C120.75,252.22 120.75,252.44 120.75,252.67C120.75,252.9 120.75,253.13 120.75,253.36C120.75,253.59 120.75,253.81 120.75,254.04C120.75,254.27 120.75,254.5 120.75,254.73C120.75,254.96 120.75,255.18 120.75,255.41C120.75,255.64 120.75,255.87 120.75,256.1C120.75,256.33 120.75,256.55 120.75,256.78C120.75,257.01 120.75,257.23 120.75,257.46C120.75,257.69 120.75,257.92 120.75,258.15C120.75,258.38 120.75,258.6 120.75,258.83C120.75,259.06 120.75,259.29 120.75,259.52C120.75,259.75 120.75,259.97 120.75,260.2C120.75,260.43 120.75,260.66 120.75,260.89C120.75,261.12 120.75,261.34 120.75,261.57C120.75,261.8 120.75,262.03 120.75,262.26C120.75,262.49 120.75,262.71 120.75,262.94C120.75,263.17 120.74,263.39 120.74,263.62C120.74,263.85 120.74,264.08 120.73,264.31C120.72,264.54 120.72,264.76 120.7,264.99C120.68,265.22 120.66,265.45 120.63,265.68C120.59,265.91 120.55,266.13 120.49,266.36C120.43,266.59 120.36,266.82 120.27,267.05C120.18,267.28 120.06,267.51 119.94,267.73C119.82,267.96 119.67,268.18 119.53,268.41C119.39,268.64 119.23,268.87 119.09,269.1C118.96,269.33 118.82,269.55 118.72,269.78C118.62,270 118.54,270.24 118.49,270.47C118.44,270.69 118.43,270.92 118.43,271.15C118.43,271.38 118.45,271.61 118.47,271.84C118.49,272.07 118.53,272.29 118.54,272.52C118.55,272.75 118.56,272.97 118.55,273.2C118.54,273.43 118.52,273.66 118.49,273.89C118.47,274.12 118.42,274.34 118.4,274.57C118.38,274.8 118.37,275.03 118.38,275.26C118.39,275.49 118.44,275.71 118.48,275.94C118.53,276.17 118.59,276.4 118.65,276.63C118.7,276.86 118.77,277.08 118.81,277.31C118.85,277.54 118.88,277.76 118.88,277.99C118.88,278.22 118.86,278.45 118.82,278.68C118.78,278.91 118.71,279.13 118.66,279.36C118.61,279.59 118.55,279.82 118.53,280.05C118.51,280.28 118.5,280.5 118.52,280.73C118.54,280.96 118.59,281.19 118.65,281.42C118.71,281.65 118.81,281.87 118.88,282.1C118.95,282.33 119.04,282.56 119.07,282.79C119.1,283.02 119.11,283.25 119.06,283.47C119.01,283.7 118.89,283.93 118.75,284.15C118.59,284.39 118.36,284.62 118.12,284.84C117.86,285.08 117.55,285.29 117.25,285.52C116.94,285.75 116.62,285.98 116.31,286.21C116.01,286.44 115.71,286.66 115.44,286.89C115.18,287.11 114.95,287.35 114.72,287.58C114.49,287.81 114.3,288.04 114.05,288.26C113.78,288.5 113.51,288.73 113.15,288.94C112.71,289.2 112.17,289.42 111.56,289.63C110.79,289.89 109.85,290.1 108.85,290.31C107.62,290.57 106.19,290.79 104.7,291C102.97,291.25 101.04,291.46 99.09,291.68C96.97,291.92 94.68,292.14 92.44,292.37C90.14,292.6 87.74,292.82 85.45,293.05C83.24,293.27 81,293.49 78.92,293.73C77,293.95 75.13,294.18 73.4,294.42C71.87,294.64 70.4,294.85 69.07,295.1C67.92,295.31 66.82,295.54 65.87,295.79C65.09,296 64.25,296.17 63.76,296.47C63.43,296.67 63.02,296.95 63.05,297.16C63.09,297.41 63.77,297.65 64.33,297.84C65.25,298.16 66.72,298.32 68.17,298.53C70.04,298.8 72.33,299 74.63,299.21C77.26,299.45 80.22,299.67 83.11,299.89C86.13,300.12 89.34,300.35 92.39,300.58C95.35,300.81 98.37,301.02 101.15,301.26C103.68,301.48 106.16,301.7 108.38,301.95C110.27,302.16 112.08,302.37 113.64,302.63C114.9,302.84 116.07,303.05 117.04,303.32Q117.79,303.53 119,304Z" style="vector-effect: non-scaling-stroke; stroke-width: 2px; stroke: rgb(99, 110, 250); stroke-opacity: 1; fill: rgb(99, 110, 250); fill-opacity: 0.5;"/><g class="points"><path class="point" transform="translate(43.19,299.89)" d="M3,0A3,3 0 1,1 0,-3A3,3 0 0,1 3,0Z" style="opacity: 1; stroke-width: 0px; fill: rgb(99, 110, 250); fill-opacity: 1;"/><path class="point" transform="translate(23.17,299.41)" d="M3,0A3,3 0 1,1 0,-3A3,3 0 0,1 3,0Z" style="opacity: 1; stroke-width: 0px; fill: rgb(99, 110, 250); fill-opacity: 1;"/><path class="point" transform="translate(47.63,299.41)" d="M3,0A3,3 0 1,1 0,-3A3,3 0 0,1 3,0Z" style="opacity: 1; stroke-width: 0px; fill: rgb(99, 110, 250); fill-opacity: 1;"/><path class="point" transform="translate(19.56,299.35)" d="M3,0A3,3 0 1,1 0,-3A3,3 0 0,1 3,0Z" style="opacity: 1; stroke-width: 0px; fill: rgb(99, 110, 250); fill-opacity: 1;"/><path class="point" transform="translate(29.94,299.29)" d="M3,0A3,3 0 1,1 0,-3A3,3 0 0,1 3,0Z" style="opacity: 1; stroke-width: 0px; fill: rgb(99, 110, 250); fill-opacity: 1;"/><path class="point" transform="translate(43.29,299.17)" d="M3,0A3,3 0 1,1 0,-3A3,3 0 0,1 3,0Z" style="opacity: 1; stroke-width: 0px; fill: rgb(99, 110, 250); fill-opacity: 1;"/><path class="point" transform="translate(33.56,298.87)" d="M3,0A3,3 0 1,1 0,-3A3,3 0 0,1 3,0Z" style="opacity: 1; stroke-width: 0px; fill: rgb(99, 110, 250); fill-opacity: 1;"/><path class="point" transform="translate(39.22,298.81)" d="M3,0A3,3 0 1,1 0,-3A3,3 0 0,1 3,0Z" style="opacity: 1; stroke-width: 0px; fill: rgb(99, 110, 250); fill-opacity: 1;"/><path class="point" transform="translate(28.68,298.75)" d="M3,0A3,3 0 1,1 0,-3A3,3 0 0,1 3,0Z" style="opacity: 1; stroke-width: 0px; fill: rgb(99, 110, 250); fill-opacity: 1;"/><path class="point" transform="translate(21.52,298.63)" d="M3,0A3,3 0 1,1 0,-3A3,3 0 0,1 3,0Z" style="opacity: 1; stroke-width: 0px; fill: rgb(99, 110, 250); fill-opacity: 1;"/><path class="point" transform="translate(38.83,298.63)" d="M3,0A3,3 0 1,1 0,-3A3,3 0 0,1 3,0Z" style="opacity: 1; stroke-width: 0px; fill: rgb(99, 110, 250); fill-opacity: 1;"/><path class="point" transform="translate(28.51,298.21)" d="M3,0A3,3 0 1,1 0,-3A3,3 0 0,1 3,0Z" style="opacity: 1; stroke-width: 0px; fill: rgb(99, 110, 250); fill-opacity: 1;"/><path class="point" transform="translate(45.18,298.21)" d="M3,0A3,3 0 1,1 0,-3A3,3 0 0,1 3,0Z" style="opacity: 1; stroke-width: 0px; fill: rgb(99, 110, 250); fill-opacity: 1;"/><path class="point" transform="translate(17.35,298.03)" d="M3,0A3,3 0 1,1 0,-3A3,3 0 0,1 3,0Z" style="opacity: 1; stroke-width: 0px; fill: rgb(99, 110, 250); fill-opacity: 1;"/><path class="point" transform="translate(24.19,298.03)" d="M3,0A3,3 0 1,1 0,-3A3,3 0 0,1 3,0Z" style="opacity: 1; stroke-width: 0px; fill: rgb(99, 110, 250); fill-opacity: 1;"/><path class="point" transform="translate(49.52,297.97)" d="M3,0A3,3 0 1,1 0,-3A3,3 0 0,1 3,0Z" style="opacity: 1; stroke-width: 0px; fill: rgb(99, 110, 250); fill-opacity: 1;"/><path class="point" transform="translate(29.86,297.67)" d="M3,0A3,3 0 1,1 0,-3A3,3 0 0,1 3,0Z" style="opacity: 1; stroke-width: 0px; fill: rgb(99, 110, 250); fill-opacity: 1;"/><path class="point" transform="translate(19.35,297.61)" d="M3,0A3,3 0 1,1 0,-3A3,3 0 0,1 3,0Z" style="opacity: 1; stroke-width: 0px; fill: rgb(99, 110, 250); fill-opacity: 1;"/><path class="point" transform="translate(28.48,297.49)" d="M3,0A3,3 0 1,1 0,-3A3,3 0 0,1 3,0Z" style="opacity: 1; stroke-width: 0px; fill: rgb(99, 110, 250); fill-opacity: 1;"/><path class="point" transform="translate(33.83,297.43)" d="M3,0A3,3 0 1,1 0,-3A3,3 0 0,1 3,0Z" style="opacity: 1; stroke-width: 0px; fill: rgb(99, 110, 250); fill-opacity: 1;"/><path class="point" transform="translate(41.49,297.01)" d="M3,0A3,3 0 1,1 0,-3A3,3 0 0,1 3,0Z" style="opacity: 1; stroke-width: 0px; fill: rgb(99, 110, 250); fill-opacity: 1;"/><path class="point" transform="translate(36.08,296.83)" d="M3,0A3,3 0 1,1 0,-3A3,3 0 0,1 3,0Z" style="opacity: 1; stroke-width: 0px; fill: rgb(99, 110, 250); fill-opacity: 1;"/><path class="point" transform="translate(29.63,296.65)" d="M3,0A3,3 0 1,1 0,-3A3,3 0 0,1 3,0Z" style="opacity: 1; stroke-width: 0px; fill: rgb(99, 110, 250); fill-opacity: 1;"/><path class="point" transform="translate(20.66,296.53)" d="M3,0A3,3 0 1,1 0,-3A3,3 0 0,1 3,0Z" style="opacity: 1; stroke-width: 0px; fill: rgb(99, 110, 250); fill-opacity: 1;"/><path class="point" transform="translate(34.16,296.17)" d="M3,0A3,3 0 1,1 0,-3A3,3 0 0,1 3,0Z" style="opacity: 1; stroke-width: 0px; fill: rgb(99, 110, 250); fill-opacity: 1;"/><path class="point" transform="translate(29.41,295.63)" d="M3,0A3,3 0 1,1 0,-3A3,3 0 0,1 3,0Z" style="opacity: 1; stroke-width: 0px; fill: rgb(99, 110, 250); fill-opacity: 1;"/><path class="point" transform="translate(41.95,295.51)" d="M3,0A3,3 0 1,1 0,-3A3,3 0 0,1 3,0Z" style="opacity: 1; stroke-width: 0px; fill: rgb(99, 110, 250); fill-opacity: 1;"/><path class="point" transform="translate(32.78,295.27)" d="M3,0A3,3 0 1,1 0,-3A3,3 0 0,1 3,0Z" style="opacity: 1; stroke-width: 0px; fill: rgb(99, 110, 250); fill-opacity: 1;"/><path class="point" transform="translate(23.6,295.15)" d="M3,0A3,3 0 1,1 0,-3A3,3 0 0,1 3,0Z" style="opacity: 1; stroke-width: 0px; fill: rgb(99, 110, 250); fill-opacity: 1;"/><path class="point" transform="translate(18.47,294.85)" d="M3,0A3,3 0 1,1 0,-3A3,3 0 0,1 3,0Z" style="opacity: 1; stroke-width: 0px; fill: rgb(99, 110, 250); fill-opacity: 1;"/><path class="point" transform="translate(43.97,294.73)" d="M3,0A3,3 0 1,1 0,-3A3,3 0 0,1 3,0Z" style="opacity: 1; stroke-width: 0px; fill: rgb(99, 110, 250); fill-opacity: 1;"/><path class="point" transform="translate(19.42,294.61)" d="M3,0A3,3 0 1,1 0,-3A3,3 0 0,1 3,0Z" style="opacity: 1; stroke-width: 0px; fill: rgb(99, 110, 250); fill-opacity: 1;"/><path class="point" transform="translate(44.49,294.25)" d="M3,0A3,3 0 1,1 0,-3A3,3 0 0,1 3,0Z" style="opacity: 1; stroke-width: 0px; fill: rgb(99, 110, 250); fill-opacity: 1;"/><path class="point" transform="translate(37.99,294.19)" d="M3,0A3,3 0 1,1 0,-3A3,3 0 0,1 3,0Z" style="opacity: 1; stroke-width: 0px; fill: rgb(99, 110, 250); fill-opacity: 1;"/><path class="point" transform="translate(29.04,294.01)" d="M3,0A3,3 0 1,1 0,-3A3,3 0 0,1 3,0Z" style="opacity: 1; stroke-width: 0px; fill: rgb(99, 110, 250); fill-opacity: 1;"/><path class="point" transform="translate(23.96,293.89)" d="M3,0A3,3 0 1,1 0,-3A3,3 0 0,1 3,0Z" style="opacity: 1; stroke-width: 0px; fill: rgb(99, 110, 250); fill-opacity: 1;"/><path class="point" transform="translate(42.01,293.89)" d="M3,0A3,3 0 1,1 0,-3A3,3 0 0,1 3,0Z" style="opacity: 1; stroke-width: 0px; fill: rgb(99, 110, 250); fill-opacity: 1;"/><path class="point" transform="translate(32.49,293.89)" d="M3,0A3,3 0 1,1 0,-3A3,3 0 0,1 3,0Z" style="opacity: 1; stroke-width: 0px; fill: rgb(99, 110, 250); fill-opacity: 1;"/><path class="point" transform="translate(42.18,293.71)" d="M3,0A3,3 0 1,1 0,-3A3,3 0 0,1 3,0Z" style="opacity: 1; stroke-width: 0px; fill: rgb(99, 110, 250); fill-opacity: 1;"/><path class="point" transform="translate(26.01,293.29)" d="M3,0A3,3 0 1,1 0,-3A3,3 0 0,1 3,0Z" style="opacity: 1; stroke-width: 0px; fill: rgb(99, 110, 250); fill-opacity: 1;"/><path class="point" transform="translate(40.18,293.11)" d="M3,0A3,3 0 1,1 0,-3A3,3 0 0,1 3,0Z" style="opacity: 1; stroke-width: 0px; fill: rgb(99, 110, 250); fill-opacity: 1;"/><path class="point" transform="translate(33.64,292.75)" d="M3,0A3,3 0 1,1 0,-3A3,3 0 0,1 3,0Z" style="opacity: 1; stroke-width: 0px; fill: rgb(99, 110, 250); fill-opacity: 1;"/><path class="point" transform="translate(31.94,291.85)" d="M3,0A3,3 0 1,1 0,-3A3,3 0 0,1 3,0Z" style="opacity: 1; stroke-width: 0px; fill: rgb(99, 110, 250); fill-opacity: 1;"/><path class="point" transform="translate(29.13,289.63)" d="M3,0A3,3 0 1,1 0,-3A3,3 0 0,1 3,0Z" style="opacity: 1; stroke-width: 0px; fill: rgb(99, 110, 250); fill-opacity: 1;"/><path class="point" transform="translate(33.52,287.52)" d="M3,0A3,3 0 1,1 0,-3A3,3 0 0,1 3,0Z" style="opacity: 1; stroke-width: 0px; fill: rgb(99, 110, 250); fill-opacity: 1;"/><path class="point" transform="translate(35.32,286.86)" d="M3,0A3,3 0 1,1 0,-3A3,3 0 0,1 3,0Z" style="opacity: 1; stroke-width: 0px; fill: rgb(99, 110, 250); fill-opacity: 1;"/><path class="point" transform="translate(33.83,280.62)" d="M3,0A3,3 0 1,1 0,-3A3,3 0 0,1 3,0Z" style="opacity: 1; stroke-width: 0px; fill: rgb(99, 110, 250); fill-opacity: 1;"/><path class="point" transform="translate(33.06,275.33)" d="M3,0A3,3 0 1,1 0,-3A3,3 0 0,1 3,0Z" style="opacity: 1; stroke-width: 0px; fill: rgb(99, 110, 250); fill-opacity: 1;"/><path class="point" transform="translate(34.87,270.59)" d="M3,0A3,3 0 1,1 0,-3A3,3 0 0,1 3,0Z" style="opacity: 1; stroke-width: 0px; fill: rgb(99, 110, 250); fill-opacity: 1;"/><path class="point" transform="translate(33.53,94.59)" d="M3,0A3,3 0 1,1 0,-3A3,3 0 0,1 3,0Z" style="opacity: 1; stroke-width: 0px; fill: rgb(99, 110, 250); fill-opacity: 1;"/></g></g><g class="trace violins" style="opacity: 1;"><path class="violin" d="M356.63,298.44Q356.86,296.07 357.04,294.89C357.22,293.7 357.44,292.52 357.72,291.34C358.01,290.15 358.35,288.96 358.75,287.78C359.15,286.59 359.63,285.41 360.12,284.23C360.62,283.04 361.18,281.85 361.72,280.67C362.26,279.48 362.85,278.31 363.36,277.12C363.87,275.94 364.37,274.76 364.78,273.56C365.18,272.39 365.53,271.2 365.78,270.01C366.03,268.83 366.19,267.64 366.28,266.45C366.37,265.27 366.35,264.08 366.3,262.9C366.25,261.71 366.12,260.52 365.99,259.34C365.85,258.15 365.67,256.97 365.49,255.79C365.31,254.6 365.1,253.41 364.89,252.23C364.68,251.04 364.45,249.86 364.22,248.68C363.99,247.49 363.75,246.3 363.5,245.12C363.25,243.93 362.99,242.75 362.73,241.57C362.47,240.38 362.21,239.2 361.95,238.01C361.69,236.83 361.44,235.64 361.19,234.46C360.94,233.27 360.7,232.09 360.47,230.9C360.24,229.72 360.01,228.53 359.8,227.35C359.59,226.17 359.39,224.99 359.21,223.8C359.03,222.62 358.87,221.43 358.72,220.24C358.58,219.06 358.45,217.88 358.34,216.69C358.23,215.51 358.15,214.32 358.08,213.13C358.01,211.95 357.96,210.76 357.91,209.58C357.86,208.39 357.83,207.21 357.79,206.02C357.75,204.84 357.72,203.65 357.68,202.47C357.64,201.28 357.6,200.1 357.55,198.91C357.51,197.73 357.45,196.54 357.41,195.36C357.37,194.17 357.32,192.99 357.29,191.8C357.26,190.62 357.23,189.43 357.21,188.25C357.19,187.06 357.17,185.88 357.17,184.69C357.17,183.51 357.17,182.32 357.18,181.14C357.19,179.95 357.2,178.77 357.21,177.58C357.22,176.4 357.23,175.21 357.23,174.03C357.23,172.84 357.22,171.66 357.21,170.47C357.2,169.29 357.18,168.1 357.15,166.92C357.12,165.73 357.08,164.55 357.04,163.36C357,162.18 356.94,160.99 356.89,159.81C356.84,158.63 356.79,157.44 356.74,156.26C356.69,155.07 356.64,153.89 356.59,152.7C356.54,151.52 356.5,150.33 356.46,149.15C356.42,147.96 356.4,146.78 356.37,145.59Q356.35,144.41 356.31,142.04L356.19,142.04Q356.15,144.41 356.13,145.59C356.1,146.78 356.08,147.96 356.04,149.15C356,150.33 355.96,151.52 355.91,152.7C355.86,153.89 355.81,155.07 355.76,156.26C355.71,157.44 355.66,158.63 355.61,159.81C355.56,160.99 355.5,162.18 355.46,163.36C355.42,164.55 355.38,165.73 355.35,166.92C355.32,168.1 355.3,169.29 355.29,170.47C355.28,171.66 355.27,172.84 355.27,174.03C355.27,175.21 355.28,176.4 355.29,177.58C355.3,178.77 355.31,179.95 355.32,181.14C355.33,182.32 355.33,183.51 355.33,184.69C355.33,185.88 355.31,187.06 355.29,188.25C355.27,189.43 355.24,190.62 355.21,191.8C355.18,192.99 355.13,194.17 355.09,195.36C355.05,196.54 354.99,197.73 354.95,198.91C354.9,200.1 354.86,201.28 354.82,202.47C354.78,203.65 354.75,204.84 354.71,206.02C354.67,207.21 354.64,208.39 354.59,209.58C354.54,210.76 354.49,211.95 354.42,213.13C354.35,214.32 354.27,215.51 354.16,216.69C354.05,217.88 353.92,219.06 353.78,220.24C353.63,221.43 353.47,222.62 353.29,223.8C353.11,224.99 352.91,226.17 352.7,227.35C352.49,228.53 352.26,229.72 352.03,230.9C351.8,232.09 351.56,233.27 351.31,234.46C351.06,235.64 350.81,236.83 350.55,238.01C350.29,239.2 350.03,240.38 349.77,241.57C349.51,242.75 349.25,243.93 349,245.12C348.75,246.3 348.51,247.49 348.28,248.68C348.05,249.86 347.82,251.04 347.61,252.23C347.4,253.41 347.19,254.6 347.01,255.79C346.83,256.97 346.65,258.15 346.51,259.34C346.38,260.52 346.25,261.71 346.2,262.9C346.15,264.08 346.13,265.27 346.22,266.45C346.31,267.64 346.47,268.83 346.72,270.01C346.97,271.2 347.32,272.39 347.72,273.56C348.13,274.76 348.63,275.94 349.14,277.12C349.65,278.31 350.24,279.48 350.78,280.67C351.32,281.85 351.88,283.04 352.38,284.23C352.87,285.41 353.35,286.59 353.75,287.78C354.15,288.96 354.49,290.15 354.78,291.34C355.06,292.52 355.28,293.7 355.46,294.89Q355.64,296.07 355.87,298.44Z" style="vector-effect: non-scaling-stroke; stroke-width: 2px; stroke: rgb(239, 85, 59); stroke-opacity: 1; fill: rgb(239, 85, 59); fill-opacity: 0.5;"/><g class="points"><path class="point" transform="translate(277.62,276.72)" d="M3,0A3,3 0 1,1 0,-3A3,3 0 0,1 3,0Z" style="opacity: 1; stroke-width: 0px; fill: rgb(239, 85, 59); fill-opacity: 1;"/><path class="point" transform="translate(260.86,275.75)" d="M3,0A3,3 0 1,1 0,-3A3,3 0 0,1 3,0Z" style="opacity: 1; stroke-width: 0px; fill: rgb(239, 85, 59); fill-opacity: 1;"/><path class="point" transform="translate(281.26,274.97)" d="M3,0A3,3 0 1,1 0,-3A3,3 0 0,1 3,0Z" style="opacity: 1; stroke-width: 0px; fill: rgb(239, 85, 59); fill-opacity: 1;"/><path class="point" transform="translate(257.09,274.25)" d="M3,0A3,3 0 1,1 0,-3A3,3 0 0,1 3,0Z" style="opacity: 1; stroke-width: 0px; fill: rgb(239, 85, 59); fill-opacity: 1;"/><path class="point" transform="translate(265.83,274.01)" d="M3,0A3,3 0 1,1 0,-3A3,3 0 0,1 3,0Z" style="opacity: 1; stroke-width: 0px; fill: rgb(239, 85, 59); fill-opacity: 1;"/><path class="point" transform="translate(278.16,273.23)" d="M3,0A3,3 0 1,1 0,-3A3,3 0 0,1 3,0Z" style="opacity: 1; stroke-width: 0px; fill: rgb(239, 85, 59); fill-opacity: 1;"/><path class="point" transform="translate(269.06,271.67)" d="M3,0A3,3 0 1,1 0,-3A3,3 0 0,1 3,0Z" style="opacity: 1; stroke-width: 0px; fill: rgb(239, 85, 59); fill-opacity: 1;"/><path class="point" transform="translate(274.67,271.61)" d="M3,0A3,3 0 1,1 0,-3A3,3 0 0,1 3,0Z" style="opacity: 1; stroke-width: 0px; fill: rgb(239, 85, 59); fill-opacity: 1;"/><path class="point" transform="translate(264.24,270.89)" d="M3,0A3,3 0 1,1 0,-3A3,3 0 0,1 3,0Z" style="opacity: 1; stroke-width: 0px; fill: rgb(239, 85, 59); fill-opacity: 1;"/><path class="point" transform="translate(257.29,270.83)" d="M3,0A3,3 0 1,1 0,-3A3,3 0 0,1 3,0Z" style="opacity: 1; stroke-width: 0px; fill: rgb(239, 85, 59); fill-opacity: 1;"/><path class="point" transform="translate(273.8,270.47)" d="M3,0A3,3 0 1,1 0,-3A3,3 0 0,1 3,0Z" style="opacity: 1; stroke-width: 0px; fill: rgb(239, 85, 59); fill-opacity: 1;"/><path class="point" transform="translate(264.1,270.35)" d="M3,0A3,3 0 1,1 0,-3A3,3 0 0,1 3,0Z" style="opacity: 1; stroke-width: 0px; fill: rgb(239, 85, 59); fill-opacity: 1;"/><path class="point" transform="translate(280.22,269.45)" d="M3,0A3,3 0 1,1 0,-3A3,3 0 0,1 3,0Z" style="opacity: 1; stroke-width: 0px; fill: rgb(239, 85, 59); fill-opacity: 1;"/><path class="point" transform="translate(254.18,268.73)" d="M3,0A3,3 0 1,1 0,-3A3,3 0 0,1 3,0Z" style="opacity: 1; stroke-width: 0px; fill: rgb(239, 85, 59); fill-opacity: 1;"/><path class="point" transform="translate(261.17,268.37)" d="M3,0A3,3 0 1,1 0,-3A3,3 0 0,1 3,0Z" style="opacity: 1; stroke-width: 0px; fill: rgb(239, 85, 59); fill-opacity: 1;"/><path class="point" transform="translate(281.68,266.33)" d="M3,0A3,3 0 1,1 0,-3A3,3 0 0,1 3,0Z" style="opacity: 1; stroke-width: 0px; fill: rgb(239, 85, 59); fill-opacity: 1;"/><path class="point" transform="translate(266.46,266.09)" d="M3,0A3,3 0 1,1 0,-3A3,3 0 0,1 3,0Z" style="opacity: 1; stroke-width: 0px; fill: rgb(239, 85, 59); fill-opacity: 1;"/><path class="point" transform="translate(259.37,265.73)" d="M3,0A3,3 0 1,1 0,-3A3,3 0 0,1 3,0Z" style="opacity: 1; stroke-width: 0px; fill: rgb(239, 85, 59); fill-opacity: 1;"/><path class="point" transform="translate(265.65,264.53)" d="M3,0A3,3 0 1,1 0,-3A3,3 0 0,1 3,0Z" style="opacity: 1; stroke-width: 0px; fill: rgb(239, 85, 59); fill-opacity: 1;"/><path class="point" transform="translate(269.48,263.38)" d="M3,0A3,3 0 1,1 0,-3A3,3 0 0,1 3,0Z" style="opacity: 1; stroke-width: 0px; fill: rgb(239, 85, 59); fill-opacity: 1;"/><path class="point" transform="translate(274.8,261.64)" d="M3,0A3,3 0 1,1 0,-3A3,3 0 0,1 3,0Z" style="opacity: 1; stroke-width: 0px; fill: rgb(239, 85, 59); fill-opacity: 1;"/><path class="point" transform="translate(270.92,260.68)" d="M3,0A3,3 0 1,1 0,-3A3,3 0 0,1 3,0Z" style="opacity: 1; stroke-width: 0px; fill: rgb(239, 85, 59); fill-opacity: 1;"/><path class="point" transform="translate(266.68,258.28)" d="M3,0A3,3 0 1,1 0,-3A3,3 0 0,1 3,0Z" style="opacity: 1; stroke-width: 0px; fill: rgb(239, 85, 59); fill-opacity: 1;"/><path class="point" transform="translate(260.41,257.98)" d="M3,0A3,3 0 1,1 0,-3A3,3 0 0,1 3,0Z" style="opacity: 1; stroke-width: 0px; fill: rgb(239, 85, 59); fill-opacity: 1;"/><path class="point" transform="translate(269.67,254.08)" d="M3,0A3,3 0 1,1 0,-3A3,3 0 0,1 3,0Z" style="opacity: 1; stroke-width: 0px; fill: rgb(239, 85, 59); fill-opacity: 1;"/><path class="point" transform="translate(266.52,253.72)" d="M3,0A3,3 0 1,1 0,-3A3,3 0 0,1 3,0Z" style="opacity: 1; stroke-width: 0px; fill: rgb(239, 85, 59); fill-opacity: 1;"/><path class="point" transform="translate(274.93,252.64)" d="M3,0A3,3 0 1,1 0,-3A3,3 0 0,1 3,0Z" style="opacity: 1; stroke-width: 0px; fill: rgb(239, 85, 59); fill-opacity: 1;"/><path class="point" transform="translate(268.6,251.62)" d="M3,0A3,3 0 1,1 0,-3A3,3 0 0,1 3,0Z" style="opacity: 1; stroke-width: 0px; fill: rgb(239, 85, 59); fill-opacity: 1;"/><path class="point" transform="translate(261.46,251.44)" d="M3,0A3,3 0 1,1 0,-3A3,3 0 0,1 3,0Z" style="opacity: 1; stroke-width: 0px; fill: rgb(239, 85, 59); fill-opacity: 1;"/><path class="point" transform="translate(258.47,248.91)" d="M3,0A3,3 0 1,1 0,-3A3,3 0 0,1 3,0Z" style="opacity: 1; stroke-width: 0px; fill: rgb(239, 85, 59); fill-opacity: 1;"/><path class="point" transform="translate(276.59,248.01)" d="M3,0A3,3 0 1,1 0,-3A3,3 0 0,1 3,0Z" style="opacity: 1; stroke-width: 0px; fill: rgb(239, 85, 59); fill-opacity: 1;"/><path class="point" transform="translate(259.98,247.83)" d="M3,0A3,3 0 1,1 0,-3A3,3 0 0,1 3,0Z" style="opacity: 1; stroke-width: 0px; fill: rgb(239, 85, 59); fill-opacity: 1;"/><path class="point" transform="translate(276.49,247.77)" d="M3,0A3,3 0 1,1 0,-3A3,3 0 0,1 3,0Z" style="opacity: 1; stroke-width: 0px; fill: rgb(239, 85, 59); fill-opacity: 1;"/><path class="point" transform="translate(271.97,247.77)" d="M3,0A3,3 0 1,1 0,-3A3,3 0 0,1 3,0Z" style="opacity: 1; stroke-width: 0px; fill: rgb(239, 85, 59); fill-opacity: 1;"/><path class="point" transform="translate(266.85,242.91)" d="M3,0A3,3 0 1,1 0,-3A3,3 0 0,1 3,0Z" style="opacity: 1; stroke-width: 0px; fill: rgb(239, 85, 59); fill-opacity: 1;"/><path class="point" transform="translate(264.15,242.85)" d="M3,0A3,3 0 1,1 0,-3A3,3 0 0,1 3,0Z" style="opacity: 1; stroke-width: 0px; fill: rgb(239, 85, 59); fill-opacity: 1;"/><path class="point" transform="translate(273.92,240.15)" d="M3,0A3,3 0 1,1 0,-3A3,3 0 0,1 3,0Z" style="opacity: 1; stroke-width: 0px; fill: rgb(239, 85, 59); fill-opacity: 1;"/><path class="point" transform="translate(268.81,239.19)" d="M3,0A3,3 0 1,1 0,-3A3,3 0 0,1 3,0Z" style="opacity: 1; stroke-width: 0px; fill: rgb(239, 85, 59); fill-opacity: 1;"/><path class="point" transform="translate(275.28,236.42)" d="M3,0A3,3 0 1,1 0,-3A3,3 0 0,1 3,0Z" style="opacity: 1; stroke-width: 0px; fill: rgb(239, 85, 59); fill-opacity: 1;"/><path class="point" transform="translate(264.07,231.26)" d="M3,0A3,3 0 1,1 0,-3A3,3 0 0,1 3,0Z" style="opacity: 1; stroke-width: 0px; fill: rgb(239, 85, 59); fill-opacity: 1;"/><path class="point" transform="translate(273.83,229.58)" d="M3,0A3,3 0 1,1 0,-3A3,3 0 0,1 3,0Z" style="opacity: 1; stroke-width: 0px; fill: rgb(239, 85, 59); fill-opacity: 1;"/><path class="point" transform="translate(269.17,229.28)" d="M3,0A3,3 0 1,1 0,-3A3,3 0 0,1 3,0Z" style="opacity: 1; stroke-width: 0px; fill: rgb(239, 85, 59); fill-opacity: 1;"/><path class="point" transform="translate(267.6,224.23)" d="M3,0A3,3 0 1,1 0,-3A3,3 0 0,1 3,0Z" style="opacity: 1; stroke-width: 0px; fill: rgb(239, 85, 59); fill-opacity: 1;"/><path class="point" transform="translate(264.78,223.21)" d="M3,0A3,3 0 1,1 0,-3A3,3 0 0,1 3,0Z" style="opacity: 1; stroke-width: 0px; fill: rgb(239, 85, 59); fill-opacity: 1;"/><path class="point" transform="translate(267.79,206.82)" d="M3,0A3,3 0 1,1 0,-3A3,3 0 0,1 3,0Z" style="opacity: 1; stroke-width: 0px; fill: rgb(239, 85, 59); fill-opacity: 1;"/><path class="point" transform="translate(272.85,204.12)" d="M3,0A3,3 0 1,1 0,-3A3,3 0 0,1 3,0Z" style="opacity: 1; stroke-width: 0px; fill: rgb(239, 85, 59); fill-opacity: 1;"/><path class="point" transform="translate(268.64,200.82)" d="M3,0A3,3 0 1,1 0,-3A3,3 0 0,1 3,0Z" style="opacity: 1; stroke-width: 0px; fill: rgb(239, 85, 59); fill-opacity: 1;"/><path class="point" transform="translate(266.34,182.8)" d="M3,0A3,3 0 1,1 0,-3A3,3 0 0,1 3,0Z" style="opacity: 1; stroke-width: 0px; fill: rgb(239, 85, 59); fill-opacity: 1;"/><path class="point" transform="translate(271.66,171.63)" d="M3,0A3,3 0 1,1 0,-3A3,3 0 0,1 3,0Z" style="opacity: 1; stroke-width: 0px; fill: rgb(239, 85, 59); fill-opacity: 1;"/><path class="point" transform="translate(267.38,163.77)" d="M3,0A3,3 0 1,1 0,-3A3,3 0 0,1 3,0Z" style="opacity: 1; stroke-width: 0px; fill: rgb(239, 85, 59); fill-opacity: 1;"/></g></g></g></g><g class="overplot"/><path class="xlines-above crisp" d="" style="fill: none; stroke-width: 1px; stroke: rgb(0, 0, 0); stroke-opacity: 0;"/><path class="ylines-above crisp" d="" style="fill: none; stroke-width: 1px; stroke: rgb(0, 0, 0); stroke-opacity: 0;"/><g class="overlines-above"/><g class="xaxislayer-above"><path class="xtick ticks crisp" d="M0,421v5" transform="translate(200.75,0)" style="stroke: rgb(51, 51, 51); stroke-opacity: 1; stroke-width: 1px;"/><path class="xtick ticks crisp" d="M0,421v5" transform="translate(436.25,0)" style="stroke: rgb(51, 51, 51); stroke-opacity: 1; stroke-width: 1px;"/><g class="xtick"><text text-anchor="middle" x="0" y="440.4" transform="translate(200.75,0)" style="font-family: 'Open Sans', verdana, arial, sans-serif; font-size: 12px; fill: rgb(51, 51, 51); fill-opacity: 1; white-space: pre; opacity: 1;">aisy_mlp_id</text></g><g class="xtick"><text text-anchor="middle" x="0" y="440.4" transform="translate(436.25,0)" style="font-family: 'Open Sans', verdana, arial, sans-serif; font-size: 12px; fill: rgb(51, 51, 51); fill-opacity: 1; white-space: pre; opacity: 1;">aisy_mlp_hw</text></g></g><g class="yaxislayer-above"><path class="ytick ticks crisp" d="M79,0h-5" transform="translate(0,401.88)" style="stroke: rgb(51, 51, 51); stroke-opacity: 1; stroke-width: 1px;"/><path class="ytick ticks crisp" d="M79,0h-5" transform="translate(0,341.83000000000004)" style="stroke: rgb(51, 51, 51); stroke-opacity: 1; stroke-width: 1px;"/><path class="ytick ticks crisp" d="M79,0h-5" transform="translate(0,281.78)" style="stroke: rgb(51, 51, 51); stroke-opacity: 1; stroke-width: 1px;"/><path class="ytick ticks crisp" d="M79,0h-5" transform="translate(0,221.73000000000002)" style="stroke: rgb(51, 51, 51); stroke-opacity: 1; stroke-width: 1px;"/><path class="ytick ticks crisp" d="M79,0h-5" transform="translate(0,161.68)" style="stroke: rgb(51, 51, 51); stroke-opacity: 1; stroke-width: 1px;"/><path class="ytick ticks crisp" d="M79,0h-5" transform="translate(0,101.64)" style="stroke: rgb(51, 51, 51); stroke-opacity: 1; stroke-width: 1px;"/><g class="ytick"><text text-anchor="end" x="71.6" y="4.199999999999999" transform="translate(0,401.88)" style="font-family: 'Open Sans', verdana, arial, sans-serif; font-size: 12px; fill: rgb(51, 51, 51); fill-opacity: 1; white-space: pre; opacity: 1;">0</text></g><g class="ytick"><text text-anchor="end" x="71.6" y="4.199999999999999" style="font-family: 'Open Sans', verdana, arial, sans-serif; font-size: 12px; fill: rgb(51, 51, 51); fill-opacity: 1; white-space: pre; opacity: 1;" transform="translate(0,341.83000000000004)">10</text></g><g class="ytick"><text text-anchor="end" x="71.6" y="4.199999999999999" style="font-family: 'Open Sans', verdana, arial, sans-serif; font-size: 12px; fill: rgb(51, 51, 51); fill-opacity: 1; white-space: pre; opacity: 1;" transform="translate(0,281.78)">20</text></g><g class="ytick"><text text-anchor="end" x="71.6" y="4.199999999999999" style="font-family: 'Open Sans', verdana, arial, sans-serif; font-size: 12px; fill: rgb(51, 51, 51); fill-opacity: 1; white-space: pre; opacity: 1;" transform="translate(0,221.73000000000002)">30</text></g><g class="ytick"><text text-anchor="end" x="71.6" y="4.199999999999999" style="font-family: 'Open Sans', verdana, arial, sans-serif; font-size: 12px; fill: rgb(51, 51, 51); fill-opacity: 1; white-space: pre; opacity: 1;" transform="translate(0,161.68)">40</text></g><g class="ytick"><text text-anchor="end" x="71.6" y="4.199999999999999" style="font-family: 'Open Sans', verdana, arial, sans-serif; font-size: 12px; fill: rgb(51, 51, 51); fill-opacity: 1; white-space: pre; opacity: 1;" transform="translate(0,101.64)">50</text></g></g><g class="overaxes-above"/></g></g><g class="polarlayer"/><g class="ternarylayer"/><g class="geolayer"/><g class="funnelarealayer"/><g class="pielayer"/><g class="iciclelayer"/><g class="treemaplayer"/><g class="sunburstlayer"/><g class="glimages"/><defs id="topdefs-4f1f68"><g class="clips"/><clipPath id="legend4f1f68"><rect width="125" height="67" x="0" y="0"/></clipPath></defs><g class="layer-above"><g class="imagelayer"/><g class="shapelayer"/></g><g class="infolayer"><g class="legend" pointer-events="all" transform="translate(563.48,100)"><rect class="bg" shape-rendering="crispEdges" width="125" height="67" x="0" y="0" style="stroke: rgb(68, 68, 68); stroke-opacity: 1; fill: rgb(255, 255, 255); fill-opacity: 1; stroke-width: 0px;"/><g class="scrollbox" transform="" clip-path="url(#legend4f1f68)"><text class="legendtitletext" text-anchor="start" x="2" y="18.2" style="font-family: 'Open Sans', verdana, arial, sans-serif; font-size: 14px; fill: rgb(51, 51, 51); fill-opacity: 1; white-space: pre;">model</text><g class="groups" transform=""><g class="traces" transform="translate(0,32.7)" style="opacity: 1;"><text class="legendtext" text-anchor="start" x="40" y="4.680000000000001" style="font-family: 'Open Sans', verdana, arial, sans-serif; font-size: 12px; fill: rgb(51, 51, 51); fill-opacity: 1; white-space: pre;">aisy_mlp_id</text><g class="layers" style="opacity: 1;"><g class="legendfill"/><g class="legendlines"/><g class="legendsymbols"><g class="legendpoints"><path class="legendbox" d="M6,6H-6V-6H6Z" transform="translate(20,0)" style="stroke-width: 2px; fill: rgb(99, 110, 250); fill-opacity: 0.5; stroke: rgb(99, 110, 250); stroke-opacity: 1;"/></g></g></g><rect class="legendtoggle" x="0" y="-9.5" width="119.09375" height="19" style="fill: rgb(0, 0, 0); fill-opacity: 0;"/></g></g><g class="groups" transform=""><g class="traces" transform="translate(0,51.7)" style="opacity: 1;"><text class="legendtext" text-anchor="start" x="40" y="4.680000000000001" style="font-family: 'Open Sans', verdana, arial, sans-serif; font-size: 12px; fill: rgb(51, 51, 51); fill-opacity: 1; white-space: pre;">aisy_mlp_hw</text><g class="layers" style="opacity: 1;"><g class="legendfill"/><g class="legendlines"/><g class="legendsymbols"><g class="legendpoints"><path class="legendbox" d="M6,6H-6V-6H6Z" transform="translate(20,0)" style="stroke-width: 2px; fill: rgb(239, 85, 59); fill-opacity: 0.5; stroke: rgb(239, 85, 59); stroke-opacity: 1;"/></g></g></g><rect class="legendtoggle" x="0" y="-9.5" width="119.09375" height="19" style="fill: rgb(0, 0, 0); fill-opacity: 0;"/></g></g></g><rect class="scrollbar" rx="20" ry="3" width="0" height="0" x="0" y="0" style="fill: rgb(128, 139, 164); fill-opacity: 1;"/></g><g class="g-gtitle"><text class="gtitle" x="350" y="50" text-anchor="middle" dy="0em" style="font-family: 'Open Sans', verdana, arial, sans-serif; font-size: 17px; fill: rgb(51, 51, 51); opacity: 1; font-weight: normal; white-space: pre;">Distribution of average ranks over 50 experiments (with 300 traces)</text></g><g class="g-xtitle"><text class="xtitle" x="317" y="468.20625" text-anchor="middle" style="font-family: 'Open Sans', verdana, arial, sans-serif; font-size: 14px; fill: rgb(51, 51, 51); opacity: 1; font-weight: normal; white-space: pre;">model</text></g><g class="g-ytitle"><text class="ytitle" transform="rotate(-90,31.528125000000003,260)" x="31.528125000000003" y="260" text-anchor="middle" style="font-family: 'Open Sans', verdana, arial, sans-serif; font-size: 14px; fill: rgb(51, 51, 51); opacity: 1; font-weight: normal; white-space: pre;">Average Ranks</text></g><g class="annotation" data-index="0" style="opacity: 1;"><g class="annotation-text-g" transform="rotate(0,200.75,133)"><g class="cursor-pointer" transform="translate(158,100)"><rect class="bg" x="0.5" y="0.5" width="85" height="65" style="stroke-width: 1px; stroke: rgb(0, 0, 0); stroke-opacity: 1; fill: rgb(211, 211, 211); fill-opacity: 1;"/><text class="annotation-text" text-anchor="middle" x="42.65625" y="-1.59375" style="font-family: 'Open Sans', verdana, arial, sans-serif; font-size: 12px; fill: rgb(51, 51, 51); fill-opacity: 1; white-space: pre;"><tspan class="line" dy="0em" x="42.65625" y="-1.59375"></tspan><tspan class="line" dy="1.3em" x="42.65625" y="-1.59375">min: 0.33</tspan><tspan class="line" dy="2.6em" x="42.65625" y="-1.59375">max: 34.52</tspan><tspan class="line" dy="3.9000000000000004em" x="42.65625" y="-1.59375">median: 0.99</tspan><tspan class="line" dy="5.2em" x="42.65625" y="-1.59375">mean: 1.86</tspan></text></g></g></g><g class="annotation" data-index="1" style="opacity: 1;"><g class="annotation-text-g" transform="rotate(0,436.25,133)"><g class="cursor-pointer" transform="translate(393,100)"><rect class="bg" x="0.5" y="0.5" width="85" height="65" style="stroke-width: 1px; stroke: rgb(0, 0, 0); stroke-opacity: 1; fill: rgb(211, 211, 211); fill-opacity: 1;"/><text class="annotation-text" text-anchor="middle" x="42.65625" y="-1.59375" style="font-family: 'Open Sans', verdana, arial, sans-serif; font-size: 12px; fill: rgb(51, 51, 51); fill-opacity: 1; white-space: pre;"><tspan class="line" dy="0em" x="42.65625" y="-1.59375"></tspan><tspan class="line" dy="1.3em" x="42.65625" y="-1.59375">min: 4.19</tspan><tspan class="line" dy="2.6em" x="42.65625" y="-1.59375">max: 23.00</tspan><tspan class="line" dy="3.9000000000000004em" x="42.65625" y="-1.59375">median: 7.99</tspan><tspan class="line" dy="5.2em" x="42.65625" y="-1.59375">mean: 8.91</tspan></text></g></g></g></g></svg>