<svg class="main-svg" xmlns="http://www.w3.org/2000/svg" xmlns:xlink="http://www.w3.org/1999/xlink" width="700" height="500" style="" viewBox="0 0 700 500"><rect x="0" y="0" width="700" height="500" style="fill: rgb(255, 255, 255); fill-opacity: 1;"/><defs id="defs-1578d1"><g class="clips"><clipPath id="clip1578d1xyplot" class="plotclip"><rect width="474" height="320"/></clipPath><clipPath class="axesclip" id="clip1578d1x"><rect x="80" y="0" width="474" height="500"/></clipPath><clipPath class="axesclip" id="clip1578d1y"><rect x="0" y="100" width="700" height="320"/></clipPath><clipPath class="axesclip" id="clip1578d1xy"><rect x="80" y="100" width="474" height="320"/></clipPath></g><g class="gradients"/><g class="patterns"/></defs><g class="bglayer"><rect class="bg" x="80" y="100" width="474" height="320" style="fill: rgb(237, 237, 237); fill-opacity: 1; stroke-width: 0;"/></g><g class="layer-below"><g class="imagelayer"/><g class="shapelayer"/></g><g class="cartesianlayer"><g class="subplot xy"><g class="layer-subplot"><g class="shapelayer"/><g class="imagelayer"/></g><g class="gridlayer"><g class="x"><path class="xgrid crisp" transform="translate(200.75,0)" d="M0,100v320" style="stroke: rgb(255, 255, 255); stroke-opacity: 1; stroke-width: 1px;"/><path class="xgrid crisp" transform="translate(436.25,0)" d="M0,100v320" style="stroke: rgb(255, 255, 255); stroke-opacity: 1; stroke-width: 1px;"/></g><g class="y"><path class="ygrid crisp" transform="translate(0,341.02)" d="M80,0h474" style="stroke: rgb(255, 255, 255); stroke-opacity: 1; stroke-width: 1px;"/><path class="ygrid crisp" transform="translate(0,279.45)" d="M80,0h474" style="stroke: rgb(255, 255, 255); stroke-opacity: 1; stroke-width: 1px;"/><path class="ygrid crisp" transform="translate(0,217.87)" d="M80,0h474" style="stroke: rgb(255, 255, 255); stroke-opacity: 1; stroke-width: 1px;"/><path class="ygrid crisp" transform="translate(0,156.29)" d="M80,0h474" style="stroke: rgb(255, 255, 255); stroke-opacity: 1; stroke-width: 1px;"/></g></g><g class="zerolinelayer"><path class="yzl zl crisp" transform="translate(0,402.6)" d="M80,0h474" style="stroke: rgb(255, 255, 255); stroke-opacity: 1; stroke-width: 1px;"/></g><path class="xlines-below"/><path class="ylines-below"/><g class="overlines-below"/><g class="xaxislayer-below"/><g class="yaxislayer-below"/><g class="overaxes-below"/><g class="plot" transform="translate(80,100)" clip-path="url(#clip1578d1xyplot)"><g class="violinlayer mlayer"><g class="trace violins" style="opacity: 1;"><path class="violin" d="M121.45,304Q121.91,303.53 122.22,303.32C122.6,303.06 123.06,302.84 123.58,302.63C124.22,302.37 124.99,302.16 125.81,301.95C126.81,301.7 127.95,301.47 129.17,301.26C130.6,301.01 132.19,300.8 133.86,300.58C135.75,300.34 137.82,300.11 139.93,299.89C142.23,299.65 144.69,299.43 147.15,299.21C149.71,298.98 152.4,298.76 155,298.53C157.58,298.3 160.23,298.08 162.71,297.84C165.04,297.62 167.37,297.41 169.46,297.16C171.28,296.95 173.08,296.73 174.55,296.47C175.69,296.26 176.89,296.11 177.57,295.79C177.98,295.6 178.46,295.32 178.45,295.1C178.44,294.86 177.84,294.62 177.38,294.42C176.71,294.13 175.69,293.94 174.72,293.73C173.56,293.48 172.21,293.27 170.86,293.05C169.36,292.81 167.75,292.59 166.12,292.37C164.4,292.14 162.61,291.91 160.81,291.68C158.96,291.45 157.06,291.23 155.19,291C153.32,290.77 151.42,290.54 149.58,290.31C147.8,290.09 146.02,289.87 144.33,289.63C142.74,289.41 141.18,289.18 139.71,288.94C138.36,288.72 137.06,288.5 135.84,288.26C134.73,288.04 133.67,287.82 132.66,287.58C131.73,287.36 130.86,287.13 130.01,286.89C129.22,286.67 128.47,286.45 127.75,286.21C127.07,285.99 126.41,285.76 125.79,285.52C125.22,285.3 124.67,285.08 124.17,284.84C123.72,284.62 123.29,284.39 122.91,284.15C122.58,283.93 122.26,283.71 122.02,283.47C121.81,283.26 121.63,283.03 121.5,282.79C121.38,282.57 121.3,282.33 121.27,282.1C121.24,281.88 121.26,281.64 121.3,281.42C121.34,281.19 121.43,280.95 121.53,280.73C121.63,280.5 121.77,280.27 121.91,280.05C122.05,279.82 122.22,279.59 122.37,279.36C122.52,279.13 122.69,278.91 122.82,278.68C122.95,278.46 123.07,278.22 123.15,277.99C123.23,277.77 123.28,277.54 123.31,277.31C123.34,277.08 123.34,276.86 123.34,276.63C123.34,276.4 123.31,276.17 123.31,275.94C123.31,275.71 123.3,275.49 123.31,275.26C123.32,275.03 123.36,274.8 123.39,274.57C123.42,274.34 123.47,274.12 123.51,273.89C123.55,273.66 123.6,273.43 123.63,273.2C123.66,272.97 123.69,272.75 123.7,272.52C123.71,272.29 123.72,272.07 123.72,271.84C123.72,271.61 123.72,271.38 123.71,271.15C123.7,270.92 123.7,270.7 123.68,270.47C123.66,270.24 123.64,270.01 123.6,269.78C123.55,269.55 123.49,269.32 123.41,269.1C123.32,268.87 123.21,268.64 123.09,268.41C122.97,268.18 122.82,267.96 122.69,267.73C122.56,267.5 122.41,267.28 122.3,267.05C122.2,266.83 122.1,266.59 122.05,266.36C122,266.14 121.99,265.91 122.01,265.68C122.03,265.45 122.1,265.22 122.18,264.99C122.26,264.76 122.38,264.54 122.49,264.31C122.6,264.08 122.74,263.85 122.83,263.62C122.92,263.4 123.01,263.17 123.04,262.94C123.07,262.72 123.07,262.48 123.03,262.26C122.99,262.03 122.89,261.79 122.79,261.57C122.68,261.34 122.53,261.12 122.39,260.89C122.25,260.66 122.08,260.43 121.93,260.2C121.78,259.97 121.63,259.75 121.51,259.52C121.39,259.29 121.28,259.06 121.19,258.83C121.1,258.61 121.03,258.38 120.97,258.15C120.91,257.92 120.88,257.69 120.85,257.46C120.82,257.23 120.8,257.01 120.79,256.78C120.78,256.55 120.77,256.33 120.77,256.1C120.76,255.87 120.76,255.64 120.76,255.41C120.76,255.18 120.75,254.96 120.75,254.73C120.75,254.5 120.75,254.27 120.75,254.04C120.75,253.81 120.75,253.59 120.75,253.36C120.75,253.13 120.75,252.9 120.75,252.67C120.75,252.44 120.75,252.22 120.75,251.99C120.75,251.76 120.75,251.54 120.75,251.31C120.75,251.08 120.75,250.85 120.75,250.62C120.75,250.39 120.75,250.17 120.75,249.94C120.75,249.71 120.75,249.48 120.75,249.25C120.75,249.02 120.75,248.8 120.75,248.57C120.75,248.34 120.75,248.11 120.75,247.88C120.75,247.65 120.75,247.43 120.75,247.2C120.75,246.97 120.75,246.75 120.75,246.52C120.75,246.29 120.75,246.06 120.75,245.83C120.75,245.6 120.75,245.38 120.75,245.15C120.75,244.92 120.75,244.69 120.75,244.46C120.75,244.23 120.75,244.01 120.75,243.78C120.75,243.55 120.75,243.32 120.75,243.09C120.75,242.86 120.75,242.64 120.75,242.41C120.75,242.18 120.75,241.95 120.75,241.72C120.75,241.49 120.75,241.27 120.75,241.04C120.75,240.81 120.75,240.59 120.75,240.36C120.75,240.13 120.75,239.9 120.75,239.67C120.75,239.44 120.75,239.22 120.75,238.99C120.75,238.76 120.75,238.53 120.75,238.3C120.75,238.07 120.75,237.85 120.75,237.62C120.75,237.39 120.75,237.16 120.75,236.93C120.75,236.7 120.75,236.48 120.75,236.25C120.75,236.02 120.75,235.8 120.75,235.57C120.75,235.34 120.75,235.11 120.75,234.88C120.75,234.65 120.75,234.43 120.75,234.2C120.75,233.97 120.75,233.74 120.75,233.51C120.75,233.28 120.75,233.06 120.75,232.83C120.75,232.6 120.75,232.37 120.75,232.14C120.75,231.91 120.75,231.69 120.75,231.46C120.75,231.23 120.75,231.01 120.75,230.78C120.75,230.55 120.75,230.32 120.75,230.09C120.75,229.86 120.75,229.64 120.75,229.41C120.75,229.18 120.75,228.95 120.75,228.72C120.75,228.49 120.75,228.27 120.75,228.04C120.75,227.81 120.75,227.58 120.75,227.35C120.75,227.12 120.75,226.9 120.75,226.67C120.75,226.44 120.75,226.21 120.75,225.98C120.75,225.75 120.75,225.53 120.75,225.3C120.75,225.07 120.75,224.85 120.75,224.62C120.75,224.39 120.75,224.16 120.75,223.93C120.75,223.7 120.75,223.48 120.75,223.25C120.75,223.02 120.75,222.79 120.75,222.56C120.75,222.33 120.75,222.11 120.75,221.88C120.75,221.65 120.75,221.42 120.75,221.19C120.75,220.96 120.75,220.74 120.75,220.51C120.75,220.28 120.75,220.06 120.75,219.83C120.75,219.6 120.75,219.37 120.75,219.14C120.75,218.91 120.75,218.69 120.75,218.46C120.75,218.23 120.75,218 120.75,217.77C120.75,217.54 120.75,217.32 120.75,217.09C120.75,216.86 120.75,216.63 120.75,216.4C120.75,216.17 120.75,215.95 120.75,215.72C120.75,215.49 120.75,215.27 120.75,215.04C120.75,214.81 120.75,214.58 120.75,214.35C120.75,214.12 120.75,213.9 120.75,213.67C120.75,213.44 120.75,213.21 120.75,212.98C120.75,212.75 120.75,212.53 120.75,212.3C120.75,212.07 120.75,211.84 120.75,211.61C120.75,211.38 120.75,211.16 120.75,210.93C120.75,210.7 120.75,210.47 120.75,210.24C120.75,210.01 120.75,209.79 120.75,209.56C120.75,209.33 120.75,209.11 120.75,208.88C120.75,208.65 120.75,208.42 120.75,208.19C120.75,207.96 120.75,207.74 120.75,207.51C120.75,207.28 120.75,207.05 120.75,206.82C120.75,206.59 120.75,206.37 120.75,206.14C120.75,205.91 120.75,205.68 120.75,205.45C120.75,205.22 120.75,205 120.75,204.77C120.75,204.54 120.75,204.32 120.75,204.09C120.75,203.86 120.75,203.63 120.75,203.4C120.75,203.17 120.75,202.95 120.75,202.72C120.75,202.49 120.75,202.26 120.75,202.03C120.75,201.8 120.75,201.58 120.75,201.35C120.75,201.12 120.75,200.89 120.75,200.66C120.75,200.43 120.75,200.21 120.75,199.98C120.75,199.75 120.75,199.53 120.75,199.3C120.75,199.07 120.75,198.84 120.75,198.61C120.75,198.38 120.75,198.16 120.75,197.93C120.75,197.7 120.75,197.47 120.75,197.24C120.75,197.01 120.75,196.79 120.75,196.56C120.75,196.33 120.75,196.1 120.75,195.87C120.75,195.64 120.75,195.42 120.75,195.19C120.75,194.96 120.75,194.74 120.75,194.51C120.75,194.28 120.75,194.05 120.75,193.82C120.75,193.59 120.75,193.37 120.75,193.14C120.75,192.91 120.75,192.68 120.75,192.45C120.75,192.22 120.75,192 120.75,191.77C120.75,191.54 120.75,191.31 120.75,191.08C120.75,190.85 120.75,190.63 120.75,190.4C120.75,190.17 120.75,189.94 120.75,189.71C120.75,189.48 120.75,189.26 120.75,189.03C120.75,188.8 120.75,188.58 120.75,188.35C120.75,188.12 120.75,187.89 120.75,187.66C120.75,187.43 120.75,187.21 120.75,186.98C120.75,186.75 120.75,186.52 120.75,186.29C120.75,186.06 120.75,185.84 120.75,185.61C120.75,185.38 120.75,185.15 120.75,184.92C120.75,184.69 120.75,184.47 120.75,184.24C120.75,184.01 120.75,183.79 120.75,183.56C120.75,183.33 120.75,183.1 120.75,182.87C120.75,182.64 120.75,182.42 120.75,182.19C120.75,181.96 120.75,181.73 120.75,181.5C120.75,181.27 120.75,181.05 120.75,180.82C120.75,180.59 120.75,180.36 120.75,180.13C120.75,179.9 120.75,179.68 120.75,179.45C120.75,179.22 120.75,179 120.75,178.77C120.75,178.54 120.75,178.31 120.75,178.08C120.75,177.85 120.75,177.63 120.75,177.4C120.75,177.17 120.75,176.94 120.75,176.71C120.75,176.48 120.75,176.26 120.75,176.03C120.75,175.8 120.75,175.57 120.75,175.34C120.75,175.11 120.75,174.89 120.75,174.66C120.75,174.43 120.75,174.2 120.75,173.97C120.75,173.74 120.75,173.52 120.75,173.29C120.75,173.06 120.75,172.84 120.75,172.61C120.75,172.38 120.75,172.15 120.75,171.92C120.75,171.69 120.75,171.47 120.75,171.24C120.75,171.01 120.75,170.78 120.75,170.55C120.75,170.32 120.75,170.1 120.75,169.87C120.75,169.64 120.75,169.41 120.75,169.18C120.75,168.95 120.75,168.73 120.75,168.5C120.75,168.27 120.75,168.05 120.75,167.82C120.75,167.59 120.75,167.36 120.75,167.13C120.75,166.9 120.75,166.68 120.75,166.45C120.75,166.22 120.75,165.99 120.75,165.76C120.75,165.53 120.75,165.31 120.75,165.08C120.75,164.85 120.75,164.62 120.75,164.39C120.75,164.16 120.75,163.94 120.75,163.71C120.75,163.48 120.75,163.26 120.75,163.03C120.75,162.8 120.75,162.57 120.75,162.34C120.75,162.11 120.75,161.89 120.75,161.66C120.75,161.43 120.75,161.2 120.75,160.97C120.75,160.74 120.75,160.52 120.75,160.29C120.75,160.06 120.75,159.83 120.75,159.6C120.75,159.37 120.75,159.15 120.75,158.92C120.75,158.69 120.75,158.46 120.75,158.23C120.75,158 120.75,157.78 120.75,157.55C120.75,157.32 120.75,157.1 120.75,156.87C120.75,156.64 120.75,156.41 120.75,156.18C120.75,155.95 120.75,155.73 120.75,155.5C120.75,155.27 120.75,155.04 120.75,154.81C120.75,154.58 120.75,154.36 120.75,154.13C120.75,153.9 120.75,153.67 120.75,153.44C120.75,153.21 120.75,152.99 120.75,152.76C120.75,152.53 120.75,152.31 120.75,152.08C120.75,151.85 120.75,151.62 120.75,151.39C120.75,151.16 120.75,150.94 120.75,150.71C120.75,150.48 120.75,150.25 120.75,150.02C120.75,149.79 120.75,149.57 120.75,149.34C120.75,149.11 120.75,148.88 120.75,148.65C120.75,148.42 120.75,148.2 120.75,147.97C120.75,147.74 120.75,147.52 120.75,147.29C120.75,147.06 120.75,146.83 120.75,146.6C120.75,146.37 120.75,146.15 120.75,145.92C120.75,145.69 120.75,145.46 120.75,145.23C120.75,145 120.75,144.78 120.75,144.55C120.75,144.32 120.75,144.09 120.75,143.86C120.75,143.63 120.75,143.41 120.75,143.18C120.75,142.95 120.75,142.72 120.75,142.49C120.75,142.26 120.75,142.04 120.75,141.81C120.75,141.58 120.75,141.36 120.75,141.13C120.75,140.9 120.75,140.67 120.75,140.44C120.75,140.21 120.75,139.99 120.75,139.76C120.75,139.53 120.75,139.3 120.75,139.07C120.75,138.84 120.75,138.62 120.75,138.39C120.75,138.16 120.75,137.93 120.75,137.7C120.75,137.47 120.75,137.25 120.75,137.02C120.75,136.79 120.75,136.57 120.75,136.34C120.75,136.11 120.75,135.88 120.75,135.65C120.75,135.42 120.75,135.2 120.75,134.97C120.75,134.74 120.75,134.51 120.75,134.28C120.75,134.05 120.75,133.83 120.75,133.6C120.75,133.37 120.75,133.14 120.75,132.91C120.75,132.68 120.75,132.46 120.75,132.23C120.75,132 120.75,131.78 120.75,131.55C120.75,131.32 120.75,131.09 120.75,130.86C120.75,130.63 120.75,130.41 120.75,130.18C120.75,129.95 120.75,129.72 120.75,129.49C120.75,129.26 120.75,129.04 120.75,128.81C120.75,128.58 120.75,128.35 120.75,128.12C120.75,127.89 120.75,127.67 120.75,127.44C120.75,127.21 120.75,126.99 120.75,126.76C120.75,126.53 120.75,126.3 120.75,126.07C120.75,125.84 120.75,125.62 120.75,125.39C120.75,125.16 120.75,124.93 120.75,124.7C120.75,124.47 120.75,124.25 120.75,124.02C120.75,123.79 120.75,123.56 120.75,123.33C120.75,123.1 120.75,122.88 120.75,122.65C120.75,122.42 120.75,122.19 120.75,121.96C120.75,121.73 120.75,121.51 120.75,121.28C120.75,121.05 120.75,120.83 120.75,120.6C120.75,120.37 120.75,120.14 120.75,119.91C120.75,119.68 120.75,119.46 120.75,119.23C120.75,119 120.75,118.77 120.75,118.54C120.75,118.31 120.75,118.09 120.75,117.86C120.75,117.63 120.75,117.4 120.75,117.17C120.75,116.94 120.75,116.72 120.75,116.49C120.75,116.26 120.75,116.04 120.75,115.81C120.75,115.58 120.75,115.35 120.75,115.12C120.75,114.89 120.75,114.67 120.75,114.44C120.75,114.21 120.75,113.98 120.75,113.75C120.75,113.52 120.75,113.3 120.75,113.07C120.75,112.84 120.75,112.61 120.75,112.38C120.75,112.15 120.75,111.93 120.75,111.7C120.75,111.47 120.75,111.25 120.75,111.02C120.75,110.79 120.75,110.56 120.75,110.33C120.75,110.1 120.75,109.88 120.75,109.65C120.75,109.42 120.75,109.19 120.75,108.96C120.75,108.73 120.75,108.51 120.75,108.28C120.75,108.05 120.75,107.82 120.75,107.59C120.75,107.36 120.75,107.14 120.75,106.91C120.75,106.68 120.75,106.45 120.75,106.22C120.75,105.99 120.75,105.77 120.75,105.54C120.75,105.31 120.75,105.09 120.75,104.86C120.75,104.63 120.75,104.4 120.75,104.17C120.75,103.94 120.75,103.72 120.75,103.49C120.75,103.26 120.75,103.03 120.75,102.8C120.75,102.57 120.75,102.35 120.75,102.12C120.75,101.89 120.75,101.66 120.76,101.43C120.76,101.2 120.77,100.98 120.78,100.75C120.79,100.52 120.8,100.3 120.82,100.07C120.84,99.84 120.86,99.61 120.9,99.38C120.94,99.15 120.99,98.93 121.06,98.7C121.13,98.47 121.22,98.24 121.32,98.01C121.43,97.78 121.56,97.56 121.7,97.33C121.84,97.1 122,96.87 122.15,96.64C122.3,96.41 122.46,96.19 122.59,95.96C122.72,95.74 122.85,95.51 122.93,95.28C123,95.06 123.05,94.82 123.05,94.59C123.05,94.36 123,94.13 122.93,93.91C122.85,93.68 122.72,93.45 122.59,93.22C122.46,92.99 122.3,92.77 122.15,92.54C122,92.31 121.84,92.08 121.7,91.85C121.56,91.62 121.43,91.4 121.32,91.17Q121.22,90.94 121.06,90.48L120.44,90.48Q120.28,90.94 120.18,91.17C120.07,91.4 119.94,91.62 119.8,91.85C119.66,92.08 119.5,92.31 119.35,92.54C119.2,92.77 119.04,92.99 118.91,93.22C118.78,93.45 118.65,93.68 118.57,93.91C118.5,94.13 118.45,94.36 118.45,94.59C118.45,94.82 118.5,95.06 118.57,95.28C118.65,95.51 118.78,95.74 118.91,95.96C119.04,96.19 119.2,96.41 119.35,96.64C119.5,96.87 119.66,97.1 119.8,97.33C119.94,97.56 120.07,97.78 120.18,98.01C120.28,98.24 120.37,98.47 120.44,98.7C120.51,98.93 120.56,99.15 120.6,99.38C120.64,99.61 120.66,99.84 120.68,100.07C120.7,100.3 120.71,100.52 120.72,100.75C120.73,100.98 120.74,101.2 120.74,101.43C120.75,101.66 120.75,101.89 120.75,102.12C120.75,102.35 120.75,102.57 120.75,102.8C120.75,103.03 120.75,103.26 120.75,103.49C120.75,103.72 120.75,103.94 120.75,104.17C120.75,104.4 120.75,104.63 120.75,104.86C120.75,105.09 120.75,105.31 120.75,105.54C120.75,105.77 120.75,105.99 120.75,106.22C120.75,106.45 120.75,106.68 120.75,106.91C120.75,107.14 120.75,107.36 120.75,107.59C120.75,107.82 120.75,108.05 120.75,108.28C120.75,108.51 120.75,108.73 120.75,108.96C120.75,109.19 120.75,109.42 120.75,109.65C120.75,109.88 120.75,110.1 120.75,110.33C120.75,110.56 120.75,110.79 120.75,111.02C120.75,111.25 120.75,111.47 120.75,111.7C120.75,111.93 120.75,112.15 120.75,112.38C120.75,112.61 120.75,112.84 120.75,113.07C120.75,113.3 120.75,113.52 120.75,113.75C120.75,113.98 120.75,114.21 120.75,114.44C120.75,114.67 120.75,114.89 120.75,115.12C120.75,115.35 120.75,115.58 120.75,115.81C120.75,116.04 120.75,116.26 120.75,116.49C120.75,116.72 120.75,116.94 120.75,117.17C120.75,117.4 120.75,117.63 120.75,117.86C120.75,118.09 120.75,118.31 120.75,118.54C120.75,118.77 120.75,119 120.75,119.23C120.75,119.46 120.75,119.68 120.75,119.91C120.75,120.14 120.75,120.37 120.75,120.6C120.75,120.83 120.75,121.05 120.75,121.28C120.75,121.51 120.75,121.73 120.75,121.96C120.75,122.19 120.75,122.42 120.75,122.65C120.75,122.88 120.75,123.1 120.75,123.33C120.75,123.56 120.75,123.79 120.75,124.02C120.75,124.25 120.75,124.47 120.75,124.7C120.75,124.93 120.75,125.16 120.75,125.39C120.75,125.62 120.75,125.84 120.75,126.07C120.75,126.3 120.75,126.53 120.75,126.76C120.75,126.99 120.75,127.21 120.75,127.44C120.75,127.67 120.75,127.89 120.75,128.12C120.75,128.35 120.75,128.58 120.75,128.81C120.75,129.04 120.75,129.26 120.75,129.49C120.75,129.72 120.75,129.95 120.75,130.18C120.75,130.41 120.75,130.63 120.75,130.86C120.75,131.09 120.75,131.32 120.75,131.55C120.75,131.78 120.75,132 120.75,132.23C120.75,132.46 120.75,132.68 120.75,132.91C120.75,133.14 120.75,133.37 120.75,133.6C120.75,133.83 120.75,134.05 120.75,134.28C120.75,134.51 120.75,134.74 120.75,134.97C120.75,135.2 120.75,135.42 120.75,135.65C120.75,135.88 120.75,136.11 120.75,136.34C120.75,136.57 120.75,136.79 120.75,137.02C120.75,137.25 120.75,137.47 120.75,137.7C120.75,137.93 120.75,138.16 120.75,138.39C120.75,138.62 120.75,138.84 120.75,139.07C120.75,139.3 120.75,139.53 120.75,139.76C120.75,139.99 120.75,140.21 120.75,140.44C120.75,140.67 120.75,140.9 120.75,141.13C120.75,141.36 120.75,141.58 120.75,141.81C120.75,142.04 120.75,142.26 120.75,142.49C120.75,142.72 120.75,142.95 120.75,143.18C120.75,143.41 120.75,143.63 120.75,143.86C120.75,144.09 120.75,144.32 120.75,144.55C120.75,144.78 120.75,145 120.75,145.23C120.75,145.46 120.75,145.69 120.75,145.92C120.75,146.15 120.75,146.37 120.75,146.6C120.75,146.83 120.75,147.06 120.75,147.29C120.75,147.52 120.75,147.74 120.75,147.97C120.75,148.2 120.75,148.42 120.75,148.65C120.75,148.88 120.75,149.11 120.75,149.34C120.75,149.57 120.75,149.79 120.75,150.02C120.75,150.25 120.75,150.48 120.75,150.71C120.75,150.94 120.75,151.16 120.75,151.39C120.75,151.62 120.75,151.85 120.75,152.08C120.75,152.31 120.75,152.53 120.75,152.76C120.75,152.99 120.75,153.21 120.75,153.44C120.75,153.67 120.75,153.9 120.75,154.13C120.75,154.36 120.75,154.58 120.75,154.81C120.75,155.04 120.75,155.27 120.75,155.5C120.75,155.73 120.75,155.95 120.75,156.18C120.75,156.41 120.75,156.64 120.75,156.87C120.75,157.1 120.75,157.32 120.75,157.55C120.75,157.78 120.75,158 120.75,158.23C120.75,158.46 120.75,158.69 120.75,158.92C120.75,159.15 120.75,159.37 120.75,159.6C120.75,159.83 120.75,160.06 120.75,160.29C120.75,160.52 120.75,160.74 120.75,160.97C120.75,161.2 120.75,161.43 120.75,161.66C120.75,161.89 120.75,162.11 120.75,162.34C120.75,162.57 120.75,162.8 120.75,163.03C120.75,163.26 120.75,163.48 120.75,163.71C120.75,163.94 120.75,164.16 120.75,164.39C120.75,164.62 120.75,164.85 120.75,165.08C120.75,165.31 120.75,165.53 120.75,165.76C120.75,165.99 120.75,166.22 120.75,166.45C120.75,166.68 120.75,166.9 120.75,167.13C120.75,167.36 120.75,167.59 120.75,167.82C120.75,168.05 120.75,168.27 120.75,168.5C120.75,168.73 120.75,168.95 120.75,169.18C120.75,169.41 120.75,169.64 120.75,169.87C120.75,170.1 120.75,170.32 120.75,170.55C120.75,170.78 120.75,171.01 120.75,171.24C120.75,171.47 120.75,171.69 120.75,171.92C120.75,172.15 120.75,172.38 120.75,172.61C120.75,172.84 120.75,173.06 120.75,173.29C120.75,173.52 120.75,173.74 120.75,173.97C120.75,174.2 120.75,174.43 120.75,174.66C120.75,174.89 120.75,175.11 120.75,175.34C120.75,175.57 120.75,175.8 120.75,176.03C120.75,176.26 120.75,176.48 120.75,176.71C120.75,176.94 120.75,177.17 120.75,177.4C120.75,177.63 120.75,177.85 120.75,178.08C120.75,178.31 120.75,178.54 120.75,178.77C120.75,179 120.75,179.22 120.75,179.45C120.75,179.68 120.75,179.9 120.75,180.13C120.75,180.36 120.75,180.59 120.75,180.82C120.75,181.05 120.75,181.27 120.75,181.5C120.75,181.73 120.75,181.96 120.75,182.19C120.75,182.42 120.75,182.64 120.75,182.87C120.75,183.1 120.75,183.33 120.75,183.56C120.75,183.79 120.75,184.01 120.75,184.24C120.75,184.47 120.75,184.69 120.75,184.92C120.75,185.15 120.75,185.38 120.75,185.61C120.75,185.84 120.75,186.06 120.75,186.29C120.75,186.52 120.75,186.75 120.75,186.98C120.75,187.21 120.75,187.43 120.75,187.66C120.75,187.89 120.75,188.12 120.75,188.35C120.75,188.58 120.75,188.8 120.75,189.03C120.75,189.26 120.75,189.48 120.75,189.71C120.75,189.94 120.75,190.17 120.75,190.4C120.75,190.63 120.75,190.85 120.75,191.08C120.75,191.31 120.75,191.54 120.75,191.77C120.75,192 120.75,192.22 120.75,192.45C120.75,192.68 120.75,192.91 120.75,193.14C120.75,193.37 120.75,193.59 120.75,193.82C120.75,194.05 120.75,194.28 120.75,194.51C120.75,194.74 120.75,194.96 120.75,195.19C120.75,195.42 120.75,195.64 120.75,195.87C120.75,196.1 120.75,196.33 120.75,196.56C120.75,196.79 120.75,197.01 120.75,197.24C120.75,197.47 120.75,197.7 120.75,197.93C120.75,198.16 120.75,198.38 120.75,198.61C120.75,198.84 120.75,199.07 120.75,199.3C120.75,199.53 120.75,199.75 120.75,199.98C120.75,200.21 120.75,200.43 120.75,200.66C120.75,200.89 120.75,201.12 120.75,201.35C120.75,201.58 120.75,201.8 120.75,202.03C120.75,202.26 120.75,202.49 120.75,202.72C120.75,202.95 120.75,203.17 120.75,203.4C120.75,203.63 120.75,203.86 120.75,204.09C120.75,204.32 120.75,204.54 120.75,204.77C120.75,205 120.75,205.22 120.75,205.45C120.75,205.68 120.75,205.91 120.75,206.14C120.75,206.37 120.75,206.59 120.75,206.82C120.75,207.05 120.75,207.28 120.75,207.51C120.75,207.74 120.75,207.96 120.75,208.19C120.75,208.42 120.75,208.65 120.75,208.88C120.75,209.11 120.75,209.33 120.75,209.56C120.75,209.79 120.75,210.01 120.75,210.24C120.75,210.47 120.75,210.7 120.75,210.93C120.75,211.16 120.75,211.38 120.75,211.61C120.75,211.84 120.75,212.07 120.75,212.3C120.75,212.53 120.75,212.75 120.75,212.98C120.75,213.21 120.75,213.44 120.75,213.67C120.75,213.9 120.75,214.12 120.75,214.35C120.75,214.58 120.75,214.81 120.75,215.04C120.75,215.27 120.75,215.49 120.75,215.72C120.75,215.95 120.75,216.17 120.75,216.4C120.75,216.63 120.75,216.86 120.75,217.09C120.75,217.32 120.75,217.54 120.75,217.77C120.75,218 120.75,218.23 120.75,218.46C120.75,218.69 120.75,218.91 120.75,219.14C120.75,219.37 120.75,219.6 120.75,219.83C120.75,220.06 120.75,220.28 120.75,220.51C120.75,220.74 120.75,220.96 120.75,221.19C120.75,221.42 120.75,221.65 120.75,221.88C120.75,222.11 120.75,222.33 120.75,222.56C120.75,222.79 120.75,223.02 120.75,223.25C120.75,223.48 120.75,223.7 120.75,223.93C120.75,224.16 120.75,224.39 120.75,224.62C120.75,224.85 120.75,225.07 120.75,225.3C120.75,225.53 120.75,225.75 120.75,225.98C120.75,226.21 120.75,226.44 120.75,226.67C120.75,226.9 120.75,227.12 120.75,227.35C120.75,227.58 120.75,227.81 120.75,228.04C120.75,228.27 120.75,228.49 120.75,228.72C120.75,228.95 120.75,229.18 120.75,229.41C120.75,229.64 120.75,229.86 120.75,230.09C120.75,230.32 120.75,230.55 120.75,230.78C120.75,231.01 120.75,231.23 120.75,231.46C120.75,231.69 120.75,231.91 120.75,232.14C120.75,232.37 120.75,232.6 120.75,232.83C120.75,233.06 120.75,233.28 120.75,233.51C120.75,233.74 120.75,233.97 120.75,234.2C120.75,234.43 120.75,234.65 120.75,234.88C120.75,235.11 120.75,235.34 120.75,235.57C120.75,235.8 120.75,236.02 120.75,236.25C120.75,236.48 120.75,236.7 120.75,236.93C120.75,237.16 120.75,237.39 120.75,237.62C120.75,237.85 120.75,238.07 120.75,238.3C120.75,238.53 120.75,238.76 120.75,238.99C120.75,239.22 120.75,239.44 120.75,239.67C120.75,239.9 120.75,240.13 120.75,240.36C120.75,240.59 120.75,240.81 120.75,241.04C120.75,241.27 120.75,241.49 120.75,241.72C120.75,241.95 120.75,242.18 120.75,242.41C120.75,242.64 120.75,242.86 120.75,243.09C120.75,243.32 120.75,243.55 120.75,243.78C120.75,244.01 120.75,244.23 120.75,244.46C120.75,244.69 120.75,244.92 120.75,245.15C120.75,245.38 120.75,245.6 120.75,245.83C120.75,246.06 120.75,246.29 120.75,246.52C120.75,246.75 120.75,246.97 120.75,247.2C120.75,247.43 120.75,247.65 120.75,247.88C120.75,248.11 120.75,248.34 120.75,248.57C120.75,248.8 120.75,249.02 120.75,249.25C120.75,249.48 120.75,249.71 120.75,249.94C120.75,250.17 120.75,250.39 120.75,250.62C120.75,250.85 120.75,251.08 120.75,251.31C120.75,251.54 120.75,251.76 120.75,251.99C120.75,252.22 120.75,252.44 120.75,252.67C120.75,252.9 120.75,253.13 120.75,253.36C120.75,253.59 120.75,253.81 120.75,254.04C120.75,254.27 120.75,254.5 120.75,254.73C120.75,254.96 120.74,255.18 120.74,255.41C120.74,255.64 120.74,255.87 120.73,256.1C120.73,256.33 120.72,256.55 120.71,256.78C120.7,257.01 120.68,257.23 120.65,257.46C120.62,257.69 120.59,257.92 120.53,258.15C120.47,258.38 120.4,258.61 120.31,258.83C120.22,259.06 120.11,259.29 119.99,259.52C119.87,259.75 119.72,259.97 119.57,260.2C119.42,260.43 119.25,260.66 119.11,260.89C118.97,261.12 118.82,261.34 118.71,261.57C118.61,261.79 118.51,262.03 118.47,262.26C118.43,262.48 118.43,262.72 118.46,262.94C118.49,263.17 118.58,263.4 118.67,263.62C118.76,263.85 118.9,264.08 119.01,264.31C119.12,264.54 119.24,264.76 119.32,264.99C119.4,265.22 119.47,265.45 119.49,265.68C119.51,265.91 119.5,266.14 119.45,266.36C119.4,266.59 119.3,266.83 119.2,267.05C119.09,267.28 118.94,267.5 118.81,267.73C118.68,267.96 118.53,268.18 118.41,268.41C118.29,268.64 118.18,268.87 118.09,269.1C118.01,269.32 117.95,269.55 117.9,269.78C117.86,270.01 117.84,270.24 117.82,270.47C117.8,270.7 117.8,270.92 117.79,271.15C117.78,271.38 117.78,271.61 117.78,271.84C117.78,272.07 117.79,272.29 117.8,272.52C117.81,272.75 117.84,272.97 117.87,273.2C117.9,273.43 117.95,273.66 117.99,273.89C118.03,274.12 118.08,274.34 118.11,274.57C118.14,274.8 118.18,275.03 118.19,275.26C118.2,275.49 118.19,275.71 118.19,275.94C118.19,276.17 118.16,276.4 118.16,276.63C118.16,276.86 118.16,277.08 118.19,277.31C118.22,277.54 118.27,277.77 118.35,277.99C118.43,278.22 118.55,278.46 118.68,278.68C118.81,278.91 118.98,279.13 119.13,279.36C119.28,279.59 119.45,279.82 119.59,280.05C119.73,280.27 119.87,280.5 119.97,280.73C120.07,280.95 120.16,281.19 120.2,281.42C120.24,281.64 120.26,281.88 120.23,282.1C120.2,282.33 120.12,282.57 120,282.79C119.87,283.03 119.69,283.26 119.48,283.47C119.24,283.71 118.92,283.93 118.59,284.15C118.21,284.39 117.78,284.62 117.33,284.84C116.83,285.08 116.28,285.3 115.71,285.52C115.09,285.76 114.43,285.99 113.75,286.21C113.03,286.45 112.28,286.67 111.49,286.89C110.64,287.13 109.77,287.36 108.84,287.58C107.83,287.82 106.77,288.04 105.66,288.26C104.44,288.5 103.14,288.72 101.79,288.94C100.32,289.18 98.76,289.41 97.17,289.63C95.48,289.87 93.7,290.09 91.92,290.31C90.08,290.54 88.18,290.77 86.31,291C84.44,291.23 82.54,291.45 80.69,291.68C78.89,291.91 77.1,292.14 75.38,292.37C73.75,292.59 72.14,292.81 70.64,293.05C69.29,293.27 67.94,293.48 66.78,293.73C65.81,293.94 64.79,294.13 64.12,294.42C63.66,294.62 63.06,294.86 63.05,295.1C63.04,295.32 63.52,295.6 63.93,295.79C64.61,296.11 65.81,296.26 66.95,296.47C68.42,296.73 70.22,296.95 72.04,297.16C74.13,297.41 76.46,297.62 78.79,297.84C81.27,298.08 83.92,298.3 86.5,298.53C89.1,298.76 91.79,298.98 94.35,299.21C96.81,299.43 99.27,299.65 101.57,299.89C103.68,300.11 105.75,300.34 107.64,300.58C109.31,300.8 110.9,301.01 112.33,301.26C113.55,301.47 114.69,301.7 115.69,301.95C116.51,302.16 117.28,302.37 117.92,302.63C118.44,302.84 118.9,303.06 119.28,303.32Q119.59,303.53 120.05,304Z" style="vector-effect: non-scaling-stroke; stroke-width: 2px; stroke: rgb(99, 110, 250); stroke-opacity: 1; fill: rgb(99, 110, 250); fill-opacity: 0.5;"/><g class="points"><path class="point" transform="translate(40.23,299.89)" d="M3,0A3,3 0 1,1 0,-3A3,3 0 0,1 3,0Z" style="opacity: 1; stroke-width: 0px; fill: rgb(99, 110, 250); fill-opacity: 1;"/><path class="point" transform="translate(26.2,299.46)" d="M3,0A3,3 0 1,1 0,-3A3,3 0 0,1 3,0Z" style="opacity: 1; stroke-width: 0px; fill: rgb(99, 110, 250); fill-opacity: 1;"/><path class="point" transform="translate(44.21,298.54)" d="M3,0A3,3 0 1,1 0,-3A3,3 0 0,1 3,0Z" style="opacity: 1; stroke-width: 0px; fill: rgb(99, 110, 250); fill-opacity: 1;"/><path class="point" transform="translate(22.93,297.74)" d="M3,0A3,3 0 1,1 0,-3A3,3 0 0,1 3,0Z" style="opacity: 1; stroke-width: 0px; fill: rgb(99, 110, 250); fill-opacity: 1;"/><path class="point" transform="translate(30.8,297.68)" d="M3,0A3,3 0 1,1 0,-3A3,3 0 0,1 3,0Z" style="opacity: 1; stroke-width: 0px; fill: rgb(99, 110, 250); fill-opacity: 1;"/><path class="point" transform="translate(41.55,297.62)" d="M3,0A3,3 0 1,1 0,-3A3,3 0 0,1 3,0Z" style="opacity: 1; stroke-width: 0px; fill: rgb(99, 110, 250); fill-opacity: 1;"/><path class="point" transform="translate(33.64,297.55)" d="M3,0A3,3 0 1,1 0,-3A3,3 0 0,1 3,0Z" style="opacity: 1; stroke-width: 0px; fill: rgb(99, 110, 250); fill-opacity: 1;"/><path class="point" transform="translate(39.22,297.31)" d="M3,0A3,3 0 1,1 0,-3A3,3 0 0,1 3,0Z" style="opacity: 1; stroke-width: 0px; fill: rgb(99, 110, 250); fill-opacity: 1;"/><path class="point" transform="translate(28.68,297.12)" d="M3,0A3,3 0 1,1 0,-3A3,3 0 0,1 3,0Z" style="opacity: 1; stroke-width: 0px; fill: rgb(99, 110, 250); fill-opacity: 1;"/><path class="point" transform="translate(21.52,297)" d="M3,0A3,3 0 1,1 0,-3A3,3 0 0,1 3,0Z" style="opacity: 1; stroke-width: 0px; fill: rgb(99, 110, 250); fill-opacity: 1;"/><path class="point" transform="translate(38.83,296.75)" d="M3,0A3,3 0 1,1 0,-3A3,3 0 0,1 3,0Z" style="opacity: 1; stroke-width: 0px; fill: rgb(99, 110, 250); fill-opacity: 1;"/><path class="point" transform="translate(28.51,296.75)" d="M3,0A3,3 0 1,1 0,-3A3,3 0 0,1 3,0Z" style="opacity: 1; stroke-width: 0px; fill: rgb(99, 110, 250); fill-opacity: 1;"/><path class="point" transform="translate(45.18,296.57)" d="M3,0A3,3 0 1,1 0,-3A3,3 0 0,1 3,0Z" style="opacity: 1; stroke-width: 0px; fill: rgb(99, 110, 250); fill-opacity: 1;"/><path class="point" transform="translate(17.35,296.32)" d="M3,0A3,3 0 1,1 0,-3A3,3 0 0,1 3,0Z" style="opacity: 1; stroke-width: 0px; fill: rgb(99, 110, 250); fill-opacity: 1;"/><path class="point" transform="translate(24.7,296.26)" d="M3,0A3,3 0 1,1 0,-3A3,3 0 0,1 3,0Z" style="opacity: 1; stroke-width: 0px; fill: rgb(99, 110, 250); fill-opacity: 1;"/><path class="point" transform="translate(49.37,296.14)" d="M3,0A3,3 0 1,1 0,-3A3,3 0 0,1 3,0Z" style="opacity: 1; stroke-width: 0px; fill: rgb(99, 110, 250); fill-opacity: 1;"/><path class="point" transform="translate(29.97,295.71)" d="M3,0A3,3 0 1,1 0,-3A3,3 0 0,1 3,0Z" style="opacity: 1; stroke-width: 0px; fill: rgb(99, 110, 250); fill-opacity: 1;"/><path class="point" transform="translate(19.35,295.65)" d="M3,0A3,3 0 1,1 0,-3A3,3 0 0,1 3,0Z" style="opacity: 1; stroke-width: 0px; fill: rgb(99, 110, 250); fill-opacity: 1;"/><path class="point" transform="translate(28.48,295.15)" d="M3,0A3,3 0 1,1 0,-3A3,3 0 0,1 3,0Z" style="opacity: 1; stroke-width: 0px; fill: rgb(99, 110, 250); fill-opacity: 1;"/><path class="point" transform="translate(33.83,294.72)" d="M3,0A3,3 0 1,1 0,-3A3,3 0 0,1 3,0Z" style="opacity: 1; stroke-width: 0px; fill: rgb(99, 110, 250); fill-opacity: 1;"/><path class="point" transform="translate(41.99,294.66)" d="M3,0A3,3 0 1,1 0,-3A3,3 0 0,1 3,0Z" style="opacity: 1; stroke-width: 0px; fill: rgb(99, 110, 250); fill-opacity: 1;"/><path class="point" transform="translate(36.13,294.6)" d="M3,0A3,3 0 1,1 0,-3A3,3 0 0,1 3,0Z" style="opacity: 1; stroke-width: 0px; fill: rgb(99, 110, 250); fill-opacity: 1;"/><path class="point" transform="translate(29.32,294.54)" d="M3,0A3,3 0 1,1 0,-3A3,3 0 0,1 3,0Z" style="opacity: 1; stroke-width: 0px; fill: rgb(99, 110, 250); fill-opacity: 1;"/><path class="point" transform="translate(19.73,294.54)" d="M3,0A3,3 0 1,1 0,-3A3,3 0 0,1 3,0Z" style="opacity: 1; stroke-width: 0px; fill: rgb(99, 110, 250); fill-opacity: 1;"/><path class="point" transform="translate(34.15,294.48)" d="M3,0A3,3 0 1,1 0,-3A3,3 0 0,1 3,0Z" style="opacity: 1; stroke-width: 0px; fill: rgb(99, 110, 250); fill-opacity: 1;"/><path class="point" transform="translate(29.15,294.41)" d="M3,0A3,3 0 1,1 0,-3A3,3 0 0,1 3,0Z" style="opacity: 1; stroke-width: 0px; fill: rgb(99, 110, 250); fill-opacity: 1;"/><path class="point" transform="translate(42.26,294.29)" d="M3,0A3,3 0 1,1 0,-3A3,3 0 0,1 3,0Z" style="opacity: 1; stroke-width: 0px; fill: rgb(99, 110, 250); fill-opacity: 1;"/><path class="point" transform="translate(32.67,294.11)" d="M3,0A3,3 0 1,1 0,-3A3,3 0 0,1 3,0Z" style="opacity: 1; stroke-width: 0px; fill: rgb(99, 110, 250); fill-opacity: 1;"/><path class="point" transform="translate(23.86,293.49)" d="M3,0A3,3 0 1,1 0,-3A3,3 0 0,1 3,0Z" style="opacity: 1; stroke-width: 0px; fill: rgb(99, 110, 250); fill-opacity: 1;"/><path class="point" transform="translate(19.64,293.37)" d="M3,0A3,3 0 1,1 0,-3A3,3 0 0,1 3,0Z" style="opacity: 1; stroke-width: 0px; fill: rgb(99, 110, 250); fill-opacity: 1;"/><path class="point" transform="translate(42.7,292.94)" d="M3,0A3,3 0 1,1 0,-3A3,3 0 0,1 3,0Z" style="opacity: 1; stroke-width: 0px; fill: rgb(99, 110, 250); fill-opacity: 1;"/><path class="point" transform="translate(21.48,292.75)" d="M3,0A3,3 0 1,1 0,-3A3,3 0 0,1 3,0Z" style="opacity: 1; stroke-width: 0px; fill: rgb(99, 110, 250); fill-opacity: 1;"/><path class="point" transform="translate(42.96,292.63)" d="M3,0A3,3 0 1,1 0,-3A3,3 0 0,1 3,0Z" style="opacity: 1; stroke-width: 0px; fill: rgb(99, 110, 250); fill-opacity: 1;"/><path class="point" transform="translate(37.7,292.07)" d="M3,0A3,3 0 1,1 0,-3A3,3 0 0,1 3,0Z" style="opacity: 1; stroke-width: 0px; fill: rgb(99, 110, 250); fill-opacity: 1;"/><path class="point" transform="translate(29.6,291.95)" d="M3,0A3,3 0 1,1 0,-3A3,3 0 0,1 3,0Z" style="opacity: 1; stroke-width: 0px; fill: rgb(99, 110, 250); fill-opacity: 1;"/><path class="point" transform="translate(25.38,291.7)" d="M3,0A3,3 0 1,1 0,-3A3,3 0 0,1 3,0Z" style="opacity: 1; stroke-width: 0px; fill: rgb(99, 110, 250); fill-opacity: 1;"/><path class="point" transform="translate(41.08,291.52)" d="M3,0A3,3 0 1,1 0,-3A3,3 0 0,1 3,0Z" style="opacity: 1; stroke-width: 0px; fill: rgb(99, 110, 250); fill-opacity: 1;"/><path class="point" transform="translate(32.97,291.27)" d="M3,0A3,3 0 1,1 0,-3A3,3 0 0,1 3,0Z" style="opacity: 1; stroke-width: 0px; fill: rgb(99, 110, 250); fill-opacity: 1;"/><path class="point" transform="translate(42.47,291.09)" d="M3,0A3,3 0 1,1 0,-3A3,3 0 0,1 3,0Z" style="opacity: 1; stroke-width: 0px; fill: rgb(99, 110, 250); fill-opacity: 1;"/><path class="point" transform="translate(25.24,290.78)" d="M3,0A3,3 0 1,1 0,-3A3,3 0 0,1 3,0Z" style="opacity: 1; stroke-width: 0px; fill: rgb(99, 110, 250); fill-opacity: 1;"/><path class="point" transform="translate(38.42,290.16)" d="M3,0A3,3 0 1,1 0,-3A3,3 0 0,1 3,0Z" style="opacity: 1; stroke-width: 0px; fill: rgb(99, 110, 250); fill-opacity: 1;"/><path class="point" transform="translate(33.73,290.1)" d="M3,0A3,3 0 1,1 0,-3A3,3 0 0,1 3,0Z" style="opacity: 1; stroke-width: 0px; fill: rgb(99, 110, 250); fill-opacity: 1;"/><path class="point" transform="translate(32.13,288.01)" d="M3,0A3,3 0 1,1 0,-3A3,3 0 0,1 3,0Z" style="opacity: 1; stroke-width: 0px; fill: rgb(99, 110, 250); fill-opacity: 1;"/><path class="point" transform="translate(29.63,287.82)" d="M3,0A3,3 0 1,1 0,-3A3,3 0 0,1 3,0Z" style="opacity: 1; stroke-width: 0px; fill: rgb(99, 110, 250); fill-opacity: 1;"/><path class="point" transform="translate(33.51,286.53)" d="M3,0A3,3 0 1,1 0,-3A3,3 0 0,1 3,0Z" style="opacity: 1; stroke-width: 0px; fill: rgb(99, 110, 250); fill-opacity: 1;"/><path class="point" transform="translate(35.33,277.6)" d="M3,0A3,3 0 1,1 0,-3A3,3 0 0,1 3,0Z" style="opacity: 1; stroke-width: 0px; fill: rgb(99, 110, 250); fill-opacity: 1;"/><path class="point" transform="translate(33.82,273.11)" d="M3,0A3,3 0 1,1 0,-3A3,3 0 0,1 3,0Z" style="opacity: 1; stroke-width: 0px; fill: rgb(99, 110, 250); fill-opacity: 1;"/><path class="point" transform="translate(33.04,269.23)" d="M3,0A3,3 0 1,1 0,-3A3,3 0 0,1 3,0Z" style="opacity: 1; stroke-width: 0px; fill: rgb(99, 110, 250); fill-opacity: 1;"/><path class="point" transform="translate(34.87,262.58)" d="M3,0A3,3 0 1,1 0,-3A3,3 0 0,1 3,0Z" style="opacity: 1; stroke-width: 0px; fill: rgb(99, 110, 250); fill-opacity: 1;"/><path class="point" transform="translate(33.53,94.59)" d="M3,0A3,3 0 1,1 0,-3A3,3 0 0,1 3,0Z" style="opacity: 1; stroke-width: 0px; fill: rgb(99, 110, 250); fill-opacity: 1;"/></g></g><g class="trace violins" style="opacity: 1;"><path class="violin" d="M356.42,296.39Q356.52,292.73 356.61,290.9C356.7,289.07 356.82,287.25 356.97,285.42C357.13,283.59 357.31,281.76 357.54,279.93C357.78,278.1 358.06,276.27 358.38,274.44C358.7,272.61 359.08,270.78 359.47,268.95C359.86,267.12 360.3,265.3 360.71,263.47C361.12,261.64 361.56,259.81 361.94,257.98C362.32,256.15 362.69,254.32 362.98,252.49C363.27,250.67 363.51,248.84 363.67,247.01C363.83,245.18 363.92,243.35 363.95,241.52C363.98,239.69 363.93,237.86 363.85,236.03C363.77,234.2 363.63,232.37 363.48,230.54C363.33,228.71 363.14,226.89 362.95,225.06C362.76,223.23 362.54,221.4 362.34,219.57C362.14,217.74 361.94,215.91 361.73,214.08C361.53,212.25 361.31,210.43 361.11,208.6C360.91,206.77 360.71,204.94 360.51,203.11C360.31,201.28 360.11,199.45 359.91,197.62C359.72,195.79 359.52,193.96 359.34,192.13C359.16,190.3 358.98,188.48 358.82,186.65C358.66,184.82 358.5,182.99 358.36,181.16C358.23,179.33 358.11,177.5 358.01,175.67C357.91,173.84 357.82,172.02 357.75,170.19C357.68,168.36 357.62,166.53 357.57,164.7C357.52,162.87 357.48,161.04 357.44,159.21C357.4,157.38 357.38,155.55 357.35,153.72C357.33,151.89 357.31,150.07 357.29,148.24C357.27,146.41 357.26,144.58 357.24,142.75C357.23,140.92 357.22,139.09 357.2,137.26C357.19,135.43 357.17,133.61 357.15,131.78C357.13,129.95 357.11,128.12 357.08,126.29C357.05,124.46 357.02,122.63 356.98,120.8C356.94,118.97 356.9,117.14 356.86,115.31C356.82,113.48 356.77,111.66 356.73,109.83C356.69,108 356.64,106.17 356.6,104.34C356.56,102.51 356.51,100.68 356.48,98.85C356.45,97.02 356.42,95.2 356.4,93.37C356.37,91.54 356.35,89.71 356.33,87.88Q356.31,86.05 356.29,82.39L356.21,82.39Q356.19,86.05 356.17,87.88C356.15,89.71 356.13,91.54 356.1,93.37C356.08,95.2 356.05,97.02 356.02,98.85C355.99,100.68 355.94,102.51 355.9,104.34C355.86,106.17 355.81,108 355.77,109.83C355.73,111.66 355.68,113.48 355.64,115.31C355.6,117.14 355.56,118.97 355.52,120.8C355.48,122.63 355.45,124.46 355.42,126.29C355.39,128.12 355.37,129.95 355.35,131.78C355.33,133.61 355.31,135.43 355.3,137.26C355.28,139.09 355.27,140.92 355.26,142.75C355.24,144.58 355.23,146.41 355.21,148.24C355.19,150.07 355.17,151.89 355.15,153.72C355.12,155.55 355.1,157.38 355.06,159.21C355.02,161.04 354.98,162.87 354.93,164.7C354.88,166.53 354.82,168.36 354.75,170.19C354.68,172.02 354.59,173.84 354.49,175.67C354.39,177.5 354.27,179.33 354.14,181.16C354,182.99 353.84,184.82 353.68,186.65C353.52,188.48 353.34,190.3 353.16,192.13C352.98,193.96 352.78,195.79 352.59,197.62C352.39,199.45 352.19,201.28 351.99,203.11C351.79,204.94 351.59,206.77 351.39,208.6C351.19,210.43 350.97,212.25 350.77,214.08C350.56,215.91 350.36,217.74 350.16,219.57C349.96,221.4 349.74,223.23 349.55,225.06C349.36,226.89 349.17,228.71 349.02,230.54C348.87,232.37 348.73,234.2 348.65,236.03C348.57,237.86 348.52,239.69 348.55,241.52C348.58,243.35 348.67,245.18 348.83,247.01C348.99,248.84 349.23,250.67 349.52,252.49C349.81,254.32 350.18,256.15 350.56,257.98C350.94,259.81 351.38,261.64 351.79,263.47C352.2,265.3 352.64,267.12 353.03,268.95C353.42,270.78 353.8,272.61 354.12,274.44C354.44,276.27 354.72,278.1 354.96,279.93C355.19,281.76 355.37,283.59 355.53,285.42C355.68,287.25 355.8,289.07 355.89,290.9Q355.98,292.73 356.08,296.39Z" style="vector-effect: non-scaling-stroke; stroke-width: 2px; stroke: rgb(239, 85, 59); stroke-opacity: 1; fill: rgb(239, 85, 59); fill-opacity: 0.5;"/><g class="points"><path class="point" transform="translate(274.83,262.7)" d="M3,0A3,3 0 1,1 0,-3A3,3 0 0,1 3,0Z" style="opacity: 1; stroke-width: 0px; fill: rgb(239, 85, 59); fill-opacity: 1;"/><path class="point" transform="translate(262.88,255)" d="M3,0A3,3 0 1,1 0,-3A3,3 0 0,1 3,0Z" style="opacity: 1; stroke-width: 0px; fill: rgb(239, 85, 59); fill-opacity: 1;"/><path class="point" transform="translate(278.29,254.76)" d="M3,0A3,3 0 1,1 0,-3A3,3 0 0,1 3,0Z" style="opacity: 1; stroke-width: 0px; fill: rgb(239, 85, 59); fill-opacity: 1;"/><path class="point" transform="translate(260.27,254.08)" d="M3,0A3,3 0 1,1 0,-3A3,3 0 0,1 3,0Z" style="opacity: 1; stroke-width: 0px; fill: rgb(239, 85, 59); fill-opacity: 1;"/><path class="point" transform="translate(266.86,253.96)" d="M3,0A3,3 0 1,1 0,-3A3,3 0 0,1 3,0Z" style="opacity: 1; stroke-width: 0px; fill: rgb(239, 85, 59); fill-opacity: 1;"/><path class="point" transform="translate(275.72,253.53)" d="M3,0A3,3 0 1,1 0,-3A3,3 0 0,1 3,0Z" style="opacity: 1; stroke-width: 0px; fill: rgb(239, 85, 59); fill-opacity: 1;"/><path class="point" transform="translate(269.07,253.34)" d="M3,0A3,3 0 1,1 0,-3A3,3 0 0,1 3,0Z" style="opacity: 1; stroke-width: 0px; fill: rgb(239, 85, 59); fill-opacity: 1;"/><path class="point" transform="translate(274.72,252.48)" d="M3,0A3,3 0 1,1 0,-3A3,3 0 0,1 3,0Z" style="opacity: 1; stroke-width: 0px; fill: rgb(239, 85, 59); fill-opacity: 1;"/><path class="point" transform="translate(264.82,251.19)" d="M3,0A3,3 0 1,1 0,-3A3,3 0 0,1 3,0Z" style="opacity: 1; stroke-width: 0px; fill: rgb(239, 85, 59); fill-opacity: 1;"/><path class="point" transform="translate(259.6,250.63)" d="M3,0A3,3 0 1,1 0,-3A3,3 0 0,1 3,0Z" style="opacity: 1; stroke-width: 0px; fill: rgb(239, 85, 59); fill-opacity: 1;"/><path class="point" transform="translate(273.23,249.09)" d="M3,0A3,3 0 1,1 0,-3A3,3 0 0,1 3,0Z" style="opacity: 1; stroke-width: 0px; fill: rgb(239, 85, 59); fill-opacity: 1;"/><path class="point" transform="translate(265.38,248.91)" d="M3,0A3,3 0 1,1 0,-3A3,3 0 0,1 3,0Z" style="opacity: 1; stroke-width: 0px; fill: rgb(239, 85, 59); fill-opacity: 1;"/><path class="point" transform="translate(278.22,248.78)" d="M3,0A3,3 0 1,1 0,-3A3,3 0 0,1 3,0Z" style="opacity: 1; stroke-width: 0px; fill: rgb(239, 85, 59); fill-opacity: 1;"/><path class="point" transform="translate(255.97,246.44)" d="M3,0A3,3 0 1,1 0,-3A3,3 0 0,1 3,0Z" style="opacity: 1; stroke-width: 0px; fill: rgb(239, 85, 59); fill-opacity: 1;"/><path class="point" transform="translate(261.54,244.53)" d="M3,0A3,3 0 1,1 0,-3A3,3 0 0,1 3,0Z" style="opacity: 1; stroke-width: 0px; fill: rgb(239, 85, 59); fill-opacity: 1;"/><path class="point" transform="translate(281.7,243.24)" d="M3,0A3,3 0 1,1 0,-3A3,3 0 0,1 3,0Z" style="opacity: 1; stroke-width: 0px; fill: rgb(239, 85, 59); fill-opacity: 1;"/><path class="point" transform="translate(266.57,243)" d="M3,0A3,3 0 1,1 0,-3A3,3 0 0,1 3,0Z" style="opacity: 1; stroke-width: 0px; fill: rgb(239, 85, 59); fill-opacity: 1;"/><path class="point" transform="translate(259.14,242.56)" d="M3,0A3,3 0 1,1 0,-3A3,3 0 0,1 3,0Z" style="opacity: 1; stroke-width: 0px; fill: rgb(239, 85, 59); fill-opacity: 1;"/><path class="point" transform="translate(265.22,242.19)" d="M3,0A3,3 0 1,1 0,-3A3,3 0 0,1 3,0Z" style="opacity: 1; stroke-width: 0px; fill: rgb(239, 85, 59); fill-opacity: 1;"/><path class="point" transform="translate(269.46,241.64)" d="M3,0A3,3 0 1,1 0,-3A3,3 0 0,1 3,0Z" style="opacity: 1; stroke-width: 0px; fill: rgb(239, 85, 59); fill-opacity: 1;"/><path class="point" transform="translate(274.71,239.36)" d="M3,0A3,3 0 1,1 0,-3A3,3 0 0,1 3,0Z" style="opacity: 1; stroke-width: 0px; fill: rgb(239, 85, 59); fill-opacity: 1;"/><path class="point" transform="translate(270.88,237.45)" d="M3,0A3,3 0 1,1 0,-3A3,3 0 0,1 3,0Z" style="opacity: 1; stroke-width: 0px; fill: rgb(239, 85, 59); fill-opacity: 1;"/><path class="point" transform="translate(266.91,236.96)" d="M3,0A3,3 0 1,1 0,-3A3,3 0 0,1 3,0Z" style="opacity: 1; stroke-width: 0px; fill: rgb(239, 85, 59); fill-opacity: 1;"/><path class="point" transform="translate(261.45,236.71)" d="M3,0A3,3 0 1,1 0,-3A3,3 0 0,1 3,0Z" style="opacity: 1; stroke-width: 0px; fill: rgb(239, 85, 59); fill-opacity: 1;"/><path class="point" transform="translate(269.67,230.56)" d="M3,0A3,3 0 1,1 0,-3A3,3 0 0,1 3,0Z" style="opacity: 1; stroke-width: 0px; fill: rgb(239, 85, 59); fill-opacity: 1;"/><path class="point" transform="translate(266.88,228.77)" d="M3,0A3,3 0 1,1 0,-3A3,3 0 0,1 3,0Z" style="opacity: 1; stroke-width: 0px; fill: rgb(239, 85, 59); fill-opacity: 1;"/><path class="point" transform="translate(274.26,227.05)" d="M3,0A3,3 0 1,1 0,-3A3,3 0 0,1 3,0Z" style="opacity: 1; stroke-width: 0px; fill: rgb(239, 85, 59); fill-opacity: 1;"/><path class="point" transform="translate(268.89,224.28)" d="M3,0A3,3 0 1,1 0,-3A3,3 0 0,1 3,0Z" style="opacity: 1; stroke-width: 0px; fill: rgb(239, 85, 59); fill-opacity: 1;"/><path class="point" transform="translate(263.72,223.84)" d="M3,0A3,3 0 1,1 0,-3A3,3 0 0,1 3,0Z" style="opacity: 1; stroke-width: 0px; fill: rgb(239, 85, 59); fill-opacity: 1;"/><path class="point" transform="translate(260.08,223.04)" d="M3,0A3,3 0 1,1 0,-3A3,3 0 0,1 3,0Z" style="opacity: 1; stroke-width: 0px; fill: rgb(239, 85, 59); fill-opacity: 1;"/><path class="point" transform="translate(275.85,220.21)" d="M3,0A3,3 0 1,1 0,-3A3,3 0 0,1 3,0Z" style="opacity: 1; stroke-width: 0px; fill: rgb(239, 85, 59); fill-opacity: 1;"/><path class="point" transform="translate(260.02,218.79)" d="M3,0A3,3 0 1,1 0,-3A3,3 0 0,1 3,0Z" style="opacity: 1; stroke-width: 0px; fill: rgb(239, 85, 59); fill-opacity: 1;"/><path class="point" transform="translate(275.01,215.59)" d="M3,0A3,3 0 1,1 0,-3A3,3 0 0,1 3,0Z" style="opacity: 1; stroke-width: 0px; fill: rgb(239, 85, 59); fill-opacity: 1;"/><path class="point" transform="translate(271.57,215.28)" d="M3,0A3,3 0 1,1 0,-3A3,3 0 0,1 3,0Z" style="opacity: 1; stroke-width: 0px; fill: rgb(239, 85, 59); fill-opacity: 1;"/><path class="point" transform="translate(267.14,213.75)" d="M3,0A3,3 0 1,1 0,-3A3,3 0 0,1 3,0Z" style="opacity: 1; stroke-width: 0px; fill: rgb(239, 85, 59); fill-opacity: 1;"/><path class="point" transform="translate(264.58,213.68)" d="M3,0A3,3 0 1,1 0,-3A3,3 0 0,1 3,0Z" style="opacity: 1; stroke-width: 0px; fill: rgb(239, 85, 59); fill-opacity: 1;"/><path class="point" transform="translate(273.51,213.13)" d="M3,0A3,3 0 1,1 0,-3A3,3 0 0,1 3,0Z" style="opacity: 1; stroke-width: 0px; fill: rgb(239, 85, 59); fill-opacity: 1;"/><path class="point" transform="translate(268.79,201.86)" d="M3,0A3,3 0 1,1 0,-3A3,3 0 0,1 3,0Z" style="opacity: 1; stroke-width: 0px; fill: rgb(239, 85, 59); fill-opacity: 1;"/><path class="point" transform="translate(275.57,199.27)" d="M3,0A3,3 0 1,1 0,-3A3,3 0 0,1 3,0Z" style="opacity: 1; stroke-width: 0px; fill: rgb(239, 85, 59); fill-opacity: 1;"/><path class="point" transform="translate(264.4,198.84)" d="M3,0A3,3 0 1,1 0,-3A3,3 0 0,1 3,0Z" style="opacity: 1; stroke-width: 0px; fill: rgb(239, 85, 59); fill-opacity: 1;"/><path class="point" transform="translate(273.45,196.32)" d="M3,0A3,3 0 1,1 0,-3A3,3 0 0,1 3,0Z" style="opacity: 1; stroke-width: 0px; fill: rgb(239, 85, 59); fill-opacity: 1;"/><path class="point" transform="translate(269.23,193.67)" d="M3,0A3,3 0 1,1 0,-3A3,3 0 0,1 3,0Z" style="opacity: 1; stroke-width: 0px; fill: rgb(239, 85, 59); fill-opacity: 1;"/><path class="point" transform="translate(267.69,191.08)" d="M3,0A3,3 0 1,1 0,-3A3,3 0 0,1 3,0Z" style="opacity: 1; stroke-width: 0px; fill: rgb(239, 85, 59); fill-opacity: 1;"/><path class="point" transform="translate(264.59,190.78)" d="M3,0A3,3 0 1,1 0,-3A3,3 0 0,1 3,0Z" style="opacity: 1; stroke-width: 0px; fill: rgb(239, 85, 59); fill-opacity: 1;"/><path class="point" transform="translate(267.88,168.67)" d="M3,0A3,3 0 1,1 0,-3A3,3 0 0,1 3,0Z" style="opacity: 1; stroke-width: 0px; fill: rgb(239, 85, 59); fill-opacity: 1;"/><path class="point" transform="translate(272.7,161.77)" d="M3,0A3,3 0 1,1 0,-3A3,3 0 0,1 3,0Z" style="opacity: 1; stroke-width: 0px; fill: rgb(239, 85, 59); fill-opacity: 1;"/><path class="point" transform="translate(268.68,158.94)" d="M3,0A3,3 0 1,1 0,-3A3,3 0 0,1 3,0Z" style="opacity: 1; stroke-width: 0px; fill: rgb(239, 85, 59); fill-opacity: 1;"/><path class="point" transform="translate(266.53,133.94)" d="M3,0A3,3 0 1,1 0,-3A3,3 0 0,1 3,0Z" style="opacity: 1; stroke-width: 0px; fill: rgb(239, 85, 59); fill-opacity: 1;"/><path class="point" transform="translate(271.54,133.08)" d="M3,0A3,3 0 1,1 0,-3A3,3 0 0,1 3,0Z" style="opacity: 1; stroke-width: 0px; fill: rgb(239, 85, 59); fill-opacity: 1;"/><path class="point" transform="translate(267.49,116.08)" d="M3,0A3,3 0 1,1 0,-3A3,3 0 0,1 3,0Z" style="opacity: 1; stroke-width: 0px; fill: rgb(239, 85, 59); fill-opacity: 1;"/></g></g></g></g><g class="overplot"/><path class="xlines-above crisp" d="" style="fill: none; stroke-width: 1px; stroke: rgb(0, 0, 0); stroke-opacity: 0;"/><path class="ylines-above crisp" d="" style="fill: none; stroke-width: 1px; stroke: rgb(0, 0, 0); stroke-opacity: 0;"/><g class="overlines-above"/><g class="xaxislayer-above"><path class="xtick ticks crisp" d="M0,421v5" transform="translate(200.75,0)" style="stroke: rgb(51, 51, 51); stroke-opacity: 1; stroke-width: 1px;"/><path class="xtick ticks crisp" d="M0,421v5" transform="translate(436.25,0)" style="stroke: rgb(51, 51, 51); stroke-opacity: 1; stroke-width: 1px;"/><g class="xtick"><text text-anchor="middle" x="0" y="440.4" transform="translate(200.75,0)" style="font-family: 'Open Sans', verdana, arial, sans-serif; font-size: 12px; fill: rgb(51, 51, 51); fill-opacity: 1; white-space: pre; opacity: 1;">aisy_mlp_id</text></g><g class="xtick"><text text-anchor="middle" x="0" y="440.4" transform="translate(436.25,0)" style="font-family: 'Open Sans', verdana, arial, sans-serif; font-size: 12px; fill: rgb(51, 51, 51); fill-opacity: 1; white-space: pre; opacity: 1;">aisy_mlp_hw</text></g></g><g class="yaxislayer-above"><path class="ytick ticks crisp" d="M79,0h-5" transform="translate(0,402.6)" style="stroke: rgb(51, 51, 51); stroke-opacity: 1; stroke-width: 1px;"/><path class="ytick ticks crisp" d="M79,0h-5" transform="translate(0,341.02)" style="stroke: rgb(51, 51, 51); stroke-opacity: 1; stroke-width: 1px;"/><path class="ytick ticks crisp" d="M79,0h-5" transform="translate(0,279.45)" style="stroke: rgb(51, 51, 51); stroke-opacity: 1; stroke-width: 1px;"/><path class="ytick ticks crisp" d="M79,0h-5" transform="translate(0,217.87)" style="stroke: rgb(51, 51, 51); stroke-opacity: 1; stroke-width: 1px;"/><path class="ytick ticks crisp" d="M79,0h-5" transform="translate(0,156.29)" style="stroke: rgb(51, 51, 51); stroke-opacity: 1; stroke-width: 1px;"/><g class="ytick"><text text-anchor="end" x="71.6" y="4.199999999999999" transform="translate(0,402.6)" style="font-family: 'Open Sans', verdana, arial, sans-serif; font-size: 12px; fill: rgb(51, 51, 51); fill-opacity: 1; white-space: pre; opacity: 1;">0</text></g><g class="ytick"><text text-anchor="end" x="71.6" y="4.199999999999999" style="font-family: 'Open Sans', verdana, arial, sans-serif; font-size: 12px; fill: rgb(51, 51, 51); fill-opacity: 1; white-space: pre; opacity: 1;" transform="translate(0,341.02)">10</text></g><g class="ytick"><text text-anchor="end" x="71.6" y="4.199999999999999" style="font-family: 'Open Sans', verdana, arial, sans-serif; font-size: 12px; fill: rgb(51, 51, 51); fill-opacity: 1; white-space: pre; opacity: 1;" transform="translate(0,279.45)">20</text></g><g class="ytick"><text text-anchor="end" x="71.6" y="4.199999999999999" style="font-family: 'Open Sans', verdana, arial, sans-serif; font-size: 12px; fill: rgb(51, 51, 51); fill-opacity: 1; white-space: pre; opacity: 1;" transform="translate(0,217.87)">30</text></g><g class="ytick"><text text-anchor="end" x="71.6" y="4.199999999999999" style="font-family: 'Open Sans', verdana, arial, sans-serif; font-size: 12px; fill: rgb(51, 51, 51); fill-opacity: 1; white-space: pre; opacity: 1;" transform="translate(0,156.29)">40</text></g></g><g class="overaxes-above"/></g></g><g class="polarlayer"/><g class="ternarylayer"/><g class="geolayer"/><g class="funnelarealayer"/><g class="pielayer"/><g class="iciclelayer"/><g class="treemaplayer"/><g class="sunburstlayer"/><g class="glimages"/><defs id="topdefs-1578d1"><g class="clips"/><clipPath id="legend1578d1"><rect width="125" height="67" x="0" y="0"/></clipPath></defs><g class="layer-above"><g class="imagelayer"/><g class="shapelayer"/></g><g class="infolayer"><g class="legend" pointer-events="all" transform="translate(563.48,100)"><rect class="bg" shape-rendering="crispEdges" width="125" height="67" x="0" y="0" style="stroke: rgb(68, 68, 68); stroke-opacity: 1; fill: rgb(255, 255, 255); fill-opacity: 1; stroke-width: 0px;"/><g class="scrollbox" transform="" clip-path="url(#legend1578d1)"><text class="legendtitletext" text-anchor="start" x="2" y="18.2" style="font-family: 'Open Sans', verdana, arial, sans-serif; font-size: 14px; fill: rgb(51, 51, 51); fill-opacity: 1; white-space: pre;">model</text><g class="groups" transform=""><g class="traces" transform="translate(0,32.7)" style="opacity: 1;"><text class="legendtext" text-anchor="start" x="40" y="4.680000000000001" style="font-family: 'Open Sans', verdana, arial, sans-serif; font-size: 12px; fill: rgb(51, 51, 51); fill-opacity: 1; white-space: pre;">aisy_mlp_id</text><g class="layers" style="opacity: 1;"><g class="legendfill"/><g class="legendlines"/><g class="legendsymbols"><g class="legendpoints"><path class="legendbox" d="M6,6H-6V-6H6Z" transform="translate(20,0)" style="stroke-width: 2px; fill: rgb(99, 110, 250); fill-opacity: 0.5; stroke: rgb(99, 110, 250); stroke-opacity: 1;"/></g></g></g><rect class="legendtoggle" x="0" y="-9.5" width="119.09375" height="19" style="fill: rgb(0, 0, 0); fill-opacity: 0;"/></g></g><g class="groups" transform=""><g class="traces" transform="translate(0,51.7)" style="opacity: 1;"><text class="legendtext" text-anchor="start" x="40" y="4.680000000000001" style="font-family: 'Open Sans', verdana, arial, sans-serif; font-size: 12px; fill: rgb(51, 51, 51); fill-opacity: 1; white-space: pre;">aisy_mlp_hw</text><g class="layers" style="opacity: 1;"><g class="legendfill"/><g class="legendlines"/><g class="legendsymbols"><g class="legendpoints"><path class="legendbox" d="M6,6H-6V-6H6Z" transform="translate(20,0)" style="stroke-width: 2px; fill: rgb(239, 85, 59); fill-opacity: 0.5; stroke: rgb(239, 85, 59); stroke-opacity: 1;"/></g></g></g><rect class="legendtoggle" x="0" y="-9.5" width="119.09375" height="19" style="fill: rgb(0, 0, 0); fill-opacity: 0;"/></g></g></g><rect class="scrollbar" rx="20" ry="3" width="0" height="0" x="0" y="0" style="fill: rgb(128, 139, 164); fill-opacity: 1;"/></g><g class="g-gtitle"><text class="gtitle" x="350" y="50" text-anchor="middle" dy="0em" style="font-family: 'Open Sans', verdana, arial, sans-serif; font-size: 17px; fill: rgb(51, 51, 51); opacity: 1; font-weight: normal; white-space: pre;">Distribution of average ranks over 50 experiments (with 250 traces)</text></g><g class="g-xtitle"><text class="xtitle" x="317" y="468.20625" text-anchor="middle" style="font-family: 'Open Sans', verdana, arial, sans-serif; font-size: 14px; fill: rgb(51, 51, 51); opacity: 1; font-weight: normal; white-space: pre;">model</text></g><g class="g-ytitle"><text class="ytitle" transform="rotate(-90,31.528125000000003,260)" x="31.528125000000003" y="260" text-anchor="middle" style="font-family: 'Open Sans', verdana, arial, sans-serif; font-size: 14px; fill: rgb(51, 51, 51); opacity: 1; font-weight: normal; white-space: pre;">Average Ranks</text></g><g class="annotation" data-index="0" style="opacity: 1;"><g class="annotation-text-g" transform="rotate(0,200.75,133)"><g class="cursor-pointer" transform="translate(158,100)"><rect class="bg" x="0.5" y="0.5" width="84" height="65" style="stroke-width: 1px; stroke: rgb(0, 0, 0); stroke-opacity: 1; fill: rgb(211, 211, 211); fill-opacity: 1;"/><text class="annotation-text" text-anchor="middle" x="42.65625" y="-1.59375" style="font-family: 'Open Sans', verdana, arial, sans-serif; font-size: 12px; fill: rgb(51, 51, 51); fill-opacity: 1; white-space: pre;"><tspan class="line" dy="0em" x="42.65625" y="-1.59375"></tspan><tspan class="line" dy="1.3em" x="42.65625" y="-1.59375">min: 0.44</tspan><tspan class="line" dy="2.6em" x="42.65625" y="-1.59375">max: 33.78</tspan><tspan class="line" dy="3.9000000000000004em" x="42.65625" y="-1.59375">median: 1.33</tspan><tspan class="line" dy="5.2em" x="42.65625" y="-1.59375">mean: 2.30</tspan></text></g></g></g><g class="annotation" data-index="1" style="opacity: 1;"><g class="annotation-text-g" transform="rotate(0,436.25,133)"><g class="cursor-pointer" transform="translate(390,100)"><rect class="bg" x="0.5" y="0.5" width="92" height="65" style="stroke-width: 1px; stroke: rgb(0, 0, 0); stroke-opacity: 1; fill: rgb(211, 211, 211); fill-opacity: 1;"/><text class="annotation-text" text-anchor="middle" x="46.484375" y="-1.59375" style="font-family: 'Open Sans', verdana, arial, sans-serif; font-size: 12px; fill: rgb(51, 51, 51); fill-opacity: 1; white-space: pre;"><tspan class="line" dy="0em" x="46.484375" y="-1.59375"></tspan><tspan class="line" dy="1.3em" x="46.484375" y="-1.59375">min: 6.48</tspan><tspan class="line" dy="2.6em" x="46.484375" y="-1.59375">max: 30.29</tspan><tspan class="line" dy="3.9000000000000004em" x="46.484375" y="-1.59375">median: 11.84</tspan><tspan class="line" dy="5.2em" x="46.484375" y="-1.59375">mean: 13.24</tspan></text></g></g></g></g></svg>