<svg class="main-svg" xmlns="http://www.w3.org/2000/svg" xmlns:xlink="http://www.w3.org/1999/xlink" width="700" height="500" style="" viewBox="0 0 700 500"><rect x="0" y="0" width="700" height="500" style="fill: rgb(255, 255, 255); fill-opacity: 1;"/><defs id="defs-26fc06"><g class="clips"><clipPath id="clip26fc06xyplot" class="plotclip"><rect width="540" height="320"/></clipPath><clipPath class="axesclip" id="clip26fc06x"><rect x="80" y="0" width="540" height="500"/></clipPath><clipPath class="axesclip" id="clip26fc06y"><rect x="0" y="100" width="700" height="320"/></clipPath><clipPath class="axesclip" id="clip26fc06xy"><rect x="80" y="100" width="540" height="320"/></clipPath></g><g class="gradients"/><g class="patterns"/></defs><g class="bglayer"><rect class="bg" x="80" y="100" width="540" height="320" style="fill: rgb(237, 237, 237); fill-opacity: 1; stroke-width: 0;"/></g><g class="layer-below"><g class="imagelayer"/><g class="shapelayer"/></g><g class="cartesianlayer"><g class="subplot xy"><g class="layer-subplot"><g class="shapelayer"/><g class="imagelayer"/></g><g class="gridlayer"><g class="x"><path class="xgrid crisp" transform="translate(189.09,0)" d="M0,100v320" style="stroke: rgb(255, 255, 255); stroke-opacity: 1; stroke-width: 1px;"/><path class="xgrid crisp" transform="translate(298.18,0)" d="M0,100v320" style="stroke: rgb(255, 255, 255); stroke-opacity: 1; stroke-width: 1px;"/><path class="xgrid crisp" transform="translate(407.27,0)" d="M0,100v320" style="stroke: rgb(255, 255, 255); stroke-opacity: 1; stroke-width: 1px;"/><path class="xgrid crisp" transform="translate(516.36,0)" d="M0,100v320" style="stroke: rgb(255, 255, 255); stroke-opacity: 1; stroke-width: 1px;"/></g><g class="y"><path class="ygrid crisp" transform="translate(0,339.02)" d="M80,0h540" style="stroke: rgb(255, 255, 255); stroke-opacity: 1; stroke-width: 1px;"/><path class="ygrid crisp" transform="translate(0,272.90999999999997)" d="M80,0h540" style="stroke: rgb(255, 255, 255); stroke-opacity: 1; stroke-width: 1px;"/><path class="ygrid crisp" transform="translate(0,206.8)" d="M80,0h540" style="stroke: rgb(255, 255, 255); stroke-opacity: 1; stroke-width: 1px;"/><path class="ygrid crisp" transform="translate(0,140.7)" d="M80,0h540" style="stroke: rgb(255, 255, 255); stroke-opacity: 1; stroke-width: 1px;"/></g></g><g class="zerolinelayer"><path class="xzl zl crisp" transform="translate(80,0)" d="M0,100v320" style="stroke: rgb(255, 255, 255); stroke-opacity: 1; stroke-width: 1px;"/><path class="yzl zl crisp" transform="translate(0,405.13)" d="M80,0h540" style="stroke: rgb(255, 255, 255); stroke-opacity: 1; stroke-width: 1px;"/></g><path class="xlines-below"/><path class="ylines-below"/><g class="overlines-below"/><g class="xaxislayer-below"/><g class="yaxislayer-below"/><g class="overaxes-below"/><g class="plot" transform="translate(80,100)" clip-path="url(#clip26fc06xyplot)"><g class="scatterlayer mlayer"><g class="trace scatter trace3e353f" style="stroke-miterlimit: 2; opacity: 1;"><g class="fills"/><g class="errorbars"/><g class="lines"><path class="js-line" d="M0,303.79L5.45,302.97L10.91,301.27L16.36,299.03L21.82,295.25L27.27,290.21L32.73,282.7L38.18,272.42L43.64,259.64L60,209.27L65.45,190.12L81.82,135.8L87.27,121.88L92.73,106.77L98.18,94.77L109.09,75.23L114.55,68.28L120,61.41L125.45,56.03L130.91,52.48L136.36,47.55L141.82,44.54L147.27,42.66L152.73,39.27L158.18,37.66L174.55,33.61L180,33.56L185.45,31.59L190.91,30.76L212.73,28.74L218.18,27.05L223.64,26.72L229.09,27.72L240,25.92L245.45,25.86L250.91,25.86L256.36,24.08L261.82,25.32L267.27,23.93L283.64,22.71L289.09,23L294.55,22.51L300,23.11L316.36,21.65L321.82,22.85L332.73,20.67L338.18,21.74L343.64,21.09L349.09,21.45L354.55,20.51L360,21.35L370.91,19.39L376.36,20.1L381.82,20.36L387.27,19.26L392.73,20.26L398.18,19.82L409.09,18.7L414.55,19.19L425.45,18.75L430.91,20.47L436.36,17.94L441.82,18.79L452.73,18.48L458.18,17.81L463.64,18.37L469.09,17.45L474.55,18.26L480,17.52L485.45,18.34L490.91,18.07L496.36,18.31L501.82,17.71L512.73,17L518.18,18.05L529.09,17.15L534.55,17.62L540,17.78" style="vector-effect: non-scaling-stroke; fill: none; stroke: rgb(248, 118, 109); stroke-opacity: 1; stroke-width: 2px; opacity: 1;"/></g><g class="points"/><g class="text"/></g><g class="trace scatter tracef65f32" style="stroke-miterlimit: 2; opacity: 1;"><g class="fills"/><g class="errorbars"/><g class="lines"><path class="js-line" d="M0,303.9L10.91,301.55L16.36,299.53L21.82,295.91L27.27,290.15L32.73,282.24L38.18,272.67L43.64,259.41L49.09,244.08L70.91,172.07L76.36,153.37L87.27,122.84L92.73,108.81L103.64,85.38L109.09,76.85L114.55,68.65L120,62.55L125.45,57.13L130.91,52.95L141.82,45.59L147.27,44.01L158.18,38.3L163.64,38.57L169.09,35.84L174.55,34.38L180,33.68L185.45,32.16L190.91,31.04L196.36,31.26L201.82,30.25L207.27,30.42L218.18,28.15L223.64,28.17L229.09,27.94L234.55,26.62L245.45,26.86L250.91,25.26L261.82,24.85L267.27,24.68L278.18,24.26L283.64,24.12L289.09,22.86L294.55,23.51L300,23.87L305.45,22.9L310.91,23.4L316.36,22.21L321.82,23.26L327.27,21.9L338.18,21.12L343.64,22.32L354.55,21.56L360,21.37L387.27,20.95L392.73,19.92L398.18,21.03L403.64,19.83L409.09,20.43L414.55,19.82L436.36,20.43L441.82,19.28L447.27,19.44L452.73,18.75L458.18,19.05L463.64,18.56L501.82,18.83L507.27,18.26L512.73,18.48L518.18,17.65L529.09,18.45L534.55,17.34L540,17.85" style="vector-effect: non-scaling-stroke; fill: none; stroke: rgb(163, 165, 0); stroke-opacity: 1; stroke-width: 2px; opacity: 1;"/></g><g class="points"/><g class="text"/></g><g class="trace scatter traceeb2b2d" style="stroke-miterlimit: 2; opacity: 1;"><g class="fills"/><g class="errorbars"/><g class="lines"><path class="js-line" d="M0,303.74L5.45,302.91L10.91,301.06L16.36,298.99L21.82,295.23L27.27,289.87L32.73,282.68L38.18,271.83L43.64,259.24L54.55,227.17L60,208.37L81.82,139.2L87.27,122.86L92.73,109.51L98.18,98.32L103.64,87.39L109.09,78.89L120,64.57L125.45,59.49L136.36,50.75L141.82,47.14L158.18,39.87L163.64,38.29L169.09,37.37L174.55,35.22L185.45,33.36L190.91,32.66L196.36,31.13L201.82,31.06L207.27,29.76L212.73,29.29L223.64,27.83L229.09,28.02L240,27.07L245.45,26.33L261.82,26.08L267.27,24.86L272.73,25.33L278.18,24.22L283.64,24.97L289.09,24.03L310.91,23.15L316.36,23.91L327.27,21.81L332.73,22.46L343.64,21.89L349.09,22.81L370.91,20.84L376.36,22.46L381.82,21.16L387.27,21.74L392.73,19.97L398.18,20.89L409.09,21.01L414.55,20.01L425.45,20.19L430.91,19.57L447.27,19.97L452.73,19.83L458.18,18.97L463.64,19.14L469.09,18.13L474.55,19.05L480,19.36L485.45,18.87L496.36,18.41L501.82,19.11L507.27,17.87L512.73,17.88L529.09,18.54L534.55,17.66L540,18.67" style="vector-effect: non-scaling-stroke; fill: none; stroke: rgb(0, 191, 125); stroke-opacity: 1; stroke-width: 2px; opacity: 1;"/></g><g class="points"/><g class="text"/></g><g class="trace scatter tracebd4c61" style="stroke-miterlimit: 2; opacity: 1;"><g class="fills"/><g class="errorbars"/><g class="lines"><path class="js-line" d="M0,303.79L5.45,303.18L10.91,301.36L16.36,298.87L21.82,295.41L27.27,289.9L32.73,281.45L38.18,271.39L43.64,258.65L54.55,224.83L60,206.71L76.36,152.07L81.82,135.93L92.73,107.21L98.18,95.16L109.09,76.26L114.55,68.51L125.45,55.75L130.91,51.12L141.82,45.73L147.27,42.94L158.18,39.24L163.64,36.6L169.09,36.41L174.55,35.43L180,32.51L185.45,32.25L201.82,30.36L207.27,28.74L212.73,28.59L218.18,27.18L223.64,28.73L229.09,27L234.55,27.96L240,25.64L250.91,25.36L256.36,25.89L261.82,24.62L267.27,25.82L278.18,23.99L283.64,23.95L300,23.48L305.45,22.85L310.91,22.21L316.36,22.45L321.82,23.24L327.27,23.19L332.73,22.05L338.18,22.71L349.09,20.97L354.55,21.51L376.36,20.86L381.82,21.72L392.73,20.67L398.18,19.75L420,20.26L425.45,19.31L430.91,20.04L436.36,19.32L441.82,19.51L447.27,18.94L452.73,19.39L458.18,18.59L463.64,19.25L469.09,18.88L474.55,18.33L480,19.89L485.45,18.6L490.91,18.2L496.36,18.64L501.82,18.14L518.18,18.05L523.64,18.58L540,18.23" style="vector-effect: non-scaling-stroke; fill: none; stroke: rgb(0, 176, 246); stroke-opacity: 1; stroke-width: 2px; opacity: 1;"/></g><g class="points"/><g class="text"/></g><g class="trace scatter trace3fffcc" style="stroke-miterlimit: 2; opacity: 1;"><g class="fills"/><g class="errorbars"/><g class="lines"><path class="js-line" d="M0,303.74L10.91,301.45L16.36,299.02L21.82,295.7L27.27,290.4L32.73,282.51L38.18,271.81L49.09,244.27L54.55,227.37L76.36,153.45L81.82,137.13L92.73,108.91L98.18,95.73L103.64,84.73L109.09,77.8L125.45,56.88L130.91,52.35L136.36,48.31L141.82,45.46L152.73,41.31L158.18,39.42L169.09,35.33L174.55,34.87L180,32.79L185.45,32.37L190.91,30.49L196.36,30.72L207.27,29.44L212.73,29.52L223.64,27.09L229.09,26.78L234.55,27.02L240,26.3L250.91,25.91L256.36,23.98L272.73,25.29L278.18,24.04L310.91,22.88L316.36,21.63L349.09,21.47L354.55,20.41L360,21.41L365.45,20.76L376.36,20.65L381.82,20.83L387.27,20.1L392.73,20.34L403.64,20.05L409.09,19.56L414.55,20.49L420,20L425.45,20.16L430.91,19.46L436.36,19L441.82,19.78L452.73,18.23L458.18,18.48L474.55,18.78L480,18.42L485.45,17.39L490.91,18.75L496.36,18.56L501.82,17.43L512.73,19.19L518.18,17.83L523.64,18.05L529.09,17.39L534.55,18.28L540,17.65" style="vector-effect: non-scaling-stroke; fill: none; stroke: rgb(231, 107, 243); stroke-opacity: 1; stroke-width: 2px; opacity: 1;"/></g><g class="points"/><g class="text"/></g><g class="trace scatter tracef8e273" style="stroke-miterlimit: 2; opacity: 1;"><g class="fills"/><g class="errorbars"/><g class="lines"><path class="js-line" d="M0,303.6L5.45,303.21L10.91,301.65L21.82,296.19L27.27,290.89L32.73,283.44L38.18,273.49L43.64,260.71L49.09,244.89L54.55,229.08L60,210.76L76.36,154.93L81.82,138.6L87.27,122.73L92.73,109.64L103.64,86.66L109.09,77.63L120,63.54L125.45,57.14L130.91,53.46L136.36,48.42L141.82,47.1L147.27,44.18L152.73,41.06L158.18,40.06L163.64,37.61L169.09,36.02L174.55,34.32L180,33.78L201.82,30.24L207.27,29.83L212.73,28.81L218.18,28.76L234.55,27.14L240,27.47L256.36,25.26L261.82,25.29L267.27,23.54L272.73,24.87L278.18,25.07L283.64,24.04L294.55,22.65L300,24.25L305.45,22.62L310.91,23.84L321.82,22.52L327.27,23.56L332.73,21.73L338.18,21.77L354.55,22.09L360,20.72L370.91,21.65L376.36,20.94L387.27,21.02L392.73,19.97L403.64,20.28L409.09,19.82L414.55,20.33L420,19.85L441.82,18.74L447.27,19.11L452.73,20.22L458.18,19.08L463.64,18.32L469.09,19.17L480,18.28L485.45,18.37L512.73,18.14L518.18,16.82L529.09,18.64L534.55,17.81L540,17.46" style="vector-effect: non-scaling-stroke; fill: none; stroke: rgb(248, 118, 109); stroke-opacity: 1; stroke-width: 2px; opacity: 1;"/></g><g class="points"/><g class="text"/></g><g class="trace scatter trace6d1705" style="stroke-miterlimit: 2; opacity: 1;"><g class="fills"/><g class="errorbars"/><g class="lines"><path class="js-line" d="M0,303.69L5.45,303.06L10.91,301.34L16.36,299.14L21.82,295.63L27.27,290.08L32.73,282.02L38.18,272.11L43.64,257.97L49.09,243.81L54.55,227.01L81.82,138.85L87.27,123.8L98.18,98.57L103.64,87.9L109.09,78.49L114.55,71.36L125.45,58.27L130.91,55.06L136.36,49.49L141.82,46.45L152.73,40.89L158.18,40.39L163.64,38.39L169.09,37.29L174.55,35.05L180,34.23L185.45,32.29L190.91,32.52L196.36,31.16L201.82,31.11L207.27,31.21L212.73,29.6L223.64,28.83L229.09,27.03L234.55,27.8L240,27.17L245.45,26.3L250.91,26.69L256.36,26.12L261.82,26.47L278.18,25.19L283.64,23.98L294.55,23.74L300,23.47L321.82,23.05L327.27,22.85L338.18,22.75L343.64,22.38L349.09,22.68L354.55,21.48L365.45,21.48L370.91,21.11L387.27,22.17L392.73,20.78L398.18,19.93L403.64,20.58L409.09,21.02L414.55,19.99L436.36,20.51L441.82,20.19L447.27,19.44L452.73,20.63L458.18,19.42L463.64,20.33L469.09,18.77L474.55,19.34L490.91,18.85L496.36,18.34L507.27,18.58L512.73,18.59L518.18,19.16L523.64,18.58L529.09,19.17L534.55,18.05L540,18.37" style="vector-effect: non-scaling-stroke; fill: none; stroke: rgb(163, 165, 0); stroke-opacity: 1; stroke-width: 2px; opacity: 1;"/></g><g class="points"/><g class="text"/></g><g class="trace scatter trace6da477" style="stroke-miterlimit: 2; opacity: 1;"><g class="fills"/><g class="errorbars"/><g class="lines"><path class="js-line" d="M0,303.66L5.45,303.09L10.91,301.74L16.36,299.12L21.82,295.51L27.27,290.1L32.73,282.14L38.18,272.36L43.64,259.27L54.55,228.39L60,209.79L76.36,155.53L81.82,138.8L92.73,109.42L98.18,97.62L109.09,77.75L114.55,68.89L120,64.31L125.45,58.27L130.91,53.4L136.36,49.55L147.27,44.43L152.73,40.95L163.64,37.43L169.09,36.85L174.55,34.8L180,34.29L185.45,32.28L190.91,32.84L196.36,30.67L201.82,30.71L212.73,29.82L218.18,28.27L229.09,28.58L234.55,26.61L240,26.76L245.45,26L250.91,26.86L256.36,26.81L261.82,25.03L267.27,25.19L272.73,24.18L278.18,24.02L289.09,24.27L294.55,23.79L300,22.57L305.45,24.11L316.36,22.3L321.82,22.79L327.27,23.51L332.73,22.59L338.18,21.94L343.64,22.07L349.09,21.02L354.55,22.18L360,21.49L365.45,22.79L370.91,21.41L376.36,21.39L387.27,21.01L392.73,21.66L409.09,19.59L414.55,20.2L441.82,20.32L447.27,19.22L452.73,18.45L458.18,19.55L463.64,19.74L469.09,18.9L480,18.92L485.45,19.89L490.91,18.86L496.36,18.89L501.82,19.44L507.27,18.34L512.73,18.92L518.18,17.78L523.64,18.52L529.09,18.09L540,17.7" style="vector-effect: non-scaling-stroke; fill: none; stroke: rgb(0, 191, 125); stroke-opacity: 1; stroke-width: 2px; opacity: 1;"/></g><g class="points"/><g class="text"/></g><g class="trace scatter trace8ce536" style="stroke-miterlimit: 2; opacity: 1;"><g class="fills"/><g class="errorbars"/><g class="lines"><path class="js-line" d="M0,303.88L10.91,301.7L16.36,299.22L21.82,295.58L27.27,290.56L32.73,283.21L38.18,272.54L43.64,260.04L49.09,245.05L65.45,192.6L70.91,172.86L87.27,123.52L92.73,109.03L103.64,85.53L109.09,76.96L114.55,69.1L120,62.99L125.45,57.35L130.91,52.98L136.36,48.43L141.82,45.5L158.18,38.86L163.64,37.38L169.09,37.2L174.55,34.99L185.45,32.82L190.91,31.27L201.82,30.37L207.27,29.41L218.18,28.08L223.64,28.55L229.09,27.17L234.55,26.86L250.91,25.75L256.36,25.86L261.82,25.54L267.27,24.46L272.73,24.91L278.18,23.87L283.64,24.26L289.09,23.24L294.55,22.96L300,23.52L305.45,22.54L310.91,23.21L316.36,22.49L321.82,22.63L327.27,22.79L332.73,21.94L343.64,21.7L349.09,21.1L360,22.38L365.45,20.88L376.36,21.58L381.82,20.31L387.27,20.99L392.73,20.91L398.18,20.34L403.64,20.6L409.09,20.36L414.55,19.33L420,20.88L425.45,20.07L436.36,19.38L441.82,19.57L458.18,19.17L463.64,18.19L469.09,19.92L474.55,18.97L490.91,18.37L496.36,18.95L501.82,18.64L507.27,19.15L512.73,17.9L518.18,18.37L534.55,17.89L540,16.51" style="vector-effect: non-scaling-stroke; fill: none; stroke: rgb(0, 176, 246); stroke-opacity: 1; stroke-width: 2px; opacity: 1;"/></g><g class="points"/><g class="text"/></g><g class="trace scatter traceefd3d6" style="stroke-miterlimit: 2; opacity: 1;"><g class="fills"/><g class="errorbars"/><g class="lines"><path class="js-line" d="M0,303.96L10.91,301.78L16.36,299.53L21.82,296.05L27.27,291.1L32.73,283.9L38.18,274.08L43.64,262.04L49.09,246.57L60,212.92L65.45,192.79L81.82,138.93L87.27,123.24L98.18,96.03L103.64,86.1L114.55,69L120,62.82L130.91,52.54L136.36,49.66L141.82,44.9L147.27,43.21L158.18,38.04L163.64,37.71L180,33.43L185.45,33.63L196.36,30.24L201.82,30.4L207.27,30.43L212.73,29.17L223.64,27.3L229.09,27.5L234.55,26.72L240,26.92L245.45,25.67L250.91,26.47L256.36,25.17L261.82,26.06L267.27,24.92L272.73,24.9L294.55,23.23L300,23.65L310.91,22.48L316.36,23.35L327.27,21.52L332.73,21.88L349.09,22.8L354.55,21.49L365.45,21.42L370.91,21.48L387.27,20.8L392.73,21.33L403.64,20.04L409.09,21.41L414.55,19.55L420,20.73L441.82,19.74L447.27,19.44L452.73,20.23L458.18,19.11L463.64,19.17L469.09,17.98L480,19.5L485.45,19.06L496.36,18.54L501.82,18.13L512.73,18.12L518.18,19.03L523.64,17.7L529.09,18.13L534.55,18.41L540,17.15" style="vector-effect: non-scaling-stroke; fill: none; stroke: rgb(231, 107, 243); stroke-opacity: 1; stroke-width: 2px; opacity: 1;"/></g><g class="points"/><g class="text"/></g><g class="trace scatter trace72376f" style="stroke-miterlimit: 2; opacity: 1;"><g class="fills"/><g class="errorbars"/><g class="lines"><path class="js-line" d="M0,303.75L10.91,301.69L16.36,299.15L21.82,295.68L27.27,289.93L32.73,281.91L38.18,272.56L43.64,259.27L49.09,243.96L54.55,227.92L60,209.53L70.91,172.11L76.36,154.89L87.27,122.87L92.73,108.13L109.09,77.86L114.55,69.79L125.45,58.68L130.91,53.69L141.82,46.73L147.27,44.32L152.73,41.1L158.18,38.89L169.09,36.38L174.55,34.96L185.45,31.43L190.91,32.55L196.36,30.85L201.82,30.53L207.27,29.08L212.73,28.86L218.18,28.87L223.64,28.13L229.09,27.3L234.55,27.41L240,26.64L245.45,26.85L250.91,26.67L256.36,24.71L261.82,25.48L267.27,25.33L283.64,24.9L289.09,24.2L294.55,24.12L300,23.05L310.91,22.96L316.36,21.72L321.82,22.98L327.27,22.61L343.64,21.52L349.09,21.99L360,21.37L365.45,21.4L370.91,20.11L376.36,20.94L381.82,21.72L387.27,20.35L392.73,20.45L398.18,19.69L403.64,21.02L409.09,20.32L430.91,19.97L436.36,20.52L441.82,19.87L447.27,20.09L474.55,18.85L480,17.74L485.45,19.39L490.91,18.43L529.09,18.26L534.55,17.41L540,16.83" style="vector-effect: non-scaling-stroke; fill: none; stroke: rgb(248, 118, 109); stroke-opacity: 1; stroke-width: 2px; opacity: 1;"/></g><g class="points"/><g class="text"/></g><g class="trace scatter trace28b84e" style="stroke-miterlimit: 2; opacity: 1;"><g class="fills"/><g class="errorbars"/><g class="lines"><path class="js-line" d="M0,303.79L10.91,301.39L16.36,299.47L27.27,291.4L32.73,283.65L38.18,274.05L43.64,260.85L54.55,229.56L60,211.65L70.91,173.99L76.36,154.87L87.27,123.44L92.73,109.1L98.18,95.53L103.64,85.22L114.55,69.14L120,63.19L125.45,57.05L130.91,52.38L141.82,44.57L147.27,43.46L152.73,39.82L158.18,38.49L169.09,34.86L174.55,33.24L185.45,31.76L190.91,32.12L201.82,30.59L207.27,29.93L223.64,27.77L229.09,27.43L234.55,27.58L240,26.51L245.45,26.81L250.91,26.27L256.36,25.19L261.82,24.92L283.64,24.16L289.09,24.44L294.55,24.37L300,23.45L310.91,22.65L316.36,22.35L321.82,23.1L327.27,22.56L332.73,22.26L338.18,22.89L343.64,21.27L349.09,22.18L354.55,21.47L360,21.56L365.45,21.21L370.91,21.95L381.82,20.57L387.27,20.88L392.73,21.16L398.18,20.13L403.64,20.91L409.09,20.83L425.45,19.64L430.91,20.36L441.82,19.02L447.27,20.33L452.73,20.11L458.18,18.73L463.64,18.56L469.09,20.14L474.55,18.37L480,19.8L485.45,18.06L490.91,18.88L501.82,18.1L507.27,18.92L512.73,18.5L518.18,18.89L540,18.09" style="vector-effect: non-scaling-stroke; fill: none; stroke: rgb(163, 165, 0); stroke-opacity: 1; stroke-width: 2px; opacity: 1;"/></g><g class="points"/><g class="text"/></g><g class="trace scatter traceda616d" style="stroke-miterlimit: 2; opacity: 1;"><g class="fills"/><g class="errorbars"/><g class="lines"><path class="js-line" d="M0,303.82L10.91,301.3L16.36,298.86L21.82,295.76L27.27,289.14L32.73,281.94L38.18,272.23L49.09,243.76L54.55,225.67L65.45,190.09L70.91,171.35L81.82,137.48L87.27,122.23L98.18,96.57L103.64,86.73L114.55,69.2L120,63.8L130.91,52.87L136.36,49.34L147.27,43.8L152.73,42.8L158.18,39.51L163.64,37.85L169.09,36.77L174.55,34.19L185.45,33.63L190.91,31.5L196.36,32.03L201.82,31.08L212.73,28.53L218.18,28.71L234.55,27.85L240,26.65L245.45,26.69L250.91,25.45L267.27,24.34L272.73,25.31L283.64,23.93L289.09,24.12L294.55,23.65L300,24.12L305.45,22.83L310.91,22.74L321.82,24.12L327.27,22.1L332.73,21.79L338.18,22.8L343.64,21.51L349.09,21.71L365.45,21.63L370.91,22.29L376.36,20.94L381.82,21.09L414.55,20.19L420,19.38L430.91,19.62L436.36,19.41L441.82,19.76L447.27,19L452.73,19.97L458.18,18.59L469.09,18.53L474.55,18.48L485.45,19.11L490.91,18.35L507.27,17.81L512.73,19.47L518.18,18.33L523.64,18.81L529.09,17.12L534.55,17.78L540,18.59" style="vector-effect: non-scaling-stroke; fill: none; stroke: rgb(0, 191, 125); stroke-opacity: 1; stroke-width: 2px; opacity: 1;"/></g><g class="points"/><g class="text"/></g><g class="trace scatter trace0f84bd" style="stroke-miterlimit: 2; opacity: 1;"><g class="fills"/><g class="errorbars"/><g class="lines"><path class="js-line" d="M0,303.88L5.45,303.1L10.91,301.27L16.36,299.03L21.82,295.96L32.73,283.1L38.18,273.63L43.64,261.09L49.09,245.64L54.55,230.42L60,211.32L81.82,138.1L87.27,122.93L98.18,94.57L103.64,83.84L114.55,67.48L120,61.61L125.45,55.22L130.91,51.49L136.36,47.7L141.82,45.54L147.27,41.83L152.73,39.7L158.18,39.17L163.64,37.13L169.09,34.83L174.55,34.39L180,32.84L185.45,32.18L196.36,29.71L201.82,29.9L212.73,28.16L218.18,28.59L223.64,27.11L229.09,27.92L234.55,26.61L240,26.1L245.45,26.03L250.91,24.95L256.36,25.42L261.82,25.09L267.27,25.09L272.73,24.23L278.18,24.56L283.64,23.52L294.55,23.89L300,22.96L305.45,22.57L310.91,23.22L321.82,21.95L327.27,22.04L332.73,20.91L338.18,21.67L343.64,22.06L349.09,21.42L354.55,20.28L360,22.26L365.45,20.46L370.91,20.23L381.82,20L387.27,20.09L392.73,21.24L398.18,20.04L403.64,20.91L409.09,20.46L414.55,19.41L420,19.9L430.91,19.78L436.36,19.15L458.18,18.66L463.64,19.3L469.09,18.97L474.55,17.65L480,19L485.45,18.51L490.91,17.9L496.36,18.56L507.27,18.03L512.73,18.24L518.18,17.4L523.64,17.88L534.55,17.51L540,18.34" style="vector-effect: non-scaling-stroke; fill: none; stroke: rgb(0, 176, 246); stroke-opacity: 1; stroke-width: 2px; opacity: 1;"/></g><g class="points"/><g class="text"/></g><g class="trace scatter tracebd2f31" style="stroke-miterlimit: 2; opacity: 1;"><g class="fills"/><g class="errorbars"/><g class="lines"><path class="js-line" d="M0,303.79L10.91,301.63L16.36,299.39L21.82,295.67L27.27,290.19L32.73,281.96L38.18,271.98L43.64,259.7L49.09,244.02L60,208.53L65.45,189.96L81.82,137.48L87.27,123.37L98.18,96.12L103.64,86.17L109.09,76.69L114.55,69.03L130.91,52.69L136.36,49.42L147.27,43.07L152.73,41.39L158.18,38.92L163.64,37.79L169.09,35.45L174.55,34.33L185.45,32.95L190.91,31.52L196.36,30.38L201.82,30.54L207.27,29.82L212.73,30L218.18,27.76L223.64,28.23L234.55,26.54L240,27.61L245.45,26.14L250.91,25.63L267.27,24.85L272.73,24.13L278.18,23.33L283.64,23.55L289.09,23.26L294.55,23.87L300,23.76L305.45,22.65L310.91,22.81L316.36,21.38L327.27,22.81L332.73,22.13L338.18,21.76L343.64,22.71L349.09,21.06L354.55,21.14L370.91,21.11L376.36,20.41L381.82,20.5L387.27,19.8L392.73,21.19L398.18,20.56L403.64,20.05L409.09,20.47L436.36,19.6L441.82,18.42L458.18,19.04L463.64,18.67L469.09,19.71L474.55,19.1L485.45,18.52L490.91,19.2L496.36,17.8L501.82,18.5L507.27,18.76L512.73,17.59L523.64,17.57L529.09,17.35L534.55,17.69L540,16" style="vector-effect: non-scaling-stroke; fill: none; stroke: rgb(231, 107, 243); stroke-opacity: 1; stroke-width: 2px; opacity: 1;"/></g><g class="points"/><g class="text"/></g><g class="trace scatter tracee07ec2" style="stroke-miterlimit: 2; opacity: 1;"><g class="fills"/><g class="errorbars"/><g class="lines"><path class="js-line" d="M0,303.74L10.91,301.69L16.36,299.09L21.82,295.06L27.27,289.9L32.73,281.99L38.18,271.47L43.64,258.93L49.09,244.13L60,209.49L65.45,189.9L81.82,138.03L87.27,123.46L92.73,108.82L98.18,96.58L109.09,78.66L114.55,70.68L125.45,58.18L130.91,54.63L136.36,49.8L141.82,46.91L147.27,43.77L152.73,42.47L169.09,36.49L174.55,36.59L180,34.09L185.45,33.89L196.36,31.43L201.82,31.37L207.27,31.16L212.73,30.11L229.09,28.15L234.55,28.02L245.45,27.41L250.91,27.19L256.36,26.09L261.82,26.3L272.73,26.08L278.18,24.81L305.45,24.4L310.91,23.17L321.82,23.29L327.27,22.99L332.73,22.54L338.18,23.19L354.55,21.97L360,22.11L365.45,22.52L370.91,21.72L381.82,22.08L387.27,20.61L398.18,21.39L403.64,21.16L409.09,20.3L414.55,20.31L420,19.82L425.45,21.37L441.82,19.75L447.27,20.01L458.18,20.13L463.64,19.53L474.55,20.22L480,20.08L485.45,20.65L490.91,19.5L501.82,18.96L507.27,19.89L512.73,18.28L518.18,18.84L529.09,18.23L534.55,19.5L540,18.34" style="vector-effect: non-scaling-stroke; fill: none; stroke: rgb(248, 118, 109); stroke-opacity: 1; stroke-width: 2px; opacity: 1;"/></g><g class="points"/><g class="text"/></g><g class="trace scatter tracebe5aa4" style="stroke-miterlimit: 2; opacity: 1;"><g class="fills"/><g class="errorbars"/><g class="lines"><path class="js-line" d="M0,303.58L5.45,303.08L10.91,301.26L16.36,299L21.82,295.68L27.27,290.33L32.73,283.51L38.18,273.47L43.64,260.67L54.55,229.3L60,210.51L76.36,154.79L81.82,137.86L87.27,121.7L92.73,108.55L98.18,95.75L103.64,85.33L114.55,67.28L120,61.01L130.91,51.13L136.36,47.9L147.27,42.41L152.73,39.92L158.18,37.26L163.64,36.7L169.09,36.24L174.55,33.2L180,32.95L185.45,31.76L190.91,31.39L196.36,30.21L201.82,29.08L207.27,28.77L250.91,25.24L256.36,24.49L267.27,24.62L272.73,23.57L278.18,24.63L283.64,23.27L289.09,23.96L294.55,23.46L305.45,22.12L310.91,23.2L321.82,21.45L327.27,22.45L343.64,20.75L349.09,21.27L360,21.69L365.45,20.69L370.91,20.38L376.36,21.02L381.82,19.95L387.27,19.72L392.73,21.07L398.18,20.77L403.64,20.22L409.09,20.91L414.55,19.64L420,19.89L425.45,18.63L430.91,19.82L436.36,18.72L441.82,19.46L447.27,18.05L452.73,19.34L458.18,18.26L463.64,18.87L540,17.53" style="vector-effect: non-scaling-stroke; fill: none; stroke: rgb(163, 165, 0); stroke-opacity: 1; stroke-width: 2px; opacity: 1;"/></g><g class="points"/><g class="text"/></g><g class="trace scatter trace0ab0d3" style="stroke-miterlimit: 2; opacity: 1;"><g class="fills"/><g class="errorbars"/><g class="lines"><path class="js-line" d="M0,303.7L5.45,303.03L10.91,301.48L21.82,295.78L27.27,290.51L32.73,283.09L38.18,272.8L43.64,260.32L49.09,245.11L65.45,193.1L70.91,172.74L87.27,123.41L92.73,110.65L98.18,96.9L103.64,87.87L114.55,70.51L120,64.07L125.45,57.86L130.91,54.04L136.36,49.3L141.82,45.92L147.27,43.8L152.73,40.85L163.64,38.79L169.09,36.56L196.36,30.6L201.82,29.77L212.73,29.71L218.18,28.74L223.64,28.41L229.09,26.57L240,27.1L245.45,26.78L261.82,24.99L267.27,24.6L272.73,24.06L278.18,24.85L283.64,23.48L289.09,23.24L294.55,23.21L300,24.65L305.45,22.44L310.91,22.26L316.36,22.27L321.82,23.31L327.27,22.07L332.73,22.67L338.18,21.97L343.64,22.19L349.09,21.52L354.55,21.75L360,21.74L365.45,20.8L370.91,21.6L376.36,20.97L381.82,20.47L387.27,20.85L409.09,20.59L414.55,20.25L430.91,19.75L436.36,19.66L447.27,19.99L452.73,19.51L474.55,19.16L480,18.63L490.91,18.42L496.36,18.94L518.18,18.46L523.64,18.86L534.55,17.87L540,18.03" style="vector-effect: non-scaling-stroke; fill: none; stroke: rgb(0, 191, 125); stroke-opacity: 1; stroke-width: 2px; opacity: 1;"/></g><g class="points"/><g class="text"/></g><g class="trace scatter trace1dff3b" style="stroke-miterlimit: 2; opacity: 1;"><g class="fills"/><g class="errorbars"/><g class="lines"><path class="js-line" d="M0,303.81L5.45,302.94L10.91,301.09L16.36,299.06L21.82,295.38L27.27,290.15L32.73,282.58L38.18,271.74L43.64,258.47L49.09,244.02L54.55,227L81.82,138.18L87.27,122.83L98.18,97.29L103.64,87.07L114.55,69.21L120,62.75L125.45,57.7L130.91,54.4L136.36,48.64L141.82,45.39L163.64,37.59L169.09,36.75L174.55,35.72L180,33.11L185.45,32.92L190.91,31.67L201.82,29.89L207.27,30.24L229.09,27.07L234.55,27.42L240,25.97L245.45,26.01L261.82,26.11L267.27,24.18L278.18,25.11L283.64,24.12L289.09,23.08L294.55,24.47L310.91,22.79L316.36,23.44L321.82,22.53L327.27,22.59L354.55,21.39L360,22.05L365.45,20.72L370.91,21.24L381.82,21.05L387.27,20.83L392.73,20.11L398.18,20.5L403.64,20.71L409.09,19.53L420,20.67L425.45,19.52L430.91,20.22L436.36,19.6L441.82,19.41L447.27,19.98L458.18,18.61L463.64,19.18L474.55,18.84L480,20L485.45,18.68L490.91,18.14L496.36,18.89L501.82,18.27L523.64,17.4L529.09,18.13L534.55,19.21L540,17.75" style="vector-effect: non-scaling-stroke; fill: none; stroke: rgb(0, 176, 246); stroke-opacity: 1; stroke-width: 2px; opacity: 1;"/></g><g class="points"/><g class="text"/></g><g class="trace scatter tracebb544a" style="stroke-miterlimit: 2; opacity: 1;"><g class="fills"/><g class="errorbars"/><g class="lines"><path class="js-line" d="M0,303.79L5.45,303.23L10.91,301.63L16.36,299.8L21.82,296.39L27.27,290.98L32.73,284.03L38.18,273.99L43.64,261.73L54.55,229.52L60,211.12L81.82,139.32L87.27,123.35L98.18,96.53L103.64,86.42L109.09,76.63L114.55,69.53L120,61.86L125.45,56.63L141.82,46.64L147.27,43.6L152.73,42.27L158.18,38.73L169.09,35.89L174.55,34.11L185.45,33.12L190.91,31.41L196.36,30.96L201.82,29.63L207.27,30.33L212.73,28.77L229.09,28.07L234.55,25.89L245.45,26.39L250.91,25.12L267.27,25.37L272.73,24.43L283.64,25.02L289.09,24.32L294.55,23.4L300,23.68L305.45,23.61L310.91,22.77L321.82,22.72L327.27,22.15L332.73,21.5L338.18,22.62L343.64,21.82L349.09,22.03L370.91,20.62L376.36,21.12L387.27,20.25L392.73,21.4L398.18,19.36L403.64,20.63L409.09,20.77L414.55,19.86L420,20.86L425.45,20.23L430.91,20.17L436.36,19.33L447.27,20.19L452.73,19.6L463.64,20.14L469.09,18.98L474.55,19.54L480,19.31L512.73,18.51L518.18,18.89L540,17.84" style="vector-effect: non-scaling-stroke; fill: none; stroke: rgb(231, 107, 243); stroke-opacity: 1; stroke-width: 2px; opacity: 1;"/></g><g class="points"/><g class="text"/></g><g class="trace scatter traced38b09" style="stroke-miterlimit: 2; opacity: 1;"><g class="fills"/><g class="errorbars"/><g class="lines"><path class="js-line" d="M0,303.85L10.91,301.55L16.36,299.09L21.82,295.48L27.27,290.24L32.73,282.55L38.18,271.82L43.64,259.46L49.09,243.33L70.91,171.24L76.36,151.75L87.27,119.59L92.73,106.27L103.64,83.89L109.09,75.12L114.55,67.29L120,60.87L125.45,54.82L130.91,51.05L141.82,44.83L147.27,42L158.18,37.47L163.64,37.09L180,32.14L185.45,32.23L201.82,29.68L207.27,29.31L234.55,26.31L240,26.58L256.36,25.48L261.82,24.51L267.27,25.16L272.73,24.02L283.64,24.55L289.09,23.96L294.55,24.26L300,23.14L305.45,23.57L310.91,22.68L321.82,22.75L327.27,22.54L343.64,22.03L349.09,21.35L354.55,22.93L360,22.2L381.82,20.91L387.27,20.26L403.64,20.44L409.09,19.16L414.55,19.72L420,19.52L441.82,19.17L447.27,18.17L458.18,19.83L463.64,19.61L469.09,19.77L474.55,18.91L480,18.47L485.45,18.95L496.36,17.88L501.82,18.67L507.27,18.48L512.73,19.52L518.18,17.95L523.64,17.98L529.09,18.5L534.55,17.53L540,18" style="vector-effect: non-scaling-stroke; fill: none; stroke: rgb(248, 118, 109); stroke-opacity: 1; stroke-width: 2px; opacity: 1;"/></g><g class="points"/><g class="text"/></g><g class="trace scatter tracee5fc97" style="stroke-miterlimit: 2; opacity: 1;"><g class="fills"/><g class="errorbars"/><g class="lines"><path class="js-line" d="M0,303.84L5.45,303.16L10.91,301.52L21.82,295.97L27.27,289.72L32.73,282.29L38.18,271.82L43.64,259.17L49.09,244.02L81.82,137.49L87.27,122.93L98.18,97.53L103.64,87.39L114.55,69.22L120,62.95L125.45,58.77L130.91,52.85L136.36,50.52L141.82,46.29L158.18,39.91L163.64,38.14L169.09,36.16L174.55,35.36L185.45,33.27L190.91,32.59L196.36,31L201.82,31.62L212.73,29.68L218.18,29.09L223.64,29.63L229.09,28.17L240,27.22L245.45,27.28L250.91,27.03L256.36,25.88L261.82,25.93L267.27,24.6L272.73,25.53L278.18,25.46L283.64,25.88L289.09,23.78L300,24.67L305.45,22.82L310.91,23.87L316.36,23.51L321.82,22.45L327.27,23.15L343.64,23.07L349.09,21.98L354.55,22.86L360,22.19L365.45,22.59L370.91,21.6L381.82,21.24L387.27,22.2L392.73,21.2L398.18,22.56L414.55,20.63L420,20.07L425.45,21.13L430.91,20.87L436.36,19.8L441.82,20.55L458.18,20.71L463.64,18.63L469.09,20.07L474.55,20.01L480,19.72L485.45,18.55L512.73,19.62L518.18,18.96L540,18.51" style="vector-effect: non-scaling-stroke; fill: none; stroke: rgb(163, 165, 0); stroke-opacity: 1; stroke-width: 2px; opacity: 1;"/></g><g class="points"/><g class="text"/></g><g class="trace scatter tracea77a94" style="stroke-miterlimit: 2; opacity: 1;"><g class="fills"/><g class="errorbars"/><g class="lines"><path class="js-line" d="M0,303.93L5.45,303L10.91,301.3L16.36,299.23L21.82,295.57L27.27,290.15L32.73,282.72L43.64,259.63L49.09,243.56L81.82,138.4L87.27,123.34L98.18,96.8L103.64,86.8L109.09,77.54L114.55,70.28L125.45,58.43L130.91,53.8L136.36,49.74L141.82,46.87L163.64,38.14L169.09,35.77L180,34.66L185.45,32.86L190.91,33.13L196.36,31.57L207.27,30.6L212.73,28.82L218.18,28.93L223.64,27.66L234.55,27.91L240,27.03L261.82,26.44L267.27,25.36L272.73,24.24L278.18,25.34L283.64,23.35L289.09,24.07L300,22.9L305.45,23.9L316.36,23.17L321.82,22.07L327.27,23.58L332.73,22.62L349.09,21.07L354.55,21.16L365.45,21.22L370.91,19.89L376.36,21.25L381.82,21.01L387.27,21.17L392.73,20.28L398.18,21.19L403.64,20.39L414.55,19.92L420,20.37L425.45,19.11L430.91,19.12L441.82,19.47L447.27,19.72L452.73,20.18L458.18,19.22L463.64,18.72L469.09,19.62L474.55,18.59L480,18.56L490.91,18.31L496.36,19L507.27,17.72L512.73,17.98L518.18,19.33L523.64,18.22L529.09,17.9L534.55,18.35L540,17.78" style="vector-effect: non-scaling-stroke; fill: none; stroke: rgb(0, 191, 125); stroke-opacity: 1; stroke-width: 2px; opacity: 1;"/></g><g class="points"/><g class="text"/></g><g class="trace scatter trace78eeea" style="stroke-miterlimit: 2; opacity: 1;"><g class="fills"/><g class="errorbars"/><g class="lines"><path class="js-line" d="M0,303.8L5.45,303.24L10.91,301.55L16.36,299.25L21.82,295.39L27.27,290.03L32.73,282.32L38.18,272.16L43.64,258.92L49.09,243.77L54.55,225.95L65.45,189.21L70.91,171.25L81.82,136.77L87.27,122.85L92.73,108.79L98.18,96.96L103.64,85.83L109.09,76.83L120,63.06L125.45,57.6L130.91,53.65L136.36,50.74L141.82,46.66L147.27,43.99L158.18,39.61L163.64,38.01L169.09,36.9L174.55,34.44L185.45,33.04L190.91,31.43L201.82,30.6L207.27,30.13L212.73,28.53L218.18,28.73L250.91,26.39L256.36,25.37L272.73,25.59L278.18,24.3L289.09,24.08L294.55,23.82L300,23.11L305.45,23.62L310.91,22.66L316.36,23.12L327.27,23.88L332.73,22.57L343.64,21.3L349.09,21.36L360,21.52L365.45,21.11L370.91,21.73L376.36,21.33L381.82,21.51L387.27,19.97L392.73,19.85L398.18,20.87L403.64,19.98L409.09,20.64L436.36,19.53L441.82,18.37L447.27,20.36L452.73,19.84L458.18,19.97L463.64,18.84L469.09,18.39L474.55,19.17L512.73,18.64L518.18,16.95L529.09,18.54L534.55,17.79L540,17.69" style="vector-effect: non-scaling-stroke; fill: none; stroke: rgb(0, 176, 246); stroke-opacity: 1; stroke-width: 2px; opacity: 1;"/></g><g class="points"/><g class="text"/></g><g class="trace scatter trace6876b7" style="stroke-miterlimit: 2; opacity: 1;"><g class="fills"/><g class="errorbars"/><g class="lines"><path class="js-line" d="M0,303.79L5.45,303.02L10.91,301.25L16.36,299.05L21.82,295.21L27.27,290.08L32.73,282.23L38.18,272.43L43.64,258.21L54.55,226.17L60,207.3L81.82,135.96L87.27,121.06L98.18,96.53L103.64,86.11L114.55,69.79L120,62.86L125.45,56.5L130.91,53.15L141.82,45.37L147.27,44.27L158.18,38.76L163.64,37.98L174.55,35.1L180,32.94L201.82,31.21L207.27,29.78L212.73,29.58L218.18,28.08L240,26.87L245.45,26.15L250.91,25.36L256.36,25.4L261.82,26.06L267.27,25.47L272.73,24.37L278.18,24.5L283.64,23.57L289.09,23.75L300,23.66L305.45,22.57L310.91,23.15L316.36,22.52L321.82,22.96L327.27,21.69L332.73,22.46L338.18,21.83L343.64,23.01L349.09,21.47L354.55,22.67L360,20.84L365.45,21.82L370.91,20.21L376.36,21.59L381.82,20.44L387.27,21.89L392.73,21.16L398.18,19.64L403.64,20.25L409.09,21.18L414.55,20.44L420,19.64L425.45,20.58L430.91,19.53L436.36,19.5L447.27,18.71L452.73,19.54L463.64,20.57L469.09,19.06L512.73,19.05L518.18,18.26L523.64,17.91L529.09,18.44L540,18.01" style="vector-effect: non-scaling-stroke; fill: none; stroke: rgb(231, 107, 243); stroke-opacity: 1; stroke-width: 2px; opacity: 1;"/></g><g class="points"/><g class="text"/></g><g class="trace scatter tracea445f5" style="stroke-miterlimit: 2; opacity: 1;"><g class="fills"/><g class="errorbars"/><g class="lines"><path class="js-line" d="M0,303.86L5.45,303.07L10.91,301.36L16.36,299.15L21.82,295.3L27.27,290.06L32.73,281.91L38.18,271.23L43.64,258.05L54.55,225.55L60,207.82L76.36,152.29L81.82,137.21L87.27,121.19L92.73,107.74L103.64,85.74L109.09,76.74L120,63.27L125.45,57.94L136.36,48.97L141.82,45.97L147.27,44.43L152.73,40.77L169.09,36.22L174.55,35.37L180,33.73L185.45,33.36L190.91,31.69L196.36,31.79L201.82,30.26L207.27,30.2L212.73,27.19L218.18,29.33L229.09,26.53L234.55,26.57L240,27.49L245.45,26.08L250.91,26.62L256.36,25.26L261.82,24.71L267.27,26.17L278.18,24.41L283.64,25.15L294.55,23.36L300,23.82L305.45,23L310.91,23.57L316.36,23.84L321.82,22.93L338.18,21.86L343.64,22.18L349.09,21.58L354.55,22.01L360,22.7L365.45,21.72L370.91,20.72L376.36,22.07L381.82,19.77L387.27,20.49L398.18,20.62L403.64,20.22L425.45,20.38L430.91,19.7L480,19.47L485.45,17.76L490.91,19.24L496.36,18.75L512.73,18.11L518.18,18.82L523.64,17.52L529.09,18.78L540,17.45" style="vector-effect: non-scaling-stroke; fill: none; stroke: rgb(248, 118, 109); stroke-opacity: 1; stroke-width: 2px; opacity: 1;"/></g><g class="points"/><g class="text"/></g><g class="trace scatter traceb63ac1" style="stroke-miterlimit: 2; opacity: 1;"><g class="fills"/><g class="errorbars"/><g class="lines"><path class="js-line" d="M0,303.72L10.91,301.73L16.36,299.55L21.82,296.1L27.27,290.68L32.73,283.79L38.18,272.88L49.09,245.45L54.55,229.09L70.91,172.36L76.36,155.17L87.27,122.57L92.73,109.82L103.64,85.97L109.09,76.56L114.55,67.97L120,62.72L130.91,51.67L136.36,48.62L141.82,46.06L147.27,42.3L158.18,38.68L163.64,37.74L169.09,34.03L174.55,33.77L180,32.72L185.45,32.62L190.91,32.48L196.36,31.04L201.82,29.9L207.27,29.78L218.18,27.39L223.64,28.1L234.55,26.56L240,26.73L245.45,26.56L250.91,24.83L256.36,26.52L261.82,25.07L267.27,24.29L272.73,24.52L278.18,23.81L283.64,24.26L289.09,23.33L294.55,23.4L316.36,22.1L321.82,23.33L332.73,21.56L338.18,22.13L349.09,21.96L354.55,20.64L360,20.58L365.45,21.36L370.91,20.63L376.36,21.07L392.73,20.35L398.18,19.84L430.91,20.16L436.36,19.23L441.82,20.55L447.27,18.8L469.09,19.34L474.55,18.74L490.91,18.25L496.36,19.24L501.82,17.5L507.27,18.4L518.18,17.73L523.64,18.46L529.09,17.34L534.55,17.45L540,17.67" style="vector-effect: non-scaling-stroke; fill: none; stroke: rgb(163, 165, 0); stroke-opacity: 1; stroke-width: 2px; opacity: 1;"/></g><g class="points"/><g class="text"/></g><g class="trace scatter trace037cb7" style="stroke-miterlimit: 2; opacity: 1;"><g class="fills"/><g class="errorbars"/><g class="lines"><path class="js-line" d="M0,303.82L5.45,303L10.91,301.36L16.36,299.11L21.82,295.68L27.27,290.24L32.73,282.68L38.18,272.39L43.64,259.66L54.55,228.76L60,209.96L81.82,138.98L87.27,124.32L92.73,109.6L98.18,98.98L103.64,87.83L109.09,79.54L114.55,70.98L120,64.44L125.45,58.87L130.91,54.8L141.82,48.51L147.27,43.61L152.73,41.43L158.18,40.36L169.09,36.76L174.55,36.05L180,34.05L185.45,33.2L190.91,32.25L196.36,32.33L207.27,28.79L212.73,30.32L218.18,28.46L223.64,29.38L234.55,26.43L240,27.69L245.45,26.4L250.91,25.94L256.36,25.93L261.82,26.76L272.73,24.38L278.18,25.75L283.64,23.81L289.09,24.94L294.55,23.14L300,24.68L305.45,23.04L310.91,24.19L316.36,22.35L321.82,23.23L327.27,23.08L332.73,22.17L343.64,22.11L349.09,21.22L354.55,22.49L360,21.16L381.82,21.32L387.27,20.68L398.18,20.63L403.64,20.63L409.09,20.96L414.55,20.33L420,20.58L425.45,19.89L441.82,19.18L447.27,19.61L480,18.81L485.45,20.11L490.91,18.81L496.36,18.86L501.82,19.62L507.27,18.56L512.73,17.64L518.18,18.62L529.09,18.4L534.55,17.65L540,17.46" style="vector-effect: non-scaling-stroke; fill: none; stroke: rgb(0, 191, 125); stroke-opacity: 1; stroke-width: 2px; opacity: 1;"/></g><g class="points"/><g class="text"/></g><g class="trace scatter tracee7f9c9" style="stroke-miterlimit: 2; opacity: 1;"><g class="fills"/><g class="errorbars"/><g class="lines"><path class="js-line" d="M0,303.83L5.45,302.96L10.91,301.31L16.36,299.13L21.82,295.55L27.27,290.29L32.73,282.81L38.18,272.47L43.64,259.76L54.55,226.57L60,208.97L81.82,136.29L87.27,122.27L98.18,95.21L103.64,85.03L109.09,75.61L114.55,68.14L125.45,56.28L130.91,52.52L141.82,44.65L147.27,42.76L152.73,39.79L158.18,39.1L169.09,34.46L174.55,34.14L180,33.63L185.45,31.51L196.36,30.41L201.82,28.49L207.27,29.38L212.73,28.63L218.18,28.51L223.64,26.75L240,25.52L245.45,25.92L267.27,25.07L272.73,23.01L278.18,23.71L283.64,23.62L289.09,22.63L294.55,23.46L300,22.49L305.45,22.96L327.27,22.01L332.73,20.91L343.64,22L349.09,20.57L354.55,21.43L360,20.63L365.45,21.35L370.91,20.48L381.82,20.26L387.27,19.02L392.73,20.08L398.18,20.14L403.64,20.36L409.09,19.58L420,19.39L425.45,19.92L430.91,18.61L436.36,19.47L447.27,19.33L452.73,18.64L469.09,18.48L474.55,17.92L480,18.56L485.45,17.68L490.91,18.29L496.36,18L507.27,18.58L512.73,17.42L518.18,18.36L523.64,17.09L540,17.5" style="vector-effect: non-scaling-stroke; fill: none; stroke: rgb(0, 176, 246); stroke-opacity: 1; stroke-width: 2px; opacity: 1;"/></g><g class="points"/><g class="text"/></g><g class="trace scatter tracea358c0" style="stroke-miterlimit: 2; opacity: 1;"><g class="fills"/><g class="errorbars"/><g class="lines"><path class="js-line" d="M0,304L10.91,301.63L16.36,299.2L21.82,295.51L27.27,289.81L32.73,283.01L38.18,272.61L43.64,260.19L49.09,244.77L54.55,228.37L60,209.45L76.36,154.92L81.82,137.69L92.73,109.35L98.18,97.26L109.09,78.68L114.55,70.51L130.91,53.67L136.36,50.85L141.82,47.13L147.27,44.46L158.18,40.59L163.64,39L169.09,36.75L174.55,35.66L185.45,34.59L190.91,31.87L201.82,31.07L207.27,29.93L212.73,30.1L218.18,27.67L223.64,28.73L229.09,26.83L245.45,26.89L250.91,25.73L261.82,25.34L267.27,24.77L272.73,25.17L278.18,23.99L283.64,24.92L289.09,24.5L294.55,23.65L300,23.62L305.45,22.87L310.91,23.88L327.27,21.98L332.73,23.12L338.18,22.28L343.64,22.44L360,21.64L365.45,22.68L370.91,21.41L376.36,21.41L398.18,20.26L403.64,20.9L420,20.4L425.45,19.75L436.36,20.92L441.82,19.93L447.27,19.69L452.73,20.3L458.18,19.42L463.64,19.31L469.09,19.32L474.55,20.27L480,18.37L485.45,19.08L496.36,19.67L501.82,17.69L512.73,18.22L518.18,19.28L523.64,18.09L529.09,17.7L540,18.64" style="vector-effect: non-scaling-stroke; fill: none; stroke: rgb(231, 107, 243); stroke-opacity: 1; stroke-width: 2px; opacity: 1;"/></g><g class="points"/><g class="text"/></g><g class="trace scatter trace8944a1" style="stroke-miterlimit: 2; opacity: 1;"><g class="fills"/><g class="errorbars"/><g class="lines"><path class="js-line" d="M0,303.82L10.91,301.51L16.36,299.09L21.82,295.46L27.27,290.31L32.73,283.09L38.18,272.79L49.09,245.7L54.55,228.2L70.91,174.24L76.36,156.15L81.82,138.26L87.27,123.94L98.18,98.37L103.64,87.35L109.09,76.92L114.55,71.27L120,63.44L125.45,58.28L141.82,46.15L147.27,44.07L158.18,39.75L163.64,36.6L169.09,37.55L174.55,35.02L185.45,33.34L190.91,31.88L196.36,31.7L201.82,30.31L207.27,30.18L212.73,29.1L218.18,28.45L223.64,29.22L229.09,27.08L234.55,27.92L245.45,25.76L250.91,26.29L256.36,25.34L261.82,25.35L278.18,24.15L283.64,23.92L294.55,23.04L300,23.64L305.45,22.69L310.91,23.87L316.36,22.63L321.82,22.62L327.27,21.85L332.73,22.59L338.18,21.77L343.64,21.78L349.09,21.92L354.55,20.66L365.45,20.8L370.91,21.47L376.36,20.26L381.82,20.39L425.45,19.83L430.91,19.01L436.36,19.95L441.82,19.61L452.73,18.67L458.18,19.26L463.64,19.58L469.09,19.13L474.55,19.26L480,18.42L485.45,18.93L490.91,18.23L501.82,17.29L507.27,18.23L512.73,17.71L518.18,17.96L523.64,17.9L529.09,16.62L534.55,17.78L540,17.88" style="vector-effect: non-scaling-stroke; fill: none; stroke: rgb(248, 118, 109); stroke-opacity: 1; stroke-width: 2px; opacity: 1;"/></g><g class="points"/><g class="text"/></g><g class="trace scatter tracecd0a60" style="stroke-miterlimit: 2; opacity: 1;"><g class="fills"/><g class="errorbars"/><g class="lines"><path class="js-line" d="M0,303.82L5.45,303.2L10.91,301.52L16.36,299.36L21.82,295.93L27.27,290.59L32.73,282.66L38.18,272.5L43.64,259.55L54.55,225.95L60,207.77L65.45,191.09L70.91,171.88L76.36,153L81.82,136.82L87.27,121.31L92.73,109.6L103.64,85.29L109.09,76.92L120,63.83L125.45,58.24L130.91,53.2L136.36,49.5L147.27,44.36L152.73,41.48L158.18,40.17L163.64,37.41L174.55,34.46L180,34.94L185.45,32.07L190.91,31.39L196.36,31.92L201.82,30.84L234.55,27.77L240,27.87L256.36,26.55L261.82,25.22L272.73,25.75L278.18,24.68L294.55,24.16L300,23.63L305.45,24.81L310.91,23.83L343.64,22.27L349.09,22.7L360,21.32L365.45,22.22L376.36,21.39L381.82,22.07L387.27,20.78L392.73,20.88L403.64,20.63L409.09,21.67L414.55,20.14L420,20.75L436.36,20.14L441.82,20.47L452.73,18.89L458.18,19.45L463.64,18.96L469.09,20.36L474.55,19.63L480,19.67L490.91,18.37L496.36,19.63L501.82,20.22L507.27,18.52L523.64,18.41L529.09,17.9L534.55,18.48L540,17.49" style="vector-effect: non-scaling-stroke; fill: none; stroke: rgb(163, 165, 0); stroke-opacity: 1; stroke-width: 2px; opacity: 1;"/></g><g class="points"/><g class="text"/></g><g class="trace scatter traceb66fea" style="stroke-miterlimit: 2; opacity: 1;"><g class="fills"/><g class="errorbars"/><g class="lines"><path class="js-line" d="M0,303.85L10.91,301.5L16.36,299.19L21.82,295.7L27.27,290.51L32.73,282.33L38.18,272.23L49.09,243.55L54.55,225.8L76.36,153.2L81.82,136.47L87.27,121.43L92.73,108.79L103.64,85.16L109.09,76.86L114.55,67.7L120,63.56L125.45,56.14L130.91,53.49L141.82,45.49L147.27,43.27L152.73,40.3L158.18,39.62L169.09,35.84L174.55,34.55L180,33.84L185.45,32.14L201.82,30.55L207.27,29.49L212.73,29.46L218.18,27.98L223.64,27.74L229.09,26.54L234.55,27.01L240,26.17L250.91,25.93L256.36,24.92L261.82,25.41L267.27,24.17L272.73,24.95L278.18,24.21L305.45,23.45L310.91,22.92L316.36,22.35L321.82,23.23L343.64,20.92L349.09,21.55L360,22.3L365.45,21.3L370.91,20.19L376.36,20.84L381.82,20.11L387.27,20.41L409.09,19.58L414.55,19.37L420,18.93L425.45,19.88L441.82,19.03L447.27,19.9L452.73,18.57L458.18,18.03L463.64,17.88L469.09,18.83L474.55,18.2L480,19.09L485.45,18.89L490.91,17.7L496.36,18.41L501.82,18.28L507.27,17.76L512.73,18.09L518.18,18.42L523.64,17.7L534.55,17.55L540,17.51" style="vector-effect: non-scaling-stroke; fill: none; stroke: rgb(0, 191, 125); stroke-opacity: 1; stroke-width: 2px; opacity: 1;"/></g><g class="points"/><g class="text"/></g><g class="trace scatter trace60cfe2" style="stroke-miterlimit: 2; opacity: 1;"><g class="fills"/><g class="errorbars"/><g class="lines"><path class="js-line" d="M0,303.89L10.91,301.19L16.36,299.12L21.82,295.71L27.27,290.12L32.73,283.23L38.18,273.15L43.64,259.96L49.09,243.72L60,209.27L65.45,190.3L81.82,137.62L87.27,121.66L92.73,107.99L98.18,96.58L103.64,84.73L109.09,76.6L120,61.9L125.45,57.03L130.91,51.9L136.36,49.11L147.27,42.78L152.73,40.15L158.18,37.98L163.64,37.27L169.09,35.47L174.55,34.79L196.36,30.17L201.82,29.61L218.18,27.2L223.64,27.94L240,26.8L245.45,26.69L250.91,25.18L256.36,25.2L267.27,25.67L272.73,24.23L283.64,23.11L289.09,24.04L310.91,22.92L316.36,22.59L354.55,21.5L360,20.76L376.36,20.89L381.82,20.49L392.73,20.48L398.18,19.89L403.64,20.68L409.09,20.38L425.45,20.31L430.91,19.2L436.36,20L441.82,19L447.27,19.66L452.73,19.52L463.64,18.01L469.09,18.53L474.55,19.07L480,18.39L507.27,18.95L512.73,18.42L523.64,18.77L529.09,17.94L534.55,18.59L540,16.49" style="vector-effect: non-scaling-stroke; fill: none; stroke: rgb(0, 176, 246); stroke-opacity: 1; stroke-width: 2px; opacity: 1;"/></g><g class="points"/><g class="text"/></g><g class="trace scatter tracedeb9be" style="stroke-miterlimit: 2; opacity: 1;"><g class="fills"/><g class="errorbars"/><g class="lines"><path class="js-line" d="M0,303.85L10.91,301.52L16.36,299.46L21.82,295.73L27.27,290.34L32.73,283.37L38.18,273.99L43.64,261.37L49.09,246.57L65.45,192.49L70.91,174.62L76.36,155.56L81.82,139.29L92.73,109.43L98.18,97.38L103.64,86.39L109.09,77.17L120,62.41L125.45,57.81L130.91,52.71L136.36,49.22L147.27,42.98L152.73,41.12L158.18,37.79L163.64,37.71L174.55,34.02L180,33.69L185.45,32.21L190.91,31.59L196.36,30.89L201.82,29.26L212.73,28.15L218.18,27.66L229.09,27.66L234.55,26.53L240,26.78L245.45,25.26L261.82,25.92L267.27,24.4L272.73,24.05L278.18,25.34L283.64,24.09L289.09,24.2L294.55,22.85L300,23.76L305.45,22.32L310.91,23.01L316.36,22.43L321.82,22.97L327.27,21.71L332.73,22.75L338.18,21.88L343.64,21.77L349.09,21.9L354.55,20.58L360,21.19L365.45,20.83L370.91,21.13L376.36,19.75L381.82,20.95L387.27,20.63L398.18,20.25L403.64,19.78L420,19.86L425.45,19.45L430.91,19.5L436.36,18.56L447.27,19.4L452.73,19.29L463.64,18.3L469.09,19.07L474.55,18.31L480,18.41L485.45,19.06L490.91,18.17L501.82,18.79L507.27,17.81L512.73,18.39L518.18,17.76L529.09,18.26L534.55,17.14L540,17.08" style="vector-effect: non-scaling-stroke; fill: none; stroke: rgb(231, 107, 243); stroke-opacity: 1; stroke-width: 2px; opacity: 1;"/></g><g class="points"/><g class="text"/></g><g class="trace scatter trace7a0946" style="stroke-miterlimit: 2; opacity: 1;"><g class="fills"/><g class="errorbars"/><g class="lines"><path class="js-line" d="M0,303.9L10.91,301.54L16.36,299.48L21.82,295.88L27.27,290.33L32.73,283.13L38.18,273.6L43.64,261.25L49.09,245.09L60,210.48L65.45,191.5L81.82,138.29L87.27,121.97L98.18,96.7L103.64,85.41L114.55,68.78L120,62.66L130.91,51.79L136.36,48.8L147.27,42.94L152.73,41.14L158.18,39.62L163.64,36.96L169.09,36.55L174.55,34.7L185.45,32.98L190.91,32.45L196.36,30.94L201.82,30.98L207.27,29.42L212.73,29.15L245.45,25.88L250.91,26.36L261.82,25.41L267.27,24.59L278.18,25.5L283.64,24.84L289.09,24.77L294.55,23.75L300,24.2L305.45,23.18L316.36,23.04L321.82,22.85L327.27,22.1L332.73,23.11L338.18,21.91L343.64,22.44L349.09,21.72L354.55,22.47L360,21.51L365.45,21.38L376.36,21.35L381.82,20.98L409.09,20.11L414.55,21.15L420,19.09L425.45,20.25L436.36,19.33L441.82,19.67L458.18,19.47L463.64,19.22L474.55,18.36L480,19.11L485.45,17.88L490.91,18.92L496.36,18.2L501.82,18.37L518.18,17.28L523.64,18.09L529.09,18.61L534.55,18.23L540,16.98" style="vector-effect: non-scaling-stroke; fill: none; stroke: rgb(248, 118, 109); stroke-opacity: 1; stroke-width: 2px; opacity: 1;"/></g><g class="points"/><g class="text"/></g><g class="trace scatter tracea86bd6" style="stroke-miterlimit: 2; opacity: 1;"><g class="fills"/><g class="errorbars"/><g class="lines"><path class="js-line" d="M0,303.94L10.91,301.47L16.36,299.31L27.27,290.57L32.73,283.1L38.18,272.54L43.64,259.57L54.55,226.59L60,209.37L76.36,153.73L81.82,136.55L92.73,107.33L98.18,95.87L103.64,84.96L109.09,76.2L114.55,68.79L120,62.99L130.91,53L136.36,49.86L152.73,40.39L158.18,39.5L163.64,37.23L169.09,36.28L174.55,34.64L180,33.96L185.45,32.13L190.91,31.94L201.82,30.38L207.27,30.02L212.73,28.72L218.18,28.36L223.64,28.47L229.09,27.75L245.45,26.31L250.91,26.41L261.82,26.2L267.27,24.73L283.64,24.02L289.09,24.76L294.55,24.25L300,22.9L305.45,23.57L310.91,23.21L316.36,23.25L321.82,22.51L332.73,22.82L338.18,21.52L343.64,21.22L349.09,22.02L354.55,22.07L360,20.88L365.45,21.96L370.91,20.36L381.82,20.36L387.27,20.58L392.73,21.48L398.18,21.29L403.64,20.36L409.09,20.67L414.55,20.32L420,19.11L425.45,20.08L430.91,20.18L441.82,19.44L447.27,19.07L458.18,19.3L463.64,18.95L474.55,18.84L480,18.69L496.36,19.33L501.82,18.42L507.27,17.1L512.73,19.4L518.18,18.06L523.64,18.16L540,17.64" style="vector-effect: non-scaling-stroke; fill: none; stroke: rgb(163, 165, 0); stroke-opacity: 1; stroke-width: 2px; opacity: 1;"/></g><g class="points"/><g class="text"/></g><g class="trace scatter trace738019" style="stroke-miterlimit: 2; opacity: 1;"><g class="fills"/><g class="errorbars"/><g class="lines"><path class="js-line" d="M0,303.82L5.45,303.24L10.91,301.47L16.36,299.24L21.82,295.69L27.27,290.3L32.73,283.44L38.18,272.61L43.64,259.95L54.55,226.62L60,208.63L81.82,137.7L87.27,122.01L98.18,96.05L103.64,86.5L109.09,75.96L114.55,68.65L125.45,57.27L130.91,53.56L141.82,45.99L147.27,43.62L152.73,40.51L158.18,39.76L163.64,36.41L169.09,36.07L174.55,35.69L180,33.72L185.45,31.92L190.91,31.58L201.82,30.47L207.27,29.35L229.09,27.14L234.55,26.96L240,25.71L245.45,26.12L250.91,26.42L256.36,24.92L261.82,24.3L267.27,24.7L272.73,24.1L278.18,24.6L283.64,22.88L289.09,23.13L294.55,23.87L300,23.81L310.91,22.64L316.36,23.24L321.82,22.51L327.27,23.29L332.73,21.53L338.18,22.25L343.64,22.52L349.09,20.81L354.55,21.3L360,21.02L365.45,21.91L370.91,20.43L376.36,21.61L381.82,20.19L387.27,21.22L392.73,20.43L398.18,21.77L403.64,21.28L414.55,19.27L420,20L441.82,19.76L447.27,18.73L452.73,19.34L458.18,19.11L474.55,18.26L480,18.87L485.45,18.59L490.91,19.11L501.82,18.82L507.27,17.38L512.73,18.72L518.18,18.61L523.64,17.54L529.09,18.42L540,17.78" style="vector-effect: non-scaling-stroke; fill: none; stroke: rgb(0, 191, 125); stroke-opacity: 1; stroke-width: 2px; opacity: 1;"/></g><g class="points"/><g class="text"/></g><g class="trace scatter trace3bd637" style="stroke-miterlimit: 2; opacity: 1;"><g class="fills"/><g class="errorbars"/><g class="lines"><path class="js-line" d="M0,303.9L5.45,303.16L10.91,301.53L21.82,296.12L27.27,290.56L32.73,282.78L38.18,272.49L43.64,259.96L49.09,244.24L76.36,154.37L81.82,135.94L92.73,107.39L98.18,96.26L103.64,84.72L109.09,76.04L114.55,68.55L120,62.81L125.45,55.79L130.91,53.31L136.36,47.73L141.82,46.47L152.73,40.35L158.18,39.26L169.09,35.82L174.55,35.2L190.91,31.21L196.36,30.45L201.82,29.54L207.27,29.52L212.73,29.99L218.18,28.41L229.09,27.06L234.55,27.7L245.45,25.95L250.91,25.59L267.27,24.32L272.73,25.02L278.18,24.01L283.64,24.09L294.55,23.63L300,22.42L305.45,23.21L310.91,22.9L316.36,22.18L321.82,22.6L327.27,21.96L332.73,22.18L343.64,22.24L349.09,21.36L360,21.87L365.45,21.19L370.91,20.49L376.36,20.71L387.27,20.55L392.73,20.97L398.18,19.46L403.64,20.22L409.09,20.62L414.55,20.1L420,20.2L425.45,19.28L436.36,19.87L441.82,19.51L452.73,18.82L458.18,19.56L463.64,19.03L469.09,19.56L474.55,18.69L480,19.02L485.45,18.21L490.91,18.34L496.36,18.94L501.82,18.53L507.27,17.73L512.73,17.89L529.09,18.55L534.55,17.99L540,18.58" style="vector-effect: non-scaling-stroke; fill: none; stroke: rgb(0, 176, 246); stroke-opacity: 1; stroke-width: 2px; opacity: 1;"/></g><g class="points"/><g class="text"/></g><g class="trace scatter trace80f9df" style="stroke-miterlimit: 2; opacity: 1;"><g class="fills"/><g class="errorbars"/><g class="lines"><path class="js-line" d="M0,303.67L5.45,303.16L10.91,301.41L16.36,298.76L21.82,295.15L27.27,290L32.73,281.9L38.18,271.7L43.64,257.36L49.09,242.76L54.55,225.1L81.82,135.84L87.27,120.64L92.73,106.83L98.18,96.25L103.64,85.41L109.09,76.75L114.55,68.75L120,62.7L125.45,56.97L130.91,52.68L141.82,45.22L147.27,42.24L163.64,37.6L169.09,36.02L180,33.13L185.45,33.32L196.36,30.22L201.82,29.32L207.27,30.35L212.73,28.65L218.18,28.52L223.64,27.37L229.09,27.95L234.55,26.34L245.45,26.09L250.91,25.73L256.36,25.79L261.82,25.09L267.27,24.5L272.73,25.69L278.18,24.6L283.64,24.29L294.55,23.83L300,22.53L327.27,23.08L332.73,21.47L343.64,21.99L349.09,21.58L360,21.52L365.45,22.23L381.82,20.37L387.27,20.75L398.18,21.12L403.64,19.89L452.73,20.01L458.18,19.59L463.64,18.43L469.09,18.64L474.55,18.03L480,18.79L485.45,20.01L490.91,18.59L496.36,18.03L501.82,18.39L507.27,18.75L512.73,18.24L534.55,18.65L540,18.03" style="vector-effect: non-scaling-stroke; fill: none; stroke: rgb(231, 107, 243); stroke-opacity: 1; stroke-width: 2px; opacity: 1;"/></g><g class="points"/><g class="text"/></g><g class="trace scatter trace120cc3" style="stroke-miterlimit: 2; opacity: 1;"><g class="fills"/><g class="errorbars"/><g class="lines"><path class="js-line" d="M0,303.71L5.45,303.15L10.91,301.42L16.36,299.24L21.82,295.59L27.27,289.74L32.73,282.69L38.18,272.36L43.64,260.16L54.55,228.22L60,209.71L70.91,172.8L76.36,155.92L87.27,123.52L92.73,109.92L103.64,87.13L109.09,78.83L114.55,70.39L120,64.13L125.45,58.6L130.91,54.48L141.82,47.06L147.27,45.05L163.64,38.28L169.09,37.49L190.91,32.28L196.36,32.33L212.73,29.46L218.18,28.97L223.64,28.07L229.09,28.22L234.55,27.6L240,27.8L250.91,26.17L256.36,26.61L278.18,24.49L283.64,24.33L289.09,24.92L294.55,24.56L300,23.47L305.45,23.41L310.91,22.86L316.36,23.41L321.82,23.11L327.27,21.66L332.73,22.5L338.18,22.46L349.09,22.71L354.55,21.55L365.45,21.91L370.91,20.95L376.36,20.65L381.82,21.37L387.27,21.78L392.73,21.19L398.18,20.59L403.64,20.87L414.55,20.16L420,20.81L430.91,19.22L436.36,20.07L447.27,19.57L452.73,20.03L463.64,19.48L469.09,20.42L480,18.98L485.45,19.06L496.36,18.56L501.82,19.22L507.27,19.1L512.73,18.22L523.64,18.66L529.09,18.14L540,18.56" style="vector-effect: non-scaling-stroke; fill: none; stroke: rgb(248, 118, 109); stroke-opacity: 1; stroke-width: 2px; opacity: 1;"/></g><g class="points"/><g class="text"/></g><g class="trace scatter trace0a61a2" style="stroke-miterlimit: 2; opacity: 1;"><g class="fills"/><g class="errorbars"/><g class="lines"><path class="js-line" d="M0,303.91L10.91,301.22L16.36,299.12L21.82,295.57L27.27,289.82L32.73,283.04L38.18,272.03L49.09,243.48L54.55,226.02L65.45,190.54L70.91,171.86L81.82,138.22L87.27,123.92L92.73,108.61L98.18,97.67L103.64,87.28L109.09,78.88L120,63.5L125.45,58.44L130.91,54.48L136.36,48.79L141.82,47.84L147.27,44.18L152.73,41.69L158.18,40.19L163.64,36.93L169.09,36.82L174.55,35.04L180,34.24L185.45,32.54L190.91,32.41L196.36,30.94L201.82,30.33L207.27,30.4L212.73,28.26L223.64,27.93L229.09,27.71L240,25.62L245.45,26.25L256.36,26.92L261.82,25.33L267.27,25.8L272.73,23.95L289.09,24.26L294.55,23.24L300,23.9L305.45,23.52L321.82,22.81L327.27,22.34L343.64,21.06L349.09,22.58L354.55,21.31L360,20.88L365.45,21.67L370.91,21.22L387.27,20.52L392.73,20.96L398.18,19.61L403.64,20.52L414.55,19.14L420,20.22L425.45,20.54L430.91,19.34L436.36,20.06L441.82,19.42L447.27,19.68L452.73,18.9L458.18,18.85L463.64,19.79L469.09,18.66L474.55,19.47L480,18.53L485.45,18.77L518.18,17.87L523.64,16.9L534.55,17.85L540,17.34" style="vector-effect: non-scaling-stroke; fill: none; stroke: rgb(163, 165, 0); stroke-opacity: 1; stroke-width: 2px; opacity: 1;"/></g><g class="points"/><g class="text"/></g><g class="trace scatter trace6de28f" style="stroke-miterlimit: 2; opacity: 1;"><g class="fills"/><g class="errorbars"/><g class="lines"><path class="js-line" d="M0,303.75L10.91,301.76L16.36,299.18L21.82,295.99L27.27,289.92L32.73,282.86L38.18,272.02L49.09,244.02L54.55,226.78L65.45,189.59L70.91,172.57L81.82,136.77L87.27,121.93L98.18,96.4L103.64,85.99L109.09,76.48L114.55,70.24L125.45,58.58L130.91,53.49L147.27,43.69L152.73,41.88L158.18,38.96L163.64,37.71L190.91,31.52L196.36,31.4L201.82,31.46L207.27,29.68L218.18,29.23L223.64,27.71L229.09,28.44L234.55,27.33L240,26.25L245.45,26.72L250.91,26.21L256.36,26.51L267.27,23.9L272.73,24.98L278.18,23.92L283.64,24.55L294.55,23.61L300,23.46L305.45,22.36L310.91,23.13L316.36,22.13L321.82,22.49L327.27,23.18L332.73,21.68L360,21.82L365.45,21.19L370.91,21.18L376.36,20.14L387.27,20.83L392.73,20.97L398.18,20.05L403.64,20.53L414.55,20.33L420,19.73L436.36,19.73L441.82,19.44L463.64,19.65L469.09,18.77L485.45,19.11L490.91,19.15L507.27,18.21L512.73,19.07L523.64,18.08L529.09,19.09L540,17.29" style="vector-effect: non-scaling-stroke; fill: none; stroke: rgb(0, 191, 125); stroke-opacity: 1; stroke-width: 2px; opacity: 1;"/></g><g class="points"/><g class="text"/></g><g class="trace scatter traceff40ce" style="stroke-miterlimit: 2; opacity: 1;"><g class="fills"/><g class="errorbars"/><g class="lines"><path class="js-line" d="M0,303.71L10.91,301.33L16.36,299.34L21.82,295.81L27.27,290.58L32.73,282.93L38.18,272.68L43.64,259.61L49.09,244.54L54.55,228.5L60,209.81L81.82,138.66L87.27,123.85L98.18,98.08L103.64,86.82L114.55,69.56L120,63.37L130.91,54.19L136.36,50.01L147.27,44.32L152.73,41.28L163.64,38.38L169.09,36.89L180,33.8L185.45,33.2L201.82,30.29L207.27,30.14L223.64,28.08L229.09,28.02L234.55,27.71L240,26.35L245.45,26.47L250.91,25.31L261.82,25.92L267.27,23.59L272.73,24.81L278.18,24.03L283.64,23.91L289.09,22.89L294.55,24.04L300,23.21L305.45,22.06L310.91,23.15L321.82,23.08L327.27,22.05L338.18,21.73L343.64,22.3L349.09,20.3L354.55,21.7L365.45,21.37L370.91,21.23L376.36,22.01L381.82,21.74L387.27,20.22L392.73,20.27L398.18,19.83L403.64,20.39L409.09,20.39L414.55,19.53L425.45,19.53L430.91,19.73L441.82,19.57L447.27,18.98L452.73,19.79L458.18,19.71L474.55,19.84L480,18.62L496.36,19.09L501.82,18.53L507.27,17.65L512.73,17.95L523.64,18.42L529.09,17.84L534.55,18.23L540,17.46" style="vector-effect: non-scaling-stroke; fill: none; stroke: rgb(0, 176, 246); stroke-opacity: 1; stroke-width: 2px; opacity: 1;"/></g><g class="points"/><g class="text"/></g><g class="trace scatter trace19efa3" style="stroke-miterlimit: 2; opacity: 1;"><g class="fills"/><g class="errorbars"/><g class="lines"><path class="js-line" d="M0,303.81L5.45,303.13L10.91,301.65L21.82,295.98L27.27,290.68L32.73,282.68L38.18,273.2L49.09,245.81L54.55,227.78L65.45,192.3L70.91,173.8L81.82,139.4L87.27,124.17L92.73,110.02L98.18,98.31L109.09,77.91L114.55,71.06L120,63.61L125.45,59.24L136.36,49.88L141.82,47.39L147.27,43.91L152.73,41.93L158.18,39.48L163.64,38.45L180,33.69L185.45,33.9L196.36,31.82L201.82,31.09L207.27,30.44L212.73,28.96L223.64,29.03L229.09,27.37L234.55,28.05L240,27.04L250.91,26.1L256.36,26.15L283.64,24.72L289.09,25.29L294.55,24.32L300,24.2L305.45,24.35L310.91,23.43L321.82,22.72L327.27,23.6L332.73,22.3L338.18,23.01L349.09,20.93L354.55,22.3L387.27,22.16L392.73,20.83L398.18,20.56L403.64,21.73L420,20.01L425.45,20.39L436.36,20.28L441.82,20.28L452.73,19.61L458.18,19.61L485.45,19.63L490.91,18.67L496.36,20.08L501.82,18.96L507.27,18.53L512.73,19.18L523.64,18.48L529.09,18.73L534.55,17.43L540,19.04" style="vector-effect: non-scaling-stroke; fill: none; stroke: rgb(231, 107, 243); stroke-opacity: 1; stroke-width: 2px; opacity: 1;"/></g><g class="points"/><g class="text"/></g><g class="trace scatter tracecde288" style="stroke-miterlimit: 2; opacity: 1;"><g class="fills"/><g class="errorbars"/><g class="lines"><path class="js-line" d="M0,303.85L10.91,301.66L16.36,299.43L21.82,295.22L27.27,290.04L32.73,283.18L38.18,272.75L43.64,260.27L49.09,244.66L65.45,190.89L70.91,172.27L81.82,138.04L87.27,122.3L98.18,96.61L103.64,85.86L109.09,76.56L114.55,69.75L130.91,52.55L136.36,48.9L152.73,40.65L158.18,39.13L163.64,37.43L169.09,36.69L185.45,32.1L190.91,32.14L223.64,27.85L229.09,27.8L240,28.05L245.45,27.34L250.91,25.93L256.36,25.64L272.73,25.14L278.18,25.36L283.64,23.93L289.09,24.76L321.82,22.52L327.27,22.82L338.18,22.19L343.64,22.13L349.09,23.08L354.55,21.67L360,21.3L365.45,21.88L392.73,21.16L398.18,20.47L409.09,20.52L414.55,19.66L420,20.41L425.45,19.83L436.36,20.2L441.82,19.31L458.18,19.47L463.64,20.12L474.55,18.9L480,19.6L512.73,18.01L518.18,19.11L534.55,17.58L540,18.76" style="vector-effect: non-scaling-stroke; fill: none; stroke: rgb(248, 118, 109); stroke-opacity: 1; stroke-width: 2px; opacity: 1;"/></g><g class="points"/><g class="text"/></g><g class="trace scatter trace24e67b" style="stroke-miterlimit: 2; opacity: 1;"><g class="fills"/><g class="errorbars"/><g class="lines"><path class="js-line" d="M0,303.99L10.91,301.4L16.36,299.35L21.82,295.59L27.27,290.41L32.73,281.84L38.18,271.67L43.64,258.61L49.09,242.31L54.55,225.98L60,206.46L76.36,152.06L81.82,136.03L92.73,106.8L98.18,94.45L103.64,83.5L109.09,76.08L114.55,68.22L120,62.05L125.45,56.44L130.91,52.97L141.82,45.37L147.27,42.18L158.18,38.56L163.64,37.14L169.09,34.47L174.55,34.09L185.45,31.34L190.91,31.36L196.36,29.67L201.82,29.25L212.73,28.31L218.18,26.28L223.64,27.55L229.09,27.61L234.55,26.58L240,26.5L250.91,25.06L256.36,25.22L272.73,23.41L278.18,23.96L283.64,23.96L289.09,23.12L316.36,22.93L321.82,20.99L327.27,22.21L332.73,21.63L338.18,20.36L343.64,21.05L349.09,21.47L354.55,20.59L360,20.87L365.45,20.36L370.91,20.99L376.36,19.89L387.27,20.69L392.73,19.69L398.18,19.66L403.64,20.59L409.09,19.2L414.55,20.09L425.45,19.7L430.91,18.85L452.73,19.24L458.18,18.43L463.64,19L469.09,17.96L474.55,19.01L480,18.14L485.45,18.73L490.91,17.76L501.82,18.17L507.27,17.89L518.18,17.96L523.64,17.51L529.09,17.02L534.55,18.23L540,17.15" style="vector-effect: non-scaling-stroke; fill: none; stroke: rgb(163, 165, 0); stroke-opacity: 1; stroke-width: 2px; opacity: 1;"/></g><g class="points"/><g class="text"/></g><g class="trace scatter trace549756" style="stroke-miterlimit: 2; opacity: 1;"><g class="fills"/><g class="errorbars"/><g class="lines"><path class="js-line" d="M0,303.71L5.45,303.1L10.91,301.42L16.36,299.31L21.82,295.93L27.27,290.26L32.73,282.68L38.18,272.47L43.64,260.58L54.55,229.16L60,210.07L76.36,154.53L81.82,137.24L92.73,109.25L98.18,96.58L103.64,87.05L109.09,75.29L120,61.88L125.45,56.99L130.91,52.29L136.36,49.39L141.82,45.64L147.27,43.22L158.18,38.65L163.64,38.29L169.09,35.05L174.55,34.37L180,34.01L185.45,32.36L196.36,30.93L201.82,31.01L212.73,28.27L218.18,27.94L223.64,26.88L229.09,27.12L250.91,25.75L256.36,26.17L267.27,24.48L272.73,25.12L278.18,24.12L283.64,24.51L289.09,23.24L294.55,23.83L305.45,23.65L310.91,22.16L316.36,22.65L321.82,22.26L327.27,22.1L332.73,23.06L343.64,21.59L349.09,21.94L354.55,20.97L360,21.55L365.45,20.81L370.91,21.05L381.82,21.27L387.27,20.53L392.73,20.97L398.18,20.34L409.09,19.93L414.55,19.35L420,20.66L425.45,19.42L430.91,20L436.36,19.32L441.82,19.97L447.27,18.72L458.18,19.38L463.64,18.53L474.55,19.64L480,18.7L490.91,19.43L496.36,18.07L507.27,17.95L512.73,17.81L518.18,18.78L523.64,17.95L540,17.23" style="vector-effect: non-scaling-stroke; fill: none; stroke: rgb(0, 191, 125); stroke-opacity: 1; stroke-width: 2px; opacity: 1;"/></g><g class="points"/><g class="text"/></g><g class="trace scatter trace6ce434" style="stroke-miterlimit: 2; opacity: 1;"><g class="fills"/><g class="errorbars"/><g class="lines"><path class="js-line" d="M0,303.69L5.45,302.99L10.91,301.33L16.36,299.14L21.82,295.88L27.27,290.23L32.73,283.19L38.18,272.77L43.64,259.16L54.55,227.14L60,209.39L70.91,171.19L76.36,153.93L87.27,120.03L92.73,106.15L103.64,85.34L109.09,75.09L125.45,56.38L130.91,53.05L136.36,48.42L141.82,46.47L152.73,40.92L158.18,38.93L163.64,38.05L169.09,36.13L174.55,35.15L180,33.12L196.36,31.59L201.82,30.06L212.73,28.44L218.18,28.75L223.64,26.9L229.09,27L250.91,25.98L256.36,25.84L272.73,23.83L278.18,24.62L283.64,25.03L289.09,23.24L300,24.08L305.45,23.28L310.91,22.6L316.36,22.94L321.82,22.23L327.27,22.48L338.18,21.92L343.64,22.57L349.09,21.37L354.55,21.29L365.45,21.29L370.91,21.02L376.36,21.82L381.82,21.12L398.18,20.62L403.64,20.89L420,20.21L425.45,20.05L430.91,19.41L436.36,19.86L452.73,19.58L458.18,18.45L463.64,18.05L469.09,19.03L480,18.65L485.45,19.07L501.82,17.73L507.27,18.42L529.09,18.02L534.55,18.74L540,17.68" style="vector-effect: non-scaling-stroke; fill: none; stroke: rgb(0, 176, 246); stroke-opacity: 1; stroke-width: 2px; opacity: 1;"/></g><g class="points"/><g class="text"/></g><g class="trace scatter trace9bff3f" style="stroke-miterlimit: 2; opacity: 1;"><g class="fills"/><g class="errorbars"/><g class="lines"><path class="js-line" d="M0,303.99L10.91,301.86L16.36,298.95L21.82,295.37L27.27,290.34L32.73,283.07L38.18,272.92L43.64,260.65L49.09,245.16L65.45,191.95L70.91,173.38L87.27,124.51L92.73,109.02L109.09,76.84L114.55,71.36L120,64.22L125.45,58.56L130.91,52.82L136.36,49.39L141.82,47.68L147.27,43.85L152.73,40.6L158.18,39.15L174.55,34.79L180,34.42L190.91,30.71L196.36,30.39L234.55,26.51L240,26.61L245.45,25.58L250.91,26.06L256.36,25.31L261.82,25.4L289.09,22.88L294.55,23.84L300,23.2L305.45,23.87L316.36,22.11L321.82,22.75L338.18,20.47L343.64,21.02L349.09,21.93L354.55,21.13L360,21.59L365.45,21.1L381.82,20.58L387.27,21.4L392.73,19.94L398.18,20.57L414.55,19.64L420,20.59L425.45,19.29L430.91,19.19L436.36,19.86L441.82,19.22L447.27,20.11L452.73,18.93L458.18,19.06L463.64,18.32L469.09,19.02L474.55,18.03L485.45,18.09L490.91,18.39L501.82,17.9L507.27,18.63L512.73,17.14L518.18,18.57L523.64,17.4L529.09,18.03L534.55,16.72L540,17.58" style="vector-effect: non-scaling-stroke; fill: none; stroke: rgb(231, 107, 243); stroke-opacity: 1; stroke-width: 2px; opacity: 1;"/></g><g class="points"/><g class="text"/></g></g></g><g class="overplot"/><path class="xlines-above crisp" d="" style="fill: none; stroke-width: 1px; stroke: rgb(0, 0, 0); stroke-opacity: 0;"/><path class="ylines-above crisp" d="" style="fill: none; stroke-width: 1px; stroke: rgb(0, 0, 0); stroke-opacity: 0;"/><g class="overlines-above"/><g class="xaxislayer-above"><path class="xtick ticks crisp" d="M0,421v5" transform="translate(80,0)" style="stroke: rgb(51, 51, 51); stroke-opacity: 1; stroke-width: 1px;"/><path class="xtick ticks crisp" d="M0,421v5" transform="translate(189.09,0)" style="stroke: rgb(51, 51, 51); stroke-opacity: 1; stroke-width: 1px;"/><path class="xtick ticks crisp" d="M0,421v5" transform="translate(298.18,0)" style="stroke: rgb(51, 51, 51); stroke-opacity: 1; stroke-width: 1px;"/><path class="xtick ticks crisp" d="M0,421v5" transform="translate(407.27,0)" style="stroke: rgb(51, 51, 51); stroke-opacity: 1; stroke-width: 1px;"/><path class="xtick ticks crisp" d="M0,421v5" transform="translate(516.36,0)" style="stroke: rgb(51, 51, 51); stroke-opacity: 1; stroke-width: 1px;"/><g class="xtick"><text text-anchor="middle" x="0" y="440.4" transform="translate(80,0)" style="font-family: 'Open Sans', verdana, arial, sans-serif; font-size: 12px; fill: rgb(51, 51, 51); fill-opacity: 1; white-space: pre; opacity: 1;">0</text></g><g class="xtick"><text text-anchor="middle" x="0" y="440.4" style="font-family: 'Open Sans', verdana, arial, sans-serif; font-size: 12px; fill: rgb(51, 51, 51); fill-opacity: 1; white-space: pre; opacity: 1;" transform="translate(189.09,0)">20</text></g><g class="xtick"><text text-anchor="middle" x="0" y="440.4" style="font-family: 'Open Sans', verdana, arial, sans-serif; font-size: 12px; fill: rgb(51, 51, 51); fill-opacity: 1; white-space: pre; opacity: 1;" transform="translate(298.18,0)">40</text></g><g class="xtick"><text text-anchor="middle" x="0" y="440.4" style="font-family: 'Open Sans', verdana, arial, sans-serif; font-size: 12px; fill: rgb(51, 51, 51); fill-opacity: 1; white-space: pre; opacity: 1;" transform="translate(407.27,0)">60</text></g><g class="xtick"><text text-anchor="middle" x="0" y="440.4" style="font-family: 'Open Sans', verdana, arial, sans-serif; font-size: 12px; fill: rgb(51, 51, 51); fill-opacity: 1; white-space: pre; opacity: 1;" transform="translate(516.36,0)">80</text></g></g><g class="yaxislayer-above"><path class="ytick ticks crisp" d="M79,0h-5" transform="translate(0,405.13)" style="stroke: rgb(51, 51, 51); stroke-opacity: 1; stroke-width: 1px;"/><path class="ytick ticks crisp" d="M79,0h-5" transform="translate(0,339.02)" style="stroke: rgb(51, 51, 51); stroke-opacity: 1; stroke-width: 1px;"/><path class="ytick ticks crisp" d="M79,0h-5" transform="translate(0,272.90999999999997)" style="stroke: rgb(51, 51, 51); stroke-opacity: 1; stroke-width: 1px;"/><path class="ytick ticks crisp" d="M79,0h-5" transform="translate(0,206.8)" style="stroke: rgb(51, 51, 51); stroke-opacity: 1; stroke-width: 1px;"/><path class="ytick ticks crisp" d="M79,0h-5" transform="translate(0,140.7)" style="stroke: rgb(51, 51, 51); stroke-opacity: 1; stroke-width: 1px;"/><g class="ytick"><text text-anchor="end" x="71.6" y="4.199999999999999" transform="translate(0,405.13)" style="font-family: 'Open Sans', verdana, arial, sans-serif; font-size: 12px; fill: rgb(51, 51, 51); fill-opacity: 1; white-space: pre; opacity: 1;">0</text></g><g class="ytick"><text text-anchor="end" x="71.6" y="4.199999999999999" style="font-family: 'Open Sans', verdana, arial, sans-serif; font-size: 12px; fill: rgb(51, 51, 51); fill-opacity: 1; white-space: pre; opacity: 1;" transform="translate(0,339.02)">0.2</text></g><g class="ytick"><text text-anchor="end" x="71.6" y="4.199999999999999" style="font-family: 'Open Sans', verdana, arial, sans-serif; font-size: 12px; fill: rgb(51, 51, 51); fill-opacity: 1; white-space: pre; opacity: 1;" transform="translate(0,272.90999999999997)">0.4</text></g><g class="ytick"><text text-anchor="end" x="71.6" y="4.199999999999999" style="font-family: 'Open Sans', verdana, arial, sans-serif; font-size: 12px; fill: rgb(51, 51, 51); fill-opacity: 1; white-space: pre; opacity: 1;" transform="translate(0,206.8)">0.6</text></g><g class="ytick"><text text-anchor="end" x="71.6" y="4.199999999999999" style="font-family: 'Open Sans', verdana, arial, sans-serif; font-size: 12px; fill: rgb(51, 51, 51); fill-opacity: 1; white-space: pre; opacity: 1;" transform="translate(0,140.7)">0.8</text></g></g><g class="overaxes-above"/></g></g><g class="polarlayer"/><g class="ternarylayer"/><g class="geolayer"/><g class="funnelarealayer"/><g class="pielayer"/><g class="iciclelayer"/><g class="treemaplayer"/><g class="sunburstlayer"/><g class="glimages"/><defs id="topdefs-26fc06"><g class="clips"/></defs><g class="layer-above"><g class="imagelayer"/><g class="shapelayer"/></g><g class="infolayer"><g class="g-gtitle"><text class="gtitle" x="350" y="50" text-anchor="middle" dy="0em" style="font-family: 'Open Sans', verdana, arial, sans-serif; font-size: 17px; fill: rgb(51, 51, 51); opacity: 1; font-weight: normal; white-space: pre;">Train Accuracy: ascad_v1_fk_0_noisy-aisy_mlp_id (early_stopping)</text></g><g class="g-xtitle"/><g class="g-ytitle"/></g></svg>