<svg class="main-svg" xmlns="http://www.w3.org/2000/svg" xmlns:xlink="http://www.w3.org/1999/xlink" width="700" height="500" style="" viewBox="0 0 700 500"><rect x="0" y="0" width="700" height="500" style="fill: rgb(255, 255, 255); fill-opacity: 1;"/><defs id="defs-1fd0f6"><g class="clips"><clipPath id="clip1fd0f6xyplot" class="plotclip"><rect width="540" height="320"/></clipPath><clipPath class="axesclip" id="clip1fd0f6x"><rect x="80" y="0" width="540" height="500"/></clipPath><clipPath class="axesclip" id="clip1fd0f6y"><rect x="0" y="100" width="700" height="320"/></clipPath><clipPath class="axesclip" id="clip1fd0f6xy"><rect x="80" y="100" width="540" height="320"/></clipPath></g><g class="gradients"/><g class="patterns"/></defs><g class="bglayer"><rect class="bg" x="80" y="100" width="540" height="320" style="fill: rgb(237, 237, 237); fill-opacity: 1; stroke-width: 0;"/></g><g class="layer-below"><g class="imagelayer"/><g class="shapelayer"/></g><g class="cartesianlayer"><g class="subplot xy"><g class="layer-subplot"><g class="shapelayer"/><g class="imagelayer"/></g><g class="gridlayer"><g class="x"><path class="xgrid crisp" transform="translate(189.09,0)" d="M0,100v320" style="stroke: rgb(255, 255, 255); stroke-opacity: 1; stroke-width: 1px;"/><path class="xgrid crisp" transform="translate(298.18,0)" d="M0,100v320" style="stroke: rgb(255, 255, 255); stroke-opacity: 1; stroke-width: 1px;"/><path class="xgrid crisp" transform="translate(407.27,0)" d="M0,100v320" style="stroke: rgb(255, 255, 255); stroke-opacity: 1; stroke-width: 1px;"/><path class="xgrid crisp" transform="translate(516.36,0)" d="M0,100v320" style="stroke: rgb(255, 255, 255); stroke-opacity: 1; stroke-width: 1px;"/></g><g class="y"><path class="ygrid crisp" transform="translate(0,379.09)" d="M80,0h540" style="stroke: rgb(255, 255, 255); stroke-opacity: 1; stroke-width: 1px;"/><path class="ygrid crisp" transform="translate(0,322.52)" d="M80,0h540" style="stroke: rgb(255, 255, 255); stroke-opacity: 1; stroke-width: 1px;"/><path class="ygrid crisp" transform="translate(0,265.95)" d="M80,0h540" style="stroke: rgb(255, 255, 255); stroke-opacity: 1; stroke-width: 1px;"/><path class="ygrid crisp" transform="translate(0,209.38)" d="M80,0h540" style="stroke: rgb(255, 255, 255); stroke-opacity: 1; stroke-width: 1px;"/><path class="ygrid crisp" transform="translate(0,152.82)" d="M80,0h540" style="stroke: rgb(255, 255, 255); stroke-opacity: 1; stroke-width: 1px;"/></g></g><g class="zerolinelayer"><path class="xzl zl crisp" transform="translate(80,0)" d="M0,100v320" style="stroke: rgb(255, 255, 255); stroke-opacity: 1; stroke-width: 1px;"/></g><path class="xlines-below"/><path class="ylines-below"/><g class="overlines-below"/><g class="xaxislayer-below"/><g class="yaxislayer-below"/><g class="overaxes-below"/><g class="plot" transform="translate(80,100)" clip-path="url(#clip1fd0f6xyplot)"><g class="scatterlayer mlayer"><g class="trace scatter tracea27e17" style="stroke-miterlimit: 2; opacity: 1;"><g class="fills"/><g class="errorbars"/><g class="lines"><path class="js-line" d="M0,16.24L5.45,20.61L10.91,26.03L16.36,32.66L21.82,40.89L27.27,51.42L32.73,64.14L43.64,96.24L49.09,114.93L65.45,171.74L70.91,189.37L81.82,220.85L87.27,234.01L98.18,256.15L103.64,264.18L109.09,271.82L114.55,277.35L125.45,286.49L130.91,289.18L141.82,294.18L147.27,295.32L152.73,297.64L158.18,298.3L185.45,301.2L190.91,301.62L229.09,302.92L234.55,302.71L256.36,303.52L261.82,302.96L278.18,303.59L283.64,303.52L289.09,302.92L294.55,303.3L300,302.68L305.45,302.98L316.36,303.61L321.82,302.2L327.27,303.18L332.73,302.73L365.45,301.85L370.91,302.77L381.82,301.64L387.27,302.59L392.73,301.38L398.18,301.07L403.64,301.67L409.09,301.43L425.45,301.3L430.91,300.09L436.36,301.6L441.82,300.77L452.73,300.43L458.18,300.93L463.64,299.63L469.09,300.22L474.55,299.4L480,299.97L490.91,299.35L496.36,299.83L507.27,299.02L512.73,300.16L518.18,297.57L523.64,299.03L540,297.53" style="vector-effect: non-scaling-stroke; fill: none; stroke: rgb(248, 118, 109); stroke-opacity: 1; stroke-width: 2px; opacity: 1;"/></g><g class="points"/><g class="text"/></g><g class="trace scatter trace99a527" style="stroke-miterlimit: 2; opacity: 1;"><g class="fills"/><g class="errorbars"/><g class="lines"><path class="js-line" d="M0,16.05L10.91,26.35L16.36,32.88L21.82,41.26L27.27,51.82L32.73,64.62L38.18,79.64L49.09,115.37L54.55,134.22L70.91,188.58L76.36,205.36L87.27,233.36L92.73,245.25L103.64,263.51L109.09,270.21L114.55,276.82L120,281.37L125.45,285.69L130.91,288.73L141.82,293.75L147.27,294.73L158.18,297.92L163.64,298.01L169.09,299.47L174.55,300.07L185.45,300.74L190.91,301.25L196.36,300.96L201.82,301.83L212.73,301.4L218.18,302.85L229.09,302.32L234.55,302.64L267.27,303.39L272.73,302.55L289.09,303.12L294.55,302.45L305.45,302.51L310.91,302.47L332.73,302.1L338.18,303.12L343.64,302.26L349.09,302.17L354.55,301.33L360,301.36L370.91,302.19L376.36,301.09L381.82,301.6L387.27,300.76L392.73,301.55L398.18,300.86L414.55,300.04L420,300.88L436.36,299.31L441.82,299.85L452.73,300.33L458.18,299.29L463.64,299.9L469.09,299.51L480,299.33L485.45,298.64L490.91,298.99L496.36,297.76L507.27,298.8L512.73,298.09L518.18,298.63L523.64,298.11L534.55,297.84L540,297.9" style="vector-effect: non-scaling-stroke; fill: none; stroke: rgb(163, 165, 0); stroke-opacity: 1; stroke-width: 2px; opacity: 1;"/></g><g class="points"/><g class="text"/></g><g class="trace scatter traceaa1e8f" style="stroke-miterlimit: 2; opacity: 1;"><g class="fills"/><g class="errorbars"/><g class="lines"><path class="js-line" d="M0,16.26L5.45,20.88L10.91,26.62L16.36,33.23L21.82,41.47L27.27,52.28L32.73,64.87L43.64,96.6L49.09,115.07L70.91,188.05L76.36,204.13L87.27,232.36L92.73,243.6L103.64,262.04L109.09,269.11L120,280.08L125.45,283.66L130.91,287.18L136.36,289.8L152.73,295.57L158.18,296.79L196.36,301.49L201.82,301.11L223.64,302.62L229.09,302.44L240,302.58L245.45,302.96L256.36,302.29L261.82,302.45L278.18,302.66L283.64,302.47L289.09,302.89L294.55,302.21L310.91,302.39L316.36,301.6L321.82,301.99L327.27,303.28L332.73,301.67L338.18,301.65L343.64,302.05L349.09,301.2L365.45,301.97L370.91,302.05L376.36,300.65L381.82,300.9L387.27,300.9L392.73,301.73L403.64,300.1L409.09,300.15L414.55,301.63L420,300.32L425.45,299.98L430.91,300.91L436.36,299.79L441.82,299.56L447.27,299.77L452.73,299.12L463.64,300.22L469.09,300.3L480,298.53L485.45,299.13L496.36,299.29L501.82,297.72L507.27,299.26L512.73,299.66L518.18,298.49L523.64,298.35L529.09,297.82L534.55,298.24L540,297.4" style="vector-effect: non-scaling-stroke; fill: none; stroke: rgb(0, 191, 125); stroke-opacity: 1; stroke-width: 2px; opacity: 1;"/></g><g class="points"/><g class="text"/></g><g class="trace scatter trace81dc3a" style="stroke-miterlimit: 2; opacity: 1;"><g class="fills"/><g class="errorbars"/><g class="lines"><path class="js-line" d="M0,16.07L5.45,20.83L10.91,26.84L16.36,33.35L21.82,41.9L27.27,52.26L32.73,65.25L43.64,97.47L49.09,116.15L65.45,172.5L70.91,190.16L81.82,221L87.27,233.78L92.73,245.87L98.18,255.77L103.64,264.42L109.09,271.29L120,281.9L125.45,286.04L130.91,289.48L136.36,291.08L141.82,293.6L147.27,295.12L163.64,298.87L169.09,298.79L190.91,301.42L196.36,300.97L207.27,302.26L212.73,301.79L218.18,302.66L223.64,301.93L229.09,302.45L234.55,301.78L240,303.42L245.45,303.27L256.36,302.29L261.82,302.41L272.73,302.18L278.18,302.62L289.09,302.35L294.55,302.77L316.36,302.72L321.82,302.07L338.18,301.22L343.64,301.75L349.09,302.58L354.55,301.32L360,301.57L365.45,300.89L376.36,301.4L381.82,300.49L398.18,300.75L403.64,300.49L458.18,299.88L463.64,298.27L469.09,299.6L474.55,299.68L480,298.12L485.45,298.82L490.91,299.26L496.36,298.6L501.82,298.84L507.27,298.28L518.18,298.3L523.64,297.13L529.09,296.28L534.55,298.36L540,297.41" style="vector-effect: non-scaling-stroke; fill: none; stroke: rgb(0, 176, 246); stroke-opacity: 1; stroke-width: 2px; opacity: 1;"/></g><g class="points"/><g class="text"/></g><g class="trace scatter tracedc31d4" style="stroke-miterlimit: 2; opacity: 1;"><g class="fills"/><g class="errorbars"/><g class="lines"><path class="js-line" d="M0,16.24L5.45,20.73L10.91,26.55L16.36,33.03L21.82,41.22L27.27,51.74L32.73,64.62L43.64,96.73L49.09,114.99L65.45,171.34L70.91,188.94L81.82,220.11L87.27,233.32L98.18,255.28L103.64,263.55L109.09,270.5L114.55,276.24L120,281.42L125.45,285.28L136.36,291.31L141.82,293.34L152.73,296.24L158.18,297.23L169.09,299.78L174.55,300.17L196.36,301.6L201.82,301.64L207.27,302.18L212.73,301.85L223.64,302.78L229.09,302.62L240,303L245.45,302.55L256.36,303.49L261.82,302.94L278.18,302.62L283.64,303.11L294.55,302.42L300,302.92L310.91,302.33L316.36,302.93L332.73,302.82L338.18,302.12L349.09,302.05L354.55,302.96L360,301.58L365.45,301.8L370.91,302.34L376.36,301.56L381.82,300.65L387.27,301.9L392.73,301.15L398.18,301.22L409.09,301.26L414.55,300.33L425.45,300.02L430.91,300.66L436.36,301.2L441.82,299.77L447.27,301.11L452.73,300.73L463.64,299.86L469.09,299.48L474.55,299.98L480,299.56L485.45,300.27L490.91,298.26L501.82,299.39L507.27,298.78L512.73,297.95L518.18,298.87L534.55,298.27L540,297.12" style="vector-effect: non-scaling-stroke; fill: none; stroke: rgb(231, 107, 243); stroke-opacity: 1; stroke-width: 2px; opacity: 1;"/></g><g class="points"/><g class="text"/></g><g class="trace scatter trace9b477b" style="stroke-miterlimit: 2; opacity: 1;"><g class="fills"/><g class="errorbars"/><g class="lines"><path class="js-line" d="M0,16.2L5.45,20.4L10.91,25.93L21.82,40.58L27.27,51L32.73,63.47L38.18,78.51L49.09,113.73L54.55,132.19L70.91,187.5L76.36,204.03L87.27,232.55L92.73,244.29L98.18,254.6L103.64,262.84L109.09,270.38L114.55,276.15L125.45,285.5L130.91,288.07L136.36,291.23L141.82,292.71L147.27,295.14L152.73,296.13L169.09,299.16L174.55,300.14L180,300.1L185.45,300.9L196.36,301.52L201.82,301.73L212.73,302.27L218.18,301.79L223.64,302.52L229.09,302.48L245.45,302.38L250.91,302.56L261.82,302.78L267.27,303.36L278.18,302L283.64,302.98L294.55,302.87L300,301.6L305.45,303L310.91,301.79L321.82,301.91L327.27,301.54L332.73,303.08L338.18,301.58L349.09,302.07L354.55,301.56L365.45,301.75L370.91,301.07L381.82,301L387.27,301.09L398.18,301.44L403.64,300.28L414.55,301.1L420,300.92L458.18,299.75L463.64,300.74L469.09,298.59L474.55,299.17L480,298.6L485.45,299.05L496.36,298.44L501.82,299.06L507.27,298.04L512.73,298.3L518.18,299.32L523.64,298.24L529.09,297.74L534.55,298.16L540,298.19" style="vector-effect: non-scaling-stroke; fill: none; stroke: rgb(248, 118, 109); stroke-opacity: 1; stroke-width: 2px; opacity: 1;"/></g><g class="points"/><g class="text"/></g><g class="trace scatter tracecdcdbd" style="stroke-miterlimit: 2; opacity: 1;"><g class="fills"/><g class="errorbars"/><g class="lines"><path class="js-line" d="M0,16.19L5.45,20.63L10.91,26.12L16.36,32.7L21.82,40.94L27.27,51.82L32.73,64.78L38.18,79.82L43.64,97.13L70.91,187.86L76.36,203.55L87.27,231.83L92.73,243.14L103.64,262.05L109.09,268.86L120,279.68L125.45,283.77L136.36,290.4L141.82,292.62L152.73,296.02L158.18,296.64L174.55,299.64L180,299.95L196.36,301L201.82,300.91L207.27,300.78L212.73,301.64L218.18,301.2L223.64,302.15L234.55,301.87L240,301.83L245.45,302.5L250.91,301.77L256.36,302.63L261.82,301.74L267.27,301.28L272.73,302.02L289.09,302.01L294.55,301.93L300,302.66L305.45,301.57L310.91,302.31L316.36,301.49L321.82,302.25L327.27,301.58L338.18,301.38L343.64,301.45L365.45,301.35L370.91,301.47L381.82,300.56L387.27,299.24L398.18,300.76L403.64,300.81L409.09,299.71L414.55,299.91L420,300.36L425.45,299.63L447.27,299.3L452.73,298.28L458.18,299.06L463.64,298.29L469.09,299L474.55,298.61L485.45,298.12L490.91,299.31L496.36,298L501.82,297.61L507.27,297.94L512.73,297.49L523.64,297.25L529.09,295.93L534.55,297.83L540,296.03" style="vector-effect: non-scaling-stroke; fill: none; stroke: rgb(163, 165, 0); stroke-opacity: 1; stroke-width: 2px; opacity: 1;"/></g><g class="points"/><g class="text"/></g><g class="trace scatter trace2eed4f" style="stroke-miterlimit: 2; opacity: 1;"><g class="fills"/><g class="errorbars"/><g class="lines"><path class="js-line" d="M0,16.25L5.45,20.48L10.91,25.97L16.36,32.44L21.82,40.8L27.27,51.26L32.73,63.81L43.64,95.9L49.09,114.37L70.91,187.99L76.36,204.21L87.27,232.46L92.73,243.56L98.18,254.06L103.64,262.43L114.55,276.1L120,280.16L125.45,284.7L130.91,287.91L136.36,290.81L141.82,292.36L158.18,297L163.64,298.17L185.45,300.78L190.91,300.44L196.36,301.42L201.82,301.4L212.73,301.89L218.18,302.58L229.09,301.57L234.55,302.73L240,302.16L245.45,303.16L250.91,302.13L256.36,301.87L267.27,303.2L272.73,302.74L283.64,302.36L289.09,302.16L300,302.81L305.45,302L343.64,301.69L349.09,302.18L365.45,300.94L370.91,301.81L376.36,300.88L381.82,300.95L403.64,300.88L409.09,300.3L452.73,300.2L458.18,299.12L463.64,299.46L469.09,299.03L474.55,299.76L480,298.72L490.91,298.47L496.36,299.32L501.82,297.71L507.27,298.46L523.64,298.3L529.09,296.9L534.55,297.88L540,297.36" style="vector-effect: non-scaling-stroke; fill: none; stroke: rgb(0, 191, 125); stroke-opacity: 1; stroke-width: 2px; opacity: 1;"/></g><g class="points"/><g class="text"/></g><g class="trace scatter trace7a5f5e" style="stroke-miterlimit: 2; opacity: 1;"><g class="fills"/><g class="errorbars"/><g class="lines"><path class="js-line" d="M0,16.07L10.91,26.41L16.36,32.88L21.82,41.13L27.27,51.57L32.73,63.99L38.18,79.48L49.09,114.2L54.55,132.8L65.45,170.22L70.91,187.56L81.82,219.07L87.27,232.57L98.18,254.35L103.64,262.93L109.09,270.12L114.55,276.08L125.45,285.32L130.91,288.39L141.82,293.63L147.27,295.03L169.09,299.19L174.55,299.8L185.45,300.42L190.91,301.14L207.27,301.97L212.73,302.3L218.18,301.9L223.64,302.29L250.91,302.87L256.36,302.1L294.55,302.78L300,302.73L338.18,301.79L343.64,302.57L354.55,301.64L360,300.82L365.45,301.27L370.91,300.67L376.36,301.65L381.82,301.33L403.64,300.18L409.09,300.73L414.55,301.01L420,300.35L425.45,299.76L430.91,300.37L447.27,299.56L452.73,300.29L458.18,299.23L463.64,301.4L469.09,298.44L474.55,299.51L480,299.23L485.45,299.72L507.27,297.72L512.73,298.4L518.18,297.71L523.64,297.95L534.55,297.6L540,298.18" style="vector-effect: non-scaling-stroke; fill: none; stroke: rgb(0, 176, 246); stroke-opacity: 1; stroke-width: 2px; opacity: 1;"/></g><g class="points"/><g class="text"/></g><g class="trace scatter tracef12d7d" style="stroke-miterlimit: 2; opacity: 1;"><g class="fills"/><g class="errorbars"/><g class="lines"><path class="js-line" d="M0,16.13L10.91,26.01L16.36,32.11L21.82,40.26L27.27,50.36L32.73,62.71L38.18,77.71L49.09,112.34L54.55,131.71L70.91,186.87L76.36,203.52L87.27,232.37L92.73,244.39L98.18,255.01L103.64,263.52L114.55,276.65L120,281.38L125.45,285.56L130.91,288.78L136.36,290.89L141.82,293.83L158.18,297.72L163.64,298.06L180,300.63L185.45,300.15L196.36,301.69L201.82,301.45L207.27,301.35L212.73,302.17L240,302.15L245.45,302.61L250.91,302.03L256.36,303L261.82,302.18L267.27,302.56L278.18,302L283.64,302.83L294.55,302.5L300,302.33L310.91,302.32L316.36,301.23L321.82,302.26L327.27,302.31L332.73,302.5L338.18,301.69L365.45,301.16L370.91,300.78L376.36,301.08L381.82,300.56L398.18,300.2L403.64,301.15L409.09,299.97L414.55,300.8L420,299.48L425.45,299.43L447.27,299.39L452.73,297.92L458.18,299.22L463.64,299.16L469.09,299.74L474.55,298.99L490.91,298.37L496.36,297.4L501.82,298.1L507.27,297.99L512.73,298.7L518.18,297.42L523.64,297.89L529.09,297.49L534.55,296.53L540,298.1" style="vector-effect: non-scaling-stroke; fill: none; stroke: rgb(231, 107, 243); stroke-opacity: 1; stroke-width: 2px; opacity: 1;"/></g><g class="points"/><g class="text"/></g><g class="trace scatter tracea0120f" style="stroke-miterlimit: 2; opacity: 1;"><g class="fills"/><g class="errorbars"/><g class="lines"><path class="js-line" d="M0,16.2L10.91,25.8L16.36,32.6L21.82,41.06L27.27,51.48L32.73,64.26L38.18,79.41L49.09,114.67L54.55,133.5L70.91,188.18L76.36,204.18L87.27,232.67L92.73,244.39L103.64,262.75L109.09,269.6L114.55,275.93L120,280.41L130.91,287.87L136.36,290.46L152.73,296.34L158.18,297.1L174.55,299.67L180,300.54L185.45,301.21L190.91,300.48L201.82,301.95L207.27,301.62L218.18,301.95L223.64,301.78L229.09,302.27L234.55,301.89L240,302.69L245.45,302.04L250.91,302.23L256.36,303.33L261.82,302.22L267.27,302.8L278.18,302.09L283.64,302.61L289.09,302.53L294.55,301.35L300,302.44L305.45,302.43L321.82,301.99L327.27,301.66L338.18,301.6L343.64,302.35L349.09,301.56L354.55,302.06L365.45,301.36L370.91,301.69L381.82,300.29L387.27,300.91L398.18,301.34L403.64,300.28L414.55,301.2L420,300.54L425.45,300.72L430.91,299.89L436.36,299.55L441.82,300.15L447.27,299.29L452.73,299.21L458.18,300.36L463.64,299.7L474.55,298.69L480,299.95L485.45,298.43L490.91,299.2L501.82,298.23L507.27,298.79L523.64,297.7L529.09,298.23L540,298.39" style="vector-effect: non-scaling-stroke; fill: none; stroke: rgb(248, 118, 109); stroke-opacity: 1; stroke-width: 2px; opacity: 1;"/></g><g class="points"/><g class="text"/></g><g class="trace scatter tracebca7d6" style="stroke-miterlimit: 2; opacity: 1;"><g class="fills"/><g class="errorbars"/><g class="lines"><path class="js-line" d="M0,16.2L5.45,20.69L10.91,26.3L16.36,32.37L21.82,40.46L27.27,50.84L32.73,63.45L43.64,94.9L49.09,113.46L70.91,188.19L76.36,204.56L87.27,232.91L92.73,245.07L98.18,255.4L103.64,263.95L114.55,277.04L120,281.74L125.45,285.89L130.91,288.95L141.82,293.79L147.27,294.64L152.73,296.98L158.18,298.23L185.45,301.13L190.91,300.86L207.27,301.75L212.73,301.85L218.18,302.49L223.64,302.03L229.09,302.62L234.55,302.26L240,302.59L245.45,302.08L261.82,302.66L267.27,303.32L278.18,302.03L283.64,302.62L289.09,301.67L294.55,301.6L300,302.5L305.45,302.49L321.82,301.88L327.27,302.1L332.73,302.3L338.18,301.05L343.64,302.16L349.09,301.84L354.55,301.77L360,300.95L365.45,301.59L370.91,300.83L381.82,301.3L387.27,300.75L392.73,300.02L398.18,300.86L414.55,299.95L420,300.04L425.45,300.97L430.91,300.3L447.27,298.89L452.73,299.5L463.64,299.51L469.09,298.33L474.55,299.47L480,298.59L485.45,299.76L490.91,298.78L501.82,298.56L507.27,297.9L512.73,298.03L518.18,297.38L529.09,297.65L534.55,297.32L540,297.04" style="vector-effect: non-scaling-stroke; fill: none; stroke: rgb(163, 165, 0); stroke-opacity: 1; stroke-width: 2px; opacity: 1;"/></g><g class="points"/><g class="text"/></g><g class="trace scatter trace7c5151" style="stroke-miterlimit: 2; opacity: 1;"><g class="fills"/><g class="errorbars"/><g class="lines"><path class="js-line" d="M0,16.27L5.45,20.61L10.91,26.47L16.36,32.85L21.82,41.08L27.27,51.76L32.73,64.72L43.64,97.13L49.09,115.55L70.91,189.23L76.36,205.38L87.27,233.42L92.73,244.8L103.64,262.97L109.09,269.89L120,280.86L125.45,285.03L136.36,290.83L141.82,292.93L158.18,297.12L163.64,297.99L174.55,299.97L180,299.82L190.91,301.26L196.36,300.55L207.27,302.02L212.73,301.9L218.18,302.59L223.64,302.03L229.09,302.68L234.55,302.17L240,302.7L245.45,302.35L267.27,302.7L272.73,301.76L283.64,303.01L289.09,302L294.55,301.99L300,301.15L305.45,302.39L310.91,302.41L316.36,301.54L321.82,301.47L327.27,302.22L332.73,301.92L338.18,301.17L343.64,301.92L360,302.07L365.45,300.82L370.91,300.92L376.36,301.93L387.27,300.39L392.73,300.66L403.64,300.05L409.09,299.8L420,301.21L425.45,301.12L430.91,300.13L436.36,300.11L441.82,299.7L447.27,300.08L452.73,298.86L458.18,300.45L463.64,299.39L469.09,299.61L474.55,298.76L480,298.7L496.36,298.84L501.82,297.83L507.27,298.43L512.73,297.29L529.09,298.57L534.55,297.44L540,296.75" style="vector-effect: non-scaling-stroke; fill: none; stroke: rgb(0, 191, 125); stroke-opacity: 1; stroke-width: 2px; opacity: 1;"/></g><g class="points"/><g class="text"/></g><g class="trace scatter tracec0fd16" style="stroke-miterlimit: 2; opacity: 1;"><g class="fills"/><g class="errorbars"/><g class="lines"><path class="js-line" d="M0,16.13L5.45,20.56L10.91,26.03L16.36,32.64L21.82,40.58L27.27,50.85L32.73,63.16L43.64,95.04L49.09,112.79L70.91,187.61L76.36,205.01L87.27,233.26L92.73,245.67L98.18,256.5L103.64,265.15L114.55,278.18L120,282.62L125.45,286.84L130.91,290L141.82,294.16L147.27,296.07L169.09,299.78L174.55,300.34L185.45,300.93L190.91,301.79L212.73,302.46L218.18,302.03L223.64,303.15L229.09,302.58L245.45,302.8L250.91,303.15L267.27,302.47L272.73,303.09L278.18,302.66L283.64,303.01L289.09,302.24L294.55,302.5L321.82,302.44L327.27,301.95L332.73,302.76L338.18,302.12L354.55,302.22L360,301.07L365.45,302.19L370.91,301.99L387.27,301.68L392.73,300.25L398.18,300.96L403.64,300.67L458.18,299.97L463.64,299.29L469.09,299.4L474.55,300.75L480,299.28L485.45,299.22L507.27,298.89L512.73,298.22L518.18,298.92L523.64,298.12L534.55,297.55L540,297.65" style="vector-effect: non-scaling-stroke; fill: none; stroke: rgb(0, 176, 246); stroke-opacity: 1; stroke-width: 2px; opacity: 1;"/></g><g class="points"/><g class="text"/></g><g class="trace scatter tracea42e71" style="stroke-miterlimit: 2; opacity: 1;"><g class="fills"/><g class="errorbars"/><g class="lines"><path class="js-line" d="M0,16.28L5.45,20.77L10.91,26.58L16.36,33L21.82,41.49L27.27,51.7L32.73,64.74L38.18,79.66L43.64,97.01L76.36,205.01L81.82,219.58L92.73,244.42L98.18,254.76L109.09,270.46L114.55,276.44L125.45,284.96L130.91,288.21L141.82,293.05L147.27,295.22L152.73,295.91L158.18,297.42L174.55,299.93L180,299.94L207.27,301.89L212.73,301.67L218.18,302.74L223.64,301.94L234.55,302.66L240,301.89L245.45,302.79L250.91,302.28L256.36,302.67L261.82,302.15L267.27,302.93L272.73,302.65L283.64,303.33L289.09,303.06L300,301.88L305.45,302.55L316.36,302.95L321.82,302.58L327.27,301.73L332.73,301.71L338.18,302.07L343.64,301.53L349.09,302.65L354.55,301.69L360,301.47L365.45,302.18L381.82,301.3L387.27,301.76L398.18,300.6L403.64,300.66L441.82,300.7L447.27,300.2L458.18,299.81L463.64,300.15L469.09,298.48L474.55,299.26L485.45,299.25L490.91,298.29L496.36,299.23L501.82,298.34L507.27,298.12L512.73,298.87L529.09,298.22L534.55,297.44L540,299.82" style="vector-effect: non-scaling-stroke; fill: none; stroke: rgb(231, 107, 243); stroke-opacity: 1; stroke-width: 2px; opacity: 1;"/></g><g class="points"/><g class="text"/></g><g class="trace scatter tracee1bf36" style="stroke-miterlimit: 2; opacity: 1;"><g class="fills"/><g class="errorbars"/><g class="lines"><path class="js-line" d="M0,16.06L5.45,20.5L10.91,26.09L16.36,32.97L21.82,41.6L27.27,52.15L32.73,65L43.64,96.97L49.09,114.97L65.45,170.9L70.91,188.28L81.82,219.21L87.27,231.91L92.73,243.97L98.18,254.03L103.64,262.3L109.09,269.17L120,279.97L125.45,284.46L136.36,290.15L141.82,292.47L158.18,296.84L163.64,298.1L169.09,298.83L174.55,298.38L180,299.91L185.45,300.32L207.27,301.37L212.73,301.2L229.09,302.11L234.55,301.37L240,301.83L245.45,301.2L256.36,302.22L261.82,301.38L272.73,301.71L278.18,302.08L289.09,301.55L294.55,302.48L310.91,301.46L316.36,301.82L360,300.68L365.45,300.87L370.91,300.36L376.36,300.7L381.82,300.43L387.27,301.28L392.73,299.96L398.18,300.13L403.64,300.12L409.09,301.13L430.91,299.5L436.36,299.81L441.82,300.09L447.27,299.51L452.73,298.24L458.18,299.09L463.64,299.59L469.09,298.38L474.55,297.87L480,298.17L485.45,297.69L490.91,298.57L507.27,297.17L512.73,297.71L518.18,298.3L523.64,298.09L529.09,297.94L534.55,296.34L540,297.69" style="vector-effect: non-scaling-stroke; fill: none; stroke: rgb(248, 118, 109); stroke-opacity: 1; stroke-width: 2px; opacity: 1;"/></g><g class="points"/><g class="text"/></g><g class="trace scatter tracefee094" style="stroke-miterlimit: 2; opacity: 1;"><g class="fills"/><g class="errorbars"/><g class="lines"><path class="js-line" d="M0,16.11L5.45,20.76L10.91,26.75L16.36,33.12L21.82,41.31L27.27,51.41L32.73,63.9L43.64,95.44L49.09,113.84L76.36,204.98L81.82,220.27L92.73,245.58L98.18,255.94L103.64,264.5L109.09,271.59L114.55,277.63L120,282.53L130.91,289.62L136.36,291.94L147.27,296.01L152.73,296.77L158.18,298.82L163.64,298.98L174.55,300.56L180,300.6L201.82,302.44L207.27,302.59L212.73,302.09L218.18,302.72L267.27,303.13L272.73,303.5L278.18,302.38L283.64,303.26L294.55,302.56L300,303.01L305.45,303.2L310.91,302.35L321.82,302.77L327.27,302.09L332.73,302.81L338.18,302.62L349.09,302.52L354.55,301.64L370.91,302.46L376.36,301.19L387.27,301.95L392.73,300.73L398.18,301.33L403.64,301.12L409.09,300.2L414.55,301.47L420,300.91L425.45,301.4L430.91,300.1L436.36,301.91L441.82,300.5L447.27,300.46L452.73,299.56L458.18,300.53L463.64,299.83L469.09,300.11L480,299.6L485.45,299.13L490.91,299.43L496.36,298.67L501.82,299.3L507.27,298.87L512.73,298.32L518.18,298.66L523.64,299.42L529.09,299L540,297.41" style="vector-effect: non-scaling-stroke; fill: none; stroke: rgb(163, 165, 0); stroke-opacity: 1; stroke-width: 2px; opacity: 1;"/></g><g class="points"/><g class="text"/></g><g class="trace scatter trace306eeb" style="stroke-miterlimit: 2; opacity: 1;"><g class="fills"/><g class="errorbars"/><g class="lines"><path class="js-line" d="M0,16.15L5.45,20.52L10.91,25.9L16.36,32.54L21.82,40.42L27.27,50.84L32.73,63.63L43.64,95.11L49.09,113.83L70.91,187.52L76.36,203.74L87.27,232.08L92.73,243.42L98.18,254.19L103.64,262.63L114.55,275.91L120,280.65L125.45,284.92L130.91,287.77L141.82,292.94L147.27,294.18L152.73,296.21L158.18,297.07L185.45,301.21L190.91,301.64L201.82,301.8L207.27,301.54L234.55,302.5L240,302.27L245.45,301.8L250.91,302.46L256.36,302.95L261.82,302.6L267.27,301.98L272.73,302.61L278.18,301.85L283.64,303.06L294.55,302.76L300,301.7L305.45,303.21L310.91,302.85L316.36,302.14L321.82,302.26L338.18,302.07L343.64,301.55L360,301.26L365.45,301.94L370.91,301.05L376.36,301.44L403.64,300.52L409.09,300.9L425.45,299.38L430.91,299.94L441.82,300.1L447.27,299.55L458.18,299.3L463.64,298.56L469.09,300.09L474.55,299.45L480,300.08L485.45,298.9L490.91,298.86L496.36,297.63L507.27,297.93L512.73,297.28L518.18,297.88L523.64,297.18L540,297.39" style="vector-effect: non-scaling-stroke; fill: none; stroke: rgb(0, 191, 125); stroke-opacity: 1; stroke-width: 2px; opacity: 1;"/></g><g class="points"/><g class="text"/></g><g class="trace scatter trace2d7cd0" style="stroke-miterlimit: 2; opacity: 1;"><g class="fills"/><g class="errorbars"/><g class="lines"><path class="js-line" d="M0,16.18L5.45,20.68L10.91,26.43L16.36,33.1L21.82,41.45L27.27,51.83L32.73,64.51L43.64,96.92L49.09,114.95L70.91,188.31L76.36,204.03L87.27,232.37L92.73,244.23L103.64,262.04L109.09,269.91L120,281.2L125.45,285.21L130.91,287.53L136.36,291.19L147.27,294.73L152.73,296.12L163.64,298.34L169.09,298.75L180,300.52L185.45,300.46L196.36,301.57L201.82,301.51L223.64,302.84L229.09,303.22L234.55,302.32L240,302.71L256.36,302.21L261.82,302.23L272.73,303.13L278.18,302.41L283.64,301.99L289.09,303.19L300,302.23L305.45,302.52L332.73,301.87L338.18,302.18L349.09,301.97L354.55,301.91L360,300.84L365.45,302.43L370.91,301.23L376.36,301.5L387.27,300.93L392.73,301.63L398.18,300.7L403.64,300.86L420,300.13L425.45,300.82L436.36,299.57L441.82,300.31L447.27,299.21L452.73,299.71L458.18,300.28L463.64,299.55L480,297.83L485.45,299.38L507.27,298.38L512.73,299.25L523.64,297.92L529.09,297.8L534.55,296.93L540,297.64" style="vector-effect: non-scaling-stroke; fill: none; stroke: rgb(0, 176, 246); stroke-opacity: 1; stroke-width: 2px; opacity: 1;"/></g><g class="points"/><g class="text"/></g><g class="trace scatter trace97f417" style="stroke-miterlimit: 2; opacity: 1;"><g class="fills"/><g class="errorbars"/><g class="lines"><path class="js-line" d="M0,16.05L10.91,25.48L16.36,31.84L21.82,40L27.27,50.1L32.73,62.93L38.18,77.71L49.09,112.64L54.55,131.92L70.91,187.51L76.36,203.66L87.27,232.85L92.73,244.4L98.18,254.97L103.64,263.26L109.09,270.69L114.55,276.71L120,281.69L125.45,285.58L136.36,290.81L141.82,293.33L158.18,297.46L163.64,298.46L180,300.61L185.45,300.53L190.91,301.43L196.36,301.47L201.82,302.13L207.27,301.71L223.64,302.05L229.09,301.91L234.55,302.85L240,303L245.45,302.33L250.91,302.62L272.73,302.81L278.18,301.83L289.09,301.66L294.55,302.81L305.45,301.59L310.91,302.85L321.82,301.76L327.27,302.59L338.18,301.79L343.64,302.08L381.82,301.27L387.27,301.47L392.73,300.54L398.18,301.45L403.64,299.92L409.09,300.23L430.91,299.79L436.36,300.82L452.73,299.29L458.18,299.05L463.64,298.6L469.09,299.48L480,298.32L485.45,298.61L512.73,299.03L518.18,297.75L529.09,298.18L534.55,298.31L540,297.82" style="vector-effect: non-scaling-stroke; fill: none; stroke: rgb(231, 107, 243); stroke-opacity: 1; stroke-width: 2px; opacity: 1;"/></g><g class="points"/><g class="text"/></g><g class="trace scatter tracefffe77" style="stroke-miterlimit: 2; opacity: 1;"><g class="fills"/><g class="errorbars"/><g class="lines"><path class="js-line" d="M0,16.14L10.91,26.33L16.36,33.06L21.82,41.32L27.27,51.74L32.73,64.79L38.18,80.36L49.09,115.85L54.55,135.22L70.91,190.38L76.36,207.28L87.27,235.4L92.73,246.83L103.64,265.05L109.09,272.13L114.55,277.87L120,282.5L130.91,289.46L136.36,291.7L141.82,294.1L147.27,295.66L152.73,297.31L158.18,298.06L185.45,300.83L190.91,301.06L196.36,301.77L201.82,301.61L261.82,302.65L267.27,301.87L272.73,302.73L278.18,302.21L283.64,303L289.09,301.63L294.55,301.6L300,302.73L305.45,301.81L310.91,301.91L316.36,302.34L321.82,301.92L343.64,301.7L349.09,301.71L354.55,300.53L360,301.33L370.91,300.98L376.36,301.37L387.27,300.75L392.73,301.32L403.64,300.76L409.09,301.41L414.55,300.56L420,300.75L425.45,299.97L430.91,300.55L447.27,301.05L452.73,299.98L463.64,298.58L469.09,298.77L480,299.88L485.45,298.68L496.36,298.69L501.82,298.48L529.09,297.33L534.55,298.16L540,297.1" style="vector-effect: non-scaling-stroke; fill: none; stroke: rgb(248, 118, 109); stroke-opacity: 1; stroke-width: 2px; opacity: 1;"/></g><g class="points"/><g class="text"/></g><g class="trace scatter trace90629d" style="stroke-miterlimit: 2; opacity: 1;"><g class="fills"/><g class="errorbars"/><g class="lines"><path class="js-line" d="M0,16.1L10.91,26.85L16.36,33.26L21.82,41.58L27.27,52.33L32.73,65.3L38.18,80.39L49.09,115.76L54.55,134.67L70.91,189.16L76.36,205.63L87.27,232.97L92.73,244.53L103.64,263.14L109.09,270.38L120,281.63L125.45,284.68L130.91,288.66L136.36,290.58L141.82,293.11L147.27,294.5L163.64,297.99L169.09,299.23L174.55,299.1L180,300.53L185.45,299.66L190.91,300.67L196.36,301.27L201.82,300.91L212.73,302.12L218.18,301.41L223.64,301.18L229.09,301.88L240,302.1L245.45,301.77L250.91,302.47L256.36,302.2L267.27,302.48L272.73,301.5L278.18,301.75L283.64,301.03L289.09,301.99L294.55,301.45L305.45,302.25L310.91,301.56L321.82,302.01L327.27,301.45L338.18,300.72L343.64,301.15L349.09,301.8L354.55,299.73L370.91,300.97L376.36,300.59L381.82,300.8L387.27,299.44L392.73,300.45L398.18,298.73L403.64,299.55L409.09,299.23L420,300.32L425.45,299.18L441.82,299.27L447.27,298.47L458.18,297.79L463.64,299.69L469.09,297.83L474.55,298.61L480,298.22L485.45,298.71L490.91,298.71L496.36,297.26L501.82,298.35L507.27,297.75L518.18,297.09L523.64,297.17L529.09,297.31L534.55,296.03L540,296.68" style="vector-effect: non-scaling-stroke; fill: none; stroke: rgb(163, 165, 0); stroke-opacity: 1; stroke-width: 2px; opacity: 1;"/></g><g class="points"/><g class="text"/></g><g class="trace scatter traced1eb68" style="stroke-miterlimit: 2; opacity: 1;"><g class="fills"/><g class="errorbars"/><g class="lines"><path class="js-line" d="M0,16.29L5.45,20.66L10.91,26.26L16.36,32.97L21.82,41.18L27.27,51.78L32.73,64.55L43.64,96.91L49.09,115.33L70.91,188.7L76.36,204.51L87.27,232.45L92.73,243.55L98.18,254.37L103.64,262.5L114.55,275.71L120,280.07L130.91,287.58L136.36,290.27L147.27,293.99L152.73,295.43L169.09,298.86L174.55,299.01L212.73,302.15L218.18,301.42L223.64,302.51L229.09,301.69L250.91,302.52L256.36,301.88L272.73,303.12L278.18,301.76L283.64,302.82L289.09,302.52L305.45,302.11L310.91,301.71L321.82,302.72L327.27,301.5L343.64,302.3L349.09,302.06L360,301.68L365.45,301.74L370.91,302.12L376.36,301.23L381.82,301.63L387.27,301.18L392.73,301.55L398.18,300.3L409.09,301.42L414.55,300.15L436.36,300.46L441.82,300.23L452.73,299.59L458.18,300.22L469.09,299.34L474.55,299.87L480,298.97L485.45,299.6L501.82,298.58L507.27,299.02L512.73,297.68L518.18,297.51L523.64,298.78L529.09,297.92L534.55,297.2L540,298.15" style="vector-effect: non-scaling-stroke; fill: none; stroke: rgb(0, 191, 125); stroke-opacity: 1; stroke-width: 2px; opacity: 1;"/></g><g class="points"/><g class="text"/></g><g class="trace scatter tracea3a622" style="stroke-miterlimit: 2; opacity: 1;"><g class="fills"/><g class="errorbars"/><g class="lines"><path class="js-line" d="M0,16.16L10.91,26.03L16.36,32.74L21.82,41.18L27.27,51.58L38.18,79.49L43.64,96.88L70.91,188.82L76.36,205.02L87.27,233.26L92.73,244.43L103.64,262.81L109.09,270.18L120,280.8L125.45,284.9L141.82,292.59L147.27,294.71L163.64,298.43L169.09,298.74L185.45,300.53L190.91,300.75L201.82,301.51L207.27,301.41L212.73,302.16L218.18,301.8L234.55,302.33L240,301.98L250.91,302.42L256.36,302.77L267.27,301.84L272.73,302.47L283.64,302.48L289.09,301.73L305.45,302.33L310.91,302.24L332.73,301.45L338.18,301.97L360,301.9L365.45,300.98L376.36,301.62L381.82,300.59L387.27,302.34L392.73,301.12L398.18,300.51L403.64,301.18L414.55,300.08L420,300.36L430.91,300.18L436.36,300.05L441.82,300.37L447.27,298.53L452.73,299.53L458.18,298.53L463.64,299.61L469.09,299.57L480,298.61L485.45,298.6L490.91,299.42L496.36,298.27L507.27,298.06L512.73,297.16L518.18,299.45L523.64,298.41L529.09,297.05L534.55,297.22L540,297.82" style="vector-effect: non-scaling-stroke; fill: none; stroke: rgb(0, 176, 246); stroke-opacity: 1; stroke-width: 2px; opacity: 1;"/></g><g class="points"/><g class="text"/></g><g class="trace scatter traceda691a" style="stroke-miterlimit: 2; opacity: 1;"><g class="fills"/><g class="errorbars"/><g class="lines"><path class="js-line" d="M0,16.18L5.45,20.71L10.91,26.66L16.36,32.88L21.82,41.38L27.27,51.79L32.73,64.77L43.64,97.29L49.09,115.53L70.91,189.52L76.36,205.66L87.27,233.58L92.73,244.53L98.18,254.56L103.64,262.96L109.09,270.24L114.55,275.98L125.45,285.38L130.91,288.48L141.82,292.93L147.27,294.31L158.18,297.8L163.64,298.34L185.45,300.73L190.91,300.59L201.82,301.37L207.27,301.67L212.73,301.7L218.18,302.54L229.09,302.3L234.55,302.04L240,302.58L245.45,301.94L256.36,302.74L261.82,302.04L272.73,302.78L278.18,302.63L305.45,302.69L310.91,301.72L316.36,302.45L321.82,302.13L327.27,302.55L332.73,301.64L338.18,302.27L343.64,300.98L349.09,301.71L354.55,301.6L360,301.47L365.45,300.46L370.91,301.74L376.36,300.89L381.82,301.1L387.27,300.31L403.64,300.87L409.09,300.25L414.55,300.18L420,300.89L425.45,299.83L430.91,300.38L436.36,300.52L441.82,299.54L458.18,299.57L463.64,297.82L469.09,300.05L474.55,298.5L490.91,298.4L496.36,298.69L507.27,298.19L512.73,297.33L523.64,298.29L529.09,297.36L540,297.24" style="vector-effect: non-scaling-stroke; fill: none; stroke: rgb(231, 107, 243); stroke-opacity: 1; stroke-width: 2px; opacity: 1;"/></g><g class="points"/><g class="text"/></g><g class="trace scatter trace4f756e" style="stroke-miterlimit: 2; opacity: 1;"><g class="fills"/><g class="errorbars"/><g class="lines"><path class="js-line" d="M0,16.34L5.45,20.7L10.91,26.41L16.36,32.94L21.82,41.5L27.27,52.12L32.73,65.65L38.18,80.68L43.64,98.04L70.91,189.69L76.36,205.93L87.27,233.21L92.73,245.17L103.64,263.5L109.09,270.53L120,281.04L125.45,285L136.36,290.94L141.82,292.67L158.18,297.34L163.64,298.08L180,300.45L185.45,300.35L201.82,301.94L207.27,301.48L212.73,302.57L218.18,301.85L223.64,301.88L229.09,302.96L240,302.18L245.45,302.38L250.91,301.91L256.36,302.84L261.82,303.43L267.27,301.86L278.18,302.4L283.64,301.71L294.55,302.74L300,302.08L310.91,302.11L316.36,301.6L321.82,302.14L327.27,301.88L332.73,302.15L338.18,301.25L349.09,301.71L354.55,300.8L360,300.32L365.45,301.27L370.91,301.27L376.36,299.9L381.82,301.85L387.27,301.2L392.73,300.33L398.18,300.48L409.09,300.2L414.55,299.81L425.45,299.87L430.91,299.81L436.36,300.16L441.82,299.62L452.73,299.4L458.18,299.96L463.64,298.62L469.09,298.63L474.55,299.16L480,298.49L485.45,298.92L490.91,298.11L501.82,298.58L507.27,298.86L518.18,297.41L523.64,298.42L529.09,297.19L534.55,297.17L540,297.57" style="vector-effect: non-scaling-stroke; fill: none; stroke: rgb(248, 118, 109); stroke-opacity: 1; stroke-width: 2px; opacity: 1;"/></g><g class="points"/><g class="text"/></g><g class="trace scatter trace5f8539" style="stroke-miterlimit: 2; opacity: 1;"><g class="fills"/><g class="errorbars"/><g class="lines"><path class="js-line" d="M0,16.16L5.45,20.41L10.91,25.63L16.36,32.32L21.82,40.35L27.27,50.9L32.73,63.76L43.64,95.83L49.09,113.92L70.91,187.99L76.36,204.15L87.27,232.84L92.73,244.42L103.64,263.46L109.09,270.61L114.55,277L120,281.79L130.91,289.22L136.36,291.63L152.73,296.9L158.18,297.92L163.64,298.33L169.09,299.69L185.45,300.88L190.91,300.76L201.82,301.81L207.27,301.76L218.18,302.63L223.64,302.22L245.45,302.43L250.91,303.32L256.36,301.95L261.82,303.04L294.55,302.43L300,302.53L305.45,302.84L310.91,302.36L316.36,302.76L321.82,301.75L332.73,302.4L338.18,301.67L360,301.77L365.45,301.24L370.91,302.05L376.36,301.33L381.82,300.74L387.27,301.1L409.09,301.08L414.55,300.88L420,299.78L425.45,300.42L430.91,299.96L436.36,300.43L441.82,298.74L447.27,300.11L458.18,300.03L463.64,299.03L469.09,298.58L474.55,299.61L480,299.05L485.45,299.34L496.36,298.13L501.82,298.98L507.27,297.91L512.73,298.23L518.18,298.47L523.64,297.5L534.55,298.14L540,297.22" style="vector-effect: non-scaling-stroke; fill: none; stroke: rgb(163, 165, 0); stroke-opacity: 1; stroke-width: 2px; opacity: 1;"/></g><g class="points"/><g class="text"/></g><g class="trace scatter trace7e638a" style="stroke-miterlimit: 2; opacity: 1;"><g class="fills"/><g class="errorbars"/><g class="lines"><path class="js-line" d="M0,16.12L5.45,20.64L10.91,26.5L16.36,32.88L21.82,41.17L27.27,51.74L32.73,64.69L43.64,96.25L49.09,114.47L70.91,187.81L76.36,203.57L87.27,231.67L92.73,243.67L103.64,261.96L109.09,268.78L120,279.85L125.45,284.01L130.91,287.43L136.36,289.8L141.82,291.65L147.27,294.66L169.09,298.5L174.55,299.31L190.91,300.53L196.36,300.57L207.27,301.91L212.73,301.4L223.64,301.54L229.09,301.56L234.55,303L240,302.14L250.91,302.76L256.36,301.95L267.27,302.56L272.73,302.73L278.18,302.09L283.64,302.38L289.09,301.73L294.55,303.02L300,301.43L305.45,302.43L310.91,301.68L316.36,302.76L327.27,301.32L332.73,301.66L338.18,302.4L343.64,301.44L349.09,301.57L354.55,300.85L365.45,301.66L370.91,301.39L381.82,301.18L387.27,301.2L392.73,301.44L398.18,300.64L403.64,300.02L409.09,300.32L420,300.85L425.45,300.27L441.82,300.27L447.27,299.85L452.73,299.41L458.18,300.18L469.09,298.55L474.55,298.96L496.36,298.23L501.82,297.75L507.27,298.05L512.73,299.24L518.18,297.46L523.64,297.66L534.55,297.91L540,298.31" style="vector-effect: non-scaling-stroke; fill: none; stroke: rgb(0, 191, 125); stroke-opacity: 1; stroke-width: 2px; opacity: 1;"/></g><g class="points"/><g class="text"/></g><g class="trace scatter trace6dbc4c" style="stroke-miterlimit: 2; opacity: 1;"><g class="fills"/><g class="errorbars"/><g class="lines"><path class="js-line" d="M0,16L10.91,26.16L16.36,32.8L21.82,41.14L27.27,51.43L32.73,64.32L38.18,79.24L49.09,114.69L54.55,133.75L70.91,189.08L76.36,205.48L87.27,233.93L92.73,245.91L103.64,264.69L109.09,271.42L114.55,277.26L120,281.88L125.45,286.23L130.91,288.87L141.82,293.93L147.27,295.59L169.09,300.15L174.55,300.35L190.91,301.38L196.36,301.98L201.82,302.63L207.27,302.19L218.18,302.67L223.64,303.07L245.45,302.96L250.91,303.33L256.36,302.67L261.82,302.89L267.27,302.77L272.73,304L283.64,302.79L289.09,303.32L294.55,302.77L300,303.14L316.36,302.09L321.82,302.76L332.73,303.28L338.18,302.33L343.64,302.23L349.09,303.07L354.55,302.21L360,302.33L370.91,301.68L376.36,301.92L381.82,301.93L387.27,302.83L398.18,300.79L403.64,300.94L409.09,301.78L414.55,301.57L430.91,301.3L436.36,300.37L447.27,300.16L452.73,300.47L463.64,299.83L469.09,299.88L480,300.17L485.45,299.7L490.91,298.93L496.36,300.17L501.82,297.74L507.27,299L512.73,299.77L518.18,298.45L529.09,298.93L534.55,298.05L540,297.76" style="vector-effect: non-scaling-stroke; fill: none; stroke: rgb(0, 176, 246); stroke-opacity: 1; stroke-width: 2px; opacity: 1;"/></g><g class="points"/><g class="text"/></g><g class="trace scatter tracef30d18" style="stroke-miterlimit: 2; opacity: 1;"><g class="fills"/><g class="errorbars"/><g class="lines"><path class="js-line" d="M0,16.18L10.91,26.12L16.36,32.69L21.82,41.18L27.27,51.57L32.73,64.2L38.18,79.06L49.09,114.38L54.55,132.96L65.45,170.35L70.91,187.88L81.82,219.49L87.27,232.55L98.18,254.28L103.64,262.75L114.55,275.52L120,280.11L125.45,284.61L130.91,287.98L141.82,292.21L147.27,294.38L158.18,296.66L163.64,297.29L180,299.95L185.45,299.83L190.91,301.13L196.36,300.84L212.73,301.53L218.18,302.25L223.64,301.45L229.09,302.85L234.55,301.98L240,302.52L250.91,302.37L256.36,301.95L267.27,302.55L272.73,302.06L278.18,302.41L283.64,302L327.27,302.39L332.73,301.58L338.18,302.19L343.64,301.39L349.09,301.62L354.55,301.09L365.45,300.44L370.91,301.23L376.36,300.54L381.82,301.33L387.27,300.66L392.73,301.24L414.55,299.69L420,300.68L430.91,300.1L436.36,298.75L447.27,299.92L452.73,298.46L458.18,298.49L463.64,299.49L474.55,297.92L480,299.41L490.91,298.29L496.36,298.26L501.82,299.69L507.27,298.59L512.73,298.49L518.18,297.22L523.64,297.93L529.09,297.88L534.55,297.96L540,296.68" style="vector-effect: non-scaling-stroke; fill: none; stroke: rgb(231, 107, 243); stroke-opacity: 1; stroke-width: 2px; opacity: 1;"/></g><g class="points"/><g class="text"/></g><g class="trace scatter trace2014f8" style="stroke-miterlimit: 2; opacity: 1;"><g class="fills"/><g class="errorbars"/><g class="lines"><path class="js-line" d="M0,16.04L5.45,20.6L10.91,26.16L16.36,32.73L21.82,40.6L27.27,51.14L32.73,64.13L38.18,78.68L43.64,95.67L76.36,203.53L81.82,218.7L92.73,243.31L98.18,253.94L109.09,270.05L114.55,275.52L125.45,284.56L130.91,288.14L136.36,290.09L141.82,292.88L163.64,298.6L169.09,298.45L174.55,299.64L180,300.03L207.27,301.66L212.73,301.4L218.18,302.47L223.64,301.75L229.09,302.54L234.55,301.98L245.45,302.99L250.91,302.25L256.36,302.75L261.82,302.23L267.27,301.98L272.73,302.67L283.64,302.71L289.09,302.5L294.55,302.69L300,302.11L305.45,302.74L310.91,301.65L327.27,302.21L332.73,301.55L338.18,302.13L343.64,301.17L354.55,302.16L360,302.29L370.91,301.57L376.36,302.25L392.73,300.69L398.18,300.52L403.64,301.2L409.09,300.7L436.36,300.11L441.82,299.9L458.18,299.5L463.64,297.99L469.09,299.39L474.55,299.54L480,298.76L485.45,298.86L496.36,299.31L501.82,298.68L507.27,298.47L512.73,299.21L518.18,298.19L523.64,298.1L529.09,299.4L534.55,297.83L540,298.08" style="vector-effect: non-scaling-stroke; fill: none; stroke: rgb(248, 118, 109); stroke-opacity: 1; stroke-width: 2px; opacity: 1;"/></g><g class="points"/><g class="text"/></g><g class="trace scatter tracef16722" style="stroke-miterlimit: 2; opacity: 1;"><g class="fills"/><g class="errorbars"/><g class="lines"><path class="js-line" d="M0,16.17L10.91,26.01L16.36,32.75L21.82,41.07L27.27,51.52L32.73,64.34L38.18,79.42L49.09,115.1L54.55,134.53L70.91,189.24L76.36,205.63L87.27,233.49L92.73,244.62L103.64,263.42L109.09,270.22L120,280.4L125.45,284.77L136.36,290.54L141.82,293.04L163.64,297.96L169.09,299L174.55,299.68L180,299.45L185.45,300.97L190.91,300.71L234.55,301.81L240,301.34L256.36,301.8L261.82,301.87L294.55,302.23L300,302.77L305.45,301.33L310.91,301.95L316.36,301.22L321.82,301.85L332.73,301.16L338.18,301.88L349.09,300.8L354.55,301.38L370.91,301.35L376.36,300.71L381.82,300.34L387.27,301.39L392.73,300.43L398.18,300.54L409.09,300L414.55,301.02L420,299.76L425.45,300.08L436.36,299.14L441.82,299.41L447.27,298.63L452.73,299.5L458.18,298.92L463.64,299.54L469.09,297.6L474.55,298.93L480,298.12L485.45,298.56L490.91,299.6L496.36,297.54L501.82,296.98L507.27,298.3L518.18,297.23L523.64,297.46L529.09,297.84L534.55,297.21L540,298.1" style="vector-effect: non-scaling-stroke; fill: none; stroke: rgb(163, 165, 0); stroke-opacity: 1; stroke-width: 2px; opacity: 1;"/></g><g class="points"/><g class="text"/></g><g class="trace scatter traced4aac1" style="stroke-miterlimit: 2; opacity: 1;"><g class="fills"/><g class="errorbars"/><g class="lines"><path class="js-line" d="M0,16.31L5.45,20.75L10.91,26.25L16.36,32.86L21.82,41.21L27.27,51.79L32.73,64.95L43.64,97.4L49.09,115.97L70.91,189.41L76.36,206.07L87.27,233.83L92.73,244.96L98.18,254.91L103.64,263.25L114.55,276.84L120,280.75L125.45,285.72L130.91,288.21L141.82,293.23L147.27,294.99L163.64,298.38L169.09,299.3L180,299.95L185.45,300.71L190.91,301.34L196.36,300.85L212.73,302.18L218.18,302.53L229.09,302.74L234.55,302.24L240,303.25L245.45,302.75L250.91,302.54L256.36,303.15L261.82,302.32L267.27,303.39L272.73,302.16L278.18,302.41L289.09,302.75L294.55,302.81L300,302.14L305.45,302.57L338.18,302.06L343.64,302.52L354.55,301.61L360,301L376.36,302.09L381.82,301.82L387.27,301.06L392.73,301.57L398.18,300.63L403.64,300.68L420,301.33L425.45,300.33L436.36,300.89L441.82,299.61L447.27,299.53L452.73,300.7L463.64,299.85L469.09,299.09L474.55,299.18L480,298.45L490.91,299.61L496.36,299.1L518.18,298.34L523.64,298.4L529.09,297.73L534.55,298.96L540,297.58" style="vector-effect: non-scaling-stroke; fill: none; stroke: rgb(0, 191, 125); stroke-opacity: 1; stroke-width: 2px; opacity: 1;"/></g><g class="points"/><g class="text"/></g><g class="trace scatter trace2e6799" style="stroke-miterlimit: 2; opacity: 1;"><g class="fills"/><g class="errorbars"/><g class="lines"><path class="js-line" d="M0,16.13L10.91,25.92L16.36,32.82L21.82,40.94L27.27,51.27L32.73,64.03L38.18,79.02L49.09,114.69L54.55,133.52L70.91,188.69L76.36,205.1L87.27,233.68L92.73,245.4L98.18,255.46L103.64,263.77L109.09,271L114.55,276.77L125.45,285.66L130.91,289.1L147.27,295.07L152.73,296.7L158.18,298.3L163.64,298.7L169.09,299.58L174.55,299.51L190.91,301.32L196.36,301.81L240,302.45L245.45,301.92L256.36,302.9L261.82,302.79L267.27,301.96L272.73,302.29L283.64,303.38L289.09,302.39L316.36,301.99L321.82,301.47L332.73,302.63L338.18,301.85L343.64,302.49L349.09,301.56L360,301.49L365.45,301.63L376.36,301.48L381.82,300.89L387.27,300.52L392.73,301.35L414.55,299.87L420,300.36L425.45,299.96L430.91,300.74L436.36,299.44L441.82,299.98L452.73,299.37L458.18,299.38L463.64,300.29L469.09,299.69L507.27,297.79L512.73,298.39L529.09,297.33L534.55,297.02L540,298.28" style="vector-effect: non-scaling-stroke; fill: none; stroke: rgb(0, 176, 246); stroke-opacity: 1; stroke-width: 2px; opacity: 1;"/></g><g class="points"/><g class="text"/></g><g class="trace scatter trace700729" style="stroke-miterlimit: 2; opacity: 1;"><g class="fills"/><g class="errorbars"/><g class="lines"><path class="js-line" d="M0,16.13L5.45,20.64L10.91,26.62L16.36,32.81L21.82,40.86L27.27,51.08L32.73,63.44L43.64,94.87L49.09,112.87L70.91,186.95L76.36,203.89L87.27,231.79L92.73,244.12L103.64,263.22L109.09,270.17L120,281.56L125.45,285.11L136.36,291.02L141.82,293.28L158.18,298.24L163.64,298.43L174.55,300.09L180,300.33L201.82,301.89L207.27,301.73L212.73,302.71L218.18,302.8L229.09,302.49L234.55,302.54L245.45,303.59L250.91,302.69L256.36,302.77L261.82,301.85L267.27,302.86L272.73,303L278.18,301.98L283.64,302.83L289.09,302.5L294.55,303.51L300,302.33L305.45,302.77L321.82,301.64L327.27,302.24L332.73,301.7L338.18,302.09L370.91,301.29L376.36,302.02L381.82,300.96L387.27,301.49L398.18,301.25L403.64,301.43L414.55,300.74L420,300.63L430.91,300.61L436.36,300.84L447.27,300.22L452.73,299.77L463.64,300.25L469.09,299.21L474.55,299.53L480,299L507.27,299.24L512.73,297.66L523.64,298.8L529.09,298.24L540,298.26" style="vector-effect: non-scaling-stroke; fill: none; stroke: rgb(231, 107, 243); stroke-opacity: 1; stroke-width: 2px; opacity: 1;"/></g><g class="points"/><g class="text"/></g><g class="trace scatter trace49e583" style="stroke-miterlimit: 2; opacity: 1;"><g class="fills"/><g class="errorbars"/><g class="lines"><path class="js-line" d="M0,16.13L5.45,20.63L10.91,26.39L16.36,32.4L21.82,40.55L27.27,50.95L32.73,63.47L43.64,95.46L49.09,113.8L76.36,204.44L81.82,219.57L87.27,233.24L92.73,244.67L103.64,263.7L109.09,271.03L120,281.6L125.45,285.64L130.91,289.15L136.36,291.31L147.27,295.05L152.73,296.19L158.18,297.13L163.64,298.96L169.09,298.71L174.55,300.08L190.91,300.55L196.36,301.29L212.73,301.75L218.18,302.11L223.64,302.5L229.09,302.12L234.55,302.23L240,303.21L256.36,302.13L261.82,302.62L272.73,302.13L278.18,301.61L294.55,302.36L300,302.12L310.91,302.36L316.36,301.82L327.27,301.86L332.73,301.08L338.18,302.26L343.64,301.71L349.09,301.86L354.55,300.53L360,300.5L365.45,301.67L376.36,300.3L381.82,300.91L409.09,301L414.55,299.39L420,300.49L425.45,299.72L430.91,300.81L436.36,300.38L452.73,298.54L458.18,299.68L463.64,299.34L469.09,299.93L480,298.07L485.45,299.16L490.91,298.08L496.36,297.99L523.64,298.44L529.09,297.76L540,297.66" style="vector-effect: non-scaling-stroke; fill: none; stroke: rgb(248, 118, 109); stroke-opacity: 1; stroke-width: 2px; opacity: 1;"/></g><g class="points"/><g class="text"/></g><g class="trace scatter trace4bb3d8" style="stroke-miterlimit: 2; opacity: 1;"><g class="fills"/><g class="errorbars"/><g class="lines"><path class="js-line" d="M0,16.07L10.91,25.88L16.36,32.36L21.82,40.55L27.27,51.19L32.73,64.27L38.18,79.51L49.09,115.13L54.55,134.12L70.91,189.28L76.36,205.85L87.27,233.82L92.73,245.92L103.64,264.1L109.09,271.21L120,281.15L125.45,285.12L136.36,290.9L141.82,292.83L152.73,296.5L158.18,296.95L163.64,298.55L169.09,299.03L180,300.06L185.45,300.74L207.27,300.95L212.73,302.41L234.55,302.33L240,302.81L250.91,301.68L256.36,302.61L261.82,302.11L267.27,302.54L278.18,302.18L283.64,302.69L294.55,302.09L300,302.64L305.45,301.82L310.91,302.07L332.73,301.25L338.18,302.67L343.64,302.34L349.09,301.25L354.55,300.94L360,301.93L365.45,301.32L370.91,302.14L392.73,300.38L398.18,300.85L409.09,299.92L414.55,301.13L430.91,299.59L436.36,301.27L441.82,300.01L447.27,299.84L458.18,298.77L463.64,299.92L469.09,299.16L474.55,299.46L485.45,298.24L490.91,298.05L496.36,297.89L501.82,299.08L507.27,299.99L512.73,297.54L518.18,298.97L523.64,297.87L534.55,297.26L540,298.02" style="vector-effect: non-scaling-stroke; fill: none; stroke: rgb(163, 165, 0); stroke-opacity: 1; stroke-width: 2px; opacity: 1;"/></g><g class="points"/><g class="text"/></g><g class="trace scatter trace67c633" style="stroke-miterlimit: 2; opacity: 1;"><g class="fills"/><g class="errorbars"/><g class="lines"><path class="js-line" d="M0,16.26L5.45,20.57L10.91,26.47L16.36,32.82L21.82,41.32L27.27,51.78L32.73,64.34L43.64,96.48L49.09,114.74L70.91,189.09L76.36,205.63L87.27,233.63L92.73,245.3L98.18,255.36L103.64,263.47L114.55,276.47L120,281.55L125.45,285.5L130.91,288.32L141.82,293.34L147.27,294.63L152.73,296.39L158.18,296.84L163.64,298.67L169.09,298.87L196.36,301.34L201.82,301.48L207.27,301.21L212.73,302.14L229.09,302.34L234.55,302.63L245.45,302.84L250.91,302.29L261.82,302.96L267.27,302.97L278.18,301.78L283.64,303.51L300,302.16L305.45,302.59L310.91,302.76L316.36,301.89L321.82,302.58L327.27,301.74L332.73,302.43L338.18,301.39L354.55,302.07L360,301.51L370.91,301.53L376.36,300.68L381.82,301.8L387.27,300.5L392.73,300.85L398.18,299.59L414.55,301.26L420,300.51L425.45,299.87L430.91,301.01L436.36,299.72L441.82,300.07L447.27,300.15L452.73,299.47L458.18,299.27L463.64,300.17L469.09,298.8L474.55,299.68L480,298.87L485.45,299.16L490.91,297.73L496.36,298.61L501.82,298.43L507.27,299.17L512.73,298.11L518.18,297.93L523.64,298.34L529.09,297.73L540,297.33" style="vector-effect: non-scaling-stroke; fill: none; stroke: rgb(0, 191, 125); stroke-opacity: 1; stroke-width: 2px; opacity: 1;"/></g><g class="points"/><g class="text"/></g><g class="trace scatter trace37fe15" style="stroke-miterlimit: 2; opacity: 1;"><g class="fills"/><g class="errorbars"/><g class="lines"><path class="js-line" d="M0,16.13L5.45,20.79L10.91,26.47L16.36,32.77L21.82,40.89L27.27,51.49L32.73,64.07L43.64,96.46L49.09,114.46L65.45,171.57L70.91,189.33L81.82,220.81L87.27,234.07L98.18,255.82L103.64,264.23L109.09,271.26L114.55,277.01L125.45,286.22L130.91,288.69L136.36,292.08L141.82,293.46L158.18,297.81L163.64,298.67L201.82,302.09L207.27,302.25L212.73,301.7L218.18,301.96L229.09,302.33L234.55,302.09L240,303.02L245.45,302.43L256.36,302.57L261.82,302.33L267.27,302.99L272.73,302.68L283.64,302.92L289.09,302.08L316.36,302.5L321.82,302.22L343.64,301.35L349.09,302.01L360,300.74L365.45,301.69L376.36,301.33L381.82,301.21L387.27,300.58L392.73,300.81L398.18,301.64L403.64,300.16L420,300.1L425.45,300.74L441.82,299.71L447.27,299.81L452.73,300.16L458.18,299.55L469.09,298.33L474.55,299.1L490.91,299.51L496.36,297.78L507.27,298.77L512.73,297.99L518.18,298.39L523.64,297.32L534.55,297.53L540,296.62" style="vector-effect: non-scaling-stroke; fill: none; stroke: rgb(0, 176, 246); stroke-opacity: 1; stroke-width: 2px; opacity: 1;"/></g><g class="points"/><g class="text"/></g><g class="trace scatter traceb33c75" style="stroke-miterlimit: 2; opacity: 1;"><g class="fills"/><g class="errorbars"/><g class="lines"><path class="js-line" d="M0,16.22L5.45,20.67L10.91,26.55L16.36,33.25L21.82,41.79L27.27,52.26L32.73,65.44L43.64,97.86L49.09,116.54L70.91,190.62L76.36,206.59L87.27,234.47L92.73,245.98L103.64,263.92L109.09,271.05L114.55,276.87L120,281.2L130.91,288.63L136.36,291.43L152.73,296.64L158.18,297.2L174.55,299.89L180,300.42L223.64,302.79L229.09,302.26L234.55,302.58L240,302.12L250.91,302.81L256.36,302.39L261.82,303.13L267.27,302.44L272.73,302.02L278.18,302.41L300,302.71L305.45,303.04L316.36,301.71L321.82,301.1L327.27,300.91L332.73,302.33L360,301.53L365.45,300.79L370.91,301.53L376.36,301.11L387.27,301.35L392.73,300.69L409.09,300.41L414.55,300.28L420,299.7L425.45,300.45L430.91,300.47L436.36,299.24L447.27,299.46L452.73,299.04L458.18,298.98L463.64,300L469.09,299.06L474.55,299.39L485.45,297.41L490.91,298.36L496.36,299.06L501.82,298.28L512.73,297.63L518.18,297.52L523.64,297.65L529.09,296.76L534.55,296.61L540,297.47" style="vector-effect: non-scaling-stroke; fill: none; stroke: rgb(231, 107, 243); stroke-opacity: 1; stroke-width: 2px; opacity: 1;"/></g><g class="points"/><g class="text"/></g><g class="trace scatter trace7c19e2" style="stroke-miterlimit: 2; opacity: 1;"><g class="fills"/><g class="errorbars"/><g class="lines"><path class="js-line" d="M0,16.14L5.45,20.78L10.91,26.44L16.36,33.1L21.82,41.57L27.27,51.85L32.73,64.71L43.64,96.14L49.09,114.19L65.45,170.47L70.91,187.95L81.82,218.9L87.27,232.22L92.73,243.93L98.18,253.35L103.64,261.98L109.09,268.95L120,280.34L125.45,284.14L136.36,290.18L141.82,292.47L163.64,297.73L169.09,297.93L180,299.84L185.45,300.58L196.36,300.66L201.82,300.54L207.27,301.67L212.73,301.69L223.64,302.39L229.09,301.62L250.91,302.17L256.36,301.79L267.27,302.55L272.73,301.85L278.18,302.96L283.64,301.98L305.45,301.34L310.91,302.43L316.36,301.47L321.82,301.7L332.73,302.11L338.18,301.42L343.64,300.68L349.09,301.4L360,301.57L365.45,300.72L370.91,301.75L376.36,301.37L387.27,300.32L392.73,300.24L398.18,300.82L403.64,300.52L420,299.75L425.45,300.1L436.36,299.04L441.82,299.63L452.73,299.57L458.18,299.06L463.64,298.89L469.09,297.52L480,298.75L485.45,298L490.91,299.08L496.36,298.43L507.27,297.11L512.73,298.84L518.18,297.5L523.64,297.36L529.09,298.37L534.55,297.27L540,297.29" style="vector-effect: non-scaling-stroke; fill: none; stroke: rgb(248, 118, 109); stroke-opacity: 1; stroke-width: 2px; opacity: 1;"/></g><g class="points"/><g class="text"/></g><g class="trace scatter traced3e82e" style="stroke-miterlimit: 2; opacity: 1;"><g class="fills"/><g class="errorbars"/><g class="lines"><path class="js-line" d="M0,16.19L5.45,20.79L10.91,26.56L16.36,33.09L21.82,41.53L27.27,52.28L32.73,64.99L43.64,97.28L49.09,115.71L70.91,188.5L76.36,204.36L87.27,232.23L92.73,243.99L103.64,262.51L109.09,269.13L114.55,275.57L120,280.64L125.45,284.74L130.91,287.7L136.36,291.27L141.82,292.17L147.27,294.58L152.73,295.73L169.09,298.97L174.55,299.51L185.45,300.85L190.91,300.67L201.82,302.06L207.27,301.58L223.64,302.47L229.09,302.02L240,303.46L245.45,302.68L256.36,301.54L261.82,303.06L267.27,302.44L272.73,302.78L283.64,302.39L289.09,302.6L294.55,303.06L300,302.05L305.45,302.57L310.91,301.69L316.36,302.72L321.82,302.39L343.64,302.42L349.09,301.09L354.55,302.65L360,302.39L365.45,301.09L370.91,301.52L387.27,301.13L392.73,300.49L398.18,302.05L403.64,300.87L409.09,300.72L414.55,301.35L425.45,300.07L430.91,301.26L436.36,300.32L441.82,300.89L447.27,299.99L452.73,300.34L463.64,299.44L469.09,299.62L480,299.62L485.45,298.63L507.27,299.4L512.73,298.42L529.09,299.45L534.55,297.81L540,297.98" style="vector-effect: non-scaling-stroke; fill: none; stroke: rgb(163, 165, 0); stroke-opacity: 1; stroke-width: 2px; opacity: 1;"/></g><g class="points"/><g class="text"/></g><g class="trace scatter trace90c8e1" style="stroke-miterlimit: 2; opacity: 1;"><g class="fills"/><g class="errorbars"/><g class="lines"><path class="js-line" d="M0,16.2L10.91,25.87L16.36,32.67L21.82,41.04L27.27,51.74L32.73,64.36L38.18,79.97L49.09,115.3L54.55,134.37L65.45,171.63L70.91,188.91L81.82,220.07L87.27,232.99L98.18,254.53L103.64,263.07L109.09,270.27L114.55,275.69L120,280.8L125.45,284.63L136.36,290.76L141.82,292.7L147.27,294.71L152.73,295.82L158.18,297.38L163.64,297.98L196.36,301.52L201.82,301.08L207.27,301.94L212.73,301.88L223.64,302.29L229.09,301.8L240,302.6L245.45,302.42L256.36,302.19L261.82,303.06L267.27,303.41L272.73,302.62L278.18,302.83L283.64,302.14L294.55,302.6L300,302.58L310.91,302.82L316.36,302.57L327.27,301.62L332.73,302.3L338.18,302.16L343.64,301.11L349.09,302.05L354.55,301.66L360,301.17L365.45,301.69L376.36,302.23L381.82,301.73L392.73,300.25L398.18,300.55L414.55,300.48L420,300.07L436.36,299.19L441.82,300.19L463.64,298.43L469.09,299.37L474.55,298.29L480,299.05L490.91,298.15L496.36,298.97L501.82,297.99L507.27,298.42L523.64,297.86L529.09,296.71L540,297.72" style="vector-effect: non-scaling-stroke; fill: none; stroke: rgb(0, 191, 125); stroke-opacity: 1; stroke-width: 2px; opacity: 1;"/></g><g class="points"/><g class="text"/></g><g class="trace scatter trace7b7535" style="stroke-miterlimit: 2; opacity: 1;"><g class="fills"/><g class="errorbars"/><g class="lines"><path class="js-line" d="M0,16.1L5.45,20.65L10.91,26.31L16.36,32.77L21.82,40.72L27.27,51.18L32.73,63.96L43.64,95.72L49.09,114.11L65.45,170.29L70.91,187.6L81.82,218.82L87.27,232L98.18,253.64L103.64,262.38L114.55,275.57L120,280.87L130.91,287.89L136.36,290.34L147.27,294.33L152.73,296.01L180,300.27L185.45,300.59L201.82,301.7L207.27,301.8L218.18,302.06L223.64,302.25L240,302.61L245.45,303.18L261.82,302.2L267.27,303.47L272.73,302.64L278.18,302.8L283.64,302.09L289.09,303.24L294.55,302.16L300,302.89L305.45,303.25L310.91,301.74L316.36,302.38L321.82,302.22L338.18,302.38L343.64,301.04L349.09,302.77L354.55,301.82L370.91,301.54L376.36,300.38L403.64,300.84L409.09,300.45L414.55,300.96L420,300.58L425.45,300.82L430.91,299.77L441.82,300.16L447.27,300.13L452.73,299.18L458.18,299.04L474.55,298.45L480,299.13L485.45,298.3L490.91,299.05L496.36,298.64L501.82,299.35L512.73,299.02L518.18,298.56L529.09,298.02L534.55,297.49L540,297.42" style="vector-effect: non-scaling-stroke; fill: none; stroke: rgb(0, 176, 246); stroke-opacity: 1; stroke-width: 2px; opacity: 1;"/></g><g class="points"/><g class="text"/></g><g class="trace scatter tracead0d52" style="stroke-miterlimit: 2; opacity: 1;"><g class="fills"/><g class="errorbars"/><g class="lines"><path class="js-line" d="M0,16.1L10.91,25.54L16.36,32.28L21.82,40.39L27.27,50.97L32.73,63.75L38.18,78.69L49.09,113.75L54.55,132.95L70.91,187.42L76.36,203.65L87.27,231.5L92.73,243.13L103.64,262.14L109.09,269.49L120,280.11L125.45,283.68L130.91,287.55L136.36,290.04L147.27,294.41L152.73,295.11L158.18,296.84L163.64,297.61L180,300.07L185.45,300.11L201.82,300.85L207.27,300.84L212.73,301.76L218.18,301.59L240,302.21L245.45,302.39L261.82,301.69L267.27,302.76L272.73,302.01L278.18,302.14L283.64,302.23L289.09,301.46L294.55,302.33L300,301.72L310.91,301.72L316.36,301.55L321.82,301.85L327.27,301.23L349.09,301.9L354.55,301.13L360,300.55L365.45,301.29L376.36,300.08L381.82,301.11L387.27,299.51L392.73,300.22L398.18,300.23L403.64,299.11L409.09,300.23L414.55,299.83L420,300.03L425.45,299.12L436.36,299.3L441.82,299.21L447.27,299.77L452.73,299.41L458.18,298.46L463.64,298.91L469.09,298.19L474.55,298.53L496.36,296.92L501.82,298.25L512.73,297.16L518.18,297.54L529.09,297.04L534.55,297.53L540,295.55" style="vector-effect: non-scaling-stroke; fill: none; stroke: rgb(231, 107, 243); stroke-opacity: 1; stroke-width: 2px; opacity: 1;"/></g><g class="points"/><g class="text"/></g><g class="trace scatter trace10c61d" style="stroke-miterlimit: 2; opacity: 1;"><g class="fills"/><g class="errorbars"/><g class="lines"><path class="js-line" d="M0,16.1L5.45,20.59L10.91,26.29L16.36,32.66L21.82,40.93L27.27,51.03L32.73,64.21L38.18,79.11L43.64,96.29L70.91,188.83L76.36,204.95L87.27,233.46L92.73,245.18L103.64,263.61L109.09,270.94L114.55,276.67L120,281.29L130.91,288.8L136.36,291.22L147.27,294.94L152.73,296.39L163.64,298.48L169.09,298.34L180,300.33L185.45,300.98L190.91,300.74L196.36,301.36L229.09,302.29L234.55,301.43L250.91,301.74L256.36,302.87L261.82,302.05L267.27,302.65L272.73,303.02L278.18,302.04L305.45,302.09L310.91,301.6L316.36,302.31L321.82,302.09L332.73,301.76L338.18,301.86L349.09,300.78L354.55,301.39L376.36,301.13L381.82,301.14L392.73,300.69L398.18,300.63L403.64,301.25L409.09,300.9L420,299.61L425.45,300.29L458.18,299.39L463.64,297.89L474.55,299.5L480,298.61L518.18,297.76L523.64,297.16L529.09,298.47L534.55,297.7L540,296.61" style="vector-effect: non-scaling-stroke; fill: none; stroke: rgb(248, 118, 109); stroke-opacity: 1; stroke-width: 2px; opacity: 1;"/></g><g class="points"/><g class="text"/></g><g class="trace scatter tracee81e49" style="stroke-miterlimit: 2; opacity: 1;"><g class="fills"/><g class="errorbars"/><g class="lines"><path class="js-line" d="M0,16.21L5.45,20.89L10.91,26.88L16.36,33.25L21.82,41.75L27.27,52.39L32.73,65.51L43.64,98.34L49.09,116.99L70.91,190.42L76.36,206.59L87.27,234.61L92.73,246.03L98.18,256.22L103.64,264.66L114.55,277.26L120,281.97L130.91,289.04L136.36,291.49L147.27,295.65L152.73,296.67L169.09,299.82L174.55,300.23L180,301.46L185.45,301.58L190.91,301.34L196.36,302.32L201.82,301.96L207.27,302.63L212.73,302.58L218.18,303.61L223.64,302.43L229.09,302.16L234.55,303.17L240,303.07L261.82,303.32L267.27,303.08L272.73,303.9L278.18,302.9L310.91,303.24L316.36,302.49L321.82,303.62L327.27,302.43L332.73,303.14L338.18,302.57L354.55,302.51L360,301.78L365.45,302.45L370.91,301.87L381.82,302.08L387.27,301.32L392.73,302.06L398.18,302L403.64,301.17L409.09,301.71L425.45,300.87L430.91,301.71L447.27,300.37L452.73,300.59L469.09,300.59L474.55,299.3L480,300.48L485.45,299.27L490.91,299.97L496.36,299.48L507.27,298.73L512.73,298.84L534.55,298.39L540,299.25" style="vector-effect: non-scaling-stroke; fill: none; stroke: rgb(163, 165, 0); stroke-opacity: 1; stroke-width: 2px; opacity: 1;"/></g><g class="points"/><g class="text"/></g><g class="trace scatter trace4e371c" style="stroke-miterlimit: 2; opacity: 1;"><g class="fills"/><g class="errorbars"/><g class="lines"><path class="js-line" d="M0,16.17L5.45,20.53L10.91,26.16L16.36,32.63L21.82,40.75L27.27,51.35L32.73,64.41L43.64,95.86L49.09,114.36L70.91,188.03L76.36,204.62L81.82,220.11L87.27,233.21L92.73,245.11L98.18,254.68L109.09,271.12L114.55,276.91L125.45,285.72L130.91,288.98L147.27,295.41L152.73,296.34L158.18,297.85L163.64,298.23L169.09,299.7L174.55,299.83L185.45,300.62L190.91,301.23L223.64,302.71L229.09,302.63L261.82,302.76L267.27,303.1L278.18,302.65L283.64,302.26L289.09,302.68L294.55,302.29L316.36,303.02L321.82,302.63L327.27,302.28L332.73,301.15L349.09,301.5L354.55,302.26L387.27,300.96L392.73,301.18L403.64,300.7L409.09,300.59L414.55,301.1L420,299.87L425.45,300.59L430.91,300.2L447.27,299.45L452.73,299.77L463.64,299.22L469.09,299.51L485.45,299.74L490.91,297.75L501.82,298.8L507.27,298.64L518.18,297.8L523.64,298.15L534.55,297.94L540,298.57" style="vector-effect: non-scaling-stroke; fill: none; stroke: rgb(0, 191, 125); stroke-opacity: 1; stroke-width: 2px; opacity: 1;"/></g><g class="points"/><g class="text"/></g><g class="trace scatter trace8152b7" style="stroke-miterlimit: 2; opacity: 1;"><g class="fills"/><g class="errorbars"/><g class="lines"><path class="js-line" d="M0,16.22L10.91,26.22L16.36,32.86L21.82,41.04L27.27,51.85L32.73,64.84L38.18,79.81L49.09,115.58L54.55,134.63L70.91,190.38L76.36,206.33L87.27,234.72L92.73,246.38L98.18,256.37L103.64,264.4L109.09,271.54L114.55,277.31L125.45,285.98L130.91,288.79L136.36,291.32L141.82,292.76L147.27,295.09L152.73,296.58L158.18,298L163.64,298.03L190.91,301.4L196.36,301.15L201.82,301.94L207.27,301.93L218.18,302L223.64,302.98L234.55,302.4L240,303.28L256.36,302.26L261.82,302.45L272.73,303.09L278.18,302.24L289.09,302.99L294.55,302.12L310.91,302.22L316.36,302.4L327.27,302.37L332.73,301.37L338.18,301.96L343.64,300.9L354.55,300.78L360,301.72L376.36,300.64L381.82,301.06L392.73,301.37L398.18,301L403.64,299.79L409.09,300.5L430.91,300.28L436.36,300.27L452.73,298.83L458.18,300.19L463.64,299.51L469.09,299.8L474.55,299.88L480,299.02L490.91,298.69L496.36,298.89L507.27,298.36L512.73,297.89L529.09,298.3L534.55,296.44L540,297.27" style="vector-effect: non-scaling-stroke; fill: none; stroke: rgb(0, 176, 246); stroke-opacity: 1; stroke-width: 2px; opacity: 1;"/></g><g class="points"/><g class="text"/></g><g class="trace scatter tracedb7baf" style="stroke-miterlimit: 2; opacity: 1;"><g class="fills"/><g class="errorbars"/><g class="lines"><path class="js-line" d="M0,16L10.91,26.17L16.36,32.85L21.82,40.95L27.27,51.49L38.18,78.59L43.64,95.64L70.91,186.82L76.36,203.08L87.27,231.59L92.73,243.54L103.64,262.26L109.09,270.23L125.45,284.66L130.91,288.16L152.73,296.44L158.18,297.37L180,300.3L185.45,300.58L196.36,301.9L201.82,302.02L256.36,302.99L261.82,303.04L294.55,302.22L300,302.82L305.45,302.36L310.91,302.74L321.82,302.45L327.27,302.88L332.73,302.67L338.18,303.55L349.09,302.15L354.55,302.11L376.36,302.15L381.82,301.51L414.55,300.99L420,299.84L425.45,300.72L430.91,300.81L441.82,300.36L447.27,299.11L452.73,300.54L458.18,300.2L463.64,300.91L469.09,300.25L474.55,300.47L480,299.89L485.45,300.41L490.91,299.48L501.82,299.24L507.27,298L512.73,299.68L518.18,298.62L523.64,298.72L529.09,297.43L534.55,299.03L540,298.32" style="vector-effect: non-scaling-stroke; fill: none; stroke: rgb(231, 107, 243); stroke-opacity: 1; stroke-width: 2px; opacity: 1;"/></g><g class="points"/><g class="text"/></g></g></g><g class="overplot"/><path class="xlines-above crisp" d="" style="fill: none; stroke-width: 1px; stroke: rgb(0, 0, 0); stroke-opacity: 0;"/><path class="ylines-above crisp" d="" style="fill: none; stroke-width: 1px; stroke: rgb(0, 0, 0); stroke-opacity: 0;"/><g class="overlines-above"/><g class="xaxislayer-above"><path class="xtick ticks crisp" d="M0,421v5" transform="translate(80,0)" style="stroke: rgb(51, 51, 51); stroke-opacity: 1; stroke-width: 1px;"/><path class="xtick ticks crisp" d="M0,421v5" transform="translate(189.09,0)" style="stroke: rgb(51, 51, 51); stroke-opacity: 1; stroke-width: 1px;"/><path class="xtick ticks crisp" d="M0,421v5" transform="translate(298.18,0)" style="stroke: rgb(51, 51, 51); stroke-opacity: 1; stroke-width: 1px;"/><path class="xtick ticks crisp" d="M0,421v5" transform="translate(407.27,0)" style="stroke: rgb(51, 51, 51); stroke-opacity: 1; stroke-width: 1px;"/><path class="xtick ticks crisp" d="M0,421v5" transform="translate(516.36,0)" style="stroke: rgb(51, 51, 51); stroke-opacity: 1; stroke-width: 1px;"/><g class="xtick"><text text-anchor="middle" x="0" y="440.4" transform="translate(80,0)" style="font-family: 'Open Sans', verdana, arial, sans-serif; font-size: 12px; fill: rgb(51, 51, 51); fill-opacity: 1; white-space: pre; opacity: 1;">0</text></g><g class="xtick"><text text-anchor="middle" x="0" y="440.4" style="font-family: 'Open Sans', verdana, arial, sans-serif; font-size: 12px; fill: rgb(51, 51, 51); fill-opacity: 1; white-space: pre; opacity: 1;" transform="translate(189.09,0)">20</text></g><g class="xtick"><text text-anchor="middle" x="0" y="440.4" style="font-family: 'Open Sans', verdana, arial, sans-serif; font-size: 12px; fill: rgb(51, 51, 51); fill-opacity: 1; white-space: pre; opacity: 1;" transform="translate(298.18,0)">40</text></g><g class="xtick"><text text-anchor="middle" x="0" y="440.4" style="font-family: 'Open Sans', verdana, arial, sans-serif; font-size: 12px; fill: rgb(51, 51, 51); fill-opacity: 1; white-space: pre; opacity: 1;" transform="translate(407.27,0)">60</text></g><g class="xtick"><text text-anchor="middle" x="0" y="440.4" style="font-family: 'Open Sans', verdana, arial, sans-serif; font-size: 12px; fill: rgb(51, 51, 51); fill-opacity: 1; white-space: pre; opacity: 1;" transform="translate(516.36,0)">80</text></g></g><g class="yaxislayer-above"><path class="ytick ticks crisp" d="M79,0h-5" transform="translate(0,379.09)" style="stroke: rgb(51, 51, 51); stroke-opacity: 1; stroke-width: 1px;"/><path class="ytick ticks crisp" d="M79,0h-5" transform="translate(0,322.52)" style="stroke: rgb(51, 51, 51); stroke-opacity: 1; stroke-width: 1px;"/><path class="ytick ticks crisp" d="M79,0h-5" transform="translate(0,265.95)" style="stroke: rgb(51, 51, 51); stroke-opacity: 1; stroke-width: 1px;"/><path class="ytick ticks crisp" d="M79,0h-5" transform="translate(0,209.38)" style="stroke: rgb(51, 51, 51); stroke-opacity: 1; stroke-width: 1px;"/><path class="ytick ticks crisp" d="M79,0h-5" transform="translate(0,152.82)" style="stroke: rgb(51, 51, 51); stroke-opacity: 1; stroke-width: 1px;"/><g class="ytick"><text text-anchor="end" x="71.6" y="4.199999999999999" transform="translate(0,379.09)" style="font-family: 'Open Sans', verdana, arial, sans-serif; font-size: 12px; fill: rgb(51, 51, 51); fill-opacity: 1; white-space: pre; opacity: 1;">1</text></g><g class="ytick"><text text-anchor="end" x="71.6" y="4.199999999999999" style="font-family: 'Open Sans', verdana, arial, sans-serif; font-size: 12px; fill: rgb(51, 51, 51); fill-opacity: 1; white-space: pre; opacity: 1;" transform="translate(0,322.52)">2</text></g><g class="ytick"><text text-anchor="end" x="71.6" y="4.199999999999999" style="font-family: 'Open Sans', verdana, arial, sans-serif; font-size: 12px; fill: rgb(51, 51, 51); fill-opacity: 1; white-space: pre; opacity: 1;" transform="translate(0,265.95)">3</text></g><g class="ytick"><text text-anchor="end" x="71.6" y="4.199999999999999" style="font-family: 'Open Sans', verdana, arial, sans-serif; font-size: 12px; fill: rgb(51, 51, 51); fill-opacity: 1; white-space: pre; opacity: 1;" transform="translate(0,209.38)">4</text></g><g class="ytick"><text text-anchor="end" x="71.6" y="4.199999999999999" style="font-family: 'Open Sans', verdana, arial, sans-serif; font-size: 12px; fill: rgb(51, 51, 51); fill-opacity: 1; white-space: pre; opacity: 1;" transform="translate(0,152.82)">5</text></g></g><g class="overaxes-above"/></g></g><g class="polarlayer"/><g class="ternarylayer"/><g class="geolayer"/><g class="funnelarealayer"/><g class="pielayer"/><g class="iciclelayer"/><g class="treemaplayer"/><g class="sunburstlayer"/><g class="glimages"/><defs id="topdefs-1fd0f6"><g class="clips"/></defs><g class="layer-above"><g class="imagelayer"/><g class="shapelayer"/></g><g class="infolayer"><g class="g-gtitle"><text class="gtitle" x="350" y="50" text-anchor="middle" dy="0em" style="font-family: 'Open Sans', verdana, arial, sans-serif; font-size: 17px; fill: rgb(51, 51, 51); opacity: 1; font-weight: normal; white-space: pre;">Train Loss: ascad_v1_fk_0_noisy-aisy_mlp_id (early_stopping)</text></g><g class="g-xtitle"/><g class="g-ytitle"/></g></svg>