<svg class="main-svg" xmlns="http://www.w3.org/2000/svg" xmlns:xlink="http://www.w3.org/1999/xlink" width="700" height="500" style="" viewBox="0 0 700 500"><rect x="0" y="0" width="700" height="500" style="fill: rgb(255, 255, 255); fill-opacity: 1;"/><defs id="defs-bd30e1"><g class="clips"><clipPath id="clipbd30e1xyplot" class="plotclip"><rect width="540" height="320"/></clipPath><clipPath class="axesclip" id="clipbd30e1x"><rect x="80" y="0" width="540" height="500"/></clipPath><clipPath class="axesclip" id="clipbd30e1y"><rect x="0" y="100" width="700" height="320"/></clipPath><clipPath class="axesclip" id="clipbd30e1xy"><rect x="80" y="100" width="540" height="320"/></clipPath></g><g class="gradients"/><g class="patterns"/></defs><g class="bglayer"><rect class="bg" x="80" y="100" width="540" height="320" style="fill: rgb(237, 237, 237); fill-opacity: 1; stroke-width: 0;"/></g><g class="layer-below"><g class="imagelayer"/><g class="shapelayer"/></g><g class="cartesianlayer"><g class="subplot xy"><g class="layer-subplot"><g class="shapelayer"/><g class="imagelayer"/></g><g class="gridlayer"><g class="x"><path class="xgrid crisp" transform="translate(190.2,0)" d="M0,100v320" style="stroke: rgb(255, 255, 255); stroke-opacity: 1; stroke-width: 1px;"/><path class="xgrid crisp" transform="translate(300.40999999999997,0)" d="M0,100v320" style="stroke: rgb(255, 255, 255); stroke-opacity: 1; stroke-width: 1px;"/><path class="xgrid crisp" transform="translate(410.61,0)" d="M0,100v320" style="stroke: rgb(255, 255, 255); stroke-opacity: 1; stroke-width: 1px;"/><path class="xgrid crisp" transform="translate(520.8199999999999,0)" d="M0,100v320" style="stroke: rgb(255, 255, 255); stroke-opacity: 1; stroke-width: 1px;"/></g><g class="y"><path class="ygrid crisp" transform="translate(0,405.68)" d="M80,0h540" style="stroke: rgb(255, 255, 255); stroke-opacity: 1; stroke-width: 1px;"/><path class="ygrid crisp" transform="translate(0,369.05)" d="M80,0h540" style="stroke: rgb(255, 255, 255); stroke-opacity: 1; stroke-width: 1px;"/><path class="ygrid crisp" transform="translate(0,332.43)" d="M80,0h540" style="stroke: rgb(255, 255, 255); stroke-opacity: 1; stroke-width: 1px;"/><path class="ygrid crisp" transform="translate(0,295.81)" d="M80,0h540" style="stroke: rgb(255, 255, 255); stroke-opacity: 1; stroke-width: 1px;"/><path class="ygrid crisp" transform="translate(0,259.19)" d="M80,0h540" style="stroke: rgb(255, 255, 255); stroke-opacity: 1; stroke-width: 1px;"/><path class="ygrid crisp" transform="translate(0,222.56)" d="M80,0h540" style="stroke: rgb(255, 255, 255); stroke-opacity: 1; stroke-width: 1px;"/><path class="ygrid crisp" transform="translate(0,185.94)" d="M80,0h540" style="stroke: rgb(255, 255, 255); stroke-opacity: 1; stroke-width: 1px;"/><path class="ygrid crisp" transform="translate(0,149.32)" d="M80,0h540" style="stroke: rgb(255, 255, 255); stroke-opacity: 1; stroke-width: 1px;"/><path class="ygrid crisp" transform="translate(0,112.7)" d="M80,0h540" style="stroke: rgb(255, 255, 255); stroke-opacity: 1; stroke-width: 1px;"/></g></g><g class="zerolinelayer"><path class="xzl zl crisp" transform="translate(80,0)" d="M0,100v320" style="stroke: rgb(255, 255, 255); stroke-opacity: 1; stroke-width: 1px;"/></g><path class="xlines-below"/><path class="ylines-below"/><g class="overlines-below"/><g class="xaxislayer-below"/><g class="yaxislayer-below"/><g class="overaxes-below"/><g class="plot" transform="translate(80,100)" clip-path="url(#clipbd30e1xyplot)"><g class="scatterlayer mlayer"><g class="trace scatter tracef51969" style="stroke-miterlimit: 2; opacity: 1;"><g class="fills"/><g class="errorbars"/><g class="lines"><path class="js-line" d="M0,302.47L11.02,295.28L22.04,293.98L33.06,292.35L44.08,292.09L55.1,290.1L66.12,289.45L88.16,287.85L99.18,288.24L110.2,284.25L121.22,281.41L132.24,276.7L143.27,269.74L154.29,263.26L165.31,255.65L176.33,244.38L187.35,231.38L209.39,208.42L220.41,196.2L231.43,184.7L242.45,174.58L253.47,165.68L264.49,155.47L275.51,145.38L286.53,138.11L319.59,117.98L330.61,110.12L341.63,103.17L352.65,97.45L363.67,93.3L374.69,86.26L385.71,79.15L396.73,72.94L407.76,70.43L418.78,65.48L429.8,63.26L440.82,59.72L451.84,53.72L462.86,49.43L473.88,46.03L484.9,41.34L528.98,25.2L540,22.43" style="vector-effect: non-scaling-stroke; fill: none; stroke: rgb(248, 118, 109); stroke-opacity: 1; stroke-width: 2px; opacity: 1;"/></g><g class="points"/><g class="text"/></g><g class="trace scatter trace4ea278" style="stroke-miterlimit: 2; opacity: 1;"><g class="fills"/><g class="errorbars"/><g class="lines"><path class="js-line" d="M0,303.17L11.02,296.18L22.04,294.19L44.08,293.12L55.1,293.78L66.12,293.85L77.14,292.95L88.16,289.31L99.18,289.05L110.2,286.15L121.22,280.94L132.24,277.03L143.27,270.12L154.29,263.21L165.31,253.39L176.33,244.74L187.35,229.56L209.39,207.54L220.41,194.85L253.47,164.84L264.49,153.55L275.51,147.39L286.53,139.48L297.55,129.78L308.57,125.23L352.65,99.72L363.67,92.72L374.69,88.18L385.71,84.75L396.73,81.95L407.76,77.61L440.82,67.35L451.84,63.53L462.86,58.6L473.88,55.85L484.9,54.22L495.92,49.27L517.96,44.28L528.98,40.73L540,37.38" style="vector-effect: non-scaling-stroke; fill: none; stroke: rgb(163, 165, 0); stroke-opacity: 1; stroke-width: 2px; opacity: 1;"/></g><g class="points"/><g class="text"/></g><g class="trace scatter trace0e19a4" style="stroke-miterlimit: 2; opacity: 1;"><g class="fills"/><g class="errorbars"/><g class="lines"><path class="js-line" d="M0,303.32L11.02,296.15L22.04,295.28L33.06,294.29L44.08,295.85L55.1,296.59L66.12,293.36L77.14,292.09L88.16,293.3L99.18,293.26L110.2,291.66L121.22,287.61L132.24,284.58L143.27,278.2L154.29,273.44L165.31,267.67L176.33,259.04L187.35,251.89L198.37,242.67L209.39,234.38L220.41,227.48L231.43,216.86L242.45,204.83L253.47,195.98L264.49,188.23L275.51,183.3L286.53,173.65L297.55,164.77L308.57,158.75L319.59,151.3L330.61,148.25L341.63,139.41L352.65,132.77L363.67,127.38L374.69,123.2L385.71,117.86L396.73,114.14L407.76,108.3L418.78,104.71L440.82,96.64L451.84,90.61L462.86,89.49L473.88,86.91L495.92,80.76L506.94,75L517.96,73.17L528.98,68.3L540,65.49" style="vector-effect: non-scaling-stroke; fill: none; stroke: rgb(0, 191, 125); stroke-opacity: 1; stroke-width: 2px; opacity: 1;"/></g><g class="points"/><g class="text"/></g><g class="trace scatter trace630ea1" style="stroke-miterlimit: 2; opacity: 1;"><g class="fills"/><g class="errorbars"/><g class="lines"><path class="js-line" d="M0,303.57L11.02,295.89L22.04,295.78L44.08,296.83L55.1,293.94L66.12,293.2L77.14,290.87L99.18,289.52L110.2,286.77L121.22,284.76L132.24,279.56L143.27,274.35L154.29,267.17L165.31,259.72L176.33,248.92L187.35,236.98L198.37,226.34L220.41,201.68L231.43,191.3L242.45,181.93L253.47,173.71L275.51,154.24L286.53,148.06L297.55,138.98L308.57,131.38L319.59,124.68L330.61,116.86L341.63,110.99L352.65,104.01L363.67,98.39L374.69,94.11L385.71,87.68L396.73,82.65L407.76,77.97L418.78,71.95L429.8,68.95L440.82,62.9L451.84,59.07L462.86,54.38L473.88,52.73L484.9,46.77L495.92,42.98L506.94,40.83L517.96,38.95L528.98,36.11L540,33.71" style="vector-effect: non-scaling-stroke; fill: none; stroke: rgb(0, 176, 246); stroke-opacity: 1; stroke-width: 2px; opacity: 1;"/></g><g class="points"/><g class="text"/></g><g class="trace scatter trace920e75" style="stroke-miterlimit: 2; opacity: 1;"><g class="fills"/><g class="errorbars"/><g class="lines"><path class="js-line" d="M0,303.32L11.02,295.19L22.04,293.65L33.06,294.29L44.08,293.33L66.12,293.71L77.14,291.93L99.18,288.87L110.2,290.36L132.24,283.37L143.27,278.67L154.29,274.51L165.31,264.98L176.33,256.66L187.35,246.67L198.37,238.1L209.39,230.58L220.41,220.82L231.43,208.38L253.47,189.66L264.49,182.42L275.51,173.47L286.53,168.64L297.55,160.35L308.57,150.78L319.59,143.55L330.61,139.71L341.63,131.93L352.65,128.72L363.67,122.37L374.69,117.46L385.71,109.93L396.73,107.98L407.76,101.62L418.78,97.26L429.8,92.77L440.82,89.38L451.84,86.06L462.86,81.38L473.88,80.69L484.9,76.62L517.96,69.55L528.98,67.95L540,66.47" style="vector-effect: non-scaling-stroke; fill: none; stroke: rgb(231, 107, 243); stroke-opacity: 1; stroke-width: 2px; opacity: 1;"/></g><g class="points"/><g class="text"/></g><g class="trace scatter trace724dac" style="stroke-miterlimit: 2; opacity: 1;"><g class="fills"/><g class="errorbars"/><g class="lines"><path class="js-line" d="M0,303.62L11.02,296.04L22.04,294.3L44.08,291.18L55.1,291.32L66.12,290.81L77.14,288.97L88.16,290.3L99.18,289.19L110.2,288.13L121.22,284.88L132.24,282.66L143.27,277.38L187.35,247.26L198.37,238.68L220.41,217.14L231.43,206.66L253.47,185.97L264.49,177.27L286.53,158.12L297.55,150L308.57,142.62L319.59,136.17L330.61,130.25L341.63,122.57L352.65,117.72L363.67,111.6L374.69,107.24L385.71,99.99L396.73,96.01L407.76,88.69L418.78,84.68L429.8,77.1L440.82,71.04L451.84,67.15L484.9,51.99L495.92,47.46L506.94,43.86L517.96,37.46L528.98,32.68L540,28.94" style="vector-effect: non-scaling-stroke; fill: none; stroke: rgb(248, 118, 109); stroke-opacity: 1; stroke-width: 2px; opacity: 1;"/></g><g class="points"/><g class="text"/></g><g class="trace scatter tracea85ebd" style="stroke-miterlimit: 2; opacity: 1;"><g class="fills"/><g class="errorbars"/><g class="lines"><path class="js-line" d="M0,302.16L11.02,295.41L22.04,294.31L55.1,293.9L66.12,293.2L77.14,292.07L88.16,288.85L99.18,285.64L110.2,283.97L132.24,277.11L143.27,272.42L165.31,256.96L176.33,247.28L187.35,236.53L198.37,227.19L209.39,216.5L220.41,203.68L242.45,180.79L253.47,172.52L264.49,164.39L275.51,153.62L286.53,142.99L297.55,135.89L319.59,119.27L330.61,111.28L352.65,96.36L363.67,90.76L374.69,86.09L385.71,79.54L396.73,74.82L407.76,69.2L418.78,65.07L429.8,59.78L440.82,55.23L451.84,51.84L462.86,48.8L473.88,43.42L495.92,37.41L506.94,34.38L528.98,27.58L540,25.1" style="vector-effect: non-scaling-stroke; fill: none; stroke: rgb(163, 165, 0); stroke-opacity: 1; stroke-width: 2px; opacity: 1;"/></g><g class="points"/><g class="text"/></g><g class="trace scatter trace531a11" style="stroke-miterlimit: 2; opacity: 1;"><g class="fills"/><g class="errorbars"/><g class="lines"><path class="js-line" d="M0,302.35L11.02,295.92L22.04,295.74L33.06,294.96L44.08,295.57L77.14,292.61L88.16,290.23L99.18,288.01L110.2,284.02L121.22,280.24L132.24,274.43L143.27,267.21L154.29,258.82L176.33,236.45L187.35,221.32L198.37,210.82L209.39,198.67L242.45,167.3L253.47,158.53L264.49,150.26L275.51,140.52L308.57,116.79L319.59,111.86L341.63,102.01L352.65,96.65L363.67,89.29L374.69,86.27L396.73,76.47L407.76,73.22L429.8,64.69L440.82,63.18L451.84,61.15L462.86,57.42L473.88,55.76L484.9,49.43L495.92,48.2L506.94,44.83L517.96,43.02L528.98,40.36L540,37.15" style="vector-effect: non-scaling-stroke; fill: none; stroke: rgb(0, 191, 125); stroke-opacity: 1; stroke-width: 2px; opacity: 1;"/></g><g class="points"/><g class="text"/></g><g class="trace scatter trace570906" style="stroke-miterlimit: 2; opacity: 1;"><g class="fills"/><g class="errorbars"/><g class="lines"><path class="js-line" d="M0,303.12L11.02,296.23L22.04,294.68L44.08,293.68L55.1,293.79L66.12,293.97L77.14,295.1L99.18,290.61L110.2,291.49L121.22,289.15L132.24,285.76L143.27,280.54L154.29,273.69L176.33,258.85L187.35,250.25L198.37,243.95L209.39,233.86L220.41,226.84L231.43,215.07L275.51,180.13L286.53,170.29L297.55,159.69L308.57,152.91L319.59,144.24L330.61,140.02L352.65,123.61L363.67,120.85L374.69,113.79L385.71,107.95L396.73,103.18L407.76,93.56L418.78,91.6L429.8,86.98L440.82,85.53L451.84,81.3L462.86,78.01L473.88,75.79L484.9,71.93L495.92,69.59L506.94,64.34L517.96,61.54L528.98,58.75L540,57.67" style="vector-effect: non-scaling-stroke; fill: none; stroke: rgb(0, 176, 246); stroke-opacity: 1; stroke-width: 2px; opacity: 1;"/></g><g class="points"/><g class="text"/></g><g class="trace scatter trace6c7fdc" style="stroke-miterlimit: 2; opacity: 1;"><g class="fills"/><g class="errorbars"/><g class="lines"><path class="js-line" d="M0,302.03L11.02,294.79L22.04,293.18L33.06,294.1L44.08,293.73L55.1,294.53L66.12,292.68L88.16,290.53L99.18,288.34L121.22,282.56L132.24,277.79L143.27,274.69L154.29,265.41L176.33,247.91L187.35,237.3L198.37,225.86L209.39,217.07L220.41,205.74L231.43,196.07L242.45,183.07L253.47,171.78L264.49,162.23L275.51,151.43L286.53,142.98L297.55,133.54L308.57,126.1L319.59,117.65L330.61,108.61L341.63,103.15L363.67,91.24L374.69,86.12L385.71,78.36L396.73,73.88L418.78,68.26L429.8,61.4L440.82,56.84L451.84,54.32L462.86,47.76L473.88,47.78L484.9,43.03L495.92,40.01L506.94,37.16L517.96,35.69L528.98,32.33L540,27.16" style="vector-effect: non-scaling-stroke; fill: none; stroke: rgb(231, 107, 243); stroke-opacity: 1; stroke-width: 2px; opacity: 1;"/></g><g class="points"/><g class="text"/></g><g class="trace scatter tracecfba8d" style="stroke-miterlimit: 2; opacity: 1;"><g class="fills"/><g class="errorbars"/><g class="lines"><path class="js-line" d="M0,301.71L11.02,296.23L22.04,294.53L33.06,293.77L44.08,294.64L66.12,291.78L77.14,292.2L99.18,289.22L110.2,285.59L121.22,283.11L132.24,282.75L154.29,269.86L165.31,260.96L187.35,239.16L198.37,227.95L220.41,205.09L231.43,194.62L242.45,183.8L253.47,175.01L264.49,167.58L275.51,157.73L286.53,148.5L297.55,140.68L319.59,126.46L330.61,120.2L341.63,113.03L352.65,104.48L363.67,99.86L374.69,93.62L385.71,86.89L396.73,82.1L407.76,76.35L418.78,72.38L440.82,60.68L451.84,56.34L462.86,51.37L473.88,48.53L484.9,42.03L495.92,40.42L506.94,38.64L517.96,34.28L540,29.27" style="vector-effect: non-scaling-stroke; fill: none; stroke: rgb(248, 118, 109); stroke-opacity: 1; stroke-width: 2px; opacity: 1;"/></g><g class="points"/><g class="text"/></g><g class="trace scatter trace4d4c45" style="stroke-miterlimit: 2; opacity: 1;"><g class="fills"/><g class="errorbars"/><g class="lines"><path class="js-line" d="M0,303.47L11.02,296.17L22.04,293.09L33.06,292.83L44.08,291L55.1,290.61L66.12,288.46L88.16,286.29L99.18,286.29L110.2,285.68L121.22,283.91L132.24,281.79L143.27,277.57L154.29,273.59L165.31,267.6L176.33,260.22L187.35,254.47L198.37,243.37L209.39,230.89L220.41,221.11L231.43,207.43L242.45,196.01L253.47,186.28L264.49,177.42L275.51,167.25L286.53,157.18L297.55,151.41L319.59,134.84L330.61,127.77L341.63,123.29L352.65,117.2L374.69,106.31L385.71,99L396.73,92.21L407.76,86.51L418.78,82.61L429.8,77.4L440.82,74.91L451.84,70.48L462.86,67.98L473.88,64.7L484.9,60.26L495.92,56.77L517.96,49.11L528.98,47.21L540,45.57" style="vector-effect: non-scaling-stroke; fill: none; stroke: rgb(163, 165, 0); stroke-opacity: 1; stroke-width: 2px; opacity: 1;"/></g><g class="points"/><g class="text"/></g><g class="trace scatter trace07b808" style="stroke-miterlimit: 2; opacity: 1;"><g class="fills"/><g class="errorbars"/><g class="lines"><path class="js-line" d="M0,302.77L11.02,295.53L22.04,293.91L55.1,293.59L66.12,292.38L77.14,291.04L88.16,288.85L99.18,288.37L110.2,283.1L121.22,281.6L132.24,276.46L154.29,261.59L165.31,252.12L187.35,229.77L198.37,217.84L209.39,205.11L220.41,194.68L231.43,181.44L242.45,171.95L253.47,161.1L264.49,153.31L286.53,133.18L297.55,124.76L319.59,107.9L330.61,102.28L341.63,95.08L352.65,90.47L363.67,84.23L374.69,80.93L385.71,76.22L396.73,69.49L407.76,66.75L418.78,62.36L451.84,50.77L462.86,46.49L484.9,40.79L495.92,37.91L506.94,32.56L517.96,28.55L528.98,27.26L540,22.33" style="vector-effect: non-scaling-stroke; fill: none; stroke: rgb(0, 191, 125); stroke-opacity: 1; stroke-width: 2px; opacity: 1;"/></g><g class="points"/><g class="text"/></g><g class="trace scatter tracec9214a" style="stroke-miterlimit: 2; opacity: 1;"><g class="fills"/><g class="errorbars"/><g class="lines"><path class="js-line" d="M0,302.53L11.02,295.06L22.04,294.58L33.06,294.32L44.08,291.92L55.1,293.56L66.12,292.93L77.14,291.7L88.16,291.63L121.22,281.53L132.24,277.38L143.27,271.45L154.29,263.61L176.33,242.11L187.35,229.91L198.37,219.53L209.39,207.98L231.43,183.93L242.45,177.12L253.47,165.33L264.49,155.38L275.51,149.44L286.53,142.14L319.59,120.8L330.61,115.41L352.65,102.35L363.67,97.07L385.71,87.17L396.73,82.36L407.76,80L418.78,75.71L440.82,68.79L451.84,65.47L462.86,60.22L473.88,56.79L484.9,52.68L495.92,49.59L517.96,43.62L528.98,37.74L540,33.46" style="vector-effect: non-scaling-stroke; fill: none; stroke: rgb(0, 176, 246); stroke-opacity: 1; stroke-width: 2px; opacity: 1;"/></g><g class="points"/><g class="text"/></g><g class="trace scatter tracecffd2a" style="stroke-miterlimit: 2; opacity: 1;"><g class="fills"/><g class="errorbars"/><g class="lines"><path class="js-line" d="M0,301.84L11.02,295.39L22.04,294.54L33.06,292.46L44.08,291.67L66.12,292.16L77.14,291.31L99.18,288.48L110.2,286.37L132.24,277.41L143.27,270.93L154.29,264.96L165.31,254.39L176.33,243.13L187.35,229.57L198.37,219.39L209.39,207.71L220.41,193.54L231.43,183.87L253.47,163.5L264.49,155.61L275.51,145.76L286.53,138.88L297.55,130.46L308.57,123.01L319.59,112.94L330.61,106.18L341.63,101.19L352.65,94.34L363.67,87.8L374.69,82.4L385.71,77.96L396.73,74.72L407.76,70.57L418.78,68.47L429.8,63.69L440.82,61.36L451.84,56.67L462.86,53.67L506.94,42.13L517.96,38.98L528.98,38.07L540,35.45" style="vector-effect: non-scaling-stroke; fill: none; stroke: rgb(231, 107, 243); stroke-opacity: 1; stroke-width: 2px; opacity: 1;"/></g><g class="points"/><g class="text"/></g><g class="trace scatter trace2eb156" style="stroke-miterlimit: 2; opacity: 1;"><g class="fills"/><g class="errorbars"/><g class="lines"><path class="js-line" d="M0,302.73L11.02,294.44L22.04,294.93L33.06,294.56L44.08,293.24L55.1,294.09L66.12,292.31L77.14,291.92L88.16,289.8L121.22,281.78L132.24,274.92L143.27,269.3L154.29,261.78L187.35,229.45L198.37,215.56L209.39,202.34L220.41,191.14L231.43,180.63L242.45,169.05L253.47,159.9L264.49,151.85L286.53,137.78L297.55,128.8L319.59,117.56L330.61,110.57L352.65,100.18L363.67,95.04L374.69,88.37L385.71,84.49L396.73,78.33L407.76,73.86L418.78,70.95L429.8,66.34L451.84,58.68L462.86,56.2L473.88,53.24L484.9,48.42L495.92,44.15L506.94,41.85L517.96,38.61L528.98,33.94L540,30.2" style="vector-effect: non-scaling-stroke; fill: none; stroke: rgb(248, 118, 109); stroke-opacity: 1; stroke-width: 2px; opacity: 1;"/></g><g class="points"/><g class="text"/></g><g class="trace scatter trace22040e" style="stroke-miterlimit: 2; opacity: 1;"><g class="fills"/><g class="errorbars"/><g class="lines"><path class="js-line" d="M0,301.74L11.02,295.89L22.04,294.55L77.14,289.73L88.16,289.95L121.22,282.25L132.24,277.2L143.27,270.57L154.29,261.51L165.31,252.24L176.33,239.87L209.39,203.98L220.41,191.93L231.43,182.4L242.45,170.1L253.47,160.13L264.49,151.71L275.51,140.57L286.53,132.01L297.55,123.87L308.57,117.42L319.59,107.98L330.61,103.13L341.63,97.94L352.65,91.16L363.67,84.12L374.69,79.91L396.73,69.15L407.76,62.37L418.78,58.72L429.8,53.88L440.82,48.4L451.84,44.42L473.88,35.2L484.9,32.21L495.92,27.33L506.94,25.51L517.96,21.09L528.98,17.51L540,16" style="vector-effect: non-scaling-stroke; fill: none; stroke: rgb(163, 165, 0); stroke-opacity: 1; stroke-width: 2px; opacity: 1;"/></g><g class="points"/><g class="text"/></g><g class="trace scatter trace71bf47" style="stroke-miterlimit: 2; opacity: 1;"><g class="fills"/><g class="errorbars"/><g class="lines"><path class="js-line" d="M0,302.68L11.02,294.93L22.04,294.18L33.06,291.42L44.08,293.28L55.1,291.84L66.12,293.05L77.14,289.34L88.16,289.94L99.18,292.84L110.2,291.81L143.27,283.97L154.29,277.35L165.31,273.15L176.33,266.53L209.39,242.3L220.41,232.06L242.45,214.1L253.47,207.13L264.49,198.62L275.51,188.44L286.53,177.53L297.55,172.12L308.57,162.33L319.59,155.87L330.61,148.87L341.63,138.65L352.65,131.3L363.67,125.4L385.71,113.92L396.73,108.35L407.76,103.24L418.78,95.58L429.8,90.25L440.82,85.93L451.84,79.79L462.86,77.23L495.92,63.87L506.94,61.52L517.96,57.78L528.98,57.04L540,54.71" style="vector-effect: non-scaling-stroke; fill: none; stroke: rgb(0, 191, 125); stroke-opacity: 1; stroke-width: 2px; opacity: 1;"/></g><g class="points"/><g class="text"/></g><g class="trace scatter tracef1f7f4" style="stroke-miterlimit: 2; opacity: 1;"><g class="fills"/><g class="errorbars"/><g class="lines"><path class="js-line" d="M0,303.65L11.02,295.73L22.04,294.47L55.1,294.4L66.12,292.19L99.18,291.38L110.2,289.18L121.22,289.76L132.24,283.89L143.27,279.98L154.29,275.19L176.33,261.75L187.35,253.36L198.37,245.85L209.39,236.65L220.41,228.57L231.43,218.1L242.45,212.03L253.47,202.59L264.49,191.52L275.51,184.91L286.53,175.58L297.55,167.95L308.57,158.99L319.59,152.16L330.61,144.02L341.63,138.03L352.65,132.41L363.67,124.95L374.69,120.42L385.71,114.36L396.73,110.77L407.76,103.42L418.78,96.26L429.8,92.71L440.82,87.68L451.84,83.7L473.88,73.32L484.9,69.99L495.92,66.7L506.94,64.69L517.96,60.72L528.98,55.14L540,55.14" style="vector-effect: non-scaling-stroke; fill: none; stroke: rgb(0, 176, 246); stroke-opacity: 1; stroke-width: 2px; opacity: 1;"/></g><g class="points"/><g class="text"/></g><g class="trace scatter traceb3140e" style="stroke-miterlimit: 2; opacity: 1;"><g class="fills"/><g class="errorbars"/><g class="lines"><path class="js-line" d="M0,303.35L11.02,296.15L22.04,294.55L33.06,293.91L44.08,294.47L66.12,293.78L77.14,293.16L99.18,288.32L110.2,285.24L121.22,282.56L132.24,277.36L154.29,263.19L165.31,254.01L176.33,241.61L187.35,230.72L209.39,205.2L220.41,192.72L231.43,183.4L242.45,171.71L253.47,161.97L264.49,154.62L275.51,145.58L286.53,135.36L297.55,128.13L308.57,123.48L319.59,116.3L330.61,110.95L341.63,107.64L352.65,102.01L374.69,92.84L385.71,87.47L407.76,77.7L418.78,73.95L429.8,70.4L440.82,65.79L451.84,61.25L462.86,58.02L473.88,56.38L484.9,51.34L506.94,47.3L517.96,42.16L528.98,38.1L540,35.07" style="vector-effect: non-scaling-stroke; fill: none; stroke: rgb(231, 107, 243); stroke-opacity: 1; stroke-width: 2px; opacity: 1;"/></g><g class="points"/><g class="text"/></g><g class="trace scatter trace366d7f" style="stroke-miterlimit: 2; opacity: 1;"><g class="fills"/><g class="errorbars"/><g class="lines"><path class="js-line" d="M0,302.25L11.02,295.61L22.04,294.89L33.06,294.47L44.08,294.89L99.18,287.84L110.2,283.9L121.22,281.29L132.24,276.72L154.29,263.8L165.31,255.76L176.33,243.48L187.35,233.29L220.41,200.28L231.43,187.43L242.45,178.62L253.47,167.82L264.49,157.35L275.51,149.55L286.53,140.76L297.55,133.1L330.61,111.52L341.63,105.62L352.65,100.35L363.67,93.16L374.69,88.01L385.71,85.69L396.73,79.48L407.76,74.37L418.78,68.7L429.8,65.94L440.82,61.13L451.84,59.42L462.86,56.35L473.88,51.06L484.9,47.84L495.92,45.98L506.94,41.92L517.96,39.45L528.98,35.58L540,32.61" style="vector-effect: non-scaling-stroke; fill: none; stroke: rgb(248, 118, 109); stroke-opacity: 1; stroke-width: 2px; opacity: 1;"/></g><g class="points"/><g class="text"/></g><g class="trace scatter trace594240" style="stroke-miterlimit: 2; opacity: 1;"><g class="fills"/><g class="errorbars"/><g class="lines"><path class="js-line" d="M0,300.86L11.02,295.95L22.04,294.11L44.08,294.38L55.1,295.52L66.12,293.09L77.14,291.59L110.2,283.45L121.22,280.11L132.24,275.19L143.27,269.41L165.31,253.17L176.33,240.09L220.41,193.87L231.43,183.9L242.45,172.81L253.47,162.86L264.49,155.52L275.51,146.25L286.53,138.56L297.55,127.76L308.57,120.98L319.59,115.4L330.61,108.14L341.63,103.22L352.65,96.96L363.67,92.39L374.69,87.26L385.71,80.83L407.76,69.64L418.78,65.22L429.8,62.05L440.82,57.65L462.86,51.15L473.88,49.15L484.9,45.55L495.92,40.63L506.94,38.63L517.96,34.54L540,31.68" style="vector-effect: non-scaling-stroke; fill: none; stroke: rgb(163, 165, 0); stroke-opacity: 1; stroke-width: 2px; opacity: 1;"/></g><g class="points"/><g class="text"/></g><g class="trace scatter trace068075" style="stroke-miterlimit: 2; opacity: 1;"><g class="fills"/><g class="errorbars"/><g class="lines"><path class="js-line" d="M0,304L11.02,295.26L22.04,293.95L44.08,292.11L55.1,292.13L77.14,291.83L88.16,289.25L99.18,288.54L110.2,286.84L121.22,283.61L132.24,276.71L143.27,272.85L154.29,264.85L176.33,246.12L187.35,233.28L198.37,221.55L209.39,206.79L264.49,153.16L275.51,146.32L286.53,134.11L297.55,128.36L308.57,119.26L319.59,115.69L341.63,102.48L352.65,94.78L363.67,91.98L374.69,86.29L385.71,81.55L396.73,78.25L407.76,71.74L418.78,68.31L429.8,63.12L440.82,61.54L451.84,58.99L462.86,54.33L473.88,48.02L484.9,45.01L495.92,41.89L506.94,37.57L528.98,31.6L540,30.65" style="vector-effect: non-scaling-stroke; fill: none; stroke: rgb(0, 191, 125); stroke-opacity: 1; stroke-width: 2px; opacity: 1;"/></g><g class="points"/><g class="text"/></g><g class="trace scatter trace5f16e1" style="stroke-miterlimit: 2; opacity: 1;"><g class="fills"/><g class="errorbars"/><g class="lines"><path class="js-line" d="M0,303.18L11.02,294.92L22.04,294.33L44.08,292.11L55.1,292.33L66.12,292.94L77.14,291.91L99.18,289.28L110.2,286.64L121.22,285.75L132.24,281.98L154.29,267.06L165.31,256.77L176.33,246.09L187.35,234.07L198.37,220.55L209.39,209.63L220.41,195.08L231.43,185.71L242.45,174.77L253.47,162.56L275.51,146.93L286.53,138.58L297.55,131.59L308.57,125.54L330.61,113.77L341.63,107.52L352.65,103.23L363.67,97.32L374.69,92.95L385.71,86.84L396.73,81.06L407.76,78.29L418.78,72.88L429.8,68.7L440.82,65.11L451.84,59.84L462.86,55.1L473.88,52.82L484.9,46.94L495.92,44.22L506.94,41.78L517.96,37.79L540,30.69" style="vector-effect: non-scaling-stroke; fill: none; stroke: rgb(0, 176, 246); stroke-opacity: 1; stroke-width: 2px; opacity: 1;"/></g><g class="points"/><g class="text"/></g><g class="trace scatter tracec65938" style="stroke-miterlimit: 2; opacity: 1;"><g class="fills"/><g class="errorbars"/><g class="lines"><path class="js-line" d="M0,302.49L11.02,295.67L22.04,294.46L33.06,292.92L44.08,294.01L66.12,291.96L77.14,289.78L88.16,288.84L99.18,287.08L110.2,285.3L121.22,281.07L143.27,268.72L154.29,260.46L165.31,249.79L176.33,237.09L198.37,215.5L209.39,203.53L231.43,182.47L242.45,169.82L253.47,160.73L264.49,152.7L275.51,144.39L286.53,134.89L308.57,119.22L319.59,112.66L330.61,107.12L341.63,99.24L352.65,96.67L363.67,91.92L374.69,86.58L385.71,83.16L396.73,76.66L407.76,72.11L418.78,67.1L429.8,63.28L451.84,57.23L462.86,53.06L473.88,50.11L484.9,45.75L506.94,38.89L517.96,37.69L528.98,32.74L540,31.12" style="vector-effect: non-scaling-stroke; fill: none; stroke: rgb(231, 107, 243); stroke-opacity: 1; stroke-width: 2px; opacity: 1;"/></g><g class="points"/><g class="text"/></g><g class="trace scatter traceaaae71" style="stroke-miterlimit: 2; opacity: 1;"><g class="fills"/><g class="errorbars"/><g class="lines"><path class="js-line" d="M0,303.06L11.02,294.73L22.04,294.83L33.06,294.44L44.08,295.43L99.18,287.67L110.2,284.66L121.22,281.33L132.24,276.88L143.27,271.31L154.29,263.5L165.31,255.39L176.33,245.44L187.35,235.62L198.37,224.31L209.39,211.58L220.41,200.57L242.45,179.14L253.47,169.95L275.51,150.03L286.53,141.75L297.55,134.01L308.57,125.15L319.59,117.84L330.61,112.47L374.69,90.22L385.71,84.01L396.73,80.59L407.76,74.74L429.8,62.88L440.82,60.52L462.86,50.69L473.88,45.41L495.92,39.74L506.94,34.45L517.96,33.27L528.98,30.14L540,26.73" style="vector-effect: non-scaling-stroke; fill: none; stroke: rgb(248, 118, 109); stroke-opacity: 1; stroke-width: 2px; opacity: 1;"/></g><g class="points"/><g class="text"/></g><g class="trace scatter trace64008c" style="stroke-miterlimit: 2; opacity: 1;"><g class="fills"/><g class="errorbars"/><g class="lines"><path class="js-line" d="M0,302.47L11.02,295.72L22.04,294.29L55.1,294.83L66.12,292.68L77.14,290.54L88.16,289.86L110.2,287.86L121.22,282.86L132.24,279.44L143.27,272.57L154.29,266.32L165.31,257.09L176.33,247.39L187.35,236.35L209.39,212.05L220.41,200.95L242.45,178.69L253.47,167.58L264.49,157.44L275.51,149.87L297.55,132.55L308.57,126.48L319.59,117.67L330.61,113.38L341.63,106.25L352.65,102.15L363.67,97.45L374.69,91.63L385.71,87.39L396.73,84.09L440.82,67.3L451.84,63.47L462.86,59.22L473.88,56L495.92,49.99L506.94,45.54L517.96,43.59L528.98,39.46L540,36.41" style="vector-effect: non-scaling-stroke; fill: none; stroke: rgb(163, 165, 0); stroke-opacity: 1; stroke-width: 2px; opacity: 1;"/></g><g class="points"/><g class="text"/></g><g class="trace scatter traceccbf12" style="stroke-miterlimit: 2; opacity: 1;"><g class="fills"/><g class="errorbars"/><g class="lines"><path class="js-line" d="M0,301.91L11.02,296.09L22.04,294.72L33.06,295.14L44.08,293.8L55.1,293.4L66.12,293.85L77.14,292.81L88.16,292.54L121.22,285.67L132.24,282.48L143.27,277.6L154.29,275.62L176.33,262.75L187.35,252.67L198.37,242.69L209.39,234.43L220.41,223.12L231.43,209.04L242.45,194.85L253.47,183.04L264.49,171.71L275.51,162.54L297.55,146.3L308.57,139.87L319.59,132.75L330.61,124.46L341.63,118.28L352.65,115.54L363.67,112.98L374.69,103.64L396.73,98.55L407.76,94.18L418.78,91.54L429.8,87.74L440.82,82L451.84,79.51L462.86,74.7L473.88,72.16L495.92,65.81L506.94,64.37L517.96,61.13L528.98,59.79L540,54.75" style="vector-effect: non-scaling-stroke; fill: none; stroke: rgb(0, 191, 125); stroke-opacity: 1; stroke-width: 2px; opacity: 1;"/></g><g class="points"/><g class="text"/></g><g class="trace scatter trace700560" style="stroke-miterlimit: 2; opacity: 1;"><g class="fills"/><g class="errorbars"/><g class="lines"><path class="js-line" d="M0,302.52L11.02,295.4L22.04,294.37L33.06,293.8L44.08,295.36L55.1,295.56L66.12,293.15L77.14,290.54L88.16,289.1L110.2,284.47L121.22,280.61L132.24,276.89L143.27,270.1L176.33,243.78L187.35,231.7L209.39,208.23L220.41,195.2L264.49,156.09L275.51,145.48L286.53,138.63L297.55,130.25L308.57,122.52L319.59,115.72L330.61,110.7L341.63,104.75L374.69,85.16L385.71,81.55L396.73,76.87L407.76,75.16L440.82,63.6L451.84,60.15L484.9,48.86L495.92,46.21L506.94,42.66L517.96,38.13L540,33.02" style="vector-effect: non-scaling-stroke; fill: none; stroke: rgb(0, 176, 246); stroke-opacity: 1; stroke-width: 2px; opacity: 1;"/></g><g class="points"/><g class="text"/></g><g class="trace scatter traceda090b" style="stroke-miterlimit: 2; opacity: 1;"><g class="fills"/><g class="errorbars"/><g class="lines"><path class="js-line" d="M0,303.63L11.02,295.94L22.04,294.65L44.08,291.75L55.1,291.64L77.14,291.89L88.16,289.37L110.2,287.77L121.22,283.62L132.24,278.31L143.27,272.07L165.31,256.84L176.33,245.2L187.35,235.08L198.37,222.16L209.39,211.61L220.41,199.14L242.45,176.92L253.47,168.34L264.49,157.96L275.51,149.75L286.53,139.18L297.55,132.5L330.61,112.86L341.63,105.82L352.65,100.96L363.67,93.74L418.78,70.6L429.8,65.78L440.82,62.18L451.84,57.26L462.86,53.75L473.88,49.35L484.9,45.03L495.92,42.15L506.94,38.39L517.96,35.78L528.98,33.49L540,29.58" style="vector-effect: non-scaling-stroke; fill: none; stroke: rgb(231, 107, 243); stroke-opacity: 1; stroke-width: 2px; opacity: 1;"/></g><g class="points"/><g class="text"/></g><g class="trace scatter tracedd17c3" style="stroke-miterlimit: 2; opacity: 1;"><g class="fills"/><g class="errorbars"/><g class="lines"><path class="js-line" d="M0,302.54L11.02,294.59L22.04,293.66L33.06,293.91L44.08,292.33L55.1,291.49L66.12,291.93L77.14,293.02L88.16,292.43L99.18,291.21L110.2,291.69L132.24,287.52L143.27,284L176.33,261.44L187.35,251.63L198.37,241.95L209.39,229.54L231.43,211.02L242.45,198.23L264.49,180.57L275.51,173.41L286.53,166.61L297.55,157.13L308.57,150.39L319.59,142.55L330.61,136.79L341.63,130L363.67,117.44L374.69,109.56L396.73,98.9L407.76,92.23L418.78,88.58L429.8,83.75L440.82,78.13L451.84,73.93L462.86,72.14L473.88,67.56L484.9,65.71L495.92,60.52L506.94,53.95L517.96,50.29L528.98,47.14L540,42.45" style="vector-effect: non-scaling-stroke; fill: none; stroke: rgb(248, 118, 109); stroke-opacity: 1; stroke-width: 2px; opacity: 1;"/></g><g class="points"/><g class="text"/></g><g class="trace scatter tracea5c737" style="stroke-miterlimit: 2; opacity: 1;"><g class="fills"/><g class="errorbars"/><g class="lines"><path class="js-line" d="M0,302.86L11.02,295.97L22.04,294.24L33.06,295.06L44.08,293.53L66.12,293.92L77.14,291.63L88.16,288.37L99.18,287.85L110.2,285.06L121.22,281.09L132.24,277.12L143.27,270.93L165.31,253.36L176.33,242.17L187.35,230.25L198.37,217.14L209.39,206.78L220.41,195.38L231.43,182.71L242.45,172.34L286.53,136.48L297.55,130.36L308.57,121.93L319.59,114.65L330.61,108.44L341.63,101.08L352.65,96.76L363.67,90.67L385.71,80.93L396.73,77.39L407.76,76.61L418.78,71.81L429.8,66.93L440.82,63.77L451.84,58.12L462.86,55.9L484.9,48.43L495.92,43.15L506.94,38.8L517.96,38.92L528.98,35.26L540,33.62" style="vector-effect: non-scaling-stroke; fill: none; stroke: rgb(163, 165, 0); stroke-opacity: 1; stroke-width: 2px; opacity: 1;"/></g><g class="points"/><g class="text"/></g><g class="trace scatter trace27e6e6" style="stroke-miterlimit: 2; opacity: 1;"><g class="fills"/><g class="errorbars"/><g class="lines"><path class="js-line" d="M0,303.38L11.02,295.9L22.04,294.44L33.06,295.93L44.08,295.02L55.1,294.16L66.12,294.37L77.14,291.71L88.16,292.21L99.18,291.02L110.2,288.54L121.22,285.39L132.24,280.11L143.27,275.18L154.29,268.56L165.31,261.51L176.33,253.25L220.41,212.13L231.43,198.46L242.45,185.99L253.47,175.65L275.51,157.88L286.53,147.57L297.55,138.32L308.57,130.05L319.59,122.36L330.61,113.23L341.63,107.58L352.65,100.81L363.67,95.1L374.69,91.88L385.71,84.68L396.73,81.73L407.76,76.56L418.78,70.34L440.82,62.77L451.84,58.03L473.88,51.26L484.9,45.31L506.94,37.05L517.96,34.52L540,25.66" style="vector-effect: non-scaling-stroke; fill: none; stroke: rgb(0, 191, 125); stroke-opacity: 1; stroke-width: 2px; opacity: 1;"/></g><g class="points"/><g class="text"/></g><g class="trace scatter trace0bcb4f" style="stroke-miterlimit: 2; opacity: 1;"><g class="fills"/><g class="errorbars"/><g class="lines"><path class="js-line" d="M0,301.52L11.02,296.13L22.04,293.76L44.08,294.6L55.1,295.89L99.18,286.61L110.2,285.39L121.22,281.75L132.24,275.57L143.27,269.62L154.29,260.51L165.31,249.6L176.33,236.98L187.35,223.96L198.37,213.15L209.39,201.32L220.41,191.58L231.43,180.31L242.45,170.77L253.47,162.01L264.49,149.53L286.53,134.13L297.55,126.18L308.57,116.54L319.59,110.16L330.61,102.71L341.63,96.64L363.67,86.25L374.69,80.43L385.71,75.73L396.73,69.99L429.8,57.33L440.82,54.16L462.86,47.23L473.88,44.61L506.94,34.38L517.96,30.44L528.98,27.21L540,25.02" style="vector-effect: non-scaling-stroke; fill: none; stroke: rgb(0, 176, 246); stroke-opacity: 1; stroke-width: 2px; opacity: 1;"/></g><g class="points"/><g class="text"/></g><g class="trace scatter trace5fda92" style="stroke-miterlimit: 2; opacity: 1;"><g class="fills"/><g class="errorbars"/><g class="lines"><path class="js-line" d="M0,302.56L11.02,295.85L22.04,295.15L44.08,293.4L55.1,293.93L66.12,293.67L77.14,291.15L88.16,288.4L99.18,286.64L121.22,283.83L132.24,280.22L143.27,276.59L154.29,272.1L176.33,257.79L187.35,249.52L198.37,241.76L209.39,232.37L220.41,221.45L231.43,213.9L242.45,205.23L253.47,193.41L264.49,184.78L275.51,177.5L297.55,159.72L308.57,152.63L319.59,145.46L330.61,136.23L341.63,127.44L352.65,122.3L363.67,113.81L374.69,107.43L396.73,93.29L407.76,86.94L418.78,83.64L429.8,78.39L451.84,65.57L462.86,60.22L484.9,55.3L495.92,49.88L506.94,46.23L517.96,40.13L540,34.4" style="vector-effect: non-scaling-stroke; fill: none; stroke: rgb(231, 107, 243); stroke-opacity: 1; stroke-width: 2px; opacity: 1;"/></g><g class="points"/><g class="text"/></g><g class="trace scatter traceb8b730" style="stroke-miterlimit: 2; opacity: 1;"><g class="fills"/><g class="errorbars"/><g class="lines"><path class="js-line" d="M0,302.29L11.02,296.12L22.04,293.95L33.06,292.7L44.08,293.57L88.16,290.46L99.18,287.98L110.2,286.9L121.22,283.71L143.27,269.62L154.29,261.34L165.31,252.82L176.33,241.81L198.37,220.33L209.39,207.56L231.43,183.02L242.45,172.42L253.47,163.34L264.49,151.43L275.51,140.85L286.53,131.8L308.57,116.18L319.59,109.82L330.61,102.31L341.63,96.88L352.65,90.8L363.67,87.17L374.69,81.01L385.71,76.81L396.73,72.61L407.76,67.58L418.78,65.47L429.8,61.96L451.84,53.75L462.86,51.2L506.94,35.47L517.96,33.02L528.98,29.57L540,30.31" style="vector-effect: non-scaling-stroke; fill: none; stroke: rgb(248, 118, 109); stroke-opacity: 1; stroke-width: 2px; opacity: 1;"/></g><g class="points"/><g class="text"/></g><g class="trace scatter trace165e3e" style="stroke-miterlimit: 2; opacity: 1;"><g class="fills"/><g class="errorbars"/><g class="lines"><path class="js-line" d="M0,303.14L11.02,295.08L22.04,293.42L44.08,292.32L55.1,293.65L77.14,293.36L88.16,291.04L99.18,287.56L110.2,285.44L121.22,283.2L132.24,279.34L154.29,268.12L165.31,260.95L176.33,249.81L187.35,239.86L198.37,229.54L209.39,217.64L242.45,183.75L253.47,171.89L264.49,162.89L275.51,152.13L286.53,143.25L297.55,135.44L308.57,128.7L319.59,120.31L330.61,113.97L341.63,108.58L352.65,101.19L363.67,96.55L374.69,91.6L385.71,87.61L396.73,84.25L407.76,79.43L418.78,75.85L429.8,70.95L440.82,66.21L451.84,64.93L462.86,62.88L473.88,58.02L484.9,56.16L495.92,53.08L517.96,47.39L528.98,45.47L540,42.96" style="vector-effect: non-scaling-stroke; fill: none; stroke: rgb(163, 165, 0); stroke-opacity: 1; stroke-width: 2px; opacity: 1;"/></g><g class="points"/><g class="text"/></g><g class="trace scatter trace80491e" style="stroke-miterlimit: 2; opacity: 1;"><g class="fills"/><g class="errorbars"/><g class="lines"><path class="js-line" d="M0,302.19L11.02,295.35L22.04,294.27L33.06,294.03L44.08,291.55L66.12,292.96L77.14,291.43L110.2,285.8L121.22,283.51L143.27,274.87L154.29,267.42L187.35,237.17L198.37,225.97L209.39,213.11L220.41,201.69L231.43,189.13L242.45,178.43L253.47,167.33L264.49,158.99L286.53,141.56L297.55,134.14L330.61,114.64L341.63,107.37L352.65,99.22L363.67,94.46L374.69,91.01L385.71,83.35L396.73,80.62L407.76,74.9L429.8,67.13L440.82,62.14L451.84,59.48L462.86,55.68L484.9,49.58L495.92,46.69L506.94,45.36L517.96,36.11L540,33.02" style="vector-effect: non-scaling-stroke; fill: none; stroke: rgb(0, 191, 125); stroke-opacity: 1; stroke-width: 2px; opacity: 1;"/></g><g class="points"/><g class="text"/></g><g class="trace scatter tracec245e4" style="stroke-miterlimit: 2; opacity: 1;"><g class="fills"/><g class="errorbars"/><g class="lines"><path class="js-line" d="M0,302.77L11.02,295.85L22.04,294.54L33.06,293.2L44.08,292.72L55.1,292.63L66.12,293.46L77.14,290.22L88.16,289.07L121.22,281.52L132.24,276.37L143.27,270.21L154.29,261.73L176.33,240.52L187.35,228.17L209.39,203.83L220.41,192.07L231.43,179.36L242.45,169.28L253.47,161.69L264.49,152.32L275.51,142.73L286.53,134.34L308.57,117.99L319.59,111.11L330.61,104.9L341.63,97.55L352.65,92.75L363.67,88.93L374.69,82.78L385.71,79.48L396.73,72.7L407.76,68.69L418.78,64.86L429.8,57.99L440.82,54.07L451.84,48.85L462.86,45.85L473.88,40.83L484.9,36.28L495.92,33.6L540,20" style="vector-effect: non-scaling-stroke; fill: none; stroke: rgb(0, 176, 246); stroke-opacity: 1; stroke-width: 2px; opacity: 1;"/></g><g class="points"/><g class="text"/></g><g class="trace scatter trace811fbd" style="stroke-miterlimit: 2; opacity: 1;"><g class="fills"/><g class="errorbars"/><g class="lines"><path class="js-line" d="M0,301.72L11.02,295.1L22.04,293.8L55.1,294.98L66.12,292.26L77.14,291.32L88.16,288.75L99.18,287.34L110.2,282.79L132.24,273.91L143.27,267.13L154.29,259.98L165.31,248.71L176.33,243.26L187.35,231.28L209.39,209.03L220.41,197.44L231.43,185.11L242.45,177.18L253.47,170.26L264.49,161.13L275.51,152.72L286.53,145.72L297.55,140.06L308.57,132.25L319.59,127.02L330.61,120.76L341.63,116.51L352.65,110.42L363.67,103.81L374.69,99.85L385.71,93.7L396.73,89.22L407.76,86.07L418.78,79.49L429.8,75.32L440.82,72.72L451.84,68.14L462.86,65.51L473.88,63.99L484.9,59.65L495.92,56.19L506.94,55.21L517.96,51.3L528.98,49.07L540,45.62" style="vector-effect: non-scaling-stroke; fill: none; stroke: rgb(231, 107, 243); stroke-opacity: 1; stroke-width: 2px; opacity: 1;"/></g><g class="points"/><g class="text"/></g><g class="trace scatter traced96391" style="stroke-miterlimit: 2; opacity: 1;"><g class="fills"/><g class="errorbars"/><g class="lines"><path class="js-line" d="M0,303.44L11.02,295.72L22.04,293.14L44.08,294.24L55.1,293.32L66.12,292.8L77.14,290.91L88.16,289.72L99.18,287.71L121.22,278.47L132.24,275.49L154.29,259.66L165.31,248.52L176.33,237.29L187.35,224.28L198.37,209.64L209.39,199.81L220.41,190.32L231.43,179.02L242.45,165.89L253.47,159.37L264.49,148.08L275.51,140.07L286.53,132.43L297.55,123.31L319.59,110.38L330.61,102.39L341.63,95.26L352.65,90.99L363.67,86.21L374.69,79.96L385.71,73.9L396.73,69.36L407.76,68.14L418.78,61.83L429.8,58L440.82,53.23L451.84,50.82L462.86,47.49L495.92,37.57L506.94,34.58L517.96,31.04L528.98,29.15L540,26.3" style="vector-effect: non-scaling-stroke; fill: none; stroke: rgb(248, 118, 109); stroke-opacity: 1; stroke-width: 2px; opacity: 1;"/></g><g class="points"/><g class="text"/></g><g class="trace scatter tracec19301" style="stroke-miterlimit: 2; opacity: 1;"><g class="fills"/><g class="errorbars"/><g class="lines"><path class="js-line" d="M0,302.37L11.02,295.49L22.04,293.85L33.06,293.74L44.08,292.48L66.12,292.99L77.14,291.89L88.16,290.06L99.18,287.16L110.2,285.31L121.22,280.37L132.24,276.44L143.27,270.21L154.29,263.18L165.31,253.68L176.33,243.21L187.35,229.97L198.37,218.88L209.39,206.25L231.43,183.1L242.45,171.65L275.51,143.49L286.53,132.5L297.55,125.24L308.57,119.39L330.61,106.05L341.63,99.48L363.67,87.33L374.69,84.28L385.71,77.48L396.73,73.45L407.76,70.25L418.78,62.85L429.8,58.96L440.82,54.11L462.86,47.42L473.88,43.55L484.9,42.01L495.92,37.49L517.96,33.43L528.98,31.52L540,27.33" style="vector-effect: non-scaling-stroke; fill: none; stroke: rgb(163, 165, 0); stroke-opacity: 1; stroke-width: 2px; opacity: 1;"/></g><g class="points"/><g class="text"/></g><g class="trace scatter trace125180" style="stroke-miterlimit: 2; opacity: 1;"><g class="fills"/><g class="errorbars"/><g class="lines"><path class="js-line" d="M0,302.81L11.02,296.02L22.04,294.18L33.06,293.63L44.08,294.5L55.1,294.47L66.12,293.31L77.14,291.71L88.16,291.26L99.18,290.25L110.2,287.48L121.22,282.93L132.24,276.59L143.27,271.82L154.29,265.5L176.33,246.11L187.35,234.05L198.37,223.05L209.39,210.25L220.41,199.41L231.43,185.52L253.47,165.51L264.49,157L297.55,127.52L308.57,119.71L319.59,114.8L330.61,106.41L352.65,96.85L363.67,91.29L385.71,83.75L396.73,77.5L407.76,74.26L418.78,68.9L440.82,64.42L451.84,61.08L462.86,55.7L473.88,51.16L484.9,49.34L495.92,48.72L528.98,36.86L540,35.2" style="vector-effect: non-scaling-stroke; fill: none; stroke: rgb(0, 191, 125); stroke-opacity: 1; stroke-width: 2px; opacity: 1;"/></g><g class="points"/><g class="text"/></g><g class="trace scatter trace816574" style="stroke-miterlimit: 2; opacity: 1;"><g class="fills"/><g class="errorbars"/><g class="lines"><path class="js-line" d="M0,302.41L11.02,296.64L22.04,295.23L44.08,295.21L55.1,296.23L66.12,295.46L77.14,292.42L88.16,289.38L99.18,287.35L110.2,284.82L121.22,280.5L132.24,276.35L143.27,270.98L154.29,263.25L165.31,254.38L176.33,242.62L187.35,232.88L209.39,210.9L220.41,199.69L242.45,181.03L253.47,174.01L264.49,163.4L275.51,155.15L286.53,145.29L297.55,138.73L308.57,133.95L319.59,124.85L330.61,121.52L341.63,116.71L352.65,114.58L363.67,107.34L374.69,102.17L385.71,95.76L396.73,89.29L407.76,88.12L418.78,82.16L429.8,78.62L440.82,74.45L451.84,72.92L462.86,70.76L473.88,66.25L484.9,64.52L495.92,61.35L506.94,59.29L517.96,53.71L528.98,49.72L540,50.52" style="vector-effect: non-scaling-stroke; fill: none; stroke: rgb(0, 176, 246); stroke-opacity: 1; stroke-width: 2px; opacity: 1;"/></g><g class="points"/><g class="text"/></g><g class="trace scatter trace7ec249" style="stroke-miterlimit: 2; opacity: 1;"><g class="fills"/><g class="errorbars"/><g class="lines"><path class="js-line" d="M0,302.68L11.02,295.58L22.04,294.56L33.06,294.59L44.08,295.93L55.1,295.45L66.12,293.38L77.14,293.04L88.16,290.7L99.18,288.92L110.2,283.71L121.22,280.64L132.24,275.87L154.29,260.31L165.31,250.84L198.37,216.34L209.39,204.89L231.43,182.3L242.45,172.17L253.47,160.66L264.49,151.65L286.53,134.3L297.55,126.63L319.59,112.05L330.61,106.85L341.63,99.43L352.65,96.25L363.67,88.5L374.69,85.25L385.71,78.03L396.73,72L418.78,64.93L429.8,62.74L440.82,56.8L451.84,55.77L462.86,51.2L473.88,48.66L495.92,43.17L506.94,38.29L517.96,34.73L528.98,33.03L540,29.75" style="vector-effect: non-scaling-stroke; fill: none; stroke: rgb(231, 107, 243); stroke-opacity: 1; stroke-width: 2px; opacity: 1;"/></g><g class="points"/><g class="text"/></g><g class="trace scatter trace005814" style="stroke-miterlimit: 2; opacity: 1;"><g class="fills"/><g class="errorbars"/><g class="lines"><path class="js-line" d="M0,302.59L11.02,296.42L22.04,295.35L33.06,295L44.08,293.88L55.1,293.98L66.12,292.06L77.14,292.63L88.16,289.9L99.18,289.09L110.2,284.21L121.22,280.94L132.24,275.78L154.29,260.87L165.31,251.03L187.35,228.57L198.37,216.14L231.43,184.55L242.45,175.15L253.47,165.68L264.49,158.18L275.51,146.75L286.53,140.14L297.55,131.41L308.57,124.88L330.61,111.64L341.63,104.42L352.65,98.89L363.67,94.69L385.71,84.37L396.73,80.46L407.76,74.23L418.78,71.65L440.82,63.24L451.84,58.16L473.88,52.08L484.9,46.17L495.92,44.95L506.94,41.11L528.98,37.55L540,34.26" style="vector-effect: non-scaling-stroke; fill: none; stroke: rgb(248, 118, 109); stroke-opacity: 1; stroke-width: 2px; opacity: 1;"/></g><g class="points"/><g class="text"/></g><g class="trace scatter trace06c025" style="stroke-miterlimit: 2; opacity: 1;"><g class="fills"/><g class="errorbars"/><g class="lines"><path class="js-line" d="M0,302.41L11.02,295.12L22.04,293.55L33.06,294.75L44.08,293.33L55.1,293.97L66.12,292.85L88.16,289.88L99.18,289.49L132.24,279.31L143.27,275.04L154.29,267.24L165.31,256.2L176.33,249.54L187.35,238.08L198.37,227.25L209.39,215.14L220.41,204.48L231.43,191.83L253.47,169.62L264.49,159.94L275.51,148.64L286.53,141.62L297.55,132.27L308.57,124.79L319.59,118.28L330.61,110.26L341.63,104.49L352.65,96.27L363.67,91.33L374.69,87.65L385.71,81.11L396.73,78.71L418.78,68.64L429.8,60.79L440.82,57.44L451.84,52.13L462.86,49.92L473.88,43.6L484.9,40.22L495.92,34.64L506.94,32.89L517.96,27.61L528.98,25.87L540,22.94" style="vector-effect: non-scaling-stroke; fill: none; stroke: rgb(163, 165, 0); stroke-opacity: 1; stroke-width: 2px; opacity: 1;"/></g><g class="points"/><g class="text"/></g><g class="trace scatter traceffe62f" style="stroke-miterlimit: 2; opacity: 1;"><g class="fills"/><g class="errorbars"/><g class="lines"><path class="js-line" d="M0,301.65L11.02,295.22L22.04,294.33L33.06,293.47L44.08,294.93L77.14,291.82L88.16,291.32L99.18,288.43L110.2,284.73L121.22,283.02L132.24,279.46L143.27,275.48L154.29,265.64L165.31,257.86L176.33,247.95L209.39,213.04L220.41,203.79L231.43,192.61L242.45,179.8L264.49,161.83L275.51,152.14L286.53,144.37L297.55,135.38L330.61,113.64L341.63,107.34L352.65,102.15L363.67,97.83L396.73,83.32L407.76,78.86L429.8,69.05L440.82,65.8L462.86,57.32L473.88,52.68L528.98,35.96L540,33.35" style="vector-effect: non-scaling-stroke; fill: none; stroke: rgb(0, 191, 125); stroke-opacity: 1; stroke-width: 2px; opacity: 1;"/></g><g class="points"/><g class="text"/></g><g class="trace scatter trace05b116" style="stroke-miterlimit: 2; opacity: 1;"><g class="fills"/><g class="errorbars"/><g class="lines"><path class="js-line" d="M0,303.83L11.02,296.67L22.04,295.46L44.08,296.44L55.1,294.08L66.12,293.06L77.14,290.1L88.16,289.98L99.18,288.2L121.22,283.52L132.24,280.47L143.27,275.72L154.29,269.95L165.31,263.41L176.33,252.96L187.35,245.44L198.37,234.26L220.41,214.35L231.43,202.93L264.49,175.25L275.51,164.72L286.53,156.24L297.55,149.02L308.57,140.85L319.59,133.79L374.69,103.06L385.71,97.83L396.73,91.5L407.76,87.06L429.8,75.5L440.82,71.39L451.84,67.37L462.86,61.56L495.92,53.52L506.94,49.62L517.96,45.81L528.98,43.12L540,39.68" style="vector-effect: non-scaling-stroke; fill: none; stroke: rgb(0, 176, 246); stroke-opacity: 1; stroke-width: 2px; opacity: 1;"/></g><g class="points"/><g class="text"/></g><g class="trace scatter traced99895" style="stroke-miterlimit: 2; opacity: 1;"><g class="fills"/><g class="errorbars"/><g class="lines"><path class="js-line" d="M0,302.41L11.02,295.86L22.04,294.1L33.06,293.38L44.08,291.15L55.1,290.99L66.12,292.05L77.14,291.9L88.16,290.29L99.18,288.85L110.2,286.33L132.24,277.33L143.27,271.85L154.29,265.2L165.31,255.37L176.33,245.97L187.35,234.7L198.37,223.82L209.39,211.46L231.43,188.2L242.45,178.01L264.49,156.97L275.51,148.51L286.53,139.38L297.55,131.69L308.57,123.12L319.59,115.7L330.61,108.37L341.63,103.49L352.65,96.81L363.67,91.32L396.73,76.73L407.76,71.59L418.78,67.17L429.8,61.33L440.82,57.38L451.84,51.89L473.88,43.35L484.9,40.82L506.94,32.39L517.96,28.14L540,22.91" style="vector-effect: non-scaling-stroke; fill: none; stroke: rgb(231, 107, 243); stroke-opacity: 1; stroke-width: 2px; opacity: 1;"/></g><g class="points"/><g class="text"/></g></g></g><g class="overplot"/><path class="xlines-above crisp" d="" style="fill: none; stroke-width: 1px; stroke: rgb(0, 0, 0); stroke-opacity: 0;"/><path class="ylines-above crisp" d="" style="fill: none; stroke-width: 1px; stroke: rgb(0, 0, 0); stroke-opacity: 0;"/><g class="overlines-above"/><g class="xaxislayer-above"><path class="xtick ticks crisp" d="M0,421v5" transform="translate(80,0)" style="stroke: rgb(51, 51, 51); stroke-opacity: 1; stroke-width: 1px;"/><path class="xtick ticks crisp" d="M0,421v5" transform="translate(190.2,0)" style="stroke: rgb(51, 51, 51); stroke-opacity: 1; stroke-width: 1px;"/><path class="xtick ticks crisp" d="M0,421v5" transform="translate(300.40999999999997,0)" style="stroke: rgb(51, 51, 51); stroke-opacity: 1; stroke-width: 1px;"/><path class="xtick ticks crisp" d="M0,421v5" transform="translate(410.61,0)" style="stroke: rgb(51, 51, 51); stroke-opacity: 1; stroke-width: 1px;"/><path class="xtick ticks crisp" d="M0,421v5" transform="translate(520.8199999999999,0)" style="stroke: rgb(51, 51, 51); stroke-opacity: 1; stroke-width: 1px;"/><g class="xtick"><text text-anchor="middle" x="0" y="440.4" transform="translate(80,0)" style="font-family: 'Open Sans', verdana, arial, sans-serif; font-size: 12px; fill: rgb(51, 51, 51); fill-opacity: 1; white-space: pre; opacity: 1;">0</text></g><g class="xtick"><text text-anchor="middle" x="0" y="440.4" style="font-family: 'Open Sans', verdana, arial, sans-serif; font-size: 12px; fill: rgb(51, 51, 51); fill-opacity: 1; white-space: pre; opacity: 1;" transform="translate(190.2,0)">10</text></g><g class="xtick"><text text-anchor="middle" x="0" y="440.4" style="font-family: 'Open Sans', verdana, arial, sans-serif; font-size: 12px; fill: rgb(51, 51, 51); fill-opacity: 1; white-space: pre; opacity: 1;" transform="translate(300.40999999999997,0)">20</text></g><g class="xtick"><text text-anchor="middle" x="0" y="440.4" style="font-family: 'Open Sans', verdana, arial, sans-serif; font-size: 12px; fill: rgb(51, 51, 51); fill-opacity: 1; white-space: pre; opacity: 1;" transform="translate(410.61,0)">30</text></g><g class="xtick"><text text-anchor="middle" x="0" y="440.4" style="font-family: 'Open Sans', verdana, arial, sans-serif; font-size: 12px; fill: rgb(51, 51, 51); fill-opacity: 1; white-space: pre; opacity: 1;" transform="translate(520.8199999999999,0)">40</text></g></g><g class="yaxislayer-above"><path class="ytick ticks crisp" d="M79,0h-5" transform="translate(0,405.68)" style="stroke: rgb(51, 51, 51); stroke-opacity: 1; stroke-width: 1px;"/><path class="ytick ticks crisp" d="M79,0h-5" transform="translate(0,369.05)" style="stroke: rgb(51, 51, 51); stroke-opacity: 1; stroke-width: 1px;"/><path class="ytick ticks crisp" d="M79,0h-5" transform="translate(0,332.43)" style="stroke: rgb(51, 51, 51); stroke-opacity: 1; stroke-width: 1px;"/><path class="ytick ticks crisp" d="M79,0h-5" transform="translate(0,295.81)" style="stroke: rgb(51, 51, 51); stroke-opacity: 1; stroke-width: 1px;"/><path class="ytick ticks crisp" d="M79,0h-5" transform="translate(0,259.19)" style="stroke: rgb(51, 51, 51); stroke-opacity: 1; stroke-width: 1px;"/><path class="ytick ticks crisp" d="M79,0h-5" transform="translate(0,222.56)" style="stroke: rgb(51, 51, 51); stroke-opacity: 1; stroke-width: 1px;"/><path class="ytick ticks crisp" d="M79,0h-5" transform="translate(0,185.94)" style="stroke: rgb(51, 51, 51); stroke-opacity: 1; stroke-width: 1px;"/><path class="ytick ticks crisp" d="M79,0h-5" transform="translate(0,149.32)" style="stroke: rgb(51, 51, 51); stroke-opacity: 1; stroke-width: 1px;"/><path class="ytick ticks crisp" d="M79,0h-5" transform="translate(0,112.7)" style="stroke: rgb(51, 51, 51); stroke-opacity: 1; stroke-width: 1px;"/><g class="ytick"><text text-anchor="end" x="71.6" y="4.199999999999999" transform="translate(0,405.68)" style="font-family: 'Open Sans', verdana, arial, sans-serif; font-size: 12px; fill: rgb(51, 51, 51); fill-opacity: 1; white-space: pre; opacity: 1;">0.25</text></g><g class="ytick"><text text-anchor="end" x="71.6" y="4.199999999999999" style="font-family: 'Open Sans', verdana, arial, sans-serif; font-size: 12px; fill: rgb(51, 51, 51); fill-opacity: 1; white-space: pre; opacity: 1;" transform="translate(0,369.05)">0.3</text></g><g class="ytick"><text text-anchor="end" x="71.6" y="4.199999999999999" style="font-family: 'Open Sans', verdana, arial, sans-serif; font-size: 12px; fill: rgb(51, 51, 51); fill-opacity: 1; white-space: pre; opacity: 1;" transform="translate(0,332.43)">0.35</text></g><g class="ytick"><text text-anchor="end" x="71.6" y="4.199999999999999" style="font-family: 'Open Sans', verdana, arial, sans-serif; font-size: 12px; fill: rgb(51, 51, 51); fill-opacity: 1; white-space: pre; opacity: 1;" transform="translate(0,295.81)">0.4</text></g><g class="ytick"><text text-anchor="end" x="71.6" y="4.199999999999999" style="font-family: 'Open Sans', verdana, arial, sans-serif; font-size: 12px; fill: rgb(51, 51, 51); fill-opacity: 1; white-space: pre; opacity: 1;" transform="translate(0,259.19)">0.45</text></g><g class="ytick"><text text-anchor="end" x="71.6" y="4.199999999999999" style="font-family: 'Open Sans', verdana, arial, sans-serif; font-size: 12px; fill: rgb(51, 51, 51); fill-opacity: 1; white-space: pre; opacity: 1;" transform="translate(0,222.56)">0.5</text></g><g class="ytick"><text text-anchor="end" x="71.6" y="4.199999999999999" style="font-family: 'Open Sans', verdana, arial, sans-serif; font-size: 12px; fill: rgb(51, 51, 51); fill-opacity: 1; white-space: pre; opacity: 1;" transform="translate(0,185.94)">0.55</text></g><g class="ytick"><text text-anchor="end" x="71.6" y="4.199999999999999" style="font-family: 'Open Sans', verdana, arial, sans-serif; font-size: 12px; fill: rgb(51, 51, 51); fill-opacity: 1; white-space: pre; opacity: 1;" transform="translate(0,149.32)">0.6</text></g><g class="ytick"><text text-anchor="end" x="71.6" y="4.199999999999999" style="font-family: 'Open Sans', verdana, arial, sans-serif; font-size: 12px; fill: rgb(51, 51, 51); fill-opacity: 1; white-space: pre; opacity: 1;" transform="translate(0,112.7)">0.65</text></g></g><g class="overaxes-above"/></g></g><g class="polarlayer"/><g class="ternarylayer"/><g class="geolayer"/><g class="funnelarealayer"/><g class="pielayer"/><g class="iciclelayer"/><g class="treemaplayer"/><g class="sunburstlayer"/><g class="glimages"/><defs id="topdefs-bd30e1"><g class="clips"/></defs><g class="layer-above"><g class="imagelayer"/><g class="shapelayer"/></g><g class="infolayer"><g class="g-gtitle"><text class="gtitle" x="350" y="50" text-anchor="middle" dy="0em" style="font-family: 'Open Sans', verdana, arial, sans-serif; font-size: 17px; fill: rgb(51, 51, 51); opacity: 1; font-weight: normal; white-space: pre;">Train Accuracy: ascad_v1_vk_0_noisy-aisy_mlp_hw (original)</text></g><g class="g-xtitle"/><g class="g-ytitle"/></g></svg>