<svg class="main-svg" xmlns="http://www.w3.org/2000/svg" xmlns:xlink="http://www.w3.org/1999/xlink" width="700" height="500" style="" viewBox="0 0 700 500"><rect x="0" y="0" width="700" height="500" style="fill: rgb(255, 255, 255); fill-opacity: 1;"/><defs id="defs-b4127f"><g class="clips"><clipPath id="clipb4127fxyplot" class="plotclip"><rect width="540" height="320"/></clipPath><clipPath class="axesclip" id="clipb4127fx"><rect x="80" y="0" width="540" height="500"/></clipPath><clipPath class="axesclip" id="clipb4127fy"><rect x="0" y="100" width="700" height="320"/></clipPath><clipPath class="axesclip" id="clipb4127fxy"><rect x="80" y="100" width="540" height="320"/></clipPath></g><g class="gradients"/><g class="patterns"/></defs><g class="bglayer"><rect class="bg" x="80" y="100" width="540" height="320" style="fill: rgb(237, 237, 237); fill-opacity: 1; stroke-width: 0;"/></g><g class="layer-below"><g class="imagelayer"/><g class="shapelayer"/></g><g class="cartesianlayer"><g class="subplot xy"><g class="layer-subplot"><g class="shapelayer"/><g class="imagelayer"/></g><g class="gridlayer"><g class="x"><path class="xgrid crisp" transform="translate(190.2,0)" d="M0,100v320" style="stroke: rgb(255, 255, 255); stroke-opacity: 1; stroke-width: 1px;"/><path class="xgrid crisp" transform="translate(300.40999999999997,0)" d="M0,100v320" style="stroke: rgb(255, 255, 255); stroke-opacity: 1; stroke-width: 1px;"/><path class="xgrid crisp" transform="translate(410.61,0)" d="M0,100v320" style="stroke: rgb(255, 255, 255); stroke-opacity: 1; stroke-width: 1px;"/><path class="xgrid crisp" transform="translate(520.8199999999999,0)" d="M0,100v320" style="stroke: rgb(255, 255, 255); stroke-opacity: 1; stroke-width: 1px;"/></g><g class="y"><path class="ygrid crisp" transform="translate(0,359.15)" d="M80,0h540" style="stroke: rgb(255, 255, 255); stroke-opacity: 1; stroke-width: 1px;"/><path class="ygrid crisp" transform="translate(0,314.09000000000003)" d="M80,0h540" style="stroke: rgb(255, 255, 255); stroke-opacity: 1; stroke-width: 1px;"/><path class="ygrid crisp" transform="translate(0,269.03)" d="M80,0h540" style="stroke: rgb(255, 255, 255); stroke-opacity: 1; stroke-width: 1px;"/><path class="ygrid crisp" transform="translate(0,223.97)" d="M80,0h540" style="stroke: rgb(255, 255, 255); stroke-opacity: 1; stroke-width: 1px;"/><path class="ygrid crisp" transform="translate(0,178.91)" d="M80,0h540" style="stroke: rgb(255, 255, 255); stroke-opacity: 1; stroke-width: 1px;"/><path class="ygrid crisp" transform="translate(0,133.85)" d="M80,0h540" style="stroke: rgb(255, 255, 255); stroke-opacity: 1; stroke-width: 1px;"/></g></g><g class="zerolinelayer"><path class="xzl zl crisp" transform="translate(80,0)" d="M0,100v320" style="stroke: rgb(255, 255, 255); stroke-opacity: 1; stroke-width: 1px;"/><path class="yzl zl crisp" transform="translate(0,404.21)" d="M80,0h540" style="stroke: rgb(255, 255, 255); stroke-opacity: 1; stroke-width: 1px;"/></g><path class="xlines-below"/><path class="ylines-below"/><g class="overlines-below"/><g class="xaxislayer-below"/><g class="yaxislayer-below"/><g class="overaxes-below"/><g class="plot" transform="translate(80,100)" clip-path="url(#clipb4127fxyplot)"><g class="scatterlayer mlayer"><g class="trace scatter traced66347" style="stroke-miterlimit: 2; opacity: 1;"><g class="fills"/><g class="errorbars"/><g class="lines"><path class="js-line" d="M0,303.8L44.08,303.81L55.1,302.55L77.14,303.81L88.16,303.82L297.55,303.93L308.57,303.93L517.96,303.99L528.98,303.29L540,303.96" style="vector-effect: non-scaling-stroke; fill: none; stroke: rgb(248, 118, 109); stroke-opacity: 1; stroke-width: 2px; opacity: 1;"/></g><g class="points"/><g class="text"/></g><g class="trace scatter trace151d22" style="stroke-miterlimit: 2; opacity: 1;"><g class="fills"/><g class="errorbars"/><g class="lines"><path class="js-line" d="M0,303.8L55.1,303.81L66.12,302.47L77.14,303.81L88.16,303.59L121.22,303.78L132.24,301.08L143.27,301.05L154.29,303.72L165.31,300.77L176.33,299.02L187.35,303.84L198.37,295.46L209.39,303.83L220.41,287.98L231.43,303.78L242.45,303.75L253.47,302.87L264.49,303.89L275.51,285.31L286.53,303.76L297.55,303.9L308.57,301.09L319.59,303.92L330.61,293.37L341.63,303.85L352.65,303.7L396.73,303.85L407.76,294.88L418.78,303.83L429.8,303.92L540,303.89" style="vector-effect: non-scaling-stroke; fill: none; stroke: rgb(163, 165, 0); stroke-opacity: 1; stroke-width: 2px; opacity: 1;"/></g><g class="points"/><g class="text"/></g><g class="trace scatter trace235028" style="stroke-miterlimit: 2; opacity: 1;"><g class="fills"/><g class="errorbars"/><g class="lines"><path class="js-line" d="M0,303.8L77.14,303.81L88.16,299.7L99.18,302.45L110.2,303.82L121.22,303.82L132.24,291.54L143.27,303.17L154.29,302.7L165.31,303.82L176.33,302.63L187.35,301.37L198.37,303.82L264.49,303.27L275.51,300.55L286.53,303.77L297.55,301.44L308.57,303.77L319.59,303.62L352.65,303.92L363.67,303.92L374.69,303.59L385.71,301.84L396.73,303.92L407.76,303.8L429.8,303.7L440.82,264.49L451.84,303.89L462.86,303.87L473.88,303.95L484.9,302.33L506.94,303.43L517.96,302.29L528.98,303.92L540,281.79" style="vector-effect: non-scaling-stroke; fill: none; stroke: rgb(0, 191, 125); stroke-opacity: 1; stroke-width: 2px; opacity: 1;"/></g><g class="points"/><g class="text"/></g><g class="trace scatter tracecb2715" style="stroke-miterlimit: 2; opacity: 1;"><g class="fills"/><g class="errorbars"/><g class="lines"><path class="js-line" d="M0,303.8L66.12,303.81L77.14,302.69L88.16,302.86L99.18,303.82L110.2,303.82L121.22,300.8L132.24,303.82L143.27,303.84L154.29,303.4L165.31,303.85L451.84,303.77L462.86,302.63L473.88,303.91L484.9,303.78L540,303.97" style="vector-effect: non-scaling-stroke; fill: none; stroke: rgb(0, 176, 246); stroke-opacity: 1; stroke-width: 2px; opacity: 1;"/></g><g class="points"/><g class="text"/></g><g class="trace scatter trace4dc0cd" style="stroke-miterlimit: 2; opacity: 1;"><g class="fills"/><g class="errorbars"/><g class="lines"><path class="js-line" d="M0,303.8L88.16,303.82L99.18,302.82L110.2,303.82L121.22,303L132.24,303.78L143.27,273.18L154.29,303.84L165.31,302.77L176.33,303.86L187.35,298.32L198.37,303.28L209.39,303.85L220.41,301.12L231.43,303.61L275.51,303.77L286.53,303.29L297.55,303.9L308.57,256.25L319.59,303.6L330.61,303.93L341.63,303.93L352.65,302.95L363.67,303.95L374.69,303.96L418.78,303.97L429.8,303.92L440.82,302.85L451.84,303.89L506.94,303.99L517.96,249.94L528.98,303.98L540,303.98" style="vector-effect: non-scaling-stroke; fill: none; stroke: rgb(231, 107, 243); stroke-opacity: 1; stroke-width: 2px; opacity: 1;"/></g><g class="points"/><g class="text"/></g><g class="trace scatter trace9901b0" style="stroke-miterlimit: 2; opacity: 1;"><g class="fills"/><g class="errorbars"/><g class="lines"><path class="js-line" d="M0,303.8L66.12,303.81L77.14,299.22L88.16,303.8L99.18,303.77L110.2,303.82L121.22,296.26L132.24,303.55L143.27,303.83L297.55,303.93L308.57,300.96L319.59,303.89L330.61,303.94L341.63,303.33L352.65,303.92L429.8,303.91L440.82,303.14L451.84,303.97L462.86,303.16L473.88,303.98L484.9,303.98L540,303.98" style="vector-effect: non-scaling-stroke; fill: none; stroke: rgb(248, 118, 109); stroke-opacity: 1; stroke-width: 2px; opacity: 1;"/></g><g class="points"/><g class="text"/></g><g class="trace scatter trace9bb213" style="stroke-miterlimit: 2; opacity: 1;"><g class="fills"/><g class="errorbars"/><g class="lines"><path class="js-line" d="M0,303.8L132.24,303.83L143.27,303.84L319.59,303.91L330.61,302.74L341.63,303.9L352.65,302.57L363.67,303.91L374.69,301.45L385.71,301.57L396.73,303.72L528.98,303.88L540,301.95" style="vector-effect: non-scaling-stroke; fill: none; stroke: rgb(163, 165, 0); stroke-opacity: 1; stroke-width: 2px; opacity: 1;"/></g><g class="points"/><g class="text"/></g><g class="trace scatter trace4ec870" style="stroke-miterlimit: 2; opacity: 1;"><g class="fills"/><g class="errorbars"/><g class="lines"><path class="js-line" d="M0,303.8L22.04,303.75L33.06,302.68L44.08,303.66L55.1,301.18L66.12,303.81L77.14,303.81L99.18,303.82L110.2,289.2L121.22,303.83L132.24,303.83L165.31,303.85L176.33,302.34L187.35,303.86L198.37,303.87L341.63,303.94L352.65,302.67L363.67,303.9L374.69,303.32L396.73,303.95L407.76,303.96L429.8,303.97L440.82,297.39L451.84,303.43L462.86,302.2L473.88,303.77L484.9,303.25L517.96,303.96L528.98,302.81L540,303.96" style="vector-effect: non-scaling-stroke; fill: none; stroke: rgb(0, 191, 125); stroke-opacity: 1; stroke-width: 2px; opacity: 1;"/></g><g class="points"/><g class="text"/></g><g class="trace scatter traceb5c7af" style="stroke-miterlimit: 2; opacity: 1;"><g class="fills"/><g class="errorbars"/><g class="lines"><path class="js-line" d="M0,303.8L121.22,303.82L132.24,300.53L143.27,303.82L154.29,300.41L165.31,303.83L176.33,303.8L275.51,303.89L286.53,303.51L297.55,303.83L308.57,301.19L319.59,303.92L330.61,303.91L352.65,303.95L363.67,274.71L374.69,303.1L385.71,290.94L396.73,303.96L407.76,303.94L429.8,303.93L440.82,303.79L451.84,303.71L462.86,302.48L473.88,303.98L484.9,303.88L495.92,302.94L506.94,303.17L517.96,303.99L528.98,303.99L540,300.65" style="vector-effect: non-scaling-stroke; fill: none; stroke: rgb(0, 176, 246); stroke-opacity: 1; stroke-width: 2px; opacity: 1;"/></g><g class="points"/><g class="text"/></g><g class="trace scatter traceb8a071" style="stroke-miterlimit: 2; opacity: 1;"><g class="fills"/><g class="errorbars"/><g class="lines"><path class="js-line" d="M0,303.8L66.12,303.79L77.14,299.32L88.16,303.8L99.18,303.31L121.22,303.82L132.24,303.82L242.45,303.9L253.47,303.07L264.49,303.91L275.51,303.92L429.8,303.91L440.82,301.58L451.84,303.96L462.86,303.95L506.94,303.98L517.96,302.69L528.98,303.49L540,302.43" style="vector-effect: non-scaling-stroke; fill: none; stroke: rgb(231, 107, 243); stroke-opacity: 1; stroke-width: 2px; opacity: 1;"/></g><g class="points"/><g class="text"/></g><g class="trace scatter trace666027" style="stroke-miterlimit: 2; opacity: 1;"><g class="fills"/><g class="errorbars"/><g class="lines"><path class="js-line" d="M0,303.8L132.24,303.66L143.27,289.63L154.29,303.69L165.31,303.83L374.69,303.95L385.71,301.93L396.73,303.93L407.76,303.95L429.8,303.96L440.82,296.81L451.84,303.96L462.86,303.96L540,303.98" style="vector-effect: non-scaling-stroke; fill: none; stroke: rgb(248, 118, 109); stroke-opacity: 1; stroke-width: 2px; opacity: 1;"/></g><g class="points"/><g class="text"/></g><g class="trace scatter traced0be16" style="stroke-miterlimit: 2; opacity: 1;"><g class="fills"/><g class="errorbars"/><g class="lines"><path class="js-line" d="M0,303.8L55.1,303.79L66.12,298.73L77.14,303.81L88.16,303.82L132.24,303.83L143.27,299.26L154.29,302L165.31,303.81L176.33,295.24L187.35,303.78L198.37,302.15L209.39,303.76L297.55,303.89L308.57,303.31L330.61,303.93L341.63,303.93L352.65,303.51L363.67,298.89L374.69,295.29L385.71,303.88L451.84,303.66L462.86,302.74L473.88,303.95L484.9,303.96L528.98,303.98L540,303.05" style="vector-effect: non-scaling-stroke; fill: none; stroke: rgb(163, 165, 0); stroke-opacity: 1; stroke-width: 2px; opacity: 1;"/></g><g class="points"/><g class="text"/></g><g class="trace scatter trace9c346f" style="stroke-miterlimit: 2; opacity: 1;"><g class="fills"/><g class="errorbars"/><g class="lines"><path class="js-line" d="M0,303.8L154.29,303.77L165.31,277.94L176.33,303.85L187.35,303.86L242.45,303.9L253.47,300.07L264.49,303.91L275.51,303.75L308.57,303.91L319.59,303.56L341.63,303.94L352.65,298.05L363.67,303.88L374.69,303.95L429.8,303.72L440.82,293.93L451.84,303.61L462.86,303.97L473.88,296.56L484.9,303.82L495.92,303.87L506.94,301.14L517.96,303.88L528.98,303.51L540,284.22" style="vector-effect: non-scaling-stroke; fill: none; stroke: rgb(0, 191, 125); stroke-opacity: 1; stroke-width: 2px; opacity: 1;"/></g><g class="points"/><g class="text"/></g><g class="trace scatter trace16521b" style="stroke-miterlimit: 2; opacity: 1;"><g class="fills"/><g class="errorbars"/><g class="lines"><path class="js-line" d="M0,303.8L44.08,303.77L55.1,298.69L66.12,302.58L77.14,303.8L121.22,303.83L132.24,302.37L143.27,303.83L154.29,303.84L176.33,303.85L187.35,301.32L198.37,303.86L209.39,303.88L506.94,303.97L517.96,298.87L528.98,303.89L540,303.95" style="vector-effect: non-scaling-stroke; fill: none; stroke: rgb(0, 176, 246); stroke-opacity: 1; stroke-width: 2px; opacity: 1;"/></g><g class="points"/><g class="text"/></g><g class="trace scatter tracee0af97" style="stroke-miterlimit: 2; opacity: 1;"><g class="fills"/><g class="errorbars"/><g class="lines"><path class="js-line" d="M0,303.8L44.08,303.35L55.1,303.01L66.12,303.8L77.14,303.81L88.16,303.23L99.18,303.82L143.27,303.75L154.29,301.51L165.31,303.83L176.33,303.84L187.35,302.11L198.37,303.7L242.45,303.9L253.47,303.5L275.51,303.92L286.53,303.91L297.55,293.18L308.57,303.93L352.65,303.95L363.67,263.71L374.69,303.93L385.71,303.96L462.86,303.49L473.88,302.4L484.9,303.98L495.92,303.91L506.94,302.51L517.96,303.02L528.98,301.83L540,303.98" style="vector-effect: non-scaling-stroke; fill: none; stroke: rgb(231, 107, 243); stroke-opacity: 1; stroke-width: 2px; opacity: 1;"/></g><g class="points"/><g class="text"/></g><g class="trace scatter trace1376dd" style="stroke-miterlimit: 2; opacity: 1;"><g class="fills"/><g class="errorbars"/><g class="lines"><path class="js-line" d="M0,303.8L209.39,303.73L220.41,303.89L540,303.99" style="vector-effect: non-scaling-stroke; fill: none; stroke: rgb(248, 118, 109); stroke-opacity: 1; stroke-width: 2px; opacity: 1;"/></g><g class="points"/><g class="text"/></g><g class="trace scatter trace031e02" style="stroke-miterlimit: 2; opacity: 1;"><g class="fills"/><g class="errorbars"/><g class="lines"><path class="js-line" d="M0,303.8L297.55,303.42L308.57,302.76L319.59,303.85L330.61,303.93L341.63,297.72L352.65,302.01L363.67,303.56L374.69,303.73L418.78,303.95L429.8,300.33L440.82,303.88L451.84,303.91L462.86,16L473.88,296.15L484.9,253.61L495.92,285.6L506.94,303.61L517.96,301.24L528.98,303.89L540,301.72" style="vector-effect: non-scaling-stroke; fill: none; stroke: rgb(163, 165, 0); stroke-opacity: 1; stroke-width: 2px; opacity: 1;"/></g><g class="points"/><g class="text"/></g><g class="trace scatter tracec13a8d" style="stroke-miterlimit: 2; opacity: 1;"><g class="fills"/><g class="errorbars"/><g class="lines"><path class="js-line" d="M0,303.8L220.41,303.89L231.43,300.26L242.45,303.9L253.47,303.91L440.82,303.97L451.84,302.84L462.86,303.89L473.88,303L484.9,303.82L495.92,303.73L517.96,303.9L528.98,303.97L540,303.99" style="vector-effect: non-scaling-stroke; fill: none; stroke: rgb(0, 191, 125); stroke-opacity: 1; stroke-width: 2px; opacity: 1;"/></g><g class="points"/><g class="text"/></g><g class="trace scatter trace9c5a9b" style="stroke-miterlimit: 2; opacity: 1;"><g class="fills"/><g class="errorbars"/><g class="lines"><path class="js-line" d="M0,303.8L110.2,303.81L121.22,302.64L132.24,303.82L143.27,303.75L176.33,303.45L187.35,303.8L198.37,303.78L209.39,301.89L220.41,303.88L231.43,303.89L242.45,303.89L253.47,302.8L264.49,303.89L275.51,303.91L528.98,303.97L540,303.28" style="vector-effect: non-scaling-stroke; fill: none; stroke: rgb(0, 176, 246); stroke-opacity: 1; stroke-width: 2px; opacity: 1;"/></g><g class="points"/><g class="text"/></g><g class="trace scatter trace9ce38e" style="stroke-miterlimit: 2; opacity: 1;"><g class="fills"/><g class="errorbars"/><g class="lines"><path class="js-line" d="M0,303.8L66.12,303.81L77.14,299.72L88.16,303.76L99.18,303.82L374.69,303.96L385.71,303.01L396.73,303.96L407.76,303.96L484.9,303.58L495.92,300.97L506.94,303.85L517.96,303.7L540,303.93" style="vector-effect: non-scaling-stroke; fill: none; stroke: rgb(231, 107, 243); stroke-opacity: 1; stroke-width: 2px; opacity: 1;"/></g><g class="points"/><g class="text"/></g><g class="trace scatter tracee64b96" style="stroke-miterlimit: 2; opacity: 1;"><g class="fills"/><g class="errorbars"/><g class="lines"><path class="js-line" d="M0,303.8L44.08,303.58L55.1,302.85L66.12,303.81L77.14,303.81L253.47,303.91L264.49,302.62L275.51,303.92L286.53,303.93L319.59,303.28L330.61,302.99L341.63,303.85L352.65,303.71L374.69,303.96L385.71,299.51L396.73,303.94L407.76,303.97L440.82,303.97L451.84,303.06L462.86,303.98L473.88,303.77L495.92,303.99L506.94,303.94L540,304" style="vector-effect: non-scaling-stroke; fill: none; stroke: rgb(248, 118, 109); stroke-opacity: 1; stroke-width: 2px; opacity: 1;"/></g><g class="points"/><g class="text"/></g><g class="trace scatter trace2904ae" style="stroke-miterlimit: 2; opacity: 1;"><g class="fills"/><g class="errorbars"/><g class="lines"><path class="js-line" d="M0,303.8L132.24,303.82L143.27,299.55L154.29,303.8L165.31,303.43L198.37,303.87L209.39,302.75L220.41,303.88L231.43,303.88L253.47,303.76L264.49,299.49L275.51,303.9L286.53,303.78L297.55,303.84L308.57,301.99L319.59,301.11L330.61,303.79L341.63,297.71L352.65,276.25L363.67,303.93L374.69,303.71L407.76,303.7L418.78,302.96L429.8,303.95L440.82,303.93L484.9,303.67L495.92,285.92L506.94,303.96L517.96,245.67L528.98,303.92L540,303.39" style="vector-effect: non-scaling-stroke; fill: none; stroke: rgb(163, 165, 0); stroke-opacity: 1; stroke-width: 2px; opacity: 1;"/></g><g class="points"/><g class="text"/></g><g class="trace scatter trace3f3be4" style="stroke-miterlimit: 2; opacity: 1;"><g class="fills"/><g class="errorbars"/><g class="lines"><path class="js-line" d="M0,303.8L99.18,303.82L110.2,301.03L121.22,303.83L132.24,303.83L165.31,303.85L176.33,303.86L385.71,303.92L396.73,299.8L407.76,303.92L418.78,303.91L517.96,303.94L528.98,302.62L540,303.82" style="vector-effect: non-scaling-stroke; fill: none; stroke: rgb(0, 191, 125); stroke-opacity: 1; stroke-width: 2px; opacity: 1;"/></g><g class="points"/><g class="text"/></g><g class="trace scatter tracef7390c" style="stroke-miterlimit: 2; opacity: 1;"><g class="fills"/><g class="errorbars"/><g class="lines"><path class="js-line" d="M0,303.8L55.1,303.81L66.12,302.52L77.14,303.81L88.16,303.81L110.2,303.82L121.22,302.76L143.27,303.83L154.29,303.82L253.47,303.87L264.49,301.15L275.51,303.8L286.53,303.89L352.65,303.95L363.67,302.46L374.69,303.9L385.71,303.96L540,304" style="vector-effect: non-scaling-stroke; fill: none; stroke: rgb(0, 176, 246); stroke-opacity: 1; stroke-width: 2px; opacity: 1;"/></g><g class="points"/><g class="text"/></g><g class="trace scatter trace78af7b" style="stroke-miterlimit: 2; opacity: 1;"><g class="fills"/><g class="errorbars"/><g class="lines"><path class="js-line" d="M0,303.8L44.08,303.81L55.1,302.66L66.12,303.79L77.14,303.78L231.43,303.4L242.45,301.07L253.47,303.22L264.49,303.39L297.55,303.77L308.57,303.9L319.59,303.85L330.61,302.98L341.63,303.86L352.65,303.64L385.71,303.91L396.73,303.84L418.78,303.9L429.8,303.95L484.9,303.98L495.92,303.09L506.94,303.97L517.96,303.93L540,303.89" style="vector-effect: non-scaling-stroke; fill: none; stroke: rgb(231, 107, 243); stroke-opacity: 1; stroke-width: 2px; opacity: 1;"/></g><g class="points"/><g class="text"/></g><g class="trace scatter trace6557ae" style="stroke-miterlimit: 2; opacity: 1;"><g class="fills"/><g class="errorbars"/><g class="lines"><path class="js-line" d="M0,303.8L297.55,303.87L308.57,216.79L319.59,303.26L330.61,303.94L341.63,303.52L352.65,282.15L363.67,303.94L374.69,303.84L440.82,303.96L451.84,302.49L462.86,303.96L473.88,303.83L540,303.94" style="vector-effect: non-scaling-stroke; fill: none; stroke: rgb(248, 118, 109); stroke-opacity: 1; stroke-width: 2px; opacity: 1;"/></g><g class="points"/><g class="text"/></g><g class="trace scatter trace3a247e" style="stroke-miterlimit: 2; opacity: 1;"><g class="fills"/><g class="errorbars"/><g class="lines"><path class="js-line" d="M0,303.8L99.18,303.78L110.2,298.03L121.22,303.8L132.24,303.81L176.33,303.84L187.35,302.92L198.37,303.86L209.39,303.32L220.41,303.88L231.43,301.7L253.47,303.88L264.49,303.87L275.51,303.88L286.53,280.67L297.55,303.22L308.57,303.89L319.59,303.93L330.61,300.72L341.63,301.13L352.65,303.91L363.67,301.26L374.69,303.9L385.71,303.8L396.73,298.76L407.76,303.93L418.78,302.63L429.8,303.93L440.82,303.94L451.84,302.96L462.86,303.96L473.88,295.5L484.9,298.61L495.92,303.48L506.94,303.97L517.96,197.11L528.98,303.78L540,303.95" style="vector-effect: non-scaling-stroke; fill: none; stroke: rgb(163, 165, 0); stroke-opacity: 1; stroke-width: 2px; opacity: 1;"/></g><g class="points"/><g class="text"/></g><g class="trace scatter traceb3dcfc" style="stroke-miterlimit: 2; opacity: 1;"><g class="fills"/><g class="errorbars"/><g class="lines"><path class="js-line" d="M0,303.8L154.29,303.3L165.31,290.77L176.33,302.77L187.35,300.03L198.37,303.33L209.39,303.54L275.51,303.8L286.53,298.28L297.55,303.87L308.57,301.63L319.59,303.87L330.61,301.56L341.63,301.12L352.65,303.21L363.67,302.31L374.69,303.93L407.76,303.55L418.78,301.44L429.8,303.46L440.82,303.92L451.84,303.25L462.86,303.45L473.88,302.66L484.9,303.77L495.92,263.54L506.94,303.82L517.96,302.09L528.98,292.46L540,299.91" style="vector-effect: non-scaling-stroke; fill: none; stroke: rgb(0, 191, 125); stroke-opacity: 1; stroke-width: 2px; opacity: 1;"/></g><g class="points"/><g class="text"/></g><g class="trace scatter trace6741be" style="stroke-miterlimit: 2; opacity: 1;"><g class="fills"/><g class="errorbars"/><g class="lines"><path class="js-line" d="M0,303.8L209.39,303.67L220.41,303.89L264.49,303.89L275.51,303.92L286.53,303.92L297.55,299.7L308.57,303.89L319.59,303.9L429.8,303.97L440.82,300.95L451.84,303.96L462.86,303.95L540,303.74" style="vector-effect: non-scaling-stroke; fill: none; stroke: rgb(0, 176, 246); stroke-opacity: 1; stroke-width: 2px; opacity: 1;"/></g><g class="points"/><g class="text"/></g><g class="trace scatter trace7c8273" style="stroke-miterlimit: 2; opacity: 1;"><g class="fills"/><g class="errorbars"/><g class="lines"><path class="js-line" d="M0,303.8L66.12,303.79L77.14,293.4L88.16,303.81L99.18,282.25L110.2,303.03L121.22,303.61L143.27,303.83L154.29,299.63L165.31,303.84L176.33,303.85L231.43,303.74L242.45,295.96L253.47,303.9L264.49,303.59L297.55,303.88L308.57,303.84L341.63,303.87L352.65,203.06L363.67,303.88L374.69,303.95L407.76,303.96L418.78,302.61L429.8,303.93L440.82,303.96L506.94,303.29L517.96,299.67L528.98,303.15L540,298.51" style="vector-effect: non-scaling-stroke; fill: none; stroke: rgb(231, 107, 243); stroke-opacity: 1; stroke-width: 2px; opacity: 1;"/></g><g class="points"/><g class="text"/></g><g class="trace scatter trace2702e4" style="stroke-miterlimit: 2; opacity: 1;"><g class="fills"/><g class="errorbars"/><g class="lines"><path class="js-line" d="M0,303.8L66.12,303.8L77.14,301L88.16,303.81L99.18,303.82L264.49,303.91L275.51,298.14L286.53,303.77L297.55,300.98L308.57,303.64L319.59,303.9L352.65,303.95L363.67,281.56L374.69,294.57L385.71,303.95L396.73,303.81L407.76,302.41L418.78,303.89L429.8,303.96L473.88,303.95L484.9,249.3L495.92,303.98L506.94,303.98L517.96,303.89L528.98,289.46L540,295.18" style="vector-effect: non-scaling-stroke; fill: none; stroke: rgb(248, 118, 109); stroke-opacity: 1; stroke-width: 2px; opacity: 1;"/></g><g class="points"/><g class="text"/></g><g class="trace scatter trace572973" style="stroke-miterlimit: 2; opacity: 1;"><g class="fills"/><g class="errorbars"/><g class="lines"><path class="js-line" d="M0,303.8L143.27,303.84L154.29,302.9L165.31,303.84L176.33,303.78L187.35,297.22L198.37,294.58L209.39,303.88L220.41,301.14L231.43,303.89L242.45,302.61L253.47,288.12L264.49,303.89L275.51,303.33L286.53,303.89L297.55,303.92L308.57,302.65L319.59,301.94L330.61,303.9L341.63,299.32L352.65,303.93L540,303.88" style="vector-effect: non-scaling-stroke; fill: none; stroke: rgb(163, 165, 0); stroke-opacity: 1; stroke-width: 2px; opacity: 1;"/></g><g class="points"/><g class="text"/></g><g class="trace scatter tracec43aa4" style="stroke-miterlimit: 2; opacity: 1;"><g class="fills"/><g class="errorbars"/><g class="lines"><path class="js-line" d="M0,303.8L66.12,303.81L77.14,302.42L88.16,303.8L99.18,303.82L121.22,303.82L132.24,303L143.27,303.83L154.29,303.82L187.35,303.77L198.37,303.81L264.49,303.46L275.51,296.13L286.53,302.49L297.55,303.86L308.57,303.92L319.59,303.14L330.61,303.01L341.63,303.92L352.65,303.94L363.67,302.01L374.69,303.94L385.71,301.06L396.73,303.65L407.76,303.75L418.78,302.49L429.8,303.8L462.86,303.55L473.88,303.32L484.9,301.38L495.92,303.78L540,303.98" style="vector-effect: non-scaling-stroke; fill: none; stroke: rgb(0, 191, 125); stroke-opacity: 1; stroke-width: 2px; opacity: 1;"/></g><g class="points"/><g class="text"/></g><g class="trace scatter traced0c233" style="stroke-miterlimit: 2; opacity: 1;"><g class="fills"/><g class="errorbars"/><g class="lines"><path class="js-line" d="M0,303.8L66.12,303.81L77.14,302.42L88.16,303.82L99.18,303.33L121.22,303.58L132.24,303.83L231.43,303.65L242.45,303.13L253.47,303.91L264.49,303.92L540,303.98" style="vector-effect: non-scaling-stroke; fill: none; stroke: rgb(0, 176, 246); stroke-opacity: 1; stroke-width: 2px; opacity: 1;"/></g><g class="points"/><g class="text"/></g><g class="trace scatter trace282113" style="stroke-miterlimit: 2; opacity: 1;"><g class="fills"/><g class="errorbars"/><g class="lines"><path class="js-line" d="M0,303.8L66.12,303.8L77.14,301.77L88.16,303.81L99.18,303.74L209.39,303.87L220.41,303.62L231.43,303.89L242.45,303L253.47,302.24L264.49,303.91L308.57,303.93L319.59,297.56L330.61,298.1L341.63,302.49L352.65,303.63L363.67,301.36L374.69,303.59L385.71,303.91L429.8,303.95L440.82,303.97L462.86,303.25L473.88,301.48L484.9,303.83L495.92,303.95L540,303.97" style="vector-effect: non-scaling-stroke; fill: none; stroke: rgb(231, 107, 243); stroke-opacity: 1; stroke-width: 2px; opacity: 1;"/></g><g class="points"/><g class="text"/></g><g class="trace scatter tracef011de" style="stroke-miterlimit: 2; opacity: 1;"><g class="fills"/><g class="errorbars"/><g class="lines"><path class="js-line" d="M0,303.8L319.59,303.88L330.61,302.57L341.63,303.87L352.65,303.93L363.67,293.14L374.69,303.86L440.82,303.83L451.84,298.84L462.86,303.69L473.88,303.8L484.9,303.03L495.92,303.87L540,303.5" style="vector-effect: non-scaling-stroke; fill: none; stroke: rgb(248, 118, 109); stroke-opacity: 1; stroke-width: 2px; opacity: 1;"/></g><g class="points"/><g class="text"/></g><g class="trace scatter trace3b9e4b" style="stroke-miterlimit: 2; opacity: 1;"><g class="fills"/><g class="errorbars"/><g class="lines"><path class="js-line" d="M0,303.8L66.12,303.81L77.14,299.15L88.16,303.82L99.18,303.82L209.39,303.86L220.41,302.98L231.43,303.84L242.45,303.66L286.53,303.9L297.55,303.79L484.9,303.96L495.92,303.46L517.96,303.97L528.98,303.92L540,303.91" style="vector-effect: non-scaling-stroke; fill: none; stroke: rgb(163, 165, 0); stroke-opacity: 1; stroke-width: 2px; opacity: 1;"/></g><g class="points"/><g class="text"/></g><g class="trace scatter trace226628" style="stroke-miterlimit: 2; opacity: 1;"><g class="fills"/><g class="errorbars"/><g class="lines"><path class="js-line" d="M0,303.8L44.08,303.8L55.1,302.29L66.12,303.81L77.14,303.81L99.18,303.82L110.2,298.29L121.22,303.81L132.24,303.83L187.35,303.83L198.37,302.68L209.39,289.09L220.41,303.88L264.49,303.88L275.51,301.34L286.53,303.83L297.55,303.72L330.61,303.74L341.63,303.74L352.65,301.28L363.67,303.48L396.73,303.96L407.76,301.75L418.78,299.61L429.8,303.97L451.84,303.7L462.86,296.77L473.88,303.74L484.9,303.88L517.96,303.88L528.98,288.2L540,302" style="vector-effect: non-scaling-stroke; fill: none; stroke: rgb(0, 191, 125); stroke-opacity: 1; stroke-width: 2px; opacity: 1;"/></g><g class="points"/><g class="text"/></g><g class="trace scatter trace312786" style="stroke-miterlimit: 2; opacity: 1;"><g class="fills"/><g class="errorbars"/><g class="lines"><path class="js-line" d="M0,303.8L66.12,303.81L77.14,302.78L88.16,303.79L99.18,303.8L286.53,303.37L297.55,302.12L308.57,303.91L319.59,220.18L330.61,303.42L341.63,303.88L352.65,303.94L363.67,300.25L374.69,302.42L385.71,293.58L396.73,303.95L407.76,302.15L418.78,303.88L429.8,303.47L451.84,303.85L462.86,303.51L473.88,303.92L484.9,302.07L495.92,302.08L506.94,303.82L540,303.94" style="vector-effect: non-scaling-stroke; fill: none; stroke: rgb(0, 176, 246); stroke-opacity: 1; stroke-width: 2px; opacity: 1;"/></g><g class="points"/><g class="text"/></g><g class="trace scatter trace5609ec" style="stroke-miterlimit: 2; opacity: 1;"><g class="fills"/><g class="errorbars"/><g class="lines"><path class="js-line" d="M0,303.8L99.18,303.82L110.2,302.72L143.27,303.83L154.29,300.95L165.31,303.84L176.33,303.84L187.35,303.86L198.37,298.82L209.39,303.86L220.41,303.87L231.43,300.11L242.45,303.89L253.47,298.13L264.49,303.86L275.51,303.88L286.53,300.7L297.55,303.24L308.57,303.93L341.63,303.76L352.65,303.95L363.67,303.55L374.69,303.94L385.71,303.96L396.73,300.6L407.76,298.05L418.78,303.96L473.88,303.8L484.9,301.31L495.92,303.83L506.94,303.71L517.96,302.39L528.98,295.05L540,303.97" style="vector-effect: non-scaling-stroke; fill: none; stroke: rgb(231, 107, 243); stroke-opacity: 1; stroke-width: 2px; opacity: 1;"/></g><g class="points"/><g class="text"/></g><g class="trace scatter trace3adc3f" style="stroke-miterlimit: 2; opacity: 1;"><g class="fills"/><g class="errorbars"/><g class="lines"><path class="js-line" d="M0,303.8L165.31,303.85L176.33,300.78L187.35,303.87L198.37,303.87L220.41,303.66L231.43,303.9L540,303.88" style="vector-effect: non-scaling-stroke; fill: none; stroke: rgb(248, 118, 109); stroke-opacity: 1; stroke-width: 2px; opacity: 1;"/></g><g class="points"/><g class="text"/></g><g class="trace scatter trace859a16" style="stroke-miterlimit: 2; opacity: 1;"><g class="fills"/><g class="errorbars"/><g class="lines"><path class="js-line" d="M0,303.8L66.12,303.78L77.14,298.75L88.16,303.17L99.18,303.82L110.2,297.83L121.22,303.78L264.49,303.82L275.51,299.43L286.53,303.88L297.55,301.94L308.57,291.17L319.59,298.65L330.61,303.93L341.63,299.28L352.65,299.57L363.67,302.91L374.69,303.59L385.71,299.61L396.73,300.37L407.76,303.02L440.82,303.94L451.84,302.63L462.86,303.9L473.88,302.82L495.92,303.97L506.94,303.26L517.96,303.96L528.98,303.66L540,303.99" style="vector-effect: non-scaling-stroke; fill: none; stroke: rgb(163, 165, 0); stroke-opacity: 1; stroke-width: 2px; opacity: 1;"/></g><g class="points"/><g class="text"/></g><g class="trace scatter tracec93842" style="stroke-miterlimit: 2; opacity: 1;"><g class="fills"/><g class="errorbars"/><g class="lines"><path class="js-line" d="M0,303.8L110.2,303.82L121.22,298.14L132.24,303.83L143.27,303.83L176.33,303.85L187.35,297.22L198.37,303.87L209.39,303.88L220.41,253.19L231.43,303.89L253.47,303.15L264.49,303.91L352.65,303.94L363.67,292.38L374.69,303.83L385.71,303.95L396.73,303.95L407.76,299.65L418.78,303.9L429.8,303.22L451.84,303.93L462.86,303.92L506.94,303.98L517.96,299.75L528.98,303.74L540,303.93" style="vector-effect: non-scaling-stroke; fill: none; stroke: rgb(0, 191, 125); stroke-opacity: 1; stroke-width: 2px; opacity: 1;"/></g><g class="points"/><g class="text"/></g><g class="trace scatter tracee88460" style="stroke-miterlimit: 2; opacity: 1;"><g class="fills"/><g class="errorbars"/><g class="lines"><path class="js-line" d="M0,303.8L154.29,303.84L165.31,302.48L176.33,303.86L187.35,303.87L275.51,303.92L286.53,294.32L297.55,303.91L308.57,294.8L319.59,303.91L330.61,303.88L363.67,303.86L374.69,302.4L385.71,303.95L396.73,303.96L429.8,303.3L440.82,294.86L451.84,295.94L462.86,73.95L473.88,298.53L484.9,296.81L495.92,303.74L506.94,303.68L517.96,282.2L528.98,293.34L540,281.73" style="vector-effect: non-scaling-stroke; fill: none; stroke: rgb(0, 176, 246); stroke-opacity: 1; stroke-width: 2px; opacity: 1;"/></g><g class="points"/><g class="text"/></g><g class="trace scatter trace1cffed" style="stroke-miterlimit: 2; opacity: 1;"><g class="fills"/><g class="errorbars"/><g class="lines"><path class="js-line" d="M0,303.8L88.16,303.47L99.18,302.88L110.2,303.82L121.22,303.82L308.57,303.94L319.59,291.97L330.61,303.94L341.63,303.77L385.71,303.95L396.73,303.74L440.82,303.97L451.84,303.93L540,303.94" style="vector-effect: non-scaling-stroke; fill: none; stroke: rgb(231, 107, 243); stroke-opacity: 1; stroke-width: 2px; opacity: 1;"/></g><g class="points"/><g class="text"/></g><g class="trace scatter traceee8fb9" style="stroke-miterlimit: 2; opacity: 1;"><g class="fills"/><g class="errorbars"/><g class="lines"><path class="js-line" d="M0,303.8L44.08,303.77L55.1,303.03L66.12,303.81L77.14,303.81L121.22,303.62L132.24,302.34L143.27,303.6L154.29,303.82L231.43,303.89L242.45,292.93L253.47,303.9L264.49,303.79L286.53,303.28L297.55,302.5L308.57,297.18L319.59,303.93L374.69,303.96L385.71,301.17L396.73,303.95L407.76,303.95L418.78,303.8L429.8,302.84L440.82,303.97L451.84,273.56L462.86,303.96L473.88,303.46L528.98,303.96L540,298.2" style="vector-effect: non-scaling-stroke; fill: none; stroke: rgb(248, 118, 109); stroke-opacity: 1; stroke-width: 2px; opacity: 1;"/></g><g class="points"/><g class="text"/></g><g class="trace scatter traced6b068" style="stroke-miterlimit: 2; opacity: 1;"><g class="fills"/><g class="errorbars"/><g class="lines"><path class="js-line" d="M0,303.8L77.14,303.81L88.16,301.13L110.2,303.77L121.22,303.77L275.51,303.92L286.53,303.92L330.61,303.78L341.63,303.09L352.65,303.94L363.67,302.65L374.69,300.49L385.71,303.91L396.73,300.29L407.76,63.36L418.78,303.69L429.8,303.93L440.82,302.54L451.84,303.89L462.86,220.75L473.88,302.81L484.9,303.86L495.92,297.16L506.94,297.38L517.96,303.77L528.98,303.93L540,301.48" style="vector-effect: non-scaling-stroke; fill: none; stroke: rgb(163, 165, 0); stroke-opacity: 1; stroke-width: 2px; opacity: 1;"/></g><g class="points"/><g class="text"/></g><g class="trace scatter tracee2cfaf" style="stroke-miterlimit: 2; opacity: 1;"><g class="fills"/><g class="errorbars"/><g class="lines"><path class="js-line" d="M0,303.8L220.41,303.74L231.43,303.24L242.45,303.74L253.47,293.76L264.49,301.64L275.51,303.79L330.61,303.92L341.63,294.95L352.65,303.51L363.67,303.81L418.78,303.9L429.8,278.86L440.82,303.26L451.84,303.92L462.86,299.28L473.88,303.94L484.9,271.16L495.92,303.94L506.94,302.23L517.96,303.62L540,303.96" style="vector-effect: non-scaling-stroke; fill: none; stroke: rgb(0, 191, 125); stroke-opacity: 1; stroke-width: 2px; opacity: 1;"/></g><g class="points"/><g class="text"/></g><g class="trace scatter trace232788" style="stroke-miterlimit: 2; opacity: 1;"><g class="fills"/><g class="errorbars"/><g class="lines"><path class="js-line" d="M0,303.8L308.57,303.89L319.59,303.92L330.61,299.45L341.63,303.93L374.69,303.95L385.71,292.93L396.73,303.93L407.76,303.94L418.78,301.72L429.8,303.97L451.84,303.21L462.86,302.11L473.88,303.87L484.9,280.64L495.92,302.73L506.94,303.87L517.96,287.25L528.98,303.92L540,303.25" style="vector-effect: non-scaling-stroke; fill: none; stroke: rgb(0, 176, 246); stroke-opacity: 1; stroke-width: 2px; opacity: 1;"/></g><g class="points"/><g class="text"/></g><g class="trace scatter tracedeec46" style="stroke-miterlimit: 2; opacity: 1;"><g class="fills"/><g class="errorbars"/><g class="lines"><path class="js-line" d="M0,303.8L44.08,303.81L55.1,303.03L66.12,303.8L77.14,303.81L99.18,303.81L110.2,302.35L121.22,303.8L132.24,303.82L143.27,298.58L154.29,303.81L187.35,303.84L198.37,300.02L209.39,303.81L220.41,303.87L231.43,303.83L242.45,302.31L253.47,303.9L264.49,303.83L363.67,303.87L374.69,303.09L385.71,303.95L396.73,303.95L451.84,303.56L462.86,303.85L517.96,303.98L528.98,303.63L540,303.76" style="vector-effect: non-scaling-stroke; fill: none; stroke: rgb(231, 107, 243); stroke-opacity: 1; stroke-width: 2px; opacity: 1;"/></g><g class="points"/><g class="text"/></g></g></g><g class="overplot"/><path class="xlines-above crisp" d="" style="fill: none; stroke-width: 1px; stroke: rgb(0, 0, 0); stroke-opacity: 0;"/><path class="ylines-above crisp" d="" style="fill: none; stroke-width: 1px; stroke: rgb(0, 0, 0); stroke-opacity: 0;"/><g class="overlines-above"/><g class="xaxislayer-above"><path class="xtick ticks crisp" d="M0,421v5" transform="translate(80,0)" style="stroke: rgb(51, 51, 51); stroke-opacity: 1; stroke-width: 1px;"/><path class="xtick ticks crisp" d="M0,421v5" transform="translate(190.2,0)" style="stroke: rgb(51, 51, 51); stroke-opacity: 1; stroke-width: 1px;"/><path class="xtick ticks crisp" d="M0,421v5" transform="translate(300.40999999999997,0)" style="stroke: rgb(51, 51, 51); stroke-opacity: 1; stroke-width: 1px;"/><path class="xtick ticks crisp" d="M0,421v5" transform="translate(410.61,0)" style="stroke: rgb(51, 51, 51); stroke-opacity: 1; stroke-width: 1px;"/><path class="xtick ticks crisp" d="M0,421v5" transform="translate(520.8199999999999,0)" style="stroke: rgb(51, 51, 51); stroke-opacity: 1; stroke-width: 1px;"/><g class="xtick"><text text-anchor="middle" x="0" y="440.4" transform="translate(80,0)" style="font-family: 'Open Sans', verdana, arial, sans-serif; font-size: 12px; fill: rgb(51, 51, 51); fill-opacity: 1; white-space: pre; opacity: 1;">0</text></g><g class="xtick"><text text-anchor="middle" x="0" y="440.4" style="font-family: 'Open Sans', verdana, arial, sans-serif; font-size: 12px; fill: rgb(51, 51, 51); fill-opacity: 1; white-space: pre; opacity: 1;" transform="translate(190.2,0)">10</text></g><g class="xtick"><text text-anchor="middle" x="0" y="440.4" style="font-family: 'Open Sans', verdana, arial, sans-serif; font-size: 12px; fill: rgb(51, 51, 51); fill-opacity: 1; white-space: pre; opacity: 1;" transform="translate(300.40999999999997,0)">20</text></g><g class="xtick"><text text-anchor="middle" x="0" y="440.4" style="font-family: 'Open Sans', verdana, arial, sans-serif; font-size: 12px; fill: rgb(51, 51, 51); fill-opacity: 1; white-space: pre; opacity: 1;" transform="translate(410.61,0)">30</text></g><g class="xtick"><text text-anchor="middle" x="0" y="440.4" style="font-family: 'Open Sans', verdana, arial, sans-serif; font-size: 12px; fill: rgb(51, 51, 51); fill-opacity: 1; white-space: pre; opacity: 1;" transform="translate(520.8199999999999,0)">40</text></g></g><g class="yaxislayer-above"><path class="ytick ticks crisp" d="M79,0h-5" transform="translate(0,404.21)" style="stroke: rgb(51, 51, 51); stroke-opacity: 1; stroke-width: 1px;"/><path class="ytick ticks crisp" d="M79,0h-5" transform="translate(0,359.15)" style="stroke: rgb(51, 51, 51); stroke-opacity: 1; stroke-width: 1px;"/><path class="ytick ticks crisp" d="M79,0h-5" transform="translate(0,314.09000000000003)" style="stroke: rgb(51, 51, 51); stroke-opacity: 1; stroke-width: 1px;"/><path class="ytick ticks crisp" d="M79,0h-5" transform="translate(0,269.03)" style="stroke: rgb(51, 51, 51); stroke-opacity: 1; stroke-width: 1px;"/><path class="ytick ticks crisp" d="M79,0h-5" transform="translate(0,223.97)" style="stroke: rgb(51, 51, 51); stroke-opacity: 1; stroke-width: 1px;"/><path class="ytick ticks crisp" d="M79,0h-5" transform="translate(0,178.91)" style="stroke: rgb(51, 51, 51); stroke-opacity: 1; stroke-width: 1px;"/><path class="ytick ticks crisp" d="M79,0h-5" transform="translate(0,133.85)" style="stroke: rgb(51, 51, 51); stroke-opacity: 1; stroke-width: 1px;"/><g class="ytick"><text text-anchor="end" x="71.6" y="4.199999999999999" transform="translate(0,404.21)" style="font-family: 'Open Sans', verdana, arial, sans-serif; font-size: 12px; fill: rgb(51, 51, 51); fill-opacity: 1; white-space: pre; opacity: 1;">0</text></g><g class="ytick"><text text-anchor="end" x="71.6" y="4.199999999999999" style="font-family: 'Open Sans', verdana, arial, sans-serif; font-size: 12px; fill: rgb(51, 51, 51); fill-opacity: 1; white-space: pre; opacity: 1;" transform="translate(0,359.15)">200</text></g><g class="ytick"><text text-anchor="end" x="71.6" y="4.199999999999999" style="font-family: 'Open Sans', verdana, arial, sans-serif; font-size: 12px; fill: rgb(51, 51, 51); fill-opacity: 1; white-space: pre; opacity: 1;" transform="translate(0,314.09000000000003)">400</text></g><g class="ytick"><text text-anchor="end" x="71.6" y="4.199999999999999" style="font-family: 'Open Sans', verdana, arial, sans-serif; font-size: 12px; fill: rgb(51, 51, 51); fill-opacity: 1; white-space: pre; opacity: 1;" transform="translate(0,269.03)">600</text></g><g class="ytick"><text text-anchor="end" x="71.6" y="4.199999999999999" style="font-family: 'Open Sans', verdana, arial, sans-serif; font-size: 12px; fill: rgb(51, 51, 51); fill-opacity: 1; white-space: pre; opacity: 1;" transform="translate(0,223.97)">800</text></g><g class="ytick"><text text-anchor="end" x="71.6" y="4.199999999999999" style="font-family: 'Open Sans', verdana, arial, sans-serif; font-size: 12px; fill: rgb(51, 51, 51); fill-opacity: 1; white-space: pre; opacity: 1;" transform="translate(0,178.91)">1000</text></g><g class="ytick"><text text-anchor="end" x="71.6" y="4.199999999999999" style="font-family: 'Open Sans', verdana, arial, sans-serif; font-size: 12px; fill: rgb(51, 51, 51); fill-opacity: 1; white-space: pre; opacity: 1;" transform="translate(0,133.85)">1200</text></g></g><g class="overaxes-above"/></g></g><g class="polarlayer"/><g class="ternarylayer"/><g class="geolayer"/><g class="funnelarealayer"/><g class="pielayer"/><g class="iciclelayer"/><g class="treemaplayer"/><g class="sunburstlayer"/><g class="glimages"/><defs id="topdefs-b4127f"><g class="clips"/></defs><g class="layer-above"><g class="imagelayer"/><g class="shapelayer"/></g><g class="infolayer"><g class="g-gtitle"><text class="gtitle" x="350" y="50" text-anchor="middle" dy="0em" style="font-family: 'Open Sans', verdana, arial, sans-serif; font-size: 17px; fill: rgb(51, 51, 51); opacity: 1; font-weight: normal; white-space: pre;">Train Loss: ascad_v1_vk_0_noisy-aisy_mlp_hw (original)</text></g><g class="g-xtitle"/><g class="g-ytitle"/></g></svg>