<svg class="main-svg" xmlns="http://www.w3.org/2000/svg" xmlns:xlink="http://www.w3.org/1999/xlink" width="700" height="500" style="" viewBox="0 0 700 500"><rect x="0" y="0" width="700" height="500" style="fill: rgb(255, 255, 255); fill-opacity: 1;"/><defs id="defs-73c041"><g class="clips"><clipPath id="clip73c041xyplot" class="plotclip"><rect width="540" height="320"/></clipPath><clipPath class="axesclip" id="clip73c041x"><rect x="80" y="0" width="540" height="500"/></clipPath><clipPath class="axesclip" id="clip73c041y"><rect x="0" y="100" width="700" height="320"/></clipPath><clipPath class="axesclip" id="clip73c041xy"><rect x="80" y="100" width="540" height="320"/></clipPath></g><g class="gradients"/><g class="patterns"/></defs><g class="bglayer"><rect class="bg" x="80" y="100" width="540" height="320" style="fill: rgb(237, 237, 237); fill-opacity: 1; stroke-width: 0;"/></g><g class="layer-below"><g class="imagelayer"/><g class="shapelayer"/></g><g class="cartesianlayer"><g class="subplot xy"><g class="layer-subplot"><g class="shapelayer"/><g class="imagelayer"/></g><g class="gridlayer"><g class="x"><path class="xgrid crisp" transform="translate(189.09,0)" d="M0,100v320" style="stroke: rgb(255, 255, 255); stroke-opacity: 1; stroke-width: 1px;"/><path class="xgrid crisp" transform="translate(298.18,0)" d="M0,100v320" style="stroke: rgb(255, 255, 255); stroke-opacity: 1; stroke-width: 1px;"/><path class="xgrid crisp" transform="translate(407.27,0)" d="M0,100v320" style="stroke: rgb(255, 255, 255); stroke-opacity: 1; stroke-width: 1px;"/><path class="xgrid crisp" transform="translate(516.36,0)" d="M0,100v320" style="stroke: rgb(255, 255, 255); stroke-opacity: 1; stroke-width: 1px;"/></g><g class="y"><path class="ygrid crisp" transform="translate(0,359.46)" d="M80,0h540" style="stroke: rgb(255, 255, 255); stroke-opacity: 1; stroke-width: 1px;"/><path class="ygrid crisp" transform="translate(0,294.16999999999996)" d="M80,0h540" style="stroke: rgb(255, 255, 255); stroke-opacity: 1; stroke-width: 1px;"/><path class="ygrid crisp" transform="translate(0,228.88)" d="M80,0h540" style="stroke: rgb(255, 255, 255); stroke-opacity: 1; stroke-width: 1px;"/><path class="ygrid crisp" transform="translate(0,163.59)" d="M80,0h540" style="stroke: rgb(255, 255, 255); stroke-opacity: 1; stroke-width: 1px;"/></g></g><g class="zerolinelayer"><path class="xzl zl crisp" transform="translate(80,0)" d="M0,100v320" style="stroke: rgb(255, 255, 255); stroke-opacity: 1; stroke-width: 1px;"/></g><path class="xlines-below"/><path class="ylines-below"/><g class="overlines-below"/><g class="xaxislayer-below"/><g class="yaxislayer-below"/><g class="overaxes-below"/><g class="plot" transform="translate(80,100)" clip-path="url(#clip73c041xyplot)"><g class="scatterlayer mlayer"><g class="trace scatter trace226bf8" style="stroke-miterlimit: 2; opacity: 1;"><g class="fills"/><g class="errorbars"/><g class="lines"><path class="js-line" d="M0,266.86L5.45,181.55L10.91,151.51L16.36,148.76L21.82,167.18L32.73,156.88L38.18,137.73L43.64,133.96L49.09,144.26L54.55,157.32L60,151.66L65.45,137.87L70.91,142.37L76.36,130.47L81.82,130.33L87.27,117.85L92.73,118.87L98.18,113.5L103.64,125.11L109.09,127.28L114.55,123.22L120,103.78L125.45,112.34L130.91,120.61L136.36,121.04L141.82,130.33L147.27,112.05L152.73,121.77L158.18,161.96L163.64,113.21L169.09,124.09L174.55,138.02L180,128.01L185.45,126.12L190.91,119.74L196.36,118.29L201.82,114.08L207.27,130.18L212.73,124.38L218.18,142.66L223.64,144.11L229.09,133.96L234.55,128.3L240,106.83L245.45,117.56L250.91,109.73L256.36,117.56L261.82,125.4L267.27,110.6L272.73,118.43L278.18,119.74L283.64,110.74L289.09,122.78L294.55,121.19L300,95.51L305.45,118.29L310.91,115.39L316.36,109.73L321.82,107.55L327.27,107.12L332.73,107.84L338.18,93.62L343.64,103.05L349.09,91.45L354.55,93.04L360,95.07L365.45,72.73L370.91,85.35L376.36,87.38L381.82,77.81L387.27,78.1L392.73,82.16L398.18,74.04L403.64,83.32L409.09,69.25L414.55,80.71L420,69.83L425.45,73.45L430.91,73.16L436.36,67.07L441.82,68.23L447.27,68.67L452.73,60.4L458.18,66.06L463.64,65.91L480,60.11L485.45,56.77L490.91,52.85L496.36,65.48L501.82,60.69L507.27,61.56L512.73,58.95L518.18,59.96L523.64,63.15L529.09,58.22L534.55,53.58L540,56.77" style="vector-effect: non-scaling-stroke; fill: none; stroke: rgb(248, 118, 109); stroke-opacity: 1; stroke-width: 2px; opacity: 1;"/></g><g class="points"/><g class="text"/></g><g class="trace scatter trace8b911d" style="stroke-miterlimit: 2; opacity: 1;"><g class="fills"/><g class="errorbars"/><g class="lines"><path class="js-line" d="M0,281.8L5.45,215.21L10.91,182.56L16.36,139.76L21.82,141.36L27.27,127.28L32.73,125.98L38.18,128.15L43.64,140.63L49.09,136.28L54.55,145.42L60,147.01L65.45,136.13L70.91,139.18L76.36,133.52L81.82,135.7L87.27,120.46L92.73,144.11L98.18,129.17L103.64,123.66L109.09,141.07L114.55,132.94L120,129.6L125.45,131.49L130.91,140.34L136.36,126.12L141.82,137L147.27,133.23L152.73,149.34L158.18,158.19L163.64,139.03L174.55,158.33L180,148.61L185.45,148.03L190.91,133.23L196.36,146.58L201.82,143.39L207.27,133.52L212.73,145.27L218.18,167.62L223.64,163.12L229.09,147.45L234.55,153.11L245.45,120.9L250.91,113.5L256.36,139.76L261.82,129.17L267.27,129.46L272.73,128.73L278.18,142.95L283.64,128.3L289.09,139.32L294.55,138.31L300,105.81L305.45,123.95L310.91,134.25L316.36,125.98L321.82,113.93L327.27,130.47L332.73,119.88L338.18,111.61L343.64,104.36L349.09,101.46L354.55,97.25L360,108.42L365.45,107.12L370.91,93.91L376.36,83.61L381.82,91.74L387.27,88.11L392.73,83.32L398.18,81.43L403.64,71.57L409.09,79.69L414.55,82.74L420,79.69L425.45,70.99L430.91,68.52L436.36,68.09L441.82,63.01L447.27,61.7L452.73,65.04L458.18,63.15L463.64,63.15L469.09,64.02L474.55,60.11L480,58.51L485.45,63.15L490.91,52.71L496.36,58.8L501.82,67.36L507.27,60.69L512.73,51.98L518.18,42.55L523.64,54.74L529.09,55.32L534.55,49.66L540,47.34" style="vector-effect: non-scaling-stroke; fill: none; stroke: rgb(163, 165, 0); stroke-opacity: 1; stroke-width: 2px; opacity: 1;"/></g><g class="points"/><g class="text"/></g><g class="trace scatter tracec658a9" style="stroke-miterlimit: 2; opacity: 1;"><g class="fills"/><g class="errorbars"/><g class="lines"><path class="js-line" d="M0,244.37L5.45,186.77L10.91,158.33L16.36,154.12L21.82,177.34L27.27,169.36L32.73,155.86L38.18,161.96L43.64,157.61L49.09,178.21L54.55,187.35L60,171.82L65.45,145.42L70.91,149.34L76.36,150.35L81.82,142.52L87.27,117.27L92.73,130.76L98.18,127.72L103.64,120.9L109.09,148.9L114.55,129.46L120,125.83L125.45,131.05L130.91,143.53L136.36,135.41L141.82,139.32L147.27,123.37L152.73,134.83L158.18,162.1L163.64,131.93L169.09,160.22L174.55,153.54L180,148.32L185.45,162.25L190.91,136.28L196.36,141.65L201.82,138.16L207.27,150.93L212.73,138.02L218.18,174.29L223.64,150.79L229.09,137.15L234.55,148.76L240,140.05L245.45,115.39L250.91,120.75L256.36,141.36L261.82,131.93L267.27,135.41L272.73,132.65L278.18,142.81L283.64,126.56L294.55,154.99L300,113.06L305.45,127.57L310.91,126.99L316.36,124.96L321.82,111.47L327.27,126.56L332.73,114.08L338.18,101.89L343.64,112.19L349.09,112.34L354.55,95.94L360,105.66L365.45,106.97L370.91,83.03L376.36,76.94L381.82,85.35L387.27,85.35L392.73,72.87L398.18,68.96L403.64,72.58L409.09,63.3L414.55,66.06L420,58.37L425.45,57.35L430.91,47.63L436.36,58.08L441.82,61.41L447.27,41.97L452.73,42.99L458.18,40.37L463.64,49.66L469.09,48.21L474.55,42.12L480,35.01L485.45,51.4L490.91,33.41L496.36,37.62L501.82,36.6L507.27,33.27L512.73,33.12L518.18,30.36L523.64,34.72L529.09,31.09L534.55,41.25L540,31.23" style="vector-effect: non-scaling-stroke; fill: none; stroke: rgb(0, 191, 125); stroke-opacity: 1; stroke-width: 2px; opacity: 1;"/></g><g class="points"/><g class="text"/></g><g class="trace scatter traceedafdb" style="stroke-miterlimit: 2; opacity: 1;"><g class="fills"/><g class="errorbars"/><g class="lines"><path class="js-line" d="M0,270.34L5.45,193.15L10.91,180.53L16.36,155.86L21.82,153.4L27.27,161.09L32.73,152.53L38.18,152.82L43.64,150.5L49.09,164.13L54.55,163.84L60,176.03L65.45,147.16L70.91,144.55L76.36,156.3L81.82,148.03L87.27,131.34L92.73,138.16L98.18,110.31L103.64,119.59L109.09,138.6L114.55,129.46L120,126.85L125.45,128.3L130.91,140.78L136.36,131.49L141.82,140.49L147.27,128.01L152.73,143.97L158.18,158.19L163.64,133.09L169.09,146.29L174.55,149.48L180,146.43L185.45,152.38L190.91,146.58L196.36,146.14L201.82,145.71L207.27,143.39L212.73,139.91L218.18,178.64L223.64,150.79L229.09,135.7L234.55,139.32L240,134.83L245.45,119.45L250.91,125.69L256.36,142.81L261.82,125.11L267.27,124.38L272.73,125.11L278.18,133.23L283.64,114.8L289.09,132.65L294.55,133.09L300,119.01L305.45,145.85L316.36,116.11L321.82,105.52L327.27,120.9L332.73,115.39L338.18,98.26L343.64,106.24L349.09,103.63L354.55,99.57L360,100.73L365.45,104.5L370.91,89.7L376.36,89.41L381.82,96.67L387.27,87.96L392.73,79.26L398.18,88.11L403.64,79.69L409.09,64.46L414.55,74.18L420,73.45L425.45,64.46L430.91,61.12L436.36,65.91L441.82,65.33L447.27,61.12L452.73,55.9L458.18,61.12L463.64,64.17L474.55,56.77L480,55.46L485.45,51.26L490.91,60.54L501.82,52.71L507.27,56.19L512.73,58.95L518.18,52.56L523.64,54.01L529.09,53.72L534.55,55.32L540,47.77" style="vector-effect: non-scaling-stroke; fill: none; stroke: rgb(0, 176, 246); stroke-opacity: 1; stroke-width: 2px; opacity: 1;"/></g><g class="points"/><g class="text"/></g><g class="trace scatter tracec7a30d" style="stroke-miterlimit: 2; opacity: 1;"><g class="fills"/><g class="errorbars"/><g class="lines"><path class="js-line" d="M0,300.95L5.45,205.49L10.91,161.67L16.36,157.9L21.82,163.7L27.27,156.3L32.73,139.18L38.18,149.48L43.64,134.25L49.09,141.5L54.55,157.46L60,155.86L65.45,139.47L70.91,141.07L76.36,124.82L81.82,124.67L87.27,110.02L92.73,106.39L98.18,114.8L103.64,114.08L109.09,128.88L114.55,118.14L120,116.26L125.45,107.99L130.91,128.15L136.36,108.42L141.82,126.56L147.27,125.98L152.73,124.38L158.18,145.27L163.64,116.26L169.09,125.83L174.55,131.2L185.45,129.75L190.91,122.49L196.36,130.76L201.82,123.37L207.27,118.14L212.73,127.57L218.18,145.42L223.64,141.94L229.09,131.64L234.55,127.86L240,132.36L245.45,117.85L250.91,111.61L256.36,117.42L261.82,125.69L267.27,122.78L272.73,109.29L278.18,120.46L283.64,119.01L289.09,121.91L294.55,121.04L300,102.62L305.45,115.1L310.91,119.59L316.36,112.05L321.82,102.18L327.27,99.86L332.73,113.06L338.18,102.04L343.64,102.33L349.09,101.46L354.55,88.83L360,104.79L365.45,90.87L370.91,88.11L376.36,84.19L381.82,85.5L387.27,78.97L392.73,80.13L398.18,78.24L403.64,76.79L409.09,78.24L414.55,81.29L420,76.65L430.91,59.38L436.36,68.09L441.82,65.33L447.27,65.18L452.73,60.98L458.18,62.43L463.64,66.06L469.09,60.69L474.55,54.59L480,57.2L485.45,61.85L490.91,59.53L496.36,55.17L501.82,62.57L507.27,62.57L512.73,58.08L518.18,59.24L523.64,61.41L529.09,58.08L534.55,58.22L540,51.69" style="vector-effect: non-scaling-stroke; fill: none; stroke: rgb(231, 107, 243); stroke-opacity: 1; stroke-width: 2px; opacity: 1;"/></g><g class="points"/><g class="text"/></g><g class="trace scatter tracee39b8c" style="stroke-miterlimit: 2; opacity: 1;"><g class="fills"/><g class="errorbars"/><g class="lines"><path class="js-line" d="M0,270.77L5.45,177.92L10.91,177.19L16.36,168.34L21.82,170.52L27.27,175.31L32.73,148.9L38.18,171.1L43.64,163.12L49.09,181.26L54.55,162.1L60,170.81L65.45,148.47L70.91,171.24L76.36,148.47L81.82,146.87L87.27,121.62L92.73,130.04L98.18,111.9L103.64,116.69L109.09,132.07L114.55,126.56L120,122.35L125.45,123.22L130.91,121.48L136.36,139.18L141.82,125.25L147.27,125.4L152.73,119.16L158.18,158.04L163.64,122.78L169.09,119.59L174.55,141.79L180,120.46L185.45,140.2L190.91,129.31L196.36,132.94L201.82,123.66L207.27,119.45L212.73,124.96L218.18,155.14L223.64,131.49L229.09,144.4L234.55,138.45L240,134.97L245.45,122.93L250.91,117.85L256.36,128.59L261.82,126.7L267.27,111.47L272.73,119.16L278.18,119.59L283.64,112.48L289.09,120.03L294.55,118.14L300,104.5L305.45,113.06L310.91,115.82L316.36,110.45L321.82,93.19L327.27,102.76L332.73,112.63L338.18,93.04L343.64,99.28L349.09,96.09L354.55,81.14L360,99.43L365.45,93.04L370.91,83.18L376.36,85.79L381.82,85.64L387.27,81L392.73,72.58L398.18,79.69L403.64,69.97L409.09,70.26L414.55,74.47L420,73.6L425.45,64.6L430.91,63.88L436.36,65.33L447.27,64.75L452.73,61.56L458.18,61.27L463.64,67.36L469.09,60.98L474.55,58.51L480,60.98L485.45,67.36L490.91,55.32L496.36,57.2L501.82,58.22L507.27,63.3L512.73,60.69L518.18,60.25L523.64,58.51L529.09,48.93L534.55,53.87L540,64.31" style="vector-effect: non-scaling-stroke; fill: none; stroke: rgb(248, 118, 109); stroke-opacity: 1; stroke-width: 2px; opacity: 1;"/></g><g class="points"/><g class="text"/></g><g class="trace scatter traced452ec" style="stroke-miterlimit: 2; opacity: 1;"><g class="fills"/><g class="errorbars"/><g class="lines"><path class="js-line" d="M0,285.14L5.45,215.5L10.91,190.25L16.36,174.29L21.82,182.71L27.27,167.76L32.73,141.94L38.18,141.79L43.64,136.71L49.09,140.05L54.55,145.71L60,145.85L65.45,132.65L70.91,149.92L76.36,141.94L81.82,141.94L87.27,118.29L92.73,134.68L98.18,121.04L103.64,119.59L109.09,139.76L114.55,143.39L120,123.37L125.45,132.07L130.91,138.45L136.36,140.78L141.82,151.51L147.27,140.63L152.73,157.17L158.18,176.61L163.64,127.57L169.09,151.08L174.55,159.06L180,156.88L185.45,150.21L190.91,139.03L196.36,147.16L201.82,135.7L207.27,146L212.73,141.79L218.18,168.63L223.64,159.64L229.09,140.78L234.55,146.29L240,131.64L245.45,123.37L250.91,123.95L256.36,152.24L261.82,133.38L267.27,140.2L272.73,127.57L278.18,141.5L283.64,132.8L289.09,140.05L294.55,139.62L300,113.93L305.45,127.86L310.91,135.12L316.36,120.75L321.82,120.32L327.27,131.05L338.18,109L343.64,108.57L354.55,98.12L360,94.49L365.45,100.01L370.91,79.69L376.36,85.93L381.82,79.11L387.27,68.23L392.73,73.6L398.18,67.8L403.64,71.28L409.09,64.02L414.55,65.04L420,52.42L425.45,53.87L430.91,48.06L436.36,49.23L441.82,47.34L447.27,47.19L452.73,31.09L458.18,36.46L463.64,45.89L469.09,38.49L474.55,34.86L480,32.25L485.45,37.04L490.91,35.73L496.36,35.73L501.82,38.63L507.27,28.19L512.73,28.19L518.18,25L523.64,30.94L529.09,31.67L534.55,30.65L540,17.6" style="vector-effect: non-scaling-stroke; fill: none; stroke: rgb(163, 165, 0); stroke-opacity: 1; stroke-width: 2px; opacity: 1;"/></g><g class="points"/><g class="text"/></g><g class="trace scatter trace186e00" style="stroke-miterlimit: 2; opacity: 1;"><g class="fills"/><g class="errorbars"/><g class="lines"><path class="js-line" d="M0,281.51L5.45,205.49L10.91,196.05L16.36,174L21.82,178.79L27.27,184.3L32.73,157.32L38.18,163.99L43.64,151.51L49.09,150.93L54.55,147.89L60,159.49L65.45,139.47L70.91,140.49L76.36,132.65L81.82,118.14L87.27,115.39L92.73,126.27L98.18,130.62L103.64,112.48L109.09,140.78L114.55,119.59L120,112.77L125.45,116.4L130.91,130.91L136.36,120.17L141.82,136.71L147.27,116.11L152.73,128.01L158.18,146.14L163.64,117.42L169.09,135.26L174.55,129.75L180,127.72L185.45,128.44L190.91,119.59L196.36,131.2L201.82,125.25L207.27,132.8L212.73,131.2L218.18,149.19L223.64,137.15L229.09,132.94L240,126.85L245.45,115.53L250.91,119.74L256.36,120.46L261.82,106.83L267.27,110.31L272.73,119.3L278.18,117.13L283.64,109.87L289.09,125.54L294.55,109.44L300,98.7L305.45,113.64L310.91,111.32L316.36,101.89L321.82,95.36L327.27,103.2L332.73,96.09L338.18,85.21L343.64,93.48L349.09,97.97L354.55,79.26L360,87.24L365.45,83.47L370.91,70.7L376.36,68.23L381.82,77.66L387.27,66.2L392.73,63.88L398.18,52.27L403.64,61.41L409.09,57.35L414.55,58.08L420,50.24L425.45,41.68L430.91,49.23L436.36,50.82L441.82,39.79L447.27,38.49L452.73,42.26L458.18,41.68L463.64,46.03L469.09,50.24L474.55,46.61L480,39.21L485.45,36.75L496.36,38.78L501.82,42.99L507.27,36.46L512.73,48.21L518.18,39.5L523.64,43.28L529.09,31.67L534.55,35.3L540,39.36" style="vector-effect: non-scaling-stroke; fill: none; stroke: rgb(0, 191, 125); stroke-opacity: 1; stroke-width: 2px; opacity: 1;"/></g><g class="points"/><g class="text"/></g><g class="trace scatter tracefbe9ac" style="stroke-miterlimit: 2; opacity: 1;"><g class="fills"/><g class="errorbars"/><g class="lines"><path class="js-line" d="M0,249.3L5.45,158.77L10.91,147.89L16.36,142.66L21.82,148.32L27.27,140.78L32.73,131.34L38.18,126.56L43.64,133.81L49.09,134.1L54.55,159.64L60,153.11L65.45,139.32L70.91,150.5L76.36,149.05L81.82,146.72L87.27,123.07L92.73,142.66L98.18,131.93L103.64,129.89L109.09,148.47L114.55,142.23L120,131.34L130.91,148.47L136.36,142.52L141.82,144.98L147.27,138.89L152.73,149.19L158.18,171.1L163.64,145.71L169.09,149.92L174.55,168.49L180,158.48L185.45,157.32L190.91,152.82L196.36,157.75L201.82,157.75L207.27,161.23L212.73,143.82L218.18,189.38L223.64,159.93L229.09,135.55L234.55,145.56L240,145.27L245.45,125.4L250.91,138.89L256.36,162.54L261.82,145.56L267.27,145.27L272.73,127.72L278.18,140.92L283.64,130.18L289.09,147.3L294.55,163.7L300,135.55L305.45,129.46L310.91,137.29L316.36,125.25L321.82,123.95L327.27,122.93L332.73,127.57L338.18,117.13L343.64,110.6L349.09,121.04L354.55,101.75L360,121.91L365.45,102.18L370.91,94.35L376.36,95.07L381.82,92.32L387.27,79.4L392.73,74.47L398.18,83.61L403.64,78.24L409.09,66.06L414.55,78.68L420,56.04L425.45,57.64L430.91,46.76L436.36,45.6L441.82,47.34L458.18,43.71L463.64,48.79L469.09,49.81L474.55,40.37L480,33.12L485.45,39.94L490.91,45.16L496.36,33.7L501.82,34.14L507.27,41.68L518.18,32.25L523.64,32.25L534.55,28.19L540,37.62" style="vector-effect: non-scaling-stroke; fill: none; stroke: rgb(0, 176, 246); stroke-opacity: 1; stroke-width: 2px; opacity: 1;"/></g><g class="points"/><g class="text"/></g><g class="trace scatter trace7f74bb" style="stroke-miterlimit: 2; opacity: 1;"><g class="fills"/><g class="errorbars"/><g class="lines"><path class="js-line" d="M0,281.37L5.45,235.37L10.91,205.63L16.36,174.73L21.82,179.95L27.27,171.97L32.73,158.33L38.18,159.49L43.64,157.03L49.09,164.13L54.55,169.07L60,157.9L65.45,142.52L70.91,144.84L76.36,162.25L81.82,155.72L87.27,141.5L92.73,170.37L98.18,150.5L103.64,156.45L109.09,163.7L114.55,163.12L120,167.91L125.45,152.24L130.91,162.1L136.36,177.34L141.82,167.62L147.27,180.82L152.73,177.77L158.18,194.89L163.64,183.29L169.09,187.49L174.55,187.2L180,182.42L185.45,186.91L190.91,176.76L196.36,187.49L201.82,180.38L207.27,181.69L212.73,172.11L218.18,212.01L223.64,193.3L229.09,184.45L240,196.63L245.45,167.04L250.91,171.97L256.36,198.96L261.82,164.72L267.27,171.24L278.18,181.98L283.64,178.5L289.09,176.32L294.55,188.07L300,168.78L305.45,179.22L310.91,170.81L316.36,146.87L321.82,159.2L327.27,163.7L332.73,143.82L338.18,144.11L343.64,153.25L349.09,153.98L354.55,144.11L360,131.64L370.91,143.39L376.36,136.13L381.82,126.27L387.27,132.8L392.73,125.11L398.18,119.3L403.64,128.59L409.09,112.77L414.55,111.03L420,116.84L425.45,110.45L430.91,115.82L436.36,114.95L441.82,110.89L447.27,108.86L452.73,101.46L458.18,108.86L463.64,109.29L469.09,112.48L474.55,105.66L480,105.81L485.45,107.7L490.91,115.68L496.36,110.31L507.27,98.12L512.73,100.88L518.18,93.62L523.64,102.04L529.09,100.01L534.55,96.38L540,98.85" style="vector-effect: non-scaling-stroke; fill: none; stroke: rgb(231, 107, 243); stroke-opacity: 1; stroke-width: 2px; opacity: 1;"/></g><g class="points"/><g class="text"/></g><g class="trace scatter trace553335" style="stroke-miterlimit: 2; opacity: 1;"><g class="fills"/><g class="errorbars"/><g class="lines"><path class="js-line" d="M0,304L5.45,209.4L10.91,198.23L16.36,191.99L21.82,171.24L27.27,167.62L32.73,159.49L38.18,146.14L43.64,138.45L49.09,135.41L54.55,148.9L60,141.65L65.45,129.46L70.91,135.99L76.36,126.27L81.82,120.9L87.27,120.03L92.73,129.89L98.18,115.53L103.64,117.13L109.09,129.17L114.55,133.67L120,115.68L125.45,119.16L130.91,134.54L136.36,131.49L141.82,132.8L147.27,132.94L152.73,117.13L158.18,150.35L163.64,128.44L169.09,140.34L174.55,139.91L180,133.96L185.45,131.34L190.91,118.87L196.36,139.76L201.82,131.78L207.27,128.44L212.73,134.68L218.18,150.93L223.64,151.8L229.09,144.26L234.55,154.41L240,114.95L245.45,126.41L250.91,110.74L256.36,114.66L261.82,120.61L267.27,114.22L272.73,123.95L278.18,134.1L283.64,117.27L289.09,130.04L294.55,119.59L300,105.08L305.45,117.13L310.91,120.9L316.36,111.61L321.82,103.2L327.27,116.4L332.73,101.75L338.18,95.51L343.64,111.47L349.09,97.1L354.55,88.69L360,90.87L365.45,78.24L370.91,78.97L376.36,89.99L381.82,78.97L387.27,75.34L392.73,68.52L398.18,75.92L403.64,61.99L409.09,64.02L414.55,62.14L420,61.27L425.45,55.03L430.91,54.88L436.36,48.21L441.82,51.69L447.27,43.71L458.18,57.5L463.64,50.39L469.09,49.81L474.55,51.4L480,48.06L485.45,43.71L490.91,43.28L496.36,49.37L501.82,54.45L507.27,43.57L512.73,46.76L518.18,46.61L523.64,50.82L529.09,43.71L534.55,37.76L540,45.16" style="vector-effect: non-scaling-stroke; fill: none; stroke: rgb(248, 118, 109); stroke-opacity: 1; stroke-width: 2px; opacity: 1;"/></g><g class="points"/><g class="text"/></g><g class="trace scatter trace163fb1" style="stroke-miterlimit: 2; opacity: 1;"><g class="fills"/><g class="errorbars"/><g class="lines"><path class="js-line" d="M0,236.1L5.45,175.02L10.91,174.87L16.36,151.8L21.82,161.09L27.27,165.44L32.73,151.51L38.18,150.64L43.64,141.65L49.09,154.12L54.55,163.7L60,166.6L65.45,126.27L70.91,135.84L76.36,143.82L81.82,134.39L87.27,108.42L92.73,123.37L98.18,114.37L103.64,107.84L109.09,133.38L114.55,122.06L120,126.85L125.45,123.22L130.91,136.71L136.36,118.29L141.82,131.34L147.27,121.77L152.73,129.17L158.18,153.98L163.64,121.19L169.09,139.18L174.55,153.4L180,158.19L185.45,140.49L190.91,123.07L196.36,137L207.27,131.93L212.73,142.66L218.18,162.1L223.64,139.91L229.09,137.44L234.55,138.16L240,112.48L245.45,114.51L250.91,126.41L256.36,123.22L261.82,125.98L267.27,118L272.73,123.22L278.18,134.83L283.64,110.6L289.09,129.89L294.55,133.96L300,101.17L305.45,123.22L310.91,128.01L316.36,99.86L321.82,100.88L327.27,122.06L332.73,115.53L338.18,92.9L343.64,105.66L349.09,104.07L354.55,96.09L360,96.52L365.45,87.38L370.91,86.8L376.36,93.19L381.82,75.49L387.27,78.82L392.73,66.2L398.18,73.02L403.64,69.54L409.09,71.42L414.55,67.51L420,70.84L425.45,56.33L430.91,54.01L436.36,54.01L441.82,63.01L447.27,52.42L452.73,51.55L458.18,44.29L463.64,46.61L469.09,49.08L474.55,49.66L480,43.13L485.45,51.84L490.91,54.45L496.36,47.34L501.82,43.86L507.27,43.28L512.73,45.89L518.18,39.94L523.64,48.21L529.09,39.36L534.55,37.18L540,47.63" style="vector-effect: non-scaling-stroke; fill: none; stroke: rgb(163, 165, 0); stroke-opacity: 1; stroke-width: 2px; opacity: 1;"/></g><g class="points"/><g class="text"/></g><g class="trace scatter tracec4d680" style="stroke-miterlimit: 2; opacity: 1;"><g class="fills"/><g class="errorbars"/><g class="lines"><path class="js-line" d="M0,266.86L10.91,167.18L16.36,148.47L21.82,161.23L27.27,168.49L32.73,152.96L38.18,159.2L43.64,154.85L49.09,165.44L54.55,164.72L60,171.1L65.45,147.16L70.91,148.18L76.36,135.55L81.82,144.11L87.27,121.33L92.73,125.11L98.18,124.38L103.64,120.61L109.09,138.6L114.55,139.62L120,126.99L125.45,121.91L130.91,141.79L136.36,121.77L141.82,126.27L147.27,114.08L152.73,123.95L158.18,145.71L163.64,122.35L169.09,149.05L174.55,147.16L180,142.95L185.45,142.08L190.91,120.03L196.36,135.26L201.82,123.66L207.27,126.85L212.73,145.71L218.18,163.12L223.64,144.55L229.09,138.45L234.55,141.94L240,120.75L245.45,119.59L250.91,126.41L256.36,119.45L261.82,119.74L267.27,118.43L272.73,115.82L278.18,131.78L283.64,116.69L289.09,136.71L294.55,137.73L300,101.6L305.45,121.77L310.91,133.67L316.36,114.8L321.82,112.19L327.27,116.84L332.73,124.24L338.18,100.15L343.64,97.1L349.09,109.15L354.55,107.84L360,96.52L365.45,88.83L370.91,89.56L376.36,92.61L381.82,95.07L387.27,89.41L392.73,82.16L398.18,79.4L403.64,87.53L409.09,74.91L414.55,78.97L420,76.79L430.91,53L436.36,59.67L447.27,62.14L452.73,53.14L458.18,53.14L463.64,50.24L469.09,56.19L474.55,49.08L480,45.89L485.45,56.48L490.91,55.9L496.36,46.9L501.82,46.76L507.27,49.23L512.73,47.05L518.18,44L523.64,42.55L529.09,47.77L534.55,43.42L540,46.76" style="vector-effect: non-scaling-stroke; fill: none; stroke: rgb(0, 191, 125); stroke-opacity: 1; stroke-width: 2px; opacity: 1;"/></g><g class="points"/><g class="text"/></g><g class="trace scatter traceb50883" style="stroke-miterlimit: 2; opacity: 1;"><g class="fills"/><g class="errorbars"/><g class="lines"><path class="js-line" d="M0,264.54L10.91,181.55L16.36,171.53L21.82,172.55L27.27,170.95L32.73,147.45L38.18,152.24L43.64,152.24L49.09,138.74L54.55,146.72L60,126.85L65.45,135.26L70.91,127.14L76.36,137L81.82,123.07L87.27,109.58L92.73,113.79L98.18,120.03L103.64,119.01L109.09,119.3L114.55,114.95L120,128.44L125.45,101.02L130.91,122.78L136.36,125.54L141.82,127.43L147.27,118L152.73,124.53L158.18,137L163.64,136.71L169.09,122.06L174.55,136.86L180,134.83L185.45,120.46L190.91,112.92L196.36,119.3L201.82,127.43L207.27,115.53L212.73,119.74L218.18,139.47L223.64,136.13L229.09,124.67L234.55,121.77L240,112.34L245.45,113.5L250.91,110.89L256.36,110.45L261.82,110.31L267.27,106.1L272.73,105.66L278.18,118.43L283.64,99.28L289.09,101.02L294.55,104.94L300,97.68L305.45,117.85L310.91,109.15L316.36,105.81L321.82,89.99L327.27,96.38L332.73,111.18L338.18,83.18L343.64,101.6L349.09,96.81L354.55,83.18L360,84.48L365.45,84.34L370.91,84.05L376.36,88.4L381.82,74.91L387.27,76.07L392.73,75.63L398.18,68.67L403.64,74.47L409.09,71.71L414.55,57.06L420,63.73L425.45,61.99L430.91,54.3L436.36,62.14L441.82,61.41L447.27,54.88L452.73,57.35L458.18,47.34L463.64,50.53L469.09,53.58L474.55,45.02L480,45.02L485.45,46.47L490.91,46.18L496.36,49.37L501.82,48.64L507.27,51.4L518.18,43.86L523.64,41.25L529.09,37.76L534.55,41.25L540,44.15" style="vector-effect: non-scaling-stroke; fill: none; stroke: rgb(0, 176, 246); stroke-opacity: 1; stroke-width: 2px; opacity: 1;"/></g><g class="points"/><g class="text"/></g><g class="trace scatter trace9bc5bf" style="stroke-miterlimit: 2; opacity: 1;"><g class="fills"/><g class="errorbars"/><g class="lines"><path class="js-line" d="M0,258.01L5.45,177.77L10.91,141.65L16.36,125.11L21.82,141.79L27.27,141.07L32.73,141.65L38.18,143.82L43.64,137.44L49.09,143.82L54.55,137.87L60,150.79L65.45,132.36L70.91,145.13L76.36,142.23L81.82,139.91L87.27,117.71L92.73,131.78L98.18,129.46L103.64,125.69L109.09,138.6L114.55,139.03L120,128.3L125.45,133.52L130.91,141.65L136.36,135.55L141.82,132.07L147.27,135.55L152.73,140.2L158.18,161.23L163.64,134.25L169.09,169.5L174.55,160.36L180,173.28L185.45,156.3L190.91,145.85L196.36,141.65L201.82,139.18L207.27,144.69L212.73,142.66L218.18,165.01L223.64,139.47L229.09,143.53L234.55,144.11L240,146L245.45,123.37L250.91,126.99L261.82,135.12L267.27,131.93L272.73,128.01L278.18,136.57L283.64,126.99L289.09,137.73L294.55,144.11L300,124.82L305.45,124.82L310.91,129.02L316.36,110.31L321.82,105.95L327.27,121.91L332.73,114.66L338.18,98.41L343.64,100.88L349.09,104.36L354.55,99.43L360,105.37L365.45,84.77L370.91,87.09L376.36,87.38L381.82,90.43L387.27,75.78L392.73,76.79L398.18,81.14L403.64,76.21L409.09,74.91L414.55,69.39L420,61.27L425.45,69.25L430.91,43.13L436.36,59.67L441.82,55.61L447.27,58.22L452.73,53.72L458.18,49.95L463.64,58.08L469.09,45.16L474.55,48.06L480,49.08L485.45,53.87L490.91,56.62L496.36,50.1L501.82,45.74L507.27,54.45L512.73,41.83L518.18,41.25L523.64,44.87L529.09,49.66L534.55,40.52L540,40.52" style="vector-effect: non-scaling-stroke; fill: none; stroke: rgb(231, 107, 243); stroke-opacity: 1; stroke-width: 2px; opacity: 1;"/></g><g class="points"/><g class="text"/></g><g class="trace scatter trace9907ff" style="stroke-miterlimit: 2; opacity: 1;"><g class="fills"/><g class="errorbars"/><g class="lines"><path class="js-line" d="M0,255.4L5.45,162.54L10.91,154.7L16.36,146.58L21.82,144.84L27.27,159.78L32.73,147.89L38.18,152.24L43.64,146L54.55,168.92L60,159.93L65.45,142.23L70.91,147.59L76.36,151.08L81.82,133.67L87.27,115.24L92.73,134.83L103.64,129.17L109.09,149.63L114.55,135.7L120,133.96L125.45,134.68L130.91,147.3L136.36,131.93L141.82,144.26L147.27,129.6L152.73,143.53L158.18,160.51L163.64,138.16L169.09,145.56L174.55,169.65L180,150.93L185.45,146.43L190.91,135.41L196.36,141.07L201.82,134.25L207.27,140.92L212.73,131.64L218.18,176.18L223.64,154.7L229.09,130.18L234.55,138.6L240,128.01L245.45,120.61L250.91,122.35L256.36,154.7L261.82,134.97L267.27,127.43L272.73,129.46L278.18,145.71L283.64,131.78L289.09,141.5L294.55,142.66L300,123.07L305.45,125.4L310.91,136.71L316.36,120.46L321.82,119.74L327.27,125.11L332.73,109.29L338.18,108.71L343.64,109L349.09,116.4L354.55,100.01L360,111.61L365.45,106.54L370.91,92.75L376.36,87.96L381.82,89.99L387.27,88.4L392.73,88.25L398.18,83.76L403.64,91.3L409.09,81.29L414.55,75.63L420,68.38L425.45,68.67L436.36,54.88L441.82,61.27L447.27,58.95L452.73,57.5L458.18,64.6L463.64,63.88L469.09,59.67L474.55,57.35L480,54.16L485.45,64.75L490.91,66.06L496.36,54.88L501.82,54.74L507.27,53L512.73,49.66L518.18,52.71L523.64,54.74L529.09,53.29L534.55,48.93L540,51.69" style="vector-effect: non-scaling-stroke; fill: none; stroke: rgb(248, 118, 109); stroke-opacity: 1; stroke-width: 2px; opacity: 1;"/></g><g class="points"/><g class="text"/></g><g class="trace scatter trace3dd535" style="stroke-miterlimit: 2; opacity: 1;"><g class="fills"/><g class="errorbars"/><g class="lines"><path class="js-line" d="M0,260.91L5.45,183.14L10.91,154.7L16.36,156.74L21.82,146.58L27.27,154.7L32.73,147.16L38.18,129.17L43.64,141.94L49.09,143.97L54.55,150.79L60,151.08L65.45,143.53L70.91,140.49L76.36,127.86L81.82,140.63L87.27,118.87L92.73,129.46L98.18,132.94L103.64,130.47L109.09,144.4L114.55,140.2L120,134.68L125.45,133.96L130.91,150.5L136.36,139.76L141.82,142.23L147.27,134.25L152.73,139.91L158.18,148.61L163.64,124.09L169.09,144.69L174.55,157.75L180,145.71L185.45,147.45L190.91,134.1L196.36,139.18L201.82,149.05L207.27,148.61L212.73,134.25L218.18,166.75L229.09,139.62L234.55,145.13L240,125.4L245.45,126.85L250.91,115.82L256.36,149.92L261.82,130.91L267.27,133.96L272.73,130.91L278.18,143.53L283.64,125.98L289.09,145.42L294.55,145.71L300,124.82L305.45,124.09L310.91,137.29L316.36,119.45L321.82,111.76L327.27,133.96L332.73,114.95L338.18,105.08L343.64,112.05L349.09,102.04L354.55,105.95L360,105.37L365.45,97.83L370.91,94.49L376.36,102.33L381.82,85.79L387.27,84.77L392.73,77.81L398.18,76.07L403.64,87.09L409.09,75.78L414.55,81L420,77.52L425.45,65.48L430.91,55.75L436.36,55.75L441.82,54.16L447.27,54.16L452.73,48.64L458.18,51.11L463.64,52.27L469.09,60.25L474.55,51.55L480,47.92L485.45,42.84L490.91,48.06L496.36,46.9L501.82,49.37L507.27,47.05L512.73,39.65L518.18,33.56L529.09,45.02L534.55,47.34L540,39.79" style="vector-effect: non-scaling-stroke; fill: none; stroke: rgb(163, 165, 0); stroke-opacity: 1; stroke-width: 2px; opacity: 1;"/></g><g class="points"/><g class="text"/></g><g class="trace scatter tracec8a6a0" style="stroke-miterlimit: 2; opacity: 1;"><g class="fills"/><g class="errorbars"/><g class="lines"><path class="js-line" d="M0,290.07L5.45,216.37L10.91,177.34L16.36,166.02L21.82,164.28L27.27,183L32.73,159.06L38.18,166.17L43.64,161.38L49.09,158.91L54.55,159.49L60,162.54L65.45,129.46L70.91,154.7L76.36,149.63L81.82,141.5L87.27,118.14L92.73,121.19L98.18,119.74L103.64,119.01L109.09,119.59L114.55,121.33L120,113.06L125.45,119.01L130.91,131.64L136.36,113.64L141.82,123.51L147.27,107.99L152.73,124.96L158.18,139.76L163.64,104.07L169.09,130.62L174.55,128.44L180,136.57L185.45,116.98L190.91,130.76L196.36,115.97L201.82,128.44L207.27,126.7L212.73,112.63L218.18,129.46L223.64,120.75L229.09,110.31L234.55,132.51L240,98.85L245.45,119.01L250.91,108.86L256.36,95.36L261.82,114.51L267.27,96.67L272.73,105.52L278.18,105.81L283.64,116.98L289.09,106.1L294.55,108.13L300,98.26L305.45,120.03L310.91,110.89L316.36,105.23L321.82,97.25L327.27,100.88L332.73,93.77L338.18,90.28L343.64,97.25L349.09,95.8L354.55,89.7L360,84.92L365.45,90.43L370.91,90.43L376.36,92.32L381.82,85.06L387.27,81L392.73,75.92L398.18,72.58L403.64,79.26L409.09,66.78L414.55,71.57L420,72.44L425.45,65.91L430.91,61.7L436.36,63.88L441.82,57.64L447.27,56.04L452.73,53.58L458.18,56.48L463.64,53.29L469.09,47.34L474.55,47.05L480,51.69L485.45,52.85L490.91,43.86L496.36,55.61L501.82,43.28L507.27,49.81L512.73,47.19L518.18,40.08L523.64,45.02L529.09,38.92L534.55,37.47L540,43.13" style="vector-effect: non-scaling-stroke; fill: none; stroke: rgb(0, 191, 125); stroke-opacity: 1; stroke-width: 2px; opacity: 1;"/></g><g class="points"/><g class="text"/></g><g class="trace scatter trace3e70c3" style="stroke-miterlimit: 2; opacity: 1;"><g class="fills"/><g class="errorbars"/><g class="lines"><path class="js-line" d="M0,264.39L5.45,204.76L10.91,168.63L16.36,151.66L21.82,161.81L27.27,172.26L32.73,151.66L38.18,147.01L43.64,148.47L49.09,150.06L54.55,166.89L60,150.06L65.45,146.72L70.91,135.12L76.36,137.44L81.82,127.14L87.27,115.24L92.73,126.12L98.18,116.84L103.64,107.7L109.09,138.89L114.55,130.33L120,131.78L125.45,124.96L130.91,135.41L136.36,128.88L141.82,141.94L147.27,123.07L152.73,131.34L158.18,156.16L163.64,130.62L169.09,137.73L174.55,150.06L180,146.43L185.45,140.78L190.91,126.41L196.36,128.01L201.82,126.56L207.27,116.4L212.73,132.94L218.18,158.19L223.64,140.05L229.09,150.06L234.55,145.42L240,127.28L245.45,116.4L250.91,114.08L256.36,124.09L261.82,117.42L267.27,116.55L272.73,131.05L278.18,130.33L283.64,107.55L289.09,120.17L294.55,120.03L300,109.73L305.45,120.75L310.91,124.67L316.36,109L321.82,104.94L327.27,106.97L338.18,91.16L343.64,100.15L349.09,92.03L354.55,94.2L360,96.38L365.45,85.5L370.91,82.16L376.36,91.59L381.82,72.73L387.27,82.6L398.18,70.7L403.64,69.54L409.09,74.62L414.55,61.41L420,54.88L425.45,60.98L430.91,64.46L436.36,54.74L441.82,49.66L447.27,50.39L452.73,56.33L458.18,51.69L474.55,48.93L480,53.29L485.45,43.13L490.91,44L496.36,47.34L501.82,41.68L507.27,47.92L512.73,42.7L518.18,34.72L523.64,46.32L529.09,38.34L534.55,35.15L540,41.54" style="vector-effect: non-scaling-stroke; fill: none; stroke: rgb(0, 176, 246); stroke-opacity: 1; stroke-width: 2px; opacity: 1;"/></g><g class="points"/><g class="text"/></g><g class="trace scatter trace10d942" style="stroke-miterlimit: 2; opacity: 1;"><g class="fills"/><g class="errorbars"/><g class="lines"><path class="js-line" d="M0,241.61L5.45,175.31L10.91,180.53L16.36,161.96L21.82,168.2L27.27,185.17L32.73,159.64L38.18,160.22L43.64,155.57L49.09,170.66L54.55,177.19L60,172.84L65.45,153.11L70.91,140.05L76.36,154.85L81.82,142.23L87.27,132.65L92.73,156.45L98.18,144.26L103.64,133.52L109.09,150.35L114.55,151.8L120,150.5L125.45,146L130.91,157.9L136.36,158.62L141.82,151.66L147.27,137.29L152.73,151.66L158.18,169.94L163.64,133.96L169.09,158.91L174.55,165.44L180,162.54L185.45,155.14L190.91,146.58L196.36,140.49L201.82,146.29L207.27,133.67L212.73,126.7L218.18,170.52L223.64,158.91L229.09,139.62L234.55,146.58L240,133.67L245.45,115.53L250.91,134.68L256.36,136.71L261.82,140.05L272.73,134.83L278.18,138.74L283.64,123.07L289.09,130.47L294.55,146.29L300,122.93L305.45,124.38L310.91,134.97L316.36,129.31L321.82,112.05L327.27,127.86L332.73,111.61L338.18,90.72L343.64,109.15L349.09,115.53L354.55,106.83L360,98.85L365.45,93.04L370.91,100.88L376.36,91.45L381.82,89.27L387.27,89.41L398.18,80.42L403.64,81.43L409.09,75.05L414.55,80.13L420,70.7L425.45,72.29L430.91,62.57L436.36,58.66L441.82,56.62L447.27,57.79L452.73,53L458.18,54.01L463.64,55.9L469.09,60.54L480,52.56L485.45,52.42L490.91,52.56L496.36,51.69L501.82,51.69L507.27,49.95L512.73,47.48L518.18,50.68L523.64,45.45L529.09,45.89L534.55,52.71L540,45.6" style="vector-effect: non-scaling-stroke; fill: none; stroke: rgb(231, 107, 243); stroke-opacity: 1; stroke-width: 2px; opacity: 1;"/></g><g class="points"/><g class="text"/></g><g class="trace scatter trace75d3da" style="stroke-miterlimit: 2; opacity: 1;"><g class="fills"/><g class="errorbars"/><g class="lines"><path class="js-line" d="M0,260.47L5.45,176.18L10.91,172.55L16.36,159.49L21.82,150.5L27.27,169.07L32.73,148.9L38.18,163.26L43.64,146.29L54.55,162.54L60,151.8L65.45,138.31L70.91,146L76.36,147.74L81.82,138.31L87.27,112.34L92.73,141.94L98.18,135.41L103.64,116.69L109.09,147.59L114.55,142.66L120,130.47L125.45,127.72L130.91,141.21L136.36,132.8L141.82,137.44L147.27,136.86L152.73,149.34L158.18,153.69L163.64,131.64L169.09,152.38L174.55,150.93L180,155.14L185.45,137.87L190.91,133.67L196.36,138.16L201.82,137.58L207.27,146.43L212.73,135.99L218.18,168.92L223.64,138.89L229.09,140.34L234.55,145.56L240,130.62L245.45,125.69L250.91,115.1L256.36,144.69L261.82,132.8L267.27,123.51L272.73,123.22L278.18,129.31L283.64,128.59L289.09,133.38L294.55,139.62L300,112.34L305.45,123.8L310.91,132.51L316.36,124.67L321.82,105.95L327.27,119.88L332.73,108.71L338.18,97.54L343.64,104.36L349.09,101.89L354.55,96.09L360,106.24L365.45,99.86L370.91,95.65L376.36,79.98L381.82,82.6L387.27,80.85L392.73,81.43L398.18,75.34L403.64,76.07L409.09,75.63L414.55,65.48L420,75.92L425.45,62.28L430.91,52.71L436.36,54.59L441.82,57.93L447.27,50.53L452.73,49.23L458.18,40.23L463.64,51.26L469.09,48.79L474.55,38.05L480,43.13L485.45,45.16L490.91,50.24L496.36,49.52L501.82,48.64L507.27,43.86L512.73,41.68L518.18,44L523.64,45.89L529.09,40.08L540,37.62" style="vector-effect: non-scaling-stroke; fill: none; stroke: rgb(248, 118, 109); stroke-opacity: 1; stroke-width: 2px; opacity: 1;"/></g><g class="points"/><g class="text"/></g><g class="trace scatter tracef0960c" style="stroke-miterlimit: 2; opacity: 1;"><g class="fills"/><g class="errorbars"/><g class="lines"><path class="js-line" d="M0,275.42L5.45,194.31L10.91,171.68L16.36,174.44L21.82,191.99L27.27,175.74L32.73,163.7L38.18,155.14L43.64,156.59L49.09,157.17L54.55,159.78L60,152.53L65.45,133.67L70.91,148.03L76.36,125.69L81.82,132.8L87.27,117.42L92.73,125.69L98.18,121.04L103.64,108.13L109.09,137.73L114.55,118.43L120,127.57L125.45,126.27L130.91,130.91L136.36,134.1L141.82,131.2L147.27,131.05L152.73,118.29L158.18,147.59L163.64,126.99L169.09,140.2L174.55,136.42L180,139.47L185.45,148.18L190.91,128.01L196.36,131.05L201.82,131.49L207.27,123.8L212.73,121.62L218.18,161.81L223.64,136.86L229.09,132.51L240,127.57L245.45,122.78L250.91,112.34L256.36,124.53L261.82,128.44L267.27,119.16L272.73,124.96L278.18,125.69L283.64,114.08L289.09,125.11L294.55,125.4L300,99.57L305.45,134.39L310.91,125.98L321.82,105.66L327.27,114.95L332.73,105.81L338.18,106.97L343.64,106.54L349.09,93.91L354.55,91.59L360,95.94L365.45,88.83L370.91,92.32L376.36,86.08L381.82,94.2L387.27,78.24L392.73,72.15L403.64,83.76L409.09,76.36L414.55,77.08L420,74.04L425.45,71.71L430.91,64.89L436.36,64.6L441.82,71.28L447.27,49.95L452.73,56.48L458.18,49.52L463.64,56.77L469.09,57.35L474.55,63.3L480,48.21L485.45,58.8L490.91,55.17L496.36,47.48L501.82,51.84L507.27,49.08L512.73,53.29L518.18,47.48L523.64,47.92L529.09,51.69L534.55,47.48L540,51.98" style="vector-effect: non-scaling-stroke; fill: none; stroke: rgb(163, 165, 0); stroke-opacity: 1; stroke-width: 2px; opacity: 1;"/></g><g class="points"/><g class="text"/></g><g class="trace scatter trace086a3e" style="stroke-miterlimit: 2; opacity: 1;"><g class="fills"/><g class="errorbars"/><g class="lines"><path class="js-line" d="M0,271.5L5.45,167.04L10.91,158.04L16.36,149.19L21.82,161.67L27.27,158.33L32.73,142.52L38.18,145.13L43.64,146.43L49.09,134.83L54.55,157.46L60,147.01L65.45,131.78L70.91,135.41L76.36,136.28L81.82,129.02L87.27,124.24L92.73,127.28L98.18,116.26L103.64,119.88L109.09,142.95L114.55,125.11L120,133.09L125.45,128.3L130.91,132.8L136.36,135.12L141.82,146.29L147.27,128.44L152.73,134.39L158.18,157.46L163.64,128.01L169.09,164.13L174.55,152.67L180,156.16L185.45,135.55L190.91,125.11L196.36,134.83L207.27,130.47L212.73,139.76L218.18,170.23L223.64,145.27L229.09,140.78L234.55,140.49L240,124.24L245.45,128.15L250.91,120.17L256.36,132.65L261.82,132.22L267.27,129.17L272.73,121.19L278.18,123.22L283.64,121.77L289.09,126.41L294.55,140.92L300,107.7L310.91,125.25L316.36,112.19L321.82,102.62L327.27,116.26L332.73,112.48L338.18,92.32L343.64,111.9L349.09,98.26L354.55,106.54L360,98.7L365.45,89.7L370.91,87.82L376.36,89.85L381.82,75.2L387.27,72.87L392.73,76.21L398.18,78.24L403.64,69.25L409.09,67.8L414.55,64.46L420,69.83L425.45,62.14L430.91,61.12L436.36,58.8L441.82,66.35L447.27,50.39L452.73,56.04L458.18,55.46L469.09,59.82L474.55,49.81L480,44L485.45,52.71L490.91,43.71L496.36,47.77L501.82,55.03L507.27,47.05L512.73,53.58L518.18,43.13L523.64,54.01L529.09,45.02L534.55,50.39L540,42.26" style="vector-effect: non-scaling-stroke; fill: none; stroke: rgb(0, 191, 125); stroke-opacity: 1; stroke-width: 2px; opacity: 1;"/></g><g class="points"/><g class="text"/></g><g class="trace scatter tracef532b7" style="stroke-miterlimit: 2; opacity: 1;"><g class="fills"/><g class="errorbars"/><g class="lines"><path class="js-line" d="M0,270.63L5.45,189.67L10.91,185.32L16.36,167.18L21.82,167.18L27.27,175.6L32.73,160.94L38.18,136.13L43.64,139.47L49.09,140.78L54.55,162.39L65.45,129.75L70.91,137.73L76.36,143.24L81.82,141.07L87.27,123.95L92.73,128.44L98.18,132.36L103.64,119.88L109.09,141.36L114.55,135.99L120,123.51L125.45,133.52L130.91,139.47L136.36,127.14L141.82,136.86L147.27,131.93L152.73,144.98L158.18,154.99L163.64,127.14L169.09,139.32L174.55,159.93L180,151.8L185.45,145.56L190.91,131.2L196.36,135.12L201.82,142.08L207.27,140.92L212.73,129.31L218.18,167.04L223.64,153.4L229.09,140.34L234.55,143.68L240,129.02L245.45,119.59L250.91,118.14L256.36,126.85L261.82,129.89L267.27,129.31L272.73,131.2L278.18,126.56L283.64,115.68L289.09,140.34L294.55,140.05L300,110.45L305.45,119.3L310.91,134.83L316.36,114.51L321.82,105.52L327.27,119.74L332.73,115.1L338.18,103.49L343.64,104.79L360,106.39L365.45,103.63L370.91,91.16L376.36,85.35L381.82,83.03L387.27,91.16L392.73,87.09L398.18,88.69L403.64,88.4L409.09,83.9L414.55,68.09L420,71.28L425.45,73.02L430.91,57.35L436.36,69.97L441.82,69.83L447.27,57.5L452.73,53.29L458.18,60.69L463.64,59.53L469.09,50.97L474.55,64.17L480,54.59L485.45,59.24L490.91,53.14L496.36,58.51L501.82,47.63L507.27,56.77L512.73,56.04L518.18,50.82L523.64,50.39L529.09,47.92L534.55,48.64L540,54.3" style="vector-effect: non-scaling-stroke; fill: none; stroke: rgb(0, 176, 246); stroke-opacity: 1; stroke-width: 2px; opacity: 1;"/></g><g class="points"/><g class="text"/></g><g class="trace scatter trace47ab02" style="stroke-miterlimit: 2; opacity: 1;"><g class="fills"/><g class="errorbars"/><g class="lines"><path class="js-line" d="M0,280.21L5.45,212.88L10.91,181.4L16.36,147.74L21.82,174.15L27.27,170.08L32.73,160.22L38.18,150.79L43.64,139.18L49.09,147.01L54.55,162.39L60,159.64L65.45,147.16L70.91,165.15L76.36,142.23L81.82,134.97L87.27,114.95L92.73,126.56L98.18,122.2L103.64,112.05L109.09,137.73L114.55,126.85L120,118.72L125.45,126.99L130.91,138.89L136.36,121.62L141.82,128.01L147.27,128.01L152.73,122.93L158.18,143.82L163.64,116.4L169.09,139.03L174.55,140.2L180,141.79L185.45,141.07L190.91,139.47L196.36,146.58L201.82,123.51L207.27,128.44L212.73,127.57L218.18,164.86L223.64,156.16L229.09,138.74L234.55,128.73L240,122.35L245.45,120.32L250.91,111.76L256.36,133.38L261.82,113.64L267.27,123.66L272.73,123.07L278.18,127.86L283.64,114.51L289.09,124.67L294.55,129.6L300,115.97L305.45,111.18L310.91,131.64L316.36,107.99L321.82,107.99L327.27,120.17L338.18,97.97L343.64,107.99L349.09,100.59L354.55,88.54L360,97.68L365.45,86.51L370.91,91.74L376.36,74.91L381.82,82.31L387.27,74.91L392.73,70.41L398.18,76.79L403.64,81.87L409.09,69.54L414.55,76.07L420,68.38L425.45,66.49L430.91,55.9L436.36,61.27L441.82,59.53L447.27,46.61L452.73,52.56L458.18,55.46L463.64,60.54L469.09,49.23L474.55,53L480,47.63L485.45,45.6L490.91,50.39L496.36,43.42L501.82,47.63L507.27,54.45L512.73,45.31L518.18,39.79L523.64,44L529.09,42.55L534.55,39.5L540,47.63" style="vector-effect: non-scaling-stroke; fill: none; stroke: rgb(231, 107, 243); stroke-opacity: 1; stroke-width: 2px; opacity: 1;"/></g><g class="points"/><g class="text"/></g><g class="trace scatter trace6ed0dd" style="stroke-miterlimit: 2; opacity: 1;"><g class="fills"/><g class="errorbars"/><g class="lines"><path class="js-line" d="M0,257.43L5.45,199.1L10.91,177.19L16.36,155.43L21.82,147.89L27.27,155.72L32.73,151.51L38.18,134.1L43.64,135.41L49.09,125.11L54.55,137.73L60,135.7L65.45,125.25L70.91,134.1L76.36,126.7L81.82,141.21L87.27,112.19L92.73,124.09L98.18,117.71L103.64,123.66L109.09,132.51L114.55,130.91L120,119.16L125.45,123.37L130.91,132.07L136.36,123.8L141.82,136.28L147.27,118.29L152.73,122.35L158.18,151.37L163.64,135.41L169.09,135.55L174.55,145.71L180,143.39L185.45,128.73L190.91,120.75L196.36,126.85L201.82,138.74L207.27,144.4L212.73,142.52L218.18,169.36L223.64,142.66L229.09,141.21L234.55,141.65L240,134.83L245.45,117.42L250.91,123.66L256.36,130.76L261.82,124.38L267.27,125.54L272.73,121.91L278.18,129.46L283.64,121.04L289.09,123.95L294.55,117.85L300,105.81L305.45,120.17L310.91,133.81L316.36,115.39L332.73,111.18L338.18,102.76L343.64,99.57L349.09,104.5L354.55,90.43L360,89.99L365.45,85.5L370.91,72.58L376.36,79.26L381.82,79.84L387.27,81.29L392.73,70.26L398.18,77.52L403.64,68.09L409.09,71.42L414.55,53.87L420,65.18L425.45,61.27L430.91,48.64L436.36,45.02L441.82,41.39L447.27,50.53L452.73,39.21L458.18,49.52L463.64,45.31L469.09,37.76L474.55,41.25L480,36.46L485.45,40.96L490.91,34.28L496.36,29.93L501.82,31.67L507.27,34.57L512.73,22.24L518.18,26.59L523.64,23.54L534.55,24.41L540,21.37" style="vector-effect: non-scaling-stroke; fill: none; stroke: rgb(248, 118, 109); stroke-opacity: 1; stroke-width: 2px; opacity: 1;"/></g><g class="points"/><g class="text"/></g><g class="trace scatter tracedd98dd" style="stroke-miterlimit: 2; opacity: 1;"><g class="fills"/><g class="errorbars"/><g class="lines"><path class="js-line" d="M0,293.99L5.45,221.73L10.91,176.03L16.36,161.38L21.82,157.03L27.27,161.96L32.73,147.16L38.18,143.24L43.64,135.55L49.09,134.97L54.55,149.77L60,146.14L65.45,120.9L70.91,135.12L76.36,137L81.82,130.18L87.27,111.9L92.73,129.75L98.18,124.67L103.64,114.22L109.09,141.36L114.55,137.29L120,131.2L125.45,125.83L130.91,130.76L136.36,136.71L141.82,139.91L147.27,126.27L152.73,125.4L158.18,158.91L163.64,138.6L169.09,142.81L174.55,148.32L180,139.18L185.45,148.9L196.36,135.99L201.82,140.2L207.27,141.65L212.73,139.18L218.18,161.81L223.64,136.13L234.55,156.74L240,133.52L245.45,118L250.91,128.88L256.36,132.22L261.82,130.47L267.27,136.13L272.73,130.18L278.18,128.59L283.64,113.93L289.09,135.55L294.55,128.15L300,127.14L305.45,117.71L310.91,126.85L316.36,111.9L321.82,109.44L327.27,117.42L332.73,123.51L338.18,100.15L343.64,110.74L349.09,108.71L354.55,101.75L360,97.68L365.45,105.23L370.91,87.09L376.36,89.27L381.82,85.5L387.27,91.59L392.73,86.8L398.18,78.97L403.64,88.54L409.09,81.72L414.55,78.82L420,70.41L425.45,66.64L430.91,65.33L436.36,68.23L441.82,62.43L447.27,63.15L452.73,65.04L458.18,64.75L463.64,69.1L469.09,59.96L474.55,63.73L480,58.08L485.45,63.73L490.91,57.64L496.36,64.89L501.82,59.67L507.27,64.75L512.73,56.77L518.18,58.08L523.64,62.86L529.09,60.11L534.55,52.56L540,60.54" style="vector-effect: non-scaling-stroke; fill: none; stroke: rgb(163, 165, 0); stroke-opacity: 1; stroke-width: 2px; opacity: 1;"/></g><g class="points"/><g class="text"/></g><g class="trace scatter tracef9d3e2" style="stroke-miterlimit: 2; opacity: 1;"><g class="fills"/><g class="errorbars"/><g class="lines"><path class="js-line" d="M0,253.65L5.45,184.01L10.91,165.73L16.36,153.83L21.82,159.64L27.27,167.33L32.73,156.01L38.18,155.28L43.64,144.69L49.09,144.11L54.55,155.57L60,154.7L65.45,125.25L70.91,143.39L76.36,125.83L81.82,131.93L87.27,105.52L92.73,120.17L98.18,118.43L103.64,103.49L109.09,129.31L114.55,126.85L120,119.74L125.45,126.27L130.91,129.46L136.36,129.02L141.82,137.58L147.27,128.88L152.73,133.96L158.18,151.08L163.64,126.56L169.09,140.49L174.55,147.89L180,150.35L185.45,138.74L190.91,119.16L196.36,127.14L201.82,132.65L207.27,144.11L212.73,124.96L218.18,155.86L223.64,150.64L229.09,133.23L234.55,144.26L240,123.95L245.45,118.29L250.91,119.88L256.36,124.24L261.82,122.35L267.27,123.8L272.73,128.15L278.18,131.49L283.64,118.72L289.09,131.78L294.55,137.73L300,106.39L305.45,110.45L310.91,127.72L316.36,114.66L321.82,111.18L327.27,121.33L332.73,100.01L338.18,97.54L343.64,94.35L349.09,97.83L354.55,91.59L360,88.98L365.45,85.79L370.91,88.69L376.36,75.2L381.82,79.11L387.27,75.78L392.73,87.53L398.18,77.08L403.64,76.07L409.09,66.78L414.55,63.73L420,70.7L425.45,70.12L430.91,51.11L436.36,59.09L441.82,54.59L447.27,59.09L452.73,48.79L458.18,49.37L463.64,53.14L469.09,46.32L474.55,49.08L480,50.68L485.45,49.66L490.91,56.33L496.36,50.68L501.82,49.23L507.27,50.24L512.73,49.81L518.18,43.71L523.64,49.95L529.09,43.13L534.55,41.54L540,42.41" style="vector-effect: non-scaling-stroke; fill: none; stroke: rgb(0, 191, 125); stroke-opacity: 1; stroke-width: 2px; opacity: 1;"/></g><g class="points"/><g class="text"/></g><g class="trace scatter trace2257d3" style="stroke-miterlimit: 2; opacity: 1;"><g class="fills"/><g class="errorbars"/><g class="lines"><path class="js-line" d="M0,256.12L5.45,176.9L10.91,171.97L16.36,163.99L21.82,160.51L27.27,148.61L32.73,142.81L38.18,139.32L43.64,132.8L49.09,149.48L54.55,159.06L60,161.09L65.45,141.5L70.91,151.66L76.36,156.01L81.82,149.19L87.27,121.33L92.73,141.21L98.18,130.91L103.64,132.65L109.09,152.38L114.55,134.83L120,141.21L125.45,138.16L130.91,138.6L136.36,122.49L141.82,144.98L147.27,136.57L152.73,131.78L158.18,154.7L163.64,133.38L169.09,139.03L174.55,157.9L180,145.56L185.45,154.27L190.91,134.25L196.36,157.32L201.82,148.18L207.27,148.47L212.73,132.65L218.18,169.21L223.64,163.41L229.09,142.81L234.55,141.5L240,124.96L245.45,123.66L250.91,119.45L256.36,151.37L261.82,136.13L267.27,137.73L272.73,136.86L278.18,138.74L283.64,122.64L289.09,133.23L294.55,130.04L300,116.55L305.45,130.47L310.91,123.51L316.36,127.86L321.82,105.66L327.27,115.1L332.73,103.92L338.18,102.33L343.64,100.15L349.09,89.85L354.55,88.25L360,95.36L365.45,75.63L370.91,73.45L376.36,90.43L381.82,76.65L387.27,81.29L392.73,68.09L398.18,68.52L403.64,63.73L414.55,53.43L420,49.95L425.45,44.29L430.91,44.73L436.36,25.58L441.82,37.62L447.27,35.59L452.73,36.6L458.18,32.39L463.64,36.31L469.09,25.87L474.55,29.93L480,24.56L485.45,24.71L490.91,29.49L496.36,29.64L512.73,27.61L518.18,26.59L523.64,33.12L529.09,16L534.55,16.14L540,27.9" style="vector-effect: non-scaling-stroke; fill: none; stroke: rgb(0, 176, 246); stroke-opacity: 1; stroke-width: 2px; opacity: 1;"/></g><g class="points"/><g class="text"/></g><g class="trace scatter trace586f5a" style="stroke-miterlimit: 2; opacity: 1;"><g class="fills"/><g class="errorbars"/><g class="lines"><path class="js-line" d="M0,272.95L5.45,219.41L10.91,182.71L16.36,174.87L21.82,174.44L27.27,186.91L32.73,159.49L38.18,159.2L43.64,163.26L54.55,163.7L60,166.17L65.45,148.9L70.91,156.88L76.36,141.94L81.82,134.25L87.27,113.21L92.73,123.66L98.18,118.58L103.64,112.19L109.09,146.43L114.55,121.04L120,124.24L125.45,123.51L130.91,129.46L136.36,119.3L141.82,129.17L147.27,116.55L152.73,116.69L158.18,140.63L163.64,113.06L169.09,126.85L174.55,137.73L180,144.69L185.45,128.59L190.91,120.9L196.36,124.96L201.82,122.2L207.27,133.23L212.73,124.53L218.18,145.42L223.64,136.28L229.09,124.96L234.55,138.02L240,112.48L245.45,109.87L250.91,116.11L256.36,119.01L261.82,118L267.27,121.77L272.73,106.83L278.18,116.84L283.64,121.19L289.09,126.85L294.55,123.51L300,103.63L310.91,129.6L316.36,107.12L321.82,103.05L327.27,107.12L332.73,112.48L338.18,100.59L343.64,98.26L349.09,91.16L354.55,84.48L360,92.46L365.45,92.03L370.91,87.96L376.36,84.92L381.82,77.52L387.27,62.28L392.73,62.14L398.18,61.41L403.64,57.2L409.09,45.89L414.55,48.21L420,46.32L425.45,59.09L430.91,42.41L436.36,38.05L441.82,36.6L447.27,38.78L452.73,32.83L458.18,35.3L463.64,32.83L469.09,32.39L474.55,31.38L480,28.04L485.45,28.62L490.91,34.43L496.36,22.53L501.82,36.17L507.27,30.8L512.73,29.2L518.18,22.38L523.64,30.94L529.09,23.69L534.55,18.76L540,16.14" style="vector-effect: non-scaling-stroke; fill: none; stroke: rgb(231, 107, 243); stroke-opacity: 1; stroke-width: 2px; opacity: 1;"/></g><g class="points"/><g class="text"/></g><g class="trace scatter trace3fc858" style="stroke-miterlimit: 2; opacity: 1;"><g class="fills"/><g class="errorbars"/><g class="lines"><path class="js-line" d="M0,261.63L5.45,199.97L10.91,168.34L16.36,156.45L21.82,158.19L27.27,163.99L32.73,148.76L38.18,145.85L43.64,138.31L54.55,161.23L60,147.74L65.45,142.66L70.91,156.74L76.36,142.37L81.82,133.23L87.27,124.82L92.73,109.73L98.18,118.58L103.64,110.74L109.09,126.56L114.55,113.64L120,112.77L125.45,115.24L130.91,141.5L136.36,113.93L141.82,131.93L147.27,124.09L152.73,120.46L158.18,145.56L163.64,116.84L169.09,140.78L174.55,141.5L180,129.89L185.45,128.88L190.91,124.09L196.36,133.67L201.82,126.85L207.27,126.7L212.73,119.45L218.18,150.06L223.64,148.18L229.09,129.31L234.55,130.33L240,119.88L245.45,132.65L250.91,110.16L256.36,117.71L261.82,121.33L267.27,114.51L272.73,123.95L278.18,117.13L283.64,102.76L289.09,120.32L294.55,125.4L300,99.43L310.91,127.72L316.36,103.49L321.82,95.22L327.27,98.99L332.73,96.96L338.18,88.11L343.64,95.94L349.09,101.02L354.55,84.92L360,94.78L365.45,81.14L370.91,86.95L376.36,76.5L381.82,69.68L387.27,76.79L392.73,67.22L403.64,70.99L409.09,62.57L414.55,60.69L420,66.49L425.45,52.56L430.91,54.74L436.36,53.87L441.82,56.19L447.27,51.4L452.73,55.9L458.18,47.92L463.64,45.02L469.09,63.15L474.55,42.7L480,50.97L485.45,53.43L490.91,51.84L496.36,47.05L501.82,45.74L507.27,55.17L512.73,42.99L518.18,41.83L523.64,42.12L529.09,43.86L540,47.92" style="vector-effect: non-scaling-stroke; fill: none; stroke: rgb(248, 118, 109); stroke-opacity: 1; stroke-width: 2px; opacity: 1;"/></g><g class="points"/><g class="text"/></g><g class="trace scatter traceae421e" style="stroke-miterlimit: 2; opacity: 1;"><g class="fills"/><g class="errorbars"/><g class="lines"><path class="js-line" d="M0,274.84L5.45,183.14L10.91,177.48L16.36,168.63L21.82,172.7L27.27,172.26L32.73,156.45L38.18,164.13L43.64,156.88L49.09,166.89L54.55,171.1L60,177.77L65.45,148.61L70.91,149.48L76.36,161.23L81.82,132.51L87.27,130.04L92.73,147.59L98.18,127.57L103.64,110.6L109.09,140.63L114.55,127.43L120,138.02L125.45,121.77L130.91,139.76L136.36,130.18L141.82,137.73L147.27,126.7L152.73,125.11L158.18,146.14L163.64,128.73L169.09,142.81L174.55,142.66L180,139.76L185.45,133.81L190.91,123.66L196.36,126.27L201.82,133.23L207.27,123.8L212.73,123.95L218.18,156.45L223.64,127.57L229.09,140.2L234.55,138.02L240,121.91L245.45,121.91L250.91,114.22L256.36,123.95L261.82,124.67L267.27,114.8L272.73,121.77L278.18,111.03L283.64,105.81L289.09,119.88L294.55,114.08L300,102.33L305.45,126.12L310.91,127.28L316.36,111.32L321.82,112.19L327.27,109.73L332.73,111.03L338.18,98.99L343.64,101.17L349.09,98.26L354.55,93.91L360,94.35L370.91,92.46L376.36,92.61L381.82,77.95L387.27,95.07L392.73,80.13L398.18,85.93L403.64,77.37L409.09,76.36L414.55,74.04L420,65.48L425.45,54.59L430.91,62.14L436.36,57.2L441.82,55.61L447.27,49.37L452.73,56.62L463.64,59.38L469.09,64.75L474.55,54.45L480,51.55L485.45,52.71L490.91,49.81L496.36,48.21L501.82,50.39L507.27,43.13L512.73,43.13L518.18,45.16L523.64,51.84L529.09,42.12L534.55,38.78L540,43.42" style="vector-effect: non-scaling-stroke; fill: none; stroke: rgb(163, 165, 0); stroke-opacity: 1; stroke-width: 2px; opacity: 1;"/></g><g class="points"/><g class="text"/></g><g class="trace scatter trace49d782" style="stroke-miterlimit: 2; opacity: 1;"><g class="fills"/><g class="errorbars"/><g class="lines"><path class="js-line" d="M0,291.96L5.45,216.8L10.91,177.63L16.36,165.59L21.82,168.63L27.27,170.23L32.73,158.91L38.18,161.52L43.64,140.63L54.55,168.92L60,179.51L65.45,145.13L70.91,146.72L76.36,162.97L81.82,155.86L87.27,124.67L92.73,135.99L103.64,119.45L109.09,142.95L120,122.35L125.45,125.83L130.91,143.53L136.36,128.01L141.82,137.15L147.27,131.64L152.73,135.12L158.18,153.98L163.64,125.98L169.09,140.05L174.55,152.53L180,148.47L185.45,139.03L190.91,121.77L196.36,129.17L201.82,128.3L207.27,126.99L212.73,121.62L218.18,166.46L223.64,159.49L229.09,126.27L234.55,144.84L240,137.73L245.45,131.93L250.91,110.31L256.36,129.17L261.82,123.51L267.27,132.07L272.73,129.17L278.18,137.44L283.64,120.75L289.09,139.32L294.55,135.99L300,113.21L305.45,122.49L310.91,129.46L316.36,114.37L321.82,104.79L327.27,101.17L332.73,113.64L338.18,94.64L343.64,104.79L349.09,101.46L354.55,93.91L360,95.36L365.45,95.51L370.91,92.61L376.36,86.08L381.82,85.06L387.27,85.93L392.73,77.37L398.18,75.63L403.64,79.69L409.09,70.12L414.55,78.1L420,65.91L425.45,66.78L430.91,61.85L436.36,59.82L441.82,67.07L447.27,52.13L452.73,53.29L458.18,51.4L463.64,64.17L469.09,55.17L474.55,53.14L480,49.37L485.45,37.91L490.91,51.98L496.36,47.48L501.82,45.6L507.27,45.31L512.73,47.48L518.18,46.61L523.64,40.66L529.09,38.05L534.55,42.55L540,39.36" style="vector-effect: non-scaling-stroke; fill: none; stroke: rgb(0, 191, 125); stroke-opacity: 1; stroke-width: 2px; opacity: 1;"/></g><g class="points"/><g class="text"/></g><g class="trace scatter traceae1b59" style="stroke-miterlimit: 2; opacity: 1;"><g class="fills"/><g class="errorbars"/><g class="lines"><path class="js-line" d="M0,257.28L5.45,193.88L10.91,171.39L16.36,145.56L21.82,157.46L27.27,170.81L32.73,160.51L38.18,156.88L43.64,143.68L49.09,157.32L54.55,166.02L60,156.45L65.45,129.6L70.91,130.18L76.36,122.64L81.82,125.83L87.27,100.3L92.73,116.55L98.18,106.68L103.64,108.71L109.09,124.82L114.55,115.39L120,118.29L125.45,115.97L130.91,126.27L136.36,118.87L141.82,129.46L147.27,124.24L152.73,130.76L158.18,143.82L163.64,115.82L169.09,134.68L174.55,140.78L180,138.74L185.45,140.05L190.91,120.03L196.36,122.78L201.82,132.22L207.27,138.02L212.73,127.57L218.18,147.74L223.64,147.01L229.09,132.65L234.55,135.99L240,120.32L245.45,117.13L250.91,111.18L256.36,124.24L261.82,123.95L267.27,128.44L272.73,117.13L278.18,117.13L283.64,120.75L289.09,112.34L294.55,131.2L300,106.1L305.45,112.48L310.91,124.24L316.36,103.34L321.82,101.46L327.27,110.74L332.73,101.02L338.18,105.81L343.64,97.54L349.09,111.61L354.55,91.45L360,100.73L370.91,89.27L376.36,80.71L381.82,92.9L387.27,84.05L392.73,85.5L398.18,76.21L403.64,78.68L409.09,73.6L414.55,68.96L420,62.72L425.45,64.02L430.91,56.77L436.36,58.22L441.82,60.83L447.27,61.99L452.73,55.17L458.18,50.82L463.64,60.98L469.09,51.11L474.55,54.45L485.45,57.2L490.91,52.56L496.36,44.44L501.82,53.29L507.27,53.14L512.73,55.46L518.18,46.18L523.64,39.94L529.09,49.81L534.55,42.99L540,44.73" style="vector-effect: non-scaling-stroke; fill: none; stroke: rgb(0, 176, 246); stroke-opacity: 1; stroke-width: 2px; opacity: 1;"/></g><g class="points"/><g class="text"/></g><g class="trace scatter tracef29379" style="stroke-miterlimit: 2; opacity: 1;"><g class="fills"/><g class="errorbars"/><g class="lines"><path class="js-line" d="M0,286.73L5.45,188.51L10.91,180.38L16.36,157.32L21.82,164.13L27.27,157.03L32.73,154.27L38.18,157.9L43.64,138.6L54.55,172.55L60,151.95L65.45,143.1L70.91,140.63L76.36,134.1L81.82,115.68L87.27,115.53L92.73,117.27L98.18,134.97L103.64,113.79L109.09,126.41L114.55,126.12L120,113.64L125.45,118.14L130.91,129.75L136.36,121.62L141.82,123.37L147.27,120.03L152.73,121.77L158.18,149.77L163.64,116.55L169.09,129.31L174.55,132.8L180,121.04L185.45,131.49L190.91,115.82L196.36,123.51L201.82,115.68L207.27,122.06L212.73,120.17L218.18,144.11L223.64,138.31L229.09,124.82L234.55,139.18L240,121.91L245.45,120.17L250.91,109.73L256.36,107.84L261.82,121.33L267.27,110.31L272.73,114.95L278.18,120.61L283.64,108.71L289.09,113.06L294.55,118.29L300,101.31L305.45,111.32L310.91,116.84L316.36,107.12L321.82,100.73L327.27,100.44L332.73,95.51L338.18,86.08L343.64,108.28L349.09,93.48L354.55,87.96L360,90.28L365.45,84.63L370.91,82.45L376.36,87.38L381.82,75.92L387.27,73.45L392.73,79.98L398.18,78.53L403.64,78.82L409.09,70.12L420,79.69L425.45,69.1L430.91,55.61L436.36,58.08L441.82,56.62L447.27,65.48L452.73,61.12L458.18,65.33L463.64,60.11L469.09,67.22L474.55,53.72L480,62.57L485.45,58.8L490.91,53.43L496.36,55.61L501.82,56.33L507.27,58.37L512.73,54.88L518.18,56.33L523.64,54.74L529.09,49.95L534.55,51.26L540,47.63" style="vector-effect: non-scaling-stroke; fill: none; stroke: rgb(231, 107, 243); stroke-opacity: 1; stroke-width: 2px; opacity: 1;"/></g><g class="points"/><g class="text"/></g><g class="trace scatter trace69588d" style="stroke-miterlimit: 2; opacity: 1;"><g class="fills"/><g class="errorbars"/><g class="lines"><path class="js-line" d="M0,268.16L5.45,163.41L10.91,166.6L16.36,158.62L21.82,171.82L27.27,167.62L32.73,152.38L38.18,146.43L43.64,135.26L49.09,139.32L54.55,155.14L60,143.1L65.45,126.85L70.91,127.72L76.36,136.28L81.82,130.91L87.27,117.56L92.73,131.05L98.18,125.83L103.64,115.1L109.09,141.5L114.55,119.88L120,112.34L125.45,116.84L130.91,129.6L136.36,132.07L141.82,123.95L147.27,120.61L152.73,127.14L158.18,152.96L163.64,112.34L169.09,144.84L174.55,151.37L180,147.74L185.45,137.58L190.91,144.11L196.36,135.26L201.82,120.32L207.27,126.12L212.73,137.44L218.18,152.67L223.64,142.23L229.09,141.5L234.55,146.43L240,126.27L245.45,116.69L250.91,112.77L256.36,122.06L261.82,119.3L267.27,118.87L272.73,120.9L278.18,125.83L283.64,111.32L289.09,123.95L294.55,124.67L300,110.16L305.45,119.3L310.91,132.22L316.36,107.99L321.82,96.96L327.27,101.31L332.73,120.75L338.18,94.78L343.64,95.65L349.09,99.43L354.55,82.31L360,80.85L365.45,87.24L370.91,80.27L376.36,84.05L381.82,86.66L387.27,77.66L392.73,76.79L398.18,77.37L403.64,81.14L409.09,71.57L414.55,67.8L420,68.96L425.45,62.28L430.91,56.62L436.36,64.31L441.82,60.69L447.27,62.28L452.73,50.24L458.18,51.4L463.64,50.68L469.09,54.16L474.55,49.08L480,45.74L485.45,45.74L490.91,57.64L496.36,48.35L501.82,52.85L507.27,52.13L512.73,55.9L518.18,51.26L523.64,41.39L529.09,49.81L534.55,46.03L540,42.84" style="vector-effect: non-scaling-stroke; fill: none; stroke: rgb(248, 118, 109); stroke-opacity: 1; stroke-width: 2px; opacity: 1;"/></g><g class="points"/><g class="text"/></g><g class="trace scatter trace536ede" style="stroke-miterlimit: 2; opacity: 1;"><g class="fills"/><g class="errorbars"/><g class="lines"><path class="js-line" d="M0,253.22L5.45,190.98L10.91,176.32L16.36,156.3L21.82,171.24L27.27,175.45L32.73,150.64L38.18,154.85L43.64,151.22L49.09,157.46L54.55,150.21L60,164.13L65.45,124.82L70.91,133.96L76.36,116.69L81.82,116.98L87.27,115.82L92.73,112.19L98.18,113.64L103.64,111.9L109.09,127.28L114.55,120.75L120,117.56L125.45,121.19L130.91,126.56L136.36,123.22L141.82,124.67L147.27,134.1L152.73,118.58L158.18,150.79L163.64,123.37L169.09,140.2L174.55,133.81L180,135.26L185.45,144.4L190.91,121.91L196.36,135.12L201.82,127.86L207.27,133.09L212.73,127.14L218.18,149.19L223.64,149.48L229.09,131.78L234.55,139.76L240,122.64L245.45,113.79L250.91,118L256.36,119.3L261.82,117.27L267.27,111.47L272.73,108.71L278.18,121.19L283.64,119.59L289.09,116.26L294.55,119.01L300,97.68L305.45,115.24L310.91,121.19L316.36,114.37L321.82,100.15L327.27,115.68L332.73,103.92L338.18,98.41L343.64,105.08L349.09,104.94L354.55,90.87L360,98.85L365.45,81L370.91,77.52L376.36,90.28L381.82,77.23L387.27,83.61L392.73,81.29L398.18,66.78L403.64,75.34L409.09,58.08L414.55,68.67L420,62.86L425.45,60.4L430.91,54.45L436.36,53L441.82,56.19L447.27,50.53L452.73,55.46L458.18,46.47L463.64,59.09L469.09,53.87L474.55,47.92L480,46.47L485.45,49.81L490.91,46.76L496.36,42.84L501.82,50.82L507.27,47.19L512.73,48.21L518.18,44.29L523.64,42.7L529.09,37.76L534.55,44.15L540,42.84" style="vector-effect: non-scaling-stroke; fill: none; stroke: rgb(163, 165, 0); stroke-opacity: 1; stroke-width: 2px; opacity: 1;"/></g><g class="points"/><g class="text"/></g><g class="trace scatter trace739951" style="stroke-miterlimit: 2; opacity: 1;"><g class="fills"/><g class="errorbars"/><g class="lines"><path class="js-line" d="M0,282.24L5.45,230.44L10.91,186.33L16.36,185.9L21.82,186.62L27.27,192.72L32.73,168.78L38.18,163.26L43.64,143.24L54.55,167.47L60,159.2L65.45,145.42L70.91,152.38L81.82,141.65L87.27,118.29L92.73,114.51L98.18,119.3L103.64,118L109.09,143.24L114.55,119.3L120,119.88L125.45,123.66L130.91,124.67L136.36,125.4L141.82,122.78L147.27,123.07L152.73,110.45L158.18,131.93L163.64,104.79L169.09,119.59L174.55,120.9L180,123.95L185.45,116.11L190.91,116.69L196.36,124.82L201.82,119.16L207.27,115.97L212.73,117.13L218.18,139.18L223.64,135.99L229.09,121.62L234.55,137.58L240,125.25L250.91,111.03L256.36,115.82L261.82,119.16L267.27,104.79L272.73,117.85L278.18,105.23L283.64,113.64L289.09,118.43L294.55,113.93L300,95.51L305.45,100.3L310.91,116.26L316.36,98.99L321.82,101.31L332.73,105.66L338.18,94.35L343.64,101.6L349.09,98.99L354.55,86.95L360,94.78L365.45,81L370.91,80.71L376.36,85.35L381.82,91.74L387.27,80.13L392.73,84.48L398.18,80.42L403.64,78.1L414.55,76.21L420,78.39L430.91,71.86L436.36,68.81L441.82,62.72L447.27,67.65L458.18,54.59L463.64,68.96L469.09,66.64L474.55,61.56L480,53.43L485.45,55.61L490.91,58.8L496.36,64.75L501.82,64.17L507.27,60.4L512.73,56.91L518.18,48.93L523.64,51.4L529.09,48.64L534.55,56.33L540,50.97" style="vector-effect: non-scaling-stroke; fill: none; stroke: rgb(0, 191, 125); stroke-opacity: 1; stroke-width: 2px; opacity: 1;"/></g><g class="points"/><g class="text"/></g><g class="trace scatter trace2f90b6" style="stroke-miterlimit: 2; opacity: 1;"><g class="fills"/><g class="errorbars"/><g class="lines"><path class="js-line" d="M0,278.03L5.45,236.68L10.91,211L16.36,184.45L21.82,197.65L27.27,180.09L32.73,170.81L38.18,147.74L43.64,157.9L49.09,162.83L54.55,153.98L60,161.81L65.45,142.37L70.91,145.71L76.36,140.05L81.82,130.62L87.27,107.41L92.73,128.73L98.18,114.66L103.64,118.58L109.09,125.69L114.55,127.57L120,117.42L125.45,124.09L130.91,136.86L136.36,137.29L141.82,134.54L147.27,128.3L152.73,133.81L158.18,156.3L163.64,125.83L174.55,146.43L180,136.71L185.45,130.91L190.91,126.56L196.36,141.5L201.82,139.03L207.27,139.62L212.73,134.83L218.18,154.85L223.64,150.06L229.09,143.68L234.55,138.45L240,128.3L245.45,122.35L250.91,124.96L256.36,121.48L261.82,115.39L267.27,119.74L272.73,130.18L278.18,124.24L283.64,116.84L289.09,114.51L294.55,116.4L300,110.89L305.45,123.8L310.91,132.8L316.36,110.16L321.82,110.45L327.27,118L332.73,113.93L338.18,95.94L343.64,97.25L349.09,98.7L354.55,101.02L360,97.25L365.45,78.1L376.36,77.23L381.82,73.02L387.27,80.71L392.73,81.72L398.18,69.83L403.64,67.22L409.09,72.73L414.55,55.9L420,65.62L425.45,50.1L430.91,59.24L436.36,48.35L441.82,45.02L447.27,54.88L452.73,41.54L458.18,40.81L463.64,44.87L469.09,49.95L474.55,41.68L480,43.86L485.45,41.54L490.91,40.81L496.36,39.21L501.82,39.5L507.27,41.68L512.73,39.79L518.18,35.44L523.64,41.54L534.55,37.04L540,32.83" style="vector-effect: non-scaling-stroke; fill: none; stroke: rgb(0, 176, 246); stroke-opacity: 1; stroke-width: 2px; opacity: 1;"/></g><g class="points"/><g class="text"/></g><g class="trace scatter trace4760af" style="stroke-miterlimit: 2; opacity: 1;"><g class="fills"/><g class="errorbars"/><g class="lines"><path class="js-line" d="M0,223.04L5.45,176.03L10.91,166.89L16.36,145.42L21.82,143.1L27.27,150.5L32.73,144.11L38.18,133.96L43.64,137.15L49.09,128.15L54.55,146.58L60,152.67L65.45,136.86L70.91,145.27L76.36,141.5L81.82,134.97L87.27,115.39L92.73,128.73L98.18,116.98L103.64,126.12L109.09,146.14L114.55,152.24L120,127.28L125.45,143.1L130.91,140.63L136.36,135.26L141.82,145.13L147.27,147.16L152.73,151.37L158.18,173.13L163.64,139.62L169.09,176.03L174.55,161.81L180,163.7L185.45,146.87L196.36,150.64L201.82,141.5L207.27,149.34L212.73,136.71L218.18,167.76L223.64,154.56L229.09,146.72L234.55,132.22L240,145.27L245.45,134.39L250.91,134.54L256.36,152.09L261.82,132.36L267.27,143.24L272.73,126.7L278.18,156.59L283.64,129.46L289.09,151.95L294.55,156.01L300,123.8L305.45,137L310.91,132.51L316.36,117.85L321.82,118.43L327.27,135.26L332.73,119.16L343.64,107.7L349.09,114.22L354.55,107.99L360,110.31L365.45,110.74L370.91,102.18L376.36,98.41L381.82,86.08L387.27,96.38L392.73,96.52L398.18,88.69L403.64,92.46L409.09,73.75L414.55,77.95L420,69.39L425.45,64.17L430.91,64.31L436.36,60.11L441.82,69.83L447.27,69.25L452.73,60.11L458.18,53.29L463.64,57.2L469.09,59.82L474.55,53L480,50.53L485.45,49.08L490.91,67.65L496.36,57.5L501.82,63.01L507.27,55.32L512.73,52.42L523.64,55.46L529.09,43.13L534.55,50.39L540,51.84" style="vector-effect: non-scaling-stroke; fill: none; stroke: rgb(231, 107, 243); stroke-opacity: 1; stroke-width: 2px; opacity: 1;"/></g><g class="points"/><g class="text"/></g><g class="trace scatter trace4462cd" style="stroke-miterlimit: 2; opacity: 1;"><g class="fills"/><g class="errorbars"/><g class="lines"><path class="js-line" d="M0,256.12L5.45,212.74L10.91,197.94L16.36,172.84L21.82,166.46L27.27,173.28L32.73,152.96L38.18,162.83L43.64,153.54L49.09,149.34L54.55,154.41L60,153.25L65.45,118.58L70.91,143.53L76.36,132.36L81.82,127.72L87.27,117.56L92.73,113.93L98.18,121.04L103.64,124.96L109.09,136.86L114.55,124.67L120,128.01L125.45,134.39L130.91,129.17L136.36,137L141.82,136.13L147.27,129.89L152.73,131.49L158.18,156.16L163.64,125.54L174.55,150.64L180,138.6L185.45,139.91L190.91,129.89L196.36,133.09L201.82,130.18L207.27,128.73L212.73,133.38L218.18,166.89L223.64,144.84L229.09,134.1L234.55,141.65L240,133.96L245.45,124.53L250.91,124.96L256.36,119.88L261.82,124.82L267.27,118.29L272.73,117.85L278.18,134.54L283.64,127.28L289.09,123.37L294.55,127.43L300,116.84L305.45,127.86L310.91,129.31L321.82,108.28L327.27,112.34L332.73,113.5L338.18,101.46L343.64,107.7L349.09,112.63L354.55,95.51L360,98.7L365.45,88.25L370.91,83.18L376.36,89.85L381.82,80.71L387.27,88.25L392.73,84.34L398.18,73.89L403.64,81.29L409.09,62.28L414.55,75.05L420,62.86L425.45,65.91L430.91,59.38L436.36,55.61L441.82,57.2L447.27,50.1L452.73,45.02L458.18,46.76L463.64,44.58L469.09,58.22L480,37.62L485.45,48.5L490.91,40.81L496.36,37.33L501.82,40.81L507.27,42.41L512.73,34.57L518.18,33.99L523.64,35.3L529.09,29.06L534.55,28.19L540,39.65" style="vector-effect: non-scaling-stroke; fill: none; stroke: rgb(248, 118, 109); stroke-opacity: 1; stroke-width: 2px; opacity: 1;"/></g><g class="points"/><g class="text"/></g><g class="trace scatter trace1ae100" style="stroke-miterlimit: 2; opacity: 1;"><g class="fills"/><g class="errorbars"/><g class="lines"><path class="js-line" d="M0,250.46L5.45,182.13L10.91,178.06L16.36,167.04L21.82,167.91L27.27,178.64L32.73,158.19L38.18,156.74L43.64,146.43L49.09,175.89L54.55,178.93L60,167.62L65.45,139.18L70.91,143.53L76.36,142.52L81.82,132.36L87.27,112.48L92.73,132.8L98.18,119.88L103.64,115.24L109.09,127.28L114.55,110.74L120,109.44L125.45,118.58L130.91,119.16L136.36,117.71L141.82,117.71L152.73,114.37L158.18,153.11L163.64,116.69L169.09,152.67L174.55,131.49L180,142.08L185.45,143.1L190.91,134.25L196.36,135.7L201.82,115.97L207.27,136.71L212.73,134.25L218.18,153.69L223.64,144.11L229.09,128.01L234.55,144.4L240,119.01L245.45,118.14L250.91,114.22L256.36,125.54L261.82,121.04L267.27,110.16L272.73,112.05L278.18,123.66L283.64,115.68L289.09,122.78L294.55,118.58L300,100.44L305.45,108.28L310.91,130.91L316.36,105.23L321.82,107.99L327.27,110.89L332.73,107.26L338.18,98.7L343.64,104.36L349.09,106.54L354.55,101.02L360,91.3L365.45,90.14L370.91,83.32L376.36,92.46L381.82,80.71L387.27,85.93L392.73,79.4L398.18,74.18L403.64,73.75L409.09,67.8L414.55,74.76L420,83.03L430.91,54.16L436.36,69.68L441.82,57.79L447.27,59.96L452.73,59.53L458.18,65.18L463.64,61.12L469.09,62.57L474.55,62.86L480,58.37L485.45,62.28L490.91,56.33L496.36,55.46L501.82,56.91L507.27,58.51L512.73,51.98L518.18,48.5L523.64,51.69L529.09,53.29L534.55,46.18L540,46.9" style="vector-effect: non-scaling-stroke; fill: none; stroke: rgb(163, 165, 0); stroke-opacity: 1; stroke-width: 2px; opacity: 1;"/></g><g class="points"/><g class="text"/></g><g class="trace scatter traceb0bb64" style="stroke-miterlimit: 2; opacity: 1;"><g class="fills"/><g class="errorbars"/><g class="lines"><path class="js-line" d="M0,248.43L5.45,195.47L10.91,160.07L16.36,152.96L21.82,157.75L27.27,165.15L32.73,156.74L38.18,158.33L43.64,141.79L49.09,139.76L54.55,158.62L60,169.65L65.45,128.59L70.91,148.18L76.36,131.34L81.82,122.2L87.27,108.42L92.73,123.51L98.18,114.22L103.64,110.02L109.09,140.2L114.55,112.48L120,135.12L125.45,111.32L130.91,128.15L141.82,134.1L147.27,115.97L152.73,131.05L158.18,163.99L163.64,126.27L169.09,130.62L174.55,156.3L180,141.21L185.45,152.09L190.91,131.78L196.36,124.96L201.82,144.98L207.27,137.29L212.73,135.12L218.18,170.08L223.64,146.29L229.09,138.6L234.55,152.24L240,119.59L245.45,128.59L250.91,115.68L256.36,142.08L261.82,124.38L267.27,126.56L278.18,122.06L283.64,121.62L289.09,125.54L294.55,147.01L300,102.18L305.45,117.13L310.91,123.51L316.36,115.24L321.82,112.19L327.27,120.9L332.73,107.26L338.18,101.17L343.64,113.79L349.09,100.73L354.55,95.22L360,99.72L365.45,89.85L370.91,94.2L376.36,84.48L381.82,79.98L387.27,88.4L392.73,87.38L398.18,87.38L403.64,84.63L409.09,75.34L414.55,80.85L420,75.92L425.45,76.94L430.91,65.33L436.36,65.62L441.82,70.12L447.27,63.01L452.73,63.44L458.18,65.48L463.64,66.35L469.09,60.54L474.55,66.64L480,64.02L485.45,60.54L490.91,61.85L496.36,63.3L501.82,61.85L507.27,64.75L512.73,55.17L518.18,58.66L523.64,55.75L534.55,52.85L540,54.88" style="vector-effect: non-scaling-stroke; fill: none; stroke: rgb(0, 191, 125); stroke-opacity: 1; stroke-width: 2px; opacity: 1;"/></g><g class="points"/><g class="text"/></g><g class="trace scatter tracef37ac7" style="stroke-miterlimit: 2; opacity: 1;"><g class="fills"/><g class="errorbars"/><g class="lines"><path class="js-line" d="M0,200.26L5.45,162.25L10.91,138.16L16.36,159.64L21.82,169.36L27.27,179.08L32.73,165.3L43.64,147.3L49.09,162.1L54.55,172.11L60,170.08L65.45,134.68L70.91,137.29L76.36,133.96L81.82,124.82L87.27,112.48L92.73,136.57L98.18,118.14L103.64,109.15L109.09,128.73L114.55,117.27L120,121.77L125.45,124.24L130.91,131.78L136.36,111.18L141.82,132.51L147.27,117.13L152.73,133.81L158.18,156.16L163.64,128.01L169.09,136.57L174.55,147.74L180,140.92L185.45,147.01L190.91,127.86L196.36,130.47L201.82,128.15L207.27,121.04L212.73,129.02L218.18,158.91L223.64,141.21L234.55,144.98L240,120.61L245.45,116.11L250.91,114.8L261.82,128.15L267.27,120.03L278.18,135.41L283.64,117.27L289.09,132.65L294.55,137.29L300,97.54L305.45,111.03L310.91,132.51L316.36,119.3L321.82,98.12L327.27,121.62L332.73,111.76L338.18,94.78L343.64,98.26L349.09,97.39L354.55,99.57L360,107.26L365.45,92.17L370.91,91.16L376.36,81.58L381.82,78.39L387.27,87.82L392.73,78.1L398.18,83.18L403.64,83.18L409.09,72.58L414.55,69.83L420,74.91L425.45,75.2L430.91,59.09L436.36,66.93L441.82,75.63L447.27,72.58L452.73,60.25L458.18,65.91L463.64,58.66L469.09,61.99L474.55,56.48L480,60.4L485.45,59.67L490.91,56.48L496.36,58.8L501.82,63.73L507.27,55.75L512.73,58.08L518.18,55.46L523.64,57.35L529.09,56.04L534.55,56.19L540,52.56" style="vector-effect: non-scaling-stroke; fill: none; stroke: rgb(0, 176, 246); stroke-opacity: 1; stroke-width: 2px; opacity: 1;"/></g><g class="points"/><g class="text"/></g><g class="trace scatter tracef9f54f" style="stroke-miterlimit: 2; opacity: 1;"><g class="fills"/><g class="errorbars"/><g class="lines"><path class="js-line" d="M0,257.43L5.45,195.91L10.91,161.96L16.36,158.33L21.82,157.32L27.27,160.07L32.73,160.22L38.18,150.06L43.64,146.72L49.09,163.26L54.55,146.72L60,166.02L65.45,138.89L70.91,149.77L76.36,143.53L81.82,133.38L87.27,116.98L92.73,131.64L98.18,119.16L103.64,122.49L109.09,135.7L114.55,131.05L120,130.91L125.45,130.76L130.91,146.29L136.36,140.05L141.82,143.97L147.27,139.18L152.73,137.15L158.18,158.04L163.64,135.99L169.09,153.4L174.55,157.75L180,156.59L185.45,149.34L190.91,149.48L196.36,144.11L201.82,147.89L207.27,138.6L212.73,126.41L218.18,164.13L223.64,140.49L229.09,147.74L234.55,152.24L240,135.12L245.45,120.03L250.91,128.59L256.36,136.13L261.82,134.25L267.27,133.38L272.73,127.14L278.18,133.96L283.64,122.78L289.09,138.74L294.55,145.13L300,114.22L305.45,125.83L310.91,134.54L316.36,110.02L321.82,104.94L327.27,120.32L332.73,118.43L338.18,106.83L343.64,99.72L349.09,102.62L354.55,104.79L360,104.79L365.45,108.13L370.91,96.52L376.36,95.65L381.82,87.38L392.73,88.69L398.18,71.71L403.64,87.96L409.09,69.68L414.55,68.23L420,64.31L425.45,64.75L430.91,54.59L436.36,58.37L441.82,49.66L447.27,44.29L452.73,52.27L463.64,52.13L469.09,56.04L474.55,48.06L480,42.55L485.45,47.77L490.91,49.08L496.36,56.04L501.82,41.83L507.27,51.26L512.73,42.7L518.18,43.13L523.64,50.53L529.09,46.9L534.55,46.03L540,42.84" style="vector-effect: non-scaling-stroke; fill: none; stroke: rgb(231, 107, 243); stroke-opacity: 1; stroke-width: 2px; opacity: 1;"/></g><g class="points"/><g class="text"/></g><g class="trace scatter tracedfb5b1" style="stroke-miterlimit: 2; opacity: 1;"><g class="fills"/><g class="errorbars"/><g class="lines"><path class="js-line" d="M0,275.42L5.45,193.01L10.91,159.06L16.36,142.08L21.82,143.1L27.27,161.09L32.73,144.55L38.18,146L43.64,130.76L49.09,144.98L54.55,153.11L60,146L65.45,128.59L70.91,153.83L76.36,136.86L81.82,133.96L87.27,124.38L92.73,125.69L98.18,123.37L103.64,119.74L109.09,144.84L114.55,130.04L120,131.64L125.45,129.6L130.91,143.39L136.36,137.87L141.82,130.04L147.27,135.84L152.73,146L158.18,165.44L163.64,135.84L169.09,166.6L174.55,159.49L180,156.3L185.45,154.27L190.91,134.39L196.36,139.47L201.82,145.13L207.27,149.48L212.73,133.09L218.18,170.23L223.64,150.64L229.09,152.38L234.55,145.13L240,133.52L245.45,126.12L250.91,135.84L256.36,157.17L261.82,130.33L267.27,141.94L272.73,131.34L278.18,141.5L283.64,129.31L289.09,146.87L294.55,155.28L300,119.16L305.45,121.19L310.91,134.97L316.36,121.77L321.82,118.43L327.27,120.9L332.73,120.75L338.18,99.57L343.64,108.42L349.09,111.47L354.55,107.26L360,117.56L365.45,93.91L370.91,86.22L376.36,91.01L381.82,93.62L387.27,97.1L392.73,80.27L398.18,75.49L403.64,90.43L409.09,83.18L414.55,84.48L425.45,74.62L430.91,57.93L436.36,66.35L441.82,69.39L447.27,61.99L452.73,60.54L458.18,56.33L463.64,59.38L469.09,60.4L474.55,57.35L480,62.57L485.45,55.61L490.91,63.73L496.36,60.25L501.82,59.38L507.27,57.5L512.73,56.91L518.18,60.69L523.64,57.93L529.09,58.51L534.55,50.53L540,55.61" style="vector-effect: non-scaling-stroke; fill: none; stroke: rgb(248, 118, 109); stroke-opacity: 1; stroke-width: 2px; opacity: 1;"/></g><g class="points"/><g class="text"/></g><g class="trace scatter trace6ad4bb" style="stroke-miterlimit: 2; opacity: 1;"><g class="fills"/><g class="errorbars"/><g class="lines"><path class="js-line" d="M0,277.3L5.45,198.96L10.91,174L16.36,161.38L21.82,178.79L27.27,193.01L32.73,159.49L38.18,163.12L43.64,163.12L49.09,177.63L54.55,185.9L60,188.94L65.45,153.83L70.91,150.21L76.36,148.61L81.82,152.96L87.27,124.53L92.73,136.42L98.18,131.64L103.64,116.98L109.09,137.29L114.55,113.5L120,128.73L125.45,120.32L130.91,135.84L136.36,128.73L141.82,127.14L147.27,121.04L152.73,127.14L158.18,158.33L163.64,122.49L169.09,135.99L174.55,144.84L180,149.77L185.45,143.82L190.91,129.89L196.36,137.29L201.82,128.15L207.27,135.55L212.73,124.09L218.18,147.59L223.64,141.5L229.09,131.64L234.55,137.87L240,121.19L245.45,105.52L250.91,115.1L256.36,125.4L261.82,120.03L267.27,117.71L272.73,117.71L278.18,127.86L283.64,113.06L289.09,129.89L294.55,134.97L300,96.81L305.45,119.16L310.91,122.35L316.36,107.99L321.82,103.34L327.27,116.11L332.73,109.73L338.18,93.91L343.64,94.93L349.09,102.91L354.55,89.56L360,100.44L365.45,89.12L370.91,79.84L376.36,75.05L381.82,87.82L387.27,85.35L392.73,70.26L398.18,72.44L403.64,77.52L409.09,62.57L414.55,68.23L420,68.09L425.45,63.44L436.36,51.11L441.82,59.53L447.27,59.67L452.73,54.88L458.18,53.87L463.64,60.54L469.09,50.82L474.55,47.63L480,51.4L485.45,45.02L490.91,51.98L496.36,50.68L501.82,43.86L507.27,53.72L512.73,41.68L518.18,45.6L523.64,40.37L529.09,42.84L534.55,43.13L540,46.47" style="vector-effect: non-scaling-stroke; fill: none; stroke: rgb(163, 165, 0); stroke-opacity: 1; stroke-width: 2px; opacity: 1;"/></g><g class="points"/><g class="text"/></g><g class="trace scatter trace4fac79" style="stroke-miterlimit: 2; opacity: 1;"><g class="fills"/><g class="errorbars"/><g class="lines"><path class="js-line" d="M0,267.29L5.45,173.71L10.91,155.43L16.36,161.81L21.82,158.04L27.27,171.39L32.73,156.74L38.18,151.95L43.64,133.23L49.09,150.21L54.55,162.68L60,153.69L65.45,133.96L70.91,144.11L76.36,149.48L81.82,129.6L87.27,120.75L92.73,130.76L98.18,132.36L103.64,125.69L109.09,146.72L114.55,136.57L120,128.59L125.45,125.69L130.91,130.47L136.36,125.11L141.82,146.58L147.27,127.57L152.73,140.78L158.18,162.68L163.64,137L169.09,139.03L174.55,155.43L180,154.27L185.45,140.63L190.91,130.04L196.36,140.63L201.82,121.62L207.27,136.13L212.73,132.8L218.18,164.72L223.64,145.85L229.09,137.73L234.55,138.45L240,122.49L245.45,126.27L250.91,118.72L256.36,134.1L261.82,122.2L267.27,127.28L272.73,129.89L278.18,131.05L283.64,107.12L289.09,142.81L294.55,139.62L300,104.07L305.45,120.61L316.36,122.2L321.82,115.1L327.27,116.69L332.73,111.47L338.18,95.94L343.64,104.21L349.09,101.17L354.55,102.62L360,93.77L365.45,87.38L370.91,86.51L376.36,94.35L381.82,100.73L387.27,82.45L392.73,78.1L398.18,78.39L403.64,75.05L409.09,70.12L414.55,78.1L420,58.51L425.45,66.35L430.91,52.27L436.36,56.91L441.82,63.3L447.27,48.93L452.73,50.97L458.18,40.96L463.64,46.32L469.09,61.27L474.55,49.52L480,41.25L485.45,43.13L490.91,32.98L496.36,35.88L501.82,41.54L507.27,36.02L512.73,43.86L518.18,38.63L523.64,41.83L529.09,33.12L534.55,30.94L540,32.39" style="vector-effect: non-scaling-stroke; fill: none; stroke: rgb(0, 191, 125); stroke-opacity: 1; stroke-width: 2px; opacity: 1;"/></g><g class="points"/><g class="text"/></g><g class="trace scatter tracef97ca1" style="stroke-miterlimit: 2; opacity: 1;"><g class="fills"/><g class="errorbars"/><g class="lines"><path class="js-line" d="M0,262.21L5.45,174L10.91,160.8L16.36,161.96L21.82,170.66L27.27,169.07L32.73,142.95L38.18,147.89L43.64,142.81L49.09,150.35L54.55,150.35L60,153.11L65.45,136.13L70.91,138.02L76.36,148.9L81.82,137.44L87.27,120.9L92.73,146.29L98.18,123.22L103.64,129.17L109.09,154.27L114.55,137.87L120,138.31L125.45,135.26L130.91,133.81L141.82,144.98L147.27,134.54L152.73,135.7L158.18,162.54L163.64,134.25L169.09,153.83L174.55,161.09L180,159.64L185.45,152.96L190.91,136.42L196.36,144.11L201.82,145.42L207.27,137.15L212.73,149.05L218.18,187.35L223.64,159.49L229.09,136.28L234.55,146.29L240,137L245.45,113.35L250.91,125.69L256.36,145.56L267.27,125.25L272.73,126.56L278.18,140.05L283.64,132.51L289.09,141.5L294.55,139.18L300,122.64L305.45,123.8L310.91,136.86L316.36,118.87L321.82,108.57L327.27,122.35L332.73,114.51L338.18,104.36L343.64,115.53L349.09,103.34L354.55,103.49L360,100.88L365.45,104.07L370.91,87.24L376.36,102.62L381.82,81.58L387.27,84.19L392.73,72.29L398.18,80.13L403.64,77.08L409.09,63.01L414.55,66.64L420,59.38L425.45,62.57L430.91,57.2L436.36,44.15L441.82,54.59L447.27,38.78L452.73,30.8L458.18,38.63L463.64,47.48L469.09,46.76L474.55,43.86L480,44.15L485.45,34.28L490.91,51.11L496.36,41.25L501.82,37.04L507.27,36.75L512.73,33.12L518.18,32.25L523.64,28.77L529.09,29.93L534.55,26.45L540,32.39" style="vector-effect: non-scaling-stroke; fill: none; stroke: rgb(0, 176, 246); stroke-opacity: 1; stroke-width: 2px; opacity: 1;"/></g><g class="points"/><g class="text"/></g><g class="trace scatter trace539f6e" style="stroke-miterlimit: 2; opacity: 1;"><g class="fills"/><g class="errorbars"/><g class="lines"><path class="js-line" d="M0,262.79L5.45,163.12L10.91,149.05L16.36,149.77L21.82,157.32L27.27,156.74L32.73,149.19L38.18,148.18L43.64,137.44L49.09,148.32L54.55,146.43L60,156.88L65.45,139.18L70.91,160.8L76.36,147.45L87.27,120.75L92.73,127.14L98.18,127.43L103.64,125.54L109.09,147.59L114.55,129.6L120,112.48L125.45,128.88L130.91,137.44L136.36,131.05L141.82,130.04L147.27,118.58L152.73,139.32L158.18,149.77L163.64,124.38L169.09,146.58L180,158.04L185.45,145.71L190.91,125.25L196.36,125.54L201.82,140.78L207.27,134.54L212.73,134.54L218.18,162.39L223.64,153.69L229.09,146.43L234.55,145.56L240,132.8L245.45,122.35L250.91,128.3L256.36,126.99L261.82,128.73L267.27,119.3L272.73,124.09L278.18,137.44L283.64,114.37L289.09,135.41L294.55,140.2L300,119.88L305.45,122.93L310.91,135.12L316.36,115.1L321.82,110.16L327.27,130.91L332.73,121.19L338.18,102.47L343.64,107.12L349.09,113.06L354.55,105.08L360,98.7L365.45,99.57L370.91,92.17L376.36,80.85L381.82,88.69L387.27,83.76L392.73,86.95L403.64,86.66L409.09,76.21L420,73.75L425.45,76.5L430.91,59.82L436.36,61.99L441.82,67.8L447.27,62.86L452.73,57.06L458.18,67.51L463.64,54.45L469.09,63.44L474.55,65.48L480,57.93L485.45,66.49L490.91,65.62L496.36,57.2L501.82,58.51L507.27,63.59L512.73,56.77L518.18,52.27L523.64,60.69L529.09,54.3L534.55,55.61L540,59.24" style="vector-effect: non-scaling-stroke; fill: none; stroke: rgb(231, 107, 243); stroke-opacity: 1; stroke-width: 2px; opacity: 1;"/></g><g class="points"/><g class="text"/></g></g></g><g class="overplot"/><path class="xlines-above crisp" d="" style="fill: none; stroke-width: 1px; stroke: rgb(0, 0, 0); stroke-opacity: 0;"/><path class="ylines-above crisp" d="" style="fill: none; stroke-width: 1px; stroke: rgb(0, 0, 0); stroke-opacity: 0;"/><g class="overlines-above"/><g class="xaxislayer-above"><path class="xtick ticks crisp" d="M0,421v5" transform="translate(80,0)" style="stroke: rgb(51, 51, 51); stroke-opacity: 1; stroke-width: 1px;"/><path class="xtick ticks crisp" d="M0,421v5" transform="translate(189.09,0)" style="stroke: rgb(51, 51, 51); stroke-opacity: 1; stroke-width: 1px;"/><path class="xtick ticks crisp" d="M0,421v5" transform="translate(298.18,0)" style="stroke: rgb(51, 51, 51); stroke-opacity: 1; stroke-width: 1px;"/><path class="xtick ticks crisp" d="M0,421v5" transform="translate(407.27,0)" style="stroke: rgb(51, 51, 51); stroke-opacity: 1; stroke-width: 1px;"/><path class="xtick ticks crisp" d="M0,421v5" transform="translate(516.36,0)" style="stroke: rgb(51, 51, 51); stroke-opacity: 1; stroke-width: 1px;"/><g class="xtick"><text text-anchor="middle" x="0" y="440.4" transform="translate(80,0)" style="font-family: 'Open Sans', verdana, arial, sans-serif; font-size: 12px; fill: rgb(51, 51, 51); fill-opacity: 1; white-space: pre; opacity: 1;">0</text></g><g class="xtick"><text text-anchor="middle" x="0" y="440.4" style="font-family: 'Open Sans', verdana, arial, sans-serif; font-size: 12px; fill: rgb(51, 51, 51); fill-opacity: 1; white-space: pre; opacity: 1;" transform="translate(189.09,0)">20</text></g><g class="xtick"><text text-anchor="middle" x="0" y="440.4" style="font-family: 'Open Sans', verdana, arial, sans-serif; font-size: 12px; fill: rgb(51, 51, 51); fill-opacity: 1; white-space: pre; opacity: 1;" transform="translate(298.18,0)">40</text></g><g class="xtick"><text text-anchor="middle" x="0" y="440.4" style="font-family: 'Open Sans', verdana, arial, sans-serif; font-size: 12px; fill: rgb(51, 51, 51); fill-opacity: 1; white-space: pre; opacity: 1;" transform="translate(407.27,0)">60</text></g><g class="xtick"><text text-anchor="middle" x="0" y="440.4" style="font-family: 'Open Sans', verdana, arial, sans-serif; font-size: 12px; fill: rgb(51, 51, 51); fill-opacity: 1; white-space: pre; opacity: 1;" transform="translate(516.36,0)">80</text></g></g><g class="yaxislayer-above"><path class="ytick ticks crisp" d="M79,0h-5" transform="translate(0,359.46)" style="stroke: rgb(51, 51, 51); stroke-opacity: 1; stroke-width: 1px;"/><path class="ytick ticks crisp" d="M79,0h-5" transform="translate(0,294.16999999999996)" style="stroke: rgb(51, 51, 51); stroke-opacity: 1; stroke-width: 1px;"/><path class="ytick ticks crisp" d="M79,0h-5" transform="translate(0,228.88)" style="stroke: rgb(51, 51, 51); stroke-opacity: 1; stroke-width: 1px;"/><path class="ytick ticks crisp" d="M79,0h-5" transform="translate(0,163.59)" style="stroke: rgb(51, 51, 51); stroke-opacity: 1; stroke-width: 1px;"/><g class="ytick"><text text-anchor="end" x="71.6" y="4.199999999999999" transform="translate(0,359.46)" style="font-family: 'Open Sans', verdana, arial, sans-serif; font-size: 12px; fill: rgb(51, 51, 51); fill-opacity: 1; white-space: pre; opacity: 1;">0.25</text></g><g class="ytick"><text text-anchor="end" x="71.6" y="4.199999999999999" style="font-family: 'Open Sans', verdana, arial, sans-serif; font-size: 12px; fill: rgb(51, 51, 51); fill-opacity: 1; white-space: pre; opacity: 1;" transform="translate(0,294.16999999999996)">0.26</text></g><g class="ytick"><text text-anchor="end" x="71.6" y="4.199999999999999" style="font-family: 'Open Sans', verdana, arial, sans-serif; font-size: 12px; fill: rgb(51, 51, 51); fill-opacity: 1; white-space: pre; opacity: 1;" transform="translate(0,228.88)">0.27</text></g><g class="ytick"><text text-anchor="end" x="71.6" y="4.199999999999999" style="font-family: 'Open Sans', verdana, arial, sans-serif; font-size: 12px; fill: rgb(51, 51, 51); fill-opacity: 1; white-space: pre; opacity: 1;" transform="translate(0,163.59)">0.28</text></g></g><g class="overaxes-above"/></g></g><g class="polarlayer"/><g class="ternarylayer"/><g class="geolayer"/><g class="funnelarealayer"/><g class="pielayer"/><g class="iciclelayer"/><g class="treemaplayer"/><g class="sunburstlayer"/><g class="glimages"/><defs id="topdefs-73c041"><g class="clips"/></defs><g class="layer-above"><g class="imagelayer"/><g class="shapelayer"/></g><g class="infolayer"><g class="g-gtitle"><text class="gtitle" x="350" y="50" text-anchor="middle" dy="0em" style="font-family: 'Open Sans', verdana, arial, sans-serif; font-size: 17px; fill: rgb(51, 51, 51); opacity: 1; font-weight: normal; white-space: pre;">Train Accuracy: ascad_v1_fk_100-s_eff_cnn_hw (early_stopping)</text></g><g class="g-xtitle"/><g class="g-ytitle"/></g></svg>