<svg class="main-svg" xmlns="http://www.w3.org/2000/svg" xmlns:xlink="http://www.w3.org/1999/xlink" width="700" height="500" style="" viewBox="0 0 700 500"><rect x="0" y="0" width="700" height="500" style="fill: rgb(255, 255, 255); fill-opacity: 1;"/><defs id="defs-8d3a02"><g class="clips"><clipPath id="clip8d3a02xyplot" class="plotclip"><rect width="470" height="320"/></clipPath><clipPath class="axesclip" id="clip8d3a02x"><rect x="80" y="0" width="470" height="500"/></clipPath><clipPath class="axesclip" id="clip8d3a02y"><rect x="0" y="100" width="700" height="320"/></clipPath><clipPath class="axesclip" id="clip8d3a02xy"><rect x="80" y="100" width="470" height="320"/></clipPath></g><g class="gradients"/><g class="patterns"/></defs><g class="bglayer"><rect class="bg" x="80" y="100" width="470" height="320" style="fill: rgb(237, 237, 237); fill-opacity: 1; stroke-width: 0;"/></g><g class="layer-below"><g class="imagelayer"/><g class="shapelayer"/></g><g class="cartesianlayer"><g class="subplot xy"><g class="layer-subplot"><g class="shapelayer"/><g class="imagelayer"/></g><g class="gridlayer"><g class="x"><path class="xgrid crisp" transform="translate(199.75,0)" d="M0,100v320" style="stroke: rgb(255, 255, 255); stroke-opacity: 1; stroke-width: 1px;"/><path class="xgrid crisp" transform="translate(433.25,0)" d="M0,100v320" style="stroke: rgb(255, 255, 255); stroke-opacity: 1; stroke-width: 1px;"/></g><g class="y"><path class="ygrid crisp" transform="translate(0,333.24)" d="M80,0h470" style="stroke: rgb(255, 255, 255); stroke-opacity: 1; stroke-width: 1px;"/><path class="ygrid crisp" transform="translate(0,266.39)" d="M80,0h470" style="stroke: rgb(255, 255, 255); stroke-opacity: 1; stroke-width: 1px;"/><path class="ygrid crisp" transform="translate(0,199.54000000000002)" d="M80,0h470" style="stroke: rgb(255, 255, 255); stroke-opacity: 1; stroke-width: 1px;"/><path class="ygrid crisp" transform="translate(0,132.69)" d="M80,0h470" style="stroke: rgb(255, 255, 255); stroke-opacity: 1; stroke-width: 1px;"/></g></g><g class="zerolinelayer"><path class="yzl zl crisp" transform="translate(0,400.09)" d="M80,0h470" style="stroke: rgb(255, 255, 255); stroke-opacity: 1; stroke-width: 1px;"/></g><path class="xlines-below"/><path class="ylines-below"/><g class="overlines-below"/><g class="xaxislayer-below"/><g class="yaxislayer-below"/><g class="overaxes-below"/><g class="plot" transform="translate(80,100)" clip-path="url(#clip8d3a02xyplot)"><g class="violinlayer mlayer"><g class="trace violins" style="opacity: 1;"><path class="violin" d="M123.64,304Q126.06,303.53 127.5,303.32C129.31,303.06 131.44,302.84 133.67,302.63C136.29,302.38 139.25,302.17 142.24,301.95C145.51,301.71 149.09,301.49 152.52,301.26C155.97,301.03 159.62,300.82 162.88,300.58C165.8,300.36 168.86,300.17 171.16,299.89C172.82,299.69 175.27,299.61 175.41,299.21C175.47,299.02 175.13,298.72 174.76,298.53C173.9,298.09 171.56,298.05 169.67,297.84C167.31,297.58 164.43,297.38 161.7,297.16C158.81,296.92 155.69,296.7 152.77,296.47C149.95,296.25 147.09,296.03 144.47,295.79C142.11,295.57 139.79,295.35 137.73,295.1C135.97,294.89 134.3,294.68 132.84,294.42C131.65,294.21 130.55,293.99 129.62,293.73C128.89,293.52 128.24,293.31 127.71,293.05C127.29,292.84 126.95,292.62 126.66,292.37C126.41,292.16 126.25,291.91 126.05,291.68C125.86,291.45 125.7,291.22 125.5,291C125.28,290.76 125.05,290.53 124.79,290.31C124.51,290.07 124.2,289.85 123.88,289.63C123.55,289.4 123.19,289.17 122.85,288.94C122.52,288.71 122.17,288.49 121.86,288.26C121.57,288.04 121.29,287.82 121.05,287.58C120.83,287.36 120.63,287.13 120.47,286.89C120.32,286.67 120.2,286.44 120.11,286.21C120.02,285.99 119.96,285.75 119.91,285.52C119.86,285.29 119.83,285.07 119.81,284.84C119.79,284.61 119.78,284.38 119.77,284.15C119.76,283.92 119.76,283.7 119.76,283.47C119.76,283.24 119.75,283.02 119.75,282.79C119.75,282.56 119.75,282.33 119.75,282.1C119.75,281.87 119.75,281.65 119.75,281.42C119.75,281.19 119.75,280.96 119.75,280.73C119.75,280.5 119.75,280.28 119.75,280.05C119.75,279.82 119.75,279.59 119.75,279.36C119.75,279.13 119.75,278.91 119.75,278.68C119.75,278.45 119.75,278.22 119.75,277.99C119.75,277.76 119.75,277.54 119.75,277.31C119.75,277.08 119.75,276.86 119.75,276.63C119.75,276.4 119.75,276.17 119.75,275.94C119.75,275.71 119.75,275.49 119.75,275.26C119.75,275.03 119.75,274.8 119.75,274.57C119.75,274.34 119.75,274.12 119.76,273.89C119.77,273.66 119.78,273.43 119.79,273.2C119.8,272.97 119.82,272.75 119.84,272.52C119.87,272.29 119.9,272.07 119.94,271.84C119.99,271.61 120.04,271.38 120.11,271.15C120.18,270.92 120.26,270.7 120.35,270.47C120.44,270.24 120.55,270.01 120.65,269.78C120.75,269.55 120.87,269.33 120.96,269.1C121.05,268.87 121.15,268.64 121.21,268.41C121.27,268.19 121.32,267.96 121.33,267.73C121.34,267.5 121.31,267.28 121.27,267.05C121.23,266.82 121.15,266.59 121.07,266.36C120.99,266.13 120.87,265.91 120.77,265.68C120.67,265.45 120.55,265.22 120.45,264.99C120.35,264.76 120.27,264.54 120.19,264.31C120.11,264.08 120.04,263.85 119.99,263.62C119.94,263.39 119.9,263.17 119.87,262.94C119.84,262.71 119.82,262.49 119.8,262.26C119.78,262.03 119.78,261.8 119.77,261.57C119.76,261.34 119.76,261.12 119.76,260.89C119.76,260.66 119.75,260.43 119.75,260.2C119.75,259.97 119.75,259.75 119.75,259.52C119.75,259.29 119.75,259.06 119.75,258.83C119.75,258.6 119.75,258.38 119.75,258.15C119.75,257.92 119.75,257.69 119.75,257.46C119.75,257.23 119.75,257.01 119.75,256.78C119.75,256.55 119.75,256.33 119.75,256.1C119.75,255.87 119.75,255.64 119.75,255.41C119.75,255.18 119.75,254.96 119.75,254.73C119.75,254.5 119.75,254.27 119.75,254.04C119.75,253.81 119.75,253.59 119.75,253.36C119.75,253.13 119.75,252.9 119.75,252.67C119.75,252.44 119.75,252.22 119.75,251.99C119.75,251.76 119.75,251.54 119.75,251.31C119.75,251.08 119.75,250.85 119.75,250.62C119.75,250.39 119.75,250.17 119.75,249.94C119.75,249.71 119.75,249.48 119.75,249.25C119.75,249.02 119.75,248.8 119.75,248.57C119.75,248.34 119.75,248.11 119.75,247.88C119.75,247.65 119.75,247.43 119.75,247.2C119.75,246.97 119.75,246.75 119.75,246.52C119.75,246.29 119.75,246.06 119.75,245.83C119.75,245.6 119.75,245.38 119.75,245.15C119.75,244.92 119.75,244.69 119.75,244.46C119.75,244.23 119.75,244.01 119.75,243.78C119.75,243.55 119.75,243.32 119.75,243.09C119.75,242.86 119.75,242.64 119.75,242.41C119.75,242.18 119.75,241.95 119.75,241.72C119.75,241.49 119.75,241.27 119.75,241.04C119.75,240.81 119.75,240.59 119.75,240.36C119.75,240.13 119.75,239.9 119.75,239.67C119.75,239.44 119.75,239.22 119.75,238.99C119.75,238.76 119.76,238.53 119.76,238.3C119.76,238.07 119.76,237.85 119.77,237.62C119.78,237.39 119.79,237.16 119.81,236.93C119.83,236.7 119.85,236.48 119.88,236.25C119.91,236.02 119.95,235.8 120,235.57C120.05,235.34 120.12,235.11 120.2,234.88C120.28,234.65 120.38,234.43 120.48,234.2C120.58,233.97 120.69,233.74 120.79,233.51C120.89,233.28 121.01,233.06 121.09,232.83C121.17,232.6 121.24,232.37 121.28,232.14C121.32,231.91 121.34,231.69 121.33,231.46C121.32,231.23 121.26,231 121.2,230.78C121.13,230.55 121.03,230.32 120.94,230.09C120.84,229.86 120.73,229.64 120.63,229.41C120.53,229.18 120.42,228.95 120.33,228.72C120.24,228.49 120.16,228.27 120.09,228.04C120.02,227.81 119.97,227.58 119.93,227.35C119.89,227.12 119.85,226.9 119.83,226.67C119.81,226.44 119.8,226.21 119.79,225.98C119.78,225.75 119.77,225.53 119.76,225.3C119.75,225.07 119.75,224.85 119.75,224.62C119.75,224.39 119.75,224.16 119.75,223.93C119.75,223.7 119.75,223.48 119.75,223.25C119.75,223.02 119.75,222.79 119.75,222.56C119.75,222.33 119.75,222.11 119.75,221.88C119.75,221.65 119.75,221.42 119.75,221.19C119.75,220.96 119.75,220.74 119.75,220.51C119.75,220.28 119.75,220.06 119.75,219.83C119.75,219.6 119.75,219.37 119.75,219.14C119.75,218.91 119.75,218.69 119.75,218.46C119.75,218.23 119.75,218 119.75,217.77C119.75,217.54 119.75,217.32 119.75,217.09C119.75,216.86 119.75,216.63 119.75,216.4C119.75,216.17 119.75,215.95 119.75,215.72C119.75,215.49 119.75,215.27 119.75,215.04C119.75,214.81 119.75,214.58 119.75,214.35C119.75,214.12 119.75,213.9 119.75,213.67C119.75,213.44 119.75,213.21 119.75,212.98C119.75,212.75 119.75,212.53 119.75,212.3C119.75,212.07 119.75,211.84 119.75,211.61C119.75,211.38 119.75,211.16 119.75,210.93C119.75,210.7 119.75,210.47 119.75,210.24C119.75,210.01 119.75,209.79 119.75,209.56C119.75,209.33 119.75,209.11 119.75,208.88C119.75,208.65 119.75,208.42 119.75,208.19C119.75,207.96 119.75,207.74 119.75,207.51C119.75,207.28 119.75,207.05 119.75,206.82C119.75,206.59 119.75,206.37 119.75,206.14C119.75,205.91 119.75,205.68 119.75,205.45C119.75,205.22 119.75,205 119.75,204.77C119.75,204.54 119.75,204.32 119.75,204.09C119.75,203.86 119.75,203.63 119.75,203.4C119.75,203.17 119.75,202.95 119.75,202.72C119.75,202.49 119.75,202.26 119.75,202.03C119.75,201.8 119.75,201.58 119.75,201.35C119.75,201.12 119.75,200.89 119.75,200.66C119.75,200.43 119.75,200.21 119.75,199.98C119.75,199.75 119.75,199.53 119.75,199.3C119.75,199.07 119.75,198.84 119.75,198.61C119.75,198.38 119.76,198.16 119.76,197.93C119.76,197.7 119.76,197.47 119.77,197.24C119.77,197.01 119.78,196.79 119.79,196.56C119.8,196.33 119.81,196.1 119.84,195.87C119.87,195.64 119.9,195.42 119.95,195.19C120,194.96 120.05,194.74 120.12,194.51C120.19,194.28 120.27,194.05 120.36,193.82C120.45,193.59 120.57,193.37 120.68,193.14C120.79,192.91 120.9,192.68 121,192.45C121.1,192.22 121.2,192 121.28,191.77C121.36,191.54 121.42,191.31 121.46,191.08C121.5,190.85 121.52,190.63 121.53,190.4C121.54,190.17 121.53,189.94 121.52,189.71C121.52,189.48 121.5,189.26 121.5,189.03C121.5,188.8 121.5,188.58 121.5,188.35C121.5,188.12 121.53,187.89 121.53,187.66C121.53,187.43 121.54,187.21 121.53,186.98C121.52,186.75 121.49,186.52 121.44,186.29C121.39,186.06 121.32,185.83 121.24,185.61C121.16,185.38 121.04,185.15 120.94,184.92C120.83,184.69 120.72,184.47 120.61,184.24C120.51,184.01 120.4,183.79 120.31,183.56C120.22,183.33 120.15,183.1 120.08,182.87C120.02,182.64 119.96,182.42 119.92,182.19C119.88,181.96 119.85,181.73 119.83,181.5C119.81,181.27 119.79,181.05 119.78,180.82C119.77,180.59 119.77,180.36 119.76,180.13C119.76,179.9 119.75,179.68 119.75,179.45C119.75,179.22 119.75,179 119.75,178.77C119.75,178.54 119.75,178.31 119.75,178.08C119.75,177.85 119.75,177.63 119.75,177.4C119.75,177.17 119.75,176.94 119.75,176.71C119.75,176.48 119.75,176.26 119.75,176.03C119.75,175.8 119.75,175.57 119.75,175.34C119.75,175.11 119.75,174.89 119.75,174.66C119.75,174.43 119.75,174.2 119.75,173.97C119.75,173.74 119.75,173.52 119.75,173.29C119.75,173.06 119.75,172.84 119.75,172.61C119.75,172.38 119.75,172.15 119.75,171.92C119.75,171.69 119.75,171.47 119.75,171.24C119.75,171.01 119.75,170.78 119.75,170.55C119.75,170.32 119.75,170.1 119.75,169.87C119.75,169.64 119.75,169.41 119.75,169.18C119.75,168.95 119.75,168.73 119.75,168.5C119.75,168.27 119.75,168.05 119.75,167.82C119.75,167.59 119.75,167.36 119.75,167.13C119.75,166.9 119.75,166.68 119.75,166.45C119.75,166.22 119.75,165.99 119.75,165.76C119.75,165.53 119.75,165.31 119.75,165.08C119.75,164.85 119.75,164.62 119.75,164.39C119.75,164.16 119.75,163.94 119.75,163.71C119.75,163.48 119.75,163.26 119.75,163.03C119.75,162.8 119.75,162.57 119.75,162.34C119.75,162.11 119.75,161.89 119.75,161.66C119.75,161.43 119.75,161.2 119.75,160.97C119.75,160.74 119.75,160.52 119.75,160.29C119.75,160.06 119.75,159.83 119.75,159.6C119.75,159.37 119.75,159.15 119.75,158.92C119.75,158.69 119.75,158.46 119.75,158.23C119.75,158 119.75,157.78 119.75,157.55C119.75,157.32 119.75,157.1 119.75,156.87C119.75,156.64 119.75,156.41 119.75,156.18C119.75,155.95 119.75,155.73 119.75,155.5C119.75,155.27 119.75,155.04 119.75,154.81C119.75,154.58 119.75,154.36 119.75,154.13C119.75,153.9 119.75,153.67 119.75,153.44C119.75,153.21 119.75,152.99 119.75,152.76C119.75,152.53 119.75,152.31 119.75,152.08C119.75,151.85 119.75,151.62 119.75,151.39C119.75,151.16 119.75,150.94 119.75,150.71C119.75,150.48 119.75,150.25 119.75,150.02C119.75,149.79 119.75,149.57 119.75,149.34C119.75,149.11 119.75,148.88 119.75,148.65C119.75,148.42 119.75,148.2 119.75,147.97C119.75,147.74 119.75,147.52 119.75,147.29C119.75,147.06 119.75,146.83 119.75,146.6C119.75,146.37 119.75,146.15 119.75,145.92C119.75,145.69 119.75,145.46 119.75,145.23C119.75,145 119.75,144.78 119.75,144.55C119.75,144.32 119.75,144.09 119.75,143.86C119.75,143.63 119.75,143.41 119.75,143.18C119.75,142.95 119.75,142.72 119.75,142.49C119.75,142.26 119.75,142.04 119.75,141.81C119.75,141.58 119.75,141.36 119.75,141.13C119.75,140.9 119.75,140.67 119.75,140.44C119.75,140.21 119.75,139.99 119.75,139.76C119.75,139.53 119.75,139.3 119.75,139.07C119.75,138.84 119.75,138.62 119.75,138.39C119.75,138.16 119.75,137.93 119.75,137.7C119.75,137.47 119.75,137.25 119.75,137.02C119.75,136.79 119.75,136.57 119.75,136.34C119.75,136.11 119.75,135.88 119.75,135.65C119.75,135.42 119.75,135.2 119.75,134.97C119.75,134.74 119.75,134.51 119.75,134.28C119.75,134.05 119.75,133.83 119.75,133.6C119.75,133.37 119.75,133.14 119.75,132.91C119.75,132.68 119.75,132.46 119.75,132.23C119.75,132 119.75,131.78 119.75,131.55C119.75,131.32 119.75,131.09 119.76,130.86C119.76,130.63 119.77,130.41 119.78,130.18C119.79,129.95 119.8,129.72 119.82,129.49C119.84,129.26 119.87,129.04 119.91,128.81C119.95,128.58 120,128.35 120.06,128.12C120.12,127.89 120.2,127.66 120.28,127.44C120.37,127.21 120.47,126.99 120.57,126.76C120.67,126.53 120.79,126.3 120.89,126.07C120.99,125.84 121.09,125.62 121.16,125.39C121.23,125.16 121.3,124.93 121.32,124.7C121.34,124.47 121.33,124.25 121.3,124.02C121.27,123.79 121.2,123.56 121.13,123.33C121.05,123.1 120.95,122.88 120.85,122.65C120.75,122.42 120.63,122.19 120.53,121.96C120.43,121.73 120.33,121.51 120.25,121.28C120.17,121.05 120.09,120.83 120.03,120.6C119.97,120.37 119.93,120.14 119.89,119.91C119.86,119.68 119.84,119.46 119.82,119.23C119.8,119 119.79,118.77 119.78,118.54C119.77,118.31 119.76,118.09 119.76,117.86C119.75,117.63 119.75,117.4 119.75,117.17C119.75,116.94 119.75,116.72 119.75,116.49C119.75,116.26 119.75,116.04 119.75,115.81C119.75,115.58 119.75,115.35 119.75,115.12C119.75,114.89 119.75,114.67 119.75,114.44C119.75,114.21 119.75,113.98 119.75,113.75C119.75,113.52 119.75,113.3 119.75,113.07C119.75,112.84 119.75,112.61 119.75,112.38C119.75,112.15 119.75,111.93 119.75,111.7C119.75,111.47 119.75,111.25 119.75,111.02C119.75,110.79 119.75,110.56 119.75,110.33C119.75,110.1 119.75,109.88 119.75,109.65C119.75,109.42 119.75,109.19 119.75,108.96C119.75,108.73 119.75,108.51 119.75,108.28C119.75,108.05 119.75,107.82 119.75,107.59C119.75,107.36 119.75,107.14 119.75,106.91C119.75,106.68 119.75,106.45 119.75,106.22C119.75,105.99 119.75,105.77 119.75,105.54C119.75,105.31 119.75,105.09 119.75,104.86C119.75,104.63 119.75,104.4 119.75,104.17C119.75,103.94 119.75,103.72 119.75,103.49C119.75,103.26 119.75,103.03 119.75,102.8C119.75,102.57 119.75,102.35 119.75,102.12C119.75,101.89 119.76,101.66 119.76,101.43C119.76,101.2 119.76,100.98 119.77,100.75C119.78,100.52 119.79,100.3 119.8,100.07C119.81,99.84 119.82,99.61 119.85,99.38C119.88,99.15 119.91,98.93 119.96,98.7C120.01,98.47 120.07,98.24 120.14,98.01C120.21,97.78 120.31,97.56 120.4,97.33C120.5,97.1 120.61,96.87 120.71,96.64C120.81,96.41 120.93,96.19 121.02,95.96C121.11,95.74 121.2,95.51 121.25,95.28C121.3,95.05 121.33,94.82 121.33,94.59C121.33,94.36 121.3,94.13 121.25,93.91C121.2,93.68 121.11,93.45 121.02,93.22C120.93,92.99 120.81,92.77 120.71,92.54C120.61,92.31 120.5,92.08 120.4,91.85C120.31,91.62 120.21,91.4 120.14,91.17Q120.07,90.94 119.96,90.48L119.54,90.48Q119.43,90.94 119.36,91.17C119.29,91.4 119.19,91.62 119.1,91.85C119,92.08 118.89,92.31 118.79,92.54C118.69,92.77 118.57,92.99 118.48,93.22C118.39,93.45 118.3,93.68 118.25,93.91C118.2,94.13 118.17,94.36 118.17,94.59C118.17,94.82 118.2,95.05 118.25,95.28C118.3,95.51 118.39,95.74 118.48,95.96C118.57,96.19 118.69,96.41 118.79,96.64C118.89,96.87 119,97.1 119.1,97.33C119.19,97.56 119.29,97.78 119.36,98.01C119.43,98.24 119.49,98.47 119.54,98.7C119.59,98.93 119.62,99.15 119.65,99.38C119.68,99.61 119.69,99.84 119.7,100.07C119.71,100.3 119.72,100.52 119.73,100.75C119.74,100.98 119.74,101.2 119.74,101.43C119.74,101.66 119.75,101.89 119.75,102.12C119.75,102.35 119.75,102.57 119.75,102.8C119.75,103.03 119.75,103.26 119.75,103.49C119.75,103.72 119.75,103.94 119.75,104.17C119.75,104.4 119.75,104.63 119.75,104.86C119.75,105.09 119.75,105.31 119.75,105.54C119.75,105.77 119.75,105.99 119.75,106.22C119.75,106.45 119.75,106.68 119.75,106.91C119.75,107.14 119.75,107.36 119.75,107.59C119.75,107.82 119.75,108.05 119.75,108.28C119.75,108.51 119.75,108.73 119.75,108.96C119.75,109.19 119.75,109.42 119.75,109.65C119.75,109.88 119.75,110.1 119.75,110.33C119.75,110.56 119.75,110.79 119.75,111.02C119.75,111.25 119.75,111.47 119.75,111.7C119.75,111.93 119.75,112.15 119.75,112.38C119.75,112.61 119.75,112.84 119.75,113.07C119.75,113.3 119.75,113.52 119.75,113.75C119.75,113.98 119.75,114.21 119.75,114.44C119.75,114.67 119.75,114.89 119.75,115.12C119.75,115.35 119.75,115.58 119.75,115.81C119.75,116.04 119.75,116.26 119.75,116.49C119.75,116.72 119.75,116.94 119.75,117.17C119.75,117.4 119.75,117.63 119.74,117.86C119.74,118.09 119.73,118.31 119.72,118.54C119.71,118.77 119.7,119 119.68,119.23C119.66,119.46 119.64,119.68 119.61,119.91C119.57,120.14 119.53,120.37 119.47,120.6C119.41,120.83 119.33,121.05 119.25,121.28C119.17,121.51 119.07,121.73 118.97,121.96C118.87,122.19 118.75,122.42 118.65,122.65C118.55,122.88 118.45,123.1 118.37,123.33C118.3,123.56 118.23,123.79 118.2,124.02C118.17,124.25 118.16,124.47 118.18,124.7C118.2,124.93 118.27,125.16 118.34,125.39C118.41,125.62 118.51,125.84 118.61,126.07C118.71,126.3 118.83,126.53 118.93,126.76C119.03,126.99 119.13,127.21 119.22,127.44C119.3,127.66 119.38,127.89 119.44,128.12C119.5,128.35 119.55,128.58 119.59,128.81C119.63,129.04 119.66,129.26 119.68,129.49C119.7,129.72 119.71,129.95 119.72,130.18C119.73,130.41 119.74,130.63 119.74,130.86C119.75,131.09 119.75,131.32 119.75,131.55C119.75,131.78 119.75,132 119.75,132.23C119.75,132.46 119.75,132.68 119.75,132.91C119.75,133.14 119.75,133.37 119.75,133.6C119.75,133.83 119.75,134.05 119.75,134.28C119.75,134.51 119.75,134.74 119.75,134.97C119.75,135.2 119.75,135.42 119.75,135.65C119.75,135.88 119.75,136.11 119.75,136.34C119.75,136.57 119.75,136.79 119.75,137.02C119.75,137.25 119.75,137.47 119.75,137.7C119.75,137.93 119.75,138.16 119.75,138.39C119.75,138.62 119.75,138.84 119.75,139.07C119.75,139.3 119.75,139.53 119.75,139.76C119.75,139.99 119.75,140.21 119.75,140.44C119.75,140.67 119.75,140.9 119.75,141.13C119.75,141.36 119.75,141.58 119.75,141.81C119.75,142.04 119.75,142.26 119.75,142.49C119.75,142.72 119.75,142.95 119.75,143.18C119.75,143.41 119.75,143.63 119.75,143.86C119.75,144.09 119.75,144.32 119.75,144.55C119.75,144.78 119.75,145 119.75,145.23C119.75,145.46 119.75,145.69 119.75,145.92C119.75,146.15 119.75,146.37 119.75,146.6C119.75,146.83 119.75,147.06 119.75,147.29C119.75,147.52 119.75,147.74 119.75,147.97C119.75,148.2 119.75,148.42 119.75,148.65C119.75,148.88 119.75,149.11 119.75,149.34C119.75,149.57 119.75,149.79 119.75,150.02C119.75,150.25 119.75,150.48 119.75,150.71C119.75,150.94 119.75,151.16 119.75,151.39C119.75,151.62 119.75,151.85 119.75,152.08C119.75,152.31 119.75,152.53 119.75,152.76C119.75,152.99 119.75,153.21 119.75,153.44C119.75,153.67 119.75,153.9 119.75,154.13C119.75,154.36 119.75,154.58 119.75,154.81C119.75,155.04 119.75,155.27 119.75,155.5C119.75,155.73 119.75,155.95 119.75,156.18C119.75,156.41 119.75,156.64 119.75,156.87C119.75,157.1 119.75,157.32 119.75,157.55C119.75,157.78 119.75,158 119.75,158.23C119.75,158.46 119.75,158.69 119.75,158.92C119.75,159.15 119.75,159.37 119.75,159.6C119.75,159.83 119.75,160.06 119.75,160.29C119.75,160.52 119.75,160.74 119.75,160.97C119.75,161.2 119.75,161.43 119.75,161.66C119.75,161.89 119.75,162.11 119.75,162.34C119.75,162.57 119.75,162.8 119.75,163.03C119.75,163.26 119.75,163.48 119.75,163.71C119.75,163.94 119.75,164.16 119.75,164.39C119.75,164.62 119.75,164.85 119.75,165.08C119.75,165.31 119.75,165.53 119.75,165.76C119.75,165.99 119.75,166.22 119.75,166.45C119.75,166.68 119.75,166.9 119.75,167.13C119.75,167.36 119.75,167.59 119.75,167.82C119.75,168.05 119.75,168.27 119.75,168.5C119.75,168.73 119.75,168.95 119.75,169.18C119.75,169.41 119.75,169.64 119.75,169.87C119.75,170.1 119.75,170.32 119.75,170.55C119.75,170.78 119.75,171.01 119.75,171.24C119.75,171.47 119.75,171.69 119.75,171.92C119.75,172.15 119.75,172.38 119.75,172.61C119.75,172.84 119.75,173.06 119.75,173.29C119.75,173.52 119.75,173.74 119.75,173.97C119.75,174.2 119.75,174.43 119.75,174.66C119.75,174.89 119.75,175.11 119.75,175.34C119.75,175.57 119.75,175.8 119.75,176.03C119.75,176.26 119.75,176.48 119.75,176.71C119.75,176.94 119.75,177.17 119.75,177.4C119.75,177.63 119.75,177.85 119.75,178.08C119.75,178.31 119.75,178.54 119.75,178.77C119.75,179 119.75,179.22 119.75,179.45C119.75,179.68 119.74,179.9 119.74,180.13C119.73,180.36 119.73,180.59 119.72,180.82C119.71,181.05 119.69,181.27 119.67,181.5C119.65,181.73 119.62,181.96 119.58,182.19C119.54,182.42 119.48,182.64 119.42,182.87C119.35,183.1 119.28,183.33 119.19,183.56C119.1,183.79 118.99,184.01 118.89,184.24C118.78,184.47 118.67,184.69 118.56,184.92C118.46,185.15 118.34,185.38 118.26,185.61C118.18,185.83 118.11,186.06 118.06,186.29C118.01,186.52 117.98,186.75 117.97,186.98C117.96,187.21 117.97,187.43 117.97,187.66C117.97,187.89 118,188.12 118,188.35C118,188.58 118,188.8 118,189.03C118,189.26 117.98,189.48 117.98,189.71C117.97,189.94 117.96,190.17 117.97,190.4C117.98,190.63 118,190.85 118.04,191.08C118.08,191.31 118.14,191.54 118.22,191.77C118.3,192 118.4,192.22 118.5,192.45C118.6,192.68 118.71,192.91 118.82,193.14C118.93,193.37 119.05,193.59 119.14,193.82C119.23,194.05 119.31,194.28 119.38,194.51C119.45,194.74 119.5,194.96 119.55,195.19C119.6,195.42 119.63,195.64 119.66,195.87C119.69,196.1 119.7,196.33 119.71,196.56C119.72,196.79 119.73,197.01 119.73,197.24C119.74,197.47 119.74,197.7 119.74,197.93C119.74,198.16 119.75,198.38 119.75,198.61C119.75,198.84 119.75,199.07 119.75,199.3C119.75,199.53 119.75,199.75 119.75,199.98C119.75,200.21 119.75,200.43 119.75,200.66C119.75,200.89 119.75,201.12 119.75,201.35C119.75,201.58 119.75,201.8 119.75,202.03C119.75,202.26 119.75,202.49 119.75,202.72C119.75,202.95 119.75,203.17 119.75,203.4C119.75,203.63 119.75,203.86 119.75,204.09C119.75,204.32 119.75,204.54 119.75,204.77C119.75,205 119.75,205.22 119.75,205.45C119.75,205.68 119.75,205.91 119.75,206.14C119.75,206.37 119.75,206.59 119.75,206.82C119.75,207.05 119.75,207.28 119.75,207.51C119.75,207.74 119.75,207.96 119.75,208.19C119.75,208.42 119.75,208.65 119.75,208.88C119.75,209.11 119.75,209.33 119.75,209.56C119.75,209.79 119.75,210.01 119.75,210.24C119.75,210.47 119.75,210.7 119.75,210.93C119.75,211.16 119.75,211.38 119.75,211.61C119.75,211.84 119.75,212.07 119.75,212.3C119.75,212.53 119.75,212.75 119.75,212.98C119.75,213.21 119.75,213.44 119.75,213.67C119.75,213.9 119.75,214.12 119.75,214.35C119.75,214.58 119.75,214.81 119.75,215.04C119.75,215.27 119.75,215.49 119.75,215.72C119.75,215.95 119.75,216.17 119.75,216.4C119.75,216.63 119.75,216.86 119.75,217.09C119.75,217.32 119.75,217.54 119.75,217.77C119.75,218 119.75,218.23 119.75,218.46C119.75,218.69 119.75,218.91 119.75,219.14C119.75,219.37 119.75,219.6 119.75,219.83C119.75,220.06 119.75,220.28 119.75,220.51C119.75,220.74 119.75,220.96 119.75,221.19C119.75,221.42 119.75,221.65 119.75,221.88C119.75,222.11 119.75,222.33 119.75,222.56C119.75,222.79 119.75,223.02 119.75,223.25C119.75,223.48 119.75,223.7 119.75,223.93C119.75,224.16 119.75,224.39 119.75,224.62C119.75,224.85 119.75,225.07 119.74,225.3C119.73,225.53 119.72,225.75 119.71,225.98C119.7,226.21 119.69,226.44 119.67,226.67C119.65,226.9 119.61,227.12 119.57,227.35C119.53,227.58 119.48,227.81 119.41,228.04C119.34,228.27 119.26,228.49 119.17,228.72C119.08,228.95 118.97,229.18 118.87,229.41C118.77,229.64 118.66,229.86 118.56,230.09C118.47,230.32 118.37,230.55 118.3,230.78C118.24,231 118.18,231.23 118.17,231.46C118.16,231.69 118.18,231.91 118.22,232.14C118.26,232.37 118.33,232.6 118.41,232.83C118.49,233.06 118.61,233.28 118.71,233.51C118.81,233.74 118.92,233.97 119.02,234.2C119.12,234.43 119.22,234.65 119.3,234.88C119.38,235.11 119.45,235.34 119.5,235.57C119.55,235.8 119.59,236.02 119.62,236.25C119.65,236.48 119.67,236.7 119.69,236.93C119.71,237.16 119.72,237.39 119.73,237.62C119.74,237.85 119.74,238.07 119.74,238.3C119.74,238.53 119.75,238.76 119.75,238.99C119.75,239.22 119.75,239.44 119.75,239.67C119.75,239.9 119.75,240.13 119.75,240.36C119.75,240.59 119.75,240.81 119.75,241.04C119.75,241.27 119.75,241.49 119.75,241.72C119.75,241.95 119.75,242.18 119.75,242.41C119.75,242.64 119.75,242.86 119.75,243.09C119.75,243.32 119.75,243.55 119.75,243.78C119.75,244.01 119.75,244.23 119.75,244.46C119.75,244.69 119.75,244.92 119.75,245.15C119.75,245.38 119.75,245.6 119.75,245.83C119.75,246.06 119.75,246.29 119.75,246.52C119.75,246.75 119.75,246.97 119.75,247.2C119.75,247.43 119.75,247.65 119.75,247.88C119.75,248.11 119.75,248.34 119.75,248.57C119.75,248.8 119.75,249.02 119.75,249.25C119.75,249.48 119.75,249.71 119.75,249.94C119.75,250.17 119.75,250.39 119.75,250.62C119.75,250.85 119.75,251.08 119.75,251.31C119.75,251.54 119.75,251.76 119.75,251.99C119.75,252.22 119.75,252.44 119.75,252.67C119.75,252.9 119.75,253.13 119.75,253.36C119.75,253.59 119.75,253.81 119.75,254.04C119.75,254.27 119.75,254.5 119.75,254.73C119.75,254.96 119.75,255.18 119.75,255.41C119.75,255.64 119.75,255.87 119.75,256.1C119.75,256.33 119.75,256.55 119.75,256.78C119.75,257.01 119.75,257.23 119.75,257.46C119.75,257.69 119.75,257.92 119.75,258.15C119.75,258.38 119.75,258.6 119.75,258.83C119.75,259.06 119.75,259.29 119.75,259.52C119.75,259.75 119.75,259.97 119.75,260.2C119.75,260.43 119.74,260.66 119.74,260.89C119.74,261.12 119.74,261.34 119.73,261.57C119.72,261.8 119.72,262.03 119.7,262.26C119.68,262.49 119.66,262.71 119.63,262.94C119.6,263.17 119.56,263.39 119.51,263.62C119.46,263.85 119.39,264.08 119.31,264.31C119.23,264.54 119.15,264.76 119.05,264.99C118.95,265.22 118.83,265.45 118.73,265.68C118.63,265.91 118.51,266.13 118.43,266.36C118.35,266.59 118.27,266.82 118.23,267.05C118.19,267.28 118.16,267.5 118.17,267.73C118.18,267.96 118.23,268.19 118.29,268.41C118.35,268.64 118.45,268.87 118.54,269.1C118.63,269.33 118.75,269.55 118.85,269.78C118.95,270.01 119.06,270.24 119.15,270.47C119.24,270.7 119.32,270.92 119.39,271.15C119.46,271.38 119.51,271.61 119.56,271.84C119.6,272.07 119.63,272.29 119.66,272.52C119.68,272.75 119.7,272.97 119.71,273.2C119.72,273.43 119.73,273.66 119.74,273.89C119.75,274.12 119.75,274.34 119.75,274.57C119.75,274.8 119.75,275.03 119.75,275.26C119.75,275.49 119.75,275.71 119.75,275.94C119.75,276.17 119.75,276.4 119.75,276.63C119.75,276.86 119.75,277.08 119.75,277.31C119.75,277.54 119.75,277.76 119.75,277.99C119.75,278.22 119.75,278.45 119.75,278.68C119.75,278.91 119.75,279.13 119.75,279.36C119.75,279.59 119.75,279.82 119.75,280.05C119.75,280.28 119.75,280.5 119.75,280.73C119.75,280.96 119.75,281.19 119.75,281.42C119.75,281.65 119.75,281.87 119.75,282.1C119.75,282.33 119.75,282.56 119.75,282.79C119.75,283.02 119.74,283.24 119.74,283.47C119.74,283.7 119.74,283.92 119.73,284.15C119.72,284.38 119.71,284.61 119.69,284.84C119.67,285.07 119.64,285.29 119.59,285.52C119.54,285.75 119.48,285.99 119.39,286.21C119.3,286.44 119.18,286.67 119.03,286.89C118.87,287.13 118.67,287.36 118.45,287.58C118.21,287.82 117.93,288.04 117.64,288.26C117.33,288.49 116.98,288.71 116.65,288.94C116.31,289.17 115.95,289.4 115.62,289.63C115.3,289.85 114.99,290.07 114.71,290.31C114.45,290.53 114.22,290.76 114,291C113.8,291.22 113.64,291.45 113.45,291.68C113.25,291.91 113.09,292.16 112.84,292.37C112.55,292.62 112.21,292.84 111.79,293.05C111.26,293.31 110.61,293.52 109.88,293.73C108.95,293.99 107.85,294.21 106.66,294.42C105.2,294.68 103.53,294.89 101.77,295.1C99.71,295.35 97.39,295.57 95.03,295.79C92.41,296.03 89.55,296.25 86.73,296.47C83.81,296.7 80.69,296.92 77.8,297.16C75.07,297.38 72.19,297.58 69.83,297.84C67.94,298.05 65.6,298.09 64.74,298.53C64.37,298.72 64.03,299.02 64.09,299.21C64.23,299.61 66.68,299.69 68.34,299.89C70.64,300.17 73.7,300.36 76.62,300.58C79.88,300.82 83.53,301.03 86.98,301.26C90.41,301.49 93.99,301.71 97.26,301.95C100.25,302.17 103.21,302.38 105.83,302.63C108.06,302.84 110.19,303.06 112,303.32Q113.44,303.53 115.86,304Z" style="vector-effect: non-scaling-stroke; stroke-width: 2px; stroke: rgb(99, 110, 250); stroke-opacity: 1; fill: rgb(99, 110, 250); fill-opacity: 0.5;"/><g class="points"><path class="point" transform="translate(42.84,299.89)" d="M3,0A3,3 0 1,1 0,-3A3,3 0 0,1 3,0Z" style="opacity: 1; stroke-width: 0px; fill: rgb(99, 110, 250); fill-opacity: 1;"/><path class="point" transform="translate(23,299.83)" d="M3,0A3,3 0 1,1 0,-3A3,3 0 0,1 3,0Z" style="opacity: 1; stroke-width: 0px; fill: rgb(99, 110, 250); fill-opacity: 1;"/><path class="point" transform="translate(47.25,299.76)" d="M3,0A3,3 0 1,1 0,-3A3,3 0 0,1 3,0Z" style="opacity: 1; stroke-width: 0px; fill: rgb(99, 110, 250); fill-opacity: 1;"/><path class="point" transform="translate(19.42,299.69)" d="M3,0A3,3 0 1,1 0,-3A3,3 0 0,1 3,0Z" style="opacity: 1; stroke-width: 0px; fill: rgb(99, 110, 250); fill-opacity: 1;"/><path class="point" transform="translate(29.71,299.69)" d="M3,0A3,3 0 1,1 0,-3A3,3 0 0,1 3,0Z" style="opacity: 1; stroke-width: 0px; fill: rgb(99, 110, 250); fill-opacity: 1;"/><path class="point" transform="translate(42.95,299.69)" d="M3,0A3,3 0 1,1 0,-3A3,3 0 0,1 3,0Z" style="opacity: 1; stroke-width: 0px; fill: rgb(99, 110, 250); fill-opacity: 1;"/><path class="point" transform="translate(33.3,299.63)" d="M3,0A3,3 0 1,1 0,-3A3,3 0 0,1 3,0Z" style="opacity: 1; stroke-width: 0px; fill: rgb(99, 110, 250); fill-opacity: 1;"/><path class="point" transform="translate(38.91,299.63)" d="M3,0A3,3 0 1,1 0,-3A3,3 0 0,1 3,0Z" style="opacity: 1; stroke-width: 0px; fill: rgb(99, 110, 250); fill-opacity: 1;"/><path class="point" transform="translate(28.46,299.56)" d="M3,0A3,3 0 1,1 0,-3A3,3 0 0,1 3,0Z" style="opacity: 1; stroke-width: 0px; fill: rgb(99, 110, 250); fill-opacity: 1;"/><path class="point" transform="translate(21.36,299.56)" d="M3,0A3,3 0 1,1 0,-3A3,3 0 0,1 3,0Z" style="opacity: 1; stroke-width: 0px; fill: rgb(99, 110, 250); fill-opacity: 1;"/><path class="point" transform="translate(38.53,299.56)" d="M3,0A3,3 0 1,1 0,-3A3,3 0 0,1 3,0Z" style="opacity: 1; stroke-width: 0px; fill: rgb(99, 110, 250); fill-opacity: 1;"/><path class="point" transform="translate(28.29,299.49)" d="M3,0A3,3 0 1,1 0,-3A3,3 0 0,1 3,0Z" style="opacity: 1; stroke-width: 0px; fill: rgb(99, 110, 250); fill-opacity: 1;"/><path class="point" transform="translate(44.82,299.49)" d="M3,0A3,3 0 1,1 0,-3A3,3 0 0,1 3,0Z" style="opacity: 1; stroke-width: 0px; fill: rgb(99, 110, 250); fill-opacity: 1;"/><path class="point" transform="translate(17.23,299.43)" d="M3,0A3,3 0 1,1 0,-3A3,3 0 0,1 3,0Z" style="opacity: 1; stroke-width: 0px; fill: rgb(99, 110, 250); fill-opacity: 1;"/><path class="point" transform="translate(24.01,299.36)" d="M3,0A3,3 0 1,1 0,-3A3,3 0 0,1 3,0Z" style="opacity: 1; stroke-width: 0px; fill: rgb(99, 110, 250); fill-opacity: 1;"/><path class="point" transform="translate(49.12,299.36)" d="M3,0A3,3 0 1,1 0,-3A3,3 0 0,1 3,0Z" style="opacity: 1; stroke-width: 0px; fill: rgb(99, 110, 250); fill-opacity: 1;"/><path class="point" transform="translate(29.64,299.36)" d="M3,0A3,3 0 1,1 0,-3A3,3 0 0,1 3,0Z" style="opacity: 1; stroke-width: 0px; fill: rgb(99, 110, 250); fill-opacity: 1;"/><path class="point" transform="translate(19.21,299.36)" d="M3,0A3,3 0 1,1 0,-3A3,3 0 0,1 3,0Z" style="opacity: 1; stroke-width: 0px; fill: rgb(99, 110, 250); fill-opacity: 1;"/><path class="point" transform="translate(28.27,299.29)" d="M3,0A3,3 0 1,1 0,-3A3,3 0 0,1 3,0Z" style="opacity: 1; stroke-width: 0px; fill: rgb(99, 110, 250); fill-opacity: 1;"/><path class="point" transform="translate(33.57,299.29)" d="M3,0A3,3 0 1,1 0,-3A3,3 0 0,1 3,0Z" style="opacity: 1; stroke-width: 0px; fill: rgb(99, 110, 250); fill-opacity: 1;"/><path class="point" transform="translate(41.66,299.23)" d="M3,0A3,3 0 1,1 0,-3A3,3 0 0,1 3,0Z" style="opacity: 1; stroke-width: 0px; fill: rgb(99, 110, 250); fill-opacity: 1;"/><path class="point" transform="translate(35.85,299.23)" d="M3,0A3,3 0 1,1 0,-3A3,3 0 0,1 3,0Z" style="opacity: 1; stroke-width: 0px; fill: rgb(99, 110, 250); fill-opacity: 1;"/><path class="point" transform="translate(29.1,299.09)" d="M3,0A3,3 0 1,1 0,-3A3,3 0 0,1 3,0Z" style="opacity: 1; stroke-width: 0px; fill: rgb(99, 110, 250); fill-opacity: 1;"/><path class="point" transform="translate(19.59,298.96)" d="M3,0A3,3 0 1,1 0,-3A3,3 0 0,1 3,0Z" style="opacity: 1; stroke-width: 0px; fill: rgb(99, 110, 250); fill-opacity: 1;"/><path class="point" transform="translate(33.89,298.96)" d="M3,0A3,3 0 1,1 0,-3A3,3 0 0,1 3,0Z" style="opacity: 1; stroke-width: 0px; fill: rgb(99, 110, 250); fill-opacity: 1;"/><path class="point" transform="translate(28.92,298.89)" d="M3,0A3,3 0 1,1 0,-3A3,3 0 0,1 3,0Z" style="opacity: 1; stroke-width: 0px; fill: rgb(99, 110, 250); fill-opacity: 1;"/><path class="point" transform="translate(41.93,298.89)" d="M3,0A3,3 0 1,1 0,-3A3,3 0 0,1 3,0Z" style="opacity: 1; stroke-width: 0px; fill: rgb(99, 110, 250); fill-opacity: 1;"/><path class="point" transform="translate(32.42,298.76)" d="M3,0A3,3 0 1,1 0,-3A3,3 0 0,1 3,0Z" style="opacity: 1; stroke-width: 0px; fill: rgb(99, 110, 250); fill-opacity: 1;"/><path class="point" transform="translate(22.71,298.49)" d="M3,0A3,3 0 1,1 0,-3A3,3 0 0,1 3,0Z" style="opacity: 1; stroke-width: 0px; fill: rgb(99, 110, 250); fill-opacity: 1;"/><path class="point" transform="translate(17.93,298.36)" d="M3,0A3,3 0 1,1 0,-3A3,3 0 0,1 3,0Z" style="opacity: 1; stroke-width: 0px; fill: rgb(99, 110, 250); fill-opacity: 1;"/><path class="point" transform="translate(43.62,298.22)" d="M3,0A3,3 0 1,1 0,-3A3,3 0 0,1 3,0Z" style="opacity: 1; stroke-width: 0px; fill: rgb(99, 110, 250); fill-opacity: 1;"/><path class="point" transform="translate(19.58,298.02)" d="M3,0A3,3 0 1,1 0,-3A3,3 0 0,1 3,0Z" style="opacity: 1; stroke-width: 0px; fill: rgb(99, 110, 250); fill-opacity: 1;"/><path class="point" transform="translate(43.63,297.75)" d="M3,0A3,3 0 1,1 0,-3A3,3 0 0,1 3,0Z" style="opacity: 1; stroke-width: 0px; fill: rgb(99, 110, 250); fill-opacity: 1;"/><path class="point" transform="translate(37.4,297.62)" d="M3,0A3,3 0 1,1 0,-3A3,3 0 0,1 3,0Z" style="opacity: 1; stroke-width: 0px; fill: rgb(99, 110, 250); fill-opacity: 1;"/><path class="point" transform="translate(30.15,297.09)" d="M3,0A3,3 0 1,1 0,-3A3,3 0 0,1 3,0Z" style="opacity: 1; stroke-width: 0px; fill: rgb(99, 110, 250); fill-opacity: 1;"/><path class="point" transform="translate(26.73,296.95)" d="M3,0A3,3 0 1,1 0,-3A3,3 0 0,1 3,0Z" style="opacity: 1; stroke-width: 0px; fill: rgb(99, 110, 250); fill-opacity: 1;"/><path class="point" transform="translate(38.21,296.75)" d="M3,0A3,3 0 1,1 0,-3A3,3 0 0,1 3,0Z" style="opacity: 1; stroke-width: 0px; fill: rgb(99, 110, 250); fill-opacity: 1;"/><path class="point" transform="translate(32.93,296.48)" d="M3,0A3,3 0 1,1 0,-3A3,3 0 0,1 3,0Z" style="opacity: 1; stroke-width: 0px; fill: rgb(99, 110, 250); fill-opacity: 1;"/><path class="point" transform="translate(40.28,296.08)" d="M3,0A3,3 0 1,1 0,-3A3,3 0 0,1 3,0Z" style="opacity: 1; stroke-width: 0px; fill: rgb(99, 110, 250); fill-opacity: 1;"/><path class="point" transform="translate(30.13,294.61)" d="M3,0A3,3 0 1,1 0,-3A3,3 0 0,1 3,0Z" style="opacity: 1; stroke-width: 0px; fill: rgb(99, 110, 250); fill-opacity: 1;"/><path class="point" transform="translate(35.88,294.14)" d="M3,0A3,3 0 1,1 0,-3A3,3 0 0,1 3,0Z" style="opacity: 1; stroke-width: 0px; fill: rgb(99, 110, 250); fill-opacity: 1;"/><path class="point" transform="translate(33.74,291.27)" d="M3,0A3,3 0 1,1 0,-3A3,3 0 0,1 3,0Z" style="opacity: 1; stroke-width: 0px; fill: rgb(99, 110, 250); fill-opacity: 1;"/><path class="point" transform="translate(33.02,290.94)" d="M3,0A3,3 0 1,1 0,-3A3,3 0 0,1 3,0Z" style="opacity: 1; stroke-width: 0px; fill: rgb(99, 110, 250); fill-opacity: 1;"/><path class="point" transform="translate(32.09,290.53)" d="M3,0A3,3 0 1,1 0,-3A3,3 0 0,1 3,0Z" style="opacity: 1; stroke-width: 0px; fill: rgb(99, 110, 250); fill-opacity: 1;"/><path class="point" transform="translate(33.26,267.6)" d="M3,0A3,3 0 1,1 0,-3A3,3 0 0,1 3,0Z" style="opacity: 1; stroke-width: 0px; fill: rgb(99, 110, 250); fill-opacity: 1;"/><path class="point" transform="translate(35.04,231.64)" d="M3,0A3,3 0 1,1 0,-3A3,3 0 0,1 3,0Z" style="opacity: 1; stroke-width: 0px; fill: rgb(99, 110, 250); fill-opacity: 1;"/><path class="point" transform="translate(33.56,190.99)" d="M3,0A3,3 0 1,1 0,-3A3,3 0 0,1 3,0Z" style="opacity: 1; stroke-width: 0px; fill: rgb(99, 110, 250); fill-opacity: 1;"/><path class="point" transform="translate(32.8,186.51)" d="M3,0A3,3 0 1,1 0,-3A3,3 0 0,1 3,0Z" style="opacity: 1; stroke-width: 0px; fill: rgb(99, 110, 250); fill-opacity: 1;"/><path class="point" transform="translate(34.6,124.41)" d="M3,0A3,3 0 1,1 0,-3A3,3 0 0,1 3,0Z" style="opacity: 1; stroke-width: 0px; fill: rgb(99, 110, 250); fill-opacity: 1;"/><path class="point" transform="translate(33.23,94.59)" d="M3,0A3,3 0 1,1 0,-3A3,3 0 0,1 3,0Z" style="opacity: 1; stroke-width: 0px; fill: rgb(99, 110, 250); fill-opacity: 1;"/></g></g><g class="trace violins" style="opacity: 1;"><path class="violin" d="M353.53,267.49Q353.67,267.14 353.76,266.97C353.85,266.79 353.97,266.61 354.09,266.44C354.21,266.26 354.36,266.09 354.49,265.92C354.62,265.74 354.77,265.57 354.89,265.39C355,265.22 355.12,265.04 355.19,264.86C355.25,264.69 355.3,264.51 355.3,264.34C355.3,264.16 355.26,263.98 355.2,263.81C355.13,263.63 355.02,263.46 354.91,263.29C354.79,263.11 354.65,262.94 354.52,262.76C354.39,262.59 354.25,262.42 354.15,262.24C354.05,262.07 353.96,261.89 353.91,261.71C353.87,261.54 353.83,261.36 353.87,261.19C353.91,261.01 354.02,260.82 354.17,260.66C354.35,260.46 354.64,260.29 354.95,260.13C355.36,259.93 355.88,259.77 356.44,259.61C357.15,259.41 357.99,259.24 358.89,259.08C359.98,258.88 361.22,258.72 362.52,258.56C364.03,258.37 365.7,258.2 367.42,258.03C369.34,257.84 371.41,257.68 373.51,257.51C375.76,257.33 378.14,257.15 380.5,256.98C382.93,256.8 385.46,256.64 387.91,256.46C390.33,256.29 392.8,256.11 395.14,255.93C397.35,255.76 399.57,255.59 401.58,255.4C403.36,255.23 405.13,255.08 406.6,254.88C407.75,254.72 409.01,254.62 409.68,254.35C410.05,254.2 410.48,253.98 410.46,253.83C410.43,253.62 409.46,253.45 408.77,253.3C407.73,253.07 406.23,252.94 404.77,252.78C403.01,252.59 400.95,252.42 398.92,252.25C396.71,252.07 394.33,251.9 392.01,251.73C389.67,251.55 387.24,251.38 384.94,251.2C382.75,251.03 380.56,250.85 378.53,250.67C376.68,250.5 374.89,250.34 373.25,250.15C371.81,249.98 370.45,249.81 369.2,249.62C368.13,249.46 367.13,249.29 366.21,249.1C365.41,248.94 364.68,248.76 364,248.57C363.4,248.41 362.85,248.24 362.33,248.05C361.87,247.88 361.45,247.7 361.05,247.52C360.68,247.35 360.34,247.18 360,247C359.67,246.83 359.37,246.65 359.05,246.47C358.73,246.29 358.41,246.11 358.09,245.94C357.76,245.76 357.42,245.59 357.09,245.42C356.75,245.24 356.41,245.07 356.08,244.89C355.77,244.72 355.45,244.55 355.17,244.37C354.91,244.2 354.65,244.03 354.43,243.84C354.23,243.67 354.06,243.5 353.91,243.32C353.78,243.15 353.67,242.97 353.58,242.79C353.5,242.62 353.45,242.45 353.4,242.27C353.36,242.1 353.33,241.92 353.31,241.74C353.29,241.56 353.28,241.39 353.27,241.21C353.26,241.04 353.26,240.86 353.26,240.69C353.26,240.51 353.25,240.34 353.25,240.16C353.25,239.99 353.25,239.81 353.25,239.64C353.25,239.46 353.25,239.29 353.25,239.11C353.25,238.94 353.25,238.76 353.25,238.59C353.25,238.41 353.25,238.24 353.25,238.06C353.25,237.89 353.25,237.71 353.25,237.54C353.25,237.36 353.25,237.19 353.25,237.01C353.25,236.83 353.25,236.66 353.25,236.48C353.25,236.31 353.25,236.13 353.25,235.96C353.25,235.78 353.25,235.61 353.25,235.43C353.25,235.26 353.25,235.08 353.25,234.91C353.25,234.73 353.25,234.56 353.25,234.38C353.25,234.21 353.25,234.03 353.25,233.86C353.25,233.68 353.25,233.51 353.25,233.33C353.25,233.16 353.25,232.98 353.25,232.81C353.25,232.63 353.25,232.46 353.25,232.28C353.25,232.1 353.25,231.93 353.25,231.75C353.25,231.58 353.25,231.4 353.25,231.23C353.25,231.05 353.25,230.88 353.25,230.7C353.25,230.53 353.25,230.35 353.25,230.18C353.25,230 353.25,229.83 353.25,229.65C353.25,229.48 353.25,229.3 353.25,229.13C353.25,228.95 353.25,228.78 353.25,228.6C353.25,228.43 353.25,228.25 353.25,228.08C353.25,227.9 353.25,227.73 353.25,227.55C353.25,227.37 353.25,227.2 353.25,227.02C353.25,226.85 353.25,226.67 353.25,226.5C353.25,226.32 353.25,226.15 353.25,225.97C353.25,225.8 353.25,225.62 353.25,225.45C353.25,225.27 353.25,225.1 353.25,224.92C353.25,224.75 353.25,224.57 353.25,224.4C353.25,224.22 353.25,224.05 353.25,223.87C353.25,223.7 353.25,223.52 353.25,223.35C353.25,223.17 353.25,223 353.25,222.82C353.25,222.64 353.25,222.47 353.25,222.29C353.25,222.12 353.25,221.94 353.25,221.77C353.25,221.59 353.25,221.42 353.25,221.24C353.25,221.07 353.25,220.89 353.25,220.72C353.25,220.54 353.25,220.37 353.25,220.19C353.25,220.02 353.25,219.84 353.25,219.67C353.25,219.49 353.25,219.32 353.25,219.14C353.25,218.97 353.25,218.79 353.25,218.62C353.25,218.44 353.25,218.27 353.25,218.09C353.25,217.91 353.25,217.74 353.25,217.56C353.25,217.39 353.25,217.21 353.25,217.04C353.25,216.86 353.25,216.69 353.25,216.51C353.25,216.34 353.25,216.16 353.25,215.99C353.25,215.81 353.25,215.64 353.25,215.46C353.25,215.29 353.25,215.11 353.25,214.94C353.25,214.76 353.25,214.59 353.25,214.41C353.25,214.24 353.25,214.06 353.25,213.89C353.25,213.71 353.25,213.54 353.25,213.36C353.25,213.18 353.25,213.01 353.25,212.83C353.25,212.66 353.25,212.48 353.25,212.31C353.25,212.13 353.25,211.96 353.25,211.78C353.25,211.61 353.25,211.43 353.25,211.26C353.25,211.08 353.25,210.91 353.25,210.73C353.25,210.56 353.25,210.38 353.25,210.21C353.25,210.03 353.25,209.86 353.25,209.68C353.25,209.51 353.25,209.33 353.25,209.16C353.25,208.98 353.25,208.81 353.25,208.63C353.25,208.45 353.25,208.28 353.25,208.1C353.25,207.93 353.25,207.75 353.25,207.58C353.25,207.4 353.25,207.23 353.25,207.05C353.25,206.88 353.25,206.7 353.25,206.53C353.25,206.35 353.25,206.18 353.25,206C353.25,205.83 353.25,205.65 353.25,205.48C353.25,205.3 353.25,205.13 353.25,204.95C353.25,204.78 353.25,204.6 353.25,204.43C353.25,204.25 353.25,204.08 353.25,203.9C353.25,203.72 353.25,203.55 353.25,203.37C353.25,203.2 353.25,203.02 353.25,202.85C353.25,202.67 353.25,202.5 353.25,202.32C353.25,202.15 353.25,201.97 353.25,201.8C353.25,201.62 353.25,201.45 353.25,201.27C353.25,201.1 353.25,200.92 353.25,200.75C353.25,200.57 353.25,200.4 353.25,200.22C353.25,200.05 353.25,199.87 353.25,199.7C353.25,199.52 353.25,199.35 353.25,199.17C353.25,198.99 353.25,198.82 353.25,198.64C353.25,198.47 353.25,198.29 353.25,198.12C353.25,197.94 353.25,197.77 353.25,197.59C353.25,197.42 353.25,197.24 353.25,197.07C353.25,196.89 353.25,196.72 353.25,196.54C353.25,196.37 353.25,196.19 353.25,196.02C353.25,195.84 353.25,195.67 353.25,195.49C353.25,195.32 353.25,195.14 353.25,194.97C353.25,194.79 353.25,194.62 353.25,194.44C353.25,194.26 353.25,194.09 353.25,193.91C353.25,193.74 353.25,193.56 353.25,193.39C353.25,193.21 353.25,193.04 353.25,192.86C353.25,192.69 353.25,192.51 353.25,192.34C353.25,192.16 353.25,191.99 353.25,191.81C353.25,191.64 353.25,191.46 353.25,191.29C353.25,191.11 353.25,190.94 353.25,190.76C353.25,190.59 353.25,190.41 353.25,190.24C353.25,190.06 353.25,189.89 353.25,189.71C353.25,189.53 353.25,189.36 353.25,189.18C353.25,189.01 353.25,188.83 353.25,188.66C353.25,188.48 353.25,188.31 353.25,188.13C353.25,187.96 353.25,187.78 353.25,187.61C353.25,187.43 353.25,187.26 353.25,187.08C353.25,186.91 353.25,186.73 353.25,186.56C353.25,186.38 353.25,186.21 353.25,186.03C353.25,185.86 353.25,185.68 353.25,185.51C353.25,185.33 353.25,185.16 353.25,184.98C353.25,184.8 353.25,184.63 353.25,184.45C353.25,184.28 353.25,184.1 353.25,183.93C353.25,183.75 353.25,183.58 353.25,183.4C353.25,183.23 353.25,183.05 353.25,182.88C353.25,182.7 353.25,182.53 353.25,182.35C353.25,182.18 353.25,182 353.25,181.83C353.25,181.65 353.25,181.48 353.25,181.3C353.25,181.13 353.25,180.95 353.25,180.78C353.25,180.6 353.25,180.43 353.25,180.25C353.25,180.07 353.25,179.9 353.25,179.72C353.25,179.55 353.25,179.37 353.25,179.2C353.25,179.02 353.25,178.85 353.25,178.67C353.25,178.5 353.25,178.32 353.25,178.15C353.25,177.97 353.25,177.8 353.25,177.62C353.25,177.45 353.25,177.27 353.25,177.1C353.25,176.92 353.25,176.75 353.25,176.57C353.25,176.4 353.25,176.22 353.25,176.05C353.25,175.87 353.25,175.7 353.25,175.52C353.25,175.34 353.25,175.17 353.25,174.99C353.25,174.82 353.25,174.64 353.25,174.47C353.25,174.29 353.25,174.12 353.25,173.94C353.25,173.77 353.25,173.59 353.25,173.42C353.25,173.24 353.25,173.07 353.25,172.89C353.25,172.72 353.25,172.54 353.25,172.37C353.25,172.19 353.25,172.02 353.25,171.84C353.25,171.67 353.25,171.49 353.25,171.32C353.25,171.14 353.25,170.97 353.25,170.79C353.25,170.61 353.25,170.44 353.25,170.26C353.25,170.09 353.25,169.91 353.25,169.74C353.25,169.56 353.25,169.39 353.25,169.21C353.25,169.04 353.25,168.86 353.25,168.69C353.25,168.51 353.25,168.34 353.25,168.16C353.25,167.99 353.25,167.81 353.25,167.64C353.25,167.46 353.25,167.29 353.25,167.11C353.25,166.94 353.25,166.76 353.25,166.59C353.25,166.41 353.25,166.24 353.25,166.06C353.25,165.88 353.25,165.71 353.25,165.53C353.25,165.36 353.25,165.18 353.25,165.01C353.25,164.83 353.25,164.66 353.25,164.48C353.25,164.31 353.25,164.13 353.25,163.96C353.25,163.78 353.25,163.61 353.25,163.43C353.25,163.26 353.25,163.08 353.25,162.91C353.25,162.73 353.25,162.56 353.25,162.38C353.25,162.21 353.25,162.03 353.25,161.86C353.25,161.68 353.25,161.51 353.25,161.33C353.25,161.15 353.25,160.98 353.25,160.8C353.25,160.63 353.25,160.45 353.25,160.28C353.25,160.1 353.25,159.93 353.25,159.75C353.25,159.58 353.25,159.4 353.25,159.23C353.25,159.05 353.25,158.88 353.25,158.7C353.25,158.53 353.25,158.35 353.25,158.18C353.25,158 353.25,157.83 353.25,157.65C353.25,157.48 353.25,157.3 353.25,157.13C353.25,156.95 353.25,156.78 353.25,156.6C353.25,156.42 353.25,156.25 353.25,156.07C353.25,155.9 353.25,155.72 353.25,155.55C353.25,155.37 353.25,155.2 353.25,155.02C353.25,154.85 353.25,154.67 353.25,154.5C353.25,154.32 353.25,154.15 353.25,153.97C353.25,153.8 353.25,153.62 353.25,153.45C353.25,153.27 353.25,153.1 353.25,152.92C353.25,152.75 353.25,152.57 353.25,152.4C353.25,152.22 353.25,152.05 353.25,151.87C353.25,151.69 353.25,151.52 353.25,151.34C353.25,151.17 353.25,150.99 353.25,150.82C353.25,150.64 353.25,150.47 353.25,150.29C353.25,150.12 353.25,149.94 353.25,149.77C353.25,149.59 353.25,149.42 353.25,149.24C353.25,149.07 353.25,148.89 353.25,148.72C353.25,148.54 353.25,148.37 353.25,148.19C353.25,148.02 353.25,147.84 353.25,147.67C353.25,147.49 353.25,147.32 353.25,147.14C353.25,146.96 353.25,146.79 353.25,146.61C353.25,146.44 353.25,146.26 353.25,146.09C353.25,145.91 353.25,145.74 353.25,145.56C353.25,145.39 353.25,145.21 353.25,145.04C353.25,144.86 353.25,144.69 353.25,144.51C353.25,144.34 353.25,144.16 353.25,143.99C353.25,143.81 353.25,143.64 353.25,143.46C353.25,143.29 353.25,143.11 353.25,142.94C353.25,142.76 353.25,142.59 353.25,142.41C353.25,142.23 353.25,142.06 353.25,141.88C353.25,141.71 353.25,141.53 353.25,141.36C353.25,141.18 353.25,141.01 353.25,140.83C353.25,140.66 353.25,140.48 353.25,140.31C353.25,140.13 353.25,139.96 353.25,139.78C353.25,139.61 353.25,139.43 353.25,139.26C353.25,139.08 353.25,138.91 353.25,138.73C353.25,138.56 353.25,138.38 353.25,138.21C353.25,138.03 353.25,137.86 353.25,137.68C353.25,137.5 353.25,137.33 353.25,137.15C353.25,136.98 353.25,136.8 353.25,136.63C353.25,136.45 353.25,136.28 353.25,136.1C353.25,135.93 353.25,135.75 353.25,135.58C353.25,135.4 353.25,135.23 353.25,135.05C353.25,134.88 353.25,134.7 353.25,134.53C353.25,134.35 353.25,134.18 353.25,134C353.25,133.83 353.25,133.65 353.25,133.48C353.25,133.3 353.25,133.13 353.25,132.95C353.25,132.77 353.25,132.6 353.25,132.42C353.25,132.25 353.25,132.07 353.25,131.9C353.25,131.72 353.25,131.55 353.25,131.37C353.25,131.2 353.25,131.02 353.25,130.85C353.25,130.67 353.25,130.5 353.25,130.32C353.25,130.15 353.25,129.97 353.25,129.8C353.25,129.62 353.25,129.45 353.25,129.27C353.25,129.1 353.25,128.92 353.25,128.75C353.25,128.57 353.25,128.4 353.25,128.22C353.25,128.04 353.25,127.87 353.25,127.69C353.25,127.52 353.25,127.34 353.25,127.17C353.25,126.99 353.25,126.82 353.25,126.64C353.25,126.47 353.25,126.29 353.25,126.12C353.25,125.94 353.25,125.77 353.25,125.59C353.25,125.42 353.25,125.24 353.25,125.07C353.25,124.89 353.25,124.72 353.25,124.54C353.25,124.37 353.25,124.19 353.25,124.02C353.25,123.84 353.25,123.67 353.25,123.49C353.25,123.31 353.25,123.14 353.25,122.96C353.25,122.79 353.25,122.61 353.25,122.44C353.25,122.26 353.25,122.09 353.25,121.91C353.25,121.74 353.25,121.56 353.25,121.39C353.25,121.21 353.25,121.04 353.25,120.86C353.25,120.69 353.25,120.51 353.25,120.34C353.25,120.16 353.25,119.99 353.25,119.81C353.25,119.64 353.25,119.46 353.25,119.29C353.25,119.11 353.25,118.94 353.25,118.76C353.25,118.58 353.25,118.41 353.25,118.23C353.25,118.06 353.25,117.88 353.25,117.71C353.25,117.53 353.25,117.36 353.25,117.18C353.25,117.01 353.25,116.83 353.25,116.66C353.25,116.48 353.25,116.31 353.25,116.13C353.25,115.96 353.25,115.78 353.25,115.61C353.25,115.43 353.25,115.26 353.25,115.08C353.25,114.91 353.25,114.73 353.25,114.56C353.25,114.38 353.25,114.21 353.25,114.03C353.25,113.85 353.25,113.68 353.25,113.5C353.25,113.33 353.25,113.15 353.25,112.98C353.25,112.8 353.25,112.63 353.25,112.45C353.25,112.28 353.26,112.1 353.26,111.93C353.26,111.75 353.26,111.58 353.27,111.4C353.28,111.23 353.28,111.05 353.3,110.88C353.32,110.7 353.33,110.52 353.37,110.35C353.41,110.17 353.46,110 353.53,109.83C353.61,109.65 353.7,109.47 353.82,109.3C353.95,109.12 354.11,108.94 354.29,108.77C354.49,108.59 354.72,108.42 354.96,108.25C355.21,108.07 355.49,107.9 355.76,107.72C356.03,107.55 356.32,107.38 356.56,107.2C356.78,107.03 357,106.86 357.14,106.67C357.25,106.51 357.36,106.32 357.36,106.15C357.36,105.97 357.25,105.78 357.13,105.62C356.99,105.43 356.75,105.27 356.53,105.1C356.29,104.92 356,104.75 355.73,104.57C355.46,104.39 355.18,104.22 354.93,104.04C354.7,103.87 354.46,103.7 354.27,103.52Q354.09,103.35 353.81,102.99L352.69,102.99Q352.41,103.35 352.23,103.52C352.04,103.7 351.8,103.87 351.57,104.04C351.32,104.22 351.04,104.39 350.77,104.57C350.5,104.75 350.21,104.92 349.97,105.1C349.75,105.27 349.51,105.43 349.37,105.62C349.25,105.78 349.14,105.97 349.14,106.15C349.14,106.32 349.25,106.51 349.36,106.67C349.5,106.86 349.72,107.03 349.94,107.2C350.18,107.38 350.47,107.55 350.74,107.72C351.01,107.9 351.29,108.07 351.54,108.25C351.78,108.42 352.01,108.59 352.21,108.77C352.39,108.94 352.55,109.12 352.68,109.3C352.8,109.47 352.89,109.65 352.97,109.83C353.04,110 353.09,110.17 353.13,110.35C353.17,110.52 353.18,110.7 353.2,110.88C353.22,111.05 353.22,111.23 353.23,111.4C353.24,111.58 353.24,111.75 353.24,111.93C353.24,112.1 353.25,112.28 353.25,112.45C353.25,112.63 353.25,112.8 353.25,112.98C353.25,113.15 353.25,113.33 353.25,113.5C353.25,113.68 353.25,113.85 353.25,114.03C353.25,114.21 353.25,114.38 353.25,114.56C353.25,114.73 353.25,114.91 353.25,115.08C353.25,115.26 353.25,115.43 353.25,115.61C353.25,115.78 353.25,115.96 353.25,116.13C353.25,116.31 353.25,116.48 353.25,116.66C353.25,116.83 353.25,117.01 353.25,117.18C353.25,117.36 353.25,117.53 353.25,117.71C353.25,117.88 353.25,118.06 353.25,118.23C353.25,118.41 353.25,118.58 353.25,118.76C353.25,118.94 353.25,119.11 353.25,119.29C353.25,119.46 353.25,119.64 353.25,119.81C353.25,119.99 353.25,120.16 353.25,120.34C353.25,120.51 353.25,120.69 353.25,120.86C353.25,121.04 353.25,121.21 353.25,121.39C353.25,121.56 353.25,121.74 353.25,121.91C353.25,122.09 353.25,122.26 353.25,122.44C353.25,122.61 353.25,122.79 353.25,122.96C353.25,123.14 353.25,123.31 353.25,123.49C353.25,123.67 353.25,123.84 353.25,124.02C353.25,124.19 353.25,124.37 353.25,124.54C353.25,124.72 353.25,124.89 353.25,125.07C353.25,125.24 353.25,125.42 353.25,125.59C353.25,125.77 353.25,125.94 353.25,126.12C353.25,126.29 353.25,126.47 353.25,126.64C353.25,126.82 353.25,126.99 353.25,127.17C353.25,127.34 353.25,127.52 353.25,127.69C353.25,127.87 353.25,128.04 353.25,128.22C353.25,128.4 353.25,128.57 353.25,128.75C353.25,128.92 353.25,129.1 353.25,129.27C353.25,129.45 353.25,129.62 353.25,129.8C353.25,129.97 353.25,130.15 353.25,130.32C353.25,130.5 353.25,130.67 353.25,130.85C353.25,131.02 353.25,131.2 353.25,131.37C353.25,131.55 353.25,131.72 353.25,131.9C353.25,132.07 353.25,132.25 353.25,132.42C353.25,132.6 353.25,132.77 353.25,132.95C353.25,133.13 353.25,133.3 353.25,133.48C353.25,133.65 353.25,133.83 353.25,134C353.25,134.18 353.25,134.35 353.25,134.53C353.25,134.7 353.25,134.88 353.25,135.05C353.25,135.23 353.25,135.4 353.25,135.58C353.25,135.75 353.25,135.93 353.25,136.1C353.25,136.28 353.25,136.45 353.25,136.63C353.25,136.8 353.25,136.98 353.25,137.15C353.25,137.33 353.25,137.5 353.25,137.68C353.25,137.86 353.25,138.03 353.25,138.21C353.25,138.38 353.25,138.56 353.25,138.73C353.25,138.91 353.25,139.08 353.25,139.26C353.25,139.43 353.25,139.61 353.25,139.78C353.25,139.96 353.25,140.13 353.25,140.31C353.25,140.48 353.25,140.66 353.25,140.83C353.25,141.01 353.25,141.18 353.25,141.36C353.25,141.53 353.25,141.71 353.25,141.88C353.25,142.06 353.25,142.23 353.25,142.41C353.25,142.59 353.25,142.76 353.25,142.94C353.25,143.11 353.25,143.29 353.25,143.46C353.25,143.64 353.25,143.81 353.25,143.99C353.25,144.16 353.25,144.34 353.25,144.51C353.25,144.69 353.25,144.86 353.25,145.04C353.25,145.21 353.25,145.39 353.25,145.56C353.25,145.74 353.25,145.91 353.25,146.09C353.25,146.26 353.25,146.44 353.25,146.61C353.25,146.79 353.25,146.96 353.25,147.14C353.25,147.32 353.25,147.49 353.25,147.67C353.25,147.84 353.25,148.02 353.25,148.19C353.25,148.37 353.25,148.54 353.25,148.72C353.25,148.89 353.25,149.07 353.25,149.24C353.25,149.42 353.25,149.59 353.25,149.77C353.25,149.94 353.25,150.12 353.25,150.29C353.25,150.47 353.25,150.64 353.25,150.82C353.25,150.99 353.25,151.17 353.25,151.34C353.25,151.52 353.25,151.69 353.25,151.87C353.25,152.05 353.25,152.22 353.25,152.4C353.25,152.57 353.25,152.75 353.25,152.92C353.25,153.1 353.25,153.27 353.25,153.45C353.25,153.62 353.25,153.8 353.25,153.97C353.25,154.15 353.25,154.32 353.25,154.5C353.25,154.67 353.25,154.85 353.25,155.02C353.25,155.2 353.25,155.37 353.25,155.55C353.25,155.72 353.25,155.9 353.25,156.07C353.25,156.25 353.25,156.42 353.25,156.6C353.25,156.78 353.25,156.95 353.25,157.13C353.25,157.3 353.25,157.48 353.25,157.65C353.25,157.83 353.25,158 353.25,158.18C353.25,158.35 353.25,158.53 353.25,158.7C353.25,158.88 353.25,159.05 353.25,159.23C353.25,159.4 353.25,159.58 353.25,159.75C353.25,159.93 353.25,160.1 353.25,160.28C353.25,160.45 353.25,160.63 353.25,160.8C353.25,160.98 353.25,161.15 353.25,161.33C353.25,161.51 353.25,161.68 353.25,161.86C353.25,162.03 353.25,162.21 353.25,162.38C353.25,162.56 353.25,162.73 353.25,162.91C353.25,163.08 353.25,163.26 353.25,163.43C353.25,163.61 353.25,163.78 353.25,163.96C353.25,164.13 353.25,164.31 353.25,164.48C353.25,164.66 353.25,164.83 353.25,165.01C353.25,165.18 353.25,165.36 353.25,165.53C353.25,165.71 353.25,165.88 353.25,166.06C353.25,166.24 353.25,166.41 353.25,166.59C353.25,166.76 353.25,166.94 353.25,167.11C353.25,167.29 353.25,167.46 353.25,167.64C353.25,167.81 353.25,167.99 353.25,168.16C353.25,168.34 353.25,168.51 353.25,168.69C353.25,168.86 353.25,169.04 353.25,169.21C353.25,169.39 353.25,169.56 353.25,169.74C353.25,169.91 353.25,170.09 353.25,170.26C353.25,170.44 353.25,170.61 353.25,170.79C353.25,170.97 353.25,171.14 353.25,171.32C353.25,171.49 353.25,171.67 353.25,171.84C353.25,172.02 353.25,172.19 353.25,172.37C353.25,172.54 353.25,172.72 353.25,172.89C353.25,173.07 353.25,173.24 353.25,173.42C353.25,173.59 353.25,173.77 353.25,173.94C353.25,174.12 353.25,174.29 353.25,174.47C353.25,174.64 353.25,174.82 353.25,174.99C353.25,175.17 353.25,175.34 353.25,175.52C353.25,175.7 353.25,175.87 353.25,176.05C353.25,176.22 353.25,176.4 353.25,176.57C353.25,176.75 353.25,176.92 353.25,177.1C353.25,177.27 353.25,177.45 353.25,177.62C353.25,177.8 353.25,177.97 353.25,178.15C353.25,178.32 353.25,178.5 353.25,178.67C353.25,178.85 353.25,179.02 353.25,179.2C353.25,179.37 353.25,179.55 353.25,179.72C353.25,179.9 353.25,180.07 353.25,180.25C353.25,180.43 353.25,180.6 353.25,180.78C353.25,180.95 353.25,181.13 353.25,181.3C353.25,181.48 353.25,181.65 353.25,181.83C353.25,182 353.25,182.18 353.25,182.35C353.25,182.53 353.25,182.7 353.25,182.88C353.25,183.05 353.25,183.23 353.25,183.4C353.25,183.58 353.25,183.75 353.25,183.93C353.25,184.1 353.25,184.28 353.25,184.45C353.25,184.63 353.25,184.8 353.25,184.98C353.25,185.16 353.25,185.33 353.25,185.51C353.25,185.68 353.25,185.86 353.25,186.03C353.25,186.21 353.25,186.38 353.25,186.56C353.25,186.73 353.25,186.91 353.25,187.08C353.25,187.26 353.25,187.43 353.25,187.61C353.25,187.78 353.25,187.96 353.25,188.13C353.25,188.31 353.25,188.48 353.25,188.66C353.25,188.83 353.25,189.01 353.25,189.18C353.25,189.36 353.25,189.53 353.25,189.71C353.25,189.89 353.25,190.06 353.25,190.24C353.25,190.41 353.25,190.59 353.25,190.76C353.25,190.94 353.25,191.11 353.25,191.29C353.25,191.46 353.25,191.64 353.25,191.81C353.25,191.99 353.25,192.16 353.25,192.34C353.25,192.51 353.25,192.69 353.25,192.86C353.25,193.04 353.25,193.21 353.25,193.39C353.25,193.56 353.25,193.74 353.25,193.91C353.25,194.09 353.25,194.26 353.25,194.44C353.25,194.62 353.25,194.79 353.25,194.97C353.25,195.14 353.25,195.32 353.25,195.49C353.25,195.67 353.25,195.84 353.25,196.02C353.25,196.19 353.25,196.37 353.25,196.54C353.25,196.72 353.25,196.89 353.25,197.07C353.25,197.24 353.25,197.42 353.25,197.59C353.25,197.77 353.25,197.94 353.25,198.12C353.25,198.29 353.25,198.47 353.25,198.64C353.25,198.82 353.25,198.99 353.25,199.17C353.25,199.35 353.25,199.52 353.25,199.7C353.25,199.87 353.25,200.05 353.25,200.22C353.25,200.4 353.25,200.57 353.25,200.75C353.25,200.92 353.25,201.1 353.25,201.27C353.25,201.45 353.25,201.62 353.25,201.8C353.25,201.97 353.25,202.15 353.25,202.32C353.25,202.5 353.25,202.67 353.25,202.85C353.25,203.02 353.25,203.2 353.25,203.37C353.25,203.55 353.25,203.72 353.25,203.9C353.25,204.08 353.25,204.25 353.25,204.43C353.25,204.6 353.25,204.78 353.25,204.95C353.25,205.13 353.25,205.3 353.25,205.48C353.25,205.65 353.25,205.83 353.25,206C353.25,206.18 353.25,206.35 353.25,206.53C353.25,206.7 353.25,206.88 353.25,207.05C353.25,207.23 353.25,207.4 353.25,207.58C353.25,207.75 353.25,207.93 353.25,208.1C353.25,208.28 353.25,208.45 353.25,208.63C353.25,208.81 353.25,208.98 353.25,209.16C353.25,209.33 353.25,209.51 353.25,209.68C353.25,209.86 353.25,210.03 353.25,210.21C353.25,210.38 353.25,210.56 353.25,210.73C353.25,210.91 353.25,211.08 353.25,211.26C353.25,211.43 353.25,211.61 353.25,211.78C353.25,211.96 353.25,212.13 353.25,212.31C353.25,212.48 353.25,212.66 353.25,212.83C353.25,213.01 353.25,213.18 353.25,213.36C353.25,213.54 353.25,213.71 353.25,213.89C353.25,214.06 353.25,214.24 353.25,214.41C353.25,214.59 353.25,214.76 353.25,214.94C353.25,215.11 353.25,215.29 353.25,215.46C353.25,215.64 353.25,215.81 353.25,215.99C353.25,216.16 353.25,216.34 353.25,216.51C353.25,216.69 353.25,216.86 353.25,217.04C353.25,217.21 353.25,217.39 353.25,217.56C353.25,217.74 353.25,217.91 353.25,218.09C353.25,218.27 353.25,218.44 353.25,218.62C353.25,218.79 353.25,218.97 353.25,219.14C353.25,219.32 353.25,219.49 353.25,219.67C353.25,219.84 353.25,220.02 353.25,220.19C353.25,220.37 353.25,220.54 353.25,220.72C353.25,220.89 353.25,221.07 353.25,221.24C353.25,221.42 353.25,221.59 353.25,221.77C353.25,221.94 353.25,222.12 353.25,222.29C353.25,222.47 353.25,222.64 353.25,222.82C353.25,223 353.25,223.17 353.25,223.35C353.25,223.52 353.25,223.7 353.25,223.87C353.25,224.05 353.25,224.22 353.25,224.4C353.25,224.57 353.25,224.75 353.25,224.92C353.25,225.1 353.25,225.27 353.25,225.45C353.25,225.62 353.25,225.8 353.25,225.97C353.25,226.15 353.25,226.32 353.25,226.5C353.25,226.67 353.25,226.85 353.25,227.02C353.25,227.2 353.25,227.37 353.25,227.55C353.25,227.73 353.25,227.9 353.25,228.08C353.25,228.25 353.25,228.43 353.25,228.6C353.25,228.78 353.25,228.95 353.25,229.13C353.25,229.3 353.25,229.48 353.25,229.65C353.25,229.83 353.25,230 353.25,230.18C353.25,230.35 353.25,230.53 353.25,230.7C353.25,230.88 353.25,231.05 353.25,231.23C353.25,231.4 353.25,231.58 353.25,231.75C353.25,231.93 353.25,232.1 353.25,232.28C353.25,232.46 353.25,232.63 353.25,232.81C353.25,232.98 353.25,233.16 353.25,233.33C353.25,233.51 353.25,233.68 353.25,233.86C353.25,234.03 353.25,234.21 353.25,234.38C353.25,234.56 353.25,234.73 353.25,234.91C353.25,235.08 353.25,235.26 353.25,235.43C353.25,235.61 353.25,235.78 353.25,235.96C353.25,236.13 353.25,236.31 353.25,236.48C353.25,236.66 353.25,236.83 353.25,237.01C353.25,237.19 353.25,237.36 353.25,237.54C353.25,237.71 353.25,237.89 353.25,238.06C353.25,238.24 353.25,238.41 353.25,238.59C353.25,238.76 353.25,238.94 353.25,239.11C353.25,239.29 353.25,239.46 353.25,239.64C353.25,239.81 353.25,239.99 353.25,240.16C353.25,240.34 353.24,240.51 353.24,240.69C353.24,240.86 353.24,241.04 353.23,241.21C353.22,241.39 353.21,241.56 353.19,241.74C353.17,241.92 353.14,242.1 353.1,242.27C353.05,242.45 353,242.62 352.92,242.79C352.83,242.97 352.72,243.15 352.59,243.32C352.44,243.5 352.27,243.67 352.07,243.84C351.85,244.03 351.59,244.2 351.33,244.37C351.05,244.55 350.73,244.72 350.42,244.89C350.09,245.07 349.75,245.24 349.41,245.42C349.08,245.59 348.74,245.76 348.41,245.94C348.09,246.11 347.77,246.29 347.45,246.47C347.13,246.65 346.83,246.83 346.5,247C346.16,247.18 345.82,247.35 345.45,247.52C345.05,247.7 344.63,247.88 344.17,248.05C343.65,248.24 343.1,248.41 342.5,248.57C341.82,248.76 341.09,248.94 340.29,249.1C339.37,249.29 338.37,249.46 337.3,249.62C336.05,249.81 334.69,249.98 333.25,250.15C331.61,250.34 329.82,250.5 327.97,250.67C325.94,250.85 323.75,251.03 321.56,251.2C319.26,251.38 316.83,251.55 314.49,251.73C312.17,251.9 309.79,252.07 307.58,252.25C305.55,252.42 303.49,252.59 301.73,252.78C300.27,252.94 298.77,253.07 297.73,253.3C297.04,253.45 296.07,253.62 296.04,253.83C296.02,253.98 296.45,254.2 296.82,254.35C297.49,254.62 298.75,254.72 299.9,254.88C301.37,255.08 303.14,255.23 304.92,255.4C306.93,255.59 309.15,255.76 311.36,255.93C313.7,256.11 316.17,256.29 318.59,256.46C321.04,256.64 323.57,256.8 326,256.98C328.36,257.15 330.74,257.33 332.99,257.51C335.09,257.68 337.16,257.84 339.08,258.03C340.8,258.2 342.47,258.37 343.98,258.56C345.28,258.72 346.52,258.88 347.61,259.08C348.51,259.24 349.35,259.41 350.06,259.61C350.62,259.77 351.14,259.93 351.55,260.13C351.86,260.29 352.15,260.46 352.33,260.66C352.48,260.82 352.59,261.01 352.63,261.19C352.67,261.36 352.63,261.54 352.59,261.71C352.54,261.89 352.45,262.07 352.35,262.24C352.25,262.42 352.11,262.59 351.98,262.76C351.85,262.94 351.71,263.11 351.59,263.29C351.48,263.46 351.37,263.63 351.3,263.81C351.24,263.98 351.2,264.16 351.2,264.34C351.2,264.51 351.25,264.69 351.31,264.86C351.38,265.04 351.5,265.22 351.61,265.39C351.73,265.57 351.88,265.74 352.01,265.92C352.14,266.09 352.29,266.26 352.41,266.44C352.53,266.61 352.65,266.79 352.74,266.97Q352.83,267.14 352.97,267.49Z" style="vector-effect: non-scaling-stroke; stroke-width: 2px; stroke: rgb(239, 85, 59); stroke-opacity: 1; fill: rgb(239, 85, 59); fill-opacity: 0.5;"/><g class="points"><path class="point" transform="translate(270.27,264.33)" d="M3,0A3,3 0 1,1 0,-3A3,3 0 0,1 3,0Z" style="opacity: 1; stroke-width: 0px; fill: rgb(239, 85, 59); fill-opacity: 1;"/><path class="point" transform="translate(263.68,257.58)" d="M3,0A3,3 0 1,1 0,-3A3,3 0 0,1 3,0Z" style="opacity: 1; stroke-width: 0px; fill: rgb(239, 85, 59); fill-opacity: 1;"/><path class="point" transform="translate(272.28,256.97)" d="M3,0A3,3 0 1,1 0,-3A3,3 0 0,1 3,0Z" style="opacity: 1; stroke-width: 0px; fill: rgb(239, 85, 59); fill-opacity: 1;"/><path class="point" transform="translate(261.94,256.64)" d="M3,0A3,3 0 1,1 0,-3A3,3 0 0,1 3,0Z" style="opacity: 1; stroke-width: 0px; fill: rgb(239, 85, 59); fill-opacity: 1;"/><path class="point" transform="translate(265.75,256.51)" d="M3,0A3,3 0 1,1 0,-3A3,3 0 0,1 3,0Z" style="opacity: 1; stroke-width: 0px; fill: rgb(239, 85, 59); fill-opacity: 1;"/><path class="point" transform="translate(271.21,256.51)" d="M3,0A3,3 0 1,1 0,-3A3,3 0 0,1 3,0Z" style="opacity: 1; stroke-width: 0px; fill: rgb(239, 85, 59); fill-opacity: 1;"/><path class="point" transform="translate(266.91,256.31)" d="M3,0A3,3 0 1,1 0,-3A3,3 0 0,1 3,0Z" style="opacity: 1; stroke-width: 0px; fill: rgb(239, 85, 59); fill-opacity: 1;"/><path class="point" transform="translate(272.28,255.97)" d="M3,0A3,3 0 1,1 0,-3A3,3 0 0,1 3,0Z" style="opacity: 1; stroke-width: 0px; fill: rgb(239, 85, 59); fill-opacity: 1;"/><path class="point" transform="translate(262.22,255.5)" d="M3,0A3,3 0 1,1 0,-3A3,3 0 0,1 3,0Z" style="opacity: 1; stroke-width: 0px; fill: rgb(239, 85, 59); fill-opacity: 1;"/><path class="point" transform="translate(255.2,255.44)" d="M3,0A3,3 0 1,1 0,-3A3,3 0 0,1 3,0Z" style="opacity: 1; stroke-width: 0px; fill: rgb(239, 85, 59); fill-opacity: 1;"/><path class="point" transform="translate(271.9,255.3)" d="M3,0A3,3 0 1,1 0,-3A3,3 0 0,1 3,0Z" style="opacity: 1; stroke-width: 0px; fill: rgb(239, 85, 59); fill-opacity: 1;"/><path class="point" transform="translate(261.83,255.3)" d="M3,0A3,3 0 1,1 0,-3A3,3 0 0,1 3,0Z" style="opacity: 1; stroke-width: 0px; fill: rgb(239, 85, 59); fill-opacity: 1;"/><path class="point" transform="translate(278.32,255.3)" d="M3,0A3,3 0 1,1 0,-3A3,3 0 0,1 3,0Z" style="opacity: 1; stroke-width: 0px; fill: rgb(239, 85, 59); fill-opacity: 1;"/><path class="point" transform="translate(250.73,254.9)" d="M3,0A3,3 0 1,1 0,-3A3,3 0 0,1 3,0Z" style="opacity: 1; stroke-width: 0px; fill: rgb(239, 85, 59); fill-opacity: 1;"/><path class="point" transform="translate(257.51,254.84)" d="M3,0A3,3 0 1,1 0,-3A3,3 0 0,1 3,0Z" style="opacity: 1; stroke-width: 0px; fill: rgb(239, 85, 59); fill-opacity: 1;"/><path class="point" transform="translate(282.62,254.84)" d="M3,0A3,3 0 1,1 0,-3A3,3 0 0,1 3,0Z" style="opacity: 1; stroke-width: 0px; fill: rgb(239, 85, 59); fill-opacity: 1;"/><path class="point" transform="translate(263.14,254.7)" d="M3,0A3,3 0 1,1 0,-3A3,3 0 0,1 3,0Z" style="opacity: 1; stroke-width: 0px; fill: rgb(239, 85, 59); fill-opacity: 1;"/><path class="point" transform="translate(252.71,254.57)" d="M3,0A3,3 0 1,1 0,-3A3,3 0 0,1 3,0Z" style="opacity: 1; stroke-width: 0px; fill: rgb(239, 85, 59); fill-opacity: 1;"/><path class="point" transform="translate(261.77,254.5)" d="M3,0A3,3 0 1,1 0,-3A3,3 0 0,1 3,0Z" style="opacity: 1; stroke-width: 0px; fill: rgb(239, 85, 59); fill-opacity: 1;"/><path class="point" transform="translate(267.07,254.3)" d="M3,0A3,3 0 1,1 0,-3A3,3 0 0,1 3,0Z" style="opacity: 1; stroke-width: 0px; fill: rgb(239, 85, 59); fill-opacity: 1;"/><path class="point" transform="translate(275.16,254.1)" d="M3,0A3,3 0 1,1 0,-3A3,3 0 0,1 3,0Z" style="opacity: 1; stroke-width: 0px; fill: rgb(239, 85, 59); fill-opacity: 1;"/><path class="point" transform="translate(269.35,254.03)" d="M3,0A3,3 0 1,1 0,-3A3,3 0 0,1 3,0Z" style="opacity: 1; stroke-width: 0px; fill: rgb(239, 85, 59); fill-opacity: 1;"/><path class="point" transform="translate(262.6,254.03)" d="M3,0A3,3 0 1,1 0,-3A3,3 0 0,1 3,0Z" style="opacity: 1; stroke-width: 0px; fill: rgb(239, 85, 59); fill-opacity: 1;"/><path class="point" transform="translate(253.09,253.9)" d="M3,0A3,3 0 1,1 0,-3A3,3 0 0,1 3,0Z" style="opacity: 1; stroke-width: 0px; fill: rgb(239, 85, 59); fill-opacity: 1;"/><path class="point" transform="translate(267.39,253.7)" d="M3,0A3,3 0 1,1 0,-3A3,3 0 0,1 3,0Z" style="opacity: 1; stroke-width: 0px; fill: rgb(239, 85, 59); fill-opacity: 1;"/><path class="point" transform="translate(262.42,253.43)" d="M3,0A3,3 0 1,1 0,-3A3,3 0 0,1 3,0Z" style="opacity: 1; stroke-width: 0px; fill: rgb(239, 85, 59); fill-opacity: 1;"/><path class="point" transform="translate(275.43,253.36)" d="M3,0A3,3 0 1,1 0,-3A3,3 0 0,1 3,0Z" style="opacity: 1; stroke-width: 0px; fill: rgb(239, 85, 59); fill-opacity: 1;"/><path class="point" transform="translate(265.92,253.23)" d="M3,0A3,3 0 1,1 0,-3A3,3 0 0,1 3,0Z" style="opacity: 1; stroke-width: 0px; fill: rgb(239, 85, 59); fill-opacity: 1;"/><path class="point" transform="translate(256.21,253.23)" d="M3,0A3,3 0 1,1 0,-3A3,3 0 0,1 3,0Z" style="opacity: 1; stroke-width: 0px; fill: rgb(239, 85, 59); fill-opacity: 1;"/><path class="point" transform="translate(251.43,253.03)" d="M3,0A3,3 0 1,1 0,-3A3,3 0 0,1 3,0Z" style="opacity: 1; stroke-width: 0px; fill: rgb(239, 85, 59); fill-opacity: 1;"/><path class="point" transform="translate(277.12,252.9)" d="M3,0A3,3 0 1,1 0,-3A3,3 0 0,1 3,0Z" style="opacity: 1; stroke-width: 0px; fill: rgb(239, 85, 59); fill-opacity: 1;"/><path class="point" transform="translate(252.78,252.9)" d="M3,0A3,3 0 1,1 0,-3A3,3 0 0,1 3,0Z" style="opacity: 1; stroke-width: 0px; fill: rgb(239, 85, 59); fill-opacity: 1;"/><path class="point" transform="translate(277.64,252.9)" d="M3,0A3,3 0 1,1 0,-3A3,3 0 0,1 3,0Z" style="opacity: 1; stroke-width: 0px; fill: rgb(239, 85, 59); fill-opacity: 1;"/><path class="point" transform="translate(271.19,252.76)" d="M3,0A3,3 0 1,1 0,-3A3,3 0 0,1 3,0Z" style="opacity: 1; stroke-width: 0px; fill: rgb(239, 85, 59); fill-opacity: 1;"/><path class="point" transform="translate(262.32,252.43)" d="M3,0A3,3 0 1,1 0,-3A3,3 0 0,1 3,0Z" style="opacity: 1; stroke-width: 0px; fill: rgb(239, 85, 59); fill-opacity: 1;"/><path class="point" transform="translate(257.28,252.3)" d="M3,0A3,3 0 1,1 0,-3A3,3 0 0,1 3,0Z" style="opacity: 1; stroke-width: 0px; fill: rgb(239, 85, 59); fill-opacity: 1;"/><path class="point" transform="translate(275.18,252.23)" d="M3,0A3,3 0 1,1 0,-3A3,3 0 0,1 3,0Z" style="opacity: 1; stroke-width: 0px; fill: rgb(239, 85, 59); fill-opacity: 1;"/><path class="point" transform="translate(266,252.09)" d="M3,0A3,3 0 1,1 0,-3A3,3 0 0,1 3,0Z" style="opacity: 1; stroke-width: 0px; fill: rgb(239, 85, 59); fill-opacity: 1;"/><path class="point" transform="translate(275.31,252.03)" d="M3,0A3,3 0 1,1 0,-3A3,3 0 0,1 3,0Z" style="opacity: 1; stroke-width: 0px; fill: rgb(239, 85, 59); fill-opacity: 1;"/><path class="point" transform="translate(257.51,251.96)" d="M3,0A3,3 0 1,1 0,-3A3,3 0 0,1 3,0Z" style="opacity: 1; stroke-width: 0px; fill: rgb(239, 85, 59); fill-opacity: 1;"/><path class="point" transform="translate(274.98,251.36)" d="M3,0A3,3 0 1,1 0,-3A3,3 0 0,1 3,0Z" style="opacity: 1; stroke-width: 0px; fill: rgb(239, 85, 59); fill-opacity: 1;"/><path class="point" transform="translate(266.69,251.36)" d="M3,0A3,3 0 1,1 0,-3A3,3 0 0,1 3,0Z" style="opacity: 1; stroke-width: 0px; fill: rgb(239, 85, 59); fill-opacity: 1;"/><path class="point" transform="translate(263.96,250.29)" d="M3,0A3,3 0 1,1 0,-3A3,3 0 0,1 3,0Z" style="opacity: 1; stroke-width: 0px; fill: rgb(239, 85, 59); fill-opacity: 1;"/><path class="point" transform="translate(265.68,249.22)" d="M3,0A3,3 0 1,1 0,-3A3,3 0 0,1 3,0Z" style="opacity: 1; stroke-width: 0px; fill: rgb(239, 85, 59); fill-opacity: 1;"/><path class="point" transform="translate(266.74,249.09)" d="M3,0A3,3 0 1,1 0,-3A3,3 0 0,1 3,0Z" style="opacity: 1; stroke-width: 0px; fill: rgb(239, 85, 59); fill-opacity: 1;"/><path class="point" transform="translate(268.57,248.95)" d="M3,0A3,3 0 1,1 0,-3A3,3 0 0,1 3,0Z" style="opacity: 1; stroke-width: 0px; fill: rgb(239, 85, 59); fill-opacity: 1;"/><path class="point" transform="translate(267.06,246.61)" d="M3,0A3,3 0 1,1 0,-3A3,3 0 0,1 3,0Z" style="opacity: 1; stroke-width: 0px; fill: rgb(239, 85, 59); fill-opacity: 1;"/><path class="point" transform="translate(266.27,246.14)" d="M3,0A3,3 0 1,1 0,-3A3,3 0 0,1 3,0Z" style="opacity: 1; stroke-width: 0px; fill: rgb(239, 85, 59); fill-opacity: 1;"/><path class="point" transform="translate(268.11,106.16)" d="M3,0A3,3 0 1,1 0,-3A3,3 0 0,1 3,0Z" style="opacity: 1; stroke-width: 0px; fill: rgb(239, 85, 59); fill-opacity: 1;"/><path class="point" transform="translate(266.75,106.16)" d="M3,0A3,3 0 1,1 0,-3A3,3 0 0,1 3,0Z" style="opacity: 1; stroke-width: 0px; fill: rgb(239, 85, 59); fill-opacity: 1;"/></g></g></g></g><g class="overplot"/><path class="xlines-above crisp" d="" style="fill: none; stroke-width: 1px; stroke: rgb(0, 0, 0); stroke-opacity: 0;"/><path class="ylines-above crisp" d="" style="fill: none; stroke-width: 1px; stroke: rgb(0, 0, 0); stroke-opacity: 0;"/><g class="overlines-above"/><g class="xaxislayer-above"><path class="xtick ticks crisp" d="M0,421v5" transform="translate(199.75,0)" style="stroke: rgb(51, 51, 51); stroke-opacity: 1; stroke-width: 1px;"/><path class="xtick ticks crisp" d="M0,421v5" transform="translate(433.25,0)" style="stroke: rgb(51, 51, 51); stroke-opacity: 1; stroke-width: 1px;"/><g class="xtick"><text text-anchor="middle" x="0" y="440.4" transform="translate(199.75,0)" style="font-family: 'Open Sans', verdana, arial, sans-serif; font-size: 12px; fill: rgb(51, 51, 51); fill-opacity: 1; white-space: pre; opacity: 1;">s_eff_cnn_id</text></g><g class="xtick"><text text-anchor="middle" x="0" y="440.4" transform="translate(433.25,0)" style="font-family: 'Open Sans', verdana, arial, sans-serif; font-size: 12px; fill: rgb(51, 51, 51); fill-opacity: 1; white-space: pre; opacity: 1;">s_eff_cnn_hw</text></g></g><g class="yaxislayer-above"><path class="ytick ticks crisp" d="M79,0h-5" transform="translate(0,400.09)" style="stroke: rgb(51, 51, 51); stroke-opacity: 1; stroke-width: 1px;"/><path class="ytick ticks crisp" d="M79,0h-5" transform="translate(0,333.24)" style="stroke: rgb(51, 51, 51); stroke-opacity: 1; stroke-width: 1px;"/><path class="ytick ticks crisp" d="M79,0h-5" transform="translate(0,266.39)" style="stroke: rgb(51, 51, 51); stroke-opacity: 1; stroke-width: 1px;"/><path class="ytick ticks crisp" d="M79,0h-5" transform="translate(0,199.54000000000002)" style="stroke: rgb(51, 51, 51); stroke-opacity: 1; stroke-width: 1px;"/><path class="ytick ticks crisp" d="M79,0h-5" transform="translate(0,132.69)" style="stroke: rgb(51, 51, 51); stroke-opacity: 1; stroke-width: 1px;"/><g class="ytick"><text text-anchor="end" x="71.6" y="4.199999999999999" transform="translate(0,400.09)" style="font-family: 'Open Sans', verdana, arial, sans-serif; font-size: 12px; fill: rgb(51, 51, 51); fill-opacity: 1; white-space: pre; opacity: 1;">0</text></g><g class="ytick"><text text-anchor="end" x="71.6" y="4.199999999999999" style="font-family: 'Open Sans', verdana, arial, sans-serif; font-size: 12px; fill: rgb(51, 51, 51); fill-opacity: 1; white-space: pre; opacity: 1;" transform="translate(0,333.24)">50</text></g><g class="ytick"><text text-anchor="end" x="71.6" y="4.199999999999999" style="font-family: 'Open Sans', verdana, arial, sans-serif; font-size: 12px; fill: rgb(51, 51, 51); fill-opacity: 1; white-space: pre; opacity: 1;" transform="translate(0,266.39)">100</text></g><g class="ytick"><text text-anchor="end" x="71.6" y="4.199999999999999" style="font-family: 'Open Sans', verdana, arial, sans-serif; font-size: 12px; fill: rgb(51, 51, 51); fill-opacity: 1; white-space: pre; opacity: 1;" transform="translate(0,199.54000000000002)">150</text></g><g class="ytick"><text text-anchor="end" x="71.6" y="4.199999999999999" style="font-family: 'Open Sans', verdana, arial, sans-serif; font-size: 12px; fill: rgb(51, 51, 51); fill-opacity: 1; white-space: pre; opacity: 1;" transform="translate(0,132.69)">200</text></g></g><g class="overaxes-above"/></g></g><g class="polarlayer"/><g class="ternarylayer"/><g class="geolayer"/><g class="funnelarealayer"/><g class="pielayer"/><g class="iciclelayer"/><g class="treemaplayer"/><g class="sunburstlayer"/><g class="glimages"/><defs id="topdefs-8d3a02"><g class="clips"/><clipPath id="legend8d3a02"><rect width="129" height="67" x="0" y="0"/></clipPath></defs><g class="layer-above"><g class="imagelayer"/><g class="shapelayer"/></g><g class="infolayer"><g class="legend" pointer-events="all" transform="translate(559.4000000000001,100)"><rect class="bg" shape-rendering="crispEdges" width="129" height="67" x="0" y="0" style="stroke: rgb(68, 68, 68); stroke-opacity: 1; fill: rgb(255, 255, 255); fill-opacity: 1; stroke-width: 0px;"/><g class="scrollbox" transform="" clip-path="url(#legend8d3a02)"><text class="legendtitletext" text-anchor="start" x="2" y="18.2" style="font-family: 'Open Sans', verdana, arial, sans-serif; font-size: 14px; fill: rgb(51, 51, 51); fill-opacity: 1; white-space: pre;">model</text><g class="groups" transform=""><g class="traces" transform="translate(0,32.7)" style="opacity: 1;"><text class="legendtext" text-anchor="start" x="40" y="4.680000000000001" style="font-family: 'Open Sans', verdana, arial, sans-serif; font-size: 12px; fill: rgb(51, 51, 51); fill-opacity: 1; white-space: pre;">s_eff_cnn_id</text><g class="layers" style="opacity: 1;"><g class="legendfill"/><g class="legendlines"/><g class="legendsymbols"><g class="legendpoints"><path class="legendbox" d="M6,6H-6V-6H6Z" transform="translate(20,0)" style="stroke-width: 2px; fill: rgb(99, 110, 250); fill-opacity: 0.5; stroke: rgb(99, 110, 250); stroke-opacity: 1;"/></g></g></g><rect class="legendtoggle" x="0" y="-9.5" width="123.703125" height="19" style="fill: rgb(0, 0, 0); fill-opacity: 0;"/></g></g><g class="groups" transform=""><g class="traces" transform="translate(0,51.7)" style="opacity: 1;"><text class="legendtext" text-anchor="start" x="40" y="4.680000000000001" style="font-family: 'Open Sans', verdana, arial, sans-serif; font-size: 12px; fill: rgb(51, 51, 51); fill-opacity: 1; white-space: pre;">s_eff_cnn_hw</text><g class="layers" style="opacity: 1;"><g class="legendfill"/><g class="legendlines"/><g class="legendsymbols"><g class="legendpoints"><path class="legendbox" d="M6,6H-6V-6H6Z" transform="translate(20,0)" style="stroke-width: 2px; fill: rgb(239, 85, 59); fill-opacity: 0.5; stroke: rgb(239, 85, 59); stroke-opacity: 1;"/></g></g></g><rect class="legendtoggle" x="0" y="-9.5" width="123.703125" height="19" style="fill: rgb(0, 0, 0); fill-opacity: 0;"/></g></g></g><rect class="scrollbar" rx="20" ry="3" width="0" height="0" x="0" y="0" style="fill: rgb(128, 139, 164); fill-opacity: 1;"/></g><g class="g-gtitle"><text class="gtitle" x="350" y="50" text-anchor="middle" dy="0em" style="font-family: 'Open Sans', verdana, arial, sans-serif; font-size: 17px; fill: rgb(51, 51, 51); opacity: 1; font-weight: normal; white-space: pre;">Distribution of average ranks over 50 experiments (with 170 traces)</text></g><g class="g-xtitle"><text class="xtitle" x="315" y="468.20625" text-anchor="middle" style="font-family: 'Open Sans', verdana, arial, sans-serif; font-size: 14px; fill: rgb(51, 51, 51); opacity: 1; font-weight: normal; white-space: pre;">model</text></g><g class="g-ytitle"><text class="ytitle" transform="rotate(-90,23.903125000000003,260)" x="23.903125000000003" y="260" text-anchor="middle" style="font-family: 'Open Sans', verdana, arial, sans-serif; font-size: 14px; fill: rgb(51, 51, 51); opacity: 1; font-weight: normal; white-space: pre;">Average Ranks</text></g><g class="annotation" data-index="0" style="opacity: 1;"><g class="annotation-text-g" transform="rotate(0,199.75,133)"><g class="cursor-pointer" transform="translate(157,100)"><rect class="bg" x="0.5" y="0.5" width="85" height="65" style="stroke-width: 1px; stroke: rgb(0, 0, 0); stroke-opacity: 1; fill: rgb(211, 211, 211); fill-opacity: 1;"/><text class="annotation-text" text-anchor="middle" x="42.65625" y="-1.59375" style="font-family: 'Open Sans', verdana, arial, sans-serif; font-size: 12px; fill: rgb(51, 51, 51); fill-opacity: 1; white-space: pre;"><tspan class="line" dy="0em" x="42.65625" y="-1.59375"></tspan><tspan class="line" dy="1.3em" x="42.65625" y="-1.59375">min: 0.15</tspan><tspan class="line" dy="2.6em" x="42.65625" y="-1.59375">max: 153.70</tspan><tspan class="line" dy="3.9000000000000004em" x="42.65625" y="-1.59375">median: 0.88</tspan><tspan class="line" dy="5.2em" x="42.65625" y="-1.59375">mean: 11.86</tspan></text></g></g></g><g class="annotation" data-index="1" style="opacity: 1;"><g class="annotation-text-g" transform="rotate(0,433.25,133)"><g class="cursor-pointer" transform="translate(387,100)"><rect class="bg" x="0.5" y="0.5" width="92" height="65" style="stroke-width: 1px; stroke: rgb(0, 0, 0); stroke-opacity: 1; fill: rgb(211, 211, 211); fill-opacity: 1;"/><text class="annotation-text" text-anchor="middle" x="46.484375" y="-1.59375" style="font-family: 'Open Sans', verdana, arial, sans-serif; font-size: 12px; fill: rgb(51, 51, 51); fill-opacity: 1; white-space: pre;"><tspan class="line" dy="0em" x="46.484375" y="-1.59375"></tspan><tspan class="line" dy="1.3em" x="46.484375" y="-1.59375">min: 26.75</tspan><tspan class="line" dy="2.6em" x="46.484375" y="-1.59375">max: 145.05</tspan><tspan class="line" dy="3.9000000000000004em" x="46.484375" y="-1.59375">median: 34.80</tspan><tspan class="line" dy="5.2em" x="46.484375" y="-1.59375">mean: 39.17</tspan></text></g></g></g></g></svg>