<svg class="main-svg" xmlns="http://www.w3.org/2000/svg" xmlns:xlink="http://www.w3.org/1999/xlink" width="700" height="500" style="" viewBox="0 0 700 500"><rect x="0" y="0" width="700" height="500" style="fill: rgb(255, 255, 255); fill-opacity: 1;"/><defs id="defs-5c595a"><g class="clips"><clipPath id="clip5c595axyplot" class="plotclip"><rect width="540" height="320"/></clipPath><clipPath class="axesclip" id="clip5c595ax"><rect x="80" y="0" width="540" height="500"/></clipPath><clipPath class="axesclip" id="clip5c595ay"><rect x="0" y="100" width="700" height="320"/></clipPath><clipPath class="axesclip" id="clip5c595axy"><rect x="80" y="100" width="540" height="320"/></clipPath></g><g class="gradients"/><g class="patterns"/></defs><g class="bglayer"><rect class="bg" x="80" y="100" width="540" height="320" style="fill: rgb(237, 237, 237); fill-opacity: 1; stroke-width: 0;"/></g><g class="layer-below"><g class="imagelayer"/><g class="shapelayer"/></g><g class="cartesianlayer"><g class="subplot xy"><g class="layer-subplot"><g class="shapelayer"/><g class="imagelayer"/></g><g class="gridlayer"><g class="x"><path class="xgrid crisp" transform="translate(189.09,0)" d="M0,100v320" style="stroke: rgb(255, 255, 255); stroke-opacity: 1; stroke-width: 1px;"/><path class="xgrid crisp" transform="translate(298.18,0)" d="M0,100v320" style="stroke: rgb(255, 255, 255); stroke-opacity: 1; stroke-width: 1px;"/><path class="xgrid crisp" transform="translate(407.27,0)" d="M0,100v320" style="stroke: rgb(255, 255, 255); stroke-opacity: 1; stroke-width: 1px;"/><path class="xgrid crisp" transform="translate(516.36,0)" d="M0,100v320" style="stroke: rgb(255, 255, 255); stroke-opacity: 1; stroke-width: 1px;"/></g><g class="y"><path class="ygrid crisp" transform="translate(0,329.85)" d="M80,0h540" style="stroke: rgb(255, 255, 255); stroke-opacity: 1; stroke-width: 1px;"/><path class="ygrid crisp" transform="translate(0,255.69)" d="M80,0h540" style="stroke: rgb(255, 255, 255); stroke-opacity: 1; stroke-width: 1px;"/><path class="ygrid crisp" transform="translate(0,181.53)" d="M80,0h540" style="stroke: rgb(255, 255, 255); stroke-opacity: 1; stroke-width: 1px;"/><path class="ygrid crisp" transform="translate(0,107.37)" d="M80,0h540" style="stroke: rgb(255, 255, 255); stroke-opacity: 1; stroke-width: 1px;"/></g></g><g class="zerolinelayer"><path class="xzl zl crisp" transform="translate(80,0)" d="M0,100v320" style="stroke: rgb(255, 255, 255); stroke-opacity: 1; stroke-width: 1px;"/><path class="yzl zl crisp" transform="translate(0,404.01)" d="M80,0h540" style="stroke: rgb(255, 255, 255); stroke-opacity: 1; stroke-width: 1px;"/></g><path class="xlines-below"/><path class="ylines-below"/><g class="overlines-below"/><g class="xaxislayer-below"/><g class="yaxislayer-below"/><g class="overaxes-below"/><g class="plot" transform="translate(80,100)" clip-path="url(#clip5c595axyplot)"><g class="scatterlayer mlayer"><g class="trace scatter trace4ebb79" style="stroke-miterlimit: 2; opacity: 1;"><g class="fills"/><g class="errorbars"/><g class="lines"><path class="js-line" d="M0,303.99L27.27,303.99L32.73,301.7L38.18,303.69L43.64,303.51L60,303.92L65.45,302.63L81.82,303.98L87.27,299.58L92.73,303.83L98.18,303.99L381.82,303.96L387.27,303.99L540,303.65" style="vector-effect: non-scaling-stroke; fill: none; stroke: rgb(248, 118, 109); stroke-opacity: 1; stroke-width: 2px; opacity: 1;"/></g><g class="points"/><g class="text"/></g><g class="trace scatter traceafdad0" style="stroke-miterlimit: 2; opacity: 1;"><g class="fills"/><g class="errorbars"/><g class="lines"><path class="js-line" d="M0,303.99L54.55,303.98L60,303.04L65.45,303.93L70.91,303.65L81.82,303.98L87.27,303.52L98.18,303.97L103.64,303.47L114.55,303.98L120,303.83L147.27,303.96L152.73,303.98L234.55,303.92L240,302.43L245.45,303.84L250.91,303.96L256.36,303.02L261.82,294.57L267.27,303.98L272.73,303.68L289.09,303.97L294.55,303.94L398.18,303.97L403.64,303.98L540,303.94" style="vector-effect: non-scaling-stroke; fill: none; stroke: rgb(163, 165, 0); stroke-opacity: 1; stroke-width: 2px; opacity: 1;"/></g><g class="points"/><g class="text"/></g><g class="trace scatter trace182b09" style="stroke-miterlimit: 2; opacity: 1;"><g class="fills"/><g class="errorbars"/><g class="lines"><path class="js-line" d="M0,303.99L130.91,303.97L136.36,303.05L141.82,303.99L147.27,303.99L376.36,303.92L381.82,301.09L387.27,303.78L392.73,303.93L420,303.99L425.45,303.06L430.91,303.9L436.36,303.97L518.18,303.96L523.64,303.98L529.09,303.5L534.55,275.53L540,303.41" style="vector-effect: non-scaling-stroke; fill: none; stroke: rgb(0, 191, 125); stroke-opacity: 1; stroke-width: 2px; opacity: 1;"/></g><g class="points"/><g class="text"/></g><g class="trace scatter trace19437e" style="stroke-miterlimit: 2; opacity: 1;"><g class="fills"/><g class="errorbars"/><g class="lines"><path class="js-line" d="M0,303.99L267.27,303.95L272.73,302.47L278.18,303.91L283.64,304L392.73,304L398.18,304L485.45,304L490.91,303.23L496.36,303.99L501.82,303.89L540,304" style="vector-effect: non-scaling-stroke; fill: none; stroke: rgb(0, 176, 246); stroke-opacity: 1; stroke-width: 2px; opacity: 1;"/></g><g class="points"/><g class="text"/></g><g class="trace scatter trace8ffe2c" style="stroke-miterlimit: 2; opacity: 1;"><g class="fills"/><g class="errorbars"/><g class="lines"><path class="js-line" d="M0,303.99L310.91,303.98L316.36,296.86L321.82,303.77L327.27,303.93L343.64,303.48L349.09,303.93L354.55,303.97L360,302.79L365.45,295.91L370.91,302.75L376.36,303.69L381.82,303.69L392.73,304L398.18,298.57L403.64,302.92L409.09,303.74L425.45,303.97L430.91,303.98L436.36,295.44L441.82,303.95L469.09,303.96L474.55,301.84L480,303.96L485.45,303.95L507.27,303.99L512.73,301.62L518.18,303.91L523.64,303.99L534.55,303.97L540,302.71" style="vector-effect: non-scaling-stroke; fill: none; stroke: rgb(231, 107, 243); stroke-opacity: 1; stroke-width: 2px; opacity: 1;"/></g><g class="points"/><g class="text"/></g><g class="trace scatter trace2d434a" style="stroke-miterlimit: 2; opacity: 1;"><g class="fills"/><g class="errorbars"/><g class="lines"><path class="js-line" d="M0,303.99L38.18,303.8L43.64,301.54L49.09,303.18L54.55,303.8L81.82,303.98L87.27,303.74L103.64,303.96L109.09,303.89L174.55,303.99L180,303.99L310.91,303.99L316.36,303.99L414.55,303.99L420,304L540,303.99" style="vector-effect: non-scaling-stroke; fill: none; stroke: rgb(248, 118, 109); stroke-opacity: 1; stroke-width: 2px; opacity: 1;"/></g><g class="points"/><g class="text"/></g><g class="trace scatter trace5dd146" style="stroke-miterlimit: 2; opacity: 1;"><g class="fills"/><g class="errorbars"/><g class="lines"><path class="js-line" d="M0,303.99L158.18,303.99L163.64,303.02L169.09,303.99L174.55,303.99L294.55,304L300,301.97L305.45,304L310.91,303.93L381.82,303.99L387.27,302.85L392.73,304L398.18,303.99L458.18,303.99L463.64,302.59L469.09,303.49L474.55,303.53L485.45,303.93L490.91,302.84L496.36,303.95L501.82,303.84L507.27,303.9L512.73,302.37L518.18,303.92L523.64,303.81L540,303.94" style="vector-effect: non-scaling-stroke; fill: none; stroke: rgb(163, 165, 0); stroke-opacity: 1; stroke-width: 2px; opacity: 1;"/></g><g class="points"/><g class="text"/></g><g class="trace scatter traceda51ab" style="stroke-miterlimit: 2; opacity: 1;"><g class="fills"/><g class="errorbars"/><g class="lines"><path class="js-line" d="M0,303.99L283.64,304L289.09,300.65L294.55,304L300,303.66L316.36,303.97L321.82,304L447.27,304L452.73,71.1L458.18,301.77L463.64,304L469.09,304L474.55,301.92L480,301.25L485.45,247.47L490.91,298.63L496.36,304L507.27,304L512.73,296.25L523.64,304L529.09,303.99L540,304" style="vector-effect: non-scaling-stroke; fill: none; stroke: rgb(0, 191, 125); stroke-opacity: 1; stroke-width: 2px; opacity: 1;"/></g><g class="points"/><g class="text"/></g><g class="trace scatter trace75ed09" style="stroke-miterlimit: 2; opacity: 1;"><g class="fills"/><g class="errorbars"/><g class="lines"><path class="js-line" d="M0,303.99L49.09,303.99L54.55,302.85L60,303.85L65.45,303.98L114.55,303.96L120,302.65L125.45,303.9L130.91,303.99L180,303.9L185.45,302.72L190.91,303.94L196.36,303.95L327.27,303.94L332.73,302.73L338.18,303.99L343.64,302.36L349.09,303.99L354.55,303.79L370.91,303.98L376.36,303.5L447.27,303.85L452.73,303.71L490.91,303.98L496.36,301.3L501.82,301.42L507.27,303.92L540,303.98" style="vector-effect: non-scaling-stroke; fill: none; stroke: rgb(0, 176, 246); stroke-opacity: 1; stroke-width: 2px; opacity: 1;"/></g><g class="points"/><g class="text"/></g><g class="trace scatter trace6a00ac" style="stroke-miterlimit: 2; opacity: 1;"><g class="fills"/><g class="errorbars"/><g class="lines"><path class="js-line" d="M0,303.99L38.18,303.99L43.64,303.05L49.09,303.9L54.55,303.95L147.27,303.99L152.73,301.07L158.18,303.99L163.64,303.98L512.73,304L518.18,303.88L540,303.98" style="vector-effect: non-scaling-stroke; fill: none; stroke: rgb(231, 107, 243); stroke-opacity: 1; stroke-width: 2px; opacity: 1;"/></g><g class="points"/><g class="text"/></g><g class="trace scatter traceb353bf" style="stroke-miterlimit: 2; opacity: 1;"><g class="fills"/><g class="errorbars"/><g class="lines"><path class="js-line" d="M0,303.99L49.09,303.99L54.55,302.74L60,302.91L65.45,303.92L76.36,303.99L81.82,302.3L98.18,303.96L103.64,303.92L163.64,303.97L169.09,303.94L256.36,303.9L261.82,303.29L272.73,303.98L278.18,303.96L305.45,303.96L310.91,301.1L316.36,303.7L321.82,303.98L327.27,301.1L332.73,303.08L338.18,303.91L343.64,302.06L349.09,297.46L354.55,303.99L370.91,299.79L376.36,296.88L381.82,303.95L387.27,303.85L392.73,301.95L398.18,302.66L403.64,299.99L409.09,303.96L414.55,303.64L420,294.37L425.45,303.61L430.91,303.82L441.82,303.94L447.27,301.02L452.73,303L458.18,303.92L463.64,298.48L469.09,280.75L474.55,303.68L480,303.71L485.45,303.91L490.91,302.16L496.36,303.92L501.82,303.92L507.27,303.77L512.73,301.91L518.18,303.18L523.64,299.09L529.09,303.86L534.55,301.19L540,300.27" style="vector-effect: non-scaling-stroke; fill: none; stroke: rgb(248, 118, 109); stroke-opacity: 1; stroke-width: 2px; opacity: 1;"/></g><g class="points"/><g class="text"/></g><g class="trace scatter trace5aae6e" style="stroke-miterlimit: 2; opacity: 1;"><g class="fills"/><g class="errorbars"/><g class="lines"><path class="js-line" d="M0,303.99L16.36,303.99L21.82,303.19L27.27,303.95L32.73,303.78L49.09,303.99L54.55,302.77L60,303.91L65.45,303.85L92.73,303.99L98.18,303.68L114.55,303.99L120,303.99L496.36,303.74L501.82,301.33L507.27,303.95L512.73,303.95L540,303.99" style="vector-effect: non-scaling-stroke; fill: none; stroke: rgb(163, 165, 0); stroke-opacity: 1; stroke-width: 2px; opacity: 1;"/></g><g class="points"/><g class="text"/></g><g class="trace scatter trace3e2553" style="stroke-miterlimit: 2; opacity: 1;"><g class="fills"/><g class="errorbars"/><g class="lines"><path class="js-line" d="M0,303.99L65.45,303.99L70.91,300.59L76.36,303.81L81.82,303.99L540,304" style="vector-effect: non-scaling-stroke; fill: none; stroke: rgb(0, 191, 125); stroke-opacity: 1; stroke-width: 2px; opacity: 1;"/></g><g class="points"/><g class="text"/></g><g class="trace scatter trace51b6f1" style="stroke-miterlimit: 2; opacity: 1;"><g class="fills"/><g class="errorbars"/><g class="lines"><path class="js-line" d="M0,303.99L70.91,303.99L76.36,301.93L81.82,301.67L87.27,303.96L136.36,303.96L141.82,303.33L147.27,301.99L152.73,303.96L256.36,303.84L261.82,303.92L278.18,303.9L283.64,300.52L289.09,303.6L294.55,303.05L300,303.87L305.45,303.26L316.36,303.91L321.82,303.44L332.73,303.92L338.18,303.81L354.55,303.91L360,303.6L370.91,303.62L376.36,303.92L392.73,303.55L398.18,303.94L430.91,303.8L436.36,303.99L540,303.87" style="vector-effect: non-scaling-stroke; fill: none; stroke: rgb(0, 176, 246); stroke-opacity: 1; stroke-width: 2px; opacity: 1;"/></g><g class="points"/><g class="text"/></g><g class="trace scatter tracef1c72e" style="stroke-miterlimit: 2; opacity: 1;"><g class="fills"/><g class="errorbars"/><g class="lines"><path class="js-line" d="M0,303.99L54.55,303.99L60,300.61L70.91,303.58L76.36,303.99L98.18,303.99L103.64,303.15L109.09,303.99L114.55,303.99L196.36,303.78L201.82,303.01L207.27,295.36L212.73,303.98L223.64,303.99L229.09,303.99L294.55,303.62L300,303.98L507.27,304L512.73,304L540,304" style="vector-effect: non-scaling-stroke; fill: none; stroke: rgb(231, 107, 243); stroke-opacity: 1; stroke-width: 2px; opacity: 1;"/></g><g class="points"/><g class="text"/></g><g class="trace scatter trace369044" style="stroke-miterlimit: 2; opacity: 1;"><g class="fills"/><g class="errorbars"/><g class="lines"><path class="js-line" d="M0,303.99L125.45,303.55L130.91,302.33L136.36,303.85L141.82,303.98L147.27,303.98L152.73,302.43L158.18,303.99L163.64,303.99L256.36,303.87L261.82,302.26L267.27,303.99L272.73,303.96L409.09,303.98L414.55,303.99L540,303.87" style="vector-effect: non-scaling-stroke; fill: none; stroke: rgb(248, 118, 109); stroke-opacity: 1; stroke-width: 2px; opacity: 1;"/></g><g class="points"/><g class="text"/></g><g class="trace scatter trace724b4c" style="stroke-miterlimit: 2; opacity: 1;"><g class="fills"/><g class="errorbars"/><g class="lines"><path class="js-line" d="M0,303.99L32.73,303.99L38.18,303.2L43.64,303.99L49.09,303.96L163.64,303.99L169.09,301.22L180,303.99L185.45,303.96L310.91,303.97L316.36,303.9L365.45,303.98L370.91,302L376.36,303.83L381.82,301.43L387.27,303.88L392.73,303.96L463.64,303.99L469.09,302.93L474.55,300.32L480,242.23L485.45,303.06L490.91,303.98L496.36,302.2L501.82,303.71L529.09,303.99L534.55,303.99L540,299.77" style="vector-effect: non-scaling-stroke; fill: none; stroke: rgb(163, 165, 0); stroke-opacity: 1; stroke-width: 2px; opacity: 1;"/></g><g class="points"/><g class="text"/></g><g class="trace scatter tracef0b6c5" style="stroke-miterlimit: 2; opacity: 1;"><g class="fills"/><g class="errorbars"/><g class="lines"><path class="js-line" d="M0,303.99L76.36,303.99L81.82,303.23L87.27,303.99L92.73,303.82L98.18,303.99L103.64,300.71L109.09,303.97L114.55,303.99L163.64,303.99L169.09,301.39L174.55,303.99L180,302.93L190.91,303.98L196.36,303.34L207.27,303.97L212.73,300.35L218.18,303.6L223.64,302.77L229.09,303.88L234.55,303.94L245.45,303.86L250.91,297.69L256.36,303.97L261.82,303.69L267.27,301.25L272.73,303.98L278.18,303.88L283.64,302.57L289.09,303.99L294.55,304L300,286.94L305.45,303.86L321.82,303.74L327.27,288.94L332.73,304L338.18,303.71L343.64,303.5L349.09,300.1L354.55,304L360,300.77L365.45,304L370.91,303.88L376.36,303.94L381.82,302.52L387.27,303.99L392.73,303.98L398.18,296.52L403.64,303.98L540,304" style="vector-effect: non-scaling-stroke; fill: none; stroke: rgb(0, 191, 125); stroke-opacity: 1; stroke-width: 2px; opacity: 1;"/></g><g class="points"/><g class="text"/></g><g class="trace scatter trace7c16b9" style="stroke-miterlimit: 2; opacity: 1;"><g class="fills"/><g class="errorbars"/><g class="lines"><path class="js-line" d="M0,303.99L130.91,303.99L136.36,301.5L141.82,303.97L147.27,303.99L278.18,303.99L283.64,304L540,303.96" style="vector-effect: non-scaling-stroke; fill: none; stroke: rgb(0, 176, 246); stroke-opacity: 1; stroke-width: 2px; opacity: 1;"/></g><g class="points"/><g class="text"/></g><g class="trace scatter tracee1b816" style="stroke-miterlimit: 2; opacity: 1;"><g class="fills"/><g class="errorbars"/><g class="lines"><path class="js-line" d="M0,303.99L130.91,303.99L136.36,300.57L141.82,303.99L147.27,303.97L152.73,300.45L158.18,303.99L250.91,303.94L256.36,300.58L261.82,304L267.27,303.85L294.55,303.98L300,303.64L305.45,304L310.91,302.9L316.36,304L321.82,304L332.73,304L338.18,294.62L343.64,304L349.09,303.42L365.45,303.9L370.91,300.65L376.36,304L381.82,303.98L398.18,303.97L403.64,303.94L474.55,303.99L480,303.89L490.91,303.56L496.36,303.94L540,303.32" style="vector-effect: non-scaling-stroke; fill: none; stroke: rgb(231, 107, 243); stroke-opacity: 1; stroke-width: 2px; opacity: 1;"/></g><g class="points"/><g class="text"/></g><g class="trace scatter traceefce62" style="stroke-miterlimit: 2; opacity: 1;"><g class="fills"/><g class="errorbars"/><g class="lines"><path class="js-line" d="M0,303.99L43.64,303.95L49.09,303.15L54.55,303.98L60,303.93L81.82,303.99L87.27,302.94L92.73,303.96L98.18,303.98L103.64,303.16L109.09,303.94L212.73,303.96L218.18,303.98L540,303.99" style="vector-effect: non-scaling-stroke; fill: none; stroke: rgb(248, 118, 109); stroke-opacity: 1; stroke-width: 2px; opacity: 1;"/></g><g class="points"/><g class="text"/></g><g class="trace scatter tracef0fdfd" style="stroke-miterlimit: 2; opacity: 1;"><g class="fills"/><g class="errorbars"/><g class="lines"><path class="js-line" d="M0,303.99L54.55,303.99L60,300.81L65.45,303.95L70.91,303.89L76.36,303.15L81.82,303.99L158.18,303.99L163.64,303.99L223.64,303.87L229.09,302.82L234.55,303.99L240,303.99L267.27,303.99L272.73,302.27L278.18,303.63L283.64,303.93L289.09,301.18L294.55,303.99L310.91,303.98L316.36,266.53L321.82,303.9L327.27,303.99L332.73,300.39L338.18,303.78L360,304L365.45,303.99L540,304" style="vector-effect: non-scaling-stroke; fill: none; stroke: rgb(163, 165, 0); stroke-opacity: 1; stroke-width: 2px; opacity: 1;"/></g><g class="points"/><g class="text"/></g><g class="trace scatter trace025cec" style="stroke-miterlimit: 2; opacity: 1;"><g class="fills"/><g class="errorbars"/><g class="lines"><path class="js-line" d="M0,303.99L92.73,303.96L98.18,303.14L103.64,303.98L109.09,297.16L114.55,303.95L120,303.85L152.73,303.98L158.18,303.99L425.45,303.78L430.91,303L436.36,303.91L441.82,303.96L540,303.92" style="vector-effect: non-scaling-stroke; fill: none; stroke: rgb(0, 191, 125); stroke-opacity: 1; stroke-width: 2px; opacity: 1;"/></g><g class="points"/><g class="text"/></g><g class="trace scatter trace6ba4d6" style="stroke-miterlimit: 2; opacity: 1;"><g class="fills"/><g class="errorbars"/><g class="lines"><path class="js-line" d="M0,303.99L38.18,303.99L43.64,302.63L49.09,303.99L54.55,303.99L60,301.43L65.45,301.07L70.91,302.61L76.36,303.08L81.82,303.92L87.27,303.59L92.73,303.96L98.18,302.36L103.64,303.96L109.09,303.86L147.27,303.97L152.73,303.75L169.09,303.99L174.55,303.96L283.64,303.94L289.09,303.53L316.36,303.96L321.82,303.06L338.18,303.89L343.64,303.93L436.36,303.94L441.82,272.48L447.27,303.66L452.73,303.89L463.64,303.6L469.09,303.96L480,302.83L485.45,303.98L540,303.93" style="vector-effect: non-scaling-stroke; fill: none; stroke: rgb(0, 176, 246); stroke-opacity: 1; stroke-width: 2px; opacity: 1;"/></g><g class="points"/><g class="text"/></g><g class="trace scatter tracea08c75" style="stroke-miterlimit: 2; opacity: 1;"><g class="fills"/><g class="errorbars"/><g class="lines"><path class="js-line" d="M0,303.99L114.55,303.88L120,298.34L125.45,303.98L130.91,303.87L136.36,303.98L141.82,302.83L147.27,303.98L152.73,303.98L381.82,303.92L387.27,303.21L392.73,303.96L398.18,303.95L420,303.94L425.45,299.96L430.91,303.94L436.36,300.53L441.82,303.86L447.27,303.05L452.73,303.85L458.18,302.87L469.09,303.76L474.55,303.16L480,302.37L485.45,302.39L490.91,303.69L496.36,303.28L507.27,303.15L512.73,298.69L518.18,303.22L523.64,303.47L529.09,301.9L534.55,302.63L540,303.59" style="vector-effect: non-scaling-stroke; fill: none; stroke: rgb(231, 107, 243); stroke-opacity: 1; stroke-width: 2px; opacity: 1;"/></g><g class="points"/><g class="text"/></g><g class="trace scatter trace987101" style="stroke-miterlimit: 2; opacity: 1;"><g class="fills"/><g class="errorbars"/><g class="lines"><path class="js-line" d="M0,303.99L54.55,303.99L60,303.09L65.45,302.46L70.91,303.25L81.82,303.98L87.27,303.98L403.64,304L409.09,301.54L414.55,303.47L420,304L425.45,301.76L430.91,303.85L436.36,303.97L441.82,303.3L452.73,303.99L458.18,304L469.09,304L474.55,300.63L480,303.84L485.45,304L540,303.78" style="vector-effect: non-scaling-stroke; fill: none; stroke: rgb(248, 118, 109); stroke-opacity: 1; stroke-width: 2px; opacity: 1;"/></g><g class="points"/><g class="text"/></g><g class="trace scatter trace982f16" style="stroke-miterlimit: 2; opacity: 1;"><g class="fills"/><g class="errorbars"/><g class="lines"><path class="js-line" d="M0,303.99L65.45,303.9L70.91,302.03L76.36,303.98L81.82,303.99L229.09,303.98L234.55,249.86L240,303.99L245.45,303.99L316.36,304L321.82,234.38L327.27,304L332.73,304L343.64,303.99L349.09,301.77L354.55,303.99L360,275.13L365.45,304L370.91,304L381.82,303.99L387.27,226.63L392.73,303.99L398.18,304L403.64,296.02L409.09,304L474.55,304L480,302.88L485.45,304L490.91,303.29L501.82,303.98L507.27,303.49L518.18,304L523.64,303.98L540,303.86" style="vector-effect: non-scaling-stroke; fill: none; stroke: rgb(163, 165, 0); stroke-opacity: 1; stroke-width: 2px; opacity: 1;"/></g><g class="points"/><g class="text"/></g><g class="trace scatter trace1fb465" style="stroke-miterlimit: 2; opacity: 1;"><g class="fills"/><g class="errorbars"/><g class="lines"><path class="js-line" d="M0,303.99L305.45,304L310.91,300.83L316.36,304L321.82,304L458.18,304L463.64,286.84L469.09,304L474.55,304L540,304" style="vector-effect: non-scaling-stroke; fill: none; stroke: rgb(0, 191, 125); stroke-opacity: 1; stroke-width: 2px; opacity: 1;"/></g><g class="points"/><g class="text"/></g><g class="trace scatter trace830c0b" style="stroke-miterlimit: 2; opacity: 1;"><g class="fills"/><g class="errorbars"/><g class="lines"><path class="js-line" d="M0,303.99L60,303.95L65.45,302.61L70.91,303.98L76.36,300.96L81.82,303L87.27,303.99L98.18,303.99L103.64,301.8L109.09,303.96L114.55,303.95L163.64,303.98L169.09,302.17L174.55,303.98L180,303.98L310.91,303.96L316.36,303.99L332.73,303.8L338.18,303.95L387.27,303.93L392.73,301.69L398.18,303.4L403.64,303.94L414.55,303.14L420,303.96L512.73,303.98L518.18,303.63L540,303.98" style="vector-effect: non-scaling-stroke; fill: none; stroke: rgb(0, 176, 246); stroke-opacity: 1; stroke-width: 2px; opacity: 1;"/></g><g class="points"/><g class="text"/></g><g class="trace scatter traceb31e23" style="stroke-miterlimit: 2; opacity: 1;"><g class="fills"/><g class="errorbars"/><g class="lines"><path class="js-line" d="M0,303.99L540,303.95" style="vector-effect: non-scaling-stroke; fill: none; stroke: rgb(231, 107, 243); stroke-opacity: 1; stroke-width: 2px; opacity: 1;"/></g><g class="points"/><g class="text"/></g><g class="trace scatter tracea0a841" style="stroke-miterlimit: 2; opacity: 1;"><g class="fills"/><g class="errorbars"/><g class="lines"><path class="js-line" d="M0,303.99L185.45,303.96L190.91,302.91L196.36,303.95L201.82,303.96L327.27,303.98L332.73,299.98L338.18,303.98L343.64,303.98L398.18,303.24L403.64,303.9L414.55,303.99L420,297.77L425.45,303.97L430.91,303.21L463.64,303.96L469.09,303.75L490.91,303.71L496.36,303.97L507.27,303.6L512.73,303.06L518.18,303.96L523.64,303.98L540,303.27" style="vector-effect: non-scaling-stroke; fill: none; stroke: rgb(248, 118, 109); stroke-opacity: 1; stroke-width: 2px; opacity: 1;"/></g><g class="points"/><g class="text"/></g><g class="trace scatter trace86f06a" style="stroke-miterlimit: 2; opacity: 1;"><g class="fills"/><g class="errorbars"/><g class="lines"><path class="js-line" d="M0,303.99L92.73,303.76L98.18,302.09L103.64,302.84L109.09,302.42L114.55,303.98L120,303.95L125.45,303.2L130.91,303.99L136.36,303.51L141.82,303.9L147.27,303.98L152.73,301.85L158.18,303.94L163.64,303.97L261.82,303.96L267.27,300.66L272.73,303.92L278.18,303.83L283.64,302.34L289.09,303.96L310.91,303.91L316.36,281.68L321.82,303.96L327.27,303.41L338.18,303.92L343.64,303.98L365.45,303.23L370.91,303.95L430.91,303.85L436.36,303.96L469.09,303.48L474.55,303L480,303.94L485.45,299.66L490.91,303.33L496.36,303.81L501.82,298.31L507.27,303.55L512.73,301.82L518.18,303.97L523.64,296.19L529.09,301.83L534.55,303.9L540,303.99" style="vector-effect: non-scaling-stroke; fill: none; stroke: rgb(163, 165, 0); stroke-opacity: 1; stroke-width: 2px; opacity: 1;"/></g><g class="points"/><g class="text"/></g><g class="trace scatter tracef961c9" style="stroke-miterlimit: 2; opacity: 1;"><g class="fills"/><g class="errorbars"/><g class="lines"><path class="js-line" d="M0,303.99L540,304" style="vector-effect: non-scaling-stroke; fill: none; stroke: rgb(0, 191, 125); stroke-opacity: 1; stroke-width: 2px; opacity: 1;"/></g><g class="points"/><g class="text"/></g><g class="trace scatter traced76720" style="stroke-miterlimit: 2; opacity: 1;"><g class="fills"/><g class="errorbars"/><g class="lines"><path class="js-line" d="M0,303.99L27.27,303.99L32.73,303.07L38.18,303.97L43.64,303.99L109.09,303.99L114.55,303.99L158.18,303.86L163.64,300.67L169.09,303.92L174.55,303.99L229.09,303.96L234.55,303.99L540,303.98" style="vector-effect: non-scaling-stroke; fill: none; stroke: rgb(0, 176, 246); stroke-opacity: 1; stroke-width: 2px; opacity: 1;"/></g><g class="points"/><g class="text"/></g><g class="trace scatter tracee92e02" style="stroke-miterlimit: 2; opacity: 1;"><g class="fills"/><g class="errorbars"/><g class="lines"><path class="js-line" d="M0,303.99L234.55,303.97L240,283.71L245.45,303.89L250.91,257.21L256.36,303.98L261.82,303.91L267.27,303.41L272.73,303.97L283.64,303.98L289.09,279.44L294.55,302.35L300,303.75L305.45,298.39L310.91,303.78L332.73,303.62L338.18,303.97L349.09,303.99L354.55,283.66L360,303.99L365.45,304L381.82,303.98L387.27,303.93L392.73,302.54L398.18,303.98L409.09,303.59L414.55,303.96L441.82,303.91L447.27,301.04L452.73,290.73L458.18,303.94L485.45,303.91L490.91,301.35L496.36,294.86L501.82,303.96L507.27,290.65L512.73,303.96L518.18,300.89L523.64,303.63L529.09,16L534.55,300.81L540,297.38" style="vector-effect: non-scaling-stroke; fill: none; stroke: rgb(231, 107, 243); stroke-opacity: 1; stroke-width: 2px; opacity: 1;"/></g><g class="points"/><g class="text"/></g><g class="trace scatter trace9af415" style="stroke-miterlimit: 2; opacity: 1;"><g class="fills"/><g class="errorbars"/><g class="lines"><path class="js-line" d="M0,303.99L212.73,303.99L218.18,302.81L223.64,303.99L229.09,303.99L436.36,304L441.82,301.26L447.27,303.99L452.73,304L463.64,303.88L469.09,265.66L474.55,302.72L480,303.99L496.36,303.95L501.82,304L507.27,304L512.73,300.38L518.18,304L523.64,303.99L540,303.99" style="vector-effect: non-scaling-stroke; fill: none; stroke: rgb(248, 118, 109); stroke-opacity: 1; stroke-width: 2px; opacity: 1;"/></g><g class="points"/><g class="text"/></g><g class="trace scatter trace74241f" style="stroke-miterlimit: 2; opacity: 1;"><g class="fills"/><g class="errorbars"/><g class="lines"><path class="js-line" d="M0,303.99L289.09,303.99L294.55,303.17L300,303.99L305.45,302.99L310.91,303.97L316.36,303.92L321.82,303.61L327.27,302.45L332.73,303.99L338.18,303.99L370.91,303.95L376.36,304L430.91,304L436.36,300.63L441.82,303.99L447.27,303.98L463.64,304L469.09,300.18L474.55,303.88L480,304L540,303.76" style="vector-effect: non-scaling-stroke; fill: none; stroke: rgb(163, 165, 0); stroke-opacity: 1; stroke-width: 2px; opacity: 1;"/></g><g class="points"/><g class="text"/></g><g class="trace scatter trace47c2cb" style="stroke-miterlimit: 2; opacity: 1;"><g class="fills"/><g class="errorbars"/><g class="lines"><path class="js-line" d="M0,303.99L540,304" style="vector-effect: non-scaling-stroke; fill: none; stroke: rgb(0, 191, 125); stroke-opacity: 1; stroke-width: 2px; opacity: 1;"/></g><g class="points"/><g class="text"/></g><g class="trace scatter trace897901" style="stroke-miterlimit: 2; opacity: 1;"><g class="fills"/><g class="errorbars"/><g class="lines"><path class="js-line" d="M0,303.99L130.91,303.94L136.36,294.54L141.82,303.98L147.27,303.99L158.18,303.99L163.64,294.53L169.09,303.93L174.55,303.97L180,302.88L185.45,303.99L540,304" style="vector-effect: non-scaling-stroke; fill: none; stroke: rgb(0, 176, 246); stroke-opacity: 1; stroke-width: 2px; opacity: 1;"/></g><g class="points"/><g class="text"/></g><g class="trace scatter trace46f388" style="stroke-miterlimit: 2; opacity: 1;"><g class="fills"/><g class="errorbars"/><g class="lines"><path class="js-line" d="M0,303.99L38.18,303.99L43.64,302.5L49.09,303.99L54.55,303.99L349.09,304L354.55,302.56L360,303.92L365.45,303.76L387.27,304L392.73,303.98L540,304" style="vector-effect: non-scaling-stroke; fill: none; stroke: rgb(231, 107, 243); stroke-opacity: 1; stroke-width: 2px; opacity: 1;"/></g><g class="points"/><g class="text"/></g><g class="trace scatter trace48cc20" style="stroke-miterlimit: 2; opacity: 1;"><g class="fills"/><g class="errorbars"/><g class="lines"><path class="js-line" d="M0,303.99L490.91,303.99L496.36,164.51L501.82,303.98L507.27,304L540,304" style="vector-effect: non-scaling-stroke; fill: none; stroke: rgb(248, 118, 109); stroke-opacity: 1; stroke-width: 2px; opacity: 1;"/></g><g class="points"/><g class="text"/></g><g class="trace scatter tracee33b02" style="stroke-miterlimit: 2; opacity: 1;"><g class="fills"/><g class="errorbars"/><g class="lines"><path class="js-line" d="M0,303.99L540,304" style="vector-effect: non-scaling-stroke; fill: none; stroke: rgb(163, 165, 0); stroke-opacity: 1; stroke-width: 2px; opacity: 1;"/></g><g class="points"/><g class="text"/></g><g class="trace scatter trace269884" style="stroke-miterlimit: 2; opacity: 1;"><g class="fills"/><g class="errorbars"/><g class="lines"><path class="js-line" d="M0,303.99L27.27,303.99L32.73,303.14L38.18,303.99L43.64,303.86L65.45,303.99L70.91,300.08L76.36,303.81L81.82,303.99L409.09,304L414.55,292.02L420,303.99L425.45,303.89L469.09,303.99L474.55,303.93L480,301.6L485.45,302.84L490.91,303.93L496.36,303.13L501.82,304L507.27,304L540,304" style="vector-effect: non-scaling-stroke; fill: none; stroke: rgb(0, 191, 125); stroke-opacity: 1; stroke-width: 2px; opacity: 1;"/></g><g class="points"/><g class="text"/></g><g class="trace scatter traced6e766" style="stroke-miterlimit: 2; opacity: 1;"><g class="fills"/><g class="errorbars"/><g class="lines"><path class="js-line" d="M0,303.99L60,303.99L65.45,302.54L70.91,303.97L76.36,300.78L81.82,303.54L87.27,300.36L98.18,303.99L103.64,303.98L120,303.92L125.45,296.67L130.91,302.71L136.36,303.98L283.64,303.99L289.09,303.99L332.73,303.99L338.18,303.05L343.64,303.98L349.09,303.99L540,303.99" style="vector-effect: non-scaling-stroke; fill: none; stroke: rgb(0, 176, 246); stroke-opacity: 1; stroke-width: 2px; opacity: 1;"/></g><g class="points"/><g class="text"/></g><g class="trace scatter trace26fa60" style="stroke-miterlimit: 2; opacity: 1;"><g class="fills"/><g class="errorbars"/><g class="lines"><path class="js-line" d="M0,303.99L81.82,303.98L87.27,302.2L92.73,303.96L98.18,303.97L289.09,303.99L294.55,303.93L300,302.58L305.45,303.98L436.36,303.96L441.82,303.99L540,303.65" style="vector-effect: non-scaling-stroke; fill: none; stroke: rgb(231, 107, 243); stroke-opacity: 1; stroke-width: 2px; opacity: 1;"/></g><g class="points"/><g class="text"/></g><g class="trace scatter trace0a7239" style="stroke-miterlimit: 2; opacity: 1;"><g class="fills"/><g class="errorbars"/><g class="lines"><path class="js-line" d="M0,303.99L38.18,303.99L43.64,303.2L54.55,303.99L60,303.99L338.18,303.97L343.64,302.08L349.09,303.78L354.55,303.86L370.91,303.96L376.36,302.36L381.82,301.9L387.27,303.9L403.64,303.99L409.09,303.98L540,303.99" style="vector-effect: non-scaling-stroke; fill: none; stroke: rgb(248, 118, 109); stroke-opacity: 1; stroke-width: 2px; opacity: 1;"/></g><g class="points"/><g class="text"/></g><g class="trace scatter trace6c78d3" style="stroke-miterlimit: 2; opacity: 1;"><g class="fills"/><g class="errorbars"/><g class="lines"><path class="js-line" d="M0,303.99L87.27,303.99L92.73,301.77L98.18,303.99L103.64,303.99L540,304" style="vector-effect: non-scaling-stroke; fill: none; stroke: rgb(163, 165, 0); stroke-opacity: 1; stroke-width: 2px; opacity: 1;"/></g><g class="points"/><g class="text"/></g><g class="trace scatter traceefe4fb" style="stroke-miterlimit: 2; opacity: 1;"><g class="fills"/><g class="errorbars"/><g class="lines"><path class="js-line" d="M0,303.99L185.45,303.99L190.91,298.62L196.36,303.64L201.82,303.93L234.55,303.97L240,303.57L250.91,303.99L256.36,303.93L272.73,303.98L278.18,303.99L300,303.95L305.45,296.24L310.91,303.92L316.36,303.99L540,304" style="vector-effect: non-scaling-stroke; fill: none; stroke: rgb(0, 191, 125); stroke-opacity: 1; stroke-width: 2px; opacity: 1;"/></g><g class="points"/><g class="text"/></g><g class="trace scatter trace72d5e9" style="stroke-miterlimit: 2; opacity: 1;"><g class="fills"/><g class="errorbars"/><g class="lines"><path class="js-line" d="M0,303.99L27.27,303.99L32.73,303.22L43.64,303.97L49.09,303.99L70.91,303.99L76.36,303.11L81.82,303.99L87.27,301.91L92.73,301.6L98.18,303.65L103.64,301.6L109.09,303.62L120,303.99L125.45,300.83L130.91,303.99L136.36,303.99L485.45,303.58L490.91,302.96L496.36,303.99L501.82,304L540,304" style="vector-effect: non-scaling-stroke; fill: none; stroke: rgb(0, 176, 246); stroke-opacity: 1; stroke-width: 2px; opacity: 1;"/></g><g class="points"/><g class="text"/></g><g class="trace scatter trace95c689" style="stroke-miterlimit: 2; opacity: 1;"><g class="fills"/><g class="errorbars"/><g class="lines"><path class="js-line" d="M0,303.99L212.73,303.99L218.18,299.39L223.64,303.96L229.09,303.97L256.36,303.97L261.82,262.05L267.27,303.97L272.73,303.89L310.91,303.95L316.36,303.92L321.82,303.98L327.27,302.39L332.73,303.99L338.18,303.99L354.55,303.39L360,304L381.82,303.95L387.27,302.8L398.18,303.99L403.64,304L409.09,302.86L414.55,303.81L420,303.99L425.45,303.24L436.36,303.99L441.82,303.99L469.09,304L474.55,303.16L480,304L485.45,304L540,303.99" style="vector-effect: non-scaling-stroke; fill: none; stroke: rgb(231, 107, 243); stroke-opacity: 1; stroke-width: 2px; opacity: 1;"/></g><g class="points"/><g class="text"/></g></g></g><g class="overplot"/><path class="xlines-above crisp" d="" style="fill: none; stroke-width: 1px; stroke: rgb(0, 0, 0); stroke-opacity: 0;"/><path class="ylines-above crisp" d="" style="fill: none; stroke-width: 1px; stroke: rgb(0, 0, 0); stroke-opacity: 0;"/><g class="overlines-above"/><g class="xaxislayer-above"><path class="xtick ticks crisp" d="M0,421v5" transform="translate(80,0)" style="stroke: rgb(51, 51, 51); stroke-opacity: 1; stroke-width: 1px;"/><path class="xtick ticks crisp" d="M0,421v5" transform="translate(189.09,0)" style="stroke: rgb(51, 51, 51); stroke-opacity: 1; stroke-width: 1px;"/><path class="xtick ticks crisp" d="M0,421v5" transform="translate(298.18,0)" style="stroke: rgb(51, 51, 51); stroke-opacity: 1; stroke-width: 1px;"/><path class="xtick ticks crisp" d="M0,421v5" transform="translate(407.27,0)" style="stroke: rgb(51, 51, 51); stroke-opacity: 1; stroke-width: 1px;"/><path class="xtick ticks crisp" d="M0,421v5" transform="translate(516.36,0)" style="stroke: rgb(51, 51, 51); stroke-opacity: 1; stroke-width: 1px;"/><g class="xtick"><text text-anchor="middle" x="0" y="440.4" transform="translate(80,0)" style="font-family: 'Open Sans', verdana, arial, sans-serif; font-size: 12px; fill: rgb(51, 51, 51); fill-opacity: 1; white-space: pre; opacity: 1;">0</text></g><g class="xtick"><text text-anchor="middle" x="0" y="440.4" style="font-family: 'Open Sans', verdana, arial, sans-serif; font-size: 12px; fill: rgb(51, 51, 51); fill-opacity: 1; white-space: pre; opacity: 1;" transform="translate(189.09,0)">20</text></g><g class="xtick"><text text-anchor="middle" x="0" y="440.4" style="font-family: 'Open Sans', verdana, arial, sans-serif; font-size: 12px; fill: rgb(51, 51, 51); fill-opacity: 1; white-space: pre; opacity: 1;" transform="translate(298.18,0)">40</text></g><g class="xtick"><text text-anchor="middle" x="0" y="440.4" style="font-family: 'Open Sans', verdana, arial, sans-serif; font-size: 12px; fill: rgb(51, 51, 51); fill-opacity: 1; white-space: pre; opacity: 1;" transform="translate(407.27,0)">60</text></g><g class="xtick"><text text-anchor="middle" x="0" y="440.4" style="font-family: 'Open Sans', verdana, arial, sans-serif; font-size: 12px; fill: rgb(51, 51, 51); fill-opacity: 1; white-space: pre; opacity: 1;" transform="translate(516.36,0)">80</text></g></g><g class="yaxislayer-above"><path class="ytick ticks crisp" d="M79,0h-5" transform="translate(0,404.01)" style="stroke: rgb(51, 51, 51); stroke-opacity: 1; stroke-width: 1px;"/><path class="ytick ticks crisp" d="M79,0h-5" transform="translate(0,329.85)" style="stroke: rgb(51, 51, 51); stroke-opacity: 1; stroke-width: 1px;"/><path class="ytick ticks crisp" d="M79,0h-5" transform="translate(0,255.69)" style="stroke: rgb(51, 51, 51); stroke-opacity: 1; stroke-width: 1px;"/><path class="ytick ticks crisp" d="M79,0h-5" transform="translate(0,181.53)" style="stroke: rgb(51, 51, 51); stroke-opacity: 1; stroke-width: 1px;"/><path class="ytick ticks crisp" d="M79,0h-5" transform="translate(0,107.37)" style="stroke: rgb(51, 51, 51); stroke-opacity: 1; stroke-width: 1px;"/><g class="ytick"><text text-anchor="end" x="71.6" y="4.199999999999999" transform="translate(0,404.01)" style="font-family: 'Open Sans', verdana, arial, sans-serif; font-size: 12px; fill: rgb(51, 51, 51); fill-opacity: 1; white-space: pre; opacity: 1;">0</text></g><g class="ytick"><text text-anchor="end" x="71.6" y="4.199999999999999" style="font-family: 'Open Sans', verdana, arial, sans-serif; font-size: 12px; fill: rgb(51, 51, 51); fill-opacity: 1; white-space: pre; opacity: 1;" transform="translate(0,329.85)">5k</text></g><g class="ytick"><text text-anchor="end" x="71.6" y="4.199999999999999" style="font-family: 'Open Sans', verdana, arial, sans-serif; font-size: 12px; fill: rgb(51, 51, 51); fill-opacity: 1; white-space: pre; opacity: 1;" transform="translate(0,255.69)">10k</text></g><g class="ytick"><text text-anchor="end" x="71.6" y="4.199999999999999" style="font-family: 'Open Sans', verdana, arial, sans-serif; font-size: 12px; fill: rgb(51, 51, 51); fill-opacity: 1; white-space: pre; opacity: 1;" transform="translate(0,181.53)">15k</text></g><g class="ytick"><text text-anchor="end" x="71.6" y="4.199999999999999" style="font-family: 'Open Sans', verdana, arial, sans-serif; font-size: 12px; fill: rgb(51, 51, 51); fill-opacity: 1; white-space: pre; opacity: 1;" transform="translate(0,107.37)">20k</text></g></g><g class="overaxes-above"/></g></g><g class="polarlayer"/><g class="ternarylayer"/><g class="geolayer"/><g class="funnelarealayer"/><g class="pielayer"/><g class="iciclelayer"/><g class="treemaplayer"/><g class="sunburstlayer"/><g class="glimages"/><defs id="topdefs-5c595a"><g class="clips"/></defs><g class="layer-above"><g class="imagelayer"/><g class="shapelayer"/></g><g class="infolayer"><g class="g-gtitle"><text class="gtitle" x="350" y="50" text-anchor="middle" dy="0em" style="font-family: 'Open Sans', verdana, arial, sans-serif; font-size: 17px; fill: rgb(51, 51, 51); opacity: 1; font-weight: normal; white-space: pre;">Train Loss: ascad_v1_vk_0-aisy_mlp_hw (early_stopping)</text></g><g class="g-xtitle"/><g class="g-ytitle"/></g></svg>