<svg class="main-svg" xmlns="http://www.w3.org/2000/svg" xmlns:xlink="http://www.w3.org/1999/xlink" width="700" height="500" style="" viewBox="0 0 700 500"><rect x="0" y="0" width="700" height="500" style="fill: rgb(255, 255, 255); fill-opacity: 1;"/><defs id="defs-95af7f"><g class="clips"><clipPath id="clip95af7fxyplot" class="plotclip"><rect width="540" height="320"/></clipPath><clipPath class="axesclip" id="clip95af7fx"><rect x="80" y="0" width="540" height="500"/></clipPath><clipPath class="axesclip" id="clip95af7fy"><rect x="0" y="100" width="700" height="320"/></clipPath><clipPath class="axesclip" id="clip95af7fxy"><rect x="80" y="100" width="540" height="320"/></clipPath></g><g class="gradients"/><g class="patterns"/></defs><g class="bglayer"><rect class="bg" x="80" y="100" width="540" height="320" style="fill: rgb(237, 237, 237); fill-opacity: 1; stroke-width: 0;"/></g><g class="layer-below"><g class="imagelayer"/><g class="shapelayer"/></g><g class="cartesianlayer"><g class="subplot xy"><g class="layer-subplot"><g class="shapelayer"/><g class="imagelayer"/></g><g class="gridlayer"><g class="x"><path class="xgrid crisp" transform="translate(189.09,0)" d="M0,100v320" style="stroke: rgb(255, 255, 255); stroke-opacity: 1; stroke-width: 1px;"/><path class="xgrid crisp" transform="translate(298.18,0)" d="M0,100v320" style="stroke: rgb(255, 255, 255); stroke-opacity: 1; stroke-width: 1px;"/><path class="xgrid crisp" transform="translate(407.27,0)" d="M0,100v320" style="stroke: rgb(255, 255, 255); stroke-opacity: 1; stroke-width: 1px;"/><path class="xgrid crisp" transform="translate(516.36,0)" d="M0,100v320" style="stroke: rgb(255, 255, 255); stroke-opacity: 1; stroke-width: 1px;"/></g><g class="y"><path class="ygrid crisp" transform="translate(0,392.44)" d="M80,0h540" style="stroke: rgb(255, 255, 255); stroke-opacity: 1; stroke-width: 1px;"/><path class="ygrid crisp" transform="translate(0,333.07)" d="M80,0h540" style="stroke: rgb(255, 255, 255); stroke-opacity: 1; stroke-width: 1px;"/><path class="ygrid crisp" transform="translate(0,273.7)" d="M80,0h540" style="stroke: rgb(255, 255, 255); stroke-opacity: 1; stroke-width: 1px;"/><path class="ygrid crisp" transform="translate(0,214.32999999999998)" d="M80,0h540" style="stroke: rgb(255, 255, 255); stroke-opacity: 1; stroke-width: 1px;"/><path class="ygrid crisp" transform="translate(0,154.95)" d="M80,0h540" style="stroke: rgb(255, 255, 255); stroke-opacity: 1; stroke-width: 1px;"/></g></g><g class="zerolinelayer"><path class="xzl zl crisp" transform="translate(80,0)" d="M0,100v320" style="stroke: rgb(255, 255, 255); stroke-opacity: 1; stroke-width: 1px;"/></g><path class="xlines-below"/><path class="ylines-below"/><g class="overlines-below"/><g class="xaxislayer-below"/><g class="yaxislayer-below"/><g class="overaxes-below"/><g class="plot" transform="translate(80,100)" clip-path="url(#clip95af7fxyplot)"><g class="scatterlayer mlayer"><g class="trace scatter trace0d5086" style="stroke-miterlimit: 2; opacity: 1;"><g class="fills"/><g class="errorbars"/><g class="lines"><path class="js-line" d="M0,16.18L10.91,23.91L16.36,26.45L27.27,34.28L32.73,39.22L43.64,51.47L49.09,59.19L60,78.39L65.45,89.28L87.27,139.42L92.73,152.37L109.09,187.7L114.55,198.01L125.45,217.76L130.91,226L136.36,234.26L141.82,241.02L152.73,253.58L158.18,259.06L169.09,268.63L174.55,272.8L185.45,279.09L190.91,281.97L207.27,289.1L212.73,290.19L218.18,292.83L223.64,293.49L234.55,295.91L240,296.91L250.91,298.9L256.36,298.76L278.18,300.18L283.64,301.54L289.09,300.75L294.55,301.83L300,302.18L305.45,301.76L316.36,301.7L321.82,302.82L332.73,301.97L338.18,302.68L349.09,302.45L354.55,301.68L365.45,302.92L370.91,302.2L376.36,303.12L381.82,302.71L398.18,302.36L403.64,302.36L420,301.22L425.45,301.58L436.36,301.64L441.82,301.92L452.73,300.86L458.18,301.79L474.55,299.8L480,300.88L496.36,300.06L501.82,300.07L518.18,300.15L523.64,300.76L534.55,299.81L540,299.03" style="vector-effect: non-scaling-stroke; fill: none; stroke: rgb(248, 118, 109); stroke-opacity: 1; stroke-width: 2px; opacity: 1;"/></g><g class="points"/><g class="text"/></g><g class="trace scatter trace4d235b" style="stroke-miterlimit: 2; opacity: 1;"><g class="fills"/><g class="errorbars"/><g class="lines"><path class="js-line" d="M0,16.17L16.36,26.45L21.82,29.91L32.73,39.4L38.18,45.44L43.64,51.73L49.09,59.24L60,77.71L65.45,88.53L81.82,125.1L87.27,137.9L103.64,174.55L109.09,185.81L120,206.35L125.45,215.86L141.82,239.11L147.27,246.04L158.18,257.38L163.64,261.93L174.55,270.54L180,273.77L190.91,280.27L196.36,283.06L212.73,289.44L218.18,290.59L229.09,293.03L234.55,294.13L250.91,297.03L256.36,297.1L305.45,300.63L310.91,300.8L327.27,301.57L332.73,301.32L338.18,301.45L343.64,300.65L360,302L365.45,301.03L370.91,301.93L376.36,301.18L387.27,301.8L392.73,301.01L414.55,301.87L420,299.97L430.91,301.09L436.36,300.88L447.27,299.7L452.73,300.38L458.18,299.64L463.64,299.73L474.55,300.1L480,299.13L496.36,298.5L501.82,299.07L507.27,297.93L512.73,298.9L529.09,298.53L534.55,297.9L540,298.97" style="vector-effect: non-scaling-stroke; fill: none; stroke: rgb(163, 165, 0); stroke-opacity: 1; stroke-width: 2px; opacity: 1;"/></g><g class="points"/><g class="text"/></g><g class="trace scatter trace917563" style="stroke-miterlimit: 2; opacity: 1;"><g class="fills"/><g class="errorbars"/><g class="lines"><path class="js-line" d="M0,16.18L10.91,24.18L16.36,26.96L27.27,34.67L32.73,39.73L38.18,45.04L43.64,51.68L54.55,67.8L60,77.84L65.45,88.17L70.91,100.29L109.09,185.03L114.55,196.28L125.45,215.86L130.91,223.92L141.82,240.07L147.27,246.58L163.64,263.68L169.09,267.98L185.45,278.94L190.91,281.87L207.27,288.49L212.73,289.96L218.18,292.53L223.64,293.81L250.91,297.83L256.36,298.23L267.27,300.43L272.73,300.71L283.64,300.83L289.09,301.12L294.55,302.09L300,301.85L310.91,301.65L316.36,302.78L321.82,302.13L327.27,302.55L343.64,302.35L349.09,302.62L354.55,301.84L360,302.07L370.91,301.98L376.36,302.78L387.27,301.87L392.73,303.06L403.64,301.63L409.09,301.69L420,302.58L425.45,301.27L458.18,300.39L463.64,299.52L469.09,300.98L474.55,299.47L480,299.88L485.45,299.5L490.91,299.98L496.36,299.03L501.82,299.69L507.27,298.83L512.73,297.91L518.18,298.93L534.55,298.71L540,297.79" style="vector-effect: non-scaling-stroke; fill: none; stroke: rgb(0, 191, 125); stroke-opacity: 1; stroke-width: 2px; opacity: 1;"/></g><g class="points"/><g class="text"/></g><g class="trace scatter tracec4cbdb" style="stroke-miterlimit: 2; opacity: 1;"><g class="fills"/><g class="errorbars"/><g class="lines"><path class="js-line" d="M0,16.27L10.91,23.95L16.36,26.89L27.27,34.86L32.73,39.75L43.64,51.88L49.09,59.51L60,78.56L65.45,89.42L87.27,139.76L92.73,152.72L109.09,188.28L114.55,198.72L125.45,218.4L130.91,227.21L141.82,242.36L147.27,249.2L158.18,260.54L163.64,265.62L174.55,273.86L180,277.75L185.45,281.05L190.91,283.31L201.82,288.43L207.27,289.55L218.18,293.82L223.64,294.87L245.45,298.79L250.91,298.85L261.82,299.44L267.27,299.9L272.73,300.92L278.18,301.05L289.09,301.72L294.55,301.86L305.45,302.65L310.91,301.6L321.82,302.07L327.27,302.04L332.73,302.48L338.18,302.11L343.64,302.86L349.09,302.82L354.55,303.16L360,302L365.45,301.93L370.91,302.65L381.82,301.49L387.27,302.06L403.64,302.05L409.09,301.66L420,301.53L425.45,300.78L430.91,300.87L436.36,302.06L441.82,301.15L447.27,301.18L458.18,301.3L463.64,299.86L474.55,300.84L480,299.74L485.45,301.49L490.91,300.16L496.36,299.9L501.82,300.7L507.27,299.01L512.73,299.79L518.18,300.1L523.64,298.58L529.09,298.62L534.55,299.43L540,299.68" style="vector-effect: non-scaling-stroke; fill: none; stroke: rgb(0, 176, 246); stroke-opacity: 1; stroke-width: 2px; opacity: 1;"/></g><g class="points"/><g class="text"/></g><g class="trace scatter trace07e059" style="stroke-miterlimit: 2; opacity: 1;"><g class="fills"/><g class="errorbars"/><g class="lines"><path class="js-line" d="M0,16.22L27.27,34.04L32.73,38.58L43.64,50.48L49.09,57.86L60,76.2L65.45,87.08L76.36,111.12L81.82,123.86L109.09,184.69L114.55,195.46L125.45,215.24L130.91,223.51L141.82,239.48L147.27,246.09L158.18,257.82L163.64,262.54L180,275.09L185.45,277.72L201.82,285.46L207.27,287.78L218.18,290.85L223.64,291.95L240,295.77L245.45,296.38L289.09,300.86L294.55,300.71L300,301.18L305.45,300.58L310.91,301.32L316.36,300.58L327.27,301.6L332.73,301.64L365.45,302L370.91,301.25L387.27,302.04L392.73,301.91L398.18,301.57L403.64,302.09L430.91,300.91L436.36,300.78L441.82,301.09L447.27,300.51L458.18,300.17L463.64,300.73L480,299.81L485.45,300.38L501.82,298.9L507.27,299.72L518.18,299.79L523.64,298.83L529.09,297.98L534.55,298.53L540,299.35" style="vector-effect: non-scaling-stroke; fill: none; stroke: rgb(231, 107, 243); stroke-opacity: 1; stroke-width: 2px; opacity: 1;"/></g><g class="points"/><g class="text"/></g><g class="trace scatter traced08098" style="stroke-miterlimit: 2; opacity: 1;"><g class="fills"/><g class="errorbars"/><g class="lines"><path class="js-line" d="M0,16.19L5.45,19.45L10.91,23.62L21.82,29.87L27.27,34.15L38.18,44.61L43.64,51L54.55,66.86L60,76.59L70.91,99.06L76.36,111.72L103.64,174.09L109.09,185.14L125.45,215.74L130.91,224.33L141.82,240.08L147.27,246.47L158.18,258.34L163.64,263.5L174.55,272.16L180,275.44L185.45,278.41L190.91,282.26L196.36,284.04L201.82,286.98L223.64,293.85L229.09,295.31L245.45,296.95L250.91,298.24L256.36,299.41L261.82,299.4L278.18,301.42L283.64,301.47L294.55,302.3L300,301.58L305.45,302.76L310.91,303.16L316.36,302.71L321.82,303.22L327.27,302.21L332.73,303.12L343.64,302.43L349.09,303.49L354.55,302.47L360,302.84L370.91,302.75L376.36,302.9L398.18,302.19L403.64,302.51L409.09,301.73L414.55,302.24L420,301.8L425.45,302.21L430.91,302.65L436.36,301.56L447.27,302.2L452.73,302.04L463.64,300.53L469.09,300.84L474.55,300.33L480,301L485.45,300.51L490.91,301.58L496.36,300.44L501.82,300.18L507.27,299.46L512.73,300.38L523.64,300L529.09,300.78L534.55,300.32L540,298.68" style="vector-effect: non-scaling-stroke; fill: none; stroke: rgb(248, 118, 109); stroke-opacity: 1; stroke-width: 2px; opacity: 1;"/></g><g class="points"/><g class="text"/></g><g class="trace scatter trace51364f" style="stroke-miterlimit: 2; opacity: 1;"><g class="fills"/><g class="errorbars"/><g class="lines"><path class="js-line" d="M0,16.15L27.27,34.17L32.73,39.15L43.64,51.19L49.09,58.98L54.55,67.86L60,78.34L70.91,101.82L76.36,114.13L98.18,164.54L103.64,176.18L114.55,198.16L120,208.1L130.91,227.03L136.36,234.83L152.73,254.95L158.18,260.13L163.64,265.54L169.09,269.82L180,277.81L185.45,280.7L190.91,283.95L196.36,285.97L201.82,287.89L207.27,291.16L229.09,295.91L234.55,296.44L245.45,298.43L250.91,299.56L261.82,300.09L267.27,301.35L278.18,300.65L283.64,301.68L289.09,302.42L294.55,301.57L300,302.96L305.45,301.86L316.36,303.18L321.82,302.7L327.27,303.27L332.73,303.08L349.09,302.97L354.55,303.09L365.45,303.7L370.91,303.15L376.36,302.47L381.82,302.58L392.73,301.73L398.18,302.63L403.64,302.36L409.09,301.18L414.55,302.58L420,302.25L425.45,301.72L430.91,302L441.82,300.83L447.27,301.27L452.73,300.73L458.18,301.14L463.64,299.87L469.09,301.16L480,300.96L485.45,299.95L496.36,300.28L501.82,300.84L512.73,298.92L518.18,299.46L540,297.8" style="vector-effect: non-scaling-stroke; fill: none; stroke: rgb(163, 165, 0); stroke-opacity: 1; stroke-width: 2px; opacity: 1;"/></g><g class="points"/><g class="text"/></g><g class="trace scatter tracee35579" style="stroke-miterlimit: 2; opacity: 1;"><g class="fills"/><g class="errorbars"/><g class="lines"><path class="js-line" d="M0,16.22L10.91,24L16.36,27.28L27.27,35.6L32.73,40.35L43.64,52.55L49.09,60.34L54.55,68.8L60,78.81L76.36,114.18L81.82,126.94L103.64,176.04L109.09,187.16L114.55,198.33L120,207.58L125.45,217.63L130.91,226.12L147.27,247.38L152.73,253.51L169.09,268.57L174.55,272.01L185.45,279.2L190.91,281.72L201.82,286.35L207.27,288.23L218.18,291.96L223.64,292.73L229.09,294.27L234.55,295.02L245.45,297.15L250.91,298.06L278.18,300.41L283.64,300.35L289.09,301.2L294.55,300.3L300,300.36L305.45,301.75L365.45,301.65L370.91,302.27L392.73,301.05L398.18,301.98L430.91,300.98L436.36,301.35L441.82,299.7L447.27,300.65L469.09,299.76L474.55,300.8L480,299.46L485.45,298.99L496.36,299.86L501.82,298.7L512.73,297.67L518.18,298.88L523.64,298.4L529.09,298.99L534.55,299.11L540,298.22" style="vector-effect: non-scaling-stroke; fill: none; stroke: rgb(0, 191, 125); stroke-opacity: 1; stroke-width: 2px; opacity: 1;"/></g><g class="points"/><g class="text"/></g><g class="trace scatter tracef16c7d" style="stroke-miterlimit: 2; opacity: 1;"><g class="fills"/><g class="errorbars"/><g class="lines"><path class="js-line" d="M0,16.17L10.91,23.67L16.36,26.4L21.82,29.92L27.27,34.42L38.18,44.83L43.64,51.35L49.09,58.92L54.55,67.8L65.45,89.5L70.91,101.7L87.27,140.82L92.73,153.9L114.55,200.79L120,210.52L130.91,228.42L136.36,236.55L147.27,251.01L152.73,256.84L163.64,266.66L169.09,270.45L180,278L185.45,280.67L196.36,286.57L201.82,288.54L218.18,293.25L223.64,294.46L229.09,295.93L234.55,296.53L250.91,299.17L256.36,299.08L261.82,300.59L267.27,300.67L272.73,300.06L278.18,300.56L289.09,301.98L294.55,301.75L300,302.47L305.45,302.16L316.36,302.46L321.82,302.75L338.18,302.36L343.64,303.26L349.09,302.32L354.55,302.65L365.45,301.75L370.91,302.18L387.27,302.63L392.73,302.15L403.64,301.99L409.09,301.69L414.55,302.39L420,301.67L430.91,300.98L436.36,300.54L458.18,301.11L463.64,300.34L469.09,300.24L474.55,300.97L480,300.41L485.45,300.72L490.91,299.76L496.36,299.83L501.82,299.31L507.27,299.72L512.73,300.14L518.18,298.4L523.64,299.65L529.09,298.08L534.55,298.85L540,298.67" style="vector-effect: non-scaling-stroke; fill: none; stroke: rgb(0, 176, 246); stroke-opacity: 1; stroke-width: 2px; opacity: 1;"/></g><g class="points"/><g class="text"/></g><g class="trace scatter trace4a52f5" style="stroke-miterlimit: 2; opacity: 1;"><g class="fills"/><g class="errorbars"/><g class="lines"><path class="js-line" d="M0,16.22L10.91,24.04L16.36,26.85L27.27,34.8L32.73,39.85L43.64,51.62L49.09,58.85L60,77.34L65.45,88.3L76.36,112.33L81.82,124.93L103.64,174.06L109.09,185.48L125.45,215.94L130.91,224.75L147.27,246.6L152.73,252.56L163.64,263.32L169.09,268.26L190.91,281.51L196.36,284L212.73,290.44L218.18,291.31L229.09,294.01L234.55,295.46L240,296.69L245.45,297.04L250.91,298.56L256.36,298.68L289.09,301.79L294.55,301.27L300,302.55L305.45,302.13L321.82,302.18L327.27,302.95L338.18,302.14L343.64,302.5L360,303.14L365.45,302.4L376.36,303.43L381.82,302.79L387.27,302.35L392.73,303.18L398.18,302.12L403.64,301.96L414.55,300.85L420,302.12L436.36,302.15L441.82,301.37L447.27,300.97L452.73,302.1L469.09,300.65L474.55,300.44L490.91,300.73L496.36,299.76L501.82,299.94L507.27,301.2L512.73,299.55L518.18,299.21L534.55,299.62L540,298.77" style="vector-effect: non-scaling-stroke; fill: none; stroke: rgb(231, 107, 243); stroke-opacity: 1; stroke-width: 2px; opacity: 1;"/></g><g class="points"/><g class="text"/></g><g class="trace scatter trace2699d9" style="stroke-miterlimit: 2; opacity: 1;"><g class="fills"/><g class="errorbars"/><g class="lines"><path class="js-line" d="M0,16.28L10.91,24.03L16.36,26.8L21.82,30.44L27.27,35.02L38.18,45.75L43.64,52.44L49.09,59.93L54.55,68.72L65.45,89.47L70.91,101.29L109.09,186.23L114.55,197.09L125.45,216.33L130.91,225.42L147.27,247.03L152.73,253.07L163.64,263.71L169.09,267.87L185.45,278.84L190.91,280.72L196.36,284.61L201.82,286.43L223.64,293.08L229.09,294.06L240,295.69L245.45,296.87L250.91,298.26L256.36,298.05L267.27,299.3L272.73,299.58L294.55,301.3L300,301.09L327.27,302.02L332.73,301.94L343.64,302.11L349.09,302.08L354.55,301.22L360,301.83L376.36,301.91L381.82,300.95L387.27,302.16L392.73,302.35L403.64,300.69L409.09,301.37L414.55,301.17L420,302.06L430.91,300.29L436.36,300.59L441.82,301.64L447.27,300.84L452.73,300.05L458.18,301.92L463.64,300.33L469.09,300.36L485.45,299.32L490.91,300.37L496.36,299.21L501.82,299.13L507.27,298.25L512.73,299.37L518.18,298.83L523.64,299.24L529.09,298.28L534.55,299.28L540,299.74" style="vector-effect: non-scaling-stroke; fill: none; stroke: rgb(248, 118, 109); stroke-opacity: 1; stroke-width: 2px; opacity: 1;"/></g><g class="points"/><g class="text"/></g><g class="trace scatter trace8bafca" style="stroke-miterlimit: 2; opacity: 1;"><g class="fills"/><g class="errorbars"/><g class="lines"><path class="js-line" d="M0,16.21L10.91,23.8L16.36,26.35L27.27,34.44L32.73,39.45L43.64,51.56L49.09,59.41L60,78.78L65.45,89.93L81.82,127.55L87.27,140.57L109.09,189.12L114.55,199.76L125.45,219.35L130.91,227.91L147.27,249.2L152.73,255.81L163.64,265.34L169.09,269.74L174.55,274.04L180,277.02L190.91,283.31L196.36,285.87L218.18,292.91L223.64,294.72L229.09,295.24L234.55,297.04L240,296.86L245.45,298.26L272.73,301.3L278.18,300.87L283.64,301.78L289.09,301.71L305.45,302.7L310.91,302.17L316.36,302.91L321.82,302.79L332.73,303.51L338.18,302.87L354.55,303.31L360,302.33L365.45,303.33L370.91,302.71L376.36,303.36L381.82,302.72L387.27,303.5L392.73,302.64L414.55,303.38L420,302.52L447.27,302.37L452.73,301.43L458.18,301.38L463.64,302.69L469.09,302.22L474.55,300.87L485.45,301.37L490.91,300.67L501.82,301.27L507.27,300.2L512.73,300.22L518.18,301.46L523.64,299.99L529.09,299.72L534.55,300.68L540,299.44" style="vector-effect: non-scaling-stroke; fill: none; stroke: rgb(163, 165, 0); stroke-opacity: 1; stroke-width: 2px; opacity: 1;"/></g><g class="points"/><g class="text"/></g><g class="trace scatter trace4cb475" style="stroke-miterlimit: 2; opacity: 1;"><g class="fills"/><g class="errorbars"/><g class="lines"><path class="js-line" d="M0,16.18L27.27,33.92L32.73,38.61L38.18,43.74L43.64,50.03L49.09,57.14L54.55,65.83L60,75.24L65.45,86.44L109.09,186.21L114.55,197.19L125.45,216.91L130.91,225.73L141.82,241.25L147.27,248.2L158.18,259.68L163.64,264.26L174.55,272.56L180,276.34L185.45,279.74L190.91,282.25L201.82,287.09L207.27,289.06L223.64,294.06L229.09,294.69L234.55,296.37L240,296.5L245.45,298.03L250.91,298.32L283.64,301.5L289.09,300.92L300,301.9L305.45,301.96L321.82,302.22L327.27,302.93L332.73,301.49L338.18,302.47L360,302.61L365.45,302.78L370.91,301.49L376.36,303.06L398.18,301.22L403.64,302.21L420,301.07L425.45,300.9L430.91,301.89L436.36,300.79L441.82,300.73L447.27,299.63L458.18,301.11L463.64,300.57L474.55,299.68L480,299.1L485.45,300.39L490.91,298.54L496.36,300.36L501.82,298L529.09,298.72L534.55,297.57L540,297.84" style="vector-effect: non-scaling-stroke; fill: none; stroke: rgb(0, 191, 125); stroke-opacity: 1; stroke-width: 2px; opacity: 1;"/></g><g class="points"/><g class="text"/></g><g class="trace scatter trace24dbf3" style="stroke-miterlimit: 2; opacity: 1;"><g class="fills"/><g class="errorbars"/><g class="lines"><path class="js-line" d="M0,16L10.91,23.94L16.36,26.55L27.27,34.39L32.73,39.36L43.64,50.92L49.09,58.19L60,76.35L65.45,87.57L81.82,123.89L87.27,136.79L109.09,184.93L114.55,195.52L125.45,215.45L130.91,224.2L141.82,239.58L147.27,246.7L158.18,258.25L163.64,263.58L169.09,266.96L174.55,271.53L180,275.59L185.45,278.25L190.91,282.01L196.36,284.06L212.73,289.91L218.18,291.56L223.64,293.03L229.09,293.62L234.55,294.68L240,296.85L245.45,296.66L250.91,297.69L256.36,299.13L261.82,298.49L267.27,300.05L272.73,299.98L278.18,300.15L283.64,301.46L289.09,300.79L294.55,301.06L310.91,301.81L316.36,301.22L327.27,302.84L332.73,301.48L338.18,302.62L343.64,302.09L349.09,302.67L354.55,301.32L360,302.87L365.45,301.6L370.91,302.03L376.36,301.23L392.73,302.16L398.18,301.94L403.64,300.57L409.09,302.11L414.55,301.22L420,302.1L425.45,301.31L430.91,301.49L436.36,300.18L441.82,301.09L452.73,301.32L458.18,300.47L469.09,300.9L474.55,299.86L485.45,300.11L490.91,299.56L496.36,300.36L501.82,299.5L507.27,298.59L512.73,300.27L518.18,298.52L523.64,299.85L529.09,298.82L534.55,298.6L540,298.83" style="vector-effect: non-scaling-stroke; fill: none; stroke: rgb(0, 176, 246); stroke-opacity: 1; stroke-width: 2px; opacity: 1;"/></g><g class="points"/><g class="text"/></g><g class="trace scatter trace73d463" style="stroke-miterlimit: 2; opacity: 1;"><g class="fills"/><g class="errorbars"/><g class="lines"><path class="js-line" d="M0,16.29L10.91,23.91L16.36,26.62L21.82,30.03L27.27,34.52L38.18,44.71L43.64,50.99L54.55,67.11L60,77.06L70.91,99.52L76.36,111.74L103.64,173.78L109.09,185.21L120,205.58L125.45,214.8L136.36,231.93L141.82,239.51L152.73,252.38L158.18,257.5L163.64,262.98L169.09,267.29L185.45,278.09L190.91,280.68L196.36,282.43L201.82,286.03L207.27,287.06L212.73,289.18L218.18,290.8L223.64,291.11L229.09,293.29L234.55,294.5L245.45,296.61L250.91,296.9L256.36,298.17L261.82,298.18L267.27,299.09L272.73,299.02L283.64,299.59L289.09,299.99L321.82,301.56L327.27,302.42L332.73,301.28L338.18,301.12L343.64,301.44L349.09,300.93L360,302.03L365.45,301.01L370.91,302.61L376.36,301.59L398.18,301.7L403.64,301.67L409.09,300.39L414.55,301.04L425.45,301.52L430.91,300.58L441.82,300.15L447.27,300.52L458.18,300.24L463.64,300.13L469.09,299.5L474.55,299.94L480,299.05L485.45,300.25L490.91,298.6L496.36,299.53L507.27,297.71L512.73,298.31L523.64,298.53L529.09,297.73L540,297.47" style="vector-effect: non-scaling-stroke; fill: none; stroke: rgb(231, 107, 243); stroke-opacity: 1; stroke-width: 2px; opacity: 1;"/></g><g class="points"/><g class="text"/></g><g class="trace scatter trace07d376" style="stroke-miterlimit: 2; opacity: 1;"><g class="fills"/><g class="errorbars"/><g class="lines"><path class="js-line" d="M0,16.3L10.91,23.75L16.36,26.57L21.82,29.95L27.27,34.52L38.18,44.7L43.64,50.8L54.55,66.91L60,76.93L70.91,99.43L76.36,111.62L103.64,173.1L109.09,183.95L120,205.09L125.45,214.4L141.82,238.36L147.27,244.94L163.64,261.11L169.09,265.61L180,273.27L185.45,276.22L190.91,279.67L196.36,282L207.27,286.17L212.73,287.73L229.09,292.56L234.55,293.21L240,294.92L245.45,295.57L250.91,295.71L256.36,296.92L261.82,297.11L267.27,298.3L272.73,298.06L278.18,299.09L294.55,299.23L300,299.89L305.45,299.23L310.91,300.31L316.36,300.34L321.82,301.23L327.27,300.14L332.73,300.14L338.18,300.96L343.64,300.55L360,300.92L365.45,300.49L376.36,300.76L381.82,300.16L398.18,301.47L403.64,300.64L414.55,300.3L420,299.69L425.45,300.4L430.91,299.78L452.73,299.63L458.18,298.96L463.64,299.65L469.09,299.17L480,299.87L485.45,298.85L490.91,298.16L496.36,298.58L501.82,297.54L507.27,298.9L512.73,297.4L518.18,297.72L529.09,297.93L534.55,297.18L540,296.77" style="vector-effect: non-scaling-stroke; fill: none; stroke: rgb(248, 118, 109); stroke-opacity: 1; stroke-width: 2px; opacity: 1;"/></g><g class="points"/><g class="text"/></g><g class="trace scatter tracee8c83e" style="stroke-miterlimit: 2; opacity: 1;"><g class="fills"/><g class="errorbars"/><g class="lines"><path class="js-line" d="M0,16.12L5.45,20.48L10.91,23.81L21.82,30.29L27.27,34.54L38.18,45.03L43.64,51.53L54.55,68.02L60,78.36L70.91,101.66L76.36,114.31L92.73,153.57L98.18,165.82L109.09,189.38L114.55,200.37L125.45,219.67L130.91,228.34L141.82,243.35L147.27,249.97L152.73,256.23L158.18,261.09L169.09,270.53L174.55,273.76L190.91,283.47L196.36,285.33L212.73,291.24L218.18,292.81L223.64,294.55L229.09,295.03L240,297.07L245.45,297.46L261.82,299.41L267.27,300.63L272.73,300.04L278.18,300.49L294.55,301.79L300,300.86L305.45,300.77L310.91,301.77L321.82,301.27L327.27,301.92L332.73,302.45L338.18,301.73L360,301.4L365.45,302.35L376.36,302.66L381.82,302.15L392.73,301.06L398.18,301.83L409.09,301.19L414.55,301.36L425.45,300.93L430.91,299.36L441.82,299.18L447.27,300.85L490.91,299.37L496.36,298.44L501.82,298.12L507.27,299.45L512.73,297.92L518.18,297.61L523.64,298.41L529.09,297.88L540,297.57" style="vector-effect: non-scaling-stroke; fill: none; stroke: rgb(163, 165, 0); stroke-opacity: 1; stroke-width: 2px; opacity: 1;"/></g><g class="points"/><g class="text"/></g><g class="trace scatter trace55af53" style="stroke-miterlimit: 2; opacity: 1;"><g class="fills"/><g class="errorbars"/><g class="lines"><path class="js-line" d="M0,16.16L10.91,23.95L16.36,26.69L27.27,34.71L32.73,39.78L38.18,44.89L43.64,51.14L54.55,67.76L60,77.55L70.91,100.74L76.36,113.42L103.64,176.67L109.09,187.86L125.45,217.97L130.91,226.76L136.36,234.85L141.82,241.58L147.27,249.12L152.73,254.61L163.64,265.21L169.09,269.3L180,276.59L185.45,279.77L196.36,285.57L201.82,287.39L207.27,289.69L212.73,290.69L245.45,297.8L250.91,298.07L256.36,299.19L261.82,299.39L267.27,299.26L272.73,300.22L283.64,301.03L289.09,300.64L300,301.84L305.45,301.35L327.27,302.5L332.73,301.96L349.09,302.32L354.55,301.49L360,302.45L365.45,301.07L376.36,302.04L381.82,301.62L387.27,301.01L392.73,301.97L403.64,301.05L409.09,301.83L420,300.59L425.45,300.87L436.36,300.85L441.82,300.35L452.73,301.32L458.18,299.63L463.64,300.58L469.09,300.49L474.55,299.72L480,299.8L490.91,299.31L496.36,300.2L501.82,299.05L507.27,300.26L518.18,298.81L523.64,298.84L529.09,299.1L534.55,298.48L540,298.29" style="vector-effect: non-scaling-stroke; fill: none; stroke: rgb(0, 191, 125); stroke-opacity: 1; stroke-width: 2px; opacity: 1;"/></g><g class="points"/><g class="text"/></g><g class="trace scatter tracec82030" style="stroke-miterlimit: 2; opacity: 1;"><g class="fills"/><g class="errorbars"/><g class="lines"><path class="js-line" d="M0,16.16L10.91,23.79L16.36,26.55L21.82,30L27.27,34.44L38.18,45.25L43.64,51.49L54.55,67.93L60,77.79L70.91,101.24L76.36,113.56L98.18,163.85L103.64,175.62L114.55,197.13L120,207.18L130.91,225.45L136.36,233.58L147.27,247.06L152.73,253.26L163.64,263.42L169.09,267.97L174.55,272.64L180,275.85L201.82,286.84L207.27,288.22L212.73,290.3L218.18,291.49L229.09,294.99L234.55,295.45L240,297.07L245.45,297.25L256.36,299.32L261.82,299.2L294.55,302.27L300,302.02L321.82,302.73L327.27,302.53L354.55,302.77L360,302.04L365.45,302.99L370.91,302.52L376.36,302.76L381.82,301.93L392.73,302.47L398.18,301.96L409.09,301.74L414.55,301.42L420,300.66L425.45,302.64L436.36,301.82L441.82,300.43L452.73,301.66L458.18,301.08L463.64,301.55L469.09,300.71L474.55,301.03L480,300.4L485.45,299.03L490.91,300.64L518.18,299.8L523.64,299.01L529.09,298.38L534.55,299.23L540,299.03" style="vector-effect: non-scaling-stroke; fill: none; stroke: rgb(0, 176, 246); stroke-opacity: 1; stroke-width: 2px; opacity: 1;"/></g><g class="points"/><g class="text"/></g><g class="trace scatter tracedac260" style="stroke-miterlimit: 2; opacity: 1;"><g class="fills"/><g class="errorbars"/><g class="lines"><path class="js-line" d="M0,16.18L10.91,23.79L16.36,26.45L27.27,34.71L32.73,39.69L38.18,45.1L43.64,51.64L49.09,58.99L54.55,68.04L60,77.63L65.45,88.93L87.27,138.92L92.73,151.92L109.09,187.64L114.55,198.25L125.45,217.6L130.91,225.79L136.36,234.11L141.82,240.94L152.73,253.58L158.18,259.24L174.55,272.18L180,275.83L196.36,284.19L201.82,286.21L218.18,291.98L223.64,292.67L234.55,295.96L240,296.46L245.45,296.93L250.91,298.63L300,301.82L305.45,301.11L310.91,301.98L316.36,301.61L321.82,302.53L327.27,302.37L343.64,302.96L349.09,302.01L365.45,301.95L370.91,303.28L381.82,302.33L387.27,303.18L398.18,301.38L403.64,302.03L409.09,301.35L414.55,302.03L425.45,301.91L430.91,301.93L436.36,300.65L441.82,301.19L452.73,301.31L458.18,301L469.09,300.1L474.55,300.89L485.45,299.59L490.91,301.11L507.27,299.46L512.73,300.38L518.18,298.22L523.64,299.95L529.09,299.2L534.55,299.29L540,298.49" style="vector-effect: non-scaling-stroke; fill: none; stroke: rgb(231, 107, 243); stroke-opacity: 1; stroke-width: 2px; opacity: 1;"/></g><g class="points"/><g class="text"/></g><g class="trace scatter trace6727e0" style="stroke-miterlimit: 2; opacity: 1;"><g class="fills"/><g class="errorbars"/><g class="lines"><path class="js-line" d="M0,16.18L16.36,26.33L21.82,29.79L32.73,39.07L38.18,44.53L49.09,58.26L54.55,66.69L65.45,87.1L70.91,98.72L109.09,184.77L114.55,195.33L125.45,215.12L130.91,223.92L141.82,239.8L147.27,246.56L158.18,258.01L163.64,263.51L174.55,272.48L180,275.83L196.36,284.18L201.82,286.39L218.18,291.71L223.64,292.98L229.09,294.45L234.55,295.05L240,296.54L245.45,296.91L261.82,299.26L267.27,299.63L278.18,300.8L283.64,300.37L289.09,301.42L294.55,301.63L316.36,301.81L321.82,302.81L338.18,301.91L343.64,302.67L349.09,301.59L354.55,302.43L360,301.8L365.45,302L381.82,301.69L387.27,301.56L392.73,301.44L398.18,302.54L430.91,301.11L436.36,302L441.82,300.89L447.27,301.66L458.18,300.58L463.64,301.58L469.09,301.6L474.55,300.41L480,300.69L485.45,300.07L496.36,300.39L501.82,299.35L507.27,299.87L512.73,298.24L518.18,299.04L523.64,299.05L529.09,300.47L534.55,299.85L540,299.43" style="vector-effect: non-scaling-stroke; fill: none; stroke: rgb(248, 118, 109); stroke-opacity: 1; stroke-width: 2px; opacity: 1;"/></g><g class="points"/><g class="text"/></g><g class="trace scatter trace1f8239" style="stroke-miterlimit: 2; opacity: 1;"><g class="fills"/><g class="errorbars"/><g class="lines"><path class="js-line" d="M0,16.04L10.91,23.69L16.36,26.47L21.82,30.09L27.27,34.75L38.18,44.66L43.64,51L54.55,67.05L60,77.2L70.91,100.2L76.36,112.64L98.18,163.88L103.64,175.87L114.55,198.63L120,208.66L125.45,218.73L130.91,226.67L136.36,235.51L141.82,242.66L152.73,255.71L158.18,260.69L169.09,270.75L174.55,274L185.45,280.66L190.91,283.72L207.27,290.21L212.73,291.45L218.18,293.18L223.64,293.38L234.55,296.54L240,297.22L245.45,299.04L250.91,299.29L272.73,301.18L278.18,301.74L283.64,301.92L289.09,301.33L294.55,302.42L300,302.07L305.45,302.04L310.91,302.88L343.64,302.36L349.09,303.2L365.45,302.52L370.91,303.21L376.36,303.24L381.82,302.29L414.55,302.46L420,301.65L430.91,302.06L436.36,301.04L441.82,301.35L447.27,300.42L452.73,301.5L458.18,300.78L463.64,301.99L469.09,301.08L480,300.02L485.45,300.95L496.36,300.56L501.82,299.4L518.18,300.69L523.64,297.95L529.09,299.36L534.55,298.71L540,300" style="vector-effect: non-scaling-stroke; fill: none; stroke: rgb(163, 165, 0); stroke-opacity: 1; stroke-width: 2px; opacity: 1;"/></g><g class="points"/><g class="text"/></g><g class="trace scatter trace7cbd7d" style="stroke-miterlimit: 2; opacity: 1;"><g class="fills"/><g class="errorbars"/><g class="lines"><path class="js-line" d="M0,16.09L10.91,23.86L16.36,26.37L27.27,33.85L32.73,38.84L38.18,44.06L43.64,50.88L49.09,58.19L54.55,67.21L60,76.89L65.45,88.19L76.36,112.55L81.82,125.03L103.64,174.68L109.09,185.95L120,206.57L125.45,215.81L136.36,232.02L141.82,239.52L147.27,246.5L152.73,251.91L158.18,258.02L163.64,262.75L174.55,271.17L180,274.55L196.36,283.77L201.82,285.8L207.27,286.8L212.73,289.96L223.64,291.6L229.09,293.69L245.45,296.83L250.91,297.31L256.36,298.43L261.82,298.77L267.27,298.6L272.73,299.21L278.18,300.46L283.64,299.35L289.09,299.57L294.55,300.92L305.45,301.23L310.91,301.86L321.82,301.34L327.27,302.12L332.73,301.35L338.18,301.86L343.64,301.67L349.09,302.28L376.36,301.7L381.82,302.47L392.73,302.04L398.18,301.12L403.64,300.13L409.09,302.16L452.73,300.5L458.18,300.48L469.09,300.32L474.55,299.3L480,300.01L485.45,299.51L490.91,299L496.36,299.43L501.82,299.6L507.27,298.43L512.73,297.88L518.18,298.29L523.64,299.96L529.09,298.35L540,297.79" style="vector-effect: non-scaling-stroke; fill: none; stroke: rgb(0, 191, 125); stroke-opacity: 1; stroke-width: 2px; opacity: 1;"/></g><g class="points"/><g class="text"/></g><g class="trace scatter trace43cab2" style="stroke-miterlimit: 2; opacity: 1;"><g class="fills"/><g class="errorbars"/><g class="lines"><path class="js-line" d="M0,16.23L10.91,23.98L16.36,26.6L27.27,34.46L32.73,39.32L43.64,51.44L49.09,58.86L60,77.49L65.45,88.27L81.82,124.94L87.27,137.51L103.64,174.22L109.09,185.4L125.45,215.46L130.91,223.95L141.82,239.29L147.27,245.74L163.64,262.31L169.09,266.63L180,274.06L185.45,277.47L190.91,279.7L196.36,282.93L207.27,287.21L212.73,288.79L223.64,291.93L229.09,293.1L240,295.06L245.45,296.07L250.91,296.22L256.36,297.84L261.82,298.58L267.27,298.18L278.18,300.19L283.64,299.78L289.09,299.49L294.55,300.59L310.91,301.42L316.36,300.62L327.27,300.8L332.73,301.82L343.64,301.62L349.09,300.48L360,301.23L365.45,301.04L376.36,301.42L381.82,300.33L387.27,301.48L392.73,300.85L420,300.61L425.45,299.59L430.91,300.52L436.36,300L447.27,300.92L452.73,300.05L469.09,300.67L474.55,298.94L480,298.24L485.45,298.89L512.73,298L518.18,298.05L529.09,298.38L534.55,297.24L540,297.7" style="vector-effect: non-scaling-stroke; fill: none; stroke: rgb(0, 176, 246); stroke-opacity: 1; stroke-width: 2px; opacity: 1;"/></g><g class="points"/><g class="text"/></g><g class="trace scatter trace9509e3" style="stroke-miterlimit: 2; opacity: 1;"><g class="fills"/><g class="errorbars"/><g class="lines"><path class="js-line" d="M0,16.3L21.82,30.02L27.27,34.45L38.18,45.23L43.64,51.93L54.55,68.53L60,78.51L76.36,113.99L81.82,126.3L103.64,176.08L109.09,187.34L120,207.44L125.45,216.98L136.36,234.16L141.82,240.96L158.18,259.98L163.64,264.03L174.55,272.93L180,276.25L190.91,282.56L196.36,284.96L201.82,286.6L207.27,289.12L218.18,292.05L223.64,293.38L234.55,295.23L240,297.2L283.64,301.69L289.09,300.49L305.45,302.04L310.91,301.69L316.36,300.86L321.82,301.54L327.27,302.8L332.73,302.16L338.18,301.76L343.64,302.16L349.09,301.39L354.55,302.06L365.45,301.54L370.91,302.86L381.82,301.94L387.27,301.57L398.18,301.91L403.64,301.1L409.09,301.8L414.55,301.44L420,300.69L425.45,300.95L430.91,300.48L436.36,301.11L452.73,300.18L458.18,299.15L463.64,298.51L469.09,300.81L474.55,298.9L480,299.68L485.45,299.11L490.91,299.39L507.27,299.38L512.73,299.08L529.09,298.31L534.55,296.9L540,298.13" style="vector-effect: non-scaling-stroke; fill: none; stroke: rgb(231, 107, 243); stroke-opacity: 1; stroke-width: 2px; opacity: 1;"/></g><g class="points"/><g class="text"/></g><g class="trace scatter trace68ee07" style="stroke-miterlimit: 2; opacity: 1;"><g class="fills"/><g class="errorbars"/><g class="lines"><path class="js-line" d="M0,16.09L10.91,23.88L16.36,26.62L27.27,34.54L32.73,39.31L43.64,51.45L49.09,59.02L54.55,67.38L60,77.26L76.36,112.32L81.82,124.53L92.73,149.6L98.18,161.14L109.09,184.33L114.55,194.74L130.91,222.37L136.36,230.37L152.73,249.93L158.18,255.37L169.09,264.56L174.55,268.67L190.91,278.8L196.36,281.19L207.27,285.83L212.73,287.89L229.09,292.19L234.55,292.92L245.45,294.79L250.91,295.5L256.36,295.76L261.82,297.05L267.27,298.25L272.73,298.44L294.55,299.4L300,299.22L305.45,299.87L310.91,299.73L321.82,300.44L327.27,300.57L332.73,300.33L338.18,301.3L343.64,300.13L349.09,300.66L354.55,300.45L360,301.06L370.91,299.61L376.36,300.84L392.73,299.82L398.18,300.58L409.09,298.97L414.55,300.07L430.91,299.64L436.36,298.92L480,298.92L485.45,298.26L496.36,297.52L501.82,297.64L507.27,296.94L512.73,298.19L518.18,298.71L523.64,297.47L529.09,297L534.55,297.36L540,298.94" style="vector-effect: non-scaling-stroke; fill: none; stroke: rgb(248, 118, 109); stroke-opacity: 1; stroke-width: 2px; opacity: 1;"/></g><g class="points"/><g class="text"/></g><g class="trace scatter trace8c9504" style="stroke-miterlimit: 2; opacity: 1;"><g class="fills"/><g class="errorbars"/><g class="lines"><path class="js-line" d="M0,16.19L5.45,19.15L10.91,23.65L16.36,26.17L21.82,29.84L32.73,39.08L38.18,44.41L49.09,57.99L54.55,66.83L60,76.02L65.45,86.97L76.36,110.49L81.82,122.94L109.09,182.72L114.55,192.86L125.45,211.98L130.91,220.38L141.82,235.67L147.27,242.81L163.64,259.42L169.09,264L185.45,275.03L190.91,278.14L196.36,281.04L201.82,282.83L212.73,286.93L218.18,288.49L223.64,291.02L229.09,292.13L245.45,295.05L250.91,296.11L272.73,298.56L278.18,298.4L283.64,299.16L289.09,298.56L294.55,300.14L300,299.49L310.91,300.27L316.36,300.37L321.82,299.26L327.27,300.83L332.73,300.51L338.18,301.93L343.64,300.65L349.09,301.18L360,301.13L365.45,299.88L376.36,301.68L381.82,300.82L403.64,300.74L409.09,301L414.55,300.1L420,301.14L436.36,299.8L441.82,300.22L447.27,299.5L452.73,299.9L469.09,300.1L474.55,299.54L480,299.7L485.45,298.01L496.36,299.21L501.82,298.18L512.73,298.4L518.18,298.2L523.64,298.65L529.09,297.9L534.55,298.76L540,297.9" style="vector-effect: non-scaling-stroke; fill: none; stroke: rgb(163, 165, 0); stroke-opacity: 1; stroke-width: 2px; opacity: 1;"/></g><g class="points"/><g class="text"/></g><g class="trace scatter traceff9494" style="stroke-miterlimit: 2; opacity: 1;"><g class="fills"/><g class="errorbars"/><g class="lines"><path class="js-line" d="M0,16.26L10.91,24.02L16.36,26.95L27.27,34.94L32.73,39.84L43.64,52.13L49.09,59.77L60,78.84L65.45,90.24L81.82,127.73L87.27,140.53L103.64,177.51L109.09,188.57L125.45,218.8L130.91,227.51L141.82,242.53L147.27,249.13L158.18,261.11L163.64,265.89L169.09,270.62L174.55,274.32L190.91,283.52L196.36,285.63L201.82,288.71L207.27,290.3L218.18,292.46L223.64,293.34L229.09,295.95L234.55,297.15L256.36,299.18L261.82,300.08L272.73,300.67L278.18,301.73L283.64,301.33L289.09,302.2L300,302.51L305.45,301.69L321.82,302.47L327.27,302.41L332.73,302.95L338.18,302.02L349.09,302.66L354.55,302.94L360,302.4L365.45,302.71L370.91,301.54L376.36,302.96L387.27,302.7L392.73,301.92L398.18,302.32L403.64,301.92L409.09,303L414.55,301.48L425.45,301.69L430.91,300.95L436.36,301.63L441.82,301.1L452.73,300.61L458.18,301.46L463.64,300.05L469.09,300.83L474.55,301.4L480,300.54L485.45,299.95L490.91,300.22L496.36,300.96L501.82,300.38L507.27,299.58L512.73,300.62L518.18,299.47L523.64,299.62L529.09,299.67L534.55,298.91L540,299.43" style="vector-effect: non-scaling-stroke; fill: none; stroke: rgb(0, 191, 125); stroke-opacity: 1; stroke-width: 2px; opacity: 1;"/></g><g class="points"/><g class="text"/></g><g class="trace scatter trace7582d8" style="stroke-miterlimit: 2; opacity: 1;"><g class="fills"/><g class="errorbars"/><g class="lines"><path class="js-line" d="M0,16.32L10.91,23.72L16.36,26.57L27.27,34.68L32.73,39.49L43.64,50.78L49.09,58.2L60,76.4L65.45,87.09L81.82,123.83L87.27,136.85L109.09,184.96L114.55,195.85L125.45,215.37L130.91,224.09L141.82,239.31L147.27,246.46L158.18,257.28L163.64,262.32L180,274.98L185.45,277.77L190.91,281.17L196.36,282.58L207.27,287.75L212.73,288.69L218.18,291.41L223.64,292.55L229.09,293.3L234.55,295.08L240,295.04L245.45,295.84L250.91,297.14L256.36,297.53L283.64,299.95L289.09,300.51L294.55,300.47L300,301.29L305.45,300.22L310.91,301.1L316.36,300.46L321.82,300.76L338.18,301.4L343.64,300.63L354.55,301.25L360,301.41L365.45,301.62L370.91,300.9L376.36,300.71L381.82,301.96L403.64,300.26L409.09,301.6L414.55,300.05L420,299.75L425.45,300.71L430.91,300.36L441.82,298.53L447.27,299.1L458.18,299.63L463.64,299.94L469.09,298.47L474.55,298.34L496.36,297.79L501.82,299.14L512.73,299.66L518.18,297.71L523.64,298.03L529.09,297.47L534.55,296.68L540,297.81" style="vector-effect: non-scaling-stroke; fill: none; stroke: rgb(0, 176, 246); stroke-opacity: 1; stroke-width: 2px; opacity: 1;"/></g><g class="points"/><g class="text"/></g><g class="trace scatter trace0d77e3" style="stroke-miterlimit: 2; opacity: 1;"><g class="fills"/><g class="errorbars"/><g class="lines"><path class="js-line" d="M0,16.02L10.91,23.82L16.36,26.43L21.82,29.66L27.27,34.1L32.73,38.75L38.18,44.45L43.64,50.78L49.09,58.38L60,76.81L65.45,87.82L81.82,124.06L87.27,137.04L103.64,174.12L109.09,185.8L125.45,216.5L130.91,225.35L147.27,247.87L152.73,253.7L163.64,264.28L169.09,268.44L180,276.5L185.45,280.21L207.27,290.36L212.73,291.07L234.55,296.19L240,297.32L272.73,301.3L278.18,301.08L289.09,301.11L294.55,301.86L305.45,302.4L310.91,302.35L321.82,302.96L327.27,302.18L354.55,302.57L360,303.59L365.45,303.8L370.91,303.14L392.73,302.64L398.18,301.99L414.55,302.14L420,301.74L436.36,301.92L441.82,301.11L458.18,301.07L463.64,300.41L490.91,301.68L496.36,300.7L512.73,299.46L518.18,300.12L523.64,299.88L529.09,301.01L540,298.81" style="vector-effect: non-scaling-stroke; fill: none; stroke: rgb(231, 107, 243); stroke-opacity: 1; stroke-width: 2px; opacity: 1;"/></g><g class="points"/><g class="text"/></g><g class="trace scatter trace948348" style="stroke-miterlimit: 2; opacity: 1;"><g class="fills"/><g class="errorbars"/><g class="lines"><path class="js-line" d="M0,16.06L10.91,23.61L16.36,26.1L27.27,34.22L32.73,39L38.18,44.42L43.64,50.95L49.09,58.25L54.55,66.82L65.45,87.92L70.91,100.09L109.09,185.83L114.55,196.88L125.45,216.24L130.91,224.86L141.82,240.45L147.27,246.74L152.73,253.33L158.18,258.69L174.55,271.97L180,275.72L190.91,281.8L196.36,283.81L212.73,289.81L218.18,291.32L223.64,292.32L229.09,294.28L256.36,299.14L261.82,298.82L289.09,301.44L294.55,300.95L305.45,301.87L310.91,301.5L338.18,302.64L343.64,301.62L354.55,302.86L360,302.48L365.45,303.01L370.91,302.23L381.82,301.63L387.27,302.57L403.64,302.8L409.09,301.7L420,301.31L425.45,302.27L430.91,301.16L436.36,301.17L441.82,301.82L447.27,300.33L458.18,301.04L463.64,299.92L474.55,300.66L480,300.05L490.91,300.01L496.36,299.96L507.27,300.48L512.73,299.77L534.55,298.64L540,298.03" style="vector-effect: non-scaling-stroke; fill: none; stroke: rgb(248, 118, 109); stroke-opacity: 1; stroke-width: 2px; opacity: 1;"/></g><g class="points"/><g class="text"/></g><g class="trace scatter trace124ba9" style="stroke-miterlimit: 2; opacity: 1;"><g class="fills"/><g class="errorbars"/><g class="lines"><path class="js-line" d="M0,16.28L10.91,23.76L16.36,26.23L21.82,29.66L27.27,34.19L32.73,39L38.18,44.91L49.09,59.15L54.55,68.18L65.45,89.95L70.91,102.06L103.64,178.35L109.09,189.16L120,210.42L125.45,219.47L136.36,236.09L141.82,243.6L152.73,256.47L158.18,261.65L174.55,274.45L180,277.92L201.82,288L207.27,289.98L223.64,294.26L229.09,294.75L234.55,296.43L240,297.02L256.36,299.35L261.82,299.82L283.64,300.76L289.09,301.68L300,301.61L305.45,302.42L310.91,301.72L316.36,302.61L321.82,301.99L327.27,302.76L338.18,302.3L343.64,302.71L354.55,301.89L360,302.32L365.45,302.49L370.91,301.87L381.82,302.65L387.27,302.62L398.18,301.9L403.64,302.28L409.09,301.56L414.55,301.67L420,301.96L425.45,301.4L430.91,301.97L436.36,301.23L441.82,300.93L447.27,301.89L452.73,301.23L458.18,301.46L463.64,302.08L469.09,300.13L474.55,300.88L480,300.59L496.36,300.27L501.82,299.97L507.27,298.87L512.73,298.97L529.09,299.69L534.55,298.9L540,299.1" style="vector-effect: non-scaling-stroke; fill: none; stroke: rgb(163, 165, 0); stroke-opacity: 1; stroke-width: 2px; opacity: 1;"/></g><g class="points"/><g class="text"/></g><g class="trace scatter trace6d49cf" style="stroke-miterlimit: 2; opacity: 1;"><g class="fills"/><g class="errorbars"/><g class="lines"><path class="js-line" d="M0,16.13L10.91,23.8L16.36,26.56L21.82,29.92L27.27,34.34L38.18,45.39L43.64,51.59L54.55,67.98L60,78.3L70.91,101.11L76.36,113.48L103.64,175.94L109.09,187.55L125.45,217.3L130.91,225.71L141.82,241.07L147.27,248.01L163.64,264.3L169.09,268.3L180,276.36L185.45,279.71L201.82,287.58L207.27,288.86L218.18,291.89L223.64,293.56L234.55,294.85L240,296.58L250.91,298.27L256.36,298.03L267.27,299.4L272.73,299.82L278.18,299.92L283.64,300.92L294.55,300.94L300,301.63L305.45,302.68L310.91,301.8L316.36,302.54L321.82,301.63L327.27,301.94L332.73,303.16L354.55,301.72L360,303.17L365.45,302.58L370.91,301.22L376.36,302.78L381.82,301.98L420,301.64L425.45,302.12L452.73,300.52L458.18,300.42L469.09,300.31L474.55,301.06L490.91,300.01L496.36,300.24L507.27,300.52L512.73,298.49L518.18,299.18L523.64,298.18L529.09,299.63L534.55,298.59L540,299.17" style="vector-effect: non-scaling-stroke; fill: none; stroke: rgb(0, 191, 125); stroke-opacity: 1; stroke-width: 2px; opacity: 1;"/></g><g class="points"/><g class="text"/></g><g class="trace scatter trace4a55be" style="stroke-miterlimit: 2; opacity: 1;"><g class="fills"/><g class="errorbars"/><g class="lines"><path class="js-line" d="M0,16.05L10.91,23.9L16.36,26.6L27.27,34.89L32.73,40.12L43.64,52.24L49.09,59.52L60,78.6L65.45,89.82L81.82,127.26L87.27,139.82L103.64,176.76L109.09,188.05L125.45,217.37L130.91,226.32L147.27,248.33L152.73,253.94L163.64,264.44L169.09,268.14L174.55,272.64L180,275.65L185.45,278.95L190.91,281.32L196.36,284.46L201.82,286.34L212.73,291.05L218.18,291.54L223.64,293.64L229.09,294.33L240,296.04L245.45,296.83L256.36,298.87L261.82,298.87L272.73,299.53L278.18,300.62L289.09,300.36L294.55,300.75L300,301.66L305.45,300.76L316.36,302L321.82,300.96L338.18,302.18L343.64,302.04L354.55,302.48L360,301.99L365.45,301.49L370.91,302.53L381.82,300.89L387.27,302.6L409.09,301.39L414.55,301.94L425.45,302.13L430.91,301.08L436.36,300.84L441.82,301.69L447.27,301.82L452.73,301.07L469.09,300.18L474.55,300.7L480,300.83L485.45,299.33L496.36,299.56L501.82,299.09L512.73,300.33L518.18,299.65L523.64,300.03L529.09,298.67L534.55,299.2L540,298.17" style="vector-effect: non-scaling-stroke; fill: none; stroke: rgb(0, 176, 246); stroke-opacity: 1; stroke-width: 2px; opacity: 1;"/></g><g class="points"/><g class="text"/></g><g class="trace scatter tracefa92ae" style="stroke-miterlimit: 2; opacity: 1;"><g class="fills"/><g class="errorbars"/><g class="lines"><path class="js-line" d="M0,16.15L16.36,26.52L21.82,29.94L32.73,38.85L38.18,44.2L49.09,57.55L54.55,65.84L65.45,86.14L70.91,97.79L109.09,182.47L114.55,192.77L125.45,212.53L130.91,221.17L141.82,236.96L147.27,243.3L158.18,255.15L163.64,260.73L185.45,276.47L190.91,279.32L196.36,281.12L201.82,284.08L212.73,288.11L218.18,289.29L240,294.75L245.45,295.02L261.82,298.13L267.27,297.77L278.18,298.41L283.64,299.5L289.09,300.54L294.55,299.76L305.45,300.51L310.91,300.8L316.36,300.49L321.82,301.22L327.27,300.71L332.73,301.68L354.55,300.92L360,301.46L392.73,301.23L398.18,301.63L403.64,300.8L409.09,301.05L420,300.37L425.45,301.09L441.82,298.87L447.27,300.89L452.73,299.4L458.18,300.1L463.64,300.48L469.09,299.95L474.55,300.35L480,299.95L485.45,298.76L490.91,299.73L518.18,298.31L523.64,298.79L540,297.77" style="vector-effect: non-scaling-stroke; fill: none; stroke: rgb(231, 107, 243); stroke-opacity: 1; stroke-width: 2px; opacity: 1;"/></g><g class="points"/><g class="text"/></g><g class="trace scatter traceaff91b" style="stroke-miterlimit: 2; opacity: 1;"><g class="fills"/><g class="errorbars"/><g class="lines"><path class="js-line" d="M0,16.33L10.91,23.96L16.36,26.77L27.27,34.35L32.73,39.28L38.18,44.77L43.64,51.43L54.55,67.83L60,77.73L70.91,100.39L76.36,112.48L98.18,163.21L103.64,174.83L114.55,196.65L120,207.2L130.91,225.58L136.36,233.36L147.27,247.95L152.73,253.94L163.64,264.49L169.09,268.91L180,276.73L185.45,279.28L196.36,285.63L201.82,287.29L207.27,288.41L212.73,291.2L223.64,294.29L229.09,295.25L261.82,300.51L267.27,299.9L272.73,301.2L278.18,300.52L289.09,301.64L294.55,301.69L300,302.77L305.45,302.37L310.91,302.17L316.36,303.61L321.82,302.7L327.27,302.94L338.18,303.34L343.64,303.86L354.55,302.77L360,303.38L365.45,301.86L370.91,302.48L376.36,302.19L381.82,303.11L398.18,301.98L403.64,303.48L409.09,302.59L414.55,302.47L420,301.72L425.45,302.13L430.91,301.91L436.36,302.61L441.82,301.26L447.27,301.38L458.18,301.52L463.64,300.21L474.55,301.16L480,300.31L496.36,300.35L501.82,300.19L529.09,300.01L534.55,297.84L540,298.99" style="vector-effect: non-scaling-stroke; fill: none; stroke: rgb(248, 118, 109); stroke-opacity: 1; stroke-width: 2px; opacity: 1;"/></g><g class="points"/><g class="text"/></g><g class="trace scatter tracebc71be" style="stroke-miterlimit: 2; opacity: 1;"><g class="fills"/><g class="errorbars"/><g class="lines"><path class="js-line" d="M0,16.17L10.91,23.78L16.36,26.67L27.27,34.45L32.73,39.28L43.64,51.28L49.09,59.3L60,78.62L65.45,90.08L92.73,153.89L98.18,167.06L114.55,201.63L120,211.39L125.45,221.35L130.91,229.33L141.82,245.3L147.27,251.47L158.18,262.98L163.64,267.91L174.55,276.1L180,279.27L190.91,285.29L196.36,287.39L201.82,288.9L207.27,291.29L212.73,293.47L218.18,294.2L229.09,297.27L234.55,297.58L256.36,300.63L261.82,300.15L267.27,301.44L272.73,301.56L283.64,302.23L289.09,302.89L294.55,302.23L300,303L305.45,301.93L310.91,302.98L327.27,303.44L332.73,303.43L354.55,303.13L360,303.34L376.36,303.99L381.82,302.21L398.18,303.19L403.64,302.53L414.55,302.73L420,302.34L425.45,303.53L430.91,302.49L452.73,301.41L458.18,301.78L463.64,302.12L469.09,300.78L474.55,301.38L480,300.82L485.45,300.07L490.91,301.09L496.36,299.71L501.82,300.85L507.27,300.24L512.73,301.23L518.18,301.19L523.64,298.88L534.55,299.67L540,299.89" style="vector-effect: non-scaling-stroke; fill: none; stroke: rgb(163, 165, 0); stroke-opacity: 1; stroke-width: 2px; opacity: 1;"/></g><g class="points"/><g class="text"/></g><g class="trace scatter trace37b69e" style="stroke-miterlimit: 2; opacity: 1;"><g class="fills"/><g class="errorbars"/><g class="lines"><path class="js-line" d="M0,16.13L10.91,23.6L16.36,26.27L21.82,29.69L27.27,34.21L38.18,44.38L43.64,50.57L54.55,66.94L60,76.68L70.91,99.96L76.36,112.88L109.09,188.4L114.55,199.29L130.91,227.38L136.36,235.63L147.27,249.1L152.73,255.67L169.09,270.64L174.55,274.12L190.91,283.93L196.36,285.95L212.73,292.02L218.18,292.82L229.09,296.34L234.55,295.68L250.91,298.74L256.36,298.65L267.27,300.44L272.73,300.28L278.18,301.15L283.64,300.39L289.09,301.8L294.55,302.34L310.91,301.52L316.36,302.92L321.82,302.04L327.27,302.55L349.09,301.91L354.55,302.61L365.45,302.71L370.91,301.68L387.27,302.16L392.73,300.99L398.18,302.19L403.64,301.19L409.09,301.8L414.55,301.56L420,300.76L425.45,301.66L430.91,300.56L436.36,300.29L458.18,300.11L463.64,301.01L474.55,299.59L480,299.68L485.45,300.39L490.91,300.13L496.36,298.99L501.82,299.61L523.64,298.53L529.09,298.74L540,297.42" style="vector-effect: non-scaling-stroke; fill: none; stroke: rgb(0, 191, 125); stroke-opacity: 1; stroke-width: 2px; opacity: 1;"/></g><g class="points"/><g class="text"/></g><g class="trace scatter trace42b200" style="stroke-miterlimit: 2; opacity: 1;"><g class="fills"/><g class="errorbars"/><g class="lines"><path class="js-line" d="M0,16.08L10.91,23.99L16.36,26.94L27.27,34.95L32.73,39.76L38.18,45.1L43.64,51.57L54.55,67.49L60,77.33L70.91,99.81L76.36,112.05L103.64,173.32L109.09,184.36L120,204.4L125.45,213.48L136.36,230.63L141.82,237.89L158.18,256.23L163.64,260.99L174.55,269.69L180,272.82L185.45,275.77L190.91,279.85L218.18,289.97L223.64,291.43L229.09,292.02L234.55,293.74L240,294.82L245.45,294.89L250.91,296.61L256.36,297.33L278.18,298.67L283.64,299.66L289.09,299.06L294.55,299.46L316.36,300.87L321.82,300.16L332.73,300.99L338.18,300.33L343.64,300.72L349.09,300.03L354.55,300.76L360,300.58L365.45,300.37L370.91,301.26L376.36,301L381.82,299.58L387.27,300.57L392.73,299.8L409.09,300.16L414.55,300.89L425.45,300.78L430.91,299.31L436.36,300.34L441.82,299.51L452.73,299.7L458.18,298.72L463.64,299.82L469.09,299.26L490.91,298.4L496.36,298.79L501.82,298.9L507.27,297.77L518.18,298.2L523.64,297.64L529.09,296.74L534.55,297.68L540,298.55" style="vector-effect: non-scaling-stroke; fill: none; stroke: rgb(0, 176, 246); stroke-opacity: 1; stroke-width: 2px; opacity: 1;"/></g><g class="points"/><g class="text"/></g><g class="trace scatter trace008415" style="stroke-miterlimit: 2; opacity: 1;"><g class="fills"/><g class="errorbars"/><g class="lines"><path class="js-line" d="M0,16.26L10.91,23.83L16.36,26.68L27.27,34.79L32.73,39.69L38.18,45.07L43.64,51.97L49.09,59.53L54.55,68.46L65.45,89.34L70.91,101.63L103.64,177.02L109.09,188.36L120,208.95L125.45,218.21L136.36,234.91L141.82,241.96L152.73,255.09L158.18,260.34L174.55,273.61L180,277.14L185.45,280.33L190.91,282.59L196.36,285.49L201.82,287.12L207.27,289.92L212.73,291.39L218.18,292.32L223.64,294.49L229.09,295.25L234.55,296.96L250.91,298.41L256.36,299.26L267.27,299.89L272.73,300.63L283.64,301.85L289.09,301.19L310.91,303.32L316.36,302.63L354.55,302.56L360,302.13L370.91,302.44L376.36,302.05L381.82,302.85L387.27,302.43L398.18,301.94L403.64,302.25L414.55,302.4L420,301.43L430.91,300.84L436.36,301.92L441.82,300.09L447.27,301.22L452.73,300.89L458.18,301.66L463.64,300.66L469.09,300.78L474.55,299.13L480,299.11L485.45,300.59L490.91,300.55L501.82,299.51L507.27,299.53L512.73,300.15L518.18,299.34L523.64,298.73L529.09,299.33L540,298.33" style="vector-effect: non-scaling-stroke; fill: none; stroke: rgb(231, 107, 243); stroke-opacity: 1; stroke-width: 2px; opacity: 1;"/></g><g class="points"/><g class="text"/></g><g class="trace scatter trace3e03a6" style="stroke-miterlimit: 2; opacity: 1;"><g class="fills"/><g class="errorbars"/><g class="lines"><path class="js-line" d="M0,16.05L10.91,24.12L16.36,27.21L32.73,40.09L38.18,45.57L49.09,59.36L54.55,68.06L65.45,88.83L70.91,100.48L109.09,184.87L114.55,195.79L125.45,214.45L130.91,223.57L141.82,238.93L147.27,245.23L152.73,251.52L158.18,256.62L169.09,266.81L174.55,269.7L180,274.02L185.45,277.38L196.36,282.68L201.82,284.73L212.73,288.98L218.18,289.8L229.09,292.84L234.55,293.8L250.91,296.56L256.36,297.42L261.82,298.21L267.27,298.14L289.09,300.02L294.55,298.9L300,300.19L305.45,300.01L316.36,301.18L321.82,300.73L343.64,300.74L349.09,301.9L354.55,300.65L360,300.46L365.45,301.44L370.91,301.3L376.36,299.85L381.82,301.52L392.73,300.89L398.18,300.96L409.09,299.83L414.55,300.16L425.45,301.25L430.91,299.41L436.36,299.34L441.82,300.05L452.73,298.41L458.18,299.82L463.64,299.15L469.09,299.5L485.45,298.95L490.91,299.2L507.27,298.68L512.73,297.34L518.18,298.55L523.64,298.82L529.09,297.37L534.55,297.96L540,297.71" style="vector-effect: non-scaling-stroke; fill: none; stroke: rgb(248, 118, 109); stroke-opacity: 1; stroke-width: 2px; opacity: 1;"/></g><g class="points"/><g class="text"/></g><g class="trace scatter trace8ec629" style="stroke-miterlimit: 2; opacity: 1;"><g class="fills"/><g class="errorbars"/><g class="lines"><path class="js-line" d="M0,16.03L10.91,23.74L16.36,26.49L21.82,29.83L27.27,34.33L38.18,44.52L43.64,50.34L54.55,66.22L60,75.32L70.91,97.42L76.36,109.26L103.64,170.5L109.09,181.47L120,202.26L125.45,212.06L136.36,228.27L141.82,235.91L147.27,243.16L152.73,248.87L163.64,259.48L169.09,264.54L185.45,275.94L190.91,278.38L201.82,283.98L207.27,285.8L212.73,288.28L218.18,289.27L223.64,291.57L229.09,292.2L234.55,294.1L240,294.57L256.36,297.93L261.82,297.55L278.18,299.79L283.64,299.54L294.55,299.86L300,300.49L321.82,301.03L327.27,302.24L332.73,301.23L338.18,301.48L343.64,302.15L349.09,301.26L354.55,302.06L360,300.71L365.45,302.01L370.91,301.96L376.36,302.41L381.82,301.97L414.55,300.76L420,300.98L430.91,302.26L436.36,300.83L441.82,301.58L447.27,300.5L452.73,301L458.18,299.65L469.09,300.59L474.55,300.24L485.45,300.08L490.91,300.68L496.36,299.56L501.82,299.73L507.27,298.78L512.73,299.09L534.55,299.31L540,298.12" style="vector-effect: non-scaling-stroke; fill: none; stroke: rgb(163, 165, 0); stroke-opacity: 1; stroke-width: 2px; opacity: 1;"/></g><g class="points"/><g class="text"/></g><g class="trace scatter trace281db9" style="stroke-miterlimit: 2; opacity: 1;"><g class="fills"/><g class="errorbars"/><g class="lines"><path class="js-line" d="M0,16.11L10.91,23.74L16.36,26.58L21.82,30.2L27.27,34.73L38.18,44.89L43.64,51.2L49.09,58.88L54.55,67.9L65.45,89.01L70.91,101.07L103.64,177.38L109.09,188.92L120,209.94L125.45,219.18L141.82,242.41L147.27,249.25L158.18,260.65L163.64,265.22L174.55,273.5L180,276.67L190.91,283.08L196.36,285.21L218.18,291.95L223.64,293.15L234.55,296.08L240,296.48L245.45,297.16L250.91,298.6L256.36,298.24L261.82,299.04L267.27,300.1L272.73,299.92L289.09,300.85L294.55,300.59L305.45,301.37L310.91,301.5L327.27,301.75L332.73,302.45L360,301.79L365.45,302.12L370.91,301.56L376.36,301.78L392.73,301.87L398.18,300.48L409.09,301.29L414.55,301.36L420,300.69L425.45,300.95L430.91,301.35L436.36,300.12L441.82,301.58L447.27,300.31L452.73,300.25L458.18,301.3L463.64,300.07L469.09,300.13L480,299.36L485.45,299.87L496.36,298.76L501.82,299.15L507.27,299.67L512.73,298.55L523.64,299.65L529.09,298.81L540,297.86" style="vector-effect: non-scaling-stroke; fill: none; stroke: rgb(0, 191, 125); stroke-opacity: 1; stroke-width: 2px; opacity: 1;"/></g><g class="points"/><g class="text"/></g><g class="trace scatter trace10126d" style="stroke-miterlimit: 2; opacity: 1;"><g class="fills"/><g class="errorbars"/><g class="lines"><path class="js-line" d="M0,16.26L10.91,23.71L16.36,26.51L27.27,34.25L32.73,38.92L38.18,44.3L43.64,50.98L54.55,67.17L60,77.1L76.36,113.3L81.82,126.02L103.64,177.33L109.09,188.63L120,210.08L125.45,219.46L136.36,235.86L141.82,243.36L152.73,256.08L158.18,261.8L174.55,274.82L180,277.8L190.91,284.03L196.36,286.27L212.73,291.75L218.18,292.88L223.64,294.77L229.09,295.49L240,298.28L245.45,298.29L256.36,299.97L261.82,300.3L267.27,300.56L272.73,301.61L278.18,301.48L283.64,302.15L289.09,301.75L294.55,303.12L316.36,302.94L321.82,303.5L332.73,302.13L338.18,302.54L343.64,303.5L349.09,302.72L354.55,302.36L360,303.03L365.45,304L370.91,302.65L376.36,303.79L381.82,303.12L392.73,301.88L398.18,303.03L403.64,301.67L409.09,302.34L414.55,302.78L420,301.13L425.45,302.46L430.91,300.96L441.82,301.05L447.27,302.07L452.73,301.16L458.18,301.21L463.64,299.88L469.09,300.78L474.55,300.49L480,299.44L485.45,300.77L490.91,301.03L496.36,300.41L501.82,300.64L507.27,300.47L512.73,299.25L523.64,299.66L529.09,298.14L534.55,298.92L540,298.53" style="vector-effect: non-scaling-stroke; fill: none; stroke: rgb(0, 176, 246); stroke-opacity: 1; stroke-width: 2px; opacity: 1;"/></g><g class="points"/><g class="text"/></g><g class="trace scatter tracec9d3d5" style="stroke-miterlimit: 2; opacity: 1;"><g class="fills"/><g class="errorbars"/><g class="lines"><path class="js-line" d="M0,16.14L10.91,23.67L16.36,26.34L27.27,34.29L32.73,39.26L43.64,51.52L49.09,58.86L60,77.67L65.45,88.27L81.82,125.06L87.27,137.45L103.64,173.9L109.09,185.19L120,206.01L125.45,215.12L136.36,231.77L141.82,238.91L152.73,251.71L158.18,257.37L169.09,267.35L174.55,271.17L185.45,278.11L190.91,280.7L201.82,285.86L207.27,287.39L212.73,289.68L218.18,290.98L229.09,294.17L234.55,294.43L240,295.99L245.45,296.53L250.91,297.57L256.36,297.46L261.82,298.62L267.27,298.46L272.73,299.8L278.18,299.8L283.64,299.62L289.09,301.14L310.91,301.24L316.36,302.05L327.27,301.37L332.73,302.21L360,301.49L365.45,302.04L376.36,301.75L381.82,302.29L387.27,301.11L392.73,301.84L409.09,301.61L414.55,302.55L425.45,300.93L430.91,301.09L436.36,300.01L441.82,301.74L447.27,300.21L452.73,300.43L463.64,299.59L469.09,301.02L474.55,299.93L480,300.16L490.91,300.05L496.36,299.65L507.27,299.33L512.73,299.28L518.18,298.37L523.64,298.67L529.09,299.43L534.55,299.12L540,298.79" style="vector-effect: non-scaling-stroke; fill: none; stroke: rgb(231, 107, 243); stroke-opacity: 1; stroke-width: 2px; opacity: 1;"/></g><g class="points"/><g class="text"/></g><g class="trace scatter trace01d1c3" style="stroke-miterlimit: 2; opacity: 1;"><g class="fills"/><g class="errorbars"/><g class="lines"><path class="js-line" d="M0,16.31L10.91,23.85L16.36,26.61L27.27,34.36L32.73,39.03L43.64,50.97L49.09,58.48L54.55,66.93L60,77.04L70.91,99.66L76.36,111.89L103.64,174.45L109.09,185.93L120,207.42L125.45,216.13L136.36,232.83L141.82,239.98L152.73,252.85L158.18,258.72L174.55,271.73L180,275.51L190.91,281.54L196.36,284.47L212.73,290.38L218.18,291.79L223.64,293.92L229.09,294.86L272.73,300.97L278.18,300.7L289.09,301.77L294.55,301.23L300,302.17L305.45,302.05L316.36,302.29L321.82,303.03L327.27,302.39L332.73,303.32L338.18,302.63L343.64,303.21L354.55,302.25L360,303.1L370.91,302.94L376.36,302.69L398.18,303.25L403.64,302.44L414.55,302.74L420,301.94L430.91,302.12L436.36,302.45L441.82,301.64L447.27,302.18L452.73,301.9L458.18,302.48L463.64,301.88L469.09,300.47L474.55,301.27L480,300.44L485.45,301.42L490.91,301.33L496.36,301.59L501.82,299.55L512.73,300.31L518.18,299.79L523.64,300.47L529.09,299.16L534.55,299.02L540,300.7" style="vector-effect: non-scaling-stroke; fill: none; stroke: rgb(248, 118, 109); stroke-opacity: 1; stroke-width: 2px; opacity: 1;"/></g><g class="points"/><g class="text"/></g><g class="trace scatter trace6a661b" style="stroke-miterlimit: 2; opacity: 1;"><g class="fills"/><g class="errorbars"/><g class="lines"><path class="js-line" d="M0,16.18L21.82,29.78L27.27,34.27L32.73,38.85L38.18,44.42L49.09,58.28L54.55,67.23L65.45,88.28L70.91,100.38L109.09,187.11L114.55,197.68L125.45,217.06L130.91,225.89L147.27,247.81L152.73,253.7L158.18,259.26L163.64,263.67L174.55,271.94L180,275.65L196.36,283.98L201.82,286.74L212.73,289.91L218.18,291.26L250.91,298L256.36,298.08L261.82,299.17L267.27,299.44L272.73,299.13L278.18,300.55L300,301.91L305.45,300.62L316.36,301.61L321.82,301.9L327.27,301.64L332.73,302.18L349.09,301.96L354.55,302.84L365.45,302.02L370.91,302.22L381.82,303L387.27,301.38L398.18,301.44L403.64,301.4L430.91,301.1L436.36,302.58L441.82,301.76L447.27,300.1L463.64,301.12L469.09,300.59L474.55,299.89L480,300.1L485.45,299.95L490.91,298.93L501.82,300.22L507.27,298.7L529.09,298.02L534.55,298.7L540,298.44" style="vector-effect: non-scaling-stroke; fill: none; stroke: rgb(163, 165, 0); stroke-opacity: 1; stroke-width: 2px; opacity: 1;"/></g><g class="points"/><g class="text"/></g><g class="trace scatter trace4f2a97" style="stroke-miterlimit: 2; opacity: 1;"><g class="fills"/><g class="errorbars"/><g class="lines"><path class="js-line" d="M0,16.04L10.91,23.93L16.36,26.7L32.73,39.96L38.18,45.6L49.09,59.84L54.55,68.84L65.45,90.1L70.91,101.97L103.64,176.92L109.09,187.99L125.45,218.23L130.91,226.66L141.82,241.9L147.27,248.45L158.18,259.79L163.64,264.41L169.09,269.63L174.55,272.62L185.45,279.74L190.91,282.6L212.73,290.82L218.18,292.68L234.55,295.45L240,296.47L245.45,297.99L250.91,298.51L256.36,298.53L261.82,299.42L272.73,300.21L278.18,300.34L283.64,301.22L289.09,301.13L294.55,301L300,302.19L316.36,302.53L321.82,301.59L327.27,303.06L332.73,302.04L343.64,302.27L349.09,302.51L365.45,302.65L370.91,302.26L376.36,302.35L381.82,301.33L403.64,302.51L409.09,302.13L430.91,301.32L436.36,302.04L447.27,301.37L452.73,301L458.18,300.32L463.64,300.98L485.45,300.27L490.91,299.68L501.82,299.63L507.27,299.13L512.73,299.9L518.18,299.84L523.64,299.31L529.09,299.85L534.55,298.65L540,298.47" style="vector-effect: non-scaling-stroke; fill: none; stroke: rgb(0, 191, 125); stroke-opacity: 1; stroke-width: 2px; opacity: 1;"/></g><g class="points"/><g class="text"/></g><g class="trace scatter trace517224" style="stroke-miterlimit: 2; opacity: 1;"><g class="fills"/><g class="errorbars"/><g class="lines"><path class="js-line" d="M0,16.19L10.91,24.01L16.36,26.53L27.27,34.67L32.73,39.38L43.64,51.41L49.09,58.8L54.55,67.22L60,77.03L76.36,112.27L81.82,124.91L109.09,186.15L114.55,196.74L125.45,215.88L130.91,225.08L141.82,239.9L147.27,246.72L158.18,258.29L163.64,263.28L174.55,271.76L180,274.4L185.45,278.54L190.91,281.43L212.73,289.46L218.18,290.66L223.64,292.63L229.09,293.37L256.36,297.57L261.82,297.61L278.18,300.05L283.64,299.68L289.09,300.24L294.55,300.01L300,301.01L305.45,300.94L310.91,300.59L316.36,301.11L327.27,302.23L332.73,301.14L338.18,301.21L343.64,302.7L349.09,300.98L354.55,301.47L365.45,301.15L370.91,302.1L376.36,302.29L381.82,300.66L398.18,301.46L403.64,301.07L409.09,299.95L414.55,300.57L420,299.22L425.45,300.21L430.91,300.82L436.36,299.57L469.09,299.35L474.55,298.46L480,299.22L485.45,298.84L496.36,298.56L501.82,299.14L507.27,297.97L512.73,297.89L518.18,298.72L523.64,297.58L540,297.45" style="vector-effect: non-scaling-stroke; fill: none; stroke: rgb(0, 176, 246); stroke-opacity: 1; stroke-width: 2px; opacity: 1;"/></g><g class="points"/><g class="text"/></g><g class="trace scatter trace5578a6" style="stroke-miterlimit: 2; opacity: 1;"><g class="fills"/><g class="errorbars"/><g class="lines"><path class="js-line" d="M0,16.13L10.91,23.75L16.36,26.34L21.82,29.78L27.27,34.13L38.18,44.65L43.64,50.96L49.09,58.19L54.55,66.98L60,76.43L65.45,87.5L81.82,124.03L87.27,136.58L103.64,173.45L109.09,184.75L125.45,215.06L130.91,223.63L141.82,239.11L147.27,246.15L163.64,262.5L169.09,266.85L185.45,278.38L190.91,280.96L218.18,291.09L223.64,292.05L229.09,292.79L234.55,294.79L240,294.94L245.45,296.02L272.73,299.63L278.18,300.18L283.64,299.68L289.09,300.77L310.91,301.41L316.36,301.82L327.27,301.25L332.73,301.75L338.18,301.12L343.64,302.03L354.55,301.32L360,302.29L381.82,300.63L387.27,301.63L409.09,301.37L414.55,300.85L425.45,301.66L430.91,300.76L441.82,301.34L447.27,300.07L452.73,301.22L458.18,299.69L463.64,300.8L469.09,299.67L480,299.18L485.45,298.27L490.91,299.81L496.36,299.04L501.82,299.52L507.27,298.32L512.73,298.88L518.18,298.6L529.09,298.51L534.55,298.22L540,297.45" style="vector-effect: non-scaling-stroke; fill: none; stroke: rgb(231, 107, 243); stroke-opacity: 1; stroke-width: 2px; opacity: 1;"/></g><g class="points"/><g class="text"/></g></g></g><g class="overplot"/><path class="xlines-above crisp" d="" style="fill: none; stroke-width: 1px; stroke: rgb(0, 0, 0); stroke-opacity: 0;"/><path class="ylines-above crisp" d="" style="fill: none; stroke-width: 1px; stroke: rgb(0, 0, 0); stroke-opacity: 0;"/><g class="overlines-above"/><g class="xaxislayer-above"><path class="xtick ticks crisp" d="M0,421v5" transform="translate(80,0)" style="stroke: rgb(51, 51, 51); stroke-opacity: 1; stroke-width: 1px;"/><path class="xtick ticks crisp" d="M0,421v5" transform="translate(189.09,0)" style="stroke: rgb(51, 51, 51); stroke-opacity: 1; stroke-width: 1px;"/><path class="xtick ticks crisp" d="M0,421v5" transform="translate(298.18,0)" style="stroke: rgb(51, 51, 51); stroke-opacity: 1; stroke-width: 1px;"/><path class="xtick ticks crisp" d="M0,421v5" transform="translate(407.27,0)" style="stroke: rgb(51, 51, 51); stroke-opacity: 1; stroke-width: 1px;"/><path class="xtick ticks crisp" d="M0,421v5" transform="translate(516.36,0)" style="stroke: rgb(51, 51, 51); stroke-opacity: 1; stroke-width: 1px;"/><g class="xtick"><text text-anchor="middle" x="0" y="440.4" transform="translate(80,0)" style="font-family: 'Open Sans', verdana, arial, sans-serif; font-size: 12px; fill: rgb(51, 51, 51); fill-opacity: 1; white-space: pre; opacity: 1;">0</text></g><g class="xtick"><text text-anchor="middle" x="0" y="440.4" style="font-family: 'Open Sans', verdana, arial, sans-serif; font-size: 12px; fill: rgb(51, 51, 51); fill-opacity: 1; white-space: pre; opacity: 1;" transform="translate(189.09,0)">20</text></g><g class="xtick"><text text-anchor="middle" x="0" y="440.4" style="font-family: 'Open Sans', verdana, arial, sans-serif; font-size: 12px; fill: rgb(51, 51, 51); fill-opacity: 1; white-space: pre; opacity: 1;" transform="translate(298.18,0)">40</text></g><g class="xtick"><text text-anchor="middle" x="0" y="440.4" style="font-family: 'Open Sans', verdana, arial, sans-serif; font-size: 12px; fill: rgb(51, 51, 51); fill-opacity: 1; white-space: pre; opacity: 1;" transform="translate(407.27,0)">60</text></g><g class="xtick"><text text-anchor="middle" x="0" y="440.4" style="font-family: 'Open Sans', verdana, arial, sans-serif; font-size: 12px; fill: rgb(51, 51, 51); fill-opacity: 1; white-space: pre; opacity: 1;" transform="translate(516.36,0)">80</text></g></g><g class="yaxislayer-above"><path class="ytick ticks crisp" d="M79,0h-5" transform="translate(0,392.44)" style="stroke: rgb(51, 51, 51); stroke-opacity: 1; stroke-width: 1px;"/><path class="ytick ticks crisp" d="M79,0h-5" transform="translate(0,333.07)" style="stroke: rgb(51, 51, 51); stroke-opacity: 1; stroke-width: 1px;"/><path class="ytick ticks crisp" d="M79,0h-5" transform="translate(0,273.7)" style="stroke: rgb(51, 51, 51); stroke-opacity: 1; stroke-width: 1px;"/><path class="ytick ticks crisp" d="M79,0h-5" transform="translate(0,214.32999999999998)" style="stroke: rgb(51, 51, 51); stroke-opacity: 1; stroke-width: 1px;"/><path class="ytick ticks crisp" d="M79,0h-5" transform="translate(0,154.95)" style="stroke: rgb(51, 51, 51); stroke-opacity: 1; stroke-width: 1px;"/><g class="ytick"><text text-anchor="end" x="71.6" y="4.199999999999999" transform="translate(0,392.44)" style="font-family: 'Open Sans', verdana, arial, sans-serif; font-size: 12px; fill: rgb(51, 51, 51); fill-opacity: 1; white-space: pre; opacity: 1;">1</text></g><g class="ytick"><text text-anchor="end" x="71.6" y="4.199999999999999" style="font-family: 'Open Sans', verdana, arial, sans-serif; font-size: 12px; fill: rgb(51, 51, 51); fill-opacity: 1; white-space: pre; opacity: 1;" transform="translate(0,333.07)">2</text></g><g class="ytick"><text text-anchor="end" x="71.6" y="4.199999999999999" style="font-family: 'Open Sans', verdana, arial, sans-serif; font-size: 12px; fill: rgb(51, 51, 51); fill-opacity: 1; white-space: pre; opacity: 1;" transform="translate(0,273.7)">3</text></g><g class="ytick"><text text-anchor="end" x="71.6" y="4.199999999999999" style="font-family: 'Open Sans', verdana, arial, sans-serif; font-size: 12px; fill: rgb(51, 51, 51); fill-opacity: 1; white-space: pre; opacity: 1;" transform="translate(0,214.32999999999998)">4</text></g><g class="ytick"><text text-anchor="end" x="71.6" y="4.199999999999999" style="font-family: 'Open Sans', verdana, arial, sans-serif; font-size: 12px; fill: rgb(51, 51, 51); fill-opacity: 1; white-space: pre; opacity: 1;" transform="translate(0,154.95)">5</text></g></g><g class="overaxes-above"/></g></g><g class="polarlayer"/><g class="ternarylayer"/><g class="geolayer"/><g class="funnelarealayer"/><g class="pielayer"/><g class="iciclelayer"/><g class="treemaplayer"/><g class="sunburstlayer"/><g class="glimages"/><defs id="topdefs-95af7f"><g class="clips"/></defs><g class="layer-above"><g class="imagelayer"/><g class="shapelayer"/></g><g class="infolayer"><g class="g-gtitle"><text class="gtitle" x="350" y="50" text-anchor="middle" dy="0em" style="font-family: 'Open Sans', verdana, arial, sans-serif; font-size: 17px; fill: rgb(51, 51, 51); opacity: 1; font-weight: normal; white-space: pre;">Train Loss: ascad_v1_fk_0-aisy_mlp_id (early_stopping)</text></g><g class="g-xtitle"/><g class="g-ytitle"/></g></svg>