<svg class="main-svg" xmlns="http://www.w3.org/2000/svg" xmlns:xlink="http://www.w3.org/1999/xlink" width="700" height="500" style="" viewBox="0 0 700 500"><rect x="0" y="0" width="700" height="500" style="fill: rgb(255, 255, 255); fill-opacity: 1;"/><defs id="defs-77f458"><g class="clips"><clipPath id="clip77f458xyplot" class="plotclip"><rect width="540" height="320"/></clipPath><clipPath class="axesclip" id="clip77f458x"><rect x="80" y="0" width="540" height="500"/></clipPath><clipPath class="axesclip" id="clip77f458y"><rect x="0" y="100" width="700" height="320"/></clipPath><clipPath class="axesclip" id="clip77f458xy"><rect x="80" y="100" width="540" height="320"/></clipPath></g><g class="gradients"/><g class="patterns"/></defs><g class="bglayer"><rect class="bg" x="80" y="100" width="540" height="320" style="fill: rgb(237, 237, 237); fill-opacity: 1; stroke-width: 0;"/></g><g class="layer-below"><g class="imagelayer"/><g class="shapelayer"/></g><g class="cartesianlayer"><g class="subplot xy"><g class="layer-subplot"><g class="shapelayer"/><g class="imagelayer"/></g><g class="gridlayer"><g class="x"><path class="xgrid crisp" transform="translate(190.2,0)" d="M0,100v320" style="stroke: rgb(255, 255, 255); stroke-opacity: 1; stroke-width: 1px;"/><path class="xgrid crisp" transform="translate(300.40999999999997,0)" d="M0,100v320" style="stroke: rgb(255, 255, 255); stroke-opacity: 1; stroke-width: 1px;"/><path class="xgrid crisp" transform="translate(410.61,0)" d="M0,100v320" style="stroke: rgb(255, 255, 255); stroke-opacity: 1; stroke-width: 1px;"/><path class="xgrid crisp" transform="translate(520.8199999999999,0)" d="M0,100v320" style="stroke: rgb(255, 255, 255); stroke-opacity: 1; stroke-width: 1px;"/></g><g class="y"><path class="ygrid crisp" transform="translate(0,395.49)" d="M80,0h540" style="stroke: rgb(255, 255, 255); stroke-opacity: 1; stroke-width: 1px;"/><path class="ygrid crisp" transform="translate(0,343.05)" d="M80,0h540" style="stroke: rgb(255, 255, 255); stroke-opacity: 1; stroke-width: 1px;"/><path class="ygrid crisp" transform="translate(0,290.62)" d="M80,0h540" style="stroke: rgb(255, 255, 255); stroke-opacity: 1; stroke-width: 1px;"/><path class="ygrid crisp" transform="translate(0,238.19)" d="M80,0h540" style="stroke: rgb(255, 255, 255); stroke-opacity: 1; stroke-width: 1px;"/><path class="ygrid crisp" transform="translate(0,185.75)" d="M80,0h540" style="stroke: rgb(255, 255, 255); stroke-opacity: 1; stroke-width: 1px;"/><path class="ygrid crisp" transform="translate(0,133.32)" d="M80,0h540" style="stroke: rgb(255, 255, 255); stroke-opacity: 1; stroke-width: 1px;"/></g></g><g class="zerolinelayer"><path class="xzl zl crisp" transform="translate(80,0)" d="M0,100v320" style="stroke: rgb(255, 255, 255); stroke-opacity: 1; stroke-width: 1px;"/></g><path class="xlines-below"/><path class="ylines-below"/><g class="overlines-below"/><g class="xaxislayer-below"/><g class="yaxislayer-below"/><g class="overaxes-below"/><g class="plot" transform="translate(80,100)" clip-path="url(#clip77f458xyplot)"><g class="scatterlayer mlayer"><g class="trace scatter trace287702" style="stroke-miterlimit: 2; opacity: 1;"><g class="fills"/><g class="errorbars"/><g class="lines"><path class="js-line" d="M0,18.77L11.02,36.52L22.04,43.44L33.06,47.85L44.08,51.13L55.1,55.29L66.12,58.64L88.16,66.28L99.18,77.92L110.2,96.65L121.22,108.37L132.24,113.21L143.27,116.08L154.29,119.57L165.31,119.99L187.35,118.98L198.37,119.12L220.41,119.44L231.43,127.49L253.47,136.33L264.49,143.58L286.53,154.07L297.55,162.26L308.57,168.61L319.59,174.02L330.61,180.83L341.63,186.41L352.65,191.19L363.67,197.16L374.69,201.5L385.71,207.15L396.73,210.96L407.76,216.53L429.8,226.32L440.82,230.37L451.84,231.32L462.86,233.07L540,241.67" style="vector-effect: non-scaling-stroke; fill: none; stroke: rgb(248, 118, 109); stroke-opacity: 1; stroke-width: 2px; opacity: 1;"/></g><g class="points"/><g class="text"/></g><g class="trace scatter traceb01545" style="stroke-miterlimit: 2; opacity: 1;"><g class="fills"/><g class="errorbars"/><g class="lines"><path class="js-line" d="M0,18.3L11.02,36.55L22.04,43.62L44.08,51.42L55.1,54.67L66.12,59.02L77.14,62.2L110.2,72.06L121.22,73.48L132.24,73.38L143.27,74.38L154.29,75.73L165.31,76L176.33,76.16L187.35,75.53L198.37,76.48L209.39,75.8L231.43,80.98L242.45,85.1L253.47,90.82L264.49,95.47L275.51,99.54L286.53,104.74L308.57,115.19L319.59,120.55L440.82,168.84L451.84,169.92L484.9,173.51L495.92,174.55L540,179.14" style="vector-effect: non-scaling-stroke; fill: none; stroke: rgb(163, 165, 0); stroke-opacity: 1; stroke-width: 2px; opacity: 1;"/></g><g class="points"/><g class="text"/></g><g class="trace scatter trace506408" style="stroke-miterlimit: 2; opacity: 1;"><g class="fills"/><g class="errorbars"/><g class="lines"><path class="js-line" d="M0,18.13L11.02,36.59L22.04,43.73L55.1,54.61L66.12,59.6L77.14,61.75L88.16,65.19L99.18,69.52L110.2,74.84L121.22,94.18L132.24,107.74L143.27,115.25L154.29,117.21L165.31,118.76L176.33,121.32L198.37,129.23L209.39,131.35L220.41,133.52L231.43,139.61L275.51,162.66L286.53,169.34L308.57,179.04L319.59,184.16L352.65,198.5L363.67,203.67L385.71,212.07L396.73,216.57L429.8,231.35L440.82,235.26L484.9,240.13L495.92,241.26L540,246.14" style="vector-effect: non-scaling-stroke; fill: none; stroke: rgb(0, 191, 125); stroke-opacity: 1; stroke-width: 2px; opacity: 1;"/></g><g class="points"/><g class="text"/></g><g class="trace scatter trace0af6db" style="stroke-miterlimit: 2; opacity: 1;"><g class="fills"/><g class="errorbars"/><g class="lines"><path class="js-line" d="M0,19.72L11.02,35.74L22.04,42.81L33.06,46.89L44.08,49.77L66.12,56.55L77.14,60.88L88.16,64.25L99.18,69.18L110.2,77.85L121.22,96.59L132.24,114.92L143.27,125.54L165.31,134.76L176.33,135.09L198.37,138.08L209.39,136.11L220.41,142.48L231.43,151.49L242.45,158.25L253.47,167.61L275.51,183.07L286.53,191.9L319.59,211.31L330.61,217.16L341.63,223.62L352.65,228.41L363.67,234.11L374.69,240.83L418.78,261.94L429.8,267.12L440.82,271.34L451.84,272.72L540,283.69" style="vector-effect: non-scaling-stroke; fill: none; stroke: rgb(0, 176, 246); stroke-opacity: 1; stroke-width: 2px; opacity: 1;"/></g><g class="points"/><g class="text"/></g><g class="trace scatter traceaa4052" style="stroke-miterlimit: 2; opacity: 1;"><g class="fills"/><g class="errorbars"/><g class="lines"><path class="js-line" d="M0,21.93L11.02,37.7L22.04,43.55L55.1,55.07L66.12,61.43L77.14,76.41L88.16,86.52L99.18,92.97L110.2,96.87L121.22,99.76L132.24,101.39L143.27,103.37L154.29,103.72L176.33,104.95L187.35,105.89L198.37,104.11L209.39,104.1L220.41,105.44L231.43,111.68L242.45,117.4L253.47,126.17L264.49,133.38L275.51,142.06L286.53,149.42L297.55,154.81L319.59,167.05L330.61,175L352.65,192.46L363.67,200.23L385.71,212.55L396.73,218.92L429.8,234.82L440.82,239.31L495.92,246.54L506.94,247.79L540,251.73" style="vector-effect: non-scaling-stroke; fill: none; stroke: rgb(231, 107, 243); stroke-opacity: 1; stroke-width: 2px; opacity: 1;"/></g><g class="points"/><g class="text"/></g><g class="trace scatter traceb95448" style="stroke-miterlimit: 2; opacity: 1;"><g class="fills"/><g class="errorbars"/><g class="lines"><path class="js-line" d="M0,19.83L11.02,37.14L22.04,42.85L44.08,50.69L55.1,53.31L66.12,58.17L77.14,61.94L88.16,65.9L99.18,70.94L121.22,104.27L132.24,114.69L143.27,125.12L154.29,138.19L176.33,158.89L187.35,163.73L198.37,166.26L209.39,167.4L231.43,177.94L242.45,185.16L253.47,190.27L264.49,197.07L275.51,201.1L286.53,208.63L297.55,213.86L308.57,217.88L319.59,224.06L330.61,228.92L341.63,234.87L352.65,238.89L374.69,250.24L385.71,254.93L407.76,264.72L418.78,269.8L429.8,275.2L440.82,278.73L495.92,285.7L506.94,286.93L540,290.77" style="vector-effect: non-scaling-stroke; fill: none; stroke: rgb(248, 118, 109); stroke-opacity: 1; stroke-width: 2px; opacity: 1;"/></g><g class="points"/><g class="text"/></g><g class="trace scatter trace8f0eec" style="stroke-miterlimit: 2; opacity: 1;"><g class="fills"/><g class="errorbars"/><g class="lines"><path class="js-line" d="M0,18.9L11.02,36.78L22.04,43.26L33.06,47.29L44.08,50.49L55.1,54.96L66.12,58.31L88.16,67.07L99.18,75.17L110.2,83.43L121.22,87.23L132.24,91.4L143.27,93.07L154.29,93.12L165.31,94.18L176.33,95.91L187.35,94.72L209.39,92.81L220.41,94.37L242.45,103.4L253.47,109.27L297.55,128.46L308.57,132.85L330.61,142.44L341.63,147.82L374.69,164.15L385.71,171.98L396.73,178.37L407.76,186.2L418.78,193.19L429.8,199.15L440.82,203.59L451.84,205.98L495.92,213.26L506.94,214.65L540,218.8" style="vector-effect: non-scaling-stroke; fill: none; stroke: rgb(163, 165, 0); stroke-opacity: 1; stroke-width: 2px; opacity: 1;"/></g><g class="points"/><g class="text"/></g><g class="trace scatter tracedffd88" style="stroke-miterlimit: 2; opacity: 1;"><g class="fills"/><g class="errorbars"/><g class="lines"><path class="js-line" d="M0,23.52L11.02,37.12L22.04,42.89L33.06,47.01L44.08,49.8L55.1,54.51L66.12,56.93L88.16,65.53L99.18,67.46L121.22,72.73L132.24,71.71L143.27,74.04L154.29,75.16L165.31,73.69L176.33,75.02L209.39,74.2L220.41,76.37L231.43,79.45L242.45,84.5L253.47,89.06L264.49,100.84L275.51,117.66L286.53,129.65L297.55,141.79L308.57,152.1L330.61,170.62L341.63,178.23L352.65,183.69L363.67,191.61L374.69,197.41L385.71,204.11L396.73,210.13L407.76,215.11L418.78,221.22L429.8,225.77L440.82,230.02L451.84,231.3L462.86,233.49L473.88,234.63L495.92,237.62L506.94,238.91L540,242.78" style="vector-effect: non-scaling-stroke; fill: none; stroke: rgb(0, 191, 125); stroke-opacity: 1; stroke-width: 2px; opacity: 1;"/></g><g class="points"/><g class="text"/></g><g class="trace scatter trace5b4186" style="stroke-miterlimit: 2; opacity: 1;"><g class="fills"/><g class="errorbars"/><g class="lines"><path class="js-line" d="M0,19.64L11.02,36.38L22.04,43.53L33.06,48.18L44.08,50.94L55.1,55.63L66.12,58.55L77.14,62.43L88.16,64.76L99.18,67.08L110.2,68.02L121.22,71.13L132.24,71.17L143.27,72.69L154.29,73.09L165.31,72.94L176.33,74.05L198.37,73.99L209.39,75.2L220.41,77.16L231.43,87.75L253.47,122.46L264.49,135.67L275.51,147.75L286.53,156.09L308.57,174.26L319.59,180.91L330.61,187.09L341.63,194.51L352.65,200.25L363.67,207.39L374.69,211.5L385.71,217.52L429.8,237.67L440.82,242.08L540,253.96" style="vector-effect: non-scaling-stroke; fill: none; stroke: rgb(0, 176, 246); stroke-opacity: 1; stroke-width: 2px; opacity: 1;"/></g><g class="points"/><g class="text"/></g><g class="trace scatter tracecc1734" style="stroke-miterlimit: 2; opacity: 1;"><g class="fills"/><g class="errorbars"/><g class="lines"><path class="js-line" d="M0,20.33L11.02,36.89L22.04,42.27L44.08,49.77L55.1,56.13L77.14,105.12L88.16,117.03L99.18,127.43L110.2,132.74L121.22,140.12L132.24,140.42L143.27,145.91L154.29,143.97L165.31,145.92L176.33,147.06L187.35,145.36L198.37,145L209.39,142.31L220.41,144.31L253.47,161.21L264.49,164.82L275.51,171.41L286.53,176.26L297.55,180.92L308.57,186.48L319.59,192.75L330.61,197.71L374.69,217.14L385.71,223.19L407.76,232.46L418.78,237.79L429.8,243.63L440.82,247.55L473.88,251.65L484.9,252.98L540,259.72" style="vector-effect: non-scaling-stroke; fill: none; stroke: rgb(231, 107, 243); stroke-opacity: 1; stroke-width: 2px; opacity: 1;"/></g><g class="points"/><g class="text"/></g><g class="trace scatter trace7fb94a" style="stroke-miterlimit: 2; opacity: 1;"><g class="fills"/><g class="errorbars"/><g class="lines"><path class="js-line" d="M0,21.14L11.02,37.78L22.04,44.02L44.08,51.26L55.1,55.83L66.12,62.47L77.14,86.78L88.16,120.55L99.18,137.01L110.2,145.64L121.22,151.98L132.24,153.67L143.27,156.43L154.29,159.46L165.31,161.04L187.35,159.67L198.37,161.31L220.41,159.14L231.43,166.2L242.45,170.33L253.47,176.85L264.49,182.82L275.51,185.3L286.53,192.31L297.55,196.35L308.57,202.22L319.59,206.44L330.61,212.91L341.63,218.27L352.65,223.33L363.67,227.49L418.78,251.43L429.8,257.1L440.82,261.42L451.84,262.5L528.98,271.45L540,272.75" style="vector-effect: non-scaling-stroke; fill: none; stroke: rgb(248, 118, 109); stroke-opacity: 1; stroke-width: 2px; opacity: 1;"/></g><g class="points"/><g class="text"/></g><g class="trace scatter trace771148" style="stroke-miterlimit: 2; opacity: 1;"><g class="fills"/><g class="errorbars"/><g class="lines"><path class="js-line" d="M0,21.76L11.02,37.37L22.04,43.43L44.08,52.45L55.1,55.93L66.12,60.34L77.14,65.78L88.16,86.78L99.18,119.92L110.2,135.73L121.22,144.2L132.24,148.7L143.27,151.16L154.29,153.08L165.31,153.81L176.33,155.68L187.35,156.27L198.37,154.18L209.39,153.67L220.41,156.13L231.43,160.31L242.45,164.89L253.47,172.28L264.49,175.52L275.51,181.69L286.53,186.21L297.55,191.67L330.61,207.52L341.63,211.61L363.67,221.65L374.69,225.92L396.73,236.31L407.76,241.26L429.8,250.78L440.82,255.26L540,266.95" style="vector-effect: non-scaling-stroke; fill: none; stroke: rgb(163, 165, 0); stroke-opacity: 1; stroke-width: 2px; opacity: 1;"/></g><g class="points"/><g class="text"/></g><g class="trace scatter trace9728f7" style="stroke-miterlimit: 2; opacity: 1;"><g class="fills"/><g class="errorbars"/><g class="lines"><path class="js-line" d="M0,20.21L11.02,36.39L22.04,42.51L55.1,53.3L66.12,57.46L88.16,65.24L99.18,68.41L110.2,73.01L121.22,80.64L143.27,139.92L154.29,154.92L176.33,167.61L187.35,169.54L198.37,170.7L209.39,172.74L220.41,172.69L231.43,181.08L242.45,186.16L253.47,193.36L264.49,197.39L275.51,202.42L286.53,208.95L297.55,213.43L308.57,221.46L319.59,225.83L330.61,231.77L341.63,235.64L363.67,245.89L374.69,252.37L396.73,261.29L407.76,266.26L429.8,276.99L440.82,280.56L540,292.38" style="vector-effect: non-scaling-stroke; fill: none; stroke: rgb(0, 191, 125); stroke-opacity: 1; stroke-width: 2px; opacity: 1;"/></g><g class="points"/><g class="text"/></g><g class="trace scatter tracec43fae" style="stroke-miterlimit: 2; opacity: 1;"><g class="fills"/><g class="errorbars"/><g class="lines"><path class="js-line" d="M0,22.84L11.02,37.49L22.04,43.5L33.06,47.09L44.08,53.05L66.12,75.36L77.14,84.32L99.18,99.73L110.2,104.67L132.24,107.63L143.27,109.38L154.29,111.91L165.31,109.53L176.33,108.55L187.35,108.73L198.37,108.54L209.39,107.29L231.43,114.54L242.45,119.26L264.49,130.86L275.51,135.39L308.57,149.05L319.59,154.3L341.63,163.8L352.65,168.33L374.69,176.53L385.71,181.46L429.8,200.22L440.82,203.54L473.88,207.55L484.9,208.69L540,214.53" style="vector-effect: non-scaling-stroke; fill: none; stroke: rgb(0, 176, 246); stroke-opacity: 1; stroke-width: 2px; opacity: 1;"/></g><g class="points"/><g class="text"/></g><g class="trace scatter trace7145ad" style="stroke-miterlimit: 2; opacity: 1;"><g class="fills"/><g class="errorbars"/><g class="lines"><path class="js-line" d="M0,18.85L11.02,36.07L22.04,42.75L33.06,47.15L44.08,49.57L66.12,57.49L77.14,62.72L99.18,68.41L110.2,74.7L132.24,86.66L143.27,90.39L198.37,94.29L209.39,93.2L220.41,92.93L231.43,97.57L242.45,103.23L253.47,107.76L264.49,113.28L275.51,116.33L286.53,122.87L297.55,126.72L308.57,132.89L319.59,137.4L352.65,151.15L363.67,155.45L429.8,182.51L440.82,185.91L495.92,192.06L506.94,193.11L540,196.75" style="vector-effect: non-scaling-stroke; fill: none; stroke: rgb(231, 107, 243); stroke-opacity: 1; stroke-width: 2px; opacity: 1;"/></g><g class="points"/><g class="text"/></g><g class="trace scatter trace4a4f71" style="stroke-miterlimit: 2; opacity: 1;"><g class="fills"/><g class="errorbars"/><g class="lines"><path class="js-line" d="M0,19.97L11.02,37.54L22.04,43.36L55.1,54.36L66.12,59.14L77.14,62.65L88.16,67.09L99.18,67.9L110.2,70.36L121.22,73.16L132.24,74.31L143.27,73.11L154.29,75.43L176.33,76.57L187.35,74.84L198.37,74.48L209.39,72.62L220.41,75.46L231.43,80.04L253.47,89.25L264.49,94.8L286.53,105.47L297.55,109.64L308.57,114.88L319.59,119.18L341.63,130.24L352.65,134.22L374.69,146.25L385.71,151.87L429.8,173.42L440.82,177.77L462.86,180.74L473.88,182.74L540,190.83" style="vector-effect: non-scaling-stroke; fill: none; stroke: rgb(248, 118, 109); stroke-opacity: 1; stroke-width: 2px; opacity: 1;"/></g><g class="points"/><g class="text"/></g><g class="trace scatter trace6620e7" style="stroke-miterlimit: 2; opacity: 1;"><g class="fills"/><g class="errorbars"/><g class="lines"><path class="js-line" d="M0,19.83L11.02,37.19L22.04,43.03L33.06,45.44L44.08,50.61L66.12,57.29L77.14,60.97L88.16,63.82L99.18,68.31L110.2,85.02L121.22,108.05L132.24,127.54L143.27,139.12L154.29,144.52L165.31,148.55L176.33,151.24L187.35,152.96L198.37,154.49L209.39,153.77L220.41,154.65L231.43,160.11L242.45,167.01L253.47,172.35L264.49,178.52L275.51,183.26L286.53,190.07L297.55,195.11L330.61,212.37L341.63,216.11L352.65,222.05L363.67,226.89L385.71,237.25L396.73,241.69L407.76,247.82L418.78,252.62L429.8,257.78L440.82,261.77L540,273.89" style="vector-effect: non-scaling-stroke; fill: none; stroke: rgb(163, 165, 0); stroke-opacity: 1; stroke-width: 2px; opacity: 1;"/></g><g class="points"/><g class="text"/></g><g class="trace scatter trace9f55c0" style="stroke-miterlimit: 2; opacity: 1;"><g class="fills"/><g class="errorbars"/><g class="lines"><path class="js-line" d="M0,18.93L11.02,37.09L22.04,43.7L33.06,48.34L44.08,51.07L55.1,55.86L66.12,59.31L88.16,65.17L99.18,67.58L132.24,73.34L143.27,73.09L165.31,74.58L176.33,83.73L187.35,98.85L198.37,105.84L209.39,109.44L220.41,111.49L231.43,118.05L242.45,123.64L253.47,131.29L264.49,135.68L275.51,140.54L286.53,146.6L330.61,166.43L341.63,171.04L352.65,175.31L363.67,181.38L374.69,185.56L385.71,190.81L407.76,199.41L418.78,204.73L440.82,212.98L451.84,214.12L473.88,216.91L484.9,217.83L540,224.02" style="vector-effect: non-scaling-stroke; fill: none; stroke: rgb(0, 191, 125); stroke-opacity: 1; stroke-width: 2px; opacity: 1;"/></g><g class="points"/><g class="text"/></g><g class="trace scatter traceb56021" style="stroke-miterlimit: 2; opacity: 1;"><g class="fills"/><g class="errorbars"/><g class="lines"><path class="js-line" d="M0,18.94L11.02,37.12L22.04,43.03L44.08,50.63L55.1,54.42L66.12,59.54L77.14,62.51L88.16,70.16L99.18,91.86L110.2,105.23L121.22,112.81L132.24,116.89L143.27,118.87L154.29,121.4L165.31,122.13L176.33,121.91L187.35,120.5L198.37,123.56L209.39,128.54L220.41,136.2L231.43,146.63L242.45,156.49L253.47,163.52L264.49,170.72L275.51,175.56L297.55,189.59L308.57,192.76L341.63,210.4L352.65,214.49L374.69,224.45L385.71,230.86L407.76,239.8L418.78,244.85L429.8,250.13L440.82,253.93L506.94,262.3L517.96,263.38L540,265.95" style="vector-effect: non-scaling-stroke; fill: none; stroke: rgb(0, 176, 246); stroke-opacity: 1; stroke-width: 2px; opacity: 1;"/></g><g class="points"/><g class="text"/></g><g class="trace scatter trace824536" style="stroke-miterlimit: 2; opacity: 1;"><g class="fills"/><g class="errorbars"/><g class="lines"><path class="js-line" d="M0,18.71L11.02,37.01L22.04,42.47L33.06,45.56L44.08,49.81L77.14,62.25L88.16,69.52L99.18,78.84L110.2,84.15L121.22,88.61L132.24,90.55L143.27,93.34L154.29,93.74L165.31,94.36L176.33,97.13L198.37,96.11L209.39,106.84L231.43,133.38L242.45,145.77L286.53,184.57L297.55,192.88L308.57,200.86L319.59,207.4L341.63,222.03L352.65,227.75L374.69,237.97L385.71,244.78L418.78,260.37L429.8,265.55L440.82,269.43L451.84,271.55L473.88,274.09L484.9,275.6L528.98,280.83L540,282.14" style="vector-effect: non-scaling-stroke; fill: none; stroke: rgb(231, 107, 243); stroke-opacity: 1; stroke-width: 2px; opacity: 1;"/></g><g class="points"/><g class="text"/></g><g class="trace scatter tracee3db0b" style="stroke-miterlimit: 2; opacity: 1;"><g class="fills"/><g class="errorbars"/><g class="lines"><path class="js-line" d="M0,21.27L11.02,37.08L22.04,42.89L33.06,45.46L44.08,49.73L55.1,53.81L66.12,63.66L77.14,86.62L88.16,101.41L99.18,109.03L110.2,112.5L132.24,117.85L143.27,119.48L154.29,119.17L165.31,120.62L176.33,121.39L187.35,120.71L198.37,120.49L209.39,119.06L220.41,120.91L231.43,126.9L242.45,132.35L253.47,135.77L264.49,140.58L275.51,146.58L297.55,156.51L308.57,162.6L319.59,166.2L330.61,171.67L341.63,175.7L352.65,180.78L363.67,185.97L374.69,189.82L385.71,194.25L396.73,199.92L429.8,213.78L440.82,217.4L540,228.78" style="vector-effect: non-scaling-stroke; fill: none; stroke: rgb(248, 118, 109); stroke-opacity: 1; stroke-width: 2px; opacity: 1;"/></g><g class="points"/><g class="text"/></g><g class="trace scatter trace4e15a4" style="stroke-miterlimit: 2; opacity: 1;"><g class="fills"/><g class="errorbars"/><g class="lines"><path class="js-line" d="M0,19.81L11.02,37.99L22.04,44.34L33.06,48.73L44.08,51.98L77.14,64.25L88.16,72.33L99.18,84.94L110.2,94.68L121.22,101.94L132.24,104.44L143.27,108.14L154.29,109.57L165.31,111.1L176.33,110.5L187.35,110.34L198.37,108.41L209.39,108.79L220.41,111.97L231.43,113.42L242.45,118.71L253.47,124.8L264.49,129.15L286.53,138.26L297.55,142.68L308.57,147.34L319.59,152.94L341.63,161.2L352.65,165.32L363.67,170.51L374.69,174.66L418.78,193.15L429.8,197.49L440.82,200.84L451.84,202.21L540,211.54" style="vector-effect: non-scaling-stroke; fill: none; stroke: rgb(163, 165, 0); stroke-opacity: 1; stroke-width: 2px; opacity: 1;"/></g><g class="points"/><g class="text"/></g><g class="trace scatter trace183806" style="stroke-miterlimit: 2; opacity: 1;"><g class="fills"/><g class="errorbars"/><g class="lines"><path class="js-line" d="M0,21.55L11.02,38.49L22.04,43.72L88.16,63.3L99.18,66.48L110.2,67.61L121.22,70.37L143.27,72.35L154.29,76.25L165.31,82.08L176.33,86.89L187.35,87.87L198.37,91.07L209.39,92.22L220.41,94.81L231.43,102.08L242.45,107.75L264.49,118.03L275.51,124.77L286.53,128.81L297.55,135.8L308.57,140.25L319.59,146.37L330.61,150.21L341.63,155.17L352.65,160.24L363.67,164.48L385.71,173.9L396.73,178.77L418.78,187.62L429.8,192.29L440.82,196.28L451.84,197.04L473.88,199.88L484.9,200.98L540,206.93" style="vector-effect: non-scaling-stroke; fill: none; stroke: rgb(0, 191, 125); stroke-opacity: 1; stroke-width: 2px; opacity: 1;"/></g><g class="points"/><g class="text"/></g><g class="trace scatter traced7e0df" style="stroke-miterlimit: 2; opacity: 1;"><g class="fills"/><g class="errorbars"/><g class="lines"><path class="js-line" d="M0,20.31L11.02,36.61L22.04,42.8L44.08,48.63L55.1,53.33L66.12,56.2L77.14,60.48L88.16,63.78L99.18,65.47L110.2,70.13L121.22,70.89L132.24,71.83L143.27,73.66L154.29,78.25L165.31,90.82L176.33,102.84L187.35,109.66L198.37,113.18L209.39,112.21L220.41,115.57L231.43,122.17L253.47,133.06L264.49,137.9L275.51,143.64L286.53,147.95L308.57,160.09L319.59,161.5L330.61,168.64L341.63,174.07L385.71,191.82L396.73,196.21L429.8,210.78L440.82,214.44L484.9,219.68L495.92,220.6L540,225.43" style="vector-effect: non-scaling-stroke; fill: none; stroke: rgb(0, 176, 246); stroke-opacity: 1; stroke-width: 2px; opacity: 1;"/></g><g class="points"/><g class="text"/></g><g class="trace scatter trace46870b" style="stroke-miterlimit: 2; opacity: 1;"><g class="fills"/><g class="errorbars"/><g class="lines"><path class="js-line" d="M0,21.01L11.02,36.19L22.04,42.24L44.08,50.23L55.1,53.22L66.12,57.38L77.14,60.4L99.18,69.14L110.2,77.52L121.22,84.34L132.24,86.72L143.27,91.25L154.29,91.72L187.35,94.13L198.37,98.09L209.39,105.29L220.41,120.52L231.43,133.54L242.45,144.05L264.49,165.19L275.51,173.27L286.53,181.57L297.55,188.88L308.57,194.54L319.59,197.9L330.61,205.01L341.63,210.71L352.65,214.44L363.67,221.17L374.69,225.27L385.71,230.42L396.73,234.65L407.76,239.81L429.8,250.14L440.82,253.63L462.86,256.32L473.88,257.54L528.98,264L540,265.32" style="vector-effect: non-scaling-stroke; fill: none; stroke: rgb(231, 107, 243); stroke-opacity: 1; stroke-width: 2px; opacity: 1;"/></g><g class="points"/><g class="text"/></g><g class="trace scatter trace68d822" style="stroke-miterlimit: 2; opacity: 1;"><g class="fills"/><g class="errorbars"/><g class="lines"><path class="js-line" d="M0,18.9L11.02,36.91L22.04,43.53L33.06,46.58L44.08,50.5L66.12,59.32L77.14,65.39L88.16,77.7L99.18,85.29L121.22,92.97L132.24,93.61L143.27,95.76L154.29,96.1L165.31,97.63L176.33,96.17L187.35,96.62L198.37,93.29L220.41,96.17L231.43,100.06L275.51,119.87L286.53,124.08L308.57,134.47L319.59,138.2L330.61,143.28L341.63,147.44L385.71,164.5L396.73,169.85L418.78,178.68L429.8,183.16L440.82,186.48L451.84,188.12L540,197.19" style="vector-effect: non-scaling-stroke; fill: none; stroke: rgb(248, 118, 109); stroke-opacity: 1; stroke-width: 2px; opacity: 1;"/></g><g class="points"/><g class="text"/></g><g class="trace scatter tracebab88e" style="stroke-miterlimit: 2; opacity: 1;"><g class="fills"/><g class="errorbars"/><g class="lines"><path class="js-line" d="M0,22.11L11.02,37.13L22.04,42.46L33.06,46.53L44.08,49.72L55.1,52.7L66.12,57.12L77.14,58.89L88.16,62.47L99.18,65.78L110.2,67.76L121.22,70.26L132.24,71.19L154.29,74.87L165.31,75.48L176.33,77.14L187.35,75.63L198.37,75.46L209.39,74.25L220.41,77.48L231.43,83.05L242.45,92.48L253.47,112.17L275.51,134.99L286.53,142.15L297.55,149.63L308.57,155.81L319.59,162.18L330.61,166.19L363.67,182.55L374.69,187.14L429.8,211.25L440.82,214.99L540,226.23" style="vector-effect: non-scaling-stroke; fill: none; stroke: rgb(163, 165, 0); stroke-opacity: 1; stroke-width: 2px; opacity: 1;"/></g><g class="points"/><g class="text"/></g><g class="trace scatter trace59a6a0" style="stroke-miterlimit: 2; opacity: 1;"><g class="fills"/><g class="errorbars"/><g class="lines"><path class="js-line" d="M0,19.9L11.02,37.25L22.04,43.42L44.08,50.59L55.1,53.81L66.12,57.35L77.14,61.98L88.16,68.27L99.18,77.09L110.2,83.29L121.22,88.13L132.24,90.45L143.27,91.26L154.29,92.96L165.31,93.23L220.41,94.88L231.43,99.57L242.45,106.6L253.47,111.54L264.49,118.15L275.51,123.52L308.57,139.01L319.59,143.93L341.63,153.84L352.65,158.32L363.67,163.59L374.69,167.59L385.71,173.32L396.73,177.11L407.76,182.36L418.78,186.71L440.82,195.42L451.84,196.37L484.9,200.29L495.92,201.38L540,206.15" style="vector-effect: non-scaling-stroke; fill: none; stroke: rgb(0, 191, 125); stroke-opacity: 1; stroke-width: 2px; opacity: 1;"/></g><g class="points"/><g class="text"/></g><g class="trace scatter trace709465" style="stroke-miterlimit: 2; opacity: 1;"><g class="fills"/><g class="errorbars"/><g class="lines"><path class="js-line" d="M0,19.7L11.02,36.01L22.04,42.79L44.08,49.63L55.1,53.2L66.12,55.73L77.14,59.8L88.16,62.35L99.18,65.81L110.2,67.45L121.22,71.17L132.24,74.14L143.27,87.99L154.29,99.76L165.31,105.67L176.33,110.84L187.35,116.99L198.37,124.52L209.39,129.67L220.41,134.69L231.43,144.13L242.45,151.28L253.47,160.46L264.49,168.99L275.51,173.3L319.59,198.6L330.61,202.85L341.63,209.58L352.65,213.42L396.73,234.72L407.76,239.72L440.82,253.47L451.84,254.74L540,265.12" style="vector-effect: non-scaling-stroke; fill: none; stroke: rgb(0, 176, 246); stroke-opacity: 1; stroke-width: 2px; opacity: 1;"/></g><g class="points"/><g class="text"/></g><g class="trace scatter tracefb32fd" style="stroke-miterlimit: 2; opacity: 1;"><g class="fills"/><g class="errorbars"/><g class="lines"><path class="js-line" d="M0,19.35L11.02,36.99L22.04,44.2L44.08,51.23L55.1,55.65L99.18,70.78L110.2,87.27L121.22,104.67L132.24,114.7L143.27,123.86L154.29,136.49L165.31,143.6L176.33,147.83L187.35,150.76L198.37,149.11L209.39,152.39L220.41,153.58L231.43,161.35L242.45,163.82L253.47,171.63L264.49,175.93L275.51,179.88L286.53,186.82L297.55,191.01L308.57,196.84L330.61,205.27L341.63,210.67L352.65,216.55L363.67,221.53L374.69,225.44L385.71,230.7L429.8,250.65L440.82,254.68L484.9,259.78L495.92,261.09L540,266.12" style="vector-effect: non-scaling-stroke; fill: none; stroke: rgb(231, 107, 243); stroke-opacity: 1; stroke-width: 2px; opacity: 1;"/></g><g class="points"/><g class="text"/></g><g class="trace scatter trace1d32e8" style="stroke-miterlimit: 2; opacity: 1;"><g class="fills"/><g class="errorbars"/><g class="lines"><path class="js-line" d="M0,19.63L11.02,37.21L22.04,42.22L44.08,48.92L55.1,51.67L77.14,58.26L88.16,61.5L99.18,64.17L110.2,68.55L121.22,78.99L132.24,98.97L143.27,109.15L154.29,113.13L165.31,118.94L176.33,122.63L198.37,129.83L209.39,131.8L220.41,135.42L231.43,141.16L242.45,149.17L253.47,152.1L286.53,170.29L297.55,176.02L308.57,179.8L319.59,184.56L341.63,194.61L352.65,199.4L363.67,203.34L374.69,208.81L385.71,213.66L396.73,217.52L407.76,221.98L418.78,227.33L429.8,232.4L440.82,235.67L473.88,239.74L484.9,240.86L540,247.09" style="vector-effect: non-scaling-stroke; fill: none; stroke: rgb(248, 118, 109); stroke-opacity: 1; stroke-width: 2px; opacity: 1;"/></g><g class="points"/><g class="text"/></g><g class="trace scatter trace868d63" style="stroke-miterlimit: 2; opacity: 1;"><g class="fills"/><g class="errorbars"/><g class="lines"><path class="js-line" d="M0,20.3L11.02,37.19L22.04,43.81L44.08,51.11L55.1,57.25L66.12,75.69L77.14,100.38L88.16,121.33L99.18,135.29L110.2,144.5L121.22,152.32L132.24,154.9L143.27,158.4L154.29,158.87L165.31,158.02L176.33,157.4L187.35,160.2L198.37,157.98L209.39,158.63L220.41,160.82L231.43,165.58L242.45,170.92L253.47,177.68L264.49,182.97L275.51,189.42L286.53,195.42L297.55,199.61L308.57,203.62L319.59,209.99L341.63,218.63L352.65,224.11L363.67,228.68L374.69,234.86L385.71,238.83L396.73,244.01L440.82,263.31L451.84,264.28L506.94,271.27L517.96,272.46L540,275.06" style="vector-effect: non-scaling-stroke; fill: none; stroke: rgb(163, 165, 0); stroke-opacity: 1; stroke-width: 2px; opacity: 1;"/></g><g class="points"/><g class="text"/></g><g class="trace scatter trace0e35f3" style="stroke-miterlimit: 2; opacity: 1;"><g class="fills"/><g class="errorbars"/><g class="lines"><path class="js-line" d="M0,21.02L11.02,37.25L22.04,42.92L44.08,50.09L55.1,56.66L77.14,77.67L88.16,85.27L99.18,100.35L110.2,121.26L121.22,143.41L132.24,156.73L143.27,163.56L154.29,166.09L165.31,170.05L176.33,170.46L187.35,173L198.37,173.83L220.41,173.11L231.43,183.16L242.45,190.08L253.47,195.27L275.51,208.21L286.53,213.21L297.55,220.36L308.57,225.63L319.59,232.06L330.61,237.49L341.63,241.96L352.65,248.07L363.67,252.47L374.69,258.09L407.76,274.46L418.78,279.1L429.8,285.08L440.82,288.95L528.98,300.39L540,301.72" style="vector-effect: non-scaling-stroke; fill: none; stroke: rgb(0, 191, 125); stroke-opacity: 1; stroke-width: 2px; opacity: 1;"/></g><g class="points"/><g class="text"/></g><g class="trace scatter trace745261" style="stroke-miterlimit: 2; opacity: 1;"><g class="fills"/><g class="errorbars"/><g class="lines"><path class="js-line" d="M0,21.16L11.02,37.16L22.04,43.03L66.12,55.9L77.14,60.34L99.18,66.53L110.2,68.65L143.27,76.53L154.29,93.07L165.31,106.06L176.33,109.81L187.35,112.92L198.37,114.39L220.41,117.75L231.43,122.8L286.53,149.25L297.55,152.63L319.59,164.5L330.61,168.63L341.63,172.85L352.65,179.08L363.67,182.14L374.69,187.6L396.73,196.39L407.76,200.1L418.78,205.56L429.8,210.17L440.82,213.46L451.84,214.91L506.94,221.11L517.96,222.4L540,224.76" style="vector-effect: non-scaling-stroke; fill: none; stroke: rgb(0, 176, 246); stroke-opacity: 1; stroke-width: 2px; opacity: 1;"/></g><g class="points"/><g class="text"/></g><g class="trace scatter trace385fd8" style="stroke-miterlimit: 2; opacity: 1;"><g class="fills"/><g class="errorbars"/><g class="lines"><path class="js-line" d="M0,21.82L11.02,38.27L22.04,44.01L44.08,52.11L55.1,57.2L66.12,62.37L77.14,66.27L88.16,71.88L99.18,76L110.2,82.61L121.22,90.79L132.24,98.58L143.27,101.41L154.29,102.74L165.31,105.4L187.35,105.16L198.37,109.11L220.41,107.55L231.43,113.87L242.45,118.7L253.47,122.7L286.53,138.59L297.55,142.28L319.59,151.05L330.61,157.26L341.63,159.57L352.65,164.98L374.69,174.63L385.71,179.08L440.82,200.74L451.84,201.93L540,211.4" style="vector-effect: non-scaling-stroke; fill: none; stroke: rgb(231, 107, 243); stroke-opacity: 1; stroke-width: 2px; opacity: 1;"/></g><g class="points"/><g class="text"/></g><g class="trace scatter trace3fd403" style="stroke-miterlimit: 2; opacity: 1;"><g class="fills"/><g class="errorbars"/><g class="lines"><path class="js-line" d="M0,21.54L11.02,37.38L22.04,43.64L66.12,57.44L77.14,59.45L88.16,64.26L99.18,65.71L121.22,70.67L132.24,71.73L143.27,73.2L154.29,76.95L165.31,87.45L176.33,99.95L187.35,108.2L198.37,112.15L209.39,115.09L220.41,125.41L231.43,140.19L242.45,150.98L253.47,161.33L264.49,169.43L286.53,180.12L297.55,187.04L308.57,191.98L319.59,199.26L330.61,203.44L341.63,210.71L352.65,214.49L363.67,219.42L374.69,225.32L385.71,229.95L407.76,240.6L418.78,245.26L429.8,250.87L440.82,254.35L540,266.49" style="vector-effect: non-scaling-stroke; fill: none; stroke: rgb(248, 118, 109); stroke-opacity: 1; stroke-width: 2px; opacity: 1;"/></g><g class="points"/><g class="text"/></g><g class="trace scatter tracef0b01d" style="stroke-miterlimit: 2; opacity: 1;"><g class="fills"/><g class="errorbars"/><g class="lines"><path class="js-line" d="M0,21.8L11.02,38.03L22.04,43.74L44.08,49.19L55.1,54.98L66.12,60.08L77.14,82.83L88.16,99.94L99.18,107.12L121.22,113.94L132.24,116.61L143.27,122.32L154.29,126.94L176.33,135.57L187.35,137.38L198.37,137.78L209.39,139.13L220.41,138.84L231.43,147.35L242.45,153.97L253.47,161.54L264.49,169.42L275.51,176.19L286.53,181.96L297.55,189.18L308.57,197.23L319.59,203.31L330.61,211.04L341.63,216.82L363.67,227.14L374.69,234.49L385.71,238.64L396.73,244.44L429.8,260.46L440.82,263.98L462.86,266.85L473.88,268.17L540,276.24" style="vector-effect: non-scaling-stroke; fill: none; stroke: rgb(163, 165, 0); stroke-opacity: 1; stroke-width: 2px; opacity: 1;"/></g><g class="points"/><g class="text"/></g><g class="trace scatter trace23b765" style="stroke-miterlimit: 2; opacity: 1;"><g class="fills"/><g class="errorbars"/><g class="lines"><path class="js-line" d="M0,17.15L11.02,37.05L22.04,43.44L88.16,64.94L99.18,66.94L121.22,71.35L132.24,73.05L154.29,73.15L165.31,74.33L187.35,75.84L198.37,74.96L220.41,83.62L231.43,92.13L242.45,104.4L253.47,120.74L264.49,137.85L275.51,147.66L308.57,172.12L319.59,176.29L363.67,197.03L374.69,202.63L385.71,208.19L396.73,212.3L429.8,226.94L440.82,230.79L462.86,233.02L473.88,234.3L506.94,238.27L517.96,239.22L540,241.75" style="vector-effect: non-scaling-stroke; fill: none; stroke: rgb(0, 191, 125); stroke-opacity: 1; stroke-width: 2px; opacity: 1;"/></g><g class="points"/><g class="text"/></g><g class="trace scatter trace395110" style="stroke-miterlimit: 2; opacity: 1;"><g class="fills"/><g class="errorbars"/><g class="lines"><path class="js-line" d="M0,21.39L11.02,37.86L22.04,44.08L33.06,47.98L44.08,50.78L55.1,55.66L66.12,58.97L88.16,66.55L99.18,68.98L110.2,71.9L121.22,73.58L132.24,74.64L143.27,76.87L176.33,78.55L187.35,80.21L198.37,86.34L209.39,101.62L231.43,134.76L242.45,147.6L264.49,176.53L275.51,183.48L286.53,193.29L297.55,201.69L330.61,217.19L341.63,223.44L374.69,240.01L385.71,243.24L407.76,255.06L418.78,259.85L429.8,264.98L440.82,268.73L528.98,279.5L540,280.77" style="vector-effect: non-scaling-stroke; fill: none; stroke: rgb(0, 176, 246); stroke-opacity: 1; stroke-width: 2px; opacity: 1;"/></g><g class="points"/><g class="text"/></g><g class="trace scatter traceecf1b2" style="stroke-miterlimit: 2; opacity: 1;"><g class="fills"/><g class="errorbars"/><g class="lines"><path class="js-line" d="M0,18.58L11.02,36.57L22.04,43.22L33.06,46.75L44.08,51.32L77.14,62.1L88.16,64.6L121.22,73.38L132.24,84.97L143.27,103.58L154.29,109.48L165.31,114.05L176.33,117.15L209.39,119.39L220.41,121.35L231.43,125.68L242.45,132.51L264.49,145.4L275.51,154.63L286.53,160.12L297.55,166.64L308.57,172.71L319.59,179.8L330.61,187.49L341.63,193.68L385.71,217.34L396.73,222.07L407.76,227.03L418.78,233.34L429.8,238.35L440.82,242.24L540,254.48" style="vector-effect: non-scaling-stroke; fill: none; stroke: rgb(231, 107, 243); stroke-opacity: 1; stroke-width: 2px; opacity: 1;"/></g><g class="points"/><g class="text"/></g><g class="trace scatter trace7154c3" style="stroke-miterlimit: 2; opacity: 1;"><g class="fills"/><g class="errorbars"/><g class="lines"><path class="js-line" d="M0,19.57L11.02,36.38L22.04,42.23L55.1,52.63L66.12,56.16L77.14,60.36L88.16,63.57L99.18,80.01L110.2,99.08L121.22,113.77L132.24,123.38L143.27,132.73L154.29,137.11L165.31,143.61L176.33,148.14L187.35,148.32L198.37,151L209.39,151.12L220.41,153.83L242.45,165.7L253.47,171.17L297.55,193.18L308.57,200.63L319.59,205.03L330.61,208.27L341.63,214.97L352.65,219.54L363.67,224.99L374.69,228.84L385.71,234.84L396.73,239.37L440.82,258.33L451.84,259.57L540,270.06" style="vector-effect: non-scaling-stroke; fill: none; stroke: rgb(248, 118, 109); stroke-opacity: 1; stroke-width: 2px; opacity: 1;"/></g><g class="points"/><g class="text"/></g><g class="trace scatter tracebfd280" style="stroke-miterlimit: 2; opacity: 1;"><g class="fills"/><g class="errorbars"/><g class="lines"><path class="js-line" d="M0,19.25L11.02,36.21L22.04,42.65L33.06,45.95L44.08,50.41L55.1,53.25L66.12,59L77.14,62.47L88.16,67.97L99.18,78.84L110.2,87.59L121.22,96.36L132.24,116.32L143.27,140.7L154.29,152.4L176.33,167.84L187.35,172.14L198.37,176.68L209.39,176.63L253.47,198.1L264.49,204.7L275.51,211.5L286.53,215.63L330.61,235.58L341.63,242.2L352.65,245.53L363.67,251L396.73,265.83L407.76,270.3L418.78,276.07L429.8,280.76L440.82,284.41L451.84,285.92L540,296.48" style="vector-effect: non-scaling-stroke; fill: none; stroke: rgb(163, 165, 0); stroke-opacity: 1; stroke-width: 2px; opacity: 1;"/></g><g class="points"/><g class="text"/></g><g class="trace scatter tracebcf245" style="stroke-miterlimit: 2; opacity: 1;"><g class="fills"/><g class="errorbars"/><g class="lines"><path class="js-line" d="M0,20.52L11.02,37.31L22.04,43.53L44.08,51.22L55.1,55.56L66.12,63.93L77.14,76.22L88.16,82.22L99.18,85.79L121.22,91.53L132.24,93.38L143.27,98.23L154.29,101.27L176.33,104.76L187.35,106.75L198.37,106.27L209.39,103.81L220.41,106.76L231.43,111.46L253.47,121.02L264.49,125.66L286.53,135.4L297.55,141.24L319.59,150.07L330.61,156.14L341.63,158.49L352.65,164.08L363.67,169.49L374.69,172.83L396.73,182.53L407.76,187.02L429.8,196.51L440.82,200.05L517.96,208.73L528.98,209.9L540,211.08" style="vector-effect: non-scaling-stroke; fill: none; stroke: rgb(0, 191, 125); stroke-opacity: 1; stroke-width: 2px; opacity: 1;"/></g><g class="points"/><g class="text"/></g><g class="trace scatter trace82708a" style="stroke-miterlimit: 2; opacity: 1;"><g class="fills"/><g class="errorbars"/><g class="lines"><path class="js-line" d="M0,16L11.02,36.6L22.04,43.57L55.1,55.95L66.12,58.95L88.16,65.87L99.18,68.94L110.2,70.6L121.22,73.31L143.27,76.32L154.29,75.09L165.31,76.5L176.33,77.09L198.37,75.95L209.39,77.91L220.41,75.92L231.43,82.14L242.45,87.88L253.47,91.89L275.51,101.08L286.53,105.54L297.55,111.34L308.57,115.5L319.59,120.9L330.61,124.38L352.65,132.4L363.67,137.74L385.71,147.6L396.73,151.66L418.78,160.13L429.8,164.54L440.82,167.89L451.84,169.36L540,178.56" style="vector-effect: non-scaling-stroke; fill: none; stroke: rgb(0, 176, 246); stroke-opacity: 1; stroke-width: 2px; opacity: 1;"/></g><g class="points"/><g class="text"/></g><g class="trace scatter traceda2ab1" style="stroke-miterlimit: 2; opacity: 1;"><g class="fills"/><g class="errorbars"/><g class="lines"><path class="js-line" d="M0,21.1L11.02,36.64L22.04,42.7L33.06,47.1L44.08,49.75L66.12,57.71L77.14,60.75L88.16,64.82L99.18,65.88L121.22,72.66L132.24,73.05L143.27,76.1L154.29,82.62L176.33,123.86L187.35,136.57L198.37,143.4L209.39,145.15L220.41,148.93L231.43,156.24L253.47,167.98L264.49,174.73L275.51,178.51L286.53,185.65L297.55,191.89L308.57,194.99L319.59,201.36L330.61,205.18L341.63,212.41L352.65,215.75L374.69,224.85L385.71,230.57L407.76,240L418.78,244.89L429.8,249.73L440.82,253.24L540,264.76" style="vector-effect: non-scaling-stroke; fill: none; stroke: rgb(231, 107, 243); stroke-opacity: 1; stroke-width: 2px; opacity: 1;"/></g><g class="points"/><g class="text"/></g><g class="trace scatter trace4f5ea6" style="stroke-miterlimit: 2; opacity: 1;"><g class="fills"/><g class="errorbars"/><g class="lines"><path class="js-line" d="M0,22.23L11.02,38.06L22.04,43.65L55.1,56.77L66.12,60.54L99.18,70.67L110.2,77.14L121.22,92.04L132.24,105.29L143.27,110.44L154.29,118.1L165.31,124.54L176.33,136.4L198.37,146.95L209.39,147.21L220.41,149.88L231.43,157.25L242.45,161.05L253.47,169.33L264.49,173.87L275.51,180.78L286.53,184.5L297.55,192.22L319.59,201.56L330.61,207.32L352.65,216.77L363.67,223.18L374.69,228.83L385.71,233.38L396.73,238.95L407.76,243.54L429.8,253.78L440.82,257.58L484.9,263.29L495.92,264.48L540,269.66" style="vector-effect: non-scaling-stroke; fill: none; stroke: rgb(248, 118, 109); stroke-opacity: 1; stroke-width: 2px; opacity: 1;"/></g><g class="points"/><g class="text"/></g><g class="trace scatter tracec072c8" style="stroke-miterlimit: 2; opacity: 1;"><g class="fills"/><g class="errorbars"/><g class="lines"><path class="js-line" d="M0,21.37L11.02,37.42L22.04,42.28L33.06,46.18L44.08,48.83L77.14,59.81L88.16,64.08L99.18,72.74L110.2,79.27L121.22,85.26L132.24,89.66L143.27,90.86L154.29,94.73L165.31,99.75L176.33,115.79L187.35,123.27L198.37,129L209.39,131.21L220.41,134.93L231.43,140.63L242.45,148.33L264.49,158.4L275.51,162.18L286.53,168.9L297.55,172.43L352.65,197.42L363.67,201.62L385.71,211.48L396.73,215.73L429.8,229.64L440.82,233.63L473.88,237.49L484.9,238.72L540,244.76" style="vector-effect: non-scaling-stroke; fill: none; stroke: rgb(163, 165, 0); stroke-opacity: 1; stroke-width: 2px; opacity: 1;"/></g><g class="points"/><g class="text"/></g><g class="trace scatter trace493020" style="stroke-miterlimit: 2; opacity: 1;"><g class="fills"/><g class="errorbars"/><g class="lines"><path class="js-line" d="M0,19.12L11.02,36.94L22.04,43.39L33.06,46.85L44.08,51.21L55.1,55.29L66.12,60.65L77.14,67.81L88.16,81.46L99.18,94.39L110.2,111.31L121.22,133.41L132.24,149.22L143.27,163.88L154.29,174.04L165.31,180.05L176.33,180.63L198.37,185.09L209.39,184.87L220.41,188.52L231.43,193.27L253.47,203.89L264.49,209.92L275.51,216.25L286.53,221.35L341.63,246.44L352.65,252.9L374.69,262.78L385.71,267.9L418.78,282.74L429.8,288L440.82,291.94L451.84,293.38L540,304" style="vector-effect: non-scaling-stroke; fill: none; stroke: rgb(0, 191, 125); stroke-opacity: 1; stroke-width: 2px; opacity: 1;"/></g><g class="points"/><g class="text"/></g><g class="trace scatter tracebe139a" style="stroke-miterlimit: 2; opacity: 1;"><g class="fills"/><g class="errorbars"/><g class="lines"><path class="js-line" d="M0,19.47L11.02,37.37L22.04,43.79L33.06,47.67L44.08,50.7L77.14,62.21L88.16,67.47L99.18,85.98L110.2,101.51L132.24,116.45L143.27,121.35L154.29,127.2L165.31,128.21L198.37,132.95L209.39,129.99L220.41,132.53L231.43,138.37L242.45,143.19L253.47,150.67L264.49,154.94L275.51,161.46L286.53,168.39L297.55,173.5L308.57,180.09L319.59,185.64L330.61,192.75L341.63,197.63L352.65,201.21L363.67,208.59L385.71,217.41L396.73,223.05L407.76,227.13L418.78,233.02L440.82,240.87L451.84,242.51L540,252.54" style="vector-effect: non-scaling-stroke; fill: none; stroke: rgb(0, 176, 246); stroke-opacity: 1; stroke-width: 2px; opacity: 1;"/></g><g class="points"/><g class="text"/></g><g class="trace scatter trace3713e8" style="stroke-miterlimit: 2; opacity: 1;"><g class="fills"/><g class="errorbars"/><g class="lines"><path class="js-line" d="M0,21.12L11.02,36.83L22.04,44.03L33.06,47.16L44.08,51.82L66.12,75.56L77.14,82.65L99.18,90.53L110.2,95.15L121.22,107.59L132.24,126.46L143.27,137.56L154.29,144.78L165.31,145.08L176.33,149.08L209.39,151.83L220.41,151.67L231.43,157.97L242.45,163.34L264.49,174.09L275.51,180.64L286.53,184.67L297.55,189.69L308.57,193.74L319.59,199.61L363.67,219.45L374.69,223.36L418.78,242.13L429.8,247.55L440.82,250.71L451.84,252.34L540,262.19" style="vector-effect: non-scaling-stroke; fill: none; stroke: rgb(231, 107, 243); stroke-opacity: 1; stroke-width: 2px; opacity: 1;"/></g><g class="points"/><g class="text"/></g></g></g><g class="overplot"/><path class="xlines-above crisp" d="" style="fill: none; stroke-width: 1px; stroke: rgb(0, 0, 0); stroke-opacity: 0;"/><path class="ylines-above crisp" d="" style="fill: none; stroke-width: 1px; stroke: rgb(0, 0, 0); stroke-opacity: 0;"/><g class="overlines-above"/><g class="xaxislayer-above"><path class="xtick ticks crisp" d="M0,421v5" transform="translate(80,0)" style="stroke: rgb(51, 51, 51); stroke-opacity: 1; stroke-width: 1px;"/><path class="xtick ticks crisp" d="M0,421v5" transform="translate(190.2,0)" style="stroke: rgb(51, 51, 51); stroke-opacity: 1; stroke-width: 1px;"/><path class="xtick ticks crisp" d="M0,421v5" transform="translate(300.40999999999997,0)" style="stroke: rgb(51, 51, 51); stroke-opacity: 1; stroke-width: 1px;"/><path class="xtick ticks crisp" d="M0,421v5" transform="translate(410.61,0)" style="stroke: rgb(51, 51, 51); stroke-opacity: 1; stroke-width: 1px;"/><path class="xtick ticks crisp" d="M0,421v5" transform="translate(520.8199999999999,0)" style="stroke: rgb(51, 51, 51); stroke-opacity: 1; stroke-width: 1px;"/><g class="xtick"><text text-anchor="middle" x="0" y="440.4" transform="translate(80,0)" style="font-family: 'Open Sans', verdana, arial, sans-serif; font-size: 12px; fill: rgb(51, 51, 51); fill-opacity: 1; white-space: pre; opacity: 1;">0</text></g><g class="xtick"><text text-anchor="middle" x="0" y="440.4" style="font-family: 'Open Sans', verdana, arial, sans-serif; font-size: 12px; fill: rgb(51, 51, 51); fill-opacity: 1; white-space: pre; opacity: 1;" transform="translate(190.2,0)">10</text></g><g class="xtick"><text text-anchor="middle" x="0" y="440.4" style="font-family: 'Open Sans', verdana, arial, sans-serif; font-size: 12px; fill: rgb(51, 51, 51); fill-opacity: 1; white-space: pre; opacity: 1;" transform="translate(300.40999999999997,0)">20</text></g><g class="xtick"><text text-anchor="middle" x="0" y="440.4" style="font-family: 'Open Sans', verdana, arial, sans-serif; font-size: 12px; fill: rgb(51, 51, 51); fill-opacity: 1; white-space: pre; opacity: 1;" transform="translate(410.61,0)">30</text></g><g class="xtick"><text text-anchor="middle" x="0" y="440.4" style="font-family: 'Open Sans', verdana, arial, sans-serif; font-size: 12px; fill: rgb(51, 51, 51); fill-opacity: 1; white-space: pre; opacity: 1;" transform="translate(520.8199999999999,0)">40</text></g></g><g class="yaxislayer-above"><path class="ytick ticks crisp" d="M79,0h-5" transform="translate(0,395.49)" style="stroke: rgb(51, 51, 51); stroke-opacity: 1; stroke-width: 1px;"/><path class="ytick ticks crisp" d="M79,0h-5" transform="translate(0,343.05)" style="stroke: rgb(51, 51, 51); stroke-opacity: 1; stroke-width: 1px;"/><path class="ytick ticks crisp" d="M79,0h-5" transform="translate(0,290.62)" style="stroke: rgb(51, 51, 51); stroke-opacity: 1; stroke-width: 1px;"/><path class="ytick ticks crisp" d="M79,0h-5" transform="translate(0,238.19)" style="stroke: rgb(51, 51, 51); stroke-opacity: 1; stroke-width: 1px;"/><path class="ytick ticks crisp" d="M79,0h-5" transform="translate(0,185.75)" style="stroke: rgb(51, 51, 51); stroke-opacity: 1; stroke-width: 1px;"/><path class="ytick ticks crisp" d="M79,0h-5" transform="translate(0,133.32)" style="stroke: rgb(51, 51, 51); stroke-opacity: 1; stroke-width: 1px;"/><g class="ytick"><text text-anchor="end" x="71.6" y="4.199999999999999" transform="translate(0,395.49)" style="font-family: 'Open Sans', verdana, arial, sans-serif; font-size: 12px; fill: rgb(51, 51, 51); fill-opacity: 1; white-space: pre; opacity: 1;">5.3</text></g><g class="ytick"><text text-anchor="end" x="71.6" y="4.199999999999999" style="font-family: 'Open Sans', verdana, arial, sans-serif; font-size: 12px; fill: rgb(51, 51, 51); fill-opacity: 1; white-space: pre; opacity: 1;" transform="translate(0,343.05)">5.35</text></g><g class="ytick"><text text-anchor="end" x="71.6" y="4.199999999999999" style="font-family: 'Open Sans', verdana, arial, sans-serif; font-size: 12px; fill: rgb(51, 51, 51); fill-opacity: 1; white-space: pre; opacity: 1;" transform="translate(0,290.62)">5.4</text></g><g class="ytick"><text text-anchor="end" x="71.6" y="4.199999999999999" style="font-family: 'Open Sans', verdana, arial, sans-serif; font-size: 12px; fill: rgb(51, 51, 51); fill-opacity: 1; white-space: pre; opacity: 1;" transform="translate(0,238.19)">5.45</text></g><g class="ytick"><text text-anchor="end" x="71.6" y="4.199999999999999" style="font-family: 'Open Sans', verdana, arial, sans-serif; font-size: 12px; fill: rgb(51, 51, 51); fill-opacity: 1; white-space: pre; opacity: 1;" transform="translate(0,185.75)">5.5</text></g><g class="ytick"><text text-anchor="end" x="71.6" y="4.199999999999999" style="font-family: 'Open Sans', verdana, arial, sans-serif; font-size: 12px; fill: rgb(51, 51, 51); fill-opacity: 1; white-space: pre; opacity: 1;" transform="translate(0,133.32)">5.55</text></g></g><g class="overaxes-above"/></g></g><g class="polarlayer"/><g class="ternarylayer"/><g class="geolayer"/><g class="funnelarealayer"/><g class="pielayer"/><g class="iciclelayer"/><g class="treemaplayer"/><g class="sunburstlayer"/><g class="glimages"/><defs id="topdefs-77f458"><g class="clips"/></defs><g class="layer-above"><g class="imagelayer"/><g class="shapelayer"/></g><g class="infolayer"><g class="g-gtitle"><text class="gtitle" x="350" y="50" text-anchor="middle" dy="0em" style="font-family: 'Open Sans', verdana, arial, sans-serif; font-size: 17px; fill: rgb(51, 51, 51); opacity: 1; font-weight: normal; white-space: pre;">Train Loss: ascad_v1_fk_0_noisy-s_eff_cnn_id (original)</text></g><g class="g-xtitle"/><g class="g-ytitle"/></g></svg>