<svg class="main-svg" xmlns="http://www.w3.org/2000/svg" xmlns:xlink="http://www.w3.org/1999/xlink" width="700" height="500" style="" viewBox="0 0 700 500"><rect x="0" y="0" width="700" height="500" style="fill: rgb(255, 255, 255); fill-opacity: 1;"/><defs id="defs-bc4222"><g class="clips"><clipPath id="clipbc4222xyplot" class="plotclip"><rect width="540" height="320"/></clipPath><clipPath class="axesclip" id="clipbc4222x"><rect x="80" y="0" width="540" height="500"/></clipPath><clipPath class="axesclip" id="clipbc4222y"><rect x="0" y="100" width="700" height="320"/></clipPath><clipPath class="axesclip" id="clipbc4222xy"><rect x="80" y="100" width="540" height="320"/></clipPath></g><g class="gradients"/><g class="patterns"/></defs><g class="bglayer"><rect class="bg" x="80" y="100" width="540" height="320" style="fill: rgb(237, 237, 237); fill-opacity: 1; stroke-width: 0;"/></g><g class="layer-below"><g class="imagelayer"/><g class="shapelayer"/></g><g class="cartesianlayer"><g class="subplot xy"><g class="layer-subplot"><g class="shapelayer"/><g class="imagelayer"/></g><g class="gridlayer"><g class="x"><path class="xgrid crisp" transform="translate(190.2,0)" d="M0,100v320" style="stroke: rgb(255, 255, 255); stroke-opacity: 1; stroke-width: 1px;"/><path class="xgrid crisp" transform="translate(300.40999999999997,0)" d="M0,100v320" style="stroke: rgb(255, 255, 255); stroke-opacity: 1; stroke-width: 1px;"/><path class="xgrid crisp" transform="translate(410.61,0)" d="M0,100v320" style="stroke: rgb(255, 255, 255); stroke-opacity: 1; stroke-width: 1px;"/><path class="xgrid crisp" transform="translate(520.8199999999999,0)" d="M0,100v320" style="stroke: rgb(255, 255, 255); stroke-opacity: 1; stroke-width: 1px;"/></g><g class="y"><path class="ygrid crisp" transform="translate(0,379.32)" d="M80,0h540" style="stroke: rgb(255, 255, 255); stroke-opacity: 1; stroke-width: 1px;"/><path class="ygrid crisp" transform="translate(0,322.69)" d="M80,0h540" style="stroke: rgb(255, 255, 255); stroke-opacity: 1; stroke-width: 1px;"/><path class="ygrid crisp" transform="translate(0,266.06)" d="M80,0h540" style="stroke: rgb(255, 255, 255); stroke-opacity: 1; stroke-width: 1px;"/><path class="ygrid crisp" transform="translate(0,209.44)" d="M80,0h540" style="stroke: rgb(255, 255, 255); stroke-opacity: 1; stroke-width: 1px;"/><path class="ygrid crisp" transform="translate(0,152.81)" d="M80,0h540" style="stroke: rgb(255, 255, 255); stroke-opacity: 1; stroke-width: 1px;"/></g></g><g class="zerolinelayer"><path class="xzl zl crisp" transform="translate(80,0)" d="M0,100v320" style="stroke: rgb(255, 255, 255); stroke-opacity: 1; stroke-width: 1px;"/></g><path class="xlines-below"/><path class="ylines-below"/><g class="overlines-below"/><g class="xaxislayer-below"/><g class="yaxislayer-below"/><g class="overaxes-below"/><g class="plot" transform="translate(80,100)" clip-path="url(#clipbc4222xyplot)"><g class="scatterlayer mlayer"><g class="trace scatter trace073c41" style="stroke-miterlimit: 2; opacity: 1;"><g class="fills"/><g class="errorbars"/><g class="lines"><path class="js-line" d="M0,16.18L11.02,20.6L22.04,25.94L33.06,32.68L44.08,40.79L55.1,51.67L66.12,64.46L77.14,79.45L88.16,96.59L110.2,133.56L121.22,152.36L143.27,187.56L154.29,204.52L176.33,232.42L187.35,243.7L198.37,254.07L209.39,262.71L231.43,275.82L242.45,280.96L264.49,288.09L275.51,290.63L286.53,293.35L297.55,294.65L308.57,295.68L319.59,297.49L341.63,298.93L352.65,299.88L429.8,302.53L440.82,302.26L506.94,303.07L517.96,302.93L528.98,303.34L540,302.63" style="vector-effect: non-scaling-stroke; fill: none; stroke: rgb(248, 118, 109); stroke-opacity: 1; stroke-width: 2px; opacity: 1;"/></g><g class="points"/><g class="text"/></g><g class="trace scatter trace37a5e2" style="stroke-miterlimit: 2; opacity: 1;"><g class="fills"/><g class="errorbars"/><g class="lines"><path class="js-line" d="M0,16.18L11.02,20.6L22.04,25.94L33.06,32.68L44.08,40.79L55.1,51.67L66.12,64.46L77.14,79.45L88.16,96.59L110.2,133.56L121.22,152.36L143.27,187.56L154.29,204.52L176.33,232.42L187.35,243.7L198.37,254.07L209.39,262.71L231.43,275.82L242.45,280.96L264.49,288.09L275.51,290.63L286.53,293.35L297.55,294.65L308.57,295.68L319.59,297.49L341.63,298.93L352.65,299.88L429.8,302.53L440.82,302.26L506.94,303.07L517.96,302.93L528.98,303.34L540,302.63" style="vector-effect: non-scaling-stroke; fill: none; stroke: rgb(163, 165, 0); stroke-opacity: 1; stroke-width: 2px; opacity: 1;"/></g><g class="points"/><g class="text"/></g><g class="trace scatter trace6384b0" style="stroke-miterlimit: 2; opacity: 1;"><g class="fills"/><g class="errorbars"/><g class="lines"><path class="js-line" d="M0,16.08L11.02,20.5L22.04,26.12L33.06,32.56L44.08,40.8L55.1,51.28L66.12,64.08L77.14,79.16L88.16,95.86L143.27,188.24L154.29,204.49L165.31,219.9L176.33,232.71L187.35,244.99L198.37,254.91L209.39,263.52L220.41,270.05L231.43,276.53L242.45,281.2L264.49,288.44L275.51,291.18L308.57,296.28L319.59,296.88L352.65,299.83L363.67,300.28L374.69,300.95L385.71,300.67L396.73,301.79L407.76,301.46L440.82,301.42L451.84,302.49L462.86,301.39L473.88,302.21L528.98,302.9L540,302.1" style="vector-effect: non-scaling-stroke; fill: none; stroke: rgb(0, 191, 125); stroke-opacity: 1; stroke-width: 2px; opacity: 1;"/></g><g class="points"/><g class="text"/></g><g class="trace scatter trace43f67f" style="stroke-miterlimit: 2; opacity: 1;"><g class="fills"/><g class="errorbars"/><g class="lines"><path class="js-line" d="M0,16.08L11.02,20.5L22.04,26.12L33.06,32.56L44.08,40.8L55.1,51.28L66.12,64.08L77.14,79.16L88.16,95.86L143.27,188.24L154.29,204.49L165.31,219.9L176.33,232.71L187.35,244.99L198.37,254.91L209.39,263.52L220.41,270.05L231.43,276.53L242.45,281.2L264.49,288.44L275.51,291.18L308.57,296.28L319.59,296.88L352.65,299.83L363.67,300.28L374.69,300.95L385.71,300.67L396.73,301.79L407.76,301.46L440.82,301.42L451.84,302.49L462.86,301.39L473.88,302.21L528.98,302.9L540,302.1" style="vector-effect: non-scaling-stroke; fill: none; stroke: rgb(0, 176, 246); stroke-opacity: 1; stroke-width: 2px; opacity: 1;"/></g><g class="points"/><g class="text"/></g><g class="trace scatter trace3dfa0b" style="stroke-miterlimit: 2; opacity: 1;"><g class="fills"/><g class="errorbars"/><g class="lines"><path class="js-line" d="M0,16.21L22.04,25.76L33.06,32.64L44.08,41.09L55.1,51.2L66.12,64.04L77.14,79.2L88.16,96.14L99.18,114.57L143.27,188.62L154.29,204.59L176.33,233.02L187.35,244.15L198.37,254.7L209.39,263.05L231.43,275.94L242.45,281.08L264.49,288.28L275.51,290.64L286.53,293.15L297.55,294.45L330.61,298.17L341.63,298.82L352.65,300.24L363.67,300.12L385.71,301.17L396.73,300.8L429.8,302.39L440.82,302.12L451.84,301.7L462.86,302.42L473.88,301.79L484.9,302.52L517.96,302.48L528.98,302.75L540,302.45" style="vector-effect: non-scaling-stroke; fill: none; stroke: rgb(231, 107, 243); stroke-opacity: 1; stroke-width: 2px; opacity: 1;"/></g><g class="points"/><g class="text"/></g><g class="trace scatter tracef99dac" style="stroke-miterlimit: 2; opacity: 1;"><g class="fills"/><g class="errorbars"/><g class="lines"><path class="js-line" d="M0,16.21L22.04,25.76L33.06,32.64L44.08,41.09L55.1,51.2L66.12,64.04L77.14,79.2L88.16,96.14L99.18,114.57L143.27,188.62L154.29,204.59L176.33,233.02L187.35,244.15L198.37,254.7L209.39,263.05L231.43,275.94L242.45,281.08L264.49,288.28L275.51,290.64L286.53,293.15L297.55,294.45L330.61,298.17L341.63,298.82L352.65,300.24L363.67,300.12L385.71,301.17L396.73,300.8L429.8,302.39L440.82,302.12L451.84,301.7L462.86,302.42L473.88,301.79L484.9,302.52L517.96,302.48L528.98,302.75L540,302.45" style="vector-effect: non-scaling-stroke; fill: none; stroke: rgb(248, 118, 109); stroke-opacity: 1; stroke-width: 2px; opacity: 1;"/></g><g class="points"/><g class="text"/></g><g class="trace scatter tracee5b839" style="stroke-miterlimit: 2; opacity: 1;"><g class="fills"/><g class="errorbars"/><g class="lines"><path class="js-line" d="M0,16L11.02,20.42L22.04,25.95L33.06,32.42L44.08,40.49L55.1,50.92L66.12,63.73L77.14,79.02L88.16,95.82L143.27,188.47L154.29,204.98L165.31,220.15L176.33,233.2L198.37,255.68L209.39,263.96L231.43,276.65L242.45,281.98L253.47,286.15L264.49,288.23L275.51,291.55L286.53,293.55L297.55,295.62L308.57,296.21L330.61,298.85L341.63,299.03L363.67,300.81L374.69,301.66L396.73,301.42L407.76,302.26L429.8,301.85L440.82,303L473.88,302.13L484.9,302.61L495.92,302.5L506.94,303.16L528.98,303.55L540,303.27" style="vector-effect: non-scaling-stroke; fill: none; stroke: rgb(163, 165, 0); stroke-opacity: 1; stroke-width: 2px; opacity: 1;"/></g><g class="points"/><g class="text"/></g><g class="trace scatter trace6515dc" style="stroke-miterlimit: 2; opacity: 1;"><g class="fills"/><g class="errorbars"/><g class="lines"><path class="js-line" d="M0,16L11.02,20.42L22.04,25.95L33.06,32.42L44.08,40.49L55.1,50.92L66.12,63.73L77.14,79.02L88.16,95.82L143.27,188.47L154.29,204.98L165.31,220.15L176.33,233.2L198.37,255.68L209.39,263.96L231.43,276.65L242.45,281.98L253.47,286.15L264.49,288.23L275.51,291.55L286.53,293.55L297.55,295.62L308.57,296.21L330.61,298.85L341.63,299.03L363.67,300.81L374.69,301.66L396.73,301.42L407.76,302.26L429.8,301.85L440.82,303L473.88,302.13L484.9,302.61L495.92,302.5L506.94,303.16L528.98,303.55L540,303.27" style="vector-effect: non-scaling-stroke; fill: none; stroke: rgb(0, 191, 125); stroke-opacity: 1; stroke-width: 2px; opacity: 1;"/></g><g class="points"/><g class="text"/></g><g class="trace scatter trace8deace" style="stroke-miterlimit: 2; opacity: 1;"><g class="fills"/><g class="errorbars"/><g class="lines"><path class="js-line" d="M0,16.11L11.02,20.76L22.04,26.38L33.06,32.78L44.08,41.02L55.1,51.19L66.12,64.14L77.14,78.97L88.16,96.15L132.24,171.71L143.27,188.78L154.29,205.38L165.31,220.1L176.33,233.57L187.35,245.32L198.37,255.25L209.39,263.35L231.43,276.61L242.45,281.65L253.47,285.65L264.49,288.79L297.55,295.38L308.57,296.55L319.59,297.86L330.61,298.12L341.63,299.59L352.65,300.13L385.71,301.69L396.73,301.71L407.76,301.54L418.78,302.17L451.84,302.81L462.86,302.35L484.9,303.33L495.92,302.23L528.98,302.77L540,303.4" style="vector-effect: non-scaling-stroke; fill: none; stroke: rgb(0, 176, 246); stroke-opacity: 1; stroke-width: 2px; opacity: 1;"/></g><g class="points"/><g class="text"/></g><g class="trace scatter tracec31380" style="stroke-miterlimit: 2; opacity: 1;"><g class="fills"/><g class="errorbars"/><g class="lines"><path class="js-line" d="M0,16.11L11.02,20.76L22.04,26.38L33.06,32.78L44.08,41.02L55.1,51.19L66.12,64.14L77.14,78.97L88.16,96.15L132.24,171.71L143.27,188.78L154.29,205.38L165.31,220.1L176.33,233.57L187.35,245.32L198.37,255.25L209.39,263.35L231.43,276.61L242.45,281.65L253.47,285.65L264.49,288.79L297.55,295.38L308.57,296.55L319.59,297.86L330.61,298.12L341.63,299.59L352.65,300.13L385.71,301.69L396.73,301.71L407.76,301.54L418.78,302.17L451.84,302.81L462.86,302.35L484.9,303.33L495.92,302.23L528.98,302.77L540,303.4" style="vector-effect: non-scaling-stroke; fill: none; stroke: rgb(231, 107, 243); stroke-opacity: 1; stroke-width: 2px; opacity: 1;"/></g><g class="points"/><g class="text"/></g><g class="trace scatter tracee5c788" style="stroke-miterlimit: 2; opacity: 1;"><g class="fills"/><g class="errorbars"/><g class="lines"><path class="js-line" d="M0,16.16L11.02,20.48L22.04,26.28L33.06,32.79L44.08,41.03L55.1,51.69L66.12,64.61L77.14,79.65L88.16,96.76L110.2,134.41L121.22,152.97L132.24,171.91L143.27,189.19L165.31,220.52L176.33,233.64L187.35,245.25L198.37,255.02L220.41,270.99L231.43,276.62L253.47,285.76L264.49,288.72L286.53,293.8L297.55,295.54L308.57,296.25L319.59,297.99L374.69,301.68L385.71,301.11L440.82,302.63L451.84,302.69L462.86,303.61L473.88,302.97L528.98,302.89L540,303.86" style="vector-effect: non-scaling-stroke; fill: none; stroke: rgb(248, 118, 109); stroke-opacity: 1; stroke-width: 2px; opacity: 1;"/></g><g class="points"/><g class="text"/></g><g class="trace scatter trace0e004b" style="stroke-miterlimit: 2; opacity: 1;"><g class="fills"/><g class="errorbars"/><g class="lines"><path class="js-line" d="M0,16.16L11.02,20.48L22.04,26.28L33.06,32.79L44.08,41.03L55.1,51.69L66.12,64.61L77.14,79.65L88.16,96.76L110.2,134.41L121.22,152.97L132.24,171.91L143.27,189.19L165.31,220.52L176.33,233.64L187.35,245.25L198.37,255.02L220.41,270.99L231.43,276.62L253.47,285.76L264.49,288.72L286.53,293.8L297.55,295.54L308.57,296.25L319.59,297.99L374.69,301.68L385.71,301.11L440.82,302.63L451.84,302.69L462.86,303.61L473.88,302.97L528.98,302.89L540,303.86" style="vector-effect: non-scaling-stroke; fill: none; stroke: rgb(163, 165, 0); stroke-opacity: 1; stroke-width: 2px; opacity: 1;"/></g><g class="points"/><g class="text"/></g><g class="trace scatter traceafcf3d" style="stroke-miterlimit: 2; opacity: 1;"><g class="fills"/><g class="errorbars"/><g class="lines"><path class="js-line" d="M0,16.26L11.02,20.5L22.04,26.24L33.06,32.39L44.08,40.76L55.1,51.15L66.12,64.02L77.14,79.05L88.16,95.88L143.27,188.88L154.29,205.4L165.31,220.47L176.33,233.59L187.35,245.38L198.37,255.48L209.39,263.75L220.41,270.77L231.43,276.77L242.45,281.52L264.49,288.58L275.51,291.67L308.57,296.73L319.59,298.06L341.63,299.64L352.65,299.91L363.67,300.91L374.69,301.08L429.8,302.49L440.82,302.31L462.86,302.07L473.88,303.3L495.92,302.33L506.94,302.57L540,302.28" style="vector-effect: non-scaling-stroke; fill: none; stroke: rgb(0, 191, 125); stroke-opacity: 1; stroke-width: 2px; opacity: 1;"/></g><g class="points"/><g class="text"/></g><g class="trace scatter trace0774b2" style="stroke-miterlimit: 2; opacity: 1;"><g class="fills"/><g class="errorbars"/><g class="lines"><path class="js-line" d="M0,16.26L11.02,20.5L22.04,26.24L33.06,32.39L44.08,40.76L55.1,51.15L66.12,64.02L77.14,79.05L88.16,95.88L143.27,188.88L154.29,205.4L165.31,220.47L176.33,233.59L187.35,245.38L198.37,255.48L209.39,263.75L220.41,270.77L231.43,276.77L242.45,281.52L264.49,288.58L275.51,291.67L308.57,296.73L319.59,298.06L341.63,299.64L352.65,299.91L363.67,300.91L374.69,301.08L429.8,302.49L440.82,302.31L462.86,302.07L473.88,303.3L495.92,302.33L506.94,302.57L540,302.28" style="vector-effect: non-scaling-stroke; fill: none; stroke: rgb(0, 176, 246); stroke-opacity: 1; stroke-width: 2px; opacity: 1;"/></g><g class="points"/><g class="text"/></g><g class="trace scatter trace3a5bbd" style="stroke-miterlimit: 2; opacity: 1;"><g class="fills"/><g class="errorbars"/><g class="lines"><path class="js-line" d="M0,16.16L22.04,25.69L33.06,32.56L44.08,41.04L55.1,51.78L66.12,64.82L77.14,80.29L99.18,116.11L110.2,134.64L132.24,172.07L143.27,189.26L154.29,205.75L165.31,220.41L176.33,233.82L187.35,245.73L198.37,255.45L209.39,263.95L231.43,276.73L242.45,281.5L253.47,285.73L264.49,288.68L275.51,291.37L286.53,293.11L308.57,296.65L319.59,297.67L330.61,298.13L341.63,299.63L352.65,299.78L363.67,300.75L385.71,301.2L396.73,301.56L407.76,302.67L418.78,302.44L473.88,302.79L484.9,303.38L506.94,302.33L517.96,303.07L528.98,303.6L540,303.11" style="vector-effect: non-scaling-stroke; fill: none; stroke: rgb(231, 107, 243); stroke-opacity: 1; stroke-width: 2px; opacity: 1;"/></g><g class="points"/><g class="text"/></g><g class="trace scatter trace4a11b7" style="stroke-miterlimit: 2; opacity: 1;"><g class="fills"/><g class="errorbars"/><g class="lines"><path class="js-line" d="M0,16.16L22.04,25.69L33.06,32.56L44.08,41.04L55.1,51.78L66.12,64.82L77.14,80.29L99.18,116.11L110.2,134.64L132.24,172.07L143.27,189.26L154.29,205.75L165.31,220.41L176.33,233.82L187.35,245.73L198.37,255.45L209.39,263.95L231.43,276.73L242.45,281.5L253.47,285.73L264.49,288.68L275.51,291.37L286.53,293.11L308.57,296.65L319.59,297.67L330.61,298.13L341.63,299.63L352.65,299.78L363.67,300.75L385.71,301.2L396.73,301.56L407.76,302.67L418.78,302.44L473.88,302.79L484.9,303.38L506.94,302.33L517.96,303.07L528.98,303.6L540,303.11" style="vector-effect: non-scaling-stroke; fill: none; stroke: rgb(248, 118, 109); stroke-opacity: 1; stroke-width: 2px; opacity: 1;"/></g><g class="points"/><g class="text"/></g><g class="trace scatter traceb81489" style="stroke-miterlimit: 2; opacity: 1;"><g class="fills"/><g class="errorbars"/><g class="lines"><path class="js-line" d="M0,16.13L11.02,20.67L22.04,26.34L33.06,32.85L44.08,41.37L55.1,51.7L66.12,64.35L77.14,79.39L88.16,96.14L143.27,189.16L154.29,205.4L165.31,220.33L176.33,233.57L187.35,244.97L198.37,255.09L209.39,263.41L220.41,270.59L231.43,276.46L242.45,281.43L253.47,285.44L264.49,288.27L275.51,291.18L286.53,293.14L319.59,297.94L330.61,298.46L341.63,299.54L352.65,299.72L407.76,301.86L418.78,301.69L440.82,302.47L451.84,302.93L473.88,302.4L484.9,302.75L528.98,302.7L540,303.21" style="vector-effect: non-scaling-stroke; fill: none; stroke: rgb(163, 165, 0); stroke-opacity: 1; stroke-width: 2px; opacity: 1;"/></g><g class="points"/><g class="text"/></g><g class="trace scatter trace2aa35a" style="stroke-miterlimit: 2; opacity: 1;"><g class="fills"/><g class="errorbars"/><g class="lines"><path class="js-line" d="M0,16.13L11.02,20.67L22.04,26.34L33.06,32.85L44.08,41.37L55.1,51.7L66.12,64.35L77.14,79.39L88.16,96.14L143.27,189.16L154.29,205.4L165.31,220.33L176.33,233.57L187.35,244.97L198.37,255.09L209.39,263.41L220.41,270.59L231.43,276.46L242.45,281.43L253.47,285.44L264.49,288.27L275.51,291.18L286.53,293.14L319.59,297.94L330.61,298.46L341.63,299.54L352.65,299.72L407.76,301.86L418.78,301.69L440.82,302.47L451.84,302.93L473.88,302.4L484.9,302.75L528.98,302.7L540,303.21" style="vector-effect: non-scaling-stroke; fill: none; stroke: rgb(0, 191, 125); stroke-opacity: 1; stroke-width: 2px; opacity: 1;"/></g><g class="points"/><g class="text"/></g><g class="trace scatter trace131cc9" style="stroke-miterlimit: 2; opacity: 1;"><g class="fills"/><g class="errorbars"/><g class="lines"><path class="js-line" d="M0,16.15L11.02,20.79L22.04,26.44L33.06,32.67L44.08,41.04L55.1,51.27L66.12,63.94L77.14,78.68L88.16,96L143.27,189.13L154.29,205.16L165.31,220.3L176.33,234L187.35,245.7L198.37,255.48L209.39,264.25L220.41,271.39L231.43,277.08L242.45,281.79L264.49,289.49L275.51,290.85L286.53,293.66L297.55,295.36L319.59,297.89L330.61,298.64L352.65,300.33L363.67,300.29L374.69,301L385.71,300.94L418.78,302.47L429.8,301.86L528.98,303.05L540,302.87" style="vector-effect: non-scaling-stroke; fill: none; stroke: rgb(0, 176, 246); stroke-opacity: 1; stroke-width: 2px; opacity: 1;"/></g><g class="points"/><g class="text"/></g><g class="trace scatter tracefcf965" style="stroke-miterlimit: 2; opacity: 1;"><g class="fills"/><g class="errorbars"/><g class="lines"><path class="js-line" d="M0,16.15L11.02,20.79L22.04,26.44L33.06,32.67L44.08,41.04L55.1,51.27L66.12,63.94L77.14,78.68L88.16,96L143.27,189.13L154.29,205.16L165.31,220.3L176.33,234L187.35,245.7L198.37,255.48L209.39,264.25L220.41,271.39L231.43,277.08L242.45,281.79L264.49,289.49L275.51,290.85L286.53,293.66L297.55,295.36L319.59,297.89L330.61,298.64L352.65,300.33L363.67,300.29L374.69,301L385.71,300.94L418.78,302.47L429.8,301.86L528.98,303.05L540,302.87" style="vector-effect: non-scaling-stroke; fill: none; stroke: rgb(231, 107, 243); stroke-opacity: 1; stroke-width: 2px; opacity: 1;"/></g><g class="points"/><g class="text"/></g><g class="trace scatter traceb19c9c" style="stroke-miterlimit: 2; opacity: 1;"><g class="fills"/><g class="errorbars"/><g class="lines"><path class="js-line" d="M0,16.28L11.02,20.45L22.04,26.3L33.06,32.92L44.08,41.34L55.1,51.92L66.12,64.67L77.14,79.73L88.16,96.7L110.2,134.02L121.22,152.93L143.27,188.19L154.29,204.45L165.31,219.26L176.33,232.72L198.37,253.97L209.39,262.78L231.43,275.61L242.45,280.8L275.51,290.67L286.53,292.62L319.59,297.5L330.61,298.23L341.63,298.62L352.65,299.8L374.69,300.77L385.71,300.78L407.76,302.07L418.78,301.85L495.92,303.01L506.94,302.51L540,302.98" style="vector-effect: non-scaling-stroke; fill: none; stroke: rgb(248, 118, 109); stroke-opacity: 1; stroke-width: 2px; opacity: 1;"/></g><g class="points"/><g class="text"/></g><g class="trace scatter trace0f0c95" style="stroke-miterlimit: 2; opacity: 1;"><g class="fills"/><g class="errorbars"/><g class="lines"><path class="js-line" d="M0,16.28L11.02,20.45L22.04,26.3L33.06,32.92L44.08,41.34L55.1,51.92L66.12,64.67L77.14,79.73L88.16,96.7L110.2,134.02L121.22,152.93L143.27,188.19L154.29,204.45L165.31,219.26L176.33,232.72L198.37,253.97L209.39,262.78L231.43,275.61L242.45,280.8L275.51,290.67L286.53,292.62L319.59,297.5L330.61,298.23L341.63,298.62L352.65,299.8L374.69,300.77L385.71,300.78L407.76,302.07L418.78,301.85L495.92,303.01L506.94,302.51L540,302.98" style="vector-effect: non-scaling-stroke; fill: none; stroke: rgb(163, 165, 0); stroke-opacity: 1; stroke-width: 2px; opacity: 1;"/></g><g class="points"/><g class="text"/></g><g class="trace scatter traced505f1" style="stroke-miterlimit: 2; opacity: 1;"><g class="fills"/><g class="errorbars"/><g class="lines"><path class="js-line" d="M0,16.15L11.02,20.39L22.04,26.1L33.06,32.59L44.08,40.77L55.1,51.12L66.12,63.7L77.14,78.68L88.16,95.53L110.2,132.8L121.22,151.83L143.27,187.67L154.29,204.13L165.31,219.18L176.33,232.3L187.35,244.19L198.37,254.02L209.39,262.95L220.41,269.6L231.43,276.07L242.45,280.91L264.49,288.17L275.51,290.76L297.55,294.14L308.57,295.44L319.59,297.4L330.61,298.2L341.63,298.42L352.65,299.91L363.67,299.11L374.69,299.52L396.73,301.28L407.76,301.19L429.8,301.86L440.82,301.92L484.9,301.98L495.92,302.2L540,301.57" style="vector-effect: non-scaling-stroke; fill: none; stroke: rgb(0, 191, 125); stroke-opacity: 1; stroke-width: 2px; opacity: 1;"/></g><g class="points"/><g class="text"/></g><g class="trace scatter trace1efdfe" style="stroke-miterlimit: 2; opacity: 1;"><g class="fills"/><g class="errorbars"/><g class="lines"><path class="js-line" d="M0,16.15L11.02,20.39L22.04,26.1L33.06,32.59L44.08,40.77L55.1,51.12L66.12,63.7L77.14,78.68L88.16,95.53L110.2,132.8L121.22,151.83L143.27,187.67L154.29,204.13L165.31,219.18L176.33,232.3L187.35,244.19L198.37,254.02L209.39,262.95L220.41,269.6L231.43,276.07L242.45,280.91L264.49,288.17L275.51,290.76L297.55,294.14L308.57,295.44L319.59,297.4L330.61,298.2L341.63,298.42L352.65,299.91L363.67,299.11L374.69,299.52L396.73,301.28L407.76,301.19L429.8,301.86L440.82,301.92L484.9,301.98L495.92,302.2L540,301.57" style="vector-effect: non-scaling-stroke; fill: none; stroke: rgb(0, 176, 246); stroke-opacity: 1; stroke-width: 2px; opacity: 1;"/></g><g class="points"/><g class="text"/></g><g class="trace scatter trace15da88" style="stroke-miterlimit: 2; opacity: 1;"><g class="fills"/><g class="errorbars"/><g class="lines"><path class="js-line" d="M0,16.26L11.02,20.65L22.04,26.15L33.06,32.64L44.08,40.88L55.1,51.29L66.12,63.89L77.14,78.84L88.16,95.99L110.2,133.57L121.22,152.62L143.27,188.41L154.29,205.22L165.31,220.07L176.33,233.06L198.37,255.41L209.39,263.91L231.43,276.83L242.45,281.61L264.49,288.71L275.51,290.98L286.53,293.55L297.55,294.81L319.59,297.64L330.61,299.09L341.63,298.68L352.65,299.9L374.69,301.93L385.71,300.94L396.73,301.69L407.76,301.57L495.92,302.78L506.94,302.49L528.98,303.01L540,301.93" style="vector-effect: non-scaling-stroke; fill: none; stroke: rgb(231, 107, 243); stroke-opacity: 1; stroke-width: 2px; opacity: 1;"/></g><g class="points"/><g class="text"/></g><g class="trace scatter traceab736b" style="stroke-miterlimit: 2; opacity: 1;"><g class="fills"/><g class="errorbars"/><g class="lines"><path class="js-line" d="M0,16.26L11.02,20.65L22.04,26.15L33.06,32.64L44.08,40.88L55.1,51.29L66.12,63.89L77.14,78.84L88.16,95.99L110.2,133.57L121.22,152.62L143.27,188.41L154.29,205.22L165.31,220.07L176.33,233.06L198.37,255.41L209.39,263.91L231.43,276.83L242.45,281.61L264.49,288.71L275.51,290.98L286.53,293.55L297.55,294.81L319.59,297.64L330.61,299.09L341.63,298.68L352.65,299.9L374.69,301.93L385.71,300.94L396.73,301.69L407.76,301.57L495.92,302.78L506.94,302.49L528.98,303.01L540,301.93" style="vector-effect: non-scaling-stroke; fill: none; stroke: rgb(248, 118, 109); stroke-opacity: 1; stroke-width: 2px; opacity: 1;"/></g><g class="points"/><g class="text"/></g><g class="trace scatter trace566a1d" style="stroke-miterlimit: 2; opacity: 1;"><g class="fills"/><g class="errorbars"/><g class="lines"><path class="js-line" d="M0,16.3L11.02,20.66L22.04,26.61L33.06,33.25L44.08,41.56L55.1,52.04L66.12,64.97L77.14,80.48L88.16,97.44L110.2,134.77L121.22,153.64L143.27,189.25L154.29,205.8L165.31,220.72L176.33,234.12L198.37,255.43L209.39,264.33L220.41,271.29L231.43,277.36L242.45,282.07L253.47,285.44L275.51,291.85L286.53,293.5L308.57,296.6L319.59,298.03L374.69,300.8L385.71,301.32L396.73,301.95L407.76,301.43L418.78,302.44L429.8,302.01L440.82,301.69L451.84,303.15L462.86,302.61L473.88,302.89L495.92,302.24L506.94,302.87L517.96,303.67L528.98,302.54L540,302.63" style="vector-effect: non-scaling-stroke; fill: none; stroke: rgb(163, 165, 0); stroke-opacity: 1; stroke-width: 2px; opacity: 1;"/></g><g class="points"/><g class="text"/></g><g class="trace scatter trace611021" style="stroke-miterlimit: 2; opacity: 1;"><g class="fills"/><g class="errorbars"/><g class="lines"><path class="js-line" d="M0,16.3L11.02,20.66L22.04,26.61L33.06,33.25L44.08,41.56L55.1,52.04L66.12,64.97L77.14,80.48L88.16,97.44L110.2,134.77L121.22,153.64L143.27,189.25L154.29,205.8L165.31,220.72L176.33,234.12L198.37,255.43L209.39,264.33L220.41,271.29L231.43,277.36L242.45,282.07L253.47,285.44L275.51,291.85L286.53,293.5L308.57,296.6L319.59,298.03L374.69,300.8L385.71,301.32L396.73,301.95L407.76,301.43L418.78,302.44L429.8,302.01L440.82,301.69L451.84,303.15L462.86,302.61L473.88,302.89L495.92,302.24L506.94,302.87L517.96,303.67L528.98,302.54L540,302.63" style="vector-effect: non-scaling-stroke; fill: none; stroke: rgb(0, 191, 125); stroke-opacity: 1; stroke-width: 2px; opacity: 1;"/></g><g class="points"/><g class="text"/></g><g class="trace scatter trace88a04a" style="stroke-miterlimit: 2; opacity: 1;"><g class="fills"/><g class="errorbars"/><g class="lines"><path class="js-line" d="M0,16.15L11.02,20.56L22.04,25.83L33.06,32.44L44.08,40.75L55.1,51.46L66.12,64.35L77.14,79.41L88.16,96.55L121.22,152.83L132.24,171.6L154.29,205.47L165.31,220.91L176.33,234.26L187.35,245.47L198.37,256.06L209.39,264.33L220.41,271.61L231.43,277.33L242.45,282.46L253.47,286.36L275.51,291.85L286.53,294.09L352.65,300.8L363.67,300.63L385.71,301.47L396.73,302.3L429.8,302.32L440.82,302.79L517.96,303.15L528.98,302.4L540,302.49" style="vector-effect: non-scaling-stroke; fill: none; stroke: rgb(0, 176, 246); stroke-opacity: 1; stroke-width: 2px; opacity: 1;"/></g><g class="points"/><g class="text"/></g><g class="trace scatter tracef8b240" style="stroke-miterlimit: 2; opacity: 1;"><g class="fills"/><g class="errorbars"/><g class="lines"><path class="js-line" d="M0,16.15L11.02,20.56L22.04,25.83L33.06,32.44L44.08,40.75L55.1,51.46L66.12,64.35L77.14,79.41L88.16,96.55L121.22,152.83L132.24,171.6L154.29,205.47L165.31,220.91L176.33,234.26L187.35,245.47L198.37,256.06L209.39,264.33L220.41,271.61L231.43,277.33L242.45,282.46L253.47,286.36L275.51,291.85L286.53,294.09L352.65,300.8L363.67,300.63L385.71,301.47L396.73,302.3L429.8,302.32L440.82,302.79L517.96,303.15L528.98,302.4L540,302.49" style="vector-effect: non-scaling-stroke; fill: none; stroke: rgb(231, 107, 243); stroke-opacity: 1; stroke-width: 2px; opacity: 1;"/></g><g class="points"/><g class="text"/></g><g class="trace scatter tracec41e0d" style="stroke-miterlimit: 2; opacity: 1;"><g class="fills"/><g class="errorbars"/><g class="lines"><path class="js-line" d="M0,16.07L11.02,20.86L22.04,26.53L33.06,32.81L44.08,40.93L55.1,51.43L66.12,64.32L77.14,79.04L88.16,96.13L110.2,133.38L121.22,152.16L143.27,187.77L154.29,204.3L176.33,232.51L187.35,244.13L198.37,253.94L209.39,262.54L220.41,269.96L231.43,276.14L253.47,284.78L264.49,287.49L275.51,290.7L286.53,292.93L297.55,294.5L308.57,295.16L330.61,297.53L341.63,298.31L363.67,300.12L374.69,299.96L385.71,301.01L396.73,300.98L418.78,301.99L429.8,301.01L451.84,301.96L462.86,301.58L484.9,301.93L495.92,302.38L540,302.43" style="vector-effect: non-scaling-stroke; fill: none; stroke: rgb(248, 118, 109); stroke-opacity: 1; stroke-width: 2px; opacity: 1;"/></g><g class="points"/><g class="text"/></g><g class="trace scatter trace938b02" style="stroke-miterlimit: 2; opacity: 1;"><g class="fills"/><g class="errorbars"/><g class="lines"><path class="js-line" d="M0,16.07L11.02,20.86L22.04,26.53L33.06,32.81L44.08,40.93L55.1,51.43L66.12,64.32L77.14,79.04L88.16,96.13L110.2,133.38L121.22,152.16L143.27,187.77L154.29,204.3L176.33,232.51L187.35,244.13L198.37,253.94L209.39,262.54L220.41,269.96L231.43,276.14L253.47,284.78L264.49,287.49L275.51,290.7L286.53,292.93L297.55,294.5L308.57,295.16L330.61,297.53L341.63,298.31L363.67,300.12L374.69,299.96L385.71,301.01L396.73,300.98L418.78,301.99L429.8,301.01L451.84,301.96L462.86,301.58L484.9,301.93L495.92,302.38L540,302.43" style="vector-effect: non-scaling-stroke; fill: none; stroke: rgb(163, 165, 0); stroke-opacity: 1; stroke-width: 2px; opacity: 1;"/></g><g class="points"/><g class="text"/></g><g class="trace scatter trace0b849c" style="stroke-miterlimit: 2; opacity: 1;"><g class="fills"/><g class="errorbars"/><g class="lines"><path class="js-line" d="M0,16.13L11.02,20.48L22.04,25.92L33.06,32.7L44.08,40.84L55.1,51.51L66.12,64.4L77.14,79.65L88.16,96.75L121.22,153.04L132.24,171.74L154.29,205.45L165.31,220.05L187.35,245.01L198.37,255.22L209.39,263.7L220.41,271.05L242.45,281.68L253.47,284.98L264.49,289.1L275.51,291.01L297.55,295L308.57,296.22L319.59,297.79L330.61,297.9L352.65,300.67L363.67,299.89L374.69,301.35L385.71,301.52L418.78,301.65L429.8,302.42L440.82,301.94L451.84,302.79L484.9,302.26L495.92,302.01L506.94,302.88L517.96,302.95L540,302.56" style="vector-effect: non-scaling-stroke; fill: none; stroke: rgb(0, 191, 125); stroke-opacity: 1; stroke-width: 2px; opacity: 1;"/></g><g class="points"/><g class="text"/></g><g class="trace scatter trace1f8d7b" style="stroke-miterlimit: 2; opacity: 1;"><g class="fills"/><g class="errorbars"/><g class="lines"><path class="js-line" d="M0,16.13L11.02,20.48L22.04,25.92L33.06,32.7L44.08,40.84L55.1,51.51L66.12,64.4L77.14,79.65L88.16,96.75L121.22,153.04L132.24,171.74L154.29,205.45L165.31,220.05L187.35,245.01L198.37,255.22L209.39,263.7L220.41,271.05L242.45,281.68L253.47,284.98L264.49,289.1L275.51,291.01L297.55,295L308.57,296.22L319.59,297.79L330.61,297.9L352.65,300.67L363.67,299.89L374.69,301.35L385.71,301.52L418.78,301.65L429.8,302.42L440.82,301.94L451.84,302.79L484.9,302.26L495.92,302.01L506.94,302.88L517.96,302.95L540,302.56" style="vector-effect: non-scaling-stroke; fill: none; stroke: rgb(0, 176, 246); stroke-opacity: 1; stroke-width: 2px; opacity: 1;"/></g><g class="points"/><g class="text"/></g><g class="trace scatter tracea7acb9" style="stroke-miterlimit: 2; opacity: 1;"><g class="fills"/><g class="errorbars"/><g class="lines"><path class="js-line" d="M0,16.16L11.02,20.73L22.04,26.71L33.06,33.32L44.08,41.84L55.1,52.37L66.12,65.15L77.14,80.35L88.16,97.16L132.24,171.57L143.27,188.3L154.29,204.75L165.31,219.06L176.33,232.56L187.35,243.93L209.39,262.58L220.41,269.54L231.43,275.86L242.45,280.66L264.49,288.36L275.51,290.74L286.53,293.28L297.55,294.75L319.59,297.28L330.61,297.7L352.65,299.07L363.67,300.02L385.71,301.73L396.73,301.49L429.8,301.44L440.82,302.27L451.84,302.92L462.86,302.28L506.94,303.08L517.96,302.34L528.98,302.35L540,303.23" style="vector-effect: non-scaling-stroke; fill: none; stroke: rgb(231, 107, 243); stroke-opacity: 1; stroke-width: 2px; opacity: 1;"/></g><g class="points"/><g class="text"/></g><g class="trace scatter tracea2308a" style="stroke-miterlimit: 2; opacity: 1;"><g class="fills"/><g class="errorbars"/><g class="lines"><path class="js-line" d="M0,16.16L11.02,20.73L22.04,26.71L33.06,33.32L44.08,41.84L55.1,52.37L66.12,65.15L77.14,80.35L88.16,97.16L132.24,171.57L143.27,188.3L154.29,204.75L165.31,219.06L176.33,232.56L187.35,243.93L209.39,262.58L220.41,269.54L231.43,275.86L242.45,280.66L264.49,288.36L275.51,290.74L286.53,293.28L297.55,294.75L319.59,297.28L330.61,297.7L352.65,299.07L363.67,300.02L385.71,301.73L396.73,301.49L429.8,301.44L440.82,302.27L451.84,302.92L462.86,302.28L506.94,303.08L517.96,302.34L528.98,302.35L540,303.23" style="vector-effect: non-scaling-stroke; fill: none; stroke: rgb(248, 118, 109); stroke-opacity: 1; stroke-width: 2px; opacity: 1;"/></g><g class="points"/><g class="text"/></g><g class="trace scatter traced37100" style="stroke-miterlimit: 2; opacity: 1;"><g class="fills"/><g class="errorbars"/><g class="lines"><path class="js-line" d="M0,16.21L11.02,20.78L22.04,26.48L33.06,32.95L44.08,41.53L55.1,52.01L66.12,64.64L77.14,79.93L88.16,97.58L143.27,189.14L154.29,205.4L165.31,220.18L176.33,233.4L187.35,245.11L198.37,254.91L209.39,263.35L220.41,270.59L231.43,276.54L242.45,281.04L253.47,285.41L264.49,288.22L275.51,291.26L286.53,293.11L341.63,299.24L352.65,299.62L374.69,300.35L385.71,301.14L418.78,302.28L429.8,301.72L451.84,302.86L462.86,302.7L484.9,302.18L495.92,303.2L540,302.52" style="vector-effect: non-scaling-stroke; fill: none; stroke: rgb(163, 165, 0); stroke-opacity: 1; stroke-width: 2px; opacity: 1;"/></g><g class="points"/><g class="text"/></g><g class="trace scatter trace6ee79b" style="stroke-miterlimit: 2; opacity: 1;"><g class="fills"/><g class="errorbars"/><g class="lines"><path class="js-line" d="M0,16.21L11.02,20.78L22.04,26.48L33.06,32.95L44.08,41.53L55.1,52.01L66.12,64.64L77.14,79.93L88.16,97.58L143.27,189.14L154.29,205.4L165.31,220.18L176.33,233.4L187.35,245.11L198.37,254.91L209.39,263.35L220.41,270.59L231.43,276.54L242.45,281.04L253.47,285.41L264.49,288.22L275.51,291.26L286.53,293.11L341.63,299.24L352.65,299.62L374.69,300.35L385.71,301.14L418.78,302.28L429.8,301.72L451.84,302.86L462.86,302.7L484.9,302.18L495.92,303.2L540,302.52" style="vector-effect: non-scaling-stroke; fill: none; stroke: rgb(0, 191, 125); stroke-opacity: 1; stroke-width: 2px; opacity: 1;"/></g><g class="points"/><g class="text"/></g><g class="trace scatter tracea369a3" style="stroke-miterlimit: 2; opacity: 1;"><g class="fills"/><g class="errorbars"/><g class="lines"><path class="js-line" d="M0,16.08L11.02,20.65L22.04,26.13L33.06,32.48L44.08,40.79L55.1,51.6L66.12,64.19L77.14,79.91L88.16,97L121.22,153.05L132.24,171.47L154.29,205.57L165.31,220.43L187.35,245.16L198.37,255.4L209.39,263.91L220.41,270.98L231.43,277.09L242.45,281.65L253.47,285.67L264.49,288.77L275.51,291.42L286.53,293.15L297.55,295.22L308.57,296.48L352.65,300.55L363.67,300.09L385.71,301.39L396.73,301.3L418.78,302.22L429.8,302.58L484.9,303.29L495.92,302.93L506.94,303.35L517.96,302.86L540,303.5" style="vector-effect: non-scaling-stroke; fill: none; stroke: rgb(0, 176, 246); stroke-opacity: 1; stroke-width: 2px; opacity: 1;"/></g><g class="points"/><g class="text"/></g><g class="trace scatter trace410620" style="stroke-miterlimit: 2; opacity: 1;"><g class="fills"/><g class="errorbars"/><g class="lines"><path class="js-line" d="M0,16.08L11.02,20.65L22.04,26.13L33.06,32.48L44.08,40.79L55.1,51.6L66.12,64.19L77.14,79.91L88.16,97L121.22,153.05L132.24,171.47L154.29,205.57L165.31,220.43L187.35,245.16L198.37,255.4L209.39,263.91L220.41,270.98L231.43,277.09L242.45,281.65L253.47,285.67L264.49,288.77L275.51,291.42L286.53,293.15L297.55,295.22L308.57,296.48L352.65,300.55L363.67,300.09L385.71,301.39L396.73,301.3L418.78,302.22L429.8,302.58L484.9,303.29L495.92,302.93L506.94,303.35L517.96,302.86L540,303.5" style="vector-effect: non-scaling-stroke; fill: none; stroke: rgb(231, 107, 243); stroke-opacity: 1; stroke-width: 2px; opacity: 1;"/></g><g class="points"/><g class="text"/></g><g class="trace scatter tracef9f533" style="stroke-miterlimit: 2; opacity: 1;"><g class="fills"/><g class="errorbars"/><g class="lines"><path class="js-line" d="M0,16.3L11.02,20.75L22.04,26.42L33.06,32.89L44.08,41.13L55.1,51.73L66.12,64.96L77.14,80.21L88.16,97.34L132.24,172.49L143.27,190.41L165.31,221.09L176.33,234.05L187.35,245.92L198.37,255.93L220.41,271.49L231.43,277.08L242.45,282.35L253.47,285.46L275.51,292.31L286.53,293.85L319.59,298.21L330.61,299.37L341.63,299.43L352.65,300.47L407.76,302.16L418.78,301.65L429.8,302.65L440.82,302.78L473.88,302.19L484.9,303.18L540,303.07" style="vector-effect: non-scaling-stroke; fill: none; stroke: rgb(248, 118, 109); stroke-opacity: 1; stroke-width: 2px; opacity: 1;"/></g><g class="points"/><g class="text"/></g><g class="trace scatter tracef758cb" style="stroke-miterlimit: 2; opacity: 1;"><g class="fills"/><g class="errorbars"/><g class="lines"><path class="js-line" d="M0,16.3L11.02,20.75L22.04,26.42L33.06,32.89L44.08,41.13L55.1,51.73L66.12,64.96L77.14,80.21L88.16,97.34L132.24,172.49L143.27,190.41L165.31,221.09L176.33,234.05L187.35,245.92L198.37,255.93L220.41,271.49L231.43,277.08L242.45,282.35L253.47,285.46L275.51,292.31L286.53,293.85L319.59,298.21L330.61,299.37L341.63,299.43L352.65,300.47L407.76,302.16L418.78,301.65L429.8,302.65L440.82,302.78L473.88,302.19L484.9,303.18L540,303.07" style="vector-effect: non-scaling-stroke; fill: none; stroke: rgb(163, 165, 0); stroke-opacity: 1; stroke-width: 2px; opacity: 1;"/></g><g class="points"/><g class="text"/></g><g class="trace scatter trace8c38d5" style="stroke-miterlimit: 2; opacity: 1;"><g class="fills"/><g class="errorbars"/><g class="lines"><path class="js-line" d="M0,16.12L11.02,20.61L22.04,25.91L33.06,32.61L44.08,40.74L55.1,51.45L66.12,64.65L88.16,97.31L99.18,115.85L143.27,189.58L154.29,205.7L176.33,233.57L187.35,245.09L198.37,255.37L209.39,263.65L220.41,271.05L231.43,276.47L242.45,281.78L253.47,285.34L275.51,291.39L286.53,292.96L297.55,295.43L308.57,296.34L319.59,298.28L330.61,298.39L352.65,300.05L363.67,299.93L374.69,301.26L385.71,301.75L396.73,300.94L407.76,302.01L440.82,302.57L451.84,302.62L462.86,303.17L473.88,302.21L495.92,303.48L506.94,303.01L540,303.06" style="vector-effect: non-scaling-stroke; fill: none; stroke: rgb(0, 191, 125); stroke-opacity: 1; stroke-width: 2px; opacity: 1;"/></g><g class="points"/><g class="text"/></g><g class="trace scatter trace15b997" style="stroke-miterlimit: 2; opacity: 1;"><g class="fills"/><g class="errorbars"/><g class="lines"><path class="js-line" d="M0,16.12L11.02,20.61L22.04,25.91L33.06,32.61L44.08,40.74L55.1,51.45L66.12,64.65L88.16,97.31L99.18,115.85L143.27,189.58L154.29,205.7L176.33,233.57L187.35,245.09L198.37,255.37L209.39,263.65L220.41,271.05L231.43,276.47L242.45,281.78L253.47,285.34L275.51,291.39L286.53,292.96L297.55,295.43L308.57,296.34L319.59,298.28L330.61,298.39L352.65,300.05L363.67,299.93L374.69,301.26L385.71,301.75L396.73,300.94L407.76,302.01L440.82,302.57L451.84,302.62L462.86,303.17L473.88,302.21L495.92,303.48L506.94,303.01L540,303.06" style="vector-effect: non-scaling-stroke; fill: none; stroke: rgb(0, 176, 246); stroke-opacity: 1; stroke-width: 2px; opacity: 1;"/></g><g class="points"/><g class="text"/></g><g class="trace scatter trace6ada17" style="stroke-miterlimit: 2; opacity: 1;"><g class="fills"/><g class="errorbars"/><g class="lines"><path class="js-line" d="M0,16.16L22.04,25.85L33.06,32.44L44.08,40.76L55.1,51.24L66.12,64.03L77.14,78.89L99.18,114.2L110.2,132.97L132.24,169.84L143.27,187.77L165.31,218.35L176.33,231.63L187.35,243.18L198.37,253.21L209.39,262.03L220.41,269.05L242.45,279.78L253.47,283.91L275.51,290.33L286.53,292.29L319.59,296.72L330.61,297.15L363.67,299.66L374.69,300.22L385.71,300.25L396.73,301.09L429.8,301.93L440.82,301.44L484.9,302.47L495.92,302.18L506.94,302.6L517.96,302L540,302.77" style="vector-effect: non-scaling-stroke; fill: none; stroke: rgb(231, 107, 243); stroke-opacity: 1; stroke-width: 2px; opacity: 1;"/></g><g class="points"/><g class="text"/></g><g class="trace scatter trace252443" style="stroke-miterlimit: 2; opacity: 1;"><g class="fills"/><g class="errorbars"/><g class="lines"><path class="js-line" d="M0,16.16L22.04,25.85L33.06,32.44L44.08,40.76L55.1,51.24L66.12,64.03L77.14,78.89L99.18,114.2L110.2,132.97L132.24,169.84L143.27,187.77L165.31,218.35L176.33,231.63L187.35,243.18L198.37,253.21L209.39,262.03L220.41,269.05L242.45,279.78L253.47,283.91L275.51,290.33L286.53,292.29L319.59,296.72L330.61,297.15L363.67,299.66L374.69,300.22L385.71,300.25L396.73,301.09L429.8,301.93L440.82,301.44L484.9,302.47L495.92,302.18L506.94,302.6L517.96,302L540,302.77" style="vector-effect: non-scaling-stroke; fill: none; stroke: rgb(248, 118, 109); stroke-opacity: 1; stroke-width: 2px; opacity: 1;"/></g><g class="points"/><g class="text"/></g><g class="trace scatter trace9e5286" style="stroke-miterlimit: 2; opacity: 1;"><g class="fills"/><g class="errorbars"/><g class="lines"><path class="js-line" d="M0,16.19L11.02,20.83L22.04,26.65L33.06,32.83L44.08,41.08L55.1,51.29L66.12,64.05L77.14,78.92L88.16,96.22L110.2,133.61L121.22,152.91L143.27,189.14L154.29,205.38L165.31,221L176.33,233.95L187.35,246.26L198.37,255.84L209.39,264.4L220.41,271.45L231.43,277.46L242.45,281.94L253.47,285.75L264.49,288.63L275.51,291.79L286.53,293.64L308.57,297.16L319.59,297.44L330.61,299.36L341.63,299.63L352.65,300.91L363.67,300.7L374.69,300.79L385.71,301.98L407.76,301.6L418.78,303.02L429.8,302.15L440.82,302.46L462.86,303.09L473.88,302.42L495.92,303.23L506.94,303.39L528.98,302.84L540,303.28" style="vector-effect: non-scaling-stroke; fill: none; stroke: rgb(163, 165, 0); stroke-opacity: 1; stroke-width: 2px; opacity: 1;"/></g><g class="points"/><g class="text"/></g><g class="trace scatter tracee0e9ba" style="stroke-miterlimit: 2; opacity: 1;"><g class="fills"/><g class="errorbars"/><g class="lines"><path class="js-line" d="M0,16.19L11.02,20.83L22.04,26.65L33.06,32.83L44.08,41.08L55.1,51.29L66.12,64.05L77.14,78.92L88.16,96.22L110.2,133.61L121.22,152.91L143.27,189.14L154.29,205.38L165.31,221L176.33,233.95L187.35,246.26L198.37,255.84L209.39,264.4L220.41,271.45L231.43,277.46L242.45,281.94L253.47,285.75L264.49,288.63L275.51,291.79L286.53,293.64L308.57,297.16L319.59,297.44L330.61,299.36L341.63,299.63L352.65,300.91L363.67,300.7L374.69,300.79L385.71,301.98L407.76,301.6L418.78,303.02L429.8,302.15L440.82,302.46L462.86,303.09L473.88,302.42L495.92,303.23L506.94,303.39L528.98,302.84L540,303.28" style="vector-effect: non-scaling-stroke; fill: none; stroke: rgb(0, 191, 125); stroke-opacity: 1; stroke-width: 2px; opacity: 1;"/></g><g class="points"/><g class="text"/></g><g class="trace scatter tracecb0e9f" style="stroke-miterlimit: 2; opacity: 1;"><g class="fills"/><g class="errorbars"/><g class="lines"><path class="js-line" d="M0,16.09L11.02,20.6L22.04,26.03L33.06,32.77L44.08,40.88L55.1,51.4L66.12,64.37L77.14,79.3L88.16,96.2L110.2,133.51L121.22,152.33L143.27,188.48L154.29,204.9L176.33,233.49L187.35,245.12L209.39,263.65L220.41,270.6L231.43,276.61L242.45,281.19L253.47,285.61L264.49,288.41L286.53,293.38L297.55,294.73L330.61,298.58L341.63,299.04L363.67,300.11L374.69,300.49L407.76,302.07L418.78,301.52L462.86,302.23L473.88,301.85L495.92,302.98L506.94,302.54L540,301.65" style="vector-effect: non-scaling-stroke; fill: none; stroke: rgb(0, 176, 246); stroke-opacity: 1; stroke-width: 2px; opacity: 1;"/></g><g class="points"/><g class="text"/></g><g class="trace scatter trace95e253" style="stroke-miterlimit: 2; opacity: 1;"><g class="fills"/><g class="errorbars"/><g class="lines"><path class="js-line" d="M0,16.09L11.02,20.6L22.04,26.03L33.06,32.77L44.08,40.88L55.1,51.4L66.12,64.37L77.14,79.3L88.16,96.2L110.2,133.51L121.22,152.33L143.27,188.48L154.29,204.9L176.33,233.49L187.35,245.12L209.39,263.65L220.41,270.6L231.43,276.61L242.45,281.19L253.47,285.61L264.49,288.41L286.53,293.38L297.55,294.73L330.61,298.58L341.63,299.04L363.67,300.11L374.69,300.49L407.76,302.07L418.78,301.52L462.86,302.23L473.88,301.85L495.92,302.98L506.94,302.54L540,301.65" style="vector-effect: non-scaling-stroke; fill: none; stroke: rgb(231, 107, 243); stroke-opacity: 1; stroke-width: 2px; opacity: 1;"/></g><g class="points"/><g class="text"/></g><g class="trace scatter tracef9966b" style="stroke-miterlimit: 2; opacity: 1;"><g class="fills"/><g class="errorbars"/><g class="lines"><path class="js-line" d="M0,16.11L11.02,20.64L22.04,26.35L33.06,32.92L44.08,41.11L55.1,51.72L66.12,64.36L77.14,79.58L88.16,97.24L110.2,134.33L121.22,153.43L143.27,189.28L154.29,205.3L165.31,220.75L176.33,233.43L187.35,244.85L198.37,255.07L209.39,263.31L220.41,270.36L231.43,276.54L242.45,280.97L253.47,285.37L264.49,288.64L297.55,294.97L308.57,296.61L341.63,299.64L352.65,300.05L363.67,300.06L374.69,301.61L418.78,301.87L429.8,302.45L440.82,302.08L451.84,302.64L528.98,302.94L540,302.2" style="vector-effect: non-scaling-stroke; fill: none; stroke: rgb(248, 118, 109); stroke-opacity: 1; stroke-width: 2px; opacity: 1;"/></g><g class="points"/><g class="text"/></g><g class="trace scatter trace0e2f0d" style="stroke-miterlimit: 2; opacity: 1;"><g class="fills"/><g class="errorbars"/><g class="lines"><path class="js-line" d="M0,16.11L11.02,20.64L22.04,26.35L33.06,32.92L44.08,41.11L55.1,51.72L66.12,64.36L77.14,79.58L88.16,97.24L110.2,134.33L121.22,153.43L143.27,189.28L154.29,205.3L165.31,220.75L176.33,233.43L187.35,244.85L198.37,255.07L209.39,263.31L220.41,270.36L231.43,276.54L242.45,280.97L253.47,285.37L264.49,288.64L297.55,294.97L308.57,296.61L341.63,299.64L352.65,300.05L363.67,300.06L374.69,301.61L418.78,301.87L429.8,302.45L440.82,302.08L451.84,302.64L528.98,302.94L540,302.2" style="vector-effect: non-scaling-stroke; fill: none; stroke: rgb(163, 165, 0); stroke-opacity: 1; stroke-width: 2px; opacity: 1;"/></g><g class="points"/><g class="text"/></g><g class="trace scatter trace1a4bd8" style="stroke-miterlimit: 2; opacity: 1;"><g class="fills"/><g class="errorbars"/><g class="lines"><path class="js-line" d="M0,16.25L11.02,20.63L22.04,26.2L33.06,32.64L44.08,40.75L55.1,51.47L66.12,63.99L77.14,78.96L88.16,96L143.27,187.94L154.29,204.2L165.31,219.31L176.33,232.44L187.35,244.31L198.37,254.66L220.41,269.94L231.43,275.73L242.45,281.01L253.47,284.71L264.49,287.93L275.51,290.32L297.55,294.81L308.57,295.6L341.63,298.58L352.65,299.38L385.71,300.24L396.73,300.84L418.78,300.94L429.8,302.17L462.86,301.6L473.88,302.14L495.92,301.91L506.94,302.4L528.98,301.95L540,301.89" style="vector-effect: non-scaling-stroke; fill: none; stroke: rgb(0, 191, 125); stroke-opacity: 1; stroke-width: 2px; opacity: 1;"/></g><g class="points"/><g class="text"/></g><g class="trace scatter trace36c5f6" style="stroke-miterlimit: 2; opacity: 1;"><g class="fills"/><g class="errorbars"/><g class="lines"><path class="js-line" d="M0,16.25L11.02,20.63L22.04,26.2L33.06,32.64L44.08,40.75L55.1,51.47L66.12,63.99L77.14,78.96L88.16,96L143.27,187.94L154.29,204.2L165.31,219.31L176.33,232.44L187.35,244.31L198.37,254.66L220.41,269.94L231.43,275.73L242.45,281.01L253.47,284.71L264.49,287.93L275.51,290.32L297.55,294.81L308.57,295.6L341.63,298.58L352.65,299.38L385.71,300.24L396.73,300.84L418.78,300.94L429.8,302.17L462.86,301.6L473.88,302.14L495.92,301.91L506.94,302.4L528.98,301.95L540,301.89" style="vector-effect: non-scaling-stroke; fill: none; stroke: rgb(0, 176, 246); stroke-opacity: 1; stroke-width: 2px; opacity: 1;"/></g><g class="points"/><g class="text"/></g><g class="trace scatter trace9eb27c" style="stroke-miterlimit: 2; opacity: 1;"><g class="fills"/><g class="errorbars"/><g class="lines"><path class="js-line" d="M0,16.11L11.02,20.48L22.04,25.67L33.06,32.51L44.08,40.76L55.1,51.05L66.12,64.43L77.14,79.59L88.16,97.02L110.2,134.43L121.22,153.38L143.27,189.41L154.29,205.48L165.31,221.16L176.33,234.19L198.37,256.13L209.39,264.66L220.41,271.99L231.43,277.82L242.45,282.61L253.47,286.32L286.53,294.13L297.55,295.49L319.59,297.93L330.61,298.92L363.67,300.99L374.69,301.22L407.76,302.33L418.78,301.88L429.8,302.67L440.82,302.44L473.88,302.79L484.9,302.65L495.92,303.3L506.94,302.99L517.96,302.46L528.98,302.99L540,302.91" style="vector-effect: non-scaling-stroke; fill: none; stroke: rgb(231, 107, 243); stroke-opacity: 1; stroke-width: 2px; opacity: 1;"/></g><g class="points"/><g class="text"/></g><g class="trace scatter trace8eded2" style="stroke-miterlimit: 2; opacity: 1;"><g class="fills"/><g class="errorbars"/><g class="lines"><path class="js-line" d="M0,16.11L11.02,20.48L22.04,25.67L33.06,32.51L44.08,40.76L55.1,51.05L66.12,64.43L77.14,79.59L88.16,97.02L110.2,134.43L121.22,153.38L143.27,189.41L154.29,205.48L165.31,221.16L176.33,234.19L198.37,256.13L209.39,264.66L220.41,271.99L231.43,277.82L242.45,282.61L253.47,286.32L286.53,294.13L297.55,295.49L319.59,297.93L330.61,298.92L363.67,300.99L374.69,301.22L407.76,302.33L418.78,301.88L429.8,302.67L440.82,302.44L473.88,302.79L484.9,302.65L495.92,303.3L506.94,302.99L517.96,302.46L528.98,302.99L540,302.91" style="vector-effect: non-scaling-stroke; fill: none; stroke: rgb(248, 118, 109); stroke-opacity: 1; stroke-width: 2px; opacity: 1;"/></g><g class="points"/><g class="text"/></g><g class="trace scatter trace58b9a9" style="stroke-miterlimit: 2; opacity: 1;"><g class="fills"/><g class="errorbars"/><g class="lines"><path class="js-line" d="M0,16.07L22.04,25.63L33.06,32.48L44.08,40.77L55.1,51.14L66.12,64.32L77.14,79.57L99.18,114.94L110.2,134.28L132.24,171.76L143.27,189.3L154.29,205.91L165.31,220.6L187.35,245.49L198.37,255.35L209.39,264.26L220.41,271.05L231.43,276.98L242.45,281.42L253.47,285.73L264.49,289.03L286.53,293.34L297.55,295.22L330.61,298.87L341.63,299.17L396.73,302.07L407.76,301.52L429.8,302.81L440.82,301.86L451.84,303.28L462.86,302.49L484.9,303.02L495.92,302.76L506.94,301.96L517.96,302.77L528.98,303.4L540,302.78" style="vector-effect: non-scaling-stroke; fill: none; stroke: rgb(163, 165, 0); stroke-opacity: 1; stroke-width: 2px; opacity: 1;"/></g><g class="points"/><g class="text"/></g><g class="trace scatter trace89428a" style="stroke-miterlimit: 2; opacity: 1;"><g class="fills"/><g class="errorbars"/><g class="lines"><path class="js-line" d="M0,16.07L22.04,25.63L33.06,32.48L44.08,40.77L55.1,51.14L66.12,64.32L77.14,79.57L99.18,114.94L110.2,134.28L132.24,171.76L143.27,189.3L154.29,205.91L165.31,220.6L187.35,245.49L198.37,255.35L209.39,264.26L220.41,271.05L231.43,276.98L242.45,281.42L253.47,285.73L264.49,289.03L286.53,293.34L297.55,295.22L330.61,298.87L341.63,299.17L396.73,302.07L407.76,301.52L429.8,302.81L440.82,301.86L451.84,303.28L462.86,302.49L484.9,303.02L495.92,302.76L506.94,301.96L517.96,302.77L528.98,303.4L540,302.78" style="vector-effect: non-scaling-stroke; fill: none; stroke: rgb(0, 191, 125); stroke-opacity: 1; stroke-width: 2px; opacity: 1;"/></g><g class="points"/><g class="text"/></g><g class="trace scatter tracee720e4" style="stroke-miterlimit: 2; opacity: 1;"><g class="fills"/><g class="errorbars"/><g class="lines"><path class="js-line" d="M0,16.13L11.02,20.52L22.04,26.09L33.06,32.45L44.08,40.61L55.1,51.03L66.12,63.65L77.14,78.69L88.16,95.46L143.27,188.2L154.29,204.96L165.31,219.79L176.33,233.18L187.35,245.2L198.37,255.48L209.39,263.99L220.41,271.07L242.45,281.82L253.47,285.74L275.51,292.18L286.53,293.84L308.57,297.22L319.59,297.6L341.63,299.53L352.65,299.91L385.71,302.22L396.73,301.63L440.82,302.26L451.84,302.81L462.86,301.66L473.88,303.02L506.94,302.4L517.96,302.8L528.98,302.28L540,302.76" style="vector-effect: non-scaling-stroke; fill: none; stroke: rgb(0, 176, 246); stroke-opacity: 1; stroke-width: 2px; opacity: 1;"/></g><g class="points"/><g class="text"/></g><g class="trace scatter tracea0f744" style="stroke-miterlimit: 2; opacity: 1;"><g class="fills"/><g class="errorbars"/><g class="lines"><path class="js-line" d="M0,16.13L11.02,20.52L22.04,26.09L33.06,32.45L44.08,40.61L55.1,51.03L66.12,63.65L77.14,78.69L88.16,95.46L143.27,188.2L154.29,204.96L165.31,219.79L176.33,233.18L187.35,245.2L198.37,255.48L209.39,263.99L220.41,271.07L242.45,281.82L253.47,285.74L275.51,292.18L286.53,293.84L308.57,297.22L319.59,297.6L341.63,299.53L352.65,299.91L385.71,302.22L396.73,301.63L440.82,302.26L451.84,302.81L462.86,301.66L473.88,303.02L506.94,302.4L517.96,302.8L528.98,302.28L540,302.76" style="vector-effect: non-scaling-stroke; fill: none; stroke: rgb(231, 107, 243); stroke-opacity: 1; stroke-width: 2px; opacity: 1;"/></g><g class="points"/><g class="text"/></g><g class="trace scatter trace1c32c1" style="stroke-miterlimit: 2; opacity: 1;"><g class="fills"/><g class="errorbars"/><g class="lines"><path class="js-line" d="M0,16.09L11.02,20.55L22.04,25.91L33.06,32.61L44.08,40.71L55.1,51.2L66.12,64.63L77.14,79.44L88.16,96.5L143.27,189.31L154.29,205.89L165.31,220.5L176.33,233.59L187.35,245.46L198.37,255.87L209.39,264.37L220.41,271.51L231.43,277.52L242.45,281.9L253.47,286.08L264.49,289.25L275.51,291.91L286.53,293.65L330.61,298.76L341.63,298.86L363.67,300.92L374.69,300.77L396.73,301.48L407.76,302.09L418.78,302.89L429.8,302.45L451.84,302.57L462.86,303.11L517.96,302.55L528.98,302.46L540,302.53" style="vector-effect: non-scaling-stroke; fill: none; stroke: rgb(248, 118, 109); stroke-opacity: 1; stroke-width: 2px; opacity: 1;"/></g><g class="points"/><g class="text"/></g><g class="trace scatter trace6333d5" style="stroke-miterlimit: 2; opacity: 1;"><g class="fills"/><g class="errorbars"/><g class="lines"><path class="js-line" d="M0,16.09L11.02,20.55L22.04,25.91L33.06,32.61L44.08,40.71L55.1,51.2L66.12,64.63L77.14,79.44L88.16,96.5L143.27,189.31L154.29,205.89L165.31,220.5L176.33,233.59L187.35,245.46L198.37,255.87L209.39,264.37L220.41,271.51L231.43,277.52L242.45,281.9L253.47,286.08L264.49,289.25L275.51,291.91L286.53,293.65L330.61,298.76L341.63,298.86L363.67,300.92L374.69,300.77L396.73,301.48L407.76,302.09L418.78,302.89L429.8,302.45L451.84,302.57L462.86,303.11L517.96,302.55L528.98,302.46L540,302.53" style="vector-effect: non-scaling-stroke; fill: none; stroke: rgb(163, 165, 0); stroke-opacity: 1; stroke-width: 2px; opacity: 1;"/></g><g class="points"/><g class="text"/></g><g class="trace scatter traceff040e" style="stroke-miterlimit: 2; opacity: 1;"><g class="fills"/><g class="errorbars"/><g class="lines"><path class="js-line" d="M0,16.1L22.04,25.38L33.06,32.52L44.08,40.53L55.1,51.35L66.12,64.35L77.14,79.55L88.16,96.73L99.18,115.42L143.27,188.86L154.29,204.95L176.33,233.29L187.35,244.67L198.37,254.88L209.39,263.04L231.43,276.5L242.45,281.03L264.49,288.52L275.51,290.84L297.55,294.57L308.57,296.65L319.59,298.05L330.61,298.37L396.73,301.89L407.76,301.47L418.78,302.37L429.8,301.78L473.88,303.24L484.9,302.55L495.92,303.16L506.94,302.8L517.96,302.28L528.98,302.78L540,302.78" style="vector-effect: non-scaling-stroke; fill: none; stroke: rgb(0, 191, 125); stroke-opacity: 1; stroke-width: 2px; opacity: 1;"/></g><g class="points"/><g class="text"/></g><g class="trace scatter trace923b34" style="stroke-miterlimit: 2; opacity: 1;"><g class="fills"/><g class="errorbars"/><g class="lines"><path class="js-line" d="M0,16.1L22.04,25.38L33.06,32.52L44.08,40.53L55.1,51.35L66.12,64.35L77.14,79.55L88.16,96.73L99.18,115.42L143.27,188.86L154.29,204.95L176.33,233.29L187.35,244.67L198.37,254.88L209.39,263.04L231.43,276.5L242.45,281.03L264.49,288.52L275.51,290.84L297.55,294.57L308.57,296.65L319.59,298.05L330.61,298.37L396.73,301.89L407.76,301.47L418.78,302.37L429.8,301.78L473.88,303.24L484.9,302.55L495.92,303.16L506.94,302.8L517.96,302.28L528.98,302.78L540,302.78" style="vector-effect: non-scaling-stroke; fill: none; stroke: rgb(0, 176, 246); stroke-opacity: 1; stroke-width: 2px; opacity: 1;"/></g><g class="points"/><g class="text"/></g><g class="trace scatter tracecc5741" style="stroke-miterlimit: 2; opacity: 1;"><g class="fills"/><g class="errorbars"/><g class="lines"><path class="js-line" d="M0,16.13L11.02,20.53L22.04,26.55L33.06,32.82L44.08,41.2L55.1,51.75L66.12,64.61L77.14,79.49L88.16,96.71L121.22,152.47L132.24,171.2L154.29,204.72L165.31,219.48L187.35,244.43L198.37,253.83L209.39,262.63L220.41,269.9L231.43,275.71L242.45,280.59L253.47,285.1L264.49,287.73L286.53,292.96L297.55,294.79L352.65,299.9L363.67,299.67L418.78,301.96L429.8,301.45L462.86,302.43L473.88,302.07L517.96,302.39L528.98,301.96L540,302.39" style="vector-effect: non-scaling-stroke; fill: none; stroke: rgb(231, 107, 243); stroke-opacity: 1; stroke-width: 2px; opacity: 1;"/></g><g class="points"/><g class="text"/></g><g class="trace scatter trace809401" style="stroke-miterlimit: 2; opacity: 1;"><g class="fills"/><g class="errorbars"/><g class="lines"><path class="js-line" d="M0,16.13L11.02,20.53L22.04,26.55L33.06,32.82L44.08,41.2L55.1,51.75L66.12,64.61L77.14,79.49L88.16,96.71L121.22,152.47L132.24,171.2L154.29,204.72L165.31,219.48L187.35,244.43L198.37,253.83L209.39,262.63L220.41,269.9L231.43,275.71L242.45,280.59L253.47,285.1L264.49,287.73L286.53,292.96L297.55,294.79L352.65,299.9L363.67,299.67L418.78,301.96L429.8,301.45L462.86,302.43L473.88,302.07L517.96,302.39L528.98,301.96L540,302.39" style="vector-effect: non-scaling-stroke; fill: none; stroke: rgb(248, 118, 109); stroke-opacity: 1; stroke-width: 2px; opacity: 1;"/></g><g class="points"/><g class="text"/></g><g class="trace scatter trace302f5c" style="stroke-miterlimit: 2; opacity: 1;"><g class="fills"/><g class="errorbars"/><g class="lines"><path class="js-line" d="M0,16.05L22.04,25.19L33.06,31.89L44.08,40.02L55.1,50.38L66.12,63.86L77.14,78.9L99.18,114.55L110.2,133.63L143.27,188.05L154.29,204.27L165.31,219.28L176.33,232.64L187.35,244.25L198.37,253.64L209.39,263.06L220.41,270.06L231.43,276.3L242.45,280.93L264.49,288.24L275.51,291.21L286.53,292.78L297.55,295.34L352.65,300.16L363.67,300.07L374.69,301.53L385.71,301.01L396.73,302.02L407.76,302.27L451.84,302.59L462.86,303.16L484.9,302.99L495.92,302.96L517.96,303.24L528.98,303.65L540,302.46" style="vector-effect: non-scaling-stroke; fill: none; stroke: rgb(163, 165, 0); stroke-opacity: 1; stroke-width: 2px; opacity: 1;"/></g><g class="points"/><g class="text"/></g><g class="trace scatter trace192e8a" style="stroke-miterlimit: 2; opacity: 1;"><g class="fills"/><g class="errorbars"/><g class="lines"><path class="js-line" d="M0,16.05L22.04,25.19L33.06,31.89L44.08,40.02L55.1,50.38L66.12,63.86L77.14,78.9L99.18,114.55L110.2,133.63L143.27,188.05L154.29,204.27L165.31,219.28L176.33,232.64L187.35,244.25L198.37,253.64L209.39,263.06L220.41,270.06L231.43,276.3L242.45,280.93L264.49,288.24L275.51,291.21L286.53,292.78L297.55,295.34L352.65,300.16L363.67,300.07L374.69,301.53L385.71,301.01L396.73,302.02L407.76,302.27L451.84,302.59L462.86,303.16L484.9,302.99L495.92,302.96L517.96,303.24L528.98,303.65L540,302.46" style="vector-effect: non-scaling-stroke; fill: none; stroke: rgb(0, 191, 125); stroke-opacity: 1; stroke-width: 2px; opacity: 1;"/></g><g class="points"/><g class="text"/></g><g class="trace scatter trace922b20" style="stroke-miterlimit: 2; opacity: 1;"><g class="fills"/><g class="errorbars"/><g class="lines"><path class="js-line" d="M0,16.09L11.02,20.53L22.04,26.06L33.06,32.45L44.08,40.92L55.1,51.34L66.12,64.2L77.14,79.13L88.16,96L110.2,133.42L121.22,152.31L143.27,188.35L154.29,204.61L176.33,232.73L187.35,244.45L198.37,254.49L209.39,263.08L231.43,275.84L242.45,281.36L264.49,288.52L275.51,290.57L286.53,292.98L297.55,294.49L308.57,295.74L319.59,297.94L330.61,298.08L341.63,298.99L396.73,302.1L407.76,301.63L429.8,302.13L440.82,301.64L462.86,302.39L473.88,302.67L528.98,302.71L540,303.2" style="vector-effect: non-scaling-stroke; fill: none; stroke: rgb(0, 176, 246); stroke-opacity: 1; stroke-width: 2px; opacity: 1;"/></g><g class="points"/><g class="text"/></g><g class="trace scatter trace85ab6f" style="stroke-miterlimit: 2; opacity: 1;"><g class="fills"/><g class="errorbars"/><g class="lines"><path class="js-line" d="M0,16.09L11.02,20.53L22.04,26.06L33.06,32.45L44.08,40.92L55.1,51.34L66.12,64.2L77.14,79.13L88.16,96L110.2,133.42L121.22,152.31L143.27,188.35L154.29,204.61L176.33,232.73L187.35,244.45L198.37,254.49L209.39,263.08L231.43,275.84L242.45,281.36L264.49,288.52L275.51,290.57L286.53,292.98L297.55,294.49L308.57,295.74L319.59,297.94L330.61,298.08L341.63,298.99L396.73,302.1L407.76,301.63L429.8,302.13L440.82,301.64L462.86,302.39L473.88,302.67L528.98,302.71L540,303.2" style="vector-effect: non-scaling-stroke; fill: none; stroke: rgb(231, 107, 243); stroke-opacity: 1; stroke-width: 2px; opacity: 1;"/></g><g class="points"/><g class="text"/></g><g class="trace scatter trace5d5798" style="stroke-miterlimit: 2; opacity: 1;"><g class="fills"/><g class="errorbars"/><g class="lines"><path class="js-line" d="M0,16.15L11.02,20.59L22.04,25.95L33.06,32.73L44.08,40.63L55.1,51.32L66.12,64.18L77.14,79.55L88.16,96.51L121.22,152.5L132.24,171.53L154.29,205.35L165.31,219.96L176.33,234.4L187.35,245.58L198.37,255.63L209.39,264.46L231.43,277.74L242.45,282.29L253.47,286.34L264.49,289.19L286.53,293.98L297.55,295.07L308.57,296.2L319.59,298.46L341.63,299.43L352.65,300.57L363.67,300.55L374.69,301.42L407.76,301.93L418.78,302.34L429.8,302.97L440.82,302.23L451.84,303.1L462.86,302.23L484.9,303.28L495.92,302.9L540,303.28" style="vector-effect: non-scaling-stroke; fill: none; stroke: rgb(248, 118, 109); stroke-opacity: 1; stroke-width: 2px; opacity: 1;"/></g><g class="points"/><g class="text"/></g><g class="trace scatter trace7138f3" style="stroke-miterlimit: 2; opacity: 1;"><g class="fills"/><g class="errorbars"/><g class="lines"><path class="js-line" d="M0,16.15L11.02,20.59L22.04,25.95L33.06,32.73L44.08,40.63L55.1,51.32L66.12,64.18L77.14,79.55L88.16,96.51L121.22,152.5L132.24,171.53L154.29,205.35L165.31,219.96L176.33,234.4L187.35,245.58L198.37,255.63L209.39,264.46L231.43,277.74L242.45,282.29L253.47,286.34L264.49,289.19L286.53,293.98L297.55,295.07L308.57,296.2L319.59,298.46L341.63,299.43L352.65,300.57L363.67,300.55L374.69,301.42L407.76,301.93L418.78,302.34L429.8,302.97L440.82,302.23L451.84,303.1L462.86,302.23L484.9,303.28L495.92,302.9L540,303.28" style="vector-effect: non-scaling-stroke; fill: none; stroke: rgb(163, 165, 0); stroke-opacity: 1; stroke-width: 2px; opacity: 1;"/></g><g class="points"/><g class="text"/></g><g class="trace scatter trace6595c6" style="stroke-miterlimit: 2; opacity: 1;"><g class="fills"/><g class="errorbars"/><g class="lines"><path class="js-line" d="M0,16.16L11.02,20.54L22.04,25.99L33.06,32.72L44.08,40.97L55.1,51.57L66.12,64.46L77.14,79.95L88.16,96.87L121.22,153.82L132.24,172.55L154.29,206.61L165.31,222.05L176.33,235.15L187.35,246.74L198.37,256.65L209.39,265.14L220.41,272.24L231.43,277.75L242.45,282.84L253.47,286.54L286.53,294.26L297.55,295.42L308.57,297.31L319.59,298.23L330.61,298.61L341.63,300.06L363.67,300.78L374.69,302.12L385.71,301.48L396.73,302.03L418.78,302.6L429.8,302.43L473.88,303.16L484.9,303.6L506.94,302.86L517.96,302.64L540,303.17" style="vector-effect: non-scaling-stroke; fill: none; stroke: rgb(0, 191, 125); stroke-opacity: 1; stroke-width: 2px; opacity: 1;"/></g><g class="points"/><g class="text"/></g><g class="trace scatter tracef45439" style="stroke-miterlimit: 2; opacity: 1;"><g class="fills"/><g class="errorbars"/><g class="lines"><path class="js-line" d="M0,16.16L11.02,20.54L22.04,25.99L33.06,32.72L44.08,40.97L55.1,51.57L66.12,64.46L77.14,79.95L88.16,96.87L121.22,153.82L132.24,172.55L154.29,206.61L165.31,222.05L176.33,235.15L187.35,246.74L198.37,256.65L209.39,265.14L220.41,272.24L231.43,277.75L242.45,282.84L253.47,286.54L286.53,294.26L297.55,295.42L308.57,297.31L319.59,298.23L330.61,298.61L341.63,300.06L363.67,300.78L374.69,302.12L385.71,301.48L396.73,302.03L418.78,302.6L429.8,302.43L473.88,303.16L484.9,303.6L506.94,302.86L517.96,302.64L540,303.17" style="vector-effect: non-scaling-stroke; fill: none; stroke: rgb(0, 176, 246); stroke-opacity: 1; stroke-width: 2px; opacity: 1;"/></g><g class="points"/><g class="text"/></g><g class="trace scatter trace70bc57" style="stroke-miterlimit: 2; opacity: 1;"><g class="fills"/><g class="errorbars"/><g class="lines"><path class="js-line" d="M0,16.26L11.02,20.45L22.04,26.18L33.06,32.99L44.08,41.32L55.1,51.63L66.12,64.47L77.14,79.63L88.16,96.59L143.27,188.19L154.29,204.81L176.33,233.17L187.35,244.9L198.37,255.21L209.39,263.78L231.43,276.95L242.45,281.9L253.47,286.08L264.49,289L275.51,291.91L286.53,293.45L297.55,295.25L308.57,296.18L341.63,299.65L352.65,300.32L374.69,301.73L385.71,300.87L407.76,302.49L418.78,302L429.8,302.65L440.82,302.5L451.84,301.96L462.86,302.49L495.92,303.01L506.94,302.69L540,303.63" style="vector-effect: non-scaling-stroke; fill: none; stroke: rgb(231, 107, 243); stroke-opacity: 1; stroke-width: 2px; opacity: 1;"/></g><g class="points"/><g class="text"/></g><g class="trace scatter trace52095a" style="stroke-miterlimit: 2; opacity: 1;"><g class="fills"/><g class="errorbars"/><g class="lines"><path class="js-line" d="M0,16.26L11.02,20.45L22.04,26.18L33.06,32.99L44.08,41.32L55.1,51.63L66.12,64.47L77.14,79.63L88.16,96.59L143.27,188.19L154.29,204.81L176.33,233.17L187.35,244.9L198.37,255.21L209.39,263.78L231.43,276.95L242.45,281.9L253.47,286.08L264.49,289L275.51,291.91L286.53,293.45L297.55,295.25L308.57,296.18L341.63,299.65L352.65,300.32L374.69,301.73L385.71,300.87L407.76,302.49L418.78,302L429.8,302.65L440.82,302.5L451.84,301.96L462.86,302.49L495.92,303.01L506.94,302.69L540,303.63" style="vector-effect: non-scaling-stroke; fill: none; stroke: rgb(248, 118, 109); stroke-opacity: 1; stroke-width: 2px; opacity: 1;"/></g><g class="points"/><g class="text"/></g><g class="trace scatter trace483261" style="stroke-miterlimit: 2; opacity: 1;"><g class="fills"/><g class="errorbars"/><g class="lines"><path class="js-line" d="M0,16.25L11.02,20.61L22.04,25.84L33.06,32.69L44.08,41.12L55.1,51.77L66.12,64.8L77.14,80.13L88.16,97.18L121.22,153.41L132.24,171.82L154.29,205.33L165.31,219.96L187.35,244.95L198.37,254.56L209.39,263.04L220.41,270.35L242.45,281.02L253.47,285.14L275.51,291.48L286.53,293.11L308.57,296.3L319.59,297.24L341.63,299.38L352.65,300.25L363.67,300.95L374.69,300.82L385.71,301.97L396.73,301.33L484.9,302.63L495.92,301.88L517.96,302.64L528.98,302.83L540,303" style="vector-effect: non-scaling-stroke; fill: none; stroke: rgb(163, 165, 0); stroke-opacity: 1; stroke-width: 2px; opacity: 1;"/></g><g class="points"/><g class="text"/></g><g class="trace scatter traced4eaa2" style="stroke-miterlimit: 2; opacity: 1;"><g class="fills"/><g class="errorbars"/><g class="lines"><path class="js-line" d="M0,16.25L11.02,20.61L22.04,25.84L33.06,32.69L44.08,41.12L55.1,51.77L66.12,64.8L77.14,80.13L88.16,97.18L121.22,153.41L132.24,171.82L154.29,205.33L165.31,219.96L187.35,244.95L198.37,254.56L209.39,263.04L220.41,270.35L242.45,281.02L253.47,285.14L275.51,291.48L286.53,293.11L308.57,296.3L319.59,297.24L341.63,299.38L352.65,300.25L363.67,300.95L374.69,300.82L385.71,301.97L396.73,301.33L484.9,302.63L495.92,301.88L517.96,302.64L528.98,302.83L540,303" style="vector-effect: non-scaling-stroke; fill: none; stroke: rgb(0, 191, 125); stroke-opacity: 1; stroke-width: 2px; opacity: 1;"/></g><g class="points"/><g class="text"/></g><g class="trace scatter trace823bab" style="stroke-miterlimit: 2; opacity: 1;"><g class="fills"/><g class="errorbars"/><g class="lines"><path class="js-line" d="M0,16.24L11.02,20.53L22.04,26.08L33.06,32.67L44.08,40.79L55.1,51.22L66.12,63.8L77.14,79.11L88.16,95.97L121.22,152.29L132.24,171.12L154.29,204.77L165.31,219.63L176.33,232.82L187.35,244.81L198.37,254.64L209.39,263.13L220.41,270.33L231.43,276.12L242.45,281.27L253.47,284.79L264.49,288.61L275.51,290.66L286.53,293.35L297.55,294.91L308.57,296.98L319.59,297.53L374.69,301.19L385.71,301.59L396.73,301.19L407.76,302.3L462.86,302.69L473.88,302.75L484.9,303.77L495.92,303.08L517.96,302.64L528.98,303.35L540,302.55" style="vector-effect: non-scaling-stroke; fill: none; stroke: rgb(0, 176, 246); stroke-opacity: 1; stroke-width: 2px; opacity: 1;"/></g><g class="points"/><g class="text"/></g><g class="trace scatter trace3bc8b1" style="stroke-miterlimit: 2; opacity: 1;"><g class="fills"/><g class="errorbars"/><g class="lines"><path class="js-line" d="M0,16.24L11.02,20.53L22.04,26.08L33.06,32.67L44.08,40.79L55.1,51.22L66.12,63.8L77.14,79.11L88.16,95.97L121.22,152.29L132.24,171.12L154.29,204.77L165.31,219.63L176.33,232.82L187.35,244.81L198.37,254.64L209.39,263.13L220.41,270.33L231.43,276.12L242.45,281.27L253.47,284.79L264.49,288.61L275.51,290.66L286.53,293.35L297.55,294.91L308.57,296.98L319.59,297.53L374.69,301.19L385.71,301.59L396.73,301.19L407.76,302.3L462.86,302.69L473.88,302.75L484.9,303.77L495.92,303.08L517.96,302.64L528.98,303.35L540,302.55" style="vector-effect: non-scaling-stroke; fill: none; stroke: rgb(231, 107, 243); stroke-opacity: 1; stroke-width: 2px; opacity: 1;"/></g><g class="points"/><g class="text"/></g><g class="trace scatter trace92cb44" style="stroke-miterlimit: 2; opacity: 1;"><g class="fills"/><g class="errorbars"/><g class="lines"><path class="js-line" d="M0,16.19L11.02,20.75L22.04,26.45L33.06,33.21L44.08,41.83L55.1,52.36L66.12,65.56L77.14,81.05L88.16,98.65L110.2,135.39L121.22,154.35L143.27,190.15L154.29,206.14L165.31,221.01L176.33,234.09L187.35,245.27L198.37,255.11L209.39,263.7L220.41,270.35L231.43,276.12L242.45,281.02L264.49,288.09L275.51,290.24L286.53,293.52L297.55,294.63L308.57,296.69L319.59,296.71L330.61,299.06L341.63,298.84L407.76,301.92L418.78,301.89L440.82,303.04L451.84,301.72L462.86,302.97L473.88,302.35L495.92,302.95L506.94,303.27L528.98,302.86L540,302.94" style="vector-effect: non-scaling-stroke; fill: none; stroke: rgb(248, 118, 109); stroke-opacity: 1; stroke-width: 2px; opacity: 1;"/></g><g class="points"/><g class="text"/></g><g class="trace scatter trace206196" style="stroke-miterlimit: 2; opacity: 1;"><g class="fills"/><g class="errorbars"/><g class="lines"><path class="js-line" d="M0,16.19L11.02,20.75L22.04,26.45L33.06,33.21L44.08,41.83L55.1,52.36L66.12,65.56L77.14,81.05L88.16,98.65L110.2,135.39L121.22,154.35L143.27,190.15L154.29,206.14L165.31,221.01L176.33,234.09L187.35,245.27L198.37,255.11L209.39,263.7L220.41,270.35L231.43,276.12L242.45,281.02L264.49,288.09L275.51,290.24L286.53,293.52L297.55,294.63L308.57,296.69L319.59,296.71L330.61,299.06L341.63,298.84L407.76,301.92L418.78,301.89L440.82,303.04L451.84,301.72L462.86,302.97L473.88,302.35L495.92,302.95L506.94,303.27L528.98,302.86L540,302.94" style="vector-effect: non-scaling-stroke; fill: none; stroke: rgb(163, 165, 0); stroke-opacity: 1; stroke-width: 2px; opacity: 1;"/></g><g class="points"/><g class="text"/></g><g class="trace scatter trace333fb9" style="stroke-miterlimit: 2; opacity: 1;"><g class="fills"/><g class="errorbars"/><g class="lines"><path class="js-line" d="M0,16.26L11.02,20.54L22.04,26.61L33.06,32.98L44.08,41.15L55.1,51.94L66.12,64.7L77.14,80.25L88.16,97.59L143.27,190.27L154.29,206.25L165.31,221.45L176.33,234.34L187.35,245.55L198.37,255.6L209.39,264.34L220.41,270.47L231.43,276.56L242.45,281.77L275.51,291.09L286.53,293.47L330.61,298.67L341.63,298.95L363.67,300.32L374.69,301.16L396.73,301.01L407.76,302.08L451.84,302.23L462.86,302.74L495.92,302.83L506.94,302.93L540,302.54" style="vector-effect: non-scaling-stroke; fill: none; stroke: rgb(0, 191, 125); stroke-opacity: 1; stroke-width: 2px; opacity: 1;"/></g><g class="points"/><g class="text"/></g><g class="trace scatter trace8211b3" style="stroke-miterlimit: 2; opacity: 1;"><g class="fills"/><g class="errorbars"/><g class="lines"><path class="js-line" d="M0,16.26L11.02,20.54L22.04,26.61L33.06,32.98L44.08,41.15L55.1,51.94L66.12,64.7L77.14,80.25L88.16,97.59L143.27,190.27L154.29,206.25L165.31,221.45L176.33,234.34L187.35,245.55L198.37,255.6L209.39,264.34L220.41,270.47L231.43,276.56L242.45,281.77L275.51,291.09L286.53,293.47L330.61,298.67L341.63,298.95L363.67,300.32L374.69,301.16L396.73,301.01L407.76,302.08L451.84,302.23L462.86,302.74L495.92,302.83L506.94,302.93L540,302.54" style="vector-effect: non-scaling-stroke; fill: none; stroke: rgb(0, 176, 246); stroke-opacity: 1; stroke-width: 2px; opacity: 1;"/></g><g class="points"/><g class="text"/></g><g class="trace scatter traceb8dd0d" style="stroke-miterlimit: 2; opacity: 1;"><g class="fills"/><g class="errorbars"/><g class="lines"><path class="js-line" d="M0,16.07L22.04,25.76L33.06,32.51L44.08,40.62L55.1,51.27L66.12,64.34L77.14,79.5L99.18,114.71L110.2,133.44L132.24,171.07L143.27,188.59L154.29,205.06L165.31,219.99L176.33,233.56L187.35,245.09L198.37,255.03L209.39,263.59L220.41,270.7L231.43,276.4L253.47,285.9L264.49,288.18L275.51,291.26L286.53,293.1L319.59,297.92L330.61,298.61L352.65,300.14L363.67,300.56L396.73,301.68L407.76,301.29L418.78,302.29L429.8,302.49L484.9,302.73L495.92,303.28L506.94,302.38L517.96,303.18L528.98,302.81L540,303.35" style="vector-effect: non-scaling-stroke; fill: none; stroke: rgb(231, 107, 243); stroke-opacity: 1; stroke-width: 2px; opacity: 1;"/></g><g class="points"/><g class="text"/></g><g class="trace scatter trace503be6" style="stroke-miterlimit: 2; opacity: 1;"><g class="fills"/><g class="errorbars"/><g class="lines"><path class="js-line" d="M0,16.07L22.04,25.76L33.06,32.51L44.08,40.62L55.1,51.27L66.12,64.34L77.14,79.5L99.18,114.71L110.2,133.44L132.24,171.07L143.27,188.59L154.29,205.06L165.31,219.99L176.33,233.56L187.35,245.09L198.37,255.03L209.39,263.59L220.41,270.7L231.43,276.4L253.47,285.9L264.49,288.18L275.51,291.26L286.53,293.1L319.59,297.92L330.61,298.61L352.65,300.14L363.67,300.56L396.73,301.68L407.76,301.29L418.78,302.29L429.8,302.49L484.9,302.73L495.92,303.28L506.94,302.38L517.96,303.18L528.98,302.81L540,303.35" style="vector-effect: non-scaling-stroke; fill: none; stroke: rgb(248, 118, 109); stroke-opacity: 1; stroke-width: 2px; opacity: 1;"/></g><g class="points"/><g class="text"/></g><g class="trace scatter trace751e9a" style="stroke-miterlimit: 2; opacity: 1;"><g class="fills"/><g class="errorbars"/><g class="lines"><path class="js-line" d="M0,16.14L11.02,20.55L22.04,26.22L33.06,32.63L44.08,40.73L55.1,50.97L66.12,63.38L77.14,78.22L88.16,95.52L110.2,132.5L121.22,151.3L143.27,187.2L154.29,203.92L165.31,218.98L176.33,232.16L187.35,244.44L198.37,254.3L209.39,262.74L220.41,269.75L231.43,275.84L242.45,280.68L253.47,285.23L264.49,288.23L275.51,291.2L286.53,293.05L308.57,295.83L319.59,297.75L363.67,300.19L374.69,300.84L418.78,301.86L429.8,301.43L440.82,302.59L451.84,302.37L473.88,302.81L484.9,302.12L495.92,302.08L506.94,302.88L528.98,301.93L540,303.64" style="vector-effect: non-scaling-stroke; fill: none; stroke: rgb(163, 165, 0); stroke-opacity: 1; stroke-width: 2px; opacity: 1;"/></g><g class="points"/><g class="text"/></g><g class="trace scatter trace9c2ef3" style="stroke-miterlimit: 2; opacity: 1;"><g class="fills"/><g class="errorbars"/><g class="lines"><path class="js-line" d="M0,16.14L11.02,20.55L22.04,26.22L33.06,32.63L44.08,40.73L55.1,50.97L66.12,63.38L77.14,78.22L88.16,95.52L110.2,132.5L121.22,151.3L143.27,187.2L154.29,203.92L165.31,218.98L176.33,232.16L187.35,244.44L198.37,254.3L209.39,262.74L220.41,269.75L231.43,275.84L242.45,280.68L253.47,285.23L264.49,288.23L275.51,291.2L286.53,293.05L308.57,295.83L319.59,297.75L363.67,300.19L374.69,300.84L418.78,301.86L429.8,301.43L440.82,302.59L451.84,302.37L473.88,302.81L484.9,302.12L495.92,302.08L506.94,302.88L528.98,301.93L540,303.64" style="vector-effect: non-scaling-stroke; fill: none; stroke: rgb(0, 191, 125); stroke-opacity: 1; stroke-width: 2px; opacity: 1;"/></g><g class="points"/><g class="text"/></g><g class="trace scatter trace0b7c46" style="stroke-miterlimit: 2; opacity: 1;"><g class="fills"/><g class="errorbars"/><g class="lines"><path class="js-line" d="M0,16.13L11.02,20.58L22.04,26.06L33.06,32.74L44.08,41L55.1,51.32L66.12,64.16L77.14,79.25L88.16,95.97L132.24,171.25L143.27,188.65L154.29,205.49L165.31,220.76L187.35,245.73L198.37,255.54L220.41,271.19L231.43,276.7L242.45,282.1L253.47,285.51L264.49,289.42L275.51,291.11L286.53,293.74L297.55,294.69L308.57,296.89L319.59,297.43L352.65,299.79L363.67,300.05L385.71,301.47L396.73,301.29L418.78,302.17L429.8,301.98L451.84,302.48L462.86,302.02L473.88,301.8L484.9,302.96L506.94,302.29L517.96,303.06L540,302.68" style="vector-effect: non-scaling-stroke; fill: none; stroke: rgb(0, 176, 246); stroke-opacity: 1; stroke-width: 2px; opacity: 1;"/></g><g class="points"/><g class="text"/></g><g class="trace scatter trace759105" style="stroke-miterlimit: 2; opacity: 1;"><g class="fills"/><g class="errorbars"/><g class="lines"><path class="js-line" d="M0,16.13L11.02,20.58L22.04,26.06L33.06,32.74L44.08,41L55.1,51.32L66.12,64.16L77.14,79.25L88.16,95.97L132.24,171.25L143.27,188.65L154.29,205.49L165.31,220.76L187.35,245.73L198.37,255.54L220.41,271.19L231.43,276.7L242.45,282.1L253.47,285.51L264.49,289.42L275.51,291.11L286.53,293.74L297.55,294.69L308.57,296.89L319.59,297.43L352.65,299.79L363.67,300.05L385.71,301.47L396.73,301.29L418.78,302.17L429.8,301.98L451.84,302.48L462.86,302.02L473.88,301.8L484.9,302.96L506.94,302.29L517.96,303.06L540,302.68" style="vector-effect: non-scaling-stroke; fill: none; stroke: rgb(231, 107, 243); stroke-opacity: 1; stroke-width: 2px; opacity: 1;"/></g><g class="points"/><g class="text"/></g><g class="trace scatter trace86458c" style="stroke-miterlimit: 2; opacity: 1;"><g class="fills"/><g class="errorbars"/><g class="lines"><path class="js-line" d="M0,16.19L11.02,20.4L22.04,26.18L33.06,33.01L44.08,41.56L55.1,52.33L66.12,65.43L77.14,80.41L88.16,97.49L143.27,189.24L154.29,205.45L165.31,220.2L176.33,232.77L198.37,254.34L209.39,262.75L220.41,269.66L231.43,275.54L242.45,280.46L253.47,283.74L264.49,287.59L275.51,289.88L297.55,294.31L308.57,295.74L319.59,297.32L330.61,297.93L341.63,299.03L352.65,299.14L374.69,300.98L385.71,300.81L396.73,301.28L407.76,300.64L440.82,302.45L451.84,301.96L473.88,302.35L484.9,302.12L528.98,302.6L540,301.96" style="vector-effect: non-scaling-stroke; fill: none; stroke: rgb(248, 118, 109); stroke-opacity: 1; stroke-width: 2px; opacity: 1;"/></g><g class="points"/><g class="text"/></g><g class="trace scatter tracea20252" style="stroke-miterlimit: 2; opacity: 1;"><g class="fills"/><g class="errorbars"/><g class="lines"><path class="js-line" d="M0,16.19L11.02,20.4L22.04,26.18L33.06,33.01L44.08,41.56L55.1,52.33L66.12,65.43L77.14,80.41L88.16,97.49L143.27,189.24L154.29,205.45L165.31,220.2L176.33,232.77L198.37,254.34L209.39,262.75L220.41,269.66L231.43,275.54L242.45,280.46L253.47,283.74L264.49,287.59L275.51,289.88L297.55,294.31L308.57,295.74L319.59,297.32L330.61,297.93L341.63,299.03L352.65,299.14L374.69,300.98L385.71,300.81L396.73,301.28L407.76,300.64L440.82,302.45L451.84,301.96L473.88,302.35L484.9,302.12L528.98,302.6L540,301.96" style="vector-effect: non-scaling-stroke; fill: none; stroke: rgb(163, 165, 0); stroke-opacity: 1; stroke-width: 2px; opacity: 1;"/></g><g class="points"/><g class="text"/></g><g class="trace scatter tracece8067" style="stroke-miterlimit: 2; opacity: 1;"><g class="fills"/><g class="errorbars"/><g class="lines"><path class="js-line" d="M0,16.14L11.02,20.62L22.04,26.41L33.06,32.92L44.08,40.96L55.1,51.16L66.12,64L77.14,79.16L88.16,95.94L143.27,188.66L154.29,205.23L176.33,233.73L187.35,245.54L198.37,255.21L209.39,263.77L231.43,277.34L242.45,281.53L253.47,286L264.49,289.2L297.55,295.29L308.57,296.48L330.61,298.99L341.63,299.35L363.67,300.48L374.69,300.79L407.76,302.42L418.78,302.19L429.8,301.96L440.82,302.76L451.84,302.81L462.86,302.03L473.88,303.07L484.9,302.81L540,302.88" style="vector-effect: non-scaling-stroke; fill: none; stroke: rgb(0, 191, 125); stroke-opacity: 1; stroke-width: 2px; opacity: 1;"/></g><g class="points"/><g class="text"/></g><g class="trace scatter tracea08be8" style="stroke-miterlimit: 2; opacity: 1;"><g class="fills"/><g class="errorbars"/><g class="lines"><path class="js-line" d="M0,16.14L11.02,20.62L22.04,26.41L33.06,32.92L44.08,40.96L55.1,51.16L66.12,64L77.14,79.16L88.16,95.94L143.27,188.66L154.29,205.23L176.33,233.73L187.35,245.54L198.37,255.21L209.39,263.77L231.43,277.34L242.45,281.53L253.47,286L264.49,289.2L297.55,295.29L308.57,296.48L330.61,298.99L341.63,299.35L363.67,300.48L374.69,300.79L407.76,302.42L418.78,302.19L429.8,301.96L440.82,302.76L451.84,302.81L462.86,302.03L473.88,303.07L484.9,302.81L540,302.88" style="vector-effect: non-scaling-stroke; fill: none; stroke: rgb(0, 176, 246); stroke-opacity: 1; stroke-width: 2px; opacity: 1;"/></g><g class="points"/><g class="text"/></g><g class="trace scatter trace76354c" style="stroke-miterlimit: 2; opacity: 1;"><g class="fills"/><g class="errorbars"/><g class="lines"><path class="js-line" d="M0,16.12L11.02,20.81L22.04,26.52L33.06,32.7L44.08,41.06L55.1,51.3L66.12,63.91L77.14,78.82L88.16,95.83L143.27,188.63L154.29,204.93L165.31,220.67L176.33,233.86L198.37,256.55L209.39,264.77L220.41,272.2L231.43,278.24L253.47,286.75L264.49,289.35L275.51,292.33L286.53,294.29L308.57,297L319.59,297.76L330.61,299.17L341.63,299.65L352.65,299.73L363.67,301.22L396.73,301.35L407.76,302.54L451.84,303.2L462.86,302.81L484.9,302.92L495.92,304L506.94,303.08L517.96,303.14L540,303.11" style="vector-effect: non-scaling-stroke; fill: none; stroke: rgb(231, 107, 243); stroke-opacity: 1; stroke-width: 2px; opacity: 1;"/></g><g class="points"/><g class="text"/></g><g class="trace scatter trace17a692" style="stroke-miterlimit: 2; opacity: 1;"><g class="fills"/><g class="errorbars"/><g class="lines"><path class="js-line" d="M0,16.12L11.02,20.81L22.04,26.52L33.06,32.7L44.08,41.06L55.1,51.3L66.12,63.91L77.14,78.82L88.16,95.83L143.27,188.63L154.29,204.93L165.31,220.67L176.33,233.86L198.37,256.55L209.39,264.77L220.41,272.2L231.43,278.24L253.47,286.75L264.49,289.35L275.51,292.33L286.53,294.29L308.57,297L319.59,297.76L330.61,299.17L341.63,299.65L352.65,299.73L363.67,301.22L396.73,301.35L407.76,302.54L451.84,303.2L462.86,302.81L484.9,302.92L495.92,304L506.94,303.08L517.96,303.14L540,303.11" style="vector-effect: non-scaling-stroke; fill: none; stroke: rgb(248, 118, 109); stroke-opacity: 1; stroke-width: 2px; opacity: 1;"/></g><g class="points"/><g class="text"/></g><g class="trace scatter trace06c8f3" style="stroke-miterlimit: 2; opacity: 1;"><g class="fills"/><g class="errorbars"/><g class="lines"><path class="js-line" d="M0,16.22L11.02,20.46L22.04,26.12L33.06,32.72L44.08,41.22L55.1,51.79L66.12,64.73L77.14,80.17L88.16,97.5L121.22,153.03L132.24,171.59L154.29,205.14L165.31,220.08L187.35,244.83L198.37,254.58L209.39,263.26L220.41,270.06L231.43,276.4L242.45,280.66L264.49,288.09L275.51,290.09L297.55,294.56L308.57,295.57L330.61,298.02L341.63,298.69L363.67,300.29L374.69,300.18L396.73,301.13L407.76,301.21L429.8,301.74L440.82,301.53L451.84,302.94L462.86,302.45L506.94,302.36L517.96,302.3L540,302.55" style="vector-effect: non-scaling-stroke; fill: none; stroke: rgb(163, 165, 0); stroke-opacity: 1; stroke-width: 2px; opacity: 1;"/></g><g class="points"/><g class="text"/></g><g class="trace scatter traceb98b4b" style="stroke-miterlimit: 2; opacity: 1;"><g class="fills"/><g class="errorbars"/><g class="lines"><path class="js-line" d="M0,16.22L11.02,20.46L22.04,26.12L33.06,32.72L44.08,41.22L55.1,51.79L66.12,64.73L77.14,80.17L88.16,97.5L121.22,153.03L132.24,171.59L154.29,205.14L165.31,220.08L187.35,244.83L198.37,254.58L209.39,263.26L220.41,270.06L231.43,276.4L242.45,280.66L264.49,288.09L275.51,290.09L297.55,294.56L308.57,295.57L330.61,298.02L341.63,298.69L363.67,300.29L374.69,300.18L396.73,301.13L407.76,301.21L429.8,301.74L440.82,301.53L451.84,302.94L462.86,302.45L506.94,302.36L517.96,302.3L540,302.55" style="vector-effect: non-scaling-stroke; fill: none; stroke: rgb(0, 191, 125); stroke-opacity: 1; stroke-width: 2px; opacity: 1;"/></g><g class="points"/><g class="text"/></g><g class="trace scatter tracea52023" style="stroke-miterlimit: 2; opacity: 1;"><g class="fills"/><g class="errorbars"/><g class="lines"><path class="js-line" d="M0,16.09L11.02,20.54L22.04,26.26L33.06,32.6L44.08,40.71L55.1,50.97L66.12,63.73L77.14,78.54L88.16,95.09L121.22,150.91L132.24,169.77L143.27,187.63L154.29,203.85L165.31,219L176.33,232.75L198.37,254.53L209.39,263.15L231.43,276.3L242.45,280.86L253.47,285.31L264.49,288.64L286.53,293.18L297.55,295.19L352.65,299.68L363.67,299.76L374.69,300.8L385.71,300.77L396.73,301.4L407.76,301.17L440.82,301.55L451.84,302.34L462.86,301.93L473.88,302.31L495.92,302.2L506.94,301.93L540,302.24" style="vector-effect: non-scaling-stroke; fill: none; stroke: rgb(0, 176, 246); stroke-opacity: 1; stroke-width: 2px; opacity: 1;"/></g><g class="points"/><g class="text"/></g><g class="trace scatter tracedf63a7" style="stroke-miterlimit: 2; opacity: 1;"><g class="fills"/><g class="errorbars"/><g class="lines"><path class="js-line" d="M0,16.09L11.02,20.54L22.04,26.26L33.06,32.6L44.08,40.71L55.1,50.97L66.12,63.73L77.14,78.54L88.16,95.09L121.22,150.91L132.24,169.77L143.27,187.63L154.29,203.85L165.31,219L176.33,232.75L198.37,254.53L209.39,263.15L231.43,276.3L242.45,280.86L253.47,285.31L264.49,288.64L286.53,293.18L297.55,295.19L352.65,299.68L363.67,299.76L374.69,300.8L385.71,300.77L396.73,301.4L407.76,301.17L440.82,301.55L451.84,302.34L462.86,301.93L473.88,302.31L495.92,302.2L506.94,301.93L540,302.24" style="vector-effect: non-scaling-stroke; fill: none; stroke: rgb(231, 107, 243); stroke-opacity: 1; stroke-width: 2px; opacity: 1;"/></g><g class="points"/><g class="text"/></g></g></g><g class="overplot"/><path class="xlines-above crisp" d="" style="fill: none; stroke-width: 1px; stroke: rgb(0, 0, 0); stroke-opacity: 0;"/><path class="ylines-above crisp" d="" style="fill: none; stroke-width: 1px; stroke: rgb(0, 0, 0); stroke-opacity: 0;"/><g class="overlines-above"/><g class="xaxislayer-above"><path class="xtick ticks crisp" d="M0,421v5" transform="translate(80,0)" style="stroke: rgb(51, 51, 51); stroke-opacity: 1; stroke-width: 1px;"/><path class="xtick ticks crisp" d="M0,421v5" transform="translate(190.2,0)" style="stroke: rgb(51, 51, 51); stroke-opacity: 1; stroke-width: 1px;"/><path class="xtick ticks crisp" d="M0,421v5" transform="translate(300.40999999999997,0)" style="stroke: rgb(51, 51, 51); stroke-opacity: 1; stroke-width: 1px;"/><path class="xtick ticks crisp" d="M0,421v5" transform="translate(410.61,0)" style="stroke: rgb(51, 51, 51); stroke-opacity: 1; stroke-width: 1px;"/><path class="xtick ticks crisp" d="M0,421v5" transform="translate(520.8199999999999,0)" style="stroke: rgb(51, 51, 51); stroke-opacity: 1; stroke-width: 1px;"/><g class="xtick"><text text-anchor="middle" x="0" y="440.4" transform="translate(80,0)" style="font-family: 'Open Sans', verdana, arial, sans-serif; font-size: 12px; fill: rgb(51, 51, 51); fill-opacity: 1; white-space: pre; opacity: 1;">0</text></g><g class="xtick"><text text-anchor="middle" x="0" y="440.4" style="font-family: 'Open Sans', verdana, arial, sans-serif; font-size: 12px; fill: rgb(51, 51, 51); fill-opacity: 1; white-space: pre; opacity: 1;" transform="translate(190.2,0)">10</text></g><g class="xtick"><text text-anchor="middle" x="0" y="440.4" style="font-family: 'Open Sans', verdana, arial, sans-serif; font-size: 12px; fill: rgb(51, 51, 51); fill-opacity: 1; white-space: pre; opacity: 1;" transform="translate(300.40999999999997,0)">20</text></g><g class="xtick"><text text-anchor="middle" x="0" y="440.4" style="font-family: 'Open Sans', verdana, arial, sans-serif; font-size: 12px; fill: rgb(51, 51, 51); fill-opacity: 1; white-space: pre; opacity: 1;" transform="translate(410.61,0)">30</text></g><g class="xtick"><text text-anchor="middle" x="0" y="440.4" style="font-family: 'Open Sans', verdana, arial, sans-serif; font-size: 12px; fill: rgb(51, 51, 51); fill-opacity: 1; white-space: pre; opacity: 1;" transform="translate(520.8199999999999,0)">40</text></g></g><g class="yaxislayer-above"><path class="ytick ticks crisp" d="M79,0h-5" transform="translate(0,379.32)" style="stroke: rgb(51, 51, 51); stroke-opacity: 1; stroke-width: 1px;"/><path class="ytick ticks crisp" d="M79,0h-5" transform="translate(0,322.69)" style="stroke: rgb(51, 51, 51); stroke-opacity: 1; stroke-width: 1px;"/><path class="ytick ticks crisp" d="M79,0h-5" transform="translate(0,266.06)" style="stroke: rgb(51, 51, 51); stroke-opacity: 1; stroke-width: 1px;"/><path class="ytick ticks crisp" d="M79,0h-5" transform="translate(0,209.44)" style="stroke: rgb(51, 51, 51); stroke-opacity: 1; stroke-width: 1px;"/><path class="ytick ticks crisp" d="M79,0h-5" transform="translate(0,152.81)" style="stroke: rgb(51, 51, 51); stroke-opacity: 1; stroke-width: 1px;"/><g class="ytick"><text text-anchor="end" x="71.6" y="4.199999999999999" transform="translate(0,379.32)" style="font-family: 'Open Sans', verdana, arial, sans-serif; font-size: 12px; fill: rgb(51, 51, 51); fill-opacity: 1; white-space: pre; opacity: 1;">1</text></g><g class="ytick"><text text-anchor="end" x="71.6" y="4.199999999999999" style="font-family: 'Open Sans', verdana, arial, sans-serif; font-size: 12px; fill: rgb(51, 51, 51); fill-opacity: 1; white-space: pre; opacity: 1;" transform="translate(0,322.69)">2</text></g><g class="ytick"><text text-anchor="end" x="71.6" y="4.199999999999999" style="font-family: 'Open Sans', verdana, arial, sans-serif; font-size: 12px; fill: rgb(51, 51, 51); fill-opacity: 1; white-space: pre; opacity: 1;" transform="translate(0,266.06)">3</text></g><g class="ytick"><text text-anchor="end" x="71.6" y="4.199999999999999" style="font-family: 'Open Sans', verdana, arial, sans-serif; font-size: 12px; fill: rgb(51, 51, 51); fill-opacity: 1; white-space: pre; opacity: 1;" transform="translate(0,209.44)">4</text></g><g class="ytick"><text text-anchor="end" x="71.6" y="4.199999999999999" style="font-family: 'Open Sans', verdana, arial, sans-serif; font-size: 12px; fill: rgb(51, 51, 51); fill-opacity: 1; white-space: pre; opacity: 1;" transform="translate(0,152.81)">5</text></g></g><g class="overaxes-above"/></g></g><g class="polarlayer"/><g class="ternarylayer"/><g class="geolayer"/><g class="funnelarealayer"/><g class="pielayer"/><g class="iciclelayer"/><g class="treemaplayer"/><g class="sunburstlayer"/><g class="glimages"/><defs id="topdefs-bc4222"><g class="clips"/></defs><g class="layer-above"><g class="imagelayer"/><g class="shapelayer"/></g><g class="infolayer"><g class="g-gtitle"><text class="gtitle" x="350" y="50" text-anchor="middle" dy="0em" style="font-family: 'Open Sans', verdana, arial, sans-serif; font-size: 17px; fill: rgb(51, 51, 51); opacity: 1; font-weight: normal; white-space: pre;">Train Loss: ascad_v1_fk_0_noisy-aisy_mlp_id (original)</text></g><g class="g-xtitle"/><g class="g-ytitle"/></g></svg>