<svg class="main-svg" xmlns="http://www.w3.org/2000/svg" xmlns:xlink="http://www.w3.org/1999/xlink" width="700" height="500" style="" viewBox="0 0 700 500"><rect x="0" y="0" width="700" height="500" style="fill: rgb(255, 255, 255); fill-opacity: 1;"/><defs id="defs-11f2ba"><g class="clips"><clipPath id="clip11f2baxyplot" class="plotclip"><rect width="540" height="320"/></clipPath><clipPath class="axesclip" id="clip11f2bax"><rect x="80" y="0" width="540" height="500"/></clipPath><clipPath class="axesclip" id="clip11f2bay"><rect x="0" y="100" width="700" height="320"/></clipPath><clipPath class="axesclip" id="clip11f2baxy"><rect x="80" y="100" width="540" height="320"/></clipPath></g><g class="gradients"/><g class="patterns"/></defs><g class="bglayer"><rect class="bg" x="80" y="100" width="540" height="320" style="fill: rgb(237, 237, 237); fill-opacity: 1; stroke-width: 0;"/></g><g class="layer-below"><g class="imagelayer"/><g class="shapelayer"/></g><g class="cartesianlayer"><g class="subplot xy"><g class="layer-subplot"><g class="shapelayer"/><g class="imagelayer"/></g><g class="gridlayer"><g class="x"><path class="xgrid crisp" transform="translate(189.09,0)" d="M0,100v320" style="stroke: rgb(255, 255, 255); stroke-opacity: 1; stroke-width: 1px;"/><path class="xgrid crisp" transform="translate(298.18,0)" d="M0,100v320" style="stroke: rgb(255, 255, 255); stroke-opacity: 1; stroke-width: 1px;"/><path class="xgrid crisp" transform="translate(407.27,0)" d="M0,100v320" style="stroke: rgb(255, 255, 255); stroke-opacity: 1; stroke-width: 1px;"/><path class="xgrid crisp" transform="translate(516.36,0)" d="M0,100v320" style="stroke: rgb(255, 255, 255); stroke-opacity: 1; stroke-width: 1px;"/></g><g class="y"><path class="ygrid crisp" transform="translate(0,380.07)" d="M80,0h540" style="stroke: rgb(255, 255, 255); stroke-opacity: 1; stroke-width: 1px;"/><path class="ygrid crisp" transform="translate(0,342.53999999999996)" d="M80,0h540" style="stroke: rgb(255, 255, 255); stroke-opacity: 1; stroke-width: 1px;"/><path class="ygrid crisp" transform="translate(0,305.01)" d="M80,0h540" style="stroke: rgb(255, 255, 255); stroke-opacity: 1; stroke-width: 1px;"/><path class="ygrid crisp" transform="translate(0,267.48)" d="M80,0h540" style="stroke: rgb(255, 255, 255); stroke-opacity: 1; stroke-width: 1px;"/><path class="ygrid crisp" transform="translate(0,229.96)" d="M80,0h540" style="stroke: rgb(255, 255, 255); stroke-opacity: 1; stroke-width: 1px;"/><path class="ygrid crisp" transform="translate(0,192.43)" d="M80,0h540" style="stroke: rgb(255, 255, 255); stroke-opacity: 1; stroke-width: 1px;"/><path class="ygrid crisp" transform="translate(0,154.9)" d="M80,0h540" style="stroke: rgb(255, 255, 255); stroke-opacity: 1; stroke-width: 1px;"/><path class="ygrid crisp" transform="translate(0,117.38)" d="M80,0h540" style="stroke: rgb(255, 255, 255); stroke-opacity: 1; stroke-width: 1px;"/></g></g><g class="zerolinelayer"><path class="xzl zl crisp" transform="translate(80,0)" d="M0,100v320" style="stroke: rgb(255, 255, 255); stroke-opacity: 1; stroke-width: 1px;"/><path class="yzl zl crisp" transform="translate(0,417.59)" d="M80,0h540" style="stroke: rgb(255, 255, 255); stroke-opacity: 1; stroke-width: 1px;"/></g><path class="xlines-below"/><path class="ylines-below"/><g class="overlines-below"/><g class="xaxislayer-below"/><g class="yaxislayer-below"/><g class="overaxes-below"/><g class="plot" transform="translate(80,100)" clip-path="url(#clip11f2baxyplot)"><g class="scatterlayer mlayer"><g class="trace scatter trace39769c" style="stroke-miterlimit: 2; opacity: 1;"><g class="fills"/><g class="errorbars"/><g class="lines"><path class="js-line" d="M0,302.46L5.45,301.23L10.91,295.24L16.36,294.22L21.82,290.82L27.27,290.34L32.73,287.74L43.64,286.26L49.09,284.55L54.55,282.96L60,280.21L65.45,278.02L70.91,274.12L81.82,269.66L87.27,270.08L92.73,264.28L98.18,261.43L103.64,260.45L109.09,256.15L114.55,255.67L120,249.9L125.45,248.31L130.91,245.29L141.82,237.68L147.27,235.97L152.73,233.76L158.18,228.76L169.09,225.19L174.55,222.32L185.45,213.77L190.91,214.02L196.36,211.14L201.82,203.99L207.27,205.99L212.73,205.55L229.09,194.59L234.55,196.61L240,191.48L245.45,190.54L250.91,187.83L256.36,186.75L261.82,180.58L267.27,175.91L272.73,175.47L278.18,174.14L283.64,172.43L289.09,171.59L294.55,166.44L300,163.48L305.45,165.3L310.91,163.69L316.36,162.17L321.82,157.66L327.27,154.95L332.73,155.83L338.18,151.54L343.64,151.41L349.09,145.36L354.55,143.26L360,141.92L365.45,138.98L370.91,139.34L376.36,136.9L381.82,136.42L387.27,131.06L392.73,133.61L398.18,130.12L403.64,124.14L409.09,123.27L420,120.64L425.45,122.95L436.36,115.93L441.82,114.51L447.27,113.67L452.73,111.9L458.18,110.13L463.64,105.56L469.09,101.79L474.55,96.58L485.45,95.62L490.91,90.32L501.82,90.49L507.27,88.68L518.18,89.26L523.64,83.07L529.09,78.8L534.55,75.52L540,73.1" style="vector-effect: non-scaling-stroke; fill: none; stroke: rgb(248, 118, 109); stroke-opacity: 1; stroke-width: 2px; opacity: 1;"/></g><g class="points"/><g class="text"/></g><g class="trace scatter trace376f98" style="stroke-miterlimit: 2; opacity: 1;"><g class="fills"/><g class="errorbars"/><g class="lines"><path class="js-line" d="M0,303.87L5.45,301.41L10.91,295.62L21.82,292.47L27.27,292.55L32.73,289.05L38.18,286.57L43.64,286.28L49.09,284.67L60,281.5L65.45,277.11L76.36,275.56L81.82,271.5L87.27,270.29L92.73,264.99L98.18,264.55L103.64,262.03L109.09,260.47L114.55,256.82L125.45,253.67L130.91,248.29L141.82,241.91L147.27,240.04L152.73,235.83L158.18,233.7L163.64,229.57L169.09,224.25L174.55,223.44L180,219.67L185.45,214.14L190.91,212.89L201.82,209.04L207.27,205.66L212.73,200.9L218.18,201.45L223.64,196.11L229.09,195.25L240,191.98L245.45,188.46L250.91,183.89L256.36,184L261.82,179.64L267.27,173.57L272.73,167.76L278.18,165.8L283.64,164.61L289.09,160.85L294.55,159L300,159.52L305.45,153.45L310.91,149.72L316.36,149.76L321.82,146.72L332.73,140.19L338.18,141.61L343.64,136.25L349.09,140.34L354.55,136.84L360,132.36L365.45,130.73L370.91,127.62L376.36,122.91L381.82,119.76L398.18,109.51L403.64,109.15L409.09,104.71L414.55,101.35L420,99.21L425.45,98.48L430.91,95.24L436.36,88.99L441.82,83.94L447.27,80.32L452.73,79.46L458.18,75.81L463.64,74.38L469.09,74.21L480,69.35L485.45,69.73L496.36,63.95L501.82,65.81L507.27,57.7L512.73,61.39L518.18,59.64L523.64,59.16L529.09,54.19L534.55,56.4L540,53.3" style="vector-effect: non-scaling-stroke; fill: none; stroke: rgb(163, 165, 0); stroke-opacity: 1; stroke-width: 2px; opacity: 1;"/></g><g class="points"/><g class="text"/></g><g class="trace scatter traceff71bc" style="stroke-miterlimit: 2; opacity: 1;"><g class="fills"/><g class="errorbars"/><g class="lines"><path class="js-line" d="M0,303.04L5.45,301.31L10.91,295.45L16.36,294.26L21.82,291.72L32.73,290.51L38.18,286.95L49.09,284.47L54.55,281.28L60,278.71L65.45,277.44L81.82,270.64L87.27,267.33L98.18,263.87L103.64,260.2L109.09,258.49L114.55,254.63L120,253.59L125.45,249.15L130.91,244.27L136.36,241.45L141.82,240.02L147.27,233.07L152.73,231.01L158.18,225.17L163.64,223.11L169.09,219.46L174.55,215.52L180,209.95L190.91,205.24L196.36,199.76L207.27,200.07L212.73,191.44L218.18,193.73L223.64,187.9L229.09,182.18L234.55,181.31L256.36,166.09L261.82,160.27L267.27,158.85L272.73,155.14L278.18,152.16L283.64,151.43L289.09,149.03L294.55,145.32L300,140.63L305.45,139.71L310.91,142.47L316.36,137.78L321.82,131.69L327.27,130.83L332.73,127.35L338.18,127.29L343.64,127.12L349.09,125.87L354.55,124.1L360,125.41L365.45,119.99L370.91,116.16L381.82,112.34L387.27,114.32L392.73,113.61L398.18,107.96L403.64,107.36L409.09,105.56L414.55,104.96L420,102.67L425.45,101.37L430.91,99.04L441.82,97.79L447.27,98.04L458.18,92.43L463.64,94.31L469.09,96.98L474.55,89.41L480,95.41L485.45,91.39L490.91,85.24L496.36,87.55L501.82,80.67L507.27,72.44L512.73,75.77L518.18,75.65L529.09,75.69L534.55,73.81L540,77.15" style="vector-effect: non-scaling-stroke; fill: none; stroke: rgb(0, 191, 125); stroke-opacity: 1; stroke-width: 2px; opacity: 1;"/></g><g class="points"/><g class="text"/></g><g class="trace scatter tracec2dd28" style="stroke-miterlimit: 2; opacity: 1;"><g class="fills"/><g class="errorbars"/><g class="lines"><path class="js-line" d="M0,303.35L5.45,301.73L10.91,296.43L16.36,292.43L21.82,293.14L32.73,288.8L38.18,288.59L49.09,284.69L54.55,284.07L60,281.17L65.45,280.5L70.91,276.83L76.36,275.65L81.82,271.94L87.27,270.39L98.18,266.91L103.64,263.93L109.09,261.28L114.55,259.97L120,258.4L125.45,255.34L130.91,252.15L136.36,247.98L141.82,247.08L147.27,244.96L152.73,239.56L158.18,236.78L163.64,231.97L169.09,233.72L174.55,227.88L180,226.36L190.91,220.36L196.36,214.14L207.27,210.75L212.73,205.95L218.18,203.39L223.64,202.7L229.09,199.86L234.55,195L240,191.08L245.45,189.63L250.91,186.98L256.36,186.96L261.82,184.56L267.27,178.41L272.73,180.68L278.18,175.03L283.64,172.4L289.09,172.18L300,168.21L305.45,164.21L310.91,163.36L316.36,158.92L321.82,156.56L327.27,157.96L332.73,152.91L338.18,151.18L343.64,151.14L349.09,149.51L354.55,150.22L360,144.74L365.45,144.24L370.91,141.82L376.36,140.82L381.82,142.22L387.27,137.92L392.73,136.55L403.64,131.96L409.09,132.27L414.55,129.23L420,124.39L425.45,129.56L430.91,125.58L447.27,121.7L452.73,125.04L458.18,123.41L463.64,124.79L469.09,125.29L474.55,127.23L480,128.79L485.45,125.48L490.91,123.35L496.36,124.29L501.82,123.08L507.27,122.91L512.73,126.12L518.18,126.27L529.09,118.37L534.55,116.89L540,117.53" style="vector-effect: non-scaling-stroke; fill: none; stroke: rgb(0, 176, 246); stroke-opacity: 1; stroke-width: 2px; opacity: 1;"/></g><g class="points"/><g class="text"/></g><g class="trace scatter trace70796d" style="stroke-miterlimit: 2; opacity: 1;"><g class="fills"/><g class="errorbars"/><g class="lines"><path class="js-line" d="M0,302.06L5.45,302.71L10.91,297.64L16.36,293.37L21.82,291.93L27.27,289.64L32.73,289.53L43.64,286.24L49.09,283.49L54.55,282.84L60,279.36L65.45,278.79L70.91,275.15L76.36,273L81.82,269.75L87.27,265.43L92.73,264.55L103.64,259.41L109.09,253.88L125.45,248.23L130.91,243.89L136.36,239.77L141.82,236.76L147.27,235.55L152.73,229.68L158.18,226.92L163.64,223.23L169.09,219.42L174.55,214.6L185.45,211.54L190.91,203.45L196.36,202.59L201.82,200.9L207.27,198.38L212.73,193.17L218.18,191.36L223.64,193.63L229.09,190.71L234.55,185L245.45,180.51L250.91,177.22L256.36,176.7L261.82,175.32L267.27,170.51L272.73,169.78L278.18,166.86L283.64,165L289.09,166.17L294.55,161.44L300,162.98L305.45,160.02L310.91,158.54L316.36,154.87L321.82,154.39L327.27,149.37L338.18,149.89L343.64,143.59L349.09,144.24L354.55,139.55L360,139.05L365.45,135.07L370.91,135.19L376.36,132.98L381.82,130.12L387.27,130.1L392.73,128.92L398.18,122.47L403.64,126.25L409.09,124.29L420,117.82L425.45,114.61L430.91,115.3L436.36,117.28L441.82,113.01L447.27,110.99L458.18,111.42L463.64,108.55L469.09,105.59L474.55,97.91L480,102.81L485.45,99.77L490.91,95.08L496.36,96.91L501.82,95.12L507.27,92.16L512.73,93.39L518.18,89.59L523.64,86.7L529.09,90.97L534.55,89.45L540,82.86" style="vector-effect: non-scaling-stroke; fill: none; stroke: rgb(231, 107, 243); stroke-opacity: 1; stroke-width: 2px; opacity: 1;"/></g><g class="points"/><g class="text"/></g><g class="trace scatter tracef51ba0" style="stroke-miterlimit: 2; opacity: 1;"><g class="fills"/><g class="errorbars"/><g class="lines"><path class="js-line" d="M0,302.48L5.45,303.33L10.91,299.14L16.36,293.85L21.82,292.16L43.64,286.22L49.09,287.59L54.55,284.28L60,282.42L65.45,279.63L70.91,278.86L81.82,271.94L87.27,270.56L92.73,270.73L98.18,264.74L103.64,264.91L109.09,260.61L114.55,259.47L120,255.69L125.45,256.34L130.91,251.38L136.36,251.94L141.82,247.5L152.73,243.02L158.18,239.24L163.64,236.2L169.09,234.66L185.45,226.05L190.91,224.44L196.36,220.81L201.82,219.65L207.27,218.38L212.73,216.02L218.18,211L223.64,211.18L229.09,208.91L234.55,205.57L240,201.78L245.45,201.09L250.91,195.38L256.36,194.27L261.82,195.4L267.27,194.67L272.73,190.52L278.18,191.9L289.09,186L294.55,183.85L305.45,178.83L310.91,173.63L316.36,174.68L321.82,172.15L327.27,173.26L332.73,167.86L338.18,166.53L343.64,164.02L349.09,157.21L354.55,153.12L360,155.68L365.45,153.14L376.36,148.18L381.82,147.99L392.73,145.47L398.18,142.86L403.64,143.74L409.09,138.36L414.55,140.59L420,137.98L425.45,131.02L430.91,131.92L436.36,129.1L441.82,127.71L447.27,126.06L452.73,129.48L463.64,118.2L469.09,115.93L480,114.72L485.45,119.45L490.91,116.18L496.36,114.43L501.82,112.97L507.27,113.76L512.73,111.63L518.18,110.76L523.64,111.19L529.09,108.05L534.55,110.92L540,109.4" style="vector-effect: non-scaling-stroke; fill: none; stroke: rgb(248, 118, 109); stroke-opacity: 1; stroke-width: 2px; opacity: 1;"/></g><g class="points"/><g class="text"/></g><g class="trace scatter tracecd97e1" style="stroke-miterlimit: 2; opacity: 1;"><g class="fills"/><g class="errorbars"/><g class="lines"><path class="js-line" d="M0,303.12L5.45,299.89L10.91,294.7L16.36,293.51L21.82,293.55L27.27,291.45L32.73,291.2L38.18,288.59L43.64,287.22L54.55,284.55L60,281.28L70.91,279.25L76.36,275.83L81.82,272.31L87.27,270.54L92.73,271.27L98.18,267.14L109.09,263.87L114.55,260.03L120,257.36L125.45,257.17L130.91,253.9L136.36,251.52L152.73,244.1L158.18,242.68L163.64,238.6L169.09,236.01L174.55,232.68L180,230.3L185.45,225.3L190.91,222.38L196.36,221.02L201.82,215.98L207.27,212.35L212.73,210.75L218.18,206.18L223.64,204.51L229.09,202.3L234.55,197.42L240,191.48L245.45,188.75L250.91,183.75L256.36,183L261.82,179.33L267.27,172.7L272.73,173.36L278.18,171.03L283.64,166.36L289.09,166.69L294.55,161.98L300,158.35L305.45,159.81L310.91,155.2L316.36,151.12L321.82,151.56L327.27,149.49L332.73,151.54L343.64,143.99L349.09,144.18L354.55,146.28L360,144.03L365.45,143.03L370.91,139.11L376.36,138.46L381.82,135.13L392.73,135.09L398.18,129.56L403.64,130.85L409.09,128.98L420,130.54L425.45,124.66L430.91,119.99L436.36,116.72L441.82,115.24L447.27,111.63L452.73,105.44L458.18,105.92L463.64,103.92L469.09,99.48L474.55,103.5L480,100.87L485.45,101.79L490.91,101.48L496.36,103.5L501.82,97.16L507.27,100.54L512.73,96.6L518.18,94.06L523.64,95.49L529.09,93.74L534.55,95.24L540,91.28" style="vector-effect: non-scaling-stroke; fill: none; stroke: rgb(163, 165, 0); stroke-opacity: 1; stroke-width: 2px; opacity: 1;"/></g><g class="points"/><g class="text"/></g><g class="trace scatter trace6de283" style="stroke-miterlimit: 2; opacity: 1;"><g class="fills"/><g class="errorbars"/><g class="lines"><path class="js-line" d="M0,303L5.45,302.29L10.91,297.89L16.36,293.05L21.82,293.08L32.73,289.72L38.18,286.67L43.64,285.82L49.09,283.84L60,280.05L65.45,277.48L70.91,274.5L76.36,273.46L81.82,270.64L87.27,266.93L98.18,262.85L103.64,260.2L109.09,257.26L114.55,255.86L120,252.73L125.45,250.77L130.91,249.61L136.36,243.62L141.82,243.19L147.27,241.81L152.73,237.95L158.18,236.49L163.64,231.91L169.09,230.18L174.55,228.38L180,225.46L196.36,218.54L201.82,214.35L207.27,213.41L212.73,208.54L218.18,205.22L223.64,203.49L229.09,199.11L234.55,196.03L240,191.79L245.45,190.02L250.91,187.08L256.36,185.87L267.27,182.75L272.73,179.31L278.18,175.57L283.64,174.82L289.09,170.95L294.55,169.34L305.45,171.93L310.91,166.23L316.36,166.8L321.82,163.11L327.27,159.19L332.73,159.85L338.18,154.73L343.64,154.56L349.09,149.47L354.55,152.68L365.45,143.7L370.91,142.11L376.36,139.38L381.82,138.17L387.27,135.61L392.73,136.52L398.18,134.21L403.64,133.4L409.09,134.04L414.55,132.44L420,130.5L425.45,126.68L430.91,126.73L436.36,128.81L441.82,124.97L447.27,125.64L452.73,124.02L458.18,121.1L463.64,120.74L469.09,115.74L480,110.44L485.45,117.05L490.91,115.16L496.36,107.71L501.82,107.42L507.27,110.57L512.73,108.05L518.18,102.85L523.64,103.81L529.09,102.73L534.55,99.58L540,95.56" style="vector-effect: non-scaling-stroke; fill: none; stroke: rgb(0, 191, 125); stroke-opacity: 1; stroke-width: 2px; opacity: 1;"/></g><g class="points"/><g class="text"/></g><g class="trace scatter trace0c39dd" style="stroke-miterlimit: 2; opacity: 1;"><g class="fills"/><g class="errorbars"/><g class="lines"><path class="js-line" d="M0,301.87L5.45,303.75L10.91,297.39L16.36,291.49L21.82,292.76L38.18,286.67L43.64,287.22L49.09,284.42L54.55,284.61L60,281.53L65.45,279.82L70.91,278.86L76.36,276.58L81.82,275.35L87.27,273.29L98.18,268.37L103.64,266.41L114.55,265.03L120,260.43L136.36,253.57L141.82,252.21L147.27,247.77L152.73,245.52L169.09,237.99L174.55,237.26L180,235.66L185.45,230.74L190.91,230.59L196.36,227.92L201.82,230.38L207.27,225.19L212.73,225.26L218.18,223.59L229.09,218.9L234.55,217.33L240,216.42L245.45,210.58L250.91,208.01L256.36,206.85L261.82,208.31L267.27,206.01L272.73,202.07L278.18,201.95L283.64,199.09L289.09,199.53L294.55,193.07L300,191.15L305.45,185.29L310.91,186.33L316.36,180.74L321.82,180.12L327.27,179.35L332.73,175.99L338.18,171.17L343.64,169.99L349.09,163.04L354.55,163.73L365.45,159.96L370.91,157.1L387.27,148.66L392.73,148.2L398.18,141.74L403.64,140.69L414.55,138.34L420,132.88L425.45,130.23L430.91,124.93L436.36,126.29L441.82,128.96L452.73,122.85L458.18,120.85L463.64,119.26L469.09,116.74L474.55,114.84L480,111.99L485.45,109.9L490.91,113.32L496.36,107.34L501.82,110.34L507.27,112.97L512.73,110.61L518.18,111.01L523.64,102.94L534.55,102.4L540,102.92" style="vector-effect: non-scaling-stroke; fill: none; stroke: rgb(0, 176, 246); stroke-opacity: 1; stroke-width: 2px; opacity: 1;"/></g><g class="points"/><g class="text"/></g><g class="trace scatter trace6c3d5d" style="stroke-miterlimit: 2; opacity: 1;"><g class="fills"/><g class="errorbars"/><g class="lines"><path class="js-line" d="M0,302.46L10.91,301.98L16.36,295.16L21.82,292.87L27.27,292.22L38.18,286.88L43.64,287.38L49.09,285.92L54.55,282.67L60,282.57L65.45,278.88L70.91,276.25L76.36,275.56L103.64,261.7L109.09,258.49L114.55,257.09L120,251.65L125.45,252.96L130.91,247.58L136.36,246.5L141.82,241.31L147.27,238.93L152.73,232.11L158.18,230.11L163.64,226.84L174.55,218.54L180,217.17L185.45,210.12L190.91,206.89L196.36,207.6L201.82,201.78L207.27,198.17L212.73,196.34L223.64,190.38L229.09,186.23L240,178.76L245.45,178.97L250.91,169.67L256.36,168.92L261.82,162.06L267.27,157.25L272.73,155.33L278.18,151.79L283.64,153.43L289.09,151.06L300,143.18L305.45,141.28L310.91,139.67L316.36,135.59L321.82,134.02L327.27,126.29L338.18,121.16L343.64,121.31L349.09,116.09L354.55,116.72L360,118.51L365.45,117.62L370.91,114.55L376.36,114.07L381.82,115.07L387.27,110.96L392.73,110.94L398.18,106.73L403.64,107.44L409.09,105.09L414.55,102.06L420,98.12L425.45,97.08L430.91,90.03L436.36,87.91L441.82,84.97L447.27,84.3L452.73,79.96L458.18,78.23L463.64,78.34L469.09,75.29L474.55,74.02L480,69.77L485.45,69.33L496.36,62.41L501.82,59.28L507.27,60.32L512.73,55.99L518.18,59.05L523.64,50.25L529.09,46.77L534.55,41.62L540,37.06" style="vector-effect: non-scaling-stroke; fill: none; stroke: rgb(231, 107, 243); stroke-opacity: 1; stroke-width: 2px; opacity: 1;"/></g><g class="points"/><g class="text"/></g><g class="trace scatter trace348628" style="stroke-miterlimit: 2; opacity: 1;"><g class="fills"/><g class="errorbars"/><g class="lines"><path class="js-line" d="M0,302.81L5.45,302.39L10.91,296.81L16.36,293.2L21.82,292.85L27.27,291.3L32.73,287.74L38.18,287.97L43.64,284.78L49.09,284.36L54.55,280.88L60,281.03L65.45,276.86L70.91,276L76.36,273.25L81.82,269.48L87.27,268.77L92.73,266.66L98.18,262.97L109.09,257.57L114.55,254.01L120,252.38L125.45,249.46L130.91,246.81L136.36,245.17L141.82,239.77L147.27,238.58L152.73,234.64L158.18,234.43L163.64,228.55L169.09,225.21L174.55,222.9L180,218.46L190.91,214.58L196.36,211.35L201.82,208.01L207.27,207.26L212.73,202.72L218.18,199.92L223.64,199.67L229.09,197.46L234.55,194.71L240,193.27L245.45,189.73L250.91,189.48L256.36,188.94L261.82,185.5L272.73,180.95L278.18,181.18L294.55,176.28L300,173.86L305.45,170.01L310.91,168.34L316.36,165.34L321.82,166.46L327.27,165L332.73,164.73L338.18,163.57L343.64,156.21L349.09,155.79L354.55,154.29L360,147.91L365.45,147.32L370.91,143.47L376.36,144.34L392.73,133.21L398.18,136.52L403.64,129.46L409.09,123.7L414.55,127.6L420,120.72L425.45,123.6L430.91,120.1L436.36,117.28L441.82,116.22L447.27,116.66L452.73,115.84L458.18,110.74L463.64,108.46L469.09,108.42L474.55,102.17L485.45,94.35L490.91,94.24L501.82,79.25L507.27,73.81L512.73,66.97L518.18,63.08L523.64,70.75L529.09,64.68L534.55,61.66L540,66.6" style="vector-effect: non-scaling-stroke; fill: none; stroke: rgb(248, 118, 109); stroke-opacity: 1; stroke-width: 2px; opacity: 1;"/></g><g class="points"/><g class="text"/></g><g class="trace scatter tracec0cb10" style="stroke-miterlimit: 2; opacity: 1;"><g class="fills"/><g class="errorbars"/><g class="lines"><path class="js-line" d="M0,302.83L5.45,302.73L10.91,296.49L16.36,292.47L21.82,291.93L32.73,290.39L38.18,287.91L54.55,282.3L60,280.71L70.91,274.31L76.36,272.81L81.82,270.41L87.27,266.81L98.18,260.68L103.64,257.63L114.55,251.61L120,247.02L125.45,242.71L130.91,240.85L136.36,236.76L141.82,230.61L147.27,229.36L152.73,223.02L158.18,219.83L163.64,215.02L169.09,213.37L174.55,208.06L180,205.14L185.45,200.7L196.36,192.4L201.82,189.27L207.27,186.41L212.73,182.04L218.18,181.89L223.64,180.7L229.09,177.78L234.55,173.36L240,167.84L245.45,166.67L250.91,161.58L256.36,160.44L261.82,159.56L267.27,156.39L272.73,152.49L278.18,146.2L283.64,148.93L289.09,144.18L294.55,141.3L300,136.63L310.91,133.98L316.36,129.96L321.82,126.16L327.27,125.22L332.73,121.08L338.18,124.5L343.64,120.53L349.09,115.05L354.55,115.2L360,111.88L365.45,109.82L370.91,106.44L376.36,106.57L381.82,101.87L387.27,93.83L392.73,95.49L409.09,82.11L414.55,78.75L420,77.06L425.45,70.14L430.91,67.33L436.36,63.33L441.82,66.58L447.27,66.95L458.18,54.94L463.64,55.9L469.09,56.28L474.55,53.69L480,54.19L485.45,46.36L490.91,44.35L496.36,44.96L501.82,39.35L507.27,41.44L512.73,34.47L518.18,36.83L523.64,32.93L529.09,32.2L534.55,30.45L540,27.45" style="vector-effect: non-scaling-stroke; fill: none; stroke: rgb(163, 165, 0); stroke-opacity: 1; stroke-width: 2px; opacity: 1;"/></g><g class="points"/><g class="text"/></g><g class="trace scatter traceba5288" style="stroke-miterlimit: 2; opacity: 1;"><g class="fills"/><g class="errorbars"/><g class="lines"><path class="js-line" d="M0,302.62L5.45,302.67L10.91,295.58L16.36,292.07L21.82,291.97L27.27,290.49L32.73,288.07L43.64,285.59L49.09,284.09L54.55,282.38L60,281.82L65.45,277.67L70.91,278.23L76.36,274.44L81.82,272.94L87.27,269L92.73,268.93L120,255.26L125.45,250.79L130.91,248.4L136.36,244.92L141.82,242.71L147.27,237.54L152.73,234.87L158.18,231.24L163.64,227.07L169.09,224.84L174.55,221.36L180,215.52L185.45,216.56L190.91,211.33L196.36,206.18L201.82,202.49L212.73,198.8L218.18,196.88L223.64,193.19L229.09,186.75L234.55,184.23L240,183.93L245.45,181.24L250.91,175.34L256.36,173.93L261.82,170.82L267.27,166.53L272.73,164.75L278.18,163.52L283.64,163.57L289.09,162.73L294.55,159.79L300,154.85L305.45,148.6L310.91,150.78L316.36,144.7L321.82,143.45L327.27,137.86L332.73,134.71L338.18,134.17L343.64,134.21L349.09,133.02L354.55,129.14L360,127.54L365.45,126L370.91,126.79L376.36,127.21L381.82,123.89L387.27,122.31L392.73,118.01L398.18,118.78L403.64,115.47L414.55,104.11L420,101.83L425.45,101.23L430.91,93.31L441.82,87.32L447.27,85.26L452.73,77.65L458.18,75.11L469.09,72.58L474.55,72.98L480,69L485.45,61.78L496.36,59.78L501.82,55.15L507.27,59.89L512.73,55.45L518.18,52.92L523.64,53.67L534.55,52.9L540,55.53" style="vector-effect: non-scaling-stroke; fill: none; stroke: rgb(0, 191, 125); stroke-opacity: 1; stroke-width: 2px; opacity: 1;"/></g><g class="points"/><g class="text"/></g><g class="trace scatter traceb9a123" style="stroke-miterlimit: 2; opacity: 1;"><g class="fills"/><g class="errorbars"/><g class="lines"><path class="js-line" d="M0,301.77L5.45,301.5L10.91,295.97L16.36,293.05L21.82,291.22L27.27,288.95L32.73,288.84L43.64,285.28L49.09,282.48L54.55,283.96L60,281.82L65.45,277.15L70.91,275.85L92.73,264.74L98.18,260.68L103.64,257.22L109.09,257.28L120,248.98L125.45,247.23L130.91,242.68L136.36,239.68L147.27,227.99L152.73,228.84L158.18,222.34L163.64,220.81L169.09,215.64L174.55,213.43L185.45,201.82L190.91,200.47L196.36,193.77L201.82,193.9L207.27,189.63L212.73,183.98L229.09,170.8L234.55,168.84L240,165L245.45,162.21L250.91,158.9L256.36,159.69L261.82,156.39L267.27,151.66L272.73,146.09L278.18,148.99L289.09,142.2L294.55,143.13L300,137.38L305.45,137.61L310.91,140.55L316.36,140.07L321.82,136.63L327.27,137.25L332.73,134.44L338.18,133.17L343.64,133.27L349.09,130.48L354.55,127.6L360,131.67L365.45,130.23L370.91,127.96L376.36,125.89L381.82,121.6L387.27,121.85L392.73,118.03L398.18,123.06L403.64,119.28L409.09,114.78L414.55,114.36L420,116.11L425.45,111.65L430.91,113.11L436.36,110.57L441.82,106.5L447.27,104.54L452.73,99.79L458.18,101.71L463.64,104.77L469.09,103.08L474.55,99.27L480,98.73L485.45,98.29L490.91,94.2L496.36,94.56L501.82,88.72L507.27,88.39L512.73,85.95L518.18,79.4L523.64,77.46L529.09,77.15L534.55,78.82L540,75.04" style="vector-effect: non-scaling-stroke; fill: none; stroke: rgb(0, 176, 246); stroke-opacity: 1; stroke-width: 2px; opacity: 1;"/></g><g class="points"/><g class="text"/></g><g class="trace scatter trace6d1cac" style="stroke-miterlimit: 2; opacity: 1;"><g class="fills"/><g class="errorbars"/><g class="lines"><path class="js-line" d="M0,302.96L5.45,301.16L10.91,297.1L16.36,294.01L21.82,292.95L27.27,293.18L32.73,290.53L38.18,288.28L43.64,288.2L54.55,283.4L60,282.55L70.91,277.77L76.36,272.71L81.82,272.52L87.27,268.27L92.73,268.12L98.18,265.83L109.09,259.32L114.55,258.65L120,255.74L125.45,251.8L136.36,246.48L141.82,242.77L147.27,242.58L152.73,240.37L158.18,237.85L163.64,233.8L169.09,229.01L174.55,227.38L185.45,222.55L190.91,218.42L196.36,215.31L201.82,213.98L207.27,209.62L212.73,206.68L218.18,205.32L223.64,202.55L229.09,200.78L234.55,194.92L240,192.71L245.45,188.83L250.91,186.04L256.36,185.66L261.82,184.66L267.27,178.37L272.73,179.37L278.18,173.59L283.64,170.63L289.09,169.76L294.55,164.8L300,163.48L305.45,162.63L310.91,157.83L316.36,155.43L321.82,154.18L332.73,151.08L338.18,146.89L343.64,146.43L349.09,147.97L354.55,139.51L360,138.38L365.45,134.29L370.91,133.69L376.36,131.38L381.82,133.17L387.27,130.25L392.73,124.56L398.18,126.27L403.64,124.2L409.09,121.93L414.55,121.56L420,114.95L425.45,115.11L430.91,116.72L436.36,111.24L441.82,110.49L447.27,107.9L452.73,105.04L458.18,106.36L463.64,102.9L469.09,102.15L474.55,98.31L480,98.89L485.45,92.45L490.91,88.01L501.82,76.29L507.27,76.29L518.18,69.71L523.64,68.89L529.09,67.04L534.55,66.24L540,63.76" style="vector-effect: non-scaling-stroke; fill: none; stroke: rgb(231, 107, 243); stroke-opacity: 1; stroke-width: 2px; opacity: 1;"/></g><g class="points"/><g class="text"/></g><g class="trace scatter tracedff9e0" style="stroke-miterlimit: 2; opacity: 1;"><g class="fills"/><g class="errorbars"/><g class="lines"><path class="js-line" d="M0,302.17L5.45,299.83L10.91,296.64L21.82,290.74L27.27,291.78L32.73,288.45L38.18,289.82L49.09,283.53L54.55,284.05L76.36,274.87L81.82,271.83L87.27,271.21L92.73,269.43L98.18,268.43L103.64,265.83L109.09,262.87L114.55,261.51L125.45,258.13L130.91,256.09L136.36,252.63L141.82,253.4L147.27,253.38L152.73,251.71L163.64,246.29L169.09,243.69L174.55,240.54L180,241.06L185.45,234.41L190.91,235.87L196.36,233.78L201.82,229.93L207.27,226.46L212.73,225.53L218.18,224.76L223.64,222.19L229.09,220.23L234.55,217.17L240,214L245.45,213.37L250.91,211.02L256.36,206.35L261.82,202.43L267.27,202.55L272.73,201.11L278.18,198.03L283.64,195.34L289.09,195.46L294.55,193.96L300,191.59L310.91,181.95L316.36,182.81L321.82,180.99L327.27,177.14L332.73,175.68L338.18,177.55L349.09,169.59L354.55,166.9L360,164.94L365.45,168.07L370.91,163.27L376.36,159.5L381.82,155.56L387.27,154L398.18,151.93L403.64,150.78L409.09,144.76L414.55,144.07L420,143.8L425.45,138.19L436.36,134.75L441.82,130.9L447.27,129.6L452.73,130.69L458.18,129.96L463.64,127.04L469.09,126.02L474.55,126.91L485.45,121.1L490.91,121.99L496.36,119.35L501.82,120.58L507.27,118.95L512.73,120.16L518.18,120.18L523.64,115.53L529.09,112.59L534.55,112.19L540,110.51" style="vector-effect: non-scaling-stroke; fill: none; stroke: rgb(248, 118, 109); stroke-opacity: 1; stroke-width: 2px; opacity: 1;"/></g><g class="points"/><g class="text"/></g><g class="trace scatter trace653499" style="stroke-miterlimit: 2; opacity: 1;"><g class="fills"/><g class="errorbars"/><g class="lines"><path class="js-line" d="M0,303.46L10.91,295.31L16.36,294.35L32.73,289.47L38.18,288.93L49.09,284.49L54.55,282.09L65.45,280.32L70.91,273.73L76.36,270.27L81.82,271.5L87.27,266.89L92.73,265.26L98.18,260.41L103.64,257.36L109.09,257.74L114.55,253.78L120,249.13L125.45,245.54L130.91,241.5L136.36,239.18L147.27,228.45L152.73,228.57L158.18,226.26L163.64,220.48L169.09,216.06L174.55,214.66L180,209.08L185.45,205.39L190.91,203.18L196.36,196.36L201.82,196.53L207.27,192.04L212.73,188.23L218.18,186.02L223.64,181.24L229.09,175.39L240,167.92L245.45,162.92L250.91,159.06L256.36,157.56L267.27,148.26L272.73,147.97L278.18,143.07L283.64,139.9L289.09,134.79L294.55,128.56L300,127.5L305.45,120.47L310.91,119.07L316.36,118.47L321.82,114.9L327.27,109.98L332.73,106.9L338.18,105.9L343.64,101.46L349.09,99.08L354.55,96.95L360,93.68L365.45,94.39L370.91,93.56L376.36,93.76L381.82,90.68L387.27,91.12L392.73,88.43L398.18,85.3L403.64,86.53L409.09,83.44L414.55,74.83L420,70.69L425.45,70.08L430.91,67.02L436.36,69.18L441.82,62.12L447.27,67.79L452.73,69.46L458.18,67.47L463.64,65.43L469.09,67.29L474.55,58.07L480,61.62L485.45,61.68L490.91,59.78L496.36,61.32L501.82,53.07L507.27,51.55L512.73,48.57L518.18,42.48L523.64,39.45L534.55,40.87L540,37.1" style="vector-effect: non-scaling-stroke; fill: none; stroke: rgb(163, 165, 0); stroke-opacity: 1; stroke-width: 2px; opacity: 1;"/></g><g class="points"/><g class="text"/></g><g class="trace scatter trace534318" style="stroke-miterlimit: 2; opacity: 1;"><g class="fills"/><g class="errorbars"/><g class="lines"><path class="js-line" d="M0,303.12L10.91,300.96L16.36,293.1L21.82,292.83L27.27,289.72L32.73,289.76L38.18,288.3L49.09,286.13L54.55,283.94L60,279.48L65.45,278.77L76.36,275.6L81.82,272.5L87.27,271.31L92.73,267.49L98.18,263.62L103.64,261.36L109.09,257.26L114.55,256.13L125.45,249.71L130.91,246.67L136.36,241.45L141.82,237.64L152.73,229.43L158.18,227.07L163.64,221.92L169.09,217.83L174.55,214.41L180,212.1L185.45,209.66L190.91,206.18L196.36,203.87L201.82,200.26L207.27,193.84L212.73,188.67L218.18,189.25L223.64,185.39L229.09,181.12L234.55,180.62L245.45,172.61L250.91,170.53L256.36,166L261.82,164.63L272.73,160.94L278.18,157.48L283.64,155.41L289.09,151.62L294.55,150.95L300,151.43L305.45,146.03L310.91,143.45L316.36,139.36L321.82,141.49L327.27,139.21L332.73,134.52L338.18,133.98L343.64,136.65L349.09,131L354.55,129.17L360,124.93L365.45,124.66L370.91,123.1L376.36,119.26L381.82,122.66L387.27,119.28L392.73,116.78L398.18,117.72L403.64,114.13L409.09,114.34L414.55,109.59L420,107.61L425.45,109.78L430.91,106.98L436.36,103.5L441.82,101.77L447.27,97.04L452.73,97.73L458.18,92.39L463.64,95.85L469.09,92.58L474.55,95.47L480,92.37L485.45,92.91L490.91,92.99L496.36,87.16L501.82,89.72L507.27,86.51L512.73,81.4L518.18,84.78L523.64,76.65L529.09,81.23L540,77.34" style="vector-effect: non-scaling-stroke; fill: none; stroke: rgb(0, 191, 125); stroke-opacity: 1; stroke-width: 2px; opacity: 1;"/></g><g class="points"/><g class="text"/></g><g class="trace scatter trace45402c" style="stroke-miterlimit: 2; opacity: 1;"><g class="fills"/><g class="errorbars"/><g class="lines"><path class="js-line" d="M0,303.5L5.45,302.79L10.91,300.46L16.36,294.53L21.82,292.97L27.27,290.55L32.73,289.8L38.18,287.63L43.64,287.26L49.09,283.61L54.55,284.05L60,283.09L65.45,279.61L92.73,269.6L98.18,266.91L103.64,263.72L109.09,262.18L114.55,259.49L120,255.65L136.36,249.02L141.82,244.29L147.27,244.56L152.73,239.6L158.18,238.52L163.64,233.95L174.55,229.36L180,224.44L190.91,220.17L196.36,216.6L207.27,206.72L212.73,202.43L218.18,200.07L223.64,195.82L229.09,195.42L234.55,190.17L240,189.77L245.45,187.73L250.91,184.52L256.36,182.72L267.27,179.06L272.73,174.16L278.18,172.11L283.64,171.68L294.55,168.65L300,166.46L305.45,164.71L310.91,159.33L316.36,154.39L321.82,151.33L338.18,141.26L343.64,139.07L349.09,136.23L354.55,131.44L360,130.6L365.45,126.48L381.82,118.8L387.27,110.82L392.73,105.48L398.18,102.42L403.64,105.84L409.09,100.08L414.55,97.87L420,92.01L425.45,93.16L430.91,90.28L436.36,90.64L441.82,88.18L447.27,88.51L452.73,80.76L458.18,82.84L463.64,80.73L469.09,70.04L474.55,66.16L480,67.2L485.45,62.3L490.91,62.72L496.36,57.86L501.82,57.45L507.27,60.68L512.73,57.43L518.18,57.34L523.64,58.93L529.09,53.61L534.55,48.17L540,45.85" style="vector-effect: non-scaling-stroke; fill: none; stroke: rgb(0, 176, 246); stroke-opacity: 1; stroke-width: 2px; opacity: 1;"/></g><g class="points"/><g class="text"/></g><g class="trace scatter traceb23d7a" style="stroke-miterlimit: 2; opacity: 1;"><g class="fills"/><g class="errorbars"/><g class="lines"><path class="js-line" d="M0,302.62L5.45,303.65L10.91,299.81L16.36,293.81L21.82,293.7L27.27,290.16L32.73,289.53L38.18,288.18L43.64,287.68L49.09,284.94L54.55,284.67L60,281.69L65.45,280.09L70.91,277.08L76.36,275.21L81.82,274.15L87.27,274.65L98.18,269.98L103.64,268.54L109.09,265.7L114.55,264.14L120,260.86L125.45,261.47L130.91,256.49L136.36,253.61L141.82,253.96L147.27,249.06L152.73,247.86L158.18,244.85L169.09,238.2L174.55,236.31L190.91,225.36L196.36,225.74L201.82,222.42L207.27,216.23L212.73,216.44L218.18,214.19L223.64,207.85L229.09,207.43L240,200.86L245.45,199.99L250.91,195.82L256.36,195.09L267.27,186.56L272.73,184.87L278.18,180.91L283.64,178.66L294.55,176.51L300,174.95L305.45,172.63L310.91,166.94L316.36,169.82L321.82,165.42L327.27,164.94L332.73,161.19L338.18,161.73L343.64,160.25L349.09,152.02L354.55,152.2L360,151.01L365.45,151.99L376.36,143.93L381.82,144.76L387.27,141.86L392.73,136.86L398.18,135.71L403.64,132.25L414.55,135.54L420,133.42L425.45,128.69L430.91,125.29L436.36,122.12L441.82,121.7L447.27,118.85L452.73,117.01L458.18,116.8L463.64,113.72L469.09,113.78L474.55,110.36L480,107.92L485.45,109.17L490.91,107.23L496.36,104.46L501.82,101.79L507.27,103L512.73,98.41L518.18,96.54L523.64,96.68L529.09,93.97L534.55,91.64L540,88.14" style="vector-effect: non-scaling-stroke; fill: none; stroke: rgb(231, 107, 243); stroke-opacity: 1; stroke-width: 2px; opacity: 1;"/></g><g class="points"/><g class="text"/></g><g class="trace scatter trace743de4" style="stroke-miterlimit: 2; opacity: 1;"><g class="fills"/><g class="errorbars"/><g class="lines"><path class="js-line" d="M0,303.06L5.45,304L10.91,302.6L16.36,295.41L21.82,291.8L27.27,291.16L32.73,289.09L38.18,288.3L43.64,286.59L49.09,286.24L54.55,282.65L60,283.03L65.45,279.29L70.91,278.19L76.36,274.69L81.82,273.08L87.27,269.93L92.73,270.27L98.18,267.1L103.64,265.97L109.09,263.2L114.55,261.7L120,259.2L125.45,257.13L130.91,256.07L136.36,253.94L141.82,253.53L152.73,245.58L158.18,245.54L163.64,244.29L169.09,241.79L174.55,239.72L180,236.56L185.45,231.51L190.91,231.28L196.36,229.65L201.82,226.65L207.27,223.53L212.73,222.73L229.09,212.56L234.55,210.95L240,208.28L245.45,207.53L250.91,207.58L256.36,201.18L267.27,198.19L272.73,194.78L283.64,188.5L289.09,191.06L294.55,187.85L300,186.52L305.45,179.64L310.91,176.89L316.36,177.2L321.82,176.53L327.27,175.07L332.73,170.03L338.18,167.61L343.64,168.63L349.09,165.17L354.55,164.19L360,160.6L365.45,153.1L370.91,153.06L376.36,153.79L387.27,147.72L392.73,143.57L398.18,145.3L403.64,142.03L409.09,141.95L414.55,136.59L420,137.38L425.45,135.13L430.91,130.25L436.36,129.92L447.27,128.81L452.73,121.66L458.18,123.43L463.64,119.68L469.09,118.68L474.55,119.57L480,115.32L485.45,115.61L490.91,111.49L496.36,112.78L501.82,113.07L507.27,115.8L518.18,105.61L523.64,108.36L529.09,103.54L534.55,105.63L540,101.67" style="vector-effect: non-scaling-stroke; fill: none; stroke: rgb(248, 118, 109); stroke-opacity: 1; stroke-width: 2px; opacity: 1;"/></g><g class="points"/><g class="text"/></g><g class="trace scatter traced7e46a" style="stroke-miterlimit: 2; opacity: 1;"><g class="fills"/><g class="errorbars"/><g class="lines"><path class="js-line" d="M0,303.65L5.45,303.58L10.91,301.06L16.36,295.04L21.82,292.03L27.27,291.74L32.73,289.57L38.18,286.99L43.64,286.15L49.09,284.92L54.55,281.34L60,280.65L65.45,277.25L81.82,271.71L87.27,266.43L92.73,265.58L98.18,262.82L103.64,260.28L109.09,256.05L114.55,254.69L120,251.75L125.45,249.98L130.91,245L136.36,243.89L141.82,238.62L147.27,236.26L152.73,231.09L163.64,225.07L169.09,222.23L180,213.18L185.45,213.06L196.36,204.62L201.82,202.76L207.27,197.86L212.73,194.57L229.09,187.73L234.55,184.54L245.45,178.24L250.91,175.7L256.36,172.8L261.82,166.44L267.27,168.84L272.73,167.36L278.18,163.98L283.64,158.44L289.09,155.96L294.55,151.08L300,155.56L305.45,147.66L310.91,150.91L316.36,147.97L321.82,142.38L327.27,139.65L332.73,135.44L338.18,135.42L343.64,135.17L349.09,129.44L354.55,130.69L360,130.19L365.45,125.62L370.91,122.74L376.36,119.41L381.82,112.74L387.27,107.88L392.73,106.46L398.18,104.71L403.64,98.56L409.09,98.87L414.55,102.52L420,94.12L425.45,90.93L430.91,92.89L436.36,87.03L441.82,87.43L447.27,85.63L452.73,81.17L458.18,80.57L463.64,68.37L469.09,69.62L474.55,66.75L480,66.91L490.91,58.61L496.36,64.95L507.27,57.09L512.73,49.5L518.18,49.52L523.64,48.29L529.09,49.29L534.55,45.85L540,45.75" style="vector-effect: non-scaling-stroke; fill: none; stroke: rgb(163, 165, 0); stroke-opacity: 1; stroke-width: 2px; opacity: 1;"/></g><g class="points"/><g class="text"/></g><g class="trace scatter tracee05903" style="stroke-miterlimit: 2; opacity: 1;"><g class="fills"/><g class="errorbars"/><g class="lines"><path class="js-line" d="M0,301.79L5.45,301.04L10.91,295.87L16.36,292.51L21.82,292.49L27.27,291.89L32.73,288.38L38.18,287.03L43.64,286.53L49.09,283.03L54.55,283.07L60,280.21L65.45,279.13L70.91,275.44L76.36,272.73L87.27,270.79L92.73,266.54L98.18,263.16L103.64,261.95L114.55,254.76L120,254.3L130.91,249.61L136.36,246.25L147.27,237.01L152.73,232.64L158.18,230.8L163.64,227.69L169.09,226.69L174.55,223.21L185.45,220.94L190.91,218.58L196.36,214.46L201.82,212.04L207.27,206.37L212.73,204.2L218.18,204.47L223.64,197.32L245.45,190.15L250.91,188.71L261.82,178.78L267.27,173.74L272.73,168.61L278.18,169.44L283.64,162.9L289.09,161.15L294.55,160.33L300,153.83L305.45,153.68L310.91,148.3L316.36,145.2L321.82,143.93L332.73,132.25L338.18,134.04L343.64,132.46L349.09,127.37L354.55,126.73L360,120.74L365.45,120.33L370.91,120.74L381.82,115.51L387.27,115.53L392.73,115.59L398.18,110.3L409.09,103.88L414.55,101.69L425.45,93.03L430.91,96.81L436.36,87.99L441.82,85.28L447.27,85.05L452.73,83.59L458.18,76.23L463.64,78.63L474.55,75.04L480,75.44L485.45,72.65L490.91,68.89L496.36,72.14L501.82,67.87L507.27,58.63L512.73,55.07L518.18,54.51L523.64,56.22L529.09,52.01L534.55,49.65L540,51.9" style="vector-effect: non-scaling-stroke; fill: none; stroke: rgb(0, 191, 125); stroke-opacity: 1; stroke-width: 2px; opacity: 1;"/></g><g class="points"/><g class="text"/></g><g class="trace scatter trace5b48e6" style="stroke-miterlimit: 2; opacity: 1;"><g class="fills"/><g class="errorbars"/><g class="lines"><path class="js-line" d="M0,303.33L5.45,303.71L10.91,299.79L16.36,294.33L21.82,291.16L27.27,291.49L32.73,291.03L38.18,286.61L43.64,286.57L54.55,283.46L60,280.57L65.45,278.84L70.91,274.58L81.82,270.25L87.27,266.45L92.73,264.01L98.18,259.78L103.64,260.22L109.09,257.92L114.55,255.05L120,250.04L130.91,242.98L136.36,240.31L141.82,236.18L147.27,230.57L152.73,230.36L158.18,226.78L169.09,219.04L174.55,218.27L180,211.72L185.45,208.24L190.91,204.49L196.36,199.72L207.27,193.25L212.73,188.1L218.18,186.44L223.64,178.89L229.09,178.37L234.55,173.72L240,173.91L245.45,168.42L250.91,168.65L256.36,165.3L261.82,164.27L267.27,162.4L272.73,157.02L278.18,156.33L283.64,154.14L289.09,150.08L294.55,148.83L300,145.11L305.45,147.16L310.91,137.65L316.36,139.96L321.82,135.15L327.27,134.59L332.73,130.58L338.18,129.44L343.64,127.39L349.09,121.85L354.55,119.05L360,115.68L365.45,116.36L370.91,115.36L376.36,107.5L381.82,112.17L387.27,107.05L392.73,101.25L398.18,102.1L403.64,98.5L409.09,98.71L414.55,97.35L420,97.56L425.45,94.93L430.91,93.16L436.36,93.29L441.82,91.55L447.27,92.16L452.73,91.12L458.18,93.89L463.64,92.72L469.09,90.39L474.55,92.01L480,90.55L485.45,87.68L490.91,88.51L496.36,88.47L501.82,89.55L507.27,86.41L512.73,90.14L518.18,86.07L523.64,86.78L529.09,84.67L534.55,86.36L540,84.47" style="vector-effect: non-scaling-stroke; fill: none; stroke: rgb(0, 176, 246); stroke-opacity: 1; stroke-width: 2px; opacity: 1;"/></g><g class="points"/><g class="text"/></g><g class="trace scatter traced23d8d" style="stroke-miterlimit: 2; opacity: 1;"><g class="fills"/><g class="errorbars"/><g class="lines"><path class="js-line" d="M0,302.14L5.45,302.29L10.91,297.68L16.36,293.74L21.82,292.47L27.27,291.01L32.73,288.05L38.18,287.68L43.64,285.86L49.09,285.47L54.55,283.74L60,280.69L65.45,279.07L76.36,272.48L81.82,271.41L92.73,263.62L98.18,261.74L103.64,256.88L109.09,255.57L120,247.33L125.45,246.21L130.91,241.68L136.36,239.85L152.73,225.94L158.18,224.98L163.64,220.23L169.09,217.5L174.55,212.62L180,209.54L185.45,205.39L190.91,203.49L196.36,199.51L201.82,197.94L207.27,196.19L212.73,193.27L218.18,186.21L223.64,184L229.09,187.6L234.55,182.97L240,177.03L245.45,174.2L250.91,173.16L256.36,170.55L261.82,166.11L267.27,167.17L272.73,163.25L278.18,160.83L283.64,160.52L289.09,156.89L294.55,155.54L300,151.56L305.45,149.51L310.91,146.53L316.36,146.87L321.82,144.76L327.27,142.2L332.73,136.3L343.64,135.07L349.09,129.83L354.55,127.14L360,125.95L365.45,125.98L370.91,120.35L376.36,117.36L381.82,120.7L387.27,116.45L392.73,113.76L398.18,110.53L403.64,112.63L409.09,110.82L414.55,105.21L420,106L425.45,105.04L430.91,101.02L436.36,102.33L441.82,99.02L447.27,92.76L452.73,94.79L458.18,88.95L463.64,87.74L469.09,84.45L474.55,82.49L480,78.75L496.36,77.29L501.82,79.23L507.27,74.63L512.73,76.19L518.18,79.21L523.64,80.48L529.09,81.26L534.55,79.4L540,78.3" style="vector-effect: non-scaling-stroke; fill: none; stroke: rgb(231, 107, 243); stroke-opacity: 1; stroke-width: 2px; opacity: 1;"/></g><g class="points"/><g class="text"/></g><g class="trace scatter trace7e2960" style="stroke-miterlimit: 2; opacity: 1;"><g class="fills"/><g class="errorbars"/><g class="lines"><path class="js-line" d="M0,302.9L5.45,302.35L10.91,297.37L16.36,293.81L21.82,291.37L27.27,291.89L32.73,290.47L38.18,288.61L43.64,285.53L49.09,286.59L54.55,284.32L65.45,278.71L70.91,279.13L76.36,274.33L81.82,274.67L87.27,272.27L92.73,271.21L98.18,267.24L103.64,267.37L109.09,264.66L114.55,263.8L125.45,261.39L130.91,258.72L136.36,255.57L141.82,253.8L147.27,253.46L152.73,250.25L163.64,247.44L169.09,245.44L174.55,245.25L180,240.83L185.45,238.08L190.91,234.45L196.36,231.59L201.82,229.65L212.73,224.88L218.18,224.84L223.64,222.19L229.09,216.6L234.55,214.96L240,211.41L245.45,211.41L250.91,209.01L256.36,206.62L261.82,205.99L267.27,199.26L272.73,198.32L278.18,195.46L283.64,193.55L289.09,192.38L294.55,189.9L300,189.38L305.45,187.29L310.91,181.79L316.36,179.64L321.82,175.37L327.27,176.89L338.18,169.51L343.64,167.01L349.09,167.78L354.55,160.69L360,164.84L365.45,161.42L370.91,158.04L376.36,156.14L381.82,150.87L387.27,150.72L392.73,151.04L398.18,150.18L409.09,142.26L414.55,140.15L420,141.11L425.45,137.07L430.91,134.5L436.36,134.15L441.82,129.79L447.27,130.15L452.73,130L458.18,128.96L463.64,123.41L469.09,123.43L474.55,123.1L480,118.2L485.45,118.3L490.91,112.47L501.82,114.43L507.27,110.13L512.73,106.73L518.18,102.29L529.09,99.81L534.55,95.16L540,96.1" style="vector-effect: non-scaling-stroke; fill: none; stroke: rgb(248, 118, 109); stroke-opacity: 1; stroke-width: 2px; opacity: 1;"/></g><g class="points"/><g class="text"/></g><g class="trace scatter trace8d7acc" style="stroke-miterlimit: 2; opacity: 1;"><g class="fills"/><g class="errorbars"/><g class="lines"><path class="js-line" d="M0,302.69L5.45,302L10.91,297.31L16.36,293.95L21.82,294.26L32.73,289.18L38.18,287.4L49.09,285.55L54.55,284.47L60,281.03L65.45,280.38L70.91,277.94L76.36,276.5L81.82,273.1L87.27,270.91L92.73,268.22L98.18,267.81L103.64,266.58L109.09,262.28L114.55,262.43L120,258.76L125.45,257.7L130.91,254.74L147.27,245.58L152.73,244.08L163.64,235.55L169.09,231.8L174.55,230.8L180,225.21L185.45,223.38L190.91,219.27L196.36,215.83L201.82,214.73L207.27,208.7L212.73,207.68L218.18,204.43L223.64,196.8L229.09,195.61L234.55,193.04L240,193.09L245.45,186.44L250.91,182.6L256.36,180.62L261.82,174.03L267.27,171.49L272.73,167.15L278.18,164.71L283.64,162.69L289.09,162L294.55,157.6L300,157.98L305.45,156.25L310.91,151.45L327.27,145.7L332.73,144.34L338.18,138.55L343.64,134.84L349.09,134.77L354.55,129.94L360,129.6L365.45,122.29L370.91,123.74L376.36,120.1L387.27,114.74L392.73,117.2L398.18,112.01L403.64,109.9L409.09,108.44L414.55,105.34L420,105.61L425.45,101.65L430.91,103.4L436.36,103.73L441.82,106.32L447.27,106.54L458.18,102.63L463.64,103.65L469.09,104.52L474.55,102.71L480,102.5L485.45,96.37L490.91,97.89L496.36,94.26L501.82,94.77L507.27,92.33L512.73,89.47L518.18,83.57L523.64,86.95L529.09,82.34L534.55,83.55L540,81.59" style="vector-effect: non-scaling-stroke; fill: none; stroke: rgb(163, 165, 0); stroke-opacity: 1; stroke-width: 2px; opacity: 1;"/></g><g class="points"/><g class="text"/></g><g class="trace scatter trace195d94" style="stroke-miterlimit: 2; opacity: 1;"><g class="fills"/><g class="errorbars"/><g class="lines"><path class="js-line" d="M0,303.27L5.45,301.87L10.91,296.27L16.36,293.22L21.82,292.51L27.27,290.32L32.73,287.18L38.18,287.53L43.64,286.36L49.09,285.05L54.55,281.61L60,280.57L65.45,278.42L81.82,271.6L87.27,270.31L92.73,265.99L98.18,263.57L103.64,260.82L109.09,261.01L114.55,255.97L120,252.75L125.45,247.5L130.91,245.77L136.36,241.98L141.82,240.83L152.73,229.15L158.18,226.05L174.55,217.17L180,217.81L185.45,210.85L190.91,207.51L196.36,203.59L201.82,197.76L207.27,197.44L212.73,198.01L218.18,191.44L223.64,186.46L234.55,181.58L240,182.41L245.45,174.41L250.91,172.84L256.36,170.72L261.82,166.88L267.27,164.71L272.73,163.65L278.18,160.75L283.64,159.19L289.09,157.62L294.55,152.93L300,146.47L305.45,148.51L310.91,144.57L316.36,141.59L332.73,135.44L338.18,132L343.64,129.69L349.09,126.54L354.55,125.35L360,121.08L365.45,120.12L370.91,117.89L376.36,118.97L381.82,118.37L387.27,115.57L392.73,107.52L398.18,106.19L403.64,103.29L409.09,108.57L414.55,104.27L420,100.39L425.45,99.21L430.91,95.02L436.36,97.33L441.82,93.79L447.27,89.12L452.73,82.97L458.18,78.55L463.64,78.71L469.09,75.25L474.55,66.79L480,63.6L490.91,54.94L496.36,56.84L501.82,54.8L507.27,49.73L512.73,47.04L518.18,41.54L523.64,46.42L529.09,45.4L534.55,44.27L540,38.14" style="vector-effect: non-scaling-stroke; fill: none; stroke: rgb(0, 191, 125); stroke-opacity: 1; stroke-width: 2px; opacity: 1;"/></g><g class="points"/><g class="text"/></g><g class="trace scatter trace0c1b13" style="stroke-miterlimit: 2; opacity: 1;"><g class="fills"/><g class="errorbars"/><g class="lines"><path class="js-line" d="M0,303.33L5.45,302.75L10.91,295.64L21.82,291.22L27.27,290.72L32.73,287.78L38.18,287.43L43.64,288.05L49.09,284.24L60,281.94L65.45,279.17L70.91,277L76.36,275.71L87.27,270.18L92.73,267.16L98.18,266.14L103.64,262.95L114.55,259.78L120,255.82L125.45,253.07L130.91,251.17L136.36,249.56L141.82,245.08L147.27,241.96L152.73,240.56L158.18,240.31L163.64,236.41L169.09,234.03L174.55,230.45L185.45,222.71L190.91,223.57L201.82,217.73L207.27,216.94L212.73,211.85L218.18,210.62L223.64,206.22L229.09,208.12L240,204.12L245.45,202.91L250.91,201.4L256.36,196.92L261.82,196.09L267.27,194.07L272.73,190.65L278.18,189.63L283.64,186.58L289.09,184.98L300,175.07L305.45,172.57L310.91,174.3L316.36,172.74L321.82,169.51L327.27,167.32L332.73,168.8L338.18,166.98L343.64,164.71L349.09,164.34L354.55,163.17L360,163.63L365.45,156.79L370.91,156.1L376.36,154.27L381.82,156.41L387.27,150.81L392.73,147.89L398.18,149.64L403.64,152.87L409.09,148.51L414.55,141.99L420,144.13L425.45,141.47L430.91,134.36L436.36,132.67L441.82,134.25L447.27,131L452.73,125.56L458.18,128.06L463.64,123.62L469.09,123.7L474.55,121.58L480,116.97L485.45,119.99L490.91,112.22L496.36,111.07L501.82,112.15L512.73,107.32L518.18,102.85L523.64,100.37L529.09,100.1L534.55,102.94L540,103.61" style="vector-effect: non-scaling-stroke; fill: none; stroke: rgb(0, 176, 246); stroke-opacity: 1; stroke-width: 2px; opacity: 1;"/></g><g class="points"/><g class="text"/></g><g class="trace scatter trace95fa5f" style="stroke-miterlimit: 2; opacity: 1;"><g class="fills"/><g class="errorbars"/><g class="lines"><path class="js-line" d="M0,303L10.91,301.85L16.36,296.41L21.82,292.51L27.27,291.82L32.73,291.47L38.18,289.2L43.64,286.09L49.09,285.72L60,282L65.45,281.53L92.73,267.33L98.18,267.6L103.64,264.37L109.09,262.2L114.55,259.13L120,257.53L125.45,252.71L130.91,252.61L136.36,249.23L141.82,248.04L147.27,243.37L152.73,242.5L158.18,240.64L163.64,239.72L169.09,238.83L174.55,235.35L185.45,228.01L190.91,226.63L196.36,224.55L201.82,224.69L207.27,222.13L212.73,217.33L223.64,212.68L229.09,208.06L234.55,206.49L240,201.91L245.45,200.28L250.91,195.65L256.36,197.13L261.82,193.71L267.27,191.11L272.73,187.42L278.18,188.98L283.64,184.58L289.09,179.14L294.55,175.97L300,175.45L305.45,172.18L310.91,171.45L316.36,168.63L321.82,163.42L327.27,160.85L332.73,157.92L338.18,158.58L343.64,156.1L349.09,155.39L360,148.6L365.45,144.59L370.91,141.78L376.36,142.03L381.82,139.03L387.27,137.42L392.73,136.57L398.18,130.79L403.64,134.69L409.09,128.02L414.55,124.35L420,124.97L425.45,124.85L430.91,128.06L436.36,122.49L441.82,120.28L452.73,119.39L458.18,121.56L463.64,113.99L469.09,118.12L480,112.59L485.45,113.28L490.91,114.05L496.36,111.36L501.82,107.69L507.27,108.02L512.73,104.56L518.18,108.19L523.64,102.9L529.09,99.31L534.55,96.52L540,89.55" style="vector-effect: non-scaling-stroke; fill: none; stroke: rgb(231, 107, 243); stroke-opacity: 1; stroke-width: 2px; opacity: 1;"/></g><g class="points"/><g class="text"/></g><g class="trace scatter tracedce4dc" style="stroke-miterlimit: 2; opacity: 1;"><g class="fills"/><g class="errorbars"/><g class="lines"><path class="js-line" d="M0,303.33L5.45,302.81L10.91,299.31L16.36,293.93L21.82,291.35L27.27,290.78L32.73,289.45L43.64,287.18L49.09,284.53L60,281.8L65.45,278.98L76.36,275.65L81.82,272.5L87.27,269.48L92.73,265.16L103.64,261.24L109.09,257.32L114.55,253.86L120,251.38L125.45,248.69L130.91,245.1L136.36,240.29L141.82,236.62L147.27,233.12L152.73,228.13L158.18,225.42L163.64,221.21L169.09,216.69L174.55,215.29L185.45,207.24L190.91,204.82L201.82,197.28L207.27,196.38L218.18,188.19L223.64,185.81L229.09,181.79L234.55,180.49L250.91,170.95L256.36,164.61L267.27,158.96L272.73,150.85L278.18,147.8L283.64,147.09L294.55,136.8L300,138.03L305.45,136.94L310.91,128.25L316.36,124.52L321.82,125.16L327.27,120.2L332.73,113.4L338.18,108.13L343.64,111.24L354.55,100.48L360,100.54L370.91,92.74L376.36,95.33L381.82,91.76L387.27,86.38L392.73,87.2L398.18,82.82L403.64,80.3L409.09,76.63L414.55,74.77L420,71.04L425.45,71.39L430.91,69.25L436.36,67.02L441.82,60.26L447.27,55.36L452.73,56.13L458.18,50.69L463.64,47.5L469.09,50.63L474.55,49.73L480,46.33L485.45,41.1L490.91,39.2L496.36,30.18L501.82,32.14L507.27,30.3L512.73,26.03L518.18,24.84L523.64,22.28L529.09,22.17L534.55,16.73L540,16" style="vector-effect: non-scaling-stroke; fill: none; stroke: rgb(248, 118, 109); stroke-opacity: 1; stroke-width: 2px; opacity: 1;"/></g><g class="points"/><g class="text"/></g><g class="trace scatter tracea66fad" style="stroke-miterlimit: 2; opacity: 1;"><g class="fills"/><g class="errorbars"/><g class="lines"><path class="js-line" d="M0,301.85L5.45,303.06L10.91,301.62L16.36,295.49L21.82,292.91L43.64,286.88L49.09,286.22L54.55,284.61L60,281.82L65.45,278.31L70.91,275.85L87.27,270.56L92.73,266.81L109.09,262.6L114.55,258.28L120,255.65L125.45,254.92L141.82,244.25L147.27,240.85L152.73,235.68L158.18,234.66L169.09,229.2L174.55,225.71L180,222.27L185.45,219.98L190.91,213.14L196.36,212.5L201.82,206.41L207.27,204.18L212.73,202.97L218.18,199.55L229.09,195.76L234.55,194.86L245.45,190.83L250.91,184.79L256.36,186.37L261.82,181.79L278.18,178.66L283.64,172.13L294.55,173.59L300,170.57L305.45,165.13L310.91,162.23L316.36,163.04L321.82,156.43L327.27,155.58L332.73,153.12L349.09,150.45L354.55,148.47L360,137.92L365.45,138.71L370.91,136.09L376.36,132.52L381.82,127.29L387.27,125.6L392.73,122.64L398.18,120.99L409.09,117.8L414.55,113.92L420,110.59L425.45,110.21L441.82,103.58L447.27,98.56L452.73,102.25L458.18,95.66L463.64,93.24L469.09,89.37L485.45,74.94L490.91,71.08L496.36,67.95L501.82,63.1L507.27,55.59L512.73,55.53L518.18,56.3L523.64,51.19L529.09,52.09L534.55,51.53L540,40.89" style="vector-effect: non-scaling-stroke; fill: none; stroke: rgb(163, 165, 0); stroke-opacity: 1; stroke-width: 2px; opacity: 1;"/></g><g class="points"/><g class="text"/></g><g class="trace scatter trace259c15" style="stroke-miterlimit: 2; opacity: 1;"><g class="fills"/><g class="errorbars"/><g class="lines"><path class="js-line" d="M0,302.58L5.45,302.31L10.91,296.72L32.73,287.15L38.18,286.49L43.64,285.49L49.09,283.71L54.55,280.11L60,278.79L65.45,278.59L70.91,275.63L76.36,273.12L81.82,272.27L87.27,267.29L92.73,265.37L98.18,264.76L103.64,261.34L109.09,258.72L114.55,257.15L120,253.61L125.45,251.9L130.91,246.04L136.36,243.16L141.82,241.91L147.27,238.14L152.73,235.91L158.18,230.86L163.64,229.47L169.09,226.11L174.55,222.44L180,220.36L185.45,218.73L190.91,212.68L196.36,211.68L201.82,208.06L207.27,202.61L212.73,199.92L218.18,197.63L223.64,193.15L229.09,192.11L234.55,188.48L240,186.96L245.45,180.47L256.36,177.07L261.82,170.17L267.27,169.63L272.73,163.38L278.18,166.15L283.64,160.44L289.09,156.16L294.55,154.2L300,149.95L305.45,152.81L310.91,149.53L316.36,143.86L321.82,142.01L327.27,143.51L332.73,140.59L338.18,139.74L343.64,140.07L349.09,137.36L354.55,139.09L360,134.96L370.91,131.48L376.36,128.46L381.82,127.31L387.27,128.69L392.73,126.45L398.18,118.91L403.64,119.64L409.09,116.61L420,116.41L425.45,112.84L430.91,109.4L436.36,110.42L441.82,110.71L447.27,109.36L452.73,107.69L458.18,103.54L463.64,98.6L469.09,97.25L474.55,98.04L480,99.64L485.45,96.25L490.91,87.76L496.36,92.58L501.82,88.64L507.27,88.01L512.73,89.22L518.18,94.2L523.64,85.26L529.09,83.57L534.55,84.65L540,80.36" style="vector-effect: non-scaling-stroke; fill: none; stroke: rgb(0, 191, 125); stroke-opacity: 1; stroke-width: 2px; opacity: 1;"/></g><g class="points"/><g class="text"/></g><g class="trace scatter trace88016b" style="stroke-miterlimit: 2; opacity: 1;"><g class="fills"/><g class="errorbars"/><g class="lines"><path class="js-line" d="M0,303.54L10.91,300.6L16.36,293.81L21.82,291.62L27.27,290.84L32.73,287.3L38.18,287.49L49.09,285.26L54.55,282.03L60,279.54L65.45,279.5L70.91,273.06L76.36,272.6L98.18,257.82L103.64,252.92L109.09,249.23L114.55,248.48L120,243.14L125.45,239.83L130.91,239.08L136.36,232.55L141.82,226.97L147.27,223.05L152.73,222.38L158.18,216.19L163.64,215.44L169.09,209.18L180,199.51L185.45,196.57L190.91,189.21L196.36,184.16L201.82,182.6L207.27,175.64L212.73,174.84L218.18,169.53L223.64,163.19L229.09,159.31L234.55,161.36L240,153.22L245.45,153.66L250.91,147.55L256.36,151.35L261.82,144.74L267.27,142.86L272.73,139.53L278.18,136.75L283.64,135.29L289.09,128.37L294.55,128.92L305.45,128.79L310.91,126.18L316.36,126.96L321.82,124.85L332.73,123.12L338.18,125.06L343.64,120.45L349.09,114.26L354.55,115.95L360,114.28L365.45,113.95L370.91,111.28L381.82,103.33L387.27,103.29L392.73,99.77L398.18,101.98L403.64,99.73L409.09,94.97L420,96.16L425.45,91.58L430.91,93.89L436.36,87.49L441.82,88.91L447.27,83.26L452.73,80.42L458.18,79.02L463.64,76.65L469.09,72.71L474.55,72.96L480,75.56L485.45,69.81L490.91,72.58L496.36,75.9L501.82,77.59L507.27,75L512.73,69.12L518.18,70.23L523.64,67.25L529.09,65.24L534.55,67.06L540,68.6" style="vector-effect: non-scaling-stroke; fill: none; stroke: rgb(0, 176, 246); stroke-opacity: 1; stroke-width: 2px; opacity: 1;"/></g><g class="points"/><g class="text"/></g><g class="trace scatter trace3ed3b6" style="stroke-miterlimit: 2; opacity: 1;"><g class="fills"/><g class="errorbars"/><g class="lines"><path class="js-line" d="M0,301.94L5.45,302.58L10.91,298.7L16.36,292.49L21.82,292.83L32.73,291.05L38.18,288.8L49.09,284.13L54.55,284.07L60,282.19L65.45,279.36L87.27,269.25L92.73,268.91L103.64,261.53L109.09,260.68L120,255.9L125.45,251.8L130.91,248.94L136.36,247.15L141.82,245.94L147.27,242.23L152.73,236.76L158.18,238.31L163.64,236.03L169.09,230.47L174.55,226.05L180,225.42L185.45,224.36L190.91,222.04L196.36,217.56L201.82,218.81L207.27,214.33L212.73,210.91L218.18,207.66L223.64,205.47L229.09,203.43L234.55,199.11L245.45,195.73L250.91,193.17L256.36,192.42L261.82,188.58L272.73,182.56L278.18,179.68L283.64,179.58L289.09,172.03L294.55,175.62L300,170.49L310.91,167.78L316.36,165.82L332.73,158.85L338.18,160.63L343.64,155.25L349.09,152.89L354.55,154.35L360,152.16L365.45,148.14L370.91,145.22L376.36,144.16L381.82,139.76L387.27,138.36L392.73,134.9L398.18,134.23L403.64,130.42L409.09,127.41L414.55,127.66L420,127.75L425.45,123.7L430.91,125.48L436.36,121.68L452.73,112.92L458.18,111.51L463.64,110.78L469.09,106.69L474.55,105.44L480,98.77L485.45,100.08L490.91,100.58L501.82,100.54L507.27,98.39L512.73,95.7L518.18,98L523.64,96.06L529.09,95.6L534.55,94.81L540,88.99" style="vector-effect: non-scaling-stroke; fill: none; stroke: rgb(231, 107, 243); stroke-opacity: 1; stroke-width: 2px; opacity: 1;"/></g><g class="points"/><g class="text"/></g><g class="trace scatter tracec46f87" style="stroke-miterlimit: 2; opacity: 1;"><g class="fills"/><g class="errorbars"/><g class="lines"><path class="js-line" d="M0,302.67L5.45,302.75L10.91,298.54L16.36,294.33L21.82,292.78L27.27,290.09L32.73,289.57L43.64,285.09L49.09,284.44L54.55,283.63L60,280.94L65.45,279.57L70.91,275.67L76.36,274.98L81.82,271.58L87.27,270.1L92.73,266.2L98.18,265.39L103.64,262.03L114.55,255.15L120,255.32L130.91,245.67L136.36,239.45L141.82,236.99L147.27,233.43L152.73,232.43L158.18,228.47L163.64,224.44L169.09,223.07L185.45,211.39L190.91,207.62L196.36,202.38L201.82,200.7L212.73,190.69L218.18,192.88L223.64,186.56L229.09,183.66L234.55,177.12L240,176.95L245.45,173.95L250.91,167.48L256.36,164.02L261.82,158.42L267.27,157.37L272.73,158.17L278.18,148.41L283.64,152.6L289.09,152.77L294.55,145.93L300,140.86L305.45,138.34L316.36,131.17L321.82,132.92L332.73,130.52L338.18,122.18L343.64,130.46L349.09,126.75L354.55,125.1L360,128.27L370.91,127.02L376.36,119.85L381.82,116.49L387.27,117.34L392.73,116.82L398.18,113.95L403.64,112.28L409.09,105.36L414.55,106.94L420,104.75L425.45,104.21L430.91,101.12L436.36,97.83L441.82,93.47L447.27,85.86L452.73,84.8L458.18,82.92L463.64,74.4L469.09,71.89L474.55,68.2L480,64.06L485.45,58.86L490.91,58.78L496.36,55.45L501.82,51.59L507.27,50.55L512.73,46.81L518.18,51.96L523.64,51.13L529.09,45.63L534.55,47.42L540,48.21" style="vector-effect: non-scaling-stroke; fill: none; stroke: rgb(248, 118, 109); stroke-opacity: 1; stroke-width: 2px; opacity: 1;"/></g><g class="points"/><g class="text"/></g><g class="trace scatter trace7f549e" style="stroke-miterlimit: 2; opacity: 1;"><g class="fills"/><g class="errorbars"/><g class="lines"><path class="js-line" d="M0,303.19L5.45,303.04L10.91,300.18L16.36,295.93L21.82,294.35L32.73,289.47L38.18,290.09L43.64,287.47L49.09,286.63L54.55,285.3L60,282.28L65.45,281.42L70.91,278.15L81.82,275.17L87.27,271.18L92.73,268.7L98.18,269.89L103.64,265.49L109.09,264.76L125.45,258.49L130.91,254.57L136.36,253.8L141.82,249.88L152.73,247.17L158.18,243.39L163.64,239.56L169.09,238.37L174.55,232.45L180,229.72L185.45,226.03L190.91,224.32L201.82,219.15L207.27,213.73L212.73,209.89L218.18,204.45L223.64,203.93L229.09,200.47L234.55,199.74L240,195.73L245.45,191L250.91,188.79L256.36,187.37L261.82,182.87L267.27,181.85L272.73,173.95L283.64,169.05L289.09,170.03L294.55,167.65L300,166.69L305.45,163.34L310.91,161.83L321.82,154.6L327.27,150.74L332.73,146.26L338.18,145.84L343.64,141.9L349.09,136.15L354.55,135.67L360,136.05L365.45,129.85L370.91,128.16L376.36,129.5L381.82,123.7L387.27,123.1L392.73,124.47L398.18,117.64L403.64,121.31L409.09,117.03L414.55,114.22L420,112.22L425.45,111.61L430.91,106.42L436.36,103.1L441.82,98.6L447.27,96.35L452.73,96.37L458.18,94.81L463.64,91.1L469.09,92.14L474.55,88.72L480,80.44L496.36,69.56L501.82,69.06L507.27,66.56L512.73,61.55L518.18,65.31L523.64,60.78L529.09,57.84L534.55,52.82L540,53.88" style="vector-effect: non-scaling-stroke; fill: none; stroke: rgb(163, 165, 0); stroke-opacity: 1; stroke-width: 2px; opacity: 1;"/></g><g class="points"/><g class="text"/></g><g class="trace scatter tracef53b4b" style="stroke-miterlimit: 2; opacity: 1;"><g class="fills"/><g class="errorbars"/><g class="lines"><path class="js-line" d="M0,303.12L5.45,302.58L10.91,300.46L16.36,295.22L21.82,292.72L32.73,289.57L38.18,288.61L43.64,285.28L49.09,285.74L60,281.82L65.45,280.36L70.91,276L76.36,274.65L87.27,271.68L92.73,267.74L98.18,267.12L103.64,265.62L114.55,260.68L120,256.11L130.91,254.11L136.36,248.84L141.82,243.64L147.27,244.71L152.73,240.08L158.18,234.22L169.09,230.91L174.55,227.57L180,223.25L185.45,219.94L190.91,214.44L196.36,213.14L201.82,208.79L207.27,207.53L212.73,205.93L218.18,200.22L223.64,199.4L229.09,193.77L240,191.73L245.45,189.19L250.91,186.92L256.36,182.47L261.82,179.16L267.27,176.93L272.73,174.53L278.18,173.07L283.64,171.05L289.09,170.61L300,166.11L305.45,165.13L310.91,160.81L316.36,160.21L321.82,161.75L327.27,156.81L332.73,155.29L338.18,156.21L343.64,153.62L349.09,153.62L354.55,149.68L360,149.47L370.91,144.41L376.36,138.03L381.82,139.63L387.27,134.82L392.73,134.69L398.18,129.75L403.64,128.87L409.09,125.87L414.55,124.91L420,118.34L425.45,111.8L430.91,107.84L436.36,105.94L441.82,97.64L447.27,101.02L452.73,102.15L458.18,107.32L463.64,99.87L474.55,102.29L480,94.35L485.45,93.97L490.91,87.38L501.82,88.45L507.27,84.09L518.18,86.18L523.64,84.99L529.09,84.15L534.55,79.61L540,82.26" style="vector-effect: non-scaling-stroke; fill: none; stroke: rgb(0, 191, 125); stroke-opacity: 1; stroke-width: 2px; opacity: 1;"/></g><g class="points"/><g class="text"/></g><g class="trace scatter trace5cee1d" style="stroke-miterlimit: 2; opacity: 1;"><g class="fills"/><g class="errorbars"/><g class="lines"><path class="js-line" d="M0,302.98L5.45,302.35L10.91,297.68L16.36,294.1L21.82,293.26L27.27,291.89L32.73,289.72L38.18,286.3L43.64,286.09L49.09,284.51L54.55,281.42L60,278.98L65.45,278.09L70.91,275.52L76.36,271.08L81.82,271.25L87.27,266.87L98.18,261.97L103.64,257.61L109.09,256.3L114.55,249.56L120,249.77L125.45,244.06L130.91,240.93L136.36,234.51L141.82,231.05L147.27,228.49L158.18,220.77L163.64,218.58L169.09,210.02L174.55,208.41L180,206.2L185.45,201.3L190.91,200.24L196.36,196.09L201.82,193.57L207.27,188.46L212.73,191.06L218.18,185.1L223.64,183.45L229.09,178.53L234.55,178.47L240,175.97L245.45,171.63L250.91,168.67L256.36,165.92L261.82,160.54L267.27,158.25L272.73,154.91L278.18,149.85L283.64,148.93L294.55,142.26L300,140.53L305.45,134.23L310.91,136.4L316.36,134.15L321.82,127.66L332.73,121.53L338.18,122.62L349.09,112.53L354.55,111.05L360,107.73L365.45,109.94L370.91,102.17L376.36,103.63L387.27,98.23L392.73,97.04L398.18,93.2L403.64,92.58L409.09,93.45L414.55,91.76L425.45,88.59L430.91,88.41L441.82,84.3L447.27,84.82L452.73,82.19L458.18,81.96L463.64,82.32L469.09,78.71L474.55,77.73L480,78.27L485.45,74.31L490.91,69.08L496.36,72.69L501.82,72.71L507.27,72.19L512.73,67L518.18,71.79L523.64,73.65L529.09,68.04L534.55,65.2L540,67.08" style="vector-effect: non-scaling-stroke; fill: none; stroke: rgb(0, 176, 246); stroke-opacity: 1; stroke-width: 2px; opacity: 1;"/></g><g class="points"/><g class="text"/></g><g class="trace scatter trace3ee891" style="stroke-miterlimit: 2; opacity: 1;"><g class="fills"/><g class="errorbars"/><g class="lines"><path class="js-line" d="M0,303.15L10.91,302.58L16.36,297.66L21.82,293.35L27.27,291.99L32.73,291.18L38.18,288.3L43.64,286.7L49.09,286.24L54.55,283.28L60,283.49L70.91,278.9L76.36,274.69L81.82,273.77L87.27,271.62L92.73,269.12L98.18,264.97L103.64,265.95L109.09,262.2L114.55,260.11L120,255.67L125.45,254.53L130.91,250L136.36,248.02L141.82,244.56L163.64,234.47L169.09,231.57L174.55,228.57L180,228.38L185.45,227.15L190.91,220.79L196.36,218.42L201.82,217.92L207.27,213.68L212.73,214.06L218.18,209.99L223.64,207.41L240,200.76L245.45,195.69L250.91,196.51L256.36,193.44L261.82,191.71L267.27,188.33L272.73,186.73L278.18,183.77L283.64,178.28L289.09,176.55L294.55,172.4L300,173.66L310.91,170.01L316.36,169.65L321.82,161.69L327.27,163.5L332.73,164.02L338.18,159.12L343.64,154.91L349.09,154L360,150.49L365.45,150.76L370.91,146.39L376.36,146.03L381.82,140.72L387.27,142.97L398.18,134.77L403.64,133L409.09,137.15L414.55,130.21L420,128.46L425.45,124.68L430.91,127.29L436.36,125.77L441.82,124.77L447.27,121.18L452.73,121.64L458.18,119.6L463.64,117.55L469.09,117.01L474.55,111.4L480,108.4L485.45,110.92L490.91,115.38L496.36,109.86L501.82,111.82L507.27,111.36L512.73,114.32L518.18,113.13L523.64,115.24L534.55,105.19L540,101.79" style="vector-effect: non-scaling-stroke; fill: none; stroke: rgb(231, 107, 243); stroke-opacity: 1; stroke-width: 2px; opacity: 1;"/></g><g class="points"/><g class="text"/></g><g class="trace scatter trace03b8c8" style="stroke-miterlimit: 2; opacity: 1;"><g class="fills"/><g class="errorbars"/><g class="lines"><path class="js-line" d="M0,303.48L5.45,301.41L10.91,295.97L16.36,293.64L21.82,292.72L27.27,290.01L32.73,289.64L38.18,288.63L43.64,285.72L49.09,283.17L54.55,283.44L70.91,273.5L76.36,273.17L81.82,270L87.27,265.78L92.73,264.89L98.18,261.26L103.64,256.97L109.09,251.05L114.55,251.52L120,250.98L125.45,244.6L130.91,239.39L136.36,238.52L141.82,231.82L158.18,221.29L163.64,216.94L169.09,214L174.55,207.03L180,204.24L185.45,198.8L190.91,195.63L196.36,190.86L201.82,189.15L207.27,184.77L218.18,171.13L223.64,167.01L234.55,164.57L240,156.54L245.45,155.62L250.91,151.47L256.36,149.05L261.82,143.09L267.27,139.59L272.73,138.11L278.18,132.92L283.64,126.62L294.55,122.37L300,119.47L305.45,120.2L310.91,113.42L316.36,111.53L321.82,112.76L327.27,107.36L332.73,103.06L338.18,101.94L343.64,97.81L349.09,95.08L354.55,90.45L360,87.11L365.45,88.78L370.91,81.74L376.36,79.75L381.82,79.3L387.27,79.8L392.73,74.15L398.18,70.08L403.64,70.6L409.09,69.62L414.55,71.89L420,65.39L425.45,67.25L430.91,71.06L441.82,75.77L447.27,76.44L452.73,80.05L458.18,80.94L463.64,77.44L469.09,75.42L474.55,73.52L480,72.42L485.45,72.94L490.91,71.25L496.36,63.64L501.82,66.18L507.27,69.48L512.73,61.57L518.18,55.17L523.64,51.84L529.09,45.1L534.55,43.67L540,43.79" style="vector-effect: non-scaling-stroke; fill: none; stroke: rgb(248, 118, 109); stroke-opacity: 1; stroke-width: 2px; opacity: 1;"/></g><g class="points"/><g class="text"/></g><g class="trace scatter trace448dc9" style="stroke-miterlimit: 2; opacity: 1;"><g class="fills"/><g class="errorbars"/><g class="lines"><path class="js-line" d="M0,302.39L5.45,303L10.91,302.46L16.36,296.77L21.82,292.78L27.27,292.41L32.73,288.84L38.18,289.99L43.64,287.55L49.09,285.07L54.55,283.65L65.45,279.36L70.91,278.29L76.36,274.73L81.82,272.89L87.27,270.87L92.73,266.99L98.18,266.1L103.64,262.18L109.09,260.61L114.55,255.24L120,251.98L125.45,251.27L130.91,247.02L136.36,244.48L141.82,241.1L147.27,236.68L152.73,234.16L158.18,229.84L163.64,227.61L169.09,222.88L174.55,221.4L180,213.75L185.45,214.48L190.91,209.31L212.73,196.51L218.18,195.94L223.64,193.36L229.09,188.27L234.55,186.44L240,183.27L245.45,183.75L250.91,182.6L256.36,178.91L261.82,177.07L267.27,170.84L272.73,169.24L283.64,166.75L289.09,162.31L294.55,159.77L300,155.85L305.45,156.48L310.91,154.29L316.36,152.29L321.82,145.59L327.27,147.43L332.73,144.63L338.18,142.93L343.64,139.51L349.09,137.19L354.55,137.96L360,132.33L365.45,131.52L370.91,128.75L376.36,123.66L381.82,124.85L387.27,122.2L392.73,121.16L398.18,118.45L403.64,117.89L409.09,112.49L414.55,108.4L420,108.65L425.45,105.46L430.91,107.55L441.82,99.91L447.27,101.31L452.73,98.06L458.18,93.81L469.09,89.57L474.55,88.41L485.45,84.95L490.91,88.24L496.36,86.26L501.82,86.3L507.27,82.42L512.73,76.36L518.18,73.52L523.64,74.15L529.09,70.79L534.55,69.23L540,70.48" style="vector-effect: non-scaling-stroke; fill: none; stroke: rgb(163, 165, 0); stroke-opacity: 1; stroke-width: 2px; opacity: 1;"/></g><g class="points"/><g class="text"/></g><g class="trace scatter trace72d621" style="stroke-miterlimit: 2; opacity: 1;"><g class="fills"/><g class="errorbars"/><g class="lines"><path class="js-line" d="M0,301.85L10.91,296.14L16.36,293.89L21.82,292.66L27.27,290.53L32.73,290.09L38.18,286.65L43.64,286.61L49.09,285.47L60,281.07L65.45,280.5L76.36,276.71L81.82,273.81L87.27,270.35L92.73,269.27L98.18,265.89L103.64,265.31L109.09,263.28L114.55,262.22L120,258.38L125.45,258.28L130.91,253.86L136.36,250.77L141.82,247.94L147.27,241.93L152.73,242.48L158.18,240.29L163.64,234.55L169.09,231.03L174.55,227.59L180,226.99L190.91,218.35L196.36,216.23L207.27,208.37L212.73,206.85L218.18,208.41L223.64,200.82L229.09,199.2L234.55,191.69L240,187L245.45,185.25L250.91,184.35L256.36,176.32L261.82,174.97L267.27,172.4L272.73,171.53L278.18,166.28L283.64,164.36L289.09,160.08L294.55,159.1L300,155.62L305.45,154.02L310.91,146.22L321.82,149.03L327.27,144.03L332.73,139.51L338.18,136.59L349.09,127.33L354.55,125.2L360,124.24L365.45,119.39L381.82,117.03L387.27,114.72L392.73,113.51L398.18,114.88L403.64,114.36L409.09,111.99L420,104.46L425.45,103.98L430.91,106.36L436.36,103.21L441.82,104.46L447.27,101.04L452.73,105.15L458.18,102.67L463.64,98.85L469.09,97.96L474.55,93.12L480,93.31L485.45,89.03L490.91,88.97L496.36,85.95L501.82,84.24L507.27,83.69L512.73,84.24L518.18,80.23L523.64,79.98L534.55,74.56L540,77.73" style="vector-effect: non-scaling-stroke; fill: none; stroke: rgb(0, 191, 125); stroke-opacity: 1; stroke-width: 2px; opacity: 1;"/></g><g class="points"/><g class="text"/></g><g class="trace scatter tracea859db" style="stroke-miterlimit: 2; opacity: 1;"><g class="fills"/><g class="errorbars"/><g class="lines"><path class="js-line" d="M0,302.81L5.45,302.35L10.91,297.62L16.36,293.03L21.82,291.49L27.27,290.99L32.73,289.49L49.09,285.78L54.55,283.26L65.45,276.79L70.91,275.48L76.36,276.31L81.82,272.87L98.18,265.45L103.64,264.85L109.09,261.82L114.55,261.32L120,253.98L125.45,253.46L130.91,248.15L136.36,248.94L141.82,244.67L147.27,242.73L152.73,239.62L158.18,239.1L163.64,234.24L169.09,232.89L174.55,230.2L180,226.59L185.45,223.61L190.91,222.65L201.82,209.85L207.27,210.2L212.73,204.97L218.18,202.51L223.64,199.22L229.09,196.96L234.55,193.17L240,185.91L245.45,188.48L250.91,181.35L256.36,176.45L261.82,173.68L272.73,163.52L278.18,163.46L283.64,158.33L289.09,155.68L294.55,154.45L300,149.62L305.45,146.32L310.91,140.97L316.36,141.78L321.82,135.71L327.27,133.9L332.73,131.27L338.18,128.62L343.64,129.31L349.09,122.95L354.55,118.57L360,117.01L365.45,117.66L370.91,114.01L376.36,113.63L381.82,109.57L387.27,110.9L392.73,109.44L398.18,106.57L403.64,106.25L409.09,101.4L414.55,98.21L420,96.77L425.45,91.14L430.91,91.72L436.36,90.93L441.82,87.2L447.27,81.69L452.73,78.13L458.18,76.79L463.64,76.31L469.09,75.88L474.55,69.75L480,70.04L485.45,65.89L490.91,63.53L496.36,63.56L501.82,61.68L507.27,52.61L512.73,51.96L518.18,46.48L523.64,48.52L529.09,47.81L534.55,42.25L540,40.1" style="vector-effect: non-scaling-stroke; fill: none; stroke: rgb(0, 176, 246); stroke-opacity: 1; stroke-width: 2px; opacity: 1;"/></g><g class="points"/><g class="text"/></g><g class="trace scatter traceb7b128" style="stroke-miterlimit: 2; opacity: 1;"><g class="fills"/><g class="errorbars"/><g class="lines"><path class="js-line" d="M0,303.15L5.45,302.94L10.91,299.2L16.36,294.87L21.82,292.51L32.73,289.34L38.18,287.59L43.64,286.93L49.09,284.8L54.55,283.51L60,280.55L65.45,279.15L70.91,276.5L76.36,274L81.82,274.23L87.27,270.06L92.73,269.73L98.18,264.66L103.64,262.76L109.09,261.41L114.55,263.32L120,259.03L125.45,257.76L136.36,253.8L141.82,250.21L147.27,250.46L152.73,246.21L163.64,246.67L169.09,241.29L174.55,238.52L180,237.89L185.45,231.66L190.91,231.82L201.82,226.15L207.27,223.34L218.18,215.5L223.64,213.14L229.09,214.31L234.55,211.87L240,205.99L245.45,206.8L250.91,200.34L256.36,200.17L267.27,195.96L272.73,194.67L278.18,193.5L283.64,189.92L289.09,186.54L294.55,181.45L300,181.45L305.45,175.05L310.91,175.39L316.36,169.11L321.82,171.15L327.27,166.34L332.73,166.23L338.18,163.59L343.64,163.84L349.09,159.79L354.55,157.69L360,154.29L365.45,154.85L370.91,150.03L376.36,149.81L381.82,141.95L387.27,139.17L392.73,138.94L398.18,135.96L403.64,134.27L409.09,131.81L414.55,132.96L420,132.19L425.45,129.81L430.91,125.06L436.36,125.81L441.82,124.43L447.27,121.47L452.73,124.58L458.18,117.97L463.64,117.14L469.09,114.32L480,111.55L485.45,107.34L490.91,107.86L496.36,99.5L501.82,104.98L507.27,97.89L512.73,97.75L518.18,104.21L523.64,96.04L529.09,95.64L534.55,97.16L540,92.37" style="vector-effect: non-scaling-stroke; fill: none; stroke: rgb(231, 107, 243); stroke-opacity: 1; stroke-width: 2px; opacity: 1;"/></g><g class="points"/><g class="text"/></g><g class="trace scatter trace56ae62" style="stroke-miterlimit: 2; opacity: 1;"><g class="fills"/><g class="errorbars"/><g class="lines"><path class="js-line" d="M0,303.81L5.45,303.15L10.91,300.6L16.36,294.81L21.82,293.97L27.27,291.55L32.73,290.39L38.18,286.8L43.64,285.61L49.09,284.76L54.55,282.21L60,281.4L65.45,278L70.91,274.79L76.36,274.12L81.82,270.66L87.27,269.77L92.73,268.43L98.18,262.57L103.64,260.84L109.09,258.01L114.55,252.3L120,250.88L136.36,241.16L141.82,240.04L147.27,236.72L152.73,229.84L169.09,219.4L174.55,217.08L180,215.42L185.45,210.29L201.82,199.76L207.27,199.2L212.73,199.01L218.18,193.09L223.64,187.21L229.09,183.08L234.55,182.12L240,178.47L245.45,177.1L250.91,170.11L256.36,167.4L261.82,166.65L272.73,159.23L278.18,154.12L283.64,150.47L289.09,151.14L294.55,151.72L300,148.89L305.45,146.09L310.91,141.19L316.36,136.19L321.82,134.52L327.27,134.11L332.73,130.06L338.18,127.89L343.64,123.37L349.09,124.39L354.55,123.81L365.45,122.37L370.91,117.03L376.36,112.26L381.82,113.03L387.27,111.82L392.73,111.97L398.18,108.59L403.64,106.67L409.09,106.82L414.55,101.17L420,98.31L425.45,98.83L430.91,96.95L436.36,99.66L441.82,94.79L447.27,96.83L452.73,100.33L458.18,99.62L463.64,102.67L469.09,100.6L474.55,103.63L480,100.14L490.91,89.37L496.36,90.05L501.82,86.63L507.27,84.13L512.73,84.24L518.18,81.69L523.64,80.88L529.09,78.09L534.55,75.61L540,75.4" style="vector-effect: non-scaling-stroke; fill: none; stroke: rgb(248, 118, 109); stroke-opacity: 1; stroke-width: 2px; opacity: 1;"/></g><g class="points"/><g class="text"/></g><g class="trace scatter trace78e8ae" style="stroke-miterlimit: 2; opacity: 1;"><g class="fills"/><g class="errorbars"/><g class="lines"><path class="js-line" d="M0,303.17L5.45,301.1L10.91,297.06L16.36,293.1L21.82,291.66L32.73,288.97L38.18,286.84L43.64,284.67L49.09,284.51L70.91,274.15L76.36,272.06L87.27,266.22L92.73,263.12L98.18,263.03L103.64,257.34L109.09,254.88L114.55,254.3L120,248.4L125.45,248.75L130.91,243.23L136.36,240.37L141.82,238.47L147.27,238.89L152.73,231.22L158.18,231.38L163.64,228.65L169.09,221.75L174.55,225.61L180,220.23L185.45,214.52L190.91,212.5L196.36,210.16L201.82,206.49L207.27,203.47L212.73,198.49L218.18,194.8L223.64,195.4L229.09,189.23L234.55,188L240,179.22L245.45,176.47L250.91,174.97L256.36,170.65L261.82,168.59L267.27,165.02L272.73,164L278.18,164.38L283.64,158.14L289.09,157.6L294.55,147.12L300,149.08L305.45,140.15L310.91,139.19L321.82,138.09L327.27,133.81L332.73,134.31L338.18,133.33L343.64,128.5L349.09,120.55L354.55,117.99L360,121.68L365.45,119.66L370.91,119.22L376.36,111.21L381.82,110.11L387.27,105.94L392.73,102.71L398.18,101.27L403.64,102.67L409.09,101.52L414.55,102.04L420,102.08L425.45,103.29L430.91,103.67L436.36,106.84L441.82,101.6L447.27,101.35L458.18,101.46L463.64,98.71L474.55,88.39L480,86.93L485.45,85.68L490.91,81.38L496.36,82.63L501.82,81.94L507.27,80.32L512.73,76.65L518.18,77.52L523.64,76.63L534.55,70.14L540,70.81" style="vector-effect: non-scaling-stroke; fill: none; stroke: rgb(163, 165, 0); stroke-opacity: 1; stroke-width: 2px; opacity: 1;"/></g><g class="points"/><g class="text"/></g><g class="trace scatter trace765a7f" style="stroke-miterlimit: 2; opacity: 1;"><g class="fills"/><g class="errorbars"/><g class="lines"><path class="js-line" d="M0,303.04L5.45,301.66L10.91,295.81L16.36,292.85L21.82,292.45L32.73,288.16L38.18,288.05L43.64,285.11L49.09,284.61L54.55,281.46L60,280.57L76.36,272.87L81.82,273.27L87.27,268.41L92.73,265.87L98.18,264.78L103.64,261.51L114.55,257.09L120,253.32L125.45,250.96L130.91,250.25L136.36,243.81L141.82,242.27L147.27,241L152.73,236.87L158.18,234.43L163.64,230.18L169.09,228.07L174.55,222.11L180,221.34L185.45,218.73L190.91,212.85L196.36,209.6L201.82,208.51L207.27,205.39L212.73,202.47L218.18,201.82L229.09,199.34L234.55,195.21L240,192.44L245.45,186.48L250.91,185.37L256.36,180.62L261.82,180.79L267.27,178.6L272.73,174.86L278.18,173.86L283.64,168.76L289.09,167.13L294.55,164.17L300,158.73L310.91,159.67L316.36,156.25L321.82,151.56L327.27,151.1L332.73,146.24L338.18,146.7L343.64,143.01L349.09,142.36L365.45,136.73L370.91,129.67L376.36,131.46L381.82,126.85L387.27,125.33L392.73,122.62L398.18,118.78L403.64,121.97L409.09,117.64L414.55,118.45L420,115.93L425.45,109.63L430.91,105.96L436.36,106.38L441.82,106.42L447.27,97.58L452.73,101.44L458.18,95.62L469.09,98.89L474.55,103.1L480,99.85L485.45,95.49L490.91,95.31L496.36,89.41L501.82,87.99L507.27,89.8L512.73,87.74L518.18,82.74L523.64,82.76L529.09,80.82L540,66.7" style="vector-effect: non-scaling-stroke; fill: none; stroke: rgb(0, 191, 125); stroke-opacity: 1; stroke-width: 2px; opacity: 1;"/></g><g class="points"/><g class="text"/></g><g class="trace scatter trace8ade39" style="stroke-miterlimit: 2; opacity: 1;"><g class="fills"/><g class="errorbars"/><g class="lines"><path class="js-line" d="M0,303.58L5.45,302.31L10.91,298.85L16.36,293.01L21.82,291.82L32.73,288.41L38.18,285.92L43.64,285.63L49.09,282.57L54.55,283.9L60,280.36L65.45,278.46L70.91,275.21L81.82,270.08L87.27,270.41L92.73,267.6L98.18,263.64L103.64,262.05L109.09,258.13L114.55,257.26L120,255.4L125.45,251.44L130.91,249.48L136.36,247.46L141.82,241.2L147.27,240.87L152.73,238.24L158.18,235.93L163.64,230.05L169.09,228.13L174.55,228.28L180,225.13L185.45,219.69L190.91,220.92L196.36,218.23L201.82,212.06L207.27,209.6L212.73,209.01L218.18,204.93L223.64,199.84L229.09,197.74L234.55,193.84L240,192.02L245.45,187.98L250.91,185.25L267.27,174.86L272.73,176.03L283.64,171.74L289.09,166.63L300,160.19L305.45,158.27L310.91,157.5L316.36,155.64L332.73,144.41L338.18,135.09L343.64,132.83L349.09,131.98L354.55,130.35L360,124.66L370.91,117.32L376.36,118.28L381.82,115.18L387.27,114.13L398.18,104.96L403.64,105.59L409.09,103.48L414.55,98.89L420,93.49L425.45,93.06L430.91,88.99L436.36,91.26L441.82,89.87L447.27,87.36L452.73,81.44L458.18,83.84L463.64,86.24L469.09,83.13L474.55,85.57L480,82.28L485.45,78.02L490.91,78.55L496.36,75.23L501.82,76.79L507.27,76.02L512.73,70.69L518.18,72.35L523.64,72.62L529.09,65.97L534.55,65.97L540,64.76" style="vector-effect: non-scaling-stroke; fill: none; stroke: rgb(0, 176, 246); stroke-opacity: 1; stroke-width: 2px; opacity: 1;"/></g><g class="points"/><g class="text"/></g><g class="trace scatter tracef9e5c8" style="stroke-miterlimit: 2; opacity: 1;"><g class="fills"/><g class="errorbars"/><g class="lines"><path class="js-line" d="M0,303.25L5.45,302.12L10.91,296.64L21.82,293.49L27.27,293.89L32.73,294.35L38.18,293.03L43.64,292.53L49.09,290.78L54.55,291.16L60,289.95L70.91,288.49L76.36,286.65L81.82,287.34L87.27,285.67L92.73,285.97L98.18,284.82L103.64,284.59L109.09,286.01L114.55,282.26L120,282.9L125.45,283.38L130.91,282.88L136.36,281.82L141.82,279.4L158.18,280.4L163.64,279.21L169.09,275.88L174.55,277.36L180,274.62L185.45,274.54L190.91,272.21L196.36,271.77L201.82,270.73L207.27,270.5L212.73,269.31L218.18,270.62L223.64,265.08L229.09,268.08L234.55,264.68L240,264.55L245.45,262.82L250.91,262.37L267.27,259.51L272.73,256.09L278.18,257.36L283.64,255.78L289.09,253.86L294.55,253.09L300,249.31L305.45,248.92L316.36,245.5L321.82,246.52L343.64,243.66L349.09,244.08L354.55,244.71L360,237.95L365.45,242.48L370.91,241.52L381.82,240.91L387.27,238.91L398.18,237.7L403.64,239.02L409.09,237.99L414.55,235.28L420,235.08L425.45,236.12L430.91,238.58L436.36,236.06L441.82,233.51L447.27,233.24L452.73,232.91L458.18,230.41L463.64,232.18L469.09,230.36L474.55,231.28L480,231.41L485.45,234.37L490.91,232.03L496.36,232.68L501.82,231.66L507.27,232.87L512.73,229.99L518.18,231.28L523.64,230.78L529.09,230.01L534.55,230.24L540,228.11" style="vector-effect: non-scaling-stroke; fill: none; stroke: rgb(231, 107, 243); stroke-opacity: 1; stroke-width: 2px; opacity: 1;"/></g><g class="points"/><g class="text"/></g></g></g><g class="overplot"/><path class="xlines-above crisp" d="" style="fill: none; stroke-width: 1px; stroke: rgb(0, 0, 0); stroke-opacity: 0;"/><path class="ylines-above crisp" d="" style="fill: none; stroke-width: 1px; stroke: rgb(0, 0, 0); stroke-opacity: 0;"/><g class="overlines-above"/><g class="xaxislayer-above"><path class="xtick ticks crisp" d="M0,421v5" transform="translate(80,0)" style="stroke: rgb(51, 51, 51); stroke-opacity: 1; stroke-width: 1px;"/><path class="xtick ticks crisp" d="M0,421v5" transform="translate(189.09,0)" style="stroke: rgb(51, 51, 51); stroke-opacity: 1; stroke-width: 1px;"/><path class="xtick ticks crisp" d="M0,421v5" transform="translate(298.18,0)" style="stroke: rgb(51, 51, 51); stroke-opacity: 1; stroke-width: 1px;"/><path class="xtick ticks crisp" d="M0,421v5" transform="translate(407.27,0)" style="stroke: rgb(51, 51, 51); stroke-opacity: 1; stroke-width: 1px;"/><path class="xtick ticks crisp" d="M0,421v5" transform="translate(516.36,0)" style="stroke: rgb(51, 51, 51); stroke-opacity: 1; stroke-width: 1px;"/><g class="xtick"><text text-anchor="middle" x="0" y="440.4" transform="translate(80,0)" style="font-family: 'Open Sans', verdana, arial, sans-serif; font-size: 12px; fill: rgb(51, 51, 51); fill-opacity: 1; white-space: pre; opacity: 1;">0</text></g><g class="xtick"><text text-anchor="middle" x="0" y="440.4" style="font-family: 'Open Sans', verdana, arial, sans-serif; font-size: 12px; fill: rgb(51, 51, 51); fill-opacity: 1; white-space: pre; opacity: 1;" transform="translate(189.09,0)">20</text></g><g class="xtick"><text text-anchor="middle" x="0" y="440.4" style="font-family: 'Open Sans', verdana, arial, sans-serif; font-size: 12px; fill: rgb(51, 51, 51); fill-opacity: 1; white-space: pre; opacity: 1;" transform="translate(298.18,0)">40</text></g><g class="xtick"><text text-anchor="middle" x="0" y="440.4" style="font-family: 'Open Sans', verdana, arial, sans-serif; font-size: 12px; fill: rgb(51, 51, 51); fill-opacity: 1; white-space: pre; opacity: 1;" transform="translate(407.27,0)">60</text></g><g class="xtick"><text text-anchor="middle" x="0" y="440.4" style="font-family: 'Open Sans', verdana, arial, sans-serif; font-size: 12px; fill: rgb(51, 51, 51); fill-opacity: 1; white-space: pre; opacity: 1;" transform="translate(516.36,0)">80</text></g></g><g class="yaxislayer-above"><path class="ytick ticks crisp" d="M79,0h-5" transform="translate(0,417.59)" style="stroke: rgb(51, 51, 51); stroke-opacity: 1; stroke-width: 1px;"/><path class="ytick ticks crisp" d="M79,0h-5" transform="translate(0,380.07)" style="stroke: rgb(51, 51, 51); stroke-opacity: 1; stroke-width: 1px;"/><path class="ytick ticks crisp" d="M79,0h-5" transform="translate(0,342.53999999999996)" style="stroke: rgb(51, 51, 51); stroke-opacity: 1; stroke-width: 1px;"/><path class="ytick ticks crisp" d="M79,0h-5" transform="translate(0,305.01)" style="stroke: rgb(51, 51, 51); stroke-opacity: 1; stroke-width: 1px;"/><path class="ytick ticks crisp" d="M79,0h-5" transform="translate(0,267.48)" style="stroke: rgb(51, 51, 51); stroke-opacity: 1; stroke-width: 1px;"/><path class="ytick ticks crisp" d="M79,0h-5" transform="translate(0,229.96)" style="stroke: rgb(51, 51, 51); stroke-opacity: 1; stroke-width: 1px;"/><path class="ytick ticks crisp" d="M79,0h-5" transform="translate(0,192.43)" style="stroke: rgb(51, 51, 51); stroke-opacity: 1; stroke-width: 1px;"/><path class="ytick ticks crisp" d="M79,0h-5" transform="translate(0,154.9)" style="stroke: rgb(51, 51, 51); stroke-opacity: 1; stroke-width: 1px;"/><path class="ytick ticks crisp" d="M79,0h-5" transform="translate(0,117.38)" style="stroke: rgb(51, 51, 51); stroke-opacity: 1; stroke-width: 1px;"/><g class="ytick"><text text-anchor="end" x="71.6" y="4.199999999999999" transform="translate(0,417.59)" style="font-family: 'Open Sans', verdana, arial, sans-serif; font-size: 12px; fill: rgb(51, 51, 51); fill-opacity: 1; white-space: pre; opacity: 1;">0</text></g><g class="ytick"><text text-anchor="end" x="71.6" y="4.199999999999999" style="font-family: 'Open Sans', verdana, arial, sans-serif; font-size: 12px; fill: rgb(51, 51, 51); fill-opacity: 1; white-space: pre; opacity: 1;" transform="translate(0,380.07)">0.01</text></g><g class="ytick"><text text-anchor="end" x="71.6" y="4.199999999999999" style="font-family: 'Open Sans', verdana, arial, sans-serif; font-size: 12px; fill: rgb(51, 51, 51); fill-opacity: 1; white-space: pre; opacity: 1;" transform="translate(0,342.53999999999996)">0.02</text></g><g class="ytick"><text text-anchor="end" x="71.6" y="4.199999999999999" style="font-family: 'Open Sans', verdana, arial, sans-serif; font-size: 12px; fill: rgb(51, 51, 51); fill-opacity: 1; white-space: pre; opacity: 1;" transform="translate(0,305.01)">0.03</text></g><g class="ytick"><text text-anchor="end" x="71.6" y="4.199999999999999" style="font-family: 'Open Sans', verdana, arial, sans-serif; font-size: 12px; fill: rgb(51, 51, 51); fill-opacity: 1; white-space: pre; opacity: 1;" transform="translate(0,267.48)">0.04</text></g><g class="ytick"><text text-anchor="end" x="71.6" y="4.199999999999999" style="font-family: 'Open Sans', verdana, arial, sans-serif; font-size: 12px; fill: rgb(51, 51, 51); fill-opacity: 1; white-space: pre; opacity: 1;" transform="translate(0,229.96)">0.05</text></g><g class="ytick"><text text-anchor="end" x="71.6" y="4.199999999999999" style="font-family: 'Open Sans', verdana, arial, sans-serif; font-size: 12px; fill: rgb(51, 51, 51); fill-opacity: 1; white-space: pre; opacity: 1;" transform="translate(0,192.43)">0.06</text></g><g class="ytick"><text text-anchor="end" x="71.6" y="4.199999999999999" style="font-family: 'Open Sans', verdana, arial, sans-serif; font-size: 12px; fill: rgb(51, 51, 51); fill-opacity: 1; white-space: pre; opacity: 1;" transform="translate(0,154.9)">0.07</text></g><g class="ytick"><text text-anchor="end" x="71.6" y="4.199999999999999" style="font-family: 'Open Sans', verdana, arial, sans-serif; font-size: 12px; fill: rgb(51, 51, 51); fill-opacity: 1; white-space: pre; opacity: 1;" transform="translate(0,117.38)">0.08</text></g></g><g class="overaxes-above"/></g></g><g class="polarlayer"/><g class="ternarylayer"/><g class="geolayer"/><g class="funnelarealayer"/><g class="pielayer"/><g class="iciclelayer"/><g class="treemaplayer"/><g class="sunburstlayer"/><g class="glimages"/><defs id="topdefs-11f2ba"><g class="clips"/></defs><g class="layer-above"><g class="imagelayer"/><g class="shapelayer"/></g><g class="infolayer"><g class="g-gtitle"><text class="gtitle" x="350" y="50" text-anchor="middle" dy="0em" style="font-family: 'Open Sans', verdana, arial, sans-serif; font-size: 17px; fill: rgb(51, 51, 51); opacity: 1; font-weight: normal; white-space: pre;">Train Accuracy: ascad_v1_vk_0_noisy-aisy_mlp_id (early_stopping)</text></g><g class="g-xtitle"/><g class="g-ytitle"/></g></svg>