<svg class="main-svg" xmlns="http://www.w3.org/2000/svg" xmlns:xlink="http://www.w3.org/1999/xlink" width="700" height="500" style="" viewBox="0 0 700 500"><rect x="0" y="0" width="700" height="500" style="fill: rgb(255, 255, 255); fill-opacity: 1;"/><defs id="defs-11ce3b"><g class="clips"><clipPath id="clip11ce3bxyplot" class="plotclip"><rect width="470" height="320"/></clipPath><clipPath class="axesclip" id="clip11ce3bx"><rect x="80" y="0" width="470" height="500"/></clipPath><clipPath class="axesclip" id="clip11ce3by"><rect x="0" y="100" width="700" height="320"/></clipPath><clipPath class="axesclip" id="clip11ce3bxy"><rect x="80" y="100" width="470" height="320"/></clipPath></g><g class="gradients"/><g class="patterns"/></defs><g class="bglayer"><rect class="bg" x="80" y="100" width="470" height="320" style="fill: rgb(237, 237, 237); fill-opacity: 1; stroke-width: 0;"/></g><g class="layer-below"><g class="imagelayer"/><g class="shapelayer"/></g><g class="cartesianlayer"><g class="subplot xy"><g class="layer-subplot"><g class="shapelayer"/><g class="imagelayer"/></g><g class="gridlayer"><g class="x"><path class="xgrid crisp" transform="translate(141.38,0)" d="M0,100v320" style="stroke: rgb(255, 255, 255); stroke-opacity: 1; stroke-width: 1px;"/><path class="xgrid crisp" transform="translate(258.13,0)" d="M0,100v320" style="stroke: rgb(255, 255, 255); stroke-opacity: 1; stroke-width: 1px;"/><path class="xgrid crisp" transform="translate(374.88,0)" d="M0,100v320" style="stroke: rgb(255, 255, 255); stroke-opacity: 1; stroke-width: 1px;"/><path class="xgrid crisp" transform="translate(491.63,0)" d="M0,100v320" style="stroke: rgb(255, 255, 255); stroke-opacity: 1; stroke-width: 1px;"/></g><g class="y"><path class="ygrid crisp" transform="translate(0,304.57)" d="M80,0h470" style="stroke: rgb(255, 255, 255); stroke-opacity: 1; stroke-width: 1px;"/><path class="ygrid crisp" transform="translate(0,234.85)" d="M80,0h470" style="stroke: rgb(255, 255, 255); stroke-opacity: 1; stroke-width: 1px;"/><path class="ygrid crisp" transform="translate(0,165.12)" d="M80,0h470" style="stroke: rgb(255, 255, 255); stroke-opacity: 1; stroke-width: 1px;"/></g></g><g class="zerolinelayer"><path class="yzl zl crisp" transform="translate(0,374.3)" d="M80,0h470" style="stroke: rgb(255, 255, 255); stroke-opacity: 1; stroke-width: 1px;"/></g><path class="xlines-below"/><path class="ylines-below"/><g class="overlines-below"/><g class="xaxislayer-below"/><g class="yaxislayer-below"/><g class="overaxes-below"/><g class="plot" transform="translate(80,100)" clip-path="url(#clip11ce3bxyplot)"><g class="violinlayer mlayer"><g class="trace violins" style="opacity: 1;"><path class="violin" d="M62.03,304Q62.36,300.73 62.58,299.1C62.8,297.46 63.07,295.83 63.36,294.2C63.65,292.56 64,290.93 64.32,289.3C64.64,287.67 65.01,286.04 65.3,284.4C65.59,282.77 65.88,281.14 66.08,279.5C66.27,277.87 66.42,276.23 66.47,274.6C66.52,272.97 66.49,271.33 66.41,269.7C66.33,268.07 66.15,266.43 65.98,264.8C65.81,263.17 65.58,261.53 65.41,259.9C65.24,258.27 65.06,256.63 64.95,255C64.84,253.37 64.78,251.73 64.75,250.1C64.72,248.47 64.76,246.83 64.79,245.2C64.82,243.57 64.91,241.93 64.95,240.3C64.99,238.67 65.05,237.03 65.05,235.4C65.05,233.77 65.02,232.13 64.95,230.5C64.88,228.87 64.75,227.23 64.6,225.6C64.45,223.97 64.25,222.33 64.05,220.7C63.85,219.07 63.63,217.43 63.42,215.8C63.21,214.16 63,212.53 62.81,210.89C62.62,209.26 62.45,207.62 62.3,205.99C62.15,204.36 62.03,202.72 61.93,201.09C61.83,199.46 61.75,197.82 61.68,196.19C61.61,194.56 61.57,192.92 61.53,191.29C61.49,189.66 61.47,188.02 61.45,186.39C61.43,184.76 61.42,183.12 61.41,181.49C61.4,179.86 61.4,178.22 61.39,176.59C61.39,174.96 61.38,173.32 61.38,171.69C61.38,170.06 61.38,168.42 61.38,166.79C61.38,165.16 61.38,163.52 61.38,161.89C61.38,160.26 61.38,158.62 61.38,156.99C61.38,155.36 61.38,153.72 61.38,152.09C61.38,150.46 61.38,148.82 61.38,147.19C61.38,145.56 61.39,143.92 61.39,142.29C61.39,140.66 61.4,139.02 61.4,137.39C61.41,135.76 61.41,134.12 61.42,132.49C61.43,130.86 61.44,129.22 61.45,127.59C61.46,125.96 61.48,124.32 61.5,122.69C61.52,121.06 61.53,119.42 61.55,117.79C61.57,116.16 61.58,114.52 61.6,112.89C61.61,111.26 61.63,109.62 61.64,107.99C61.65,106.36 61.66,104.72 61.67,103.09C61.68,101.46 61.68,99.82 61.68,98.19C61.68,96.56 61.68,94.92 61.67,93.29C61.66,91.66 61.65,90.02 61.64,88.39C61.63,86.76 61.61,85.12 61.6,83.49C61.58,81.86 61.57,80.22 61.55,78.59C61.53,76.96 61.52,75.32 61.5,73.69C61.49,72.06 61.47,70.42 61.46,68.79C61.45,67.16 61.43,65.52 61.42,63.89Q61.41,62.26 61.4,58.99L61.35,58.99Q61.34,62.26 61.33,63.89C61.32,65.52 61.3,67.16 61.29,68.79C61.28,70.42 61.26,72.06 61.25,73.69C61.23,75.32 61.22,76.96 61.2,78.59C61.18,80.22 61.17,81.86 61.15,83.49C61.14,85.12 61.12,86.76 61.11,88.39C61.1,90.02 61.09,91.66 61.08,93.29C61.07,94.92 61.07,96.56 61.07,98.19C61.07,99.82 61.07,101.46 61.08,103.09C61.09,104.72 61.1,106.36 61.11,107.99C61.12,109.62 61.14,111.26 61.15,112.89C61.17,114.52 61.18,116.16 61.2,117.79C61.22,119.42 61.23,121.06 61.25,122.69C61.27,124.32 61.29,125.96 61.3,127.59C61.31,129.22 61.32,130.86 61.33,132.49C61.34,134.12 61.34,135.76 61.35,137.39C61.35,139.02 61.36,140.66 61.36,142.29C61.36,143.92 61.37,145.56 61.37,147.19C61.37,148.82 61.37,150.46 61.37,152.09C61.37,153.72 61.37,155.36 61.37,156.99C61.37,158.62 61.37,160.26 61.37,161.89C61.37,163.52 61.37,165.16 61.37,166.79C61.37,168.42 61.37,170.06 61.37,171.69C61.37,173.32 61.36,174.96 61.36,176.59C61.35,178.22 61.35,179.86 61.34,181.49C61.33,183.12 61.32,184.76 61.3,186.39C61.28,188.02 61.26,189.66 61.22,191.29C61.18,192.92 61.14,194.56 61.07,196.19C61,197.82 60.92,199.46 60.82,201.09C60.72,202.72 60.6,204.36 60.45,205.99C60.3,207.62 60.13,209.26 59.94,210.89C59.75,212.53 59.54,214.16 59.33,215.8C59.12,217.43 58.9,219.07 58.7,220.7C58.5,222.33 58.3,223.97 58.15,225.6C58,227.23 57.87,228.87 57.8,230.5C57.73,232.13 57.7,233.77 57.7,235.4C57.7,237.03 57.76,238.67 57.8,240.3C57.84,241.93 57.93,243.57 57.96,245.2C57.99,246.83 58.03,248.47 58,250.1C57.97,251.73 57.91,253.37 57.8,255C57.69,256.63 57.51,258.27 57.34,259.9C57.17,261.53 56.94,263.17 56.77,264.8C56.6,266.43 56.42,268.07 56.34,269.7C56.26,271.33 56.23,272.97 56.28,274.6C56.33,276.23 56.48,277.87 56.67,279.5C56.87,281.14 57.16,282.77 57.45,284.4C57.74,286.04 58.11,287.67 58.43,289.3C58.75,290.93 59.1,292.56 59.39,294.2C59.68,295.83 59.95,297.46 60.17,299.1Q60.39,300.73 60.72,304Z" style="vector-effect: non-scaling-stroke; stroke-width: 2px; stroke: rgb(99, 110, 250); stroke-opacity: 1; fill: rgb(99, 110, 250); fill-opacity: 0.5;"/><g class="points"><path class="point" transform="translate(22.92,274.3)" d="M3,0A3,3 0 1,1 0,-3A3,3 0 0,1 3,0Z" style="opacity: 1; stroke-width: 0px; fill: rgb(99, 110, 250); fill-opacity: 1;"/><path class="point" transform="translate(13,274.3)" d="M3,0A3,3 0 1,1 0,-3A3,3 0 0,1 3,0Z" style="opacity: 1; stroke-width: 0px; fill: rgb(99, 110, 250); fill-opacity: 1;"/><path class="point" transform="translate(25.12,274.3)" d="M3,0A3,3 0 1,1 0,-3A3,3 0 0,1 3,0Z" style="opacity: 1; stroke-width: 0px; fill: rgb(99, 110, 250); fill-opacity: 1;"/><path class="point" transform="translate(11.21,274.3)" d="M3,0A3,3 0 1,1 0,-3A3,3 0 0,1 3,0Z" style="opacity: 1; stroke-width: 0px; fill: rgb(99, 110, 250); fill-opacity: 1;"/><path class="point" transform="translate(16.36,274.3)" d="M3,0A3,3 0 1,1 0,-3A3,3 0 0,1 3,0Z" style="opacity: 1; stroke-width: 0px; fill: rgb(99, 110, 250); fill-opacity: 1;"/><path class="point" transform="translate(22.97,274.3)" d="M3,0A3,3 0 1,1 0,-3A3,3 0 0,1 3,0Z" style="opacity: 1; stroke-width: 0px; fill: rgb(99, 110, 250); fill-opacity: 1;"/><path class="point" transform="translate(18.15,274.3)" d="M3,0A3,3 0 1,1 0,-3A3,3 0 0,1 3,0Z" style="opacity: 1; stroke-width: 0px; fill: rgb(99, 110, 250); fill-opacity: 1;"/><path class="point" transform="translate(20.96,274.3)" d="M3,0A3,3 0 1,1 0,-3A3,3 0 0,1 3,0Z" style="opacity: 1; stroke-width: 0px; fill: rgb(99, 110, 250); fill-opacity: 1;"/><path class="point" transform="translate(15.73,274.3)" d="M3,0A3,3 0 1,1 0,-3A3,3 0 0,1 3,0Z" style="opacity: 1; stroke-width: 0px; fill: rgb(99, 110, 250); fill-opacity: 1;"/><path class="point" transform="translate(12.18,274.3)" d="M3,0A3,3 0 1,1 0,-3A3,3 0 0,1 3,0Z" style="opacity: 1; stroke-width: 0px; fill: rgb(99, 110, 250); fill-opacity: 1;"/><path class="point" transform="translate(20.76,274.29)" d="M3,0A3,3 0 1,1 0,-3A3,3 0 0,1 3,0Z" style="opacity: 1; stroke-width: 0px; fill: rgb(99, 110, 250); fill-opacity: 1;"/><path class="point" transform="translate(15.65,274.27)" d="M3,0A3,3 0 1,1 0,-3A3,3 0 0,1 3,0Z" style="opacity: 1; stroke-width: 0px; fill: rgb(99, 110, 250); fill-opacity: 1;"/><path class="point" transform="translate(23.91,274.25)" d="M3,0A3,3 0 1,1 0,-3A3,3 0 0,1 3,0Z" style="opacity: 1; stroke-width: 0px; fill: rgb(99, 110, 250); fill-opacity: 1;"/><path class="point" transform="translate(10.12,274.2)" d="M3,0A3,3 0 1,1 0,-3A3,3 0 0,1 3,0Z" style="opacity: 1; stroke-width: 0px; fill: rgb(99, 110, 250); fill-opacity: 1;"/><path class="point" transform="translate(13.5,274.19)" d="M3,0A3,3 0 1,1 0,-3A3,3 0 0,1 3,0Z" style="opacity: 1; stroke-width: 0px; fill: rgb(99, 110, 250); fill-opacity: 1;"/><path class="point" transform="translate(26.06,274.15)" d="M3,0A3,3 0 1,1 0,-3A3,3 0 0,1 3,0Z" style="opacity: 1; stroke-width: 0px; fill: rgb(99, 110, 250); fill-opacity: 1;"/><path class="point" transform="translate(16.32,274.12)" d="M3,0A3,3 0 1,1 0,-3A3,3 0 0,1 3,0Z" style="opacity: 1; stroke-width: 0px; fill: rgb(99, 110, 250); fill-opacity: 1;"/><path class="point" transform="translate(11.1,274.01)" d="M3,0A3,3 0 1,1 0,-3A3,3 0 0,1 3,0Z" style="opacity: 1; stroke-width: 0px; fill: rgb(99, 110, 250); fill-opacity: 1;"/><path class="point" transform="translate(15.63,273.98)" d="M3,0A3,3 0 1,1 0,-3A3,3 0 0,1 3,0Z" style="opacity: 1; stroke-width: 0px; fill: rgb(99, 110, 250); fill-opacity: 1;"/><path class="point" transform="translate(18.29,273.97)" d="M3,0A3,3 0 1,1 0,-3A3,3 0 0,1 3,0Z" style="opacity: 1; stroke-width: 0px; fill: rgb(99, 110, 250); fill-opacity: 1;"/><path class="point" transform="translate(22.33,273.94)" d="M3,0A3,3 0 1,1 0,-3A3,3 0 0,1 3,0Z" style="opacity: 1; stroke-width: 0px; fill: rgb(99, 110, 250); fill-opacity: 1;"/><path class="point" transform="translate(19.42,273.94)" d="M3,0A3,3 0 1,1 0,-3A3,3 0 0,1 3,0Z" style="opacity: 1; stroke-width: 0px; fill: rgb(99, 110, 250); fill-opacity: 1;"/><path class="point" transform="translate(17.57,273.93)" d="M3,0A3,3 0 1,1 0,-3A3,3 0 0,1 3,0Z" style="opacity: 1; stroke-width: 0px; fill: rgb(99, 110, 250); fill-opacity: 1;"/><path class="point" transform="translate(15.93,273.93)" d="M3,0A3,3 0 1,1 0,-3A3,3 0 0,1 3,0Z" style="opacity: 1; stroke-width: 0px; fill: rgb(99, 110, 250); fill-opacity: 1;"/><path class="point" transform="translate(18.46,273.79)" d="M3,0A3,3 0 1,1 0,-3A3,3 0 0,1 3,0Z" style="opacity: 1; stroke-width: 0px; fill: rgb(99, 110, 250); fill-opacity: 1;"/><path class="point" transform="translate(17.62,272.57)" d="M3,0A3,3 0 1,1 0,-3A3,3 0 0,1 3,0Z" style="opacity: 1; stroke-width: 0px; fill: rgb(99, 110, 250); fill-opacity: 1;"/><path class="point" transform="translate(19.81,272.04)" d="M3,0A3,3 0 1,1 0,-3A3,3 0 0,1 3,0Z" style="opacity: 1; stroke-width: 0px; fill: rgb(99, 110, 250); fill-opacity: 1;"/><path class="point" transform="translate(18.21,244.18)" d="M3,0A3,3 0 1,1 0,-3A3,3 0 0,1 3,0Z" style="opacity: 1; stroke-width: 0px; fill: rgb(99, 110, 250); fill-opacity: 1;"/><path class="point" transform="translate(16.59,240.94)" d="M3,0A3,3 0 1,1 0,-3A3,3 0 0,1 3,0Z" style="opacity: 1; stroke-width: 0px; fill: rgb(99, 110, 250); fill-opacity: 1;"/><path class="point" transform="translate(15.84,240.57)" d="M3,0A3,3 0 1,1 0,-3A3,3 0 0,1 3,0Z" style="opacity: 1; stroke-width: 0px; fill: rgb(99, 110, 250); fill-opacity: 1;"/><path class="point" transform="translate(20.08,238.18)" d="M3,0A3,3 0 1,1 0,-3A3,3 0 0,1 3,0Z" style="opacity: 1; stroke-width: 0px; fill: rgb(99, 110, 250); fill-opacity: 1;"/><path class="point" transform="translate(16.06,237.44)" d="M3,0A3,3 0 1,1 0,-3A3,3 0 0,1 3,0Z" style="opacity: 1; stroke-width: 0px; fill: rgb(99, 110, 250); fill-opacity: 1;"/><path class="point" transform="translate(21.55,237.28)" d="M3,0A3,3 0 1,1 0,-3A3,3 0 0,1 3,0Z" style="opacity: 1; stroke-width: 0px; fill: rgb(99, 110, 250); fill-opacity: 1;"/><path class="point" transform="translate(19.7,237.03)" d="M3,0A3,3 0 1,1 0,-3A3,3 0 0,1 3,0Z" style="opacity: 1; stroke-width: 0px; fill: rgb(99, 110, 250); fill-opacity: 1;"/><path class="point" transform="translate(16.8,235.57)" d="M3,0A3,3 0 1,1 0,-3A3,3 0 0,1 3,0Z" style="opacity: 1; stroke-width: 0px; fill: rgb(99, 110, 250); fill-opacity: 1;"/><path class="point" transform="translate(14.81,235.45)" d="M3,0A3,3 0 1,1 0,-3A3,3 0 0,1 3,0Z" style="opacity: 1; stroke-width: 0px; fill: rgb(99, 110, 250); fill-opacity: 1;"/><path class="point" transform="translate(21.26,233.89)" d="M3,0A3,3 0 1,1 0,-3A3,3 0 0,1 3,0Z" style="opacity: 1; stroke-width: 0px; fill: rgb(99, 110, 250); fill-opacity: 1;"/><path class="point" transform="translate(17.8,232.88)" d="M3,0A3,3 0 1,1 0,-3A3,3 0 0,1 3,0Z" style="opacity: 1; stroke-width: 0px; fill: rgb(99, 110, 250); fill-opacity: 1;"/><path class="point" transform="translate(22.65,231.4)" d="M3,0A3,3 0 1,1 0,-3A3,3 0 0,1 3,0Z" style="opacity: 1; stroke-width: 0px; fill: rgb(99, 110, 250); fill-opacity: 1;"/><path class="point" transform="translate(13.16,230.83)" d="M3,0A3,3 0 1,1 0,-3A3,3 0 0,1 3,0Z" style="opacity: 1; stroke-width: 0px; fill: rgb(99, 110, 250); fill-opacity: 1;"/><path class="point" transform="translate(22.05,230.22)" d="M3,0A3,3 0 1,1 0,-3A3,3 0 0,1 3,0Z" style="opacity: 1; stroke-width: 0px; fill: rgb(99, 110, 250); fill-opacity: 1;"/><path class="point" transform="translate(18.05,229.47)" d="M3,0A3,3 0 1,1 0,-3A3,3 0 0,1 3,0Z" style="opacity: 1; stroke-width: 0px; fill: rgb(99, 110, 250); fill-opacity: 1;"/><path class="point" transform="translate(16.88,229.38)" d="M3,0A3,3 0 1,1 0,-3A3,3 0 0,1 3,0Z" style="opacity: 1; stroke-width: 0px; fill: rgb(99, 110, 250); fill-opacity: 1;"/><path class="point" transform="translate(16.93,228.82)" d="M3,0A3,3 0 1,1 0,-3A3,3 0 0,1 3,0Z" style="opacity: 1; stroke-width: 0px; fill: rgb(99, 110, 250); fill-opacity: 1;"/><path class="point" transform="translate(17.9,227.92)" d="M3,0A3,3 0 1,1 0,-3A3,3 0 0,1 3,0Z" style="opacity: 1; stroke-width: 0px; fill: rgb(99, 110, 250); fill-opacity: 1;"/><path class="point" transform="translate(19.4,225.74)" d="M3,0A3,3 0 1,1 0,-3A3,3 0 0,1 3,0Z" style="opacity: 1; stroke-width: 0px; fill: rgb(99, 110, 250); fill-opacity: 1;"/><path class="point" transform="translate(18.15,222.28)" d="M3,0A3,3 0 1,1 0,-3A3,3 0 0,1 3,0Z" style="opacity: 1; stroke-width: 0px; fill: rgb(99, 110, 250); fill-opacity: 1;"/><path class="point" transform="translate(17.51,214.18)" d="M3,0A3,3 0 1,1 0,-3A3,3 0 0,1 3,0Z" style="opacity: 1; stroke-width: 0px; fill: rgb(99, 110, 250); fill-opacity: 1;"/><path class="point" transform="translate(19.02,107.32)" d="M3,0A3,3 0 1,1 0,-3A3,3 0 0,1 3,0Z" style="opacity: 1; stroke-width: 0px; fill: rgb(99, 110, 250); fill-opacity: 1;"/><path class="point" transform="translate(17.91,88.69)" d="M3,0A3,3 0 1,1 0,-3A3,3 0 0,1 3,0Z" style="opacity: 1; stroke-width: 0px; fill: rgb(99, 110, 250); fill-opacity: 1;"/></g></g><g class="trace violins" style="opacity: 1;"><path class="violin" d="M178.27,274.7Q178.35,274.09 178.41,273.78C178.47,273.47 178.54,273.16 178.64,272.86C178.74,272.55 178.86,272.23 179,271.93C179.15,271.62 179.31,271.31 179.52,271.01C179.74,270.69 180,270.38 180.3,270.09C180.62,269.77 180.99,269.46 181.39,269.17C181.83,268.84 182.33,268.54 182.86,268.24C183.44,267.92 184.08,267.62 184.73,267.32C185.42,267 186.15,266.7 186.88,266.4C187.62,266.09 188.4,265.79 189.15,265.48C189.89,265.17 190.63,264.87 191.34,264.55C192.02,264.25 192.68,263.94 193.31,263.63C193.91,263.33 194.49,263.02 195.05,262.71C195.58,262.41 196.09,262.11 196.58,261.79C197.05,261.49 197.51,261.18 197.92,260.86C198.29,260.56 198.68,260.27 198.94,259.94C199.17,259.65 199.4,259.34 199.46,259.02C199.51,258.72 199.45,258.38 199.31,258.09C199.14,257.76 198.79,257.46 198.44,257.17C198.03,256.83 197.48,256.54 196.95,256.25C196.37,255.93 195.71,255.63 195.07,255.33C194.42,255.02 193.72,254.71 193.07,254.4C192.44,254.1 191.81,253.8 191.24,253.48C190.72,253.19 190.2,252.89 189.77,252.56C189.39,252.27 189.03,251.97 188.76,251.64C188.51,251.35 188.33,251.03 188.17,250.71C188.02,250.41 187.93,250.1 187.81,249.79C187.69,249.48 187.61,249.17 187.47,248.87C187.32,248.55 187.15,248.24 186.94,247.94C186.71,247.62 186.42,247.32 186.12,247.02C185.8,246.7 185.42,246.4 185.05,246.1C184.66,245.79 184.24,245.49 183.84,245.18C183.44,244.87 183.02,244.56 182.63,244.25C182.25,243.95 181.87,243.65 181.54,243.33C181.22,243.03 180.92,242.73 180.67,242.41C180.43,242.11 180.22,241.81 180.05,241.49C179.89,241.19 179.76,240.87 179.66,240.56C179.56,240.26 179.5,239.95 179.45,239.64C179.4,239.33 179.37,239.03 179.34,238.72C179.31,238.41 179.29,238.11 179.25,237.8C179.21,237.49 179.17,237.18 179.12,236.87C179.07,236.56 179,236.26 178.94,235.95C178.87,235.64 178.8,235.34 178.73,235.03C178.66,234.72 178.59,234.41 178.53,234.1C178.47,233.79 178.42,233.49 178.37,233.18Q178.33,232.87 178.26,232.26L177.99,232.26Q177.92,232.87 177.88,233.18C177.83,233.49 177.78,233.79 177.72,234.1C177.66,234.41 177.59,234.72 177.52,235.03C177.45,235.34 177.38,235.64 177.31,235.95C177.25,236.26 177.18,236.56 177.13,236.87C177.08,237.18 177.04,237.49 177,237.8C176.96,238.11 176.94,238.41 176.91,238.72C176.88,239.03 176.85,239.33 176.8,239.64C176.75,239.95 176.69,240.26 176.59,240.56C176.49,240.87 176.36,241.19 176.2,241.49C176.03,241.81 175.82,242.11 175.58,242.41C175.33,242.73 175.03,243.03 174.71,243.33C174.38,243.65 174,243.95 173.62,244.25C173.23,244.56 172.81,244.87 172.41,245.18C172.01,245.49 171.59,245.79 171.2,246.1C170.83,246.4 170.45,246.7 170.13,247.02C169.83,247.32 169.54,247.62 169.31,247.94C169.1,248.24 168.93,248.55 168.78,248.87C168.64,249.17 168.56,249.48 168.44,249.79C168.32,250.1 168.23,250.41 168.08,250.71C167.92,251.03 167.74,251.35 167.49,251.64C167.22,251.97 166.86,252.27 166.48,252.56C166.05,252.89 165.53,253.19 165.01,253.48C164.44,253.8 163.81,254.1 163.18,254.4C162.53,254.71 161.83,255.02 161.18,255.33C160.54,255.63 159.88,255.93 159.3,256.25C158.77,256.54 158.22,256.83 157.81,257.17C157.46,257.46 157.11,257.76 156.94,258.09C156.8,258.38 156.74,258.72 156.79,259.02C156.85,259.34 157.08,259.65 157.31,259.94C157.57,260.27 157.96,260.56 158.33,260.86C158.74,261.18 159.2,261.49 159.67,261.79C160.16,262.11 160.67,262.41 161.2,262.71C161.76,263.02 162.34,263.33 162.94,263.63C163.57,263.94 164.23,264.25 164.91,264.55C165.62,264.87 166.36,265.17 167.1,265.48C167.85,265.79 168.63,266.09 169.37,266.4C170.1,266.7 170.83,267 171.52,267.32C172.17,267.62 172.81,267.92 173.39,268.24C173.92,268.54 174.42,268.84 174.86,269.17C175.26,269.46 175.63,269.77 175.95,270.09C176.25,270.38 176.51,270.69 176.73,271.01C176.94,271.31 177.1,271.62 177.25,271.93C177.39,272.23 177.51,272.55 177.61,272.86C177.71,273.16 177.78,273.47 177.84,273.78Q177.9,274.09 177.98,274.7Z" style="vector-effect: non-scaling-stroke; stroke-width: 2px; stroke: rgb(239, 85, 59); stroke-opacity: 1; fill: rgb(239, 85, 59); fill-opacity: 0.5;"/><g class="points"><path class="point" transform="translate(136.98,269.16)" d="M3,0A3,3 0 1,1 0,-3A3,3 0 0,1 3,0Z" style="opacity: 1; stroke-width: 0px; fill: rgb(239, 85, 59); fill-opacity: 1;"/><path class="point" transform="translate(132.85,265.47)" d="M3,0A3,3 0 1,1 0,-3A3,3 0 0,1 3,0Z" style="opacity: 1; stroke-width: 0px; fill: rgb(239, 85, 59); fill-opacity: 1;"/><path class="point" transform="translate(138.07,265.2)" d="M3,0A3,3 0 1,1 0,-3A3,3 0 0,1 3,0Z" style="opacity: 1; stroke-width: 0px; fill: rgb(239, 85, 59); fill-opacity: 1;"/><path class="point" transform="translate(131.95,264.86)" d="M3,0A3,3 0 1,1 0,-3A3,3 0 0,1 3,0Z" style="opacity: 1; stroke-width: 0px; fill: rgb(239, 85, 59); fill-opacity: 1;"/><path class="point" transform="translate(134.27,264.67)" d="M3,0A3,3 0 1,1 0,-3A3,3 0 0,1 3,0Z" style="opacity: 1; stroke-width: 0px; fill: rgb(239, 85, 59); fill-opacity: 1;"/><path class="point" transform="translate(137.34,264.48)" d="M3,0A3,3 0 1,1 0,-3A3,3 0 0,1 3,0Z" style="opacity: 1; stroke-width: 0px; fill: rgb(239, 85, 59); fill-opacity: 1;"/><path class="point" transform="translate(135,264.48)" d="M3,0A3,3 0 1,1 0,-3A3,3 0 0,1 3,0Z" style="opacity: 1; stroke-width: 0px; fill: rgb(239, 85, 59); fill-opacity: 1;"/><path class="point" transform="translate(136.82,263.58)" d="M3,0A3,3 0 1,1 0,-3A3,3 0 0,1 3,0Z" style="opacity: 1; stroke-width: 0px; fill: rgb(239, 85, 59); fill-opacity: 1;"/><path class="point" transform="translate(133.43,263.38)" d="M3,0A3,3 0 1,1 0,-3A3,3 0 0,1 3,0Z" style="opacity: 1; stroke-width: 0px; fill: rgb(239, 85, 59); fill-opacity: 1;"/><path class="point" transform="translate(131.61,262.63)" d="M3,0A3,3 0 1,1 0,-3A3,3 0 0,1 3,0Z" style="opacity: 1; stroke-width: 0px; fill: rgb(239, 85, 59); fill-opacity: 1;"/><path class="point" transform="translate(136.55,262.57)" d="M3,0A3,3 0 1,1 0,-3A3,3 0 0,1 3,0Z" style="opacity: 1; stroke-width: 0px; fill: rgb(239, 85, 59); fill-opacity: 1;"/><path class="point" transform="translate(133.66,262.22)" d="M3,0A3,3 0 1,1 0,-3A3,3 0 0,1 3,0Z" style="opacity: 1; stroke-width: 0px; fill: rgb(239, 85, 59); fill-opacity: 1;"/><path class="point" transform="translate(138.46,261.67)" d="M3,0A3,3 0 1,1 0,-3A3,3 0 0,1 3,0Z" style="opacity: 1; stroke-width: 0px; fill: rgb(239, 85, 59); fill-opacity: 1;"/><path class="point" transform="translate(130.43,261.43)" d="M3,0A3,3 0 1,1 0,-3A3,3 0 0,1 3,0Z" style="opacity: 1; stroke-width: 0px; fill: rgb(239, 85, 59); fill-opacity: 1;"/><path class="point" transform="translate(132.11,260.23)" d="M3,0A3,3 0 1,1 0,-3A3,3 0 0,1 3,0Z" style="opacity: 1; stroke-width: 0px; fill: rgb(239, 85, 59); fill-opacity: 1;"/><path class="point" transform="translate(140,260.15)" d="M3,0A3,3 0 1,1 0,-3A3,3 0 0,1 3,0Z" style="opacity: 1; stroke-width: 0px; fill: rgb(239, 85, 59); fill-opacity: 1;"/><path class="point" transform="translate(133.8,259.69)" d="M3,0A3,3 0 1,1 0,-3A3,3 0 0,1 3,0Z" style="opacity: 1; stroke-width: 0px; fill: rgb(239, 85, 59); fill-opacity: 1;"/><path class="point" transform="translate(130.34,259.45)" d="M3,0A3,3 0 1,1 0,-3A3,3 0 0,1 3,0Z" style="opacity: 1; stroke-width: 0px; fill: rgb(239, 85, 59); fill-opacity: 1;"/><path class="point" transform="translate(133.27,258.93)" d="M3,0A3,3 0 1,1 0,-3A3,3 0 0,1 3,0Z" style="opacity: 1; stroke-width: 0px; fill: rgb(239, 85, 59); fill-opacity: 1;"/><path class="point" transform="translate(135.06,258.91)" d="M3,0A3,3 0 1,1 0,-3A3,3 0 0,1 3,0Z" style="opacity: 1; stroke-width: 0px; fill: rgb(239, 85, 59); fill-opacity: 1;"/><path class="point" transform="translate(138.51,258.88)" d="M3,0A3,3 0 1,1 0,-3A3,3 0 0,1 3,0Z" style="opacity: 1; stroke-width: 0px; fill: rgb(239, 85, 59); fill-opacity: 1;"/><path class="point" transform="translate(136.09,258.84)" d="M3,0A3,3 0 1,1 0,-3A3,3 0 0,1 3,0Z" style="opacity: 1; stroke-width: 0px; fill: rgb(239, 85, 59); fill-opacity: 1;"/><path class="point" transform="translate(133.06,258.33)" d="M3,0A3,3 0 1,1 0,-3A3,3 0 0,1 3,0Z" style="opacity: 1; stroke-width: 0px; fill: rgb(239, 85, 59); fill-opacity: 1;"/><path class="point" transform="translate(128.05,258.32)" d="M3,0A3,3 0 1,1 0,-3A3,3 0 0,1 3,0Z" style="opacity: 1; stroke-width: 0px; fill: rgb(239, 85, 59); fill-opacity: 1;"/><path class="point" transform="translate(135.2,258.32)" d="M3,0A3,3 0 1,1 0,-3A3,3 0 0,1 3,0Z" style="opacity: 1; stroke-width: 0px; fill: rgb(239, 85, 59); fill-opacity: 1;"/><path class="point" transform="translate(133.51,258.14)" d="M3,0A3,3 0 1,1 0,-3A3,3 0 0,1 3,0Z" style="opacity: 1; stroke-width: 0px; fill: rgb(239, 85, 59); fill-opacity: 1;"/><path class="point" transform="translate(137.95,257.93)" d="M3,0A3,3 0 1,1 0,-3A3,3 0 0,1 3,0Z" style="opacity: 1; stroke-width: 0px; fill: rgb(239, 85, 59); fill-opacity: 1;"/><path class="point" transform="translate(134.65,257.61)" d="M3,0A3,3 0 1,1 0,-3A3,3 0 0,1 3,0Z" style="opacity: 1; stroke-width: 0px; fill: rgb(239, 85, 59); fill-opacity: 1;"/><path class="point" transform="translate(131.61,257.47)" d="M3,0A3,3 0 1,1 0,-3A3,3 0 0,1 3,0Z" style="opacity: 1; stroke-width: 0px; fill: rgb(239, 85, 59); fill-opacity: 1;"/><path class="point" transform="translate(130.38,256.42)" d="M3,0A3,3 0 1,1 0,-3A3,3 0 0,1 3,0Z" style="opacity: 1; stroke-width: 0px; fill: rgb(239, 85, 59); fill-opacity: 1;"/><path class="point" transform="translate(138.21,255.73)" d="M3,0A3,3 0 1,1 0,-3A3,3 0 0,1 3,0Z" style="opacity: 1; stroke-width: 0px; fill: rgb(239, 85, 59); fill-opacity: 1;"/><path class="point" transform="translate(130.71,255.71)" d="M3,0A3,3 0 1,1 0,-3A3,3 0 0,1 3,0Z" style="opacity: 1; stroke-width: 0px; fill: rgb(239, 85, 59); fill-opacity: 1;"/><path class="point" transform="translate(138.44,255.68)" d="M3,0A3,3 0 1,1 0,-3A3,3 0 0,1 3,0Z" style="opacity: 1; stroke-width: 0px; fill: rgb(239, 85, 59); fill-opacity: 1;"/><path class="point" transform="translate(136.15,254.78)" d="M3,0A3,3 0 1,1 0,-3A3,3 0 0,1 3,0Z" style="opacity: 1; stroke-width: 0px; fill: rgb(239, 85, 59); fill-opacity: 1;"/><path class="point" transform="translate(133.89,254.32)" d="M3,0A3,3 0 1,1 0,-3A3,3 0 0,1 3,0Z" style="opacity: 1; stroke-width: 0px; fill: rgb(239, 85, 59); fill-opacity: 1;"/><path class="point" transform="translate(132.61,254.3)" d="M3,0A3,3 0 1,1 0,-3A3,3 0 0,1 3,0Z" style="opacity: 1; stroke-width: 0px; fill: rgb(239, 85, 59); fill-opacity: 1;"/><path class="point" transform="translate(137.05,254.07)" d="M3,0A3,3 0 1,1 0,-3A3,3 0 0,1 3,0Z" style="opacity: 1; stroke-width: 0px; fill: rgb(239, 85, 59); fill-opacity: 1;"/><path class="point" transform="translate(134.79,253.94)" d="M3,0A3,3 0 1,1 0,-3A3,3 0 0,1 3,0Z" style="opacity: 1; stroke-width: 0px; fill: rgb(239, 85, 59); fill-opacity: 1;"/><path class="point" transform="translate(137.93,251.51)" d="M3,0A3,3 0 1,1 0,-3A3,3 0 0,1 3,0Z" style="opacity: 1; stroke-width: 0px; fill: rgb(239, 85, 59); fill-opacity: 1;"/><path class="point" transform="translate(131.85,250.97)" d="M3,0A3,3 0 1,1 0,-3A3,3 0 0,1 3,0Z" style="opacity: 1; stroke-width: 0px; fill: rgb(239, 85, 59); fill-opacity: 1;"/><path class="point" transform="translate(137.77,250.19)" d="M3,0A3,3 0 1,1 0,-3A3,3 0 0,1 3,0Z" style="opacity: 1; stroke-width: 0px; fill: rgb(239, 85, 59); fill-opacity: 1;"/><path class="point" transform="translate(134.88,249.16)" d="M3,0A3,3 0 1,1 0,-3A3,3 0 0,1 3,0Z" style="opacity: 1; stroke-width: 0px; fill: rgb(239, 85, 59); fill-opacity: 1;"/><path class="point" transform="translate(133.84,248.96)" d="M3,0A3,3 0 1,1 0,-3A3,3 0 0,1 3,0Z" style="opacity: 1; stroke-width: 0px; fill: rgb(239, 85, 59); fill-opacity: 1;"/><path class="point" transform="translate(131.55,247.87)" d="M3,0A3,3 0 1,1 0,-3A3,3 0 0,1 3,0Z" style="opacity: 1; stroke-width: 0px; fill: rgb(239, 85, 59); fill-opacity: 1;"/><path class="point" transform="translate(134.1,247.58)" d="M3,0A3,3 0 1,1 0,-3A3,3 0 0,1 3,0Z" style="opacity: 1; stroke-width: 0px; fill: rgb(239, 85, 59); fill-opacity: 1;"/><path class="point" transform="translate(137.09,247.55)" d="M3,0A3,3 0 1,1 0,-3A3,3 0 0,1 3,0Z" style="opacity: 1; stroke-width: 0px; fill: rgb(239, 85, 59); fill-opacity: 1;"/><path class="point" transform="translate(134.56,247.5)" d="M3,0A3,3 0 1,1 0,-3A3,3 0 0,1 3,0Z" style="opacity: 1; stroke-width: 0px; fill: rgb(239, 85, 59); fill-opacity: 1;"/><path class="point" transform="translate(133.2,245.18)" d="M3,0A3,3 0 1,1 0,-3A3,3 0 0,1 3,0Z" style="opacity: 1; stroke-width: 0px; fill: rgb(239, 85, 59); fill-opacity: 1;"/><path class="point" transform="translate(136.45,243.76)" d="M3,0A3,3 0 1,1 0,-3A3,3 0 0,1 3,0Z" style="opacity: 1; stroke-width: 0px; fill: rgb(239, 85, 59); fill-opacity: 1;"/><path class="point" transform="translate(133.96,237.81)" d="M3,0A3,3 0 1,1 0,-3A3,3 0 0,1 3,0Z" style="opacity: 1; stroke-width: 0px; fill: rgb(239, 85, 59); fill-opacity: 1;"/></g></g><g class="trace violins" style="opacity: 1;"><path class="violin" d="M295.58,273.99Q296.03,273.48 296.34,273.25C296.71,272.98 297.16,272.74 297.66,272.51C298.26,272.24 298.97,272 299.72,271.77C300.6,271.5 301.61,271.26 302.64,271.02C303.79,270.76 305.06,270.52 306.33,270.28C307.68,270.03 309.11,269.79 310.51,269.54C311.91,269.29 313.37,269.05 314.73,268.8C316.01,268.56 317.3,268.33 318.44,268.06C319.44,267.83 320.42,267.6 321.22,267.32C321.85,267.1 322.48,266.88 322.87,266.58C323.16,266.36 323.42,266.1 323.48,265.84C323.53,265.61 323.42,265.33 323.29,265.1C323.14,264.83 322.86,264.59 322.58,264.36C322.27,264.1 321.89,263.85 321.5,263.62C321.06,263.36 320.58,263.12 320.06,262.88C319.48,262.62 318.84,262.37 318.17,262.13C317.42,261.87 316.61,261.63 315.78,261.39C314.89,261.13 313.93,260.89 312.99,260.65C312.03,260.4 311.02,260.16 310.07,259.91C309.15,259.67 308.22,259.43 307.38,259.17C306.61,258.93 305.86,258.7 305.21,258.43C304.65,258.2 304.13,257.96 303.7,257.69C303.34,257.46 303.03,257.21 302.77,256.95C302.54,256.72 302.38,256.46 302.21,256.21C302.05,255.97 301.93,255.71 301.76,255.47C301.59,255.22 301.41,254.97 301.19,254.73C300.96,254.47 300.68,254.23 300.4,253.99C300.09,253.73 299.75,253.49 299.41,253.24C299.06,252.99 298.68,252.75 298.33,252.5C297.98,252.26 297.62,252.01 297.3,251.76C296.99,251.52 296.69,251.28 296.43,251.02C296.19,250.78 295.97,250.54 295.79,250.28C295.62,250.04 295.47,249.79 295.36,249.54C295.25,249.3 295.17,249.05 295.11,248.8C295.05,248.56 295.01,248.31 294.98,248.06C294.95,247.81 294.94,247.57 294.92,247.32C294.91,247.07 294.9,246.83 294.89,246.58C294.88,246.33 294.88,246.09 294.88,245.84C294.88,245.59 294.88,245.35 294.88,245.1C294.88,244.85 294.88,244.6 294.88,244.35C294.88,244.1 294.88,243.86 294.88,243.61C294.88,243.36 294.88,243.12 294.88,242.87C294.88,242.62 294.88,242.38 294.88,242.13C294.88,241.88 294.88,241.64 294.88,241.39C294.88,241.14 294.88,240.9 294.88,240.65C294.88,240.4 294.88,240.16 294.88,239.91C294.88,239.66 294.88,239.42 294.88,239.17C294.88,238.92 294.88,238.68 294.88,238.43C294.88,238.18 294.88,237.94 294.88,237.69C294.88,237.44 294.88,237.2 294.88,236.95C294.88,236.7 294.88,236.46 294.88,236.21C294.88,235.96 294.88,235.71 294.88,235.46C294.88,235.21 294.88,234.97 294.88,234.72C294.88,234.47 294.88,234.23 294.88,233.98C294.88,233.73 294.88,233.49 294.88,233.24C294.88,232.99 294.88,232.75 294.88,232.5C294.88,232.25 294.88,232.01 294.88,231.76C294.88,231.51 294.88,231.27 294.88,231.02C294.88,230.77 294.88,230.53 294.88,230.28C294.88,230.03 294.88,229.79 294.88,229.54C294.88,229.29 294.88,229.05 294.88,228.8C294.88,228.55 294.89,228.31 294.9,228.06C294.91,227.81 294.91,227.57 294.93,227.32C294.95,227.07 294.97,226.83 295,226.58C295.03,226.33 295.06,226.08 295.11,225.83C295.16,225.58 295.21,225.34 295.28,225.09C295.35,224.84 295.43,224.6 295.51,224.35C295.59,224.1 295.67,223.86 295.75,223.61C295.83,223.36 295.91,223.12 295.97,222.87C296.03,222.63 296.07,222.38 296.09,222.13C296.11,221.88 296.11,221.64 296.09,221.39C296.07,221.14 296.01,220.9 295.96,220.65C295.9,220.4 295.83,220.16 295.76,219.91C295.69,219.66 295.61,219.42 295.54,219.17C295.48,218.92 295.41,218.68 295.37,218.43C295.33,218.18 295.3,217.94 295.29,217.69C295.28,217.44 295.31,217.19 295.34,216.94C295.37,216.69 295.42,216.45 295.48,216.2C295.54,215.95 295.63,215.71 295.7,215.46C295.77,215.21 295.85,214.97 295.91,214.72C295.97,214.47 296.04,214.23 296.07,213.98C296.1,213.73 296.12,213.49 296.11,213.24C296.1,212.99 296.07,212.75 296.03,212.5C295.99,212.25 295.91,212.01 295.85,211.76C295.79,211.51 295.72,211.27 295.66,211.02C295.6,210.77 295.54,210.53 295.51,210.28C295.48,210.03 295.46,209.79 295.46,209.54C295.46,209.29 295.49,209.05 295.53,208.8C295.57,208.55 295.64,208.3 295.7,208.05C295.76,207.8 295.84,207.56 295.9,207.31C295.96,207.06 296.01,206.82 296.05,206.57C296.08,206.32 296.11,206.08 296.11,205.83C296.11,205.58 296.08,205.34 296.04,205.09C296,204.84 295.93,204.6 295.86,204.35C295.79,204.1 295.7,203.86 295.62,203.61C295.54,203.36 295.45,203.12 295.38,202.87C295.31,202.62 295.24,202.38 295.18,202.13Q295.12,201.88 295.04,201.39L294.71,201.39Q294.63,201.88 294.57,202.13C294.51,202.38 294.44,202.62 294.37,202.87C294.3,203.12 294.21,203.36 294.13,203.61C294.05,203.86 293.96,204.1 293.89,204.35C293.82,204.6 293.75,204.84 293.71,205.09C293.67,205.34 293.64,205.58 293.64,205.83C293.64,206.08 293.67,206.32 293.7,206.57C293.74,206.82 293.79,207.06 293.85,207.31C293.91,207.56 293.99,207.8 294.05,208.05C294.11,208.3 294.18,208.55 294.22,208.8C294.26,209.05 294.29,209.29 294.29,209.54C294.29,209.79 294.27,210.03 294.24,210.28C294.21,210.53 294.15,210.77 294.09,211.02C294.03,211.27 293.96,211.51 293.9,211.76C293.84,212.01 293.76,212.25 293.72,212.5C293.68,212.75 293.65,212.99 293.64,213.24C293.63,213.49 293.65,213.73 293.68,213.98C293.71,214.23 293.78,214.47 293.84,214.72C293.9,214.97 293.98,215.21 294.05,215.46C294.12,215.71 294.21,215.95 294.27,216.2C294.33,216.45 294.38,216.69 294.41,216.94C294.44,217.19 294.47,217.44 294.46,217.69C294.45,217.94 294.42,218.18 294.38,218.43C294.34,218.68 294.27,218.92 294.21,219.17C294.14,219.42 294.06,219.66 293.99,219.91C293.92,220.16 293.85,220.4 293.79,220.65C293.74,220.9 293.68,221.14 293.66,221.39C293.64,221.64 293.64,221.88 293.66,222.13C293.68,222.38 293.72,222.63 293.78,222.87C293.84,223.12 293.92,223.36 294,223.61C294.08,223.86 294.16,224.1 294.24,224.35C294.32,224.6 294.4,224.84 294.47,225.09C294.54,225.34 294.59,225.58 294.64,225.83C294.69,226.08 294.72,226.33 294.75,226.58C294.78,226.83 294.8,227.07 294.82,227.32C294.84,227.57 294.84,227.81 294.85,228.06C294.86,228.31 294.87,228.55 294.87,228.8C294.87,229.05 294.87,229.29 294.87,229.54C294.87,229.79 294.87,230.03 294.87,230.28C294.87,230.53 294.87,230.77 294.87,231.02C294.87,231.27 294.87,231.51 294.87,231.76C294.87,232.01 294.87,232.25 294.87,232.5C294.87,232.75 294.87,232.99 294.87,233.24C294.87,233.49 294.87,233.73 294.87,233.98C294.87,234.23 294.87,234.47 294.87,234.72C294.87,234.97 294.87,235.21 294.87,235.46C294.87,235.71 294.87,235.96 294.87,236.21C294.87,236.46 294.87,236.7 294.87,236.95C294.87,237.2 294.87,237.44 294.87,237.69C294.87,237.94 294.87,238.18 294.87,238.43C294.87,238.68 294.87,238.92 294.87,239.17C294.87,239.42 294.87,239.66 294.87,239.91C294.87,240.16 294.87,240.4 294.87,240.65C294.87,240.9 294.87,241.14 294.87,241.39C294.87,241.64 294.87,241.88 294.87,242.13C294.87,242.38 294.87,242.62 294.87,242.87C294.87,243.12 294.87,243.36 294.87,243.61C294.87,243.86 294.87,244.1 294.87,244.35C294.87,244.6 294.87,244.85 294.87,245.1C294.87,245.35 294.87,245.59 294.87,245.84C294.87,246.09 294.87,246.33 294.86,246.58C294.85,246.83 294.84,247.07 294.83,247.32C294.81,247.57 294.8,247.81 294.77,248.06C294.74,248.31 294.7,248.56 294.64,248.8C294.58,249.05 294.5,249.3 294.39,249.54C294.28,249.79 294.13,250.04 293.96,250.28C293.78,250.54 293.56,250.78 293.32,251.02C293.06,251.28 292.76,251.52 292.45,251.76C292.13,252.01 291.77,252.26 291.42,252.5C291.07,252.75 290.69,252.99 290.34,253.24C290,253.49 289.66,253.73 289.35,253.99C289.07,254.23 288.79,254.47 288.56,254.73C288.34,254.97 288.16,255.22 287.99,255.47C287.82,255.71 287.7,255.97 287.54,256.21C287.37,256.46 287.21,256.72 286.98,256.95C286.72,257.21 286.41,257.46 286.05,257.69C285.62,257.96 285.1,258.2 284.54,258.43C283.89,258.7 283.14,258.93 282.37,259.17C281.53,259.43 280.6,259.67 279.68,259.91C278.73,260.16 277.72,260.4 276.76,260.65C275.82,260.89 274.86,261.13 273.97,261.39C273.14,261.63 272.33,261.87 271.58,262.13C270.91,262.37 270.27,262.62 269.69,262.88C269.17,263.12 268.69,263.36 268.25,263.62C267.86,263.85 267.48,264.1 267.17,264.36C266.89,264.59 266.61,264.83 266.46,265.1C266.33,265.33 266.22,265.61 266.27,265.84C266.33,266.1 266.59,266.36 266.88,266.58C267.27,266.88 267.9,267.1 268.53,267.32C269.33,267.6 270.31,267.83 271.31,268.06C272.45,268.33 273.74,268.56 275.02,268.8C276.38,269.05 277.84,269.29 279.24,269.54C280.64,269.79 282.07,270.03 283.42,270.28C284.69,270.52 285.96,270.76 287.11,271.02C288.14,271.26 289.15,271.5 290.03,271.77C290.78,272 291.49,272.24 292.09,272.51C292.59,272.74 293.04,272.98 293.41,273.25Q293.72,273.48 294.17,273.99Z" style="vector-effect: non-scaling-stroke; stroke-width: 2px; stroke: rgb(0, 204, 150); stroke-opacity: 1; fill: rgb(0, 204, 150); fill-opacity: 0.5;"/><g class="points"><path class="point" transform="translate(255.36,269.53)" d="M3,0A3,3 0 1,1 0,-3A3,3 0 0,1 3,0Z" style="opacity: 1; stroke-width: 0px; fill: rgb(0, 204, 150); fill-opacity: 1;"/><path class="point" transform="translate(247.59,269.35)" d="M3,0A3,3 0 1,1 0,-3A3,3 0 0,1 3,0Z" style="opacity: 1; stroke-width: 0px; fill: rgb(0, 204, 150); fill-opacity: 1;"/><path class="point" transform="translate(257.63,269.27)" d="M3,0A3,3 0 1,1 0,-3A3,3 0 0,1 3,0Z" style="opacity: 1; stroke-width: 0px; fill: rgb(0, 204, 150); fill-opacity: 1;"/><path class="point" transform="translate(245.77,268.19)" d="M3,0A3,3 0 1,1 0,-3A3,3 0 0,1 3,0Z" style="opacity: 1; stroke-width: 0px; fill: rgb(0, 204, 150); fill-opacity: 1;"/><path class="point" transform="translate(250.12,268.1)" d="M3,0A3,3 0 1,1 0,-3A3,3 0 0,1 3,0Z" style="opacity: 1; stroke-width: 0px; fill: rgb(0, 204, 150); fill-opacity: 1;"/><path class="point" transform="translate(255.94,268.04)" d="M3,0A3,3 0 1,1 0,-3A3,3 0 0,1 3,0Z" style="opacity: 1; stroke-width: 0px; fill: rgb(0, 204, 150); fill-opacity: 1;"/><path class="point" transform="translate(251.68,267.91)" d="M3,0A3,3 0 1,1 0,-3A3,3 0 0,1 3,0Z" style="opacity: 1; stroke-width: 0px; fill: rgb(0, 204, 150); fill-opacity: 1;"/><path class="point" transform="translate(254.21,267.86)" d="M3,0A3,3 0 1,1 0,-3A3,3 0 0,1 3,0Z" style="opacity: 1; stroke-width: 0px; fill: rgb(0, 204, 150); fill-opacity: 1;"/><path class="point" transform="translate(249.27,267.64)" d="M3,0A3,3 0 1,1 0,-3A3,3 0 0,1 3,0Z" style="opacity: 1; stroke-width: 0px; fill: rgb(0, 204, 150); fill-opacity: 1;"/><path class="point" transform="translate(245.7,267.5)" d="M3,0A3,3 0 1,1 0,-3A3,3 0 0,1 3,0Z" style="opacity: 1; stroke-width: 0px; fill: rgb(0, 204, 150); fill-opacity: 1;"/><path class="point" transform="translate(254.19,267.3)" d="M3,0A3,3 0 1,1 0,-3A3,3 0 0,1 3,0Z" style="opacity: 1; stroke-width: 0px; fill: rgb(0, 204, 150); fill-opacity: 1;"/><path class="point" transform="translate(249.31,267.18)" d="M3,0A3,3 0 1,1 0,-3A3,3 0 0,1 3,0Z" style="opacity: 1; stroke-width: 0px; fill: rgb(0, 204, 150); fill-opacity: 1;"/><path class="point" transform="translate(257.15,267.13)" d="M3,0A3,3 0 1,1 0,-3A3,3 0 0,1 3,0Z" style="opacity: 1; stroke-width: 0px; fill: rgb(0, 204, 150); fill-opacity: 1;"/><path class="point" transform="translate(243.62,266.41)" d="M3,0A3,3 0 1,1 0,-3A3,3 0 0,1 3,0Z" style="opacity: 1; stroke-width: 0px; fill: rgb(0, 204, 150); fill-opacity: 1;"/><path class="point" transform="translate(247.19,266.35)" d="M3,0A3,3 0 1,1 0,-3A3,3 0 0,1 3,0Z" style="opacity: 1; stroke-width: 0px; fill: rgb(0, 204, 150); fill-opacity: 1;"/><path class="point" transform="translate(259.44,266.2)" d="M3,0A3,3 0 1,1 0,-3A3,3 0 0,1 3,0Z" style="opacity: 1; stroke-width: 0px; fill: rgb(0, 204, 150); fill-opacity: 1;"/><path class="point" transform="translate(250.18,265.96)" d="M3,0A3,3 0 1,1 0,-3A3,3 0 0,1 3,0Z" style="opacity: 1; stroke-width: 0px; fill: rgb(0, 204, 150); fill-opacity: 1;"/><path class="point" transform="translate(246.02,265.95)" d="M3,0A3,3 0 1,1 0,-3A3,3 0 0,1 3,0Z" style="opacity: 1; stroke-width: 0px; fill: rgb(0, 204, 150); fill-opacity: 1;"/><path class="point" transform="translate(249.39,265.91)" d="M3,0A3,3 0 1,1 0,-3A3,3 0 0,1 3,0Z" style="opacity: 1; stroke-width: 0px; fill: rgb(0, 204, 150); fill-opacity: 1;"/><path class="point" transform="translate(251.81,265.63)" d="M3,0A3,3 0 1,1 0,-3A3,3 0 0,1 3,0Z" style="opacity: 1; stroke-width: 0px; fill: rgb(0, 204, 150); fill-opacity: 1;"/><path class="point" transform="translate(255.25,265.52)" d="M3,0A3,3 0 1,1 0,-3A3,3 0 0,1 3,0Z" style="opacity: 1; stroke-width: 0px; fill: rgb(0, 204, 150); fill-opacity: 1;"/><path class="point" transform="translate(252.73,264.68)" d="M3,0A3,3 0 1,1 0,-3A3,3 0 0,1 3,0Z" style="opacity: 1; stroke-width: 0px; fill: rgb(0, 204, 150); fill-opacity: 1;"/><path class="point" transform="translate(250.04,264.48)" d="M3,0A3,3 0 1,1 0,-3A3,3 0 0,1 3,0Z" style="opacity: 1; stroke-width: 0px; fill: rgb(0, 204, 150); fill-opacity: 1;"/><path class="point" transform="translate(246.4,264.32)" d="M3,0A3,3 0 1,1 0,-3A3,3 0 0,1 3,0Z" style="opacity: 1; stroke-width: 0px; fill: rgb(0, 204, 150); fill-opacity: 1;"/><path class="point" transform="translate(251.95,264.08)" d="M3,0A3,3 0 1,1 0,-3A3,3 0 0,1 3,0Z" style="opacity: 1; stroke-width: 0px; fill: rgb(0, 204, 150); fill-opacity: 1;"/><path class="point" transform="translate(249.96,263.8)" d="M3,0A3,3 0 1,1 0,-3A3,3 0 0,1 3,0Z" style="opacity: 1; stroke-width: 0px; fill: rgb(0, 204, 150); fill-opacity: 1;"/><path class="point" transform="translate(255.44,263.23)" d="M3,0A3,3 0 1,1 0,-3A3,3 0 0,1 3,0Z" style="opacity: 1; stroke-width: 0px; fill: rgb(0, 204, 150); fill-opacity: 1;"/><path class="point" transform="translate(251.37,263.21)" d="M3,0A3,3 0 1,1 0,-3A3,3 0 0,1 3,0Z" style="opacity: 1; stroke-width: 0px; fill: rgb(0, 204, 150); fill-opacity: 1;"/><path class="point" transform="translate(247.6,263.03)" d="M3,0A3,3 0 1,1 0,-3A3,3 0 0,1 3,0Z" style="opacity: 1; stroke-width: 0px; fill: rgb(0, 204, 150); fill-opacity: 1;"/><path class="point" transform="translate(245.48,262.84)" d="M3,0A3,3 0 1,1 0,-3A3,3 0 0,1 3,0Z" style="opacity: 1; stroke-width: 0px; fill: rgb(0, 204, 150); fill-opacity: 1;"/><path class="point" transform="translate(256.02,262.81)" d="M3,0A3,3 0 1,1 0,-3A3,3 0 0,1 3,0Z" style="opacity: 1; stroke-width: 0px; fill: rgb(0, 204, 150); fill-opacity: 1;"/><path class="point" transform="translate(244.97,262.39)" d="M3,0A3,3 0 1,1 0,-3A3,3 0 0,1 3,0Z" style="opacity: 1; stroke-width: 0px; fill: rgb(0, 204, 150); fill-opacity: 1;"/><path class="point" transform="translate(256.4,261.68)" d="M3,0A3,3 0 1,1 0,-3A3,3 0 0,1 3,0Z" style="opacity: 1; stroke-width: 0px; fill: rgb(0, 204, 150); fill-opacity: 1;"/><path class="point" transform="translate(253.65,261.46)" d="M3,0A3,3 0 1,1 0,-3A3,3 0 0,1 3,0Z" style="opacity: 1; stroke-width: 0px; fill: rgb(0, 204, 150); fill-opacity: 1;"/><path class="point" transform="translate(249.77,261.44)" d="M3,0A3,3 0 1,1 0,-3A3,3 0 0,1 3,0Z" style="opacity: 1; stroke-width: 0px; fill: rgb(0, 204, 150); fill-opacity: 1;"/><path class="point" transform="translate(248.54,261.33)" d="M3,0A3,3 0 1,1 0,-3A3,3 0 0,1 3,0Z" style="opacity: 1; stroke-width: 0px; fill: rgb(0, 204, 150); fill-opacity: 1;"/><path class="point" transform="translate(254.39,261.33)" d="M3,0A3,3 0 1,1 0,-3A3,3 0 0,1 3,0Z" style="opacity: 1; stroke-width: 0px; fill: rgb(0, 204, 150); fill-opacity: 1;"/><path class="point" transform="translate(251.45,260.93)" d="M3,0A3,3 0 1,1 0,-3A3,3 0 0,1 3,0Z" style="opacity: 1; stroke-width: 0px; fill: rgb(0, 204, 150); fill-opacity: 1;"/><path class="point" transform="translate(255.27,260.87)" d="M3,0A3,3 0 1,1 0,-3A3,3 0 0,1 3,0Z" style="opacity: 1; stroke-width: 0px; fill: rgb(0, 204, 150); fill-opacity: 1;"/><path class="point" transform="translate(248.21,260.5)" d="M3,0A3,3 0 1,1 0,-3A3,3 0 0,1 3,0Z" style="opacity: 1; stroke-width: 0px; fill: rgb(0, 204, 150); fill-opacity: 1;"/><path class="point" transform="translate(254.65,259.02)" d="M3,0A3,3 0 1,1 0,-3A3,3 0 0,1 3,0Z" style="opacity: 1; stroke-width: 0px; fill: rgb(0, 204, 150); fill-opacity: 1;"/><path class="point" transform="translate(251.63,257.96)" d="M3,0A3,3 0 1,1 0,-3A3,3 0 0,1 3,0Z" style="opacity: 1; stroke-width: 0px; fill: rgb(0, 204, 150); fill-opacity: 1;"/><path class="point" transform="translate(251.26,256.21)" d="M3,0A3,3 0 1,1 0,-3A3,3 0 0,1 3,0Z" style="opacity: 1; stroke-width: 0px; fill: rgb(0, 204, 150); fill-opacity: 1;"/><path class="point" transform="translate(250.36,255.94)" d="M3,0A3,3 0 1,1 0,-3A3,3 0 0,1 3,0Z" style="opacity: 1; stroke-width: 0px; fill: rgb(0, 204, 150); fill-opacity: 1;"/><path class="point" transform="translate(251.37,255.07)" d="M3,0A3,3 0 1,1 0,-3A3,3 0 0,1 3,0Z" style="opacity: 1; stroke-width: 0px; fill: rgb(0, 204, 150); fill-opacity: 1;"/><path class="point" transform="translate(252.95,254.11)" d="M3,0A3,3 0 1,1 0,-3A3,3 0 0,1 3,0Z" style="opacity: 1; stroke-width: 0px; fill: rgb(0, 204, 150); fill-opacity: 1;"/><path class="point" transform="translate(251.63,253.55)" d="M3,0A3,3 0 1,1 0,-3A3,3 0 0,1 3,0Z" style="opacity: 1; stroke-width: 0px; fill: rgb(0, 204, 150); fill-opacity: 1;"/><path class="point" transform="translate(250.94,221.78)" d="M3,0A3,3 0 1,1 0,-3A3,3 0 0,1 3,0Z" style="opacity: 1; stroke-width: 0px; fill: rgb(0, 204, 150); fill-opacity: 1;"/><path class="point" transform="translate(252.57,213.39)" d="M3,0A3,3 0 1,1 0,-3A3,3 0 0,1 3,0Z" style="opacity: 1; stroke-width: 0px; fill: rgb(0, 204, 150); fill-opacity: 1;"/><path class="point" transform="translate(251.36,205.84)" d="M3,0A3,3 0 1,1 0,-3A3,3 0 0,1 3,0Z" style="opacity: 1; stroke-width: 0px; fill: rgb(0, 204, 150); fill-opacity: 1;"/></g></g><g class="trace violins" style="opacity: 1;"><path class="violin" d="M411.73,254.4Q411.79,252.54 411.84,251.61C411.89,250.68 411.95,249.75 412.03,248.82C412.11,247.89 412.21,246.96 412.33,246.03C412.45,245.1 412.59,244.16 412.76,243.23C412.93,242.3 413.12,241.37 413.33,240.44C413.54,239.51 413.77,238.58 414.02,237.65C414.27,236.72 414.55,235.79 414.82,234.86C415.09,233.93 415.37,233 415.64,232.07C415.91,231.14 416.18,230.21 416.42,229.28C416.66,228.35 416.9,227.42 417.09,226.49C417.28,225.56 417.45,224.63 417.58,223.7C417.71,222.77 417.8,221.84 417.87,220.91C417.94,219.98 417.97,219.05 417.99,218.12C418.01,217.19 418,216.26 417.99,215.33C417.98,214.4 417.96,213.47 417.94,212.54C417.92,211.61 417.9,210.68 417.88,209.75C417.86,208.82 417.85,207.89 417.83,206.96C417.81,206.03 417.79,205.1 417.76,204.17C417.73,203.24 417.69,202.31 417.63,201.38C417.57,200.45 417.49,199.52 417.39,198.59C417.29,197.66 417.16,196.73 417.03,195.8C416.89,194.87 416.74,193.94 416.58,193.01C416.42,192.08 416.24,191.15 416.07,190.22C415.9,189.29 415.72,188.36 415.55,187.43C415.38,186.5 415.22,185.57 415.07,184.64C414.92,183.71 414.77,182.78 414.64,181.85C414.51,180.92 414.39,179.99 414.27,179.06C414.15,178.13 414.05,177.19 413.94,176.26C413.83,175.33 413.72,174.4 413.61,173.47C413.5,172.54 413.39,171.61 413.27,170.68C413.15,169.75 413.03,168.82 412.91,167.89C412.79,166.96 412.67,166.03 412.56,165.1C412.45,164.17 412.35,163.24 412.26,162.31C412.17,161.38 412.08,160.45 412.01,159.52C411.94,158.59 411.89,157.66 411.84,156.73Q411.8,155.8 411.74,153.94L411.51,153.94Q411.45,155.8 411.41,156.73C411.36,157.66 411.31,158.59 411.24,159.52C411.17,160.45 411.08,161.38 410.99,162.31C410.9,163.24 410.8,164.17 410.69,165.1C410.58,166.03 410.46,166.96 410.34,167.89C410.22,168.82 410.1,169.75 409.98,170.68C409.86,171.61 409.75,172.54 409.64,173.47C409.53,174.4 409.42,175.33 409.31,176.26C409.2,177.19 409.1,178.13 408.98,179.06C408.86,179.99 408.74,180.92 408.61,181.85C408.48,182.78 408.33,183.71 408.18,184.64C408.03,185.57 407.87,186.5 407.7,187.43C407.53,188.36 407.35,189.29 407.18,190.22C407.01,191.15 406.83,192.08 406.67,193.01C406.51,193.94 406.36,194.87 406.22,195.8C406.09,196.73 405.96,197.66 405.86,198.59C405.76,199.52 405.68,200.45 405.62,201.38C405.56,202.31 405.52,203.24 405.49,204.17C405.46,205.1 405.44,206.03 405.42,206.96C405.4,207.89 405.39,208.82 405.37,209.75C405.35,210.68 405.33,211.61 405.31,212.54C405.29,213.47 405.27,214.4 405.26,215.33C405.25,216.26 405.24,217.19 405.26,218.12C405.28,219.05 405.31,219.98 405.38,220.91C405.45,221.84 405.54,222.77 405.67,223.7C405.8,224.63 405.97,225.56 406.16,226.49C406.35,227.42 406.59,228.35 406.83,229.28C407.07,230.21 407.34,231.14 407.61,232.07C407.88,233 408.16,233.93 408.43,234.86C408.7,235.79 408.98,236.72 409.23,237.65C409.48,238.58 409.71,239.51 409.92,240.44C410.13,241.37 410.32,242.3 410.49,243.23C410.66,244.16 410.8,245.1 410.92,246.03C411.04,246.96 411.14,247.89 411.22,248.82C411.3,249.75 411.36,250.68 411.41,251.61Q411.46,252.54 411.52,254.4Z" style="vector-effect: non-scaling-stroke; stroke-width: 2px; stroke: rgb(171, 99, 250); stroke-opacity: 1; fill: rgb(171, 99, 250); fill-opacity: 0.5;"/><g class="points"><path class="point" transform="translate(371.35,237.36)" d="M3,0A3,3 0 1,1 0,-3A3,3 0 0,1 3,0Z" style="opacity: 1; stroke-width: 0px; fill: rgb(171, 99, 250); fill-opacity: 1;"/><path class="point" transform="translate(365.31,234.91)" d="M3,0A3,3 0 1,1 0,-3A3,3 0 0,1 3,0Z" style="opacity: 1; stroke-width: 0px; fill: rgb(171, 99, 250); fill-opacity: 1;"/><path class="point" transform="translate(373.07,234.77)" d="M3,0A3,3 0 1,1 0,-3A3,3 0 0,1 3,0Z" style="opacity: 1; stroke-width: 0px; fill: rgb(171, 99, 250); fill-opacity: 1;"/><path class="point" transform="translate(363.69,229.77)" d="M3,0A3,3 0 1,1 0,-3A3,3 0 0,1 3,0Z" style="opacity: 1; stroke-width: 0px; fill: rgb(171, 99, 250); fill-opacity: 1;"/><path class="point" transform="translate(367.18,227.74)" d="M3,0A3,3 0 1,1 0,-3A3,3 0 0,1 3,0Z" style="opacity: 1; stroke-width: 0px; fill: rgb(171, 99, 250); fill-opacity: 1;"/><path class="point" transform="translate(372.05,227.53)" d="M3,0A3,3 0 1,1 0,-3A3,3 0 0,1 3,0Z" style="opacity: 1; stroke-width: 0px; fill: rgb(171, 99, 250); fill-opacity: 1;"/><path class="point" transform="translate(368.48,226.76)" d="M3,0A3,3 0 1,1 0,-3A3,3 0 0,1 3,0Z" style="opacity: 1; stroke-width: 0px; fill: rgb(171, 99, 250); fill-opacity: 1;"/><path class="point" transform="translate(370.54,226.13)" d="M3,0A3,3 0 1,1 0,-3A3,3 0 0,1 3,0Z" style="opacity: 1; stroke-width: 0px; fill: rgb(171, 99, 250); fill-opacity: 1;"/><path class="point" transform="translate(366.42,225.91)" d="M3,0A3,3 0 1,1 0,-3A3,3 0 0,1 3,0Z" style="opacity: 1; stroke-width: 0px; fill: rgb(171, 99, 250); fill-opacity: 1;"/><path class="point" transform="translate(362.86,225.69)" d="M3,0A3,3 0 1,1 0,-3A3,3 0 0,1 3,0Z" style="opacity: 1; stroke-width: 0px; fill: rgb(171, 99, 250); fill-opacity: 1;"/><path class="point" transform="translate(370.8,224.78)" d="M3,0A3,3 0 1,1 0,-3A3,3 0 0,1 3,0Z" style="opacity: 1; stroke-width: 0px; fill: rgb(171, 99, 250); fill-opacity: 1;"/><path class="point" transform="translate(366.32,223.14)" d="M3,0A3,3 0 1,1 0,-3A3,3 0 0,1 3,0Z" style="opacity: 1; stroke-width: 0px; fill: rgb(171, 99, 250); fill-opacity: 1;"/><path class="point" transform="translate(373.38,221.92)" d="M3,0A3,3 0 1,1 0,-3A3,3 0 0,1 3,0Z" style="opacity: 1; stroke-width: 0px; fill: rgb(171, 99, 250); fill-opacity: 1;"/><path class="point" transform="translate(361.98,220.07)" d="M3,0A3,3 0 1,1 0,-3A3,3 0 0,1 3,0Z" style="opacity: 1; stroke-width: 0px; fill: rgb(171, 99, 250); fill-opacity: 1;"/><path class="point" transform="translate(364.77,219.83)" d="M3,0A3,3 0 1,1 0,-3A3,3 0 0,1 3,0Z" style="opacity: 1; stroke-width: 0px; fill: rgb(171, 99, 250); fill-opacity: 1;"/><path class="point" transform="translate(374.73,219.19)" d="M3,0A3,3 0 1,1 0,-3A3,3 0 0,1 3,0Z" style="opacity: 1; stroke-width: 0px; fill: rgb(171, 99, 250); fill-opacity: 1;"/><path class="point" transform="translate(366.88,217.22)" d="M3,0A3,3 0 1,1 0,-3A3,3 0 0,1 3,0Z" style="opacity: 1; stroke-width: 0px; fill: rgb(171, 99, 250); fill-opacity: 1;"/><path class="point" transform="translate(362.04,216.78)" d="M3,0A3,3 0 1,1 0,-3A3,3 0 0,1 3,0Z" style="opacity: 1; stroke-width: 0px; fill: rgb(171, 99, 250); fill-opacity: 1;"/><path class="point" transform="translate(366.31,215.35)" d="M3,0A3,3 0 1,1 0,-3A3,3 0 0,1 3,0Z" style="opacity: 1; stroke-width: 0px; fill: rgb(171, 99, 250); fill-opacity: 1;"/><path class="point" transform="translate(368.57,214.87)" d="M3,0A3,3 0 1,1 0,-3A3,3 0 0,1 3,0Z" style="opacity: 1; stroke-width: 0px; fill: rgb(171, 99, 250); fill-opacity: 1;"/><path class="point" transform="translate(371.47,213.83)" d="M3,0A3,3 0 1,1 0,-3A3,3 0 0,1 3,0Z" style="opacity: 1; stroke-width: 0px; fill: rgb(171, 99, 250); fill-opacity: 1;"/><path class="point" transform="translate(369.43,213.72)" d="M3,0A3,3 0 1,1 0,-3A3,3 0 0,1 3,0Z" style="opacity: 1; stroke-width: 0px; fill: rgb(171, 99, 250); fill-opacity: 1;"/><path class="point" transform="translate(366.9,213.58)" d="M3,0A3,3 0 1,1 0,-3A3,3 0 0,1 3,0Z" style="opacity: 1; stroke-width: 0px; fill: rgb(171, 99, 250); fill-opacity: 1;"/><path class="point" transform="translate(363.32,210.57)" d="M3,0A3,3 0 1,1 0,-3A3,3 0 0,1 3,0Z" style="opacity: 1; stroke-width: 0px; fill: rgb(171, 99, 250); fill-opacity: 1;"/><path class="point" transform="translate(368.7,209.9)" d="M3,0A3,3 0 1,1 0,-3A3,3 0 0,1 3,0Z" style="opacity: 1; stroke-width: 0px; fill: rgb(171, 99, 250); fill-opacity: 1;"/><path class="point" transform="translate(366.87,205.72)" d="M3,0A3,3 0 1,1 0,-3A3,3 0 0,1 3,0Z" style="opacity: 1; stroke-width: 0px; fill: rgb(171, 99, 250); fill-opacity: 1;"/><path class="point" transform="translate(371.66,204.91)" d="M3,0A3,3 0 1,1 0,-3A3,3 0 0,1 3,0Z" style="opacity: 1; stroke-width: 0px; fill: rgb(171, 99, 250); fill-opacity: 1;"/><path class="point" transform="translate(368.16,204.57)" d="M3,0A3,3 0 1,1 0,-3A3,3 0 0,1 3,0Z" style="opacity: 1; stroke-width: 0px; fill: rgb(171, 99, 250); fill-opacity: 1;"/><path class="point" transform="translate(364.08,203.22)" d="M3,0A3,3 0 1,1 0,-3A3,3 0 0,1 3,0Z" style="opacity: 1; stroke-width: 0px; fill: rgb(171, 99, 250); fill-opacity: 1;"/><path class="point" transform="translate(362.17,202.57)" d="M3,0A3,3 0 1,1 0,-3A3,3 0 0,1 3,0Z" style="opacity: 1; stroke-width: 0px; fill: rgb(171, 99, 250); fill-opacity: 1;"/><path class="point" transform="translate(373.55,201.16)" d="M3,0A3,3 0 1,1 0,-3A3,3 0 0,1 3,0Z" style="opacity: 1; stroke-width: 0px; fill: rgb(171, 99, 250); fill-opacity: 1;"/><path class="point" transform="translate(361.39,201.09)" d="M3,0A3,3 0 1,1 0,-3A3,3 0 0,1 3,0Z" style="opacity: 1; stroke-width: 0px; fill: rgb(171, 99, 250); fill-opacity: 1;"/><path class="point" transform="translate(373.08,200.77)" d="M3,0A3,3 0 1,1 0,-3A3,3 0 0,1 3,0Z" style="opacity: 1; stroke-width: 0px; fill: rgb(171, 99, 250); fill-opacity: 1;"/><path class="point" transform="translate(370.3,200.53)" d="M3,0A3,3 0 1,1 0,-3A3,3 0 0,1 3,0Z" style="opacity: 1; stroke-width: 0px; fill: rgb(171, 99, 250); fill-opacity: 1;"/><path class="point" transform="translate(366.78,199.64)" d="M3,0A3,3 0 1,1 0,-3A3,3 0 0,1 3,0Z" style="opacity: 1; stroke-width: 0px; fill: rgb(171, 99, 250); fill-opacity: 1;"/><path class="point" transform="translate(364.68,198.83)" d="M3,0A3,3 0 1,1 0,-3A3,3 0 0,1 3,0Z" style="opacity: 1; stroke-width: 0px; fill: rgb(171, 99, 250); fill-opacity: 1;"/><path class="point" transform="translate(371.62,198.05)" d="M3,0A3,3 0 1,1 0,-3A3,3 0 0,1 3,0Z" style="opacity: 1; stroke-width: 0px; fill: rgb(171, 99, 250); fill-opacity: 1;"/><path class="point" transform="translate(368.04,195.19)" d="M3,0A3,3 0 1,1 0,-3A3,3 0 0,1 3,0Z" style="opacity: 1; stroke-width: 0px; fill: rgb(171, 99, 250); fill-opacity: 1;"/><path class="point" transform="translate(372.95,193.54)" d="M3,0A3,3 0 1,1 0,-3A3,3 0 0,1 3,0Z" style="opacity: 1; stroke-width: 0px; fill: rgb(171, 99, 250); fill-opacity: 1;"/><path class="point" transform="translate(363.56,190.56)" d="M3,0A3,3 0 1,1 0,-3A3,3 0 0,1 3,0Z" style="opacity: 1; stroke-width: 0px; fill: rgb(171, 99, 250); fill-opacity: 1;"/><path class="point" transform="translate(371.92,190.28)" d="M3,0A3,3 0 1,1 0,-3A3,3 0 0,1 3,0Z" style="opacity: 1; stroke-width: 0px; fill: rgb(171, 99, 250); fill-opacity: 1;"/><path class="point" transform="translate(368.32,188.9)" d="M3,0A3,3 0 1,1 0,-3A3,3 0 0,1 3,0Z" style="opacity: 1; stroke-width: 0px; fill: rgb(171, 99, 250); fill-opacity: 1;"/><path class="point" transform="translate(366.79,188.17)" d="M3,0A3,3 0 1,1 0,-3A3,3 0 0,1 3,0Z" style="opacity: 1; stroke-width: 0px; fill: rgb(171, 99, 250); fill-opacity: 1;"/><path class="point" transform="translate(363.96,187.2)" d="M3,0A3,3 0 1,1 0,-3A3,3 0 0,1 3,0Z" style="opacity: 1; stroke-width: 0px; fill: rgb(171, 99, 250); fill-opacity: 1;"/><path class="point" transform="translate(366.73,186.22)" d="M3,0A3,3 0 1,1 0,-3A3,3 0 0,1 3,0Z" style="opacity: 1; stroke-width: 0px; fill: rgb(171, 99, 250); fill-opacity: 1;"/><path class="point" transform="translate(371.96,178.7)" d="M3,0A3,3 0 1,1 0,-3A3,3 0 0,1 3,0Z" style="opacity: 1; stroke-width: 0px; fill: rgb(171, 99, 250); fill-opacity: 1;"/><path class="point" transform="translate(367.58,176.77)" d="M3,0A3,3 0 1,1 0,-3A3,3 0 0,1 3,0Z" style="opacity: 1; stroke-width: 0px; fill: rgb(171, 99, 250); fill-opacity: 1;"/><path class="point" transform="translate(365.2,174.2)" d="M3,0A3,3 0 1,1 0,-3A3,3 0 0,1 3,0Z" style="opacity: 1; stroke-width: 0px; fill: rgb(171, 99, 250); fill-opacity: 1;"/><path class="point" transform="translate(370.81,171.97)" d="M3,0A3,3 0 1,1 0,-3A3,3 0 0,1 3,0Z" style="opacity: 1; stroke-width: 0px; fill: rgb(171, 99, 250); fill-opacity: 1;"/><path class="point" transform="translate(366.54,170.98)" d="M3,0A3,3 0 1,1 0,-3A3,3 0 0,1 3,0Z" style="opacity: 1; stroke-width: 0px; fill: rgb(171, 99, 250); fill-opacity: 1;"/></g></g></g></g><g class="overplot"/><path class="xlines-above crisp" d="" style="fill: none; stroke-width: 1px; stroke: rgb(0, 0, 0); stroke-opacity: 0;"/><path class="ylines-above crisp" d="" style="fill: none; stroke-width: 1px; stroke: rgb(0, 0, 0); stroke-opacity: 0;"/><g class="overlines-above"/><g class="xaxislayer-above"><path class="xtick ticks crisp" d="M0,421v5" transform="translate(141.38,0)" style="stroke: rgb(51, 51, 51); stroke-opacity: 1; stroke-width: 1px;"/><path class="xtick ticks crisp" d="M0,421v5" transform="translate(258.13,0)" style="stroke: rgb(51, 51, 51); stroke-opacity: 1; stroke-width: 1px;"/><path class="xtick ticks crisp" d="M0,421v5" transform="translate(374.88,0)" style="stroke: rgb(51, 51, 51); stroke-opacity: 1; stroke-width: 1px;"/><path class="xtick ticks crisp" d="M0,421v5" transform="translate(491.63,0)" style="stroke: rgb(51, 51, 51); stroke-opacity: 1; stroke-width: 1px;"/><g class="xtick"><text text-anchor="middle" x="0" y="440.4" transform="translate(141.38,0)" style="font-family: 'Open Sans', verdana, arial, sans-serif; font-size: 12px; fill: rgb(51, 51, 51); fill-opacity: 1; white-space: pre; opacity: 1;">s_eff_cnn_id</text></g><g class="xtick"><text text-anchor="middle" x="0" y="440.4" transform="translate(258.13,0)" style="font-family: 'Open Sans', verdana, arial, sans-serif; font-size: 12px; fill: rgb(51, 51, 51); fill-opacity: 1; white-space: pre; opacity: 1;">aisy_mlp_id</text></g><g class="xtick"><text text-anchor="middle" x="0" y="440.4" transform="translate(374.88,0)" style="font-family: 'Open Sans', verdana, arial, sans-serif; font-size: 12px; fill: rgb(51, 51, 51); fill-opacity: 1; white-space: pre; opacity: 1;">s_eff_cnn_hw</text></g><g class="xtick"><text text-anchor="middle" x="0" y="440.4" transform="translate(491.63,0)" style="font-family: 'Open Sans', verdana, arial, sans-serif; font-size: 12px; fill: rgb(51, 51, 51); fill-opacity: 1; white-space: pre; opacity: 1;">aisy_mlp_hw</text></g></g><g class="yaxislayer-above"><path class="ytick ticks crisp" d="M79,0h-5" transform="translate(0,374.3)" style="stroke: rgb(51, 51, 51); stroke-opacity: 1; stroke-width: 1px;"/><path class="ytick ticks crisp" d="M79,0h-5" transform="translate(0,304.57)" style="stroke: rgb(51, 51, 51); stroke-opacity: 1; stroke-width: 1px;"/><path class="ytick ticks crisp" d="M79,0h-5" transform="translate(0,234.85)" style="stroke: rgb(51, 51, 51); stroke-opacity: 1; stroke-width: 1px;"/><path class="ytick ticks crisp" d="M79,0h-5" transform="translate(0,165.12)" style="stroke: rgb(51, 51, 51); stroke-opacity: 1; stroke-width: 1px;"/><g class="ytick"><text text-anchor="end" x="71.6" y="4.199999999999999" transform="translate(0,374.3)" style="font-family: 'Open Sans', verdana, arial, sans-serif; font-size: 12px; fill: rgb(51, 51, 51); fill-opacity: 1; white-space: pre; opacity: 1;">0</text></g><g class="ytick"><text text-anchor="end" x="71.6" y="4.199999999999999" style="font-family: 'Open Sans', verdana, arial, sans-serif; font-size: 12px; fill: rgb(51, 51, 51); fill-opacity: 1; white-space: pre; opacity: 1;" transform="translate(0,304.57)">50</text></g><g class="ytick"><text text-anchor="end" x="71.6" y="4.199999999999999" style="font-family: 'Open Sans', verdana, arial, sans-serif; font-size: 12px; fill: rgb(51, 51, 51); fill-opacity: 1; white-space: pre; opacity: 1;" transform="translate(0,234.85)">100</text></g><g class="ytick"><text text-anchor="end" x="71.6" y="4.199999999999999" style="font-family: 'Open Sans', verdana, arial, sans-serif; font-size: 12px; fill: rgb(51, 51, 51); fill-opacity: 1; white-space: pre; opacity: 1;" transform="translate(0,165.12)">150</text></g></g><g class="overaxes-above"/></g></g><g class="polarlayer"/><g class="ternarylayer"/><g class="geolayer"/><g class="funnelarealayer"/><g class="pielayer"/><g class="iciclelayer"/><g class="treemaplayer"/><g class="sunburstlayer"/><g class="glimages"/><defs id="topdefs-11ce3b"><g class="clips"/><clipPath id="legend11ce3b"><rect width="129" height="105" x="0" y="0"/></clipPath></defs><g class="layer-above"><g class="imagelayer"/><g class="shapelayer"/></g><g class="infolayer"><g class="legend" pointer-events="all" transform="translate(559.4000000000001,100)"><rect class="bg" shape-rendering="crispEdges" width="129" height="105" x="0" y="0" style="stroke: rgb(68, 68, 68); stroke-opacity: 1; fill: rgb(255, 255, 255); fill-opacity: 1; stroke-width: 0px;"/><g class="scrollbox" transform="" clip-path="url(#legend11ce3b)"><text class="legendtitletext" text-anchor="start" x="2" y="18.2" style="font-family: 'Open Sans', verdana, arial, sans-serif; font-size: 14px; fill: rgb(51, 51, 51); fill-opacity: 1; white-space: pre;">model</text><g class="groups" transform=""><g class="traces" transform="translate(0,32.7)" style="opacity: 1;"><text class="legendtext" text-anchor="start" x="40" y="4.680000000000001" style="font-family: 'Open Sans', verdana, arial, sans-serif; font-size: 12px; fill: rgb(51, 51, 51); fill-opacity: 1; white-space: pre;">s_eff_cnn_id</text><g class="layers" style="opacity: 1;"><g class="legendfill"/><g class="legendlines"/><g class="legendsymbols"><g class="legendpoints"><path class="legendbox" d="M6,6H-6V-6H6Z" transform="translate(20,0)" style="stroke-width: 2px; fill: rgb(99, 110, 250); fill-opacity: 0.5; stroke: rgb(99, 110, 250); stroke-opacity: 1;"/></g></g></g><rect class="legendtoggle" x="0" y="-9.5" width="123.703125" height="19" style="fill: rgb(0, 0, 0); fill-opacity: 0;"/></g></g><g class="groups" transform=""><g class="traces" transform="translate(0,51.7)" style="opacity: 1;"><text class="legendtext" text-anchor="start" x="40" y="4.680000000000001" style="font-family: 'Open Sans', verdana, arial, sans-serif; font-size: 12px; fill: rgb(51, 51, 51); fill-opacity: 1; white-space: pre;">aisy_mlp_id</text><g class="layers" style="opacity: 1;"><g class="legendfill"/><g class="legendlines"/><g class="legendsymbols"><g class="legendpoints"><path class="legendbox" d="M6,6H-6V-6H6Z" transform="translate(20,0)" style="stroke-width: 2px; fill: rgb(239, 85, 59); fill-opacity: 0.5; stroke: rgb(239, 85, 59); stroke-opacity: 1;"/></g></g></g><rect class="legendtoggle" x="0" y="-9.5" width="123.703125" height="19" style="fill: rgb(0, 0, 0); fill-opacity: 0;"/></g></g><g class="groups" transform=""><g class="traces" transform="translate(0,70.7)" style="opacity: 1;"><text class="legendtext" text-anchor="start" x="40" y="4.680000000000001" style="font-family: 'Open Sans', verdana, arial, sans-serif; font-size: 12px; fill: rgb(51, 51, 51); fill-opacity: 1; white-space: pre;">s_eff_cnn_hw</text><g class="layers" style="opacity: 1;"><g class="legendfill"/><g class="legendlines"/><g class="legendsymbols"><g class="legendpoints"><path class="legendbox" d="M6,6H-6V-6H6Z" transform="translate(20,0)" style="stroke-width: 2px; fill: rgb(0, 204, 150); fill-opacity: 0.5; stroke: rgb(0, 204, 150); stroke-opacity: 1;"/></g></g></g><rect class="legendtoggle" x="0" y="-9.5" width="123.703125" height="19" style="fill: rgb(0, 0, 0); fill-opacity: 0;"/></g></g><g class="groups" transform=""><g class="traces" transform="translate(0,89.7)" style="opacity: 1;"><text class="legendtext" text-anchor="start" x="40" y="4.680000000000001" style="font-family: 'Open Sans', verdana, arial, sans-serif; font-size: 12px; fill: rgb(51, 51, 51); fill-opacity: 1; white-space: pre;">aisy_mlp_hw</text><g class="layers" style="opacity: 1;"><g class="legendfill"/><g class="legendlines"/><g class="legendsymbols"><g class="legendpoints"><path class="legendbox" d="M6,6H-6V-6H6Z" transform="translate(20,0)" style="stroke-width: 2px; fill: rgb(171, 99, 250); fill-opacity: 0.5; stroke: rgb(171, 99, 250); stroke-opacity: 1;"/></g></g></g><rect class="legendtoggle" x="0" y="-9.5" width="123.703125" height="19" style="fill: rgb(0, 0, 0); fill-opacity: 0;"/></g></g></g><rect class="scrollbar" rx="20" ry="3" width="0" height="0" x="0" y="0" style="fill: rgb(128, 139, 164); fill-opacity: 1;"/></g><g class="g-gtitle"><text class="gtitle" x="350" y="50" text-anchor="middle" dy="0em" style="font-family: 'Open Sans', verdana, arial, sans-serif; font-size: 17px; fill: rgb(51, 51, 51); opacity: 1; font-weight: normal; white-space: pre;">Distribution of average ranks over 50 experiments (with 1000 traces)</text></g><g class="g-xtitle"><text class="xtitle" x="315" y="468.20625" text-anchor="middle" style="font-family: 'Open Sans', verdana, arial, sans-serif; font-size: 14px; fill: rgb(51, 51, 51); opacity: 1; font-weight: normal; white-space: pre;">model</text></g><g class="g-ytitle"><text class="ytitle" transform="rotate(-90,23.903125000000003,260)" x="23.903125000000003" y="260" text-anchor="middle" style="font-family: 'Open Sans', verdana, arial, sans-serif; font-size: 14px; fill: rgb(51, 51, 51); opacity: 1; font-weight: normal; white-space: pre;">Average Ranks</text></g><g class="annotation" data-index="0" style="opacity: 1;"><g class="annotation-text-g" transform="rotate(0,141.38,133)"><g class="cursor-pointer" transform="translate(98,100)"><rect class="bg" x="0.5" y="0.5" width="85" height="65" style="stroke-width: 1px; stroke: rgb(0, 0, 0); stroke-opacity: 1; fill: rgb(211, 211, 211); fill-opacity: 1;"/><text class="annotation-text" text-anchor="middle" x="42.65625" y="-1.59375" style="font-family: 'Open Sans', verdana, arial, sans-serif; font-size: 12px; fill: rgb(51, 51, 51); fill-opacity: 1; white-space: pre;"><tspan class="line" dy="0em" x="42.65625" y="-1.59375"></tspan><tspan class="line" dy="1.3em" x="42.65625" y="-1.59375">min: 0.00</tspan><tspan class="line" dy="2.6em" x="42.65625" y="-1.59375">max: 133.10</tspan><tspan class="line" dy="3.9000000000000004em" x="42.65625" y="-1.59375">median: 0.80</tspan><tspan class="line" dy="5.2em" x="42.65625" y="-1.59375">mean: 17.74</tspan></text></g></g></g><g class="annotation" data-index="1" style="opacity: 1;"><g class="annotation-text-g" transform="rotate(0,258.13,133)"><g class="cursor-pointer" transform="translate(212,100)"><rect class="bg" x="0.5" y="0.5" width="92" height="65" style="stroke-width: 1px; stroke: rgb(0, 0, 0); stroke-opacity: 1; fill: rgb(211, 211, 211); fill-opacity: 1;"/><text class="annotation-text" text-anchor="middle" x="46.484375" y="-1.59375" style="font-family: 'Open Sans', verdana, arial, sans-serif; font-size: 12px; fill: rgb(51, 51, 51); fill-opacity: 1; white-space: pre;"><tspan class="line" dy="0em" x="46.484375" y="-1.59375"></tspan><tspan class="line" dy="1.3em" x="46.484375" y="-1.59375">min: 3.69</tspan><tspan class="line" dy="2.6em" x="46.484375" y="-1.59375">max: 26.17</tspan><tspan class="line" dy="3.9000000000000004em" x="46.484375" y="-1.59375">median: 11.53</tspan><tspan class="line" dy="5.2em" x="46.484375" y="-1.59375">mean: 12.55</tspan></text></g></g></g><g class="annotation" data-index="2" style="opacity: 1;"><g class="annotation-text-g" transform="rotate(0,374.88,133)"><g class="cursor-pointer" transform="translate(332,100)"><rect class="bg" x="0.5" y="0.5" width="84" height="65" style="stroke-width: 1px; stroke: rgb(0, 0, 0); stroke-opacity: 1; fill: rgb(211, 211, 211); fill-opacity: 1;"/><text class="annotation-text" text-anchor="middle" x="42.65625" y="-1.59375" style="font-family: 'Open Sans', verdana, arial, sans-serif; font-size: 12px; fill: rgb(51, 51, 51); fill-opacity: 1; white-space: pre;"><tspan class="line" dy="0em" x="42.65625" y="-1.59375"></tspan><tspan class="line" dy="1.3em" x="42.65625" y="-1.59375">min: 3.42</tspan><tspan class="line" dy="2.6em" x="42.65625" y="-1.59375">max: 49.09</tspan><tspan class="line" dy="3.9000000000000004em" x="42.65625" y="-1.59375">median: 7.43</tspan><tspan class="line" dy="5.2em" x="42.65625" y="-1.59375">mean: 9.76</tspan></text></g></g></g><g class="annotation" data-index="3" style="opacity: 1;"><g class="annotation-text-g" transform="rotate(0,491.63,133)"><g class="cursor-pointer" transform="translate(445,100)"><rect class="bg" x="0.5" y="0.5" width="92" height="65" style="stroke-width: 1px; stroke: rgb(0, 0, 0); stroke-opacity: 1; fill: rgb(211, 211, 211); fill-opacity: 1;"/><text class="annotation-text" text-anchor="middle" x="46.484375" y="-1.59375" style="font-family: 'Open Sans', verdana, arial, sans-serif; font-size: 12px; fill: rgb(51, 51, 51); fill-opacity: 1; white-space: pre;"><tspan class="line" dy="0em" x="46.484375" y="-1.59375"></tspan><tspan class="line" dy="1.3em" x="46.484375" y="-1.59375">min: 26.49</tspan><tspan class="line" dy="2.6em" x="46.484375" y="-1.59375">max: 74.09</tspan><tspan class="line" dy="3.9000000000000004em" x="46.484375" y="-1.59375">median: 47.68</tspan><tspan class="line" dy="5.2em" x="46.484375" y="-1.59375">mean: 48.04</tspan></text></g></g></g></g></svg>