<svg class="main-svg" xmlns="http://www.w3.org/2000/svg" xmlns:xlink="http://www.w3.org/1999/xlink" width="700" height="500" style="" viewBox="0 0 700 500"><rect x="0" y="0" width="700" height="500" style="fill: rgb(255, 255, 255); fill-opacity: 1;"/><defs id="defs-67d374"><g class="clips"><clipPath id="clip67d374xyplot" class="plotclip"><rect width="470" height="320"/></clipPath><clipPath class="axesclip" id="clip67d374x"><rect x="80" y="0" width="470" height="500"/></clipPath><clipPath class="axesclip" id="clip67d374y"><rect x="0" y="100" width="700" height="320"/></clipPath><clipPath class="axesclip" id="clip67d374xy"><rect x="80" y="100" width="470" height="320"/></clipPath></g><g class="gradients"/><g class="patterns"/></defs><g class="bglayer"><rect class="bg" x="80" y="100" width="470" height="320" style="fill: rgb(237, 237, 237); fill-opacity: 1; stroke-width: 0;"/></g><g class="layer-below"><g class="imagelayer"/><g class="shapelayer"/></g><g class="cartesianlayer"><g class="subplot xy"><g class="layer-subplot"><g class="shapelayer"/><g class="imagelayer"/></g><g class="gridlayer"><g class="x"><path class="xgrid crisp" transform="translate(141.38,0)" d="M0,100v320" style="stroke: rgb(255, 255, 255); stroke-opacity: 1; stroke-width: 1px;"/><path class="xgrid crisp" transform="translate(258.13,0)" d="M0,100v320" style="stroke: rgb(255, 255, 255); stroke-opacity: 1; stroke-width: 1px;"/><path class="xgrid crisp" transform="translate(374.88,0)" d="M0,100v320" style="stroke: rgb(255, 255, 255); stroke-opacity: 1; stroke-width: 1px;"/><path class="xgrid crisp" transform="translate(491.63,0)" d="M0,100v320" style="stroke: rgb(255, 255, 255); stroke-opacity: 1; stroke-width: 1px;"/></g><g class="y"><path class="ygrid crisp" transform="translate(0,302.9)" d="M80,0h470" style="stroke: rgb(255, 255, 255); stroke-opacity: 1; stroke-width: 1px;"/><path class="ygrid crisp" transform="translate(0,231.49)" d="M80,0h470" style="stroke: rgb(255, 255, 255); stroke-opacity: 1; stroke-width: 1px;"/><path class="ygrid crisp" transform="translate(0,160.07999999999998)" d="M80,0h470" style="stroke: rgb(255, 255, 255); stroke-opacity: 1; stroke-width: 1px;"/></g></g><g class="zerolinelayer"><path class="yzl zl crisp" transform="translate(0,374.3)" d="M80,0h470" style="stroke: rgb(255, 255, 255); stroke-opacity: 1; stroke-width: 1px;"/></g><path class="xlines-below"/><path class="ylines-below"/><g class="overlines-below"/><g class="xaxislayer-below"/><g class="yaxislayer-below"/><g class="overaxes-below"/><g class="plot" transform="translate(80,100)" clip-path="url(#clip67d374xyplot)"><g class="violinlayer mlayer"><g class="trace violins" style="opacity: 1;"><path class="violin" d="M61.74,304Q61.92,300.73 62.04,299.1C62.16,297.47 62.31,295.83 62.47,294.2C62.63,292.57 62.81,290.93 62.99,289.3C63.17,287.67 63.37,286.03 63.53,284.4C63.69,282.77 63.84,281.13 63.95,279.5C64.05,277.87 64.13,276.23 64.16,274.6C64.19,272.97 64.17,271.33 64.12,269.7C64.07,268.07 63.97,266.43 63.88,264.8C63.79,263.17 63.67,261.53 63.57,259.9C63.48,258.27 63.38,256.63 63.31,255C63.25,253.37 63.2,251.73 63.18,250.1C63.16,248.47 63.17,246.83 63.18,245.2C63.19,243.57 63.21,241.93 63.23,240.3C63.24,238.67 63.27,237.03 63.27,235.4C63.27,233.77 63.25,232.13 63.22,230.5C63.19,228.87 63.13,227.23 63.06,225.6C62.99,223.97 62.89,222.33 62.8,220.7C62.71,219.07 62.6,217.43 62.5,215.8C62.4,214.17 62.3,212.53 62.2,210.9C62.11,209.27 62.01,207.63 61.93,206C61.85,204.37 61.79,202.73 61.73,201.1C61.67,199.47 61.62,197.83 61.58,196.2C61.54,194.57 61.52,192.93 61.49,191.3C61.47,189.67 61.44,188.03 61.43,186.4C61.41,184.76 61.41,183.13 61.4,181.49C61.39,179.86 61.39,178.22 61.39,176.59C61.39,174.96 61.38,173.32 61.38,171.69C61.38,170.06 61.38,168.42 61.38,166.79C61.38,165.16 61.38,163.52 61.38,161.89C61.38,160.26 61.38,158.62 61.38,156.99C61.38,155.36 61.38,153.72 61.38,152.09C61.38,150.46 61.38,148.82 61.38,147.19C61.38,145.56 61.38,143.92 61.38,142.29C61.38,140.66 61.39,139.02 61.39,137.39C61.4,135.76 61.4,134.12 61.41,132.49C61.42,130.86 61.42,129.22 61.43,127.59C61.44,125.96 61.44,124.32 61.45,122.69C61.46,121.06 61.46,119.42 61.47,117.79C61.48,116.16 61.49,114.52 61.5,112.89C61.51,111.26 61.51,109.62 61.52,107.99C61.52,106.36 61.53,104.72 61.53,103.09C61.53,101.46 61.53,99.82 61.53,98.19C61.53,96.56 61.53,94.92 61.53,93.29C61.53,91.66 61.52,90.02 61.51,88.39C61.5,86.76 61.5,85.12 61.49,83.49C61.48,81.86 61.48,80.22 61.47,78.59C61.46,76.96 61.45,75.32 61.44,73.69C61.43,72.06 61.43,70.42 61.42,68.79C61.41,67.16 61.41,65.52 61.4,63.89Q61.4,62.26 61.39,58.99L61.36,58.99Q61.35,62.26 61.35,63.89C61.34,65.52 61.34,67.16 61.33,68.79C61.32,70.42 61.32,72.06 61.31,73.69C61.3,75.32 61.29,76.96 61.28,78.59C61.27,80.22 61.27,81.86 61.26,83.49C61.25,85.12 61.25,86.76 61.24,88.39C61.23,90.02 61.22,91.66 61.22,93.29C61.22,94.92 61.22,96.56 61.22,98.19C61.22,99.82 61.22,101.46 61.22,103.09C61.22,104.72 61.23,106.36 61.23,107.99C61.24,109.62 61.24,111.26 61.25,112.89C61.26,114.52 61.27,116.16 61.28,117.79C61.29,119.42 61.29,121.06 61.3,122.69C61.31,124.32 61.31,125.96 61.32,127.59C61.33,129.22 61.33,130.86 61.34,132.49C61.35,134.12 61.35,135.76 61.36,137.39C61.36,139.02 61.37,140.66 61.37,142.29C61.37,143.92 61.37,145.56 61.37,147.19C61.37,148.82 61.37,150.46 61.37,152.09C61.37,153.72 61.37,155.36 61.37,156.99C61.37,158.62 61.37,160.26 61.37,161.89C61.37,163.52 61.37,165.16 61.37,166.79C61.37,168.42 61.37,170.06 61.37,171.69C61.37,173.32 61.36,174.96 61.36,176.59C61.36,178.22 61.36,179.86 61.35,181.49C61.34,183.13 61.34,184.76 61.32,186.4C61.31,188.03 61.28,189.67 61.26,191.3C61.23,192.93 61.21,194.57 61.17,196.2C61.13,197.83 61.08,199.47 61.02,201.1C60.96,202.73 60.9,204.37 60.82,206C60.74,207.63 60.64,209.27 60.55,210.9C60.45,212.53 60.35,214.17 60.25,215.8C60.15,217.43 60.04,219.07 59.95,220.7C59.86,222.33 59.76,223.97 59.69,225.6C59.62,227.23 59.56,228.87 59.53,230.5C59.5,232.13 59.48,233.77 59.48,235.4C59.48,237.03 59.51,238.67 59.52,240.3C59.54,241.93 59.56,243.57 59.57,245.2C59.58,246.83 59.59,248.47 59.57,250.1C59.55,251.73 59.5,253.37 59.44,255C59.37,256.63 59.27,258.27 59.18,259.9C59.08,261.53 58.96,263.17 58.87,264.8C58.78,266.43 58.68,268.07 58.63,269.7C58.58,271.33 58.56,272.97 58.59,274.6C58.62,276.23 58.7,277.87 58.8,279.5C58.91,281.13 59.06,282.77 59.22,284.4C59.38,286.03 59.58,287.67 59.76,289.3C59.94,290.93 60.12,292.57 60.28,294.2C60.44,295.83 60.59,297.47 60.71,299.1Q60.83,300.73 61.01,304Z" style="vector-effect: non-scaling-stroke; stroke-width: 2px; stroke: rgb(99, 110, 250); stroke-opacity: 1; fill: rgb(99, 110, 250); fill-opacity: 0.5;"/><g class="points"><path class="point" transform="translate(22.92,274.3)" d="M3,0A3,3 0 1,1 0,-3A3,3 0 0,1 3,0Z" style="opacity: 1; stroke-width: 0px; fill: rgb(99, 110, 250); fill-opacity: 1;"/><path class="point" transform="translate(13,274.3)" d="M3,0A3,3 0 1,1 0,-3A3,3 0 0,1 3,0Z" style="opacity: 1; stroke-width: 0px; fill: rgb(99, 110, 250); fill-opacity: 1;"/><path class="point" transform="translate(25.12,274.3)" d="M3,0A3,3 0 1,1 0,-3A3,3 0 0,1 3,0Z" style="opacity: 1; stroke-width: 0px; fill: rgb(99, 110, 250); fill-opacity: 1;"/><path class="point" transform="translate(11.21,274.3)" d="M3,0A3,3 0 1,1 0,-3A3,3 0 0,1 3,0Z" style="opacity: 1; stroke-width: 0px; fill: rgb(99, 110, 250); fill-opacity: 1;"/><path class="point" transform="translate(16.36,274.3)" d="M3,0A3,3 0 1,1 0,-3A3,3 0 0,1 3,0Z" style="opacity: 1; stroke-width: 0px; fill: rgb(99, 110, 250); fill-opacity: 1;"/><path class="point" transform="translate(22.97,274.3)" d="M3,0A3,3 0 1,1 0,-3A3,3 0 0,1 3,0Z" style="opacity: 1; stroke-width: 0px; fill: rgb(99, 110, 250); fill-opacity: 1;"/><path class="point" transform="translate(18.15,274.3)" d="M3,0A3,3 0 1,1 0,-3A3,3 0 0,1 3,0Z" style="opacity: 1; stroke-width: 0px; fill: rgb(99, 110, 250); fill-opacity: 1;"/><path class="point" transform="translate(20.96,274.3)" d="M3,0A3,3 0 1,1 0,-3A3,3 0 0,1 3,0Z" style="opacity: 1; stroke-width: 0px; fill: rgb(99, 110, 250); fill-opacity: 1;"/><path class="point" transform="translate(15.73,274.3)" d="M3,0A3,3 0 1,1 0,-3A3,3 0 0,1 3,0Z" style="opacity: 1; stroke-width: 0px; fill: rgb(99, 110, 250); fill-opacity: 1;"/><path class="point" transform="translate(12.18,274.3)" d="M3,0A3,3 0 1,1 0,-3A3,3 0 0,1 3,0Z" style="opacity: 1; stroke-width: 0px; fill: rgb(99, 110, 250); fill-opacity: 1;"/><path class="point" transform="translate(20.76,274.3)" d="M3,0A3,3 0 1,1 0,-3A3,3 0 0,1 3,0Z" style="opacity: 1; stroke-width: 0px; fill: rgb(99, 110, 250); fill-opacity: 1;"/><path class="point" transform="translate(15.65,274.29)" d="M3,0A3,3 0 1,1 0,-3A3,3 0 0,1 3,0Z" style="opacity: 1; stroke-width: 0px; fill: rgb(99, 110, 250); fill-opacity: 1;"/><path class="point" transform="translate(23.91,274.29)" d="M3,0A3,3 0 1,1 0,-3A3,3 0 0,1 3,0Z" style="opacity: 1; stroke-width: 0px; fill: rgb(99, 110, 250); fill-opacity: 1;"/><path class="point" transform="translate(10.12,274.29)" d="M3,0A3,3 0 1,1 0,-3A3,3 0 0,1 3,0Z" style="opacity: 1; stroke-width: 0px; fill: rgb(99, 110, 250); fill-opacity: 1;"/><path class="point" transform="translate(13.5,274.29)" d="M3,0A3,3 0 1,1 0,-3A3,3 0 0,1 3,0Z" style="opacity: 1; stroke-width: 0px; fill: rgb(99, 110, 250); fill-opacity: 1;"/><path class="point" transform="translate(26.06,274.26)" d="M3,0A3,3 0 1,1 0,-3A3,3 0 0,1 3,0Z" style="opacity: 1; stroke-width: 0px; fill: rgb(99, 110, 250); fill-opacity: 1;"/><path class="point" transform="translate(16.32,274.25)" d="M3,0A3,3 0 1,1 0,-3A3,3 0 0,1 3,0Z" style="opacity: 1; stroke-width: 0px; fill: rgb(99, 110, 250); fill-opacity: 1;"/><path class="point" transform="translate(11.1,274.25)" d="M3,0A3,3 0 1,1 0,-3A3,3 0 0,1 3,0Z" style="opacity: 1; stroke-width: 0px; fill: rgb(99, 110, 250); fill-opacity: 1;"/><path class="point" transform="translate(15.63,274.23)" d="M3,0A3,3 0 1,1 0,-3A3,3 0 0,1 3,0Z" style="opacity: 1; stroke-width: 0px; fill: rgb(99, 110, 250); fill-opacity: 1;"/><path class="point" transform="translate(18.29,274.22)" d="M3,0A3,3 0 1,1 0,-3A3,3 0 0,1 3,0Z" style="opacity: 1; stroke-width: 0px; fill: rgb(99, 110, 250); fill-opacity: 1;"/><path class="point" transform="translate(22.33,274.2)" d="M3,0A3,3 0 1,1 0,-3A3,3 0 0,1 3,0Z" style="opacity: 1; stroke-width: 0px; fill: rgb(99, 110, 250); fill-opacity: 1;"/><path class="point" transform="translate(19.42,274.18)" d="M3,0A3,3 0 1,1 0,-3A3,3 0 0,1 3,0Z" style="opacity: 1; stroke-width: 0px; fill: rgb(99, 110, 250); fill-opacity: 1;"/><path class="point" transform="translate(17.52,274.16)" d="M3,0A3,3 0 1,1 0,-3A3,3 0 0,1 3,0Z" style="opacity: 1; stroke-width: 0px; fill: rgb(99, 110, 250); fill-opacity: 1;"/><path class="point" transform="translate(15.85,274.15)" d="M3,0A3,3 0 1,1 0,-3A3,3 0 0,1 3,0Z" style="opacity: 1; stroke-width: 0px; fill: rgb(99, 110, 250); fill-opacity: 1;"/><path class="point" transform="translate(18.46,274.06)" d="M3,0A3,3 0 1,1 0,-3A3,3 0 0,1 3,0Z" style="opacity: 1; stroke-width: 0px; fill: rgb(99, 110, 250); fill-opacity: 1;"/><path class="point" transform="translate(17.59,273.65)" d="M3,0A3,3 0 1,1 0,-3A3,3 0 0,1 3,0Z" style="opacity: 1; stroke-width: 0px; fill: rgb(99, 110, 250); fill-opacity: 1;"/><path class="point" transform="translate(19.83,273.53)" d="M3,0A3,3 0 1,1 0,-3A3,3 0 0,1 3,0Z" style="opacity: 1; stroke-width: 0px; fill: rgb(99, 110, 250); fill-opacity: 1;"/><path class="point" transform="translate(18.21,247.11)" d="M3,0A3,3 0 1,1 0,-3A3,3 0 0,1 3,0Z" style="opacity: 1; stroke-width: 0px; fill: rgb(99, 110, 250); fill-opacity: 1;"/><path class="point" transform="translate(16.59,243.14)" d="M3,0A3,3 0 1,1 0,-3A3,3 0 0,1 3,0Z" style="opacity: 1; stroke-width: 0px; fill: rgb(99, 110, 250); fill-opacity: 1;"/><path class="point" transform="translate(15.83,241.87)" d="M3,0A3,3 0 1,1 0,-3A3,3 0 0,1 3,0Z" style="opacity: 1; stroke-width: 0px; fill: rgb(99, 110, 250); fill-opacity: 1;"/><path class="point" transform="translate(20.06,240.86)" d="M3,0A3,3 0 1,1 0,-3A3,3 0 0,1 3,0Z" style="opacity: 1; stroke-width: 0px; fill: rgb(99, 110, 250); fill-opacity: 1;"/><path class="point" transform="translate(16.07,238.5)" d="M3,0A3,3 0 1,1 0,-3A3,3 0 0,1 3,0Z" style="opacity: 1; stroke-width: 0px; fill: rgb(99, 110, 250); fill-opacity: 1;"/><path class="point" transform="translate(21.22,238.34)" d="M3,0A3,3 0 1,1 0,-3A3,3 0 0,1 3,0Z" style="opacity: 1; stroke-width: 0px; fill: rgb(99, 110, 250); fill-opacity: 1;"/><path class="point" transform="translate(19.61,237.37)" d="M3,0A3,3 0 1,1 0,-3A3,3 0 0,1 3,0Z" style="opacity: 1; stroke-width: 0px; fill: rgb(99, 110, 250); fill-opacity: 1;"/><path class="point" transform="translate(16.91,236.14)" d="M3,0A3,3 0 1,1 0,-3A3,3 0 0,1 3,0Z" style="opacity: 1; stroke-width: 0px; fill: rgb(99, 110, 250); fill-opacity: 1;"/><path class="point" transform="translate(15.24,235.49)" d="M3,0A3,3 0 1,1 0,-3A3,3 0 0,1 3,0Z" style="opacity: 1; stroke-width: 0px; fill: rgb(99, 110, 250); fill-opacity: 1;"/><path class="point" transform="translate(20.81,235.06)" d="M3,0A3,3 0 1,1 0,-3A3,3 0 0,1 3,0Z" style="opacity: 1; stroke-width: 0px; fill: rgb(99, 110, 250); fill-opacity: 1;"/><path class="point" transform="translate(17.94,232.93)" d="M3,0A3,3 0 1,1 0,-3A3,3 0 0,1 3,0Z" style="opacity: 1; stroke-width: 0px; fill: rgb(99, 110, 250); fill-opacity: 1;"/><path class="point" transform="translate(22.01,232)" d="M3,0A3,3 0 1,1 0,-3A3,3 0 0,1 3,0Z" style="opacity: 1; stroke-width: 0px; fill: rgb(99, 110, 250); fill-opacity: 1;"/><path class="point" transform="translate(13.91,230.75)" d="M3,0A3,3 0 1,1 0,-3A3,3 0 0,1 3,0Z" style="opacity: 1; stroke-width: 0px; fill: rgb(99, 110, 250); fill-opacity: 1;"/><path class="point" transform="translate(21.54,230.62)" d="M3,0A3,3 0 1,1 0,-3A3,3 0 0,1 3,0Z" style="opacity: 1; stroke-width: 0px; fill: rgb(99, 110, 250); fill-opacity: 1;"/><path class="point" transform="translate(18.12,227.2)" d="M3,0A3,3 0 1,1 0,-3A3,3 0 0,1 3,0Z" style="opacity: 1; stroke-width: 0px; fill: rgb(99, 110, 250); fill-opacity: 1;"/><path class="point" transform="translate(17,225.95)" d="M3,0A3,3 0 1,1 0,-3A3,3 0 0,1 3,0Z" style="opacity: 1; stroke-width: 0px; fill: rgb(99, 110, 250); fill-opacity: 1;"/><path class="point" transform="translate(16.92,225.92)" d="M3,0A3,3 0 1,1 0,-3A3,3 0 0,1 3,0Z" style="opacity: 1; stroke-width: 0px; fill: rgb(99, 110, 250); fill-opacity: 1;"/><path class="point" transform="translate(17.9,225.8)" d="M3,0A3,3 0 1,1 0,-3A3,3 0 0,1 3,0Z" style="opacity: 1; stroke-width: 0px; fill: rgb(99, 110, 250); fill-opacity: 1;"/><path class="point" transform="translate(19.4,222.3)" d="M3,0A3,3 0 1,1 0,-3A3,3 0 0,1 3,0Z" style="opacity: 1; stroke-width: 0px; fill: rgb(99, 110, 250); fill-opacity: 1;"/><path class="point" transform="translate(18.15,218.11)" d="M3,0A3,3 0 1,1 0,-3A3,3 0 0,1 3,0Z" style="opacity: 1; stroke-width: 0px; fill: rgb(99, 110, 250); fill-opacity: 1;"/><path class="point" transform="translate(17.5,211.24)" d="M3,0A3,3 0 1,1 0,-3A3,3 0 0,1 3,0Z" style="opacity: 1; stroke-width: 0px; fill: rgb(99, 110, 250); fill-opacity: 1;"/><path class="point" transform="translate(19.03,109.32)" d="M3,0A3,3 0 1,1 0,-3A3,3 0 0,1 3,0Z" style="opacity: 1; stroke-width: 0px; fill: rgb(99, 110, 250); fill-opacity: 1;"/><path class="point" transform="translate(17.9,88.69)" d="M3,0A3,3 0 1,1 0,-3A3,3 0 0,1 3,0Z" style="opacity: 1; stroke-width: 0px; fill: rgb(99, 110, 250); fill-opacity: 1;"/></g></g><g class="trace violins" style="opacity: 1;"><path class="violin" d="M178.28,276.99Q178.38,276.3 178.46,275.96C178.54,275.61 178.64,275.26 178.77,274.92C178.9,274.57 179.07,274.23 179.26,273.89C179.47,273.54 179.71,273.19 179.98,272.85C180.26,272.5 180.59,272.16 180.93,271.82C181.29,271.47 181.68,271.12 182.08,270.78C182.48,270.43 182.91,270.09 183.33,269.75C183.75,269.4 184.18,269.06 184.6,268.71C185.01,268.37 185.42,268.02 185.81,267.67C186.19,267.33 186.56,266.99 186.92,266.64C187.27,266.3 187.61,265.95 187.92,265.6C188.22,265.26 188.52,264.93 188.76,264.57C188.99,264.23 189.2,263.89 189.33,263.53C189.45,263.19 189.54,262.84 189.54,262.5C189.54,262.15 189.44,261.79 189.3,261.46C189.15,261.1 188.89,260.75 188.63,260.42C188.35,260.06 187.99,259.73 187.65,259.39C187.3,259.04 186.91,258.7 186.55,258.35C186.2,258.01 185.83,257.67 185.51,257.32C185.21,256.98 184.92,256.63 184.68,256.28C184.45,255.94 184.24,255.6 184.07,255.25C183.9,254.91 183.78,254.56 183.65,254.21C183.53,253.87 183.43,253.52 183.32,253.17C183.21,252.83 183.11,252.48 182.98,252.14C182.85,251.79 182.71,251.44 182.55,251.1C182.39,250.75 182.2,250.41 182.01,250.07C181.81,249.72 181.59,249.37 181.37,249.03C181.15,248.68 180.92,248.35 180.7,248C180.48,247.66 180.26,247.31 180.06,246.96C179.86,246.62 179.67,246.27 179.51,245.92C179.35,245.58 179.21,245.24 179.1,244.89C178.99,244.55 178.9,244.2 178.83,243.85C178.76,243.51 178.72,243.16 178.69,242.82C178.66,242.47 178.66,242.13 178.65,241.78C178.64,241.44 178.63,241.09 178.63,240.75C178.62,240.4 178.63,240.06 178.62,239.71C178.61,239.36 178.59,239.02 178.57,238.67C178.55,238.33 178.53,237.98 178.5,237.64C178.47,237.29 178.44,236.95 178.41,236.6C178.38,236.26 178.35,235.91 178.32,235.57C178.29,235.22 178.26,234.88 178.24,234.53Q178.22,234.19 178.19,233.5L178.06,233.5Q178.03,234.19 178.01,234.53C177.99,234.88 177.96,235.22 177.93,235.57C177.9,235.91 177.87,236.26 177.84,236.6C177.81,236.95 177.78,237.29 177.75,237.64C177.72,237.98 177.7,238.33 177.68,238.67C177.66,239.02 177.64,239.36 177.63,239.71C177.62,240.06 177.63,240.4 177.62,240.75C177.62,241.09 177.61,241.44 177.6,241.78C177.59,242.13 177.59,242.47 177.56,242.82C177.53,243.16 177.49,243.51 177.42,243.85C177.35,244.2 177.26,244.55 177.15,244.89C177.04,245.24 176.9,245.58 176.74,245.92C176.58,246.27 176.39,246.62 176.19,246.96C175.99,247.31 175.77,247.66 175.55,248C175.33,248.35 175.1,248.68 174.88,249.03C174.66,249.37 174.44,249.72 174.24,250.07C174.05,250.41 173.86,250.75 173.7,251.1C173.54,251.44 173.4,251.79 173.27,252.14C173.14,252.48 173.04,252.83 172.93,253.17C172.82,253.52 172.72,253.87 172.6,254.21C172.47,254.56 172.35,254.91 172.18,255.25C172.01,255.6 171.8,255.94 171.57,256.28C171.33,256.63 171.04,256.98 170.74,257.32C170.42,257.67 170.05,258.01 169.7,258.35C169.34,258.7 168.95,259.04 168.6,259.39C168.26,259.73 167.9,260.06 167.62,260.42C167.36,260.75 167.1,261.1 166.95,261.46C166.81,261.79 166.71,262.15 166.71,262.5C166.71,262.84 166.8,263.19 166.92,263.53C167.05,263.89 167.26,264.23 167.49,264.57C167.73,264.93 168.03,265.26 168.33,265.6C168.64,265.95 168.98,266.3 169.33,266.64C169.69,266.99 170.06,267.33 170.44,267.67C170.83,268.02 171.24,268.37 171.65,268.71C172.07,269.06 172.5,269.4 172.92,269.75C173.34,270.09 173.77,270.43 174.17,270.78C174.57,271.12 174.96,271.47 175.32,271.82C175.66,272.16 175.99,272.5 176.27,272.85C176.54,273.19 176.78,273.54 176.99,273.89C177.18,274.23 177.35,274.57 177.48,274.92C177.61,275.26 177.71,275.61 177.79,275.96Q177.87,276.3 177.97,276.99Z" style="vector-effect: non-scaling-stroke; stroke-width: 2px; stroke: rgb(239, 85, 59); stroke-opacity: 1; fill: rgb(239, 85, 59); fill-opacity: 0.5;"/><g class="points"><path class="point" transform="translate(137.5,270.66)" d="M3,0A3,3 0 1,1 0,-3A3,3 0 0,1 3,0Z" style="opacity: 1; stroke-width: 0px; fill: rgb(239, 85, 59); fill-opacity: 1;"/><path class="point" transform="translate(132.27,269.66)" d="M3,0A3,3 0 1,1 0,-3A3,3 0 0,1 3,0Z" style="opacity: 1; stroke-width: 0px; fill: rgb(239, 85, 59); fill-opacity: 1;"/><path class="point" transform="translate(138.95,268.53)" d="M3,0A3,3 0 1,1 0,-3A3,3 0 0,1 3,0Z" style="opacity: 1; stroke-width: 0px; fill: rgb(239, 85, 59); fill-opacity: 1;"/><path class="point" transform="translate(131.21,268.53)" d="M3,0A3,3 0 1,1 0,-3A3,3 0 0,1 3,0Z" style="opacity: 1; stroke-width: 0px; fill: rgb(239, 85, 59); fill-opacity: 1;"/><path class="point" transform="translate(134,268.22)" d="M3,0A3,3 0 1,1 0,-3A3,3 0 0,1 3,0Z" style="opacity: 1; stroke-width: 0px; fill: rgb(239, 85, 59); fill-opacity: 1;"/><path class="point" transform="translate(137.88,267.83)" d="M3,0A3,3 0 1,1 0,-3A3,3 0 0,1 3,0Z" style="opacity: 1; stroke-width: 0px; fill: rgb(239, 85, 59); fill-opacity: 1;"/><path class="point" transform="translate(135.02,267.59)" d="M3,0A3,3 0 1,1 0,-3A3,3 0 0,1 3,0Z" style="opacity: 1; stroke-width: 0px; fill: rgb(239, 85, 59); fill-opacity: 1;"/><path class="point" transform="translate(136.87,267.35)" d="M3,0A3,3 0 1,1 0,-3A3,3 0 0,1 3,0Z" style="opacity: 1; stroke-width: 0px; fill: rgb(239, 85, 59); fill-opacity: 1;"/><path class="point" transform="translate(133.69,266.78)" d="M3,0A3,3 0 1,1 0,-3A3,3 0 0,1 3,0Z" style="opacity: 1; stroke-width: 0px; fill: rgb(239, 85, 59); fill-opacity: 1;"/><path class="point" transform="translate(131.75,266.66)" d="M3,0A3,3 0 1,1 0,-3A3,3 0 0,1 3,0Z" style="opacity: 1; stroke-width: 0px; fill: rgb(239, 85, 59); fill-opacity: 1;"/><path class="point" transform="translate(136.53,266.39)" d="M3,0A3,3 0 1,1 0,-3A3,3 0 0,1 3,0Z" style="opacity: 1; stroke-width: 0px; fill: rgb(239, 85, 59); fill-opacity: 1;"/><path class="point" transform="translate(133.58,265.98)" d="M3,0A3,3 0 1,1 0,-3A3,3 0 0,1 3,0Z" style="opacity: 1; stroke-width: 0px; fill: rgb(239, 85, 59); fill-opacity: 1;"/><path class="point" transform="translate(138.4,265.18)" d="M3,0A3,3 0 1,1 0,-3A3,3 0 0,1 3,0Z" style="opacity: 1; stroke-width: 0px; fill: rgb(239, 85, 59); fill-opacity: 1;"/><path class="point" transform="translate(130.03,263.79)" d="M3,0A3,3 0 1,1 0,-3A3,3 0 0,1 3,0Z" style="opacity: 1; stroke-width: 0px; fill: rgb(239, 85, 59); fill-opacity: 1;"/><path class="point" transform="translate(132.17,263.35)" d="M3,0A3,3 0 1,1 0,-3A3,3 0 0,1 3,0Z" style="opacity: 1; stroke-width: 0px; fill: rgb(239, 85, 59); fill-opacity: 1;"/><path class="point" transform="translate(139.92,263.32)" d="M3,0A3,3 0 1,1 0,-3A3,3 0 0,1 3,0Z" style="opacity: 1; stroke-width: 0px; fill: rgb(239, 85, 59); fill-opacity: 1;"/><path class="point" transform="translate(133.82,263.19)" d="M3,0A3,3 0 1,1 0,-3A3,3 0 0,1 3,0Z" style="opacity: 1; stroke-width: 0px; fill: rgb(239, 85, 59); fill-opacity: 1;"/><path class="point" transform="translate(130.06,262.99)" d="M3,0A3,3 0 1,1 0,-3A3,3 0 0,1 3,0Z" style="opacity: 1; stroke-width: 0px; fill: rgb(239, 85, 59); fill-opacity: 1;"/><path class="point" transform="translate(132.6,262.94)" d="M3,0A3,3 0 1,1 0,-3A3,3 0 0,1 3,0Z" style="opacity: 1; stroke-width: 0px; fill: rgb(239, 85, 59); fill-opacity: 1;"/><path class="point" transform="translate(135.04,262.74)" d="M3,0A3,3 0 1,1 0,-3A3,3 0 0,1 3,0Z" style="opacity: 1; stroke-width: 0px; fill: rgb(239, 85, 59); fill-opacity: 1;"/><path class="point" transform="translate(139.08,262.52)" d="M3,0A3,3 0 1,1 0,-3A3,3 0 0,1 3,0Z" style="opacity: 1; stroke-width: 0px; fill: rgb(239, 85, 59); fill-opacity: 1;"/><path class="point" transform="translate(136.08,262.48)" d="M3,0A3,3 0 1,1 0,-3A3,3 0 0,1 3,0Z" style="opacity: 1; stroke-width: 0px; fill: rgb(239, 85, 59); fill-opacity: 1;"/><path class="point" transform="translate(132.99,262.15)" d="M3,0A3,3 0 1,1 0,-3A3,3 0 0,1 3,0Z" style="opacity: 1; stroke-width: 0px; fill: rgb(239, 85, 59); fill-opacity: 1;"/><path class="point" transform="translate(128.85,262.05)" d="M3,0A3,3 0 1,1 0,-3A3,3 0 0,1 3,0Z" style="opacity: 1; stroke-width: 0px; fill: rgb(239, 85, 59); fill-opacity: 1;"/><path class="point" transform="translate(135.2,261.85)" d="M3,0A3,3 0 1,1 0,-3A3,3 0 0,1 3,0Z" style="opacity: 1; stroke-width: 0px; fill: rgb(239, 85, 59); fill-opacity: 1;"/><path class="point" transform="translate(133.21,261.84)" d="M3,0A3,3 0 1,1 0,-3A3,3 0 0,1 3,0Z" style="opacity: 1; stroke-width: 0px; fill: rgb(239, 85, 59); fill-opacity: 1;"/><path class="point" transform="translate(138.07,261.35)" d="M3,0A3,3 0 1,1 0,-3A3,3 0 0,1 3,0Z" style="opacity: 1; stroke-width: 0px; fill: rgb(239, 85, 59); fill-opacity: 1;"/><path class="point" transform="translate(134.65,261.24)" d="M3,0A3,3 0 1,1 0,-3A3,3 0 0,1 3,0Z" style="opacity: 1; stroke-width: 0px; fill: rgb(239, 85, 59); fill-opacity: 1;"/><path class="point" transform="translate(131.25,261.05)" d="M3,0A3,3 0 1,1 0,-3A3,3 0 0,1 3,0Z" style="opacity: 1; stroke-width: 0px; fill: rgb(239, 85, 59); fill-opacity: 1;"/><path class="point" transform="translate(130,260.65)" d="M3,0A3,3 0 1,1 0,-3A3,3 0 0,1 3,0Z" style="opacity: 1; stroke-width: 0px; fill: rgb(239, 85, 59); fill-opacity: 1;"/><path class="point" transform="translate(138.08,260.21)" d="M3,0A3,3 0 1,1 0,-3A3,3 0 0,1 3,0Z" style="opacity: 1; stroke-width: 0px; fill: rgb(239, 85, 59); fill-opacity: 1;"/><path class="point" transform="translate(130.75,259.55)" d="M3,0A3,3 0 1,1 0,-3A3,3 0 0,1 3,0Z" style="opacity: 1; stroke-width: 0px; fill: rgb(239, 85, 59); fill-opacity: 1;"/><path class="point" transform="translate(138.01,259.51)" d="M3,0A3,3 0 1,1 0,-3A3,3 0 0,1 3,0Z" style="opacity: 1; stroke-width: 0px; fill: rgb(239, 85, 59); fill-opacity: 1;"/><path class="point" transform="translate(136.24,259.08)" d="M3,0A3,3 0 1,1 0,-3A3,3 0 0,1 3,0Z" style="opacity: 1; stroke-width: 0px; fill: rgb(239, 85, 59); fill-opacity: 1;"/><path class="point" transform="translate(134.02,258.35)" d="M3,0A3,3 0 1,1 0,-3A3,3 0 0,1 3,0Z" style="opacity: 1; stroke-width: 0px; fill: rgb(239, 85, 59); fill-opacity: 1;"/><path class="point" transform="translate(132.87,257.59)" d="M3,0A3,3 0 1,1 0,-3A3,3 0 0,1 3,0Z" style="opacity: 1; stroke-width: 0px; fill: rgb(239, 85, 59); fill-opacity: 1;"/><path class="point" transform="translate(137.05,257.35)" d="M3,0A3,3 0 1,1 0,-3A3,3 0 0,1 3,0Z" style="opacity: 1; stroke-width: 0px; fill: rgb(239, 85, 59); fill-opacity: 1;"/><path class="point" transform="translate(134.78,256.28)" d="M3,0A3,3 0 1,1 0,-3A3,3 0 0,1 3,0Z" style="opacity: 1; stroke-width: 0px; fill: rgb(239, 85, 59); fill-opacity: 1;"/><path class="point" transform="translate(138.05,256.04)" d="M3,0A3,3 0 1,1 0,-3A3,3 0 0,1 3,0Z" style="opacity: 1; stroke-width: 0px; fill: rgb(239, 85, 59); fill-opacity: 1;"/><path class="point" transform="translate(131.7,253.94)" d="M3,0A3,3 0 1,1 0,-3A3,3 0 0,1 3,0Z" style="opacity: 1; stroke-width: 0px; fill: rgb(239, 85, 59); fill-opacity: 1;"/><path class="point" transform="translate(137.72,253.25)" d="M3,0A3,3 0 1,1 0,-3A3,3 0 0,1 3,0Z" style="opacity: 1; stroke-width: 0px; fill: rgb(239, 85, 59); fill-opacity: 1;"/><path class="point" transform="translate(134.9,252.91)" d="M3,0A3,3 0 1,1 0,-3A3,3 0 0,1 3,0Z" style="opacity: 1; stroke-width: 0px; fill: rgb(239, 85, 59); fill-opacity: 1;"/><path class="point" transform="translate(133.72,252.91)" d="M3,0A3,3 0 1,1 0,-3A3,3 0 0,1 3,0Z" style="opacity: 1; stroke-width: 0px; fill: rgb(239, 85, 59); fill-opacity: 1;"/><path class="point" transform="translate(131.5,252.65)" d="M3,0A3,3 0 1,1 0,-3A3,3 0 0,1 3,0Z" style="opacity: 1; stroke-width: 0px; fill: rgb(239, 85, 59); fill-opacity: 1;"/><path class="point" transform="translate(134.13,252.11)" d="M3,0A3,3 0 1,1 0,-3A3,3 0 0,1 3,0Z" style="opacity: 1; stroke-width: 0px; fill: rgb(239, 85, 59); fill-opacity: 1;"/><path class="point" transform="translate(137.03,250.47)" d="M3,0A3,3 0 1,1 0,-3A3,3 0 0,1 3,0Z" style="opacity: 1; stroke-width: 0px; fill: rgb(239, 85, 59); fill-opacity: 1;"/><path class="point" transform="translate(134.6,249.8)" d="M3,0A3,3 0 1,1 0,-3A3,3 0 0,1 3,0Z" style="opacity: 1; stroke-width: 0px; fill: rgb(239, 85, 59); fill-opacity: 1;"/><path class="point" transform="translate(133.34,248.75)" d="M3,0A3,3 0 1,1 0,-3A3,3 0 0,1 3,0Z" style="opacity: 1; stroke-width: 0px; fill: rgb(239, 85, 59); fill-opacity: 1;"/><path class="point" transform="translate(136.31,248.37)" d="M3,0A3,3 0 1,1 0,-3A3,3 0 0,1 3,0Z" style="opacity: 1; stroke-width: 0px; fill: rgb(239, 85, 59); fill-opacity: 1;"/><path class="point" transform="translate(134.09,239.83)" d="M3,0A3,3 0 1,1 0,-3A3,3 0 0,1 3,0Z" style="opacity: 1; stroke-width: 0px; fill: rgb(239, 85, 59); fill-opacity: 1;"/></g></g><g class="trace violins" style="opacity: 1;"><path class="violin" d="M295.62,275.71Q296.14,275.39 296.47,275.25C296.89,275.07 297.41,274.93 297.98,274.79C298.68,274.62 299.5,274.47 300.37,274.33C301.4,274.16 302.56,274.02 303.75,273.87C305.08,273.71 306.54,273.56 307.98,273.41C309.49,273.25 311.1,273.11 312.63,272.95C314.12,272.8 315.67,272.65 317.06,272.49C318.3,272.34 319.56,272.2 320.59,272.03C321.41,271.89 322.27,271.79 322.78,271.58C323.09,271.45 323.47,271.28 323.48,271.12C323.49,270.97 323.14,270.79 322.88,270.66C322.5,270.47 321.9,270.34 321.34,270.2C320.7,270.03 319.97,269.89 319.25,269.74C318.5,269.58 317.7,269.43 316.92,269.28C316.14,269.13 315.34,268.97 314.56,268.82C313.79,268.67 313.03,268.51 312.27,268.36C311.53,268.21 310.79,268.06 310.07,267.9C309.37,267.75 308.67,267.6 307.99,267.44C307.33,267.29 306.68,267.14 306.04,266.98C305.43,266.83 304.83,266.68 304.25,266.52C303.7,266.37 303.16,266.22 302.64,266.06C302.15,265.91 301.67,265.76 301.22,265.6C300.8,265.45 300.39,265.3 300,265.14C299.64,264.99 299.3,264.84 298.98,264.68C298.69,264.53 298.4,264.38 298.15,264.22C297.92,264.07 297.7,263.92 297.51,263.76C297.34,263.61 297.19,263.46 297.05,263.3C296.92,263.15 296.81,263 296.71,262.84C296.61,262.69 296.52,262.53 296.43,262.38C296.34,262.23 296.25,262.07 296.16,261.92C296.07,261.77 295.98,261.61 295.89,261.46C295.8,261.31 295.71,261.15 295.62,261C295.54,260.85 295.45,260.69 295.38,260.54C295.31,260.39 295.24,260.23 295.18,260.08C295.12,259.93 295.08,259.77 295.04,259.62C295,259.47 294.98,259.31 294.96,259.16C294.94,259.01 294.92,258.86 294.91,258.71C294.9,258.56 294.9,258.4 294.89,258.25C294.89,258.1 294.88,257.94 294.88,257.79C294.88,257.64 294.88,257.48 294.88,257.33C294.88,257.18 294.88,257.02 294.88,256.87C294.88,256.72 294.88,256.56 294.88,256.41C294.88,256.26 294.88,256.1 294.88,255.95C294.88,255.8 294.88,255.64 294.88,255.49C294.88,255.34 294.88,255.18 294.88,255.03C294.88,254.88 294.88,254.72 294.88,254.57C294.88,254.42 294.88,254.26 294.88,254.11C294.88,253.96 294.88,253.8 294.88,253.65C294.88,253.5 294.88,253.34 294.88,253.19C294.88,253.04 294.88,252.88 294.88,252.73C294.88,252.58 294.88,252.42 294.88,252.27C294.88,252.12 294.88,251.96 294.88,251.81C294.88,251.66 294.88,251.5 294.88,251.35C294.88,251.2 294.88,251.04 294.88,250.89C294.88,250.74 294.88,250.58 294.88,250.43C294.88,250.28 294.88,250.12 294.88,249.97C294.88,249.82 294.88,249.66 294.88,249.51C294.88,249.36 294.88,249.2 294.88,249.05C294.88,248.9 294.88,248.74 294.88,248.59C294.88,248.44 294.88,248.28 294.88,248.13C294.88,247.98 294.88,247.82 294.88,247.67C294.88,247.52 294.88,247.36 294.88,247.21C294.88,247.06 294.88,246.9 294.88,246.75C294.88,246.6 294.88,246.44 294.88,246.29C294.88,246.14 294.88,245.99 294.88,245.84C294.88,245.69 294.88,245.53 294.88,245.38C294.88,245.23 294.88,245.07 294.88,244.92C294.88,244.77 294.88,244.61 294.88,244.46C294.88,244.31 294.88,244.15 294.88,244C294.88,243.85 294.89,243.69 294.89,243.54C294.89,243.39 294.89,243.23 294.9,243.08C294.91,242.93 294.92,242.77 294.94,242.62C294.96,242.47 294.98,242.31 295.01,242.16C295.04,242.01 295.08,241.85 295.13,241.7C295.18,241.55 295.24,241.39 295.3,241.24C295.36,241.09 295.43,240.93 295.5,240.78C295.57,240.63 295.65,240.47 295.71,240.32C295.77,240.17 295.83,240.02 295.87,239.86C295.91,239.71 295.94,239.55 295.94,239.4C295.94,239.25 295.93,239.09 295.9,238.94C295.87,238.79 295.82,238.63 295.76,238.48C295.7,238.33 295.63,238.17 295.56,238.02C295.49,237.87 295.42,237.71 295.35,237.56C295.29,237.41 295.22,237.25 295.17,237.1C295.12,236.95 295.08,236.79 295.04,236.64C295.01,236.49 294.98,236.33 294.96,236.18C294.94,236.03 294.92,235.87 294.91,235.72C294.9,235.57 294.9,235.41 294.89,235.26C294.89,235.11 294.88,234.95 294.88,234.8C294.88,234.65 294.88,234.49 294.88,234.34C294.88,234.19 294.88,234.03 294.88,233.88C294.88,233.73 294.88,233.58 294.88,233.43C294.88,233.28 294.88,233.12 294.88,232.97C294.88,232.82 294.88,232.66 294.88,232.51C294.88,232.36 294.88,232.2 294.89,232.05C294.9,231.9 294.91,231.74 294.92,231.59C294.93,231.44 294.95,231.28 294.97,231.13C294.99,230.98 295.02,230.82 295.06,230.67C295.1,230.52 295.15,230.36 295.21,230.21C295.27,230.06 295.34,229.9 295.41,229.75C295.48,229.6 295.56,229.44 295.64,229.29C295.72,229.14 295.81,228.98 295.88,228.83C295.95,228.68 296.02,228.52 296.08,228.37C296.14,228.22 296.18,228.06 296.22,227.91C296.26,227.76 296.28,227.6 296.3,227.45C296.32,227.3 296.33,227.14 296.33,226.99C296.33,226.84 296.33,226.68 296.32,226.53C296.31,226.38 296.29,226.22 296.27,226.07C296.24,225.92 296.21,225.76 296.17,225.61C296.12,225.46 296.06,225.3 296,225.15C295.93,225 295.86,224.84 295.78,224.69C295.7,224.54 295.62,224.38 295.54,224.23C295.46,224.08 295.39,223.92 295.32,223.77C295.25,223.62 295.19,223.46 295.14,223.31Q295.09,223.16 295.02,222.85L294.73,222.85Q294.66,223.16 294.61,223.31C294.56,223.46 294.5,223.62 294.43,223.77C294.36,223.92 294.29,224.08 294.21,224.23C294.13,224.38 294.05,224.54 293.97,224.69C293.89,224.84 293.82,225 293.75,225.15C293.69,225.3 293.63,225.46 293.58,225.61C293.54,225.76 293.51,225.92 293.48,226.07C293.46,226.22 293.44,226.38 293.43,226.53C293.42,226.68 293.42,226.84 293.42,226.99C293.42,227.14 293.43,227.3 293.45,227.45C293.47,227.6 293.49,227.76 293.53,227.91C293.57,228.06 293.61,228.22 293.67,228.37C293.73,228.52 293.8,228.68 293.87,228.83C293.94,228.98 294.03,229.14 294.11,229.29C294.19,229.44 294.27,229.6 294.34,229.75C294.41,229.9 294.48,230.06 294.54,230.21C294.6,230.36 294.65,230.52 294.69,230.67C294.73,230.82 294.76,230.98 294.78,231.13C294.8,231.28 294.82,231.44 294.83,231.59C294.84,231.74 294.85,231.9 294.86,232.05C294.87,232.2 294.87,232.36 294.87,232.51C294.87,232.66 294.87,232.82 294.87,232.97C294.87,233.12 294.87,233.28 294.87,233.43C294.87,233.58 294.87,233.73 294.87,233.88C294.87,234.03 294.87,234.19 294.87,234.34C294.87,234.49 294.87,234.65 294.87,234.8C294.87,234.95 294.86,235.11 294.86,235.26C294.85,235.41 294.85,235.57 294.84,235.72C294.83,235.87 294.81,236.03 294.79,236.18C294.77,236.33 294.74,236.49 294.71,236.64C294.67,236.79 294.63,236.95 294.58,237.1C294.53,237.25 294.46,237.41 294.4,237.56C294.33,237.71 294.26,237.87 294.19,238.02C294.12,238.17 294.05,238.33 293.99,238.48C293.93,238.63 293.88,238.79 293.85,238.94C293.82,239.09 293.81,239.25 293.81,239.4C293.81,239.55 293.84,239.71 293.88,239.86C293.92,240.02 293.98,240.17 294.04,240.32C294.1,240.47 294.18,240.63 294.25,240.78C294.32,240.93 294.39,241.09 294.45,241.24C294.51,241.39 294.57,241.55 294.62,241.7C294.67,241.85 294.71,242.01 294.74,242.16C294.77,242.31 294.79,242.47 294.81,242.62C294.83,242.77 294.84,242.93 294.85,243.08C294.86,243.23 294.86,243.39 294.86,243.54C294.86,243.69 294.87,243.85 294.87,244C294.87,244.15 294.87,244.31 294.87,244.46C294.87,244.61 294.87,244.77 294.87,244.92C294.87,245.07 294.87,245.23 294.87,245.38C294.87,245.53 294.87,245.69 294.87,245.84C294.87,245.99 294.87,246.14 294.87,246.29C294.87,246.44 294.87,246.6 294.87,246.75C294.87,246.9 294.87,247.06 294.87,247.21C294.87,247.36 294.87,247.52 294.87,247.67C294.87,247.82 294.87,247.98 294.87,248.13C294.87,248.28 294.87,248.44 294.87,248.59C294.87,248.74 294.87,248.9 294.87,249.05C294.87,249.2 294.87,249.36 294.87,249.51C294.87,249.66 294.87,249.82 294.87,249.97C294.87,250.12 294.88,250.28 294.88,250.43C294.88,250.58 294.88,250.74 294.88,250.89C294.88,251.04 294.88,251.2 294.88,251.35C294.88,251.5 294.87,251.66 294.87,251.81C294.87,251.96 294.87,252.12 294.87,252.27C294.87,252.42 294.87,252.58 294.87,252.73C294.87,252.88 294.87,253.04 294.87,253.19C294.87,253.34 294.87,253.5 294.87,253.65C294.87,253.8 294.87,253.96 294.87,254.11C294.87,254.26 294.87,254.42 294.87,254.57C294.87,254.72 294.87,254.88 294.87,255.03C294.87,255.18 294.87,255.34 294.87,255.49C294.87,255.64 294.87,255.8 294.87,255.95C294.87,256.1 294.87,256.26 294.87,256.41C294.87,256.56 294.87,256.72 294.87,256.87C294.87,257.02 294.87,257.18 294.87,257.33C294.87,257.48 294.87,257.64 294.87,257.79C294.87,257.94 294.86,258.1 294.86,258.25C294.85,258.4 294.85,258.56 294.84,258.71C294.83,258.86 294.81,259.01 294.79,259.16C294.77,259.31 294.75,259.47 294.71,259.62C294.67,259.77 294.63,259.93 294.57,260.08C294.51,260.23 294.44,260.39 294.37,260.54C294.3,260.69 294.21,260.85 294.13,261C294.04,261.15 293.95,261.31 293.86,261.46C293.77,261.61 293.68,261.77 293.59,261.92C293.5,262.07 293.41,262.23 293.32,262.38C293.23,262.53 293.14,262.69 293.04,262.84C292.94,263 292.83,263.15 292.7,263.3C292.56,263.46 292.41,263.61 292.24,263.76C292.05,263.92 291.83,264.07 291.6,264.22C291.35,264.38 291.06,264.53 290.77,264.68C290.45,264.84 290.11,264.99 289.75,265.14C289.36,265.3 288.95,265.45 288.53,265.6C288.08,265.76 287.6,265.91 287.11,266.06C286.59,266.22 286.05,266.37 285.5,266.52C284.92,266.68 284.32,266.83 283.71,266.98C283.07,267.14 282.42,267.29 281.76,267.44C281.08,267.6 280.38,267.75 279.68,267.9C278.96,268.06 278.22,268.21 277.48,268.36C276.72,268.51 275.96,268.67 275.19,268.82C274.41,268.97 273.61,269.13 272.83,269.28C272.05,269.43 271.25,269.58 270.5,269.74C269.78,269.89 269.05,270.03 268.41,270.2C267.85,270.34 267.25,270.47 266.87,270.66C266.61,270.79 266.26,270.97 266.27,271.12C266.28,271.28 266.66,271.45 266.97,271.58C267.48,271.79 268.34,271.89 269.16,272.03C270.19,272.2 271.45,272.34 272.69,272.49C274.08,272.65 275.63,272.8 277.12,272.95C278.65,273.11 280.26,273.25 281.77,273.41C283.21,273.56 284.67,273.71 286,273.87C287.19,274.02 288.35,274.16 289.38,274.33C290.25,274.47 291.07,274.62 291.77,274.79C292.34,274.93 292.86,275.07 293.28,275.25Q293.61,275.39 294.13,275.71Z" style="vector-effect: non-scaling-stroke; stroke-width: 2px; stroke: rgb(0, 204, 150); stroke-opacity: 1; fill: rgb(0, 204, 150); fill-opacity: 0.5;"/><g class="points"><path class="point" transform="translate(254.41,272.93)" d="M3,0A3,3 0 1,1 0,-3A3,3 0 0,1 3,0Z" style="opacity: 1; stroke-width: 0px; fill: rgb(0, 204, 150); fill-opacity: 1;"/><path class="point" transform="translate(248.71,272.7)" d="M3,0A3,3 0 1,1 0,-3A3,3 0 0,1 3,0Z" style="opacity: 1; stroke-width: 0px; fill: rgb(0, 204, 150); fill-opacity: 1;"/><path class="point" transform="translate(256.11,272.43)" d="M3,0A3,3 0 1,1 0,-3A3,3 0 0,1 3,0Z" style="opacity: 1; stroke-width: 0px; fill: rgb(0, 204, 150); fill-opacity: 1;"/><path class="point" transform="translate(247.44,272.4)" d="M3,0A3,3 0 1,1 0,-3A3,3 0 0,1 3,0Z" style="opacity: 1; stroke-width: 0px; fill: rgb(0, 204, 150); fill-opacity: 1;"/><path class="point" transform="translate(250.58,272.3)" d="M3,0A3,3 0 1,1 0,-3A3,3 0 0,1 3,0Z" style="opacity: 1; stroke-width: 0px; fill: rgb(0, 204, 150); fill-opacity: 1;"/><path class="point" transform="translate(254.87,272.15)" d="M3,0A3,3 0 1,1 0,-3A3,3 0 0,1 3,0Z" style="opacity: 1; stroke-width: 0px; fill: rgb(0, 204, 150); fill-opacity: 1;"/><path class="point" transform="translate(251.74,272.13)" d="M3,0A3,3 0 1,1 0,-3A3,3 0 0,1 3,0Z" style="opacity: 1; stroke-width: 0px; fill: rgb(0, 204, 150); fill-opacity: 1;"/><path class="point" transform="translate(254.04,272.08)" d="M3,0A3,3 0 1,1 0,-3A3,3 0 0,1 3,0Z" style="opacity: 1; stroke-width: 0px; fill: rgb(0, 204, 150); fill-opacity: 1;"/><path class="point" transform="translate(249.67,271.96)" d="M3,0A3,3 0 1,1 0,-3A3,3 0 0,1 3,0Z" style="opacity: 1; stroke-width: 0px; fill: rgb(0, 204, 150); fill-opacity: 1;"/><path class="point" transform="translate(246.32,271.95)" d="M3,0A3,3 0 1,1 0,-3A3,3 0 0,1 3,0Z" style="opacity: 1; stroke-width: 0px; fill: rgb(0, 204, 150); fill-opacity: 1;"/><path class="point" transform="translate(254.26,271.79)" d="M3,0A3,3 0 1,1 0,-3A3,3 0 0,1 3,0Z" style="opacity: 1; stroke-width: 0px; fill: rgb(0, 204, 150); fill-opacity: 1;"/><path class="point" transform="translate(249.37,271.76)" d="M3,0A3,3 0 1,1 0,-3A3,3 0 0,1 3,0Z" style="opacity: 1; stroke-width: 0px; fill: rgb(0, 204, 150); fill-opacity: 1;"/><path class="point" transform="translate(256.86,271.75)" d="M3,0A3,3 0 1,1 0,-3A3,3 0 0,1 3,0Z" style="opacity: 1; stroke-width: 0px; fill: rgb(0, 204, 150); fill-opacity: 1;"/><path class="point" transform="translate(245.17,271.73)" d="M3,0A3,3 0 1,1 0,-3A3,3 0 0,1 3,0Z" style="opacity: 1; stroke-width: 0px; fill: rgb(0, 204, 150); fill-opacity: 1;"/><path class="point" transform="translate(248.85,271.72)" d="M3,0A3,3 0 1,1 0,-3A3,3 0 0,1 3,0Z" style="opacity: 1; stroke-width: 0px; fill: rgb(0, 204, 150); fill-opacity: 1;"/><path class="point" transform="translate(256.95,271.72)" d="M3,0A3,3 0 1,1 0,-3A3,3 0 0,1 3,0Z" style="opacity: 1; stroke-width: 0px; fill: rgb(0, 204, 150); fill-opacity: 1;"/><path class="point" transform="translate(250.59,271.58)" d="M3,0A3,3 0 1,1 0,-3A3,3 0 0,1 3,0Z" style="opacity: 1; stroke-width: 0px; fill: rgb(0, 204, 150); fill-opacity: 1;"/><path class="point" transform="translate(247.6,271.49)" d="M3,0A3,3 0 1,1 0,-3A3,3 0 0,1 3,0Z" style="opacity: 1; stroke-width: 0px; fill: rgb(0, 204, 150); fill-opacity: 1;"/><path class="point" transform="translate(250.28,271.25)" d="M3,0A3,3 0 1,1 0,-3A3,3 0 0,1 3,0Z" style="opacity: 1; stroke-width: 0px; fill: rgb(0, 204, 150); fill-opacity: 1;"/><path class="point" transform="translate(251.86,270.75)" d="M3,0A3,3 0 1,1 0,-3A3,3 0 0,1 3,0Z" style="opacity: 1; stroke-width: 0px; fill: rgb(0, 204, 150); fill-opacity: 1;"/><path class="point" transform="translate(254.17,270.69)" d="M3,0A3,3 0 1,1 0,-3A3,3 0 0,1 3,0Z" style="opacity: 1; stroke-width: 0px; fill: rgb(0, 204, 150); fill-opacity: 1;"/><path class="point" transform="translate(252.51,270.61)" d="M3,0A3,3 0 1,1 0,-3A3,3 0 0,1 3,0Z" style="opacity: 1; stroke-width: 0px; fill: rgb(0, 204, 150); fill-opacity: 1;"/><path class="point" transform="translate(250.59,270.41)" d="M3,0A3,3 0 1,1 0,-3A3,3 0 0,1 3,0Z" style="opacity: 1; stroke-width: 0px; fill: rgb(0, 204, 150); fill-opacity: 1;"/><path class="point" transform="translate(247.88,270.41)" d="M3,0A3,3 0 1,1 0,-3A3,3 0 0,1 3,0Z" style="opacity: 1; stroke-width: 0px; fill: rgb(0, 204, 150); fill-opacity: 1;"/><path class="point" transform="translate(251.95,270.39)" d="M3,0A3,3 0 1,1 0,-3A3,3 0 0,1 3,0Z" style="opacity: 1; stroke-width: 0px; fill: rgb(0, 204, 150); fill-opacity: 1;"/><path class="point" transform="translate(250.29,270.26)" d="M3,0A3,3 0 1,1 0,-3A3,3 0 0,1 3,0Z" style="opacity: 1; stroke-width: 0px; fill: rgb(0, 204, 150); fill-opacity: 1;"/><path class="point" transform="translate(254.49,270.11)" d="M3,0A3,3 0 1,1 0,-3A3,3 0 0,1 3,0Z" style="opacity: 1; stroke-width: 0px; fill: rgb(0, 204, 150); fill-opacity: 1;"/><path class="point" transform="translate(251.48,270.03)" d="M3,0A3,3 0 1,1 0,-3A3,3 0 0,1 3,0Z" style="opacity: 1; stroke-width: 0px; fill: rgb(0, 204, 150); fill-opacity: 1;"/><path class="point" transform="translate(248.96,269.79)" d="M3,0A3,3 0 1,1 0,-3A3,3 0 0,1 3,0Z" style="opacity: 1; stroke-width: 0px; fill: rgb(0, 204, 150); fill-opacity: 1;"/><path class="point" transform="translate(247.76,269.75)" d="M3,0A3,3 0 1,1 0,-3A3,3 0 0,1 3,0Z" style="opacity: 1; stroke-width: 0px; fill: rgb(0, 204, 150); fill-opacity: 1;"/><path class="point" transform="translate(254.42,269.63)" d="M3,0A3,3 0 1,1 0,-3A3,3 0 0,1 3,0Z" style="opacity: 1; stroke-width: 0px; fill: rgb(0, 204, 150); fill-opacity: 1;"/><path class="point" transform="translate(248.28,269.42)" d="M3,0A3,3 0 1,1 0,-3A3,3 0 0,1 3,0Z" style="opacity: 1; stroke-width: 0px; fill: rgb(0, 204, 150); fill-opacity: 1;"/><path class="point" transform="translate(254.36,269.25)" d="M3,0A3,3 0 1,1 0,-3A3,3 0 0,1 3,0Z" style="opacity: 1; stroke-width: 0px; fill: rgb(0, 204, 150); fill-opacity: 1;"/><path class="point" transform="translate(252.89,268.76)" d="M3,0A3,3 0 1,1 0,-3A3,3 0 0,1 3,0Z" style="opacity: 1; stroke-width: 0px; fill: rgb(0, 204, 150); fill-opacity: 1;"/><path class="point" transform="translate(250.7,268.68)" d="M3,0A3,3 0 1,1 0,-3A3,3 0 0,1 3,0Z" style="opacity: 1; stroke-width: 0px; fill: rgb(0, 204, 150); fill-opacity: 1;"/><path class="point" transform="translate(249.46,268.42)" d="M3,0A3,3 0 1,1 0,-3A3,3 0 0,1 3,0Z" style="opacity: 1; stroke-width: 0px; fill: rgb(0, 204, 150); fill-opacity: 1;"/><path class="point" transform="translate(253.62,268.23)" d="M3,0A3,3 0 1,1 0,-3A3,3 0 0,1 3,0Z" style="opacity: 1; stroke-width: 0px; fill: rgb(0, 204, 150); fill-opacity: 1;"/><path class="point" transform="translate(251.58,267.88)" d="M3,0A3,3 0 1,1 0,-3A3,3 0 0,1 3,0Z" style="opacity: 1; stroke-width: 0px; fill: rgb(0, 204, 150); fill-opacity: 1;"/><path class="point" transform="translate(254.31,267.83)" d="M3,0A3,3 0 1,1 0,-3A3,3 0 0,1 3,0Z" style="opacity: 1; stroke-width: 0px; fill: rgb(0, 204, 150); fill-opacity: 1;"/><path class="point" transform="translate(249.08,267.82)" d="M3,0A3,3 0 1,1 0,-3A3,3 0 0,1 3,0Z" style="opacity: 1; stroke-width: 0px; fill: rgb(0, 204, 150); fill-opacity: 1;"/><path class="point" transform="translate(253.86,267.69)" d="M3,0A3,3 0 1,1 0,-3A3,3 0 0,1 3,0Z" style="opacity: 1; stroke-width: 0px; fill: rgb(0, 204, 150); fill-opacity: 1;"/><path class="point" transform="translate(251.77,266.81)" d="M3,0A3,3 0 1,1 0,-3A3,3 0 0,1 3,0Z" style="opacity: 1; stroke-width: 0px; fill: rgb(0, 204, 150); fill-opacity: 1;"/><path class="point" transform="translate(251.54,266.61)" d="M3,0A3,3 0 1,1 0,-3A3,3 0 0,1 3,0Z" style="opacity: 1; stroke-width: 0px; fill: rgb(0, 204, 150); fill-opacity: 1;"/><path class="point" transform="translate(251.05,265.76)" d="M3,0A3,3 0 1,1 0,-3A3,3 0 0,1 3,0Z" style="opacity: 1; stroke-width: 0px; fill: rgb(0, 204, 150); fill-opacity: 1;"/><path class="point" transform="translate(251.61,265.74)" d="M3,0A3,3 0 1,1 0,-3A3,3 0 0,1 3,0Z" style="opacity: 1; stroke-width: 0px; fill: rgb(0, 204, 150); fill-opacity: 1;"/><path class="point" transform="translate(252.55,264.46)" d="M3,0A3,3 0 1,1 0,-3A3,3 0 0,1 3,0Z" style="opacity: 1; stroke-width: 0px; fill: rgb(0, 204, 150); fill-opacity: 1;"/><path class="point" transform="translate(251.77,262.31)" d="M3,0A3,3 0 1,1 0,-3A3,3 0 0,1 3,0Z" style="opacity: 1; stroke-width: 0px; fill: rgb(0, 204, 150); fill-opacity: 1;"/><path class="point" transform="translate(251.37,239.34)" d="M3,0A3,3 0 1,1 0,-3A3,3 0 0,1 3,0Z" style="opacity: 1; stroke-width: 0px; fill: rgb(0, 204, 150); fill-opacity: 1;"/><path class="point" transform="translate(252.32,228.07)" d="M3,0A3,3 0 1,1 0,-3A3,3 0 0,1 3,0Z" style="opacity: 1; stroke-width: 0px; fill: rgb(0, 204, 150); fill-opacity: 1;"/><path class="point" transform="translate(251.62,225.63)" d="M3,0A3,3 0 1,1 0,-3A3,3 0 0,1 3,0Z" style="opacity: 1; stroke-width: 0px; fill: rgb(0, 204, 150); fill-opacity: 1;"/></g></g><g class="trace violins" style="opacity: 1;"><path class="violin" d="M411.68,271.11Q411.71,269.2 411.74,268.25C411.77,267.3 411.81,266.35 411.85,265.4C411.9,264.45 411.94,263.5 412.01,262.55C412.08,261.6 412.16,260.65 412.25,259.7C412.34,258.75 412.45,257.8 412.57,256.85C412.69,255.9 412.82,254.95 412.95,254C413.09,253.05 413.24,252.1 413.38,251.15C413.53,250.2 413.68,249.25 413.82,248.3C413.96,247.35 414.1,246.4 414.23,245.45C414.36,244.5 414.48,243.55 414.58,242.6C414.68,241.65 414.77,240.69 414.84,239.74C414.91,238.79 414.95,237.84 414.99,236.89C415.03,235.94 415.05,234.99 415.06,234.04C415.07,233.09 415.06,232.14 415.05,231.19C415.04,230.24 415.02,229.29 415.01,228.34C414.99,227.39 414.98,226.44 414.96,225.49C414.94,224.54 414.92,223.59 414.91,222.64C414.9,221.69 414.9,220.74 414.89,219.79C414.88,218.84 414.88,217.89 414.86,216.94C414.84,215.99 414.82,215.04 414.78,214.09C414.74,213.14 414.68,212.19 414.61,211.24C414.54,210.29 414.46,209.33 414.36,208.38C414.26,207.43 414.14,206.48 414.02,205.53C413.9,204.58 413.77,203.63 413.65,202.68C413.53,201.73 413.41,200.78 413.3,199.83C413.2,198.88 413.1,197.93 413.02,196.98C412.94,196.03 412.86,195.08 412.8,194.13C412.74,193.18 412.7,192.23 412.65,191.28C412.6,190.33 412.56,189.38 412.52,188.43C412.48,187.48 412.44,186.53 412.4,185.58C412.36,184.63 412.31,183.68 412.26,182.73C412.21,181.78 412.17,180.83 412.12,179.88C412.07,178.93 412.02,177.97 411.98,177.02C411.94,176.07 411.9,175.12 411.86,174.17C411.83,173.22 411.8,172.27 411.77,171.32C411.74,170.37 411.72,169.42 411.7,168.47Q411.68,167.52 411.66,165.62L411.59,165.62Q411.57,167.52 411.55,168.47C411.53,169.42 411.51,170.37 411.48,171.32C411.45,172.27 411.42,173.22 411.39,174.17C411.35,175.12 411.31,176.07 411.27,177.02C411.23,177.97 411.18,178.93 411.13,179.88C411.08,180.83 411.04,181.78 410.99,182.73C410.94,183.68 410.89,184.63 410.85,185.58C410.81,186.53 410.77,187.48 410.73,188.43C410.69,189.38 410.65,190.33 410.6,191.28C410.55,192.23 410.51,193.18 410.45,194.13C410.39,195.08 410.31,196.03 410.23,196.98C410.15,197.93 410.05,198.88 409.95,199.83C409.84,200.78 409.72,201.73 409.6,202.68C409.48,203.63 409.35,204.58 409.23,205.53C409.11,206.48 408.99,207.43 408.89,208.38C408.79,209.33 408.71,210.29 408.64,211.24C408.57,212.19 408.51,213.14 408.47,214.09C408.43,215.04 408.41,215.99 408.39,216.94C408.37,217.89 408.37,218.84 408.36,219.79C408.35,220.74 408.35,221.69 408.34,222.64C408.33,223.59 408.31,224.54 408.29,225.49C408.27,226.44 408.26,227.39 408.24,228.34C408.23,229.29 408.21,230.24 408.2,231.19C408.19,232.14 408.18,233.09 408.19,234.04C408.2,234.99 408.22,235.94 408.26,236.89C408.3,237.84 408.34,238.79 408.41,239.74C408.48,240.69 408.57,241.65 408.67,242.6C408.77,243.55 408.89,244.5 409.02,245.45C409.15,246.4 409.29,247.35 409.43,248.3C409.57,249.25 409.72,250.2 409.87,251.15C410.01,252.1 410.16,253.05 410.3,254C410.43,254.95 410.56,255.9 410.68,256.85C410.8,257.8 410.91,258.75 411,259.7C411.09,260.65 411.17,261.6 411.24,262.55C411.31,263.5 411.35,264.45 411.4,265.4C411.44,266.35 411.48,267.3 411.51,268.25Q411.54,269.2 411.57,271.11Z" style="vector-effect: non-scaling-stroke; stroke-width: 2px; stroke: rgb(171, 99, 250); stroke-opacity: 1; fill: rgb(171, 99, 250); fill-opacity: 0.5;"/><g class="points"><path class="point" transform="translate(371.77,253.81)" d="M3,0A3,3 0 1,1 0,-3A3,3 0 0,1 3,0Z" style="opacity: 1; stroke-width: 0px; fill: rgb(171, 99, 250); fill-opacity: 1;"/><path class="point" transform="translate(364.83,252.44)" d="M3,0A3,3 0 1,1 0,-3A3,3 0 0,1 3,0Z" style="opacity: 1; stroke-width: 0px; fill: rgb(171, 99, 250); fill-opacity: 1;"/><path class="point" transform="translate(373.59,249.18)" d="M3,0A3,3 0 1,1 0,-3A3,3 0 0,1 3,0Z" style="opacity: 1; stroke-width: 0px; fill: rgb(171, 99, 250); fill-opacity: 1;"/><path class="point" transform="translate(363.1,245.44)" d="M3,0A3,3 0 1,1 0,-3A3,3 0 0,1 3,0Z" style="opacity: 1; stroke-width: 0px; fill: rgb(171, 99, 250); fill-opacity: 1;"/><path class="point" transform="translate(367.16,245.4)" d="M3,0A3,3 0 1,1 0,-3A3,3 0 0,1 3,0Z" style="opacity: 1; stroke-width: 0px; fill: rgb(171, 99, 250); fill-opacity: 1;"/><path class="point" transform="translate(372.13,245.3)" d="M3,0A3,3 0 1,1 0,-3A3,3 0 0,1 3,0Z" style="opacity: 1; stroke-width: 0px; fill: rgb(171, 99, 250); fill-opacity: 1;"/><path class="point" transform="translate(368.47,244.36)" d="M3,0A3,3 0 1,1 0,-3A3,3 0 0,1 3,0Z" style="opacity: 1; stroke-width: 0px; fill: rgb(171, 99, 250); fill-opacity: 1;"/><path class="point" transform="translate(370.72,243.41)" d="M3,0A3,3 0 1,1 0,-3A3,3 0 0,1 3,0Z" style="opacity: 1; stroke-width: 0px; fill: rgb(171, 99, 250); fill-opacity: 1;"/><path class="point" transform="translate(366.1,243.17)" d="M3,0A3,3 0 1,1 0,-3A3,3 0 0,1 3,0Z" style="opacity: 1; stroke-width: 0px; fill: rgb(171, 99, 250); fill-opacity: 1;"/><path class="point" transform="translate(362.7,240.7)" d="M3,0A3,3 0 1,1 0,-3A3,3 0 0,1 3,0Z" style="opacity: 1; stroke-width: 0px; fill: rgb(171, 99, 250); fill-opacity: 1;"/><path class="point" transform="translate(370.85,239.91)" d="M3,0A3,3 0 1,1 0,-3A3,3 0 0,1 3,0Z" style="opacity: 1; stroke-width: 0px; fill: rgb(171, 99, 250); fill-opacity: 1;"/><path class="point" transform="translate(366.15,238.99)" d="M3,0A3,3 0 1,1 0,-3A3,3 0 0,1 3,0Z" style="opacity: 1; stroke-width: 0px; fill: rgb(171, 99, 250); fill-opacity: 1;"/><path class="point" transform="translate(373.34,236.8)" d="M3,0A3,3 0 1,1 0,-3A3,3 0 0,1 3,0Z" style="opacity: 1; stroke-width: 0px; fill: rgb(171, 99, 250); fill-opacity: 1;"/><path class="point" transform="translate(361.95,236.71)" d="M3,0A3,3 0 1,1 0,-3A3,3 0 0,1 3,0Z" style="opacity: 1; stroke-width: 0px; fill: rgb(171, 99, 250); fill-opacity: 1;"/><path class="point" transform="translate(364.26,236.7)" d="M3,0A3,3 0 1,1 0,-3A3,3 0 0,1 3,0Z" style="opacity: 1; stroke-width: 0px; fill: rgb(171, 99, 250); fill-opacity: 1;"/><path class="point" transform="translate(375.68,236.03)" d="M3,0A3,3 0 1,1 0,-3A3,3 0 0,1 3,0Z" style="opacity: 1; stroke-width: 0px; fill: rgb(171, 99, 250); fill-opacity: 1;"/><path class="point" transform="translate(366.75,234.72)" d="M3,0A3,3 0 1,1 0,-3A3,3 0 0,1 3,0Z" style="opacity: 1; stroke-width: 0px; fill: rgb(171, 99, 250); fill-opacity: 1;"/><path class="point" transform="translate(361.57,232.39)" d="M3,0A3,3 0 1,1 0,-3A3,3 0 0,1 3,0Z" style="opacity: 1; stroke-width: 0px; fill: rgb(171, 99, 250); fill-opacity: 1;"/><path class="point" transform="translate(366.12,231.04)" d="M3,0A3,3 0 1,1 0,-3A3,3 0 0,1 3,0Z" style="opacity: 1; stroke-width: 0px; fill: rgb(171, 99, 250); fill-opacity: 1;"/><path class="point" transform="translate(368.56,230.83)" d="M3,0A3,3 0 1,1 0,-3A3,3 0 0,1 3,0Z" style="opacity: 1; stroke-width: 0px; fill: rgb(171, 99, 250); fill-opacity: 1;"/><path class="point" transform="translate(372.19,230.43)" d="M3,0A3,3 0 1,1 0,-3A3,3 0 0,1 3,0Z" style="opacity: 1; stroke-width: 0px; fill: rgb(171, 99, 250); fill-opacity: 1;"/><path class="point" transform="translate(369.48,229.45)" d="M3,0A3,3 0 1,1 0,-3A3,3 0 0,1 3,0Z" style="opacity: 1; stroke-width: 0px; fill: rgb(171, 99, 250); fill-opacity: 1;"/><path class="point" transform="translate(366.68,228.35)" d="M3,0A3,3 0 1,1 0,-3A3,3 0 0,1 3,0Z" style="opacity: 1; stroke-width: 0px; fill: rgb(171, 99, 250); fill-opacity: 1;"/><path class="point" transform="translate(362.6,227.23)" d="M3,0A3,3 0 1,1 0,-3A3,3 0 0,1 3,0Z" style="opacity: 1; stroke-width: 0px; fill: rgb(171, 99, 250); fill-opacity: 1;"/><path class="point" transform="translate(368.7,226.42)" d="M3,0A3,3 0 1,1 0,-3A3,3 0 0,1 3,0Z" style="opacity: 1; stroke-width: 0px; fill: rgb(171, 99, 250); fill-opacity: 1;"/><path class="point" transform="translate(366.72,226.15)" d="M3,0A3,3 0 1,1 0,-3A3,3 0 0,1 3,0Z" style="opacity: 1; stroke-width: 0px; fill: rgb(171, 99, 250); fill-opacity: 1;"/><path class="point" transform="translate(371.9,222.06)" d="M3,0A3,3 0 1,1 0,-3A3,3 0 0,1 3,0Z" style="opacity: 1; stroke-width: 0px; fill: rgb(171, 99, 250); fill-opacity: 1;"/><path class="point" transform="translate(368.15,221.16)" d="M3,0A3,3 0 1,1 0,-3A3,3 0 0,1 3,0Z" style="opacity: 1; stroke-width: 0px; fill: rgb(171, 99, 250); fill-opacity: 1;"/><path class="point" transform="translate(364.34,220.08)" d="M3,0A3,3 0 1,1 0,-3A3,3 0 0,1 3,0Z" style="opacity: 1; stroke-width: 0px; fill: rgb(171, 99, 250); fill-opacity: 1;"/><path class="point" transform="translate(362.46,219.62)" d="M3,0A3,3 0 1,1 0,-3A3,3 0 0,1 3,0Z" style="opacity: 1; stroke-width: 0px; fill: rgb(171, 99, 250); fill-opacity: 1;"/><path class="point" transform="translate(372.41,217.89)" d="M3,0A3,3 0 1,1 0,-3A3,3 0 0,1 3,0Z" style="opacity: 1; stroke-width: 0px; fill: rgb(171, 99, 250); fill-opacity: 1;"/><path class="point" transform="translate(362.22,216.89)" d="M3,0A3,3 0 1,1 0,-3A3,3 0 0,1 3,0Z" style="opacity: 1; stroke-width: 0px; fill: rgb(171, 99, 250); fill-opacity: 1;"/><path class="point" transform="translate(373.44,214.21)" d="M3,0A3,3 0 1,1 0,-3A3,3 0 0,1 3,0Z" style="opacity: 1; stroke-width: 0px; fill: rgb(171, 99, 250); fill-opacity: 1;"/><path class="point" transform="translate(370.44,214.11)" d="M3,0A3,3 0 1,1 0,-3A3,3 0 0,1 3,0Z" style="opacity: 1; stroke-width: 0px; fill: rgb(171, 99, 250); fill-opacity: 1;"/><path class="point" transform="translate(366.51,213.39)" d="M3,0A3,3 0 1,1 0,-3A3,3 0 0,1 3,0Z" style="opacity: 1; stroke-width: 0px; fill: rgb(171, 99, 250); fill-opacity: 1;"/><path class="point" transform="translate(364.27,212.45)" d="M3,0A3,3 0 1,1 0,-3A3,3 0 0,1 3,0Z" style="opacity: 1; stroke-width: 0px; fill: rgb(171, 99, 250); fill-opacity: 1;"/><path class="point" transform="translate(372.09,211.92)" d="M3,0A3,3 0 1,1 0,-3A3,3 0 0,1 3,0Z" style="opacity: 1; stroke-width: 0px; fill: rgb(171, 99, 250); fill-opacity: 1;"/><path class="point" transform="translate(367.81,211.85)" d="M3,0A3,3 0 1,1 0,-3A3,3 0 0,1 3,0Z" style="opacity: 1; stroke-width: 0px; fill: rgb(171, 99, 250); fill-opacity: 1;"/><path class="point" transform="translate(374.45,210.65)" d="M3,0A3,3 0 1,1 0,-3A3,3 0 0,1 3,0Z" style="opacity: 1; stroke-width: 0px; fill: rgb(171, 99, 250); fill-opacity: 1;"/><path class="point" transform="translate(361.5,208.92)" d="M3,0A3,3 0 1,1 0,-3A3,3 0 0,1 3,0Z" style="opacity: 1; stroke-width: 0px; fill: rgb(171, 99, 250); fill-opacity: 1;"/><path class="point" transform="translate(372.52,207.48)" d="M3,0A3,3 0 1,1 0,-3A3,3 0 0,1 3,0Z" style="opacity: 1; stroke-width: 0px; fill: rgb(171, 99, 250); fill-opacity: 1;"/><path class="point" transform="translate(368.27,206.38)" d="M3,0A3,3 0 1,1 0,-3A3,3 0 0,1 3,0Z" style="opacity: 1; stroke-width: 0px; fill: rgb(171, 99, 250); fill-opacity: 1;"/><path class="point" transform="translate(366.73,205.98)" d="M3,0A3,3 0 1,1 0,-3A3,3 0 0,1 3,0Z" style="opacity: 1; stroke-width: 0px; fill: rgb(171, 99, 250); fill-opacity: 1;"/><path class="point" transform="translate(363.91,205.68)" d="M3,0A3,3 0 1,1 0,-3A3,3 0 0,1 3,0Z" style="opacity: 1; stroke-width: 0px; fill: rgb(171, 99, 250); fill-opacity: 1;"/><path class="point" transform="translate(366.86,205.42)" d="M3,0A3,3 0 1,1 0,-3A3,3 0 0,1 3,0Z" style="opacity: 1; stroke-width: 0px; fill: rgb(171, 99, 250); fill-opacity: 1;"/><path class="point" transform="translate(371.82,195.93)" d="M3,0A3,3 0 1,1 0,-3A3,3 0 0,1 3,0Z" style="opacity: 1; stroke-width: 0px; fill: rgb(171, 99, 250); fill-opacity: 1;"/><path class="point" transform="translate(367.65,192.4)" d="M3,0A3,3 0 1,1 0,-3A3,3 0 0,1 3,0Z" style="opacity: 1; stroke-width: 0px; fill: rgb(171, 99, 250); fill-opacity: 1;"/><path class="point" transform="translate(365.44,189.09)" d="M3,0A3,3 0 1,1 0,-3A3,3 0 0,1 3,0Z" style="opacity: 1; stroke-width: 0px; fill: rgb(171, 99, 250); fill-opacity: 1;"/><path class="point" transform="translate(370.62,186.1)" d="M3,0A3,3 0 1,1 0,-3A3,3 0 0,1 3,0Z" style="opacity: 1; stroke-width: 0px; fill: rgb(171, 99, 250); fill-opacity: 1;"/><path class="point" transform="translate(366.78,182.92)" d="M3,0A3,3 0 1,1 0,-3A3,3 0 0,1 3,0Z" style="opacity: 1; stroke-width: 0px; fill: rgb(171, 99, 250); fill-opacity: 1;"/></g></g></g></g><g class="overplot"/><path class="xlines-above crisp" d="" style="fill: none; stroke-width: 1px; stroke: rgb(0, 0, 0); stroke-opacity: 0;"/><path class="ylines-above crisp" d="" style="fill: none; stroke-width: 1px; stroke: rgb(0, 0, 0); stroke-opacity: 0;"/><g class="overlines-above"/><g class="xaxislayer-above"><path class="xtick ticks crisp" d="M0,421v5" transform="translate(141.38,0)" style="stroke: rgb(51, 51, 51); stroke-opacity: 1; stroke-width: 1px;"/><path class="xtick ticks crisp" d="M0,421v5" transform="translate(258.13,0)" style="stroke: rgb(51, 51, 51); stroke-opacity: 1; stroke-width: 1px;"/><path class="xtick ticks crisp" d="M0,421v5" transform="translate(374.88,0)" style="stroke: rgb(51, 51, 51); stroke-opacity: 1; stroke-width: 1px;"/><path class="xtick ticks crisp" d="M0,421v5" transform="translate(491.63,0)" style="stroke: rgb(51, 51, 51); stroke-opacity: 1; stroke-width: 1px;"/><g class="xtick"><text text-anchor="middle" x="0" y="440.4" transform="translate(141.38,0)" style="font-family: 'Open Sans', verdana, arial, sans-serif; font-size: 12px; fill: rgb(51, 51, 51); fill-opacity: 1; white-space: pre; opacity: 1;">s_eff_cnn_id</text></g><g class="xtick"><text text-anchor="middle" x="0" y="440.4" transform="translate(258.13,0)" style="font-family: 'Open Sans', verdana, arial, sans-serif; font-size: 12px; fill: rgb(51, 51, 51); fill-opacity: 1; white-space: pre; opacity: 1;">aisy_mlp_id</text></g><g class="xtick"><text text-anchor="middle" x="0" y="440.4" transform="translate(374.88,0)" style="font-family: 'Open Sans', verdana, arial, sans-serif; font-size: 12px; fill: rgb(51, 51, 51); fill-opacity: 1; white-space: pre; opacity: 1;">s_eff_cnn_hw</text></g><g class="xtick"><text text-anchor="middle" x="0" y="440.4" transform="translate(491.63,0)" style="font-family: 'Open Sans', verdana, arial, sans-serif; font-size: 12px; fill: rgb(51, 51, 51); fill-opacity: 1; white-space: pre; opacity: 1;">aisy_mlp_hw</text></g></g><g class="yaxislayer-above"><path class="ytick ticks crisp" d="M79,0h-5" transform="translate(0,374.3)" style="stroke: rgb(51, 51, 51); stroke-opacity: 1; stroke-width: 1px;"/><path class="ytick ticks crisp" d="M79,0h-5" transform="translate(0,302.9)" style="stroke: rgb(51, 51, 51); stroke-opacity: 1; stroke-width: 1px;"/><path class="ytick ticks crisp" d="M79,0h-5" transform="translate(0,231.49)" style="stroke: rgb(51, 51, 51); stroke-opacity: 1; stroke-width: 1px;"/><path class="ytick ticks crisp" d="M79,0h-5" transform="translate(0,160.07999999999998)" style="stroke: rgb(51, 51, 51); stroke-opacity: 1; stroke-width: 1px;"/><g class="ytick"><text text-anchor="end" x="71.6" y="4.199999999999999" transform="translate(0,374.3)" style="font-family: 'Open Sans', verdana, arial, sans-serif; font-size: 12px; fill: rgb(51, 51, 51); fill-opacity: 1; white-space: pre; opacity: 1;">0</text></g><g class="ytick"><text text-anchor="end" x="71.6" y="4.199999999999999" style="font-family: 'Open Sans', verdana, arial, sans-serif; font-size: 12px; fill: rgb(51, 51, 51); fill-opacity: 1; white-space: pre; opacity: 1;" transform="translate(0,302.9)">50</text></g><g class="ytick"><text text-anchor="end" x="71.6" y="4.199999999999999" style="font-family: 'Open Sans', verdana, arial, sans-serif; font-size: 12px; fill: rgb(51, 51, 51); fill-opacity: 1; white-space: pre; opacity: 1;" transform="translate(0,231.49)">100</text></g><g class="ytick"><text text-anchor="end" x="71.6" y="4.199999999999999" style="font-family: 'Open Sans', verdana, arial, sans-serif; font-size: 12px; fill: rgb(51, 51, 51); fill-opacity: 1; white-space: pre; opacity: 1;" transform="translate(0,160.07999999999998)">150</text></g></g><g class="overaxes-above"/></g></g><g class="polarlayer"/><g class="ternarylayer"/><g class="geolayer"/><g class="funnelarealayer"/><g class="pielayer"/><g class="iciclelayer"/><g class="treemaplayer"/><g class="sunburstlayer"/><g class="glimages"/><defs id="topdefs-67d374"><g class="clips"/><clipPath id="legend67d374"><rect width="129" height="105" x="0" y="0"/></clipPath></defs><g class="layer-above"><g class="imagelayer"/><g class="shapelayer"/></g><g class="infolayer"><g class="legend" pointer-events="all" transform="translate(559.4000000000001,100)"><rect class="bg" shape-rendering="crispEdges" width="129" height="105" x="0" y="0" style="stroke: rgb(68, 68, 68); stroke-opacity: 1; fill: rgb(255, 255, 255); fill-opacity: 1; stroke-width: 0px;"/><g class="scrollbox" transform="" clip-path="url(#legend67d374)"><text class="legendtitletext" text-anchor="start" x="2" y="18.2" style="font-family: 'Open Sans', verdana, arial, sans-serif; font-size: 14px; fill: rgb(51, 51, 51); fill-opacity: 1; white-space: pre;">model</text><g class="groups" transform=""><g class="traces" transform="translate(0,32.7)" style="opacity: 1;"><text class="legendtext" text-anchor="start" x="40" y="4.680000000000001" style="font-family: 'Open Sans', verdana, arial, sans-serif; font-size: 12px; fill: rgb(51, 51, 51); fill-opacity: 1; white-space: pre;">s_eff_cnn_id</text><g class="layers" style="opacity: 1;"><g class="legendfill"/><g class="legendlines"/><g class="legendsymbols"><g class="legendpoints"><path class="legendbox" d="M6,6H-6V-6H6Z" transform="translate(20,0)" style="stroke-width: 2px; fill: rgb(99, 110, 250); fill-opacity: 0.5; stroke: rgb(99, 110, 250); stroke-opacity: 1;"/></g></g></g><rect class="legendtoggle" x="0" y="-9.5" width="123.703125" height="19" style="fill: rgb(0, 0, 0); fill-opacity: 0;"/></g></g><g class="groups" transform=""><g class="traces" transform="translate(0,51.7)" style="opacity: 1;"><text class="legendtext" text-anchor="start" x="40" y="4.680000000000001" style="font-family: 'Open Sans', verdana, arial, sans-serif; font-size: 12px; fill: rgb(51, 51, 51); fill-opacity: 1; white-space: pre;">aisy_mlp_id</text><g class="layers" style="opacity: 1;"><g class="legendfill"/><g class="legendlines"/><g class="legendsymbols"><g class="legendpoints"><path class="legendbox" d="M6,6H-6V-6H6Z" transform="translate(20,0)" style="stroke-width: 2px; fill: rgb(239, 85, 59); fill-opacity: 0.5; stroke: rgb(239, 85, 59); stroke-opacity: 1;"/></g></g></g><rect class="legendtoggle" x="0" y="-9.5" width="123.703125" height="19" style="fill: rgb(0, 0, 0); fill-opacity: 0;"/></g></g><g class="groups" transform=""><g class="traces" transform="translate(0,70.7)" style="opacity: 1;"><text class="legendtext" text-anchor="start" x="40" y="4.680000000000001" style="font-family: 'Open Sans', verdana, arial, sans-serif; font-size: 12px; fill: rgb(51, 51, 51); fill-opacity: 1; white-space: pre;">s_eff_cnn_hw</text><g class="layers" style="opacity: 1;"><g class="legendfill"/><g class="legendlines"/><g class="legendsymbols"><g class="legendpoints"><path class="legendbox" d="M6,6H-6V-6H6Z" transform="translate(20,0)" style="stroke-width: 2px; fill: rgb(0, 204, 150); fill-opacity: 0.5; stroke: rgb(0, 204, 150); stroke-opacity: 1;"/></g></g></g><rect class="legendtoggle" x="0" y="-9.5" width="123.703125" height="19" style="fill: rgb(0, 0, 0); fill-opacity: 0;"/></g></g><g class="groups" transform=""><g class="traces" transform="translate(0,89.7)" style="opacity: 1;"><text class="legendtext" text-anchor="start" x="40" y="4.680000000000001" style="font-family: 'Open Sans', verdana, arial, sans-serif; font-size: 12px; fill: rgb(51, 51, 51); fill-opacity: 1; white-space: pre;">aisy_mlp_hw</text><g class="layers" style="opacity: 1;"><g class="legendfill"/><g class="legendlines"/><g class="legendsymbols"><g class="legendpoints"><path class="legendbox" d="M6,6H-6V-6H6Z" transform="translate(20,0)" style="stroke-width: 2px; fill: rgb(171, 99, 250); fill-opacity: 0.5; stroke: rgb(171, 99, 250); stroke-opacity: 1;"/></g></g></g><rect class="legendtoggle" x="0" y="-9.5" width="123.703125" height="19" style="fill: rgb(0, 0, 0); fill-opacity: 0;"/></g></g></g><rect class="scrollbar" rx="20" ry="3" width="0" height="0" x="0" y="0" style="fill: rgb(128, 139, 164); fill-opacity: 1;"/></g><g class="g-gtitle"><text class="gtitle" x="350" y="50" text-anchor="middle" dy="0em" style="font-family: 'Open Sans', verdana, arial, sans-serif; font-size: 17px; fill: rgb(51, 51, 51); opacity: 1; font-weight: normal; white-space: pre;">Distribution of average ranks over 50 experiments (with 1400 traces)</text></g><g class="g-xtitle"><text class="xtitle" x="315" y="468.20625" text-anchor="middle" style="font-family: 'Open Sans', verdana, arial, sans-serif; font-size: 14px; fill: rgb(51, 51, 51); opacity: 1; font-weight: normal; white-space: pre;">model</text></g><g class="g-ytitle"><text class="ytitle" transform="rotate(-90,23.903125000000003,260)" x="23.903125000000003" y="260" text-anchor="middle" style="font-family: 'Open Sans', verdana, arial, sans-serif; font-size: 14px; fill: rgb(51, 51, 51); opacity: 1; font-weight: normal; white-space: pre;">Average Ranks</text></g><g class="annotation" data-index="0" style="opacity: 1;"><g class="annotation-text-g" transform="rotate(0,141.38,133)"><g class="cursor-pointer" transform="translate(98,100)"><rect class="bg" x="0.5" y="0.5" width="85" height="65" style="stroke-width: 1px; stroke: rgb(0, 0, 0); stroke-opacity: 1; fill: rgb(211, 211, 211); fill-opacity: 1;"/><text class="annotation-text" text-anchor="middle" x="42.65625" y="-1.59375" style="font-family: 'Open Sans', verdana, arial, sans-serif; font-size: 12px; fill: rgb(51, 51, 51); fill-opacity: 1; white-space: pre;"><tspan class="line" dy="0em" x="42.65625" y="-1.59375"></tspan><tspan class="line" dy="1.3em" x="42.65625" y="-1.59375">min: 0.00</tspan><tspan class="line" dy="2.6em" x="42.65625" y="-1.59375">max: 129.97</tspan><tspan class="line" dy="3.9000000000000004em" x="42.65625" y="-1.59375">median: 0.32</tspan><tspan class="line" dy="5.2em" x="42.65625" y="-1.59375">mean: 17.32</tspan></text></g></g></g><g class="annotation" data-index="1" style="opacity: 1;"><g class="annotation-text-g" transform="rotate(0,258.13,133)"><g class="cursor-pointer" transform="translate(216,100)"><rect class="bg" x="0.5" y="0.5" width="84" height="65" style="stroke-width: 1px; stroke: rgb(0, 0, 0); stroke-opacity: 1; fill: rgb(211, 211, 211); fill-opacity: 1;"/><text class="annotation-text" text-anchor="middle" x="42.65625" y="-1.59375" style="font-family: 'Open Sans', verdana, arial, sans-serif; font-size: 12px; fill: rgb(51, 51, 51); fill-opacity: 1; white-space: pre;"><tspan class="line" dy="0em" x="42.65625" y="-1.59375"></tspan><tspan class="line" dy="1.3em" x="42.65625" y="-1.59375">min: 2.55</tspan><tspan class="line" dy="2.6em" x="42.65625" y="-1.59375">max: 24.14</tspan><tspan class="line" dy="3.9000000000000004em" x="42.65625" y="-1.59375">median: 8.73</tspan><tspan class="line" dy="5.2em" x="42.65625" y="-1.59375">mean: 9.77</tspan></text></g></g></g><g class="annotation" data-index="2" style="opacity: 1;"><g class="annotation-text-g" transform="rotate(0,374.88,133)"><g class="cursor-pointer" transform="translate(332,100)"><rect class="bg" x="0.5" y="0.5" width="85" height="65" style="stroke-width: 1px; stroke: rgb(0, 0, 0); stroke-opacity: 1; fill: rgb(211, 211, 211); fill-opacity: 1;"/><text class="annotation-text" text-anchor="middle" x="42.65625" y="-1.59375" style="font-family: 'Open Sans', verdana, arial, sans-serif; font-size: 12px; fill: rgb(51, 51, 51); fill-opacity: 1; white-space: pre;"><tspan class="line" dy="0em" x="42.65625" y="-1.59375"></tspan><tspan class="line" dy="1.3em" x="42.65625" y="-1.59375">min: 0.96</tspan><tspan class="line" dy="2.6em" x="42.65625" y="-1.59375">max: 34.08</tspan><tspan class="line" dy="3.9000000000000004em" x="42.65625" y="-1.59375">median: 2.79</tspan><tspan class="line" dy="5.2em" x="42.65625" y="-1.59375">mean: 4.70</tspan></text></g></g></g><g class="annotation" data-index="3" style="opacity: 1;"><g class="annotation-text-g" transform="rotate(0,491.63,133)"><g class="cursor-pointer" transform="translate(445,100)"><rect class="bg" x="0.5" y="0.5" width="92" height="65" style="stroke-width: 1px; stroke: rgb(0, 0, 0); stroke-opacity: 1; fill: rgb(211, 211, 211); fill-opacity: 1;"/><text class="annotation-text" text-anchor="middle" x="46.484375" y="-1.59375" style="font-family: 'Open Sans', verdana, arial, sans-serif; font-size: 12px; fill: rgb(51, 51, 51); fill-opacity: 1; white-space: pre;"><tspan class="line" dy="0em" x="46.484375" y="-1.59375"></tspan><tspan class="line" dy="1.3em" x="46.484375" y="-1.59375">min: 14.35</tspan><tspan class="line" dy="2.6em" x="46.484375" y="-1.59375">max: 63.99</tspan><tspan class="line" dy="3.9000000000000004em" x="46.484375" y="-1.59375">median: 33.62</tspan><tspan class="line" dy="5.2em" x="46.484375" y="-1.59375">mean: 35.53</tspan></text></g></g></g></g></svg>