<svg class="main-svg" xmlns="http://www.w3.org/2000/svg" xmlns:xlink="http://www.w3.org/1999/xlink" width="700" height="500" style="" viewBox="0 0 700 500"><rect x="0" y="0" width="700" height="500" style="fill: rgb(255, 255, 255); fill-opacity: 1;"/><defs id="defs-98647c"><g class="clips"><clipPath id="clip98647cxyplot" class="plotclip"><rect width="540" height="320"/></clipPath><clipPath class="axesclip" id="clip98647cx"><rect x="80" y="0" width="540" height="500"/></clipPath><clipPath class="axesclip" id="clip98647cy"><rect x="0" y="100" width="700" height="320"/></clipPath><clipPath class="axesclip" id="clip98647cxy"><rect x="80" y="100" width="540" height="320"/></clipPath></g><g class="gradients"/><g class="patterns"/></defs><g class="bglayer"><rect class="bg" x="80" y="100" width="540" height="320" style="fill: rgb(237, 237, 237); fill-opacity: 1; stroke-width: 0;"/></g><g class="layer-below"><g class="imagelayer"/><g class="shapelayer"/></g><g class="cartesianlayer"><g class="subplot xy"><g class="layer-subplot"><g class="shapelayer"/><g class="imagelayer"/></g><g class="gridlayer"><g class="x"><path class="xgrid crisp" transform="translate(189.09,0)" d="M0,100v320" style="stroke: rgb(255, 255, 255); stroke-opacity: 1; stroke-width: 1px;"/><path class="xgrid crisp" transform="translate(298.18,0)" d="M0,100v320" style="stroke: rgb(255, 255, 255); stroke-opacity: 1; stroke-width: 1px;"/><path class="xgrid crisp" transform="translate(407.27,0)" d="M0,100v320" style="stroke: rgb(255, 255, 255); stroke-opacity: 1; stroke-width: 1px;"/><path class="xgrid crisp" transform="translate(516.36,0)" d="M0,100v320" style="stroke: rgb(255, 255, 255); stroke-opacity: 1; stroke-width: 1px;"/></g><g class="y"><path class="ygrid crisp" transform="translate(0,383.06)" d="M80,0h540" style="stroke: rgb(255, 255, 255); stroke-opacity: 1; stroke-width: 1px;"/><path class="ygrid crisp" transform="translate(0,332.55)" d="M80,0h540" style="stroke: rgb(255, 255, 255); stroke-opacity: 1; stroke-width: 1px;"/><path class="ygrid crisp" transform="translate(0,282.03999999999996)" d="M80,0h540" style="stroke: rgb(255, 255, 255); stroke-opacity: 1; stroke-width: 1px;"/><path class="ygrid crisp" transform="translate(0,231.53)" d="M80,0h540" style="stroke: rgb(255, 255, 255); stroke-opacity: 1; stroke-width: 1px;"/><path class="ygrid crisp" transform="translate(0,181.01)" d="M80,0h540" style="stroke: rgb(255, 255, 255); stroke-opacity: 1; stroke-width: 1px;"/><path class="ygrid crisp" transform="translate(0,130.5)" d="M80,0h540" style="stroke: rgb(255, 255, 255); stroke-opacity: 1; stroke-width: 1px;"/></g></g><g class="zerolinelayer"><path class="xzl zl crisp" transform="translate(80,0)" d="M0,100v320" style="stroke: rgb(255, 255, 255); stroke-opacity: 1; stroke-width: 1px;"/></g><path class="xlines-below"/><path class="ylines-below"/><g class="overlines-below"/><g class="xaxislayer-below"/><g class="yaxislayer-below"/><g class="overaxes-below"/><g class="plot" transform="translate(80,100)" clip-path="url(#clip98647cxyplot)"><g class="scatterlayer mlayer"><g class="trace scatter trace4afc89" style="stroke-miterlimit: 2; opacity: 1;"><g class="fills"/><g class="errorbars"/><g class="lines"><path class="js-line" d="M0,17.21L5.45,34.24L10.91,41.23L32.73,58.11L38.18,63.38L54.55,87.98L60,93.5L70.91,100.19L76.36,102.43L81.82,103.39L87.27,105.49L98.18,107.65L103.64,108.07L114.55,110.37L120,109.35L125.45,111.19L130.91,109.97L141.82,111.35L147.27,110.72L152.73,109.53L158.18,109.11L163.64,109.68L169.09,108.53L174.55,108.88L180,108.02L190.91,106.9L196.36,107.79L201.82,108.04L207.27,107.29L218.18,106.67L223.64,107.99L240,115.35L245.45,119.02L250.91,120.17L256.36,122.52L261.82,125.87L267.27,126.87L272.73,129.94L278.18,131.48L289.09,138.43L294.55,139.73L300,142.19L305.45,143.36L310.91,146.53L316.36,147.85L321.82,151.54L327.27,151.95L343.64,158.89L349.09,162.43L354.55,162.78L360,166.1L365.45,168.45L370.91,169.81L436.36,196.17L441.82,196.45L512.73,204.01L518.18,204.5L540,206.8" style="vector-effect: non-scaling-stroke; fill: none; stroke: rgb(248, 118, 109); stroke-opacity: 1; stroke-width: 2px; opacity: 1;"/></g><g class="points"/><g class="text"/></g><g class="trace scatter trace79583f" style="stroke-miterlimit: 2; opacity: 1;"><g class="fills"/><g class="errorbars"/><g class="lines"><path class="js-line" d="M0,18.76L5.45,34.98L10.91,41.73L27.27,54.48L32.73,60.21L43.64,78.54L49.09,84.82L60,93.84L65.45,95.55L70.91,98.57L76.36,99.48L81.82,102.11L87.27,103.13L98.18,105.45L103.64,106.62L120,108.2L125.45,108.54L130.91,107.43L136.36,107.81L147.27,106.24L152.73,106.76L158.18,106.05L163.64,106.51L169.09,105.98L174.55,106.3L180,105.79L185.45,106.87L196.36,103.99L201.82,105.01L207.27,104.34L212.73,102.08L223.64,106.71L229.09,108.1L234.55,111.67L240,113.54L250.91,119.93L256.36,120.47L267.27,126.08L272.73,128.03L278.18,131.97L283.64,133.17L289.09,136.73L294.55,137.99L305.45,142.3L310.91,144.43L316.36,148.17L321.82,149.93L327.27,152.75L332.73,153.55L349.09,160.85L354.55,162.5L360,165.07L365.45,166.8L370.91,169.41L376.36,170.81L387.27,176.07L392.73,178.1L420,188.67L425.45,191.28L436.36,194.66L441.82,195.65L458.18,197.44L463.64,198.06L507.27,202.54L512.73,203.14L540,206.02" style="vector-effect: non-scaling-stroke; fill: none; stroke: rgb(163, 165, 0); stroke-opacity: 1; stroke-width: 2px; opacity: 1;"/></g><g class="points"/><g class="text"/></g><g class="trace scatter trace287840" style="stroke-miterlimit: 2; opacity: 1;"><g class="fills"/><g class="errorbars"/><g class="lines"><path class="js-line" d="M0,20.66L5.45,35.15L10.91,41.86L16.36,45.73L21.82,50.96L32.73,58.61L38.18,63.76L60,75.75L65.45,76.81L76.36,82.39L81.82,83.75L87.27,83.63L92.73,86.55L98.18,86.37L103.64,90.47L109.09,97.32L114.55,109.73L120,119.35L125.45,131.16L130.91,142.59L136.36,150.93L147.27,156.64L152.73,158.05L158.18,160.2L163.64,163.33L169.09,164L174.55,163.31L180,165.45L185.45,164.85L190.91,164.4L196.36,165.26L201.82,163.49L207.27,163.19L212.73,163.89L218.18,162.58L223.64,167.06L229.09,167.37L240,176.29L245.45,178.65L250.91,180.88L256.36,184.73L261.82,186.16L267.27,189.85L283.64,198.98L289.09,200.05L294.55,202.85L300,206.68L310.91,210.79L316.36,212.99L321.82,215.24L327.27,218.68L332.73,219.57L338.18,222.44L354.55,230.37L360,231.83L398.18,249.77L403.64,251.28L420,258.84L425.45,261.02L436.36,265.82L441.82,266.37L458.18,268.13L463.64,269.02L485.45,271.46L490.91,272.12L534.55,276.94L540,277.57" style="vector-effect: non-scaling-stroke; fill: none; stroke: rgb(0, 191, 125); stroke-opacity: 1; stroke-width: 2px; opacity: 1;"/></g><g class="points"/><g class="text"/></g><g class="trace scatter trace812342" style="stroke-miterlimit: 2; opacity: 1;"><g class="fills"/><g class="errorbars"/><g class="lines"><path class="js-line" d="M0,19.73L5.45,35.53L10.91,41.96L16.36,46.7L21.82,50.04L27.27,55.34L32.73,59.07L38.18,66.52L43.64,79.37L54.55,123.93L60,135.59L65.45,146.95L70.91,152.97L76.36,156.88L81.82,159.25L87.27,162.8L92.73,164.86L98.18,165.38L103.64,167.87L109.09,168.17L114.55,171.26L120,171.13L125.45,172.09L136.36,172.23L141.82,172.06L147.27,172.84L152.73,172.1L163.64,171.67L169.09,172.58L174.55,170.9L180,170.79L185.45,171.44L190.91,170.76L196.36,171.57L201.82,170.27L212.73,169.53L218.18,170.28L223.64,170.48L229.09,175.23L240,180.68L245.45,185.12L250.91,185.97L256.36,188.23L278.18,199.69L283.64,202.09L289.09,206.02L294.55,207.28L300,210.2L305.45,211.52L310.91,213.93L316.36,217.43L321.82,219.7L327.27,220.37L332.73,224.6L338.18,227.84L343.64,230.32L349.09,231.85L354.55,234.93L360,236.03L365.45,239.03L370.91,241.07L376.36,244.12L381.82,246.13L387.27,248.12L392.73,251.06L430.91,268.41L436.36,270.03L452.73,272.15L458.18,272.91L463.64,273.84L469.09,273.99L490.91,276.92L496.36,277.51L523.64,280.55L529.09,281.18L540,282.46" style="vector-effect: non-scaling-stroke; fill: none; stroke: rgb(0, 176, 246); stroke-opacity: 1; stroke-width: 2px; opacity: 1;"/></g><g class="points"/><g class="text"/></g><g class="trace scatter trace317730" style="stroke-miterlimit: 2; opacity: 1;"><g class="fills"/><g class="errorbars"/><g class="lines"><path class="js-line" d="M0,18.66L5.45,34.17L10.91,40.91L16.36,46.14L21.82,49.65L38.18,62.51L43.64,65.18L54.55,72.46L60,73.65L70.91,78.33L76.36,79.15L87.27,81.95L92.73,82.25L103.64,86.57L109.09,87.3L114.55,85.66L120,87.92L130.91,88.81L136.36,89.21L147.27,88.67L152.73,89.47L158.18,87.02L163.64,89.07L180,89.64L185.45,88.95L190.91,87.79L196.36,88.41L201.82,88.77L207.27,86.8L218.18,88.07L223.64,89.9L229.09,91.7L234.55,95.8L240,98.77L245.45,100.44L250.91,103.98L256.36,105.16L267.27,110.01L272.73,113.74L278.18,115.03L283.64,118.59L289.09,119.53L294.55,122.32L310.91,129.97L316.36,131.15L321.82,134.99L327.27,136.37L338.18,141.02L343.64,143.32L349.09,146.54L354.55,148.02L365.45,151.76L370.91,154.9L381.82,158.92L387.27,160.73L398.18,166.07L403.64,168.12L436.36,181.36L441.82,181.8L469.09,184.96L474.55,185.65L507.27,189.1L512.73,189.78L540,192.56" style="vector-effect: non-scaling-stroke; fill: none; stroke: rgb(231, 107, 243); stroke-opacity: 1; stroke-width: 2px; opacity: 1;"/></g><g class="points"/><g class="text"/></g><g class="trace scatter tracee17b51" style="stroke-miterlimit: 2; opacity: 1;"><g class="fills"/><g class="errorbars"/><g class="lines"><path class="js-line" d="M0,16.7L5.45,33.54L10.91,41.02L16.36,45.83L21.82,49.49L27.27,54.51L32.73,58.05L43.64,66.88L49.09,69.81L60,75.56L65.45,78.22L76.36,82.19L81.82,85.81L87.27,88.78L92.73,94.29L103.64,100.22L109.09,102.78L120,104.66L125.45,105.61L130.91,107.01L136.36,106.9L141.82,108.42L147.27,108.5L152.73,107.81L158.18,106.09L169.09,107.27L174.55,106.58L180,105.56L185.45,106.68L190.91,104.51L196.36,104.26L212.73,103.83L218.18,104.5L223.64,108.24L229.09,109.04L245.45,116.29L250.91,119.27L267.27,126.86L272.73,127.7L278.18,131.81L283.64,133.19L289.09,135.99L294.55,137.46L305.45,143.13L310.91,144.97L316.36,146.82L321.82,150.23L332.73,153.28L338.18,155.98L343.64,158.71L349.09,160.08L365.45,166.43L370.91,168.44L381.82,173.46L387.27,175.34L420,188.16L425.45,190.92L436.36,194L441.82,195L496.36,200.82L501.82,201.22L540,205.21" style="vector-effect: non-scaling-stroke; fill: none; stroke: rgb(248, 118, 109); stroke-opacity: 1; stroke-width: 2px; opacity: 1;"/></g><g class="points"/><g class="text"/></g><g class="trace scatter trace5de5cc" style="stroke-miterlimit: 2; opacity: 1;"><g class="fills"/><g class="errorbars"/><g class="lines"><path class="js-line" d="M0,19.42L5.45,34.15L10.91,41.13L21.82,48.61L27.27,54.37L38.18,61.79L43.64,67.82L49.09,74.77L54.55,90.26L65.45,141.46L70.91,155.1L76.36,164.93L81.82,172.18L98.18,183.21L103.64,185.05L109.09,185.85L114.55,187.86L125.45,187.43L130.91,190.82L136.36,189.87L141.82,190.36L147.27,191.3L152.73,191.23L158.18,190.59L163.64,191.48L174.55,188.82L180,189.55L185.45,190.19L190.91,189.94L196.36,190.76L201.82,188.1L207.27,188.9L212.73,187.12L218.18,187.64L223.64,190.78L229.09,193.05L234.55,196.83L240,197.29L245.45,202.1L261.82,208.96L267.27,213.05L272.73,214.55L278.18,217.38L283.64,219.09L289.09,222.89L294.55,225.28L300,228.58L305.45,229.83L310.91,233.43L316.36,234.13L321.82,237.33L327.27,239.78L332.73,243.35L338.18,244.68L343.64,247L360,253.91L365.45,256.59L376.36,261.35L381.82,264.07L403.64,273.53L409.09,275.9L430.91,286.36L436.36,287.74L447.27,289.55L452.73,290.25L501.82,296.02L507.27,296.7L540,300.76" style="vector-effect: non-scaling-stroke; fill: none; stroke: rgb(163, 165, 0); stroke-opacity: 1; stroke-width: 2px; opacity: 1;"/></g><g class="points"/><g class="text"/></g><g class="trace scatter tracee41ac7" style="stroke-miterlimit: 2; opacity: 1;"><g class="fills"/><g class="errorbars"/><g class="lines"><path class="js-line" d="M0,18.06L5.45,33.77L10.91,40.84L32.73,58.36L38.18,64.18L43.64,71.06L49.09,83.01L54.55,98.89L60,117.27L65.45,129.01L70.91,135.78L76.36,140.3L81.82,148.08L87.27,158.26L92.73,165.5L98.18,170.51L103.64,174.26L109.09,177.86L114.55,178.37L120,179.98L125.45,182.74L130.91,184.45L136.36,184.81L141.82,184.04L147.27,185.56L152.73,185.94L158.18,183.13L163.64,186.29L169.09,186.53L174.55,186.05L180,187.27L185.45,187.28L190.91,188.21L196.36,186.25L201.82,186.44L212.73,186.41L218.18,189.28L223.64,192.04L229.09,195.89L234.55,198.97L240,200.17L245.45,203.91L250.91,206.63L256.36,206.85L261.82,211.71L267.27,215.17L272.73,217.14L278.18,220.85L283.64,221.18L289.09,225.52L294.55,226.87L300,229.99L305.45,234.12L316.36,236.98L321.82,240.14L327.27,242.17L332.73,245.56L343.64,249.94L349.09,251.02L354.55,254.48L360,256.1L365.45,260.72L370.91,262.58L376.36,263.82L381.82,266.84L409.09,278.69L414.55,281.12L430.91,288.42L436.36,290.48L485.45,296.13L490.91,297.05L523.64,300.63L529.09,301.31L540,302.61" style="vector-effect: non-scaling-stroke; fill: none; stroke: rgb(0, 191, 125); stroke-opacity: 1; stroke-width: 2px; opacity: 1;"/></g><g class="points"/><g class="text"/></g><g class="trace scatter traced502b3" style="stroke-miterlimit: 2; opacity: 1;"><g class="fills"/><g class="errorbars"/><g class="lines"><path class="js-line" d="M0,17.12L5.45,33.96L10.91,40.68L16.36,45.51L21.82,48.6L32.73,56.62L38.18,59.1L49.09,65.97L54.55,67.85L65.45,72.44L70.91,75.78L76.36,77.88L81.82,81.15L87.27,88.51L92.73,104.52L98.18,116.27L103.64,120.57L109.09,124.79L114.55,125.99L120,126.67L125.45,128.74L130.91,128.36L136.36,130.76L147.27,128.52L152.73,131.62L163.64,132.14L169.09,131.05L174.55,132.96L180,133.61L185.45,133.78L190.91,135.44L201.82,141.96L207.27,142.19L218.18,148.03L223.64,153.46L234.55,164.51L240,171.96L245.45,177.66L250.91,184.88L256.36,188.9L261.82,191.02L267.27,198.05L272.73,201.09L278.18,202.98L283.64,207.76L289.09,211.13L294.55,213.41L316.36,227.02L321.82,228.96L327.27,232.22L332.73,234.58L349.09,242.75L354.55,243.26L360,247.5L365.45,249.37L370.91,252.42L376.36,254.44L409.09,269.79L414.55,271.53L430.91,279.47L436.36,281.44L441.82,281.64L447.27,282.76L490.91,287.86L496.36,288.44L540,293.44" style="vector-effect: non-scaling-stroke; fill: none; stroke: rgb(0, 176, 246); stroke-opacity: 1; stroke-width: 2px; opacity: 1;"/></g><g class="points"/><g class="text"/></g><g class="trace scatter trace7685ae" style="stroke-miterlimit: 2; opacity: 1;"><g class="fills"/><g class="errorbars"/><g class="lines"><path class="js-line" d="M0,19.08L5.45,35.09L10.91,41.36L21.82,50.38L27.27,53.39L32.73,57.86L38.18,61.17L54.55,70.09L60,71.68L70.91,76.2L76.36,77.65L81.82,80.64L87.27,82.43L92.73,84.47L98.18,85.1L109.09,86.34L114.55,90.14L125.45,115.72L130.91,123.73L152.73,145.38L158.18,146.47L163.64,150.18L169.09,152.39L174.55,156.6L180,157.25L190.91,160.62L196.36,160.98L207.27,162.25L212.73,164.57L223.64,167.05L229.09,172.53L234.55,174.85L240,178.95L245.45,180.13L250.91,185.04L256.36,189.57L261.82,190.07L289.09,204.71L294.55,206.18L300,208.03L305.45,212.73L310.91,214.75L316.36,217.69L327.27,223.49L332.73,223.66L343.64,229.85L349.09,230.9L360,237.11L365.45,238.47L370.91,241.77L376.36,243.45L381.82,245.32L387.27,248.83L398.18,253.04L403.64,255.7L409.09,257.43L414.55,260.43L425.45,264.59L430.91,267.38L441.82,270.06L447.27,270.72L458.18,271.74L463.64,272.51L501.82,276.94L507.27,277.43L540,281.22" style="vector-effect: non-scaling-stroke; fill: none; stroke: rgb(231, 107, 243); stroke-opacity: 1; stroke-width: 2px; opacity: 1;"/></g><g class="points"/><g class="text"/></g><g class="trace scatter traceb13229" style="stroke-miterlimit: 2; opacity: 1;"><g class="fills"/><g class="errorbars"/><g class="lines"><path class="js-line" d="M0,18.56L5.45,34.54L10.91,41.57L27.27,55.96L32.73,60.46L43.64,67.68L49.09,71.17L54.55,74.21L60,75.68L65.45,79.32L70.91,80.66L76.36,82.72L81.82,86.38L87.27,98.54L92.73,113.91L98.18,121.02L103.64,125.84L109.09,129.94L114.55,131.14L120,133.19L125.45,134.21L130.91,134.94L136.36,134.59L141.82,136.96L147.27,136.42L163.64,136.52L169.09,136.09L180,136.54L185.45,134.74L218.18,132.33L223.64,135.75L240,142.87L245.45,144.32L250.91,150.22L256.36,153.07L261.82,155.03L267.27,159.72L272.73,163.92L278.18,169.58L283.64,172.26L289.09,176.49L310.91,187.89L316.36,192.19L321.82,193.7L327.27,196.75L332.73,200.67L338.18,201.88L343.64,205.81L349.09,208.25L354.55,212.24L360,213.78L365.45,216.51L370.91,220.42L381.82,225.82L387.27,227.97L403.64,236L409.09,238.42L436.36,250.88L441.82,251.14L452.73,252.67L458.18,253.07L469.09,255.01L474.55,255.44L540,263.29" style="vector-effect: non-scaling-stroke; fill: none; stroke: rgb(248, 118, 109); stroke-opacity: 1; stroke-width: 2px; opacity: 1;"/></g><g class="points"/><g class="text"/></g><g class="trace scatter trace56679e" style="stroke-miterlimit: 2; opacity: 1;"><g class="fills"/><g class="errorbars"/><g class="lines"><path class="js-line" d="M0,18.79L5.45,34.88L10.91,41.99L27.27,55.8L32.73,60.01L38.18,63.67L43.64,68.35L49.09,74.66L54.55,86.15L60,100.75L65.45,109.61L70.91,116.21L76.36,121.05L81.82,124.32L87.27,126.21L92.73,128.57L98.18,129.3L103.64,133.03L109.09,135.71L114.55,138.42L120,143.69L130.91,148.89L136.36,151.11L141.82,156.86L147.27,158.22L152.73,161.5L158.18,163.5L163.64,165.55L169.09,164.64L174.55,166.73L180,166.41L185.45,167.61L190.91,167.76L196.36,166.3L201.82,167.79L207.27,166.03L212.73,167.17L218.18,167.02L223.64,170.29L229.09,172.46L234.55,177.14L240,180.16L245.45,180.86L250.91,184.88L256.36,187.64L261.82,190.94L267.27,193.21L272.73,196.9L278.18,198.69L283.64,201.98L289.09,202.61L294.55,205.23L300,208.87L305.45,210.48L310.91,213.83L316.36,215.94L321.82,219.45L327.27,220.38L332.73,223.75L338.18,225.62L343.64,228.65L349.09,231.85L354.55,232.99L370.91,240.96L376.36,242.34L387.27,248.16L392.73,249.92L420,262.33L425.45,264.8L430.91,267.39L436.36,268.91L447.27,270.61L452.73,271.25L463.64,272.33L469.09,273.27L490.91,275.61L496.36,276.33L534.55,280.7L540,281.37" style="vector-effect: non-scaling-stroke; fill: none; stroke: rgb(163, 165, 0); stroke-opacity: 1; stroke-width: 2px; opacity: 1;"/></g><g class="points"/><g class="text"/></g><g class="trace scatter trace06be1e" style="stroke-miterlimit: 2; opacity: 1;"><g class="fills"/><g class="errorbars"/><g class="lines"><path class="js-line" d="M0,17.58L5.45,33.58L10.91,41.35L43.64,65.5L49.09,67.39L65.45,76.19L70.91,77.34L76.36,80.43L81.82,84.99L92.73,110L98.18,117.47L103.64,123.6L109.09,125.33L125.45,131.95L130.91,136.43L136.36,141.52L141.82,143.09L147.27,144.99L152.73,145.54L163.64,147.81L169.09,147.43L174.55,148.88L180,148.62L196.36,146.38L201.82,147.06L207.27,146.58L212.73,144.98L218.18,146.56L223.64,149.16L229.09,152.28L234.55,153.91L245.45,157.79L250.91,158.96L256.36,162.93L261.82,165.25L283.64,175.25L289.09,176.98L305.45,183.52L310.91,187.03L316.36,188.36L321.82,190.69L327.27,193.44L332.73,194.96L343.64,199.45L349.09,201.62L354.55,204.45L360,205.5L370.91,209.82L376.36,212.49L403.64,223.97L409.09,226.5L414.55,228.15L420,230.72L430.91,235.52L436.36,236.87L441.82,238.05L447.27,238.42L463.64,240.35L469.09,240.81L534.55,248.01L540,248.62" style="vector-effect: non-scaling-stroke; fill: none; stroke: rgb(0, 191, 125); stroke-opacity: 1; stroke-width: 2px; opacity: 1;"/></g><g class="points"/><g class="text"/></g><g class="trace scatter traceb9d741" style="stroke-miterlimit: 2; opacity: 1;"><g class="fills"/><g class="errorbars"/><g class="lines"><path class="js-line" d="M0,20.06L5.45,34.53L10.91,40.97L27.27,51.92L32.73,56.49L38.18,59.82L43.64,64.18L49.09,67.78L54.55,69.66L60,73.18L65.45,74.79L70.91,77.56L76.36,78.47L81.82,79.86L87.27,82.06L92.73,84.2L98.18,84.91L103.64,85.27L109.09,87.84L114.55,90.52L120,94.05L125.45,97.2L130.91,98.94L141.82,102.51L147.27,102.61L158.18,104.37L163.64,104.77L174.55,105.6L180,105.73L196.36,104.81L201.82,104.14L218.18,104.62L223.64,105.7L229.09,110.04L234.55,111.31L245.45,117.97L250.91,118.96L256.36,120.92L261.82,125.93L267.27,127.63L272.73,131.2L278.18,133.82L283.64,134.92L289.09,138.33L294.55,139.6L300,141.35L305.45,145.26L316.36,149.89L321.82,150.43L327.27,153.55L332.73,154.86L349.09,163.44L354.55,164.26L387.27,178.11L392.73,179.42L403.64,184.13L409.09,187.1L420,191.06L425.45,193.33L436.36,197.38L441.82,197.91L518.18,206.15L523.64,206.67L540,208.34" style="vector-effect: non-scaling-stroke; fill: none; stroke: rgb(0, 176, 246); stroke-opacity: 1; stroke-width: 2px; opacity: 1;"/></g><g class="points"/><g class="text"/></g><g class="trace scatter trace57f9aa" style="stroke-miterlimit: 2; opacity: 1;"><g class="fills"/><g class="errorbars"/><g class="lines"><path class="js-line" d="M0,20.41L5.45,34.37L10.91,40.93L32.73,56.25L38.18,60.86L43.64,63.98L49.09,68.6L65.45,75.73L70.91,78.8L76.36,79.42L81.82,82.38L87.27,84.56L92.73,89.25L98.18,94.19L103.64,97.57L109.09,99.1L114.55,102.11L125.45,106.07L130.91,104.39L136.36,108.13L141.82,106.98L147.27,107.71L152.73,107.52L169.09,108.92L174.55,108.19L185.45,106.31L190.91,107.79L196.36,107.69L201.82,106.46L207.27,105.37L212.73,106.44L223.64,108.12L229.09,112.19L234.55,114.74L240,116.15L250.91,120.43L256.36,123.96L261.82,127.67L267.27,128.52L272.73,130.5L278.18,134.31L283.64,135.73L289.09,139.55L294.55,141.41L300,142.25L305.45,145.9L310.91,147.48L316.36,150.99L321.82,152.99L332.73,157.07L338.18,160.12L343.64,160.86L349.09,163.85L354.55,166.59L360,168.15L425.45,195.63L430.91,198.21L436.36,199.78L441.82,200.33L485.45,205.57L490.91,205.99L507.27,207.84L512.73,208.31L540,211.3" style="vector-effect: non-scaling-stroke; fill: none; stroke: rgb(231, 107, 243); stroke-opacity: 1; stroke-width: 2px; opacity: 1;"/></g><g class="points"/><g class="text"/></g><g class="trace scatter trace2aed55" style="stroke-miterlimit: 2; opacity: 1;"><g class="fills"/><g class="errorbars"/><g class="lines"><path class="js-line" d="M0,19.42L5.45,34.85L10.91,41.03L21.82,48.51L27.27,52.24L32.73,57.28L38.18,60.75L49.09,67.37L54.55,70.72L76.36,80.99L81.82,81.54L87.27,82.53L92.73,84.43L98.18,84.19L103.64,85.72L125.45,88.66L130.91,89.23L152.73,89.49L158.18,90.58L174.55,89.64L180,90.3L185.45,89.58L190.91,87.44L201.82,87.96L207.27,87.03L212.73,86.35L218.18,86.52L223.64,89.06L229.09,92.69L234.55,95.11L240,95.96L245.45,98.5L250.91,104.28L261.82,109.73L267.27,114.66L283.64,127.92L289.09,133.38L294.55,137.87L300,144.68L310.91,156.39L316.36,160.99L321.82,164.6L327.27,170.66L332.73,173.32L338.18,177.5L343.64,181.81L349.09,184.57L381.82,205.23L387.27,207.76L409.09,219.94L414.55,222.59L436.36,232.17L441.82,232.86L463.64,236.14L469.09,236.84L512.73,242.18L518.18,242.83L540,245.31" style="vector-effect: non-scaling-stroke; fill: none; stroke: rgb(248, 118, 109); stroke-opacity: 1; stroke-width: 2px; opacity: 1;"/></g><g class="points"/><g class="text"/></g><g class="trace scatter traceeb45d4" style="stroke-miterlimit: 2; opacity: 1;"><g class="fills"/><g class="errorbars"/><g class="lines"><path class="js-line" d="M0,16L5.45,33.1L10.91,40.95L27.27,54.2L32.73,58.11L38.18,62.74L43.64,65.72L49.09,69.77L54.55,72.63L60,76.6L65.45,78.16L76.36,84.56L81.82,85.17L87.27,85.52L92.73,87.44L109.09,89.73L114.55,88.95L120,90.93L125.45,90.98L130.91,90.8L136.36,92.27L141.82,92.82L147.27,92.49L152.73,91.86L158.18,92.71L163.64,92.44L169.09,93.39L174.55,95.31L180,95.78L185.45,95.59L190.91,96.7L196.36,98.16L201.82,97.76L207.27,99.65L212.73,98.97L218.18,99.46L223.64,102.98L229.09,107.11L234.55,109.32L240,110.29L245.45,115.11L256.36,119.39L261.82,122.69L272.73,128.48L278.18,130.1L283.64,133.09L289.09,134.65L294.55,137.87L300,139.37L321.82,148.15L327.27,151.84L338.18,154.56L343.64,157.45L354.55,162.47L360,163.52L365.45,166.46L370.91,168.45L376.36,169.95L381.82,172.89L398.18,179.01L403.64,181.89L436.36,193.95L441.82,195.03L458.18,196.65L463.64,197.36L529.09,204.17L534.55,204.75L540,205.32" style="vector-effect: non-scaling-stroke; fill: none; stroke: rgb(163, 165, 0); stroke-opacity: 1; stroke-width: 2px; opacity: 1;"/></g><g class="points"/><g class="text"/></g><g class="trace scatter trace47e589" style="stroke-miterlimit: 2; opacity: 1;"><g class="fills"/><g class="errorbars"/><g class="lines"><path class="js-line" d="M0,18.66L5.45,34.46L10.91,40.76L27.27,53.61L32.73,57.38L38.18,62.05L43.64,64.94L49.09,69.12L54.55,71.7L65.45,78.54L70.91,79.26L76.36,80.91L81.82,83.43L87.27,83.47L92.73,84.82L98.18,87.21L103.64,87.49L109.09,86.92L114.55,89.1L120,88.09L125.45,89.76L130.91,89.18L136.36,89.61L147.27,90.21L152.73,88.66L158.18,88.11L163.64,89.81L169.09,87.77L174.55,87.45L180,88.58L185.45,87.9L201.82,85.53L207.27,86.77L212.73,85.04L218.18,86.36L223.64,87.77L229.09,90.81L234.55,94.9L240,95.82L250.91,101.77L256.36,102.23L261.82,106.62L267.27,108.96L278.18,114.23L283.64,116.31L289.09,119.23L294.55,124.61L300,127.28L305.45,131.41L316.36,136.85L321.82,140.18L327.27,143.72L332.73,146.05L349.09,154.93L354.55,156.88L376.36,166.89L381.82,170.25L403.64,179.03L409.09,181.62L430.91,190.54L436.36,192.5L441.82,193.58L447.27,193.86L458.18,195.49L463.64,195.88L490.91,199.14L496.36,199.64L540,204.36" style="vector-effect: non-scaling-stroke; fill: none; stroke: rgb(0, 191, 125); stroke-opacity: 1; stroke-width: 2px; opacity: 1;"/></g><g class="points"/><g class="text"/></g><g class="trace scatter tracebfaa9c" style="stroke-miterlimit: 2; opacity: 1;"><g class="fills"/><g class="errorbars"/><g class="lines"><path class="js-line" d="M0,18.35L5.45,33.88L10.91,41.08L21.82,48.61L27.27,52.88L38.18,61.8L43.64,64.68L70.91,81.27L76.36,86.32L81.82,91.45L87.27,94.99L114.55,114.9L120,123.22L125.45,136.9L130.91,147.81L136.36,153.01L141.82,155.42L152.73,159.3L158.18,160.27L163.64,160.95L169.09,162.94L174.55,163.43L180,161.41L185.45,162.8L190.91,162.27L196.36,161.77L201.82,163.54L212.73,167.46L218.18,171.29L223.64,175.65L229.09,181.81L245.45,196.52L250.91,199.25L256.36,205.63L261.82,208.27L272.73,214.01L278.18,218.69L283.64,221.42L289.09,225.08L332.73,245.45L338.18,247.31L343.64,251.23L349.09,254.17L360,258.33L365.45,261.14L387.27,270.88L392.73,272.61L409.09,280.23L414.55,283.55L420,284.92L425.45,287.21L436.36,291.84L441.82,292.31L458.18,294.41L463.64,295.18L490.91,298.48L496.36,298.97L518.18,301.61L523.64,302.09L540,304" style="vector-effect: non-scaling-stroke; fill: none; stroke: rgb(0, 176, 246); stroke-opacity: 1; stroke-width: 2px; opacity: 1;"/></g><g class="points"/><g class="text"/></g><g class="trace scatter trace32e105" style="stroke-miterlimit: 2; opacity: 1;"><g class="fills"/><g class="errorbars"/><g class="lines"><path class="js-line" d="M0,18.32L5.45,34.27L10.91,40.76L32.73,58.05L38.18,61.79L49.09,67.07L54.55,70.9L60,73.16L65.45,76.54L70.91,85.47L76.36,102.72L81.82,112.64L87.27,118.06L92.73,124.97L98.18,126.67L109.09,130.58L114.55,129.72L125.45,133.29L130.91,132.91L136.36,132.89L141.82,134.87L147.27,135.45L152.73,140.71L163.64,144.62L169.09,147.51L174.55,151.35L180,154.24L185.45,154.02L190.91,157.33L196.36,158.52L201.82,157.32L207.27,159.15L212.73,159.17L218.18,159.46L223.64,163.7L229.09,166.9L234.55,168.58L240,172.54L245.45,174.87L250.91,176.6L256.36,179.24L261.82,184.46L267.27,185.67L272.73,188.73L278.18,190.1L289.09,196.73L294.55,198.01L300,201.32L305.45,202.33L310.91,205.74L316.36,207.3L327.27,212.45L332.73,214.22L338.18,217.41L343.64,219.38L349.09,221.95L354.55,223.5L365.45,229.29L370.91,230.97L376.36,233.2L381.82,236.33L387.27,237.1L392.73,240.76L409.09,248.15L414.55,250.03L430.91,258.12L436.36,259.85L540,271.9" style="vector-effect: non-scaling-stroke; fill: none; stroke: rgb(231, 107, 243); stroke-opacity: 1; stroke-width: 2px; opacity: 1;"/></g><g class="points"/><g class="text"/></g><g class="trace scatter trace453015" style="stroke-miterlimit: 2; opacity: 1;"><g class="fills"/><g class="errorbars"/><g class="lines"><path class="js-line" d="M0,17.01L5.45,34.13L10.91,41.51L21.82,51.31L27.27,55.2L38.18,64.55L43.64,69.02L60,78.63L65.45,80.89L70.91,82.66L76.36,83.04L81.82,84.39L87.27,86.88L103.64,87.9L109.09,89.5L114.55,90.51L120,90.39L136.36,91.33L141.82,90.39L158.18,90.32L163.64,91.52L169.09,90.28L174.55,91.05L180,89.48L185.45,89.57L190.91,87.72L196.36,88.29L201.82,89.1L207.27,88.04L212.73,86.8L218.18,87.83L223.64,89L229.09,92.26L234.55,94.68L240,97.99L245.45,99.01L250.91,101.92L256.36,105.7L261.82,106.99L272.73,112.31L278.18,115.44L300,123.63L305.45,126.56L310.91,129.17L316.36,130.78L321.82,133.63L327.27,135.38L332.73,137.08L338.18,139.82L343.64,141.3L349.09,144.64L354.55,146.53L360,149.28L365.45,150.72L370.91,153.74L381.82,157.75L387.27,160.3L398.18,164.95L403.64,167.21L409.09,169.2L414.55,172.13L425.45,176.29L430.91,178.71L441.82,181.15L447.27,181.68L458.18,183.09L463.64,183.66L485.45,186.16L490.91,186.85L540,192" style="vector-effect: non-scaling-stroke; fill: none; stroke: rgb(248, 118, 109); stroke-opacity: 1; stroke-width: 2px; opacity: 1;"/></g><g class="points"/><g class="text"/></g><g class="trace scatter trace0d0eaa" style="stroke-miterlimit: 2; opacity: 1;"><g class="fills"/><g class="errorbars"/><g class="lines"><path class="js-line" d="M0,17.43L5.45,34.15L10.91,40.81L38.18,61.64L43.64,64.96L49.09,68.83L54.55,74.4L70.91,96.3L76.36,104.69L81.82,109.38L87.27,111.87L92.73,116.07L98.18,119.25L103.64,125.32L109.09,137.52L114.55,146.44L120,151.57L125.45,153.73L130.91,157.81L136.36,159.43L141.82,158.06L152.73,160.25L158.18,159.84L163.64,160.67L169.09,159.77L174.55,159.6L180,157.93L185.45,159.76L190.91,158.22L196.36,159.21L201.82,157.07L207.27,157.91L212.73,155.21L218.18,156.85L223.64,159.72L229.09,160.63L234.55,164.08L240,166.72L245.45,168.38L250.91,170.47L256.36,174.14L261.82,177.36L267.27,179.33L272.73,181.96L278.18,183.71L300,191.97L305.45,195.19L316.36,199.83L321.82,200.67L332.73,205.77L338.18,208.07L343.64,211.03L349.09,212.37L354.55,214.05L360,217.18L370.91,221.95L376.36,223.72L414.55,239.64L420,242.13L436.36,248.64L441.82,249.32L485.45,254.34L490.91,254.75L512.73,257.17L518.18,257.67L540,260.15" style="vector-effect: non-scaling-stroke; fill: none; stroke: rgb(163, 165, 0); stroke-opacity: 1; stroke-width: 2px; opacity: 1;"/></g><g class="points"/><g class="text"/></g><g class="trace scatter traced760a2" style="stroke-miterlimit: 2; opacity: 1;"><g class="fills"/><g class="errorbars"/><g class="lines"><path class="js-line" d="M0,17.28L5.45,34.53L10.91,41.21L38.18,62.73L43.64,66.45L65.45,78.2L70.91,79.89L87.27,85.67L92.73,84.98L98.18,86.44L103.64,87.04L109.09,88.98L114.55,89.07L120,88.43L125.45,90.1L130.91,89.12L136.36,88.96L147.27,89.8L152.73,88.55L158.18,90L163.64,88.85L169.09,89.48L174.55,87.47L190.91,87.62L196.36,87.68L201.82,86.46L207.27,87.06L218.18,86.21L223.64,89.58L229.09,90.75L234.55,92.78L240,95.87L245.45,97.08L256.36,101.52L261.82,105.56L267.27,108.2L272.73,109.7L278.18,111.52L283.64,115.07L289.09,116.9L294.55,119.59L300,120.85L305.45,124.52L316.36,128.16L321.82,131.81L327.27,132.9L332.73,135.78L338.18,137.22L343.64,139.71L370.91,151.07L376.36,152.62L414.55,168.47L420,170.22L430.91,174.89L436.36,176.57L469.09,180.34L474.55,180.76L496.36,183.11L501.82,183.75L540,187.59" style="vector-effect: non-scaling-stroke; fill: none; stroke: rgb(0, 191, 125); stroke-opacity: 1; stroke-width: 2px; opacity: 1;"/></g><g class="points"/><g class="text"/></g><g class="trace scatter trace242054" style="stroke-miterlimit: 2; opacity: 1;"><g class="fills"/><g class="errorbars"/><g class="lines"><path class="js-line" d="M0,18.7L5.45,34.49L10.91,40.79L16.36,45.35L21.82,48.83L32.73,57.8L38.18,61.63L49.09,70.37L54.55,73.13L60,77.83L65.45,87.89L70.91,110.46L76.36,125.29L81.82,134.25L87.27,141.04L103.64,151.71L109.09,153.28L114.55,153.99L120,153.77L125.45,155.57L130.91,156.4L136.36,155.7L141.82,156.27L152.73,156.4L158.18,156.39L163.64,156.3L169.09,155.02L174.55,154.89L180,155.53L185.45,154.78L190.91,152.3L196.36,153.05L201.82,152.41L207.27,152.58L212.73,149.02L218.18,150.67L223.64,153.63L229.09,153.49L234.55,158.97L245.45,162.54L250.91,165.7L267.27,172.75L272.73,176.64L278.18,177.53L283.64,180.13L289.09,181.7L294.55,184.67L300,188.23L305.45,189.85L310.91,192.83L316.36,193.9L332.73,201.31L338.18,204.17L343.64,205.41L349.09,207.93L360,211.61L365.45,214.96L370.91,216.67L376.36,219.96L381.82,221.16L387.27,224.62L392.73,226.03L398.18,228.81L414.55,234.81L420,237.5L430.91,242.31L436.36,243.9L441.82,245.08L447.27,245.22L458.18,246.86L463.64,246.91L480,248.77L485.45,249.54L534.55,254.99L540,255.67" style="vector-effect: non-scaling-stroke; fill: none; stroke: rgb(0, 176, 246); stroke-opacity: 1; stroke-width: 2px; opacity: 1;"/></g><g class="points"/><g class="text"/></g><g class="trace scatter trace22dadb" style="stroke-miterlimit: 2; opacity: 1;"><g class="fills"/><g class="errorbars"/><g class="lines"><path class="js-line" d="M0,18.72L5.45,34.9L10.91,41.76L21.82,50.89L27.27,55.36L43.64,66.16L49.09,68.99L54.55,70.93L60,73.85L70.91,79.09L76.36,80.17L81.82,80.48L87.27,82.31L98.18,84.94L103.64,88.65L114.55,112.12L120,117.99L125.45,122.4L130.91,123.71L136.36,126.83L141.82,127.03L147.27,128.35L152.73,128.88L158.18,130.76L163.64,130.22L169.09,129.87L174.55,130.77L180,129.79L185.45,130.06L190.91,129.49L196.36,130.64L201.82,128.37L207.27,128.87L218.18,128.81L223.64,131.24L229.09,133.13L234.55,136.34L240,140.04L245.45,142.08L250.91,143.29L256.36,146.91L261.82,147.92L267.27,151.21L283.64,159.79L289.09,160.48L294.55,164.44L300,165.58L321.82,175.9L327.27,177.24L338.18,182.38L343.64,183.9L365.45,194.26L370.91,195.66L376.36,198.94L381.82,201.33L387.27,202.99L392.73,205.67L409.09,212.5L414.55,214.17L420,217.53L425.45,219.3L430.91,222.17L436.36,223.95L463.64,227.2L469.09,227.94L540,235.84" style="vector-effect: non-scaling-stroke; fill: none; stroke: rgb(231, 107, 243); stroke-opacity: 1; stroke-width: 2px; opacity: 1;"/></g><g class="points"/><g class="text"/></g><g class="trace scatter trace6b2dd9" style="stroke-miterlimit: 2; opacity: 1;"><g class="fills"/><g class="errorbars"/><g class="lines"><path class="js-line" d="M0,19.3L5.45,34.85L10.91,42.14L21.82,50.94L27.27,55.4L38.18,62.4L43.64,64.78L49.09,68.52L54.55,70.44L60,73.36L65.45,74.99L70.91,78.06L76.36,78.97L98.18,83.63L103.64,84.08L109.09,86.78L114.55,86.68L120,87.04L125.45,85.83L136.36,89L141.82,87.53L152.73,89.01L158.18,87.79L163.64,87.18L169.09,89.21L174.55,89.46L180,87.51L190.91,88.28L196.36,86.75L201.82,89.22L207.27,93.91L218.18,109.96L223.64,115.72L229.09,120.3L234.55,126.88L240,129.54L245.45,133.61L250.91,137.27L256.36,140.02L261.82,142.43L267.27,145.9L289.09,157.28L294.55,158.57L300,161.13L305.45,164.66L321.82,172.24L327.27,173.37L332.73,175.53L338.18,179.49L343.64,180.2L349.09,182.33L365.45,191.12L370.91,192.97L376.36,193.89L381.82,196.46L392.73,201.55L398.18,203.1L430.91,217.02L436.36,218.78L463.64,221.87L469.09,222.43L485.45,224.16L490.91,224.72L529.09,228.85L534.55,229.44L540,230.04" style="vector-effect: non-scaling-stroke; fill: none; stroke: rgb(248, 118, 109); stroke-opacity: 1; stroke-width: 2px; opacity: 1;"/></g><g class="points"/><g class="text"/></g><g class="trace scatter trace8f5467" style="stroke-miterlimit: 2; opacity: 1;"><g class="fills"/><g class="errorbars"/><g class="lines"><path class="js-line" d="M0,16.26L5.45,34.23L10.91,41.14L32.73,59.57L38.18,62.92L43.64,66.44L49.09,70.92L54.55,78.53L60,101.41L65.45,125.16L70.91,138.61L76.36,147.59L81.82,152.33L87.27,155.66L92.73,160.55L109.09,165.83L114.55,166.88L125.45,168.79L130.91,169.12L136.36,169.93L141.82,169.86L152.73,169.65L158.18,171.06L169.09,172.58L174.55,172.18L180,172.42L185.45,175.29L190.91,173L196.36,175.56L201.82,176.45L207.27,174.68L212.73,175.49L218.18,177.73L234.55,186.73L240,190.95L245.45,191.73L250.91,197.64L256.36,199.68L261.82,200.61L267.27,204.9L272.73,208.19L278.18,209.23L283.64,212.6L289.09,213.73L294.55,216.65L305.45,220.85L310.91,224.76L316.36,227.59L321.82,229.3L338.18,234.51L343.64,238.13L349.09,240.33L354.55,243.69L365.45,247.04L370.91,249.84L376.36,253.04L381.82,254.97L398.18,262.12L403.64,264.46L409.09,266.23L414.55,269.55L420,271.39L425.45,274.29L436.36,278.39L441.82,279.26L452.73,280.5L458.18,281.07L485.45,284.43L490.91,284.99L540,290.82" style="vector-effect: non-scaling-stroke; fill: none; stroke: rgb(163, 165, 0); stroke-opacity: 1; stroke-width: 2px; opacity: 1;"/></g><g class="points"/><g class="text"/></g><g class="trace scatter traceb1a462" style="stroke-miterlimit: 2; opacity: 1;"><g class="fills"/><g class="errorbars"/><g class="lines"><path class="js-line" d="M0,16.37L5.45,33.74L10.91,40.67L32.73,59.58L38.18,63.94L49.09,72.19L54.55,73.44L60,77.92L65.45,79.95L70.91,82.5L76.36,83.22L87.27,86.72L92.73,87.37L98.18,87.56L103.64,88.53L109.09,89.09L114.55,91.42L120,90.92L125.45,93.11L130.91,99.88L136.36,109.12L141.82,116.4L147.27,119.48L152.73,123.16L158.18,124.03L174.55,128.97L180,129.37L190.91,129.15L196.36,129.88L207.27,129.15L212.73,128.15L218.18,129.31L223.64,133.04L229.09,134.01L234.55,136.31L240,140.4L245.45,141.17L250.91,144.98L256.36,147.61L261.82,149.79L267.27,153.07L272.73,154.55L278.18,157.55L283.64,159.89L289.09,163.07L300,165.82L305.45,169.4L310.91,172.24L316.36,173.82L338.18,183.15L343.64,186.39L354.55,189.11L360,192.32L392.73,206.05L398.18,208L430.91,222.23L436.36,223.5L485.45,229.05L490.91,229.84L507.27,231.4L512.73,232.14L540,234.99" style="vector-effect: non-scaling-stroke; fill: none; stroke: rgb(0, 191, 125); stroke-opacity: 1; stroke-width: 2px; opacity: 1;"/></g><g class="points"/><g class="text"/></g><g class="trace scatter tracec3ccf1" style="stroke-miterlimit: 2; opacity: 1;"><g class="fills"/><g class="errorbars"/><g class="lines"><path class="js-line" d="M0,17.97L5.45,33.9L10.91,40.97L16.36,46.33L21.82,50.29L32.73,58.02L38.18,62.03L49.09,70.03L54.55,72.67L60,74.77L65.45,77.86L76.36,81.27L81.82,83.68L87.27,85.48L92.73,88.17L98.18,93.87L103.64,107.48L109.09,118.04L114.55,123.31L120,126.85L125.45,129.04L130.91,129.58L136.36,131.15L141.82,131.5L147.27,133.5L152.73,132.77L158.18,132.92L163.64,133.62L169.09,132.93L174.55,133.84L180,137.58L190.91,147.84L196.36,151.08L201.82,154.68L207.27,154.91L218.18,158.84L223.64,163L229.09,164.04L234.55,167.53L240,172.45L245.45,173.19L250.91,177.04L256.36,177.89L283.64,194.69L289.09,196.01L294.55,198.68L300,200.32L321.82,209.91L327.27,211.71L338.18,217.74L343.64,218.98L354.55,224.29L360,226.37L370.91,231.16L376.36,234.03L387.27,238.05L392.73,240.75L409.09,247.52L414.55,250.15L436.36,259.12L441.82,259.98L463.64,262.58L469.09,263.1L529.09,269.95L534.55,270.6L540,271.24" style="vector-effect: non-scaling-stroke; fill: none; stroke: rgb(0, 176, 246); stroke-opacity: 1; stroke-width: 2px; opacity: 1;"/></g><g class="points"/><g class="text"/></g><g class="trace scatter trace0f89cd" style="stroke-miterlimit: 2; opacity: 1;"><g class="fills"/><g class="errorbars"/><g class="lines"><path class="js-line" d="M0,16.06L5.45,33.72L10.91,41.17L16.36,46.74L21.82,51.07L38.18,63.88L43.64,66.96L60,77.05L65.45,79.47L70.91,80.34L76.36,82.24L87.27,85.93L92.73,86.87L98.18,88.59L103.64,87.99L125.45,90.93L130.91,90.61L152.73,91.76L158.18,91.39L163.64,91.52L169.09,90.55L180,89.47L185.45,88.45L190.91,89.18L196.36,89.1L218.18,88.23L223.64,89.74L229.09,90.93L234.55,93.36L240,96.45L245.45,98.29L250.91,102.66L256.36,104.06L278.18,112.9L283.64,116.31L294.55,120.83L300,122.25L305.45,124.34L310.91,127.48L316.36,130.76L321.82,132.5L327.27,133.17L332.73,136.17L343.64,141.19L349.09,142.75L354.55,145.86L360,147.92L376.36,154.49L381.82,156.31L403.64,165.75L409.09,167.32L420,171.81L425.45,173.95L430.91,176.61L436.36,178.15L540,189.33" style="vector-effect: non-scaling-stroke; fill: none; stroke: rgb(231, 107, 243); stroke-opacity: 1; stroke-width: 2px; opacity: 1;"/></g><g class="points"/><g class="text"/></g><g class="trace scatter traced904d7" style="stroke-miterlimit: 2; opacity: 1;"><g class="fills"/><g class="errorbars"/><g class="lines"><path class="js-line" d="M0,20.11L5.45,35.43L10.91,41.41L32.73,56.67L38.18,59.54L43.64,64.84L49.09,68.02L65.45,75.95L70.91,77.7L81.82,81.2L87.27,81.76L92.73,84.35L98.18,84.42L109.09,86.46L114.55,86.47L120,87.92L125.45,87.78L130.91,88.93L136.36,87.92L141.82,87.98L147.27,89.21L158.18,87.59L163.64,88.09L169.09,90.27L174.55,90.6L180,95.08L185.45,101.31L196.36,113.97L201.82,115.85L207.27,115.86L212.73,119.48L218.18,121.84L223.64,125.33L229.09,127.44L234.55,132.76L245.45,139.02L250.91,140.79L256.36,144.45L261.82,146.81L267.27,150.22L272.73,150.65L278.18,154.88L283.64,157.06L289.09,158.88L294.55,162.16L321.82,174.71L327.27,176.09L332.73,177.94L338.18,180.68L343.64,182.58L349.09,185.78L354.55,188.48L360,190.32L365.45,191.65L370.91,194.09L376.36,197.47L381.82,199L398.18,206.2L403.64,208.47L414.55,213L420,215.02L430.91,219.61L436.36,221.35L452.73,223.5L458.18,224.13L490.91,227.83L496.36,228.21L540,233.02" style="vector-effect: non-scaling-stroke; fill: none; stroke: rgb(248, 118, 109); stroke-opacity: 1; stroke-width: 2px; opacity: 1;"/></g><g class="points"/><g class="text"/></g><g class="trace scatter tracec694ab" style="stroke-miterlimit: 2; opacity: 1;"><g class="fills"/><g class="errorbars"/><g class="lines"><path class="js-line" d="M0,17.53L5.45,34.35L10.91,41.02L16.36,45.87L21.82,49.33L43.64,66.47L49.09,69.64L54.55,72.89L60,75.12L65.45,77.24L70.91,80.22L76.36,80.83L81.82,83.23L87.27,84.42L92.73,86.46L98.18,86.99L103.64,88.72L109.09,89.24L114.55,88.17L120,89.88L125.45,90.71L136.36,91.24L141.82,90.54L147.27,90.6L152.73,92L158.18,92.12L163.64,91.29L169.09,91.88L174.55,90.04L180,91.25L185.45,90.99L190.91,88.71L196.36,89.88L201.82,88.19L207.27,87.44L218.18,87.43L223.64,88.72L234.55,93.24L240,97.05L245.45,98.7L250.91,101.88L261.82,106L267.27,109.27L272.73,109.99L278.18,114.79L300,122.1L305.45,126.52L310.91,127.61L316.36,129.94L327.27,135.37L332.73,136.99L338.18,138.87L343.64,141.87L360,148.47L365.45,150.28L376.36,155.4L381.82,156.96L392.73,162.14L398.18,164.1L430.91,177.92L436.36,179.7L469.09,183.49L474.55,183.84L485.45,185.23L490.91,185.89L534.55,190.54L540,190.99" style="vector-effect: non-scaling-stroke; fill: none; stroke: rgb(163, 165, 0); stroke-opacity: 1; stroke-width: 2px; opacity: 1;"/></g><g class="points"/><g class="text"/></g><g class="trace scatter tracee8af53" style="stroke-miterlimit: 2; opacity: 1;"><g class="fills"/><g class="errorbars"/><g class="lines"><path class="js-line" d="M0,20.72L5.45,35.39L10.91,41.84L16.36,46.79L21.82,50.61L27.27,53.74L32.73,58.09L49.09,68.37L54.55,70.95L65.45,75.69L70.91,78.63L76.36,77.77L81.82,79.15L87.27,81.5L92.73,81.28L98.18,82.9L103.64,82.94L109.09,83.88L114.55,86.02L120,85.64L125.45,87.42L130.91,87.84L136.36,86.62L141.82,88.2L147.27,87.62L152.73,89.01L158.18,88.63L169.09,89.98L174.55,88.4L185.45,90.65L190.91,89.64L196.36,89.07L201.82,90.62L212.73,90.77L218.18,93.19L223.64,96.66L229.09,102.07L245.45,110.02L250.91,113.52L256.36,115.99L261.82,119.93L267.27,121.6L272.73,125.02L278.18,127.51L283.64,128.67L300,138.01L305.45,139.72L310.91,143.26L316.36,144.55L321.82,149.01L327.27,151.92L338.18,158.29L343.64,161.25L349.09,165.82L354.55,167.83L365.45,174.71L370.91,177.38L381.82,182.01L387.27,185.47L430.91,205.24L436.36,206.89L485.45,213.21L490.91,213.74L540,219.18" style="vector-effect: non-scaling-stroke; fill: none; stroke: rgb(0, 191, 125); stroke-opacity: 1; stroke-width: 2px; opacity: 1;"/></g><g class="points"/><g class="text"/></g><g class="trace scatter trace75b07a" style="stroke-miterlimit: 2; opacity: 1;"><g class="fills"/><g class="errorbars"/><g class="lines"><path class="js-line" d="M0,16.8L5.45,33.98L10.91,41.04L21.82,50.99L27.27,54.83L38.18,61.74L43.64,66.04L54.55,71.86L60,75.86L65.45,80.12L70.91,88.3L76.36,101.69L81.82,112.23L92.73,123.95L98.18,133.83L114.55,154.2L120,159.4L125.45,159.71L130.91,162.9L136.36,165.03L141.82,166.13L147.27,164.96L152.73,165.52L158.18,166.58L163.64,165.4L169.09,167.88L174.55,166.55L185.45,166L190.91,166.48L207.27,165.88L212.73,162.91L218.18,165.54L223.64,169.71L229.09,169.6L234.55,172.54L245.45,178.53L250.91,180.46L261.82,186.3L267.27,188.03L272.73,192.01L278.18,194.11L294.55,200.14L300,203.46L305.45,206.71L310.91,208.38L316.36,211.94L321.82,213.75L349.09,226.26L354.55,229.2L365.45,232.92L370.91,236.39L376.36,238.86L381.82,240.38L398.18,247.9L403.64,251.09L414.55,255.94L420,258.3L430.91,263.26L436.36,265.09L463.64,268.92L469.09,269.58L540,278.14" style="vector-effect: non-scaling-stroke; fill: none; stroke: rgb(0, 176, 246); stroke-opacity: 1; stroke-width: 2px; opacity: 1;"/></g><g class="points"/><g class="text"/></g><g class="trace scatter trace0e8700" style="stroke-miterlimit: 2; opacity: 1;"><g class="fills"/><g class="errorbars"/><g class="lines"><path class="js-line" d="M0,18.75L5.45,34.82L10.91,41.49L16.36,46.92L21.82,50.02L27.27,54.21L32.73,59.61L38.18,64.36L43.64,78.42L49.09,95.06L54.55,107.91L60,114.2L65.45,117.81L70.91,122.07L76.36,124.77L92.73,129.77L98.18,128.57L103.64,131.01L109.09,130.59L114.55,132.13L120,131.36L125.45,132.51L130.91,132.63L136.36,132.5L141.82,131.51L147.27,132.32L152.73,131.43L158.18,129.76L163.64,131.21L174.55,130.08L180,130.62L185.45,129.23L190.91,129.42L196.36,127.8L201.82,128.95L212.73,129.2L218.18,128.48L229.09,134.57L234.55,136.3L240,139.29L245.45,143.23L250.91,144.05L256.36,148.03L261.82,151.86L267.27,153.96L272.73,155.22L278.18,157.96L283.64,159.54L289.09,162.5L294.55,165.69L300,167.28L305.45,170.28L310.91,171.49L316.36,175.5L321.82,176.94L327.27,179.04L332.73,182.14L338.18,183.95L343.64,186.99L360,193.24L365.45,196.23L409.09,215.01L414.55,218.1L425.45,222.65L430.91,225.33L441.82,227.66L447.27,228.43L474.55,231.76L480,232.33L540,239.28" style="vector-effect: non-scaling-stroke; fill: none; stroke: rgb(231, 107, 243); stroke-opacity: 1; stroke-width: 2px; opacity: 1;"/></g><g class="points"/><g class="text"/></g><g class="trace scatter trace7eec16" style="stroke-miterlimit: 2; opacity: 1;"><g class="fills"/><g class="errorbars"/><g class="lines"><path class="js-line" d="M0,20.62L5.45,34.75L10.91,41.15L49.09,71.1L54.55,78.9L65.45,105.58L70.91,112.84L76.36,119.16L81.82,123.99L92.73,134.97L98.18,141.45L103.64,146.51L109.09,153.07L120,161.18L125.45,160.89L130.91,164.42L136.36,165.5L147.27,167.38L152.73,167.59L158.18,166.72L163.64,167.8L174.55,166.27L180,166.56L190.91,167.42L196.36,166.95L201.82,167.01L207.27,167.91L212.73,165.23L218.18,166.03L223.64,169.79L229.09,171.25L234.55,173.68L240,177.02L245.45,181.47L250.91,183.32L278.18,197.73L283.64,199.73L289.09,203.55L294.55,206.34L300,208.94L305.45,210.54L310.91,211.98L316.36,214.52L321.82,218.39L327.27,219.27L332.73,222.38L338.18,223.96L343.64,228.41L349.09,230.95L354.55,231.69L360,234.85L365.45,236.73L370.91,240.1L376.36,241.56L381.82,244.74L387.27,247.97L392.73,249.71L398.18,251.96L403.64,255.23L409.09,256.83L414.55,259.83L420,262.2L425.45,265.39L436.36,269.91L441.82,270.34L458.18,272.41L463.64,273.17L490.91,276.67L496.36,277.25L518.18,279.94L523.64,280.51L540,282.51" style="vector-effect: non-scaling-stroke; fill: none; stroke: rgb(248, 118, 109); stroke-opacity: 1; stroke-width: 2px; opacity: 1;"/></g><g class="points"/><g class="text"/></g><g class="trace scatter trace969c68" style="stroke-miterlimit: 2; opacity: 1;"><g class="fills"/><g class="errorbars"/><g class="lines"><path class="js-line" d="M0,19.39L5.45,35.44L10.91,41.84L38.18,63.19L43.64,70.83L54.55,92.64L60,98.77L76.36,112.65L81.82,114.55L92.73,119.76L98.18,120.65L109.09,122.92L114.55,125.88L120,133.25L125.45,144.39L130.91,153.39L136.36,157.39L147.27,163.04L152.73,162.92L158.18,165.39L163.64,164.41L174.55,164.34L180,165.34L185.45,165.63L190.91,164.2L201.82,163.21L207.27,162.01L212.73,162.95L218.18,161.72L229.09,168.07L234.55,170.32L240,173.99L245.45,175.35L256.36,179.31L261.82,183.35L272.73,186.8L278.18,189.9L283.64,192.48L289.09,193.47L300,198.78L305.45,200.1L310.91,203.24L316.36,205.47L321.82,207.3L327.27,210.86L332.73,211.42L338.18,214.82L343.64,215.16L349.09,219.25L354.55,220.13L360,222.67L376.36,229.25L381.82,231.4L398.18,238.47L403.64,239.92L420,247.21L425.45,249.45L430.91,252.1L436.36,253.66L540,265.37" style="vector-effect: non-scaling-stroke; fill: none; stroke: rgb(163, 165, 0); stroke-opacity: 1; stroke-width: 2px; opacity: 1;"/></g><g class="points"/><g class="text"/></g><g class="trace scatter trace6b9254" style="stroke-miterlimit: 2; opacity: 1;"><g class="fills"/><g class="errorbars"/><g class="lines"><path class="js-line" d="M0,19.95L5.45,34.96L10.91,41.99L16.36,46.83L21.82,50.58L27.27,53.65L32.73,57.64L54.55,71.66L60,75.97L65.45,86.64L70.91,102.29L76.36,112.9L81.82,120.41L87.27,123.85L92.73,129.79L103.64,143.79L109.09,147.86L125.45,164.65L130.91,169.94L136.36,172.74L141.82,174.31L147.27,177.15L152.73,178.35L158.18,180.55L163.64,179.98L169.09,181.98L174.55,181.73L190.91,181.93L196.36,181.34L201.82,182.58L207.27,180.92L212.73,180.79L218.18,181.76L223.64,183.7L229.09,186.62L234.55,188.15L240,192.02L245.45,196.64L250.91,195.99L256.36,200.64L261.82,203.06L267.27,205.51L272.73,206.92L278.18,209.47L283.64,212.9L289.09,215.38L294.55,216.77L300,219.55L305.45,223.5L310.91,225.03L316.36,229.27L321.82,230.71L327.27,233.37L349.09,244.62L354.55,246.07L370.91,253.78L376.36,255.73L387.27,260.79L392.73,263.23L398.18,266.12L403.64,267.63L414.55,272.62L420,275.02L430.91,280.01L436.36,281.85L452.73,283.74L458.18,284.6L540,293.89" style="vector-effect: non-scaling-stroke; fill: none; stroke: rgb(0, 191, 125); stroke-opacity: 1; stroke-width: 2px; opacity: 1;"/></g><g class="points"/><g class="text"/></g><g class="trace scatter trace5c4877" style="stroke-miterlimit: 2; opacity: 1;"><g class="fills"/><g class="errorbars"/><g class="lines"><path class="js-line" d="M0,16.93L5.45,33.53L10.91,40.54L32.73,56.89L38.18,60.5L49.09,69.38L54.55,71.27L60,75.94L65.45,81.92L70.91,99.23L76.36,125.47L81.82,140.67L87.27,148.47L98.18,158.88L103.64,160.67L109.09,167.33L114.55,172.53L125.45,179.98L130.91,181.71L136.36,181.76L141.82,183.08L152.73,184.25L158.18,183.08L163.64,185.26L169.09,183.37L174.55,182.14L180,183.04L185.45,184.16L190.91,181.05L201.82,179.97L207.27,181.28L212.73,179.79L218.18,181.25L223.64,182.8L229.09,186.82L234.55,188.92L240,191.95L245.45,194.83L250.91,195.63L272.73,206.74L278.18,207.48L289.09,213.9L294.55,216.2L300,217.71L305.45,220.7L316.36,224.39L321.82,226.99L338.18,234.2L343.64,236.3L349.09,238.32L354.55,241.19L360,243.94L365.45,245.44L392.73,257.71L398.18,259.82L414.55,267.26L420,269.53L430.91,274.64L436.36,276.38L507.27,284.42L512.73,285.12L534.55,287.52L540,288.1" style="vector-effect: non-scaling-stroke; fill: none; stroke: rgb(0, 176, 246); stroke-opacity: 1; stroke-width: 2px; opacity: 1;"/></g><g class="points"/><g class="text"/></g><g class="trace scatter traceb7b59a" style="stroke-miterlimit: 2; opacity: 1;"><g class="fills"/><g class="errorbars"/><g class="lines"><path class="js-line" d="M0,19.55L5.45,34.77L10.91,41.18L16.36,44.44L21.82,48.88L32.73,57.67L38.18,62.08L43.64,70.32L49.09,89.14L54.55,110.12L60,124.64L65.45,135.52L70.91,143.9L76.36,148.59L81.82,155.47L87.27,157.66L92.73,162.13L98.18,162.99L103.64,162.41L114.55,165.85L120,165.26L125.45,167.22L130.91,166.85L136.36,167.98L141.82,167.89L152.73,168.52L158.18,168.8L163.64,166.89L169.09,168.5L174.55,166.94L180,167.12L190.91,169.08L196.36,168.54L207.27,166.18L212.73,166.08L218.18,166.76L223.64,169.08L234.55,174.5L240,177.72L245.45,182.16L250.91,183.29L256.36,186.74L261.82,189.18L267.27,191.9L272.73,192.94L283.64,200.07L289.09,201.95L294.55,203.43L300,206.56L305.45,209.11L310.91,210.8L316.36,214.72L321.82,217.5L327.27,219.26L332.73,222.2L343.64,227.23L349.09,228.94L354.55,232.47L360,233.82L365.45,237.5L370.91,239.27L376.36,242.58L381.82,244.17L387.27,247.4L392.73,249.46L409.09,257.66L414.55,259.95L425.45,265.64L430.91,267.75L436.36,269.84L441.82,270.65L452.73,272.15L458.18,272.89L540,282.96" style="vector-effect: non-scaling-stroke; fill: none; stroke: rgb(231, 107, 243); stroke-opacity: 1; stroke-width: 2px; opacity: 1;"/></g><g class="points"/><g class="text"/></g><g class="trace scatter trace1cffab" style="stroke-miterlimit: 2; opacity: 1;"><g class="fills"/><g class="errorbars"/><g class="lines"><path class="js-line" d="M0,16.2L5.45,33.98L10.91,40.78L21.82,49.43L27.27,53.74L38.18,61.84L43.64,64.94L54.55,71.78L60,73.99L65.45,76.92L70.91,78.71L81.82,84.43L87.27,96.72L98.18,132.8L103.64,145.04L114.55,156.94L120,159.7L125.45,161.9L130.91,163.23L136.36,165.39L141.82,164.53L147.27,166.65L152.73,165.88L169.09,168.27L174.55,168.3L180,166.4L185.45,168.57L190.91,168.67L196.36,167.26L201.82,168.96L207.27,168.56L218.18,168.61L223.64,172.85L261.82,191.47L267.27,195.33L272.73,196.5L278.18,199.57L289.09,204.84L294.55,208.85L305.45,213.04L310.91,216.24L316.36,218.44L321.82,221.54L332.73,225.4L338.18,229.65L343.64,230.68L349.09,234.45L360,238L365.45,242.04L381.82,249.06L387.27,251.9L398.18,256.08L403.64,258.66L436.36,272.96L441.82,273.72L540,285.51" style="vector-effect: non-scaling-stroke; fill: none; stroke: rgb(248, 118, 109); stroke-opacity: 1; stroke-width: 2px; opacity: 1;"/></g><g class="points"/><g class="text"/></g><g class="trace scatter trace2b971c" style="stroke-miterlimit: 2; opacity: 1;"><g class="fills"/><g class="errorbars"/><g class="lines"><path class="js-line" d="M0,20.04L5.45,34.89L10.91,41.01L27.27,54.18L32.73,57.86L38.18,61.35L43.64,67.36L49.09,70.07L54.55,75.88L65.45,103.54L70.91,113.89L76.36,119.17L81.82,122.96L98.18,129.74L103.64,131.52L109.09,130.62L114.55,132.39L125.45,132.43L130.91,133.59L136.36,132.25L141.82,132.3L152.73,132.03L158.18,132.73L163.64,132.82L169.09,131.65L174.55,130.39L180,131.46L185.45,130.94L190.91,129.32L201.82,128.7L207.27,128.35L212.73,126.22L218.18,126.15L223.64,130.28L229.09,131.58L245.45,138.94L250.91,141.35L267.27,148.9L272.73,150.45L283.64,156.24L289.09,158.86L294.55,161L300,164.01L321.82,173.59L327.27,177.12L332.73,177.98L338.18,181.19L354.55,188.08L360,190.54L376.36,197.36L381.82,199.95L403.64,210.64L409.09,212.57L436.36,224.24L441.82,224.73L463.64,227.75L469.09,228.29L485.45,230.22L490.91,230.9L534.55,235.98L540,236.61" style="vector-effect: non-scaling-stroke; fill: none; stroke: rgb(163, 165, 0); stroke-opacity: 1; stroke-width: 2px; opacity: 1;"/></g><g class="points"/><g class="text"/></g><g class="trace scatter tracee979e5" style="stroke-miterlimit: 2; opacity: 1;"><g class="fills"/><g class="errorbars"/><g class="lines"><path class="js-line" d="M0,17.64L5.45,34.38L10.91,41.2L38.18,60.12L43.64,63.23L49.09,67.36L54.55,70.52L65.45,75.61L70.91,76.73L76.36,79.92L81.82,81.59L92.73,83.01L98.18,85.16L114.55,86.05L120,87.41L125.45,87.41L130.91,85.89L152.73,88.67L158.18,88.19L163.64,87.82L169.09,89.26L207.27,86.3L212.73,86.13L218.18,86.11L223.64,89.62L234.55,95.05L240,96.64L250.91,101.8L256.36,104.07L261.82,105.24L267.27,109.17L272.73,111.22L278.18,115.52L283.64,116.83L289.09,119.1L294.55,120.7L300,124.56L305.45,125.79L310.91,128.42L316.36,129.2L321.82,132.67L332.73,136.47L338.18,139.82L343.64,142.46L349.09,143.74L354.55,146.63L360,148.14L376.36,154.67L381.82,158.1L392.73,162.7L398.18,164.74L403.64,166.23L409.09,169.26L436.36,180.55L441.82,180.88L501.82,187.56L507.27,188.19L540,191.63" style="vector-effect: non-scaling-stroke; fill: none; stroke: rgb(0, 191, 125); stroke-opacity: 1; stroke-width: 2px; opacity: 1;"/></g><g class="points"/><g class="text"/></g><g class="trace scatter tracecfb807" style="stroke-miterlimit: 2; opacity: 1;"><g class="fills"/><g class="errorbars"/><g class="lines"><path class="js-line" d="M0,20.44L5.45,35.48L10.91,41.43L32.73,56.56L38.18,61.78L65.45,75.85L70.91,76.89L76.36,79.18L81.82,80.48L87.27,82.38L92.73,83.44L98.18,87.82L103.64,95.31L109.09,106.94L114.55,116.56L120,121.89L125.45,124.43L130.91,127.04L136.36,127.55L141.82,127.98L147.27,131.63L152.73,129.96L158.18,132.87L163.64,133.03L169.09,137.62L180,144.99L185.45,147.58L196.36,154.99L201.82,157.16L212.73,165.86L218.18,168.26L223.64,170.82L229.09,176.79L240,185.2L245.45,189.1L250.91,193.55L256.36,196.43L261.82,198.88L267.27,202.39L278.18,209.98L283.64,210.59L300,220.77L305.45,222.44L310.91,224.39L316.36,227.67L338.18,238.9L343.64,240.19L349.09,243.81L354.55,244.93L381.82,256.99L387.27,259.23L398.18,264.69L403.64,266.55L409.09,268.51L414.55,271.78L425.45,275.84L430.91,278.62L436.36,280.39L441.82,281.14L452.73,282.5L458.18,283.15L540,292.6" style="vector-effect: non-scaling-stroke; fill: none; stroke: rgb(0, 176, 246); stroke-opacity: 1; stroke-width: 2px; opacity: 1;"/></g><g class="points"/><g class="text"/></g><g class="trace scatter trace420bb0" style="stroke-miterlimit: 2; opacity: 1;"><g class="fills"/><g class="errorbars"/><g class="lines"><path class="js-line" d="M0,17.48L5.45,33.57L10.91,40.05L16.36,44.87L21.82,48.36L38.18,60.35L43.64,64.07L49.09,67.52L54.55,69.43L65.45,76.19L70.91,78.57L76.36,81.82L81.82,86.75L87.27,91.28L92.73,94.55L98.18,98.3L103.64,99.58L109.09,102.91L114.55,102.2L120,103.48L125.45,103.84L136.36,106.44L141.82,104.73L147.27,106.71L152.73,107.66L158.18,106.78L163.64,107.48L169.09,107.41L174.55,109.4L185.45,106.94L190.91,106.09L196.36,106.11L201.82,107.11L212.73,106.8L218.18,107.47L240,117.06L245.45,119.12L250.91,123.57L256.36,125.01L261.82,126.86L267.27,129.8L278.18,133.54L283.64,137.06L305.45,146.59L310.91,149.5L316.36,150.04L321.82,152.79L327.27,156.64L332.73,157.39L338.18,160.38L343.64,161.45L349.09,164.97L354.55,166.87L360,168.29L365.45,171.04L376.36,174.64L381.82,177.07L403.64,185.92L409.09,187.48L420,192.43L425.45,194.61L436.36,198.41L441.82,198.84L458.18,200.75L463.64,201.26L540,209.27" style="vector-effect: non-scaling-stroke; fill: none; stroke: rgb(231, 107, 243); stroke-opacity: 1; stroke-width: 2px; opacity: 1;"/></g><g class="points"/><g class="text"/></g><g class="trace scatter trace49f345" style="stroke-miterlimit: 2; opacity: 1;"><g class="fills"/><g class="errorbars"/><g class="lines"><path class="js-line" d="M0,17.68L5.45,34.63L10.91,41.76L16.36,46.38L21.82,49.85L38.18,60.95L43.64,66.85L49.09,80.87L54.55,99.91L65.45,126.26L70.91,136.63L76.36,145.24L81.82,150.72L92.73,157.88L98.18,160.2L103.64,163.82L109.09,164.41L125.45,167.93L130.91,169.52L141.82,172.01L147.27,171L152.73,172.2L158.18,172.51L163.64,174.73L169.09,174.49L174.55,174.6L180,173.66L190.91,172.95L196.36,172.33L201.82,171.87L207.27,170.5L212.73,169.92L218.18,170.46L223.64,174.29L229.09,175.61L234.55,177.79L240,181.74L245.45,183.44L250.91,186.25L261.82,191.14L267.27,195.36L272.73,196.06L278.18,199.26L283.64,202.72L289.09,204.31L294.55,207.08L300,208.66L305.45,210.02L310.91,214.24L332.73,222.64L338.18,225.3L343.64,227.75L349.09,229.11L365.45,237.18L370.91,239.67L381.82,243.74L387.27,246.96L392.73,248.13L398.18,251.85L403.64,253.29L409.09,256.19L425.45,263.13L430.91,266.14L436.36,267.76L441.82,268.47L463.64,271.14L469.09,271.56L490.91,274.16L496.36,274.89L540,280.09" style="vector-effect: non-scaling-stroke; fill: none; stroke: rgb(248, 118, 109); stroke-opacity: 1; stroke-width: 2px; opacity: 1;"/></g><g class="points"/><g class="text"/></g><g class="trace scatter trace7df486" style="stroke-miterlimit: 2; opacity: 1;"><g class="fills"/><g class="errorbars"/><g class="lines"><path class="js-line" d="M0,17.7L5.45,33.75L10.91,40.26L27.27,51.45L32.73,56.61L43.64,63.9L49.09,66.88L54.55,70.85L60,72.25L65.45,76.46L70.91,78.26L76.36,80.54L81.82,80.52L92.73,85.92L98.18,92.53L103.64,107L109.09,114.27L114.55,121.03L120,123.9L125.45,126.19L130.91,131.2L141.82,141.56L147.27,144.73L158.18,150.31L163.64,149.5L174.55,152.07L180,154.02L185.45,153.61L190.91,155L196.36,154.55L201.82,157.56L212.73,157.31L218.18,159.5L240,172.98L245.45,174.87L267.27,188.85L272.73,190.34L278.18,192.46L283.64,195.91L289.09,200.12L294.55,201.92L305.45,205.47L310.91,207.84L316.36,211.61L321.82,213.64L332.73,219.99L338.18,220.82L343.64,223.78L349.09,225.71L354.55,227.59L360,230.94L365.45,232.65L370.91,235.34L376.36,238.35L381.82,240.29L387.27,243.12L392.73,244.84L409.09,252.04L414.55,254.19L436.36,263.66L441.82,264.15L496.36,270.75L501.82,271.09L540,275.42" style="vector-effect: non-scaling-stroke; fill: none; stroke: rgb(163, 165, 0); stroke-opacity: 1; stroke-width: 2px; opacity: 1;"/></g><g class="points"/><g class="text"/></g><g class="trace scatter tracefcbf23" style="stroke-miterlimit: 2; opacity: 1;"><g class="fills"/><g class="errorbars"/><g class="lines"><path class="js-line" d="M0,19.21L5.45,34.95L10.91,42.31L32.73,60.88L38.18,63.6L43.64,69L49.09,71.17L60,77.97L65.45,79.82L70.91,83.15L76.36,89.26L81.82,104.62L87.27,113.76L92.73,118.56L98.18,122.24L103.64,125.82L109.09,127.01L120,128.53L125.45,129.76L130.91,130.98L136.36,129.71L141.82,130.9L147.27,130.67L152.73,130.9L158.18,130.24L163.64,130.96L169.09,128.46L174.55,129.24L180,128.98L190.91,129.33L196.36,129.03L201.82,129.85L207.27,129.11L212.73,130.82L218.18,135.55L223.64,140.7L229.09,143.18L234.55,150.91L240,152.99L245.45,156.97L250.91,158.78L289.09,180.98L294.55,181.47L300,185.06L305.45,187.33L321.82,194.72L327.27,196.77L332.73,199.72L338.18,201.44L343.64,204.34L349.09,206.18L365.45,214.2L370.91,215.73L403.64,230.38L409.09,232.64L414.55,234.6L420,237.87L430.91,242.41L436.36,244.52L447.27,245.28L452.73,246.19L540,256.15" style="vector-effect: non-scaling-stroke; fill: none; stroke: rgb(0, 191, 125); stroke-opacity: 1; stroke-width: 2px; opacity: 1;"/></g><g class="points"/><g class="text"/></g><g class="trace scatter tracef12955" style="stroke-miterlimit: 2; opacity: 1;"><g class="fills"/><g class="errorbars"/><g class="lines"><path class="js-line" d="M0,19.43L5.45,34.49L10.91,40.49L38.18,61.16L43.64,64.66L54.55,71.1L60,73.11L65.45,76.29L70.91,78.21L98.18,86.88L103.64,88.05L109.09,89.09L114.55,92.08L120,93.48L125.45,103.25L130.91,111.83L136.36,117.88L141.82,121.75L147.27,123.66L152.73,124.54L158.18,126.22L163.64,126.25L169.09,127.62L201.82,126.92L207.27,127.23L212.73,126.9L218.18,127.79L223.64,131.18L229.09,133.04L234.55,134.88L240,138.58L245.45,138.88L250.91,142.74L261.82,148.63L267.27,150.08L272.73,153.52L278.18,154.82L283.64,158.12L289.09,159.74L300,164.56L305.45,167.35L310.91,168.02L316.36,172.13L327.27,175.27L332.73,179L343.64,182.3L349.09,185.63L354.55,186.59L360,189.28L370.91,193.95L376.36,196.85L381.82,198.26L387.27,201.24L392.73,203.12L398.18,206.1L409.09,209.94L414.55,212.67L425.45,216.94L430.91,219.01L441.82,221.76L447.27,222.44L458.18,223.81L463.64,224.2L480,225.95L485.45,226.59L518.18,230.2L523.64,230.73L540,232.5" style="vector-effect: non-scaling-stroke; fill: none; stroke: rgb(0, 176, 246); stroke-opacity: 1; stroke-width: 2px; opacity: 1;"/></g><g class="points"/><g class="text"/></g><g class="trace scatter traceb1c129" style="stroke-miterlimit: 2; opacity: 1;"><g class="fills"/><g class="errorbars"/><g class="lines"><path class="js-line" d="M0,17.8L5.45,34.73L10.91,40.81L32.73,57.8L38.18,61.94L49.09,69.88L54.55,72.12L65.45,78.78L70.91,84.74L76.36,100.1L81.82,112.76L87.27,117.74L92.73,123.81L98.18,125.35L103.64,128.25L109.09,128.99L114.55,130.49L125.45,133.06L130.91,133.23L136.36,134.65L141.82,136.9L147.27,140.11L152.73,142.32L158.18,146.74L163.64,148.44L174.55,150.14L180,151.75L185.45,152.65L190.91,150.87L207.27,152.29L212.73,151.73L223.64,156.77L229.09,162.95L234.55,165.74L240,169.62L245.45,172.72L250.91,176.93L256.36,178.78L261.82,182.98L267.27,184.49L272.73,188.63L278.18,189.37L283.64,195L289.09,196.52L294.55,200.01L300,203.18L305.45,205.26L332.73,218.67L338.18,220.44L349.09,226.51L354.55,228.39L360,231.35L365.45,233.23L376.36,237.93L381.82,241.7L387.27,242.72L392.73,245.36L398.18,248.73L403.64,251.02L425.45,260.62L430.91,262.91L436.36,265.08L441.82,265.83L469.09,269L474.55,269.78L523.64,275.51L529.09,276.08L540,277.36" style="vector-effect: non-scaling-stroke; fill: none; stroke: rgb(231, 107, 243); stroke-opacity: 1; stroke-width: 2px; opacity: 1;"/></g><g class="points"/><g class="text"/></g></g></g><g class="overplot"/><path class="xlines-above crisp" d="" style="fill: none; stroke-width: 1px; stroke: rgb(0, 0, 0); stroke-opacity: 0;"/><path class="ylines-above crisp" d="" style="fill: none; stroke-width: 1px; stroke: rgb(0, 0, 0); stroke-opacity: 0;"/><g class="overlines-above"/><g class="xaxislayer-above"><path class="xtick ticks crisp" d="M0,421v5" transform="translate(80,0)" style="stroke: rgb(51, 51, 51); stroke-opacity: 1; stroke-width: 1px;"/><path class="xtick ticks crisp" d="M0,421v5" transform="translate(189.09,0)" style="stroke: rgb(51, 51, 51); stroke-opacity: 1; stroke-width: 1px;"/><path class="xtick ticks crisp" d="M0,421v5" transform="translate(298.18,0)" style="stroke: rgb(51, 51, 51); stroke-opacity: 1; stroke-width: 1px;"/><path class="xtick ticks crisp" d="M0,421v5" transform="translate(407.27,0)" style="stroke: rgb(51, 51, 51); stroke-opacity: 1; stroke-width: 1px;"/><path class="xtick ticks crisp" d="M0,421v5" transform="translate(516.36,0)" style="stroke: rgb(51, 51, 51); stroke-opacity: 1; stroke-width: 1px;"/><g class="xtick"><text text-anchor="middle" x="0" y="440.4" transform="translate(80,0)" style="font-family: 'Open Sans', verdana, arial, sans-serif; font-size: 12px; fill: rgb(51, 51, 51); fill-opacity: 1; white-space: pre; opacity: 1;">0</text></g><g class="xtick"><text text-anchor="middle" x="0" y="440.4" style="font-family: 'Open Sans', verdana, arial, sans-serif; font-size: 12px; fill: rgb(51, 51, 51); fill-opacity: 1; white-space: pre; opacity: 1;" transform="translate(189.09,0)">20</text></g><g class="xtick"><text text-anchor="middle" x="0" y="440.4" style="font-family: 'Open Sans', verdana, arial, sans-serif; font-size: 12px; fill: rgb(51, 51, 51); fill-opacity: 1; white-space: pre; opacity: 1;" transform="translate(298.18,0)">40</text></g><g class="xtick"><text text-anchor="middle" x="0" y="440.4" style="font-family: 'Open Sans', verdana, arial, sans-serif; font-size: 12px; fill: rgb(51, 51, 51); fill-opacity: 1; white-space: pre; opacity: 1;" transform="translate(407.27,0)">60</text></g><g class="xtick"><text text-anchor="middle" x="0" y="440.4" style="font-family: 'Open Sans', verdana, arial, sans-serif; font-size: 12px; fill: rgb(51, 51, 51); fill-opacity: 1; white-space: pre; opacity: 1;" transform="translate(516.36,0)">80</text></g></g><g class="yaxislayer-above"><path class="ytick ticks crisp" d="M79,0h-5" transform="translate(0,383.06)" style="stroke: rgb(51, 51, 51); stroke-opacity: 1; stroke-width: 1px;"/><path class="ytick ticks crisp" d="M79,0h-5" transform="translate(0,332.55)" style="stroke: rgb(51, 51, 51); stroke-opacity: 1; stroke-width: 1px;"/><path class="ytick ticks crisp" d="M79,0h-5" transform="translate(0,282.03999999999996)" style="stroke: rgb(51, 51, 51); stroke-opacity: 1; stroke-width: 1px;"/><path class="ytick ticks crisp" d="M79,0h-5" transform="translate(0,231.53)" style="stroke: rgb(51, 51, 51); stroke-opacity: 1; stroke-width: 1px;"/><path class="ytick ticks crisp" d="M79,0h-5" transform="translate(0,181.01)" style="stroke: rgb(51, 51, 51); stroke-opacity: 1; stroke-width: 1px;"/><path class="ytick ticks crisp" d="M79,0h-5" transform="translate(0,130.5)" style="stroke: rgb(51, 51, 51); stroke-opacity: 1; stroke-width: 1px;"/><g class="ytick"><text text-anchor="end" x="71.6" y="4.199999999999999" transform="translate(0,383.06)" style="font-family: 'Open Sans', verdana, arial, sans-serif; font-size: 12px; fill: rgb(51, 51, 51); fill-opacity: 1; white-space: pre; opacity: 1;">5.3</text></g><g class="ytick"><text text-anchor="end" x="71.6" y="4.199999999999999" style="font-family: 'Open Sans', verdana, arial, sans-serif; font-size: 12px; fill: rgb(51, 51, 51); fill-opacity: 1; white-space: pre; opacity: 1;" transform="translate(0,332.55)">5.35</text></g><g class="ytick"><text text-anchor="end" x="71.6" y="4.199999999999999" style="font-family: 'Open Sans', verdana, arial, sans-serif; font-size: 12px; fill: rgb(51, 51, 51); fill-opacity: 1; white-space: pre; opacity: 1;" transform="translate(0,282.03999999999996)">5.4</text></g><g class="ytick"><text text-anchor="end" x="71.6" y="4.199999999999999" style="font-family: 'Open Sans', verdana, arial, sans-serif; font-size: 12px; fill: rgb(51, 51, 51); fill-opacity: 1; white-space: pre; opacity: 1;" transform="translate(0,231.53)">5.45</text></g><g class="ytick"><text text-anchor="end" x="71.6" y="4.199999999999999" style="font-family: 'Open Sans', verdana, arial, sans-serif; font-size: 12px; fill: rgb(51, 51, 51); fill-opacity: 1; white-space: pre; opacity: 1;" transform="translate(0,181.01)">5.5</text></g><g class="ytick"><text text-anchor="end" x="71.6" y="4.199999999999999" style="font-family: 'Open Sans', verdana, arial, sans-serif; font-size: 12px; fill: rgb(51, 51, 51); fill-opacity: 1; white-space: pre; opacity: 1;" transform="translate(0,130.5)">5.55</text></g></g><g class="overaxes-above"/></g></g><g class="polarlayer"/><g class="ternarylayer"/><g class="geolayer"/><g class="funnelarealayer"/><g class="pielayer"/><g class="iciclelayer"/><g class="treemaplayer"/><g class="sunburstlayer"/><g class="glimages"/><defs id="topdefs-98647c"><g class="clips"/></defs><g class="layer-above"><g class="imagelayer"/><g class="shapelayer"/></g><g class="infolayer"><g class="g-gtitle"><text class="gtitle" x="350" y="50" text-anchor="middle" dy="0em" style="font-family: 'Open Sans', verdana, arial, sans-serif; font-size: 17px; fill: rgb(51, 51, 51); opacity: 1; font-weight: normal; white-space: pre;">Train Loss: ascad_v1_fk_0_noisy-s_eff_cnn_id (early_stopping)</text></g><g class="g-xtitle"/><g class="g-ytitle"/></g></svg>