<svg class="main-svg" xmlns="http://www.w3.org/2000/svg" xmlns:xlink="http://www.w3.org/1999/xlink" width="700" height="500" style="" viewBox="0 0 700 500"><rect x="0" y="0" width="700" height="500" style="fill: rgb(255, 255, 255); fill-opacity: 1;"/><defs id="defs-54a701"><g class="clips"><clipPath id="clip54a701xyplot" class="plotclip"><rect width="540" height="320"/></clipPath><clipPath class="axesclip" id="clip54a701x"><rect x="80" y="0" width="540" height="500"/></clipPath><clipPath class="axesclip" id="clip54a701y"><rect x="0" y="100" width="700" height="320"/></clipPath><clipPath class="axesclip" id="clip54a701xy"><rect x="80" y="100" width="540" height="320"/></clipPath></g><g class="gradients"/><g class="patterns"/></defs><g class="bglayer"><rect class="bg" x="80" y="100" width="540" height="320" style="fill: rgb(237, 237, 237); fill-opacity: 1; stroke-width: 0;"/></g><g class="layer-below"><g class="imagelayer"/><g class="shapelayer"/></g><g class="cartesianlayer"><g class="subplot xy"><g class="layer-subplot"><g class="shapelayer"/><g class="imagelayer"/></g><g class="gridlayer"><g class="x"><path class="xgrid crisp" transform="translate(189.09,0)" d="M0,100v320" style="stroke: rgb(255, 255, 255); stroke-opacity: 1; stroke-width: 1px;"/><path class="xgrid crisp" transform="translate(298.18,0)" d="M0,100v320" style="stroke: rgb(255, 255, 255); stroke-opacity: 1; stroke-width: 1px;"/><path class="xgrid crisp" transform="translate(407.27,0)" d="M0,100v320" style="stroke: rgb(255, 255, 255); stroke-opacity: 1; stroke-width: 1px;"/><path class="xgrid crisp" transform="translate(516.36,0)" d="M0,100v320" style="stroke: rgb(255, 255, 255); stroke-opacity: 1; stroke-width: 1px;"/></g><g class="y"><path class="ygrid crisp" transform="translate(0,394.18)" d="M80,0h540" style="stroke: rgb(255, 255, 255); stroke-opacity: 1; stroke-width: 1px;"/><path class="ygrid crisp" transform="translate(0,353.88)" d="M80,0h540" style="stroke: rgb(255, 255, 255); stroke-opacity: 1; stroke-width: 1px;"/><path class="ygrid crisp" transform="translate(0,313.58000000000004)" d="M80,0h540" style="stroke: rgb(255, 255, 255); stroke-opacity: 1; stroke-width: 1px;"/><path class="ygrid crisp" transform="translate(0,273.28)" d="M80,0h540" style="stroke: rgb(255, 255, 255); stroke-opacity: 1; stroke-width: 1px;"/><path class="ygrid crisp" transform="translate(0,232.97)" d="M80,0h540" style="stroke: rgb(255, 255, 255); stroke-opacity: 1; stroke-width: 1px;"/><path class="ygrid crisp" transform="translate(0,192.67000000000002)" d="M80,0h540" style="stroke: rgb(255, 255, 255); stroke-opacity: 1; stroke-width: 1px;"/><path class="ygrid crisp" transform="translate(0,152.37)" d="M80,0h540" style="stroke: rgb(255, 255, 255); stroke-opacity: 1; stroke-width: 1px;"/><path class="ygrid crisp" transform="translate(0,112.07)" d="M80,0h540" style="stroke: rgb(255, 255, 255); stroke-opacity: 1; stroke-width: 1px;"/></g></g><g class="zerolinelayer"><path class="xzl zl crisp" transform="translate(80,0)" d="M0,100v320" style="stroke: rgb(255, 255, 255); stroke-opacity: 1; stroke-width: 1px;"/></g><path class="xlines-below"/><path class="ylines-below"/><g class="overlines-below"/><g class="xaxislayer-below"/><g class="yaxislayer-below"/><g class="overaxes-below"/><g class="plot" transform="translate(80,100)" clip-path="url(#clip54a701xyplot)"><g class="scatterlayer mlayer"><g class="trace scatter trace594de6" style="stroke-miterlimit: 2; opacity: 1;"><g class="fills"/><g class="errorbars"/><g class="lines"><path class="js-line" d="M0,68.85L5.45,188.63L10.91,197.26L16.36,200.89L21.82,203.46L38.18,208.37L43.64,209.01L65.45,213.55L70.91,214.27L81.82,216.22L87.27,216.5L98.18,217.76L103.64,219.26L109.09,219.19L114.55,220.17L120,220.14L125.45,221.89L136.36,222.61L141.82,222.76L147.27,224.01L152.73,223.62L163.64,224.73L169.09,224.65L174.55,226.3L180,226.35L185.45,226.61L190.91,225.9L196.36,227.5L201.82,227.59L207.27,226.69L212.73,227.87L218.18,228.3L223.64,229.99L229.09,231.05L234.55,233.03L240,233.84L245.45,235.41L250.91,237.64L256.36,238.4L267.27,241.25L272.73,242.78L278.18,243.56L283.64,245.67L289.09,246.23L294.55,248.73L305.45,251.67L310.91,252L321.82,255.34L327.27,256.04L349.09,261.61L354.55,261.75L360,263.67L365.45,264.26L376.36,266.99L381.82,268.26L436.36,278.83L441.82,279.08L480,281.43L485.45,281.68L529.09,283.73L534.55,283.98L540,284.21" style="vector-effect: non-scaling-stroke; fill: none; stroke: rgb(248, 118, 109); stroke-opacity: 1; stroke-width: 2px; opacity: 1;"/></g><g class="points"/><g class="text"/></g><g class="trace scatter tracecf8f54" style="stroke-miterlimit: 2; opacity: 1;"><g class="fills"/><g class="errorbars"/><g class="lines"><path class="js-line" d="M0,44.82L5.45,192.18L10.91,199.61L16.36,202.32L21.82,204.06L27.27,206.51L32.73,211.89L43.64,221.6L49.09,224.59L54.55,227.93L60,230.2L70.91,232.72L76.36,234.07L81.82,234.36L87.27,236.36L98.18,237.82L103.64,237.83L109.09,237.89L114.55,238.93L130.91,240.67L136.36,240.26L141.82,241.49L147.27,241.71L163.64,242.49L169.09,242.99L174.55,242.74L180,243.77L190.91,242.89L196.36,243.69L201.82,244.04L207.27,243.47L212.73,244.56L218.18,244.06L223.64,246.46L229.09,246.45L234.55,248.48L240,248.8L245.45,251.45L250.91,252.16L261.82,254.35L267.27,256.2L272.73,256.42L278.18,258.44L283.64,258.65L289.09,260.67L300,262.49L305.45,263.92L310.91,264.64L316.36,266.78L327.27,267.54L332.73,269.54L338.18,270.24L343.64,271.78L354.55,273.41L360,274.66L403.64,282.85L409.09,283.78L430.91,288.15L436.36,288.72L452.73,289.71L458.18,290L496.36,291.91L501.82,292.19L540,293.91" style="vector-effect: non-scaling-stroke; fill: none; stroke: rgb(163, 165, 0); stroke-opacity: 1; stroke-width: 2px; opacity: 1;"/></g><g class="points"/><g class="text"/></g><g class="trace scatter traceba2a9c" style="stroke-miterlimit: 2; opacity: 1;"><g class="fills"/><g class="errorbars"/><g class="lines"><path class="js-line" d="M0,103.79L5.45,187.72L10.91,197.27L16.36,201.95L21.82,204.02L32.73,210.71L38.18,214.65L43.64,217.6L49.09,219.56L54.55,221.72L60,222.56L76.36,226.16L81.82,228.04L109.09,235.83L114.55,236.59L120,236.99L125.45,238.33L141.82,239.72L147.27,238.89L163.64,241.49L169.09,241.97L190.91,242.53L196.36,243.26L201.82,244.17L207.27,243.65L212.73,241.89L218.18,243.5L229.09,245.74L234.55,247.81L245.45,250.72L250.91,250.93L256.36,252.77L261.82,253.81L283.64,259.4L289.09,260.22L294.55,262.61L300,263.56L316.36,266.35L321.82,267.66L354.55,274.57L360,275.86L365.45,276.6L370.91,278.4L398.18,283.41L403.64,284.18L441.82,290.07L447.27,290.47L485.45,292.38L490.91,292.72L540,294.92" style="vector-effect: non-scaling-stroke; fill: none; stroke: rgb(0, 191, 125); stroke-opacity: 1; stroke-width: 2px; opacity: 1;"/></g><g class="points"/><g class="text"/></g><g class="trace scatter tracebb9e39" style="stroke-miterlimit: 2; opacity: 1;"><g class="fills"/><g class="errorbars"/><g class="lines"><path class="js-line" d="M0,94.27L5.45,188.42L10.91,197.68L16.36,201.7L21.82,203.71L32.73,207.38L38.18,208.49L49.09,210.88L54.55,213.13L65.45,217.01L70.91,217.49L76.36,220.27L81.82,220.66L87.27,222.92L92.73,224.1L103.64,226.05L109.09,227.7L114.55,227.43L120,228.65L125.45,228.78L130.91,230.09L141.82,230.47L147.27,230.76L158.18,232.4L163.64,232.3L185.45,234.15L190.91,233.13L212.73,236.33L218.18,236.62L223.64,238.38L229.09,239.3L234.55,241.4L240,242.36L250.91,246.02L256.36,246.97L283.64,252.32L289.09,253.18L305.45,258.64L310.91,259.16L316.36,259.61L321.82,261.87L338.18,264.41L343.64,266.24L349.09,266.97L354.55,268.52L370.91,271.05L376.36,272.24L392.73,275.57L398.18,275.92L414.55,279.45L420,280.07L436.36,282.75L441.82,282.98L463.64,284.23L469.09,284.51L501.82,286L507.27,286.21L540,287.5" style="vector-effect: non-scaling-stroke; fill: none; stroke: rgb(0, 176, 246); stroke-opacity: 1; stroke-width: 2px; opacity: 1;"/></g><g class="points"/><g class="text"/></g><g class="trace scatter tracedb58af" style="stroke-miterlimit: 2; opacity: 1;"><g class="fills"/><g class="errorbars"/><g class="lines"><path class="js-line" d="M0,86.24L5.45,196.4L10.91,200.54L16.36,202.74L21.82,203.44L32.73,206.65L38.18,212.83L54.55,223.29L60,225.01L65.45,227.37L70.91,228.89L81.82,230.76L87.27,232.87L92.73,234.55L98.18,234.39L103.64,236.58L109.09,237.07L125.45,239.21L130.91,238.87L136.36,238.72L141.82,239.78L163.64,242L169.09,241.57L180,243.08L185.45,242.04L190.91,243.76L196.36,243.6L207.27,243.76L212.73,244.45L218.18,243.18L223.64,246.23L229.09,246.62L234.55,248L240,249.83L245.45,249.79L256.36,253.58L261.82,253.97L289.09,259.86L294.55,261.88L305.45,264.02L310.91,265L321.82,266.98L327.27,268.71L332.73,268.75L338.18,270.21L343.64,271.98L349.09,272.94L360,274.56L365.45,275.37L370.91,275.95L376.36,277.98L430.91,287.47L436.36,287.96L540,292.94" style="vector-effect: non-scaling-stroke; fill: none; stroke: rgb(231, 107, 243); stroke-opacity: 1; stroke-width: 2px; opacity: 1;"/></g><g class="points"/><g class="text"/></g><g class="trace scatter trace5a51f4" style="stroke-miterlimit: 2; opacity: 1;"><g class="fills"/><g class="errorbars"/><g class="lines"><path class="js-line" d="M0,79.36L5.45,187.52L10.91,196.53L16.36,200.64L21.82,202.62L27.27,204.55L32.73,205.67L49.09,209.22L54.55,210.39L60,210.8L65.45,212.27L70.91,213L76.36,214.61L87.27,219.92L92.73,223.19L103.64,229.61L109.09,231.18L120,232.79L125.45,235.25L130.91,234.36L136.36,236.43L141.82,237.94L147.27,237.08L152.73,239.06L158.18,239.78L169.09,241.51L174.55,240.87L185.45,242.39L190.91,242.14L201.82,242.09L207.27,243.03L218.18,242.78L223.64,243.83L229.09,245.59L234.55,246.01L245.45,250.34L250.91,251.39L256.36,253.22L261.82,253.17L267.27,255.54L272.73,256.27L294.55,261.38L300,262.48L305.45,262.89L310.91,264.35L321.82,267.26L327.27,268.33L332.73,268.9L338.18,270.49L354.55,273.69L360,274.28L370.91,276.88L376.36,278.06L392.73,280.61L398.18,281.97L414.55,285.03L420,286.03L436.36,288.32L441.82,288.67L485.45,290.99L490.91,291.13L540,293.32" style="vector-effect: non-scaling-stroke; fill: none; stroke: rgb(248, 118, 109); stroke-opacity: 1; stroke-width: 2px; opacity: 1;"/></g><g class="points"/><g class="text"/></g><g class="trace scatter trace97e444" style="stroke-miterlimit: 2; opacity: 1;"><g class="fills"/><g class="errorbars"/><g class="lines"><path class="js-line" d="M0,63.14L5.45,188.14L10.91,198.27L16.36,201.4L21.82,203.39L32.73,207.4L38.18,210.62L60,224.59L65.45,227.19L70.91,229.89L76.36,231.46L81.82,233.87L87.27,233.29L92.73,235.79L98.18,236.05L109.09,239.17L114.55,238.61L120,239.44L125.45,238.77L130.91,240.85L136.36,240.4L158.18,242.28L163.64,242.03L185.45,243.04L190.91,243.64L207.27,244.44L212.73,244.62L223.64,245.87L229.09,247.15L234.55,250.3L240,251.33L245.45,250.89L250.91,252.67L256.36,255.46L261.82,255.44L267.27,257.53L272.73,258.66L283.64,261.02L289.09,262.32L294.55,263.68L300,264.22L310.91,267.28L316.36,268.54L321.82,269.28L327.27,271.19L332.73,270.6L338.18,272.61L354.55,276.34L360,277.21L376.36,280.63L381.82,281.54L392.73,283.49L398.18,284.84L409.09,286.37L414.55,287.63L436.36,291.21L441.82,291.68L485.45,293.84L490.91,294.16L540,296.25" style="vector-effect: non-scaling-stroke; fill: none; stroke: rgb(163, 165, 0); stroke-opacity: 1; stroke-width: 2px; opacity: 1;"/></g><g class="points"/><g class="text"/></g><g class="trace scatter tracea98643" style="stroke-miterlimit: 2; opacity: 1;"><g class="fills"/><g class="errorbars"/><g class="lines"><path class="js-line" d="M0,55.58L5.45,182.16L10.91,195.97L16.36,200.54L21.82,203.12L38.18,208.18L43.64,208.55L54.55,210.42L60,211.56L65.45,215.01L70.91,219.62L76.36,224.25L81.82,227.29L87.27,228.45L92.73,231.06L98.18,233.77L103.64,234.37L109.09,235.44L114.55,237.67L136.36,240.38L141.82,240.12L147.27,241.8L152.73,241.57L169.09,242.33L174.55,243.32L180,243.13L185.45,244.03L190.91,244.62L196.36,243.25L207.27,244.11L212.73,245.67L223.64,246.87L229.09,248.75L240,250.08L245.45,252.35L261.82,255.28L267.27,256.66L272.73,257.72L278.18,257.94L300,264.1L305.45,264.54L338.18,271.06L343.64,273.14L349.09,273.51L354.55,274.91L360,275.57L365.45,277.19L370.91,277.69L376.36,279.08L403.64,283.64L409.09,284.96L436.36,289.37L441.82,289.67L458.18,290.7L463.64,290.88L540,294.46" style="vector-effect: non-scaling-stroke; fill: none; stroke: rgb(0, 191, 125); stroke-opacity: 1; stroke-width: 2px; opacity: 1;"/></g><g class="points"/><g class="text"/></g><g class="trace scatter traced80a5e" style="stroke-miterlimit: 2; opacity: 1;"><g class="fills"/><g class="errorbars"/><g class="lines"><path class="js-line" d="M0,37.81L5.45,184.19L10.91,196.18L16.36,200.3L21.82,203.15L38.18,206.85L43.64,207.56L49.09,208.92L54.55,213.01L60,217.49L65.45,219.99L76.36,223.28L81.82,223.97L109.09,228.09L114.55,228.26L125.45,230.09L130.91,229.93L141.82,231.47L147.27,231.01L152.73,231.9L158.18,231.37L163.64,232.5L169.09,232.65L174.55,233.72L180,233.08L185.45,234.52L190.91,233.41L196.36,234.11L201.82,233.97L207.27,235.38L212.73,235.42L218.18,235.58L223.64,236.66L229.09,238.43L234.55,239.01L245.45,241.38L250.91,243.77L256.36,243.46L261.82,244.71L272.73,247.87L278.18,248.57L283.64,249.76L289.09,252.02L300,254.08L305.45,254.01L310.91,256.33L316.36,257.07L327.27,259.22L332.73,260.1L343.64,262.45L349.09,263.82L370.91,268.2L376.36,268.37L392.73,272.07L398.18,272.92L430.91,278.76L436.36,279.39L452.73,280.34L458.18,280.76L490.91,282.47L496.36,282.55L540,284.42" style="vector-effect: non-scaling-stroke; fill: none; stroke: rgb(0, 176, 246); stroke-opacity: 1; stroke-width: 2px; opacity: 1;"/></g><g class="points"/><g class="text"/></g><g class="trace scatter trace851020" style="stroke-miterlimit: 2; opacity: 1;"><g class="fills"/><g class="errorbars"/><g class="lines"><path class="js-line" d="M0,48.72L5.45,190.41L10.91,198.18L16.36,201.49L21.82,203.23L32.73,206.01L38.18,207.67L49.09,209.1L54.55,210.9L65.45,212.76L70.91,214.14L81.82,218.54L87.27,221.35L92.73,224.66L98.18,227.08L103.64,229.45L109.09,230.67L120,233.82L125.45,234.21L130.91,236.01L136.36,236.64L163.64,240.25L169.09,240.8L180,242.6L185.45,243.24L190.91,241.56L196.36,243.27L201.82,243.38L207.27,244.63L218.18,243.62L223.64,245.24L229.09,246.99L234.55,247.08L240,249.99L245.45,250.83L250.91,252.96L256.36,253.98L261.82,254.71L267.27,256.97L272.73,257.78L278.18,259.96L289.09,260.48L294.55,263.19L305.45,264.84L310.91,266.73L316.36,267.13L321.82,268.47L327.27,269.27L332.73,271.69L343.64,273.24L349.09,274.66L360,276.05L365.45,277.72L381.82,280.88L387.27,281.62L414.55,286.93L420,287.94L430.91,289.68L436.36,290.44L458.18,291.7L463.64,291.93L507.27,294.11L512.73,294.28L540,295.48" style="vector-effect: non-scaling-stroke; fill: none; stroke: rgb(231, 107, 243); stroke-opacity: 1; stroke-width: 2px; opacity: 1;"/></g><g class="points"/><g class="text"/></g><g class="trace scatter trace8413f5" style="stroke-miterlimit: 2; opacity: 1;"><g class="fills"/><g class="errorbars"/><g class="lines"><path class="js-line" d="M0,71.89L5.45,191.2L10.91,199.62L43.64,218.04L49.09,220.21L60,224.12L65.45,225.98L70.91,226.97L76.36,229.4L81.82,232.98L87.27,233.71L98.18,236.46L103.64,236.77L109.09,238.08L114.55,238.41L120,240.34L125.45,241.25L130.91,240.21L136.36,241.33L141.82,242.01L147.27,241.84L152.73,243.25L158.18,243.51L169.09,244.82L174.55,244.2L180,245.21L185.45,244.71L190.91,244.09L196.36,246.05L201.82,244.97L207.27,245.93L212.73,245.02L218.18,246.44L223.64,247.23L229.09,248.86L234.55,250.81L240,251.93L261.82,256.06L267.27,258.36L278.18,260.81L283.64,262.11L305.45,267.41L310.91,269.94L316.36,269.86L321.82,271.06L370.91,282.52L376.36,282.9L381.82,284.73L387.27,285.36L392.73,287.4L398.18,288.38L425.45,293.44L430.91,294.46L436.36,295.46L441.82,295.5L458.18,296.39L463.64,296.75L496.36,298.46L501.82,298.66L540,300.26" style="vector-effect: non-scaling-stroke; fill: none; stroke: rgb(248, 118, 109); stroke-opacity: 1; stroke-width: 2px; opacity: 1;"/></g><g class="points"/><g class="text"/></g><g class="trace scatter traced09a42" style="stroke-miterlimit: 2; opacity: 1;"><g class="fills"/><g class="errorbars"/><g class="lines"><path class="js-line" d="M0,95.98L5.45,191.38L10.91,199.69L32.73,212.06L38.18,214.37L65.45,228.61L70.91,229.8L76.36,232.7L81.82,233.68L98.18,237.4L103.64,237.07L109.09,239.04L114.55,239.02L120,239.34L125.45,240.73L130.91,240.85L136.36,242.37L147.27,242.35L152.73,243.55L163.64,243.43L169.09,244.82L180,245.75L185.45,245.26L190.91,245.17L196.36,247.05L201.82,245.94L207.27,246.54L218.18,247.09L223.64,249.56L234.55,251.89L240,251.88L245.45,253.24L250.91,255.82L261.82,257.69L267.27,259.86L272.73,260.89L278.18,262.71L283.64,262.61L289.09,264.47L305.45,268.92L310.91,269.12L321.82,271.52L327.27,273.05L332.73,273.26L338.18,274.6L343.64,275.07L349.09,277.62L354.55,277.68L360,279.61L365.45,280.12L370.91,281.41L381.82,283.22L387.27,284.65L436.36,293.19L441.82,293.06L474.55,295.2L480,295.35L518.18,297.07L523.64,297.22L540,297.87" style="vector-effect: non-scaling-stroke; fill: none; stroke: rgb(163, 165, 0); stroke-opacity: 1; stroke-width: 2px; opacity: 1;"/></g><g class="points"/><g class="text"/></g><g class="trace scatter tracee32c2a" style="stroke-miterlimit: 2; opacity: 1;"><g class="fills"/><g class="errorbars"/><g class="lines"><path class="js-line" d="M0,90.57L5.45,190.75L10.91,198.08L27.27,205L32.73,205.28L38.18,207.04L43.64,208.01L54.55,211.62L60,216.32L70.91,223.62L76.36,225.44L87.27,230.22L92.73,231.54L103.64,235.16L109.09,235.52L130.91,239.47L136.36,240.24L141.82,240.09L147.27,241.45L152.73,242.35L158.18,241.9L163.64,242.88L169.09,242.62L180,244.09L185.45,242.94L190.91,245.66L196.36,245.74L207.27,244.71L212.73,246.27L218.18,245.93L223.64,247.37L229.09,247.89L234.55,250.33L245.45,251.26L250.91,253.37L256.36,254.01L261.82,256.71L272.73,258.57L278.18,259.21L283.64,261.12L289.09,261.85L310.91,266.93L316.36,267.75L321.82,269.39L327.27,269.56L349.09,275.38L354.55,276L381.82,281.31L387.27,281.83L392.73,283.35L398.18,283.95L420,288.45L425.45,289.35L441.82,291.17L447.27,291.63L540,295.91" style="vector-effect: non-scaling-stroke; fill: none; stroke: rgb(0, 191, 125); stroke-opacity: 1; stroke-width: 2px; opacity: 1;"/></g><g class="points"/><g class="text"/></g><g class="trace scatter trace8828ed" style="stroke-miterlimit: 2; opacity: 1;"><g class="fills"/><g class="errorbars"/><g class="lines"><path class="js-line" d="M0,61.89L5.45,188.4L10.91,198.29L16.36,202.48L21.82,204.31L32.73,207.93L38.18,208.79L49.09,210.81L54.55,212.73L60,214.15L65.45,216.79L70.91,220.16L76.36,222.62L109.09,234.08L114.55,234.44L120,236.65L125.45,237.04L136.36,240L141.82,239.62L147.27,240.34L152.73,240.17L158.18,242.37L163.64,242.33L174.55,244.24L180,243.83L185.45,245.12L190.91,245.02L196.36,245.13L201.82,246.34L207.27,245.99L212.73,246.96L218.18,247.15L223.64,248.31L229.09,249.44L234.55,252.62L240,253.09L245.45,254.85L261.82,259.54L267.27,260.41L272.73,260.97L278.18,264.19L283.64,265.36L289.09,265.61L316.36,272.33L321.82,274.33L327.27,274.85L332.73,276.41L349.09,279.72L354.55,280.94L360,283.3L365.45,283.21L376.36,286.14L381.82,287.23L387.27,288.85L392.73,289.59L420,295.12L425.45,295.75L430.91,297.32L436.36,297.88L540,303.06" style="vector-effect: non-scaling-stroke; fill: none; stroke: rgb(0, 176, 246); stroke-opacity: 1; stroke-width: 2px; opacity: 1;"/></g><g class="points"/><g class="text"/></g><g class="trace scatter trace73488f" style="stroke-miterlimit: 2; opacity: 1;"><g class="fills"/><g class="errorbars"/><g class="lines"><path class="js-line" d="M0,72.45L5.45,190.74L10.91,198.24L16.36,202.55L21.82,203.41L32.73,207.75L38.18,209.88L43.64,213.02L49.09,215.06L54.55,219.41L60,221.82L65.45,226.25L70.91,228.52L76.36,231.51L81.82,232.97L98.18,235.71L103.64,236.14L109.09,237.61L114.55,236.87L125.45,239.16L130.91,240.06L136.36,239.73L141.82,240.54L147.27,240.21L152.73,241.8L158.18,242.02L163.64,241.42L169.09,241.72L174.55,243.08L180,242.66L185.45,243.29L190.91,243.8L196.36,242.94L201.82,242.99L207.27,244.21L218.18,243.92L223.64,245.72L245.45,250.51L250.91,251.81L256.36,253.53L261.82,254.2L267.27,256.4L272.73,256.82L278.18,258.47L283.64,259.15L300,263.05L305.45,263.47L316.36,267.21L321.82,267.91L327.27,268.59L332.73,270.94L338.18,272.11L343.64,272.25L365.45,278.07L370.91,278.4L398.18,285.17L403.64,285.74L436.36,291.62L441.82,292.05L518.18,296.15L523.64,296.38L540,297.13" style="vector-effect: non-scaling-stroke; fill: none; stroke: rgb(231, 107, 243); stroke-opacity: 1; stroke-width: 2px; opacity: 1;"/></g><g class="points"/><g class="text"/></g><g class="trace scatter trace1d1de0" style="stroke-miterlimit: 2; opacity: 1;"><g class="fills"/><g class="errorbars"/><g class="lines"><path class="js-line" d="M0,117.67L5.45,192.79L10.91,200.06L16.36,202.58L21.82,204.07L27.27,205.89L32.73,206.87L43.64,209.03L49.09,209.85L54.55,210.86L60,212.84L81.82,224.13L87.27,225.42L92.73,227.18L98.18,227.83L103.64,229.68L109.09,229.63L114.55,230.47L120,232.17L141.82,233.64L147.27,235.34L169.09,237.38L174.55,237.6L190.91,237.05L196.36,239.36L201.82,238.48L207.27,238.97L212.73,238.03L218.18,239.75L229.09,242.03L234.55,242.74L240,245.08L245.45,245.57L256.36,249.24L261.82,250.19L332.73,267.1L338.18,268.08L343.64,268.46L349.09,270.02L360,272.44L365.45,273.7L409.09,281.95L414.55,283.29L441.82,287L447.27,287.34L540,291.78" style="vector-effect: non-scaling-stroke; fill: none; stroke: rgb(248, 118, 109); stroke-opacity: 1; stroke-width: 2px; opacity: 1;"/></g><g class="points"/><g class="text"/></g><g class="trace scatter trace9a81a1" style="stroke-miterlimit: 2; opacity: 1;"><g class="fills"/><g class="errorbars"/><g class="lines"><path class="js-line" d="M0,60.08L5.45,189.99L10.91,198.36L16.36,202.4L21.82,204.01L27.27,206.35L32.73,210.32L43.64,218.67L49.09,221.7L54.55,226.1L60,228.75L65.45,229.87L70.91,232.44L81.82,234.23L87.27,235.74L98.18,238.46L103.64,238.96L130.91,242.99L136.36,242.21L141.82,242.24L147.27,244L152.73,244.99L158.18,245.17L163.64,244.69L169.09,245.94L174.55,246.71L180,245.82L185.45,246.69L190.91,246.19L196.36,246.6L201.82,247.82L212.73,247.79L218.18,248.74L223.64,248.43L229.09,249.85L261.82,258.15L267.27,258.86L283.64,263.4L289.09,264.71L294.55,265.56L300,267.68L305.45,267.91L310.91,270.43L321.82,272.4L327.27,273.8L332.73,275.53L338.18,276.25L349.09,279.59L354.55,279.72L370.91,283.83L376.36,284.35L398.18,289.34L403.64,290.49L409.09,290.69L414.55,292.21L441.82,296.05L447.27,296.61L540,300.9" style="vector-effect: non-scaling-stroke; fill: none; stroke: rgb(163, 165, 0); stroke-opacity: 1; stroke-width: 2px; opacity: 1;"/></g><g class="points"/><g class="text"/></g><g class="trace scatter tracec9d829" style="stroke-miterlimit: 2; opacity: 1;"><g class="fills"/><g class="errorbars"/><g class="lines"><path class="js-line" d="M0,90.95L5.45,186.38L10.91,196.59L16.36,200.85L21.82,203.12L27.27,205L32.73,206.08L38.18,207.71L43.64,212L49.09,220.67L54.55,225.74L65.45,230.68L70.91,231.29L76.36,233.26L81.82,233.48L87.27,235.36L92.73,236.16L103.64,237.05L109.09,237.45L125.45,239.2L130.91,239.72L136.36,239.99L141.82,241.03L152.73,241.86L158.18,240.86L185.45,243.52L190.91,243.44L201.82,243.94L207.27,243.16L212.73,244.55L218.18,244.28L223.64,246.49L229.09,247.09L234.55,247.15L240,249.2L245.45,251.9L250.91,251.42L256.36,252.68L261.82,255.05L267.27,254.6L272.73,255.92L278.18,258.43L283.64,258.72L294.55,261.36L300,262.33L310.91,264.69L316.36,265.07L327.27,268.2L332.73,268.96L338.18,270.57L343.64,270.79L354.55,273.35L360,274.2L376.36,277.53L381.82,278.1L398.18,281.61L403.64,282.48L420,285.53L425.45,286.41L436.36,288.49L441.82,288.64L501.82,291.9L507.27,292.03L540,293.59" style="vector-effect: non-scaling-stroke; fill: none; stroke: rgb(0, 191, 125); stroke-opacity: 1; stroke-width: 2px; opacity: 1;"/></g><g class="points"/><g class="text"/></g><g class="trace scatter tracea88b59" style="stroke-miterlimit: 2; opacity: 1;"><g class="fills"/><g class="errorbars"/><g class="lines"><path class="js-line" d="M0,90.59L5.45,189.58L10.91,198.11L16.36,202.1L21.82,204.84L32.73,211L38.18,215.62L49.09,224.54L54.55,227.72L60,228.95L65.45,231.28L81.82,235.44L87.27,236.52L92.73,236.56L98.18,238.75L109.09,239.13L114.55,241.74L120,240.76L125.45,240.96L136.36,242.68L141.82,242.4L147.27,243.86L152.73,243.43L174.55,244.53L180,244.07L185.45,245.59L190.91,245.36L196.36,244.8L201.82,245.72L212.73,245.39L218.18,246.55L223.64,248.22L229.09,248.72L240,252.03L245.45,251.85L256.36,256.04L261.82,258.28L267.27,258.18L272.73,259.76L283.64,262.47L289.09,262.59L294.55,264.75L300,266.02L305.45,266.23L310.91,269.07L327.27,271.07L332.73,272.92L349.09,275.49L354.55,277.55L365.45,278.92L370.91,280.62L403.64,286.64L409.09,287.68L430.91,291.61L436.36,292.22L501.82,295.5L507.27,295.79L540,297.17" style="vector-effect: non-scaling-stroke; fill: none; stroke: rgb(0, 176, 246); stroke-opacity: 1; stroke-width: 2px; opacity: 1;"/></g><g class="points"/><g class="text"/></g><g class="trace scatter trace553272" style="stroke-miterlimit: 2; opacity: 1;"><g class="fills"/><g class="errorbars"/><g class="lines"><path class="js-line" d="M0,94.8L5.45,190.14L10.91,198.05L32.73,213.73L38.18,215L43.64,217.71L49.09,218.47L60,221.03L65.45,220.92L70.91,223.1L76.36,223.18L81.82,223.2L87.27,224.93L109.09,228.88L114.55,228.9L141.82,231.45L147.27,232.84L152.73,233.82L158.18,233.3L163.64,234.64L169.09,233.98L180,236.36L185.45,235.8L190.91,236.63L196.36,238.31L207.27,238.28L212.73,239.05L218.18,240.18L223.64,240.04L229.09,243.48L234.55,244.34L240,244.98L245.45,246.86L250.91,249.66L256.36,250.52L261.82,251.25L267.27,252.76L278.18,256.86L283.64,256.78L289.09,258.95L294.55,259.48L300,261.55L305.45,262.32L310.91,263.37L316.36,265.84L327.27,267.67L332.73,270L354.55,274.68L360,276.91L365.45,276.86L370.91,278.9L387.27,281.63L392.73,283.45L398.18,284.18L403.64,286.11L420,289.14L425.45,290.23L441.82,292.6L447.27,292.64L540,297.61" style="vector-effect: non-scaling-stroke; fill: none; stroke: rgb(231, 107, 243); stroke-opacity: 1; stroke-width: 2px; opacity: 1;"/></g><g class="points"/><g class="text"/></g><g class="trace scatter tracef7b29a" style="stroke-miterlimit: 2; opacity: 1;"><g class="fills"/><g class="errorbars"/><g class="lines"><path class="js-line" d="M0,33.25L5.45,187.61L10.91,197.34L16.36,200.9L21.82,202.73L32.73,204.81L38.18,207.19L54.55,217.78L60,219.5L65.45,221.63L70.91,224.65L76.36,227.93L81.82,230.31L92.73,232.21L98.18,234.49L103.64,234.73L109.09,236.28L114.55,236.5L120,237.57L125.45,238.72L130.91,238.43L141.82,240.69L147.27,240.67L158.18,241.11L163.64,242.08L180,242.78L185.45,242.23L223.64,245.37L229.09,246.5L234.55,248.49L240,249.16L250.91,251.77L256.36,252.62L261.82,253.59L267.27,255.94L278.18,257.36L283.64,259.14L289.09,259.34L294.55,260.72L300,262.52L305.45,263.07L321.82,267.22L327.27,267.68L332.73,269.39L338.18,270.05L343.64,271.12L349.09,271.27L376.36,277.27L381.82,277.7L387.27,279.2L392.73,279.79L436.36,287.33L441.82,287.84L474.55,289.49L480,289.75L523.64,291.66L529.09,291.92L540,292.38" style="vector-effect: non-scaling-stroke; fill: none; stroke: rgb(248, 118, 109); stroke-opacity: 1; stroke-width: 2px; opacity: 1;"/></g><g class="points"/><g class="text"/></g><g class="trace scatter trace68751e" style="stroke-miterlimit: 2; opacity: 1;"><g class="fills"/><g class="errorbars"/><g class="lines"><path class="js-line" d="M0,16L5.45,187.43L10.91,198.5L21.82,203.66L27.27,204.68L49.09,209.03L54.55,214.27L60,220.29L65.45,224.67L76.36,229.89L81.82,229.99L92.73,233.78L98.18,234.51L109.09,235.69L114.55,237.31L125.45,239.72L130.91,238.82L147.27,241.47L152.73,241.34L185.45,243.64L190.91,243.49L196.36,243.48L201.82,244.7L212.73,244.41L218.18,244.55L223.64,246.31L229.09,246.8L234.55,249.01L240,249.12L256.36,253.86L261.82,254.33L267.27,256.05L272.73,256.4L294.55,260.71L300,261.64L305.45,263.59L310.91,264.35L316.36,265.97L321.82,266.39L327.27,268.46L332.73,269.07L338.18,270.33L343.64,270.66L354.55,273.46L360,274.22L436.36,286.68L441.82,287.07L458.18,287.92L463.64,288.13L540,291.45" style="vector-effect: non-scaling-stroke; fill: none; stroke: rgb(163, 165, 0); stroke-opacity: 1; stroke-width: 2px; opacity: 1;"/></g><g class="points"/><g class="text"/></g><g class="trace scatter trace3981fc" style="stroke-miterlimit: 2; opacity: 1;"><g class="fills"/><g class="errorbars"/><g class="lines"><path class="js-line" d="M0,84.44L5.45,189.53L10.91,198.34L16.36,202.44L21.82,204.08L38.18,209.64L43.64,213.09L49.09,215.94L54.55,220.29L60,222.75L65.45,226.24L76.36,230.65L81.82,232.4L87.27,233.6L92.73,235.88L98.18,235.15L103.64,236.98L114.55,239.17L120,240.53L136.36,242.64L141.82,243.22L158.18,244.41L163.64,246.05L169.09,245.71L174.55,246.66L180,246.36L185.45,246.86L196.36,247.78L201.82,246.76L212.73,248.23L218.18,248.86L223.64,250.13L229.09,252.5L245.45,255.83L250.91,257.14L261.82,260.86L267.27,261.07L272.73,263.52L278.18,264.39L300,269.86L305.45,269.99L310.91,272.33L316.36,272.62L321.82,274.62L327.27,275.33L332.73,277.65L338.18,277.27L343.64,280.36L349.09,281.05L360,283.32L365.45,284.52L370.91,284.85L376.36,286.73L403.64,292.54L409.09,293.06L430.91,297.59L436.36,298.33L540,303.53" style="vector-effect: non-scaling-stroke; fill: none; stroke: rgb(0, 191, 125); stroke-opacity: 1; stroke-width: 2px; opacity: 1;"/></g><g class="points"/><g class="text"/></g><g class="trace scatter traceefc1ce" style="stroke-miterlimit: 2; opacity: 1;"><g class="fills"/><g class="errorbars"/><g class="lines"><path class="js-line" d="M0,58.23L5.45,187.2L10.91,196.27L21.82,201.19L27.27,202.77L38.18,205.09L43.64,206.64L60,218.42L65.45,222.83L70.91,226.22L76.36,228.61L81.82,229.91L87.27,232.69L92.73,232.73L98.18,234.17L109.09,236.32L114.55,235.26L120,237.83L125.45,238.23L141.82,240.15L147.27,239.67L152.73,239.78L158.18,240.74L169.09,240.61L174.55,241.31L190.91,242.7L196.36,241.88L223.64,243.81L229.09,245.13L234.55,246.75L240,246.79L245.45,248.93L250.91,249.87L261.82,251.46L267.27,253.16L272.73,254.33L278.18,256.98L283.64,256.42L289.09,258.04L294.55,259.67L300,260.02L305.45,262.27L310.91,263.49L316.36,263.79L321.82,265.62L327.27,265.87L332.73,267.32L338.18,269.09L343.64,269.99L349.09,270.55L354.55,271.88L365.45,273.72L370.91,275.17L376.36,275.76L381.82,277.44L392.73,278.75L398.18,279.97L414.55,282.63L420,283.96L447.27,287.16L452.73,287.34L480,288.68L485.45,289.01L540,291.43" style="vector-effect: non-scaling-stroke; fill: none; stroke: rgb(0, 176, 246); stroke-opacity: 1; stroke-width: 2px; opacity: 1;"/></g><g class="points"/><g class="text"/></g><g class="trace scatter tracef3077d" style="stroke-miterlimit: 2; opacity: 1;"><g class="fills"/><g class="errorbars"/><g class="lines"><path class="js-line" d="M0,60.33L5.45,189.62L10.91,198.77L16.36,202.88L21.82,204.69L38.18,211.71L43.64,214.66L70.91,223.63L76.36,226.21L92.73,233.71L98.18,234.01L109.09,237.23L114.55,237.67L120,239.36L125.45,239.24L136.36,241.14L141.82,242.37L147.27,242.3L152.73,244.11L163.64,242.97L169.09,244.77L174.55,244.09L180,244.51L190.91,245.23L196.36,246.07L201.82,245.89L207.27,246.61L212.73,246.99L218.18,245.02L223.64,249.01L229.09,249.11L234.55,250.98L240,251.32L245.45,254.34L250.91,254.63L256.36,256.56L261.82,256.69L267.27,259.16L272.73,259.32L278.18,261.77L283.64,262.91L294.55,264.58L300,266.94L305.45,268L310.91,267.89L332.73,274.41L338.18,275.12L343.64,276.48L349.09,276.61L360,279.52L365.45,280.12L381.82,284.59L387.27,285.45L403.64,288.54L409.09,289.95L420,291.75L425.45,292.59L436.36,294.5L441.82,294.83L490.91,297.53L496.36,297.68L518.18,298.73L523.64,298.98L540,299.72" style="vector-effect: non-scaling-stroke; fill: none; stroke: rgb(231, 107, 243); stroke-opacity: 1; stroke-width: 2px; opacity: 1;"/></g><g class="points"/><g class="text"/></g><g class="trace scatter tracecdf478" style="stroke-miterlimit: 2; opacity: 1;"><g class="fills"/><g class="errorbars"/><g class="lines"><path class="js-line" d="M0,83.21L5.45,193.79L10.91,199.93L21.82,203.87L27.27,205.47L54.55,211.51L60,212.74L76.36,217.4L81.82,217.33L92.73,219.49L98.18,220.1L109.09,222.8L114.55,222.99L125.45,225.45L130.91,225.48L136.36,226.91L141.82,227.41L163.64,229.23L169.09,229.87L185.45,231.82L190.91,231.82L196.36,232.08L201.82,233.25L212.73,232.55L218.18,234.27L229.09,235.82L234.55,238.26L245.45,241.59L250.91,242.45L278.18,249.71L283.64,249.81L289.09,251.71L294.55,252.64L300,254.25L305.45,254.38L310.91,255.57L316.36,257.59L327.27,258.94L332.73,261.4L354.55,265.08L360,266.45L381.82,270.16L387.27,271.4L409.09,275.08L414.55,276.02L441.82,279.77L447.27,279.95L474.55,281.14L480,281.45L540,283.83" style="vector-effect: non-scaling-stroke; fill: none; stroke: rgb(248, 118, 109); stroke-opacity: 1; stroke-width: 2px; opacity: 1;"/></g><g class="points"/><g class="text"/></g><g class="trace scatter trace6a62e9" style="stroke-miterlimit: 2; opacity: 1;"><g class="fills"/><g class="errorbars"/><g class="lines"><path class="js-line" d="M0,92.56L5.45,187.43L10.91,196.41L16.36,200.85L21.82,202.93L27.27,205.13L32.73,206.41L43.64,208.68L49.09,209.52L60,211.96L65.45,213.38L70.91,215.35L76.36,218.19L87.27,225.36L92.73,228.87L103.64,234.03L109.09,234.84L120,238.22L125.45,238.11L136.36,239.76L141.82,239.39L158.18,242.16L163.64,241.86L169.09,242.77L174.55,242.35L180,243.84L185.45,243.75L196.36,244.19L201.82,243.65L207.27,244.68L212.73,243.82L223.64,246.1L229.09,246.39L234.55,250.21L240,250.6L245.45,251.54L250.91,253.64L267.27,255.76L272.73,258.05L294.55,262.49L300,264.4L305.45,265.73L310.91,265.77L316.36,267.81L321.82,268.79L343.64,273.2L349.09,275.52L360,276.42L365.45,277.46L376.36,280.31L381.82,280.78L403.64,285.62L409.09,286.25L436.36,291L441.82,291.33L463.64,292.48L469.09,292.72L540,296.04" style="vector-effect: non-scaling-stroke; fill: none; stroke: rgb(163, 165, 0); stroke-opacity: 1; stroke-width: 2px; opacity: 1;"/></g><g class="points"/><g class="text"/></g><g class="trace scatter tracecb788a" style="stroke-miterlimit: 2; opacity: 1;"><g class="fills"/><g class="errorbars"/><g class="lines"><path class="js-line" d="M0,48.27L5.45,189.26L10.91,198.42L16.36,202.17L21.82,204.94L38.18,214.34L43.64,218.41L49.09,221.12L54.55,225.13L81.82,233.87L87.27,235.24L92.73,237.18L98.18,237.14L103.64,237.2L109.09,238.78L114.55,240.44L120,240.62L125.45,241.89L130.91,241.98L136.36,241.23L141.82,242.56L169.09,245.27L174.55,244.84L185.45,245.71L190.91,246.7L207.27,245.97L212.73,246.7L223.64,248.08L229.09,248.84L234.55,251.3L240,251.89L250.91,254.14L256.36,255.25L267.27,258.94L272.73,259.21L294.55,264.41L300,264.76L321.82,269.68L327.27,271.36L343.64,273.41L349.09,274.78L354.55,276.52L360,276.8L381.82,281.69L387.27,282.08L398.18,284.58L403.64,285.1L425.45,288.84L430.91,289.69L441.82,290.84L447.27,291.09L540,295.28" style="vector-effect: non-scaling-stroke; fill: none; stroke: rgb(0, 191, 125); stroke-opacity: 1; stroke-width: 2px; opacity: 1;"/></g><g class="points"/><g class="text"/></g><g class="trace scatter trace112089" style="stroke-miterlimit: 2; opacity: 1;"><g class="fills"/><g class="errorbars"/><g class="lines"><path class="js-line" d="M0,46.48L5.45,189.42L10.91,198.92L16.36,202.03L21.82,203.6L27.27,205.41L32.73,206.15L38.18,208.23L43.64,208.69L49.09,211.51L54.55,215.34L65.45,220.18L70.91,221.38L87.27,225.22L92.73,225.6L120,230.32L125.45,230.19L130.91,231.21L136.36,231.22L147.27,234.01L152.73,232.21L169.09,234.74L174.55,234.4L185.45,236.25L190.91,236.27L196.36,236.73L201.82,235.6L218.18,237.88L223.64,239.88L229.09,240.47L234.55,242.37L245.45,243.97L250.91,246.05L272.73,251.38L278.18,252.84L283.64,253.45L289.09,255.67L294.55,256.41L300,258.45L327.27,264.5L332.73,265.67L349.09,269.47L354.55,271.34L376.36,275.2L381.82,276.59L414.55,283.75L420,284.26L430.91,286.6L436.36,287.19L469.09,289.27L474.55,289.5L501.82,291L507.27,291.27L540,292.76" style="vector-effect: non-scaling-stroke; fill: none; stroke: rgb(0, 176, 246); stroke-opacity: 1; stroke-width: 2px; opacity: 1;"/></g><g class="points"/><g class="text"/></g><g class="trace scatter trace1856c3" style="stroke-miterlimit: 2; opacity: 1;"><g class="fills"/><g class="errorbars"/><g class="lines"><path class="js-line" d="M0,56.96L5.45,191.02L10.91,197.98L16.36,201.64L21.82,204.28L27.27,206.22L32.73,208.99L60,219.72L65.45,221.05L76.36,222.97L81.82,224.49L87.27,225.09L92.73,226.63L98.18,225.84L103.64,226.91L109.09,228.31L114.55,228.15L120,229.2L125.45,229.17L141.82,231.47L147.27,231.83L163.64,233.72L169.09,234.54L174.55,234.46L180,235.38L196.36,235.36L201.82,236.12L212.73,238.12L218.18,237.72L234.55,242.67L240,244.14L256.36,247.73L261.82,249.47L272.73,251.03L278.18,252.77L283.64,254.96L289.09,256L300,259.02L305.45,259.19L316.36,262.56L321.82,263.03L338.18,267.03L343.64,267.98L349.09,268.83L354.55,270.5L370.91,273.58L376.36,275.12L387.27,276.62L392.73,278.22L398.18,278.47L403.64,279.76L425.45,284.1L430.91,284.66L436.36,285.71L441.82,285.85L540,290.57" style="vector-effect: non-scaling-stroke; fill: none; stroke: rgb(231, 107, 243); stroke-opacity: 1; stroke-width: 2px; opacity: 1;"/></g><g class="points"/><g class="text"/></g><g class="trace scatter trace65c27f" style="stroke-miterlimit: 2; opacity: 1;"><g class="fills"/><g class="errorbars"/><g class="lines"><path class="js-line" d="M0,55.84L5.45,177.75L10.91,193.41L16.36,199.33L21.82,202.49L27.27,205.16L32.73,206.7L38.18,207.4L43.64,210.83L60,225.17L65.45,227.64L70.91,229.88L76.36,230.75L92.73,233.75L98.18,234.81L103.64,236L109.09,236.35L114.55,236.65L120,238.35L125.45,239.89L130.91,240.18L141.82,239.83L147.27,241.06L152.73,241.07L158.18,241.91L169.09,243.12L174.55,242.59L180,244.05L185.45,243.59L190.91,244.43L196.36,244L207.27,244.18L212.73,244.64L218.18,245.02L223.64,246.52L234.55,248.22L240,249.74L250.91,251.6L256.36,252.43L267.27,254.88L272.73,255.43L289.09,259.11L294.55,259.3L300,261.72L305.45,261.81L310.91,264.26L316.36,264.25L321.82,265.81L327.27,266.51L343.64,269.35L349.09,270.42L381.82,275.63L387.27,277.03L398.18,278.91L403.64,279.81L430.91,284.72L436.36,285.1L447.27,285.73L452.73,286.05L523.64,289.38L529.09,289.59L540,290.06" style="vector-effect: non-scaling-stroke; fill: none; stroke: rgb(248, 118, 109); stroke-opacity: 1; stroke-width: 2px; opacity: 1;"/></g><g class="points"/><g class="text"/></g><g class="trace scatter tracefc414f" style="stroke-miterlimit: 2; opacity: 1;"><g class="fills"/><g class="errorbars"/><g class="lines"><path class="js-line" d="M0,63.51L5.45,188.06L10.91,198.48L21.82,203.8L27.27,205.02L32.73,206.52L38.18,210.64L43.64,214.67L49.09,217.18L54.55,219.55L60,220.75L70.91,223.06L76.36,225.51L81.82,228.19L87.27,229.6L103.64,235.06L109.09,236.09L120,237.03L125.45,239L130.91,238.95L136.36,239.81L141.82,240.36L147.27,239.87L152.73,241.5L158.18,241.89L163.64,241.72L169.09,243.1L174.55,241.87L180,242.57L185.45,242.9L190.91,244.42L212.73,244.27L218.18,244.94L223.64,246.93L229.09,247.52L240,251.34L245.45,251.35L250.91,254.05L256.36,255.23L261.82,255.25L267.27,256.84L278.18,259.81L283.64,260.25L289.09,263.04L294.55,262.67L305.45,265.52L310.91,265.05L316.36,267.3L321.82,268.47L338.18,271.69L343.64,272.99L376.36,278.81L381.82,280.27L392.73,282.12L398.18,283.1L403.64,283.66L409.09,285.15L414.55,285.6L420,286.9L436.36,289.47L441.82,290.01L452.73,290.59L458.18,290.73L518.18,293.73L523.64,293.98L540,294.64" style="vector-effect: non-scaling-stroke; fill: none; stroke: rgb(163, 165, 0); stroke-opacity: 1; stroke-width: 2px; opacity: 1;"/></g><g class="points"/><g class="text"/></g><g class="trace scatter trace0a3724" style="stroke-miterlimit: 2; opacity: 1;"><g class="fills"/><g class="errorbars"/><g class="lines"><path class="js-line" d="M0,69.01L5.45,183.32L10.91,195.88L16.36,200.99L21.82,202.97L38.18,207.82L43.64,208.6L54.55,213.11L60,216.51L76.36,223L81.82,224.4L87.27,224.88L92.73,226.54L103.64,228.97L109.09,229.97L114.55,231.36L120,231.46L125.45,232.05L130.91,234.8L136.36,237.13L141.82,237.55L147.27,239.24L152.73,239.2L158.18,241.03L163.64,241.6L185.45,244.71L190.91,245.55L196.36,243.11L201.82,245.38L207.27,244.54L212.73,244.67L229.09,248.76L234.55,248.91L240,251.67L245.45,252.23L278.18,260.23L283.64,261.93L289.09,262.76L294.55,264.86L310.91,267.34L316.36,268.69L338.18,273.29L343.64,275.52L349.09,275.1L354.55,276.97L365.45,279.49L370.91,279.71L387.27,283.63L392.73,284.56L403.64,286.51L409.09,287.72L436.36,292.29L441.82,292.58L452.73,293.03L458.18,293.53L480,294.49L485.45,294.62L540,296.95" style="vector-effect: non-scaling-stroke; fill: none; stroke: rgb(0, 191, 125); stroke-opacity: 1; stroke-width: 2px; opacity: 1;"/></g><g class="points"/><g class="text"/></g><g class="trace scatter trace38843b" style="stroke-miterlimit: 2; opacity: 1;"><g class="fills"/><g class="errorbars"/><g class="lines"><path class="js-line" d="M0,71.59L5.45,188.84L10.91,197.4L16.36,200.74L21.82,202.59L38.18,207.47L43.64,208.62L49.09,209.44L54.55,212.12L60,214.61L65.45,218.18L70.91,222.47L76.36,225.55L81.82,227.53L87.27,230.33L103.64,234.8L109.09,235.73L114.55,237.55L120,237.87L130.91,239.5L136.36,240.64L152.73,241.09L158.18,242.02L169.09,242.31L174.55,243.77L180,243.84L185.45,242.84L190.91,244.14L196.36,244.51L201.82,243.97L207.27,244.75L212.73,245.46L218.18,247.06L234.55,248.87L240,250.63L250.91,252.82L256.36,254.52L261.82,256.05L267.27,256.79L272.73,259.1L278.18,260.12L283.64,260.47L289.09,262.45L294.55,262.79L300,264.83L305.45,265.12L310.91,266.52L327.27,270.74L332.73,271.34L343.64,273.45L349.09,274.99L360,277.29L365.45,278.07L409.09,286.21L414.55,287.14L436.36,290.71L441.82,291.03L490.91,293.57L496.36,293.91L540,295.77" style="vector-effect: non-scaling-stroke; fill: none; stroke: rgb(0, 176, 246); stroke-opacity: 1; stroke-width: 2px; opacity: 1;"/></g><g class="points"/><g class="text"/></g><g class="trace scatter trace517dcc" style="stroke-miterlimit: 2; opacity: 1;"><g class="fills"/><g class="errorbars"/><g class="lines"><path class="js-line" d="M0,72.24L5.45,190.66L10.91,198.93L21.82,203.51L27.27,205.27L54.55,210.71L60,212.12L70.91,213.7L76.36,215.96L87.27,219.82L92.73,223.02L98.18,224.98L103.64,228.79L120,235.38L125.45,235.73L141.82,239.66L147.27,239.54L152.73,239.01L158.18,240.57L169.09,240.86L174.55,242.2L185.45,242.19L190.91,243L196.36,243.88L201.82,243.9L207.27,243.03L212.73,245.07L218.18,244.72L223.64,246.27L245.45,252.38L250.91,253.18L256.36,254.05L261.82,256.1L272.73,259.75L278.18,259.76L283.64,262.12L289.09,263.63L294.55,263.57L300,265.22L310.91,268.69L316.36,269.61L321.82,270.28L327.27,272.4L343.64,274.18L349.09,276L354.55,277.7L360,278.03L365.45,279.85L370.91,280.3L409.09,287.89L414.55,288.72L441.82,292.62L447.27,292.9L501.82,295.72L507.27,295.87L540,297.35" style="vector-effect: non-scaling-stroke; fill: none; stroke: rgb(231, 107, 243); stroke-opacity: 1; stroke-width: 2px; opacity: 1;"/></g><g class="points"/><g class="text"/></g><g class="trace scatter tracea2cc47" style="stroke-miterlimit: 2; opacity: 1;"><g class="fills"/><g class="errorbars"/><g class="lines"><path class="js-line" d="M0,43.04L5.45,191.48L10.91,198.97L16.36,201.74L21.82,202.74L32.73,205.42L38.18,205.91L43.64,207.5L49.09,207.83L60,209.66L65.45,212.44L70.91,215.87L76.36,218.38L103.64,230.71L109.09,232.56L114.55,234.99L120,235.75L125.45,235.7L130.91,236.94L136.36,237.38L141.82,238.58L147.27,239.22L152.73,239.1L158.18,240.72L163.64,240.6L174.55,241.96L180,242.03L212.73,245.29L218.18,245.47L229.09,248.27L234.55,250.97L240,250.45L245.45,251.17L256.36,254.71L261.82,255.62L283.64,260.78L289.09,261.77L305.45,264.94L310.91,267L316.36,267.11L321.82,269.27L332.73,270.55L338.18,271.81L360,276.1L365.45,276.79L387.27,281.36L392.73,282.24L414.55,285.85L420,286.97L436.36,289.22L441.82,289.52L463.64,290.73L469.09,291.06L540,294.14" style="vector-effect: non-scaling-stroke; fill: none; stroke: rgb(248, 118, 109); stroke-opacity: 1; stroke-width: 2px; opacity: 1;"/></g><g class="points"/><g class="text"/></g><g class="trace scatter trace2b2d1b" style="stroke-miterlimit: 2; opacity: 1;"><g class="fills"/><g class="errorbars"/><g class="lines"><path class="js-line" d="M0,62.52L5.45,181.58L10.91,193.8L16.36,198.7L21.82,201.33L27.27,203.53L32.73,204.54L54.55,215.68L60,217.53L70.91,220.57L76.36,225.19L87.27,230.51L92.73,232.05L109.09,235.77L114.55,236.14L147.27,238.5L152.73,239.94L158.18,239.66L163.64,240.64L169.09,241.59L174.55,240.85L180,240.85L185.45,242.6L190.91,241.85L196.36,242.49L201.82,242.83L207.27,242.39L218.18,243.82L223.64,245.09L229.09,245.86L234.55,247.41L240,247.82L245.45,250.64L250.91,251.22L256.36,252.82L267.27,254.35L272.73,255.93L283.64,258.5L289.09,259.35L300,261.95L305.45,262.71L321.82,267.12L327.27,267.58L332.73,268.37L338.18,270.24L354.55,272.5L360,274.14L387.27,279.46L392.73,281.03L409.09,283.94L414.55,284.91L430.91,288.22L436.36,288.7L469.09,290.6L474.55,290.88L512.73,292.78L518.18,293L540,293.95" style="vector-effect: non-scaling-stroke; fill: none; stroke: rgb(163, 165, 0); stroke-opacity: 1; stroke-width: 2px; opacity: 1;"/></g><g class="points"/><g class="text"/></g><g class="trace scatter tracee6e8a6" style="stroke-miterlimit: 2; opacity: 1;"><g class="fills"/><g class="errorbars"/><g class="lines"><path class="js-line" d="M0,58.12L5.45,190.71L10.91,198.58L16.36,201.65L21.82,203.77L38.18,208.05L43.64,211.17L54.55,219.8L60,222.73L65.45,225.67L70.91,227.21L76.36,230.2L81.82,231.16L87.27,232.54L92.73,232.93L109.09,236.78L114.55,237.21L130.91,239.79L136.36,239.88L147.27,241.06L152.73,241.75L158.18,241.24L163.64,242.38L174.55,242.31L180,244.54L185.45,243.37L190.91,244.23L196.36,245.56L201.82,244.73L212.73,244.41L218.18,244.77L223.64,246.06L229.09,248.96L234.55,249.18L240,251.39L245.45,251.86L250.91,253.37L256.36,254.96L261.82,255.52L267.27,257.91L272.73,259.37L278.18,259.46L283.64,261.22L305.45,265.73L310.91,267.32L370.91,279.65L376.36,281.09L387.27,283.11L392.73,284.62L409.09,286.74L414.55,288.09L436.36,292.13L441.82,292.46L540,297.46" style="vector-effect: non-scaling-stroke; fill: none; stroke: rgb(0, 191, 125); stroke-opacity: 1; stroke-width: 2px; opacity: 1;"/></g><g class="points"/><g class="text"/></g><g class="trace scatter trace5759e7" style="stroke-miterlimit: 2; opacity: 1;"><g class="fills"/><g class="errorbars"/><g class="lines"><path class="js-line" d="M0,73.16L5.45,189.08L10.91,197.5L16.36,201.68L21.82,204.81L27.27,208.59L32.73,215.62L38.18,221.02L43.64,224.82L49.09,227.85L54.55,229.01L70.91,233.69L76.36,234.35L87.27,236.14L92.73,237.03L98.18,237.98L103.64,238.04L109.09,239.83L114.55,238.98L130.91,240.34L136.36,239.75L141.82,241.7L147.27,242.02L158.18,242.55L163.64,243.15L180,243.87L185.45,244.3L196.36,243.39L201.82,244.95L207.27,244.2L212.73,244.78L240,250.03L245.45,252.55L250.91,254.08L256.36,254.41L278.18,260.38L283.64,260.48L294.55,263.46L300,264.81L305.45,266.4L310.91,267.07L316.36,269.04L321.82,269.49L327.27,271.69L332.73,273.04L354.55,277.1L360,278.84L376.36,282.23L381.82,282.6L387.27,285.09L392.73,285.25L398.18,286.9L403.64,287.48L430.91,293.19L436.36,293.93L452.73,295L458.18,295.34L540,299.56" style="vector-effect: non-scaling-stroke; fill: none; stroke: rgb(0, 176, 246); stroke-opacity: 1; stroke-width: 2px; opacity: 1;"/></g><g class="points"/><g class="text"/></g><g class="trace scatter tracebbdb8e" style="stroke-miterlimit: 2; opacity: 1;"><g class="fills"/><g class="errorbars"/><g class="lines"><path class="js-line" d="M0,54.69L5.45,185.53L10.91,197.71L16.36,201.65L21.82,204.26L27.27,205.6L32.73,208.22L43.64,213.74L49.09,217.01L60,220.34L65.45,221.59L81.82,225.36L87.27,227.51L92.73,229.68L98.18,230.8L103.64,233.17L109.09,233.74L114.55,234.36L120,235.83L125.45,235.99L130.91,237.03L141.82,238.77L147.27,238.65L158.18,239.15L163.64,240.98L174.55,241.71L180,242.35L185.45,242.29L190.91,243.08L201.82,242.93L207.27,243.32L218.18,243.29L223.64,245.36L229.09,245.7L234.55,247.84L240,249.33L245.45,251.88L250.91,253.2L256.36,253.71L316.36,268L321.82,268.81L332.73,270.74L338.18,272.91L381.82,281.3L387.27,282.84L403.64,285.79L409.09,286.83L441.82,291.89L447.27,292.06L463.64,293.04L469.09,293.44L540,296.58" style="vector-effect: non-scaling-stroke; fill: none; stroke: rgb(231, 107, 243); stroke-opacity: 1; stroke-width: 2px; opacity: 1;"/></g><g class="points"/><g class="text"/></g><g class="trace scatter tracec8c8e2" style="stroke-miterlimit: 2; opacity: 1;"><g class="fills"/><g class="errorbars"/><g class="lines"><path class="js-line" d="M0,92.01L5.45,190.37L10.91,197.95L16.36,201.32L21.82,203.41L43.64,211.59L49.09,212.86L60,218.07L65.45,219.77L87.27,228.12L92.73,230.72L98.18,232.78L103.64,233.22L114.55,235.57L120,236.52L125.45,236.96L130.91,238.19L163.64,241.27L169.09,242.75L174.55,242.23L180,242.81L190.91,243.05L196.36,244.01L201.82,243.09L207.27,243.68L218.18,244.29L223.64,246.62L229.09,246.73L234.55,249.6L245.45,251.09L250.91,253.18L278.18,259.04L283.64,260.94L289.09,260.85L294.55,262.77L300,263.64L305.45,265.38L316.36,267.49L321.82,269.4L327.27,269.75L332.73,271.49L343.64,273.94L349.09,274.41L360,276.46L365.45,277.77L409.09,286.36L414.55,287.16L436.36,291.05L441.82,291.17L540,295.9" style="vector-effect: non-scaling-stroke; fill: none; stroke: rgb(248, 118, 109); stroke-opacity: 1; stroke-width: 2px; opacity: 1;"/></g><g class="points"/><g class="text"/></g><g class="trace scatter traceaece54" style="stroke-miterlimit: 2; opacity: 1;"><g class="fills"/><g class="errorbars"/><g class="lines"><path class="js-line" d="M0,81.4L5.45,184.52L10.91,196.61L21.82,206.71L27.27,210.7L38.18,215.34L43.64,217.85L65.45,229.09L70.91,230.85L76.36,230.93L81.82,232.66L87.27,234.24L92.73,234.79L98.18,236.38L103.64,236.5L114.55,237.23L120,238.3L125.45,237.84L130.91,238.53L147.27,239.76L152.73,240.09L158.18,242.17L163.64,241.87L185.45,242.8L190.91,244.24L201.82,243.7L207.27,244.04L218.18,244.53L223.64,246.38L234.55,250.7L240,250.8L245.45,251.62L250.91,254.2L256.36,254.98L261.82,257.14L267.27,257.68L272.73,259.47L278.18,260.14L283.64,261.6L305.45,266.67L310.91,269L332.73,272.53L338.18,274.6L354.55,278.13L360,279.75L365.45,279.97L370.91,281.52L387.27,285.46L392.73,285.51L414.55,290.4L420,291.36L436.36,293.92L441.82,294.41L507.27,297.81L512.73,298.02L540,299.21" style="vector-effect: non-scaling-stroke; fill: none; stroke: rgb(163, 165, 0); stroke-opacity: 1; stroke-width: 2px; opacity: 1;"/></g><g class="points"/><g class="text"/></g><g class="trace scatter trace7d7a4a" style="stroke-miterlimit: 2; opacity: 1;"><g class="fills"/><g class="errorbars"/><g class="lines"><path class="js-line" d="M0,54.65L5.45,189.73L10.91,197.89L16.36,201.69L21.82,202.88L27.27,204.26L32.73,204.58L54.55,211.16L60,215.28L76.36,227.03L81.82,227.99L103.64,233.46L109.09,234.2L130.91,237.09L136.36,237.28L141.82,238.39L147.27,238.53L152.73,239.3L158.18,239.29L174.55,239.85L180,241.48L185.45,240.97L190.91,241.85L201.82,242.01L207.27,242.9L218.18,243.25L223.64,244.04L234.55,246.21L240,249.38L245.45,248.56L250.91,250.93L261.82,255.13L267.27,255.91L278.18,258.26L283.64,259.05L294.55,262.32L300,263.3L310.91,265.41L316.36,266.61L321.82,268.13L327.27,268.79L332.73,270.58L338.18,270.77L354.55,274.7L360,275.71L370.91,278.19L376.36,278.29L381.82,280.31L387.27,280.86L409.09,285.21L414.55,286.66L425.45,288L430.91,289.36L452.73,290.8L458.18,291.12L540,295.02" style="vector-effect: non-scaling-stroke; fill: none; stroke: rgb(0, 191, 125); stroke-opacity: 1; stroke-width: 2px; opacity: 1;"/></g><g class="points"/><g class="text"/></g><g class="trace scatter tracef59455" style="stroke-miterlimit: 2; opacity: 1;"><g class="fills"/><g class="errorbars"/><g class="lines"><path class="js-line" d="M0,49.38L5.45,184.68L10.91,197.05L21.82,207.13L27.27,211.77L32.73,216.99L38.18,220.09L49.09,226.49L54.55,228.21L65.45,231.5L70.91,232.72L76.36,232.85L81.82,234.22L109.09,238.05L114.55,238.07L147.27,241.28L152.73,241.48L158.18,242.27L163.64,241.45L169.09,242.22L174.55,242.02L185.45,242.99L190.91,242.84L201.82,242.67L207.27,245.14L218.18,245.28L223.64,247.2L240,251.39L245.45,253.71L256.36,255.09L261.82,257.93L267.27,258.12L272.73,260.8L283.64,262.68L289.09,263.65L294.55,266.65L300,266.87L305.45,269.32L310.91,269.82L327.27,274.6L332.73,274.97L343.64,278.4L349.09,278.95L354.55,280.15L360,282.15L370.91,285.2L376.36,285.53L387.27,288.95L392.73,289.56L403.64,292.34L409.09,293.18L425.45,296.5L430.91,297.83L447.27,299.18L452.73,299.44L540,304" style="vector-effect: non-scaling-stroke; fill: none; stroke: rgb(0, 176, 246); stroke-opacity: 1; stroke-width: 2px; opacity: 1;"/></g><g class="points"/><g class="text"/></g><g class="trace scatter trace705371" style="stroke-miterlimit: 2; opacity: 1;"><g class="fills"/><g class="errorbars"/><g class="lines"><path class="js-line" d="M0,58.67L5.45,181.22L10.91,195.23L16.36,200.33L21.82,202.39L32.73,207.22L38.18,209.72L43.64,212.68L49.09,217.94L54.55,223.42L60,226.49L76.36,231.71L81.82,232.53L87.27,234.55L92.73,234.14L103.64,236.6L109.09,236.62L114.55,238.3L120,238.68L130.91,239.15L136.36,240.58L141.82,240.08L147.27,240.84L158.18,242.75L163.64,241.56L174.55,242.3L180,242.38L185.45,243.29L190.91,243.33L201.82,243.12L207.27,243.76L212.73,243.34L218.18,243.85L223.64,245.75L229.09,246.33L234.55,247.56L240,249.91L245.45,251.21L250.91,251.73L272.73,257.32L278.18,258.28L305.45,263.46L310.91,265.93L327.27,268.49L332.73,270.24L343.64,271.3L349.09,272.93L370.91,276.94L376.36,279.1L381.82,279.17L387.27,280.93L403.64,283.06L409.09,284.29L425.45,287.57L430.91,288.32L447.27,289.78L452.73,289.84L512.73,293L518.18,293.27L540,294.18" style="vector-effect: non-scaling-stroke; fill: none; stroke: rgb(231, 107, 243); stroke-opacity: 1; stroke-width: 2px; opacity: 1;"/></g><g class="points"/><g class="text"/></g><g class="trace scatter trace263a53" style="stroke-miterlimit: 2; opacity: 1;"><g class="fills"/><g class="errorbars"/><g class="lines"><path class="js-line" d="M0,37.94L5.45,175.54L10.91,192.53L16.36,198.35L21.82,202.51L32.73,205.74L38.18,206.2L43.64,207.97L49.09,208.45L54.55,209.89L60,213.22L65.45,220.17L70.91,223.98L76.36,227.31L81.82,228.56L87.27,231.23L92.73,232.79L136.36,238.95L141.82,238.65L163.64,240.21L169.09,240.22L174.55,239.87L180,240.32L185.45,240.57L190.91,241.68L196.36,240.56L201.82,241.17L223.64,242.41L229.09,244.53L240,246.71L245.45,249.02L261.82,252.45L267.27,253.46L283.64,257.36L289.09,258.84L300,260.7L305.45,262.72L327.27,266.53L332.73,268.11L338.18,269.55L343.64,269.64L360,273.22L365.45,274.02L381.82,277.98L387.27,278.84L430.91,286.88L436.36,287.63L540,292.73" style="vector-effect: non-scaling-stroke; fill: none; stroke: rgb(248, 118, 109); stroke-opacity: 1; stroke-width: 2px; opacity: 1;"/></g><g class="points"/><g class="text"/></g><g class="trace scatter trace931bfb" style="stroke-miterlimit: 2; opacity: 1;"><g class="fills"/><g class="errorbars"/><g class="lines"><path class="js-line" d="M0,73.57L5.45,182.33L10.91,195.43L16.36,200.16L21.82,203.56L27.27,205.78L32.73,209.95L38.18,214.29L43.64,217.07L49.09,219.89L54.55,221.55L65.45,224.03L70.91,226.45L76.36,227.35L81.82,229.11L87.27,230.42L92.73,233.34L109.09,237.6L114.55,238.01L120,238.36L125.45,239.67L130.91,239.06L136.36,240.6L141.82,240.31L147.27,241.17L158.18,241.62L163.64,242.15L169.09,241.88L174.55,242.75L190.91,243.23L196.36,242.4L201.82,243.4L207.27,243.36L212.73,243.07L218.18,243.76L223.64,245.59L229.09,246.51L240,248.95L245.45,249.9L250.91,251.88L256.36,253.01L267.27,254.27L272.73,255.86L300,261.38L305.45,262.96L310.91,263.03L316.36,264.5L327.27,266.48L332.73,267.73L338.18,268.22L343.64,270.35L354.55,271.17L360,272.01L398.18,279.47L403.64,279.64L414.55,281.97L420,282.59L436.36,285.24L441.82,285.48L540,289.74" style="vector-effect: non-scaling-stroke; fill: none; stroke: rgb(163, 165, 0); stroke-opacity: 1; stroke-width: 2px; opacity: 1;"/></g><g class="points"/><g class="text"/></g><g class="trace scatter tracefcc2b8" style="stroke-miterlimit: 2; opacity: 1;"><g class="fills"/><g class="errorbars"/><g class="lines"><path class="js-line" d="M0,75.33L5.45,190.45L10.91,199.08L16.36,202.52L21.82,204.06L49.09,211.41L54.55,213.66L70.91,221L76.36,223.59L87.27,227.52L92.73,228.92L103.64,232.07L109.09,232.61L114.55,232.97L120,234.38L125.45,234.32L130.91,236.57L136.36,236.61L141.82,238.09L158.18,238.61L163.64,239.24L169.09,240.61L174.55,240.63L180,240.07L185.45,241.84L190.91,241.32L196.36,241.71L201.82,242.76L207.27,243L212.73,242.97L218.18,244.05L223.64,245.79L229.09,245.67L234.55,248.51L240,248.92L245.45,249.89L250.91,253.46L256.36,253.93L261.82,255.64L278.18,259.55L283.64,262.27L289.09,261.93L294.55,263.84L300,264.11L305.45,265.99L310.91,268.57L316.36,269.72L332.73,273.26L338.18,274.97L343.64,275.7L349.09,277.33L354.55,279.13L360,279.35L387.27,285.89L392.73,286.59L403.64,289.3L409.09,289.99L430.91,294.52L436.36,294.9L463.64,296.64L469.09,296.88L496.36,298.47L501.82,298.57L540,300.18" style="vector-effect: non-scaling-stroke; fill: none; stroke: rgb(0, 191, 125); stroke-opacity: 1; stroke-width: 2px; opacity: 1;"/></g><g class="points"/><g class="text"/></g><g class="trace scatter traced7e3d7" style="stroke-miterlimit: 2; opacity: 1;"><g class="fills"/><g class="errorbars"/><g class="lines"><path class="js-line" d="M0,43.82L5.45,186.88L10.91,197.79L16.36,201.83L21.82,203.36L43.64,208.88L49.09,213.18L54.55,219.97L60,224.61L76.36,230.74L81.82,232.5L87.27,234.14L92.73,234.18L98.18,235.95L103.64,236.35L109.09,237.47L114.55,237.77L125.45,240.04L130.91,240.18L136.36,240.15L141.82,241.21L163.64,243.1L169.09,244.3L174.55,243.24L180,243.68L196.36,245.48L201.82,245.28L212.73,247.11L218.18,246.52L223.64,248.05L229.09,250.45L245.45,253.21L250.91,255.54L256.36,255.85L261.82,257.39L278.18,260.78L283.64,262.92L294.55,263.56L300,266.42L305.45,266.95L310.91,268.38L332.73,272.31L338.18,273.81L343.64,274.5L349.09,276.07L360,278.5L365.45,278.55L370.91,280.93L376.36,280.77L392.73,284.62L398.18,285.1L409.09,287.78L414.55,288.72L441.82,293.02L447.27,292.96L540,297.6" style="vector-effect: non-scaling-stroke; fill: none; stroke: rgb(0, 176, 246); stroke-opacity: 1; stroke-width: 2px; opacity: 1;"/></g><g class="points"/><g class="text"/></g><g class="trace scatter tracead481e" style="stroke-miterlimit: 2; opacity: 1;"><g class="fills"/><g class="errorbars"/><g class="lines"><path class="js-line" d="M0,60.78L5.45,186.94L10.91,196.53L16.36,200.86L21.82,202.75L38.18,206.82L43.64,208.84L54.55,217.14L60,219.99L76.36,224.12L81.82,224.62L87.27,225.24L92.73,227.85L98.18,227.12L103.64,228.41L120,229.72L125.45,231.04L130.91,229.84L136.36,231.66L152.73,232.6L158.18,231.95L163.64,232.85L169.09,232.67L180,233.36L185.45,234.06L190.91,233.28L196.36,234.87L218.18,235.4L223.64,236.62L240,240.09L245.45,242.57L250.91,242.84L256.36,244.82L261.82,245.02L267.27,246.17L272.73,248.36L278.18,247.92L283.64,250.54L289.09,250.45L300,253.13L305.45,253.44L316.36,257.48L321.82,257.42L332.73,259.75L338.18,260.8L343.64,260.95L349.09,263.21L365.45,265.03L370.91,266.42L436.36,277.17L441.82,277.69L463.64,278.8L469.09,279.07L496.36,280.19L501.82,280.56L540,282.13" style="vector-effect: non-scaling-stroke; fill: none; stroke: rgb(231, 107, 243); stroke-opacity: 1; stroke-width: 2px; opacity: 1;"/></g><g class="points"/><g class="text"/></g></g></g><g class="overplot"/><path class="xlines-above crisp" d="" style="fill: none; stroke-width: 1px; stroke: rgb(0, 0, 0); stroke-opacity: 0;"/><path class="ylines-above crisp" d="" style="fill: none; stroke-width: 1px; stroke: rgb(0, 0, 0); stroke-opacity: 0;"/><g class="overlines-above"/><g class="xaxislayer-above"><path class="xtick ticks crisp" d="M0,421v5" transform="translate(80,0)" style="stroke: rgb(51, 51, 51); stroke-opacity: 1; stroke-width: 1px;"/><path class="xtick ticks crisp" d="M0,421v5" transform="translate(189.09,0)" style="stroke: rgb(51, 51, 51); stroke-opacity: 1; stroke-width: 1px;"/><path class="xtick ticks crisp" d="M0,421v5" transform="translate(298.18,0)" style="stroke: rgb(51, 51, 51); stroke-opacity: 1; stroke-width: 1px;"/><path class="xtick ticks crisp" d="M0,421v5" transform="translate(407.27,0)" style="stroke: rgb(51, 51, 51); stroke-opacity: 1; stroke-width: 1px;"/><path class="xtick ticks crisp" d="M0,421v5" transform="translate(516.36,0)" style="stroke: rgb(51, 51, 51); stroke-opacity: 1; stroke-width: 1px;"/><g class="xtick"><text text-anchor="middle" x="0" y="440.4" transform="translate(80,0)" style="font-family: 'Open Sans', verdana, arial, sans-serif; font-size: 12px; fill: rgb(51, 51, 51); fill-opacity: 1; white-space: pre; opacity: 1;">0</text></g><g class="xtick"><text text-anchor="middle" x="0" y="440.4" style="font-family: 'Open Sans', verdana, arial, sans-serif; font-size: 12px; fill: rgb(51, 51, 51); fill-opacity: 1; white-space: pre; opacity: 1;" transform="translate(189.09,0)">20</text></g><g class="xtick"><text text-anchor="middle" x="0" y="440.4" style="font-family: 'Open Sans', verdana, arial, sans-serif; font-size: 12px; fill: rgb(51, 51, 51); fill-opacity: 1; white-space: pre; opacity: 1;" transform="translate(298.18,0)">40</text></g><g class="xtick"><text text-anchor="middle" x="0" y="440.4" style="font-family: 'Open Sans', verdana, arial, sans-serif; font-size: 12px; fill: rgb(51, 51, 51); fill-opacity: 1; white-space: pre; opacity: 1;" transform="translate(407.27,0)">60</text></g><g class="xtick"><text text-anchor="middle" x="0" y="440.4" style="font-family: 'Open Sans', verdana, arial, sans-serif; font-size: 12px; fill: rgb(51, 51, 51); fill-opacity: 1; white-space: pre; opacity: 1;" transform="translate(516.36,0)">80</text></g></g><g class="yaxislayer-above"><path class="ytick ticks crisp" d="M79,0h-5" transform="translate(0,394.18)" style="stroke: rgb(51, 51, 51); stroke-opacity: 1; stroke-width: 1px;"/><path class="ytick ticks crisp" d="M79,0h-5" transform="translate(0,353.88)" style="stroke: rgb(51, 51, 51); stroke-opacity: 1; stroke-width: 1px;"/><path class="ytick ticks crisp" d="M79,0h-5" transform="translate(0,313.58000000000004)" style="stroke: rgb(51, 51, 51); stroke-opacity: 1; stroke-width: 1px;"/><path class="ytick ticks crisp" d="M79,0h-5" transform="translate(0,273.28)" style="stroke: rgb(51, 51, 51); stroke-opacity: 1; stroke-width: 1px;"/><path class="ytick ticks crisp" d="M79,0h-5" transform="translate(0,232.97)" style="stroke: rgb(51, 51, 51); stroke-opacity: 1; stroke-width: 1px;"/><path class="ytick ticks crisp" d="M79,0h-5" transform="translate(0,192.67000000000002)" style="stroke: rgb(51, 51, 51); stroke-opacity: 1; stroke-width: 1px;"/><path class="ytick ticks crisp" d="M79,0h-5" transform="translate(0,152.37)" style="stroke: rgb(51, 51, 51); stroke-opacity: 1; stroke-width: 1px;"/><path class="ytick ticks crisp" d="M79,0h-5" transform="translate(0,112.07)" style="stroke: rgb(51, 51, 51); stroke-opacity: 1; stroke-width: 1px;"/><g class="ytick"><text text-anchor="end" x="71.6" y="4.199999999999999" transform="translate(0,394.18)" style="font-family: 'Open Sans', verdana, arial, sans-serif; font-size: 12px; fill: rgb(51, 51, 51); fill-opacity: 1; white-space: pre; opacity: 1;">1.65</text></g><g class="ytick"><text text-anchor="end" x="71.6" y="4.199999999999999" style="font-family: 'Open Sans', verdana, arial, sans-serif; font-size: 12px; fill: rgb(51, 51, 51); fill-opacity: 1; white-space: pre; opacity: 1;" transform="translate(0,353.88)">1.7</text></g><g class="ytick"><text text-anchor="end" x="71.6" y="4.199999999999999" style="font-family: 'Open Sans', verdana, arial, sans-serif; font-size: 12px; fill: rgb(51, 51, 51); fill-opacity: 1; white-space: pre; opacity: 1;" transform="translate(0,313.58000000000004)">1.75</text></g><g class="ytick"><text text-anchor="end" x="71.6" y="4.199999999999999" style="font-family: 'Open Sans', verdana, arial, sans-serif; font-size: 12px; fill: rgb(51, 51, 51); fill-opacity: 1; white-space: pre; opacity: 1;" transform="translate(0,273.28)">1.8</text></g><g class="ytick"><text text-anchor="end" x="71.6" y="4.199999999999999" style="font-family: 'Open Sans', verdana, arial, sans-serif; font-size: 12px; fill: rgb(51, 51, 51); fill-opacity: 1; white-space: pre; opacity: 1;" transform="translate(0,232.97)">1.85</text></g><g class="ytick"><text text-anchor="end" x="71.6" y="4.199999999999999" style="font-family: 'Open Sans', verdana, arial, sans-serif; font-size: 12px; fill: rgb(51, 51, 51); fill-opacity: 1; white-space: pre; opacity: 1;" transform="translate(0,192.67000000000002)">1.9</text></g><g class="ytick"><text text-anchor="end" x="71.6" y="4.199999999999999" style="font-family: 'Open Sans', verdana, arial, sans-serif; font-size: 12px; fill: rgb(51, 51, 51); fill-opacity: 1; white-space: pre; opacity: 1;" transform="translate(0,152.37)">1.95</text></g><g class="ytick"><text text-anchor="end" x="71.6" y="4.199999999999999" style="font-family: 'Open Sans', verdana, arial, sans-serif; font-size: 12px; fill: rgb(51, 51, 51); fill-opacity: 1; white-space: pre; opacity: 1;" transform="translate(0,112.07)">2</text></g></g><g class="overaxes-above"/></g></g><g class="polarlayer"/><g class="ternarylayer"/><g class="geolayer"/><g class="funnelarealayer"/><g class="pielayer"/><g class="iciclelayer"/><g class="treemaplayer"/><g class="sunburstlayer"/><g class="glimages"/><defs id="topdefs-54a701"><g class="clips"/></defs><g class="layer-above"><g class="imagelayer"/><g class="shapelayer"/></g><g class="infolayer"><g class="g-gtitle"><text class="gtitle" x="350" y="50" text-anchor="middle" dy="0em" style="font-family: 'Open Sans', verdana, arial, sans-serif; font-size: 17px; fill: rgb(51, 51, 51); opacity: 1; font-weight: normal; white-space: pre;">Train Loss: ascad_v1_fk_0_noisy-s_eff_cnn_hw (early_stopping)</text></g><g class="g-xtitle"/><g class="g-ytitle"/></g></svg>