<svg class="main-svg" xmlns="http://www.w3.org/2000/svg" xmlns:xlink="http://www.w3.org/1999/xlink" width="700" height="500" style="" viewBox="0 0 700 500"><rect x="0" y="0" width="700" height="500" style="fill: rgb(255, 255, 255); fill-opacity: 1;"/><defs id="defs-c7ed5e"><g class="clips"><clipPath id="clipc7ed5exyplot" class="plotclip"><rect width="540" height="320"/></clipPath><clipPath class="axesclip" id="clipc7ed5ex"><rect x="80" y="0" width="540" height="500"/></clipPath><clipPath class="axesclip" id="clipc7ed5ey"><rect x="0" y="100" width="700" height="320"/></clipPath><clipPath class="axesclip" id="clipc7ed5exy"><rect x="80" y="100" width="540" height="320"/></clipPath></g><g class="gradients"/><g class="patterns"/></defs><g class="bglayer"><rect class="bg" x="80" y="100" width="540" height="320" style="fill: rgb(237, 237, 237); fill-opacity: 1; stroke-width: 0;"/></g><g class="layer-below"><g class="imagelayer"/><g class="shapelayer"/></g><g class="cartesianlayer"><g class="subplot xy"><g class="layer-subplot"><g class="shapelayer"/><g class="imagelayer"/></g><g class="gridlayer"><g class="x"><path class="xgrid crisp" transform="translate(189.09,0)" d="M0,100v320" style="stroke: rgb(255, 255, 255); stroke-opacity: 1; stroke-width: 1px;"/><path class="xgrid crisp" transform="translate(298.18,0)" d="M0,100v320" style="stroke: rgb(255, 255, 255); stroke-opacity: 1; stroke-width: 1px;"/><path class="xgrid crisp" transform="translate(407.27,0)" d="M0,100v320" style="stroke: rgb(255, 255, 255); stroke-opacity: 1; stroke-width: 1px;"/><path class="xgrid crisp" transform="translate(516.36,0)" d="M0,100v320" style="stroke: rgb(255, 255, 255); stroke-opacity: 1; stroke-width: 1px;"/></g><g class="y"><path class="ygrid crisp" transform="translate(0,395.82)" d="M80,0h540" style="stroke: rgb(255, 255, 255); stroke-opacity: 1; stroke-width: 1px;"/><path class="ygrid crisp" transform="translate(0,355.36)" d="M80,0h540" style="stroke: rgb(255, 255, 255); stroke-opacity: 1; stroke-width: 1px;"/><path class="ygrid crisp" transform="translate(0,314.90999999999997)" d="M80,0h540" style="stroke: rgb(255, 255, 255); stroke-opacity: 1; stroke-width: 1px;"/><path class="ygrid crisp" transform="translate(0,274.45)" d="M80,0h540" style="stroke: rgb(255, 255, 255); stroke-opacity: 1; stroke-width: 1px;"/><path class="ygrid crisp" transform="translate(0,234)" d="M80,0h540" style="stroke: rgb(255, 255, 255); stroke-opacity: 1; stroke-width: 1px;"/><path class="ygrid crisp" transform="translate(0,193.54000000000002)" d="M80,0h540" style="stroke: rgb(255, 255, 255); stroke-opacity: 1; stroke-width: 1px;"/><path class="ygrid crisp" transform="translate(0,153.09)" d="M80,0h540" style="stroke: rgb(255, 255, 255); stroke-opacity: 1; stroke-width: 1px;"/><path class="ygrid crisp" transform="translate(0,112.63)" d="M80,0h540" style="stroke: rgb(255, 255, 255); stroke-opacity: 1; stroke-width: 1px;"/></g></g><g class="zerolinelayer"><path class="xzl zl crisp" transform="translate(80,0)" d="M0,100v320" style="stroke: rgb(255, 255, 255); stroke-opacity: 1; stroke-width: 1px;"/></g><path class="xlines-below"/><path class="ylines-below"/><g class="overlines-below"/><g class="xaxislayer-below"/><g class="yaxislayer-below"/><g class="overaxes-below"/><g class="plot" transform="translate(80,100)" clip-path="url(#clipc7ed5exyplot)"><g class="scatterlayer mlayer"><g class="trace scatter trace2a5bb0" style="stroke-miterlimit: 2; opacity: 1;"><g class="fills"/><g class="errorbars"/><g class="lines"><path class="js-line" d="M0,75.4L5.45,192.59L10.91,200.9L16.36,203.84L21.82,205.63L32.73,207.38L38.18,209.5L43.64,210.9L49.09,213.56L60,219.78L65.45,220.44L76.36,223.49L81.82,226.22L92.73,231.05L98.18,232.58L103.64,233.38L109.09,235.83L120,236.07L125.45,238.25L130.91,238.09L136.36,239.47L141.82,239.82L147.27,239.05L163.64,240.58L169.09,240.42L174.55,242.02L180,241.28L185.45,241.18L190.91,242.05L201.82,242.62L207.27,242.47L218.18,243.35L223.64,244.54L229.09,247.13L234.55,248.5L240,248.03L245.45,250.55L250.91,250.75L256.36,253.19L261.82,254.94L267.27,254.38L272.73,257.18L278.18,258.76L283.64,258.33L289.09,260.84L294.55,260.67L300,262.6L316.36,266.75L321.82,267.88L327.27,268.38L332.73,271.16L338.18,271.46L343.64,272.96L349.09,272.94L354.55,274.56L360,275.24L365.45,277.41L370.91,277.28L376.36,279.2L409.09,285.28L414.55,286.31L430.91,289.42L436.36,290.11L540,295.34" style="vector-effect: non-scaling-stroke; fill: none; stroke: rgb(248, 118, 109); stroke-opacity: 1; stroke-width: 2px; opacity: 1;"/></g><g class="points"/><g class="text"/></g><g class="trace scatter tracee15986" style="stroke-miterlimit: 2; opacity: 1;"><g class="fills"/><g class="errorbars"/><g class="lines"><path class="js-line" d="M0,78.98L5.45,188.47L10.91,198.15L21.82,205.5L27.27,207.18L38.18,212.6L43.64,214.93L49.09,218.17L54.55,220.53L65.45,226.55L70.91,228.25L81.82,232.74L87.27,234.67L98.18,237.5L103.64,238.85L109.09,238.87L114.55,240.18L130.91,242.63L136.36,242.27L147.27,242.73L152.73,244.63L158.18,242.61L163.64,244.7L180,246.27L185.45,245.49L190.91,246.65L196.36,245.72L212.73,246.85L218.18,247.92L223.64,248.45L229.09,250.31L234.55,251.61L240,251.64L256.36,256.23L261.82,257.61L267.27,258.05L272.73,260.2L283.64,262.06L289.09,263.57L294.55,264.13L300,266.25L305.45,266.78L310.91,268.08L332.73,272.56L338.18,274.3L349.09,275.71L354.55,276.68L365.45,279.51L370.91,280.09L381.82,282.38L387.27,283.2L403.64,286.85L409.09,287.24L425.45,290.86L430.91,291.57L441.82,292.63L447.27,292.93L474.55,294.53L480,294.76L540,297.53" style="vector-effect: non-scaling-stroke; fill: none; stroke: rgb(163, 165, 0); stroke-opacity: 1; stroke-width: 2px; opacity: 1;"/></g><g class="points"/><g class="text"/></g><g class="trace scatter tracefca6f0" style="stroke-miterlimit: 2; opacity: 1;"><g class="fills"/><g class="errorbars"/><g class="lines"><path class="js-line" d="M0,54.74L5.45,188.4L10.91,198.35L16.36,202.54L21.82,204.63L32.73,206.84L38.18,207.95L49.09,212.23L54.55,215.32L60,216.88L65.45,220.63L76.36,222.93L81.82,224.54L98.18,229.08L103.64,231.54L109.09,234.16L114.55,234.48L120,235.21L125.45,237.49L136.36,239.3L141.82,238.72L147.27,240.85L152.73,240.37L158.18,241.73L163.64,241.31L169.09,241.35L174.55,243.52L180,242.71L185.45,243.03L201.82,243.93L207.27,243.1L218.18,243.77L223.64,245.3L229.09,246.37L234.55,248.21L250.91,251.5L256.36,253.6L261.82,254.66L267.27,256.61L272.73,255.97L278.18,257.45L305.45,264.26L310.91,264.64L321.82,268.61L327.27,268.92L332.73,269.46L338.18,270.8L376.36,278.35L381.82,280.35L392.73,281.57L398.18,283.02L414.55,286.17L420,287.39L425.45,287.87L430.91,289.42L474.55,292.24L480,292.34L540,295.24" style="vector-effect: non-scaling-stroke; fill: none; stroke: rgb(0, 191, 125); stroke-opacity: 1; stroke-width: 2px; opacity: 1;"/></g><g class="points"/><g class="text"/></g><g class="trace scatter trace23accc" style="stroke-miterlimit: 2; opacity: 1;"><g class="fills"/><g class="errorbars"/><g class="lines"><path class="js-line" d="M0,61.76L5.45,193.82L10.91,200.54L16.36,203.92L21.82,205.5L27.27,206.72L32.73,209.22L38.18,214.31L43.64,220.46L49.09,226.28L54.55,229.06L60,230.59L65.45,233.69L81.82,236.85L87.27,238.83L98.18,240.71L103.64,240.76L109.09,241.85L114.55,241.77L120,243.07L125.45,243.32L130.91,244.85L136.36,245.18L141.82,244.75L147.27,245.25L152.73,246.11L158.18,246.12L163.64,246.76L169.09,246.47L180,247.9L185.45,247.79L207.27,248.21L212.73,248.12L223.64,250.46L229.09,252.72L234.55,254.14L240,254.72L261.82,261.42L267.27,261.98L272.73,262.97L278.18,265.93L300,269.17L305.45,271.9L327.27,275.64L332.73,277.73L338.18,278.38L343.64,280.14L354.55,282.64L360,283.02L365.45,284.86L370.91,285.44L376.36,287.26L381.82,288.09L414.55,294.7L420,295.58L441.82,298.52L447.27,298.74L540,303.27" style="vector-effect: non-scaling-stroke; fill: none; stroke: rgb(0, 176, 246); stroke-opacity: 1; stroke-width: 2px; opacity: 1;"/></g><g class="points"/><g class="text"/></g><g class="trace scatter trace77f4b0" style="stroke-miterlimit: 2; opacity: 1;"><g class="fills"/><g class="errorbars"/><g class="lines"><path class="js-line" d="M0,74.63L5.45,188.68L10.91,198.66L21.82,204.19L27.27,205.37L43.64,207.34L49.09,208.84L65.45,210.77L70.91,212.39L76.36,216.76L81.82,219.75L92.73,224.34L98.18,228.45L103.64,231.72L109.09,234.03L120,236.97L125.45,238.6L136.36,239.31L141.82,240.4L147.27,240.76L152.73,242.04L158.18,241.72L163.64,242.71L169.09,242.56L174.55,244.08L190.91,243.57L196.36,244.95L201.82,244.09L207.27,244.56L212.73,245.84L218.18,246.12L234.55,250.2L240,251.26L245.45,252.02L250.91,253.64L261.82,254.82L267.27,256.67L289.09,260.73L294.55,262.01L300,262.14L305.45,264.25L316.36,266.57L321.82,267.62L327.27,267.64L332.73,268.95L338.18,270.78L343.64,270.89L354.55,273.31L360,274.14L365.45,275.66L370.91,276.25L436.36,286.93L441.82,287.2L490.91,289.66L496.36,289.94L540,291.74" style="vector-effect: non-scaling-stroke; fill: none; stroke: rgb(231, 107, 243); stroke-opacity: 1; stroke-width: 2px; opacity: 1;"/></g><g class="points"/><g class="text"/></g><g class="trace scatter tracedcbb42" style="stroke-miterlimit: 2; opacity: 1;"><g class="fills"/><g class="errorbars"/><g class="lines"><path class="js-line" d="M0,16L5.45,181.06L10.91,196.42L21.82,208.14L27.27,212.93L32.73,215.51L38.18,217.19L60,224.04L65.45,227.44L76.36,231.93L81.82,233.56L87.27,235.2L92.73,235.78L103.64,237.53L109.09,237.36L114.55,238.72L120,238.96L136.36,240.69L141.82,241.83L152.73,241.28L158.18,242.09L163.64,242.56L169.09,242.12L174.55,242.82L180,242.42L190.91,242.94L196.36,243.44L223.64,245.71L229.09,246.69L256.36,253.44L261.82,254.72L267.27,254.68L272.73,256.63L278.18,258.27L283.64,258.85L289.09,259.45L294.55,261.06L316.36,265.56L321.82,266.41L327.27,268.19L332.73,268.82L354.55,272.11L360,273.69L365.45,274.18L370.91,275.65L381.82,277.63L387.27,278.37L398.18,280.71L403.64,281.24L409.09,282.91L414.55,283.45L436.36,287.07L441.82,287.32L469.09,288.95L474.55,289.2L540,292.19" style="vector-effect: non-scaling-stroke; fill: none; stroke: rgb(248, 118, 109); stroke-opacity: 1; stroke-width: 2px; opacity: 1;"/></g><g class="points"/><g class="text"/></g><g class="trace scatter trace7fc4ea" style="stroke-miterlimit: 2; opacity: 1;"><g class="fills"/><g class="errorbars"/><g class="lines"><path class="js-line" d="M0,85.05L5.45,188.62L10.91,198.81L16.36,202.71L21.82,204.25L38.18,211.91L43.64,217.06L60,229.1L65.45,231.5L70.91,232.17L76.36,234.37L92.73,237.25L98.18,238.69L103.64,238.9L109.09,239.97L114.55,240.18L120,241.22L130.91,242.25L136.36,242.66L163.64,243.52L169.09,245.4L180,245.48L185.45,245.81L190.91,247.49L196.36,247.46L207.27,247.25L212.73,247.8L218.18,249.29L223.64,249.69L229.09,251.97L234.55,253.18L240,254.02L245.45,256.45L250.91,256.6L256.36,258.7L267.27,261.82L272.73,261.53L278.18,264.63L283.64,265.77L300,268.57L305.45,270.29L310.91,271.21L316.36,274.05L321.82,273.24L327.27,274.97L332.73,276.63L338.18,277.49L354.55,281.77L360,281.54L365.45,283.16L370.91,283.79L392.73,289.07L398.18,289.64L414.55,292.59L420,294.06L447.27,297.35L452.73,297.67L540,301.85" style="vector-effect: non-scaling-stroke; fill: none; stroke: rgb(163, 165, 0); stroke-opacity: 1; stroke-width: 2px; opacity: 1;"/></g><g class="points"/><g class="text"/></g><g class="trace scatter trace8a125a" style="stroke-miterlimit: 2; opacity: 1;"><g class="fills"/><g class="errorbars"/><g class="lines"><path class="js-line" d="M0,75.75L5.45,187.54L10.91,197.52L16.36,202.07L21.82,204.43L27.27,205.37L32.73,207.08L38.18,209.71L43.64,211.49L54.55,217.71L60,221.05L65.45,226.56L70.91,229.78L92.73,236.6L98.18,237.39L103.64,238.66L109.09,238.81L114.55,240.85L120,240.62L125.45,242.34L130.91,242.16L136.36,242.39L141.82,243.47L152.73,243.81L158.18,244.71L169.09,245.24L174.55,245.72L201.82,247.42L207.27,246.1L212.73,246.13L218.18,247.17L234.55,249.62L240,252.05L250.91,253.94L256.36,255.59L267.27,258.02L272.73,258.97L283.64,260.91L289.09,262.13L294.55,263.48L300,264.02L310.91,266.88L316.36,267.15L321.82,269.16L327.27,270.12L332.73,270.76L338.18,272.37L343.64,272.66L349.09,274.4L354.55,274.25L360,276.25L381.82,281.04L387.27,281.49L398.18,283.84L403.64,284.66L436.36,290.27L441.82,290.54L518.18,294.35L523.64,294.64L540,295.33" style="vector-effect: non-scaling-stroke; fill: none; stroke: rgb(0, 191, 125); stroke-opacity: 1; stroke-width: 2px; opacity: 1;"/></g><g class="points"/><g class="text"/></g><g class="trace scatter trace29073d" style="stroke-miterlimit: 2; opacity: 1;"><g class="fills"/><g class="errorbars"/><g class="lines"><path class="js-line" d="M0,89.01L5.45,191.68L10.91,200.07L16.36,204.47L21.82,207.22L27.27,210.66L32.73,217.54L38.18,222.56L43.64,225.97L54.55,229.62L60,231.36L81.82,235.16L87.27,235.74L103.64,238.21L109.09,237.92L125.45,241.46L130.91,240.73L136.36,241.97L141.82,241.5L152.73,243.32L158.18,242.87L169.09,244.83L174.55,244.41L196.36,245.18L201.82,246.74L212.73,245.15L218.18,245.85L229.09,249.24L234.55,249.91L240,250.88L245.45,252.8L283.64,261.39L289.09,263.57L300,264.94L305.45,266.21L316.36,268.46L321.82,269.24L332.73,272.19L338.18,273.06L354.55,275.88L360,277.43L370.91,279.66L376.36,280.41L387.27,282.73L392.73,283.56L409.09,287.05L414.55,287.63L425.45,289.98L430.91,291.23L452.73,293.05L458.18,293.39L518.18,296.95L523.64,297.19L540,297.92" style="vector-effect: non-scaling-stroke; fill: none; stroke: rgb(0, 176, 246); stroke-opacity: 1; stroke-width: 2px; opacity: 1;"/></g><g class="points"/><g class="text"/></g><g class="trace scatter tracecd904c" style="stroke-miterlimit: 2; opacity: 1;"><g class="fills"/><g class="errorbars"/><g class="lines"><path class="js-line" d="M0,37.35L5.45,188.87L10.91,198.8L21.82,203.89L27.27,205.27L43.64,208.85L49.09,212.68L60,218.66L65.45,220.79L76.36,228.08L81.82,230.84L98.18,235.26L103.64,236.32L125.45,238.62L130.91,239.84L136.36,239.87L141.82,240.85L147.27,240.73L152.73,241.61L169.09,242.47L174.55,242.16L180,243.68L185.45,242.51L201.82,244.83L207.27,244.27L212.73,245.73L218.18,244.04L223.64,246.65L229.09,247.35L245.45,251.64L250.91,253.33L256.36,255.37L261.82,255.42L272.73,257.61L278.18,258.7L300,264.95L305.45,265.19L310.91,266.9L316.36,267.82L332.73,271.12L338.18,272.07L349.09,274.37L354.55,275.59L360,275.95L365.45,277.28L370.91,279.16L376.36,279.3L381.82,279.9L387.27,281.54L430.91,289.42L436.36,290.07L540,294.93" style="vector-effect: non-scaling-stroke; fill: none; stroke: rgb(231, 107, 243); stroke-opacity: 1; stroke-width: 2px; opacity: 1;"/></g><g class="points"/><g class="text"/></g><g class="trace scatter trace5db135" style="stroke-miterlimit: 2; opacity: 1;"><g class="fills"/><g class="errorbars"/><g class="lines"><path class="js-line" d="M0,54.1L5.45,193.03L10.91,200.87L27.27,213.48L32.73,216.47L38.18,220.22L43.64,222.87L49.09,226.27L54.55,228.14L65.45,232.02L70.91,233.13L81.82,235.55L87.27,235.73L92.73,237.58L98.18,237.99L109.09,240.53L114.55,241.16L125.45,242.09L130.91,242.81L152.73,244.04L158.18,244.83L163.64,244.99L169.09,244.15L174.55,245.12L180,244.61L185.45,245.35L190.91,244.72L201.82,245.82L207.27,245.07L218.18,247L223.64,247.14L234.55,250.75L240,251.54L250.91,254.51L256.36,255.52L267.27,258.73L272.73,259.52L283.64,262.23L289.09,261.74L294.55,264.52L300,264.87L305.45,266.96L310.91,267.65L321.82,270.74L327.27,271.19L343.64,275.63L349.09,275.95L360,278.6L365.45,279.69L376.36,281.57L381.82,283.34L387.27,284.32L392.73,284.49L403.64,287.26L409.09,288.26L425.45,290.86L430.91,292.18L447.27,293.66L452.73,293.69L485.45,295.41L490.91,295.58L512.73,296.7L518.18,296.96L540,297.88" style="vector-effect: non-scaling-stroke; fill: none; stroke: rgb(248, 118, 109); stroke-opacity: 1; stroke-width: 2px; opacity: 1;"/></g><g class="points"/><g class="text"/></g><g class="trace scatter trace14d128" style="stroke-miterlimit: 2; opacity: 1;"><g class="fills"/><g class="errorbars"/><g class="lines"><path class="js-line" d="M0,53.93L5.45,188.62L10.91,199.57L16.36,202.91L21.82,205.28L27.27,207.14L32.73,210.22L38.18,214.21L43.64,216.61L60,223.69L65.45,224.19L81.82,231.82L87.27,233.97L92.73,236.74L98.18,237.53L130.91,242.75L136.36,242.7L141.82,242.92L147.27,244.01L152.73,243.69L158.18,245.1L169.09,245.98L174.55,245.78L185.45,245.99L190.91,246.68L196.36,246.6L201.82,247.56L207.27,247.26L212.73,248.08L218.18,249.57L223.64,249.97L229.09,250.42L234.55,252.32L240,253.95L245.45,254.68L256.36,256.11L261.82,257.76L267.27,258.25L272.73,259.7L283.64,262.46L289.09,263.81L305.45,266.97L310.91,266.64L321.82,270.29L327.27,270.53L349.09,274.68L354.55,276.5L360,276.49L365.45,277.45L376.36,280.37L381.82,280.58L392.73,283.01L398.18,283.47L420,287.66L425.45,288.44L430.91,289.72L436.36,289.99L458.18,291.34L463.64,291.65L540,295.11" style="vector-effect: non-scaling-stroke; fill: none; stroke: rgb(163, 165, 0); stroke-opacity: 1; stroke-width: 2px; opacity: 1;"/></g><g class="points"/><g class="text"/></g><g class="trace scatter trace8b1ffa" style="stroke-miterlimit: 2; opacity: 1;"><g class="fills"/><g class="errorbars"/><g class="lines"><path class="js-line" d="M0,57.91L5.45,193.62L10.91,200.92L16.36,204.01L21.82,204.8L27.27,206.58L32.73,207.51L43.64,215.05L49.09,218.99L54.55,223.62L60,226.96L70.91,231.84L76.36,232.58L81.82,234.66L87.27,235.03L103.64,238.39L109.09,239.25L125.45,239.8L130.91,241.13L158.18,243.4L163.64,243.96L169.09,244.97L174.55,244.7L185.45,244.75L190.91,243.98L196.36,245.49L201.82,245.85L207.27,245.25L212.73,245.91L223.64,248.24L229.09,248.47L234.55,249.49L240,251.43L245.45,252.07L250.91,253.99L256.36,255.2L261.82,255.42L267.27,257.13L272.73,257.86L283.64,261.24L289.09,261.69L305.45,265.98L310.91,266.51L316.36,267.73L321.82,267.86L338.18,271.5L343.64,273.36L349.09,273.78L354.55,275.44L370.91,278.12L376.36,279.53L381.82,279.72L387.27,281.02L409.09,284.74L414.55,285.81L441.82,289.58L447.27,289.75L496.36,292.24L501.82,292.52L529.09,293.66L534.55,293.89L540,294.09" style="vector-effect: non-scaling-stroke; fill: none; stroke: rgb(0, 191, 125); stroke-opacity: 1; stroke-width: 2px; opacity: 1;"/></g><g class="points"/><g class="text"/></g><g class="trace scatter tracee4e68e" style="stroke-miterlimit: 2; opacity: 1;"><g class="fills"/><g class="errorbars"/><g class="lines"><path class="js-line" d="M0,69.96L5.45,185.34L10.91,196.52L16.36,201.52L21.82,203.58L43.64,211.33L49.09,215.51L54.55,218.85L60,223.39L65.45,228.2L70.91,230.03L76.36,232.82L81.82,233.95L103.64,238.08L109.09,239.13L114.55,238.56L120,239.67L125.45,240.08L130.91,241.34L136.36,240.99L141.82,241.95L147.27,243.25L152.73,242.89L158.18,242.13L163.64,243.03L169.09,244.12L174.55,244.28L185.45,245.93L190.91,245.43L201.82,245.18L207.27,245.95L212.73,245.11L218.18,246.46L223.64,247.26L229.09,249.45L234.55,250.62L240,249.97L250.91,254.58L256.36,255.27L278.18,259.56L283.64,261.39L294.55,263.71L300,263.68L310.91,266.94L316.36,267.29L321.82,268.8L327.27,269.48L338.18,272.09L343.64,272.44L354.55,275.42L360,275.88L370.91,278.15L376.36,279.21L414.55,286.14L420,287.43L441.82,290.11L447.27,290.34L469.09,291.67L474.55,291.79L501.82,293.14L507.27,293.41L540,294.85" style="vector-effect: non-scaling-stroke; fill: none; stroke: rgb(0, 176, 246); stroke-opacity: 1; stroke-width: 2px; opacity: 1;"/></g><g class="points"/><g class="text"/></g><g class="trace scatter trace7f3017" style="stroke-miterlimit: 2; opacity: 1;"><g class="fills"/><g class="errorbars"/><g class="lines"><path class="js-line" d="M0,91.03L5.45,191.69L10.91,199.73L21.82,205.16L27.27,206.87L38.18,213.91L43.64,218.09L54.55,223.32L60,224.07L65.45,225.73L70.91,225.8L76.36,227.84L81.82,228.8L87.27,230.16L92.73,229.59L98.18,231.46L103.64,232.2L141.82,236.74L147.27,236.11L152.73,236.34L158.18,238.2L169.09,237.72L174.55,238.91L180,238.93L185.45,240.59L190.91,239.7L196.36,240.14L218.18,241.59L223.64,242.57L229.09,244.75L234.55,245.74L240,246.68L245.45,248.56L261.82,252.08L267.27,254.44L272.73,255.26L278.18,257.49L283.64,257.32L289.09,258.87L294.55,260.86L300,261.42L310.91,264.09L316.36,265.21L327.27,268.33L332.73,268.51L343.64,271.13L349.09,272.39L365.45,275.42L370.91,276.3L376.36,278.08L381.82,278.77L409.09,284.48L414.55,284.88L425.45,287.45L430.91,287.97L441.82,289.18L447.27,289.45L507.27,292.46L512.73,292.67L540,293.71" style="vector-effect: non-scaling-stroke; fill: none; stroke: rgb(231, 107, 243); stroke-opacity: 1; stroke-width: 2px; opacity: 1;"/></g><g class="points"/><g class="text"/></g><g class="trace scatter trace88d3b4" style="stroke-miterlimit: 2; opacity: 1;"><g class="fills"/><g class="errorbars"/><g class="lines"><path class="js-line" d="M0,56.31L5.45,189.64L10.91,198.55L21.82,204.25L27.27,205.8L38.18,208.39L43.64,210.22L60,218.16L65.45,220.52L70.91,221.84L76.36,225.43L81.82,229.52L87.27,231.89L98.18,234.9L103.64,236.12L125.45,240.24L130.91,240.04L136.36,241.52L141.82,241.63L152.73,243.02L158.18,242.55L169.09,244.76L174.55,243.57L185.45,245.54L190.91,245.19L196.36,245.24L201.82,246.6L207.27,245.72L212.73,247.27L218.18,247.89L223.64,249.83L229.09,250.33L234.55,252.67L240,253.93L245.45,254.12L256.36,258.04L261.82,259.01L267.27,259.81L272.73,262.49L289.09,266.32L294.55,267.29L300,269.24L305.45,268.92L310.91,271.43L316.36,272.23L327.27,274.86L332.73,275.7L338.18,277.68L343.64,278.53L370.91,284.3L376.36,284.8L387.27,287.49L392.73,288.94L403.64,290.71L409.09,291.58L430.91,296.05L436.36,296.67L485.45,299.63L490.91,299.81L523.64,301.35L529.09,301.57L540,302.03" style="vector-effect: non-scaling-stroke; fill: none; stroke: rgb(248, 118, 109); stroke-opacity: 1; stroke-width: 2px; opacity: 1;"/></g><g class="points"/><g class="text"/></g><g class="trace scatter trace7e429f" style="stroke-miterlimit: 2; opacity: 1;"><g class="fills"/><g class="errorbars"/><g class="lines"><path class="js-line" d="M0,86.68L5.45,188.96L10.91,198.67L21.82,211.06L27.27,214.81L32.73,217.38L38.18,219.09L43.64,221.78L49.09,222.47L70.91,226.96L76.36,226.76L81.82,228.45L87.27,229.15L92.73,229.03L98.18,230.89L125.45,234.57L130.91,236.24L147.27,238.76L152.73,239.08L158.18,240.62L163.64,241.14L169.09,242.84L174.55,242.61L190.91,244.45L196.36,244.91L201.82,245.72L207.27,245.67L223.64,249.3L229.09,248.85L234.55,251.75L240,251.72L245.45,252.58L250.91,255.52L256.36,256.02L261.82,257.37L267.27,258.24L272.73,260.67L278.18,260.56L283.64,262.28L305.45,267.15L310.91,267.4L321.82,270.69L327.27,271.45L332.73,272.93L338.18,273.36L349.09,276.39L354.55,276.76L360,278.43L365.45,278.94L398.18,285.35L403.64,286.2L425.45,290.33L430.91,291.24L469.09,293.72L474.55,293.92L507.27,295.47L512.73,295.76L540,296.9" style="vector-effect: non-scaling-stroke; fill: none; stroke: rgb(163, 165, 0); stroke-opacity: 1; stroke-width: 2px; opacity: 1;"/></g><g class="points"/><g class="text"/></g><g class="trace scatter tracec33366" style="stroke-miterlimit: 2; opacity: 1;"><g class="fills"/><g class="errorbars"/><g class="lines"><path class="js-line" d="M0,117.82L5.45,192.9L10.91,199.27L16.36,202.61L21.82,204.54L43.64,209.57L49.09,212.09L54.55,213.26L60,216.81L76.36,223.15L81.82,225.01L87.27,226.46L92.73,226.46L109.09,230.91L114.55,231.8L120,231.56L125.45,232.63L136.36,233.76L141.82,234.96L147.27,234.99L152.73,234.14L163.64,236.4L169.09,236.78L180,238.14L185.45,236.86L190.91,237.76L196.36,237.27L201.82,238.45L207.27,237.87L218.18,239.71L223.64,240.76L229.09,243.25L234.55,244.48L250.91,248.07L256.36,250.54L261.82,251.23L267.27,253.45L272.73,254.21L278.18,255.75L294.55,259.51L300,260.82L305.45,262.96L310.91,263.51L321.82,266.15L327.27,266.99L332.73,267.9L338.18,269.97L354.55,272.91L360,273.38L376.36,277.7L381.82,278.61L392.73,280.89L398.18,281.8L425.45,286.98L430.91,287.85L441.82,288.96L447.27,289.26L540,293.66" style="vector-effect: non-scaling-stroke; fill: none; stroke: rgb(0, 191, 125); stroke-opacity: 1; stroke-width: 2px; opacity: 1;"/></g><g class="points"/><g class="text"/></g><g class="trace scatter trace022a98" style="stroke-miterlimit: 2; opacity: 1;"><g class="fills"/><g class="errorbars"/><g class="lines"><path class="js-line" d="M0,64.37L5.45,190.54L10.91,199.46L16.36,202.97L21.82,204.74L27.27,206.88L32.73,208L38.18,209.58L43.64,210.08L54.55,213.11L60,214.11L76.36,217.99L81.82,221.39L87.27,222.62L92.73,224.79L98.18,226.84L103.64,227.65L109.09,229.49L114.55,228.91L125.45,231.47L130.91,232.36L136.36,232.07L141.82,234.9L147.27,233.9L152.73,235.08L158.18,236.17L163.64,236.32L174.55,237.02L180,237.35L196.36,238.72L201.82,238.15L207.27,239.63L212.73,239.98L218.18,239.55L223.64,241.21L229.09,241.64L234.55,244.44L250.91,248.59L256.36,251.72L261.82,251.14L267.27,253.62L272.73,253.86L278.18,255.06L283.64,257.23L289.09,258.39L294.55,258.86L300,260.77L305.45,261.1L310.91,263.81L343.64,270.04L349.09,271.99L354.55,272.75L360,274.33L436.36,288.84L441.82,289.26L540,293.84" style="vector-effect: non-scaling-stroke; fill: none; stroke: rgb(0, 176, 246); stroke-opacity: 1; stroke-width: 2px; opacity: 1;"/></g><g class="points"/><g class="text"/></g><g class="trace scatter tracea1968f" style="stroke-miterlimit: 2; opacity: 1;"><g class="fills"/><g class="errorbars"/><g class="lines"><path class="js-line" d="M0,92.95L5.45,192.08L10.91,199.06L21.82,204.5L27.27,205.93L32.73,208.55L38.18,210.14L43.64,214.93L49.09,221.86L54.55,226.82L60,229.11L65.45,232.33L70.91,233.26L81.82,236.71L87.27,236.87L92.73,238.52L98.18,239.19L103.64,239.36L109.09,240.84L136.36,242.69L141.82,243.4L147.27,244L152.73,243.32L158.18,244.45L163.64,244.08L174.55,245.67L180,243.81L185.45,245.58L190.91,245.25L201.82,246.45L207.27,245.88L223.64,247.72L229.09,248.95L240,251.39L245.45,252.35L256.36,254.5L261.82,256.69L267.27,257.14L272.73,258.75L278.18,259.23L283.64,260.85L289.09,263.3L294.55,263.58L305.45,266.69L310.91,267.17L327.27,270.07L332.73,270.81L343.64,273.37L349.09,274.41L360,276.57L365.45,277.33L376.36,279.68L381.82,281.03L387.27,281.62L392.73,283.19L409.09,285.81L414.55,287.08L425.45,288.99L430.91,289.94L447.27,291.4L452.73,291.6L469.09,292.57L474.55,292.8L540,296.02" style="vector-effect: non-scaling-stroke; fill: none; stroke: rgb(231, 107, 243); stroke-opacity: 1; stroke-width: 2px; opacity: 1;"/></g><g class="points"/><g class="text"/></g><g class="trace scatter trace6e2429" style="stroke-miterlimit: 2; opacity: 1;"><g class="fills"/><g class="errorbars"/><g class="lines"><path class="js-line" d="M0,110.83L5.45,194.36L10.91,201.47L21.82,206.13L27.27,206.62L49.09,211.21L54.55,214.22L60,218.81L65.45,221.83L70.91,223.92L76.36,227.85L81.82,231.09L87.27,233.04L98.18,236.74L103.64,237.14L109.09,238.46L114.55,238.94L125.45,241L130.91,241.52L147.27,243.22L152.73,242.79L158.18,244.45L163.64,244.23L169.09,243.91L174.55,245.26L180,244.91L185.45,245.41L190.91,246.35L196.36,246.26L207.27,246.73L212.73,245.58L245.45,254.38L250.91,255.79L256.36,257.28L261.82,257.28L278.18,260.84L283.64,262.53L294.55,264.01L300,266.08L321.82,270.28L327.27,272.77L343.64,275.46L349.09,276.64L354.55,278.47L360,278.48L365.45,280.19L370.91,281.08L376.36,282.78L381.82,283.05L398.18,286.58L403.64,287.89L409.09,288.35L414.55,289.74L441.82,293.59L447.27,293.75L529.09,297.73L534.55,297.95L540,298.19" style="vector-effect: non-scaling-stroke; fill: none; stroke: rgb(248, 118, 109); stroke-opacity: 1; stroke-width: 2px; opacity: 1;"/></g><g class="points"/><g class="text"/></g><g class="trace scatter trace3dbb20" style="stroke-miterlimit: 2; opacity: 1;"><g class="fills"/><g class="errorbars"/><g class="lines"><path class="js-line" d="M0,76.45L5.45,190.68L10.91,199.72L16.36,202.86L21.82,204.67L43.64,208.75L49.09,210.65L60,217.98L65.45,220.92L98.18,228.44L103.64,229.02L109.09,230.16L114.55,229.58L120,231.42L125.45,231.82L130.91,231.17L136.36,232.67L152.73,233.41L158.18,234.54L163.64,235.01L169.09,234.62L174.55,235.6L180,235.37L190.91,237.1L196.36,237.03L201.82,236.72L207.27,238.03L218.18,237.89L223.64,239.3L229.09,242.14L234.55,243.12L240,243.44L245.45,246.2L250.91,248.19L256.36,247.74L261.82,251.05L267.27,250.85L283.64,255.26L289.09,256.2L300,258.49L305.45,260.19L310.91,262.23L316.36,263.2L327.27,265.51L332.73,266.37L354.55,271.74L360,272.25L376.36,276.18L381.82,277.22L387.27,277.7L392.73,278.99L409.09,282.68L414.55,283.09L436.36,287.29L441.82,287.84L469.09,289.19L474.55,289.56L540,292.58" style="vector-effect: non-scaling-stroke; fill: none; stroke: rgb(163, 165, 0); stroke-opacity: 1; stroke-width: 2px; opacity: 1;"/></g><g class="points"/><g class="text"/></g><g class="trace scatter traceb6cf86" style="stroke-miterlimit: 2; opacity: 1;"><g class="fills"/><g class="errorbars"/><g class="lines"><path class="js-line" d="M0,79.17L5.45,190.96L10.91,200.37L21.82,204.17L27.27,205.88L38.18,208.56L43.64,212.01L54.55,219.74L60,220.78L65.45,223.04L70.91,223.44L81.82,226.92L87.27,227.36L92.73,230.3L98.18,231.61L109.09,235.32L114.55,235.91L120,235.84L125.45,237.64L141.82,239.48L147.27,239.84L152.73,241.69L158.18,241.24L169.09,243.25L174.55,243.02L180,242.77L185.45,243.56L190.91,242.25L196.36,243.77L212.73,245.35L218.18,246.36L223.64,246.23L229.09,248.86L234.55,249.16L240,251.24L250.91,252.66L256.36,254.38L261.82,256.76L267.27,257.38L278.18,259.9L283.64,260.08L289.09,262.08L294.55,262.16L305.45,265.55L310.91,266.07L338.18,271.37L343.64,273.65L354.55,275.28L360,276.68L365.45,278.16L370.91,278.86L387.27,282.33L392.73,283.42L403.64,286.35L409.09,286.48L414.55,288.39L420,288.78L430.91,290.89L436.36,291.49L452.73,292.77L458.18,292.98L540,296.88" style="vector-effect: non-scaling-stroke; fill: none; stroke: rgb(0, 191, 125); stroke-opacity: 1; stroke-width: 2px; opacity: 1;"/></g><g class="points"/><g class="text"/></g><g class="trace scatter trace4ceed0" style="stroke-miterlimit: 2; opacity: 1;"><g class="fills"/><g class="errorbars"/><g class="lines"><path class="js-line" d="M0,86.67L5.45,187.72L10.91,198.05L16.36,202.4L21.82,204.7L43.64,210.67L49.09,213.19L54.55,216.59L60,221.5L70.91,228.3L76.36,229.95L81.82,231.08L87.27,233.1L92.73,233.96L98.18,236.28L103.64,235.99L109.09,238.15L114.55,238.27L120,240.27L125.45,240.37L130.91,242.01L147.27,243.41L152.73,244.84L158.18,245.22L163.64,244.82L174.55,246.17L180,247.03L196.36,247.98L201.82,247.07L207.27,248.33L212.73,247.88L218.18,247.9L223.64,249.47L234.55,251.62L240,253.71L245.45,254.03L250.91,255.34L256.36,257.72L261.82,257.16L272.73,261.45L278.18,262.24L283.64,263.05L289.09,264.73L294.55,266.24L300,266.87L310.91,269.2L316.36,270.48L332.73,275.36L338.18,276.18L360,279.84L365.45,281.2L387.27,286.15L392.73,286.81L398.18,288.55L403.64,289.22L409.09,289.94L414.55,291.59L436.36,295.07L441.82,295.14L458.18,296.07L463.64,296.44L540,299.84" style="vector-effect: non-scaling-stroke; fill: none; stroke: rgb(0, 176, 246); stroke-opacity: 1; stroke-width: 2px; opacity: 1;"/></g><g class="points"/><g class="text"/></g><g class="trace scatter trace219848" style="stroke-miterlimit: 2; opacity: 1;"><g class="fills"/><g class="errorbars"/><g class="lines"><path class="js-line" d="M0,51.53L5.45,191.38L10.91,200.1L21.82,206.8L27.27,209.82L38.18,216.49L43.64,222.54L49.09,226.22L54.55,228.38L70.91,233.39L76.36,234.83L92.73,236.94L98.18,238.05L103.64,239.42L109.09,239.36L130.91,241.88L136.36,241.98L141.82,243.02L147.27,242.98L158.18,242.87L163.64,243.02L174.55,245.2L180,244.38L185.45,245.14L190.91,244.83L196.36,244.46L201.82,244.96L207.27,244.61L212.73,245.9L218.18,245.24L223.64,246.82L245.45,253.43L250.91,253.47L261.82,256.84L267.27,257.73L283.64,262.12L289.09,262.55L294.55,264.91L300,265.14L360,278.21L365.45,278.48L376.36,281.51L381.82,282.37L403.64,286.66L409.09,287.35L425.45,290.53L430.91,291.42L447.27,292.83L452.73,293.2L490.91,295.04L496.36,295.4L534.55,297.03L540,297.28" style="vector-effect: non-scaling-stroke; fill: none; stroke: rgb(231, 107, 243); stroke-opacity: 1; stroke-width: 2px; opacity: 1;"/></g><g class="points"/><g class="text"/></g><g class="trace scatter trace8a4735" style="stroke-miterlimit: 2; opacity: 1;"><g class="fills"/><g class="errorbars"/><g class="lines"><path class="js-line" d="M0,86.71L5.45,195.78L10.91,201.93L21.82,205.68L27.27,206.97L38.18,209.35L43.64,212.93L49.09,217.05L54.55,219.65L60,221.98L65.45,223.47L87.27,229.03L92.73,229.45L103.64,231.59L109.09,231.45L141.82,234.6L147.27,235.65L158.18,235.88L163.64,236.85L169.09,236.97L174.55,238.1L180,237.56L185.45,238.2L190.91,237.91L196.36,239.3L207.27,240.11L212.73,240.34L218.18,240.44L223.64,242.89L229.09,243L234.55,244.01L261.82,252.54L267.27,253.49L272.73,255.28L278.18,255.67L289.09,258.2L294.55,260.31L300,261.76L305.45,262.4L310.91,264.62L316.36,265.21L327.27,267.23L332.73,269.24L343.64,270.82L349.09,272.87L392.73,282.33L398.18,282.8L409.09,285.44L414.55,286.01L420,287.58L425.45,288.35L436.36,290.11L441.82,290.54L463.64,291.95L469.09,292.33L501.82,294.01L507.27,294.27L540,295.68" style="vector-effect: non-scaling-stroke; fill: none; stroke: rgb(248, 118, 109); stroke-opacity: 1; stroke-width: 2px; opacity: 1;"/></g><g class="points"/><g class="text"/></g><g class="trace scatter trace0c5de2" style="stroke-miterlimit: 2; opacity: 1;"><g class="fills"/><g class="errorbars"/><g class="lines"><path class="js-line" d="M0,85.18L5.45,188.91L10.91,198.84L21.82,205.3L27.27,206.39L43.64,212.41L49.09,215.18L60,219.94L65.45,221.57L76.36,225.18L81.82,228.04L92.73,234.38L98.18,235.74L103.64,237.5L109.09,238.41L130.91,241.29L136.36,241.67L141.82,241.7L147.27,242.98L158.18,243.45L163.64,243.65L169.09,244.83L174.55,243.72L180,244.89L185.45,243.62L190.91,245.3L196.36,245.23L201.82,244.92L207.27,246.05L212.73,244.75L218.18,246.6L234.55,249.36L240,251.99L245.45,252.37L250.91,254.36L267.27,256.11L272.73,259.08L278.18,260.8L283.64,260.88L294.55,262.96L300,264.08L310.91,267.63L316.36,268.15L327.27,270.1L332.73,271.4L338.18,272.9L343.64,273.4L360,277.22L365.45,278.8L370.91,279.09L376.36,280.28L392.73,284.05L398.18,284.85L430.91,291.24L436.36,292.12L540,297.19" style="vector-effect: non-scaling-stroke; fill: none; stroke: rgb(163, 165, 0); stroke-opacity: 1; stroke-width: 2px; opacity: 1;"/></g><g class="points"/><g class="text"/></g><g class="trace scatter trace898880" style="stroke-miterlimit: 2; opacity: 1;"><g class="fills"/><g class="errorbars"/><g class="lines"><path class="js-line" d="M0,92.69L5.45,192.51L10.91,200.59L21.82,209.9L27.27,213.08L38.18,219.02L43.64,221.03L49.09,223.44L54.55,227.27L60,230.68L65.45,231.16L70.91,233.59L76.36,234.94L81.82,236.41L87.27,236.96L92.73,238.48L98.18,239.06L136.36,243.32L141.82,243.02L152.73,245.01L158.18,244.5L163.64,244.83L169.09,246.12L180,244.96L185.45,246.55L190.91,245.56L196.36,245.87L212.73,246.72L218.18,246.3L223.64,248.97L229.09,250.35L234.55,250.26L240,251.92L256.36,255.92L261.82,256.42L289.09,262.75L294.55,264.63L305.45,266.82L310.91,268.1L316.36,268.61L321.82,270.29L338.18,273.43L343.64,274.67L360,277.72L365.45,279.35L376.36,280.75L381.82,282.24L409.09,287.61L414.55,288.72L436.36,292.78L441.82,292.75L463.64,294.33L469.09,294.68L540,297.96" style="vector-effect: non-scaling-stroke; fill: none; stroke: rgb(0, 191, 125); stroke-opacity: 1; stroke-width: 2px; opacity: 1;"/></g><g class="points"/><g class="text"/></g><g class="trace scatter trace5bfbed" style="stroke-miterlimit: 2; opacity: 1;"><g class="fills"/><g class="errorbars"/><g class="lines"><path class="js-line" d="M0,50.67L5.45,185.09L10.91,197.19L16.36,201.23L21.82,202.99L27.27,205.59L32.73,206.24L38.18,207.81L43.64,208.28L49.09,210.36L54.55,213.98L65.45,225.14L70.91,228.7L76.36,230.2L81.82,232.78L87.27,234.64L92.73,235.12L98.18,236.48L103.64,236.54L109.09,237.31L114.55,239.15L125.45,240.1L130.91,239.13L158.18,241.25L163.64,242.61L169.09,241.93L174.55,242.07L180,243.3L185.45,242.94L196.36,243.01L201.82,243.37L212.73,244.85L218.18,244.69L223.64,245.08L229.09,248.15L234.55,247.56L240,249.88L250.91,251.78L256.36,254.31L261.82,254.04L267.27,255.8L283.64,258.81L289.09,260.7L294.55,260.77L300,262.51L343.64,271.07L349.09,271.95L370.91,275.81L376.36,276.82L387.27,279.12L392.73,279.84L409.09,283.05L414.55,283.76L430.91,286.57L436.36,287.47L480,289.54L485.45,290L540,292.27" style="vector-effect: non-scaling-stroke; fill: none; stroke: rgb(0, 176, 246); stroke-opacity: 1; stroke-width: 2px; opacity: 1;"/></g><g class="points"/><g class="text"/></g><g class="trace scatter trace993de3" style="stroke-miterlimit: 2; opacity: 1;"><g class="fills"/><g class="errorbars"/><g class="lines"><path class="js-line" d="M0,86.35L5.45,187.07L10.91,197.29L16.36,201.35L21.82,203.48L43.64,209.7L49.09,211.72L65.45,217.67L70.91,219.34L81.82,222.95L87.27,225.43L109.09,233.39L114.55,234.33L120,234.57L125.45,236.46L130.91,236.45L136.36,237.38L152.73,240.5L158.18,239.8L169.09,241.84L174.55,242.72L185.45,241.9L190.91,243.06L196.36,243.98L201.82,243.88L212.73,245.12L218.18,245.62L223.64,245.82L229.09,248.06L234.55,248.79L240,250.9L261.82,255.67L267.27,258.03L310.91,268.45L316.36,269.44L321.82,270.53L327.27,272.54L332.73,273.12L338.18,274.79L360,279.25L365.45,280.9L370.91,281.65L376.36,283.28L430.91,293.9L436.36,294.56L474.55,296.92L480,297.09L523.64,299.08L529.09,299.29L540,299.76" style="vector-effect: non-scaling-stroke; fill: none; stroke: rgb(231, 107, 243); stroke-opacity: 1; stroke-width: 2px; opacity: 1;"/></g><g class="points"/><g class="text"/></g><g class="trace scatter trace25e8db" style="stroke-miterlimit: 2; opacity: 1;"><g class="fills"/><g class="errorbars"/><g class="lines"><path class="js-line" d="M0,77.11L5.45,190.14L10.91,200.15L16.36,204.1L21.82,209.35L32.73,215.88L38.18,218.58L43.64,220.66L49.09,221.44L60,228.22L65.45,231.2L70.91,234.15L76.36,234.97L81.82,236.63L87.27,237.14L98.18,238.68L103.64,239.05L109.09,240.55L114.55,240.41L120,241.94L125.45,242.21L141.82,242.55L147.27,242.92L152.73,243.58L158.18,242.87L169.09,244.08L174.55,243.82L180,245.33L185.45,243.87L190.91,243.83L196.36,245.89L201.82,246.28L207.27,245.02L212.73,247.26L218.18,247.21L223.64,248.75L229.09,251.12L234.55,251.36L240,252.79L245.45,254.62L250.91,255.52L256.36,257.58L261.82,258.15L267.27,260.02L272.73,260.51L283.64,262.84L289.09,264.54L300,265.99L305.45,268.28L310.91,270.08L316.36,270.39L327.27,273.06L332.73,273.77L354.55,278.85L360,279.22L370.91,281.64L376.36,282.52L409.09,289.34L414.55,290.05L420,290.83L425.45,292.47L441.82,294.2L447.27,294.45L529.09,298.63L534.55,298.84L540,299.1" style="vector-effect: non-scaling-stroke; fill: none; stroke: rgb(248, 118, 109); stroke-opacity: 1; stroke-width: 2px; opacity: 1;"/></g><g class="points"/><g class="text"/></g><g class="trace scatter trace344058" style="stroke-miterlimit: 2; opacity: 1;"><g class="fills"/><g class="errorbars"/><g class="lines"><path class="js-line" d="M0,19.64L5.45,188.12L10.91,200.51L16.36,203.82L21.82,205.3L27.27,207.32L32.73,210.39L38.18,213.97L43.64,216.53L54.55,221.7L60,222.8L70.91,226.15L76.36,226.67L81.82,228.13L87.27,228.42L103.64,231.08L109.09,230.89L114.55,232.34L120,232.38L130.91,234.14L136.36,233.56L141.82,235.46L147.27,235.11L152.73,235.95L158.18,235.01L169.09,236.24L174.55,237.53L185.45,236.55L190.91,237.88L196.36,237.41L201.82,237.75L223.64,239.05L229.09,241.86L245.45,244.36L250.91,246.48L267.27,249.33L272.73,251.95L294.55,256.35L300,257.83L310.91,259.51L316.36,260.71L327.27,263.08L332.73,263.1L338.18,266.01L343.64,265.84L354.55,268.73L360,268.7L370.91,271.4L376.36,272.57L436.36,283.1L441.82,283.66L496.36,286.27L501.82,286.54L540,288.27" style="vector-effect: non-scaling-stroke; fill: none; stroke: rgb(163, 165, 0); stroke-opacity: 1; stroke-width: 2px; opacity: 1;"/></g><g class="points"/><g class="text"/></g><g class="trace scatter traced38b1c" style="stroke-miterlimit: 2; opacity: 1;"><g class="fills"/><g class="errorbars"/><g class="lines"><path class="js-line" d="M0,61.29L5.45,187.32L10.91,198.21L27.27,210.45L32.73,213.67L38.18,216.52L43.64,217.64L65.45,228.6L70.91,230.64L76.36,232.8L81.82,233.92L87.27,234.08L92.73,236.45L98.18,237.56L103.64,237.71L109.09,239.22L114.55,239.4L130.91,240.95L136.36,242.29L141.82,241.59L147.27,242.46L158.18,242.32L163.64,243.07L174.55,245.02L180,244.18L185.45,245.85L190.91,245.6L201.82,245.44L207.27,246.85L212.73,245.57L218.18,247.19L229.09,249.23L234.55,251.12L240,253.69L245.45,254.44L261.82,258.01L267.27,260.54L278.18,262.63L283.64,263.07L294.55,266.9L300,267.4L310.91,270.48L316.36,270.59L321.82,273.31L327.27,272.97L343.64,277.21L349.09,277.82L370.91,283.23L376.36,284.28L387.27,286.3L392.73,286.77L403.64,289.31L409.09,290.13L436.36,294.79L441.82,295.32L474.55,296.84L480,297.06L501.82,298.2L507.27,298.37L540,299.79" style="vector-effect: non-scaling-stroke; fill: none; stroke: rgb(0, 191, 125); stroke-opacity: 1; stroke-width: 2px; opacity: 1;"/></g><g class="points"/><g class="text"/></g><g class="trace scatter trace126234" style="stroke-miterlimit: 2; opacity: 1;"><g class="fills"/><g class="errorbars"/><g class="lines"><path class="js-line" d="M0,38.9L5.45,186.15L10.91,198.43L16.36,202.78L21.82,205.43L27.27,207.01L32.73,207.81L49.09,211.67L54.55,211.83L60,213.72L65.45,217.24L76.36,227.87L81.82,231.08L98.18,236.52L103.64,237.2L114.55,239.1L120,240.78L136.36,241.51L141.82,242.78L147.27,242.46L152.73,243.4L169.09,244.61L174.55,243.6L180,245.25L185.45,245.24L207.27,245.69L212.73,246.27L218.18,246.63L223.64,248.67L229.09,248.91L234.55,250.46L240,252.15L245.45,252.96L261.82,257.09L267.27,258.23L278.18,260.95L283.64,261.31L289.09,263.46L294.55,263.8L310.91,267.92L316.36,268.71L321.82,269.39L327.27,271.04L338.18,272.74L343.64,274.32L354.55,275.5L360,277.49L370.91,278.27L376.36,280.09L392.73,282.55L398.18,283.81L414.55,286.62L420,287.89L436.36,290.23L441.82,290.7L496.36,293.41L501.82,293.71L540,295.33" style="vector-effect: non-scaling-stroke; fill: none; stroke: rgb(0, 176, 246); stroke-opacity: 1; stroke-width: 2px; opacity: 1;"/></g><g class="points"/><g class="text"/></g><g class="trace scatter tracec6b906" style="stroke-miterlimit: 2; opacity: 1;"><g class="fills"/><g class="errorbars"/><g class="lines"><path class="js-line" d="M0,76.82L5.45,184.53L10.91,195.76L16.36,200.46L21.82,203.33L27.27,205.38L32.73,210.37L38.18,218.17L43.64,223.14L49.09,227.21L54.55,228.11L60,230.18L65.45,230.72L70.91,233.53L76.36,232.73L81.82,234.39L87.27,235L114.55,238.58L120,239.55L130.91,239.81L136.36,240.09L141.82,241.46L147.27,242.03L163.64,241.63L169.09,241.91L174.55,242.7L180,242.68L190.91,242.66L196.36,244.57L207.27,243.73L212.73,244.47L218.18,243.77L223.64,246.57L234.55,248.9L240,248.51L245.45,250.79L250.91,251.09L261.82,255.79L267.27,256.48L272.73,257L278.18,258.42L283.64,260.28L289.09,260.83L300,264.67L305.45,265.52L310.91,267.31L316.36,267.51L321.82,269.69L327.27,270.34L343.64,273.3L349.09,275.14L365.45,278.73L370.91,279.42L392.73,284.19L398.18,285.04L403.64,286.66L409.09,287.29L420,289.5L425.45,290.46L436.36,292.52L441.82,292.99L518.18,297.3L523.64,297.55L540,298.3" style="vector-effect: non-scaling-stroke; fill: none; stroke: rgb(231, 107, 243); stroke-opacity: 1; stroke-width: 2px; opacity: 1;"/></g><g class="points"/><g class="text"/></g><g class="trace scatter tracecd85ba" style="stroke-miterlimit: 2; opacity: 1;"><g class="fills"/><g class="errorbars"/><g class="lines"><path class="js-line" d="M0,97.6L5.45,191.78L10.91,200.26L16.36,203.41L21.82,205.61L27.27,206.78L32.73,208.72L43.64,212.66L49.09,216.82L65.45,229.33L70.91,231.71L87.27,236.31L92.73,236.48L98.18,237.96L103.64,238.04L120,241.19L125.45,240.28L130.91,241.69L136.36,241.21L141.82,242.67L147.27,241.31L152.73,242.87L158.18,242.91L163.64,244.39L169.09,244.53L174.55,244.86L180,244.23L201.82,245.55L207.27,245.42L218.18,246.05L223.64,248.03L229.09,249.71L234.55,250.44L256.36,255.92L261.82,256.56L272.73,259.16L278.18,260.48L283.64,262.28L289.09,262.74L294.55,264.55L300,265.16L305.45,265.98L310.91,268L332.73,272.84L338.18,273.76L343.64,274.56L349.09,276.13L354.55,276.72L360,278.67L387.27,283.86L392.73,284.78L403.64,287.18L409.09,288.31L436.36,292.86L441.82,293.03L463.64,294.45L469.09,294.67L512.73,296.79L518.18,297L540,297.96" style="vector-effect: non-scaling-stroke; fill: none; stroke: rgb(248, 118, 109); stroke-opacity: 1; stroke-width: 2px; opacity: 1;"/></g><g class="points"/><g class="text"/></g><g class="trace scatter traced6bad9" style="stroke-miterlimit: 2; opacity: 1;"><g class="fills"/><g class="errorbars"/><g class="lines"><path class="js-line" d="M0,59.22L5.45,189.57L10.91,198.86L16.36,202.62L21.82,205.18L32.73,208.18L38.18,208.74L43.64,210.63L49.09,211L54.55,212.7L60,212.38L81.82,218.77L87.27,221.4L98.18,228.09L103.64,230.62L114.55,233.47L120,234.83L125.45,235.88L130.91,238.11L147.27,239.84L152.73,241.3L163.64,243.19L169.09,244.02L180,243.74L185.45,245.7L196.36,245.33L201.82,245.75L207.27,246.44L212.73,246.36L218.18,248.39L223.64,248.41L234.55,251.87L240,254.14L245.45,253.47L250.91,256.87L256.36,257.06L261.82,259.02L267.27,259.57L272.73,261.48L278.18,262.68L283.64,264.78L289.09,266.37L294.55,266.61L300,268.95L305.45,269.77L310.91,270.3L316.36,272.22L321.82,272.98L327.27,275.43L332.73,275.61L338.18,277.02L349.09,279.86L354.55,280.78L376.36,285.3L381.82,286.64L409.09,292.33L414.55,292.97L430.91,296.02L436.36,296.54L447.27,297.56L452.73,297.54L474.55,298.9L480,299.1L540,301.75" style="vector-effect: non-scaling-stroke; fill: none; stroke: rgb(163, 165, 0); stroke-opacity: 1; stroke-width: 2px; opacity: 1;"/></g><g class="points"/><g class="text"/></g><g class="trace scatter trace7ee091" style="stroke-miterlimit: 2; opacity: 1;"><g class="fills"/><g class="errorbars"/><g class="lines"><path class="js-line" d="M0,68.93L5.45,174.73L10.91,191.21L16.36,198.75L21.82,202.3L32.73,208.49L38.18,212.72L43.64,215.93L49.09,218.17L60,221.16L65.45,222.63L76.36,224.6L81.82,225.43L87.27,226.76L92.73,226.57L103.64,228.79L109.09,229.4L114.55,230.23L120,232.52L125.45,232.75L130.91,234.12L136.36,234.66L141.82,237.07L163.64,238.67L169.09,239.91L174.55,240.76L180,240.75L196.36,241.51L201.82,241.42L212.73,241.47L218.18,242.81L223.64,244.94L229.09,244.69L234.55,247.49L240,247.83L245.45,249.08L250.91,251.72L256.36,252.1L261.82,254.03L278.18,256.03L283.64,257.83L305.45,262.04L310.91,263.27L321.82,266.56L327.27,267.47L332.73,267.86L338.18,269.14L354.55,272.55L360,272.78L376.36,276.73L381.82,277.35L436.36,287.28L441.82,287.4L474.55,289.25L480,289.65L518.18,291.39L523.64,291.65L540,292.35" style="vector-effect: non-scaling-stroke; fill: none; stroke: rgb(0, 191, 125); stroke-opacity: 1; stroke-width: 2px; opacity: 1;"/></g><g class="points"/><g class="text"/></g><g class="trace scatter trace125b88" style="stroke-miterlimit: 2; opacity: 1;"><g class="fills"/><g class="errorbars"/><g class="lines"><path class="js-line" d="M0,98.51L5.45,191.56L10.91,199.28L21.82,204.84L27.27,206.39L32.73,208.45L38.18,211.83L49.09,221.86L54.55,225.73L65.45,230.41L70.91,231.99L87.27,236.53L92.73,236.77L109.09,239.51L114.55,240.09L120,240.92L125.45,240.56L130.91,242.28L136.36,242.48L141.82,242.27L147.27,243.3L174.55,244.71L180,243.6L196.36,246.41L201.82,246.7L207.27,245.91L212.73,246.51L218.18,245.93L223.64,248.83L229.09,249.81L234.55,251.95L240,251.99L245.45,253.04L256.36,256.27L261.82,256.26L267.27,258.89L272.73,260.49L278.18,260.82L283.64,263.34L289.09,263.66L294.55,264.88L300,266.72L305.45,267.56L316.36,269.03L321.82,270.73L332.73,273.65L338.18,273.9L349.09,276.09L354.55,277.23L360,279.25L365.45,279.41L387.27,283.9L392.73,284.84L409.09,287.73L414.55,288.54L430.91,291.47L436.36,292.25L540,296.99" style="vector-effect: non-scaling-stroke; fill: none; stroke: rgb(0, 176, 246); stroke-opacity: 1; stroke-width: 2px; opacity: 1;"/></g><g class="points"/><g class="text"/></g><g class="trace scatter tracec8a6d4" style="stroke-miterlimit: 2; opacity: 1;"><g class="fills"/><g class="errorbars"/><g class="lines"><path class="js-line" d="M0,75.45L5.45,189.47L10.91,198.61L16.36,202.59L21.82,204.07L27.27,206.07L32.73,206.81L49.09,210.21L54.55,211.1L70.91,217.85L76.36,220.95L98.18,229.27L103.64,232.62L114.55,235.83L120,238.59L136.36,242.18L141.82,242.6L163.64,245.72L169.09,245.22L185.45,247.92L190.91,247.76L201.82,248.41L207.27,247.26L212.73,249.54L218.18,248.76L223.64,250.87L229.09,251.98L234.55,252.66L240,254.33L250.91,258.42L256.36,259.24L261.82,260.21L267.27,262.2L272.73,263.2L278.18,265.83L294.55,268.54L300,270.3L305.45,271.91L310.91,271.7L321.82,275.21L327.27,275.7L343.64,280.03L349.09,281.32L360,284.04L365.45,285.13L414.55,295.1L420,295.8L436.36,298.77L441.82,298.93L540,304" style="vector-effect: non-scaling-stroke; fill: none; stroke: rgb(231, 107, 243); stroke-opacity: 1; stroke-width: 2px; opacity: 1;"/></g><g class="points"/><g class="text"/></g><g class="trace scatter trace9bb0ba" style="stroke-miterlimit: 2; opacity: 1;"><g class="fills"/><g class="errorbars"/><g class="lines"><path class="js-line" d="M0,47.36L5.45,188.79L10.91,198.39L16.36,202.19L21.82,204.92L32.73,211.3L38.18,215.24L49.09,221.59L54.55,223.48L60,227.01L65.45,229.41L76.36,232.62L81.82,233.91L87.27,235.4L92.73,235.95L103.64,238.32L109.09,237.93L114.55,238.58L120,240.29L141.82,242.81L147.27,242.26L152.73,243.66L158.18,243.37L169.09,245.39L174.55,245.13L185.45,245.06L190.91,245.91L196.36,247.55L201.82,246.67L207.27,246.53L212.73,247.81L218.18,247.71L223.64,249.6L261.82,257.69L267.27,258.7L272.73,260.88L278.18,261.02L294.55,265.62L300,267.06L316.36,270.21L321.82,271.04L332.73,273.29L338.18,274.23L349.09,277.16L354.55,277.19L360,278.67L365.45,278.67L370.91,280.47L376.36,281.07L392.73,284.31L398.18,285.05L425.45,289.96L430.91,290.63L441.82,291.89L447.27,291.99L490.91,294.28L496.36,294.46L540,296.31" style="vector-effect: non-scaling-stroke; fill: none; stroke: rgb(248, 118, 109); stroke-opacity: 1; stroke-width: 2px; opacity: 1;"/></g><g class="points"/><g class="text"/></g><g class="trace scatter trace568ce7" style="stroke-miterlimit: 2; opacity: 1;"><g class="fills"/><g class="errorbars"/><g class="lines"><path class="js-line" d="M0,102.34L5.45,188.11L10.91,197.69L16.36,201.74L21.82,204.43L27.27,206.5L32.73,207.59L38.18,208.69L43.64,210.62L49.09,212.61L54.55,215.77L60,217.89L65.45,220.82L76.36,224.34L81.82,225.2L92.73,227.45L98.18,227.84L109.09,229.55L114.55,231.2L120,230.82L125.45,231.75L136.36,233.44L141.82,233.1L147.27,232.59L152.73,233.58L158.18,233.49L163.64,234.74L169.09,234.43L174.55,235.14L190.91,235.66L196.36,234.87L207.27,235.25L212.73,235.58L218.18,235.75L223.64,237.44L229.09,238.13L234.55,239.79L240,241.08L245.45,243.15L261.82,246.73L267.27,248.81L272.73,249.4L278.18,251.09L289.09,253.96L294.55,253.94L305.45,257.6L310.91,258.86L321.82,260.39L327.27,262.47L354.55,267.69L360,269.16L365.45,269.64L370.91,271.13L376.36,272.54L381.82,273.09L392.73,275.82L398.18,276.49L403.64,277.25L409.09,278.92L414.55,279.3L420,280.52L436.36,283.02L441.82,283.38L490.91,285.98L496.36,286.13L540,288.01" style="vector-effect: non-scaling-stroke; fill: none; stroke: rgb(163, 165, 0); stroke-opacity: 1; stroke-width: 2px; opacity: 1;"/></g><g class="points"/><g class="text"/></g><g class="trace scatter traced64f05" style="stroke-miterlimit: 2; opacity: 1;"><g class="fills"/><g class="errorbars"/><g class="lines"><path class="js-line" d="M0,87.11L5.45,191.95L10.91,200.03L21.82,205.42L27.27,206.73L43.64,210.45L49.09,211.95L60,217.7L65.45,221.57L70.91,225.62L76.36,227.9L81.82,230.42L87.27,231.72L125.45,238.57L130.91,238.89L147.27,239.94L152.73,241.12L169.09,241.74L174.55,242.91L180,242.02L185.45,242.15L201.82,243.94L207.27,243.13L212.73,244.85L218.18,245.54L229.09,247.06L234.55,249.62L240,249.31L245.45,250.46L256.36,254.51L261.82,254.66L267.27,255.8L272.73,258.2L278.18,259.17L283.64,260.96L300,263.44L305.45,265.07L310.91,266.73L316.36,267.2L327.27,270.18L332.73,271.45L343.64,273.4L349.09,275.05L360,277.51L365.45,277.88L376.36,281.06L381.82,281.67L436.36,291.57L441.82,292.09L458.18,292.89L463.64,293.28L485.45,294.29L490.91,294.68L540,296.82" style="vector-effect: non-scaling-stroke; fill: none; stroke: rgb(0, 191, 125); stroke-opacity: 1; stroke-width: 2px; opacity: 1;"/></g><g class="points"/><g class="text"/></g><g class="trace scatter trace3a6f20" style="stroke-miterlimit: 2; opacity: 1;"><g class="fills"/><g class="errorbars"/><g class="lines"><path class="js-line" d="M0,76.96L5.45,190.78L10.91,199.13L21.82,205.12L27.27,206.53L60,219.68L65.45,222.57L76.36,225.02L81.82,227.22L87.27,227.84L92.73,230.17L114.55,236.33L120,237.35L125.45,239.52L130.91,239.94L136.36,240.67L141.82,242.33L147.27,242.52L152.73,243.6L158.18,242.97L163.64,243.52L174.55,245.9L180,245.87L190.91,245.56L196.36,246.09L207.27,246.81L212.73,246.34L218.18,248.11L223.64,248.61L240,253.02L245.45,253.51L250.91,255.3L256.36,255.93L261.82,258.39L267.27,259.05L278.18,260.9L283.64,262.97L289.09,263.25L294.55,265.78L305.45,268.09L310.91,268.25L321.82,270.52L327.27,271.65L332.73,272.1L338.18,273.92L354.55,276.47L360,278.15L436.36,291.71L441.82,292.17L480,293.86L485.45,294.14L518.18,295.7L523.64,295.92L540,296.67" style="vector-effect: non-scaling-stroke; fill: none; stroke: rgb(0, 176, 246); stroke-opacity: 1; stroke-width: 2px; opacity: 1;"/></g><g class="points"/><g class="text"/></g><g class="trace scatter trace4b132b" style="stroke-miterlimit: 2; opacity: 1;"><g class="fills"/><g class="errorbars"/><g class="lines"><path class="js-line" d="M0,87.02L5.45,192.52L10.91,200.33L16.36,203.46L21.82,205.11L32.73,207.78L38.18,210.34L43.64,213.58L49.09,218.01L60,222.64L65.45,224.32L70.91,225.89L76.36,226.47L81.82,227.49L87.27,229.53L92.73,229.35L98.18,230.78L114.55,232.66L120,233.16L136.36,236.07L141.82,235.47L158.18,237.3L163.64,238.89L169.09,238.22L174.55,239.31L180,238.31L185.45,240.74L190.91,238.67L196.36,240.65L201.82,240.61L207.27,241.58L218.18,241.81L223.64,243.6L234.55,245.59L240,247.3L245.45,248.57L250.91,250.66L272.73,256.05L278.18,257.76L283.64,257.28L289.09,259.37L294.55,260.35L300,262.15L321.82,267.51L327.27,268.36L376.36,280.04L381.82,280.71L387.27,282.44L392.73,283.25L425.45,290.28L430.91,291.29L441.82,292.49L447.27,292.87L469.09,294.18L474.55,294.48L490.91,295.58L496.36,295.74L540,297.81" style="vector-effect: non-scaling-stroke; fill: none; stroke: rgb(231, 107, 243); stroke-opacity: 1; stroke-width: 2px; opacity: 1;"/></g><g class="points"/><g class="text"/></g><g class="trace scatter trace1c5a36" style="stroke-miterlimit: 2; opacity: 1;"><g class="fills"/><g class="errorbars"/><g class="lines"><path class="js-line" d="M0,63.13L5.45,193.05L10.91,200.52L21.82,205.07L27.27,205.83L38.18,209.12L43.64,210.24L49.09,210.94L54.55,214.3L65.45,221.22L70.91,223.35L81.82,226.71L87.27,226.85L98.18,229.71L103.64,229.64L109.09,231.16L114.55,231.15L136.36,233.97L141.82,233.95L147.27,234.46L152.73,235.74L169.09,236.21L174.55,236.13L190.91,236.38L196.36,237.7L201.82,238.54L207.27,238.29L212.73,240.05L218.18,238.67L223.64,239.77L229.09,241.92L234.55,242.76L240,244.9L245.45,246.81L250.91,247.44L256.36,247.45L261.82,250.44L267.27,251.79L272.73,252.29L278.18,254.07L283.64,254.52L289.09,255.55L294.55,257.49L305.45,259.86L310.91,260.27L316.36,261.31L321.82,263.12L327.27,265.08L332.73,265.04L338.18,266.88L343.64,267.58L360,271.72L365.45,272.07L370.91,273.69L376.36,274.25L387.27,276.87L392.73,277.36L425.45,284.15L430.91,284.83L447.27,286.43L452.73,286.69L485.45,288.29L490.91,288.61L540,290.78" style="vector-effect: non-scaling-stroke; fill: none; stroke: rgb(248, 118, 109); stroke-opacity: 1; stroke-width: 2px; opacity: 1;"/></g><g class="points"/><g class="text"/></g><g class="trace scatter traceb7cacd" style="stroke-miterlimit: 2; opacity: 1;"><g class="fills"/><g class="errorbars"/><g class="lines"><path class="js-line" d="M0,41.59L5.45,185.09L10.91,197.16L16.36,201.19L21.82,204.2L60,212.52L65.45,214.43L70.91,215.69L76.36,218.04L81.82,220.44L87.27,221.96L92.73,224.74L98.18,226.44L109.09,231.78L114.55,233.13L120,236.23L125.45,236.68L136.36,238.81L141.82,239.19L147.27,241.32L152.73,240.88L158.18,240.71L163.64,243.53L180,244.3L185.45,245.23L196.36,245.47L201.82,244.79L218.18,247.74L223.64,247.36L229.09,250.33L234.55,250.3L240,253.05L245.45,253.66L256.36,257.66L261.82,257.61L267.27,259.01L272.73,261.34L278.18,262.95L283.64,263.15L300,267.63L305.45,269.18L316.36,271.47L321.82,272.35L338.18,276.51L343.64,277.23L360,280.85L365.45,282.13L398.18,289.18L403.64,289.72L425.45,294.25L430.91,295.28L441.82,296.19L447.27,296.64L523.64,300.45L529.09,300.7L540,301.2" style="vector-effect: non-scaling-stroke; fill: none; stroke: rgb(163, 165, 0); stroke-opacity: 1; stroke-width: 2px; opacity: 1;"/></g><g class="points"/><g class="text"/></g><g class="trace scatter trace0d1895" style="stroke-miterlimit: 2; opacity: 1;"><g class="fills"/><g class="errorbars"/><g class="lines"><path class="js-line" d="M0,48.7L5.45,189.16L10.91,196.96L16.36,201.66L21.82,204.67L43.64,210.64L49.09,213.31L60,218.72L65.45,220.61L87.27,226.59L92.73,228.86L98.18,231.86L103.64,233.13L109.09,235.4L114.55,236.19L120,237.9L125.45,238.44L141.82,240.92L147.27,240.82L163.64,243.35L169.09,243.9L185.45,246.11L190.91,245.48L207.27,246.46L212.73,246.65L223.64,247.87L229.09,250.35L240,251.82L245.45,253.67L267.27,258.9L272.73,260.35L278.18,261.7L283.64,262.2L289.09,264.01L294.55,264.6L310.91,268.4L316.36,268.97L338.18,273.37L343.64,274.3L354.55,276.43L360,278.42L370.91,279.69L376.36,281.4L392.73,283.75L398.18,285.3L409.09,286.88L414.55,288.05L441.82,291.79L447.27,292.26L474.55,293.62L480,293.94L501.82,294.79L507.27,295.07L540,296.4" style="vector-effect: non-scaling-stroke; fill: none; stroke: rgb(0, 191, 125); stroke-opacity: 1; stroke-width: 2px; opacity: 1;"/></g><g class="points"/><g class="text"/></g><g class="trace scatter trace03db2f" style="stroke-miterlimit: 2; opacity: 1;"><g class="fills"/><g class="errorbars"/><g class="lines"><path class="js-line" d="M0,85.54L5.45,189.23L10.91,198.88L16.36,202.29L21.82,204.18L38.18,207.16L43.64,210.63L49.09,215.61L54.55,218.33L60,221.11L65.45,221.83L87.27,227.72L92.73,229.76L103.64,234.7L109.09,235.65L130.91,239.87L136.36,240.01L141.82,241.73L147.27,241.81L152.73,243.68L158.18,243.75L163.64,243.84L169.09,245.12L174.55,244.1L180,244.91L196.36,246.58L201.82,246.29L207.27,247.75L212.73,247.03L218.18,246.53L223.64,249.23L229.09,250.65L234.55,251.05L245.45,254.7L250.91,254.81L256.36,257.44L261.82,259.05L310.91,270.83L316.36,272.38L321.82,273.25L327.27,274.99L338.18,276.48L343.64,278.32L349.09,279.34L354.55,281.36L365.45,282.93L370.91,284.16L403.64,291.05L409.09,292.02L436.36,297.11L441.82,297.51L458.18,298.43L463.64,298.82L540,302.5" style="vector-effect: non-scaling-stroke; fill: none; stroke: rgb(0, 176, 246); stroke-opacity: 1; stroke-width: 2px; opacity: 1;"/></g><g class="points"/><g class="text"/></g><g class="trace scatter trace26c36f" style="stroke-miterlimit: 2; opacity: 1;"><g class="fills"/><g class="errorbars"/><g class="lines"><path class="js-line" d="M0,73.16L5.45,182.86L10.91,195.67L16.36,201.59L21.82,205.86L27.27,209.89L32.73,212.24L38.18,215.84L43.64,218.53L54.55,222.06L60,223.37L65.45,224.15L70.91,226.21L87.27,228.36L92.73,228.41L98.18,230.23L103.64,230.64L120,232.47L125.45,231.83L130.91,233.15L136.36,233.08L152.73,237.11L158.18,237.83L169.09,239.26L174.55,239.45L180,239.95L185.45,241.67L190.91,240.74L196.36,242.19L207.27,241.9L212.73,242.93L218.18,244.33L223.64,244.7L229.09,245.15L234.55,247.34L250.91,251.2L256.36,251.27L261.82,253.43L267.27,254.29L278.18,256.95L283.64,257.7L310.91,264.19L316.36,265.31L332.73,269.6L338.18,269.79L343.64,270.47L349.09,272.36L360,274.36L365.45,275.79L398.18,281.64L403.64,282.84L436.36,288.3L441.82,288.65L540,293.3" style="vector-effect: non-scaling-stroke; fill: none; stroke: rgb(231, 107, 243); stroke-opacity: 1; stroke-width: 2px; opacity: 1;"/></g><g class="points"/><g class="text"/></g></g></g><g class="overplot"/><path class="xlines-above crisp" d="" style="fill: none; stroke-width: 1px; stroke: rgb(0, 0, 0); stroke-opacity: 0;"/><path class="ylines-above crisp" d="" style="fill: none; stroke-width: 1px; stroke: rgb(0, 0, 0); stroke-opacity: 0;"/><g class="overlines-above"/><g class="xaxislayer-above"><path class="xtick ticks crisp" d="M0,421v5" transform="translate(80,0)" style="stroke: rgb(51, 51, 51); stroke-opacity: 1; stroke-width: 1px;"/><path class="xtick ticks crisp" d="M0,421v5" transform="translate(189.09,0)" style="stroke: rgb(51, 51, 51); stroke-opacity: 1; stroke-width: 1px;"/><path class="xtick ticks crisp" d="M0,421v5" transform="translate(298.18,0)" style="stroke: rgb(51, 51, 51); stroke-opacity: 1; stroke-width: 1px;"/><path class="xtick ticks crisp" d="M0,421v5" transform="translate(407.27,0)" style="stroke: rgb(51, 51, 51); stroke-opacity: 1; stroke-width: 1px;"/><path class="xtick ticks crisp" d="M0,421v5" transform="translate(516.36,0)" style="stroke: rgb(51, 51, 51); stroke-opacity: 1; stroke-width: 1px;"/><g class="xtick"><text text-anchor="middle" x="0" y="440.4" transform="translate(80,0)" style="font-family: 'Open Sans', verdana, arial, sans-serif; font-size: 12px; fill: rgb(51, 51, 51); fill-opacity: 1; white-space: pre; opacity: 1;">0</text></g><g class="xtick"><text text-anchor="middle" x="0" y="440.4" style="font-family: 'Open Sans', verdana, arial, sans-serif; font-size: 12px; fill: rgb(51, 51, 51); fill-opacity: 1; white-space: pre; opacity: 1;" transform="translate(189.09,0)">20</text></g><g class="xtick"><text text-anchor="middle" x="0" y="440.4" style="font-family: 'Open Sans', verdana, arial, sans-serif; font-size: 12px; fill: rgb(51, 51, 51); fill-opacity: 1; white-space: pre; opacity: 1;" transform="translate(298.18,0)">40</text></g><g class="xtick"><text text-anchor="middle" x="0" y="440.4" style="font-family: 'Open Sans', verdana, arial, sans-serif; font-size: 12px; fill: rgb(51, 51, 51); fill-opacity: 1; white-space: pre; opacity: 1;" transform="translate(407.27,0)">60</text></g><g class="xtick"><text text-anchor="middle" x="0" y="440.4" style="font-family: 'Open Sans', verdana, arial, sans-serif; font-size: 12px; fill: rgb(51, 51, 51); fill-opacity: 1; white-space: pre; opacity: 1;" transform="translate(516.36,0)">80</text></g></g><g class="yaxislayer-above"><path class="ytick ticks crisp" d="M79,0h-5" transform="translate(0,395.82)" style="stroke: rgb(51, 51, 51); stroke-opacity: 1; stroke-width: 1px;"/><path class="ytick ticks crisp" d="M79,0h-5" transform="translate(0,355.36)" style="stroke: rgb(51, 51, 51); stroke-opacity: 1; stroke-width: 1px;"/><path class="ytick ticks crisp" d="M79,0h-5" transform="translate(0,314.90999999999997)" style="stroke: rgb(51, 51, 51); stroke-opacity: 1; stroke-width: 1px;"/><path class="ytick ticks crisp" d="M79,0h-5" transform="translate(0,274.45)" style="stroke: rgb(51, 51, 51); stroke-opacity: 1; stroke-width: 1px;"/><path class="ytick ticks crisp" d="M79,0h-5" transform="translate(0,234)" style="stroke: rgb(51, 51, 51); stroke-opacity: 1; stroke-width: 1px;"/><path class="ytick ticks crisp" d="M79,0h-5" transform="translate(0,193.54000000000002)" style="stroke: rgb(51, 51, 51); stroke-opacity: 1; stroke-width: 1px;"/><path class="ytick ticks crisp" d="M79,0h-5" transform="translate(0,153.09)" style="stroke: rgb(51, 51, 51); stroke-opacity: 1; stroke-width: 1px;"/><path class="ytick ticks crisp" d="M79,0h-5" transform="translate(0,112.63)" style="stroke: rgb(51, 51, 51); stroke-opacity: 1; stroke-width: 1px;"/><g class="ytick"><text text-anchor="end" x="71.6" y="4.199999999999999" transform="translate(0,395.82)" style="font-family: 'Open Sans', verdana, arial, sans-serif; font-size: 12px; fill: rgb(51, 51, 51); fill-opacity: 1; white-space: pre; opacity: 1;">1.65</text></g><g class="ytick"><text text-anchor="end" x="71.6" y="4.199999999999999" style="font-family: 'Open Sans', verdana, arial, sans-serif; font-size: 12px; fill: rgb(51, 51, 51); fill-opacity: 1; white-space: pre; opacity: 1;" transform="translate(0,355.36)">1.7</text></g><g class="ytick"><text text-anchor="end" x="71.6" y="4.199999999999999" style="font-family: 'Open Sans', verdana, arial, sans-serif; font-size: 12px; fill: rgb(51, 51, 51); fill-opacity: 1; white-space: pre; opacity: 1;" transform="translate(0,314.90999999999997)">1.75</text></g><g class="ytick"><text text-anchor="end" x="71.6" y="4.199999999999999" style="font-family: 'Open Sans', verdana, arial, sans-serif; font-size: 12px; fill: rgb(51, 51, 51); fill-opacity: 1; white-space: pre; opacity: 1;" transform="translate(0,274.45)">1.8</text></g><g class="ytick"><text text-anchor="end" x="71.6" y="4.199999999999999" style="font-family: 'Open Sans', verdana, arial, sans-serif; font-size: 12px; fill: rgb(51, 51, 51); fill-opacity: 1; white-space: pre; opacity: 1;" transform="translate(0,234)">1.85</text></g><g class="ytick"><text text-anchor="end" x="71.6" y="4.199999999999999" style="font-family: 'Open Sans', verdana, arial, sans-serif; font-size: 12px; fill: rgb(51, 51, 51); fill-opacity: 1; white-space: pre; opacity: 1;" transform="translate(0,193.54000000000002)">1.9</text></g><g class="ytick"><text text-anchor="end" x="71.6" y="4.199999999999999" style="font-family: 'Open Sans', verdana, arial, sans-serif; font-size: 12px; fill: rgb(51, 51, 51); fill-opacity: 1; white-space: pre; opacity: 1;" transform="translate(0,153.09)">1.95</text></g><g class="ytick"><text text-anchor="end" x="71.6" y="4.199999999999999" style="font-family: 'Open Sans', verdana, arial, sans-serif; font-size: 12px; fill: rgb(51, 51, 51); fill-opacity: 1; white-space: pre; opacity: 1;" transform="translate(0,112.63)">2</text></g></g><g class="overaxes-above"/></g></g><g class="polarlayer"/><g class="ternarylayer"/><g class="geolayer"/><g class="funnelarealayer"/><g class="pielayer"/><g class="iciclelayer"/><g class="treemaplayer"/><g class="sunburstlayer"/><g class="glimages"/><defs id="topdefs-c7ed5e"><g class="clips"/></defs><g class="layer-above"><g class="imagelayer"/><g class="shapelayer"/></g><g class="infolayer"><g class="g-gtitle"><text class="gtitle" x="350" y="50" text-anchor="middle" dy="0em" style="font-family: 'Open Sans', verdana, arial, sans-serif; font-size: 17px; fill: rgb(51, 51, 51); opacity: 1; font-weight: normal; white-space: pre;">Train Loss: ascad_v1_fk_0_noisy-s_eff_cnn_hw (early_stopping)</text></g><g class="g-xtitle"/><g class="g-ytitle"/></g></svg>