<svg class="main-svg" xmlns="http://www.w3.org/2000/svg" xmlns:xlink="http://www.w3.org/1999/xlink" width="700" height="500" style="" viewBox="0 0 700 500"><rect x="0" y="0" width="700" height="500" style="fill: rgb(255, 255, 255); fill-opacity: 1;"/><defs id="defs-000d0b"><g class="clips"><clipPath id="clip000d0bxyplot" class="plotclip"><rect width="540" height="320"/></clipPath><clipPath class="axesclip" id="clip000d0bx"><rect x="80" y="0" width="540" height="500"/></clipPath><clipPath class="axesclip" id="clip000d0by"><rect x="0" y="100" width="700" height="320"/></clipPath><clipPath class="axesclip" id="clip000d0bxy"><rect x="80" y="100" width="540" height="320"/></clipPath></g><g class="gradients"/><g class="patterns"/></defs><g class="bglayer"><rect class="bg" x="80" y="100" width="540" height="320" style="fill: rgb(237, 237, 237); fill-opacity: 1; stroke-width: 0;"/></g><g class="layer-below"><g class="imagelayer"/><g class="shapelayer"/></g><g class="cartesianlayer"><g class="subplot xy"><g class="layer-subplot"><g class="shapelayer"/><g class="imagelayer"/></g><g class="gridlayer"><g class="x"><path class="xgrid crisp" transform="translate(190.2,0)" d="M0,100v320" style="stroke: rgb(255, 255, 255); stroke-opacity: 1; stroke-width: 1px;"/><path class="xgrid crisp" transform="translate(300.40999999999997,0)" d="M0,100v320" style="stroke: rgb(255, 255, 255); stroke-opacity: 1; stroke-width: 1px;"/><path class="xgrid crisp" transform="translate(410.61,0)" d="M0,100v320" style="stroke: rgb(255, 255, 255); stroke-opacity: 1; stroke-width: 1px;"/><path class="xgrid crisp" transform="translate(520.8199999999999,0)" d="M0,100v320" style="stroke: rgb(255, 255, 255); stroke-opacity: 1; stroke-width: 1px;"/></g><g class="y"><path class="ygrid crisp" transform="translate(0,411.68)" d="M80,0h540" style="stroke: rgb(255, 255, 255); stroke-opacity: 1; stroke-width: 1px;"/><path class="ygrid crisp" transform="translate(0,362.74)" d="M80,0h540" style="stroke: rgb(255, 255, 255); stroke-opacity: 1; stroke-width: 1px;"/><path class="ygrid crisp" transform="translate(0,313.78999999999996)" d="M80,0h540" style="stroke: rgb(255, 255, 255); stroke-opacity: 1; stroke-width: 1px;"/><path class="ygrid crisp" transform="translate(0,264.85)" d="M80,0h540" style="stroke: rgb(255, 255, 255); stroke-opacity: 1; stroke-width: 1px;"/><path class="ygrid crisp" transform="translate(0,215.9)" d="M80,0h540" style="stroke: rgb(255, 255, 255); stroke-opacity: 1; stroke-width: 1px;"/><path class="ygrid crisp" transform="translate(0,166.95999999999998)" d="M80,0h540" style="stroke: rgb(255, 255, 255); stroke-opacity: 1; stroke-width: 1px;"/><path class="ygrid crisp" transform="translate(0,118.01)" d="M80,0h540" style="stroke: rgb(255, 255, 255); stroke-opacity: 1; stroke-width: 1px;"/></g></g><g class="zerolinelayer"><path class="xzl zl crisp" transform="translate(80,0)" d="M0,100v320" style="stroke: rgb(255, 255, 255); stroke-opacity: 1; stroke-width: 1px;"/></g><path class="xlines-below"/><path class="ylines-below"/><g class="overlines-below"/><g class="xaxislayer-below"/><g class="yaxislayer-below"/><g class="overaxes-below"/><g class="plot" transform="translate(80,100)" clip-path="url(#clip000d0bxyplot)"><g class="scatterlayer mlayer"><g class="trace scatter tracebf3b95" style="stroke-miterlimit: 2; opacity: 1;"><g class="fills"/><g class="errorbars"/><g class="lines"><path class="js-line" d="M0,270.87L11.02,272.01L22.04,272.24L33.06,271.95L44.08,273.7L55.1,274.28L66.12,275.88L77.14,277.75L88.16,278.22L143.27,282.33L154.29,283.28L220.41,288.06L231.43,288.69L264.49,290.83L275.51,291.7L341.63,296.54L352.65,296.65L363.67,297.52L374.69,264.41L385.71,298.79L396.73,299.11L429.8,300.36L440.82,294.02L451.84,300.09L462.86,297.95L473.88,301.87L484.9,301.47L495.92,292.99L506.94,302.97L517.96,302.64L528.98,303.37L540,302.51" style="vector-effect: non-scaling-stroke; fill: none; stroke: rgb(248, 118, 109); stroke-opacity: 1; stroke-width: 2px; opacity: 1;"/></g><g class="points"/><g class="text"/></g><g class="trace scatter trace9575fe" style="stroke-miterlimit: 2; opacity: 1;"><g class="fills"/><g class="errorbars"/><g class="lines"><path class="js-line" d="M0,270.82L44.08,275.96L55.1,276L66.12,277.38L77.14,277.91L121.22,280.76L132.24,281.79L187.35,285.05L198.37,285.55L242.45,288L253.47,288.7L264.49,289.3L275.51,288.27L286.53,290.55L297.55,291.21L374.69,294.32L385.71,295.05L407.76,296.17L418.78,296.6L429.8,296.56L440.82,297.53L462.86,297.35L473.88,298.39L495.92,299.14L506.94,298.1L517.96,299.83L528.98,300.02L540,300.39" style="vector-effect: non-scaling-stroke; fill: none; stroke: rgb(163, 165, 0); stroke-opacity: 1; stroke-width: 2px; opacity: 1;"/></g><g class="points"/><g class="text"/></g><g class="trace scatter trace7b79ca" style="stroke-miterlimit: 2; opacity: 1;"><g class="fills"/><g class="errorbars"/><g class="lines"><path class="js-line" d="M0,270.87L11.02,272.04L22.04,272.44L44.08,271.94L55.1,275.37L66.12,277.05L77.14,277.82L132.24,281.38L143.27,282.28L209.39,287.73L220.41,288.44L275.51,291.54L286.53,291.86L319.59,292.86L330.61,294.68L363.67,296.23L374.69,296.58L385.71,297.22L396.73,295.85L407.76,294.98L418.78,298.12L429.8,299.45L440.82,299.84L451.84,300.55L462.86,289.57L473.88,300.87L484.9,298.63L495.92,301.25L506.94,301L528.98,300.76L540,300.81" style="vector-effect: non-scaling-stroke; fill: none; stroke: rgb(0, 191, 125); stroke-opacity: 1; stroke-width: 2px; opacity: 1;"/></g><g class="points"/><g class="text"/></g><g class="trace scatter tracede72e1" style="stroke-miterlimit: 2; opacity: 1;"><g class="fills"/><g class="errorbars"/><g class="lines"><path class="js-line" d="M0,270.89L22.04,274.18L33.06,273.84L66.12,277.33L77.14,277.97L121.22,280.88L132.24,281.99L187.35,286.23L198.37,286.74L253.47,290.62L264.49,290.64L286.53,292.53L297.55,292.06L308.57,293.42L319.59,292.63L330.61,293.99L341.63,292.43L352.65,295.38L363.67,295.42L374.69,295.32L385.71,296.9L396.73,287.41L407.76,296.38L418.78,297.98L429.8,295.16L440.82,299.1L451.84,299.02L473.88,299.7L484.9,299.15L495.92,300.2L506.94,253.69L517.96,301.36L528.98,294.19L540,301.85" style="vector-effect: non-scaling-stroke; fill: none; stroke: rgb(0, 176, 246); stroke-opacity: 1; stroke-width: 2px; opacity: 1;"/></g><g class="points"/><g class="text"/></g><g class="trace scatter trace87aa2e" style="stroke-miterlimit: 2; opacity: 1;"><g class="fills"/><g class="errorbars"/><g class="lines"><path class="js-line" d="M0,270.88L33.06,274.72L44.08,273.98L55.1,274.54L66.12,276.96L77.14,277.78L88.16,277.3L99.18,279.08L110.2,279.59L165.31,283.96L176.33,284.67L319.59,292.69L330.61,293.1L352.65,293.33L363.67,294.56L484.9,297.66L495.92,297.41L506.94,298.77L517.96,298.48L540,300.54" style="vector-effect: non-scaling-stroke; fill: none; stroke: rgb(231, 107, 243); stroke-opacity: 1; stroke-width: 2px; opacity: 1;"/></g><g class="points"/><g class="text"/></g><g class="trace scatter trace044283" style="stroke-miterlimit: 2; opacity: 1;"><g class="fills"/><g class="errorbars"/><g class="lines"><path class="js-line" d="M0,270.8L22.04,272.43L33.06,270.12L44.08,269.27L55.1,274.27L66.12,276.34L77.14,276.68L88.16,278.25L99.18,278.69L187.35,285.4L198.37,280.31L209.39,286.8L220.41,287.51L242.45,288.67L253.47,289.34L341.63,293.14L352.65,293.4L385.71,294.96L396.73,295.2L462.86,297.6L473.88,296.83L484.9,298.24L495.92,298.6L506.94,298.76L517.96,294.44L528.98,300.35L540,299.15" style="vector-effect: non-scaling-stroke; fill: none; stroke: rgb(248, 118, 109); stroke-opacity: 1; stroke-width: 2px; opacity: 1;"/></g><g class="points"/><g class="text"/></g><g class="trace scatter tracec9171d" style="stroke-miterlimit: 2; opacity: 1;"><g class="fills"/><g class="errorbars"/><g class="lines"><path class="js-line" d="M0,270.85L22.04,273.53L33.06,273.2L44.08,275.45L55.1,276.37L66.12,276.93L77.14,276.43L88.16,278.33L99.18,278.78L121.22,280.94L132.24,281.46L165.31,284.95L176.33,284.86L187.35,286.56L198.37,286.61L209.39,288.45L220.41,288.9L297.55,294.79L308.57,295.35L407.76,300.41L418.78,300.83L429.8,300.77L440.82,302.01L451.84,295.21L462.86,299.13L473.88,303.58L484.9,303.65L495.92,302.14L506.94,304L517.96,303.85L528.98,299.16L540,303.39" style="vector-effect: non-scaling-stroke; fill: none; stroke: rgb(163, 165, 0); stroke-opacity: 1; stroke-width: 2px; opacity: 1;"/></g><g class="points"/><g class="text"/></g><g class="trace scatter trace6f7a8b" style="stroke-miterlimit: 2; opacity: 1;"><g class="fills"/><g class="errorbars"/><g class="lines"><path class="js-line" d="M0,270.86L22.04,272.83L33.06,272.7L55.1,268.41L66.12,277.07L143.27,282.2L154.29,283.06L187.35,285.08L198.37,285.53L253.47,287.56L264.49,288.57L330.61,291.64L341.63,291.49L363.67,292.66L374.69,292.42L385.71,293.44L396.73,293.63L418.78,295.57L429.8,295.56L451.84,296.56L462.86,296.74L540,298.74" style="vector-effect: non-scaling-stroke; fill: none; stroke: rgb(0, 191, 125); stroke-opacity: 1; stroke-width: 2px; opacity: 1;"/></g><g class="points"/><g class="text"/></g><g class="trace scatter traceef1c76" style="stroke-miterlimit: 2; opacity: 1;"><g class="fills"/><g class="errorbars"/><g class="lines"><path class="js-line" d="M0,270.85L44.08,275.99L55.1,273.41L77.14,277.74L88.16,278.25L121.22,280.24L132.24,280.93L176.33,284.28L187.35,285L253.47,288.74L264.49,289.15L297.55,290.85L308.57,291.24L363.67,292.64L374.69,292.29L385.71,291.84L396.73,293.05L407.76,293.29L418.78,266.02L429.8,275.24L440.82,295.16L473.88,296.2L484.9,286.24L495.92,296.24L506.94,295.72L517.96,284.27L528.98,297.41L540,297.8" style="vector-effect: non-scaling-stroke; fill: none; stroke: rgb(0, 176, 246); stroke-opacity: 1; stroke-width: 2px; opacity: 1;"/></g><g class="points"/><g class="text"/></g><g class="trace scatter traceb2436f" style="stroke-miterlimit: 2; opacity: 1;"><g class="fills"/><g class="errorbars"/><g class="lines"><path class="js-line" d="M0,270.83L11.02,272.11L22.04,272.36L33.06,274.7L44.08,275.21L66.12,276.47L77.14,277.95L121.22,280.62L132.24,281.45L198.37,286.15L209.39,286.52L253.47,289.27L264.49,285.31L275.51,290.27L286.53,290.28L297.55,291.08L308.57,290.6L330.61,291.88L341.63,289.14L363.67,291.53L374.69,292.64L385.71,283.17L396.73,285.12L407.76,293.94L418.78,293.89L429.8,293.8L440.82,295.08L451.84,294.39L462.86,295.13L473.88,294.87L484.9,296.82L495.92,280.74L506.94,297.16L517.96,297.5L528.98,285.36L540,297.87" style="vector-effect: non-scaling-stroke; fill: none; stroke: rgb(231, 107, 243); stroke-opacity: 1; stroke-width: 2px; opacity: 1;"/></g><g class="points"/><g class="text"/></g><g class="trace scatter trace072975" style="stroke-miterlimit: 2; opacity: 1;"><g class="fills"/><g class="errorbars"/><g class="lines"><path class="js-line" d="M0,270.85L22.04,274.11L33.06,274.81L44.08,275.28L55.1,276.68L121.22,279.58L132.24,280.4L187.35,282.72L198.37,283.27L242.45,284.35L253.47,284.41L319.59,284.82L330.61,285.06L352.65,285.18L363.67,285.79L473.88,288.28L484.9,288.34L517.96,288.3L528.98,285.93L540,288.45" style="vector-effect: non-scaling-stroke; fill: none; stroke: rgb(248, 118, 109); stroke-opacity: 1; stroke-width: 2px; opacity: 1;"/></g><g class="points"/><g class="text"/></g><g class="trace scatter tracee00457" style="stroke-miterlimit: 2; opacity: 1;"><g class="fills"/><g class="errorbars"/><g class="lines"><path class="js-line" d="M0,270.79L22.04,273.08L33.06,272.67L55.1,276.65L66.12,277.16L110.2,279.42L121.22,280.37L209.39,286.75L220.41,287.19L264.49,289.63L275.51,290.05L308.57,291.38L319.59,291.77L352.65,292.8L363.67,293.25L418.78,294.54L429.8,294.68L451.84,294.88L462.86,296.04L540,298.81" style="vector-effect: non-scaling-stroke; fill: none; stroke: rgb(163, 165, 0); stroke-opacity: 1; stroke-width: 2px; opacity: 1;"/></g><g class="points"/><g class="text"/></g><g class="trace scatter trace8bde77" style="stroke-miterlimit: 2; opacity: 1;"><g class="fills"/><g class="errorbars"/><g class="lines"><path class="js-line" d="M0,270.88L44.08,275.58L55.1,275.48L66.12,276.91L77.14,277.56L121.22,280.24L132.24,281.34L176.33,284.62L187.35,285.16L220.41,286.98L231.43,287.09L253.47,289.71L264.49,287.16L275.51,290.28L286.53,290.59L308.57,292.61L319.59,292.62L352.65,293.85L363.67,293.36L374.69,291.62L385.71,295.49L396.73,293.21L407.76,296.85L451.84,297.85L462.86,298.77L484.9,300.16L495.92,299.96L506.94,300.19L517.96,299.51L528.98,301.35L540,283.67" style="vector-effect: non-scaling-stroke; fill: none; stroke: rgb(0, 191, 125); stroke-opacity: 1; stroke-width: 2px; opacity: 1;"/></g><g class="points"/><g class="text"/></g><g class="trace scatter trace423d6e" style="stroke-miterlimit: 2; opacity: 1;"><g class="fills"/><g class="errorbars"/><g class="lines"><path class="js-line" d="M0,270.82L22.04,273.1L33.06,273.67L44.08,275.39L55.1,273.54L66.12,275L77.14,277.53L132.24,280.97L143.27,281.97L198.37,285.84L209.39,286.47L264.49,289.68L275.51,290.65L330.61,293.5L341.63,293.77L352.65,293.44L363.67,295.25L385.71,296.12L396.73,296.89L407.76,290.82L418.78,293.79L429.8,297.86L440.82,294.83L451.84,298.75L462.86,298.69L473.88,298.38L484.9,299.51L495.92,298.5L506.94,295.98L517.96,300.29L528.98,300.53L540,300.09" style="vector-effect: non-scaling-stroke; fill: none; stroke: rgb(0, 176, 246); stroke-opacity: 1; stroke-width: 2px; opacity: 1;"/></g><g class="points"/><g class="text"/></g><g class="trace scatter tracef3a6df" style="stroke-miterlimit: 2; opacity: 1;"><g class="fills"/><g class="errorbars"/><g class="lines"><path class="js-line" d="M0,270.86L55.1,276.89L66.12,277.48L143.27,281.93L154.29,283.66L231.43,288.59L242.45,289.22L275.51,290.85L286.53,291.45L341.63,295.1L352.65,295.23L374.69,296.06L385.71,296.05L407.76,296.83L418.78,296.96L473.88,299.58L484.9,296.56L506.94,300.87L517.96,301.06L528.98,301.87L540,298.57" style="vector-effect: non-scaling-stroke; fill: none; stroke: rgb(231, 107, 243); stroke-opacity: 1; stroke-width: 2px; opacity: 1;"/></g><g class="points"/><g class="text"/></g><g class="trace scatter trace8497c2" style="stroke-miterlimit: 2; opacity: 1;"><g class="fills"/><g class="errorbars"/><g class="lines"><path class="js-line" d="M0,270.85L22.04,273.03L33.06,274.09L44.08,273.58L55.1,276.22L77.14,278L88.16,278.54L121.22,279.77L132.24,281.54L198.37,287.42L209.39,288.03L253.47,290.63L264.49,277.82L275.51,291.92L286.53,292.96L330.61,295.27L341.63,295.02L352.65,296.42L363.67,296.46L385.71,296.7L396.73,297.12L440.82,297.31L451.84,298.02L462.86,296.06L473.88,298.53L506.94,298.41L517.96,300.22L528.98,300.34L540,266.78" style="vector-effect: non-scaling-stroke; fill: none; stroke: rgb(248, 118, 109); stroke-opacity: 1; stroke-width: 2px; opacity: 1;"/></g><g class="points"/><g class="text"/></g><g class="trace scatter traceed2867" style="stroke-miterlimit: 2; opacity: 1;"><g class="fills"/><g class="errorbars"/><g class="lines"><path class="js-line" d="M0,270.87L11.02,272.14L22.04,271.75L33.06,273.3L44.08,271.63L55.1,276.71L66.12,277.15L121.22,280.65L132.24,281.62L209.39,287.28L220.41,287.89L286.53,291.84L297.55,292.35L319.59,293.44L330.61,292.69L341.63,290.94L352.65,294.12L363.67,294.21L374.69,295.53L407.76,295.77L418.78,297.14L429.8,297.91L440.82,295.52L451.84,299.1L462.86,299.24L473.88,299.69L484.9,299.18L495.92,300.56L506.94,288.53L517.96,300.14L528.98,301.59L540,301.85" style="vector-effect: non-scaling-stroke; fill: none; stroke: rgb(163, 165, 0); stroke-opacity: 1; stroke-width: 2px; opacity: 1;"/></g><g class="points"/><g class="text"/></g><g class="trace scatter trace25e725" style="stroke-miterlimit: 2; opacity: 1;"><g class="fills"/><g class="errorbars"/><g class="lines"><path class="js-line" d="M0,270.82L22.04,273.79L33.06,275.45L55.1,276.66L66.12,276.5L88.16,278.11L99.18,277.09L110.2,279.19L121.22,280.04L154.29,282.63L165.31,282.79L187.35,284.26L198.37,284.71L352.65,290.77L363.67,290.65L374.69,292.05L385.71,291.22L396.73,293.27L407.76,293.71L418.78,289.12L429.8,294.31L440.82,293.1L451.84,295.62L495.92,296.66L506.94,297.17L540,298.31" style="vector-effect: non-scaling-stroke; fill: none; stroke: rgb(0, 191, 125); stroke-opacity: 1; stroke-width: 2px; opacity: 1;"/></g><g class="points"/><g class="text"/></g><g class="trace scatter trace20cd4c" style="stroke-miterlimit: 2; opacity: 1;"><g class="fills"/><g class="errorbars"/><g class="lines"><path class="js-line" d="M0,270.85L33.06,275.4L44.08,276.32L121.22,280.85L132.24,281.87L165.31,284.4L176.33,285.21L231.43,287.82L242.45,288.88L264.49,290.85L275.51,291.24L308.57,293.77L319.59,294.4L374.69,297.35L385.71,297.67L407.76,298.41L418.78,298.19L429.8,299.42L440.82,299.88L484.9,300.98L495.92,300.73L517.96,302.15L528.98,300.98L540,302.57" style="vector-effect: non-scaling-stroke; fill: none; stroke: rgb(0, 176, 246); stroke-opacity: 1; stroke-width: 2px; opacity: 1;"/></g><g class="points"/><g class="text"/></g><g class="trace scatter tracea540ad" style="stroke-miterlimit: 2; opacity: 1;"><g class="fills"/><g class="errorbars"/><g class="lines"><path class="js-line" d="M0,270.86L33.06,275.1L44.08,275.31L66.12,277.56L77.14,278.02L143.27,282.86L154.29,283.98L220.41,287.84L231.43,288.23L308.57,292.75L319.59,293.05L341.63,293.76L352.65,293.15L363.67,294.85L374.69,295.51L396.73,296.75L407.76,295.38L418.78,297.63L429.8,298.23L473.88,299.09L484.9,300.08L506.94,300.82L517.96,297.53L528.98,301.78L540,300.14" style="vector-effect: non-scaling-stroke; fill: none; stroke: rgb(231, 107, 243); stroke-opacity: 1; stroke-width: 2px; opacity: 1;"/></g><g class="points"/><g class="text"/></g><g class="trace scatter trace861867" style="stroke-miterlimit: 2; opacity: 1;"><g class="fills"/><g class="errorbars"/><g class="lines"><path class="js-line" d="M0,270.84L11.02,272.04L22.04,272.36L33.06,272.17L44.08,265.7L55.1,273.44L66.12,276.56L132.24,280.98L143.27,282.17L231.43,288.13L242.45,288.42L264.49,290.39L275.51,291L308.57,292.56L319.59,292.95L352.65,294.07L363.67,295.51L418.78,297.81L429.8,297.22L440.82,298.62L451.84,298.99L462.86,299.35L473.88,298.71L484.9,300.8L495.92,301.23L528.98,302.07L540,300.83" style="vector-effect: non-scaling-stroke; fill: none; stroke: rgb(248, 118, 109); stroke-opacity: 1; stroke-width: 2px; opacity: 1;"/></g><g class="points"/><g class="text"/></g><g class="trace scatter tracef4640d" style="stroke-miterlimit: 2; opacity: 1;"><g class="fills"/><g class="errorbars"/><g class="lines"><path class="js-line" d="M0,270.86L22.04,274.47L33.06,268.5L44.08,274.51L55.1,275.95L66.12,277.58L77.14,276.71L88.16,278.59L99.18,279.25L143.27,282.42L154.29,283.51L198.37,286.69L209.39,287.58L231.43,288.79L242.45,288.95L275.51,291.57L286.53,291.91L297.55,292.11L308.57,293.31L341.63,294.75L352.65,295.71L374.69,297.25L385.71,297.77L418.78,298.2L429.8,297.76L440.82,299.99L451.84,299.79L473.88,299.91L484.9,301.87L495.92,301.82L506.94,300.8L517.96,302.19L528.98,302.16L540,297.25" style="vector-effect: non-scaling-stroke; fill: none; stroke: rgb(163, 165, 0); stroke-opacity: 1; stroke-width: 2px; opacity: 1;"/></g><g class="points"/><g class="text"/></g><g class="trace scatter traced7c781" style="stroke-miterlimit: 2; opacity: 1;"><g class="fills"/><g class="errorbars"/><g class="lines"><path class="js-line" d="M0,270.82L22.04,272.49L33.06,272.88L44.08,271.81L55.1,273.03L66.12,274.22L77.14,276.23L88.16,277L99.18,278.64L121.22,280.04L132.24,279.48L143.27,281.65L154.29,282.49L176.33,284.34L187.35,285.04L231.43,287.87L242.45,288.77L253.47,288.78L264.49,290.15L286.53,291.3L297.55,291.14L308.57,292.95L319.59,293.74L352.65,295.46L363.67,294.98L374.69,295.37L385.71,296.57L396.73,291.67L407.76,293.16L418.78,296.4L429.8,294.23L440.82,287.71L451.84,297.32L484.9,299.31L495.92,288.45L506.94,294.93L517.96,291.61L528.98,298.63L540,286.74" style="vector-effect: non-scaling-stroke; fill: none; stroke: rgb(0, 191, 125); stroke-opacity: 1; stroke-width: 2px; opacity: 1;"/></g><g class="points"/><g class="text"/></g><g class="trace scatter tracefecd77" style="stroke-miterlimit: 2; opacity: 1;"><g class="fills"/><g class="errorbars"/><g class="lines"><path class="js-line" d="M0,270.86L11.02,272.06L22.04,271.07L33.06,271.33L44.08,273.42L55.1,274.29L66.12,271.71L77.14,277.09L88.16,278.07L165.31,283.71L176.33,284.6L209.39,286.76L220.41,287.31L275.51,290.22L286.53,290.58L319.59,292.34L330.61,291.7L341.63,293.04L352.65,291.07L363.67,293.39L374.69,294.38L396.73,294.98L407.76,290.74L418.78,295.61L429.8,295.75L451.84,296.12L462.86,292.22L473.88,296.42L484.9,296.95L506.94,297.35L517.96,289.18L528.98,297.45L540,297.91" style="vector-effect: non-scaling-stroke; fill: none; stroke: rgb(0, 176, 246); stroke-opacity: 1; stroke-width: 2px; opacity: 1;"/></g><g class="points"/><g class="text"/></g><g class="trace scatter trace2382aa" style="stroke-miterlimit: 2; opacity: 1;"><g class="fills"/><g class="errorbars"/><g class="lines"><path class="js-line" d="M0,270.84L22.04,274.34L33.06,274.46L44.08,276.16L55.1,276.93L132.24,280.97L143.27,282.16L319.59,292.99L330.61,289.8L341.63,293.72L352.65,294.62L374.69,293.67L385.71,294.35L396.73,294.62L407.76,296.35L451.84,297.9L462.86,297.55L473.88,298.62L484.9,297.85L495.92,297.88L506.94,299.44L517.96,299.09L528.98,299.88L540,300.31" style="vector-effect: non-scaling-stroke; fill: none; stroke: rgb(231, 107, 243); stroke-opacity: 1; stroke-width: 2px; opacity: 1;"/></g><g class="points"/><g class="text"/></g><g class="trace scatter trace41e62c" style="stroke-miterlimit: 2; opacity: 1;"><g class="fills"/><g class="errorbars"/><g class="lines"><path class="js-line" d="M0,270.82L33.06,274.48L44.08,273.55L55.1,275.85L66.12,276.62L77.14,277.94L88.16,277.36L99.18,279.03L110.2,279.6L231.43,288.83L242.45,289.34L264.49,291.13L275.51,292.04L319.59,294.48L330.61,294.51L341.63,292.26L352.65,296.07L363.67,296.01L374.69,296.82L385.71,277.88L396.73,287.1L407.76,294.07L418.78,296.25L440.82,298.46L451.84,298.21L473.88,296.53L484.9,299.6L495.92,297.44L506.94,300.73L517.96,296.5L528.98,301.64L540,298.58" style="vector-effect: non-scaling-stroke; fill: none; stroke: rgb(248, 118, 109); stroke-opacity: 1; stroke-width: 2px; opacity: 1;"/></g><g class="points"/><g class="text"/></g><g class="trace scatter trace229dcc" style="stroke-miterlimit: 2; opacity: 1;"><g class="fills"/><g class="errorbars"/><g class="lines"><path class="js-line" d="M0,270.85L22.04,272.53L33.06,272.86L66.12,274.97L77.14,277.34L165.31,283.08L176.33,283.88L231.43,287.85L242.45,288.07L264.49,289.93L275.51,290.73L286.53,290.74L297.55,291.95L319.59,292.7L330.61,292.34L341.63,293.45L352.65,291.86L363.67,294.64L374.69,294.45L385.71,295.94L396.73,294.98L407.76,294.44L418.78,278.94L429.8,291.46L440.82,295.68L451.84,297.43L462.86,293.35L473.88,297.23L484.9,298.54L495.92,298.31L506.94,288.22L517.96,298.62L528.98,299.33L540,297.6" style="vector-effect: non-scaling-stroke; fill: none; stroke: rgb(163, 165, 0); stroke-opacity: 1; stroke-width: 2px; opacity: 1;"/></g><g class="points"/><g class="text"/></g><g class="trace scatter trace24f45e" style="stroke-miterlimit: 2; opacity: 1;"><g class="fills"/><g class="errorbars"/><g class="lines"><path class="js-line" d="M0,270.83L22.04,273.2L33.06,274.78L44.08,276.03L55.1,275.3L66.12,277.38L77.14,277.97L110.2,279.86L121.22,280.97L187.35,285.99L198.37,286.18L209.39,287.42L220.41,287.65L242.45,289.25L253.47,289.81L308.57,293.81L319.59,293.87L341.63,295.52L352.65,296.4L363.67,296.81L374.69,295.49L385.71,297.45L396.73,282.23L407.76,290.06L418.78,294.45L429.8,297.54L440.82,291.43L451.84,299.48L462.86,297.33L484.9,298.3L495.92,300.69L506.94,296.95L517.96,300.77L528.98,287.28L540,299.75" style="vector-effect: non-scaling-stroke; fill: none; stroke: rgb(0, 191, 125); stroke-opacity: 1; stroke-width: 2px; opacity: 1;"/></g><g class="points"/><g class="text"/></g><g class="trace scatter tracec1e9db" style="stroke-miterlimit: 2; opacity: 1;"><g class="fills"/><g class="errorbars"/><g class="lines"><path class="js-line" d="M0,270.86L22.04,273.01L33.06,270.48L44.08,271.42L55.1,274.95L66.12,276.79L77.14,277.45L242.45,289.22L253.47,289.76L341.63,293.97L352.65,294.37L374.69,294.98L385.71,295.36L473.88,298.55L484.9,299.33L506.94,300.29L517.96,300.39L528.98,300.3L540,301.19" style="vector-effect: non-scaling-stroke; fill: none; stroke: rgb(0, 176, 246); stroke-opacity: 1; stroke-width: 2px; opacity: 1;"/></g><g class="points"/><g class="text"/></g><g class="trace scatter trace426efb" style="stroke-miterlimit: 2; opacity: 1;"><g class="fills"/><g class="errorbars"/><g class="lines"><path class="js-line" d="M0,270.81L22.04,273.96L33.06,275.66L132.24,281.44L143.27,282.37L253.47,289.37L264.49,289.76L297.55,291.9L308.57,292.35L363.67,295.59L374.69,294.18L396.73,297.09L407.76,297.29L462.86,299.77L473.88,298.24L484.9,296.27L495.92,300.72L506.94,300.68L517.96,301.51L528.98,301.79L540,299.55" style="vector-effect: non-scaling-stroke; fill: none; stroke: rgb(231, 107, 243); stroke-opacity: 1; stroke-width: 2px; opacity: 1;"/></g><g class="points"/><g class="text"/></g><g class="trace scatter traced5e48d" style="stroke-miterlimit: 2; opacity: 1;"><g class="fills"/><g class="errorbars"/><g class="lines"><path class="js-line" d="M0,270.85L22.04,273.69L33.06,273.15L44.08,275.28L55.1,276.21L88.16,278.37L99.18,278.79L165.31,284.16L176.33,284.7L198.37,285.76L209.39,286.32L231.43,286.94L242.45,287.73L253.47,288.8L264.49,287.48L275.51,290.28L286.53,290.08L308.57,291.15L319.59,290.79L330.61,292.69L341.63,292.5L352.65,293.46L363.67,283.82L374.69,291.81L385.71,291.86L396.73,294L407.76,292.77L418.78,295.08L429.8,294.23L440.82,281.5L451.84,296.63L462.86,277.43L473.88,296.94L506.94,297.81L517.96,281.77L528.98,298.28L540,298.37" style="vector-effect: non-scaling-stroke; fill: none; stroke: rgb(248, 118, 109); stroke-opacity: 1; stroke-width: 2px; opacity: 1;"/></g><g class="points"/><g class="text"/></g><g class="trace scatter tracecc66ec" style="stroke-miterlimit: 2; opacity: 1;"><g class="fills"/><g class="errorbars"/><g class="lines"><path class="js-line" d="M0,270.82L33.06,275.08L44.08,275.53L66.12,277.48L77.14,278.06L99.18,279.23L110.2,280.21L121.22,280.91L132.24,280.47L143.27,282.59L154.29,283.37L176.33,284.61L187.35,285.63L253.47,288.78L264.49,290.15L286.53,291.34L297.55,290.71L308.57,292.04L319.59,292.07L341.63,293.86L352.65,294.19L385.71,295.53L396.73,294.03L407.76,296.46L418.78,296.78L429.8,287.35L440.82,295.68L451.84,297.61L462.86,292.46L473.88,297.11L484.9,298.36L495.92,295.2L506.94,298.93L517.96,287.19L528.98,299.43L540,299.67" style="vector-effect: non-scaling-stroke; fill: none; stroke: rgb(163, 165, 0); stroke-opacity: 1; stroke-width: 2px; opacity: 1;"/></g><g class="points"/><g class="text"/></g><g class="trace scatter tracebcf61c" style="stroke-miterlimit: 2; opacity: 1;"><g class="fills"/><g class="errorbars"/><g class="lines"><path class="js-line" d="M0,270.86L11.02,272.48L22.04,273.08L33.06,274.97L44.08,275.36L55.1,276.87L66.12,277.52L121.22,280.86L132.24,281.55L154.29,283.3L165.31,284.24L209.39,286.79L220.41,286.67L242.45,288.57L253.47,288.78L264.49,288.48L275.51,289.94L308.57,291.79L319.59,292.29L330.61,292.69L341.63,293.86L352.65,293.28L363.67,295.37L374.69,291.41L385.71,293.53L396.73,294.22L407.76,296.69L418.78,294.8L429.8,298.5L440.82,232.74L451.84,290.77L462.86,298.94L473.88,294.25L484.9,299.47L495.92,294.16L506.94,296.23L517.96,256.57L528.98,299.94L540,297.57" style="vector-effect: non-scaling-stroke; fill: none; stroke: rgb(0, 191, 125); stroke-opacity: 1; stroke-width: 2px; opacity: 1;"/></g><g class="points"/><g class="text"/></g><g class="trace scatter tracec38d1e" style="stroke-miterlimit: 2; opacity: 1;"><g class="fills"/><g class="errorbars"/><g class="lines"><path class="js-line" d="M0,270.83L22.04,273.7L33.06,273.98L44.08,273.89L55.1,275.33L66.12,277.19L77.14,277.91L110.2,279.99L121.22,280.92L198.37,286.84L209.39,287.56L275.51,291.3L286.53,290.29L297.55,292.21L308.57,289.55L319.59,293.37L330.61,294.01L352.65,294.31L363.67,295.21L385.71,295.28L396.73,295.74L407.76,296.6L418.78,296.67L451.84,298.83L462.86,298.96L473.88,299.13L484.9,294.53L495.92,300.03L506.94,300.5L517.96,300.75L528.98,298.55L540,301" style="vector-effect: non-scaling-stroke; fill: none; stroke: rgb(0, 176, 246); stroke-opacity: 1; stroke-width: 2px; opacity: 1;"/></g><g class="points"/><g class="text"/></g><g class="trace scatter tracedc6d58" style="stroke-miterlimit: 2; opacity: 1;"><g class="fills"/><g class="errorbars"/><g class="lines"><path class="js-line" d="M0,270.83L33.06,273.77L44.08,273.16L55.1,275.58L66.12,276.57L88.16,278.38L99.18,278.86L143.27,282.43L154.29,283.45L220.41,288.48L231.43,289.06L242.45,289.94L253.47,287.91L264.49,290.76L275.51,291.73L308.57,292.92L319.59,286.28L330.61,293.64L341.63,293.87L352.65,294.9L363.67,294.73L374.69,295.37L385.71,295.15L407.76,296.13L418.78,269.79L429.8,296.63L440.82,292.5L451.84,297.63L462.86,297.43L473.88,298.44L484.9,298.1L495.92,299.43L506.94,299.98L517.96,300.45L528.98,299.66L540,298.37" style="vector-effect: non-scaling-stroke; fill: none; stroke: rgb(231, 107, 243); stroke-opacity: 1; stroke-width: 2px; opacity: 1;"/></g><g class="points"/><g class="text"/></g><g class="trace scatter tracea4e9c3" style="stroke-miterlimit: 2; opacity: 1;"><g class="fills"/><g class="errorbars"/><g class="lines"><path class="js-line" d="M0,270.82L11.02,272.02L22.04,272.21L33.06,274.21L44.08,273.09L55.1,274.41L66.12,277.18L99.18,278.69L110.2,279.54L176.33,284.95L187.35,284.77L209.39,287.35L220.41,287.97L231.43,288.15L242.45,289.17L341.63,294.13L352.65,295.27L385.71,296.65L396.73,296.89L418.78,297.8L429.8,298.27L440.82,298.74L451.84,298.38L462.86,296.25L473.88,300.13L495.92,300.76L506.94,300L528.98,301.57L540,301.91" style="vector-effect: non-scaling-stroke; fill: none; stroke: rgb(248, 118, 109); stroke-opacity: 1; stroke-width: 2px; opacity: 1;"/></g><g class="points"/><g class="text"/></g><g class="trace scatter tracec6ff09" style="stroke-miterlimit: 2; opacity: 1;"><g class="fills"/><g class="errorbars"/><g class="lines"><path class="js-line" d="M0,270.82L11.02,271.92L22.04,274L44.08,275.75L55.1,276.6L121.22,279.19L132.24,280.37L165.31,282.49L176.33,283.13L209.39,284.76L220.41,285.6L275.51,288.51L286.53,288.9L341.63,290.42L352.65,292.04L374.69,292.86L385.71,291.95L396.73,293.87L407.76,292.2L418.78,294.54L429.8,294.81L473.88,295.53L484.9,296.61L495.92,296.26L506.94,294.21L517.96,295.38L528.98,298.19L540,292.05" style="vector-effect: non-scaling-stroke; fill: none; stroke: rgb(163, 165, 0); stroke-opacity: 1; stroke-width: 2px; opacity: 1;"/></g><g class="points"/><g class="text"/></g><g class="trace scatter trace3033c5" style="stroke-miterlimit: 2; opacity: 1;"><g class="fills"/><g class="errorbars"/><g class="lines"><path class="js-line" d="M0,270.86L33.06,275.42L44.08,276.07L143.27,281.51L154.29,282.18L220.41,285.57L231.43,285.93L319.59,288.48L330.61,288.67L451.84,291.25L462.86,289.92L506.94,291.8L517.96,291.82L540,292.11" style="vector-effect: non-scaling-stroke; fill: none; stroke: rgb(0, 191, 125); stroke-opacity: 1; stroke-width: 2px; opacity: 1;"/></g><g class="points"/><g class="text"/></g><g class="trace scatter trace2f4cff" style="stroke-miterlimit: 2; opacity: 1;"><g class="fills"/><g class="errorbars"/><g class="lines"><path class="js-line" d="M0,270.85L55.1,276.58L66.12,277.39L154.29,282.57L165.31,284.01L286.53,291.14L297.55,290.51L308.57,291.87L319.59,292.08L330.61,293.65L341.63,291.66L352.65,294.64L363.67,295.35L385.71,295.46L396.73,287.18L407.76,296.36L418.78,295.17L429.8,295.97L440.82,297.79L473.88,299.24L484.9,297.85L495.92,299.93L506.94,299.82L517.96,298.72L528.98,300.73L540,300.98" style="vector-effect: non-scaling-stroke; fill: none; stroke: rgb(0, 176, 246); stroke-opacity: 1; stroke-width: 2px; opacity: 1;"/></g><g class="points"/><g class="text"/></g><g class="trace scatter trace2942a6" style="stroke-miterlimit: 2; opacity: 1;"><g class="fills"/><g class="errorbars"/><g class="lines"><path class="js-line" d="M0,270.82L33.06,275.04L44.08,275.09L55.1,275.47L66.12,277.23L132.24,281.43L143.27,282.31L198.37,286.64L209.39,287.25L242.45,289.15L253.47,289.06L264.49,290.65L275.51,290.85L297.55,291.93L308.57,286.3L319.59,292.79L330.61,294.48L341.63,293.37L352.65,295.78L396.73,298.12L407.76,298.56L429.8,299.25L440.82,299.41L451.84,300.49L462.86,299.04L484.9,301.15L495.92,302.12L528.98,303.35L540,303.49" style="vector-effect: non-scaling-stroke; fill: none; stroke: rgb(231, 107, 243); stroke-opacity: 1; stroke-width: 2px; opacity: 1;"/></g><g class="points"/><g class="text"/></g><g class="trace scatter tracecda6a0" style="stroke-miterlimit: 2; opacity: 1;"><g class="fills"/><g class="errorbars"/><g class="lines"><path class="js-line" d="M0,270.86L33.06,273.89L44.08,267.61L55.1,272.37L66.12,276.01L88.16,278.08L99.18,277.85L132.24,281.02L143.27,282.11L187.35,285.59L198.37,285.85L231.43,288.47L242.45,289.19L253.47,289.82L264.49,289.66L275.51,291.11L286.53,290.58L363.67,295.67L374.69,296.22L429.8,298.76L440.82,299.04L540,302.21" style="vector-effect: non-scaling-stroke; fill: none; stroke: rgb(248, 118, 109); stroke-opacity: 1; stroke-width: 2px; opacity: 1;"/></g><g class="points"/><g class="text"/></g><g class="trace scatter trace78734a" style="stroke-miterlimit: 2; opacity: 1;"><g class="fills"/><g class="errorbars"/><g class="lines"><path class="js-line" d="M0,270.85L44.08,276.08L55.1,276.52L88.16,278.56L99.18,279.04L110.2,278.76L121.22,280.68L275.51,291.46L286.53,286.81L297.55,291.87L308.57,293.87L330.61,295.38L341.63,295.18L352.65,296.82L363.67,297.16L407.76,299.08L418.78,298.44L429.8,287.14L440.82,300.06L451.84,297.91L462.86,299.45L473.88,301.09L484.9,298.59L495.92,298.08L506.94,301.51L517.96,297.29L528.98,16L540,301.31" style="vector-effect: non-scaling-stroke; fill: none; stroke: rgb(163, 165, 0); stroke-opacity: 1; stroke-width: 2px; opacity: 1;"/></g><g class="points"/><g class="text"/></g><g class="trace scatter tracee30774" style="stroke-miterlimit: 2; opacity: 1;"><g class="fills"/><g class="errorbars"/><g class="lines"><path class="js-line" d="M0,270.85L22.04,274.31L33.06,274.01L44.08,276.08L55.1,276.81L121.22,280.78L132.24,281.91L220.41,287.92L231.43,287.83L253.47,290.26L264.49,288.43L275.51,291.49L286.53,291.06L297.55,279.76L308.57,291.24L319.59,293.44L330.61,290.25L341.63,293.92L352.65,249.12L363.67,290.25L374.69,295.41L385.71,293.49L396.73,294.69L407.76,295.03L418.78,297.11L429.8,296.97L440.82,292.84L451.84,298.22L462.86,298.33L473.88,290.27L484.9,298.65L495.92,300.31L506.94,300.39L517.96,290.64L528.98,300.87L540,300.75" style="vector-effect: non-scaling-stroke; fill: none; stroke: rgb(0, 191, 125); stroke-opacity: 1; stroke-width: 2px; opacity: 1;"/></g><g class="points"/><g class="text"/></g><g class="trace scatter traced96f84" style="stroke-miterlimit: 2; opacity: 1;"><g class="fills"/><g class="errorbars"/><g class="lines"><path class="js-line" d="M0,270.82L22.04,273.69L33.06,275.26L44.08,274.18L55.1,276.77L99.18,278.86L110.2,279.58L121.22,279.78L132.24,281.14L165.31,283.22L176.33,283.47L198.37,285.05L209.39,285.62L308.57,291.16L319.59,289.94L330.61,292.34L341.63,292.55L352.65,293.37L363.67,291.49L374.69,294.4L385.71,266L396.73,288.49L407.76,290.78L418.78,286.59L429.8,295.85L440.82,297.02L451.84,294.3L462.86,293.69L473.88,296.08L506.94,298.49L517.96,295.99L528.98,280.36L540,298.87" style="vector-effect: non-scaling-stroke; fill: none; stroke: rgb(0, 176, 246); stroke-opacity: 1; stroke-width: 2px; opacity: 1;"/></g><g class="points"/><g class="text"/></g><g class="trace scatter traced9ae59" style="stroke-miterlimit: 2; opacity: 1;"><g class="fills"/><g class="errorbars"/><g class="lines"><path class="js-line" d="M0,270.82L22.04,273.61L33.06,273.46L44.08,273.88L55.1,275.61L77.14,277.58L88.16,278.17L264.49,288.81L275.51,289.2L286.53,288.48L297.55,290.11L308.57,290.83L319.59,290.1L330.61,119.98L341.63,291.74L352.65,281.64L363.67,290.44L385.71,293.57L396.73,291.66L407.76,292.19L418.78,295.41L440.82,296.19L451.84,294.53L462.86,279.13L473.88,296.52L484.9,296.89L495.92,294.56L506.94,297.6L517.96,288.08L528.98,297.31L540,295.36" style="vector-effect: non-scaling-stroke; fill: none; stroke: rgb(231, 107, 243); stroke-opacity: 1; stroke-width: 2px; opacity: 1;"/></g><g class="points"/><g class="text"/></g><g class="trace scatter trace16166c" style="stroke-miterlimit: 2; opacity: 1;"><g class="fills"/><g class="errorbars"/><g class="lines"><path class="js-line" d="M0,270.88L22.04,273.13L33.06,269.45L44.08,273.59L55.1,275.49L66.12,277.12L77.14,277.83L143.27,282.38L154.29,283.31L209.39,287.36L220.41,287.59L253.47,289.85L264.49,290.37L286.53,291.5L297.55,292.15L352.65,294.53L363.67,294.84L407.76,296.18L418.78,296.42L473.88,297.96L484.9,297.9L495.92,297.66L506.94,298.75L540,299.69" style="vector-effect: non-scaling-stroke; fill: none; stroke: rgb(248, 118, 109); stroke-opacity: 1; stroke-width: 2px; opacity: 1;"/></g><g class="points"/><g class="text"/></g><g class="trace scatter tracea5d6d3" style="stroke-miterlimit: 2; opacity: 1;"><g class="fills"/><g class="errorbars"/><g class="lines"><path class="js-line" d="M0,270.87L55.1,276.72L66.12,277.22L121.22,280.68L132.24,280.64L143.27,282.28L154.29,282.43L176.33,284.45L187.35,284.97L264.49,289.64L275.51,290.64L319.59,293.89L330.61,293.9L341.63,294.25L352.65,295.66L363.67,293.51L374.69,296.62L385.71,297.09L396.73,292.54L407.76,294.53L418.78,298.04L429.8,298.51L440.82,297.11L451.84,287.65L462.86,298.93L473.88,274.81L484.9,296.73L495.92,299.37L506.94,288.06L517.96,299.16L528.98,299.45L540,301.39" style="vector-effect: non-scaling-stroke; fill: none; stroke: rgb(163, 165, 0); stroke-opacity: 1; stroke-width: 2px; opacity: 1;"/></g><g class="points"/><g class="text"/></g><g class="trace scatter tracecb271c" style="stroke-miterlimit: 2; opacity: 1;"><g class="fills"/><g class="errorbars"/><g class="lines"><path class="js-line" d="M0,270.84L22.04,274.57L33.06,275.37L44.08,274.91L55.1,276.82L88.16,278.47L99.18,276.48L110.2,279.82L121.22,280.55L176.33,284.87L187.35,285.62L198.37,277.72L209.39,286.77L220.41,282.32L231.43,288.32L253.47,289.33L264.49,289.81L363.67,294.48L374.69,294.79L385.71,294.1L396.73,295.72L429.8,297.41L440.82,297.51L451.84,293.49L462.86,298.34L473.88,298.77L484.9,298.23L495.92,299.29L506.94,299.39L517.96,300.24L528.98,268.46L540,299.66" style="vector-effect: non-scaling-stroke; fill: none; stroke: rgb(0, 191, 125); stroke-opacity: 1; stroke-width: 2px; opacity: 1;"/></g><g class="points"/><g class="text"/></g><g class="trace scatter tracea1b56a" style="stroke-miterlimit: 2; opacity: 1;"><g class="fills"/><g class="errorbars"/><g class="lines"><path class="js-line" d="M0,270.84L33.06,275.1L44.08,276.15L77.14,278.12L88.16,278.71L154.29,283.42L165.31,284.25L231.43,287.77L242.45,285.75L253.47,288.02L264.49,268.2L275.51,287.66L286.53,291.27L308.57,293.18L319.59,292.21L330.61,292.19L341.63,294.76L363.67,295.49L374.69,296.26L407.76,296.99L418.78,297.85L440.82,299.59L451.84,298.91L462.86,298.86L473.88,301.09L484.9,292.51L495.92,301.73L506.94,302.16L517.96,301.57L528.98,302.74L540,301.48" style="vector-effect: non-scaling-stroke; fill: none; stroke: rgb(0, 176, 246); stroke-opacity: 1; stroke-width: 2px; opacity: 1;"/></g><g class="points"/><g class="text"/></g><g class="trace scatter tracefe431d" style="stroke-miterlimit: 2; opacity: 1;"><g class="fills"/><g class="errorbars"/><g class="lines"><path class="js-line" d="M0,270.84L22.04,273.33L33.06,272.95L44.08,274.64L55.1,274.83L77.14,277.55L88.16,278.26L143.27,281.92L154.29,282.94L220.41,287.6L231.43,288.2L308.57,292.27L319.59,291.95L341.63,293.42L352.65,293.78L363.67,292.15L374.69,294.94L385.71,295.81L396.73,295.48L407.76,295.99L418.78,297.28L429.8,297.52L440.82,296.19L451.84,298.18L462.86,295.52L473.88,299.89L484.9,297.48L495.92,299.46L506.94,300L517.96,300.19L528.98,298.82L540,300.3" style="vector-effect: non-scaling-stroke; fill: none; stroke: rgb(231, 107, 243); stroke-opacity: 1; stroke-width: 2px; opacity: 1;"/></g><g class="points"/><g class="text"/></g></g></g><g class="overplot"/><path class="xlines-above crisp" d="" style="fill: none; stroke-width: 1px; stroke: rgb(0, 0, 0); stroke-opacity: 0;"/><path class="ylines-above crisp" d="" style="fill: none; stroke-width: 1px; stroke: rgb(0, 0, 0); stroke-opacity: 0;"/><g class="overlines-above"/><g class="xaxislayer-above"><path class="xtick ticks crisp" d="M0,421v5" transform="translate(80,0)" style="stroke: rgb(51, 51, 51); stroke-opacity: 1; stroke-width: 1px;"/><path class="xtick ticks crisp" d="M0,421v5" transform="translate(190.2,0)" style="stroke: rgb(51, 51, 51); stroke-opacity: 1; stroke-width: 1px;"/><path class="xtick ticks crisp" d="M0,421v5" transform="translate(300.40999999999997,0)" style="stroke: rgb(51, 51, 51); stroke-opacity: 1; stroke-width: 1px;"/><path class="xtick ticks crisp" d="M0,421v5" transform="translate(410.61,0)" style="stroke: rgb(51, 51, 51); stroke-opacity: 1; stroke-width: 1px;"/><path class="xtick ticks crisp" d="M0,421v5" transform="translate(520.8199999999999,0)" style="stroke: rgb(51, 51, 51); stroke-opacity: 1; stroke-width: 1px;"/><g class="xtick"><text text-anchor="middle" x="0" y="440.4" transform="translate(80,0)" style="font-family: 'Open Sans', verdana, arial, sans-serif; font-size: 12px; fill: rgb(51, 51, 51); fill-opacity: 1; white-space: pre; opacity: 1;">0</text></g><g class="xtick"><text text-anchor="middle" x="0" y="440.4" style="font-family: 'Open Sans', verdana, arial, sans-serif; font-size: 12px; fill: rgb(51, 51, 51); fill-opacity: 1; white-space: pre; opacity: 1;" transform="translate(190.2,0)">10</text></g><g class="xtick"><text text-anchor="middle" x="0" y="440.4" style="font-family: 'Open Sans', verdana, arial, sans-serif; font-size: 12px; fill: rgb(51, 51, 51); fill-opacity: 1; white-space: pre; opacity: 1;" transform="translate(300.40999999999997,0)">20</text></g><g class="xtick"><text text-anchor="middle" x="0" y="440.4" style="font-family: 'Open Sans', verdana, arial, sans-serif; font-size: 12px; fill: rgb(51, 51, 51); fill-opacity: 1; white-space: pre; opacity: 1;" transform="translate(410.61,0)">30</text></g><g class="xtick"><text text-anchor="middle" x="0" y="440.4" style="font-family: 'Open Sans', verdana, arial, sans-serif; font-size: 12px; fill: rgb(51, 51, 51); fill-opacity: 1; white-space: pre; opacity: 1;" transform="translate(520.8199999999999,0)">40</text></g></g><g class="yaxislayer-above"><path class="ytick ticks crisp" d="M79,0h-5" transform="translate(0,411.68)" style="stroke: rgb(51, 51, 51); stroke-opacity: 1; stroke-width: 1px;"/><path class="ytick ticks crisp" d="M79,0h-5" transform="translate(0,362.74)" style="stroke: rgb(51, 51, 51); stroke-opacity: 1; stroke-width: 1px;"/><path class="ytick ticks crisp" d="M79,0h-5" transform="translate(0,313.78999999999996)" style="stroke: rgb(51, 51, 51); stroke-opacity: 1; stroke-width: 1px;"/><path class="ytick ticks crisp" d="M79,0h-5" transform="translate(0,264.85)" style="stroke: rgb(51, 51, 51); stroke-opacity: 1; stroke-width: 1px;"/><path class="ytick ticks crisp" d="M79,0h-5" transform="translate(0,215.9)" style="stroke: rgb(51, 51, 51); stroke-opacity: 1; stroke-width: 1px;"/><path class="ytick ticks crisp" d="M79,0h-5" transform="translate(0,166.95999999999998)" style="stroke: rgb(51, 51, 51); stroke-opacity: 1; stroke-width: 1px;"/><path class="ytick ticks crisp" d="M79,0h-5" transform="translate(0,118.01)" style="stroke: rgb(51, 51, 51); stroke-opacity: 1; stroke-width: 1px;"/><g class="ytick"><text text-anchor="end" x="71.6" y="4.199999999999999" transform="translate(0,411.68)" style="font-family: 'Open Sans', verdana, arial, sans-serif; font-size: 12px; fill: rgb(51, 51, 51); fill-opacity: 1; white-space: pre; opacity: 1;">4</text></g><g class="ytick"><text text-anchor="end" x="71.6" y="4.199999999999999" style="font-family: 'Open Sans', verdana, arial, sans-serif; font-size: 12px; fill: rgb(51, 51, 51); fill-opacity: 1; white-space: pre; opacity: 1;" transform="translate(0,362.74)">6</text></g><g class="ytick"><text text-anchor="end" x="71.6" y="4.199999999999999" style="font-family: 'Open Sans', verdana, arial, sans-serif; font-size: 12px; fill: rgb(51, 51, 51); fill-opacity: 1; white-space: pre; opacity: 1;" transform="translate(0,313.78999999999996)">8</text></g><g class="ytick"><text text-anchor="end" x="71.6" y="4.199999999999999" style="font-family: 'Open Sans', verdana, arial, sans-serif; font-size: 12px; fill: rgb(51, 51, 51); fill-opacity: 1; white-space: pre; opacity: 1;" transform="translate(0,264.85)">10</text></g><g class="ytick"><text text-anchor="end" x="71.6" y="4.199999999999999" style="font-family: 'Open Sans', verdana, arial, sans-serif; font-size: 12px; fill: rgb(51, 51, 51); fill-opacity: 1; white-space: pre; opacity: 1;" transform="translate(0,215.9)">12</text></g><g class="ytick"><text text-anchor="end" x="71.6" y="4.199999999999999" style="font-family: 'Open Sans', verdana, arial, sans-serif; font-size: 12px; fill: rgb(51, 51, 51); fill-opacity: 1; white-space: pre; opacity: 1;" transform="translate(0,166.95999999999998)">14</text></g><g class="ytick"><text text-anchor="end" x="71.6" y="4.199999999999999" style="font-family: 'Open Sans', verdana, arial, sans-serif; font-size: 12px; fill: rgb(51, 51, 51); fill-opacity: 1; white-space: pre; opacity: 1;" transform="translate(0,118.01)">16</text></g></g><g class="overaxes-above"/></g></g><g class="polarlayer"/><g class="ternarylayer"/><g class="geolayer"/><g class="funnelarealayer"/><g class="pielayer"/><g class="iciclelayer"/><g class="treemaplayer"/><g class="sunburstlayer"/><g class="glimages"/><defs id="topdefs-000d0b"><g class="clips"/></defs><g class="layer-above"><g class="imagelayer"/><g class="shapelayer"/></g><g class="infolayer"><g class="g-gtitle"><text class="gtitle" x="350" y="50" text-anchor="middle" dy="0em" style="font-family: 'Open Sans', verdana, arial, sans-serif; font-size: 17px; fill: rgb(51, 51, 51); opacity: 1; font-weight: normal; white-space: pre;">Train Loss: ascad_v1_vk_0_noisy-aisy_mlp_id (original)</text></g><g class="g-xtitle"/><g class="g-ytitle"/></g></svg>