<svg class="main-svg" xmlns="http://www.w3.org/2000/svg" xmlns:xlink="http://www.w3.org/1999/xlink" width="700" height="500" style="" viewBox="0 0 700 500"><rect x="0" y="0" width="700" height="500" style="fill: rgb(255, 255, 255); fill-opacity: 1;"/><defs id="defs-430f41"><g class="clips"><clipPath id="clip430f41xyplot" class="plotclip"><rect width="540" height="320"/></clipPath><clipPath class="axesclip" id="clip430f41x"><rect x="80" y="0" width="540" height="500"/></clipPath><clipPath class="axesclip" id="clip430f41y"><rect x="0" y="100" width="700" height="320"/></clipPath><clipPath class="axesclip" id="clip430f41xy"><rect x="80" y="100" width="540" height="320"/></clipPath></g><g class="gradients"/><g class="patterns"/></defs><g class="bglayer"><rect class="bg" x="80" y="100" width="540" height="320" style="fill: rgb(237, 237, 237); fill-opacity: 1; stroke-width: 0;"/></g><g class="layer-below"><g class="imagelayer"/><g class="shapelayer"/></g><g class="cartesianlayer"><g class="subplot xy"><g class="layer-subplot"><g class="shapelayer"/><g class="imagelayer"/></g><g class="gridlayer"><g class="x"><path class="xgrid crisp" transform="translate(190.2,0)" d="M0,100v320" style="stroke: rgb(255, 255, 255); stroke-opacity: 1; stroke-width: 1px;"/><path class="xgrid crisp" transform="translate(300.40999999999997,0)" d="M0,100v320" style="stroke: rgb(255, 255, 255); stroke-opacity: 1; stroke-width: 1px;"/><path class="xgrid crisp" transform="translate(410.61,0)" d="M0,100v320" style="stroke: rgb(255, 255, 255); stroke-opacity: 1; stroke-width: 1px;"/><path class="xgrid crisp" transform="translate(520.8199999999999,0)" d="M0,100v320" style="stroke: rgb(255, 255, 255); stroke-opacity: 1; stroke-width: 1px;"/></g><g class="y"><path class="ygrid crisp" transform="translate(0,393.83)" d="M80,0h540" style="stroke: rgb(255, 255, 255); stroke-opacity: 1; stroke-width: 1px;"/><path class="ygrid crisp" transform="translate(0,335.13)" d="M80,0h540" style="stroke: rgb(255, 255, 255); stroke-opacity: 1; stroke-width: 1px;"/><path class="ygrid crisp" transform="translate(0,276.43)" d="M80,0h540" style="stroke: rgb(255, 255, 255); stroke-opacity: 1; stroke-width: 1px;"/><path class="ygrid crisp" transform="translate(0,217.74)" d="M80,0h540" style="stroke: rgb(255, 255, 255); stroke-opacity: 1; stroke-width: 1px;"/><path class="ygrid crisp" transform="translate(0,159.04)" d="M80,0h540" style="stroke: rgb(255, 255, 255); stroke-opacity: 1; stroke-width: 1px;"/></g></g><g class="zerolinelayer"><path class="xzl zl crisp" transform="translate(80,0)" d="M0,100v320" style="stroke: rgb(255, 255, 255); stroke-opacity: 1; stroke-width: 1px;"/></g><path class="xlines-below"/><path class="ylines-below"/><g class="overlines-below"/><g class="xaxislayer-below"/><g class="yaxislayer-below"/><g class="overaxes-below"/><g class="plot" transform="translate(80,100)" clip-path="url(#clip430f41xyplot)"><g class="scatterlayer mlayer"><g class="trace scatter trace9b29ff" style="stroke-miterlimit: 2; opacity: 1;"><g class="fills"/><g class="errorbars"/><g class="lines"><path class="js-line" d="M0,301.59L11.02,272.63L22.04,256.98L33.06,255.41L44.08,251.57L55.1,251.96L66.12,249.87L77.14,244.52L88.16,243.48L99.18,240.22L110.2,244.59L121.22,238.98L132.24,238.72L143.27,232.33L154.29,238.39L165.31,231.54L176.33,239.96L187.35,233.04L198.37,231.22L209.39,229.46L220.41,231.61L231.43,220.13L242.45,228.02L253.47,213.74L264.49,213.15L275.51,209.76L286.53,207.67L297.55,215.37L308.57,198.67L319.59,199.46L330.61,188.76L341.63,188.17L352.65,182.3L363.67,178.78L374.69,171.54L396.73,155.63L407.76,158.04L418.78,148.91L429.8,135.09L440.82,131.57L451.84,124.26L462.86,119.24L473.88,116.76L484.9,104.96L495.92,101.04L506.94,83.63L517.96,92.96L528.98,80.89L540,65.24" style="vector-effect: non-scaling-stroke; fill: none; stroke: rgb(248, 118, 109); stroke-opacity: 1; stroke-width: 2px; opacity: 1;"/></g><g class="points"/><g class="text"/></g><g class="trace scatter trace238be3" style="stroke-miterlimit: 2; opacity: 1;"><g class="fills"/><g class="errorbars"/><g class="lines"><path class="js-line" d="M0,294.41L22.04,254.57L33.06,262.26L44.08,252.74L55.1,248.3L66.12,251.37L77.14,251.5L88.16,247.07L99.18,247.78L110.2,247.91L121.22,239.3L132.24,237.02L143.27,238.98L165.31,232.91L176.33,228.93L198.37,229.98L209.39,224.96L220.41,226.78L231.43,217.98L242.45,219.41L253.47,213.48L264.49,213.54L275.51,209.24L286.53,201.8L297.55,205L308.57,197.37L319.59,198.02L341.63,190.26L352.65,183.8L374.69,178.72L385.71,171.74L396.73,171.8L407.76,159.41L418.78,158.57L429.8,148.26L440.82,154.52L451.84,134.5L462.86,139.26L473.88,134.96L484.9,135.09L495.92,121.26L506.94,127.07L517.96,104.89L528.98,109.13L540,100.65" style="vector-effect: non-scaling-stroke; fill: none; stroke: rgb(163, 165, 0); stroke-opacity: 1; stroke-width: 2px; opacity: 1;"/></g><g class="points"/><g class="text"/></g><g class="trace scatter tracef0379f" style="stroke-miterlimit: 2; opacity: 1;"><g class="fills"/><g class="errorbars"/><g class="lines"><path class="js-line" d="M0,289.78L11.02,269.89L22.04,259.78L33.06,258.15L44.08,253.52L55.1,247.78L66.12,247.13L77.14,243.87L88.16,244.91L110.2,241.91L121.22,240.74L132.24,240.09L143.27,237.74L154.29,237.15L165.31,232.33L176.33,232.72L187.35,231.09L198.37,224.63L209.39,225.48L220.41,225.87L231.43,221.96L242.45,219.41L253.47,215.11L264.49,218.63L275.51,209.83L286.53,202.39L297.55,206.37L308.57,198.54L319.59,189.67L330.61,182.83L341.63,178.98L352.65,170.57L363.67,168.67L374.69,161.63L385.71,163.13L396.73,147.35L407.76,148.65L418.78,140.17L429.8,128.89L440.82,126.74L451.84,119.83L462.86,106L473.88,94.26L484.9,94L495.92,87.48L506.94,77.83L517.96,80.76L528.98,64.39L540,59.57" style="vector-effect: non-scaling-stroke; fill: none; stroke: rgb(0, 191, 125); stroke-opacity: 1; stroke-width: 2px; opacity: 1;"/></g><g class="points"/><g class="text"/></g><g class="trace scatter tracefda618" style="stroke-miterlimit: 2; opacity: 1;"><g class="fills"/><g class="errorbars"/><g class="lines"><path class="js-line" d="M0,301.98L11.02,270.41L22.04,260.17L33.06,249.74L44.08,259.2L55.1,250.59L66.12,248.37L88.16,245.17L99.18,245.5L110.2,237.15L121.22,238.39L132.24,236.96L143.27,239.3L154.29,232.46L165.31,230.7L176.33,230.89L187.35,228.28L198.37,223.39L209.39,223.65L220.41,215.3L231.43,218.17L242.45,212.5L253.47,210.8L264.49,207.8L275.51,210.41L286.53,194.57L297.55,194.37L308.57,199.46L319.59,185.96L330.61,180.54L341.63,179.57L352.65,170.5L363.67,164.89L374.69,153.15L385.71,142.98L396.73,148.46L407.76,132.74L418.78,126.74L429.8,121.65L440.82,103.39L451.84,114.09L462.86,89.43L473.88,88.2L484.9,77.7L495.92,65.5L506.94,50.17L517.96,59.3L528.98,40.78L540,34.91" style="vector-effect: non-scaling-stroke; fill: none; stroke: rgb(0, 176, 246); stroke-opacity: 1; stroke-width: 2px; opacity: 1;"/></g><g class="points"/><g class="text"/></g><g class="trace scatter trace670166" style="stroke-miterlimit: 2; opacity: 1;"><g class="fills"/><g class="errorbars"/><g class="lines"><path class="js-line" d="M0,286.39L11.02,259.78L22.04,258.22L33.06,257.3L44.08,251.3L55.1,256.2L66.12,250.78L77.14,248.5L88.16,251.04L99.18,243.09L110.2,240.61L132.24,243.67L143.27,241.52L154.29,236.37L165.31,237.61L187.35,228.74L198.37,229.2L220.41,226.98L231.43,218.83L253.47,216.35L264.49,208.46L275.51,213.54L286.53,213.48L297.55,214.39L308.57,203.89L319.59,206.76L330.61,199.52L341.63,192.48L352.65,192.48L363.67,194.7L374.69,180.8L396.73,168.28L407.76,170.17L418.78,158.89L429.8,155.37L440.82,147.54L451.84,143.96L462.86,139.39L473.88,132.02L484.9,124.46L495.92,113.43L517.96,108.35L528.98,89.57L540,89.96" style="vector-effect: non-scaling-stroke; fill: none; stroke: rgb(231, 107, 243); stroke-opacity: 1; stroke-width: 2px; opacity: 1;"/></g><g class="points"/><g class="text"/></g><g class="trace scatter trace3facb0" style="stroke-miterlimit: 2; opacity: 1;"><g class="fills"/><g class="errorbars"/><g class="lines"><path class="js-line" d="M0,299.76L11.02,276.8L22.04,261.15L33.06,254.57L44.08,256.2L55.1,251.11L66.12,250.98L77.14,251.17L88.16,241.52L99.18,247.98L110.2,241.26L121.22,245.17L132.24,241.78L154.29,242.63L165.31,241.2L176.33,233.89L187.35,236.3L198.37,232.39L209.39,223.98L220.41,226.39L231.43,217.91L242.45,215.76L253.47,208.26L264.49,211.85L275.51,206.17L286.53,204.02L297.55,198.09L308.57,187.13L319.59,187.59L330.61,192.35L341.63,181.2L352.65,176.5L363.67,173.76L374.69,163.07L385.71,161.83L396.73,154.13L407.76,150.15L418.78,141.74L429.8,137.11L440.82,128.57L451.84,118.2L462.86,113.89L473.88,101.89L484.9,93.15L495.92,87.28L506.94,75.41L517.96,73.2L528.98,51.93L540,43.91" style="vector-effect: non-scaling-stroke; fill: none; stroke: rgb(248, 118, 109); stroke-opacity: 1; stroke-width: 2px; opacity: 1;"/></g><g class="points"/><g class="text"/></g><g class="trace scatter trace46e591" style="stroke-miterlimit: 2; opacity: 1;"><g class="fills"/><g class="errorbars"/><g class="lines"><path class="js-line" d="M0,303.41L11.02,268.39L22.04,259.72L33.06,258.87L44.08,244.65L55.1,252.74L66.12,250.65L77.14,252.28L88.16,238.98L99.18,245.04L110.2,245.24L121.22,234.61L132.24,238.07L143.27,239.11L154.29,230.89L165.31,232.98L176.33,231.22L187.35,234.48L198.37,229L209.39,230.96L220.41,227.3L231.43,216.67L242.45,221.3L253.47,216.74L264.49,217.65L275.51,204.8L286.53,199.13L297.55,196.65L308.57,203.43L319.59,198.28L330.61,192.09L341.63,185.11L352.65,185.7L363.67,179.43L374.69,176.83L385.71,168.15L396.73,164.76L407.76,153.48L418.78,151.26L429.8,145.91L440.82,136.2L451.84,132.54L462.86,125.17L473.88,104.43L484.9,106.59L495.92,93.28L506.94,86.37L528.98,65.24L540,61" style="vector-effect: non-scaling-stroke; fill: none; stroke: rgb(163, 165, 0); stroke-opacity: 1; stroke-width: 2px; opacity: 1;"/></g><g class="points"/><g class="text"/></g><g class="trace scatter tracedbec7e" style="stroke-miterlimit: 2; opacity: 1;"><g class="fills"/><g class="errorbars"/><g class="lines"><path class="js-line" d="M0,295.26L11.02,271.33L22.04,263.83L44.08,252.22L55.1,250.46L66.12,252.61L77.14,255.8L88.16,239.76L99.18,245.11L110.2,242.83L121.22,238.26L143.27,240.41L154.29,232.46L165.31,237.09L176.33,232.33L187.35,237.48L198.37,226.46L209.39,221.89L220.41,226.65L231.43,227.76L242.45,223.07L253.47,220.85L264.49,211.65L286.53,205.65L297.55,197.76L308.57,200.04L319.59,191.37L330.61,194.76L341.63,185.24L352.65,179.57L363.67,172.26L374.69,170.5L385.71,162.22L396.73,166L407.76,150.87L418.78,148.26L429.8,149.5L440.82,141.48L451.84,125.17L473.88,115.2L484.9,113.63L495.92,100.26L506.94,95.83L517.96,84.61L528.98,82.65L540,77.17" style="vector-effect: non-scaling-stroke; fill: none; stroke: rgb(0, 191, 125); stroke-opacity: 1; stroke-width: 2px; opacity: 1;"/></g><g class="points"/><g class="text"/></g><g class="trace scatter trace89bb93" style="stroke-miterlimit: 2; opacity: 1;"><g class="fills"/><g class="errorbars"/><g class="lines"><path class="js-line" d="M0,298.59L11.02,270.02L22.04,252.93L33.06,253.26L44.08,251.24L55.1,244.52L66.12,244.13L77.14,248.57L88.16,245.7L99.18,241.72L110.2,245.3L132.24,237.15L143.27,236.3L154.29,236.89L165.31,235.65L176.33,226.33L187.35,229.59L198.37,225.35L209.39,227.43L220.41,227.76L231.43,225.61L242.45,220.2L253.47,217.46L264.49,217.13L275.51,211.78L286.53,204.61L297.55,202.52L308.57,194.7L319.59,193.91L330.61,184.78L341.63,186.15L352.65,187.26L363.67,175.46L374.69,172.72L385.71,169.07L396.73,161.96L407.76,150.93L418.78,140.96L429.8,141.22L440.82,134.63L451.84,134.11L462.86,119.76L473.88,116.43L484.9,118L495.92,98.5L506.94,94.78L517.96,85.52L528.98,85.07L540,75.09" style="vector-effect: non-scaling-stroke; fill: none; stroke: rgb(0, 176, 246); stroke-opacity: 1; stroke-width: 2px; opacity: 1;"/></g><g class="points"/><g class="text"/></g><g class="trace scatter tracea8a05c" style="stroke-miterlimit: 2; opacity: 1;"><g class="fills"/><g class="errorbars"/><g class="lines"><path class="js-line" d="M0,292.46L11.02,265.33L22.04,261.41L33.06,255.8L44.08,255.61L55.1,255.09L66.12,245.89L77.14,247.2L88.16,247.13L99.18,240.28L110.2,247.59L121.22,236.83L132.24,246.87L143.27,239.24L154.29,233.83L176.33,234.67L187.35,233.37L198.37,226.72L209.39,226.13L220.41,219.93L231.43,225.54L242.45,220.46L253.47,216.35L264.49,209.11L275.51,210.28L286.53,200.11L297.55,199.91L308.57,193.52L319.59,193.52L330.61,185.7L341.63,180.93L352.65,172.78L363.67,171.02L374.69,170.5L385.71,161.57L396.73,155.5L407.76,142.78L418.78,141.8L429.8,130.52L440.82,126.35L451.84,120.8L462.86,105.02L473.88,104.43L484.9,95.11L495.92,90.93L506.94,79.52L517.96,76.33L528.98,73.07L540,66.09" style="vector-effect: non-scaling-stroke; fill: none; stroke: rgb(231, 107, 243); stroke-opacity: 1; stroke-width: 2px; opacity: 1;"/></g><g class="points"/><g class="text"/></g><g class="trace scatter trace8a2c0c" style="stroke-miterlimit: 2; opacity: 1;"><g class="fills"/><g class="errorbars"/><g class="lines"><path class="js-line" d="M0,298.78L11.02,270.8L22.04,261.02L33.06,254.57L44.08,252.87L55.1,255.22L66.12,250.2L77.14,246.67L88.16,246.28L99.18,248.57L110.2,239.3L121.22,241L132.24,241.91L143.27,233.7L154.29,233.43L165.31,230.3L176.33,229.65L187.35,230.96L198.37,222.61L209.39,223L220.41,225.09L242.45,223.78L253.47,215.17L264.49,212.76L275.51,211.46L286.53,207.8L297.55,209.7L308.57,206.57L319.59,194.76L330.61,192.02L341.63,196.78L352.65,184.39L363.67,190.52L374.69,180.48L385.71,178.85L396.73,171.22L407.76,169.33L418.78,158.3L429.8,162.02L440.82,156.02L451.84,154.78L462.86,151.33L473.88,139.52L484.9,138.41L495.92,128.96L506.94,132.35L517.96,125.83L528.98,116.89L540,125.83" style="vector-effect: non-scaling-stroke; fill: none; stroke: rgb(248, 118, 109); stroke-opacity: 1; stroke-width: 2px; opacity: 1;"/></g><g class="points"/><g class="text"/></g><g class="trace scatter tracee23243" style="stroke-miterlimit: 2; opacity: 1;"><g class="fills"/><g class="errorbars"/><g class="lines"><path class="js-line" d="M0,304L11.02,270.93L22.04,262.33L33.06,251.11L44.08,248.37L55.1,254.57L66.12,251.17L88.16,248.83L99.18,245.7L110.2,245.43L121.22,242.63L143.27,239.7L154.29,235.98L165.31,236.04L176.33,238.98L187.35,229.07L198.37,234.93L209.39,226.52L220.41,210.61L231.43,222.67L242.45,209.43L253.47,211.52L264.49,210.15L275.51,208.46L286.53,203.04L308.57,188.11L319.59,176.63L330.61,177.41L341.63,170.04L352.65,164.17L363.67,155.96L385.71,138.22L396.73,134.89L407.76,121.78L418.78,122.5L429.8,115.85L440.82,105.35L451.84,100.46L462.86,89.83L473.88,86.43L484.9,75.02L495.92,70.33L506.94,59.37L517.96,51.02L528.98,49.39L540,40.46" style="vector-effect: non-scaling-stroke; fill: none; stroke: rgb(163, 165, 0); stroke-opacity: 1; stroke-width: 2px; opacity: 1;"/></g><g class="points"/><g class="text"/></g><g class="trace scatter traceb72eca" style="stroke-miterlimit: 2; opacity: 1;"><g class="fills"/><g class="errorbars"/><g class="lines"><path class="js-line" d="M0,292.65L11.02,271.33L22.04,259.65L33.06,263.04L44.08,254.5L55.1,252.15L66.12,246.61L77.14,246.93L88.16,239.89L110.2,240.35L121.22,239.43L132.24,240.35L143.27,236.83L154.29,234.28L165.31,237.02L176.33,232.52L187.35,224.3L198.37,219.67L209.39,223.78L220.41,219.02L231.43,220.65L242.45,218.17L253.47,209.63L264.49,209.11L275.51,207.74L286.53,208.46L297.55,199.13L308.57,191.63L319.59,188.57L330.61,188.24L341.63,173.37L352.65,173.17L363.67,155.5L374.69,150.54L385.71,142.39L396.73,138.61L407.76,132.54L418.78,119.89L429.8,125.11L440.82,104.83L451.84,102.54L462.86,88.59L473.88,92.96L484.9,85.72L495.92,79.46L506.94,64.52L517.96,57.48L528.98,44.3L540,35.63" style="vector-effect: non-scaling-stroke; fill: none; stroke: rgb(0, 191, 125); stroke-opacity: 1; stroke-width: 2px; opacity: 1;"/></g><g class="points"/><g class="text"/></g><g class="trace scatter tracefffeb4" style="stroke-miterlimit: 2; opacity: 1;"><g class="fills"/><g class="errorbars"/><g class="lines"><path class="js-line" d="M0,292L11.02,268.2L22.04,261.35L33.06,259.59L44.08,260.37L55.1,249.15L66.12,248.83L77.14,245.63L88.16,244.65L99.18,244.07L110.2,245.17L121.22,238.13L132.24,242.57L143.27,237.93L154.29,239.89L165.31,230.57L176.33,229.46L187.35,230.04L198.37,231.93L209.39,231.09L220.41,228.48L231.43,224.43L242.45,226.85L253.47,212.24L264.49,212.7L275.51,207.87L286.53,212.37L297.55,210.67L308.57,197.96L319.59,200.11L330.61,198.28L341.63,185.76L352.65,177.35L363.67,180.93L374.69,170.96L385.71,165.67L396.73,152.24L407.76,159.22L418.78,145.26L429.8,142.07L440.82,127.85L451.84,125.89L462.86,114.28L473.88,100.85L484.9,106.2L495.92,99.28L506.94,93.61L517.96,86.17L528.98,75.54L540,71.5" style="vector-effect: non-scaling-stroke; fill: none; stroke: rgb(0, 176, 246); stroke-opacity: 1; stroke-width: 2px; opacity: 1;"/></g><g class="points"/><g class="text"/></g><g class="trace scatter tracec853ec" style="stroke-miterlimit: 2; opacity: 1;"><g class="fills"/><g class="errorbars"/><g class="lines"><path class="js-line" d="M0,297.61L11.02,272.24L22.04,261.41L33.06,253.59L44.08,248.11L66.12,246.22L77.14,248.89L88.16,246.09L99.18,245.5L121.22,240.09L132.24,243.15L143.27,231.54L154.29,236.04L165.31,238.26L176.33,229.72L187.35,237.54L198.37,235.72L209.39,223.78L220.41,228.02L231.43,221.04L242.45,225.22L253.47,218.04L264.49,222.28L275.51,210.61L286.53,208.52L297.55,204.09L308.57,195.22L319.59,196.39L330.61,195.54L341.63,188.83L352.65,190.52L363.67,182.83L374.69,181.78L385.71,166.85L396.73,160.98L407.76,148.98L418.78,144.48L429.8,131.96L440.82,118.2L451.84,118.59L462.86,111.61L473.88,93.61L484.9,81.87L506.94,63.93L517.96,64.2L528.98,39.22L540,29.24" style="vector-effect: non-scaling-stroke; fill: none; stroke: rgb(231, 107, 243); stroke-opacity: 1; stroke-width: 2px; opacity: 1;"/></g><g class="points"/><g class="text"/></g><g class="trace scatter trace690900" style="stroke-miterlimit: 2; opacity: 1;"><g class="fills"/><g class="errorbars"/><g class="lines"><path class="js-line" d="M0,297.48L11.02,274.26L22.04,257.37L33.06,260.76L44.08,253.39L55.1,249.15L66.12,243.93L77.14,241.91L88.16,238.39L99.18,246.93L110.2,244.78L121.22,241.33L132.24,235.91L143.27,231.02L154.29,244.65L176.33,228.54L187.35,232.65L198.37,232.33L209.39,222.74L220.41,223.78L231.43,221.17L242.45,218.76L253.47,210.15L264.49,212.57L275.51,204.67L286.53,207.22L297.55,205.39L308.57,191.83L319.59,194.37L330.61,189.22L341.63,188.7L352.65,180.15L363.67,175.33L374.69,168.28L385.71,162.15L396.73,165.93L407.76,156.09L418.78,151.59L429.8,150.48L440.82,142.98L451.84,132.87L462.86,126.61L473.88,118.72L484.9,111.41L495.92,106L506.94,104.11L517.96,93.93L528.98,88.39L540,74.57" style="vector-effect: non-scaling-stroke; fill: none; stroke: rgb(248, 118, 109); stroke-opacity: 1; stroke-width: 2px; opacity: 1;"/></g><g class="points"/><g class="text"/></g><g class="trace scatter trace5a1afb" style="stroke-miterlimit: 2; opacity: 1;"><g class="fills"/><g class="errorbars"/><g class="lines"><path class="js-line" d="M0,303.28L11.02,263.96L22.04,265.26L33.06,256.2L44.08,250.39L55.1,249.87L66.12,246.87L88.16,237.54L99.18,238.46L110.2,243.8L121.22,235.98L132.24,235.07L143.27,236.83L165.31,233.83L176.33,234.54L187.35,232.33L198.37,233.04L209.39,220.2L220.41,221.89L231.43,221.57L242.45,218.89L253.47,212.24L264.49,214.13L275.51,205.13L286.53,203.89L308.57,190.59L319.59,186.09L330.61,185.43L341.63,190.78L352.65,170.57L363.67,165.87L374.69,161.04L385.71,163.07L396.73,157.85L407.76,148.26L418.78,146.04L429.8,139.72L440.82,133.72L451.84,123.15L462.86,123.09L473.88,122.11L484.9,116.37L495.92,104.17L506.94,97.2L517.96,93.35L528.98,88.26L540,88.91" style="vector-effect: non-scaling-stroke; fill: none; stroke: rgb(163, 165, 0); stroke-opacity: 1; stroke-width: 2px; opacity: 1;"/></g><g class="points"/><g class="text"/></g><g class="trace scatter trace6e70ab" style="stroke-miterlimit: 2; opacity: 1;"><g class="fills"/><g class="errorbars"/><g class="lines"><path class="js-line" d="M0,303.22L11.02,266.89L22.04,258.93L33.06,251.3L44.08,256.85L55.1,250.78L66.12,253.46L77.14,243.74L88.16,245.7L99.18,239.83L110.2,246.02L121.22,244.85L132.24,242.04L143.27,235.33L154.29,239.3L165.31,231.93L176.33,225.48L187.35,229.13L198.37,230.7L209.39,231.61L220.41,226.85L231.43,226.2L242.45,219.22L264.49,211.65L275.51,198.22L286.53,206.5L297.55,198.15L308.57,192.35L319.59,189.15L330.61,185.7L341.63,179.11L352.65,172L363.67,160.46L374.69,164.76L385.71,146.24L407.76,141.09L418.78,135.48L429.8,114.93L440.82,118.13L451.84,117.61L462.86,96.15L473.88,92.5L484.9,81.28L495.92,70.59L506.94,61.78L517.96,52.07L528.98,30.67L540,36.02" style="vector-effect: non-scaling-stroke; fill: none; stroke: rgb(0, 191, 125); stroke-opacity: 1; stroke-width: 2px; opacity: 1;"/></g><g class="points"/><g class="text"/></g><g class="trace scatter trace7f069f" style="stroke-miterlimit: 2; opacity: 1;"><g class="fills"/><g class="errorbars"/><g class="lines"><path class="js-line" d="M0,292.26L11.02,271.13L22.04,262.33L44.08,253.33L55.1,249.35L66.12,245.83L77.14,245.3L88.16,246.87L99.18,244.52L110.2,242.37L121.22,237.61L132.24,238.91L143.27,234.28L154.29,234.15L165.31,237.09L176.33,235.39L187.35,228.54L198.37,229.59L209.39,229.78L220.41,228.28L231.43,224.63L242.45,216.48L253.47,205.78L264.49,215.37L275.51,212.3L286.53,212.11L297.55,204.35L308.57,205.98L319.59,195.22L330.61,193.72L341.63,193.52L352.65,178.85L363.67,182.5L374.69,164.37L385.71,156.22L396.73,162.61L407.76,156.28L418.78,147.28L429.8,139.65L440.82,130.46L451.84,129.74L462.86,118.98L473.88,106.07L484.9,108.61L495.92,91.2L506.94,89.3L517.96,76.98L528.98,77.24L540,58.98" style="vector-effect: non-scaling-stroke; fill: none; stroke: rgb(0, 176, 246); stroke-opacity: 1; stroke-width: 2px; opacity: 1;"/></g><g class="points"/><g class="text"/></g><g class="trace scatter trace545569" style="stroke-miterlimit: 2; opacity: 1;"><g class="fills"/><g class="errorbars"/><g class="lines"><path class="js-line" d="M0,303.8L11.02,271.39L22.04,266.5L33.06,258.15L44.08,253.59L55.1,248.96L66.12,247.59L88.16,246.67L99.18,240.22L110.2,243.22L121.22,238.85L132.24,234.41L143.27,242.63L154.29,236.17L165.31,234.87L176.33,234.48L187.35,232.2L198.37,237.48L209.39,231.67L220.41,229.91L231.43,224.76L242.45,229.39L253.47,218.7L264.49,217.72L275.51,213.87L286.53,210.8L297.55,202.46L308.57,204.54L319.59,201.8L330.61,202.85L341.63,198.02L352.65,199.59L363.67,182.17L374.69,178.65L385.71,182.83L396.73,174.48L407.76,173.7L418.78,171.48L429.8,161.57L440.82,162.87L451.84,159.15L462.86,153.48L473.88,140.24L484.9,141.28L495.92,130.65L506.94,126.74L517.96,119.76L528.98,117.22L540,113.7" style="vector-effect: non-scaling-stroke; fill: none; stroke: rgb(231, 107, 243); stroke-opacity: 1; stroke-width: 2px; opacity: 1;"/></g><g class="points"/><g class="text"/></g><g class="trace scatter trace0766ee" style="stroke-miterlimit: 2; opacity: 1;"><g class="fills"/><g class="errorbars"/><g class="lines"><path class="js-line" d="M0,300.02L11.02,272.7L22.04,257.96L33.06,255.22L44.08,250L55.1,251.83L66.12,248.04L77.14,237.48L88.16,242.89L99.18,238.91L110.2,238.46L143.27,238.13L154.29,236.76L165.31,234.48L176.33,226.65L187.35,228.28L198.37,222.8L209.39,229.46L220.41,226.26L231.43,223.65L242.45,224.17L253.47,219.74L264.49,205.39L275.51,209.43L286.53,214.46L297.55,207.67L308.57,205.26L319.59,200.89L330.61,188.17L341.63,180.67L352.65,183.28L363.67,173.63L374.69,181.33L385.71,165.09L396.73,164.5L418.78,150.87L429.8,140.63L440.82,131.76L451.84,129.8L473.88,117.15L484.9,106.65L495.92,96.67L506.94,82L517.96,85.33L528.98,64.13L540,70.52" style="vector-effect: non-scaling-stroke; fill: none; stroke: rgb(248, 118, 109); stroke-opacity: 1; stroke-width: 2px; opacity: 1;"/></g><g class="points"/><g class="text"/></g><g class="trace scatter trace67791b" style="stroke-miterlimit: 2; opacity: 1;"><g class="fills"/><g class="errorbars"/><g class="lines"><path class="js-line" d="M0,303.8L11.02,270.74L22.04,257.43L33.06,255.74L44.08,252.61L55.1,247.52L66.12,248.3L77.14,244.33L88.16,242.76L99.18,247.33L110.2,242.3L121.22,235L132.24,240.8L143.27,235.33L154.29,239.3L165.31,229.72L176.33,235.65L187.35,228.02L198.37,224.04L209.39,222.28L220.41,224.57L231.43,219.15L242.45,215.5L253.47,215.63L264.49,211.07L275.51,205.46L286.53,201.22L297.55,194.17L308.57,192.15L319.59,183.93L330.61,179.7L341.63,167.43L352.65,164.89L363.67,152.11L374.69,147.41L385.71,134.37L396.73,127.2L407.76,121.07L418.78,120.35L429.8,109.91L440.82,104.17L451.84,92.5L462.86,88.91L473.88,79.98L484.9,79L495.92,58.33L506.94,56.3L517.96,46.46L528.98,35.11L540,33.48" style="vector-effect: non-scaling-stroke; fill: none; stroke: rgb(163, 165, 0); stroke-opacity: 1; stroke-width: 2px; opacity: 1;"/></g><g class="points"/><g class="text"/></g><g class="trace scatter tracee8a569" style="stroke-miterlimit: 2; opacity: 1;"><g class="fills"/><g class="errorbars"/><g class="lines"><path class="js-line" d="M0,297.15L11.02,272.3L22.04,255.15L33.06,254.3L44.08,256.72L55.1,254.57L66.12,246.74L77.14,252.8L88.16,246.41L99.18,246.8L110.2,241.72L121.22,244.2L132.24,241.98L154.29,241.33L165.31,232.72L176.33,231.15L187.35,228.09L198.37,225.35L209.39,227.3L220.41,220.07L231.43,216.87L242.45,217.07L253.47,215.96L264.49,219.22L275.51,209.43L286.53,211.59L297.55,205L319.59,200.7L330.61,186.74L341.63,194.5L352.65,182.37L363.67,176.43L374.69,168.8L385.71,165.28L396.73,159.02L407.76,149.04L418.78,152.63L429.8,133.52L440.82,128.11L451.84,126.67L462.86,105.48L473.88,99.8L484.9,100.13L495.92,82.2L506.94,79.39L517.96,72.41L528.98,60.93L540,46.07" style="vector-effect: non-scaling-stroke; fill: none; stroke: rgb(0, 191, 125); stroke-opacity: 1; stroke-width: 2px; opacity: 1;"/></g><g class="points"/><g class="text"/></g><g class="trace scatter tracedcb1ee" style="stroke-miterlimit: 2; opacity: 1;"><g class="fills"/><g class="errorbars"/><g class="lines"><path class="js-line" d="M0,292.72L11.02,274.91L22.04,258.67L33.06,259.78L44.08,254.17L55.1,252.74L66.12,248.11L77.14,244.59L88.16,246.93L99.18,239.83L110.2,244L121.22,242.57L132.24,237.8L143.27,237.48L154.29,233.3L165.31,238.59L176.33,232.85L187.35,225.67L198.37,224.76L209.39,226.2L220.41,220.98L231.43,215.17L242.45,220L253.47,220L264.49,208.59L275.51,208.59L286.53,200.04L297.55,190.72L308.57,191.63L319.59,188.57L330.61,178.07L341.63,173.63L352.65,170.3L374.69,148.85L385.71,153.48L396.73,142.91L407.76,141.28L418.78,130.33L429.8,123.48L440.82,119.3L451.84,121.91L462.86,100.78L473.88,93.02L484.9,84.09L495.92,83.63L506.94,74.04L517.96,70.33L528.98,55.2L540,53.37" style="vector-effect: non-scaling-stroke; fill: none; stroke: rgb(0, 176, 246); stroke-opacity: 1; stroke-width: 2px; opacity: 1;"/></g><g class="points"/><g class="text"/></g><g class="trace scatter tracec311c8" style="stroke-miterlimit: 2; opacity: 1;"><g class="fills"/><g class="errorbars"/><g class="lines"><path class="js-line" d="M0,300.15L11.02,268.98L22.04,258.67L33.06,259.13L44.08,247.78L66.12,252.22L77.14,240.67L88.16,244.91L99.18,240.28L110.2,244.52L121.22,240.35L132.24,243.02L143.27,234.48L154.29,240.41L165.31,233.83L176.33,229.78L187.35,231.28L198.37,222.93L209.39,225.02L220.41,222.15L231.43,216.15L242.45,213.15L253.47,214.46L264.49,201.54L275.51,203.43L286.53,194.89L297.55,197.57L308.57,183.28L319.59,179.11L330.61,176.96L341.63,176.96L352.65,167.7L363.67,156.35L374.69,149.3L385.71,149.24L396.73,139L407.76,123.35L429.8,106.59L440.82,94.33L451.84,87.15L462.86,75.02L473.88,75.54L484.9,56.37L495.92,55.52L506.94,48.35L517.96,33.22L528.98,21.67L540,16" style="vector-effect: non-scaling-stroke; fill: none; stroke: rgb(231, 107, 243); stroke-opacity: 1; stroke-width: 2px; opacity: 1;"/></g><g class="points"/><g class="text"/></g><g class="trace scatter trace481619" style="stroke-miterlimit: 2; opacity: 1;"><g class="fills"/><g class="errorbars"/><g class="lines"><path class="js-line" d="M0,296.43L11.02,267.48L22.04,257.57L33.06,253.59L44.08,254.7L55.1,256.98L66.12,251.7L77.14,246.28L88.16,241.72L99.18,240.93L110.2,236.7L121.22,243.61L132.24,241.07L143.27,233.5L154.29,238.59L165.31,234.67L176.33,231.67L187.35,232.78L198.37,226.2L209.39,229.98L220.41,225.87L231.43,221.37L242.45,222.35L253.47,223.85L264.49,215.96L275.51,201.15L286.53,207.93L297.55,205.2L308.57,206.11L319.59,196.13L330.61,189.61L341.63,187.39L352.65,183.8L363.67,174.28L374.69,168.48L385.71,166.13L396.73,156.74L407.76,153.8L418.78,155.17L429.8,138.15L440.82,141.15L451.84,139.72L462.86,130.98L473.88,120.8L484.9,113.17L495.92,110.37L506.94,97.78L517.96,90.8L528.98,75.48L540,79.2" style="vector-effect: non-scaling-stroke; fill: none; stroke: rgb(248, 118, 109); stroke-opacity: 1; stroke-width: 2px; opacity: 1;"/></g><g class="points"/><g class="text"/></g><g class="trace scatter tracea417b5" style="stroke-miterlimit: 2; opacity: 1;"><g class="fills"/><g class="errorbars"/><g class="lines"><path class="js-line" d="M0,298.98L11.02,273.35L22.04,261.22L33.06,252.48L44.08,249.54L55.1,250.98L66.12,246.8L77.14,242.63L88.16,244L99.18,239.83L110.2,234.15L121.22,236.83L132.24,244.85L143.27,239.63L154.29,240.74L165.31,242.63L176.33,233.83L187.35,236.5L198.37,228.15L209.39,225.74L220.41,229.46L231.43,224.89L242.45,217.65L253.47,225.54L264.49,217.91L275.51,224.83L286.53,206.63L297.55,209.89L308.57,205.07L319.59,210.87L330.61,198.48L341.63,201.67L352.65,197.43L363.67,198.22L374.69,187.85L385.71,189.54L396.73,179.76L418.78,167.17L429.8,172.72L451.84,155.37L462.86,144.74L484.9,146.43L495.92,141.35L506.94,133.46L517.96,122.04L528.98,119.89L540,106.2" style="vector-effect: non-scaling-stroke; fill: none; stroke: rgb(163, 165, 0); stroke-opacity: 1; stroke-width: 2px; opacity: 1;"/></g><g class="points"/><g class="text"/></g><g class="trace scatter trace8d8dcf" style="stroke-miterlimit: 2; opacity: 1;"><g class="fills"/><g class="errorbars"/><g class="lines"><path class="js-line" d="M0,295.2L11.02,274L22.04,259.39L33.06,256.26L44.08,255.54L55.1,251.17L66.12,249.54L77.14,248.24L88.16,242.57L99.18,239.96L110.2,241.78L121.22,237.87L132.24,239.24L143.27,234.54L154.29,228.35L165.31,237.48L176.33,236.37L187.35,233.43L198.37,228.48L209.39,222.8L220.41,220.65L231.43,221.43L242.45,215.83L253.47,209.83L264.49,214.07L275.51,205.65L286.53,200.17L308.57,193.91L319.59,187.26L330.61,174.8L341.63,175.59L363.67,168.67L374.69,162.93L385.71,160.98L396.73,153.28L418.78,134.24L429.8,139.91L440.82,133.2L451.84,118.2L462.86,112.59L473.88,118.13L484.9,96.22L495.92,98.43L506.94,86.96L517.96,88.98L528.98,80.5L540,77.11" style="vector-effect: non-scaling-stroke; fill: none; stroke: rgb(0, 191, 125); stroke-opacity: 1; stroke-width: 2px; opacity: 1;"/></g><g class="points"/><g class="text"/></g><g class="trace scatter trace3bbc92" style="stroke-miterlimit: 2; opacity: 1;"><g class="fills"/><g class="errorbars"/><g class="lines"><path class="js-line" d="M0,297.61L11.02,268.07L22.04,270.28L33.06,264.02L44.08,250.59L55.1,248.5L66.12,252.15L77.14,244.2L88.16,243.48L99.18,243.22L110.2,241.52L121.22,242.57L132.24,237.87L143.27,238.2L154.29,228.41L165.31,230.63L176.33,227.57L187.35,223.33L198.37,226.72L220.41,217.98L231.43,222.8L242.45,216.22L253.47,218.04L264.49,217.85L275.51,207.28L286.53,205.78L297.55,203.17L308.57,208.2L319.59,195.22L330.61,194.43L341.63,180.35L352.65,191.24L363.67,176.7L374.69,170.63L385.71,178.85L396.73,159.41L407.76,151.26L418.78,152.24L429.8,147.35L440.82,131.57L451.84,127.39L462.86,120.61L473.88,112.72L484.9,102.61L495.92,99.48L506.94,92.89L517.96,81.22L528.98,78.15L540,65.5" style="vector-effect: non-scaling-stroke; fill: none; stroke: rgb(0, 176, 246); stroke-opacity: 1; stroke-width: 2px; opacity: 1;"/></g><g class="points"/><g class="text"/></g><g class="trace scatter tracebe0783" style="stroke-miterlimit: 2; opacity: 1;"><g class="fills"/><g class="errorbars"/><g class="lines"><path class="js-line" d="M0,298.59L11.02,259.59L22.04,257.04L33.06,254.63L44.08,254.04L66.12,243.93L77.14,247.2L88.16,241.65L99.18,245.24L121.22,241.85L132.24,237.09L143.27,236.3L154.29,232.52L165.31,225.54L176.33,223.85L187.35,227.24L198.37,228.93L209.39,221.37L220.41,223.33L231.43,212.04L242.45,207.28L253.47,211.46L264.49,208.26L275.51,209.63L286.53,197.37L297.55,196.52L308.57,184.13L319.59,192.15L330.61,187.13L341.63,182.24L352.65,183.15L363.67,168.22L374.69,160.07L385.71,159.15L396.73,150.87L407.76,139.65L418.78,142L429.8,141.02L440.82,122.3L451.84,124.85L462.86,108.15L473.88,101.96L484.9,103.65L495.92,96.48L506.94,91.13L517.96,85.85L528.98,68.57L540,74.57" style="vector-effect: non-scaling-stroke; fill: none; stroke: rgb(231, 107, 243); stroke-opacity: 1; stroke-width: 2px; opacity: 1;"/></g><g class="points"/><g class="text"/></g><g class="trace scatter traceda9f23" style="stroke-miterlimit: 2; opacity: 1;"><g class="fills"/><g class="errorbars"/><g class="lines"><path class="js-line" d="M0,298.72L11.02,271.65L22.04,264.15L33.06,263.04L44.08,260.96L55.1,250.91L66.12,245.37L77.14,251.7L88.16,247.72L99.18,245.96L110.2,238.98L121.22,241.33L132.24,233.17L143.27,241.07L154.29,240.74L165.31,233.63L176.33,234.35L187.35,227.57L198.37,228.48L209.39,230.96L220.41,223.39L231.43,219.22L242.45,219.09L253.47,221.89L264.49,220.72L275.51,203.7L286.53,207.48L297.55,199.65L308.57,200.04L330.61,190.13L341.63,182.37L352.65,182.3L363.67,178.33L374.69,181.13L385.71,163.65L396.73,163L407.76,152.11L418.78,151.65L429.8,155.76L440.82,142.91L451.84,133.72L462.86,139.72L473.88,130.98L484.9,127.98L495.92,125.83L517.96,114.15L528.98,119.24L540,112.72" style="vector-effect: non-scaling-stroke; fill: none; stroke: rgb(248, 118, 109); stroke-opacity: 1; stroke-width: 2px; opacity: 1;"/></g><g class="points"/><g class="text"/></g><g class="trace scatter trace6d240d" style="stroke-miterlimit: 2; opacity: 1;"><g class="fills"/><g class="errorbars"/><g class="lines"><path class="js-line" d="M0,299.37L11.02,267.15L22.04,258.61L33.06,259.46L44.08,249.02L55.1,247.26L66.12,244.33L77.14,245.17L88.16,245.24L110.2,242.3L121.22,241.85L132.24,237.74L143.27,236.17L154.29,235.78L165.31,234.48L187.35,224.17L198.37,232.39L220.41,216.09L231.43,211.46L242.45,221.89L253.47,209.96L264.49,213.28L275.51,206.57L286.53,202.85L297.55,194.37L308.57,193.13L319.59,185.3L330.61,177.61L341.63,177.74L352.65,176.11L363.67,166.85L374.69,161.63L385.71,148.72L396.73,140.17L407.76,137.37L418.78,134.24L429.8,124.33L440.82,111.74L451.84,115.33L462.86,105.87L473.88,100.98L484.9,84.67L495.92,92.5L506.94,73.07L517.96,61.78L528.98,62.37L540,41.96" style="vector-effect: non-scaling-stroke; fill: none; stroke: rgb(163, 165, 0); stroke-opacity: 1; stroke-width: 2px; opacity: 1;"/></g><g class="points"/><g class="text"/></g><g class="trace scatter trace14ba72" style="stroke-miterlimit: 2; opacity: 1;"><g class="fills"/><g class="errorbars"/><g class="lines"><path class="js-line" d="M0,296.63L11.02,276.35L22.04,265.91L33.06,258.67L44.08,252.54L55.1,251.89L66.12,254.04L77.14,245.76L88.16,244.85L99.18,239.57L110.2,241.98L121.22,246.22L132.24,245.63L143.27,237.15L154.29,238.46L165.31,238.65L176.33,228.09L187.35,231.28L198.37,232.33L209.39,230.83L220.41,226.46L231.43,228.02L242.45,228.35L253.47,223.13L264.49,225.41L275.51,224.37L286.53,216.61L297.55,214.39L308.57,205.07L319.59,207.93L330.61,205.07L341.63,200.76L352.65,192.41L363.67,191.3L374.69,187.98L385.71,177.35L396.73,176.63L407.76,168.54L418.78,164.7L429.8,163.07L440.82,156.61L451.84,151.46L462.86,142.98L473.88,140.04L484.9,126.61L495.92,127.59L506.94,131.83L517.96,118.72L528.98,111.87L540,109" style="vector-effect: non-scaling-stroke; fill: none; stroke: rgb(0, 191, 125); stroke-opacity: 1; stroke-width: 2px; opacity: 1;"/></g><g class="points"/><g class="text"/></g><g class="trace scatter trace6ab832" style="stroke-miterlimit: 2; opacity: 1;"><g class="fills"/><g class="errorbars"/><g class="lines"><path class="js-line" d="M0,297.15L11.02,269.04L22.04,255.41L33.06,257.5L44.08,249.22L55.1,249.28L66.12,244.78L77.14,234.93L88.16,244.52L99.18,240.35L110.2,239.11L121.22,239.83L132.24,239.04L143.27,243.28L154.29,232.07L165.31,234.48L176.33,240.87L187.35,232.59L198.37,232.85L209.39,233.5L220.41,225.67L231.43,221.24L242.45,221.3L253.47,217.85L264.49,221.57L275.51,214.13L286.53,212.43L297.55,206.89L308.57,205.52L319.59,204.87L330.61,200.37L341.63,192.74L352.65,187.13L363.67,188.04L374.69,185.89L385.71,180.41L396.73,175.85L407.76,169.46L418.78,164.37L440.82,147.67L451.84,144.93L462.86,144.61L473.88,137.96L484.9,132.09L495.92,124.2L506.94,123.93L517.96,115.98L528.98,108.22L540,96.74" style="vector-effect: non-scaling-stroke; fill: none; stroke: rgb(0, 176, 246); stroke-opacity: 1; stroke-width: 2px; opacity: 1;"/></g><g class="points"/><g class="text"/></g><g class="trace scatter tracedb502f" style="stroke-miterlimit: 2; opacity: 1;"><g class="fills"/><g class="errorbars"/><g class="lines"><path class="js-line" d="M0,289.65L11.02,264.61L22.04,257.63L55.1,252.61L66.12,241.52L77.14,242.57L88.16,242.76L99.18,244.07L110.2,238.33L121.22,236.83L132.24,247.39L143.27,237.8L154.29,232.98L165.31,233.7L176.33,227.89L187.35,232.65L198.37,223.72L209.39,224.5L220.41,219.15L231.43,224.43L242.45,217.13L264.49,210.87L275.51,205.65L286.53,211.85L297.55,200.63L308.57,211.2L319.59,196.13L330.61,184.07L341.63,196.33L363.67,173.24L374.69,177.35L385.71,174.8L396.73,165.28L407.76,151L418.78,155.24L429.8,146.63L440.82,141.54L451.84,139.59L462.86,135.02L473.88,119.3L484.9,112.91L495.92,117.28L506.94,111.28L517.96,105.87L528.98,92.37L540,83.3" style="vector-effect: non-scaling-stroke; fill: none; stroke: rgb(231, 107, 243); stroke-opacity: 1; stroke-width: 2px; opacity: 1;"/></g><g class="points"/><g class="text"/></g><g class="trace scatter tracefa521b" style="stroke-miterlimit: 2; opacity: 1;"><g class="fills"/><g class="errorbars"/><g class="lines"><path class="js-line" d="M0,297.48L11.02,261.48L22.04,266.96L33.06,252.35L44.08,250.52L55.1,251.17L66.12,247.13L77.14,248.83L88.16,242.89L99.18,246.09L110.2,244L121.22,242.83L132.24,237.28L143.27,239.76L154.29,236.3L165.31,228.93L176.33,231.22L187.35,229.07L198.37,224.96L220.41,224.37L231.43,221.63L242.45,208.91L253.47,206.96L264.49,208.2L275.51,206.17L286.53,205.2L297.55,195.74L308.57,189.48L319.59,185.96L330.61,189.02L341.63,179.76L352.65,166.39L363.67,163.33L374.69,159.67L385.71,143.17L396.73,141.8L407.76,134.63L418.78,131.5L429.8,121.91L440.82,116.89L451.84,110.3L462.86,95.96L473.88,85.39L495.92,65.17L506.94,47.17L517.96,55.59L528.98,44.37L540,22.33" style="vector-effect: non-scaling-stroke; fill: none; stroke: rgb(248, 118, 109); stroke-opacity: 1; stroke-width: 2px; opacity: 1;"/></g><g class="points"/><g class="text"/></g><g class="trace scatter trace793e90" style="stroke-miterlimit: 2; opacity: 1;"><g class="fills"/><g class="errorbars"/><g class="lines"><path class="js-line" d="M0,291.41L11.02,265.78L22.04,264.87L33.06,259.33L44.08,250.46L55.1,250.59L66.12,245.17L77.14,244.91L88.16,252.41L99.18,239.7L110.2,238.26L121.22,241.33L132.24,242.76L143.27,237.35L154.29,235.91L165.31,231.48L176.33,229.85L187.35,227.76L198.37,217.2L209.39,226.07L220.41,216.48L231.43,219.41L242.45,218.57L253.47,210.28L264.49,206.37L275.51,197.89L286.53,199.91L297.55,195.28L308.57,195.35L319.59,187.85L330.61,173.76L341.63,168.09L352.65,183.48L363.67,167.24L374.69,160.33L385.71,159.93L396.73,147.54L407.76,150.41L418.78,147.67L429.8,143.5L440.82,130.78L451.84,130.72L462.86,127.46L473.88,121.26L484.9,116.3L506.94,110.24L517.96,112.39L528.98,105.93L540,106.85" style="vector-effect: non-scaling-stroke; fill: none; stroke: rgb(163, 165, 0); stroke-opacity: 1; stroke-width: 2px; opacity: 1;"/></g><g class="points"/><g class="text"/></g><g class="trace scatter trace9a8197" style="stroke-miterlimit: 2; opacity: 1;"><g class="fills"/><g class="errorbars"/><g class="lines"><path class="js-line" d="M0,296.3L11.02,271.91L22.04,261.35L44.08,253.91L55.1,247.26L66.12,249.93L77.14,240.54L88.16,247.33L99.18,241.2L121.22,238.2L132.24,233.83L143.27,242.04L154.29,234.93L165.31,228.93L176.33,230.83L187.35,233.63L198.37,223.91L209.39,221.89L220.41,220.78L231.43,220L242.45,216.15L253.47,215.57L264.49,212.5L275.51,208.65L286.53,209.63L297.55,203.24L308.57,200.43L319.59,193.13L330.61,196.39L341.63,181.39L352.65,185.83L363.67,178.59L374.69,170.11L385.71,170.76L396.73,168.54L407.76,163.33L418.78,159.8L429.8,156.35L440.82,142.78L451.84,148.98L462.86,137.57L484.9,132.15L495.92,122.89L506.94,116.83L517.96,116.24L528.98,95.63L540,110.63" style="vector-effect: non-scaling-stroke; fill: none; stroke: rgb(0, 191, 125); stroke-opacity: 1; stroke-width: 2px; opacity: 1;"/></g><g class="points"/><g class="text"/></g><g class="trace scatter tracec99beb" style="stroke-miterlimit: 2; opacity: 1;"><g class="fills"/><g class="errorbars"/><g class="lines"><path class="js-line" d="M0,300.28L11.02,263.37L22.04,257.89L33.06,259.98L44.08,254.76L55.1,248.04L66.12,246.22L77.14,238.33L88.16,247.78L99.18,243.35L110.2,242.76L121.22,238.07L132.24,235.91L143.27,239.89L154.29,229.33L165.31,232.78L176.33,237.35L198.37,226L209.39,230.04L220.41,226.65L231.43,230.96L242.45,218.83L253.47,219.28L275.51,212.04L286.53,205.26L297.55,204.48L308.57,196L319.59,197.63L330.61,201.67L341.63,189.48L352.65,193.13L363.67,184.39L374.69,180.74L385.71,173.7L396.73,175.07L407.76,165.61L418.78,173.96L429.8,161.04L440.82,155.24L451.84,154.2L462.86,144.8L473.88,148.46L484.9,137.37L495.92,124L506.94,125.5L517.96,121.2L528.98,121.26L540,109.07" style="vector-effect: non-scaling-stroke; fill: none; stroke: rgb(0, 176, 246); stroke-opacity: 1; stroke-width: 2px; opacity: 1;"/></g><g class="points"/><g class="text"/></g><g class="trace scatter trace939688" style="stroke-miterlimit: 2; opacity: 1;"><g class="fills"/><g class="errorbars"/><g class="lines"><path class="js-line" d="M0,292.78L11.02,274.91L22.04,266.17L33.06,255.02L44.08,256.91L55.1,251.17L66.12,252.28L77.14,246.87L88.16,245.57L99.18,248.24L110.2,236.76L121.22,241.85L132.24,239.89L143.27,234.8L154.29,234.93L165.31,231.48L176.33,234.67L187.35,239.96L198.37,237.54L209.39,229.39L220.41,223.65L231.43,227.89L242.45,220.91L253.47,224.5L264.49,215.57L275.51,215.43L286.53,211.78L297.55,223L308.57,206.24L319.59,209.11L330.61,202.52L341.63,194.5L352.65,201.74L363.67,189.22L374.69,188.11L385.71,185.43L396.73,185.24L407.76,176.5L418.78,181.78L429.8,171.54L440.82,163.39L451.84,156.93L462.86,161.3L484.9,144.48L495.92,145.13L506.94,141.09L517.96,133L528.98,125.3L540,128.3" style="vector-effect: non-scaling-stroke; fill: none; stroke: rgb(231, 107, 243); stroke-opacity: 1; stroke-width: 2px; opacity: 1;"/></g><g class="points"/><g class="text"/></g><g class="trace scatter trace9a4843" style="stroke-miterlimit: 2; opacity: 1;"><g class="fills"/><g class="errorbars"/><g class="lines"><path class="js-line" d="M0,300.28L11.02,265.52L22.04,259.26L33.06,256.46L44.08,254.89L55.1,245.89L66.12,245.04L77.14,243.74L88.16,241L99.18,241.07L110.2,242.3L121.22,236.17L132.24,237.61L143.27,239.43L154.29,235.59L165.31,225.22L176.33,231.22L187.35,223.98L198.37,222.87L209.39,227.7L220.41,220.52L231.43,217.72L242.45,216.87L253.47,209.57L264.49,212.17L275.51,203.5L286.53,209.57L308.57,202.13L319.59,193.52L330.61,199.65L341.63,191.83L352.65,184.39L363.67,186.15L374.69,178.07L385.71,175.39L396.73,173.17L407.76,166.59L429.8,151.46L440.82,150.02L451.84,145.33L462.86,141.54L473.88,135.41L484.9,128.17L506.94,108.02L517.96,103.2L528.98,112.13L540,101.11" style="vector-effect: non-scaling-stroke; fill: none; stroke: rgb(248, 118, 109); stroke-opacity: 1; stroke-width: 2px; opacity: 1;"/></g><g class="points"/><g class="text"/></g><g class="trace scatter traceb886e0" style="stroke-miterlimit: 2; opacity: 1;"><g class="fills"/><g class="errorbars"/><g class="lines"><path class="js-line" d="M0,290.57L11.02,263.17L22.04,262.98L33.06,258.28L44.08,247.59L55.1,247.26L66.12,254.43L77.14,244.98L88.16,243.54L99.18,242.43L110.2,237.61L121.22,243.74L132.24,242.7L143.27,242.76L154.29,235.59L165.31,233.89L176.33,235.2L187.35,237.02L198.37,225.93L209.39,229.98L220.41,218.17L231.43,221.96L242.45,217L264.49,213.54L275.51,210.74L286.53,204.8L297.55,200.89L308.57,190.2L319.59,186.8L330.61,178.07L341.63,181.33L352.65,172.65L363.67,168.28L374.69,159.28L385.71,155.17L407.76,129.67L418.78,131.7L429.8,122.11L440.82,123.93L451.84,105.93L462.86,95.83L473.88,99.22L484.9,80.04L495.92,73.72L506.94,73.26L517.96,60.15L528.98,54.35L540,44.63" style="vector-effect: non-scaling-stroke; fill: none; stroke: rgb(163, 165, 0); stroke-opacity: 1; stroke-width: 2px; opacity: 1;"/></g><g class="points"/><g class="text"/></g><g class="trace scatter tracebd0e3b" style="stroke-miterlimit: 2; opacity: 1;"><g class="fills"/><g class="errorbars"/><g class="lines"><path class="js-line" d="M0,291.02L11.02,261.74L22.04,257.11L33.06,257.76L44.08,251.63L55.1,249.48L66.12,252.87L77.14,245.43L88.16,248.89L99.18,243.67L110.2,242.83L121.22,232.72L132.24,232L143.27,236.76L154.29,238.26L165.31,236.89L176.33,233.17L187.35,231.87L198.37,227.04L209.39,224.43L220.41,224.89L231.43,212.43L242.45,211.46L253.47,221.24L264.49,209.5L275.51,205.46L286.53,204.09L319.59,194.3L330.61,185.57L341.63,182.89L352.65,176.24L363.67,163.2L374.69,165.09L385.71,161.11L396.73,145.07L407.76,138.02L418.78,141.41L429.8,119.89L440.82,120.67L451.84,108.54L462.86,102.48L473.88,94.46L484.9,84.87L495.92,76.98L506.94,73.26L517.96,69.93L528.98,60.22L540,48.35" style="vector-effect: non-scaling-stroke; fill: none; stroke: rgb(0, 191, 125); stroke-opacity: 1; stroke-width: 2px; opacity: 1;"/></g><g class="points"/><g class="text"/></g><g class="trace scatter tracea7255f" style="stroke-miterlimit: 2; opacity: 1;"><g class="fills"/><g class="errorbars"/><g class="lines"><path class="js-line" d="M0,295.98L11.02,269.3L22.04,268.65L33.06,253.33L44.08,252.35L55.1,253.65L66.12,247.72L77.14,247.39L88.16,244.39L99.18,239.17L110.2,237.48L121.22,243.09L132.24,233.7L143.27,235.78L154.29,227.83L165.31,232.39L176.33,227.57L187.35,223.13L198.37,222.41L209.39,224.83L220.41,218.37L231.43,213.35L242.45,213.35L253.47,213.41L264.49,210.02L275.51,202.33L286.53,202.07L297.55,204.48L308.57,188.7L319.59,185.76L330.61,186.22L341.63,181.98L352.65,181.78L363.67,170.63L374.69,169.07L385.71,163L396.73,157.98L407.76,153.48L418.78,159.28L429.8,139.85L440.82,145.78L451.84,129.22L462.86,126.61L484.9,115.65L495.92,114.93L506.94,110.7L517.96,100.78L528.98,97L540,90.48" style="vector-effect: non-scaling-stroke; fill: none; stroke: rgb(0, 176, 246); stroke-opacity: 1; stroke-width: 2px; opacity: 1;"/></g><g class="points"/><g class="text"/></g><g class="trace scatter tracead5901" style="stroke-miterlimit: 2; opacity: 1;"><g class="fills"/><g class="errorbars"/><g class="lines"><path class="js-line" d="M0,288.8L11.02,269.57L22.04,257.5L33.06,257.3L44.08,252.74L55.1,250.59L66.12,251.37L77.14,250.2L88.16,245.43L99.18,234.74L110.2,239.7L121.22,242.11L132.24,232.46L143.27,237.22L154.29,234.09L165.31,229.33L176.33,229.78L187.35,227.96L198.37,230.76L209.39,226.59L220.41,225.02L231.43,218.76L242.45,219.35L253.47,213.41L264.49,202.26L275.51,210.35L286.53,212.43L297.55,200.04L308.57,202.39L319.59,191.43L330.61,188.89L341.63,190.72L352.65,187.46L363.67,176.89L374.69,172.39L385.71,166.59L396.73,169.59L407.76,161.24L418.78,154.07L429.8,143.43L440.82,155.3L451.84,135.74L462.86,129.93L473.88,132.02L484.9,122.5L495.92,124.2L506.94,111.48L517.96,120.74L528.98,103.85L540,109" style="vector-effect: non-scaling-stroke; fill: none; stroke: rgb(231, 107, 243); stroke-opacity: 1; stroke-width: 2px; opacity: 1;"/></g><g class="points"/><g class="text"/></g><g class="trace scatter trace0c3321" style="stroke-miterlimit: 2; opacity: 1;"><g class="fills"/><g class="errorbars"/><g class="lines"><path class="js-line" d="M0,294.54L11.02,266.04L22.04,267.61L33.06,257.17L44.08,248.57L55.1,250.46L66.12,248.7L88.16,244.46L99.18,245.17L110.2,240.41L121.22,245.57L132.24,242.63L143.27,231.48L154.29,231.67L165.31,237.35L176.33,233.11L187.35,223.52L198.37,223.59L209.39,225.22L220.41,226.13L231.43,219.48L242.45,224.63L253.47,212.96L264.49,210.09L275.51,204.02L286.53,200.43L297.55,201.48L308.57,199.2L319.59,199.52L330.61,189.87L341.63,191.5L352.65,179.7L363.67,169.85L374.69,174.41L385.71,166.78L396.73,160.39L407.76,160.2L418.78,146.11L429.8,143.57L440.82,133.98L451.84,129.67L462.86,119.76L473.88,112.26L484.9,93.28L495.92,89.63L506.94,89.3L517.96,78.15L528.98,73.33L540,74.89" style="vector-effect: non-scaling-stroke; fill: none; stroke: rgb(248, 118, 109); stroke-opacity: 1; stroke-width: 2px; opacity: 1;"/></g><g class="points"/><g class="text"/></g><g class="trace scatter trace37ecb3" style="stroke-miterlimit: 2; opacity: 1;"><g class="fills"/><g class="errorbars"/><g class="lines"><path class="js-line" d="M0,295.91L11.02,265.26L22.04,260.83L33.06,251.3L44.08,253.46L55.1,251.24L66.12,245.63L77.14,249.28L88.16,247.78L99.18,239.89L110.2,238.91L121.22,236.11L132.24,241.26L143.27,232.72L154.29,237.35L165.31,234.93L176.33,231.09L198.37,231.35L209.39,234.28L220.41,220.07L231.43,218.63L242.45,219.48L253.47,214.39L264.49,214.98L275.51,213.93L286.53,204.48L297.55,212.7L308.57,198.8L319.59,195.48L330.61,195.28L341.63,186.93L352.65,185.04L363.67,184.52L374.69,173.3L385.71,171.61L396.73,156.02L407.76,150.8L418.78,140.11L429.8,140.37L451.84,120.54L462.86,109.2L473.88,109.33L484.9,106.39L495.92,89.57L506.94,81.54L517.96,72.93L528.98,70.91L540,60.54" style="vector-effect: non-scaling-stroke; fill: none; stroke: rgb(163, 165, 0); stroke-opacity: 1; stroke-width: 2px; opacity: 1;"/></g><g class="points"/><g class="text"/></g><g class="trace scatter tracef1fdec" style="stroke-miterlimit: 2; opacity: 1;"><g class="fills"/><g class="errorbars"/><g class="lines"><path class="js-line" d="M0,298.13L11.02,266.5L22.04,264.74L33.06,250.13L44.08,249.41L55.1,250.52L66.12,245.5L77.14,247.39L88.16,240.8L99.18,247.33L110.2,237.54L121.22,236.96L132.24,240.74L143.27,237.22L154.29,243.35L165.31,236.7L176.33,235L187.35,229.78L198.37,223.46L209.39,227.7L220.41,227.11L231.43,221.3L242.45,222.02L253.47,220.52L264.49,215.17L286.53,213.02L297.55,205.33L308.57,207.8L319.59,202.52L330.61,201.28L341.63,195.61L352.65,186.87L363.67,182.63L374.69,190.26L385.71,174.15L396.73,170.76L407.76,164.3L418.78,158.11L429.8,166.59L440.82,156.48L451.84,151.33L462.86,146.04L473.88,134.96L484.9,134.24L495.92,127.91L506.94,126.67L517.96,118.33L528.98,114.93L540,107.89" style="vector-effect: non-scaling-stroke; fill: none; stroke: rgb(0, 191, 125); stroke-opacity: 1; stroke-width: 2px; opacity: 1;"/></g><g class="points"/><g class="text"/></g><g class="trace scatter trace0c5118" style="stroke-miterlimit: 2; opacity: 1;"><g class="fills"/><g class="errorbars"/><g class="lines"><path class="js-line" d="M0,291.93L11.02,267.28L22.04,261.67L33.06,257.43L44.08,250.07L66.12,252.41L77.14,240.93L88.16,244L99.18,242.57L110.2,241.39L121.22,237.61L132.24,234.67L143.27,239.83L154.29,236.57L165.31,236.57L176.33,232.46L187.35,224.89L198.37,232L209.39,225.35L220.41,224.63L231.43,217.33L242.45,213.41L253.47,214.91L264.49,213.28L275.51,198.15L286.53,202.98L297.55,198.48L308.57,191.83L319.59,183.61L330.61,188.17L341.63,178.65L352.65,175.52L363.67,176.57L374.69,167.83L385.71,161.3L396.73,158.76L407.76,159.87L418.78,150.22L429.8,138.61L440.82,138.93L451.84,123.74L462.86,118.78L473.88,110.5L484.9,113.17L495.92,101.11L506.94,90.15L517.96,93.87L528.98,84.93L540,83.37" style="vector-effect: non-scaling-stroke; fill: none; stroke: rgb(0, 176, 246); stroke-opacity: 1; stroke-width: 2px; opacity: 1;"/></g><g class="points"/><g class="text"/></g><g class="trace scatter tracee37f24" style="stroke-miterlimit: 2; opacity: 1;"><g class="fills"/><g class="errorbars"/><g class="lines"><path class="js-line" d="M0,298.33L22.04,255.09L33.06,261.35L44.08,246.41L55.1,250.91L66.12,250.07L77.14,246.54L88.16,250L99.18,244.2L110.2,241.07L121.22,232.59L132.24,233.89L143.27,238.65L154.29,232L165.31,233.96L176.33,230.76L187.35,220.46L198.37,222.02L209.39,224.37L220.41,223.59L231.43,218.04L242.45,214.85L253.47,213.67L264.49,208.78L275.51,212.89L286.53,204.22L297.55,205.33L308.57,198.15L319.59,192.28L330.61,185.37L341.63,184.52L352.65,172.65L363.67,172.07L374.69,161.96L385.71,155.96L396.73,161.04L407.76,153.41L418.78,146.43L429.8,144.35L440.82,132.87L451.84,125.04L462.86,127.26L473.88,113.3L484.9,120.15L495.92,106.98L506.94,97.78L517.96,91.33L528.98,87.22L540,75.8" style="vector-effect: non-scaling-stroke; fill: none; stroke: rgb(231, 107, 243); stroke-opacity: 1; stroke-width: 2px; opacity: 1;"/></g><g class="points"/><g class="text"/></g></g></g><g class="overplot"/><path class="xlines-above crisp" d="" style="fill: none; stroke-width: 1px; stroke: rgb(0, 0, 0); stroke-opacity: 0;"/><path class="ylines-above crisp" d="" style="fill: none; stroke-width: 1px; stroke: rgb(0, 0, 0); stroke-opacity: 0;"/><g class="overlines-above"/><g class="xaxislayer-above"><path class="xtick ticks crisp" d="M0,421v5" transform="translate(80,0)" style="stroke: rgb(51, 51, 51); stroke-opacity: 1; stroke-width: 1px;"/><path class="xtick ticks crisp" d="M0,421v5" transform="translate(190.2,0)" style="stroke: rgb(51, 51, 51); stroke-opacity: 1; stroke-width: 1px;"/><path class="xtick ticks crisp" d="M0,421v5" transform="translate(300.40999999999997,0)" style="stroke: rgb(51, 51, 51); stroke-opacity: 1; stroke-width: 1px;"/><path class="xtick ticks crisp" d="M0,421v5" transform="translate(410.61,0)" style="stroke: rgb(51, 51, 51); stroke-opacity: 1; stroke-width: 1px;"/><path class="xtick ticks crisp" d="M0,421v5" transform="translate(520.8199999999999,0)" style="stroke: rgb(51, 51, 51); stroke-opacity: 1; stroke-width: 1px;"/><g class="xtick"><text text-anchor="middle" x="0" y="440.4" transform="translate(80,0)" style="font-family: 'Open Sans', verdana, arial, sans-serif; font-size: 12px; fill: rgb(51, 51, 51); fill-opacity: 1; white-space: pre; opacity: 1;">0</text></g><g class="xtick"><text text-anchor="middle" x="0" y="440.4" style="font-family: 'Open Sans', verdana, arial, sans-serif; font-size: 12px; fill: rgb(51, 51, 51); fill-opacity: 1; white-space: pre; opacity: 1;" transform="translate(190.2,0)">10</text></g><g class="xtick"><text text-anchor="middle" x="0" y="440.4" style="font-family: 'Open Sans', verdana, arial, sans-serif; font-size: 12px; fill: rgb(51, 51, 51); fill-opacity: 1; white-space: pre; opacity: 1;" transform="translate(300.40999999999997,0)">20</text></g><g class="xtick"><text text-anchor="middle" x="0" y="440.4" style="font-family: 'Open Sans', verdana, arial, sans-serif; font-size: 12px; fill: rgb(51, 51, 51); fill-opacity: 1; white-space: pre; opacity: 1;" transform="translate(410.61,0)">30</text></g><g class="xtick"><text text-anchor="middle" x="0" y="440.4" style="font-family: 'Open Sans', verdana, arial, sans-serif; font-size: 12px; fill: rgb(51, 51, 51); fill-opacity: 1; white-space: pre; opacity: 1;" transform="translate(520.8199999999999,0)">40</text></g></g><g class="yaxislayer-above"><path class="ytick ticks crisp" d="M79,0h-5" transform="translate(0,393.83)" style="stroke: rgb(51, 51, 51); stroke-opacity: 1; stroke-width: 1px;"/><path class="ytick ticks crisp" d="M79,0h-5" transform="translate(0,335.13)" style="stroke: rgb(51, 51, 51); stroke-opacity: 1; stroke-width: 1px;"/><path class="ytick ticks crisp" d="M79,0h-5" transform="translate(0,276.43)" style="stroke: rgb(51, 51, 51); stroke-opacity: 1; stroke-width: 1px;"/><path class="ytick ticks crisp" d="M79,0h-5" transform="translate(0,217.74)" style="stroke: rgb(51, 51, 51); stroke-opacity: 1; stroke-width: 1px;"/><path class="ytick ticks crisp" d="M79,0h-5" transform="translate(0,159.04)" style="stroke: rgb(51, 51, 51); stroke-opacity: 1; stroke-width: 1px;"/><path class="ytick ticks crisp" d="M79,0h-5" transform="translate(0,100.35)" style="stroke: rgb(51, 51, 51); stroke-opacity: 1; stroke-width: 1px;"/><g class="ytick"><text text-anchor="end" x="71.6" y="4.199999999999999" transform="translate(0,393.83)" style="font-family: 'Open Sans', verdana, arial, sans-serif; font-size: 12px; fill: rgb(51, 51, 51); fill-opacity: 1; white-space: pre; opacity: 1;">0.26</text></g><g class="ytick"><text text-anchor="end" x="71.6" y="4.199999999999999" style="font-family: 'Open Sans', verdana, arial, sans-serif; font-size: 12px; fill: rgb(51, 51, 51); fill-opacity: 1; white-space: pre; opacity: 1;" transform="translate(0,335.13)">0.28</text></g><g class="ytick"><text text-anchor="end" x="71.6" y="4.199999999999999" style="font-family: 'Open Sans', verdana, arial, sans-serif; font-size: 12px; fill: rgb(51, 51, 51); fill-opacity: 1; white-space: pre; opacity: 1;" transform="translate(0,276.43)">0.3</text></g><g class="ytick"><text text-anchor="end" x="71.6" y="4.199999999999999" style="font-family: 'Open Sans', verdana, arial, sans-serif; font-size: 12px; fill: rgb(51, 51, 51); fill-opacity: 1; white-space: pre; opacity: 1;" transform="translate(0,217.74)">0.32</text></g><g class="ytick"><text text-anchor="end" x="71.6" y="4.199999999999999" style="font-family: 'Open Sans', verdana, arial, sans-serif; font-size: 12px; fill: rgb(51, 51, 51); fill-opacity: 1; white-space: pre; opacity: 1;" transform="translate(0,159.04)">0.34</text></g><g class="ytick"><text text-anchor="end" x="71.6" y="4.199999999999999" style="font-family: 'Open Sans', verdana, arial, sans-serif; font-size: 12px; fill: rgb(51, 51, 51); fill-opacity: 1; white-space: pre; opacity: 1;" transform="translate(0,100.35)">0.36</text></g></g><g class="overaxes-above"/></g></g><g class="polarlayer"/><g class="ternarylayer"/><g class="geolayer"/><g class="funnelarealayer"/><g class="pielayer"/><g class="iciclelayer"/><g class="treemaplayer"/><g class="sunburstlayer"/><g class="glimages"/><defs id="topdefs-430f41"><g class="clips"/></defs><g class="layer-above"><g class="imagelayer"/><g class="shapelayer"/></g><g class="infolayer"><g class="g-gtitle"><text class="gtitle" x="350" y="50" text-anchor="middle" dy="0em" style="font-family: 'Open Sans', verdana, arial, sans-serif; font-size: 17px; fill: rgb(51, 51, 51); opacity: 1; font-weight: normal; white-space: pre;">Train Accuracy: ascad_v1_fk_0-aisy_mlp_hw (original)</text></g><g class="g-xtitle"/><g class="g-ytitle"/></g></svg>