<svg class="main-svg" xmlns="http://www.w3.org/2000/svg" xmlns:xlink="http://www.w3.org/1999/xlink" width="700" height="500" style="" viewBox="0 0 700 500"><rect x="0" y="0" width="700" height="500" style="fill: rgb(255, 255, 255); fill-opacity: 1;"/><defs id="defs-bebd28"><g class="clips"><clipPath id="clipbebd28xyplot" class="plotclip"><rect width="540" height="320"/></clipPath><clipPath class="axesclip" id="clipbebd28x"><rect x="80" y="0" width="540" height="500"/></clipPath><clipPath class="axesclip" id="clipbebd28y"><rect x="0" y="100" width="700" height="320"/></clipPath><clipPath class="axesclip" id="clipbebd28xy"><rect x="80" y="100" width="540" height="320"/></clipPath></g><g class="gradients"/><g class="patterns"/></defs><g class="bglayer"><rect class="bg" x="80" y="100" width="540" height="320" style="fill: rgb(237, 237, 237); fill-opacity: 1; stroke-width: 0;"/></g><g class="layer-below"><g class="imagelayer"/><g class="shapelayer"/></g><g class="cartesianlayer"><g class="subplot xy"><g class="layer-subplot"><g class="shapelayer"/><g class="imagelayer"/></g><g class="gridlayer"><g class="x"><path class="xgrid crisp" transform="translate(189.09,0)" d="M0,100v320" style="stroke: rgb(255, 255, 255); stroke-opacity: 1; stroke-width: 1px;"/><path class="xgrid crisp" transform="translate(298.18,0)" d="M0,100v320" style="stroke: rgb(255, 255, 255); stroke-opacity: 1; stroke-width: 1px;"/><path class="xgrid crisp" transform="translate(407.27,0)" d="M0,100v320" style="stroke: rgb(255, 255, 255); stroke-opacity: 1; stroke-width: 1px;"/><path class="xgrid crisp" transform="translate(516.36,0)" d="M0,100v320" style="stroke: rgb(255, 255, 255); stroke-opacity: 1; stroke-width: 1px;"/></g><g class="y"><path class="ygrid crisp" transform="translate(0,379.21)" d="M80,0h540" style="stroke: rgb(255, 255, 255); stroke-opacity: 1; stroke-width: 1px;"/><path class="ygrid crisp" transform="translate(0,332.02)" d="M80,0h540" style="stroke: rgb(255, 255, 255); stroke-opacity: 1; stroke-width: 1px;"/><path class="ygrid crisp" transform="translate(0,284.83000000000004)" d="M80,0h540" style="stroke: rgb(255, 255, 255); stroke-opacity: 1; stroke-width: 1px;"/><path class="ygrid crisp" transform="translate(0,237.65)" d="M80,0h540" style="stroke: rgb(255, 255, 255); stroke-opacity: 1; stroke-width: 1px;"/><path class="ygrid crisp" transform="translate(0,190.45999999999998)" d="M80,0h540" style="stroke: rgb(255, 255, 255); stroke-opacity: 1; stroke-width: 1px;"/><path class="ygrid crisp" transform="translate(0,143.27)" d="M80,0h540" style="stroke: rgb(255, 255, 255); stroke-opacity: 1; stroke-width: 1px;"/></g></g><g class="zerolinelayer"><path class="xzl zl crisp" transform="translate(80,0)" d="M0,100v320" style="stroke: rgb(255, 255, 255); stroke-opacity: 1; stroke-width: 1px;"/></g><path class="xlines-below"/><path class="ylines-below"/><g class="overlines-below"/><g class="xaxislayer-below"/><g class="yaxislayer-below"/><g class="overaxes-below"/><g class="plot" transform="translate(80,100)" clip-path="url(#clipbebd28xyplot)"><g class="scatterlayer mlayer"><g class="trace scatter tracea14ec2" style="stroke-miterlimit: 2; opacity: 1;"><g class="fills"/><g class="errorbars"/><g class="lines"><path class="js-line" d="M0,123.22L5.45,208.1L10.91,215.64L16.36,220.56L21.82,226.97L32.73,239.67L38.18,242.02L43.64,244.56L49.09,245.64L60,248.09L65.45,248.24L81.82,250.7L87.27,251.01L103.64,253.14L109.09,252.8L114.55,254L120,253.32L141.82,254.35L147.27,255.02L174.55,256.67L180,255.78L190.91,255.31L196.36,256.39L212.73,256.54L218.18,256.56L229.09,257.8L234.55,259.96L240,259.97L245.45,261.19L250.91,261.51L256.36,263.33L261.82,264.27L267.27,263.76L272.73,266.04L278.18,266.14L283.64,267.35L289.09,266.72L294.55,269.49L300,270.91L310.91,272.34L316.36,274.12L321.82,274.86L327.27,274.75L332.73,276.77L338.18,277.23L376.36,284.73L381.82,285.27L403.64,289.24L409.09,289.94L430.91,293.83L436.36,294.69L485.45,297.36L490.91,297.52L518.18,298.91L523.64,299.11L540,299.82" style="vector-effect: non-scaling-stroke; fill: none; stroke: rgb(248, 118, 109); stroke-opacity: 1; stroke-width: 2px; opacity: 1;"/></g><g class="points"/><g class="text"/></g><g class="trace scatter trace1c2cd8" style="stroke-miterlimit: 2; opacity: 1;"><g class="fills"/><g class="errorbars"/><g class="lines"><path class="js-line" d="M0,123.2L5.45,204.4L10.91,211.09L16.36,214.98L21.82,216.66L49.09,229.46L54.55,231.17L60,233.23L65.45,234.45L70.91,236.73L76.36,240.7L87.27,245.3L92.73,246.87L98.18,247.93L103.64,249.87L109.09,249.5L114.55,250.8L120,251.06L125.45,252.21L152.73,253.62L158.18,254.28L180,254.82L185.45,254.3L190.91,254.17L196.36,254.98L201.82,255.25L207.27,254.65L212.73,255.02L218.18,256.3L223.64,256.06L229.09,257.43L240,258.51L245.45,260.06L250.91,260.25L256.36,261.38L267.27,262.96L272.73,263.93L294.55,267.45L300,268.99L305.45,268.82L310.91,269.82L316.36,270.64L321.82,272.9L327.27,272.43L332.73,274.49L343.64,275.42L349.09,276.73L354.55,278.17L360,278.81L365.45,280.15L370.91,280.07L381.82,282.89L387.27,282.92L392.73,285.01L398.18,285.56L425.45,289.72L430.91,290.83L474.55,293.1L480,293.71L540,296.21" style="vector-effect: non-scaling-stroke; fill: none; stroke: rgb(163, 165, 0); stroke-opacity: 1; stroke-width: 2px; opacity: 1;"/></g><g class="points"/><g class="text"/></g><g class="trace scatter trace4e6411" style="stroke-miterlimit: 2; opacity: 1;"><g class="fills"/><g class="errorbars"/><g class="lines"><path class="js-line" d="M0,100.82L5.45,205.04L10.91,209.88L16.36,212.65L21.82,214.39L38.18,217.63L43.64,221.46L49.09,231.04L54.55,237.5L60,241.61L65.45,242.2L76.36,245.67L81.82,246.24L92.73,248.45L98.18,248.41L103.64,249.72L109.09,250.02L114.55,251.34L120,250.77L125.45,252.28L130.91,252.74L136.36,252.82L141.82,252.12L147.27,253.89L152.73,253.63L169.09,255.13L174.55,254.87L196.36,255.78L201.82,257.06L207.27,256.25L212.73,256.32L218.18,257.92L223.64,257.42L229.09,259.29L234.55,259.56L245.45,261.58L250.91,261.97L272.73,267.13L278.18,267.24L283.64,269L289.09,268.63L294.55,270.43L300,271.08L327.27,276.19L332.73,276.73L338.18,278.21L343.64,278.7L349.09,279.45L354.55,281.1L365.45,283.34L370.91,283.04L376.36,285.32L381.82,285.94L398.18,288.7L403.64,289.62L420,292.05L425.45,292.99L436.36,294.85L441.82,295.08L458.18,296.06L463.64,296.24L480,297.43L485.45,297.53L540,300.03" style="vector-effect: non-scaling-stroke; fill: none; stroke: rgb(0, 191, 125); stroke-opacity: 1; stroke-width: 2px; opacity: 1;"/></g><g class="points"/><g class="text"/></g><g class="trace scatter trace73ea59" style="stroke-miterlimit: 2; opacity: 1;"><g class="fills"/><g class="errorbars"/><g class="lines"><path class="js-line" d="M0,110.67L5.45,206.92L10.91,211.27L27.27,222.99L32.73,230.48L38.18,236.03L43.64,240.4L49.09,241.42L54.55,243.47L65.45,244.9L70.91,247.11L76.36,248.36L81.82,248.65L92.73,249.6L98.18,249.61L103.64,250.42L109.09,249.79L136.36,250.85L141.82,250.33L147.27,251.66L152.73,250.99L169.09,251.56L174.55,251.18L180,251.72L185.45,250.63L190.91,251.53L196.36,251.42L207.27,252.03L212.73,252.21L218.18,253.16L223.64,253.13L234.55,255.72L240,255.66L256.36,258.17L261.82,258.97L267.27,259.3L272.73,260.97L278.18,261.16L283.64,262.25L294.55,263.7L300,264.8L310.91,266.07L316.36,267.38L327.27,268.46L332.73,269.98L349.09,271.78L354.55,273.53L370.91,275.37L376.36,276.94L381.82,277.05L387.27,278.23L403.64,281.08L409.09,281.75L441.82,286.22L447.27,286.4L480,288.18L485.45,288.34L512.73,289.59L518.18,289.75L540,290.63" style="vector-effect: non-scaling-stroke; fill: none; stroke: rgb(0, 176, 246); stroke-opacity: 1; stroke-width: 2px; opacity: 1;"/></g><g class="points"/><g class="text"/></g><g class="trace scatter traceb42f78" style="stroke-miterlimit: 2; opacity: 1;"><g class="fills"/><g class="errorbars"/><g class="lines"><path class="js-line" d="M0,81.21L5.45,201.52L10.91,208.28L21.82,217.42L27.27,221.38L32.73,225.05L38.18,226.36L65.45,233.87L70.91,239.82L76.36,242.82L81.82,244.16L87.27,245.74L92.73,246.38L98.18,246.89L103.64,248.38L109.09,248.49L114.55,250.46L120,249.54L125.45,250.34L130.91,250.2L136.36,251.36L141.82,250.43L147.27,252.24L152.73,251.53L158.18,252.08L169.09,252.39L174.55,252.28L196.36,253.69L201.82,253.53L207.27,254.28L212.73,254.19L218.18,254.4L223.64,255.51L229.09,255.99L234.55,257.84L261.82,262.29L267.27,264.05L278.18,265.72L283.64,266.8L289.09,267.58L294.55,270.14L305.45,270.93L310.91,272.38L321.82,274.64L327.27,275.32L365.45,283.28L370.91,283.9L376.36,284.71L381.82,286.36L387.27,286.72L392.73,288.16L398.18,289.23L403.64,289.29L414.55,291.36L420,291.98L430.91,294.09L436.36,294.65L540,299.44" style="vector-effect: non-scaling-stroke; fill: none; stroke: rgb(231, 107, 243); stroke-opacity: 1; stroke-width: 2px; opacity: 1;"/></g><g class="points"/><g class="text"/></g><g class="trace scatter trace89a9d7" style="stroke-miterlimit: 2; opacity: 1;"><g class="fills"/><g class="errorbars"/><g class="lines"><path class="js-line" d="M0,97.28L5.45,202.91L10.91,208.08L16.36,211.94L21.82,213.56L32.73,217.29L38.18,218.3L43.64,221L49.09,225.16L54.55,228.3L60,232.71L65.45,238.08L70.91,241.32L81.82,244.7L87.27,245.9L92.73,246.33L98.18,247.66L109.09,248.73L114.55,250.2L120,249.95L125.45,251.06L130.91,251.18L136.36,250.5L141.82,250.67L147.27,252.22L152.73,251.77L158.18,252.37L169.09,252.63L174.55,253.04L180,253.67L185.45,252.09L196.36,253.86L201.82,253.91L207.27,254.37L212.73,253.71L229.09,256.11L234.55,257.63L240,258.47L245.45,258.48L267.27,263.31L272.73,264.31L283.64,265.58L289.09,266.05L294.55,268.27L300,268.75L305.45,268.83L310.91,270.49L321.82,272.66L327.27,273.81L360,279.82L365.45,281.49L376.36,282.93L381.82,284.18L387.27,284.61L392.73,286.5L430.91,293.67L436.36,294.23L474.55,296.51L480,297.07L540,299.99" style="vector-effect: non-scaling-stroke; fill: none; stroke: rgb(248, 118, 109); stroke-opacity: 1; stroke-width: 2px; opacity: 1;"/></g><g class="points"/><g class="text"/></g><g class="trace scatter trace4e3142" style="stroke-miterlimit: 2; opacity: 1;"><g class="fills"/><g class="errorbars"/><g class="lines"><path class="js-line" d="M0,108.87L5.45,209.54L10.91,214.38L16.36,217.1L21.82,218.88L38.18,226.43L43.64,229.9L54.55,240.52L60,242.46L87.27,247.35L92.73,249.19L98.18,248.95L103.64,250.03L109.09,249.49L114.55,249.74L125.45,251.86L130.91,252.86L136.36,251.42L141.82,252.3L158.18,253.95L163.64,252.88L169.09,254.21L174.55,254.03L180,254.27L185.45,253.63L190.91,255.02L196.36,253.65L207.27,254.37L212.73,253.19L218.18,254.44L223.64,254.85L229.09,256.25L234.55,256.35L240,258.36L245.45,258.36L250.91,258.52L256.36,260.54L272.73,261.93L278.18,263.93L289.09,265.77L294.55,267.47L300,268.53L305.45,268.73L321.82,270.56L327.27,271.87L332.73,273.83L338.18,274.89L349.09,275.54L354.55,277.32L370.91,280.12L376.36,281.6L387.27,282.63L392.73,283.77L436.36,290.54L441.82,291L540,295.39" style="vector-effect: non-scaling-stroke; fill: none; stroke: rgb(163, 165, 0); stroke-opacity: 1; stroke-width: 2px; opacity: 1;"/></g><g class="points"/><g class="text"/></g><g class="trace scatter trace8d9de2" style="stroke-miterlimit: 2; opacity: 1;"><g class="fills"/><g class="errorbars"/><g class="lines"><path class="js-line" d="M0,82.94L5.45,200.97L10.91,208.61L16.36,211.87L21.82,214.17L32.73,217.02L38.18,217.64L49.09,221.17L54.55,224.22L65.45,235.96L70.91,241.55L81.82,244.9L87.27,246.43L103.64,248.77L109.09,248.97L114.55,250.12L120,250.3L130.91,251.75L136.36,251.61L141.82,251.46L147.27,252.91L152.73,252.48L158.18,252.89L169.09,253.19L174.55,253.37L190.91,253.35L196.36,253.32L201.82,253.78L207.27,253.25L229.09,254.79L234.55,255.83L245.45,257.59L250.91,257.24L267.27,259.12L272.73,260.59L278.18,260.04L283.64,261.98L294.55,263.24L300,264.58L349.09,271.77L354.55,273.18L365.45,275.03L370.91,275.37L376.36,276.75L381.82,277.31L387.27,277.66L392.73,279.16L441.82,285.55L447.27,285.97L490.91,287.9L496.36,288.23L540,289.9" style="vector-effect: non-scaling-stroke; fill: none; stroke: rgb(0, 191, 125); stroke-opacity: 1; stroke-width: 2px; opacity: 1;"/></g><g class="points"/><g class="text"/></g><g class="trace scatter traceb51e54" style="stroke-miterlimit: 2; opacity: 1;"><g class="fills"/><g class="errorbars"/><g class="lines"><path class="js-line" d="M0,84.19L5.45,203.7L10.91,208.98L16.36,212.48L21.82,214.45L32.73,217.25L38.18,217.29L49.09,220.22L54.55,226.57L60,232.96L65.45,235.97L70.91,240.43L76.36,242.3L92.73,246.39L98.18,246.05L103.64,247.14L109.09,247.46L114.55,248.68L120,248.57L136.36,249.59L141.82,249.31L147.27,250.12L152.73,249.95L158.18,249.36L163.64,249.85L169.09,249.69L174.55,250.33L185.45,249.65L190.91,250.43L201.82,250.39L207.27,249.59L223.64,251.68L229.09,252.62L256.36,256.22L261.82,257.85L267.27,258.23L272.73,259.75L289.09,261.48L294.55,262.78L305.45,264.58L310.91,265.34L316.36,266.77L321.82,267.18L387.27,278.25L392.73,278.91L398.18,280.35L403.64,280.86L420,283.25L425.45,284.33L436.36,285.71L441.82,286.12L496.36,288.81L501.82,289.06L540,290.56" style="vector-effect: non-scaling-stroke; fill: none; stroke: rgb(0, 176, 246); stroke-opacity: 1; stroke-width: 2px; opacity: 1;"/></g><g class="points"/><g class="text"/></g><g class="trace scatter trace4bbaaa" style="stroke-miterlimit: 2; opacity: 1;"><g class="fills"/><g class="errorbars"/><g class="lines"><path class="js-line" d="M0,81.18L5.45,204.08L10.91,210.74L16.36,214.61L21.82,220.98L32.73,228.73L38.18,230.96L43.64,233.63L49.09,237.59L54.55,241.29L60,243.52L70.91,245.66L76.36,247.58L87.27,248.45L92.73,249.23L98.18,248.98L103.64,249.57L114.55,250.42L120,250.25L130.91,250.35L136.36,250.3L141.82,250.5L147.27,251.58L152.73,250.37L158.18,251.91L180,252.33L185.45,251.41L190.91,252.16L196.36,251.84L201.82,252.97L207.27,251.8L218.18,251.92L223.64,253.2L267.27,260.78L272.73,261.87L278.18,261.67L283.64,263.69L294.55,265.17L300,265.77L305.45,267.08L310.91,267.56L338.18,272.56L343.64,272.8L360,276.26L365.45,276.19L376.36,278.71L381.82,279.27L387.27,279.91L392.73,281.34L409.09,283.59L414.55,284.49L430.91,287.39L436.36,287.69L452.73,288.86L458.18,289L523.64,291.89L529.09,292.13L540,292.55" style="vector-effect: non-scaling-stroke; fill: none; stroke: rgb(231, 107, 243); stroke-opacity: 1; stroke-width: 2px; opacity: 1;"/></g><g class="points"/><g class="text"/></g><g class="trace scatter trace50e4f0" style="stroke-miterlimit: 2; opacity: 1;"><g class="fills"/><g class="errorbars"/><g class="lines"><path class="js-line" d="M0,116.69L5.45,205.83L10.91,212.48L21.82,217.93L27.27,219.57L38.18,224.82L43.64,226.83L49.09,228.54L54.55,231.45L60,237.96L65.45,241.88L70.91,245.45L76.36,246.26L87.27,248.41L92.73,248.84L98.18,248.73L103.64,249.57L109.09,250.26L114.55,250.05L120,250.02L125.45,251.24L130.91,251.44L136.36,250.41L141.82,250.65L147.27,252.14L163.64,252.17L169.09,252.86L174.55,252.33L180,253L190.91,253.36L196.36,253.37L212.73,253.43L218.18,254.2L267.27,260.51L272.73,261.49L278.18,261.86L283.64,264.39L289.09,263.76L294.55,265.47L321.82,269.41L327.27,269.91L343.64,273.17L349.09,273.11L360,276.42L365.45,276.2L376.36,279.07L381.82,279.86L420,285.83L425.45,287.01L436.36,288.41L441.82,288.63L452.73,289.59L458.18,289.76L540,293.6" style="vector-effect: non-scaling-stroke; fill: none; stroke: rgb(248, 118, 109); stroke-opacity: 1; stroke-width: 2px; opacity: 1;"/></g><g class="points"/><g class="text"/></g><g class="trace scatter tracea8fdad" style="stroke-miterlimit: 2; opacity: 1;"><g class="fills"/><g class="errorbars"/><g class="lines"><path class="js-line" d="M0,106.47L5.45,206.64L10.91,211.07L16.36,214.05L21.82,215.21L32.73,217.97L38.18,220.84L43.64,225.19L49.09,231.89L54.55,238.11L60,242.01L70.91,246.82L76.36,248.06L92.73,250.61L98.18,250.46L103.64,251.58L109.09,251.05L114.55,252L120,251.87L130.91,252.98L136.36,253.03L141.82,252.86L147.27,253.68L174.55,254.56L180,255.16L185.45,254.21L190.91,254.97L207.27,255.58L212.73,254.21L218.18,255.75L223.64,256.46L234.55,258.01L240,258.48L245.45,259.76L250.91,259.86L256.36,261.2L261.82,261.53L267.27,263.38L272.73,263.67L278.18,263.74L283.64,265.13L289.09,265.55L294.55,266.75L300,268.25L305.45,268.28L310.91,268.02L316.36,270.62L327.27,270.76L332.73,272.21L338.18,273.8L343.64,274.31L349.09,274.31L354.55,276.39L360,276.87L365.45,278.12L436.36,289.55L441.82,289.97L507.27,293.61L512.73,293.86L540,295.02" style="vector-effect: non-scaling-stroke; fill: none; stroke: rgb(163, 165, 0); stroke-opacity: 1; stroke-width: 2px; opacity: 1;"/></g><g class="points"/><g class="text"/></g><g class="trace scatter traceb4c32e" style="stroke-miterlimit: 2; opacity: 1;"><g class="fills"/><g class="errorbars"/><g class="lines"><path class="js-line" d="M0,114.58L5.45,203.57L10.91,209.31L21.82,214.55L27.27,216.01L38.18,220.09L43.64,225.94L49.09,233.07L54.55,238.88L60,241.74L65.45,242.37L70.91,244.69L76.36,246.17L125.45,249.85L130.91,249.2L136.36,250.04L141.82,249.98L147.27,250.69L152.73,250.15L185.45,250.34L190.91,249.61L201.82,250.75L207.27,249.59L218.18,249.95L223.64,251.02L245.45,254.21L250.91,254.7L256.36,255.13L261.82,256.41L267.27,257.78L272.73,258.26L300,262.81L305.45,262.64L316.36,266.39L321.82,265.81L343.64,269.82L349.09,270.57L360,272.44L365.45,273.13L370.91,273.53L376.36,274.76L381.82,275.1L387.27,276.34L392.73,277.46L398.18,277.66L403.64,278.95L409.09,279.4L430.91,282.45L436.36,283.28L496.36,286.16L501.82,286.31L540,287.77" style="vector-effect: non-scaling-stroke; fill: none; stroke: rgb(0, 191, 125); stroke-opacity: 1; stroke-width: 2px; opacity: 1;"/></g><g class="points"/><g class="text"/></g><g class="trace scatter tracec1c5d1" style="stroke-miterlimit: 2; opacity: 1;"><g class="fills"/><g class="errorbars"/><g class="lines"><path class="js-line" d="M0,106.11L5.45,204.59L10.91,210.1L16.36,213.17L21.82,214.8L38.18,218.65L43.64,223.72L49.09,227.16L54.55,234.31L60,238.27L65.45,241.27L76.36,245.88L81.82,246.32L87.27,247.44L92.73,247.64L98.18,247.79L103.64,249.04L109.09,249.11L114.55,249.94L120,249.06L125.45,249.86L136.36,250.19L141.82,249.76L147.27,251.43L152.73,250.81L158.18,250.38L163.64,251.38L169.09,251.74L174.55,251.19L180,252.13L185.45,250.92L207.27,252.79L212.73,252.94L218.18,252.67L223.64,253.32L240,257.41L245.45,257.82L250.91,259.14L256.36,259.39L272.73,262.1L278.18,262.84L283.64,263.23L289.09,265.03L305.45,267.21L310.91,267.51L321.82,270.84L327.27,270.6L332.73,272.2L338.18,272.6L343.64,274.37L349.09,274.41L360,276.85L365.45,277.2L370.91,278.28L376.36,280.15L387.27,280.7L392.73,282.46L409.09,284.69L414.55,285.82L447.27,289.76L452.73,290.06L501.82,292.51L507.27,292.69L540,294.13" style="vector-effect: non-scaling-stroke; fill: none; stroke: rgb(0, 176, 246); stroke-opacity: 1; stroke-width: 2px; opacity: 1;"/></g><g class="points"/><g class="text"/></g><g class="trace scatter trace8e1e53" style="stroke-miterlimit: 2; opacity: 1;"><g class="fills"/><g class="errorbars"/><g class="lines"><path class="js-line" d="M0,112.1L5.45,206.68L10.91,212.97L16.36,215.58L21.82,217.31L27.27,218.75L32.73,223.4L38.18,229.2L43.64,233.27L54.55,240.68L60,242.48L81.82,245.68L87.27,246.03L114.55,248.36L120,248.25L130.91,247.98L136.36,247.49L147.27,248.51L152.73,247.72L158.18,248.89L163.64,248.25L180,248.1L185.45,247.14L196.36,247.79L201.82,247.81L207.27,248.35L212.73,247.41L229.09,250.22L234.55,249.9L245.45,252.3L250.91,253.15L261.82,254.74L267.27,256.54L278.18,257.93L283.64,258.97L300,262.47L305.45,262.82L310.91,263.06L316.36,265.61L327.27,266.6L332.73,267.35L343.64,269.68L349.09,270.44L354.55,272.04L360,272.68L365.45,273.33L370.91,274.81L376.36,276.3L381.82,276.25L392.73,278.12L398.18,279.23L425.45,283.57L430.91,284.75L441.82,285.66L447.27,286.12L490.91,288.52L496.36,288.58L540,290.56" style="vector-effect: non-scaling-stroke; fill: none; stroke: rgb(231, 107, 243); stroke-opacity: 1; stroke-width: 2px; opacity: 1;"/></g><g class="points"/><g class="text"/></g><g class="trace scatter trace22e985" style="stroke-miterlimit: 2; opacity: 1;"><g class="fills"/><g class="errorbars"/><g class="lines"><path class="js-line" d="M0,125.3L5.45,206.51L10.91,211.49L16.36,214.27L21.82,216.07L38.18,219.39L43.64,225.07L49.09,229.25L54.55,231.69L60,233.83L65.45,237.28L70.91,241.3L76.36,242.73L81.82,244.93L87.27,245.64L103.64,248.13L109.09,248.69L125.45,249.91L130.91,250.27L136.36,249.51L141.82,250.7L147.27,251.49L152.73,251.13L158.18,252.54L163.64,252.2L174.55,252.92L180,252.42L190.91,253.36L196.36,253.74L207.27,252.5L212.73,252.36L229.09,254.58L234.55,256.66L245.45,258.4L250.91,258.67L261.82,261.79L267.27,261.97L278.18,264.8L283.64,264.76L294.55,267.79L300,268.59L305.45,269.06L310.91,270.37L316.36,272.19L321.82,272.38L327.27,272.62L332.73,274.14L343.64,276.43L349.09,276.41L354.55,278.84L360,279.7L392.73,284.96L398.18,286.08L420,289.5L425.45,290.46L436.36,291.92L441.82,292.54L474.55,293.93L480,294.54L540,297.04" style="vector-effect: non-scaling-stroke; fill: none; stroke: rgb(248, 118, 109); stroke-opacity: 1; stroke-width: 2px; opacity: 1;"/></g><g class="points"/><g class="text"/></g><g class="trace scatter trace1cf7a8" style="stroke-miterlimit: 2; opacity: 1;"><g class="fills"/><g class="errorbars"/><g class="lines"><path class="js-line" d="M0,67.95L5.45,204.06L10.91,210.33L21.82,214.78L27.27,218.52L32.73,222.89L38.18,225.98L49.09,230.36L54.55,232.15L60,233.08L65.45,234.88L70.91,238.92L76.36,240.72L92.73,246.75L98.18,247.48L103.64,248.95L109.09,249.39L114.55,250.82L120,250.81L130.91,252.52L136.36,252.36L141.82,251.98L147.27,253.02L158.18,254.05L163.64,253.32L174.55,254.83L180,255.22L185.45,254.49L190.91,255.44L196.36,255.09L201.82,256.29L207.27,255.37L212.73,256.26L223.64,256.83L229.09,258.28L240,260.73L245.45,261.23L256.36,262.6L261.82,263.59L267.27,265.18L272.73,265.62L278.18,265.94L283.64,268.41L289.09,268.1L294.55,269.97L300,271.02L305.45,271.02L316.36,273.43L321.82,274.14L370.91,283.03L376.36,284.44L398.18,287.77L403.64,288.62L436.36,293.61L441.82,294.01L447.27,294.7L452.73,294.6L540,298.67" style="vector-effect: non-scaling-stroke; fill: none; stroke: rgb(163, 165, 0); stroke-opacity: 1; stroke-width: 2px; opacity: 1;"/></g><g class="points"/><g class="text"/></g><g class="trace scatter traceb544bb" style="stroke-miterlimit: 2; opacity: 1;"><g class="fills"/><g class="errorbars"/><g class="lines"><path class="js-line" d="M0,97.89L5.45,208.85L10.91,213.94L16.36,218.41L21.82,220.96L27.27,225.52L32.73,228.1L49.09,233.38L54.55,234.26L70.91,235.06L76.36,235.57L81.82,236.23L87.27,240.54L92.73,244.68L98.18,246.99L114.55,251.12L120,249.75L130.91,251.29L136.36,250.63L158.18,252.96L163.64,253.92L169.09,255.6L174.55,254.73L190.91,255.06L196.36,254.64L201.82,256.18L207.27,255.57L212.73,255.04L218.18,256.08L223.64,256.42L229.09,257.7L245.45,260.39L250.91,260.73L283.64,267.14L289.09,267.43L294.55,269.01L300,269.22L305.45,270.64L310.91,270.49L321.82,273.54L327.27,273.72L338.18,276L343.64,276.82L349.09,277.21L354.55,279.03L370.91,280.69L376.36,282.76L387.27,283.69L392.73,285.2L425.45,289.93L430.91,290.76L458.18,292.55L463.64,292.61L512.73,295.01L518.18,295.26L540,296.16" style="vector-effect: non-scaling-stroke; fill: none; stroke: rgb(0, 191, 125); stroke-opacity: 1; stroke-width: 2px; opacity: 1;"/></g><g class="points"/><g class="text"/></g><g class="trace scatter trace948103" style="stroke-miterlimit: 2; opacity: 1;"><g class="fills"/><g class="errorbars"/><g class="lines"><path class="js-line" d="M0,80.64L5.45,202.27L10.91,209.15L16.36,214.21L21.82,216.79L27.27,220.1L32.73,226.09L43.64,236.94L49.09,241.33L54.55,243.77L60,244.69L87.27,248.29L92.73,248.62L120,250.74L125.45,250.64L130.91,251.53L136.36,251.61L141.82,250.91L147.27,251.56L158.18,252.34L163.64,251.63L169.09,252.64L174.55,252.21L180,252.6L185.45,252.2L190.91,252.46L196.36,251.78L201.82,253.14L207.27,252.3L218.18,254.23L223.64,253.72L229.09,255.51L234.55,256.17L240,257.28L245.45,257.59L267.27,261.18L272.73,262.67L278.18,262.71L283.64,264.09L289.09,264.69L294.55,266.2L300,267.11L305.45,267.15L310.91,268.36L316.36,270.54L327.27,271.79L332.73,272.85L349.09,275.51L354.55,277.1L430.91,290.01L436.36,290.66L458.18,292.07L463.64,292.24L512.73,294.68L518.18,294.89L540,295.81" style="vector-effect: non-scaling-stroke; fill: none; stroke: rgb(0, 176, 246); stroke-opacity: 1; stroke-width: 2px; opacity: 1;"/></g><g class="points"/><g class="text"/></g><g class="trace scatter trace07ab83" style="stroke-miterlimit: 2; opacity: 1;"><g class="fills"/><g class="errorbars"/><g class="lines"><path class="js-line" d="M0,83.31L5.45,199.28L10.91,208.15L16.36,211.78L21.82,214.33L32.73,219.02L38.18,223.19L49.09,235.28L54.55,239.6L60,242.7L65.45,243.44L70.91,245.85L76.36,246.39L92.73,249.91L98.18,250.18L103.64,251.82L109.09,250.94L114.55,252.23L120,252.21L130.91,253.78L136.36,253.92L141.82,253.67L147.27,255.34L152.73,254.96L158.18,256.06L163.64,255.48L169.09,256.23L174.55,256.5L180,255.9L201.82,257.13L207.27,256.73L212.73,256.73L218.18,257.7L229.09,259.51L234.55,260.93L245.45,261.81L250.91,262.84L261.82,264.95L267.27,265.45L272.73,266.92L278.18,267.29L283.64,268.01L289.09,269.78L310.91,273.14L316.36,274.71L327.27,275.95L332.73,276.94L343.64,279.63L349.09,279.11L360,281.94L365.45,282.33L370.91,283.01L376.36,284.53L420,291.02L425.45,291.95L441.82,293.79L447.27,294.11L463.64,294.69L469.09,295.08L485.45,295.63L490.91,296.03L540,297.99" style="vector-effect: non-scaling-stroke; fill: none; stroke: rgb(231, 107, 243); stroke-opacity: 1; stroke-width: 2px; opacity: 1;"/></g><g class="points"/><g class="text"/></g><g class="trace scatter traceafdd02" style="stroke-miterlimit: 2; opacity: 1;"><g class="fills"/><g class="errorbars"/><g class="lines"><path class="js-line" d="M0,68.45L5.45,201.92L10.91,210.77L21.82,216.5L27.27,217.9L38.18,221.22L43.64,226.37L49.09,234.83L54.55,240.11L65.45,244.45L70.91,245.95L92.73,249.8L98.18,250.2L103.64,251.46L109.09,251.88L120,252.69L125.45,253.29L130.91,254.08L136.36,254.01L141.82,253.64L147.27,255.15L152.73,254.8L158.18,255.65L163.64,254.65L169.09,255.5L180,255.9L185.45,255.81L190.91,256.11L196.36,255.47L212.73,256.09L218.18,257.14L223.64,257.48L229.09,258.71L234.55,259.81L240,259.91L245.45,261.91L250.91,261.3L256.36,261.81L261.82,263.43L272.73,266.27L278.18,266.59L283.64,267.93L289.09,268.36L300,271.07L305.45,271.2L310.91,271.47L316.36,273.85L338.18,277.56L343.64,278.07L349.09,278.6L354.55,280.51L370.91,282.5L376.36,284.48L387.27,285.44L392.73,286.74L403.64,288.8L409.09,289.14L420,291.4L425.45,292.54L441.82,294.54L447.27,294.69L458.18,295.49L463.64,295.52L485.45,296.76L490.91,296.97L507.27,297.86L512.73,298.08L540,299.29" style="vector-effect: non-scaling-stroke; fill: none; stroke: rgb(248, 118, 109); stroke-opacity: 1; stroke-width: 2px; opacity: 1;"/></g><g class="points"/><g class="text"/></g><g class="trace scatter trace5bce7f" style="stroke-miterlimit: 2; opacity: 1;"><g class="fills"/><g class="errorbars"/><g class="lines"><path class="js-line" d="M0,110.27L5.45,207.79L10.91,213.67L16.36,215.81L21.82,217.06L32.73,219.55L38.18,221.83L43.64,224.75L49.09,231.12L54.55,238.08L60,242.96L65.45,244.92L70.91,245.75L76.36,246.98L81.82,247.03L87.27,248.5L92.73,249.16L98.18,248.79L103.64,250.05L114.55,250.66L120,251.02L136.36,251.53L141.82,251.38L158.18,253.36L163.64,252.76L169.09,253.53L174.55,253.44L180,253.84L185.45,252.52L190.91,253.88L196.36,253.09L201.82,254.01L207.27,253.89L212.73,253.47L218.18,254.05L223.64,254.98L229.09,255.1L234.55,256.84L240,257.25L245.45,259.06L250.91,259.01L256.36,260.78L261.82,261.21L272.73,263.46L278.18,263.33L283.64,265.94L289.09,266.09L294.55,268.14L300,268.19L310.91,270.04L316.36,271.32L327.27,271.98L332.73,273.86L349.09,276.02L354.55,278.18L365.45,279.78L370.91,280.4L381.82,281.91L387.27,283.75L392.73,284.05L398.18,285.62L420,288.72L425.45,289.67L436.36,291.18L441.82,291.47L540,296.03" style="vector-effect: non-scaling-stroke; fill: none; stroke: rgb(163, 165, 0); stroke-opacity: 1; stroke-width: 2px; opacity: 1;"/></g><g class="points"/><g class="text"/></g><g class="trace scatter tracec492a9" style="stroke-miterlimit: 2; opacity: 1;"><g class="fills"/><g class="errorbars"/><g class="lines"><path class="js-line" d="M0,102.07L5.45,205.81L10.91,211.32L43.64,229.94L49.09,234.25L54.55,239.15L60,242.13L65.45,242.62L70.91,245.36L92.73,248.56L98.18,248.32L103.64,249.41L109.09,249.39L114.55,250.15L120,249.61L130.91,251.37L136.36,250.67L141.82,250.35L147.27,251.51L152.73,251.18L158.18,251.88L163.64,251.4L169.09,252.43L196.36,252.29L201.82,252.78L207.27,253.31L212.73,252.65L218.18,252.93L223.64,254.39L229.09,255.12L234.55,256.87L245.45,257.74L250.91,259.48L267.27,261.62L272.73,263.35L278.18,263.74L283.64,265.16L289.09,265.8L294.55,267.35L310.91,269.36L316.36,271.43L321.82,272.13L327.27,271.74L332.73,273.85L338.18,274.73L349.09,276.05L354.55,277.61L436.36,290.4L441.82,290.66L469.09,292.18L474.55,292.25L485.45,293.09L490.91,293.26L518.18,294.44L523.64,294.73L540,295.39" style="vector-effect: non-scaling-stroke; fill: none; stroke: rgb(0, 191, 125); stroke-opacity: 1; stroke-width: 2px; opacity: 1;"/></g><g class="points"/><g class="text"/></g><g class="trace scatter trace6eb005" style="stroke-miterlimit: 2; opacity: 1;"><g class="fills"/><g class="errorbars"/><g class="lines"><path class="js-line" d="M0,93.2L5.45,204.16L10.91,210.22L16.36,213.66L21.82,215.62L32.73,218.54L38.18,219.91L43.64,222.71L49.09,230.52L54.55,237.86L60,242.44L70.91,246.98L76.36,247.47L92.73,250.22L98.18,250.26L103.64,251.36L109.09,251.46L114.55,252.52L120,251.97L130.91,253.81L136.36,253.72L141.82,253.18L147.27,255.22L152.73,254.3L158.18,254.95L163.64,254.73L169.09,256.27L174.55,255.24L180,255.83L190.91,256.18L196.36,256.81L212.73,257.2L218.18,257.94L229.09,259.06L234.55,260.74L240,260.96L245.45,262.48L250.91,262.66L256.36,263.73L278.18,267.97L283.64,269.33L289.09,269.66L294.55,271.06L300,272.41L305.45,272.47L343.64,280.43L349.09,280.29L354.55,282.35L360,283.14L398.18,290.21L403.64,290.89L414.55,292.91L420,293.53L436.36,296.58L441.82,297.08L507.27,300.37L512.73,300.57L540,301.79" style="vector-effect: non-scaling-stroke; fill: none; stroke: rgb(0, 176, 246); stroke-opacity: 1; stroke-width: 2px; opacity: 1;"/></g><g class="points"/><g class="text"/></g><g class="trace scatter trace667a84" style="stroke-miterlimit: 2; opacity: 1;"><g class="fills"/><g class="errorbars"/><g class="lines"><path class="js-line" d="M0,78.16L5.45,200.99L10.91,209.65L16.36,212.66L21.82,214.77L32.73,216.92L38.18,216.55L49.09,225.86L54.55,228.51L60,233.02L65.45,236.07L70.91,240.61L76.36,243.36L92.73,248.19L98.18,248.81L125.45,250.92L130.91,250.93L136.36,252.23L141.82,250.84L147.27,252.37L152.73,253.04L163.64,252.99L169.09,254.24L185.45,253.7L190.91,254.06L207.27,255.15L212.73,254.76L229.09,256.93L234.55,258.68L240,258.64L245.45,259.85L250.91,260.06L256.36,261.75L261.82,261.83L267.27,263.58L272.73,264.02L278.18,265.55L300,268.89L305.45,269.3L321.82,273.31L327.27,273.15L332.73,275.12L338.18,275.83L349.09,276.42L354.55,278.77L365.45,280.65L370.91,281.12L376.36,282.54L381.82,282.78L392.73,285.06L398.18,285.91L414.55,287.98L420,289.07L430.91,290.9L436.36,291.28L452.73,292.59L458.18,292.88L480,293.98L485.45,294.2L540,296.55" style="vector-effect: non-scaling-stroke; fill: none; stroke: rgb(231, 107, 243); stroke-opacity: 1; stroke-width: 2px; opacity: 1;"/></g><g class="points"/><g class="text"/></g><g class="trace scatter tracec471c8" style="stroke-miterlimit: 2; opacity: 1;"><g class="fills"/><g class="errorbars"/><g class="lines"><path class="js-line" d="M0,107.02L5.45,207.77L10.91,212.62L21.82,216.54L27.27,217.8L32.73,218.68L38.18,222.47L43.64,227.69L49.09,230.74L60,232.81L65.45,232.23L70.91,233.95L76.36,234.25L87.27,235.07L92.73,235.77L98.18,238.18L103.64,242.58L109.09,245.15L114.55,246.36L136.36,248L141.82,246.92L147.27,249.33L152.73,248.13L169.09,249.67L174.55,249.06L180,250.2L185.45,249.24L190.91,250.62L196.36,250.87L201.82,251.33L207.27,250.86L229.09,254.31L234.55,256.62L240,256.03L245.45,257.47L250.91,257.69L256.36,259.18L261.82,259.69L267.27,261.56L278.18,263.13L283.64,264.99L289.09,265.15L294.55,266.25L300,267.68L305.45,267.61L338.18,274.32L343.64,275.09L354.55,277.06L360,278.54L370.91,279.8L376.36,281.52L409.09,286.75L414.55,287.7L441.82,291.37L447.27,291.9L540,296.21" style="vector-effect: non-scaling-stroke; fill: none; stroke: rgb(248, 118, 109); stroke-opacity: 1; stroke-width: 2px; opacity: 1;"/></g><g class="points"/><g class="text"/></g><g class="trace scatter trace320678" style="stroke-miterlimit: 2; opacity: 1;"><g class="fills"/><g class="errorbars"/><g class="lines"><path class="js-line" d="M0,118.46L5.45,204.73L10.91,210.32L21.82,214.82L27.27,216.28L38.18,219.4L43.64,222.95L54.55,236.36L60,240.62L65.45,241.93L70.91,244.1L76.36,244.73L81.82,246.2L87.27,248.14L92.73,248.76L98.18,247.87L103.64,249.71L109.09,248.35L114.55,249.78L125.45,249.52L130.91,250.07L141.82,249.48L147.27,251.52L152.73,250.87L158.18,251.14L169.09,251.33L174.55,252.4L180,252.74L185.45,251.4L190.91,252.59L196.36,251.73L207.27,253.47L212.73,253.34L218.18,252.72L223.64,254.31L229.09,254.93L234.55,257.07L245.45,257.67L250.91,259.14L261.82,261.25L267.27,263.22L278.18,263.44L283.64,265.21L289.09,265.73L294.55,267.38L310.91,269.75L316.36,271.52L321.82,272.2L327.27,272.08L338.18,274.4L343.64,275.21L349.09,275.97L354.55,277.77L360,279.07L365.45,279.21L370.91,279.91L376.36,281.56L387.27,283.11L392.73,284.35L409.09,286.63L414.55,287.38L436.36,291.01L441.82,291.34L540,295.89" style="vector-effect: non-scaling-stroke; fill: none; stroke: rgb(163, 165, 0); stroke-opacity: 1; stroke-width: 2px; opacity: 1;"/></g><g class="points"/><g class="text"/></g><g class="trace scatter traced5f838" style="stroke-miterlimit: 2; opacity: 1;"><g class="fills"/><g class="errorbars"/><g class="lines"><path class="js-line" d="M0,81.27L5.45,202.38L10.91,210.11L16.36,213.88L21.82,215.17L32.73,217.37L38.18,217.59L49.09,222.59L54.55,227.68L60,234.18L65.45,238.49L70.91,241.75L76.36,243.78L81.82,244.82L87.27,246.87L92.73,246.61L98.18,247.31L114.55,249.87L120,249.76L125.45,249.39L130.91,249.81L136.36,250.57L141.82,249.7L147.27,251.43L152.73,250.21L158.18,251.09L163.64,250.73L174.55,251.65L180,250.94L185.45,250.52L190.91,251.56L196.36,250.79L201.82,251.38L218.18,251.22L223.64,252.42L245.45,256.14L250.91,256.91L267.27,260.6L272.73,260.96L278.18,262.59L283.64,263.18L300,265.05L305.45,264.9L310.91,267.05L316.36,268.31L327.27,268.72L332.73,270.95L343.64,272.12L349.09,272.41L360,274.99L365.45,275.7L376.36,277.44L381.82,278.31L387.27,278.95L392.73,280.6L409.09,282.22L414.55,283.29L441.82,286.69L447.27,286.96L474.55,288.16L480,288.66L540,291.06" style="vector-effect: non-scaling-stroke; fill: none; stroke: rgb(0, 191, 125); stroke-opacity: 1; stroke-width: 2px; opacity: 1;"/></g><g class="points"/><g class="text"/></g><g class="trace scatter tracebee574" style="stroke-miterlimit: 2; opacity: 1;"><g class="fills"/><g class="errorbars"/><g class="lines"><path class="js-line" d="M0,16L5.45,189.95L10.91,204.95L21.82,213.3L27.27,215.84L32.73,219.15L38.18,224.71L43.64,229.39L49.09,237.69L54.55,241.57L60,242.78L76.36,246.27L81.82,246.98L92.73,248.87L98.18,248.67L103.64,249.87L109.09,250.14L114.55,251.56L120,251.87L136.36,253.77L141.82,253.32L147.27,254.6L152.73,255.11L180,256.91L185.45,256.05L190.91,255.98L196.36,257.19L201.82,257.95L207.27,256.97L218.18,258.73L223.64,258.56L240,262.17L245.45,262.57L250.91,263.04L256.36,264.59L261.82,264.4L267.27,265.74L300,271.25L305.45,271.46L321.82,274.75L327.27,275.35L343.64,278.11L349.09,278.5L354.55,280.34L360,281.09L365.45,282.11L370.91,282.26L381.82,284.67L387.27,285.5L392.73,286.95L398.18,287.44L436.36,293.28L441.82,293.67L507.27,297.04L512.73,297.22L540,298.43" style="vector-effect: non-scaling-stroke; fill: none; stroke: rgb(0, 176, 246); stroke-opacity: 1; stroke-width: 2px; opacity: 1;"/></g><g class="points"/><g class="text"/></g><g class="trace scatter trace5f0e61" style="stroke-miterlimit: 2; opacity: 1;"><g class="fills"/><g class="errorbars"/><g class="lines"><path class="js-line" d="M0,51.34L5.45,203.88L10.91,209.25L16.36,213.31L21.82,215.77L27.27,218.53L32.73,223.42L38.18,226.73L43.64,231.09L60,241.84L65.45,242.36L70.91,244.07L76.36,244.97L103.64,248.65L109.09,248.94L114.55,249.76L120,249.56L125.45,250.07L130.91,251.56L136.36,250.57L141.82,250.45L147.27,251.64L152.73,251.5L158.18,252.21L163.64,251.71L174.55,252.71L180,252.61L185.45,252.21L190.91,252.84L196.36,252L201.82,253.56L223.64,254.67L229.09,255.96L245.45,258.52L250.91,259.22L256.36,260.44L261.82,260.26L267.27,262.42L272.73,263.42L283.64,265.01L289.09,265.07L300,268.36L305.45,268.59L310.91,269L316.36,270.74L321.82,272.02L327.27,272.39L332.73,274.18L338.18,274.97L349.09,276.3L354.55,277.58L360,279.26L365.45,279.17L376.36,282.26L381.82,282.39L403.64,286.07L409.09,287.01L425.45,289.95L430.91,290.88L540,296.5" style="vector-effect: non-scaling-stroke; fill: none; stroke: rgb(231, 107, 243); stroke-opacity: 1; stroke-width: 2px; opacity: 1;"/></g><g class="points"/><g class="text"/></g><g class="trace scatter trace2e83af" style="stroke-miterlimit: 2; opacity: 1;"><g class="fills"/><g class="errorbars"/><g class="lines"><path class="js-line" d="M0,111.66L5.45,203.88L10.91,209.81L16.36,213.06L21.82,214.9L27.27,218.32L32.73,224.14L43.64,232.94L49.09,238.67L54.55,242.27L60,244.04L70.91,246.97L76.36,246.99L87.27,248.61L92.73,248.44L103.64,249.19L109.09,249.09L114.55,250.98L120,250.72L125.45,250.66L130.91,252.2L141.82,251.42L147.27,252.38L163.64,253.55L169.09,252.98L174.55,253.94L180,253.82L185.45,252.57L190.91,253.53L196.36,254.27L201.82,253.47L207.27,255.35L212.73,254.78L218.18,254.13L223.64,254.69L234.55,257.95L240,258.52L267.27,262.65L272.73,263.97L283.64,264.89L289.09,266.28L300,268.88L305.45,269.01L321.82,272.89L327.27,273.2L332.73,274.69L338.18,275.12L365.45,280.69L370.91,281.32L430.91,291.43L436.36,292.07L452.73,293.34L458.18,293.37L518.18,296.48L523.64,296.65L540,297.41" style="vector-effect: non-scaling-stroke; fill: none; stroke: rgb(248, 118, 109); stroke-opacity: 1; stroke-width: 2px; opacity: 1;"/></g><g class="points"/><g class="text"/></g><g class="trace scatter trace067c14" style="stroke-miterlimit: 2; opacity: 1;"><g class="fills"/><g class="errorbars"/><g class="lines"><path class="js-line" d="M0,103.44L5.45,201.08L10.91,208.28L21.82,213.93L27.27,214.86L32.73,216.28L38.18,216.65L43.64,217.14L49.09,220.1L65.45,238.53L70.91,243.07L81.82,246.35L87.27,246.69L92.73,248.31L98.18,248.18L103.64,249.62L109.09,249.66L114.55,250.26L120,249.56L136.36,250.95L141.82,250.12L147.27,251.94L152.73,251.59L163.64,252.33L169.09,252.86L180,253.26L185.45,252.67L196.36,254.3L201.82,254.23L212.73,254.32L218.18,255.33L223.64,254.98L229.09,255.95L234.55,257.78L240,258.05L250.91,259.48L256.36,261.01L261.82,261.47L267.27,262.96L289.09,265.79L294.55,267.14L305.45,268.22L310.91,269.08L327.27,271.95L332.73,272.89L338.18,274.26L343.64,274.3L349.09,275.07L354.55,276.67L360,277.01L365.45,278.2L370.91,278.37L376.36,280.18L387.27,281.25L392.73,282.1L420,286.19L425.45,287.04L436.36,288.46L441.82,288.77L458.18,289.65L463.64,289.8L540,293.13" style="vector-effect: non-scaling-stroke; fill: none; stroke: rgb(163, 165, 0); stroke-opacity: 1; stroke-width: 2px; opacity: 1;"/></g><g class="points"/><g class="text"/></g><g class="trace scatter trace626777" style="stroke-miterlimit: 2; opacity: 1;"><g class="fills"/><g class="errorbars"/><g class="lines"><path class="js-line" d="M0,86.39L5.45,207.16L10.91,214.7L16.36,220.37L21.82,224.09L27.27,228.11L32.73,230.51L43.64,232.98L49.09,234.96L54.55,238.79L60,241.53L70.91,246.23L76.36,246.88L92.73,250.02L98.18,249.91L103.64,250.43L109.09,249.19L114.55,251.13L120,250.5L125.45,250.71L130.91,252.19L136.36,251.18L141.82,251.24L147.27,252.72L152.73,252.45L158.18,252.1L163.64,252.65L169.09,253.31L174.55,252.32L180,253.01L185.45,252.64L190.91,253.35L196.36,252.85L201.82,252.17L207.27,253.95L212.73,253.32L218.18,253.87L229.09,256.14L234.55,256.05L245.45,257.88L250.91,258.59L256.36,259.83L261.82,259.7L283.64,264.25L289.09,264.29L305.45,267.08L310.91,267.95L316.36,268.77L321.82,270.55L332.73,271.67L338.18,273.17L349.09,274.09L354.55,275.92L403.64,284.17L409.09,284.75L430.91,288.53L436.36,288.96L458.18,290.39L463.64,290.45L480,291.41L485.45,291.62L512.73,293.03L518.18,293.26L540,294.12" style="vector-effect: non-scaling-stroke; fill: none; stroke: rgb(0, 191, 125); stroke-opacity: 1; stroke-width: 2px; opacity: 1;"/></g><g class="points"/><g class="text"/></g><g class="trace scatter tracefb4db9" style="stroke-miterlimit: 2; opacity: 1;"><g class="fills"/><g class="errorbars"/><g class="lines"><path class="js-line" d="M0,93.3L5.45,202.38L10.91,208.83L21.82,215.31L27.27,216.5L32.73,218.38L38.18,218.75L43.64,220.05L49.09,223.27L54.55,229.63L60,237.81L70.91,245.9L76.36,247.47L103.64,251.48L109.09,250.89L120,252L125.45,252.81L130.91,253.02L136.36,252.33L141.82,252.7L147.27,254.02L152.73,253.52L158.18,253.94L163.64,253.5L169.09,254.89L174.55,253.81L180,253.92L207.27,255.06L212.73,254.02L218.18,255.34L223.64,255.74L229.09,257.84L234.55,258L256.36,261.97L261.82,261.99L267.27,263.96L272.73,264.68L300,270.14L305.45,271.17L332.73,276.09L338.18,277.84L365.45,282.42L370.91,283.73L381.82,285.79L387.27,286.37L398.18,288.8L403.64,289.59L430.91,294.86L436.36,295.37L452.73,296.53L458.18,296.87L490.91,298.51L496.36,298.82L540,300.83" style="vector-effect: non-scaling-stroke; fill: none; stroke: rgb(0, 176, 246); stroke-opacity: 1; stroke-width: 2px; opacity: 1;"/></g><g class="points"/><g class="text"/></g><g class="trace scatter trace579ff4" style="stroke-miterlimit: 2; opacity: 1;"><g class="fills"/><g class="errorbars"/><g class="lines"><path class="js-line" d="M0,80.01L5.45,199.94L10.91,207.85L21.82,215.8L27.27,218.56L43.64,226.61L49.09,228.7L60,231.82L65.45,233.1L76.36,241.74L81.82,243.37L87.27,245.75L92.73,246.98L114.55,250.25L120,249.68L130.91,250.61L136.36,250.74L141.82,249.91L147.27,251.82L152.73,250.86L158.18,251.95L169.09,252.07L174.55,252.61L196.36,252.98L201.82,253.34L223.64,255.35L229.09,256.84L245.45,259.76L250.91,260.86L256.36,262.07L261.82,262.4L267.27,264.22L272.73,264.41L278.18,265.97L283.64,265.84L300,269.27L305.45,269.32L316.36,271.53L321.82,272.98L349.09,277.84L354.55,279.32L436.36,293.18L441.82,293.62L469.09,295.2L474.55,295.26L485.45,295.95L490.91,296.2L518.18,297.58L523.64,297.78L540,298.54" style="vector-effect: non-scaling-stroke; fill: none; stroke: rgb(231, 107, 243); stroke-opacity: 1; stroke-width: 2px; opacity: 1;"/></g><g class="points"/><g class="text"/></g><g class="trace scatter trace25b210" style="stroke-miterlimit: 2; opacity: 1;"><g class="fills"/><g class="errorbars"/><g class="lines"><path class="js-line" d="M0,76.07L5.45,201.27L10.91,210.6L21.82,216.18L27.27,217.19L38.18,220.97L43.64,225.3L54.55,237.21L60,241.18L70.91,246.26L76.36,246.61L92.73,249.25L98.18,249.06L103.64,250.31L109.09,249.82L114.55,251.13L120,250.53L136.36,251.54L141.82,251.24L147.27,252.3L152.73,251.34L158.18,252.54L163.64,252.36L180,252.95L185.45,252.6L201.82,253.75L207.27,253.32L229.09,255.05L234.55,256.53L240,257.69L245.45,257.8L250.91,258.15L256.36,259.39L289.09,263.41L294.55,265.01L305.45,265.43L310.91,266.72L321.82,268.65L327.27,269.09L343.64,271.88L349.09,272.09L360,274.36L365.45,275.02L370.91,275.63L376.36,277.08L381.82,277.25L387.27,278.26L430.91,284.87L436.36,285.22L458.18,286.38L463.64,286.39L485.45,287.56L490.91,287.76L540,289.76" style="vector-effect: non-scaling-stroke; fill: none; stroke: rgb(248, 118, 109); stroke-opacity: 1; stroke-width: 2px; opacity: 1;"/></g><g class="points"/><g class="text"/></g><g class="trace scatter trace8d5f1c" style="stroke-miterlimit: 2; opacity: 1;"><g class="fills"/><g class="errorbars"/><g class="lines"><path class="js-line" d="M0,64.2L5.45,201.47L10.91,208.29L16.36,211.9L21.82,214.53L27.27,216.47L32.73,219.76L38.18,223.14L43.64,227.79L54.55,239.02L60,242.15L70.91,244.71L76.36,245.85L92.73,247.15L98.18,247.5L114.55,249.72L120,249.38L136.36,250.5L141.82,250.11L147.27,251.36L152.73,251.47L158.18,251.32L163.64,252.38L174.55,252.47L180,253.31L185.45,252.98L190.91,254.05L207.27,254.78L212.73,255.89L229.09,258.31L234.55,259.98L240,260.4L245.45,261.6L250.91,261.78L256.36,263.17L261.82,263.76L267.27,265.11L289.09,267.76L294.55,269.1L300,270.13L305.45,270.32L321.82,273.9L327.27,274.01L343.64,277.39L349.09,277.11L360,279.88L365.45,280.93L370.91,281.28L376.36,282.63L403.64,286.72L409.09,287.6L430.91,291.19L436.36,291.91L523.64,296.36L529.09,296.61L540,297.03" style="vector-effect: non-scaling-stroke; fill: none; stroke: rgb(163, 165, 0); stroke-opacity: 1; stroke-width: 2px; opacity: 1;"/></g><g class="points"/><g class="text"/></g><g class="trace scatter traceebfb5a" style="stroke-miterlimit: 2; opacity: 1;"><g class="fills"/><g class="errorbars"/><g class="lines"><path class="js-line" d="M0,96.05L5.45,202.37L10.91,209.19L16.36,212.57L21.82,214.91L32.73,217.66L38.18,217.9L49.09,219.24L54.55,224.51L60,229.78L65.45,231.68L70.91,237.59L76.36,242.34L81.82,244.71L87.27,245.38L92.73,246.79L98.18,246.26L103.64,247.9L109.09,248.4L125.45,249.26L130.91,250.45L141.82,249.39L147.27,251.54L152.73,250.66L158.18,251.55L163.64,250.18L169.09,251.19L180,252.3L185.45,250.75L190.91,252.27L196.36,252.18L201.82,252.26L207.27,253.1L212.73,252.29L218.18,252.88L234.55,256.87L240,257.41L250.91,259.04L256.36,259.8L272.73,263.06L278.18,263.16L294.55,265.98L300,266.8L305.45,268.25L310.91,267.97L316.36,270.3L321.82,270.73L327.27,271.03L332.73,272.2L338.18,272.7L343.64,274.25L349.09,274.22L354.55,275.63L381.82,280.51L387.27,281.18L398.18,283.29L403.64,283.62L436.36,288.76L441.82,289.04L458.18,290.13L463.64,290.28L523.64,293.1L529.09,293.3L540,293.76" style="vector-effect: non-scaling-stroke; fill: none; stroke: rgb(0, 191, 125); stroke-opacity: 1; stroke-width: 2px; opacity: 1;"/></g><g class="points"/><g class="text"/></g><g class="trace scatter trace11b340" style="stroke-miterlimit: 2; opacity: 1;"><g class="fills"/><g class="errorbars"/><g class="lines"><path class="js-line" d="M0,90.89L5.45,208.73L10.91,214.3L32.73,228.03L38.18,229.5L60,236.85L65.45,238.65L70.91,241.83L76.36,243.11L81.82,245.48L87.27,246.33L98.18,247.62L103.64,249.36L109.09,249.08L114.55,250.35L120,250.09L125.45,251.2L141.82,251.15L147.27,252.04L152.73,251.31L158.18,251.83L180,253.02L185.45,252.44L196.36,253.24L201.82,252.99L207.27,253.83L212.73,252.58L223.64,254.54L229.09,255.16L250.91,258.83L256.36,259.08L261.82,260.83L267.27,261.68L272.73,262.03L278.18,263.4L283.64,264L289.09,265.47L300,267.35L305.45,267.42L310.91,268.28L316.36,270.12L360,277.64L365.45,278.06L376.36,280.27L381.82,281.51L387.27,281.66L392.73,283.2L398.18,284.4L403.64,284.74L441.82,290.54L447.27,290.8L540,295.21" style="vector-effect: non-scaling-stroke; fill: none; stroke: rgb(0, 176, 246); stroke-opacity: 1; stroke-width: 2px; opacity: 1;"/></g><g class="points"/><g class="text"/></g><g class="trace scatter trace0722f8" style="stroke-miterlimit: 2; opacity: 1;"><g class="fills"/><g class="errorbars"/><g class="lines"><path class="js-line" d="M0,105.57L5.45,205.87L10.91,211.08L16.36,215.16L21.82,216.84L27.27,219.1L32.73,222.81L38.18,227.56L43.64,229.61L49.09,231.96L54.55,232.93L65.45,233.76L70.91,236.92L76.36,242.66L81.82,245.5L92.73,248.34L98.18,248.64L109.09,250.82L114.55,251.48L136.36,252.81L141.82,252.37L147.27,253.92L152.73,253.81L158.18,254.03L163.64,253.27L169.09,254.65L174.55,254.2L180,254.57L185.45,253.58L196.36,254.81L201.82,254.93L223.64,256.1L229.09,257.26L240,259.8L245.45,259.89L267.27,264.2L272.73,264.27L300,269.37L305.45,269.42L321.82,272.28L327.27,272.31L338.18,275.23L343.64,275.64L349.09,275.86L354.55,277.98L376.36,281.86L381.82,282.04L403.64,285.89L409.09,286.58L430.91,290.15L436.36,290.76L512.73,294.76L518.18,295.01L540,295.91" style="vector-effect: non-scaling-stroke; fill: none; stroke: rgb(231, 107, 243); stroke-opacity: 1; stroke-width: 2px; opacity: 1;"/></g><g class="points"/><g class="text"/></g><g class="trace scatter traceb738f3" style="stroke-miterlimit: 2; opacity: 1;"><g class="fills"/><g class="errorbars"/><g class="lines"><path class="js-line" d="M0,81.18L5.45,206.53L10.91,210.68L27.27,217.34L32.73,223.57L49.09,233.33L54.55,239.93L60,244.11L65.45,245.17L70.91,247.73L76.36,248.81L103.64,253.21L109.09,253.23L114.55,253.83L120,253.55L125.45,253.57L130.91,254.81L141.82,253.83L147.27,255.07L152.73,254.78L158.18,255.37L163.64,255.1L169.09,255.92L185.45,255.31L190.91,255.61L223.64,256.91L229.09,258.55L245.45,260.48L250.91,260.68L256.36,262.45L261.82,262.39L267.27,263.93L272.73,264.22L294.55,267.26L300,268.89L305.45,268.93L310.91,269.85L321.82,271.67L327.27,272.36L338.18,274.8L343.64,274.78L349.09,275.42L354.55,276.97L387.27,281.59L392.73,282.55L403.64,284.26L409.09,284.96L441.82,289.14L447.27,289.51L540,293.45" style="vector-effect: non-scaling-stroke; fill: none; stroke: rgb(248, 118, 109); stroke-opacity: 1; stroke-width: 2px; opacity: 1;"/></g><g class="points"/><g class="text"/></g><g class="trace scatter trace738d1e" style="stroke-miterlimit: 2; opacity: 1;"><g class="fills"/><g class="errorbars"/><g class="lines"><path class="js-line" d="M0,67.71L5.45,200.59L10.91,207.17L21.82,212.93L27.27,214.33L49.09,217.64L54.55,217.78L65.45,218.51L70.91,226.46L76.36,236.75L81.82,241.91L87.27,245.04L92.73,246.75L98.18,247.05L103.64,249.28L109.09,249.26L114.55,250.19L125.45,250.74L130.91,251.32L136.36,251.7L141.82,251.2L147.27,252.61L152.73,252.05L158.18,252.96L163.64,252.87L169.09,254.18L174.55,253.51L185.45,253.32L190.91,253.74L201.82,254.79L207.27,254.56L223.64,256.39L229.09,257.15L234.55,258.51L240,258.69L261.82,261.62L267.27,262.76L278.18,265.1L283.64,266.07L289.09,265.82L294.55,268.1L310.91,269.96L316.36,271.33L321.82,272.72L327.27,273.14L343.64,276.21L349.09,276.27L354.55,278.31L360,278.97L365.45,280.12L370.91,280.49L376.36,282.03L381.82,282.78L392.73,285.15L398.18,286.17L403.64,286.09L409.09,287.38L441.82,291.58L447.27,291.89L512.73,294.88L518.18,295.13L540,296" style="vector-effect: non-scaling-stroke; fill: none; stroke: rgb(163, 165, 0); stroke-opacity: 1; stroke-width: 2px; opacity: 1;"/></g><g class="points"/><g class="text"/></g><g class="trace scatter trace232982" style="stroke-miterlimit: 2; opacity: 1;"><g class="fills"/><g class="errorbars"/><g class="lines"><path class="js-line" d="M0,108.89L5.45,206.26L10.91,211.17L27.27,215.81L32.73,216.99L38.18,217.32L43.64,218.62L49.09,220.14L54.55,222.87L65.45,231.1L70.91,234.15L76.36,236.29L81.82,239.43L87.27,241.95L92.73,243.26L98.18,243.79L103.64,245.08L109.09,245.34L114.55,247.08L125.45,247.01L130.91,247.92L136.36,248.08L141.82,246.1L147.27,248.51L152.73,247.28L169.09,248.5L174.55,248.02L190.91,248.69L196.36,248.12L201.82,249.28L207.27,249.16L218.18,249.93L223.64,250.85L240,254.12L245.45,255.67L250.91,256.32L256.36,258.15L261.82,258.21L267.27,259.86L283.64,261.79L289.09,262.69L300,264.99L305.45,264.4L316.36,267.71L321.82,268.41L327.27,268.69L332.73,270.26L349.09,271.9L354.55,273.54L441.82,285.67L447.27,286.06L469.09,287.05L474.55,287.07L485.45,287.81L490.91,287.95L540,289.91" style="vector-effect: non-scaling-stroke; fill: none; stroke: rgb(0, 191, 125); stroke-opacity: 1; stroke-width: 2px; opacity: 1;"/></g><g class="points"/><g class="text"/></g><g class="trace scatter trace86fa51" style="stroke-miterlimit: 2; opacity: 1;"><g class="fills"/><g class="errorbars"/><g class="lines"><path class="js-line" d="M0,109.57L5.45,203.6L10.91,209.82L21.82,214.77L27.27,216L43.64,218.34L49.09,220.22L65.45,236.98L70.91,241.56L76.36,244.12L81.82,245.32L92.73,247.51L98.18,247.99L103.64,249.54L109.09,250.05L114.55,251.02L120,250.9L125.45,252.3L130.91,252.83L141.82,252.69L147.27,253.49L158.18,254.62L163.64,254.53L185.45,256.28L190.91,256.54L201.82,257.31L207.27,256.81L229.09,259.53L234.55,260.93L261.82,265.13L267.27,266.32L278.18,267.79L283.64,269.46L289.09,269.32L294.55,270.61L300,272.17L305.45,272.43L360,283.17L365.45,283.48L409.09,291.37L414.55,292.08L430.91,295.08L436.36,295.75L540,300.9" style="vector-effect: non-scaling-stroke; fill: none; stroke: rgb(0, 176, 246); stroke-opacity: 1; stroke-width: 2px; opacity: 1;"/></g><g class="points"/><g class="text"/></g><g class="trace scatter traceed3c3b" style="stroke-miterlimit: 2; opacity: 1;"><g class="fills"/><g class="errorbars"/><g class="lines"><path class="js-line" d="M0,110.46L5.45,206.19L10.91,210.66L21.82,216.22L27.27,216.94L32.73,218.13L38.18,218.23L49.09,219.2L54.55,221.15L60,224.34L65.45,231.24L70.91,239.33L76.36,241.93L87.27,245.01L92.73,245.55L130.91,251.78L136.36,251.28L141.82,251.05L147.27,252.4L163.64,252.41L169.09,253.29L174.55,254.14L180,253.82L190.91,253.61L196.36,254.18L201.82,255.15L207.27,254.73L218.18,255.39L223.64,256.69L229.09,256.49L234.55,258L245.45,258.81L250.91,260.62L272.73,263.81L278.18,264.68L294.55,267.94L300,268.49L310.91,270.42L316.36,271.28L327.27,272.63L332.73,273.87L343.64,276.09L349.09,275.86L354.55,277.82L360,278.63L381.82,282.6L387.27,283.44L398.18,285.16L403.64,285.95L436.36,291.22L441.82,291.48L512.73,295.04L518.18,295.24L540,296.17" style="vector-effect: non-scaling-stroke; fill: none; stroke: rgb(231, 107, 243); stroke-opacity: 1; stroke-width: 2px; opacity: 1;"/></g><g class="points"/><g class="text"/></g><g class="trace scatter trace8a469c" style="stroke-miterlimit: 2; opacity: 1;"><g class="fills"/><g class="errorbars"/><g class="lines"><path class="js-line" d="M0,87.6L5.45,208.7L10.91,213.87L21.82,216.87L27.27,217.07L49.09,219.47L54.55,219.48L65.45,221.34L70.91,223.53L76.36,225.21L81.82,227.92L92.73,234.92L98.18,237.64L103.64,240.87L109.09,242.49L114.55,244.12L120,246.58L141.82,248.7L147.27,250.03L163.64,250.62L169.09,249.94L174.55,252.15L180,251.38L185.45,251.5L190.91,250.71L212.73,251.75L218.18,252.6L229.09,253.6L234.55,255.55L240,256.69L245.45,256.81L250.91,257.07L256.36,258.46L267.27,260.18L272.73,262.05L278.18,262.23L283.64,263.69L289.09,264.3L294.55,265.9L310.91,267.65L316.36,269.31L327.27,270.56L332.73,272.3L338.18,272.64L343.64,274.08L349.09,274.48L354.55,276.62L370.91,278.86L376.36,279.99L381.82,281.38L387.27,281.42L403.64,284.51L409.09,285.2L436.36,289.39L441.82,290.18L458.18,290.59L463.64,290.88L540,294.19" style="vector-effect: non-scaling-stroke; fill: none; stroke: rgb(248, 118, 109); stroke-opacity: 1; stroke-width: 2px; opacity: 1;"/></g><g class="points"/><g class="text"/></g><g class="trace scatter traceeef45c" style="stroke-miterlimit: 2; opacity: 1;"><g class="fills"/><g class="errorbars"/><g class="lines"><path class="js-line" d="M0,103.56L5.45,203.6L10.91,209.87L21.82,215.22L27.27,216.08L43.64,226.91L49.09,229.39L60,231.46L65.45,231.28L70.91,233.12L76.36,236.97L81.82,242.63L87.27,245.3L92.73,246.81L98.18,247.39L103.64,249.17L109.09,249.96L114.55,250.78L120,250.34L125.45,251.51L130.91,251.49L141.82,251.55L147.27,252.53L158.18,252.96L163.64,253.56L169.09,253.18L174.55,253.65L180,254.34L185.45,253.82L190.91,254.85L196.36,254.97L207.27,256.39L212.73,256.2L223.64,257.33L229.09,258.11L234.55,259.67L240,259.75L250.91,262.28L256.36,263.15L272.73,266.27L278.18,267.09L283.64,268.38L289.09,268.58L294.55,270.68L300,271.59L305.45,271.43L310.91,272.94L316.36,273.76L321.82,275.53L332.73,276.9L338.18,278.57L349.09,279.8L354.55,281.21L365.45,283.06L370.91,283.64L376.36,285.16L381.82,285.5L409.09,290L414.55,291.33L447.27,295.17L452.73,295.27L496.36,297.55L501.82,297.66L540,299.25" style="vector-effect: non-scaling-stroke; fill: none; stroke: rgb(163, 165, 0); stroke-opacity: 1; stroke-width: 2px; opacity: 1;"/></g><g class="points"/><g class="text"/></g><g class="trace scatter tracec7edd8" style="stroke-miterlimit: 2; opacity: 1;"><g class="fills"/><g class="errorbars"/><g class="lines"><path class="js-line" d="M0,87.94L5.45,204.27L10.91,210.97L21.82,215.56L27.27,217.69L54.55,231.23L60,233.71L65.45,237.62L70.91,242.51L76.36,245.58L81.82,246.71L92.73,249.7L98.18,249.33L103.64,251.23L109.09,250.69L114.55,251.7L120,250.91L125.45,252.36L130.91,252.47L141.82,252.8L147.27,254.41L169.09,255.12L174.55,255.28L180,255.72L185.45,255.38L196.36,257.3L201.82,257.16L207.27,257.04L212.73,258.16L218.18,258.18L223.64,259.25L229.09,259.07L234.55,260.59L245.45,263.19L250.91,263.45L283.64,271.11L289.09,271.77L294.55,273.15L300,273.59L327.27,278.82L332.73,280.45L349.09,282.59L354.55,285.14L360,285.36L365.45,287.03L370.91,286.94L376.36,288.66L403.64,293.51L409.09,294.19L420,296.23L425.45,297.07L436.36,298.76L441.82,299.04L458.18,300.07L463.64,300.23L496.36,302.08L501.82,302.25L540,304" style="vector-effect: non-scaling-stroke; fill: none; stroke: rgb(0, 191, 125); stroke-opacity: 1; stroke-width: 2px; opacity: 1;"/></g><g class="points"/><g class="text"/></g><g class="trace scatter trace4aa4b4" style="stroke-miterlimit: 2; opacity: 1;"><g class="fills"/><g class="errorbars"/><g class="lines"><path class="js-line" d="M0,44.69L5.45,194.7L10.91,205.23L16.36,209.86L21.82,213L32.73,215.41L38.18,215.72L49.09,216.5L54.55,218.81L60,224.97L65.45,227.49L70.91,230.04L76.36,231.07L81.82,234.02L87.27,240.27L92.73,243.1L98.18,244L103.64,246.49L109.09,247.45L125.45,249.32L130.91,250.81L136.36,251.3L141.82,250.82L147.27,252.48L152.73,252.44L180,254.12L185.45,253.55L196.36,255.43L201.82,255.06L218.18,256.8L223.64,257.32L234.55,259.31L240,260.7L250.91,261.52L256.36,262.88L283.64,267.07L289.09,267.38L300,269.75L305.45,269.64L321.82,273.18L327.27,273.63L343.64,276.35L349.09,276.65L354.55,278.4L360,279.02L365.45,280.58L370.91,280.62L381.82,282.89L387.27,283.46L398.18,285.71L403.64,286.4L436.36,290.9L441.82,291.22L485.45,293.42L490.91,293.54L507.27,294.46L512.73,294.52L540,295.68" style="vector-effect: non-scaling-stroke; fill: none; stroke: rgb(0, 176, 246); stroke-opacity: 1; stroke-width: 2px; opacity: 1;"/></g><g class="points"/><g class="text"/></g><g class="trace scatter tracee87663" style="stroke-miterlimit: 2; opacity: 1;"><g class="fills"/><g class="errorbars"/><g class="lines"><path class="js-line" d="M0,112.19L5.45,203.79L10.91,210.24L21.82,215.39L27.27,216.89L38.18,217.48L43.64,218.54L49.09,221.32L54.55,225.95L65.45,238.46L70.91,242.06L87.27,246.83L92.73,246.68L98.18,247.74L103.64,247.99L109.09,248.04L114.55,248.9L130.91,250.33L136.36,250.37L152.73,251.25L158.18,252.24L163.64,252L169.09,252.62L180,252.89L185.45,251.64L190.91,253.36L196.36,252.3L201.82,253.3L207.27,252.6L223.64,253.72L229.09,254.66L234.55,256.41L240,257.23L245.45,257.96L250.91,257.68L256.36,259.81L261.82,259.68L272.73,262.9L278.18,262.83L294.55,265.66L300,266.12L338.18,273.06L343.64,273.63L354.55,275.24L360,276.51L376.36,279.33L381.82,279.61L403.64,283.44L409.09,284.17L441.82,288.76L447.27,289.01L540,293.27" style="vector-effect: non-scaling-stroke; fill: none; stroke: rgb(231, 107, 243); stroke-opacity: 1; stroke-width: 2px; opacity: 1;"/></g><g class="points"/><g class="text"/></g></g></g><g class="overplot"/><path class="xlines-above crisp" d="" style="fill: none; stroke-width: 1px; stroke: rgb(0, 0, 0); stroke-opacity: 0;"/><path class="ylines-above crisp" d="" style="fill: none; stroke-width: 1px; stroke: rgb(0, 0, 0); stroke-opacity: 0;"/><g class="overlines-above"/><g class="xaxislayer-above"><path class="xtick ticks crisp" d="M0,421v5" transform="translate(80,0)" style="stroke: rgb(51, 51, 51); stroke-opacity: 1; stroke-width: 1px;"/><path class="xtick ticks crisp" d="M0,421v5" transform="translate(189.09,0)" style="stroke: rgb(51, 51, 51); stroke-opacity: 1; stroke-width: 1px;"/><path class="xtick ticks crisp" d="M0,421v5" transform="translate(298.18,0)" style="stroke: rgb(51, 51, 51); stroke-opacity: 1; stroke-width: 1px;"/><path class="xtick ticks crisp" d="M0,421v5" transform="translate(407.27,0)" style="stroke: rgb(51, 51, 51); stroke-opacity: 1; stroke-width: 1px;"/><path class="xtick ticks crisp" d="M0,421v5" transform="translate(516.36,0)" style="stroke: rgb(51, 51, 51); stroke-opacity: 1; stroke-width: 1px;"/><g class="xtick"><text text-anchor="middle" x="0" y="440.4" transform="translate(80,0)" style="font-family: 'Open Sans', verdana, arial, sans-serif; font-size: 12px; fill: rgb(51, 51, 51); fill-opacity: 1; white-space: pre; opacity: 1;">0</text></g><g class="xtick"><text text-anchor="middle" x="0" y="440.4" style="font-family: 'Open Sans', verdana, arial, sans-serif; font-size: 12px; fill: rgb(51, 51, 51); fill-opacity: 1; white-space: pre; opacity: 1;" transform="translate(189.09,0)">20</text></g><g class="xtick"><text text-anchor="middle" x="0" y="440.4" style="font-family: 'Open Sans', verdana, arial, sans-serif; font-size: 12px; fill: rgb(51, 51, 51); fill-opacity: 1; white-space: pre; opacity: 1;" transform="translate(298.18,0)">40</text></g><g class="xtick"><text text-anchor="middle" x="0" y="440.4" style="font-family: 'Open Sans', verdana, arial, sans-serif; font-size: 12px; fill: rgb(51, 51, 51); fill-opacity: 1; white-space: pre; opacity: 1;" transform="translate(407.27,0)">60</text></g><g class="xtick"><text text-anchor="middle" x="0" y="440.4" style="font-family: 'Open Sans', verdana, arial, sans-serif; font-size: 12px; fill: rgb(51, 51, 51); fill-opacity: 1; white-space: pre; opacity: 1;" transform="translate(516.36,0)">80</text></g></g><g class="yaxislayer-above"><path class="ytick ticks crisp" d="M79,0h-5" transform="translate(0,379.21)" style="stroke: rgb(51, 51, 51); stroke-opacity: 1; stroke-width: 1px;"/><path class="ytick ticks crisp" d="M79,0h-5" transform="translate(0,332.02)" style="stroke: rgb(51, 51, 51); stroke-opacity: 1; stroke-width: 1px;"/><path class="ytick ticks crisp" d="M79,0h-5" transform="translate(0,284.83000000000004)" style="stroke: rgb(51, 51, 51); stroke-opacity: 1; stroke-width: 1px;"/><path class="ytick ticks crisp" d="M79,0h-5" transform="translate(0,237.65)" style="stroke: rgb(51, 51, 51); stroke-opacity: 1; stroke-width: 1px;"/><path class="ytick ticks crisp" d="M79,0h-5" transform="translate(0,190.45999999999998)" style="stroke: rgb(51, 51, 51); stroke-opacity: 1; stroke-width: 1px;"/><path class="ytick ticks crisp" d="M79,0h-5" transform="translate(0,143.27)" style="stroke: rgb(51, 51, 51); stroke-opacity: 1; stroke-width: 1px;"/><g class="ytick"><text text-anchor="end" x="71.6" y="4.199999999999999" transform="translate(0,379.21)" style="font-family: 'Open Sans', verdana, arial, sans-serif; font-size: 12px; fill: rgb(51, 51, 51); fill-opacity: 1; white-space: pre; opacity: 1;">1.7</text></g><g class="ytick"><text text-anchor="end" x="71.6" y="4.199999999999999" style="font-family: 'Open Sans', verdana, arial, sans-serif; font-size: 12px; fill: rgb(51, 51, 51); fill-opacity: 1; white-space: pre; opacity: 1;" transform="translate(0,332.02)">1.75</text></g><g class="ytick"><text text-anchor="end" x="71.6" y="4.199999999999999" style="font-family: 'Open Sans', verdana, arial, sans-serif; font-size: 12px; fill: rgb(51, 51, 51); fill-opacity: 1; white-space: pre; opacity: 1;" transform="translate(0,284.83000000000004)">1.8</text></g><g class="ytick"><text text-anchor="end" x="71.6" y="4.199999999999999" style="font-family: 'Open Sans', verdana, arial, sans-serif; font-size: 12px; fill: rgb(51, 51, 51); fill-opacity: 1; white-space: pre; opacity: 1;" transform="translate(0,237.65)">1.85</text></g><g class="ytick"><text text-anchor="end" x="71.6" y="4.199999999999999" style="font-family: 'Open Sans', verdana, arial, sans-serif; font-size: 12px; fill: rgb(51, 51, 51); fill-opacity: 1; white-space: pre; opacity: 1;" transform="translate(0,190.45999999999998)">1.9</text></g><g class="ytick"><text text-anchor="end" x="71.6" y="4.199999999999999" style="font-family: 'Open Sans', verdana, arial, sans-serif; font-size: 12px; fill: rgb(51, 51, 51); fill-opacity: 1; white-space: pre; opacity: 1;" transform="translate(0,143.27)">1.95</text></g></g><g class="overaxes-above"/></g></g><g class="polarlayer"/><g class="ternarylayer"/><g class="geolayer"/><g class="funnelarealayer"/><g class="pielayer"/><g class="iciclelayer"/><g class="treemaplayer"/><g class="sunburstlayer"/><g class="glimages"/><defs id="topdefs-bebd28"><g class="clips"/></defs><g class="layer-above"><g class="imagelayer"/><g class="shapelayer"/></g><g class="infolayer"><g class="g-gtitle"><text class="gtitle" x="350" y="50" text-anchor="middle" dy="0em" style="font-family: 'Open Sans', verdana, arial, sans-serif; font-size: 17px; fill: rgb(51, 51, 51); opacity: 1; font-weight: normal; white-space: pre;">Train Loss: ascad_v1_fk_0-s_eff_cnn_hw (early_stopping)</text></g><g class="g-xtitle"/><g class="g-ytitle"/></g></svg>