<svg class="main-svg" xmlns="http://www.w3.org/2000/svg" xmlns:xlink="http://www.w3.org/1999/xlink" width="700" height="500" style="" viewBox="0 0 700 500"><rect x="0" y="0" width="700" height="500" style="fill: rgb(255, 255, 255); fill-opacity: 1;"/><defs id="defs-160530"><g class="clips"><clipPath id="clip160530xyplot" class="plotclip"><rect width="540" height="320"/></clipPath><clipPath class="axesclip" id="clip160530x"><rect x="80" y="0" width="540" height="500"/></clipPath><clipPath class="axesclip" id="clip160530y"><rect x="0" y="100" width="700" height="320"/></clipPath><clipPath class="axesclip" id="clip160530xy"><rect x="80" y="100" width="540" height="320"/></clipPath></g><g class="gradients"/><g class="patterns"/></defs><g class="bglayer"><rect class="bg" x="80" y="100" width="540" height="320" style="fill: rgb(237, 237, 237); fill-opacity: 1; stroke-width: 0;"/></g><g class="layer-below"><g class="imagelayer"/><g class="shapelayer"/></g><g class="cartesianlayer"><g class="subplot xy"><g class="layer-subplot"><g class="shapelayer"/><g class="imagelayer"/></g><g class="gridlayer"><g class="x"><path class="xgrid crisp" transform="translate(189.09,0)" d="M0,100v320" style="stroke: rgb(255, 255, 255); stroke-opacity: 1; stroke-width: 1px;"/><path class="xgrid crisp" transform="translate(298.18,0)" d="M0,100v320" style="stroke: rgb(255, 255, 255); stroke-opacity: 1; stroke-width: 1px;"/><path class="xgrid crisp" transform="translate(407.27,0)" d="M0,100v320" style="stroke: rgb(255, 255, 255); stroke-opacity: 1; stroke-width: 1px;"/><path class="xgrid crisp" transform="translate(516.36,0)" d="M0,100v320" style="stroke: rgb(255, 255, 255); stroke-opacity: 1; stroke-width: 1px;"/></g><g class="y"><path class="ygrid crisp" transform="translate(0,364.34)" d="M80,0h540" style="stroke: rgb(255, 255, 255); stroke-opacity: 1; stroke-width: 1px;"/><path class="ygrid crisp" transform="translate(0,302.95)" d="M80,0h540" style="stroke: rgb(255, 255, 255); stroke-opacity: 1; stroke-width: 1px;"/><path class="ygrid crisp" transform="translate(0,241.57)" d="M80,0h540" style="stroke: rgb(255, 255, 255); stroke-opacity: 1; stroke-width: 1px;"/><path class="ygrid crisp" transform="translate(0,180.18)" d="M80,0h540" style="stroke: rgb(255, 255, 255); stroke-opacity: 1; stroke-width: 1px;"/><path class="ygrid crisp" transform="translate(0,118.8)" d="M80,0h540" style="stroke: rgb(255, 255, 255); stroke-opacity: 1; stroke-width: 1px;"/></g></g><g class="zerolinelayer"><path class="xzl zl crisp" transform="translate(80,0)" d="M0,100v320" style="stroke: rgb(255, 255, 255); stroke-opacity: 1; stroke-width: 1px;"/></g><path class="xlines-below"/><path class="ylines-below"/><g class="overlines-below"/><g class="xaxislayer-below"/><g class="yaxislayer-below"/><g class="overaxes-below"/><g class="plot" transform="translate(80,100)" clip-path="url(#clip160530xyplot)"><g class="scatterlayer mlayer"><g class="trace scatter trace1c3420" style="stroke-miterlimit: 2; opacity: 1;"><g class="fills"/><g class="errorbars"/><g class="lines"><path class="js-line" d="M0,301.99L5.45,298.13L10.91,281.66L16.36,277.95L21.82,278.56L38.18,271.67L43.64,270L49.09,267L54.55,266.49L60,264.2L65.45,263.52L70.91,259.29L76.36,260.01L81.82,259.67L87.27,255.64L92.73,255.33L98.18,253.29L103.64,252.67L109.09,249.16L114.55,243.67L120,240.94L125.45,238.42L130.91,236.92L136.36,237.53L141.82,230.71L147.27,234.29L152.73,231.6L158.18,227.71L163.64,225.67L169.09,221.4L174.55,221.4L180,220.93L185.45,214.58L190.91,216.05L196.36,209.06L201.82,209.47L207.27,207.45L212.73,203.77L218.18,203.67L223.64,203.12L229.09,194.77L234.55,193.2L240,188.97L245.45,185.46L250.91,187.95L256.36,184.61L261.82,175.6L267.27,177.17L272.73,171.75L283.64,167.52L289.09,163.67L294.55,161.38L300,161.38L305.45,162.44L310.91,154.83L316.36,151.56L321.82,149.82L332.73,148.9L338.18,150.09L343.64,145.08L349.09,141.84L354.55,138.05L360,130.35L365.45,130.07L370.91,125.74L376.36,125.95L381.82,122.81L392.73,120.46L398.18,115.61L403.64,116.02L409.09,114.32L414.55,111.97L420,113.67L430.91,114.49L436.36,116.71L441.82,111.93L447.27,113.4L452.73,107.57L458.18,113.64L463.64,105.35L469.09,99.62L474.55,101.09L480,97.44L485.45,92.25L490.91,82.43L496.36,80.76L501.82,77.11L507.27,70.16L512.73,70.02L518.18,65.86L523.64,63.98L529.09,67.56L534.55,64.77L540,63.16" style="vector-effect: non-scaling-stroke; fill: none; stroke: rgb(248, 118, 109); stroke-opacity: 1; stroke-width: 2px; opacity: 1;"/></g><g class="points"/><g class="text"/></g><g class="trace scatter trace161726" style="stroke-miterlimit: 2; opacity: 1;"><g class="fills"/><g class="errorbars"/><g class="lines"><path class="js-line" d="M0,302.87L5.45,297.11L10.91,285.52L16.36,280.54L21.82,279.99L27.27,276.51L32.73,275.18L43.64,273.27L49.09,270.34L54.55,267.03L60,267.03L65.45,266.86L70.91,264.75L76.36,259.15L81.82,259.87L87.27,259.56L92.73,257.93L98.18,254.38L103.64,251.99L109.09,248.07L114.55,248.58L120,248.45L125.45,246.26L130.91,244.12L136.36,244.49L141.82,240.77L147.27,240.64L152.73,238.69L158.18,234.05L163.64,232.76L169.09,229.01L174.55,232.18L180,231.26L190.91,223.55L196.36,225.29L201.82,223.48L207.27,218.5L212.73,218.84L218.18,216.87L223.64,212.02L229.09,214.17L234.55,214.41L240,213.49L245.45,205.31L250.91,210.35L261.82,206.19L267.27,202.37L272.73,202.27L278.18,200.6L289.09,198.66L294.55,200.46L300,193.06L305.45,193.06L310.91,189.75L316.36,190.3L321.82,187.78L327.27,183.65L332.73,180.65L338.18,182.76L343.64,181.26L349.09,177.14L354.55,171.68L360,175.91L365.45,169.16L370.91,166.7L376.36,166.12L381.82,164.01L387.27,161.55L392.73,161.24L398.18,159.91L403.64,161.89L409.09,157.87L414.55,155L420,153.06L425.45,153.03L430.91,150.23L436.36,151.53L452.73,145.28L458.18,146.31L463.64,145.52L469.09,149.07L474.55,145.01L480,143.07L485.45,144.64L490.91,143.31L496.36,134.06L501.82,137.34L507.27,130.45L512.73,132.91L518.18,133.08L523.64,134.41L529.09,130.25L534.55,131.61L540,126.12" style="vector-effect: non-scaling-stroke; fill: none; stroke: rgb(163, 165, 0); stroke-opacity: 1; stroke-width: 2px; opacity: 1;"/></g><g class="points"/><g class="text"/></g><g class="trace scatter traceabe497" style="stroke-miterlimit: 2; opacity: 1;"><g class="fills"/><g class="errorbars"/><g class="lines"><path class="js-line" d="M0,301.89L5.45,296.87L10.91,284.32L16.36,279.1L21.82,277.6L27.27,276.89L32.73,274.36L38.18,272.15L43.64,271.91L49.09,267L54.55,266.96L65.45,265.91L70.91,264.88L76.36,264.68L81.82,261.92L87.27,260.11L92.73,257.04L98.18,255.57L103.64,252.3L109.09,250.05L114.55,250.53L120,247.25L125.45,241.28L130.91,236.65L136.36,237.36L141.82,237.74L147.27,236.37L152.73,232.32L158.18,230.1L163.64,230.27L169.09,229.01L174.55,227.71L180,218.57L190.91,219.73L196.36,213.97L201.82,214.04L207.27,209.67L212.73,210.93L218.18,201.11L223.64,201.79L229.09,200.5L240,197.16L245.45,190.88L250.91,190.47L256.36,185.97L261.82,183.04L267.27,183.86L272.73,182.32L278.18,178.64L289.09,181.71L294.55,179.69L300,178.26L305.45,172.81L310.91,170.73L316.36,171.51L321.82,169.91L327.27,163.02L338.18,170.11L343.64,166.67L349.09,161.55L354.55,162.78L360,157.9L365.45,158.55L370.91,154.22L376.36,152.17L381.82,152.62L387.27,154.36L392.73,144.74L398.18,141.29L403.64,143.58L409.09,142.01L420,143.78L425.45,137L430.91,139.28L436.36,137.99L441.82,132.87L447.27,134.88L452.73,129.73L458.18,128.85L463.64,126.26L469.09,130.82L474.55,133.38L480,129.43L485.45,129.63L490.91,125.37L496.36,129.19L501.82,126.53L507.27,126.26L512.73,128.71L518.18,126.66L523.64,123.73L529.09,123.8L534.55,128.44L540,126.56" style="vector-effect: non-scaling-stroke; fill: none; stroke: rgb(0, 191, 125); stroke-opacity: 1; stroke-width: 2px; opacity: 1;"/></g><g class="points"/><g class="text"/></g><g class="trace scatter trace134caf" style="stroke-miterlimit: 2; opacity: 1;"><g class="fills"/><g class="errorbars"/><g class="lines"><path class="js-line" d="M0,299.84L5.45,295.27L10.91,285.14L16.36,277.88L21.82,277.23L32.73,274.57L38.18,270.75L43.64,270.65L49.09,265.67L60,265.84L65.45,259.6L70.91,262.33L76.36,257.14L81.82,256.26L87.27,258.75L92.73,256.53L98.18,250.9L103.64,248.92L109.09,250.29L114.55,243.09L120,247.73L125.45,241.76L130.91,238.22L141.82,235.18L147.27,236.78L152.73,233.75L158.18,231.84L163.64,226.79L169.09,224.68L180,221.74L185.45,222.32L190.91,219.29L196.36,215.23L201.82,214.99L207.27,208.55L212.73,210.73L218.18,207.15L223.64,206.57L229.09,205.14L234.55,204.15L240,205.61L245.45,196.92L250.91,197.33L256.36,195.45L261.82,195.14L267.27,189L272.73,192.79L278.18,189.18L283.64,187.47L289.09,183.51L294.55,176.15L300,178.94L305.45,177.1L310.91,174.14L316.36,172.23L321.82,168.13L327.27,170.25L332.73,168.41L338.18,161.65L343.64,158.41L349.09,157.53L354.55,157.12L360,154.19L365.45,155.99L370.91,148.63L376.36,150.09L381.82,145.93L387.27,146.68L392.73,146.27L403.64,141.23L409.09,141.19L414.55,145.01L420,136.42L430.91,136.62L436.36,132.15L441.82,132.94L447.27,136.08L458.18,129.56L463.64,127.48L469.09,124.99L474.55,123.8L480,121.72L485.45,114.49L490.91,116.71L496.36,114.18L501.82,113.74L507.27,112.34L512.73,109.95L518.18,109.31L523.64,107.63L529.09,102.96L534.55,100.06L540,95.36" style="vector-effect: non-scaling-stroke; fill: none; stroke: rgb(0, 176, 246); stroke-opacity: 1; stroke-width: 2px; opacity: 1;"/></g><g class="points"/><g class="text"/></g><g class="trace scatter trace929451" style="stroke-miterlimit: 2; opacity: 1;"><g class="fills"/><g class="errorbars"/><g class="lines"><path class="js-line" d="M0,300.21L5.45,301.82L10.91,288.79L16.36,282.41L21.82,278.73L27.27,276.41L32.73,276.58L38.18,274.06L43.64,269.62L49.09,271.02L54.55,266.35L60,268.29L65.45,262.8L70.91,262.94L76.36,259.12L81.82,260.01L87.27,257.62L92.73,256.12L98.18,256.73L103.64,251.58L109.09,249.44L114.55,251L120,248.34L125.45,246.74L130.91,242.72L136.36,243.13L141.82,240.81L147.27,236.89L152.73,236.34L158.18,235.32L163.64,229.93L169.09,230.2L174.55,224.78L180,223.69L185.45,224.3L190.91,220.48L196.36,223.72L201.82,221.78L207.27,218.95L212.73,220.69L218.18,214.14L223.64,216.05L229.09,210.69L234.55,211.38L240,209.23L245.45,209.71L250.91,205.99L256.36,201.28L261.82,201.01L267.27,201.28L272.73,197.43L278.18,193.27L283.64,192.01L289.09,189.38L294.55,188.83L300,188.7L305.45,185.46L310.91,180.44L316.36,180.44L321.82,178.09L327.27,178.6L332.73,174.68L338.18,175.5L343.64,177.68L349.09,170.9L354.55,165.3L360,165.1L365.45,167.86L370.91,166.02L376.36,165.81L381.82,158.52L387.27,151.66L392.73,150.84L398.18,153.44L403.64,150.09L409.09,155.52L414.55,146.79L425.45,140.85L430.91,142.25L441.82,136.69L447.27,135.05L452.73,141.16L458.18,131.27L463.64,135.74L469.09,129.46L474.55,128.06L480,130.45L485.45,125.78L490.91,127.89L496.36,129.67L501.82,120.8L507.27,123.39L512.73,122.37L518.18,116.06L523.64,115.44L529.09,112.99L534.55,115.38L540,113.67" style="vector-effect: non-scaling-stroke; fill: none; stroke: rgb(231, 107, 243); stroke-opacity: 1; stroke-width: 2px; opacity: 1;"/></g><g class="points"/><g class="text"/></g><g class="trace scatter trace15dad8" style="stroke-miterlimit: 2; opacity: 1;"><g class="fills"/><g class="errorbars"/><g class="lines"><path class="js-line" d="M0,301.65L5.45,302.67L10.91,291.14L16.36,282.48L21.82,281.05L27.27,276.62L32.73,275.66L38.18,273.44L43.64,270.2L49.09,267.34L54.55,266.55L60,264.61L65.45,261.2L70.91,261.27L76.36,258.75L81.82,254.11L87.27,254.41L92.73,251.14L98.18,251.52L103.64,244.76L109.09,245.07L114.55,240.19L120,243.02L125.45,237.06L130.91,234.84L136.36,230.3L141.82,228.87L152.73,224.44L158.18,222.36L163.64,219.46L169.09,214.65L174.55,209.71L180,209.5L185.45,210.08L190.91,206.84L196.36,203.4L201.82,197.5L207.27,198.96L212.73,197.8L218.18,193.54L223.64,190.74L229.09,189.62L234.55,187.09L240,186.99L245.45,185.53L250.91,188.77L256.36,179.87L261.82,179.35L267.27,177.68L272.73,172.94L278.18,171.92L283.64,165.44L289.09,162.3L294.55,166.74L300,162.88L305.45,160.05L310.91,159.51L316.36,153.67L321.82,160.02L327.27,154.12L332.73,151.25L338.18,147.54L343.64,146.61L349.09,145.86L354.55,140.17L360,140.51L365.45,136.45L370.91,133.04L376.36,134.1L381.82,130.38L387.27,121.62L392.73,125.88L398.18,122.37L403.64,124.17L409.09,119.91L414.55,117.9L420,110.47L425.45,110.23L430.91,111.73L436.36,106.92L441.82,103.75L447.27,104.7L452.73,98.32L458.18,98.9L463.64,98.26L469.09,93.38L474.55,92.29L480,97.44L485.45,97.3L490.91,96.72L496.36,91.74L507.27,98.43L512.73,96.28L518.18,97.17L523.64,90.82L529.09,91.09L534.55,84.99L540,82.71" style="vector-effect: non-scaling-stroke; fill: none; stroke: rgb(248, 118, 109); stroke-opacity: 1; stroke-width: 2px; opacity: 1;"/></g><g class="points"/><g class="text"/></g><g class="trace scatter trace6cab4b" style="stroke-miterlimit: 2; opacity: 1;"><g class="fills"/><g class="errorbars"/><g class="lines"><path class="js-line" d="M0,301.61L5.45,301.72L10.91,294.42L16.36,284.02L21.82,280.3L32.73,273.17L38.18,273.27L43.64,268.98L49.09,268.43L54.55,269.97L60,268.29L70.91,260.25L76.36,260.08L81.82,257.38L87.27,258.27L92.73,253.15L98.18,255.33L103.64,249.37L109.09,250.9L114.55,248.62L120,249.2L130.91,244.29L136.36,239.48L141.82,240.77L147.27,237.33L152.73,239.75L158.18,235.56L163.64,233.82L169.09,235.49L180,229.45L185.45,230.47L190.91,225.63L196.36,226.14L201.82,226.89L207.27,221.44L212.73,226.45L218.18,223.96L223.64,223.04L229.09,217.58L234.55,213.05L240,214.51L245.45,216.36L250.91,213.12L256.36,210.59L261.82,209.88L267.27,205.31L272.73,206.43L283.64,199.78L289.09,194.15L294.55,191.32L300,191.9L305.45,188.94L310.91,189.18L316.36,185.63L321.82,184.67L327.27,181.43L332.73,184.64L338.18,178.47L343.64,178.98L349.09,172.53L354.55,170.42L360,170.04L365.45,165.2L370.91,166.77L376.36,163.02L381.82,156.5L387.27,158.72L398.18,157.7L403.64,146.41L409.09,148.73L414.55,149.48L420,141.87L425.45,145.8L430.91,145.63L436.36,142.01L452.73,133.59L458.18,135.46L463.64,128.2L469.09,136.69L474.55,129.36L480,134.37L485.45,127.28L490.91,131.27L496.36,129.7L501.82,129.32L507.27,131.34L512.73,125.47L518.18,125.13L523.64,118.65L529.09,119.95L534.55,115.51L540,121.45" style="vector-effect: non-scaling-stroke; fill: none; stroke: rgb(163, 165, 0); stroke-opacity: 1; stroke-width: 2px; opacity: 1;"/></g><g class="points"/><g class="text"/></g><g class="trace scatter tracefe62c5" style="stroke-miterlimit: 2; opacity: 1;"><g class="fills"/><g class="errorbars"/><g class="lines"><path class="js-line" d="M0,300.9L5.45,300.52L10.91,286.16L16.36,282.55L21.82,279.99L27.27,275.35L32.73,272.59L38.18,273L43.64,269.69L49.09,269.25L54.55,267.31L60,265.36L65.45,262.09L76.36,259.36L81.82,259.7L87.27,257.86L92.73,257.65L98.18,253.66L103.64,253.87L109.09,250.97L114.55,247.01L120,250.01L125.45,249.06L130.91,244.73L136.36,241.69L141.82,243.19L147.27,240.67L152.73,242.75L158.18,234.29L163.64,240.13L169.09,235.76L174.55,231.74L180,231.91L190.91,228.22L196.36,226.62L201.82,224.68L207.27,224.4L212.73,220.96L218.18,221.95L223.64,217.14L229.09,216.01L234.55,211.14L240,208.89L245.45,206.84L250.91,205.99L256.36,205.68L261.82,203.09L267.27,204.35L272.73,197.8L278.18,193.06L283.64,190.91L289.09,191.19L294.55,184.54L300,185.94L305.45,185.22L310.91,180.68L316.36,178.81L321.82,182.42L327.27,175.06L338.18,172.19L343.64,173.08L349.09,170.66L354.55,163.43L360,169.91L365.45,165.58L370.91,163.22L376.36,166.7L387.27,156.13L392.73,159.47L398.18,159.37L403.64,157.97L409.09,154.53L414.55,158L420,153.95L425.45,153.57L430.91,153.44L436.36,152.31L447.27,149.48L452.73,149.21L458.18,151.93L463.64,145.76L469.09,152.51L474.55,146.96L480,144.67L485.45,144.09L490.91,140.24L496.36,141.02L512.73,141.26L518.18,142.86L529.09,137.2L534.55,131.34L540,133.52" style="vector-effect: non-scaling-stroke; fill: none; stroke: rgb(0, 191, 125); stroke-opacity: 1; stroke-width: 2px; opacity: 1;"/></g><g class="points"/><g class="text"/></g><g class="trace scatter tracec0cc9e" style="stroke-miterlimit: 2; opacity: 1;"><g class="fills"/><g class="errorbars"/><g class="lines"><path class="js-line" d="M0,300.42L5.45,302.33L10.91,286.95L16.36,280.57L21.82,278.42L27.27,276.82L32.73,274.09L38.18,270.51L43.64,272.35L49.09,266.49L54.55,266.73L60,262.09L65.45,261.2L70.91,261L76.36,260.01L81.82,259.46L87.27,255.2L92.73,257.38L98.18,252.33L103.64,253.19L109.09,251.69L114.55,247.83L120,247.46L125.45,244.69L130.91,246.57L136.36,243.67L141.82,236.92L147.27,242.85L152.73,238.22L158.18,236.89L163.64,238.73L169.09,233.78L174.55,233.13L180,231.05L185.45,231.8L190.91,229.11L196.36,227.51L201.82,227.98L207.27,224.57L212.73,222.43L218.18,224.44L229.09,221.5L234.55,217.51L240,217L245.45,213.05L250.91,213.35L256.36,212.88L261.82,208.38L267.27,212.74L278.18,203.87L283.64,207.59L289.09,204.25L294.55,203.5L300,199.85L305.45,198.66L310.91,200.43L316.36,195.55L321.82,194.53L327.27,195.28L332.73,186.14L338.18,185.97L343.64,186L349.09,182.93L354.55,180.41L360,183.58L365.45,179.39L370.91,181.33L376.36,177.03L381.82,175.94L387.27,172.94L392.73,175.53L398.18,170.21L403.64,169.22L409.09,166.22L414.55,165.58L420,161.76L425.45,166.39L430.91,159.81L436.36,162.1L441.82,156.91L447.27,160.46L452.73,160.29L458.18,159.23L463.64,162.06L469.09,160.84L474.55,155.79L480,159.51L485.45,157.49L490.91,153.81L496.36,151.05L501.82,153.74L507.27,147.84L512.73,151.39L518.18,143.99L523.64,141.91L529.09,150.5L534.55,141.84L540,143.55" style="vector-effect: non-scaling-stroke; fill: none; stroke: rgb(0, 176, 246); stroke-opacity: 1; stroke-width: 2px; opacity: 1;"/></g><g class="points"/><g class="text"/></g><g class="trace scatter trace473c96" style="stroke-miterlimit: 2; opacity: 1;"><g class="fills"/><g class="errorbars"/><g class="lines"><path class="js-line" d="M0,301.27L5.45,301.95L10.91,292.75L16.36,284.08L21.82,279.65L32.73,270.51L38.18,272.01L43.64,268.43L49.09,266.15L54.55,265.29L60,266.01L65.45,264.1L70.91,259.67L76.36,260.52L81.82,259.43L87.27,254.86L92.73,254L98.18,249.81L103.64,251.99L109.09,245.55L114.55,244.05L120,243.64L125.45,240.43L130.91,239.17L136.36,235.08L141.82,227.98L147.27,225.84L152.73,224.23L158.18,224.06L163.64,218.67L169.09,217.55L174.55,210.42L180,208L190.91,204.11L196.36,204.25L207.27,191.9L212.73,193.13L223.64,180.07L229.09,178.47L234.55,174.82L240,172.29L245.45,169.5L250.91,168.88L267.27,164.52L272.73,158.62L278.18,152.68L283.64,150.2L294.55,148.8L300,147.81L305.45,148.39L310.91,141.64L316.36,139.32L321.82,131.98L327.27,135.57L332.73,129.56L338.18,132.09L343.64,125.2L354.55,121.48L360,117.15L365.45,116.54L370.91,114.22L376.36,109.17L381.82,111.08L387.27,106.37L392.73,104.09L398.18,102.35L403.64,98.6L409.09,101.43L414.55,94.06L420,92.42L425.45,92.77L430.91,85.67L436.36,81.38L441.82,83.83L447.27,85.23L452.73,85.16L458.18,79.64L463.64,83.97L469.09,84.99L474.55,81L480,86.12L485.45,84.38L490.91,79.74L501.82,78.99L507.27,69.78L512.73,70.8L518.18,67.84L523.64,61.9L529.09,59.86L534.55,57.64L540,58.59" style="vector-effect: non-scaling-stroke; fill: none; stroke: rgb(231, 107, 243); stroke-opacity: 1; stroke-width: 2px; opacity: 1;"/></g><g class="points"/><g class="text"/></g><g class="trace scatter trace91df3c" style="stroke-miterlimit: 2; opacity: 1;"><g class="fills"/><g class="errorbars"/><g class="lines"><path class="js-line" d="M0,302.81L5.45,297.15L10.91,286.68L16.36,279.68L21.82,276.38L27.27,278.97L32.73,275.97L43.64,269.9L49.09,269.66L54.55,266.93L60,266.15L65.45,261.06L70.91,260.59L76.36,257.93L81.82,257.96L87.27,254.11L92.73,254L98.18,247.01L103.64,249.84L109.09,251.07L114.55,245.62L120,246.5L125.45,241.66L130.91,240.6L136.36,237.47L141.82,236.92L147.27,239.68L152.73,234.05L158.18,233.47L169.09,232.25L174.55,224.51L180,225.22L185.45,220.82L190.91,220.45L196.36,221.27L201.82,220.14L207.27,223.38L212.73,218.13L218.18,211.65L223.64,211.85L229.09,209.74L234.55,208.1L240,205.03L256.36,205.27L261.82,203.02L267.27,199.37L272.73,199L278.18,197.43L283.64,193.88L289.09,190.1L294.55,190.47L305.45,184.74L310.91,184.23L327.27,172.09L332.73,176.05L338.18,169.57L343.64,166.94L349.09,167.59L354.55,164.18L360,159.57L365.45,159.64L370.91,155.92L376.36,158.04L381.82,149.96L387.27,149.17L392.73,145.42L398.18,144.4L403.64,143.24L409.09,143.48L414.55,138.8L420,138.57L425.45,135.57L430.91,134.71L436.36,124.79L441.82,128.68L447.27,123.12L452.73,123.97L458.18,122.64L463.64,118.21L474.55,122.27L480,118.82L490.91,116.6L496.36,117.22L501.82,115.72L507.27,112.1L512.73,108.28L518.18,111.97L523.64,109.75L529.09,109.51L534.55,111.97L540,109.61" style="vector-effect: non-scaling-stroke; fill: none; stroke: rgb(248, 118, 109); stroke-opacity: 1; stroke-width: 2px; opacity: 1;"/></g><g class="points"/><g class="text"/></g><g class="trace scatter trace2501dd" style="stroke-miterlimit: 2; opacity: 1;"><g class="fills"/><g class="errorbars"/><g class="lines"><path class="js-line" d="M0,303.18L5.45,301.72L10.91,301.2L21.82,281.87L27.27,279.31L38.18,271.6L43.64,270L54.55,268.09L60,267.41L70.91,264L76.36,266.01L81.82,263.79L87.27,262.46L92.73,260.89L98.18,260.38L103.64,254.69L109.09,251.52L114.55,253.63L120,250.97L130.91,248.41L136.36,247.18L141.82,240.4L147.27,240.6L152.73,239.68L158.18,236.13L163.64,238.49L169.09,232.72L174.55,231.19L180,231.39L185.45,229.52L190.91,223.31L196.36,225.67L201.82,222.6L207.27,223.62L212.73,218.2L223.64,216.42L229.09,214.68L240,210.69L245.45,207.18L250.91,207.73L256.36,203.16L261.82,205.54L267.27,204.01L272.73,200.7L278.18,194.09L283.64,189.58L289.09,187.27L294.55,189.38L300,182.83L305.45,187.09L310.91,179.11L327.27,169.16L332.73,168.95L338.18,168.58L343.64,161.28L349.09,160.77L354.55,156.91L360,152.51L365.45,151.7L370.91,153.74L376.36,152.07L381.82,149.14L387.27,144.64L392.73,146.27L398.18,134L403.64,133.52L409.09,137.71L414.55,133.62L420,134.54L425.45,133.21L430.91,130.42L436.36,126.53L441.82,124.48L447.27,120.97L452.73,123.66L458.18,122.4L463.64,118.79L469.09,112.14L474.55,112.72L480,110.81L485.45,105.96L490.91,102.93L496.36,106.17L507.27,96.76L512.73,97.44L518.18,92.56L523.64,89.19L529.09,82.84L534.55,87.41L540,79.74" style="vector-effect: non-scaling-stroke; fill: none; stroke: rgb(163, 165, 0); stroke-opacity: 1; stroke-width: 2px; opacity: 1;"/></g><g class="points"/><g class="text"/></g><g class="trace scatter trace7ff639" style="stroke-miterlimit: 2; opacity: 1;"><g class="fills"/><g class="errorbars"/><g class="lines"><path class="js-line" d="M0,299.7L5.45,292.71L10.91,282.69L32.73,273.1L38.18,271.36L43.64,270.1L49.09,267.24L54.55,264.68L60,264.85L70.91,259.84L76.36,258.81L81.82,255.13L87.27,253.46L92.73,251.52L98.18,250.87L103.64,248L109.09,246.09L114.55,242.85L120,243.91L130.91,235.69L136.36,237.23L141.82,231.87L147.27,233.41L158.18,224.44L163.64,224.23L169.09,220.48L174.55,222.02L180,219.63L185.45,209.91L190.91,210.56L196.36,209.81L201.82,204.32L207.27,202.85L212.73,202.51L218.18,201.15L223.64,195.18L229.09,193.74L234.55,185.66L240,191.9L245.45,186.28L250.91,184.61L261.82,180.17L267.27,180.07L272.73,178.94L278.18,176.69L283.64,175.7L289.09,168.88L294.55,166.02L300,164.72L305.45,158.58L310.91,154.56L316.36,154.36L321.82,151.35L327.27,146.92L332.73,149.14L338.18,143.17L343.64,142.01L349.09,140.65L354.55,142.76L360,139.04L365.45,138.36L370.91,134.13L376.36,127.52L381.82,131.54L387.27,129.49L392.73,127.86L398.18,115.82L403.64,120.01L409.09,125.71L414.55,115.65L420,118.34L425.45,117.22L430.91,114.52L436.36,112.2L441.82,109L447.27,102.89L452.73,106.07L458.18,106.24L463.64,100.75L469.09,98.12L474.55,91.13L480,88.26L485.45,91.81L490.91,92.66L496.36,90.99L512.73,89.9L518.18,87L523.64,89.01L529.09,83.49L534.55,84.38L540,81.2" style="vector-effect: non-scaling-stroke; fill: none; stroke: rgb(0, 191, 125); stroke-opacity: 1; stroke-width: 2px; opacity: 1;"/></g><g class="points"/><g class="text"/></g><g class="trace scatter trace8d00d5" style="stroke-miterlimit: 2; opacity: 1;"><g class="fills"/><g class="errorbars"/><g class="lines"><path class="js-line" d="M0,301.85L5.45,298.24L10.91,285.35L16.36,278.46L21.82,275.73L27.27,275.22L32.73,273.38L38.18,268.7L43.64,267.17L49.09,262.94L54.55,266.32L65.45,261.06L70.91,261.06L76.36,256.02L81.82,252.37L87.27,255.1L92.73,249.3L98.18,248.58L103.64,249.37L109.09,243.74L114.55,241.15L120,236.1L125.45,234.4L136.36,230.27L141.82,225.15L147.27,225.56L152.73,227.13L158.18,219.6L163.64,219.97L169.09,215.5L174.55,214.34L180,209.4L185.45,210.93L190.91,205.95L196.36,203.94L207.27,198.49L212.73,193.27L223.64,192.18L229.09,185.32L234.55,182.18L240,180.75L245.45,182.05L250.91,181.91L256.36,173.49L261.82,171.31L272.73,166.19L278.18,160.32L283.64,162.34L289.09,159.91L294.55,159.47L300,158.14L305.45,149.31L310.91,147.3L316.36,145.49L321.82,139.59L327.27,138.57L332.73,135.57L343.64,130.55L349.09,130.76L354.55,127.62L360,127.07L365.45,127.55L370.91,123.97L376.36,123.7L381.82,116.91L387.27,111.93L392.73,108.04L398.18,110.4L403.64,104.94L409.09,106.51L414.55,111.22L420,97.34L425.45,104.91L430.91,101.16L436.36,103.06L447.27,96.35L452.73,82.67L458.18,85.71L463.64,84.79L469.09,81.58L474.55,76.23L480,77.97L485.45,77.28L490.91,72.99L496.36,71.66L501.82,66.17L507.27,80.66L512.73,72.07L518.18,72.34L523.64,72.51L529.09,69.41L534.55,63.85L540,63.44" style="vector-effect: non-scaling-stroke; fill: none; stroke: rgb(0, 176, 246); stroke-opacity: 1; stroke-width: 2px; opacity: 1;"/></g><g class="points"/><g class="text"/></g><g class="trace scatter tracedcbfda" style="stroke-miterlimit: 2; opacity: 1;"><g class="fills"/><g class="errorbars"/><g class="lines"><path class="js-line" d="M0,302.67L5.45,304L10.91,297.9L16.36,284.9L21.82,279.28L27.27,275.8L32.73,273.75L43.64,270.48L49.09,267.88L60,264.88L65.45,264.54L70.91,260.14L76.36,261.44L81.82,256.09L87.27,255.57L98.18,250.8L103.64,250.97L109.09,250.94L114.55,247.76L120,242.21L125.45,243.19L130.91,241.69L136.36,236.82L147.27,233.68L152.73,231.84L158.18,231.09L163.64,229.14L169.09,227.68L174.55,222.46L185.45,216.93L190.91,212.74L196.36,210.11L201.82,208.34L207.27,203.19L212.73,202.13L223.64,195.35L229.09,192.82L234.55,189.89L240,190.2L250.91,177.48L256.36,182.22L261.82,180.34L267.27,175.98L272.73,169.91L278.18,165.81L283.64,162.71L289.09,158.45L300,152.89L305.45,153.47L310.91,149.55L316.36,146.72L321.82,140.71L327.27,131.2L332.73,130.55L338.18,131.51L343.64,128.27L349.09,123.46L354.55,121.92L360,122.64L365.45,116.4L370.91,115.24L376.36,116.13L381.82,114.08L387.27,105.15L392.73,110.67L398.18,109.14L403.64,103.1L409.09,101.6L414.55,101.22L420,101.91L425.45,97.68L430.91,95.8L436.36,84.79L441.82,81.85L447.27,77.15L452.73,68.38L458.18,65.59L469.09,57.67L474.55,54.4L480,56.75L485.45,50.58L490.91,41.85L496.36,40.01L501.82,40.28L507.27,42.8L512.73,38.2L518.18,34.72L523.64,28.21L529.09,27.39L534.55,23.91L540,30.94" style="vector-effect: non-scaling-stroke; fill: none; stroke: rgb(231, 107, 243); stroke-opacity: 1; stroke-width: 2px; opacity: 1;"/></g><g class="points"/><g class="text"/></g><g class="trace scatter trace1a3bab" style="stroke-miterlimit: 2; opacity: 1;"><g class="fills"/><g class="errorbars"/><g class="lines"><path class="js-line" d="M0,301.89L10.91,284.94L16.36,279.72L32.73,273.44L38.18,271.33L43.64,271.4L49.09,267.92L54.55,265.6L60,264.99L65.45,262.09L70.91,260.86L76.36,257.52L81.82,257.45L87.27,257.07L92.73,255.47L98.18,250.87L103.64,250.08L109.09,247.63L114.55,246.81L120,239L125.45,238.62L136.36,236.54L141.82,231.77L147.27,231.57L152.73,227.34L158.18,221.98L163.64,223.76L169.09,219.77L174.55,217.79L180,215.91L185.45,215.09L190.91,210.11L196.36,210.01L201.82,208.68L207.27,204.18L212.73,203.29L218.18,199.03L223.64,200.4L229.09,196.03L234.55,193.71L240,186.45L245.45,182.66L250.91,181.23L256.36,180.68L261.82,176.35L272.73,173.04L278.18,169.94L283.64,165.75L289.09,156.16L294.55,158.79L300,159.13L310.91,150.88L316.36,149.07L321.82,150.43L327.27,138.5L332.73,135.63L338.18,136.42L343.64,130.38L349.09,128.51L354.55,130.04L360,122.78L365.45,116.43L370.91,114.97L376.36,114.39L381.82,107.91L387.27,105.01L392.73,109.27L403.64,98.8L409.09,93.65L414.55,90.34L420,87.96L425.45,88.91L430.91,82.43L436.36,80.35L441.82,80.76L447.27,72.3L452.73,67.39L458.18,65.72L463.64,65.24L469.09,63.3L474.55,64.22L485.45,57.44L490.91,48.47L496.36,54.23L501.82,42.77L507.27,37.69L512.73,39.84L518.18,25.21L523.64,27.7L529.09,27.77L534.55,28.65L540,16" style="vector-effect: non-scaling-stroke; fill: none; stroke: rgb(248, 118, 109); stroke-opacity: 1; stroke-width: 2px; opacity: 1;"/></g><g class="points"/><g class="text"/></g><g class="trace scatter trace4dbce4" style="stroke-miterlimit: 2; opacity: 1;"><g class="fills"/><g class="errorbars"/><g class="lines"><path class="js-line" d="M0,302.02L5.45,302.26L10.91,287.43L16.36,282.11L21.82,280.74L27.27,274.4L32.73,273.55L38.18,272.32L43.64,268.67L54.55,268.74L60,262.77L81.82,261.13L87.27,259.39L92.73,257.38L98.18,252.37L103.64,252.47L109.09,247.49L114.55,247.46L120,243.81L136.36,237.47L141.82,237.19L147.27,235.9L152.73,228.53L158.18,227.03L163.64,224.64L169.09,225.63L174.55,221.95L180,224.16L185.45,217.69L190.91,215.95L196.36,213.08L201.82,211.31L207.27,205.44L212.73,206.16L218.18,199L223.64,197.39L229.09,192.89L234.55,192.96L240,187.67L245.45,185.22L250.91,180.21L256.36,175.77L261.82,169.43L267.27,170.18L272.73,162.85L278.18,160.6L283.64,153.67L289.09,146.55L294.55,153.06L300,143.82L305.45,136.62L310.91,132.36L316.36,129.6L327.27,132.05L332.73,124.28L338.18,123.42L343.64,114.15L354.55,109.24L360,101.46L365.45,102.38L370.91,99.45L376.36,96.31L381.82,91.09L387.27,87.28L392.73,85.54L398.18,80.49L403.64,81.58L409.09,80.66L414.55,77.86L420,72.95L425.45,77.04L430.91,70.56L436.36,71.25L447.27,66.2L452.73,65.04L458.18,62.65L463.64,65.21L469.09,60.91L474.55,55.35L480,59.52L485.45,58.01L490.91,57.61L496.36,52.8L501.82,54.47L507.27,52.66L512.73,50.14L518.18,46.28L523.64,42.12L529.09,38.95L534.55,37.28L540,24.83" style="vector-effect: non-scaling-stroke; fill: none; stroke: rgb(163, 165, 0); stroke-opacity: 1; stroke-width: 2px; opacity: 1;"/></g><g class="points"/><g class="text"/></g><g class="trace scatter trace5477b6" style="stroke-miterlimit: 2; opacity: 1;"><g class="fills"/><g class="errorbars"/><g class="lines"><path class="js-line" d="M0,301.1L5.45,302.4L10.91,291.38L16.36,280.57L21.82,280.88L27.27,275.11L32.73,273.75L38.18,272.9L43.64,269.42L54.55,266.15L60,261.78L65.45,261.75L70.91,259.36L76.36,259.36L81.82,256.36L92.73,250.39L98.18,249.47L103.64,244.15L109.09,245.45L114.55,241.66L120,240.36L125.45,238.18L130.91,234.36L136.36,233.1L141.82,228.6L147.27,227L152.73,221.98L158.18,217.17L163.64,218.09L169.09,215.26L174.55,215.09L180,208.78L185.45,203.91L190.91,204.76L196.36,202.68L201.82,201.96L207.27,198.01L212.73,196L218.18,192.04L223.64,187.71L229.09,190.81L240,183.65L245.45,179.22L250.91,177.58L256.36,174.92L261.82,171.34L267.27,171.31L272.73,167.04L278.18,167.04L283.64,160.9L289.09,162.06L294.55,155.65L300,153.23L310.91,151.46L316.36,145.46L321.82,136.18L327.27,138.29L332.73,135.22L338.18,131.06L343.64,128.85L349.09,129.7L354.55,124.86L360,123.32L365.45,120.59L370.91,113.02L376.36,113.71L381.82,113.43L387.27,111.42L392.73,112.2L398.18,108.01L403.64,110.5L409.09,109.54L414.55,104.53L420,108.83L425.45,99.01L430.91,99.48L436.36,104.67L441.82,98.09L447.27,97.37L452.73,96.72L458.18,98.63L463.64,100.13L469.09,108.45L485.45,101.36L490.91,94.54L496.36,94.03L501.82,90.79L507.27,89.39L512.73,95.49L518.18,92.05L523.64,90.17L529.09,86.73L534.55,82.23L540,79.67" style="vector-effect: non-scaling-stroke; fill: none; stroke: rgb(0, 191, 125); stroke-opacity: 1; stroke-width: 2px; opacity: 1;"/></g><g class="points"/><g class="text"/></g><g class="trace scatter trace13e57c" style="stroke-miterlimit: 2; opacity: 1;"><g class="fills"/><g class="errorbars"/><g class="lines"><path class="js-line" d="M0,301.85L5.45,295.34L10.91,281.53L21.82,277.2L27.27,275.9L38.18,269.35L43.64,268.26L49.09,266.49L54.55,266.83L60,262.74L65.45,260.83L70.91,261.03L76.36,260.42L81.82,258.1L87.27,254.93L103.64,250.83L109.09,247.35L114.55,247.18L120,246.2L130.91,242.1L136.36,241.08L141.82,239.31L147.27,236.41L152.73,232.25L158.18,235.01L163.64,231.43L169.09,231.8L174.55,225.9L180,229.25L185.45,223.62L190.91,224.57L196.36,218.64L201.82,218.47L218.18,212.37L223.64,211.41L229.09,210.9L234.55,207.62L240,206.94L245.45,202.54L250.91,198.18L256.36,196.88L261.82,198.01L267.27,191.46L272.73,191.6L278.18,188.8L289.09,185.08L294.55,175.7L300,180.24L305.45,180.68L316.36,174.72L321.82,172.33L327.27,169.4L332.73,169.43L338.18,166.56L343.64,162.68L349.09,160.63L354.55,157.77L365.45,155.92L370.91,150.67L376.36,149.62L381.82,147.74L387.27,142.15L392.73,142.39L398.18,137.17L403.64,135.57L409.09,127.38L414.55,130.79L420,126.19L425.45,124.82L436.36,121.14L441.82,122.33L447.27,121.11L452.73,114.11L458.18,117.29L463.64,112.44L469.09,111.97L474.55,112.78L480,108.62L485.45,107.12L490.91,105.11L496.36,106.41L501.82,96.38L507.27,93.07L512.73,96.41L518.18,95.08L523.64,97.88L529.09,92.02L534.55,94.1L540,93.45" style="vector-effect: non-scaling-stroke; fill: none; stroke: rgb(0, 176, 246); stroke-opacity: 1; stroke-width: 2px; opacity: 1;"/></g><g class="points"/><g class="text"/></g><g class="trace scatter tracee0a34f" style="stroke-miterlimit: 2; opacity: 1;"><g class="fills"/><g class="errorbars"/><g class="lines"><path class="js-line" d="M0,301.92L5.45,301.68L10.91,300.39L16.36,294.66L21.82,279.96L27.27,278.42L32.73,278.15L38.18,271.6L43.64,270.68L49.09,267.2L54.55,265.33L60,264.58L65.45,265.29L70.91,262.43L76.36,260.89L81.82,258.92L87.27,258.51L92.73,254.45L98.18,253.25L103.64,248.86L109.09,248.21L114.55,243.74L120,242.85L125.45,238.8L130.91,239.58L141.82,233.51L147.27,232.08L152.73,230.47L158.18,227.85L163.64,223.04L169.09,221.81L174.55,220.52L180,220.14L185.45,209.33L190.91,214.79L201.82,205.68L207.27,207.18L212.73,211.96L218.18,204.49L223.64,200.77L229.09,201.52L234.55,192.04L240,195.38L245.45,190.64L250.91,188.6L256.36,188.12L261.82,184.67L272.73,181.84L278.18,182.66L289.09,173.93L294.55,172.06L300,167.59L305.45,168.54L310.91,161.55L316.36,162.88L327.27,149.58L332.73,152.38L338.18,144.06L343.64,150.06L360,138.05L365.45,139.25L376.36,134.99L381.82,130.79L387.27,125.98L392.73,122.91L398.18,122.2L403.64,118.31L409.09,116.81L414.55,117.05L425.45,118.96L430.91,115.65L436.36,110.77L441.82,112.99L452.73,114.35L458.18,109.65L463.64,104.74L469.09,107.29L474.55,109.82L480,107.63L485.45,109.61L490.91,107.02L501.82,104.36L507.27,94.98L512.73,100.2L518.18,93.89L523.64,81.31L529.09,83.63L534.55,80.32L540,78.78" style="vector-effect: non-scaling-stroke; fill: none; stroke: rgb(231, 107, 243); stroke-opacity: 1; stroke-width: 2px; opacity: 1;"/></g><g class="points"/><g class="text"/></g><g class="trace scatter traced9c6a6" style="stroke-miterlimit: 2; opacity: 1;"><g class="fills"/><g class="errorbars"/><g class="lines"><path class="js-line" d="M0,301.31L5.45,296.22L10.91,282.82L16.36,279.75L21.82,278.76L27.27,275.83L32.73,275.05L38.18,272.45L43.64,268.64L49.09,268.94L54.55,266.11L60,263.42L65.45,262.7L70.91,262.77L76.36,259.7L81.82,256.63L87.27,258.34L92.73,253.73L98.18,253.08L103.64,253.66L109.09,250.73L114.55,252.16L120,246.4L125.45,244.76L130.91,244.46L136.36,242L141.82,237.26L147.27,236.31L152.73,237.29L158.18,233.85L163.64,231.91L174.55,227.61L180,226.14L190.91,221.91L196.36,214.99L201.82,218.44L207.27,212.54L218.18,211.14L223.64,209.98L229.09,207.97L234.55,202.27L240,198.96L245.45,201.42L250.91,198.25L256.36,200.87L261.82,194.84L267.27,191.49L272.73,185.83L278.18,185.12L283.64,186.14L289.09,180.82L294.55,177.68L300,180.72L305.45,174.78L310.91,175.6L316.36,172.33L321.82,167.72L327.27,165.78L332.73,162.2L343.64,155.82L349.09,160.02L354.55,157.19L360,155.28L370.91,149.75L376.36,148.25L381.82,146.51L387.27,145.93L392.73,141.12L398.18,150.64L403.64,143.1L409.09,147.02L414.55,141.26L420,142.76L425.45,138.67L430.91,139.38L436.36,136.62L441.82,128.85L447.27,128.64L452.73,123.9L458.18,120.56L463.64,113.57L469.09,112.92L474.55,117.7L480,115.1L485.45,105.96L490.91,105.21L496.36,98.84L501.82,94.16L507.27,95.73L512.73,88.03L518.18,90.82L523.64,87.41L529.09,89.01L534.55,82.23L540,79.12" style="vector-effect: non-scaling-stroke; fill: none; stroke: rgb(248, 118, 109); stroke-opacity: 1; stroke-width: 2px; opacity: 1;"/></g><g class="points"/><g class="text"/></g><g class="trace scatter tracefa812e" style="stroke-miterlimit: 2; opacity: 1;"><g class="fills"/><g class="errorbars"/><g class="lines"><path class="js-line" d="M0,302.23L5.45,297.76L10.91,281.7L16.36,280.98L21.82,276.92L27.27,274.47L32.73,273.1L38.18,274.74L43.64,272.35L49.09,265.77L54.55,268.26L60,264.1L65.45,261.23L70.91,259.22L76.36,256.05L81.82,256.05L87.27,254.45L92.73,254L98.18,251.04L103.64,250.25L109.09,248.21L114.55,239.37L120,243.16L125.45,236.82L130.91,234.57L136.36,234.91L141.82,228.36L147.27,230.17L152.73,222.87L158.18,221.85L163.64,224.44L174.55,219.46L180,214.82L185.45,211.92L190.91,212.91L207.27,202L212.73,202.34L218.18,199.95L223.64,195.18L229.09,194.84L234.55,191.05L240,183.96L245.45,183.68L250.91,183.55L256.36,180.89L261.82,176.69L267.27,176.05L272.73,175.6L278.18,166.77L283.64,167.96L289.09,165.27L300,155.75L305.45,152.86L310.91,152.17L316.36,144.64L321.82,149.17L327.27,145.56L332.73,140.58L338.18,138.84L343.64,138.53L349.09,136.38L354.55,131.64L360,128.95L365.45,125.33L370.91,117.22L376.36,122.23L381.82,113.77L387.27,115.61L392.73,111.8L398.18,107.6L403.64,109.85L409.09,102.01L414.55,102.55L420,104.29L425.45,97.34L436.36,96.01L441.82,86.42L447.27,91.71L452.73,84.44L458.18,86.46L463.64,83.08L469.09,82.88L474.55,87.41L480,81.99L485.45,85.16L490.91,80.39L496.36,80.97L501.82,81.48L507.27,75.37L512.73,70.12L518.18,72.03L523.64,55.39L529.09,61.94L534.55,55.32L540,52.59" style="vector-effect: non-scaling-stroke; fill: none; stroke: rgb(163, 165, 0); stroke-opacity: 1; stroke-width: 2px; opacity: 1;"/></g><g class="points"/><g class="text"/></g><g class="trace scatter trace4e5861" style="stroke-miterlimit: 2; opacity: 1;"><g class="fills"/><g class="errorbars"/><g class="lines"><path class="js-line" d="M0,300.56L5.45,300.83L10.91,287.77L16.36,280.61L21.82,278.49L27.27,276.68L32.73,271.64L38.18,270.72L43.64,268.81L49.09,270.2L54.55,263.18L60,260.38L65.45,263.76L70.91,260.52L76.36,258.98L81.82,256.22L87.27,255.27L92.73,251.79L98.18,250.42L103.64,246.95L109.09,246.91L114.55,240.94L120,240.5L130.91,236.24L136.36,235.28L141.82,230.1L147.27,230.13L152.73,227.88L158.18,223.48L163.64,228.67L169.09,224.27L174.55,220.93L180,212.88L185.45,214.89L190.91,211.79L196.36,213.01L201.82,209.13L207.27,204.28L212.73,200.7L218.18,196.64L223.64,197.19L234.55,194.36L240,190.2L245.45,185.8L250.91,184.78L256.36,184.03L261.82,181.47L267.27,177.89L272.73,176.05L283.64,162.4L289.09,166.26L300,155L305.45,159.33L310.91,154.87L316.36,152L321.82,158.04L327.27,149.24L332.73,144.5L338.18,146.48L343.64,142.35L349.09,140.34L360,132.05L365.45,132.5L370.91,124.62L376.36,124.04L381.82,119.88L387.27,119.37L392.73,116.47L398.18,115.14L403.64,114.11L409.09,111.22L414.55,110.43L420,108.83L425.45,106.68L430.91,102.31L436.36,106.41L441.82,100.51L447.27,101.77L452.73,107.06L458.18,95.8L463.64,97.06L469.09,95.22L474.55,92.49L480,92.7L485.45,91.5L490.91,91.16L496.36,86.32L501.82,83.46L507.27,83.08L523.64,83.97L529.09,80.8L534.55,77.32L540,79.57" style="vector-effect: non-scaling-stroke; fill: none; stroke: rgb(0, 191, 125); stroke-opacity: 1; stroke-width: 2px; opacity: 1;"/></g><g class="points"/><g class="text"/></g><g class="trace scatter traceab530c" style="stroke-miterlimit: 2; opacity: 1;"><g class="fills"/><g class="errorbars"/><g class="lines"><path class="js-line" d="M0,303.93L5.45,299.84L10.91,286.68L16.36,281.66L21.82,279L27.27,272.56L32.73,273.99L38.18,272.22L43.64,266.32L49.09,268.12L54.55,265.94L60,261.27L65.45,262.43L70.91,259.46L76.36,258.78L81.82,258.17L87.27,256.12L98.18,249.57L103.64,249.44L109.09,250.42L114.55,245.92L120,244.56L125.45,241.18L130.91,242.89L136.36,241.05L141.82,234.29L147.27,234.53L152.73,233.3L158.18,228.97L163.64,229.72L169.09,223.86L174.55,221.74L180,221.44L185.45,220.65L190.91,217.89L196.36,213.73L201.82,211.44L207.27,211.41L212.73,208.2L223.64,198.72L229.09,200.22L234.55,194.77L240,194.29L245.45,188.8L250.91,187.44L256.36,184.81L261.82,178.13L272.73,175.5L278.18,172.67L283.64,171.92L289.09,168.99L305.45,161.69L310.91,157.43L316.36,156.57L321.82,152.07L332.73,143.58L338.18,142.97L343.64,138.09L349.09,136.28L354.55,138.94L360,131.68L365.45,132.5L370.91,126.32L376.36,122.81L381.82,124.55L387.27,121.89L392.73,113.43L398.18,116.09L403.64,112.2L409.09,112.89L414.55,112.58L420,102.38L425.45,107.06L430.91,99.31L436.36,99.86L441.82,102.86L447.27,100.4L452.73,95.02L458.18,90.86L463.64,93.18L469.09,91.06L474.55,92.94L480,83.01L485.45,89.42L490.91,84.1L496.36,83.11L501.82,80.69L507.27,79.47L512.73,77.18L518.18,74.52L523.64,73.63L529.09,74.11L534.55,72.85L540,73.02" style="vector-effect: non-scaling-stroke; fill: none; stroke: rgb(0, 176, 246); stroke-opacity: 1; stroke-width: 2px; opacity: 1;"/></g><g class="points"/><g class="text"/></g><g class="trace scatter trace814160" style="stroke-miterlimit: 2; opacity: 1;"><g class="fills"/><g class="errorbars"/><g class="lines"><path class="js-line" d="M0,301.48L5.45,300.28L10.91,291.89L16.36,280.43L21.82,278.49L27.27,278.05L32.73,273.99L38.18,272.45L43.64,272.15L49.09,270.92L54.55,268.09L60,264.51L65.45,262.43L70.91,262.22L76.36,261.03L81.82,261.34L87.27,257.62L92.73,256.6L98.18,253.32L103.64,250.77L109.09,250.42L114.55,249.37L120,245.92L125.45,244.93L130.91,241.42L136.36,241.76L141.82,237.84L147.27,235.52L152.73,231.87L158.18,231.36L163.64,226.28L169.09,227.06L174.55,223.79L180,226.76L185.45,222.12L190.91,221.13L196.36,215.74L201.82,211.75L207.27,210.66L212.73,208.82L218.18,203.87L223.64,197.8L229.09,198.31L234.55,190.98L240,193.27L245.45,189.38L250.91,188.8L256.36,184.95L261.82,178.81L267.27,176.76L272.73,172.09L278.18,170.83L283.64,172.57L294.55,166.67L300,166.36L310.91,159.81L316.36,164.48L321.82,155.72L327.27,154.7L338.18,146.03L343.64,148.25L349.09,147.13L354.55,144.7L360,148.08L365.45,144.91L370.91,143.75L376.36,138.23L381.82,136.18L387.27,136.59L392.73,135.67L398.18,133.04L403.64,130.42L409.09,132.29L414.55,122.37L420,120.8L425.45,118.31L430.91,111.42L436.36,109.1L441.82,108.83L447.27,108.11L452.73,108.28L458.18,99.52L463.64,97.44L469.09,96.82L474.55,90.31L480,92.73L485.45,90.38L490.91,90.52L496.36,88.71L501.82,83.59L507.27,84.85L518.18,83.01L523.64,83.9L529.09,74.76L534.55,79.91L540,78.54" style="vector-effect: non-scaling-stroke; fill: none; stroke: rgb(231, 107, 243); stroke-opacity: 1; stroke-width: 2px; opacity: 1;"/></g><g class="points"/><g class="text"/></g><g class="trace scatter tracee6f9fc" style="stroke-miterlimit: 2; opacity: 1;"><g class="fills"/><g class="errorbars"/><g class="lines"><path class="js-line" d="M0,301.99L5.45,301.27L10.91,294.28L16.36,280.16L21.82,277.81L32.73,272.69L38.18,272.93L43.64,271.36L49.09,268.09L54.55,265.67L60,261.78L70.91,263.18L76.36,258.34L81.82,256.84L87.27,253.46L92.73,252.03L98.18,249.74L103.64,246.09L109.09,246.91L114.55,243.81L120,242.85L125.45,240.3L130.91,236.17L136.36,235.73L141.82,232.62L147.27,225.77L152.73,226.21L163.64,227.2L169.09,222.15L174.55,218.44L180,213.52L185.45,212.57L190.91,207.8L196.36,210.69L201.82,203.12L207.27,201.35L212.73,198.76L218.18,200.43L223.64,194.67L229.09,185.08L234.55,190.3L240,186.11L245.45,177.89L250.91,177.31L256.36,175.43L261.82,172.43L267.27,167.66L272.73,165.51L278.18,159.33L283.64,157.32L289.09,156.3L294.55,157.08L300,153.84L305.45,150.09L310.91,145.01L316.36,145.86L321.82,140.61L327.27,142.73L332.73,135.22L338.18,133.42L343.64,128.23L349.09,128.13L354.55,124.58L360,125.64L365.45,114.97L370.91,117.32L376.36,109.89L381.82,112.2L387.27,109.68L392.73,102.59L398.18,106.07L403.64,94.51L409.09,101.33L414.55,96.24L420,92.83L425.45,86.59L430.91,86.83L436.36,84.24L441.82,84.51L447.27,81.2L452.73,80.9L463.64,76.29L469.09,75.68L485.45,69.58L490.91,64.9L496.36,66.2L501.82,60.74L507.27,57.74L512.73,56.21L518.18,49.97L523.64,52.35L529.09,48.26L534.55,47.2L540,40.59" style="vector-effect: non-scaling-stroke; fill: none; stroke: rgb(248, 118, 109); stroke-opacity: 1; stroke-width: 2px; opacity: 1;"/></g><g class="points"/><g class="text"/></g><g class="trace scatter trace49cdca" style="stroke-miterlimit: 2; opacity: 1;"><g class="fills"/><g class="errorbars"/><g class="lines"><path class="js-line" d="M0,301.72L5.45,295.41L10.91,285.38L16.36,279.99L21.82,279.34L27.27,275.42L32.73,273.92L38.18,272.8L43.64,268.12L49.09,268.81L54.55,262.43L60,264.95L65.45,261.64L76.36,261.64L81.82,256.22L87.27,257.35L92.73,251.86L98.18,253.32L103.64,252.95L109.09,248.79L114.55,248.45L120,243.94L125.45,242.44L130.91,241.32L136.36,238.62L141.82,237.02L147.27,231.94L152.73,232.59L158.18,229.25L163.64,228.87L169.09,229.72L174.55,227.03L180,227.92L185.45,222.19L190.91,219.49L196.36,221.06L201.82,217.14L207.27,220.38L212.73,215.2L218.18,209.33L223.64,208.95L234.55,203.46L240,201.42L245.45,196.51L250.91,195.86L261.82,187.98L267.27,187.27L272.73,182.42L278.18,180.79L283.64,180.1L289.09,174.07L300,170.25L305.45,172.29L310.91,165.61L316.36,162.06L321.82,157.83L327.27,156.54L332.73,155.72L338.18,147.33L343.64,148.12L349.09,143.34L360,134.85L365.45,135.77L370.91,131.81L376.36,132.53L381.82,131.92L387.27,126.15L392.73,124.35L398.18,117.56L403.64,118.62L409.09,111.28L414.55,113.84L420,112.2L425.45,112.48L430.91,111.01L441.82,103.06L447.27,104.36L452.73,104.16L458.18,99.55L463.64,101.36L469.09,89.87L474.55,95.49L480,91.23L485.45,84.55L490.91,87.68L496.36,85.67L501.82,89.53L507.27,89.63L512.73,83.8L518.18,81.48L523.64,89.63L529.09,93.86L534.55,92.25L540,92.02" style="vector-effect: non-scaling-stroke; fill: none; stroke: rgb(163, 165, 0); stroke-opacity: 1; stroke-width: 2px; opacity: 1;"/></g><g class="points"/><g class="text"/></g><g class="trace scatter trace3f8981" style="stroke-miterlimit: 2; opacity: 1;"><g class="fills"/><g class="errorbars"/><g class="lines"><path class="js-line" d="M0,301.58L5.45,301.51L10.91,295.95L16.36,282.82L21.82,278.8L27.27,278.66L32.73,272.32L38.18,270.41L43.64,272.11L49.09,268.43L54.55,266.93L65.45,264.1L70.91,260.69L92.73,254.72L98.18,250.8L103.64,247.93L109.09,248.72L114.55,245.79L120,245.34L125.45,238.32L130.91,240.4L136.36,233.2L141.82,236.41L147.27,229.72L152.73,229.89L158.18,228.26L163.64,229.76L174.55,218.78L180,216.18L185.45,213.32L190.91,212.33L196.36,209.74L201.82,208.92L212.73,200.67L218.18,200.26L229.09,193.95L234.55,187.3L240,185.63L245.45,186.17L256.36,177.27L261.82,172.5L267.27,169.77L272.73,165.58L278.18,164.69L283.64,161.28L289.09,154.73L294.55,157.15L300,149.85L305.45,146.55L310.91,142.52L316.36,143.2L321.82,137.41L327.27,134.27L332.73,131.88L338.18,126.29L343.64,126.77L349.09,123.9L354.55,116.64L360,117.49L365.45,116.3L370.91,107.16L376.36,111.32L381.82,103.47L387.27,100L392.73,93.89L398.18,93.58L403.64,94.61L409.09,94.23L414.55,89.9L420,84.89L425.45,82.98L430.91,84.1L436.36,81.51L441.82,74.76L447.27,79.09L463.64,76.53L469.09,72.34L480,72.75L485.45,71.52L490.91,72.24L496.36,69.03L512.73,63.98L518.18,59.89L523.64,54.37L529.09,58.36L534.55,59.24L540,57.74" style="vector-effect: non-scaling-stroke; fill: none; stroke: rgb(0, 191, 125); stroke-opacity: 1; stroke-width: 2px; opacity: 1;"/></g><g class="points"/><g class="text"/></g><g class="trace scatter tracec09aac" style="stroke-miterlimit: 2; opacity: 1;"><g class="fills"/><g class="errorbars"/><g class="lines"><path class="js-line" d="M0,301.41L5.45,296.8L10.91,284.25L16.36,277.71L21.82,279.55L27.27,275.42L32.73,278.22L38.18,273.68L43.64,270.48L49.09,268.64L54.55,267.85L60,269.08L65.45,264.3L70.91,263.52L76.36,265.74L81.82,259.9L87.27,258.47L92.73,257.24L98.18,254.72L103.64,253.46L109.09,256.49L114.55,245.96L120,247.12L125.45,247.87L130.91,244.49L136.36,242.24L141.82,241.86L147.27,238.01L152.73,237.94L158.18,237.81L163.64,232.35L169.09,234.33L174.55,228.94L180,230.17L185.45,228.6L190.91,226.62L196.36,226.11L207.27,220.75L212.73,216.87L218.18,213.87L223.64,207.11L229.09,209.43L234.55,207.39L245.45,199.99L250.91,197.77L256.36,194.43L261.82,188.63L267.27,189.79L272.73,184.37L278.18,184.54L283.64,180L289.09,179.66L294.55,173.56L300,176.18L305.45,177.03L310.91,169.91L316.36,169.84L321.82,169.02L327.27,169.33L332.73,163.73L338.18,162.78L343.64,160.53L349.09,153.78L354.55,154.15L360,151.46L365.45,151.97L370.91,143.51L376.36,144.7L381.82,141.09L387.27,135.84L392.73,129.36L398.18,130.35L403.64,125.88L409.09,126.22L414.55,119.91L420,121.17L425.45,116.6L430.91,118.41L436.36,117.22L441.82,111.93L447.27,111.8L452.73,111.28L458.18,109.72L463.64,111.32L469.09,106.51L474.55,106.75L480,103.51L485.45,99.18L490.91,98.84L496.36,92.6L501.82,94.98L507.27,94.91L512.73,93.28L518.18,88.43L523.64,81.24L529.09,84.96L534.55,81.34L540,78.41" style="vector-effect: non-scaling-stroke; fill: none; stroke: rgb(0, 176, 246); stroke-opacity: 1; stroke-width: 2px; opacity: 1;"/></g><g class="points"/><g class="text"/></g><g class="trace scatter trace2b9466" style="stroke-miterlimit: 2; opacity: 1;"><g class="fills"/><g class="errorbars"/><g class="lines"><path class="js-line" d="M0,300.86L5.45,291.11L10.91,283.16L16.36,281.94L21.82,275.25L27.27,275.66L32.73,274.26L43.64,267.95L49.09,269.49L54.55,263.93L60,264.82L65.45,261.85L70.91,263.45L76.36,260.08L81.82,257.59L87.27,253.73L92.73,255.61L98.18,251.07L103.64,252.78L109.09,248.17L114.55,245.58L120,248.75L125.45,244.08L130.91,244.76L136.36,241.08L141.82,237.33L147.27,238.59L158.18,238.04L163.64,235.45L169.09,233.07L174.55,235.01L180,230.64L185.45,230.03L190.91,228.15L196.36,229.21L207.27,225.63L212.73,222.36L218.18,218.91L223.64,220.86L229.09,220.41L234.55,216.66L240,216.42L245.45,212.47L250.91,210.22L256.36,206.81L261.82,209.57L267.27,206.06L272.73,204.28L278.18,203.5L283.64,193.51L289.09,196.78L294.55,194.84L300,191.77L305.45,187.4L310.91,192.11L316.36,184.71L321.82,184.37L327.27,179.9L332.73,173.93L338.18,171.95L343.64,168.24L354.55,164.59L360,159.37L370.91,153.64L376.36,154.56L381.82,152.99L387.27,145.01L398.18,147.91L403.64,145.66L409.09,136.59L414.55,138.19L420,132.7L425.45,133.48L430.91,131.98L436.36,129.7L441.82,127.86L447.27,124.52L452.73,121.21L458.18,123.8L463.64,121.31L469.09,116.47L474.55,119.78L480,111.05L485.45,112.07L490.91,103.27L496.36,99.72L501.82,100.78L507.27,101.29L512.73,100.03L518.18,96.45L523.64,98.9L529.09,96.01L534.55,91.61L540,90.21" style="vector-effect: non-scaling-stroke; fill: none; stroke: rgb(231, 107, 243); stroke-opacity: 1; stroke-width: 2px; opacity: 1;"/></g><g class="points"/><g class="text"/></g><g class="trace scatter trace9adfa8" style="stroke-miterlimit: 2; opacity: 1;"><g class="fills"/><g class="errorbars"/><g class="lines"><path class="js-line" d="M0,301.78L5.45,297.25L10.91,285.86L16.36,284.49L21.82,281.05L27.27,279.68L32.73,282.58L49.09,279.14L54.55,279.55L60,279.31L65.45,280.47L70.91,275.73L76.36,279.1L81.82,278.25L87.27,275.52L92.73,276.24L98.18,275.73L103.64,273.82L109.09,275.76L114.55,273.51L120,274.67L125.45,276.89L130.91,274.23L136.36,274.64L141.82,274.06L147.27,276L152.73,273.17L158.18,272.97L163.64,274.84L169.09,277.43L174.55,271.19L180,274.77L185.45,270.82L190.91,272.22L196.36,272.11L201.82,270.89L207.27,272.18L212.73,271.47L218.18,272.97L223.64,271.43L229.09,271.43L234.55,272.45L240,270.41L245.45,266.69L250.91,270.58L261.82,270.2L267.27,267.92L272.73,267.48L278.18,269.01L283.64,264.92L289.09,265.43L294.55,269.18L300,266.28L305.45,263.32L310.91,265.77L316.36,265.53L321.82,264.2L327.27,267.31L332.73,266.93L338.18,262.46L343.64,264.34L349.09,265.43L354.55,263.25L360,263.11L365.45,260.62L376.36,261.68L381.82,264.88L387.27,262.29L392.73,261.27L398.18,265.53L403.64,259.77L409.09,259.12L414.55,260.79L420,258.61L425.45,257.31L436.36,259.84L441.82,260.01L447.27,260.21L452.73,256.39L458.18,254.11L463.64,255.57L469.09,255.44L474.55,254.55L480,252.03L485.45,251.82L490.91,250.63L496.36,246.3L501.82,252.98L507.27,248.21L512.73,246.67L518.18,249.44L529.09,244.93L534.55,247.97L540,245.65" style="vector-effect: non-scaling-stroke; fill: none; stroke: rgb(248, 118, 109); stroke-opacity: 1; stroke-width: 2px; opacity: 1;"/></g><g class="points"/><g class="text"/></g><g class="trace scatter trace26a9f1" style="stroke-miterlimit: 2; opacity: 1;"><g class="fills"/><g class="errorbars"/><g class="lines"><path class="js-line" d="M0,300.52L5.45,300.93L10.91,287.49L21.82,277.91L27.27,276.41L32.73,275.22L38.18,271.64L43.64,270.14L49.09,267.75L54.55,267.48L60,264.13L65.45,260.45L70.91,260.96L87.27,251.55L92.73,252.57L98.18,246.74L103.64,246.33L109.09,242.92L114.55,241.73L125.45,237.09L130.91,236.03L136.36,232.72L141.82,231.16L147.27,227.4L152.73,226.38L163.64,220.93L169.09,216.32L174.55,216.49L180,214.04L185.45,207.42L190.91,205.65L196.36,201.11L201.82,198.38L207.27,198.96L212.73,191.9L218.18,191.56L223.64,184.09L229.09,177.38L234.55,176.22L240,175.02L245.45,166.97L250.91,163.7L256.36,158.24L261.82,154.94L267.27,155.58L272.73,153.23L278.18,150.02L283.64,147.67L289.09,144.19L294.55,140.95L300,139.59L305.45,134.41L310.91,134.92L316.36,125.98L321.82,127.48L327.27,123.73L332.73,116.3L343.64,117.01L349.09,111.25L354.55,112.17L360,108.11L365.45,106L370.91,96.99L376.36,94.54L381.82,101.56L387.27,88.67L392.73,94.64L398.18,88.91L403.64,88.13L409.09,83.8L414.55,85.64L420,84.96L425.45,87.14L430.91,78.92L436.36,72.65L441.82,73.8L447.27,83.29L452.73,74.21L458.18,72.78L463.64,76.84L469.09,75L474.55,68.79L480,69.99L485.45,70.33L490.91,62L501.82,67.29L507.27,57.33L512.73,64.29L518.18,56.14L523.64,60.4L529.09,60.13L534.55,65.35L540,62.48" style="vector-effect: non-scaling-stroke; fill: none; stroke: rgb(163, 165, 0); stroke-opacity: 1; stroke-width: 2px; opacity: 1;"/></g><g class="points"/><g class="text"/></g><g class="trace scatter trace3fbdb2" style="stroke-miterlimit: 2; opacity: 1;"><g class="fills"/><g class="errorbars"/><g class="lines"><path class="js-line" d="M0,303.01L5.45,300.83L10.91,295.78L16.36,281.08L21.82,277.91L27.27,274.77L32.73,272.59L38.18,273.03L43.64,269.39L49.09,269.56L54.55,264.41L65.45,260.76L70.91,259.09L87.27,256.02L92.73,251.96L109.09,248.58L114.55,244.12L120,247.08L125.45,243.4L130.91,236.1L136.36,235.32L141.82,235.69L147.27,230.54L158.18,227.88L163.64,225.32L169.09,220.48L174.55,216.97L180,217.28L185.45,211.31L190.91,208.44L196.36,208.31L201.82,205.51L207.27,206.33L212.73,202.95L218.18,198.49L223.64,196.13L229.09,192.79L240,187.95L245.45,187.74L250.91,186.21L256.36,181.09L261.82,180.41L267.27,177L278.18,169.19L283.64,168.07L289.09,167.79L294.55,164.86L300,157.43L305.45,158.18L310.91,154.77L316.36,153.54L321.82,149.79L327.27,142.32L332.73,142.42L338.18,139.9L343.64,138.09L349.09,132.22L354.55,132.15L360,126.26L365.45,123.9L370.91,123.22L376.36,119.98L381.82,114.97L387.27,116.19L392.73,116.57L398.18,110.77L403.64,108.83L409.09,110.19L414.55,104.94L420,97.27L425.45,101.29L430.91,97.98L436.36,89.94L441.82,87.17L447.27,80.83L452.73,81L458.18,77.66L463.64,77.45L469.09,75.1L474.55,69.88L480,69.71L485.45,67.84L490.91,62.99L496.36,66.13L501.82,63.44L507.27,57.64L512.73,53L518.18,51.4L523.64,55.9L534.55,49.35L540,52.59" style="vector-effect: non-scaling-stroke; fill: none; stroke: rgb(0, 191, 125); stroke-opacity: 1; stroke-width: 2px; opacity: 1;"/></g><g class="points"/><g class="text"/></g><g class="trace scatter traceabc435" style="stroke-miterlimit: 2; opacity: 1;"><g class="fills"/><g class="errorbars"/><g class="lines"><path class="js-line" d="M0,301.78L5.45,290.29L10.91,281.19L16.36,280.37L21.82,278.42L27.27,274.09L32.73,274.16L43.64,269.69L49.09,267.27L54.55,264.99L60,267.31L65.45,265.77L70.91,262.91L76.36,258.51L81.82,258.23L87.27,254.76L92.73,257.59L103.64,249.37L109.09,249.4L114.55,245.68L120,247.63L125.45,246.91L130.91,241.15L136.36,244.15L141.82,240.23L147.27,239.58L152.73,235.73L158.18,236.75L163.64,231.67L169.09,231.33L174.55,228.36L185.45,229.76L190.91,224.47L201.82,218.61L207.27,218.88L212.73,217.65L218.18,212.37L223.64,212.98L229.09,212.37L234.55,210.46L240,205.68L245.45,206.5L250.91,204.83L256.36,201.86L261.82,200.77L267.27,199.68L272.73,196.54L278.18,192.82L283.64,190.16L289.09,187.54L294.55,182.93L300,182.59L305.45,177.34L310.91,177.85L316.36,177.44L321.82,169.94L327.27,170.76L332.73,162.34L338.18,168.34L343.64,165.88L349.09,165.61L354.55,162.57L360,162.54L365.45,159.57L370.91,155.34L376.36,155.14L381.82,150.37L387.27,152.28L392.73,146.1L398.18,145.25L403.64,147.02L409.09,144.91L414.55,138.46L420,133.86L425.45,131.58L430.91,129.9L436.36,126.02L447.27,121.65L452.73,117.59L458.18,118.14L463.64,115.41L469.09,113.13L474.55,106.68L480,107.33L485.45,103.41L490.91,101.36L496.36,101.84L501.82,96.24L507.27,99.31L512.73,97.2L518.18,98.87L523.64,98.32L529.09,100L534.55,99.89L540,101.73" style="vector-effect: non-scaling-stroke; fill: none; stroke: rgb(0, 176, 246); stroke-opacity: 1; stroke-width: 2px; opacity: 1;"/></g><g class="points"/><g class="text"/></g><g class="trace scatter traceac2d11" style="stroke-miterlimit: 2; opacity: 1;"><g class="fills"/><g class="errorbars"/><g class="lines"><path class="js-line" d="M0,302.7L5.45,299.46L10.91,285.24L16.36,279.89L21.82,278.42L32.73,273.38L38.18,272.01L43.64,270.34L49.09,267.75L54.55,266.38L60,263.28L65.45,263.79L70.91,260.18L76.36,257.04L81.82,257.01L87.27,255.78L92.73,250.05L103.64,248.58L109.09,247.93L120,244.9L125.45,241.97L130.91,233.68L136.36,236.13L147.27,229.89L152.73,226.35L169.09,221.13L174.55,216.05L185.45,215.84L190.91,210.83L196.36,210.32L201.82,203.63L207.27,206.26L212.73,204.56L218.18,204.01L223.64,200.94L229.09,197.43L234.55,191.05L240,190.2L245.45,187.78L250.91,184.88L256.36,177.65L261.82,180.51L267.27,177.75L278.18,171.27L283.64,170.76L294.55,163.19L300,160.43L305.45,156.95L310.91,152.48L316.36,150.81L321.82,153.74L327.27,149.31L332.73,148.63L338.18,153.54L343.64,144.13L354.55,132.46L360,135.29L365.45,133.01L370.91,134.37L376.36,129.09L381.82,127.82L387.27,123.19L392.73,120.39L403.64,111.9L409.09,106.92L414.55,99.07L420,102.59L425.45,96.35L430.91,97.17L436.36,94.74L441.82,88.33L447.27,87.58L452.73,85.23L458.18,78.92L463.64,77.21L469.09,78.89L474.55,69.23L480,68.79L485.45,64.53L490.91,70.6L496.36,63.51L501.82,65.24L507.27,57.03L512.73,61.36L518.18,63.13L523.64,56.75L529.09,61.63L534.55,56.45L540,54.47" style="vector-effect: non-scaling-stroke; fill: none; stroke: rgb(231, 107, 243); stroke-opacity: 1; stroke-width: 2px; opacity: 1;"/></g><g class="points"/><g class="text"/></g><g class="trace scatter traceff2cde" style="stroke-miterlimit: 2; opacity: 1;"><g class="fills"/><g class="errorbars"/><g class="lines"><path class="js-line" d="M0,301.75L10.91,282.34L16.36,278.63L21.82,278.18L27.27,275.76L32.73,273.61L38.18,274.57L43.64,269.76L49.09,268.6L54.55,268.57L60,264.75L65.45,263.38L70.91,261.06L76.36,260.18L81.82,260.59L87.27,257.04L92.73,258.1L98.18,255.06L103.64,256.6L109.09,252.95L114.55,250.59L120,245.07L125.45,246.06L130.91,245.24L136.36,242.41L141.82,242.1L147.27,239.72L152.73,237.33L158.18,235.79L163.64,231.57L169.09,233.37L174.55,229.04L180,227.13L185.45,226.04L190.91,223.28L196.36,226.72L201.82,223.07L212.73,216.36L218.18,219.39L223.64,212.57L229.09,214.51L234.55,210.32L240,210.28L245.45,208.68L250.91,204.93L256.36,203.7L261.82,207.8L267.27,203.77L272.73,203.53L278.18,201.62L283.64,197.94L289.09,193.98L294.55,194.94L300,194.6L305.45,192.62L310.91,187.06L316.36,185.7L321.82,183.45L327.27,183.45L332.73,175.81L338.18,175.47L343.64,174.24L349.09,171.27L354.55,164.52L360,165.71L365.45,163.8L370.91,168.13L376.36,158.86L381.82,159.88L392.73,158.99L398.18,160.32L403.64,153.71L409.09,151.59L414.55,152.31L420,149.55L425.45,146.68L430.91,146.68L436.36,141.26L441.82,142.56L447.27,139.62L452.73,133.04L463.64,127.07L469.09,123.12L474.55,131.51L480,132.39L485.45,130.45L490.91,127.69L496.36,123.6L501.82,122.06L512.73,115.31L518.18,114.97L523.64,113.98L529.09,111.35L534.55,106.1L540,111.01" style="vector-effect: non-scaling-stroke; fill: none; stroke: rgb(248, 118, 109); stroke-opacity: 1; stroke-width: 2px; opacity: 1;"/></g><g class="points"/><g class="text"/></g><g class="trace scatter tracebd5fe9" style="stroke-miterlimit: 2; opacity: 1;"><g class="fills"/><g class="errorbars"/><g class="lines"><path class="js-line" d="M0,302.81L5.45,295.07L10.91,281.25L16.36,280.06L21.82,279.96L27.27,275.22L32.73,274.94L38.18,270.41L43.64,270.78L49.09,269.79L54.55,267.41L65.45,262.53L70.91,263.38L76.36,258.27L81.82,257.82L92.73,254.35L98.18,254.48L109.09,248.92L114.55,248.75L130.91,242.34L136.36,236.41L141.82,239.07L147.27,236.78L158.18,232.9L163.64,227.88L169.09,229.01L174.55,225.94L180,219.6L185.45,220.62L190.91,219.12L196.36,218.47L201.82,217.17L207.27,210.97L212.73,210.97L218.18,208.24L223.64,202.58L229.09,205.24L240,196.78L245.45,196.34L250.91,189.21L256.36,188.08L261.82,184.74L267.27,180L272.73,178.74L278.18,178.5L283.64,172.06L289.09,169.84L294.55,169.05L300,162.4L305.45,156.91L310.91,160.29L316.36,153.5L321.82,151.35L327.27,145.93L332.73,147.81L338.18,138.16L343.64,135.97L349.09,133.83L354.55,133.79L360,124.21L365.45,128.81L370.91,124.69L376.36,126.32L381.82,121.45L387.27,121.28L392.73,121.79L398.18,116.19L403.64,115.85L409.09,113.4L414.55,109.51L420,108.56L425.45,104.4L430.91,103.71L436.36,105.66L441.82,99.48L447.27,104.7L452.73,98.15L458.18,99.83L463.64,99.72L469.09,93.99L474.55,98.97L480,92.49L485.45,93.38L490.91,92.42L496.36,93.35L501.82,92.46L507.27,92.7L512.73,88.33L518.18,87.62L529.09,91.5L534.55,94.57L540,87.55" style="vector-effect: non-scaling-stroke; fill: none; stroke: rgb(163, 165, 0); stroke-opacity: 1; stroke-width: 2px; opacity: 1;"/></g><g class="points"/><g class="text"/></g><g class="trace scatter tracecc20c7" style="stroke-miterlimit: 2; opacity: 1;"><g class="fills"/><g class="errorbars"/><g class="lines"><path class="js-line" d="M0,301.68L5.45,300.32L10.91,292.44L16.36,281.59L21.82,279.14L27.27,277.06L32.73,273.75L38.18,272.05L43.64,269.11L49.09,271.02L54.55,269.11L60,268.16L65.45,263.38L70.91,261.68L76.36,258.13L81.82,257.28L87.27,258.03L92.73,257.01L98.18,254.96L103.64,254.58L109.09,249.84L114.55,248.58L120,250.7L125.45,247.42L130.91,240.84L136.36,241.86L141.82,239.07L147.27,238.86L152.73,237.74L163.64,232.66L169.09,234.46L174.55,231.7L180,228.05L185.45,224.98L190.91,222.83L201.82,221.1L207.27,217.75L212.73,220.48L218.18,219.77L229.09,210.66L234.55,213.22L240,211.61L245.45,213.39L250.91,208.24L256.36,207.22L261.82,208.85L267.27,206.98L272.73,204.11L278.18,204.08L283.64,198.69L289.09,201.62L294.55,202.58L300,196.3L305.45,198.01L310.91,192.28L316.36,194.97L321.82,193.78L332.73,188.02L338.18,188.22L343.64,188.83L349.09,187.27L354.55,182.83L360,181.43L365.45,177.58L370.91,181.02L387.27,173.49L392.73,175.6L398.18,175.33L403.64,172.5L409.09,169.12L414.55,171.85L420,164.38L425.45,162.64L430.91,164.86L436.36,164.14L441.82,160.63L447.27,160.97L458.18,159.95L463.64,152.99L469.09,153.98L474.55,157.29L480,156.47L485.45,151.56L490.91,151.83L496.36,144.19L501.82,144.88L507.27,144.5L512.73,140.92L518.18,143.72L523.64,140.48L529.09,144.47L534.55,138.09L540,140.54" style="vector-effect: non-scaling-stroke; fill: none; stroke: rgb(0, 191, 125); stroke-opacity: 1; stroke-width: 2px; opacity: 1;"/></g><g class="points"/><g class="text"/></g><g class="trace scatter traceb729fa" style="stroke-miterlimit: 2; opacity: 1;"><g class="fills"/><g class="errorbars"/><g class="lines"><path class="js-line" d="M0,302.12L5.45,300.21L10.91,287.36L16.36,280.91L21.82,275.69L27.27,275.22L32.73,273.2L38.18,271.67L43.64,268.5L49.09,266.86L54.55,266.73L65.45,264.2L70.91,261.92L76.36,261.54L81.82,257.21L87.27,254.35L92.73,252.95L98.18,252.4L103.64,248.17L109.09,249.44L114.55,248.55L120,244.93L125.45,243.36L130.91,243.09L136.36,238.11L141.82,237.12L147.27,233.17L152.73,232.14L158.18,227.2L163.64,225.84L169.09,222.87L180,221.98L185.45,219.97L190.91,214.96L196.36,212.71L207.27,211.07L212.73,207.56L218.18,206.19L223.64,203.29L229.09,200.09L234.55,202.82L240,197.56L245.45,194.94L250.91,197.43L256.36,191.46L261.82,190.81L267.27,185.8L272.73,187.44L278.18,184.3L283.64,182.76L289.09,178.91L294.55,181.77L300,176.45L305.45,178.91L310.91,172.4L316.36,166.84L321.82,167.38L327.27,167.08L332.73,160.29L338.18,164.42L343.64,161.24L349.09,160.63L354.55,155.11L360,151.12L365.45,144.02L370.91,149.34L376.36,143.37L381.82,140.24L387.27,140.03L392.73,136.25L398.18,130.18L403.64,126.66L409.09,127.69L414.55,128.2L420,130.14L425.45,124.99L430.91,118.68L436.36,118.07L441.82,118.72L447.27,115.14L452.73,110.33L458.18,111.05L463.64,112.68L469.09,109.41L474.55,113.64L480,109.75L485.45,110.09L490.91,108.66L496.36,103.24L501.82,107.84L507.27,105.59L512.73,103.68L518.18,109.41L523.64,106.82L529.09,106.95L534.55,105.59L540,100.64" style="vector-effect: non-scaling-stroke; fill: none; stroke: rgb(0, 176, 246); stroke-opacity: 1; stroke-width: 2px; opacity: 1;"/></g><g class="points"/><g class="text"/></g><g class="trace scatter traceaaaa5e" style="stroke-miterlimit: 2; opacity: 1;"><g class="fills"/><g class="errorbars"/><g class="lines"><path class="js-line" d="M0,302.5L5.45,300.45L10.91,287.05L16.36,280.37L21.82,279.04L27.27,273.89L32.73,270.68L38.18,269.49L43.64,269.52L49.09,265.26L54.55,267.07L60,261.06L65.45,261.27L81.82,257.79L87.27,255.51L92.73,255.1L98.18,251.89L103.64,249.81L109.09,245.21L114.55,245.89L120,242.65L125.45,244.87L130.91,239.27L136.36,234.46L141.82,234.19L147.27,233.3L152.73,229.72L163.64,226.07L169.09,223.38L174.55,221.13L180,221.78L185.45,221.88L190.91,218.71L196.36,216.83L201.82,211.96L207.27,212.13L212.73,205.34L218.18,205.17L223.64,198.35L234.55,194.87L240,194.8L245.45,189.75L250.91,183.51L256.36,183.51L261.82,179.97L267.27,178.23L272.73,173.79L278.18,172.53L283.64,176.39L294.55,162.06L300,160.63L305.45,159.27L310.91,156.27L316.36,150.16L321.82,148.69L332.73,142.83L338.18,138.63L343.64,140.48L349.09,138.29L354.55,134.54L360,128.71L365.45,129.8L370.91,127.07L376.36,122.2L381.82,123.73L392.73,118L398.18,110.81L403.64,113.23L409.09,107.84L414.55,110.06L420,108.39L425.45,101.91L430.91,102.55L436.36,98.32L441.82,98.32L447.27,97.4L452.73,93.24L458.18,90.48L463.64,95.32L469.09,95.49L474.55,91.2L480,88.74L485.45,89.42L490.91,89.59L496.36,83.08L501.82,82.33L507.27,76.94L512.73,73.84L518.18,77.62L523.64,81.72L529.09,80.83L534.55,83.63L540,84.62" style="vector-effect: non-scaling-stroke; fill: none; stroke: rgb(231, 107, 243); stroke-opacity: 1; stroke-width: 2px; opacity: 1;"/></g><g class="points"/><g class="text"/></g><g class="trace scatter trace432483" style="stroke-miterlimit: 2; opacity: 1;"><g class="fills"/><g class="errorbars"/><g class="lines"><path class="js-line" d="M0,300.39L5.45,299.06L10.91,284.63L16.36,280.26L21.82,280.23L27.27,277.16L32.73,275.56L49.09,270.41L54.55,265.77L60,262.39L65.45,263.49L76.36,259.87L81.82,259.09L92.73,254.76L98.18,251.48L103.64,248.21L109.09,246.84L120,242.58L125.45,242.41L130.91,242.34L136.36,239.92L141.82,237.91L147.27,233.24L152.73,236.85L158.18,230.51L163.64,231.6L169.09,228.15L174.55,226.21L180,220.41L185.45,224.51L190.91,216.8L201.82,210.56L207.27,208.61L218.18,205L223.64,203.7L229.09,203.46L234.55,200.12L240,197.12L245.45,193.23L250.91,191.36L256.36,188.66L261.82,180.92L267.27,179.08L272.73,179.08L278.18,174.51L283.64,176.05L289.09,173.93L305.45,163.9L310.91,163.43L316.36,159.91L321.82,152.89L327.27,151.56L332.73,151.12L338.18,146L343.64,144.13L354.55,141.7L360,137.24L370.91,135.16L376.36,132.19L381.82,128.64L387.27,121.82L392.73,118.96L398.18,117.73L403.64,112.82L409.09,112.51L414.55,107.74L420,109.27L425.45,104.63L430.91,103.3L436.36,102.25L441.82,102.21L447.27,106.27L452.73,96.69L458.18,95.73L463.64,91.81L469.09,93.14L474.55,90.17L480,93.21L485.45,89.39L490.91,89.73L496.36,83.11L501.82,85.13L507.27,85.09L518.18,85.4L523.64,83.22L529.09,75.58L534.55,77.62L540,76.29" style="vector-effect: non-scaling-stroke; fill: none; stroke: rgb(248, 118, 109); stroke-opacity: 1; stroke-width: 2px; opacity: 1;"/></g><g class="points"/><g class="text"/></g><g class="trace scatter trace1fa9f7" style="stroke-miterlimit: 2; opacity: 1;"><g class="fills"/><g class="errorbars"/><g class="lines"><path class="js-line" d="M0,302.19L5.45,299.43L10.91,284.29L16.36,281.46L21.82,275.97L27.27,274.88L32.73,272.59L38.18,273.27L43.64,269.79L49.09,270.24L54.55,265.4L65.45,264.95L70.91,262.5L76.36,258.64L81.82,259.26L87.27,255.64L92.73,253.83L98.18,249.54L103.64,251.75L109.09,248.34L114.55,246.13L120,245L125.45,242.96L130.91,242.65L136.36,234.74L141.82,238.56L147.27,234.05L152.73,233.44L158.18,233.61L169.09,224.54L174.55,223.59L180,220.86L185.45,221.23L190.91,219.63L196.36,212.16L201.82,213.35L207.27,209.4L212.73,206.47L218.18,201.9L223.64,198.18L229.09,199L240,190.27L245.45,190.33L250.91,187.06L256.36,181.6L261.82,184.57L267.27,179.18L272.73,176.73L278.18,177.44L283.64,169.98L289.09,169.19L294.55,166.19L300,154.97L305.45,157.73L310.91,159.23L316.36,154.22L321.82,153.26L327.27,145.28L332.73,141.06L338.18,138.16L343.64,138.23L349.09,132.02L354.55,131.88L360,128.2L365.45,129.09L370.91,124.93L376.36,122.84L381.82,117.18L387.27,121.11L392.73,117.01L398.18,114.93L403.64,116.4L409.09,112.17L414.55,109.27L420,103.17L425.45,96.01L430.91,92.12L436.36,94.91L441.82,94.4L447.27,88.23L452.73,89.83L458.18,85.71L463.64,88.61L480,84.96L485.45,79.33L490.91,77.93L496.36,79.64L501.82,71.52L507.27,75.61L512.73,70.02L518.18,68.08L523.64,67.53L529.09,62.62L534.55,54.23L540,65.14" style="vector-effect: non-scaling-stroke; fill: none; stroke: rgb(163, 165, 0); stroke-opacity: 1; stroke-width: 2px; opacity: 1;"/></g><g class="points"/><g class="text"/></g><g class="trace scatter tracedb7066" style="stroke-miterlimit: 2; opacity: 1;"><g class="fills"/><g class="errorbars"/><g class="lines"><path class="js-line" d="M0,300.39L5.45,300.96L10.91,291.21L16.36,282.45L21.82,278.8L27.27,274.4L32.73,271.5L38.18,270.78L43.64,272.05L49.09,270.54L54.55,266.35L60,264.3L65.45,265.94L70.91,262.26L76.36,259.73L81.82,259.67L87.27,256.97L92.73,256.02L98.18,255.85L103.64,253.15L109.09,252.3L114.55,251.55L120,248.68L130.91,245.04L136.36,244.29L141.82,243.4L147.27,238.73L152.73,244.56L158.18,238.42L163.64,238.18L169.09,236.13L174.55,232.59L180,234.8L196.36,229.21L201.82,223.79L207.27,222.02L212.73,222.73L218.18,222.94L223.64,218.78L229.09,218.5L234.55,220.21L240,215.2L245.45,214.17L256.36,210.8L261.82,211.31L272.73,206.98L278.18,207.15L289.09,201.32L294.55,201.52L300,200.43L305.45,200.26L310.91,193.51L316.36,193.27L321.82,190.27L327.27,189.69L332.73,184.64L338.18,185.63L343.64,182.66L349.09,178.26L354.55,174.2L360,176.05L365.45,174.78L370.91,171.51L376.36,169.46L381.82,166.33L387.27,165.88L392.73,167.59L398.18,164.52L403.64,162.88L409.09,160.32L414.55,158.89L420,158.48L425.45,157.15L436.36,156.4L441.82,154.12L447.27,149.89L452.73,147.4L458.18,148.15L463.64,147.43L469.09,140.85L474.55,143.1L480,141.12L485.45,146.65L490.91,139.96L496.36,141.23L501.82,140.92L507.27,139.01L512.73,141.06L518.18,137.92L529.09,129.32L534.55,122.4L540,122.54" style="vector-effect: non-scaling-stroke; fill: none; stroke: rgb(0, 191, 125); stroke-opacity: 1; stroke-width: 2px; opacity: 1;"/></g><g class="points"/><g class="text"/></g><g class="trace scatter trace8d0fbf" style="stroke-miterlimit: 2; opacity: 1;"><g class="fills"/><g class="errorbars"/><g class="lines"><path class="js-line" d="M0,301.1L5.45,301.89L10.91,287.77L16.36,282.58L21.82,279.72L27.27,273L32.73,275.39L38.18,271.53L43.64,269.18L49.09,269.62L54.55,267.51L60,266.62L65.45,263.52L70.91,265.33L76.36,260.01L81.82,254.72L87.27,254.31L92.73,256.02L98.18,252.03L103.64,254.21L109.09,250.73L114.55,246.74L120,248.21L125.45,245.55L130.91,245.1L136.36,243.98L141.82,241.46L147.27,240.53L152.73,237.94L158.18,234.29L163.64,234.33L169.09,233.65L174.55,231.7L180,230.27L185.45,225.46L190.91,224.78L196.36,225.49L201.82,219.39L207.27,220.07L212.73,220.75L218.18,219.42L223.64,216.8L229.09,216.18L234.55,217.31L240,210.66L245.45,210.18L250.91,208.38L261.82,206.53L267.27,207.8L272.73,205.48L278.18,204.69L283.64,208.92L289.09,202.34L294.55,204.42L300,199.1L305.45,198.31L310.91,192.96L316.36,191.49L321.82,187.98L332.73,184.23L338.18,185.05L343.64,182.22L349.09,181.37L354.55,175.16L360,174.78L365.45,172.19L370.91,171.99L376.36,173.08L381.82,167.14L387.27,165.06L392.73,164.83L398.18,166.5L403.64,159.85L409.09,155.92L414.55,160.02L420,157.7L425.45,152.21L430.91,152.04L436.36,153.81L441.82,152.86L447.27,145.22L452.73,148.15L458.18,149.1L463.64,139.62L469.09,140.31L474.55,139.79L480,136.52L485.45,137.92L490.91,134.44L496.36,129.6L501.82,130.18L507.27,130.89L512.73,128.37L518.18,127.41L523.64,121.89L529.09,123.66L534.55,123.8L540,123.36" style="vector-effect: non-scaling-stroke; fill: none; stroke: rgb(0, 176, 246); stroke-opacity: 1; stroke-width: 2px; opacity: 1;"/></g><g class="points"/><g class="text"/></g><g class="trace scatter trace6814c4" style="stroke-miterlimit: 2; opacity: 1;"><g class="fills"/><g class="errorbars"/><g class="lines"><path class="js-line" d="M0,301.31L5.45,295.24L10.91,282.65L16.36,279.82L21.82,278.59L27.27,276.68L32.73,270.27L38.18,270.17L43.64,267.68L49.09,265.4L54.55,266.04L60,261.75L65.45,262.26L70.91,260.66L76.36,257.04L81.82,257.93L87.27,252.54L92.73,252.13L98.18,249.4L103.64,245.07L109.09,244.25L114.55,243.23L120,241.01L130.91,235.66L136.36,231.8L141.82,230.37L147.27,225.84L158.18,220.55L163.64,219.32L169.09,213.76L174.55,212.88L180,209.94L185.45,208.68L190.91,206.19L196.36,207.25L201.82,205.14L207.27,202.13L212.73,196.95L218.18,198.21L223.64,189.65L229.09,184.43L234.55,184.37L240,175.81L245.45,180.85L250.91,173.18L256.36,171.68L261.82,166.22L267.27,166.43L272.73,159.16L278.18,160.67L283.64,157.6L289.09,150.54L294.55,152.96L300,143.31L305.45,147.98L310.91,146.51L316.36,141.94L321.82,142.86L327.27,135.94L332.73,132.84L338.18,128.23L343.64,122.03L349.09,129.46L354.55,123.39L360,106.03L365.45,108.25L370.91,106.37L376.36,107.98L381.82,105.28L387.27,98.87L392.73,96.38L398.18,100.23L403.64,96.18L409.09,93.11L414.55,92.46L420,90.11L425.45,81.89L430.91,78.75L436.36,69.85L441.82,66.51L447.27,59.07L452.73,66.03L458.18,62.45L463.64,49.97L469.09,55.29L474.55,45.02L480,43.45L485.45,46.32L490.91,38.41L496.36,36.7L501.82,40.08L507.27,38.61L512.73,41.17L518.18,32.64L523.64,35.58L529.09,28.04L534.55,33.29L540,32.61" style="vector-effect: non-scaling-stroke; fill: none; stroke: rgb(231, 107, 243); stroke-opacity: 1; stroke-width: 2px; opacity: 1;"/></g><g class="points"/><g class="text"/></g><g class="trace scatter traceee8dbd" style="stroke-miterlimit: 2; opacity: 1;"><g class="fills"/><g class="errorbars"/><g class="lines"><path class="js-line" d="M0,302.98L10.91,299.7L16.36,299.67L21.82,296.97L27.27,296.7L32.73,297.62L38.18,288.72L43.64,276.85L49.09,274.94L54.55,270.07L60,270.24L65.45,267.44L70.91,267.44L81.82,259.36L87.27,261.06L92.73,260.38L98.18,257.59L103.64,256.12L109.09,255.85L114.55,250.8L120,250.29L125.45,253.63L130.91,249.71L136.36,248.72L141.82,243.64L147.27,243.09L152.73,245.07L163.64,238.62L169.09,238.25L174.55,236.61L180,235.86L185.45,234.77L190.91,227.37L196.36,231.16L201.82,226.31L212.73,224.37L218.18,225.12L229.09,217.34L234.55,219.8L240,214.75L245.45,213.39L250.91,210.49L256.36,211.04L261.82,207.93L267.27,208.55L278.18,200.19L283.64,204.11L289.09,199.68L294.55,198.31L300,198.79L305.45,194.39L316.36,191.53L321.82,185.94L332.73,184.06L338.18,182.08L343.64,179.8L349.09,174.27L354.55,177.92L360,169.57L365.45,173.62L370.91,172.12L376.36,170.49L381.82,166.7L387.27,170.32L392.73,162.78L398.18,161.62L403.64,157.39L409.09,158.11L414.55,155.55L420,151.35L425.45,149L430.91,153.44L436.36,149.96L447.27,149L452.73,146.44L458.18,144.4L463.64,145.39L469.09,142.42L474.55,144.4L480,142.22L485.45,136.52L490.91,139.49L496.36,129.84L501.82,136.04L507.27,131.95L518.18,130.48L523.64,124.72L534.55,127.62L540,127.48" style="vector-effect: non-scaling-stroke; fill: none; stroke: rgb(248, 118, 109); stroke-opacity: 1; stroke-width: 2px; opacity: 1;"/></g><g class="points"/><g class="text"/></g><g class="trace scatter trace6f50eb" style="stroke-miterlimit: 2; opacity: 1;"><g class="fills"/><g class="errorbars"/><g class="lines"><path class="js-line" d="M0,302.57L5.45,293.97L10.91,283.54L21.82,280.81L27.27,277.13L32.73,276.07L38.18,273.07L43.64,271.67L49.09,269.42L54.55,266.9L60,268.06L70.91,262.67L76.36,261.92L81.82,262.26L87.27,258.81L92.73,257.72L98.18,258.44L109.09,253.05L114.55,254.99L120,248.31L125.45,250.08L136.36,246.81L141.82,245.62L147.27,247.39L152.73,242.89L158.18,242L163.64,240.16L169.09,236.61L174.55,237.81L180,235.93L185.45,236.1L190.91,232.66L196.36,231.43L201.82,230.37L207.27,230.17L212.73,226.31L218.18,225.53L229.09,221.64L234.55,221.81L240,218.23L245.45,217.41L250.91,214.21L256.36,215.67L261.82,215.09L267.27,217.14L272.73,211.31L278.18,208.27L283.64,205.41L289.09,205.27L294.55,202L300,201.38L305.45,195.83L310.91,196.4L316.36,192.14L321.82,190.98L327.27,194.56L332.73,189.07L338.18,187.44L343.64,183.41L349.09,184.26L354.55,180.92L360,184.26L365.45,179.39L370.91,176.45L376.36,171.68L381.82,178.91L387.27,175.81L392.73,175.12L398.18,171.58L403.64,171.48L409.09,170.11L414.55,168.85L420,174.54L425.45,172.09L430.91,164.93L436.36,171.2L441.82,169.43L447.27,172.02L452.73,165.06L463.64,157.83L469.09,165.1L474.55,159.98L480,164.83L485.45,160.43L490.91,161.07L496.36,155.99L501.82,152.41L507.27,157.12L512.73,152.34L518.18,148.18L523.64,148.66L529.09,147.98L534.55,151.87L540,149.31" style="vector-effect: non-scaling-stroke; fill: none; stroke: rgb(163, 165, 0); stroke-opacity: 1; stroke-width: 2px; opacity: 1;"/></g><g class="points"/><g class="text"/></g><g class="trace scatter tracea003d4" style="stroke-miterlimit: 2; opacity: 1;"><g class="fills"/><g class="errorbars"/><g class="lines"><path class="js-line" d="M0,301.99L5.45,298.75L10.91,283.2L21.82,276.92L27.27,272.28L38.18,272.69L43.64,267.31L49.09,268.91L54.55,263.62L60,262.91L65.45,260.35L70.91,260.04L76.36,258.37L81.82,257.45L87.27,254.07L92.73,252.81L98.18,253.8L103.64,249.3L109.09,249.47L114.55,242.75L120,241.97L125.45,240.47L130.91,236.82L141.82,235.52L147.27,230.13L152.73,230.54L158.18,226.86L163.64,220L169.09,222.02L174.55,220.82L180,214.38L185.45,211.75L190.91,210.46L196.36,206.02L201.82,204.04L207.27,199.85L212.73,201.59L218.18,195.01L223.64,193.4L240,187.3L245.45,179.63L250.91,178.71L256.36,173.76L261.82,171.61L267.27,171L278.18,166.46L283.64,160.05L289.09,164.21L294.55,158.69L300,157.46L305.45,153.84L310.91,152.45L316.36,148.59L327.27,141.36L332.73,139.08L338.18,136.76L343.64,132.8L349.09,130.35L354.55,123.46L360,121L365.45,120.93L370.91,114.22L376.36,116.4L381.82,110.16L387.27,111.9L392.73,102.28L398.18,97.85L403.64,101.36L409.09,98.6L414.55,91.13L420,89.19L425.45,86.49L430.91,89.59L436.36,85.6L441.82,86.29L447.27,78.24L452.73,80.66L463.64,76.77L469.09,82.84L474.55,73.8L480,71.49L485.45,65.18L490.91,72.24L496.36,69.88L501.82,69.64L507.27,66.27L512.73,57.91L518.18,61.32L523.64,70.09L529.09,62.07L534.55,64.53L540,58.53" style="vector-effect: non-scaling-stroke; fill: none; stroke: rgb(0, 191, 125); stroke-opacity: 1; stroke-width: 2px; opacity: 1;"/></g><g class="points"/><g class="text"/></g><g class="trace scatter tracefa6f27" style="stroke-miterlimit: 2; opacity: 1;"><g class="fills"/><g class="errorbars"/><g class="lines"><path class="js-line" d="M0,303.25L5.45,296.67L10.91,284.6L16.36,279.48L21.82,277.98L27.27,272.32L32.73,271.06L38.18,270.44L43.64,267.44L49.09,265.67L54.55,262.7L60,262.26L65.45,258.27L70.91,260.14L76.36,255.88L81.82,257.89L87.27,254.48L92.73,255.61L98.18,251.21L103.64,249.33L109.09,249.03L125.45,239.41L130.91,239.55L136.36,239L141.82,234.84L158.18,232.25L163.64,228.87L169.09,225.09L174.55,222.46L185.45,217.96L190.91,218.44L196.36,211.65L201.82,213.29L212.73,203.7L218.18,203.91L223.64,197.73L229.09,198.69L234.55,190.3L240,186.79L245.45,183L250.91,182.46L256.36,176.25L261.82,177.82L272.73,170.93L278.18,165.13L283.64,165.13L289.09,164.08L300,159.78L305.45,162.64L310.91,161.11L316.36,155.72L321.82,148.01L327.27,147.3L332.73,150.54L338.18,144.77L349.09,138.7L354.55,137.41L360,138.94L365.45,129.19L370.91,125.2L376.36,128.3L381.82,122.67L387.27,124.99L398.18,116.77L403.64,116.3L409.09,104.53L414.55,108.96L420,102.38L425.45,101.6L430.91,92.77L436.36,99.52L447.27,91.27L452.73,83.93L458.18,89.49L463.64,89.87L469.09,81.2L474.55,78.99L480,82.6L485.45,76.7L490.91,79.74L496.36,73.57L501.82,75.37L507.27,70.87L512.73,69.68L518.18,67.39L523.64,70.63L529.09,66.51L534.55,59.24L540,60.57" style="vector-effect: non-scaling-stroke; fill: none; stroke: rgb(0, 176, 246); stroke-opacity: 1; stroke-width: 2px; opacity: 1;"/></g><g class="points"/><g class="text"/></g><g class="trace scatter trace4d6b6f" style="stroke-miterlimit: 2; opacity: 1;"><g class="fills"/><g class="errorbars"/><g class="lines"><path class="js-line" d="M0,300.42L5.45,298.2L10.91,283.85L16.36,279.24L21.82,276.21L27.27,275.76L32.73,273.68L38.18,270.82L43.64,269.52L49.09,268.33L54.55,266.04L65.45,262.87L70.91,260.25L76.36,260.18L81.82,257.52L87.27,256.49L92.73,256.53L98.18,254.76L103.64,250.12L109.09,246.26L114.55,243.57L120,245.79L125.45,243.02L130.91,236.78L136.36,236.58L141.82,234.09L147.27,233.54L152.73,228.15L158.18,230.92L163.64,226.42L169.09,226.93L174.55,225.15L180,219.83L185.45,215.74L190.91,217.04L196.36,213.32L201.82,215.84L207.27,207.9L212.73,213.22L218.18,201.66L223.64,201.18L229.09,200.53L234.55,198.55L240,191.39L245.45,194.05L250.91,188.6L256.36,193.1L267.27,184.33L272.73,182.29L278.18,175.43L283.64,179.32L289.09,171.37L294.55,167.42L300,162.85L305.45,165.75L310.91,163.33L316.36,163.12L321.82,160.43L327.27,154.87L332.73,152.72L338.18,149.21L343.64,147.23L349.09,143.31L360,133.45L365.45,137.2L370.91,126.26L376.36,124.69L381.82,114.76L387.27,123.94L392.73,117.08L398.18,114.8L403.64,108.35L409.09,109.85L414.55,107.02L420,98.67L425.45,96.86L430.91,93.21L436.36,94.44L441.82,88.95L447.27,89.08L452.73,85.2L458.18,84.48L463.64,86.18L469.09,84.41L474.55,81.03L480,79.36L485.45,76.12L490.91,75.51L496.36,77.45L507.27,66.03L512.73,70.56L518.18,66.64L523.64,61.6L529.09,54.88L534.55,49.83L540,48.43" style="vector-effect: non-scaling-stroke; fill: none; stroke: rgb(231, 107, 243); stroke-opacity: 1; stroke-width: 2px; opacity: 1;"/></g><g class="points"/><g class="text"/></g></g></g><g class="overplot"/><path class="xlines-above crisp" d="" style="fill: none; stroke-width: 1px; stroke: rgb(0, 0, 0); stroke-opacity: 0;"/><path class="ylines-above crisp" d="" style="fill: none; stroke-width: 1px; stroke: rgb(0, 0, 0); stroke-opacity: 0;"/><g class="overlines-above"/><g class="xaxislayer-above"><path class="xtick ticks crisp" d="M0,421v5" transform="translate(80,0)" style="stroke: rgb(51, 51, 51); stroke-opacity: 1; stroke-width: 1px;"/><path class="xtick ticks crisp" d="M0,421v5" transform="translate(189.09,0)" style="stroke: rgb(51, 51, 51); stroke-opacity: 1; stroke-width: 1px;"/><path class="xtick ticks crisp" d="M0,421v5" transform="translate(298.18,0)" style="stroke: rgb(51, 51, 51); stroke-opacity: 1; stroke-width: 1px;"/><path class="xtick ticks crisp" d="M0,421v5" transform="translate(407.27,0)" style="stroke: rgb(51, 51, 51); stroke-opacity: 1; stroke-width: 1px;"/><path class="xtick ticks crisp" d="M0,421v5" transform="translate(516.36,0)" style="stroke: rgb(51, 51, 51); stroke-opacity: 1; stroke-width: 1px;"/><g class="xtick"><text text-anchor="middle" x="0" y="440.4" transform="translate(80,0)" style="font-family: 'Open Sans', verdana, arial, sans-serif; font-size: 12px; fill: rgb(51, 51, 51); fill-opacity: 1; white-space: pre; opacity: 1;">0</text></g><g class="xtick"><text text-anchor="middle" x="0" y="440.4" style="font-family: 'Open Sans', verdana, arial, sans-serif; font-size: 12px; fill: rgb(51, 51, 51); fill-opacity: 1; white-space: pre; opacity: 1;" transform="translate(189.09,0)">20</text></g><g class="xtick"><text text-anchor="middle" x="0" y="440.4" style="font-family: 'Open Sans', verdana, arial, sans-serif; font-size: 12px; fill: rgb(51, 51, 51); fill-opacity: 1; white-space: pre; opacity: 1;" transform="translate(298.18,0)">40</text></g><g class="xtick"><text text-anchor="middle" x="0" y="440.4" style="font-family: 'Open Sans', verdana, arial, sans-serif; font-size: 12px; fill: rgb(51, 51, 51); fill-opacity: 1; white-space: pre; opacity: 1;" transform="translate(407.27,0)">60</text></g><g class="xtick"><text text-anchor="middle" x="0" y="440.4" style="font-family: 'Open Sans', verdana, arial, sans-serif; font-size: 12px; fill: rgb(51, 51, 51); fill-opacity: 1; white-space: pre; opacity: 1;" transform="translate(516.36,0)">80</text></g></g><g class="yaxislayer-above"><path class="ytick ticks crisp" d="M79,0h-5" transform="translate(0,364.34)" style="stroke: rgb(51, 51, 51); stroke-opacity: 1; stroke-width: 1px;"/><path class="ytick ticks crisp" d="M79,0h-5" transform="translate(0,302.95)" style="stroke: rgb(51, 51, 51); stroke-opacity: 1; stroke-width: 1px;"/><path class="ytick ticks crisp" d="M79,0h-5" transform="translate(0,241.57)" style="stroke: rgb(51, 51, 51); stroke-opacity: 1; stroke-width: 1px;"/><path class="ytick ticks crisp" d="M79,0h-5" transform="translate(0,180.18)" style="stroke: rgb(51, 51, 51); stroke-opacity: 1; stroke-width: 1px;"/><path class="ytick ticks crisp" d="M79,0h-5" transform="translate(0,118.8)" style="stroke: rgb(51, 51, 51); stroke-opacity: 1; stroke-width: 1px;"/><g class="ytick"><text text-anchor="end" x="71.6" y="4.199999999999999" transform="translate(0,364.34)" style="font-family: 'Open Sans', verdana, arial, sans-serif; font-size: 12px; fill: rgb(51, 51, 51); fill-opacity: 1; white-space: pre; opacity: 1;">0.01</text></g><g class="ytick"><text text-anchor="end" x="71.6" y="4.199999999999999" style="font-family: 'Open Sans', verdana, arial, sans-serif; font-size: 12px; fill: rgb(51, 51, 51); fill-opacity: 1; white-space: pre; opacity: 1;" transform="translate(0,302.95)">0.02</text></g><g class="ytick"><text text-anchor="end" x="71.6" y="4.199999999999999" style="font-family: 'Open Sans', verdana, arial, sans-serif; font-size: 12px; fill: rgb(51, 51, 51); fill-opacity: 1; white-space: pre; opacity: 1;" transform="translate(0,241.57)">0.03</text></g><g class="ytick"><text text-anchor="end" x="71.6" y="4.199999999999999" style="font-family: 'Open Sans', verdana, arial, sans-serif; font-size: 12px; fill: rgb(51, 51, 51); fill-opacity: 1; white-space: pre; opacity: 1;" transform="translate(0,180.18)">0.04</text></g><g class="ytick"><text text-anchor="end" x="71.6" y="4.199999999999999" style="font-family: 'Open Sans', verdana, arial, sans-serif; font-size: 12px; fill: rgb(51, 51, 51); fill-opacity: 1; white-space: pre; opacity: 1;" transform="translate(0,118.8)">0.05</text></g></g><g class="overaxes-above"/></g></g><g class="polarlayer"/><g class="ternarylayer"/><g class="geolayer"/><g class="funnelarealayer"/><g class="pielayer"/><g class="iciclelayer"/><g class="treemaplayer"/><g class="sunburstlayer"/><g class="glimages"/><defs id="topdefs-160530"><g class="clips"/></defs><g class="layer-above"><g class="imagelayer"/><g class="shapelayer"/></g><g class="infolayer"><g class="g-gtitle"><text class="gtitle" x="350" y="50" text-anchor="middle" dy="0em" style="font-family: 'Open Sans', verdana, arial, sans-serif; font-size: 17px; fill: rgb(51, 51, 51); opacity: 1; font-weight: normal; white-space: pre;">Train Accuracy: ascad_v1_vk_0-aisy_mlp_id (early_stopping)</text></g><g class="g-xtitle"/><g class="g-ytitle"/></g></svg>