<svg class="main-svg" xmlns="http://www.w3.org/2000/svg" xmlns:xlink="http://www.w3.org/1999/xlink" width="700" height="500" style="" viewBox="0 0 700 500"><rect x="0" y="0" width="700" height="500" style="fill: rgb(255, 255, 255); fill-opacity: 1;"/><defs id="defs-9d2db6"><g class="clips"><clipPath id="clip9d2db6xyplot" class="plotclip"><rect width="540" height="320"/></clipPath><clipPath class="axesclip" id="clip9d2db6x"><rect x="80" y="0" width="540" height="500"/></clipPath><clipPath class="axesclip" id="clip9d2db6y"><rect x="0" y="100" width="700" height="320"/></clipPath><clipPath class="axesclip" id="clip9d2db6xy"><rect x="80" y="100" width="540" height="320"/></clipPath></g><g class="gradients"/><g class="patterns"/></defs><g class="bglayer"><rect class="bg" x="80" y="100" width="540" height="320" style="fill: rgb(237, 237, 237); fill-opacity: 1; stroke-width: 0;"/></g><g class="layer-below"><g class="imagelayer"/><g class="shapelayer"/></g><g class="cartesianlayer"><g class="subplot xy"><g class="layer-subplot"><g class="shapelayer"/><g class="imagelayer"/></g><g class="gridlayer"><g class="x"><path class="xgrid crisp" transform="translate(189.09,0)" d="M0,100v320" style="stroke: rgb(255, 255, 255); stroke-opacity: 1; stroke-width: 1px;"/><path class="xgrid crisp" transform="translate(298.18,0)" d="M0,100v320" style="stroke: rgb(255, 255, 255); stroke-opacity: 1; stroke-width: 1px;"/><path class="xgrid crisp" transform="translate(407.27,0)" d="M0,100v320" style="stroke: rgb(255, 255, 255); stroke-opacity: 1; stroke-width: 1px;"/><path class="xgrid crisp" transform="translate(516.36,0)" d="M0,100v320" style="stroke: rgb(255, 255, 255); stroke-opacity: 1; stroke-width: 1px;"/></g><g class="y"><path class="ygrid crisp" transform="translate(0,363.95)" d="M80,0h540" style="stroke: rgb(255, 255, 255); stroke-opacity: 1; stroke-width: 1px;"/><path class="ygrid crisp" transform="translate(0,301.48)" d="M80,0h540" style="stroke: rgb(255, 255, 255); stroke-opacity: 1; stroke-width: 1px;"/><path class="ygrid crisp" transform="translate(0,239)" d="M80,0h540" style="stroke: rgb(255, 255, 255); stroke-opacity: 1; stroke-width: 1px;"/><path class="ygrid crisp" transform="translate(0,176.53)" d="M80,0h540" style="stroke: rgb(255, 255, 255); stroke-opacity: 1; stroke-width: 1px;"/><path class="ygrid crisp" transform="translate(0,114.06)" d="M80,0h540" style="stroke: rgb(255, 255, 255); stroke-opacity: 1; stroke-width: 1px;"/></g></g><g class="zerolinelayer"><path class="xzl zl crisp" transform="translate(80,0)" d="M0,100v320" style="stroke: rgb(255, 255, 255); stroke-opacity: 1; stroke-width: 1px;"/></g><path class="xlines-below"/><path class="ylines-below"/><g class="overlines-below"/><g class="xaxislayer-below"/><g class="yaxislayer-below"/><g class="overaxes-below"/><g class="plot" transform="translate(80,100)" clip-path="url(#clip9d2db6xyplot)"><g class="scatterlayer mlayer"><g class="trace scatter tracea17719" style="stroke-miterlimit: 2; opacity: 1;"><g class="fills"/><g class="errorbars"/><g class="lines"><path class="js-line" d="M0,302.13L5.45,301.05L10.91,293.73L16.36,281.13L21.82,276.96L32.73,271.31L38.18,272.03L43.64,270.61L49.09,267.31L54.55,268.29L60,266.55L65.45,260.23L70.91,261.73L76.36,260.23L81.82,256.87L87.27,253.99L92.73,249.65L98.18,251.63L103.64,250.45L114.55,245.14L120,240.14L130.91,236.77L136.36,235.31L141.82,237.29L147.27,234L152.73,230.25L158.18,230.8L163.64,226.26L169.09,224.07L174.55,222.85L180,216.09L185.45,218.97L190.91,214.77L196.36,211.57L201.82,209.67L207.27,210.74L212.73,201.34L218.18,203.84L223.64,201.23L229.09,201.27L234.55,197.03L240,194.85L245.45,190.58L250.91,185.89L256.36,184.75L261.82,184.33L267.27,171.66L272.73,172.88L278.18,170.72L283.64,162.88L289.09,163.44L294.55,162.39L300,156.91L310.91,149.59L316.36,149.52L321.82,139.56L327.27,138.97L332.73,141.12L338.18,134.39L343.64,130.5L349.09,128.1L354.55,123.25L360,120.92L365.45,118.94L370.91,121.51L376.36,111.41L381.82,111.62L387.27,110.58L392.73,105.89L398.18,103.84L403.64,100.48L409.09,98.43L414.55,99.05L420,98.29L425.45,88.61L436.36,88.99L441.82,84.96L447.27,79.65L452.73,80.21L469.09,72.99L474.55,65.42L480,67.51L485.45,65.84L490.91,64.21L496.36,60.56L501.82,63.38L507.27,61.15L512.73,55.57L518.18,55.74L523.64,48.73L529.09,52.23L534.55,51.16L540,44.63" style="vector-effect: non-scaling-stroke; fill: none; stroke: rgb(248, 118, 109); stroke-opacity: 1; stroke-width: 2px; opacity: 1;"/></g><g class="points"/><g class="text"/></g><g class="trace scatter trace2d55f0" style="stroke-miterlimit: 2; opacity: 1;"><g class="fills"/><g class="errorbars"/><g class="lines"><path class="js-line" d="M0,300.84L5.45,299.38L10.91,284.95L16.36,280.02L21.82,279.11L32.73,272.62L38.18,271.83L43.64,269.22L49.09,268.43L54.55,265.58L60,263.98L70.91,260.96L76.36,257.08L81.82,257.84L87.27,253.47L92.73,252.67L98.18,250.9L103.64,251.8L109.09,247.7L114.55,247.18L120,245.21L130.91,238.16L136.36,236.53L141.82,235.8L147.27,234.07L152.73,231.57L158.18,226.78L163.64,224.38L169.09,224.52L174.55,221.22L180,212.72L185.45,217.34L190.91,214.56L207.27,200.92L212.73,202.03L223.64,199.43L229.09,194.85L234.55,193.11L240,192.21L245.45,189.47L250.91,188.74L256.36,183.98L261.82,182.98L267.27,182.21L272.73,174.85L283.64,178.08L289.09,173.57L294.55,172.91L300,169.61L316.36,165.34L321.82,169.93L327.27,165.97L332.73,158.89L338.18,156.53L343.64,159.13L349.09,148.58L354.55,152.78L360,150.77L365.45,144.52L370.91,146.95L376.36,135.08L381.82,138.17L387.27,137.79L392.73,136.19L398.18,125.61L403.64,123.45L409.09,126.3L414.55,121.58L420,124.84L425.45,117.03L430.91,113.08L436.36,116.41L441.82,106.07L447.27,104.82L452.73,109.78L458.18,108.25L463.64,108.7L469.09,103.29L474.55,100.23L485.45,100.48L490.91,97.21L496.36,95.2L501.82,100.13L507.27,93.26L512.73,89.34L518.18,88.75L523.64,93.33L529.09,90.27L534.55,90.34L540,94.26" style="vector-effect: non-scaling-stroke; fill: none; stroke: rgb(163, 165, 0); stroke-opacity: 1; stroke-width: 2px; opacity: 1;"/></g><g class="points"/><g class="text"/></g><g class="trace scatter tracead9681" style="stroke-miterlimit: 2; opacity: 1;"><g class="fills"/><g class="errorbars"/><g class="lines"><path class="js-line" d="M0,301.5L5.45,295.32L10.91,283.35L16.36,280.16L21.82,278.39L27.27,273.84L32.73,274.5L38.18,274.05L43.64,269.5L49.09,268.46L54.55,264.43L65.45,265.23L70.91,260.58L76.36,261.41L81.82,259.23L87.27,254.89L92.73,253.4L98.18,251.73L103.64,251.14L109.09,250L114.55,247.01L120,245.97L125.45,242.85L130.91,239.58L136.36,242.5L141.82,235.8L147.27,234.69L152.73,235.04L158.18,233.3L169.09,226.88L174.55,226.6L180,222.54L185.45,224.38L190.91,224.52L196.36,217.54L201.82,217.54L207.27,213.21L212.73,209.94L218.18,210.6L223.64,214.46L229.09,206.3L245.45,207.93L250.91,201.44L256.36,205.22L261.82,200.61L267.27,200.43L272.73,199.36L278.18,195.96L283.64,196.79L294.55,186.72L300,191.51L305.45,182.94L310.91,180.96L316.36,181.28L321.82,175.55L327.27,176.8L332.73,175.55L338.18,170L343.64,167.46L349.09,167.88L354.55,166.04L360,159.55L365.45,159.38L370.91,159.79L376.36,155.14L387.27,149.66L392.73,148.06L398.18,144.28L403.64,148.1L409.09,139.7L414.55,141.12L420,141.36L425.45,137.16L430.91,130.15L436.36,134.18L441.82,126.85L447.27,131.99L458.18,126.4L463.64,126.13L469.09,124.7L474.55,121.54L480,120.33L485.45,117.8L490.91,114.64L496.36,118.11L501.82,115.12L507.27,116.41L512.73,119.32L518.18,117.1L529.09,113.56L534.55,112.17L540,112.9" style="vector-effect: non-scaling-stroke; fill: none; stroke: rgb(0, 191, 125); stroke-opacity: 1; stroke-width: 2px; opacity: 1;"/></g><g class="points"/><g class="text"/></g><g class="trace scatter trace83b844" style="stroke-miterlimit: 2; opacity: 1;"><g class="fills"/><g class="errorbars"/><g class="lines"><path class="js-line" d="M0,303.06L5.45,303.72L10.91,295.95L16.36,281.09L21.82,277.14L27.27,276.79L32.73,270.26L38.18,274.08L43.64,268.01L49.09,267.04L54.55,267.25L60,264.75L65.45,265.3L70.91,258.5L76.36,258.36L87.27,256.21L92.73,253.36L98.18,252.36L103.64,248.71L109.09,250.76L114.55,247.11L120,245.34L125.45,244.58L136.36,236.81L141.82,234.76L147.27,234.76L152.73,227.92L158.18,226.74L163.64,227.78L174.55,220.43L180,219.28L190.91,213.55L196.36,213.17L201.82,214.28L207.27,213.87L212.73,205.67L218.18,205.67L223.64,203.77L229.09,200.23L234.55,200.78L240,195.71L245.45,192.94L250.91,196.06L256.36,188.56L261.82,183.91L267.27,182.11L272.73,177.74L278.18,174.65L283.64,176.1L305.45,159.27L310.91,162.6L316.36,155.11L321.82,156.22L327.27,154.17L332.73,146.29L338.18,145.42L343.64,148.41L349.09,136.92L354.55,142.58L360,140.98L365.45,132.93L370.91,126.82L376.36,126.06L381.82,120.12L387.27,116.27L392.73,109.02L398.18,112.17L403.64,102.98L409.09,100.72L414.55,102.04L420,99.09L425.45,102.28L430.91,94.2L436.36,88.99L441.82,95.48L458.18,84.72L463.64,88.99L469.09,85.1L474.55,85.24L480,86.39L485.45,85.28L490.91,76.36L496.36,74.86L501.82,72.54L507.27,72.09L512.73,74.86L518.18,74.69L529.09,62.33L534.55,55.77L540,48.14" style="vector-effect: non-scaling-stroke; fill: none; stroke: rgb(0, 176, 246); stroke-opacity: 1; stroke-width: 2px; opacity: 1;"/></g><g class="points"/><g class="text"/></g><g class="trace scatter trace036c6d" style="stroke-miterlimit: 2; opacity: 1;"><g class="fills"/><g class="errorbars"/><g class="lines"><path class="js-line" d="M0,302.02L5.45,291.09L10.91,284.32L21.82,278L27.27,276.69L38.18,270.51L43.64,272.8L49.09,267.77L54.55,268.7L60,266.07L65.45,262.21L70.91,264.54L76.36,258.85L81.82,261.28L87.27,258.05L92.73,254.58L98.18,254.4L103.64,253.15L109.09,247.64L120,246.32L125.45,242.22L130.91,242.15L136.36,240.52L141.82,241.04L147.27,239.79L152.73,235.97L158.18,235L163.64,236.91L169.09,227.64L174.55,231.18L180,232.95L185.45,225.87L190.91,226.6L196.36,226.39L201.82,223.48L212.73,220.29L218.18,221.29L234.55,210.64L240,209.46L245.45,204.81L250.91,208.03L256.36,204.18L261.82,201.3L267.27,204.25L272.73,194.71L278.18,195.12L283.64,196.41L289.09,191.58L294.55,191.65L300,193.18L305.45,185.27L310.91,180.55L316.36,181.45L321.82,177.21L327.27,176.73L332.73,176.94L338.18,168.64L343.64,171.7L349.09,170.55L354.55,171.04L360,166.28L365.45,168.68L370.91,168.78L376.36,161.25L381.82,159.79L387.27,165.41L392.73,160.69L398.18,156.63L403.64,154.62L409.09,155.63L414.55,153.89L420,155.35L425.45,149.66L430.91,148.55L436.36,151.36L441.82,147.57L447.27,148.23L452.73,151.53L458.18,150.35L463.64,149.69L469.09,141.57L474.55,139.49L480,135.46L485.45,135.81L490.91,138.55L496.36,137.09L501.82,126.4L507.27,130.5L512.73,126.02L518.18,125.05L523.64,132.03L540,119.88" style="vector-effect: non-scaling-stroke; fill: none; stroke: rgb(231, 107, 243); stroke-opacity: 1; stroke-width: 2px; opacity: 1;"/></g><g class="points"/><g class="text"/></g><g class="trace scatter tracecdffac" style="stroke-miterlimit: 2; opacity: 1;"><g class="fills"/><g class="errorbars"/><g class="lines"><path class="js-line" d="M0,302.99L10.91,283.59L16.36,280.47L27.27,273.98L32.73,272.52L38.18,273.87L43.64,271.76L49.09,266.34L54.55,265.75L60,262.28L65.45,261.38L70.91,259.3L76.36,258.39L87.27,253.5L92.73,249.23L98.18,251.73L103.64,248.23L109.09,244.65L114.55,246.66L120,245.41L125.45,241.15L147.27,234.41L152.73,228.96L158.18,231.01L163.64,229.48L169.09,222.47L174.55,224.45L185.45,218.69L190.91,214.73L196.36,213L201.82,212.86L207.27,208.59L212.73,207.79L218.18,205.5L223.64,206.13L229.09,199.81L234.55,196.3L240,197.17L245.45,196.58L250.91,187.04L256.36,188.11L261.82,190.79L267.27,183.39L272.73,183.22L278.18,179.3L283.64,172.63L289.09,170.03L294.55,164.65L300,163.75L305.45,159.13L310.91,158.2L316.36,153.68L321.82,152.92L327.27,149.66L332.73,149.52L349.09,142.16L354.55,138.2L360,129.74L365.45,128.8L376.36,128.49L381.82,123.04L387.27,120.57L392.73,111.41L403.64,109.92L409.09,101.52L414.55,102.46L420,98.39L425.45,99.09L430.91,101.38L436.36,103.81L441.82,97.87L447.27,101.97L452.73,94.92L458.18,95.72L463.64,89.79L469.09,94.4L474.55,89.3L480,85.07L485.45,82.05L490.91,76.39L496.36,77.47L501.82,76.67L507.27,73.41L518.18,70.32L523.64,70.04L529.09,77.12L534.55,76.04L540,69.17" style="vector-effect: non-scaling-stroke; fill: none; stroke: rgb(248, 118, 109); stroke-opacity: 1; stroke-width: 2px; opacity: 1;"/></g><g class="points"/><g class="text"/></g><g class="trace scatter traceab10ee" style="stroke-miterlimit: 2; opacity: 1;"><g class="fills"/><g class="errorbars"/><g class="lines"><path class="js-line" d="M0,302.06L5.45,300.36L10.91,295.01L16.36,281.13L21.82,278.8L27.27,277.03L32.73,272.52L38.18,272.24L43.64,267.97L49.09,266.31L54.55,265.93L60,265.61L65.45,263.05L70.91,260.3L76.36,259.44L81.82,256.94L87.27,257.98L92.73,257.35L98.18,252.98L103.64,251.87L109.09,247.74L114.55,249.2L120,245.34L125.45,249.23L130.91,241.6L136.36,240.83L141.82,235.8L147.27,238.4L152.73,234.45L158.18,228.72L163.64,229.8L169.09,228.1L174.55,221.71L180,224.69L185.45,224.07L190.91,221.95L196.36,221.26L212.73,214.07L218.18,210.39L223.64,212.79L229.09,207.03L234.55,204.53L240,204.91L245.45,200.64L250.91,200.12L256.36,197.48L261.82,199.46L267.27,195.33L272.73,193.32L278.18,187.87L283.64,188.98L289.09,184.23L294.55,185.93L300,183.25L305.45,188.08L310.91,180.69L316.36,178.12L321.82,180.2L327.27,175.72L338.18,172.98L343.64,168.33L349.09,165.93L354.55,166.14L360,160.03L365.45,156.84L370.91,159.1L376.36,156.01L381.82,156.7L387.27,152.71L392.73,149.52L398.18,153.3L403.64,147.05L409.09,149.66L414.55,147.16L420,141.88L425.45,144.42L430.91,141.19L436.36,138.27L441.82,138.38L447.27,133.73L452.73,134.7L458.18,132.58L463.64,128.97L469.09,129.6L474.55,131.02L480,130.08L485.45,125.71L490.91,128.03L496.36,123.87L501.82,126.85L507.27,120.43L512.73,118.25L518.18,119.11L534.55,111.44L540,105.89" style="vector-effect: non-scaling-stroke; fill: none; stroke: rgb(163, 165, 0); stroke-opacity: 1; stroke-width: 2px; opacity: 1;"/></g><g class="points"/><g class="text"/></g><g class="trace scatter trace802486" style="stroke-miterlimit: 2; opacity: 1;"><g class="fills"/><g class="errorbars"/><g class="lines"><path class="js-line" d="M0,303.06L5.45,296.85L10.91,285.99L16.36,280.82L21.82,279.88L32.73,273.87L38.18,271.13L43.64,268.84L49.09,268.22L54.55,263.43L60,262.7L65.45,263.43L70.91,261.52L76.36,260.79L81.82,256.59L87.27,254.68L92.73,251.84L98.18,250.2L103.64,251.45L109.09,245.24L114.55,246.46L125.45,239.55L130.91,232.3L136.36,234.69L141.82,235.73L147.27,230.14L152.73,229.1L158.18,224.42L163.64,220.95L169.09,218.34L174.55,217.27L180,215.6L185.45,211.44L190.91,207.34L196.36,205.71L201.82,203.38L207.27,204.08L212.73,199.39L218.18,196.03L223.64,196.62L229.09,187.9L234.55,185.34L240,177.94L245.45,180.55L250.91,178.57L256.36,177.63L261.82,169.75L267.27,167.5L272.73,166.25L278.18,161.74L283.64,158.75L289.09,159.69L294.55,154.72L300,151.36L305.45,144.14L310.91,146.53L316.36,144.28L321.82,144.24L327.27,141.29L332.73,138.97L338.18,131.16L343.64,135.39L349.09,128.94L354.55,121.65L360,121.93L370.91,112.21L376.36,103.95L381.82,105.37L387.27,105.86L392.73,98.98L398.18,96.62L403.64,98.46L409.09,89.16L414.55,91.35L420,89.37L430.91,79.9L436.36,81.08L441.82,73.34L447.27,73.16L452.73,75.38L458.18,67.92L463.64,65.04L469.09,58.55L474.55,56.57L480,56.71L485.45,55.01L490.91,55.98L496.36,54.14L501.82,49.67L507.27,50.74L512.73,54.49L518.18,48.9L523.64,45.78L529.09,52.51L534.55,51.37L540,48.24" style="vector-effect: non-scaling-stroke; fill: none; stroke: rgb(0, 191, 125); stroke-opacity: 1; stroke-width: 2px; opacity: 1;"/></g><g class="points"/><g class="text"/></g><g class="trace scatter tracef03b26" style="stroke-miterlimit: 2; opacity: 1;"><g class="fills"/><g class="errorbars"/><g class="lines"><path class="js-line" d="M0,303.17L5.45,301.57L10.91,298.76L16.36,285.02L21.82,279.18L27.27,275.33L32.73,274.19L38.18,269.74L43.64,269.22L49.09,272.14L54.55,263.77L60,267.31L65.45,263.64L70.91,260.69L76.36,258.88L81.82,254.82L87.27,255.31L92.73,253.47L98.18,253.12L103.64,250.55L109.09,248.99L114.55,246.04L120,241.77L125.45,244.75L130.91,240.21L136.36,239.24L141.82,234.07L147.27,233.2L152.73,230.7L158.18,228.96L163.64,228.62L169.09,227.02L174.55,222.92L180,217.86L185.45,217.41L196.36,211.23L201.82,209.53L207.27,209.91L212.73,206.4L218.18,202.83L223.64,201.96L229.09,197.93L234.55,196.03L240,194.19L245.45,189.05L250.91,188.98L256.36,186.52L261.82,186L267.27,176.62L272.73,176.1L278.18,176.8L283.64,171L289.09,168.05L294.55,164.89L300,166.98L305.45,164.2L310.91,164.3L316.36,159.13L321.82,152.33L327.27,156.08L332.73,149.66L338.18,145.67L343.64,147.75L349.09,139.07L354.55,139.7L360,134.91L365.45,136.02L370.91,130.98L376.36,131.51L381.82,124.74L387.27,120.02L392.73,120.75L398.18,117.55L403.64,113.08L409.09,106.66L414.55,109.71L420,107.07L425.45,106.31L430.91,104.36L441.82,104.85L447.27,109.19L452.73,102.18L458.18,104.61L463.64,104.85L469.09,95.31L474.55,98.92L480,94.33L485.45,94.72L490.91,97.74L496.36,90.83L501.82,90.86L507.27,88.36L512.73,89.51L518.18,76.77L523.64,73.54L529.09,82.71L534.55,71.18L540,80.35" style="vector-effect: non-scaling-stroke; fill: none; stroke: rgb(0, 176, 246); stroke-opacity: 1; stroke-width: 2px; opacity: 1;"/></g><g class="points"/><g class="text"/></g><g class="trace scatter trace967cc5" style="stroke-miterlimit: 2; opacity: 1;"><g class="fills"/><g class="errorbars"/><g class="lines"><path class="js-line" d="M0,303.03L10.91,281.48L16.36,282.34L21.82,281.75L27.27,275.96L32.73,273.56L38.18,272.83L49.09,267.21L54.55,268.6L60,263.11L65.45,265.34L70.91,263.53L76.36,258.95L87.27,256.73L92.73,257.6L98.18,255.9L103.64,255.13L109.09,250.03L114.55,251.94L120,246.21L125.45,245.28L130.91,247.15L136.36,242.57L141.82,244.58L147.27,242.71L152.73,239.83L158.18,238.82L163.64,234.13L169.09,236.7L174.55,235.38L180,230.73L185.45,231.05L190.91,230.04L196.36,224.9L201.82,225.53L212.73,217.75L218.18,222.3L223.64,220.81L229.09,214.52L240,214.66L245.45,212.62L250.91,205.74L256.36,206.09L261.82,205.54L267.27,208L272.73,207.24L278.18,201.75L289.09,199.25L294.55,192.14L300,194.08L305.45,188.08L310.91,184.33L316.36,187.07L321.82,183.22L327.27,180.75L332.73,178.6L338.18,178.5L343.64,182.91L349.09,178.46L354.55,177.04L360,169.72L365.45,170L370.91,166.66L376.36,168.33L381.82,168.57L392.73,162.78L398.18,158.09L403.64,155.28L409.09,153.61L414.55,154.31L420,152.3L425.45,150.66L430.91,142.33L436.36,141.85L441.82,143.69L447.27,145.56L452.73,138.17L458.18,136.99L463.64,136.71L480,128.66L485.45,124.49L490.91,125.15L496.36,126.79L501.82,125.54L507.27,122.59L512.73,120.36L518.18,122.52L529.09,109.99L534.55,111.93L540,111.44" style="vector-effect: non-scaling-stroke; fill: none; stroke: rgb(231, 107, 243); stroke-opacity: 1; stroke-width: 2px; opacity: 1;"/></g><g class="points"/><g class="text"/></g><g class="trace scatter traceb0b493" style="stroke-miterlimit: 2; opacity: 1;"><g class="fills"/><g class="errorbars"/><g class="lines"><path class="js-line" d="M0,302.79L5.45,295.98L10.91,282.07L16.36,281.96L21.82,278.21L27.27,276.48L32.73,275.61L38.18,273.21L43.64,269.12L49.09,266.31L54.55,268.39L70.91,261.83L76.36,261.69L81.82,257.01L87.27,254.54L92.73,254.65L98.18,251.8L103.64,250.55L109.09,246.46L114.55,247.36L120,246.66L125.45,242.05L130.91,240.87L136.36,240.31L141.82,234.41L147.27,235.31L152.73,232.5L158.18,233.96L163.64,230.21L169.09,225.8L174.55,227.61L180,227.33L185.45,224.69L190.91,218.86L196.36,218.59L201.82,212.69L207.27,213.17L218.18,207.62L223.64,205.78L229.09,204.98L234.55,200.68L240,198.21L245.45,196.96L250.91,189.05L256.36,189.12L261.82,184.82L267.27,185.41L278.18,178.67L283.64,177.63L289.09,171.49L294.55,174.16L305.45,160.59L310.91,164.23L316.36,159.97L321.82,157.29L332.73,153.75L338.18,150.11L343.64,144.07L349.09,141.71L354.55,138.79L360,139.97L365.45,133.28L370.91,134.46L376.36,129.74L381.82,129.39L387.27,128.94L392.73,123.59L398.18,128.1L403.64,120.57L409.09,114.64L414.55,114.22L425.45,106.45L430.91,108.39L436.36,103.5L441.82,101.55L452.73,97.32L458.18,98.74L463.64,96.56L469.09,89.79L474.55,91.45L480,91.66L485.45,85.83L490.91,87.29L496.36,83.99L501.82,86.14L507.27,86.39L512.73,79.55L518.18,82.5L523.64,75.9L534.55,69.97L540,81.08" style="vector-effect: non-scaling-stroke; fill: none; stroke: rgb(248, 118, 109); stroke-opacity: 1; stroke-width: 2px; opacity: 1;"/></g><g class="points"/><g class="text"/></g><g class="trace scatter trace47dac4" style="stroke-miterlimit: 2; opacity: 1;"><g class="fills"/><g class="errorbars"/><g class="lines"><path class="js-line" d="M0,302.61L5.45,300.88L10.91,295.05L16.36,283.42L21.82,278.42L27.27,276.37L32.73,271.55L38.18,272.94L43.64,267.14L49.09,269.88L54.55,266.38L70.91,261.62L76.36,261.24L81.82,260.89L87.27,257.74L92.73,251.9L98.18,252.81L109.09,249.72L114.55,245.07L120,246.98L125.45,242.95L130.91,242.88L136.36,238.92L141.82,240.28L147.27,236.43L152.73,239.38L158.18,234.1L169.09,230.07L174.55,225.25L180,226.53L185.45,224.21L190.91,221.71L196.36,221.22L201.82,217.09L207.27,215.46L218.18,212.96L223.64,210.43L229.09,206.37L234.55,204.04L240,209.21L245.45,205.26L250.91,200.57L256.36,201.44L261.82,199.29L267.27,194.74L272.73,199.7L278.18,187.45L283.64,191.06L289.09,189.71L294.55,188.32L300,186.03L305.45,189.47L310.91,179.57L321.82,183.77L327.27,179.3L332.73,176.31L338.18,180.93L343.64,175.69L349.09,176.35L354.55,177.28L360,172.25L365.45,170.31L370.91,174.51L376.36,167.67L381.82,170.66L387.27,169.34L392.73,169.48L398.18,166.77L403.64,162.74L409.09,161.74L414.55,153.44L425.45,155.45L430.91,152.64L436.36,150.59L441.82,152.16L447.27,145.6L452.73,144.28L458.18,142.68L463.64,137.65L469.09,134.66L474.55,137.54L480,129.98L485.45,128.31L490.91,126.75L496.36,123L501.82,113.56L507.27,121.75L512.73,112.76L518.18,111.58L529.09,109.57L534.55,105.58L540,104.16" style="vector-effect: non-scaling-stroke; fill: none; stroke: rgb(163, 165, 0); stroke-opacity: 1; stroke-width: 2px; opacity: 1;"/></g><g class="points"/><g class="text"/></g><g class="trace scatter tracec9299a" style="stroke-miterlimit: 2; opacity: 1;"><g class="fills"/><g class="errorbars"/><g class="lines"><path class="js-line" d="M0,303.97L5.45,298.93L10.91,284.18L16.36,279.11L21.82,277.48L27.27,276.93L32.73,272.07L38.18,270.26L43.64,267L49.09,267.8L54.55,266.03L60,262.42L65.45,260.34L70.91,259.12L76.36,256.49L81.82,256L87.27,257.46L92.73,251.45L98.18,250.41L103.64,249.79L109.09,247.15L114.55,244.16L120,242.78L125.45,241.46L130.91,238.3L136.36,234.48L141.82,235.04L147.27,231.77L152.73,229.55L158.18,226.78L163.64,226.64L169.09,224.69L174.55,223.65L190.91,215.05L196.36,215.18L201.82,210.64L207.27,208L212.73,201.93L218.18,203.42L223.64,200.23L229.09,200.23L240,192.9L245.45,193.42L250.91,194.36L256.36,194.01L267.27,188.91L272.73,184.09L278.18,182.66L283.64,176.94L289.09,178.6L294.55,170.83L300,166.77L305.45,166.07L310.91,164.1L316.36,159.62L321.82,158.26L327.27,153.96L332.73,153.68L338.18,145.7L343.64,143.17L349.09,143.83L354.55,141.74L360,138.27L365.45,134.25L370.91,133.07L381.82,120.92L387.27,118.21L392.73,119.98L398.18,114.78L403.64,110.72L409.09,110.06L414.55,112.14L420,103.81L425.45,101.52L430.91,101.83L436.36,97.04L441.82,98.98L452.73,94.47L458.18,96.62L463.64,95.65L469.09,87.43L474.55,90L480,83.12L485.45,78.4L490.91,79.17L496.36,76.7L501.82,76.49L507.27,78.16L512.73,71.05L518.18,72.64L523.64,77.02L529.09,69.69L534.55,75.14L540,68.69" style="vector-effect: non-scaling-stroke; fill: none; stroke: rgb(0, 191, 125); stroke-opacity: 1; stroke-width: 2px; opacity: 1;"/></g><g class="points"/><g class="text"/></g><g class="trace scatter tracec8276f" style="stroke-miterlimit: 2; opacity: 1;"><g class="fills"/><g class="errorbars"/><g class="lines"><path class="js-line" d="M0,303.06L5.45,304L10.91,286.51L16.36,280.85L21.82,277.24L32.73,273.87L38.18,268.88L43.64,266.97L49.09,269.26L54.55,265.09L60,267.52L65.45,260.62L70.91,259.09L76.36,259.16L81.82,255.24L98.18,254.13L103.64,250.86L109.09,251.73L114.55,246.21L120,241.46L125.45,242.12L130.91,236.46L136.36,237.78L152.73,231.57L158.18,231.43L163.64,228.23L169.09,226.33L174.55,225.67L180,220.84L185.45,216.61L190.91,216.75L201.82,208.21L207.27,208.66L212.73,207.97L218.18,204.29L229.09,200.92L234.55,197.41L240,189.95L245.45,190.37L250.91,190.33L256.36,188.18L261.82,187.18L267.27,181.87L278.18,179.96L283.64,180.3L289.09,179.71L294.55,171.73L300,169.41L305.45,168.92L316.36,165.45L321.82,167.11L327.27,159.06L332.73,157.88L338.18,153.79L343.64,156.53L349.09,153.48L354.55,152.71L360,149.87L365.45,143.65L370.91,141.26L376.36,141.64L381.82,132.41L387.27,131.3L392.73,133L398.18,132.03L403.64,128.38L409.09,126.47L414.55,122.72L420,124.04L425.45,124.7L430.91,119.43L436.36,120.23L441.82,115.92L447.27,110.96L452.73,116.03L458.18,108.39L463.64,107L469.09,105.34L474.55,94.2L480,95.38L485.45,98.74L490.91,90.59L496.36,95.72L501.82,92.01L507.27,87.11L512.73,87.22L518.18,81.18L523.64,86.91L529.09,80.9L534.55,74.17L540,81.18" style="vector-effect: non-scaling-stroke; fill: none; stroke: rgb(0, 176, 246); stroke-opacity: 1; stroke-width: 2px; opacity: 1;"/></g><g class="points"/><g class="text"/></g><g class="trace scatter tracea7193a" style="stroke-miterlimit: 2; opacity: 1;"><g class="fills"/><g class="errorbars"/><g class="lines"><path class="js-line" d="M0,300.95L5.45,297.68L10.91,285.33L21.82,276.34L27.27,272.9L38.18,269.08L43.64,270.85L54.55,267.94L60,263.57L65.45,264.4L70.91,258.64L76.36,263.08L81.82,255.1L87.27,255.86L92.73,253.81L98.18,253.95L103.64,247.39L114.55,247.6L120,245.07L125.45,241.15L130.91,240.31L136.36,236.6L141.82,234.62L147.27,232.92L152.73,234.79L158.18,228.93L163.64,226.85L169.09,227.16L174.55,222.99L180,221.99L185.45,215.64L190.91,214.28L196.36,212.1L201.82,206.47L207.27,209.63L212.73,209.49L218.18,205.92L223.64,204.01L229.09,203L240,199.39L245.45,193.87L256.36,191.55L261.82,188.08L267.27,189.29L272.73,185.2L278.18,184.43L283.64,179.92L289.09,181.45L294.55,179.4L305.45,170.38L310.91,166.91L321.82,163.96L327.27,164.3L332.73,158.68L338.18,148.89L343.64,152.99L349.09,151.67L354.55,146.95L360,145.6L365.45,143.1L370.91,143.83L376.36,133.14L381.82,137.79L387.27,133.52L392.73,130.6L398.18,131.61L403.64,127.44L409.09,122.2L414.55,121.3L420,120.02L425.45,120.85L430.91,113.84L436.36,116.3L441.82,112.03L447.27,106.76L452.73,112.83L458.18,106.27L469.09,95.24L474.55,95.1L480,99.75L485.45,96.8L490.91,92.18L496.36,92.98L501.82,81.01L507.27,77.74L512.73,80.97L518.18,78.92L529.09,73.93L534.55,68.62L540,71.98" style="vector-effect: non-scaling-stroke; fill: none; stroke: rgb(231, 107, 243); stroke-opacity: 1; stroke-width: 2px; opacity: 1;"/></g><g class="points"/><g class="text"/></g><g class="trace scatter trace2120fe" style="stroke-miterlimit: 2; opacity: 1;"><g class="fills"/><g class="errorbars"/><g class="lines"><path class="js-line" d="M0,302.58L5.45,302.58L10.91,299.56L16.36,284.18L21.82,280.64L27.27,275.4L32.73,275.3L38.18,271.24L43.64,271.34L49.09,271.1L54.55,267.9L60,265.58L65.45,266.59L70.91,263.11L76.36,256.31L81.82,258.85L87.27,258.5L92.73,253.99L98.18,251.49L103.64,251.07L109.09,249.2L114.55,251.18L120,247.98L125.45,244.3L130.91,242.26L147.27,236.43L152.73,237.19L158.18,232.02L163.64,229.87L169.09,229.07L174.55,227.44L180,226.39L185.45,226.36L190.91,225.18L196.36,218.97L201.82,221.33L207.27,217.02L212.73,217.48L218.18,213.48L223.64,216.09L229.09,210.5L234.55,207.51L240,202.55L245.45,205.71L250.91,197.52L256.36,205.05L261.82,196.69L267.27,196.1L272.73,199.46L278.18,189.12L283.64,186.41L289.09,186.55L294.55,182.63L305.45,177.6L310.91,178.01L321.82,169.89L327.27,171.84L332.73,162.92L338.18,169.2L365.45,154.13L370.91,153.89L376.36,152.75L381.82,147.75L392.73,147.37L398.18,141.15L403.64,144.49L409.09,138.31L414.55,139.25L420,134.87L430.91,127.48L436.36,127.93L441.82,124.43L447.27,124.67L452.73,126.16L458.18,120.16L463.64,121.51L469.09,116.2L474.55,112.8L480,111.48L485.45,112.38L490.91,110.58L496.36,112.56L501.82,107.59L507.27,109.54L512.73,103.6L518.18,105.58L523.64,101.28L529.09,99.23L534.55,100.93L540,98.01" style="vector-effect: non-scaling-stroke; fill: none; stroke: rgb(248, 118, 109); stroke-opacity: 1; stroke-width: 2px; opacity: 1;"/></g><g class="points"/><g class="text"/></g><g class="trace scatter trace64e2c8" style="stroke-miterlimit: 2; opacity: 1;"><g class="fills"/><g class="errorbars"/><g class="lines"><path class="js-line" d="M0,302.33L10.91,300.22L16.36,288.62L21.82,279.32L27.27,275.33L32.73,272.97L38.18,271.9L43.64,269.95L49.09,270.54L60,264.82L65.45,264.3L76.36,258.19L81.82,259.47L87.27,253.99L92.73,253.78L98.18,251.8L103.64,253.33L109.09,249.82L114.55,248.71L120,245.73L125.45,244.69L130.91,239.9L136.36,239.24L141.82,234.72L147.27,234.45L152.73,231.29L158.18,229.21L163.64,229L169.09,225.84L174.55,219.59L180,221.57L190.91,221.54L196.36,212.41L201.82,213.76L207.27,210.43L218.18,210.26L223.64,206.92L229.09,202.9L234.55,201.44L240,197.87L245.45,199.64L250.91,193.91L256.36,190.47L261.82,186.62L267.27,185.72L272.73,185.65L278.18,183.5L283.64,181.66L289.09,183.46L294.55,175.2L300,175.51L305.45,173.64L310.91,169.79L316.36,165.8L321.82,164.03L327.27,162.26L332.73,161.8L338.18,162.43L343.64,157.22L349.09,155.38L354.55,156.43L360,152.68L365.45,150.56L370.91,150.91L376.36,150.11L381.82,145.08L387.27,144.97L392.73,145.53L398.18,142.54L403.64,143.76L409.09,138.83L414.55,138L420,135.74L425.45,129.18L430.91,133L436.36,128.62L441.82,129.04L447.27,130.98L452.73,123.77L458.18,124.7L463.64,122.48L469.09,117.8L474.55,119.7L480,112.69L485.45,117.93L490.91,109.5L496.36,108.36L501.82,110.47L507.27,108.18L512.73,107.35L518.18,97.8L523.64,102.28L529.09,100.55L534.55,91.8L540,93.4" style="vector-effect: non-scaling-stroke; fill: none; stroke: rgb(163, 165, 0); stroke-opacity: 1; stroke-width: 2px; opacity: 1;"/></g><g class="points"/><g class="text"/></g><g class="trace scatter trace163b79" style="stroke-miterlimit: 2; opacity: 1;"><g class="fills"/><g class="errorbars"/><g class="lines"><path class="js-line" d="M0,301.61L10.91,300.46L16.36,289.91L21.82,280.33L27.27,278.32L32.73,273.74L38.18,272.07L43.64,267.94L49.09,268.36L54.55,265.02L60,265.41L81.82,256.38L87.27,256.38L92.73,252.84L98.18,251L103.64,251.21L109.09,245.69L114.55,245.97L120,242.15L125.45,242.95L130.91,242.19L141.82,235.7L147.27,233.48L152.73,232.05L158.18,228.34L163.64,224.49L169.09,218.76L174.55,218.69L180,217.51L185.45,215.81L190.91,210.43L196.36,211.02L201.82,209.01L207.27,204.22L212.73,202.52L218.18,197.73L223.64,196.16L229.09,197.24L234.55,190.51L240,189.05L245.45,189.26L250.91,188.6L256.36,181.93L261.82,179.44L267.27,178.6L272.73,183.74L278.18,180.27L283.64,176.14L289.09,176.73L294.55,169.06L300,166.35L305.45,162.05L310.91,161.25L316.36,157.85L321.82,157.61L327.27,155.25L332.73,151.81L338.18,151.91L343.64,142.4L349.09,143.9L354.55,140.15L360,136.78L365.45,134.42L370.91,135.39L376.36,131.82L381.82,135.29L387.27,130.95L392.73,124.88L398.18,125.4L403.64,121.16L409.09,121.96L414.55,118.42L420,117.87L425.45,116.34L430.91,118.28L441.82,108.7L447.27,107.94L452.73,108.95L458.18,106L463.64,107.45L469.09,98.81L474.55,98.78L480,100.69L485.45,94.44L490.91,92.22L496.36,87.25L501.82,93.15L507.27,91.18L512.73,90.17L518.18,89.68L523.64,86.14L529.09,79.44L534.55,81.6L540,75.52" style="vector-effect: non-scaling-stroke; fill: none; stroke: rgb(0, 191, 125); stroke-opacity: 1; stroke-width: 2px; opacity: 1;"/></g><g class="points"/><g class="text"/></g><g class="trace scatter traced51b82" style="stroke-miterlimit: 2; opacity: 1;"><g class="fills"/><g class="errorbars"/><g class="lines"><path class="js-line" d="M0,302.75L5.45,303.79L10.91,299.07L16.36,284.39L21.82,279.57L27.27,275.02L32.73,272.56L38.18,272.35L43.64,268.77L49.09,265.37L54.55,265.3L60,263.29L65.45,262.59L70.91,262.28L76.36,257.08L81.82,258.74L87.27,256.83L92.73,253.92L98.18,253.19L103.64,252.53L109.09,247.01L114.55,248.05L120,245.62L125.45,243.33L130.91,240.17L152.73,231.84L158.18,230.7L163.64,227.02L169.09,229.1L180,222.23L185.45,222.4L190.91,217.06L196.36,213.76L201.82,208.49L207.27,209.53L212.73,205.64L218.18,203.73L223.64,201.09L229.09,205.88L234.55,200.09L240,199.46L245.45,196.72L250.91,192.87L256.36,186.59L261.82,185.72L267.27,180.72L272.73,178.43L278.18,176.87L283.64,179.16L289.09,170.31L294.55,173.57L300,167.39L305.45,165.48L310.91,162.81L316.36,162.36L321.82,162.01L327.27,159.76L332.73,153.96L338.18,153.72L349.09,146.92L354.55,145.35L360,138.48L365.45,139.07L376.36,132.37L381.82,134.49L387.27,130.71L392.73,125.85L398.18,122.07L403.64,120.19L409.09,110.26L414.55,113.94L420,110.2L425.45,107.45L430.91,107.7L436.36,104.89L447.27,104.61L452.73,103.57L458.18,105.54L463.64,104.02L469.09,100.89L474.55,95.86L480,94.2L485.45,98.81L490.91,94.61L496.36,92.84L501.82,92.36L507.27,88.33L512.73,80.59L518.18,83.99L523.64,79.83L529.09,76.74L540,76.49" style="vector-effect: non-scaling-stroke; fill: none; stroke: rgb(0, 176, 246); stroke-opacity: 1; stroke-width: 2px; opacity: 1;"/></g><g class="points"/><g class="text"/></g><g class="trace scatter trace02c1e6" style="stroke-miterlimit: 2; opacity: 1;"><g class="fills"/><g class="errorbars"/><g class="lines"><path class="js-line" d="M0,299.63L5.45,301.67L10.91,286.54L16.36,280.02L21.82,275.71L27.27,277.59L32.73,272L38.18,273.39L43.64,270.33L54.55,266.52L60,267.25L65.45,262.87L70.91,261.66L76.36,258.39L81.82,256.69L87.27,252.95L92.73,252.91L98.18,252.29L103.64,252.6L109.09,248.54L114.55,248.12L120,243.96L125.45,242.46L130.91,244.13L136.36,237.67L141.82,239.2L147.27,234.27L152.73,234.41L158.18,233.09L163.64,229.28L169.09,229.07L174.55,226.33L180,227.89L185.45,223.62L190.91,220.49L196.36,221.33L201.82,220.32L207.27,216.5L212.73,216.26L218.18,209.94L223.64,212.72L234.55,209.98L240,205.02L245.45,207.65L250.91,205.22L256.36,203.59L261.82,201.02L278.18,193.91L283.64,193.04L294.55,190.92L300,192.42L305.45,186.13L310.91,189.22L316.36,181.34L321.82,183.18L327.27,183.98L332.73,181.48L338.18,181.1L343.64,175.97L349.09,179.33L354.55,169.68L360,172.95L365.45,174.16L376.36,164.79L381.82,165.73L387.27,164.13L392.73,156.04L398.18,158.72L403.64,154.17L414.55,146.29L420,145.98L425.45,142.09L430.91,141.81L436.36,138.76L441.82,141.26L452.73,142.68L458.18,138.97L469.09,135.08L474.55,140.98L480,134.21L485.45,130.92L490.91,127.55L496.36,130.53L501.82,123.59L507.27,123.94L512.73,122.34L518.18,117.62L523.64,118.56L529.09,111.24L534.55,111.62L540,108.74" style="vector-effect: non-scaling-stroke; fill: none; stroke: rgb(231, 107, 243); stroke-opacity: 1; stroke-width: 2px; opacity: 1;"/></g><g class="points"/><g class="text"/></g><g class="trace scatter tracecc8e60" style="stroke-miterlimit: 2; opacity: 1;"><g class="fills"/><g class="errorbars"/><g class="lines"><path class="js-line" d="M0,301.67L5.45,301.99L10.91,295.84L16.36,281.41L21.82,278.11L27.27,277.97L32.73,275.47L38.18,273.39L43.64,270.09L49.09,269.02L54.55,268.98L60,264.89L65.45,263.6L70.91,262.07L76.36,262.25L81.82,260.58L87.27,256.03L98.18,256.97L103.64,249.75L109.09,252.15L114.55,248.19L120,244.93L125.45,244.27L136.36,238.99L141.82,237.81L147.27,238.44L152.73,234.59L163.64,229.14L169.09,231.36L174.55,223.51L180,222.13L185.45,219.73L190.91,221.81L196.36,216.43L201.82,216.89L207.27,210.08L212.73,205.71L218.18,209.63L223.64,209.56L229.09,199.88L234.55,201.13L240,196.93L245.45,195.26L250.91,193.67L256.36,186.62L261.82,185.61L267.27,181.76L272.73,180.82L278.18,178.53L283.64,174.72L289.09,172.77L300,171.07L305.45,166.94L310.91,164.03L316.36,166.94L321.82,158.61L327.27,160.17L332.73,158.06L338.18,154.13L343.64,149.8L349.09,148.37L354.55,145.21L360,146.71L365.45,144.45L370.91,140.29L376.36,137.48L381.82,133.28L387.27,133.8L392.73,129.7L398.18,126.06L403.64,124.77L409.09,125.12L414.55,124.43L420,121.16L425.45,118.91L430.91,114.22L436.36,111.13L441.82,101.93L447.27,105.51L452.73,105.72L458.18,101.69L463.64,102.21L469.09,101L474.55,96.38L480,99.82L485.45,95.34L490.91,94.99L496.36,91.42L501.82,93.15L507.27,98.5L512.73,93.29L518.18,93.36L523.64,88.33L529.09,90.17L534.55,91.21L540,88.57" style="vector-effect: non-scaling-stroke; fill: none; stroke: rgb(248, 118, 109); stroke-opacity: 1; stroke-width: 2px; opacity: 1;"/></g><g class="points"/><g class="text"/></g><g class="trace scatter tracecf41f9" style="stroke-miterlimit: 2; opacity: 1;"><g class="fills"/><g class="errorbars"/><g class="lines"><path class="js-line" d="M0,301.08L5.45,299.04L10.91,283.28L16.36,278.18L21.82,276.51L27.27,276.2L32.73,274.85L38.18,270.47L43.64,269.29L49.09,268.43L54.55,265.13L60,265.58L65.45,263.18L76.36,260.51L81.82,257.35L87.27,259.89L92.73,255.58L103.64,250.17L109.09,249.23L114.55,248.54L120,245.48L125.45,242.01L130.91,242.36L136.36,242.01L141.82,237.78L147.27,239.93L152.73,237.85L163.64,231.98L169.09,233.09L174.55,229.14L180,231.15L185.45,232.12L190.91,228.41L196.36,226.39L201.82,221.85L207.27,222.4L212.73,221.47L218.18,218.9L223.64,218.48L229.09,211.57L234.55,212.65L240,208.45L245.45,209.25L250.91,210.22L256.36,207.48L261.82,202.76L267.27,203.42L272.73,202.17L278.18,201.93L283.64,199.98L289.09,195.26L294.55,195.82L300,192.38L305.45,188.84L310.91,186.24L316.36,186.69L321.82,181.52L327.27,179.64L332.73,174.47L338.18,170.66L343.64,171.52L349.09,171.63L354.55,165.97L360,171.25L365.45,165.59L370.91,165.69L376.36,160.69L381.82,159.27L387.27,156.25L398.18,153.23L403.64,150.49L409.09,150.28L414.55,145.08L425.45,140.22L430.91,138.48L441.82,137.89L447.27,132.93L458.18,127.55L463.64,121.37L469.09,122.1L474.55,119.88L485.45,115.89L490.91,111.38L496.36,114.08L501.82,107.45L507.27,105.68L512.73,106.2L518.18,97.39L523.64,104.85L529.09,94.37L534.55,102.28L540,102.49" style="vector-effect: non-scaling-stroke; fill: none; stroke: rgb(163, 165, 0); stroke-opacity: 1; stroke-width: 2px; opacity: 1;"/></g><g class="points"/><g class="text"/></g><g class="trace scatter trace11d785" style="stroke-miterlimit: 2; opacity: 1;"><g class="fills"/><g class="errorbars"/><g class="lines"><path class="js-line" d="M0,302.65L5.45,297.2L10.91,283.14L16.36,279.74L21.82,278.63L27.27,277.45L32.73,274.6L38.18,273.94L43.64,269.78L49.09,267.28L54.55,268.74L65.45,261.45L70.91,260.79L76.36,258.53L81.82,255.1L87.27,254.02L92.73,251.8L98.18,248.09L103.64,246.73L109.09,248.82L114.55,244.96L120,242.67L125.45,243.37L136.36,235.21L141.82,235.28L147.27,229.93L152.73,230.63L158.18,224.52L163.64,227.89L169.09,224.97L174.55,222.99L180,217.48L185.45,217.68L190.91,212.23L196.36,209.98L201.82,205.5L207.27,203.59L212.73,204.95L218.18,199.95L223.64,198.42L229.09,191.2L245.45,185.58L250.91,182.39L261.82,173.71L267.27,174.65L272.73,168.99L278.18,160.21L283.64,163.26L289.09,156.81L294.55,149.69L300,153.61L305.45,144.31L310.91,144.42L316.36,143.34L321.82,136.57L327.27,132.72L332.73,133L338.18,125.4L343.64,125.15L349.09,118.94L354.55,116.58L360,115.37L365.45,112.28L370.91,110.82L376.36,110.2L381.82,107.04L387.27,101.93L392.73,100.2L398.18,92.6L403.64,97.21L409.09,94.33L414.55,89.41L420,89.86L425.45,87.39L430.91,76.53L436.36,78.92L441.82,78.92L447.27,78.92L452.73,72.92L463.64,64.94L469.09,58.24L474.55,62.47L480,54.94L485.45,61.22L490.91,49.7L501.82,56.43L507.27,53.24L512.73,50.6L518.18,55.77L523.64,52.51L529.09,58.38L534.55,48.62L540,52.65" style="vector-effect: non-scaling-stroke; fill: none; stroke: rgb(0, 191, 125); stroke-opacity: 1; stroke-width: 2px; opacity: 1;"/></g><g class="points"/><g class="text"/></g><g class="trace scatter trace45f8ca" style="stroke-miterlimit: 2; opacity: 1;"><g class="fills"/><g class="errorbars"/><g class="lines"><path class="js-line" d="M0,301.19L5.45,300.81L10.91,286.37L16.36,280.82L21.82,277.07L32.73,271.31L38.18,271.27L43.64,267.94L49.09,267.8L54.55,267L60,261.28L65.45,262.63L70.91,259.05L76.36,252.6L81.82,258.19L87.27,257.11L92.73,252.81L98.18,250.13L103.64,252.43L114.55,244.48L120,244.16L141.82,238.4L147.27,229.93L152.73,231.53L158.18,229.52L174.55,217.79L180,220.08L185.45,214.73L190.91,212.27L201.82,207.69L207.27,206.96L218.18,197.73L223.64,198.94L229.09,193.08L234.55,194.39L240,188.08L245.45,185.06L256.36,179.82L261.82,179.99L267.27,171.49L272.73,171.52L283.64,170.9L289.09,168.3L294.55,160.66L300,162.05L305.45,154.59L310.91,154.97L316.36,153.44L321.82,147.92L327.27,142.37L332.73,146.6L338.18,141.05L343.64,143.48L354.55,137.13L360,131.89L370.91,130.39L376.36,131.37L381.82,131.23L387.27,127.24L392.73,122.41L398.18,113.53L403.64,116.16L409.09,116.69L425.45,106.79L430.91,105.27L436.36,103.53L441.82,97.6L452.73,97.15L458.18,89.58L463.64,85.9L469.09,84.23L474.55,81.67L480,80.45L490.91,76.39L496.36,78.23L501.82,79.03L507.27,71.5L512.73,68.3L518.18,70.04L529.09,63.83L534.55,69L540,66.26" style="vector-effect: non-scaling-stroke; fill: none; stroke: rgb(0, 176, 246); stroke-opacity: 1; stroke-width: 2px; opacity: 1;"/></g><g class="points"/><g class="text"/></g><g class="trace scatter trace9305e3" style="stroke-miterlimit: 2; opacity: 1;"><g class="fills"/><g class="errorbars"/><g class="lines"><path class="js-line" d="M0,303.24L5.45,297.16L10.91,285.4L16.36,277.8L21.82,278.25L27.27,275.09L32.73,274.05L38.18,272.52L43.64,269.88L54.55,269.43L60,265.13L65.45,264.89L70.91,263.11L76.36,261.52L81.82,260.75L87.27,258.74L92.73,258.78L98.18,255.38L103.64,252.98L109.09,253.4L114.55,255.13L120,248.64L125.45,246.28L130.91,243.89L136.36,244.41L141.82,240.62L147.27,244.23L152.73,243.61L158.18,235.25L163.64,239.65L169.09,238.72L174.55,236.04L180,230.14L185.45,234.24L190.91,231.81L196.36,230.77L201.82,230.7L207.27,227.19L212.73,221.43L218.18,221.57L223.64,219.94L234.55,215.67L240,212.3L245.45,212.51L250.91,209.91L256.36,209.21L261.82,206.09L267.27,207.17L272.73,200.09L278.18,200.78L283.64,196.75L289.09,195.19L294.55,194.43L300,191.51L305.45,185.61L310.91,185.86L316.36,184.68L321.82,179.99L327.27,177.98L332.73,178.19L338.18,176.1L343.64,172.46L349.09,170.76L360,167.01L365.45,167.57L370.91,164.96L376.36,158.13L381.82,162.53L387.27,155.87L392.73,153.2L398.18,153.44L403.64,147.68L409.09,147.19L414.55,147.05L420,144.1L425.45,144.07L430.91,140.29L436.36,142.4L441.82,140.18L447.27,143.86L452.73,141.95L458.18,138.86L463.64,144.69L469.09,128.59L474.55,126.09L480,128.94L485.45,127.34L490.91,126.65L496.36,122.93L501.82,119.84L507.27,119.36L512.73,116.13L518.18,108.91L523.64,111.24L529.09,107.97L534.55,108.6L540,102.11" style="vector-effect: non-scaling-stroke; fill: none; stroke: rgb(231, 107, 243); stroke-opacity: 1; stroke-width: 2px; opacity: 1;"/></g><g class="points"/><g class="text"/></g><g class="trace scatter trace8da70a" style="stroke-miterlimit: 2; opacity: 1;"><g class="fills"/><g class="errorbars"/><g class="lines"><path class="js-line" d="M0,302.4L5.45,300.91L10.91,290.05L16.36,280.99L21.82,279.57L27.27,274.67L32.73,274.92L54.55,267.38L60,266.41L65.45,262.35L70.91,264.43L76.36,258.78L81.82,259.37L87.27,253.4L92.73,253.02L98.18,256.87L103.64,254.23L109.09,251.49L114.55,246.42L125.45,242.46L130.91,241.8L136.36,238.44L141.82,237.26L147.27,234.55L152.73,237.57L158.18,232.09L163.64,231.7L169.09,230.91L174.55,228.79L180,228.55L185.45,224.73L190.91,223.72L196.36,220.74L201.82,216.64L207.27,215.81L212.73,213.73L218.18,209.39L223.64,207.1L229.09,202.93L234.55,199.36L240,198.87L245.45,192L250.91,193.42L256.36,188.81L261.82,187.52L267.27,189.15L272.73,181.07L278.18,185.68L283.64,179.51L289.09,179.09L294.55,170.03L310.91,160.97L316.36,156.56L332.73,144.59L338.18,142.61L343.64,132.69L349.09,129.25L354.55,130.81L360,127.48L365.45,121.68L370.91,120.26L376.36,113.74L381.82,119.18L387.27,113.39L392.73,114.85L398.18,108.11L403.64,106.86L409.09,101L414.55,104.95L420,99.82L425.45,98.26L430.91,94.65L436.36,95.69L441.82,88.19L447.27,88.82L452.73,84.41L458.18,92.46L463.64,88.54L469.09,87.6L474.55,85.73L480,87.01L485.45,77.85L490.91,78.2L496.36,78.79L501.82,72.71L507.27,72.82L512.73,67.96L523.64,66.36L529.09,63.06L534.55,58L540,63.13" style="vector-effect: non-scaling-stroke; fill: none; stroke: rgb(248, 118, 109); stroke-opacity: 1; stroke-width: 2px; opacity: 1;"/></g><g class="points"/><g class="text"/></g><g class="trace scatter trace489d66" style="stroke-miterlimit: 2; opacity: 1;"><g class="fills"/><g class="errorbars"/><g class="lines"><path class="js-line" d="M0,300.25L5.45,298.52L10.91,287.2L21.82,278.14L27.27,274.85L32.73,272.35L38.18,271.06L43.64,268.11L49.09,268.43L54.55,268.04L60,266.69L70.91,260.16L76.36,260.3L81.82,253.15L87.27,254.09L92.73,252.88L98.18,250.38L103.64,245.48L109.09,248.47L114.55,242.12L120,238.99L125.45,235.49L130.91,235.63L136.36,232.71L141.82,231.25L147.27,227.12L152.73,229.38L158.18,227.37L163.64,223.17L169.09,220.46L174.55,219.31L180,212.41L185.45,213.38L190.91,211.64L196.36,205.85L201.82,206.58L207.27,196.51L212.73,198.77L218.18,194.29L223.64,195.82L229.09,186.38L234.55,186.17L240,182.46L245.45,180.23L250.91,169.58L256.36,170.24L261.82,168.71L267.27,164.1L272.73,163.85L278.18,155.21L283.64,156.08L289.09,143.97L294.55,146.71L300,140.67L305.45,138.72L310.91,136.12L316.36,131.64L321.82,131.09L327.27,129.04L332.73,125.15L338.18,116.23L343.64,119.22L349.09,111.24L354.55,111.17L360,115.12L365.45,107.63L370.91,104.3L376.36,103.95L381.82,97.08L387.27,108.04L392.73,100.75L398.18,96.38L403.64,90.48L409.09,91L414.55,81.39L420,84.89L425.45,81.91L430.91,83.92L436.36,81.18L441.82,75.49L447.27,80.49L452.73,82.19L458.18,73.79L463.64,83.44L469.09,83.12L474.55,74.13L480,78.02L485.45,83.64L490.91,77.99L496.36,78.26L501.82,72.43L507.27,71.6L512.73,73.27L518.18,76.74L523.64,73.93L529.09,74.59L534.55,70.07L540,69.66" style="vector-effect: non-scaling-stroke; fill: none; stroke: rgb(163, 165, 0); stroke-opacity: 1; stroke-width: 2px; opacity: 1;"/></g><g class="points"/><g class="text"/></g><g class="trace scatter tracea85717" style="stroke-miterlimit: 2; opacity: 1;"><g class="fills"/><g class="errorbars"/><g class="lines"><path class="js-line" d="M0,301.95L5.45,300.22L10.91,285.88L21.82,278.14L27.27,275.68L32.73,274.05L38.18,274.29L49.09,268.84L54.55,266.76L60,266.76L65.45,263.74L70.91,261.97L76.36,258.33L87.27,255.79L92.73,255.65L98.18,254.51L103.64,247.32L109.09,250.59L114.55,248.85L120,241.63L125.45,242.74L136.36,237.4L141.82,233.96L147.27,231.43L152.73,227.16L158.18,222.99L163.64,223.72L169.09,215.67L174.55,217.89L180,215.11L185.45,208.69L190.91,209.6L196.36,207.17L201.82,208.28L207.27,203.73L212.73,205.43L218.18,198.42L223.64,197.48L229.09,190.2L234.55,187.21L240,185.16L245.45,183.22L250.91,178.43L272.73,167.08L278.18,162.95L283.64,158.72L289.09,160.42L294.55,160.1L300,154.86L305.45,156.01L310.91,153.02L316.36,149.9L321.82,151.32L327.27,141.15L332.73,140.53L338.18,133L343.64,139.07L349.09,136.85L354.55,132.69L360,129.98L365.45,130.19L370.91,129.91L376.36,126.51L381.82,121.68L387.27,119.67L392.73,118.28L398.18,109.74L403.64,109.95L409.09,104.95L414.55,104.99L420,107.35L425.45,96.66L430.91,95.86L441.82,101.8L447.27,91.42L452.73,96.56L458.18,96.42L463.64,87.98L469.09,88.09L474.55,88.3L480,83.78L485.45,85.87L490.91,79.13L496.36,80.07L501.82,73.68L507.27,77.67L512.73,73.82L518.18,79.31L523.64,70.28L529.09,67.68L534.55,69.1L540,64.24" style="vector-effect: non-scaling-stroke; fill: none; stroke: rgb(0, 191, 125); stroke-opacity: 1; stroke-width: 2px; opacity: 1;"/></g><g class="points"/><g class="text"/></g><g class="trace scatter tracee77c61" style="stroke-miterlimit: 2; opacity: 1;"><g class="fills"/><g class="errorbars"/><g class="lines"><path class="js-line" d="M0,302.06L5.45,301.64L10.91,298.9L16.36,282.07L21.82,278.14L27.27,276.23L32.73,272.73L38.18,269.54L43.64,268.43L54.55,266.03L60,264.5L65.45,263.25L70.91,260.06L76.36,259.82L81.82,255.06L92.73,255.9L98.18,250.2L103.64,247.84L109.09,246.56L114.55,244.48L120,245.14L125.45,238.33L130.91,237.85L141.82,229.9L147.27,230.42L152.73,227.54L158.18,222.99L163.64,221.74L169.09,216.05L174.55,217.89L180,213.31L185.45,204.88L190.91,201.2L196.36,204.11L201.82,197.38L207.27,200.05L212.73,193.7L223.64,188.08L229.09,181.66L245.45,178.5L250.91,174.51L256.36,173.22L261.82,169.16L267.27,168.68L272.73,165.28L278.18,159.65L283.64,162.88L289.09,159.48L294.55,157.12L300,150.49L305.45,150.21L310.91,146.98L316.36,148.58L321.82,139.04L327.27,142.09L332.73,140.36L338.18,143.86L343.64,142.92L349.09,134.52L354.55,132.58L360,126.96L365.45,116.27L370.91,119.29L376.36,110.65L381.82,108.91L387.27,109.26L392.73,102.8L398.18,106.52L403.64,98.19L409.09,92.25L414.55,89.86L420,91.04L425.45,87.32L430.91,88.36L436.36,77.43L441.82,69.9L447.27,82.43L452.73,74.97L458.18,72.95L463.64,69.14L469.09,69.52L474.55,65.7L480,64.9L485.45,67.89L490.91,62.72L496.36,60.11L501.82,59.11L507.27,52.62L512.73,50.05L518.18,51.57L523.64,49.63L529.09,47.2L534.55,46.47L540,51.19" style="vector-effect: non-scaling-stroke; fill: none; stroke: rgb(0, 176, 246); stroke-opacity: 1; stroke-width: 2px; opacity: 1;"/></g><g class="points"/><g class="text"/></g><g class="trace scatter tracefd76dc" style="stroke-miterlimit: 2; opacity: 1;"><g class="fills"/><g class="errorbars"/><g class="lines"><path class="js-line" d="M0,301.78L5.45,295.77L10.91,281.02L16.36,280.85L21.82,276.93L27.27,275.89L32.73,269.81L38.18,272.8L43.64,271.41L49.09,266.86L54.55,267.11L60,265.65L65.45,263.25L76.36,259.3L81.82,257.39L87.27,254.61L92.73,255.41L98.18,251.84L103.64,253.29L114.55,245.93L120,243.4L125.45,243.3L130.91,240.69L141.82,235.31L147.27,233.82L152.73,231.46L158.18,226.85L163.64,228.27L169.09,225.94L174.55,224.83L180,221.61L185.45,220.84L190.91,215.46L196.36,214.39L201.82,209.01L207.27,209.63L212.73,208.1L218.18,201.27L223.64,197.93L229.09,193.39L234.55,189.85L240,185.79L245.45,187.38L250.91,182.59L256.36,179.96L261.82,174.06L267.27,171.25L272.73,171.97L278.18,166.28L283.64,163.78L289.09,163.71L305.45,155.77L310.91,156.74L316.36,150.66L321.82,148.3L327.27,141.92L332.73,144.62L338.18,137.68L343.64,133.1L349.09,132.79L354.55,127.93L365.45,118.87L370.91,118.66L376.36,109.5L381.82,113.28L387.27,103.57L392.73,102.91L398.18,102.77L403.64,95.65L409.09,85.87L414.55,92.88L420,88.3L425.45,88.4L430.91,80.66L436.36,81.25L441.82,80.31L447.27,70.11L452.73,79.62L458.18,71.18L469.09,62.96L474.55,62.72L480,57.13L485.45,60.01L490.91,54.59L496.36,54.49L501.82,53.48L507.27,58.27L512.73,48.52L518.18,50.01L523.64,52.03L529.09,55.29L534.55,46.16L540,45.64" style="vector-effect: non-scaling-stroke; fill: none; stroke: rgb(231, 107, 243); stroke-opacity: 1; stroke-width: 2px; opacity: 1;"/></g><g class="points"/><g class="text"/></g><g class="trace scatter tracef1bfbc" style="stroke-miterlimit: 2; opacity: 1;"><g class="fills"/><g class="errorbars"/><g class="lines"><path class="js-line" d="M0,302.75L5.45,296.99L10.91,285.85L21.82,280.99L27.27,280.4L38.18,275.51L43.64,273.84L49.09,271.34L54.55,270.68L60,267.35L65.45,268.25L76.36,266.07L81.82,261.83L87.27,262.49L92.73,261.1L98.18,260.23L103.64,257.87L109.09,252.18L114.55,255.9L120,252.67L125.45,253.29L130.91,253.05L136.36,249.93L141.82,251.63L147.27,249.09L152.73,245.97L158.18,246.77L163.64,245L169.09,244.3L174.55,239.1L180,242.81L185.45,242.29L190.91,242.74L196.36,243.71L201.82,240.45L207.27,242.57L212.73,238.82L218.18,239.1L223.64,236.04L229.09,231.88L234.55,236.08L240,234.52L245.45,231.15L250.91,231.81L256.36,231.6L261.82,232.95L267.27,228.13L278.18,230L283.64,224.9L289.09,224.83L294.55,222.72L300,222.51L305.45,224.73L310.91,221.08L316.36,220.32L321.82,218.86L327.27,218.83L332.73,216.68L338.18,217.23L343.64,213.87L349.09,216.95L354.55,217.27L360,214.49L365.45,213.1L370.91,212.89L381.82,216.82L387.27,215.46L392.73,210.46L398.18,215.53L403.64,214.87L409.09,210.95L414.55,208.17L420,209.56L425.45,210.5L430.91,209.42L436.36,211.23L441.82,209.87L458.18,208.42L463.64,205.67L474.55,198.84L480,204.11L485.45,199.5L490.91,202L496.36,199.67L501.82,192.31L507.27,193.91L512.73,200.82L518.18,196.89L523.64,194.08L529.09,191.72L534.55,191.76L540,192.17" style="vector-effect: non-scaling-stroke; fill: none; stroke: rgb(248, 118, 109); stroke-opacity: 1; stroke-width: 2px; opacity: 1;"/></g><g class="points"/><g class="text"/></g><g class="trace scatter trace486b49" style="stroke-miterlimit: 2; opacity: 1;"><g class="fills"/><g class="errorbars"/><g class="lines"><path class="js-line" d="M0,301.29L5.45,298.83L10.91,284.7L16.36,277.21L21.82,278.87L27.27,274.01L32.73,272.83L38.18,270.06L43.64,269.5L49.09,266.03L54.55,266.34L60,265.89L65.45,262.56L70.91,261.03L76.36,255.93L81.82,255.55L87.27,252.77L98.18,250.93L103.64,246.14L109.09,245.83L114.55,244.51L120,240.52L125.45,240.45L130.91,236.74L136.36,236.7L141.82,237.29L147.27,232.71L152.73,226.05L158.18,227.92L169.09,223.83L174.55,223.62L180,222.96L185.45,217.82L196.36,213.59L201.82,214.07L207.27,210.67L212.73,209.74L218.18,207.24L223.64,201.61L229.09,203.63L234.55,202.55L240,199.91L245.45,196.27L250.91,196.1L256.36,188.01L261.82,189.36L267.27,187L272.73,190.13L278.18,187.8L283.64,185.41L289.09,178.85L294.55,179.12L300,178.19L305.45,173.43L310.91,164.34L316.36,168.05L321.82,162.71L327.27,157.99L332.73,159.27L338.18,158.51L343.64,153.06L354.55,148.75L360,147.92L365.45,145.74L370.91,141.88L376.36,138.59L381.82,137.2L387.27,130.43L392.73,134.52L398.18,130.81L403.64,121.58L409.09,122L414.55,125.64L420,119.05L425.45,118.7L430.91,115.54L436.36,114.6L441.82,113.49L447.27,108.7L452.73,110.82L458.18,104.36L469.09,105.48L474.55,102.04L485.45,95.65L490.91,93.05L496.36,95.44L501.82,96.87L507.27,89.89L512.73,84.27L518.18,84.62L523.64,81.7L529.09,72.95L534.55,71.46L540,73.51" style="vector-effect: non-scaling-stroke; fill: none; stroke: rgb(163, 165, 0); stroke-opacity: 1; stroke-width: 2px; opacity: 1;"/></g><g class="points"/><g class="text"/></g><g class="trace scatter trace997d5e" style="stroke-miterlimit: 2; opacity: 1;"><g class="fills"/><g class="errorbars"/><g class="lines"><path class="js-line" d="M0,302.72L5.45,300.98L10.91,291.33L16.36,282.48L21.82,276.1L27.27,276.27L32.73,273.74L38.18,273.49L43.64,270.96L49.09,267.11L54.55,269.78L60,265.48L65.45,262.39L76.36,259.89L81.82,259.82L87.27,254.72L92.73,256.9L103.64,248.54L109.09,250.34L114.55,249.51L120,242.92L125.45,243.16L130.91,240.28L141.82,239.24L147.27,236.84L152.73,234.13L158.18,235.42L163.64,231.11L169.09,229.62L174.55,228.79L180,226.08L185.45,226.08L190.91,223.27L201.82,217.44L207.27,218.27L212.73,213.03L218.18,213.34L223.64,209.42L229.09,207.97L240,206.26L245.45,204.81L250.91,203.11L256.36,198.25L261.82,196.58L267.27,193.28L272.73,189.61L278.18,191.83L283.64,187.28L289.09,185.23L294.55,176.83L300,179.09L305.45,172.98L310.91,169.65L316.36,170.59L321.82,168.61L327.27,164.2L332.73,162.36L338.18,158.92L343.64,157.99L349.09,156.77L354.55,159.79L360,149.87L365.45,146.33L370.91,144.87L376.36,141.5L381.82,140.25L387.27,142.23L392.73,135.29L398.18,135.22L403.64,130.36L409.09,130.57L414.55,129.94L420,128.28L425.45,123.84L430.91,126.33L436.36,125.4L441.82,117.69L447.27,119.43L452.73,123.38L458.18,118.49L463.64,116.55L469.09,114.33L474.55,114.57L480,118.35L485.45,109.78L490.91,102.04L496.36,97.74L501.82,90.52L507.27,86.07L512.73,88.99L518.18,80.17L523.64,74.72L529.09,73.34L534.55,73.86L540,65.11" style="vector-effect: non-scaling-stroke; fill: none; stroke: rgb(0, 191, 125); stroke-opacity: 1; stroke-width: 2px; opacity: 1;"/></g><g class="points"/><g class="text"/></g><g class="trace scatter tracefe8030" style="stroke-miterlimit: 2; opacity: 1;"><g class="fills"/><g class="errorbars"/><g class="lines"><path class="js-line" d="M0,301.08L5.45,299.77L10.91,287.55L16.36,281.82L21.82,281.68L27.27,276.96L32.73,277.14L38.18,274.29L43.64,273.94L54.55,264.89L60,267.35L70.91,261.03L76.36,261.17L81.82,262.87L87.27,258.67L92.73,258.01L98.18,254.61L103.64,251.11L109.09,249.51L120,249.16L125.45,247.95L141.82,240.45L147.27,237.19L152.73,239.76L158.18,239.06L163.64,234.41L169.09,238.13L174.55,236.01L180,232.36L185.45,229.73L190.91,231.32L196.36,228.37L201.82,227.16L207.27,227.78L212.73,225.18L218.18,225.56L223.64,224.69L229.09,219.45L234.55,218.62L240,216.3L245.45,216.64L250.91,218.45L256.36,218.52L261.82,211.4L267.27,211.99L283.64,209.01L289.09,205.4L294.55,204.39L300,202.2L305.45,195.47L310.91,200.09L316.36,196.51L321.82,196.23L327.27,196.93L332.73,189.99L338.18,193.01L343.64,189.19L360,186.2L365.45,181.34L370.91,181.07L376.36,182.49L381.82,178.33L387.27,176.69L392.73,177.91L398.18,176.24L403.64,173.05L409.09,168.71L414.55,171.31L420,167.74L425.45,163.33L430.91,165.03L436.36,161.18L441.82,166.14L447.27,162.81L452.73,156.6L463.64,152.95L469.09,159.44L474.55,149.38L480,150.46L485.45,153.96L490.91,150.39L496.36,146.22L501.82,148.3L507.27,147.54L512.73,145.46L518.18,139.94L523.64,140.6L529.09,141.02L534.55,137.72L540,139.21" style="vector-effect: non-scaling-stroke; fill: none; stroke: rgb(0, 176, 246); stroke-opacity: 1; stroke-width: 2px; opacity: 1;"/></g><g class="points"/><g class="text"/></g><g class="trace scatter traceb24d54" style="stroke-miterlimit: 2; opacity: 1;"><g class="fills"/><g class="errorbars"/><g class="lines"><path class="js-line" d="M0,301.12L5.45,302.44L10.91,299.18L16.36,282.86L21.82,279.25L27.27,278.7L32.73,274.53L38.18,271.97L43.64,267.94L54.55,265.58L60,265.61L65.45,260.16L70.91,259.02L76.36,259.09L81.82,253.88L87.27,253.05L92.73,253.81L98.18,250.76L103.64,246.63L109.09,245.17L114.55,242.53L120,238.2L125.45,235.87L130.91,233.72L136.36,230.56L141.82,227.89L147.27,222.23L152.73,222.51L158.18,216.4L163.64,213.28L169.09,212.2L174.55,208.56L180,205.88L185.45,199.6L190.91,199.01L196.36,193.32L201.82,193.28L207.27,186.86L212.73,183.25L223.64,177.28L229.09,172.49L234.55,169.51L240,162.78L250.91,158.54L256.36,154.17L267.27,145.25L272.73,145.7L278.18,136.95L283.64,134.39L289.09,129.77L294.55,129.6L300,126.72L305.45,121.16L310.91,117.8L316.36,110.85L321.82,111.34L327.27,110.58L338.18,103.08L343.64,103.08L349.09,101.45L354.55,96.31L360,101.41L365.45,101.07L370.91,91.63L376.36,86.28L381.82,82.6L387.27,83.99L392.73,75.45L398.18,79.44L409.09,74.27L414.55,77.02L420,75.11L425.45,71.05L430.91,69.76L436.36,64.94L441.82,60.74L447.27,62.06L452.73,56.33L458.18,55.25L463.64,53.34L469.09,52.79L480,46.09L485.45,41.58L496.36,39.15L501.82,38.8L507.27,30.3L512.73,27.97L523.64,22.11L529.09,23.46L534.55,27.87L540,24.09" style="vector-effect: non-scaling-stroke; fill: none; stroke: rgb(231, 107, 243); stroke-opacity: 1; stroke-width: 2px; opacity: 1;"/></g><g class="points"/><g class="text"/></g><g class="trace scatter trace9bcfce" style="stroke-miterlimit: 2; opacity: 1;"><g class="fills"/><g class="errorbars"/><g class="lines"><path class="js-line" d="M0,301.85L5.45,302.13L10.91,284.43L16.36,280.82L21.82,276.16L27.27,275.75L32.73,273.32L38.18,269.78L43.64,268.36L49.09,262.04L54.55,263.7L60,264.36L65.45,259.82L70.91,259.99L76.36,257.6L81.82,257.21L87.27,259.75L92.73,250.76L98.18,250.97L103.64,247.98L109.09,247.18L125.45,240.42L130.91,239.65L136.36,235.52L141.82,232.89L147.27,232.3L152.73,230.18L158.18,229.48L163.64,224.03L169.09,227.61L174.55,223.76L180,219.31L185.45,221.71L196.36,211.4L201.82,209.98L207.27,210.71L212.73,204.98L218.18,208.1L223.64,201.44L229.09,202.76L234.55,200.43L240,196.89L245.45,200.5L250.91,194.67L256.36,195.12L267.27,186.52L272.73,188.18L283.64,189.67L289.09,185.54L300,177.8L305.45,176.38L316.36,171.25L321.82,169.89L327.27,168.82L332.73,161.08L343.64,157.57L349.09,153.06L354.55,151.46L360,147.82L365.45,145.32L370.91,140.22L376.36,140.77L381.82,133.17L387.27,137.68L392.73,130.22L398.18,126.85L403.64,128.14L414.55,126.2L420,123.94L430.91,117.17L436.36,119.98L447.27,119.36L452.73,117.48L458.18,114.01L463.64,115.96L469.09,119.74L474.55,122.24L480,115.64L485.45,117.1L490.91,121.16L496.36,114.15L501.82,111.48L507.27,112.31L512.73,116.51L518.18,112.62L523.64,112.14L529.09,114.57L534.55,102.87L540,97.7" style="vector-effect: non-scaling-stroke; fill: none; stroke: rgb(248, 118, 109); stroke-opacity: 1; stroke-width: 2px; opacity: 1;"/></g><g class="points"/><g class="text"/></g><g class="trace scatter trace1a4d08" style="stroke-miterlimit: 2; opacity: 1;"><g class="fills"/><g class="errorbars"/><g class="lines"><path class="js-line" d="M0,300.43L5.45,302.2L10.91,288.17L16.36,281.02L21.82,277.48L32.73,272.49L38.18,272.97L43.64,269.85L49.09,268.95L54.55,268.98L60,264.78L65.45,263.43L70.91,263.29L76.36,262.77L81.82,255.79L87.27,256.73L92.73,253.4L98.18,252.18L103.64,249.44L109.09,245L114.55,244.79L120,243.12L125.45,240L130.91,240.56L136.36,236.49L141.82,236.43L147.27,232.64L152.73,228.06L158.18,229.31L163.64,224.28L169.09,227.61L174.55,224.49L180,223.17L185.45,224.66L190.91,220.29L196.36,220.56L201.82,216.02L207.27,212.75L212.73,218.03L218.18,213.31L223.64,211.51L229.09,209.53L234.55,205.85L240,200.89L245.45,199.81L250.91,199.5L256.36,200.05L267.27,198.52L272.73,195.64L278.18,191.38L283.64,194.57L289.09,188.49L294.55,188.18L305.45,183.5L310.91,176.87L316.36,177.8L321.82,177.94L327.27,169.13L332.73,168.47L343.64,167.25L349.09,164.93L354.55,165.21L360,161.35L365.45,160.31L370.91,156.53L376.36,157.71L381.82,153.89L387.27,154.9L392.73,151.22L398.18,147.92L403.64,148.69L409.09,144.73L414.55,143.58L420,141.05L425.45,141.99L430.91,139.97L436.36,136.64L441.82,133.1L447.27,134.46L452.73,133.76L458.18,130.88L463.64,122.31L469.09,126.68L474.55,124.46L480,127.38L485.45,128.9L490.91,126.09L496.36,119.25L501.82,124.22L507.27,127.13L512.73,119.32L518.18,117.73L523.64,126.13L529.09,121.41L534.55,124.56L540,127.2" style="vector-effect: non-scaling-stroke; fill: none; stroke: rgb(163, 165, 0); stroke-opacity: 1; stroke-width: 2px; opacity: 1;"/></g><g class="points"/><g class="text"/></g><g class="trace scatter trace370698" style="stroke-miterlimit: 2; opacity: 1;"><g class="fills"/><g class="errorbars"/><g class="lines"><path class="js-line" d="M0,300.49L5.45,302.65L10.91,299.94L16.36,300.32L21.82,292.75L32.73,275.05L38.18,273.63L43.64,269.43L49.09,270.61L54.55,266.48L60,266.45L76.36,261.31L81.82,260.79L87.27,255.93L92.73,256.69L98.18,252.01L103.64,253.54L109.09,249.13L114.55,246.98L120,247.36L125.45,245.59L130.91,243.26L136.36,239.93L141.82,239.9L147.27,236.01L152.73,236.7L158.18,233.93L163.64,228.37L169.09,226.81L180,222.79L185.45,222.3L190.91,220.7L196.36,215.53L201.82,218.55L207.27,215.77L218.18,207.62L223.64,210.67L229.09,206.65L234.55,205.36L245.45,203.38L250.91,201.65L261.82,193.98L267.27,194.57L272.73,191.55L278.18,191.65L283.64,189.05L289.09,183.74L294.55,187.42L300,183.01L310.91,175.97L316.36,173.99L321.82,169.54L327.27,169.79L332.73,163.78L338.18,162.36L349.09,164.72L354.55,161.87L360,159.38L365.45,154.72L370.91,154.03L376.36,156.01L387.27,152.36L392.73,142.06L398.18,141.54L403.64,144.31L409.09,142.99L414.55,136.36L420,136.12L425.45,133.73L430.91,133.59L436.36,134.59L441.82,134L447.27,126.51L452.73,134.21L458.18,131.68L469.09,133.66L474.55,123.73L480,123.45L485.45,127.69L490.91,122.38L496.36,126.33L501.82,118.25L507.27,114.39L512.73,115.37L518.18,113.7L523.64,108.53L529.09,106.86L534.55,102.8L540,102.28" style="vector-effect: non-scaling-stroke; fill: none; stroke: rgb(0, 191, 125); stroke-opacity: 1; stroke-width: 2px; opacity: 1;"/></g><g class="points"/><g class="text"/></g><g class="trace scatter trace21d8ae" style="stroke-miterlimit: 2; opacity: 1;"><g class="fills"/><g class="errorbars"/><g class="lines"><path class="js-line" d="M0,301.05L5.45,301.74L10.91,286.65L16.36,281.16L21.82,277.14L27.27,277.83L32.73,275.64L38.18,276.62L43.64,270.65L49.09,268.08L54.55,264.5L60,266.13L65.45,263.91L70.91,259.26L76.36,261.66L81.82,256.83L87.27,254.37L92.73,254.89L98.18,253.33L109.09,251.14L114.55,242.08L120,246.28L125.45,245.28L130.91,241.46L136.36,242.29L141.82,238.13L147.27,235.07L152.73,232.57L158.18,227.51L163.64,228.82L169.09,229.17L174.55,223.55L180,222.47L185.45,224.31L190.91,217.48L201.82,211.12L207.27,213.38L212.73,208.21L218.18,204.7L223.64,205.74L229.09,199.91L234.55,198.46L240,199.57L245.45,201.44L250.91,192.31L256.36,188.25L261.82,186.24L267.27,184.33L272.73,185.06L278.18,182.11L283.64,180.44L289.09,175.34L294.55,173.99L300,176.69L305.45,170.07L310.91,168.4L316.36,162.98L321.82,159.93L327.27,159.58L332.73,158.99L338.18,153.75L343.64,150.32L349.09,155.07L360,148.2L365.45,146.22L370.91,142.44L376.36,137.75L381.82,133L387.27,124.36L392.73,126.4L398.18,125.08L403.64,121.02L409.09,120.71L414.55,118.25L420,116.62L425.45,113.8L430.91,112.8L436.36,113.15L441.82,107.11L447.27,111.38L452.73,104.92L458.18,102.25L463.64,101.52L469.09,103.32L474.55,101.21L480,93.67L485.45,94.92L490.91,95.93L496.36,94.26L501.82,85.62L507.27,89.48L512.73,86.04L518.18,86.56L523.64,80.17L529.09,80.28L534.55,79.31L540,77.36" style="vector-effect: non-scaling-stroke; fill: none; stroke: rgb(0, 176, 246); stroke-opacity: 1; stroke-width: 2px; opacity: 1;"/></g><g class="points"/><g class="text"/></g><g class="trace scatter tracea76b99" style="stroke-miterlimit: 2; opacity: 1;"><g class="fills"/><g class="errorbars"/><g class="lines"><path class="js-line" d="M0,300.98L5.45,299.14L10.91,287.06L16.36,281.06L21.82,279.64L27.27,278.52L32.73,273.49L38.18,271.55L43.64,268.08L49.09,269.29L54.55,266.93L60,263.57L65.45,262.66L70.91,262.63L76.36,259.54L81.82,256.31L87.27,256.31L92.73,251.66L98.18,254.13L103.64,249.2L109.09,246.14L114.55,244.86L120,242.15L125.45,240.14L130.91,242.71L141.82,235.73L147.27,231.29L152.73,233.89L158.18,230.07L163.64,230.87L169.09,226.5L174.55,224.42L180,224.8L185.45,220.49L190.91,222.89L196.36,215.01L201.82,217.65L207.27,217.06L212.73,211.54L218.18,215.7L223.64,213.07L229.09,208.69L234.55,209.91L240,206.72L245.45,205.02L250.91,204.08L256.36,201.89L261.82,198.28L267.27,196.89L278.18,191.58L283.64,189.64L289.09,183.91L294.55,183.5L300,184.99L305.45,180.62L316.36,179.23L321.82,175.97L332.73,170.1L338.18,168.99L349.09,165.31L354.55,159.27L360,159.79L365.45,156.98L370.91,157.08L376.36,155.21L381.82,152.95L387.27,149.73L392.73,148.13L398.18,142.96L403.64,143.83L409.09,143.38L414.55,144.8L420,139.04L425.45,139.11L430.91,140.98L436.36,143.17L441.82,141.61L447.27,138.9L452.73,142.02L458.18,138.48L463.64,136.95L469.09,137.79L474.55,133.1L480,133.38L485.45,131.71L490.91,129.94L496.36,131.4L501.82,127.58L507.27,131.16L512.73,128.1L518.18,124.15L529.09,122.62L534.55,120.3L540,119.08" style="vector-effect: non-scaling-stroke; fill: none; stroke: rgb(231, 107, 243); stroke-opacity: 1; stroke-width: 2px; opacity: 1;"/></g><g class="points"/><g class="text"/></g><g class="trace scatter tracead5071" style="stroke-miterlimit: 2; opacity: 1;"><g class="fills"/><g class="errorbars"/><g class="lines"><path class="js-line" d="M0,302.09L5.45,303.06L10.91,288.66L16.36,278.94L21.82,276.65L32.73,273.77L38.18,270.02L43.64,268.22L49.09,269.99L54.55,261.8L60,263.01L65.45,265.06L70.91,260.34L76.36,261.34L81.82,255.62L87.27,256.21L92.73,252.67L98.18,252.36L103.64,252.95L109.09,251.07L114.55,248.02L120,244.65L125.45,244.1L130.91,238.33L136.36,239.55L141.82,238.44L147.27,234.52L152.73,234.27L158.18,235.59L163.64,230.73L169.09,227.96L174.55,231.46L180,227.26L185.45,228.37L190.91,223.58L196.36,223.58L201.82,225.87L207.27,225.25L212.73,221.61L223.64,219.25L229.09,219.21L234.55,216.02L240,214.73L250.91,213L256.36,214.94L267.27,211.71L272.73,207.9L283.64,202.38L289.09,197.17L294.55,199.6L300,200.61L305.45,197.93L310.91,197.97L316.36,195.44L321.82,197.41L327.27,192.21L332.73,190.96L338.18,191.62L343.64,184.64L349.09,186.66L354.55,183.6L360,185.2L365.45,183.57L370.91,182.28L376.36,179.64L381.82,181.9L387.27,174.72L392.73,172.01L398.18,174.82L403.64,172.08L409.09,170.69L414.55,170.79L420,168.68L425.45,162.12L430.91,160.45L436.36,160.49L441.82,159.76L447.27,160.1L452.73,151.53L458.18,152.57L463.64,151.81L469.09,151.84L474.55,150.87L480,153.3L485.45,151.74L490.91,151.15L496.36,148.79L501.82,142.51L507.27,138.52L512.73,144.73L518.18,141.64L523.64,145.67L529.09,137.79L534.55,146.12L540,141.33" style="vector-effect: non-scaling-stroke; fill: none; stroke: rgb(248, 118, 109); stroke-opacity: 1; stroke-width: 2px; opacity: 1;"/></g><g class="points"/><g class="text"/></g><g class="trace scatter trace4b020c" style="stroke-miterlimit: 2; opacity: 1;"><g class="fills"/><g class="errorbars"/><g class="lines"><path class="js-line" d="M0,302.75L5.45,296.3L10.91,284.32L21.82,276.3L27.27,273.67L32.73,273.74L38.18,271.65L43.64,269.67L49.09,265.09L54.55,265.16L60,262.46L65.45,258.08L70.91,257.04L76.36,255.76L81.82,257.7L87.27,253.33L92.73,254.33L98.18,250.69L103.64,249.86L109.09,246L114.55,243.47L120,241.32L125.45,237.5L130.91,240.94L136.36,233.79L141.82,236.7L147.27,231.53L158.18,230.11L163.64,222.3L169.09,225.18L174.55,220.18L180,218.48L185.45,214L190.91,211.71L196.36,213.14L201.82,210.74L207.27,206.54L212.73,200.57L218.18,200.92L223.64,198.7L229.09,192.17L234.55,193.35L240,189.85L245.45,187.66L250.91,180.58L256.36,177.08L261.82,177.32L267.27,176.31L272.73,169.65L278.18,165.76L283.64,169.89L289.09,164.27L294.55,162.57L300,157.22L305.45,154.41L310.91,151.25L316.36,149.03L332.73,144.07L338.18,137.37L343.64,134.66L349.09,130.74L354.55,129.94L360,121.54L365.45,120.12L370.91,122.93L376.36,113.84L381.82,111.72L387.27,105.68L392.73,111.58L398.18,103.57L403.64,105.27L414.55,100.3L420,99.96L430.91,92.63L436.36,86.21L441.82,81.91L447.27,86.42L452.73,79.79L458.18,82.88L463.64,78.58L469.09,77.54L474.55,76.22L480,77.5L485.45,74.97L490.91,77.05L496.36,76.6L501.82,77.99L507.27,75.42L512.73,80.28L518.18,70.87L523.64,75.59L529.09,76.43L534.55,72.75L540,76.15" style="vector-effect: non-scaling-stroke; fill: none; stroke: rgb(163, 165, 0); stroke-opacity: 1; stroke-width: 2px; opacity: 1;"/></g><g class="points"/><g class="text"/></g><g class="trace scatter trace191743" style="stroke-miterlimit: 2; opacity: 1;"><g class="fills"/><g class="errorbars"/><g class="lines"><path class="js-line" d="M0,301.88L5.45,295.01L10.91,280.61L21.82,276.23L27.27,272.38L32.73,271.24L38.18,268.53L43.64,268.49L49.09,266.07L60,261.48L65.45,261.31L70.91,260.86L76.36,255.55L92.73,248.68L98.18,245.41L103.64,245.03L109.09,245.87L114.55,240.83L120,240.73L125.45,236.46L130.91,233.72L136.36,232.57L141.82,228.16L147.27,223.76L152.73,222.2L158.18,223.24L163.64,220.11L169.09,212.72L174.55,210.85L180,208.52L185.45,209.42L190.91,202.27L196.36,198.18L201.82,192.59L207.27,190.58L212.73,185.16L218.18,176.76L223.64,181.59L229.09,180.93L234.55,175.17L240,166L245.45,166.52L250.91,162.53L256.36,155.9L261.82,155.31L267.27,156.01L272.73,151.77L278.18,144.1L283.64,145.08L289.09,141.71L294.55,137.27L300,135.6L305.45,129.25L310.91,130.12L316.36,124.7L321.82,132.58L327.27,131.54L332.73,123.73L338.18,117.45L343.64,110.13L349.09,116.1L354.55,112.69L360,111.03L365.45,102.73L370.91,99.82L376.36,99.54L381.82,93.81L387.27,94.44L392.73,90.31L398.18,94.54L403.64,92.53L414.55,84.93L420,79.58L425.45,81.15L430.91,77.19L436.36,80.97L441.82,75.45L447.27,73.13L452.73,66.26L458.18,60.29L463.64,56.99L469.09,54.84L474.55,49.04L480,41.93L485.45,46.47L490.91,39.32L496.36,36.86L501.82,32.38L507.27,34.64L512.73,31.58L518.18,26.59L523.64,25.44L529.09,23.32L534.55,16L540,18.67" style="vector-effect: non-scaling-stroke; fill: none; stroke: rgb(0, 191, 125); stroke-opacity: 1; stroke-width: 2px; opacity: 1;"/></g><g class="points"/><g class="text"/></g><g class="trace scatter traceac34c4" style="stroke-miterlimit: 2; opacity: 1;"><g class="fills"/><g class="errorbars"/><g class="lines"><path class="js-line" d="M0,301.54L5.45,301.61L10.91,294.14L16.36,282.45L21.82,279.15L27.27,278L32.73,275.02L38.18,268.98L43.64,271.31L49.09,269.95L54.55,264.26L60,265.86L65.45,263.18L70.91,262.25L76.36,262.35L81.82,260.62L87.27,257.63L92.73,255.55L98.18,250.69L103.64,251.9L109.09,250.34L114.55,251.59L120,249.48L125.45,246.52L130.91,241.01L136.36,241.53L141.82,239.41L147.27,238.16L152.73,238.99L163.64,232.33L169.09,233.34L174.55,228.62L180,228.75L185.45,225.53L190.91,223.62L196.36,218.41L201.82,221.61L207.27,211.19L212.73,212.44L218.18,208.28L223.64,205.43L229.09,204.88L234.55,202.2L240,204.18L245.45,198.18L250.91,193.35L256.36,192L261.82,187.7L267.27,185.41L272.73,187.45L278.18,182.98L283.64,178.6L289.09,178.78L294.55,176.28L300,169.65L305.45,170.34L310.91,168.82L316.36,168.54L321.82,162.39L327.27,164.16L332.73,154.93L338.18,153.89L343.64,155.38L349.09,157.43L354.55,157.92L365.45,153.16L370.91,152.12L376.36,146.67L381.82,147.3L392.73,145.28L398.18,140.46L420,135.29L425.45,135.32L430.91,133.93L436.36,129.21L441.82,127.06L447.27,126.58L452.73,120.95L458.18,126.68L463.64,114.67L469.09,113.53L474.55,116.27L480,117.03L485.45,113.94L490.91,116.16L496.36,108.43L501.82,108.36L507.27,108.91L512.73,100.51L518.18,94.02L523.64,94.72L534.55,90.86L540,90.55" style="vector-effect: non-scaling-stroke; fill: none; stroke: rgb(0, 176, 246); stroke-opacity: 1; stroke-width: 2px; opacity: 1;"/></g><g class="points"/><g class="text"/></g><g class="trace scatter trace4e4437" style="stroke-miterlimit: 2; opacity: 1;"><g class="fills"/><g class="errorbars"/><g class="lines"><path class="js-line" d="M0,299.73L5.45,301.78L10.91,299.8L16.36,283.84L21.82,276.96L27.27,277.41L32.73,274.43L38.18,269.81L43.64,268.77L49.09,266.03L54.55,266.03L60,261.9L65.45,261.76L70.91,259.57L76.36,260.48L81.82,256.66L87.27,251.42L92.73,253.33L98.18,249.44L103.64,247.36L109.09,247.7L114.55,242.57L120,240.42L125.45,239.34L130.91,236.08L141.82,232.85L147.27,231.57L152.73,229.69L158.18,231.25L163.64,225.42L169.09,217.86L174.55,222.44L180,217.09L185.45,214.63L190.91,210.74L196.36,214.21L201.82,211.02L207.27,209.01L212.73,210.71L223.64,205.71L229.09,199.64L234.55,197.41L240,190.65L245.45,191.13L250.91,189.05L256.36,188.46L261.82,185.54L272.73,184.47L278.18,184.95L283.64,175.13L289.09,180.23L294.55,175.9L300,168.26L305.45,165.62L310.91,165.24L316.36,160.97L321.82,157.81L327.27,158.13L332.73,153.02L338.18,151.08L343.64,147.99L349.09,148.72L354.55,143.31L360,142.82L365.45,140.81L370.91,138.17L376.36,136.47L381.82,146.15L387.27,132.75L392.73,134.35L398.18,130.92L403.64,128.35L409.09,128.14L414.55,130.53L420,123.84L425.45,123.42L430.91,128.8L436.36,124.11L441.82,122.38L447.27,123.31L452.73,117.73L458.18,123.52L463.64,114.85L469.09,118.42L474.55,110.96L480,114.08L485.45,113.11L490.91,112.14L496.36,115.26L501.82,108.22L507.27,107.77L512.73,107.66L518.18,102.32L523.64,97.56L529.09,97.49L534.55,92.53L540,92.11" style="vector-effect: non-scaling-stroke; fill: none; stroke: rgb(231, 107, 243); stroke-opacity: 1; stroke-width: 2px; opacity: 1;"/></g><g class="points"/><g class="text"/></g><g class="trace scatter trace8f8d6d" style="stroke-miterlimit: 2; opacity: 1;"><g class="fills"/><g class="errorbars"/><g class="lines"><path class="js-line" d="M0,302.02L5.45,300.32L10.91,287.86L16.36,283.38L21.82,277.73L27.27,277.48L32.73,274.22L49.09,269.57L54.55,265.23L60,264.12L65.45,263.84L70.91,261.07L76.36,260.37L81.82,254.54L87.27,253.85L92.73,256.45L98.18,253.64L103.64,251.28L109.09,246.28L120,246.11L125.45,243.33L136.36,239.38L141.82,239.69L147.27,237.4L152.73,238.09L158.18,233.48L163.64,232.33L169.09,226.46L174.55,229.76L180,228.16L185.45,221.22L190.91,223.41L196.36,218.48L201.82,220.88L207.27,216.89L212.73,215.46L218.18,216.33L223.64,211.68L229.09,211.37L234.55,212.06L240,200.89L245.45,206.09L250.91,201.34L256.36,198.28L261.82,199.05L267.27,193.46L272.73,192.21L278.18,186L283.64,187.38L289.09,181.62L294.55,182.32L300,177.04L305.45,175.13L316.36,162.95L321.82,164.96L332.73,162.5L338.18,159.48L343.64,159.76L349.09,157.22L354.55,158.13L360,156.22L365.45,154.62L370.91,151.5L381.82,142.47L387.27,141.47L392.73,136.89L398.18,136.61L403.64,130.26L409.09,132.51L420,127.72L425.45,123.84L430.91,120.12L436.36,118.87L441.82,120.82L447.27,112L452.73,118.25L458.18,112.8L463.64,114.08L469.09,109.33L474.55,107.45L480,108.91L490.91,102.46L496.36,99.57L501.82,99.26L507.27,99.82L512.73,97.15L518.18,92.22L523.64,92.32L529.09,95.17L534.55,96L540,89.2" style="vector-effect: non-scaling-stroke; fill: none; stroke: rgb(248, 118, 109); stroke-opacity: 1; stroke-width: 2px; opacity: 1;"/></g><g class="points"/><g class="text"/></g><g class="trace scatter trace298672" style="stroke-miterlimit: 2; opacity: 1;"><g class="fills"/><g class="errorbars"/><g class="lines"><path class="js-line" d="M0,301.4L10.91,282.79L16.36,280.16L21.82,276.62L27.27,276.06L32.73,272.87L38.18,271.79L43.64,270.02L49.09,267.38L60,268.43L65.45,264.95L70.91,260.79L76.36,259.47L81.82,255.97L87.27,255.24L98.18,250.27L103.64,248.57L109.09,249.13L114.55,244.69L120,244.75L125.45,242.05L130.91,238.61L136.36,236.18L141.82,236.11L147.27,237.5L152.73,232.4L158.18,230.07L163.64,230.87L169.09,228.86L174.55,221.47L180,223.2L185.45,217.68L190.91,220.49L201.82,212.41L207.27,211.16L212.73,206.82L218.18,203.7L223.64,206.3L229.09,204.84L234.55,202.97L240,202L245.45,200.16L250.91,196.37L256.36,192.28L261.82,194.01L267.27,191.97L272.73,191.48L278.18,183.57L283.64,184.23L294.55,178.29L300,181.45L305.45,179.54L310.91,178.53L316.36,167.77L321.82,170.48L327.27,167.57L332.73,162.19L338.18,162.15L343.64,154.1L349.09,160.42L354.55,153.51L360,147.89L365.45,143.72L370.91,143.72L376.36,139.45L387.27,136.3L392.73,131.61L398.18,130.71L403.64,126.75L409.09,121.41L414.55,122.27L420,118.49L425.45,119.64L430.91,114.85L436.36,113.01L441.82,116.51L447.27,112.9L452.73,114.81L458.18,108.63L463.64,111.2L469.09,108.01L474.55,107.97L480,110.68L485.45,113.53L490.91,111.38L496.36,111.72L501.82,108.7L507.27,107.38L512.73,111.97L518.18,107.59L523.64,108.11L529.09,108.04L534.55,104.43L540,100.3" style="vector-effect: non-scaling-stroke; fill: none; stroke: rgb(163, 165, 0); stroke-opacity: 1; stroke-width: 2px; opacity: 1;"/></g><g class="points"/><g class="text"/></g><g class="trace scatter trace4273bf" style="stroke-miterlimit: 2; opacity: 1;"><g class="fills"/><g class="errorbars"/><g class="lines"><path class="js-line" d="M0,302.54L5.45,301.54L10.91,287.72L21.82,276.37L27.27,276.34L38.18,271.76L43.64,270.4L49.09,269.95L54.55,268.39L60,266.76L65.45,259.4L70.91,260.51L76.36,259.68L81.82,256.42L87.27,257.77L92.73,251.45L98.18,251L103.64,248.99L109.09,248.85L114.55,246.46L120,242.57L125.45,242.26L130.91,237.33L136.36,237.12L141.82,234.86L147.27,235.8L152.73,228.06L158.18,227.75L163.64,226.01L169.09,220.36L174.55,222.58L185.45,216.75L190.91,217.27L196.36,212.23L201.82,210.29L207.27,206.09L212.73,202.97L218.18,201.54L223.64,202.72L229.09,201.86L234.55,197.73L240,193.67L245.45,191.34L250.91,191.55L256.36,186.69L261.82,186.76L267.27,179.3L272.73,175.83L278.18,175.62L283.64,175.44L289.09,168.26L294.55,169.58L300,164.27L305.45,165.45L310.91,159.38L316.36,158.37L321.82,151.98L327.27,152.4L332.73,149.1L338.18,144.87L343.64,144.42L349.09,139.56L354.55,137.54L360,139.77L365.45,134.59L370.91,133.52L376.36,125.05L381.82,127.51L387.27,124.53L392.73,116.65L398.18,115.61L403.64,117.21L409.09,116.93L414.55,112.94L420,112.21L430.91,105.72L436.36,106.86L441.82,103.74L447.27,108.95L458.18,105.44L463.64,104.33L469.09,100.51L474.55,97.63L480,92.53L485.45,95.55L496.36,86.84L501.82,86.14L518.18,74.45L523.64,76.15L529.09,71.7L534.55,70.7L540,71.11" style="vector-effect: non-scaling-stroke; fill: none; stroke: rgb(0, 191, 125); stroke-opacity: 1; stroke-width: 2px; opacity: 1;"/></g><g class="points"/><g class="text"/></g><g class="trace scatter tracec5482c" style="stroke-miterlimit: 2; opacity: 1;"><g class="fills"/><g class="errorbars"/><g class="lines"><path class="js-line" d="M0,301.43L5.45,298.76L10.91,288.31L16.36,281.48L21.82,277.73L27.27,274.98L32.73,271.1L38.18,269.43L43.64,266.59L49.09,267.18L54.55,265.34L70.91,259.68L76.36,258.19L81.82,260.34L87.27,254.61L98.18,255.24L103.64,250.83L109.09,250.45L114.55,245.55L120,243.09L125.45,241.98L130.91,238.2L136.36,236.63L141.82,236.88L147.27,231.5L158.18,227.05L163.64,222.92L169.09,220.6L174.55,223.58L180,220.56L185.45,216.43L190.91,215.81L196.36,213.76L201.82,205.19L207.27,207.48L212.73,204.56L218.18,205.43L223.64,203.49L229.09,196.48L234.55,195.37L240,195.75L245.45,187.38L250.91,188.6L256.36,183.29L261.82,179.3L267.27,182.11L272.73,176.73L278.18,173.4L283.64,168.71L289.09,173.26L294.55,167.39L300,167.01L305.45,160.94L316.36,152.99L321.82,152.64L327.27,149.38L332.73,148.93L338.18,150.21L343.64,150.14L349.09,141.71L354.55,138.69L370.91,131.71L376.36,133.21L381.82,131.47L387.27,131.05L392.73,125.64L398.18,124.98L403.64,123.8L409.09,118.52L414.55,121.48L420,116.62L425.45,114.22L430.91,115.78L436.36,113.21L441.82,108.7L447.27,110.51L452.73,107.56L463.64,106.41L469.09,102.49L480,108.29L485.45,98.98L490.91,102.63L496.36,92.7L501.82,97.49L507.27,97.53L512.73,95.24L518.18,91.18L529.09,87.5L534.55,90.07L540,86.87" style="vector-effect: non-scaling-stroke; fill: none; stroke: rgb(0, 176, 246); stroke-opacity: 1; stroke-width: 2px; opacity: 1;"/></g><g class="points"/><g class="text"/></g><g class="trace scatter trace4b4e87" style="stroke-miterlimit: 2; opacity: 1;"><g class="fills"/><g class="errorbars"/><g class="lines"><path class="js-line" d="M0,302.54L5.45,301.57L10.91,292.65L16.36,284.15L21.82,278.94L27.27,274.88L32.73,276.96L38.18,271.93L43.64,268.49L49.09,269.57L54.55,264.43L60,266.97L65.45,263.08L70.91,259.33L76.36,258.67L81.82,255.06L87.27,256L92.73,253.78L98.18,249.72L103.64,245.41L109.09,249.93L114.55,244.72L120,243.26L125.45,236.77L130.91,236.32L136.36,236.67L141.82,232.16L147.27,232.92L152.73,225.39L158.18,222.51L163.64,222.61L169.09,223.9L174.55,219.84L180,220.84L185.45,216.64L190.91,214.59L196.36,215.29L201.82,207.9L207.27,206.72L212.73,203.66L218.18,204.36L223.64,202.24L229.09,198.84L234.55,194.43L240,187.63L245.45,192.52L250.91,188.11L256.36,185.09L261.82,183.15L267.27,180.23L272.73,182.18L278.18,173.15L283.64,169.3L289.09,174.23L294.55,169.3L300,166.56L305.45,166.84L310.91,161.8L316.36,161.01L321.82,161.18L327.27,159.58L332.73,149.97L338.18,152.12L343.64,147.4L349.09,143.83L360,142.89L365.45,144.69L370.91,134.94L376.36,135.74L381.82,137.37L387.27,128.52L392.73,129.25L398.18,131.47L403.64,127.06L409.09,117.07L414.55,122L420,116.58L430.91,114.05L436.36,108.84L441.82,113.35L447.27,104.19L452.73,111.24L458.18,109.33L463.64,101.83L469.09,96.59L474.55,99.44L480,95.97L485.45,92.7L490.91,90.97L496.36,86.77L501.82,88.95L507.27,85.14L512.73,84.51L518.18,81.35L523.64,80.24L529.09,82.08L534.55,75.8L540,77.67" style="vector-effect: non-scaling-stroke; fill: none; stroke: rgb(231, 107, 243); stroke-opacity: 1; stroke-width: 2px; opacity: 1;"/></g><g class="points"/><g class="text"/></g></g></g><g class="overplot"/><path class="xlines-above crisp" d="" style="fill: none; stroke-width: 1px; stroke: rgb(0, 0, 0); stroke-opacity: 0;"/><path class="ylines-above crisp" d="" style="fill: none; stroke-width: 1px; stroke: rgb(0, 0, 0); stroke-opacity: 0;"/><g class="overlines-above"/><g class="xaxislayer-above"><path class="xtick ticks crisp" d="M0,421v5" transform="translate(80,0)" style="stroke: rgb(51, 51, 51); stroke-opacity: 1; stroke-width: 1px;"/><path class="xtick ticks crisp" d="M0,421v5" transform="translate(189.09,0)" style="stroke: rgb(51, 51, 51); stroke-opacity: 1; stroke-width: 1px;"/><path class="xtick ticks crisp" d="M0,421v5" transform="translate(298.18,0)" style="stroke: rgb(51, 51, 51); stroke-opacity: 1; stroke-width: 1px;"/><path class="xtick ticks crisp" d="M0,421v5" transform="translate(407.27,0)" style="stroke: rgb(51, 51, 51); stroke-opacity: 1; stroke-width: 1px;"/><path class="xtick ticks crisp" d="M0,421v5" transform="translate(516.36,0)" style="stroke: rgb(51, 51, 51); stroke-opacity: 1; stroke-width: 1px;"/><g class="xtick"><text text-anchor="middle" x="0" y="440.4" transform="translate(80,0)" style="font-family: 'Open Sans', verdana, arial, sans-serif; font-size: 12px; fill: rgb(51, 51, 51); fill-opacity: 1; white-space: pre; opacity: 1;">0</text></g><g class="xtick"><text text-anchor="middle" x="0" y="440.4" style="font-family: 'Open Sans', verdana, arial, sans-serif; font-size: 12px; fill: rgb(51, 51, 51); fill-opacity: 1; white-space: pre; opacity: 1;" transform="translate(189.09,0)">20</text></g><g class="xtick"><text text-anchor="middle" x="0" y="440.4" style="font-family: 'Open Sans', verdana, arial, sans-serif; font-size: 12px; fill: rgb(51, 51, 51); fill-opacity: 1; white-space: pre; opacity: 1;" transform="translate(298.18,0)">40</text></g><g class="xtick"><text text-anchor="middle" x="0" y="440.4" style="font-family: 'Open Sans', verdana, arial, sans-serif; font-size: 12px; fill: rgb(51, 51, 51); fill-opacity: 1; white-space: pre; opacity: 1;" transform="translate(407.27,0)">60</text></g><g class="xtick"><text text-anchor="middle" x="0" y="440.4" style="font-family: 'Open Sans', verdana, arial, sans-serif; font-size: 12px; fill: rgb(51, 51, 51); fill-opacity: 1; white-space: pre; opacity: 1;" transform="translate(516.36,0)">80</text></g></g><g class="yaxislayer-above"><path class="ytick ticks crisp" d="M79,0h-5" transform="translate(0,363.95)" style="stroke: rgb(51, 51, 51); stroke-opacity: 1; stroke-width: 1px;"/><path class="ytick ticks crisp" d="M79,0h-5" transform="translate(0,301.48)" style="stroke: rgb(51, 51, 51); stroke-opacity: 1; stroke-width: 1px;"/><path class="ytick ticks crisp" d="M79,0h-5" transform="translate(0,239)" style="stroke: rgb(51, 51, 51); stroke-opacity: 1; stroke-width: 1px;"/><path class="ytick ticks crisp" d="M79,0h-5" transform="translate(0,176.53)" style="stroke: rgb(51, 51, 51); stroke-opacity: 1; stroke-width: 1px;"/><path class="ytick ticks crisp" d="M79,0h-5" transform="translate(0,114.06)" style="stroke: rgb(51, 51, 51); stroke-opacity: 1; stroke-width: 1px;"/><g class="ytick"><text text-anchor="end" x="71.6" y="4.199999999999999" transform="translate(0,363.95)" style="font-family: 'Open Sans', verdana, arial, sans-serif; font-size: 12px; fill: rgb(51, 51, 51); fill-opacity: 1; white-space: pre; opacity: 1;">0.01</text></g><g class="ytick"><text text-anchor="end" x="71.6" y="4.199999999999999" style="font-family: 'Open Sans', verdana, arial, sans-serif; font-size: 12px; fill: rgb(51, 51, 51); fill-opacity: 1; white-space: pre; opacity: 1;" transform="translate(0,301.48)">0.02</text></g><g class="ytick"><text text-anchor="end" x="71.6" y="4.199999999999999" style="font-family: 'Open Sans', verdana, arial, sans-serif; font-size: 12px; fill: rgb(51, 51, 51); fill-opacity: 1; white-space: pre; opacity: 1;" transform="translate(0,239)">0.03</text></g><g class="ytick"><text text-anchor="end" x="71.6" y="4.199999999999999" style="font-family: 'Open Sans', verdana, arial, sans-serif; font-size: 12px; fill: rgb(51, 51, 51); fill-opacity: 1; white-space: pre; opacity: 1;" transform="translate(0,176.53)">0.04</text></g><g class="ytick"><text text-anchor="end" x="71.6" y="4.199999999999999" style="font-family: 'Open Sans', verdana, arial, sans-serif; font-size: 12px; fill: rgb(51, 51, 51); fill-opacity: 1; white-space: pre; opacity: 1;" transform="translate(0,114.06)">0.05</text></g></g><g class="overaxes-above"/></g></g><g class="polarlayer"/><g class="ternarylayer"/><g class="geolayer"/><g class="funnelarealayer"/><g class="pielayer"/><g class="iciclelayer"/><g class="treemaplayer"/><g class="sunburstlayer"/><g class="glimages"/><defs id="topdefs-9d2db6"><g class="clips"/></defs><g class="layer-above"><g class="imagelayer"/><g class="shapelayer"/></g><g class="infolayer"><g class="g-gtitle"><text class="gtitle" x="350" y="50" text-anchor="middle" dy="0em" style="font-family: 'Open Sans', verdana, arial, sans-serif; font-size: 17px; fill: rgb(51, 51, 51); opacity: 1; font-weight: normal; white-space: pre;">Train Accuracy: ascad_v1_vk_0-aisy_mlp_id (early_stopping)</text></g><g class="g-xtitle"/><g class="g-ytitle"/></g></svg>