<svg class="main-svg" xmlns="http://www.w3.org/2000/svg" xmlns:xlink="http://www.w3.org/1999/xlink" width="700" height="500" style="" viewBox="0 0 700 500"><rect x="0" y="0" width="700" height="500" style="fill: rgb(255, 255, 255); fill-opacity: 1;"/><defs id="defs-0616dd"><g class="clips"><clipPath id="clip0616ddxyplot" class="plotclip"><rect width="540" height="320"/></clipPath><clipPath class="axesclip" id="clip0616ddx"><rect x="80" y="0" width="540" height="500"/></clipPath><clipPath class="axesclip" id="clip0616ddy"><rect x="0" y="100" width="700" height="320"/></clipPath><clipPath class="axesclip" id="clip0616ddxy"><rect x="80" y="100" width="540" height="320"/></clipPath></g><g class="gradients"/><g class="patterns"/></defs><g class="bglayer"><rect class="bg" x="80" y="100" width="540" height="320" style="fill: rgb(237, 237, 237); fill-opacity: 1; stroke-width: 0;"/></g><g class="layer-below"><g class="imagelayer"/><g class="shapelayer"/></g><g class="cartesianlayer"><g class="subplot xy"><g class="layer-subplot"><g class="shapelayer"/><g class="imagelayer"/></g><g class="gridlayer"><g class="x"><path class="xgrid crisp" transform="translate(190.2,0)" d="M0,100v320" style="stroke: rgb(255, 255, 255); stroke-opacity: 1; stroke-width: 1px;"/><path class="xgrid crisp" transform="translate(300.40999999999997,0)" d="M0,100v320" style="stroke: rgb(255, 255, 255); stroke-opacity: 1; stroke-width: 1px;"/><path class="xgrid crisp" transform="translate(410.61,0)" d="M0,100v320" style="stroke: rgb(255, 255, 255); stroke-opacity: 1; stroke-width: 1px;"/><path class="xgrid crisp" transform="translate(520.8199999999999,0)" d="M0,100v320" style="stroke: rgb(255, 255, 255); stroke-opacity: 1; stroke-width: 1px;"/></g><g class="y"><path class="ygrid crisp" transform="translate(0,367.6)" d="M80,0h540" style="stroke: rgb(255, 255, 255); stroke-opacity: 1; stroke-width: 1px;"/><path class="ygrid crisp" transform="translate(0,329.90999999999997)" d="M80,0h540" style="stroke: rgb(255, 255, 255); stroke-opacity: 1; stroke-width: 1px;"/><path class="ygrid crisp" transform="translate(0,292.23)" d="M80,0h540" style="stroke: rgb(255, 255, 255); stroke-opacity: 1; stroke-width: 1px;"/><path class="ygrid crisp" transform="translate(0,254.54)" d="M80,0h540" style="stroke: rgb(255, 255, 255); stroke-opacity: 1; stroke-width: 1px;"/><path class="ygrid crisp" transform="translate(0,216.86)" d="M80,0h540" style="stroke: rgb(255, 255, 255); stroke-opacity: 1; stroke-width: 1px;"/><path class="ygrid crisp" transform="translate(0,179.18)" d="M80,0h540" style="stroke: rgb(255, 255, 255); stroke-opacity: 1; stroke-width: 1px;"/><path class="ygrid crisp" transform="translate(0,141.49)" d="M80,0h540" style="stroke: rgb(255, 255, 255); stroke-opacity: 1; stroke-width: 1px;"/><path class="ygrid crisp" transform="translate(0,103.81)" d="M80,0h540" style="stroke: rgb(255, 255, 255); stroke-opacity: 1; stroke-width: 1px;"/></g></g><g class="zerolinelayer"><path class="xzl zl crisp" transform="translate(80,0)" d="M0,100v320" style="stroke: rgb(255, 255, 255); stroke-opacity: 1; stroke-width: 1px;"/><path class="yzl zl crisp" transform="translate(0,405.28)" d="M80,0h540" style="stroke: rgb(255, 255, 255); stroke-opacity: 1; stroke-width: 1px;"/></g><path class="xlines-below"/><path class="ylines-below"/><g class="overlines-below"/><g class="xaxislayer-below"/><g class="yaxislayer-below"/><g class="overaxes-below"/><g class="plot" transform="translate(80,100)" clip-path="url(#clip0616ddxyplot)"><g class="scatterlayer mlayer"><g class="trace scatter tracec903c2" style="stroke-miterlimit: 2; opacity: 1;"><g class="fills"/><g class="errorbars"/><g class="lines"><path class="js-line" d="M0,303.94L44.08,301.17L55.1,299.87L66.12,298.57L77.14,295.99L88.16,292.97L99.18,288.82L110.2,284.17L121.22,277.12L143.27,259.52L154.29,248.24L176.33,224.23L187.35,210.55L220.41,171.84L231.43,159.07L242.45,148.58L253.47,136.9L275.51,116.38L286.53,107.41L297.55,97.62L308.57,89.24L341.63,69.37L352.65,64.94L385.71,49.88L396.73,45.83L407.76,42.6L418.78,40.29L440.82,34.3L451.84,32.34L462.86,29.36L473.88,28.49L495.92,23.57L506.94,22.83L528.98,21.58L540,19.98" style="vector-effect: non-scaling-stroke; fill: none; stroke: rgb(248, 118, 109); stroke-opacity: 1; stroke-width: 2px; opacity: 1;"/></g><g class="points"/><g class="text"/></g><g class="trace scatter trace766957" style="stroke-miterlimit: 2; opacity: 1;"><g class="fills"/><g class="errorbars"/><g class="lines"><path class="js-line" d="M0,303.64L33.06,302.02L44.08,300.72L55.1,299.98L66.12,298.26L77.14,295.99L88.16,292.23L99.18,288.55L110.2,283.36L121.22,276.15L132.24,267.05L143.27,258.62L154.29,247.41L176.33,223.87L187.35,210.85L198.37,196.66L209.39,183.73L242.45,147.9L253.47,137.19L264.49,125.92L275.51,117.52L297.55,98.91L308.57,91.78L319.59,85.16L330.61,77.33L352.65,66.5L363.67,61.98L374.69,56.11L385.71,52.08L396.73,47.65L407.76,44.69L440.82,36.15L451.84,34.57L473.88,29.59L484.9,28.45L506.94,24.13L517.96,22.49L540,21.08" style="vector-effect: non-scaling-stroke; fill: none; stroke: rgb(163, 165, 0); stroke-opacity: 1; stroke-width: 2px; opacity: 1;"/></g><g class="points"/><g class="text"/></g><g class="trace scatter trace170847" style="stroke-miterlimit: 2; opacity: 1;"><g class="fills"/><g class="errorbars"/><g class="lines"><path class="js-line" d="M0,303.76L33.06,302.22L44.08,300.9L55.1,300.11L66.12,298.14L88.16,292.88L99.18,288.84L110.2,283.28L121.22,276.37L132.24,268.88L143.27,258.77L165.31,236.64L176.33,224.33L220.41,172.03L231.43,160.02L242.45,147.83L253.47,137.07L275.51,115.68L286.53,106.48L319.59,82.65L330.61,75.41L341.63,68.43L352.65,63.83L363.67,57.49L374.69,55.13L385.71,49.61L396.73,46.66L407.76,42.36L418.78,38.87L451.84,31.67L462.86,30.44L484.9,25.76L495.92,24.93L506.94,23.2L517.96,20.66L528.98,20.71L540,19.27" style="vector-effect: non-scaling-stroke; fill: none; stroke: rgb(0, 191, 125); stroke-opacity: 1; stroke-width: 2px; opacity: 1;"/></g><g class="points"/><g class="text"/></g><g class="trace scatter traceb5a69b" style="stroke-miterlimit: 2; opacity: 1;"><g class="fills"/><g class="errorbars"/><g class="lines"><path class="js-line" d="M0,303.88L44.08,300.96L55.1,299.78L66.12,298.2L77.14,295.75L88.16,292.75L99.18,288.32L110.2,283.61L121.22,276.06L132.24,268.21L143.27,258.69L165.31,235.12L176.33,222.95L198.37,198.47L209.39,184.93L220.41,171.84L231.43,160.35L242.45,148.03L253.47,137.68L275.51,115.8L286.53,107.97L297.55,98.44L308.57,92.31L330.61,77.4L341.63,72.01L374.69,56L385.71,52.3L407.76,44.67L418.78,39.61L429.8,38.64L440.82,35.25L462.86,30.02L473.88,29.4L484.9,27.34L495.92,26.23L528.98,21.06L540,21.01" style="vector-effect: non-scaling-stroke; fill: none; stroke: rgb(0, 176, 246); stroke-opacity: 1; stroke-width: 2px; opacity: 1;"/></g><g class="points"/><g class="text"/></g><g class="trace scatter trace5b2da0" style="stroke-miterlimit: 2; opacity: 1;"><g class="fills"/><g class="errorbars"/><g class="lines"><path class="js-line" d="M0,303.72L33.06,302.12L44.08,301.09L66.12,297.92L77.14,295.71L88.16,293.16L99.18,289.63L121.22,277.32L132.24,267.71L143.27,258.88L154.29,247.98L176.33,224.44L187.35,210.63L209.39,185.82L220.41,173.3L231.43,161.84L242.45,149.14L264.49,126.26L275.51,117.93L286.53,107.48L297.55,99.32L308.57,90.56L319.59,84.98L330.61,76.02L341.63,70.74L352.65,64.49L363.67,59.96L396.73,47.25L407.76,45.33L418.78,40.63L429.8,37.9L440.82,35.24L451.84,33.36L462.86,30.81L473.88,29.83L484.9,26.29L495.92,26.52L506.94,24.03L517.96,22.48L528.98,21.67L540,18.61" style="vector-effect: non-scaling-stroke; fill: none; stroke: rgb(231, 107, 243); stroke-opacity: 1; stroke-width: 2px; opacity: 1;"/></g><g class="points"/><g class="text"/></g><g class="trace scatter trace75571c" style="stroke-miterlimit: 2; opacity: 1;"><g class="fills"/><g class="errorbars"/><g class="lines"><path class="js-line" d="M0,303.62L44.08,301.45L55.1,300.04L77.14,296.5L88.16,293.77L110.2,283.44L121.22,276.68L143.27,258.65L154.29,247.5L165.31,235.52L176.33,222.33L198.37,197.01L209.39,184.19L231.43,156.81L242.45,145.64L253.47,133.39L264.49,123.56L275.51,113.05L286.53,104.2L308.57,87.52L319.59,80.73L363.67,55.81L374.69,51.93L440.82,31.9L451.84,30.19L462.86,27.21L473.88,26.48L528.98,19.05L540,18.14" style="vector-effect: non-scaling-stroke; fill: none; stroke: rgb(248, 118, 109); stroke-opacity: 1; stroke-width: 2px; opacity: 1;"/></g><g class="points"/><g class="text"/></g><g class="trace scatter trace5ca370" style="stroke-miterlimit: 2; opacity: 1;"><g class="fills"/><g class="errorbars"/><g class="lines"><path class="js-line" d="M0,303.77L33.06,301.98L44.08,300.63L55.1,300L66.12,297.95L88.16,292.56L99.18,287.57L110.2,281.83L121.22,274.41L143.27,254.62L154.29,242.84L165.31,230.8L176.33,217.52L198.37,190.95L209.39,176.2L242.45,139.37L253.47,129.12L264.49,117.39L275.51,107.59L286.53,99.52L297.55,90.18L319.59,77L330.61,67.89L363.67,52.79L374.69,48.42L385.71,45.34L396.73,40.25L418.78,34.99L429.8,31.68L451.84,28.45L462.86,26.07L484.9,22.74L495.92,21.73L528.98,16.9L540,16" style="vector-effect: non-scaling-stroke; fill: none; stroke: rgb(163, 165, 0); stroke-opacity: 1; stroke-width: 2px; opacity: 1;"/></g><g class="points"/><g class="text"/></g><g class="trace scatter trace23bcc9" style="stroke-miterlimit: 2; opacity: 1;"><g class="fills"/><g class="errorbars"/><g class="lines"><path class="js-line" d="M0,304L55.1,299.71L66.12,298.35L77.14,295.95L88.16,292.64L99.18,288.29L110.2,282.96L132.24,267.3L143.27,258.23L165.31,237.03L176.33,223.6L187.35,212.52L198.37,197.7L220.41,172.19L231.43,160.88L253.47,137.7L264.49,128.47L275.51,117.94L286.53,110.03L297.55,99.9L308.57,92.34L319.59,84.59L330.61,79.63L352.65,67.19L363.67,61.54L407.76,46.78L418.78,43.79L440.82,37.47L451.84,35.73L462.86,34.47L473.88,31.53L484.9,30.14L495.92,27.64L506.94,26.95L517.96,25.09L540,22.1" style="vector-effect: non-scaling-stroke; fill: none; stroke: rgb(0, 191, 125); stroke-opacity: 1; stroke-width: 2px; opacity: 1;"/></g><g class="points"/><g class="text"/></g><g class="trace scatter trace0b86fc" style="stroke-miterlimit: 2; opacity: 1;"><g class="fills"/><g class="errorbars"/><g class="lines"><path class="js-line" d="M0,303.79L55.1,300.22L66.12,297.87L77.14,296L88.16,292.86L110.2,283.47L121.22,275.87L132.24,269.05L143.27,258.44L154.29,248.35L165.31,236.79L176.33,223.94L187.35,209.74L253.47,137.08L264.49,128.06L275.51,119.03L286.53,108.13L308.57,92.16L319.59,84.74L341.63,70.91L352.65,66.29L363.67,60.42L374.69,57.46L407.76,44.61L418.78,41.68L451.84,34.04L462.86,30.97L484.9,28.78L495.92,26.16L517.96,22.83L528.98,22.05L540,19.89" style="vector-effect: non-scaling-stroke; fill: none; stroke: rgb(0, 176, 246); stroke-opacity: 1; stroke-width: 2px; opacity: 1;"/></g><g class="points"/><g class="text"/></g><g class="trace scatter trace46d59e" style="stroke-miterlimit: 2; opacity: 1;"><g class="fills"/><g class="errorbars"/><g class="lines"><path class="js-line" d="M0,303.67L44.08,301.07L55.1,299.87L77.14,295.69L88.16,292.71L99.18,288.96L110.2,282.9L132.24,268.36L143.27,257.4L154.29,247.53L165.31,234.79L187.35,208.99L198.37,195.4L209.39,183.01L220.41,168.74L242.45,145.42L253.47,133.89L275.51,111.79L286.53,104.25L297.55,95.38L308.57,87.74L319.59,80.6L330.61,74.73L352.65,62.39L363.67,57.63L374.69,53.5L385.71,47.96L396.73,45.61L407.76,41.57L429.8,35.35L440.82,33.85L473.88,27.18L484.9,25.96L495.92,22.81L506.94,22.43L528.98,19.64L540,19.47" style="vector-effect: non-scaling-stroke; fill: none; stroke: rgb(231, 107, 243); stroke-opacity: 1; stroke-width: 2px; opacity: 1;"/></g><g class="points"/><g class="text"/></g><g class="trace scatter tracebf2582" style="stroke-miterlimit: 2; opacity: 1;"><g class="fills"/><g class="errorbars"/><g class="lines"><path class="js-line" d="M0,303.74L33.06,302.21L44.08,301.03L55.1,300.22L66.12,298.18L77.14,296.15L88.16,293.14L110.2,284.51L121.22,276.81L132.24,268.52L143.27,258.75L165.31,236.56L176.33,224.53L209.39,185.45L220.41,172.24L231.43,161.41L242.45,147.69L253.47,138.11L264.49,125.85L275.51,116.71L286.53,105.84L308.57,89.27L319.59,82.67L330.61,76.71L341.63,69.54L363.67,58.93L374.69,54.97L385.71,51.51L396.73,46.59L429.8,37.61L440.82,35.91L451.84,32.66L462.86,31.16L473.88,27.1L484.9,27.82L495.92,25.28L506.94,24.52L517.96,23.27L528.98,21.17L540,19.58" style="vector-effect: non-scaling-stroke; fill: none; stroke: rgb(248, 118, 109); stroke-opacity: 1; stroke-width: 2px; opacity: 1;"/></g><g class="points"/><g class="text"/></g><g class="trace scatter tracebea1c6" style="stroke-miterlimit: 2; opacity: 1;"><g class="fills"/><g class="errorbars"/><g class="lines"><path class="js-line" d="M0,303.84L33.06,302.07L44.08,301.12L66.12,298.39L77.14,295.89L99.18,289.11L110.2,283.68L121.22,276.82L132.24,268.59L154.29,248.06L165.31,235.77L176.33,223.67L187.35,210.32L209.39,184.78L220.41,171.67L242.45,147.19L253.47,136.81L275.51,116.49L286.53,108.53L297.55,98.14L308.57,90.28L319.59,82.69L330.61,76.4L341.63,70.61L352.65,65.92L363.67,60.03L374.69,55.92L385.71,51.7L396.73,48.87L407.76,46.1L418.78,41.44L451.84,33.18L462.86,31.16L473.88,28.63L484.9,27.42L506.94,23.76L517.96,23.1L528.98,22.08L540,20.25" style="vector-effect: non-scaling-stroke; fill: none; stroke: rgb(163, 165, 0); stroke-opacity: 1; stroke-width: 2px; opacity: 1;"/></g><g class="points"/><g class="text"/></g><g class="trace scatter trace3dbc16" style="stroke-miterlimit: 2; opacity: 1;"><g class="fills"/><g class="errorbars"/><g class="lines"><path class="js-line" d="M0,303.88L55.1,299.61L66.12,298.37L88.16,293.24L99.18,288.83L110.2,283.58L121.22,276.73L132.24,268.4L143.27,258.4L154.29,247.87L165.31,235.73L220.41,169.79L231.43,158.87L264.49,123.75L275.51,113.79L297.55,96.44L308.57,88.6L330.61,74.02L341.63,68.68L352.65,61.95L363.67,57.07L396.73,44.99L407.76,41.94L418.78,38.51L429.8,36.09L440.82,33L451.84,31.29L462.86,28.51L473.88,26.6L484.9,25.83L495.92,23.29L517.96,20.5L528.98,18.49L540,18.4" style="vector-effect: non-scaling-stroke; fill: none; stroke: rgb(0, 191, 125); stroke-opacity: 1; stroke-width: 2px; opacity: 1;"/></g><g class="points"/><g class="text"/></g><g class="trace scatter trace7ac917" style="stroke-miterlimit: 2; opacity: 1;"><g class="fills"/><g class="errorbars"/><g class="lines"><path class="js-line" d="M0,303.61L44.08,301.13L55.1,299.59L66.12,298.28L77.14,295.68L88.16,292.61L99.18,288.22L110.2,283.16L121.22,276.15L132.24,267.71L143.27,257.61L154.29,247.61L165.31,235.62L198.37,196.93L209.39,185.24L231.43,158.22L242.45,146.01L275.51,114.75L286.53,105.5L297.55,96.07L308.57,89.33L319.59,80.77L330.61,74.42L352.65,62.37L363.67,58.14L385.71,47.91L396.73,45.42L407.76,41.16L418.78,38.24L473.88,25.45L484.9,24.78L528.98,18.45L540,18.34" style="vector-effect: non-scaling-stroke; fill: none; stroke: rgb(0, 176, 246); stroke-opacity: 1; stroke-width: 2px; opacity: 1;"/></g><g class="points"/><g class="text"/></g><g class="trace scatter trace1c339e" style="stroke-miterlimit: 2; opacity: 1;"><g class="fills"/><g class="errorbars"/><g class="lines"><path class="js-line" d="M0,303.93L33.06,301.91L44.08,301.02L66.12,298.17L77.14,295.89L99.18,288.74L110.2,283.47L121.22,276.72L132.24,268.02L154.29,246.69L165.31,234.58L176.33,222.64L187.35,209.09L198.37,195.18L209.39,183.16L220.41,170.24L231.43,158.49L242.45,145.62L253.47,135.19L275.51,114L286.53,106.48L297.55,96.04L308.57,89.18L319.59,80.72L330.61,75.52L341.63,69.47L352.65,61.79L363.67,58.59L374.69,53.79L396.73,46.31L407.76,41.61L418.78,39.45L429.8,35.55L440.82,32.51L451.84,31.77L462.86,28.92L473.88,27.79L484.9,25.66L495.92,25.22L506.94,22.78L517.96,21.94L540,19.11" style="vector-effect: non-scaling-stroke; fill: none; stroke: rgb(231, 107, 243); stroke-opacity: 1; stroke-width: 2px; opacity: 1;"/></g><g class="points"/><g class="text"/></g><g class="trace scatter trace4b006a" style="stroke-miterlimit: 2; opacity: 1;"><g class="fills"/><g class="errorbars"/><g class="lines"><path class="js-line" d="M0,303.89L55.1,300.11L66.12,298.34L88.16,292.69L99.18,289.1L110.2,283.98L121.22,276.93L132.24,269.41L143.27,258.75L165.31,237.94L176.33,225.54L187.35,212.5L198.37,197.56L209.39,184.81L220.41,173.51L231.43,160.27L242.45,148.37L253.47,136.5L264.49,125.95L286.53,106.94L297.55,97.64L308.57,90.05L319.59,83.52L330.61,76.04L341.63,71L352.65,64.46L363.67,61.05L385.71,50.6L396.73,47.24L407.76,43.84L418.78,39.41L440.82,35.36L451.84,31.69L473.88,28.43L484.9,26.28L495.92,25.41L506.94,22.23L517.96,22.05L528.98,21.05L540,19.17" style="vector-effect: non-scaling-stroke; fill: none; stroke: rgb(248, 118, 109); stroke-opacity: 1; stroke-width: 2px; opacity: 1;"/></g><g class="points"/><g class="text"/></g><g class="trace scatter trace6302a5" style="stroke-miterlimit: 2; opacity: 1;"><g class="fills"/><g class="errorbars"/><g class="lines"><path class="js-line" d="M0,303.78L33.06,301.8L44.08,301.24L66.12,298.3L77.14,295.73L88.16,292.81L99.18,288.51L121.22,276.47L132.24,268.1L143.27,258.48L154.29,247.19L198.37,198.35L209.39,184.79L242.45,148.69L253.47,138.58L264.49,127.21L275.51,118.33L308.57,93.07L319.59,85.88L352.65,68.26L363.67,62.9L374.69,57.92L385.71,54.73L396.73,50.13L407.76,47.31L418.78,43.01L429.8,40.61L440.82,38.01L451.84,34.11L462.86,33.86L473.88,30.62L495.92,28.55L506.94,26.15L517.96,24L528.98,23.25L540,22.83" style="vector-effect: non-scaling-stroke; fill: none; stroke: rgb(163, 165, 0); stroke-opacity: 1; stroke-width: 2px; opacity: 1;"/></g><g class="points"/><g class="text"/></g><g class="trace scatter trace27c6ad" style="stroke-miterlimit: 2; opacity: 1;"><g class="fills"/><g class="errorbars"/><g class="lines"><path class="js-line" d="M0,303.36L11.02,303.36L22.04,302.6L44.08,301.34L55.1,299.82L66.12,298.52L77.14,296.07L99.18,288.93L110.2,283.36L132.24,268.82L143.27,258.87L154.29,248.81L165.31,237.16L176.33,225L187.35,211.66L209.39,185.14L220.41,172.62L231.43,160.26L242.45,149.86L253.47,137.7L264.49,127.4L275.51,118.19L286.53,107.84L297.55,99.58L308.57,92.87L341.63,71.55L352.65,65.47L385.71,51.33L396.73,49.41L407.76,44.48L418.78,41.12L440.82,36.68L451.84,33.92L462.86,30.89L473.88,28.78L484.9,27.31L495.92,26.64L506.94,24.87L517.96,23.99L528.98,21.35L540,20.82" style="vector-effect: non-scaling-stroke; fill: none; stroke: rgb(0, 191, 125); stroke-opacity: 1; stroke-width: 2px; opacity: 1;"/></g><g class="points"/><g class="text"/></g><g class="trace scatter trace527d44" style="stroke-miterlimit: 2; opacity: 1;"><g class="fills"/><g class="errorbars"/><g class="lines"><path class="js-line" d="M0,303.72L22.04,302.43L33.06,301.75L66.12,298.28L77.14,295.46L88.16,292.45L99.18,288.5L121.22,276.42L132.24,267.43L143.27,258.39L154.29,247L176.33,222.84L187.35,210.47L220.41,170.66L231.43,159.16L253.47,137.14L264.49,126.72L275.51,115.97L286.53,109.34L297.55,100.34L308.57,92.47L319.59,84.85L330.61,78.62L341.63,71.67L352.65,67.67L396.73,50.09L407.76,46.65L451.84,35.07L462.86,33.48L473.88,32.07L484.9,29.44L506.94,26.69L517.96,24.62L528.98,24.95L540,23.08" style="vector-effect: non-scaling-stroke; fill: none; stroke: rgb(0, 176, 246); stroke-opacity: 1; stroke-width: 2px; opacity: 1;"/></g><g class="points"/><g class="text"/></g><g class="trace scatter trace485cd5" style="stroke-miterlimit: 2; opacity: 1;"><g class="fills"/><g class="errorbars"/><g class="lines"><path class="js-line" d="M0,303.8L22.04,302.77L33.06,301.89L55.1,299.78L66.12,297.75L77.14,296.04L88.16,292.64L110.2,283.32L121.22,276.56L132.24,268.03L143.27,258.29L165.31,235.61L176.33,222.33L198.37,196.14L209.39,182.44L220.41,170.75L231.43,156.57L264.49,122.54L275.51,112.41L286.53,102.97L297.55,95.07L319.59,79.17L330.61,74.56L352.65,60.52L363.67,56.59L385.71,47.15L396.73,44.46L418.78,37.39L429.8,34.27L451.84,31.32L462.86,28.41L484.9,23.34L495.92,22.48L506.94,21.72L517.96,20.15L540,18.7" style="vector-effect: non-scaling-stroke; fill: none; stroke: rgb(231, 107, 243); stroke-opacity: 1; stroke-width: 2px; opacity: 1;"/></g><g class="points"/><g class="text"/></g><g class="trace scatter trace76ee38" style="stroke-miterlimit: 2; opacity: 1;"><g class="fills"/><g class="errorbars"/><g class="lines"><path class="js-line" d="M0,303.58L11.02,303.46L22.04,302.57L55.1,300.07L66.12,298.28L88.16,292.85L99.18,288.79L110.2,283.01L121.22,276.01L132.24,268.46L143.27,259.1L154.29,247.72L165.31,234.91L187.35,210.5L198.37,196.66L209.39,182.6L220.41,170.79L242.45,146.84L253.47,134.27L275.51,114.52L286.53,105.05L330.61,75.68L341.63,69.96L352.65,64.32L363.67,59.88L374.69,53.43L385.71,49.71L407.76,41.44L418.78,39.18L429.8,35.85L440.82,34.49L473.88,27.67L484.9,26.58L495.92,23.89L506.94,23.22L528.98,19.65L540,19.01" style="vector-effect: non-scaling-stroke; fill: none; stroke: rgb(248, 118, 109); stroke-opacity: 1; stroke-width: 2px; opacity: 1;"/></g><g class="points"/><g class="text"/></g><g class="trace scatter tracee91347" style="stroke-miterlimit: 2; opacity: 1;"><g class="fills"/><g class="errorbars"/><g class="lines"><path class="js-line" d="M0,303.64L44.08,300.95L55.1,299.77L66.12,298.09L77.14,295.5L99.18,288.8L110.2,282.38L132.24,267.82L143.27,257.75L154.29,247.83L165.31,234.96L187.35,208.46L198.37,196.16L231.43,159.02L242.45,147.81L253.47,135.72L264.49,125.09L275.51,114.91L286.53,105.95L308.57,89.12L319.59,82.73L330.61,75.91L341.63,70.18L363.67,60.09L374.69,54.81L385.71,51.86L396.73,47.72L407.76,43.47L418.78,40.03L429.8,36.29L440.82,35.37L462.86,31.83L473.88,27.86L484.9,27.26L495.92,25.15L517.96,22.67L528.98,22.3L540,19.32" style="vector-effect: non-scaling-stroke; fill: none; stroke: rgb(163, 165, 0); stroke-opacity: 1; stroke-width: 2px; opacity: 1;"/></g><g class="points"/><g class="text"/></g><g class="trace scatter trace3b4dd6" style="stroke-miterlimit: 2; opacity: 1;"><g class="fills"/><g class="errorbars"/><g class="lines"><path class="js-line" d="M0,303.82L44.08,301.25L55.1,299.78L77.14,295.99L88.16,292.59L99.18,288.15L110.2,282.85L121.22,276.85L132.24,267.88L165.31,236.44L176.33,222.71L187.35,210.99L198.37,198.17L231.43,160.48L242.45,148.41L253.47,137.8L264.49,125.6L275.51,115.24L286.53,107.06L330.61,76.8L341.63,70.98L352.65,64.19L363.67,60.66L385.71,50.73L396.73,47.91L418.78,42.1L429.8,37.72L440.82,36.22L451.84,33.51L462.86,30.5L473.88,29.73L484.9,27.92L495.92,25.11L528.98,21.13L540,18.62" style="vector-effect: non-scaling-stroke; fill: none; stroke: rgb(0, 191, 125); stroke-opacity: 1; stroke-width: 2px; opacity: 1;"/></g><g class="points"/><g class="text"/></g><g class="trace scatter trace7bf708" style="stroke-miterlimit: 2; opacity: 1;"><g class="fills"/><g class="errorbars"/><g class="lines"><path class="js-line" d="M0,303.6L33.06,301.74L44.08,300.95L66.12,298.12L77.14,295.67L99.18,288.64L110.2,282.3L121.22,276.32L132.24,267.59L143.27,257.56L154.29,246.15L176.33,221.95L187.35,208.37L220.41,168.58L231.43,157.61L253.47,133.49L264.49,124.51L275.51,113.45L286.53,104.72L297.55,96.28L308.57,88.86L319.59,81.24L330.61,74.83L341.63,69.11L352.65,64.65L363.67,58.31L374.69,53.57L418.78,39.48L429.8,36.94L440.82,34.04L451.84,32.13L473.88,26.82L484.9,25.9L495.92,23.7L506.94,22.35L528.98,20.7L540,19.72" style="vector-effect: non-scaling-stroke; fill: none; stroke: rgb(0, 176, 246); stroke-opacity: 1; stroke-width: 2px; opacity: 1;"/></g><g class="points"/><g class="text"/></g><g class="trace scatter trace6ce0d3" style="stroke-miterlimit: 2; opacity: 1;"><g class="fills"/><g class="errorbars"/><g class="lines"><path class="js-line" d="M0,303.61L33.06,302.22L44.08,300.61L66.12,298L77.14,294.63L88.16,291.96L99.18,286.82L110.2,282.04L121.22,274.79L132.24,266.03L143.27,255.39L154.29,245.22L165.31,233.56L187.35,208.32L198.37,195.76L220.41,170.41L231.43,157.48L264.49,124.3L275.51,115.32L297.55,98.73L308.57,91.04L330.61,77.38L341.63,71.91L374.69,56.01L385.71,52.28L396.73,47.54L407.76,45.08L429.8,38.69L440.82,37.44L451.84,35.21L462.86,31.77L473.88,30.43L484.9,28.07L517.96,23.91L528.98,21.59L540,21.43" style="vector-effect: non-scaling-stroke; fill: none; stroke: rgb(231, 107, 243); stroke-opacity: 1; stroke-width: 2px; opacity: 1;"/></g><g class="points"/><g class="text"/></g><g class="trace scatter trace296792" style="stroke-miterlimit: 2; opacity: 1;"><g class="fills"/><g class="errorbars"/><g class="lines"><path class="js-line" d="M0,303.92L44.08,301.06L55.1,299.8L77.14,295.54L88.16,291.99L99.18,288.01L110.2,282.25L121.22,275.44L132.24,267.7L165.31,234.12L176.33,220.89L220.41,169.71L231.43,158.68L242.45,147.71L253.47,133.95L264.49,125.27L275.51,115.38L286.53,106.02L297.55,97.72L308.57,90.93L319.59,82.47L330.61,75.17L341.63,70.83L363.67,60.09L374.69,56.02L385.71,50.26L396.73,46.58L407.76,44.39L418.78,40.74L429.8,39.3L440.82,35.32L451.84,32.31L462.86,31.27L473.88,30.02L484.9,26.09L495.92,26.28L506.94,23.9L517.96,23.21L528.98,21.11L540,20.78" style="vector-effect: non-scaling-stroke; fill: none; stroke: rgb(248, 118, 109); stroke-opacity: 1; stroke-width: 2px; opacity: 1;"/></g><g class="points"/><g class="text"/></g><g class="trace scatter trace8412ee" style="stroke-miterlimit: 2; opacity: 1;"><g class="fills"/><g class="errorbars"/><g class="lines"><path class="js-line" d="M0,303.99L33.06,302.07L44.08,301.29L77.14,296.07L88.16,292.86L99.18,288.5L110.2,283.17L121.22,276.67L132.24,269.05L143.27,259.34L154.29,248.1L165.31,236.82L176.33,223.79L187.35,211.17L198.37,197.39L209.39,185.4L220.41,171.61L253.47,136.63L264.49,125.71L297.55,97.85L308.57,90.53L319.59,83.18L330.61,77.22L352.65,64.96L363.67,59.7L374.69,54.23L385.71,51.35L418.78,40.22L429.8,38.28L451.84,33.24L462.86,31.53L484.9,29.02L495.92,26.25L528.98,20.6L540,19.52" style="vector-effect: non-scaling-stroke; fill: none; stroke: rgb(163, 165, 0); stroke-opacity: 1; stroke-width: 2px; opacity: 1;"/></g><g class="points"/><g class="text"/></g><g class="trace scatter trace75356d" style="stroke-miterlimit: 2; opacity: 1;"><g class="fills"/><g class="errorbars"/><g class="lines"><path class="js-line" d="M0,303.9L44.08,301.08L55.1,299.91L66.12,298.6L77.14,295.96L99.18,289.06L110.2,283.58L121.22,276.8L132.24,267.97L143.27,258.72L154.29,248.19L165.31,235.21L176.33,224.04L187.35,208.99L198.37,196.13L220.41,169.95L231.43,158.52L242.45,146.06L253.47,134.91L275.51,113.6L286.53,103.54L319.59,80.21L330.61,73.64L341.63,68.61L352.65,62.66L363.67,57.71L374.69,54.66L385.71,48.4L396.73,44.87L407.76,41.68L418.78,39.31L451.84,31.66L462.86,28.92L473.88,28.6L484.9,26.59L495.92,23.49L506.94,22.25L528.98,19.57L540,19.13" style="vector-effect: non-scaling-stroke; fill: none; stroke: rgb(0, 191, 125); stroke-opacity: 1; stroke-width: 2px; opacity: 1;"/></g><g class="points"/><g class="text"/></g><g class="trace scatter tracedb8cc1" style="stroke-miterlimit: 2; opacity: 1;"><g class="fills"/><g class="errorbars"/><g class="lines"><path class="js-line" d="M0,303.8L33.06,301.8L44.08,300.63L55.1,299.95L66.12,297.77L77.14,295.76L88.16,292.57L99.18,288.72L110.2,282.55L121.22,275.54L132.24,267.11L143.27,257.39L154.29,246.55L198.37,194.17L209.39,180.73L231.43,155.69L242.45,144.62L253.47,131.38L264.49,120.61L275.51,112.52L286.53,102.4L297.55,93.91L308.57,86.42L319.59,79L330.61,73.78L352.65,62.22L363.67,57.44L374.69,52.86L385.71,47.29L407.76,40.72L418.78,38.15L440.82,33.62L451.84,30.38L462.86,28.7L473.88,25.95L495.92,22.93L506.94,22.68L528.98,18.86L540,18.23" style="vector-effect: non-scaling-stroke; fill: none; stroke: rgb(0, 176, 246); stroke-opacity: 1; stroke-width: 2px; opacity: 1;"/></g><g class="points"/><g class="text"/></g><g class="trace scatter traceb45ed3" style="stroke-miterlimit: 2; opacity: 1;"><g class="fills"/><g class="errorbars"/><g class="lines"><path class="js-line" d="M0,303.87L44.08,301.49L55.1,299.78L77.14,295.81L88.16,292.6L99.18,288.62L110.2,283.11L121.22,275.29L132.24,266.17L143.27,256.67L154.29,245.96L176.33,220.2L187.35,206.19L209.39,178.4L220.41,166.06L231.43,154.28L242.45,140.86L253.47,130.99L264.49,118.77L275.51,108.43L286.53,99.27L297.55,91.12L308.57,84.21L330.61,69.9L341.63,64.02L352.65,57.8L363.67,52.89L385.71,45.32L396.73,42.09L429.8,33.28L440.82,32.5L451.84,28.88L462.86,27.75L484.9,24.2L495.92,23.06L506.94,21.13L517.96,19.99L528.98,18.09L540,18.55" style="vector-effect: non-scaling-stroke; fill: none; stroke: rgb(231, 107, 243); stroke-opacity: 1; stroke-width: 2px; opacity: 1;"/></g><g class="points"/><g class="text"/></g><g class="trace scatter tracea3b430" style="stroke-miterlimit: 2; opacity: 1;"><g class="fills"/><g class="errorbars"/><g class="lines"><path class="js-line" d="M0,303.72L33.06,302.02L44.08,301.02L77.14,296.32L88.16,293.28L99.18,288.88L110.2,283.55L121.22,276.86L132.24,268.75L143.27,259.22L154.29,247.83L176.33,223.93L187.35,209.8L220.41,169.58L231.43,156.94L242.45,146.3L253.47,134.39L275.51,112.78L286.53,103.75L297.55,95.35L308.57,85.89L352.65,60.79L363.67,56.02L374.69,52.18L385.71,47.32L396.73,44.54L407.76,40.74L418.78,37.39L429.8,35.24L451.84,30.24L462.86,28.89L495.92,23.26L506.94,22.78L517.96,20.69L528.98,19.43L540,18.64" style="vector-effect: non-scaling-stroke; fill: none; stroke: rgb(248, 118, 109); stroke-opacity: 1; stroke-width: 2px; opacity: 1;"/></g><g class="points"/><g class="text"/></g><g class="trace scatter trace79b28d" style="stroke-miterlimit: 2; opacity: 1;"><g class="fills"/><g class="errorbars"/><g class="lines"><path class="js-line" d="M0,303.88L55.1,300.21L66.12,297.94L77.14,296.27L88.16,293.14L99.18,289.01L110.2,283.38L121.22,276.45L132.24,268.54L143.27,259.33L154.29,247.93L165.31,237.09L176.33,223.86L209.39,185.49L220.41,172.24L231.43,159.57L242.45,148.05L253.47,135.8L264.49,125.12L286.53,105.37L297.55,99.43L308.57,89.91L319.59,83.5L330.61,75.92L341.63,69.59L363.67,58.73L374.69,53.91L385.71,51.05L396.73,43.94L407.76,43.13L418.78,39.29L462.86,30.05L473.88,28.57L495.92,24.26L506.94,22.21L517.96,21.49L528.98,21.69L540,20.14" style="vector-effect: non-scaling-stroke; fill: none; stroke: rgb(163, 165, 0); stroke-opacity: 1; stroke-width: 2px; opacity: 1;"/></g><g class="points"/><g class="text"/></g><g class="trace scatter trace179c07" style="stroke-miterlimit: 2; opacity: 1;"><g class="fills"/><g class="errorbars"/><g class="lines"><path class="js-line" d="M0,303.72L44.08,301.12L55.1,299.77L66.12,298.5L77.14,295.81L88.16,293.04L99.18,287.98L110.2,282.96L121.22,275.59L132.24,267.4L143.27,256.67L154.29,246.51L165.31,233.65L176.33,222.42L187.35,208.33L209.39,181.89L220.41,170.13L242.45,146.1L253.47,134.74L264.49,123.26L275.51,113.73L286.53,104.83L297.55,94.76L319.59,80.78L330.61,72.86L352.65,61.97L363.67,56.93L396.73,44.13L407.76,40.91L429.8,37.2L440.82,32.4L451.84,31.59L462.86,27.94L484.9,24.45L495.92,23.86L528.98,19.49L540,18.39" style="vector-effect: non-scaling-stroke; fill: none; stroke: rgb(0, 191, 125); stroke-opacity: 1; stroke-width: 2px; opacity: 1;"/></g><g class="points"/><g class="text"/></g><g class="trace scatter trace54a5c2" style="stroke-miterlimit: 2; opacity: 1;"><g class="fills"/><g class="errorbars"/><g class="lines"><path class="js-line" d="M0,303.83L22.04,302.54L33.06,301.88L66.12,298.1L77.14,295.88L88.16,293L99.18,288.81L121.22,275.49L132.24,267.21L154.29,247.36L165.31,234.37L198.37,194.92L209.39,183.81L231.43,157.3L242.45,145.23L275.51,113.5L286.53,105.52L308.57,88.51L319.59,80.93L330.61,75.26L341.63,68L352.65,62.34L363.67,57.88L374.69,55.31L385.71,49.46L407.76,41.49L418.78,39.24L440.82,34.75L451.84,30.84L473.88,26.74L484.9,25.91L540,18.72" style="vector-effect: non-scaling-stroke; fill: none; stroke: rgb(0, 176, 246); stroke-opacity: 1; stroke-width: 2px; opacity: 1;"/></g><g class="points"/><g class="text"/></g><g class="trace scatter trace281f49" style="stroke-miterlimit: 2; opacity: 1;"><g class="fills"/><g class="errorbars"/><g class="lines"><path class="js-line" d="M0,303.79L44.08,300.9L55.1,299.89L77.14,295.41L88.16,292.14L99.18,288.48L110.2,282.58L132.24,266.73L143.27,256.67L176.33,220.68L187.35,208.14L209.39,181.05L220.41,169.17L253.47,134.4L264.49,123L308.57,87.55L319.59,82.42L341.63,68.99L352.65,63.52L363.67,58.38L374.69,54.6L385.71,49.74L396.73,46.2L407.76,42.56L418.78,40.64L429.8,35.86L440.82,34.97L451.84,32.16L462.86,30.88L484.9,26.57L495.92,25.24L506.94,24.32L517.96,22.38L540,19.99" style="vector-effect: non-scaling-stroke; fill: none; stroke: rgb(231, 107, 243); stroke-opacity: 1; stroke-width: 2px; opacity: 1;"/></g><g class="points"/><g class="text"/></g><g class="trace scatter trace3b8762" style="stroke-miterlimit: 2; opacity: 1;"><g class="fills"/><g class="errorbars"/><g class="lines"><path class="js-line" d="M0,303.88L55.1,300.26L66.12,298.47L88.16,293.38L99.18,289.49L121.22,277.35L132.24,269.19L143.27,260.6L154.29,249.46L165.31,237.98L176.33,224.6L198.37,200.08L209.39,186.2L242.45,147.38L253.47,137.65L275.51,114.98L286.53,105.92L308.57,88.51L319.59,82L330.61,73.96L341.63,68.65L352.65,64.07L363.67,57.96L374.69,52.2L385.71,49.33L407.76,40.29L418.78,38.33L451.84,30.45L462.86,29.48L473.88,25.81L484.9,24.51L495.92,22.27L506.94,22.37L517.96,20.82L528.98,20.63L540,18.37" style="vector-effect: non-scaling-stroke; fill: none; stroke: rgb(248, 118, 109); stroke-opacity: 1; stroke-width: 2px; opacity: 1;"/></g><g class="points"/><g class="text"/></g><g class="trace scatter tracea1d4d9" style="stroke-miterlimit: 2; opacity: 1;"><g class="fills"/><g class="errorbars"/><g class="lines"><path class="js-line" d="M0,303.77L33.06,301.87L44.08,301.11L55.1,300.25L66.12,298.01L77.14,295.87L88.16,292.68L99.18,288.71L110.2,283.13L121.22,276.45L132.24,268.15L154.29,247.44L165.31,234.44L176.33,222.87L187.35,208.94L198.37,195.84L209.39,181.46L231.43,158.42L242.45,145.27L275.51,113.36L286.53,105.02L319.59,81.13L330.61,74.03L352.65,62.8L363.67,58.9L374.69,54.02L385.71,50.07L396.73,45.7L407.76,42.17L418.78,40.19L429.8,37.4L462.86,30.24L473.88,27.98L484.9,26.85L495.92,24.66L506.94,24.16L517.96,21.75L528.98,20.07L540,20.49" style="vector-effect: non-scaling-stroke; fill: none; stroke: rgb(163, 165, 0); stroke-opacity: 1; stroke-width: 2px; opacity: 1;"/></g><g class="points"/><g class="text"/></g><g class="trace scatter tracedec428" style="stroke-miterlimit: 2; opacity: 1;"><g class="fills"/><g class="errorbars"/><g class="lines"><path class="js-line" d="M0,303.85L33.06,302.22L44.08,301.19L66.12,298.18L77.14,296.59L99.18,288.6L110.2,282.38L121.22,276.89L132.24,267.62L154.29,247.55L165.31,235.91L198.37,196.06L209.39,182.26L220.41,169.36L231.43,158.12L242.45,145.16L253.47,134.15L264.49,122.81L275.51,114.63L297.55,95.62L308.57,88.09L341.63,68.19L352.65,62.87L396.73,44.84L407.76,42.49L418.78,38.64L429.8,37.54L440.82,34.28L451.84,32.43L484.9,26.48L495.92,25.98L506.94,22.77L517.96,23.73L528.98,20.54L540,20.57" style="vector-effect: non-scaling-stroke; fill: none; stroke: rgb(0, 191, 125); stroke-opacity: 1; stroke-width: 2px; opacity: 1;"/></g><g class="points"/><g class="text"/></g><g class="trace scatter trace7e58bd" style="stroke-miterlimit: 2; opacity: 1;"><g class="fills"/><g class="errorbars"/><g class="lines"><path class="js-line" d="M0,303.6L33.06,301.77L44.08,301.06L55.1,299.8L66.12,297.78L77.14,296.07L88.16,292.68L99.18,289.25L110.2,282.95L132.24,267.97L143.27,258.56L165.31,235.19L176.33,222.31L220.41,168.65L231.43,155.85L253.47,132.08L264.49,122.39L275.51,111.13L286.53,102.23L308.57,87.03L319.59,78.12L330.61,71.41L341.63,65.78L352.65,59.88L363.67,55.47L396.73,42.93L407.76,39.15L418.78,37.56L429.8,33.58L484.9,23.09L495.92,21.63L506.94,19.58L517.96,18.55L528.98,18.98L540,17.53" style="vector-effect: non-scaling-stroke; fill: none; stroke: rgb(0, 176, 246); stroke-opacity: 1; stroke-width: 2px; opacity: 1;"/></g><g class="points"/><g class="text"/></g><g class="trace scatter trace3d5155" style="stroke-miterlimit: 2; opacity: 1;"><g class="fills"/><g class="errorbars"/><g class="lines"><path class="js-line" d="M0,303.87L44.08,300.94L55.1,299.4L66.12,298.08L77.14,295.94L88.16,292.73L99.18,288.68L110.2,282.72L121.22,275.69L143.27,257.81L154.29,246.22L165.31,234.53L176.33,220.33L198.37,193.67L209.39,180.48L220.41,166.63L231.43,154.89L242.45,141.67L253.47,130.6L264.49,119.47L275.51,109.59L286.53,98.8L297.55,90.8L319.59,75.47L330.61,68.64L352.65,57.01L363.67,52.32L407.76,37.46L418.78,34.25L451.84,26.8L462.86,25.14L484.9,22.03L495.92,20.76L528.98,16.7L540,16.08" style="vector-effect: non-scaling-stroke; fill: none; stroke: rgb(231, 107, 243); stroke-opacity: 1; stroke-width: 2px; opacity: 1;"/></g><g class="points"/><g class="text"/></g><g class="trace scatter tracee6fbf0" style="stroke-miterlimit: 2; opacity: 1;"><g class="fills"/><g class="errorbars"/><g class="lines"><path class="js-line" d="M0,303.75L44.08,300.94L55.1,299.39L66.12,298.18L77.14,295.31L88.16,292.9L99.18,288.51L110.2,282.56L121.22,274.77L132.24,267.29L143.27,256.14L154.29,244.12L165.31,233.37L187.35,206.24L198.37,193.82L209.39,180.15L220.41,167.68L253.47,131.1L264.49,120.73L275.51,111.9L286.53,102.07L297.55,94.94L308.57,86.62L319.59,78.88L330.61,72.56L352.65,61.13L363.67,56.54L374.69,52.96L385.71,47.59L418.78,37.35L429.8,34.72L440.82,32.52L451.84,31.63L462.86,28.55L473.88,27.11L495.92,22.83L506.94,21.83L517.96,19.6L528.98,18.66L540,17.22" style="vector-effect: non-scaling-stroke; fill: none; stroke: rgb(248, 118, 109); stroke-opacity: 1; stroke-width: 2px; opacity: 1;"/></g><g class="points"/><g class="text"/></g><g class="trace scatter trace937969" style="stroke-miterlimit: 2; opacity: 1;"><g class="fills"/><g class="errorbars"/><g class="lines"><path class="js-line" d="M0,303.87L33.06,302.05L44.08,300.92L66.12,298.36L77.14,295.5L88.16,292.54L99.18,288.29L121.22,276L132.24,266.83L143.27,257L154.29,246.05L198.37,197.46L209.39,184.37L231.43,159.48L242.45,148.93L264.49,126.33L275.51,117.09L286.53,107.07L297.55,100.18L308.57,90.82L319.59,84.16L330.61,77.36L341.63,72.33L374.69,55.96L385.71,51.94L396.73,48.74L407.76,44.26L418.78,42.81L429.8,38.12L440.82,35.39L451.84,34.98L462.86,31.43L473.88,30.11L484.9,27.62L495.92,26.69L517.96,23.64L528.98,22.54L540,20.89" style="vector-effect: non-scaling-stroke; fill: none; stroke: rgb(163, 165, 0); stroke-opacity: 1; stroke-width: 2px; opacity: 1;"/></g><g class="points"/><g class="text"/></g><g class="trace scatter traceeac635" style="stroke-miterlimit: 2; opacity: 1;"><g class="fills"/><g class="errorbars"/><g class="lines"><path class="js-line" d="M0,303.69L33.06,301.92L44.08,300.68L55.1,299.98L66.12,298.47L77.14,296.24L88.16,292.69L99.18,288.48L110.2,282.32L121.22,276.31L132.24,268.02L143.27,258.79L154.29,247.4L176.33,223.24L187.35,209.55L198.37,196.75L209.39,182.15L220.41,170.85L231.43,158.08L242.45,145.52L253.47,134.32L275.51,112.87L286.53,104.14L297.55,95.1L308.57,88.35L330.61,72.02L341.63,67.07L352.65,60.96L363.67,56.58L374.69,51.55L385.71,47.86L396.73,44.92L407.76,40.27L418.78,38.11L429.8,34.27L462.86,27.51L473.88,26.59L506.94,20.37L517.96,21.26L528.98,18.52L540,18.13" style="vector-effect: non-scaling-stroke; fill: none; stroke: rgb(0, 191, 125); stroke-opacity: 1; stroke-width: 2px; opacity: 1;"/></g><g class="points"/><g class="text"/></g><g class="trace scatter traced57252" style="stroke-miterlimit: 2; opacity: 1;"><g class="fills"/><g class="errorbars"/><g class="lines"><path class="js-line" d="M0,303.79L33.06,302.06L44.08,300.91L66.12,297.99L77.14,296L99.18,288.5L110.2,282.58L121.22,275.7L132.24,266.94L143.27,257.1L154.29,245.2L165.31,233.69L176.33,220.42L187.35,206.18L198.37,194.73L220.41,167.55L231.43,156.51L253.47,132.14L264.49,122.58L275.51,111.99L286.53,103.32L297.55,94.08L308.57,86.19L319.59,78.31L330.61,73.13L341.63,66.92L352.65,61.62L363.67,55.33L374.69,52.77L396.73,43.76L407.76,40.37L418.78,37.14L429.8,34.88L473.88,26.46L484.9,24.85L528.98,18.65L540,17.83" style="vector-effect: non-scaling-stroke; fill: none; stroke: rgb(0, 176, 246); stroke-opacity: 1; stroke-width: 2px; opacity: 1;"/></g><g class="points"/><g class="text"/></g><g class="trace scatter tracebdeb87" style="stroke-miterlimit: 2; opacity: 1;"><g class="fills"/><g class="errorbars"/><g class="lines"><path class="js-line" d="M0,303.79L44.08,301.16L55.1,300.01L66.12,298.53L77.14,295.46L88.16,293.46L99.18,288.13L121.22,276.31L132.24,268.11L154.29,246.18L165.31,234.55L176.33,222.76L187.35,208.07L209.39,182.02L220.41,169.88L242.45,145.83L253.47,134.61L264.49,123.58L275.51,113.76L297.55,96.98L308.57,89.4L330.61,75.3L341.63,70.01L352.65,63.19L363.67,58.8L374.69,55.31L385.71,50.57L407.76,42.37L418.78,40.37L451.84,32.51L462.86,30.32L473.88,28.82L484.9,26.51L517.96,22.68L528.98,20.01L540,20.1" style="vector-effect: non-scaling-stroke; fill: none; stroke: rgb(231, 107, 243); stroke-opacity: 1; stroke-width: 2px; opacity: 1;"/></g><g class="points"/><g class="text"/></g><g class="trace scatter trace791b67" style="stroke-miterlimit: 2; opacity: 1;"><g class="fills"/><g class="errorbars"/><g class="lines"><path class="js-line" d="M0,303.64L33.06,302.01L44.08,300.94L66.12,297.9L77.14,296.09L99.18,288.81L110.2,283.43L132.24,266.73L143.27,257.05L165.31,233.82L176.33,220.73L220.41,166.6L231.43,155.16L253.47,129.76L264.49,120.44L275.51,109.11L286.53,100.04L308.57,85.33L319.59,77.07L330.61,71.52L341.63,64.85L363.67,53.92L374.69,51.02L396.73,42.36L407.76,38.94L418.78,37.15L429.8,33.65L473.88,26.65L484.9,23.31L495.92,22.99L506.94,21.86L517.96,19.48L528.98,20.34L540,17.58" style="vector-effect: non-scaling-stroke; fill: none; stroke: rgb(248, 118, 109); stroke-opacity: 1; stroke-width: 2px; opacity: 1;"/></g><g class="points"/><g class="text"/></g><g class="trace scatter trace6fc4ca" style="stroke-miterlimit: 2; opacity: 1;"><g class="fills"/><g class="errorbars"/><g class="lines"><path class="js-line" d="M0,303.79L44.08,301.12L55.1,299.87L77.14,295.63L88.16,292.19L99.18,287.64L110.2,281.65L121.22,275.22L132.24,266.08L154.29,245.74L165.31,232.72L187.35,208.43L198.37,194.82L209.39,180.54L220.41,168.91L231.43,157.69L242.45,143.89L253.47,134.01L264.49,122.25L286.53,103.53L297.55,94.12L330.61,73.26L341.63,67.33L363.67,56.88L374.69,53.28L385.71,47.04L396.73,44.24L429.8,36.35L440.82,32.37L462.86,29.72L473.88,26.92L484.9,25.97L495.92,23.65L506.94,21.31L517.96,20.5L528.98,20.73L540,18.24" style="vector-effect: non-scaling-stroke; fill: none; stroke: rgb(163, 165, 0); stroke-opacity: 1; stroke-width: 2px; opacity: 1;"/></g><g class="points"/><g class="text"/></g><g class="trace scatter trace1daafa" style="stroke-miterlimit: 2; opacity: 1;"><g class="fills"/><g class="errorbars"/><g class="lines"><path class="js-line" d="M0,303.71L33.06,301.97L44.08,301.04L66.12,298.19L77.14,295.52L99.18,288.05L110.2,282.13L121.22,276.31L132.24,266.89L154.29,247.11L165.31,234.43L187.35,209.19L198.37,196.33L220.41,169.56L231.43,158.79L253.47,135.07L264.49,124.18L275.51,114.23L286.53,106.6L308.57,88.96L319.59,81.76L330.61,74.9L341.63,69.54L352.65,62.85L363.67,57.93L374.69,55.5L385.71,51.11L396.73,46.17L407.76,42.22L418.78,39.3L429.8,37.61L440.82,34.38L451.84,33.37L462.86,31.02L473.88,27.89L495.92,27.04L506.94,24.03L540,19.63" style="vector-effect: non-scaling-stroke; fill: none; stroke: rgb(0, 191, 125); stroke-opacity: 1; stroke-width: 2px; opacity: 1;"/></g><g class="points"/><g class="text"/></g><g class="trace scatter trace9b2d32" style="stroke-miterlimit: 2; opacity: 1;"><g class="fills"/><g class="errorbars"/><g class="lines"><path class="js-line" d="M0,303.79L33.06,301.81L44.08,301.21L66.12,298.57L77.14,295.63L88.16,292.52L99.18,288.45L110.2,283.22L121.22,276.62L143.27,258.12L154.29,247.85L176.33,222.98L187.35,210.77L198.37,198.74L209.39,184.21L220.41,170.89L231.43,159.63L264.49,125.21L275.51,115.35L297.55,97.96L308.57,90.36L330.61,76.6L341.63,69.93L352.65,65.45L363.67,59.5L385.71,50.55L396.73,47.43L418.78,40.07L429.8,37.93L473.88,28.35L484.9,26.95L495.92,26.02L506.94,23.93L517.96,21.64L528.98,21.8L540,20.18" style="vector-effect: non-scaling-stroke; fill: none; stroke: rgb(0, 176, 246); stroke-opacity: 1; stroke-width: 2px; opacity: 1;"/></g><g class="points"/><g class="text"/></g><g class="trace scatter tracef31ee7" style="stroke-miterlimit: 2; opacity: 1;"><g class="fills"/><g class="errorbars"/><g class="lines"><path class="js-line" d="M0,303.79L44.08,301.15L55.1,299.76L66.12,298.48L77.14,295.45L88.16,292.8L99.18,288.57L110.2,283.02L121.22,276.57L132.24,267.4L143.27,257.22L154.29,246.5L165.31,234.63L176.33,222.61L187.35,208.36L220.41,168.76L231.43,157.63L253.47,133.94L264.49,123.41L286.53,102.88L297.55,95.1L308.57,86.54L319.59,81.31L330.61,73.91L341.63,69.27L352.65,61.37L363.67,58.42L374.69,53.12L385.71,49.3L407.76,42.58L418.78,39.95L429.8,35.64L440.82,33.4L451.84,29.81L462.86,28.69L473.88,27.53L484.9,25.03L528.98,20.31L540,18.31" style="vector-effect: non-scaling-stroke; fill: none; stroke: rgb(231, 107, 243); stroke-opacity: 1; stroke-width: 2px; opacity: 1;"/></g><g class="points"/><g class="text"/></g></g></g><g class="overplot"/><path class="xlines-above crisp" d="" style="fill: none; stroke-width: 1px; stroke: rgb(0, 0, 0); stroke-opacity: 0;"/><path class="ylines-above crisp" d="" style="fill: none; stroke-width: 1px; stroke: rgb(0, 0, 0); stroke-opacity: 0;"/><g class="overlines-above"/><g class="xaxislayer-above"><path class="xtick ticks crisp" d="M0,421v5" transform="translate(80,0)" style="stroke: rgb(51, 51, 51); stroke-opacity: 1; stroke-width: 1px;"/><path class="xtick ticks crisp" d="M0,421v5" transform="translate(190.2,0)" style="stroke: rgb(51, 51, 51); stroke-opacity: 1; stroke-width: 1px;"/><path class="xtick ticks crisp" d="M0,421v5" transform="translate(300.40999999999997,0)" style="stroke: rgb(51, 51, 51); stroke-opacity: 1; stroke-width: 1px;"/><path class="xtick ticks crisp" d="M0,421v5" transform="translate(410.61,0)" style="stroke: rgb(51, 51, 51); stroke-opacity: 1; stroke-width: 1px;"/><path class="xtick ticks crisp" d="M0,421v5" transform="translate(520.8199999999999,0)" style="stroke: rgb(51, 51, 51); stroke-opacity: 1; stroke-width: 1px;"/><g class="xtick"><text text-anchor="middle" x="0" y="440.4" transform="translate(80,0)" style="font-family: 'Open Sans', verdana, arial, sans-serif; font-size: 12px; fill: rgb(51, 51, 51); fill-opacity: 1; white-space: pre; opacity: 1;">0</text></g><g class="xtick"><text text-anchor="middle" x="0" y="440.4" style="font-family: 'Open Sans', verdana, arial, sans-serif; font-size: 12px; fill: rgb(51, 51, 51); fill-opacity: 1; white-space: pre; opacity: 1;" transform="translate(190.2,0)">10</text></g><g class="xtick"><text text-anchor="middle" x="0" y="440.4" style="font-family: 'Open Sans', verdana, arial, sans-serif; font-size: 12px; fill: rgb(51, 51, 51); fill-opacity: 1; white-space: pre; opacity: 1;" transform="translate(300.40999999999997,0)">20</text></g><g class="xtick"><text text-anchor="middle" x="0" y="440.4" style="font-family: 'Open Sans', verdana, arial, sans-serif; font-size: 12px; fill: rgb(51, 51, 51); fill-opacity: 1; white-space: pre; opacity: 1;" transform="translate(410.61,0)">30</text></g><g class="xtick"><text text-anchor="middle" x="0" y="440.4" style="font-family: 'Open Sans', verdana, arial, sans-serif; font-size: 12px; fill: rgb(51, 51, 51); fill-opacity: 1; white-space: pre; opacity: 1;" transform="translate(520.8199999999999,0)">40</text></g></g><g class="yaxislayer-above"><path class="ytick ticks crisp" d="M79,0h-5" transform="translate(0,405.28)" style="stroke: rgb(51, 51, 51); stroke-opacity: 1; stroke-width: 1px;"/><path class="ytick ticks crisp" d="M79,0h-5" transform="translate(0,367.6)" style="stroke: rgb(51, 51, 51); stroke-opacity: 1; stroke-width: 1px;"/><path class="ytick ticks crisp" d="M79,0h-5" transform="translate(0,329.90999999999997)" style="stroke: rgb(51, 51, 51); stroke-opacity: 1; stroke-width: 1px;"/><path class="ytick ticks crisp" d="M79,0h-5" transform="translate(0,292.23)" style="stroke: rgb(51, 51, 51); stroke-opacity: 1; stroke-width: 1px;"/><path class="ytick ticks crisp" d="M79,0h-5" transform="translate(0,254.54)" style="stroke: rgb(51, 51, 51); stroke-opacity: 1; stroke-width: 1px;"/><path class="ytick ticks crisp" d="M79,0h-5" transform="translate(0,216.86)" style="stroke: rgb(51, 51, 51); stroke-opacity: 1; stroke-width: 1px;"/><path class="ytick ticks crisp" d="M79,0h-5" transform="translate(0,179.18)" style="stroke: rgb(51, 51, 51); stroke-opacity: 1; stroke-width: 1px;"/><path class="ytick ticks crisp" d="M79,0h-5" transform="translate(0,141.49)" style="stroke: rgb(51, 51, 51); stroke-opacity: 1; stroke-width: 1px;"/><path class="ytick ticks crisp" d="M79,0h-5" transform="translate(0,103.81)" style="stroke: rgb(51, 51, 51); stroke-opacity: 1; stroke-width: 1px;"/><g class="ytick"><text text-anchor="end" x="71.6" y="4.199999999999999" transform="translate(0,405.28)" style="font-family: 'Open Sans', verdana, arial, sans-serif; font-size: 12px; fill: rgb(51, 51, 51); fill-opacity: 1; white-space: pre; opacity: 1;">0</text></g><g class="ytick"><text text-anchor="end" x="71.6" y="4.199999999999999" style="font-family: 'Open Sans', verdana, arial, sans-serif; font-size: 12px; fill: rgb(51, 51, 51); fill-opacity: 1; white-space: pre; opacity: 1;" transform="translate(0,367.6)">0.1</text></g><g class="ytick"><text text-anchor="end" x="71.6" y="4.199999999999999" style="font-family: 'Open Sans', verdana, arial, sans-serif; font-size: 12px; fill: rgb(51, 51, 51); fill-opacity: 1; white-space: pre; opacity: 1;" transform="translate(0,329.90999999999997)">0.2</text></g><g class="ytick"><text text-anchor="end" x="71.6" y="4.199999999999999" style="font-family: 'Open Sans', verdana, arial, sans-serif; font-size: 12px; fill: rgb(51, 51, 51); fill-opacity: 1; white-space: pre; opacity: 1;" transform="translate(0,292.23)">0.3</text></g><g class="ytick"><text text-anchor="end" x="71.6" y="4.199999999999999" style="font-family: 'Open Sans', verdana, arial, sans-serif; font-size: 12px; fill: rgb(51, 51, 51); fill-opacity: 1; white-space: pre; opacity: 1;" transform="translate(0,254.54)">0.4</text></g><g class="ytick"><text text-anchor="end" x="71.6" y="4.199999999999999" style="font-family: 'Open Sans', verdana, arial, sans-serif; font-size: 12px; fill: rgb(51, 51, 51); fill-opacity: 1; white-space: pre; opacity: 1;" transform="translate(0,216.86)">0.5</text></g><g class="ytick"><text text-anchor="end" x="71.6" y="4.199999999999999" style="font-family: 'Open Sans', verdana, arial, sans-serif; font-size: 12px; fill: rgb(51, 51, 51); fill-opacity: 1; white-space: pre; opacity: 1;" transform="translate(0,179.18)">0.6</text></g><g class="ytick"><text text-anchor="end" x="71.6" y="4.199999999999999" style="font-family: 'Open Sans', verdana, arial, sans-serif; font-size: 12px; fill: rgb(51, 51, 51); fill-opacity: 1; white-space: pre; opacity: 1;" transform="translate(0,141.49)">0.7</text></g><g class="ytick"><text text-anchor="end" x="71.6" y="4.199999999999999" style="font-family: 'Open Sans', verdana, arial, sans-serif; font-size: 12px; fill: rgb(51, 51, 51); fill-opacity: 1; white-space: pre; opacity: 1;" transform="translate(0,103.81)">0.8</text></g></g><g class="overaxes-above"/></g></g><g class="polarlayer"/><g class="ternarylayer"/><g class="geolayer"/><g class="funnelarealayer"/><g class="pielayer"/><g class="iciclelayer"/><g class="treemaplayer"/><g class="sunburstlayer"/><g class="glimages"/><defs id="topdefs-0616dd"><g class="clips"/></defs><g class="layer-above"><g class="imagelayer"/><g class="shapelayer"/></g><g class="infolayer"><g class="g-gtitle"><text class="gtitle" x="350" y="50" text-anchor="middle" dy="0em" style="font-family: 'Open Sans', verdana, arial, sans-serif; font-size: 17px; fill: rgb(51, 51, 51); opacity: 1; font-weight: normal; white-space: pre;">Train Accuracy: ascad_v1_fk_0-aisy_mlp_id (original)</text></g><g class="g-xtitle"/><g class="g-ytitle"/></g></svg>