<svg class="main-svg" xmlns="http://www.w3.org/2000/svg" xmlns:xlink="http://www.w3.org/1999/xlink" width="700" height="500" style="" viewBox="0 0 700 500"><rect x="0" y="0" width="700" height="500" style="fill: rgb(255, 255, 255); fill-opacity: 1;"/><defs id="defs-6419b0"><g class="clips"><clipPath id="clip6419b0xyplot" class="plotclip"><rect width="470" height="320"/></clipPath><clipPath class="axesclip" id="clip6419b0x"><rect x="80" y="0" width="470" height="500"/></clipPath><clipPath class="axesclip" id="clip6419b0y"><rect x="0" y="100" width="700" height="320"/></clipPath><clipPath class="axesclip" id="clip6419b0xy"><rect x="80" y="100" width="470" height="320"/></clipPath></g><g class="gradients"/><g class="patterns"/></defs><g class="bglayer"><rect class="bg" x="80" y="100" width="470" height="320" style="fill: rgb(237, 237, 237); fill-opacity: 1; stroke-width: 0;"/></g><g class="layer-below"><g class="imagelayer"/><g class="shapelayer"/></g><g class="cartesianlayer"><g class="subplot xy"><g class="layer-subplot"><g class="shapelayer"/><g class="imagelayer"/></g><g class="gridlayer"><g class="x"><path class="xgrid crisp" transform="translate(141.38,0)" d="M0,100v320" style="stroke: rgb(255, 255, 255); stroke-opacity: 1; stroke-width: 1px;"/><path class="xgrid crisp" transform="translate(258.13,0)" d="M0,100v320" style="stroke: rgb(255, 255, 255); stroke-opacity: 1; stroke-width: 1px;"/><path class="xgrid crisp" transform="translate(374.88,0)" d="M0,100v320" style="stroke: rgb(255, 255, 255); stroke-opacity: 1; stroke-width: 1px;"/><path class="xgrid crisp" transform="translate(491.63,0)" d="M0,100v320" style="stroke: rgb(255, 255, 255); stroke-opacity: 1; stroke-width: 1px;"/></g><g class="y"><path class="ygrid crisp" transform="translate(0,397.2)" d="M80,0h470" style="stroke: rgb(255, 255, 255); stroke-opacity: 1; stroke-width: 1px;"/><path class="ygrid crisp" transform="translate(0,297.73)" d="M80,0h470" style="stroke: rgb(255, 255, 255); stroke-opacity: 1; stroke-width: 1px;"/><path class="ygrid crisp" transform="translate(0,247.99)" d="M80,0h470" style="stroke: rgb(255, 255, 255); stroke-opacity: 1; stroke-width: 1px;"/><path class="ygrid crisp" transform="translate(0,198.26)" d="M80,0h470" style="stroke: rgb(255, 255, 255); stroke-opacity: 1; stroke-width: 1px;"/><path class="ygrid crisp" transform="translate(0,148.52)" d="M80,0h470" style="stroke: rgb(255, 255, 255); stroke-opacity: 1; stroke-width: 1px;"/></g></g><g class="zerolinelayer"><path class="yzl zl crisp" transform="translate(0,347.46000000000004)" d="M80,0h470" style="stroke: rgb(255, 255, 255); stroke-opacity: 1; stroke-width: 1px;"/></g><path class="xlines-below"/><path class="ylines-below"/><g class="overlines-below"/><g class="xaxislayer-below"/><g class="yaxislayer-below"/><g class="overaxes-below"/><g class="plot" transform="translate(80,100)" clip-path="url(#clip6419b0xyplot)"><g class="violinlayer mlayer"><g class="trace violins" style="opacity: 1;"><path class="violin" d="M61.59,304Q61.69,297.82 61.77,294.73C61.85,291.64 61.94,288.55 62.05,285.46C62.16,282.37 62.3,279.29 62.43,276.2C62.57,273.11 62.71,270.02 62.86,266.93C63.01,263.84 63.18,260.75 63.32,257.66C63.46,254.57 63.6,251.48 63.72,248.39C63.83,245.3 63.94,242.21 64.01,239.12C64.08,236.03 64.13,232.94 64.14,229.85C64.15,226.76 64.13,223.68 64.09,220.59C64.05,217.5 63.97,214.41 63.88,211.32C63.79,208.23 63.65,205.14 63.53,202.05C63.4,198.96 63.26,195.87 63.13,192.78C63,189.69 62.86,186.6 62.75,183.51C62.64,180.42 62.53,177.34 62.46,174.25C62.38,171.16 62.33,168.07 62.3,164.98C62.27,161.89 62.26,158.8 62.27,155.71C62.28,152.62 62.32,149.53 62.36,146.44C62.4,143.35 62.46,140.26 62.51,137.17C62.56,134.08 62.62,131 62.66,127.91C62.7,124.82 62.75,121.73 62.77,118.64C62.79,115.55 62.81,112.46 62.8,109.37C62.79,106.28 62.77,103.19 62.73,100.1C62.69,97.01 62.64,93.92 62.58,90.83C62.52,87.74 62.44,84.65 62.36,81.56C62.28,78.47 62.2,75.39 62.12,72.3C62.04,69.21 61.96,66.12 61.89,63.03C61.82,59.94 61.75,56.85 61.7,53.76C61.65,50.67 61.61,47.58 61.57,44.49C61.53,41.4 61.51,38.31 61.48,35.22Q61.46,32.13 61.42,25.96L61.33,25.96Q61.29,32.13 61.27,35.22C61.24,38.31 61.22,41.4 61.18,44.49C61.14,47.58 61.1,50.67 61.05,53.76C61,56.85 60.93,59.94 60.86,63.03C60.79,66.12 60.71,69.21 60.63,72.3C60.55,75.39 60.47,78.47 60.39,81.56C60.31,84.65 60.23,87.74 60.17,90.83C60.11,93.92 60.06,97.01 60.02,100.1C59.98,103.19 59.96,106.28 59.95,109.37C59.94,112.46 59.96,115.55 59.98,118.64C60,121.73 60.05,124.82 60.09,127.91C60.13,131 60.19,134.08 60.24,137.17C60.29,140.26 60.35,143.35 60.39,146.44C60.43,149.53 60.47,152.62 60.48,155.71C60.49,158.8 60.48,161.89 60.45,164.98C60.42,168.07 60.37,171.16 60.29,174.25C60.22,177.34 60.11,180.42 60,183.51C59.89,186.6 59.75,189.69 59.62,192.78C59.49,195.87 59.35,198.96 59.22,202.05C59.1,205.14 58.96,208.23 58.87,211.32C58.78,214.41 58.7,217.5 58.66,220.59C58.62,223.68 58.6,226.76 58.61,229.85C58.62,232.94 58.67,236.03 58.74,239.12C58.81,242.21 58.92,245.3 59.03,248.39C59.15,251.48 59.29,254.57 59.43,257.66C59.57,260.75 59.74,263.84 59.89,266.93C60.04,270.02 60.18,273.11 60.32,276.2C60.45,279.29 60.59,282.37 60.7,285.46C60.81,288.55 60.9,291.64 60.98,294.73Q61.06,297.82 61.16,304Z" style="vector-effect: non-scaling-stroke; stroke-width: 2px; stroke: rgb(99, 110, 250); stroke-opacity: 1; fill: rgb(99, 110, 250); fill-opacity: 0.5;"/><g class="points"><path class="point" transform="translate(22.92,247.46)" d="M3,0A3,3 0 1,1 0,-3A3,3 0 0,1 3,0Z" style="opacity: 1; stroke-width: 0px; fill: rgb(99, 110, 250); fill-opacity: 1;"/><path class="point" transform="translate(13,247.46)" d="M3,0A3,3 0 1,1 0,-3A3,3 0 0,1 3,0Z" style="opacity: 1; stroke-width: 0px; fill: rgb(99, 110, 250); fill-opacity: 1;"/><path class="point" transform="translate(25.12,247.46)" d="M3,0A3,3 0 1,1 0,-3A3,3 0 0,1 3,0Z" style="opacity: 1; stroke-width: 0px; fill: rgb(99, 110, 250); fill-opacity: 1;"/><path class="point" transform="translate(11.21,247.46)" d="M3,0A3,3 0 1,1 0,-3A3,3 0 0,1 3,0Z" style="opacity: 1; stroke-width: 0px; fill: rgb(99, 110, 250); fill-opacity: 1;"/><path class="point" transform="translate(16.36,247.46)" d="M3,0A3,3 0 1,1 0,-3A3,3 0 0,1 3,0Z" style="opacity: 1; stroke-width: 0px; fill: rgb(99, 110, 250); fill-opacity: 1;"/><path class="point" transform="translate(22.97,247.41)" d="M3,0A3,3 0 1,1 0,-3A3,3 0 0,1 3,0Z" style="opacity: 1; stroke-width: 0px; fill: rgb(99, 110, 250); fill-opacity: 1;"/><path class="point" transform="translate(18.15,247.41)" d="M3,0A3,3 0 1,1 0,-3A3,3 0 0,1 3,0Z" style="opacity: 1; stroke-width: 0px; fill: rgb(99, 110, 250); fill-opacity: 1;"/><path class="point" transform="translate(20.96,247.41)" d="M3,0A3,3 0 1,1 0,-3A3,3 0 0,1 3,0Z" style="opacity: 1; stroke-width: 0px; fill: rgb(99, 110, 250); fill-opacity: 1;"/><path class="point" transform="translate(15.73,247.36)" d="M3,0A3,3 0 1,1 0,-3A3,3 0 0,1 3,0Z" style="opacity: 1; stroke-width: 0px; fill: rgb(99, 110, 250); fill-opacity: 1;"/><path class="point" transform="translate(12.18,247.36)" d="M3,0A3,3 0 1,1 0,-3A3,3 0 0,1 3,0Z" style="opacity: 1; stroke-width: 0px; fill: rgb(99, 110, 250); fill-opacity: 1;"/><path class="point" transform="translate(20.01,247.07)" d="M3,0A3,3 0 1,1 0,-3A3,3 0 0,1 3,0Z" style="opacity: 1; stroke-width: 0px; fill: rgb(99, 110, 250); fill-opacity: 1;"/><path class="point" transform="translate(16.58,246.77)" d="M3,0A3,3 0 1,1 0,-3A3,3 0 0,1 3,0Z" style="opacity: 1; stroke-width: 0px; fill: rgb(99, 110, 250); fill-opacity: 1;"/><path class="point" transform="translate(22.06,246.67)" d="M3,0A3,3 0 1,1 0,-3A3,3 0 0,1 3,0Z" style="opacity: 1; stroke-width: 0px; fill: rgb(99, 110, 250); fill-opacity: 1;"/><path class="point" transform="translate(12.96,246.02)" d="M3,0A3,3 0 1,1 0,-3A3,3 0 0,1 3,0Z" style="opacity: 1; stroke-width: 0px; fill: rgb(99, 110, 250); fill-opacity: 1;"/><path class="point" transform="translate(15.22,244.83)" d="M3,0A3,3 0 1,1 0,-3A3,3 0 0,1 3,0Z" style="opacity: 1; stroke-width: 0px; fill: rgb(99, 110, 250); fill-opacity: 1;"/><path class="point" transform="translate(23.37,219.81)" d="M3,0A3,3 0 1,1 0,-3A3,3 0 0,1 3,0Z" style="opacity: 1; stroke-width: 0px; fill: rgb(99, 110, 250); fill-opacity: 1;"/><path class="point" transform="translate(17.14,219.76)" d="M3,0A3,3 0 1,1 0,-3A3,3 0 0,1 3,0Z" style="opacity: 1; stroke-width: 0px; fill: rgb(99, 110, 250); fill-opacity: 1;"/><path class="point" transform="translate(13.93,218.82)" d="M3,0A3,3 0 1,1 0,-3A3,3 0 0,1 3,0Z" style="opacity: 1; stroke-width: 0px; fill: rgb(99, 110, 250); fill-opacity: 1;"/><path class="point" transform="translate(16.72,218.72)" d="M3,0A3,3 0 1,1 0,-3A3,3 0 0,1 3,0Z" style="opacity: 1; stroke-width: 0px; fill: rgb(99, 110, 250); fill-opacity: 1;"/><path class="point" transform="translate(18.36,218.27)" d="M3,0A3,3 0 1,1 0,-3A3,3 0 0,1 3,0Z" style="opacity: 1; stroke-width: 0px; fill: rgb(99, 110, 250); fill-opacity: 1;"/><path class="point" transform="translate(22.33,217.22)" d="M3,0A3,3 0 1,1 0,-3A3,3 0 0,1 3,0Z" style="opacity: 1; stroke-width: 0px; fill: rgb(99, 110, 250); fill-opacity: 1;"/><path class="point" transform="translate(19.42,214.14)" d="M3,0A3,3 0 1,1 0,-3A3,3 0 0,1 3,0Z" style="opacity: 1; stroke-width: 0px; fill: rgb(99, 110, 250); fill-opacity: 1;"/><path class="point" transform="translate(16.05,213.89)" d="M3,0A3,3 0 1,1 0,-3A3,3 0 0,1 3,0Z" style="opacity: 1; stroke-width: 0px; fill: rgb(99, 110, 250); fill-opacity: 1;"/><path class="point" transform="translate(11.3,213.4)" d="M3,0A3,3 0 1,1 0,-3A3,3 0 0,1 3,0Z" style="opacity: 1; stroke-width: 0px; fill: rgb(99, 110, 250); fill-opacity: 1;"/><path class="point" transform="translate(18.44,211.41)" d="M3,0A3,3 0 1,1 0,-3A3,3 0 0,1 3,0Z" style="opacity: 1; stroke-width: 0px; fill: rgb(99, 110, 250); fill-opacity: 1;"/><path class="point" transform="translate(15.96,210.71)" d="M3,0A3,3 0 1,1 0,-3A3,3 0 0,1 3,0Z" style="opacity: 1; stroke-width: 0px; fill: rgb(99, 110, 250); fill-opacity: 1;"/><path class="point" transform="translate(22.46,210.36)" d="M3,0A3,3 0 1,1 0,-3A3,3 0 0,1 3,0Z" style="opacity: 1; stroke-width: 0px; fill: rgb(99, 110, 250); fill-opacity: 1;"/><path class="point" transform="translate(17.71,209.96)" d="M3,0A3,3 0 1,1 0,-3A3,3 0 0,1 3,0Z" style="opacity: 1; stroke-width: 0px; fill: rgb(99, 110, 250); fill-opacity: 1;"/><path class="point" transform="translate(15.96,209.67)" d="M3,0A3,3 0 1,1 0,-3A3,3 0 0,1 3,0Z" style="opacity: 1; stroke-width: 0px; fill: rgb(99, 110, 250); fill-opacity: 1;"/><path class="point" transform="translate(15.1,206.83)" d="M3,0A3,3 0 1,1 0,-3A3,3 0 0,1 3,0Z" style="opacity: 1; stroke-width: 0px; fill: rgb(99, 110, 250); fill-opacity: 1;"/><path class="point" transform="translate(20.45,206.28)" d="M3,0A3,3 0 1,1 0,-3A3,3 0 0,1 3,0Z" style="opacity: 1; stroke-width: 0px; fill: rgb(99, 110, 250); fill-opacity: 1;"/><path class="point" transform="translate(15.57,202.75)" d="M3,0A3,3 0 1,1 0,-3A3,3 0 0,1 3,0Z" style="opacity: 1; stroke-width: 0px; fill: rgb(99, 110, 250); fill-opacity: 1;"/><path class="point" transform="translate(20.39,202.65)" d="M3,0A3,3 0 1,1 0,-3A3,3 0 0,1 3,0Z" style="opacity: 1; stroke-width: 0px; fill: rgb(99, 110, 250); fill-opacity: 1;"/><path class="point" transform="translate(19.17,150.93)" d="M3,0A3,3 0 1,1 0,-3A3,3 0 0,1 3,0Z" style="opacity: 1; stroke-width: 0px; fill: rgb(99, 110, 250); fill-opacity: 1;"/><path class="point" transform="translate(17.52,141.03)" d="M3,0A3,3 0 1,1 0,-3A3,3 0 0,1 3,0Z" style="opacity: 1; stroke-width: 0px; fill: rgb(99, 110, 250); fill-opacity: 1;"/><path class="point" transform="translate(16.59,136.16)" d="M3,0A3,3 0 1,1 0,-3A3,3 0 0,1 3,0Z" style="opacity: 1; stroke-width: 0px; fill: rgb(99, 110, 250); fill-opacity: 1;"/><path class="point" transform="translate(19.89,130.98)" d="M3,0A3,3 0 1,1 0,-3A3,3 0 0,1 3,0Z" style="opacity: 1; stroke-width: 0px; fill: rgb(99, 110, 250); fill-opacity: 1;"/><path class="point" transform="translate(18.14,122.23)" d="M3,0A3,3 0 1,1 0,-3A3,3 0 0,1 3,0Z" style="opacity: 1; stroke-width: 0px; fill: rgb(99, 110, 250); fill-opacity: 1;"/><path class="point" transform="translate(21.4,120.14)" d="M3,0A3,3 0 1,1 0,-3A3,3 0 0,1 3,0Z" style="opacity: 1; stroke-width: 0px; fill: rgb(99, 110, 250); fill-opacity: 1;"/><path class="point" transform="translate(14.48,117.26)" d="M3,0A3,3 0 1,1 0,-3A3,3 0 0,1 3,0Z" style="opacity: 1; stroke-width: 0px; fill: rgb(99, 110, 250); fill-opacity: 1;"/><path class="point" transform="translate(21.69,115.12)" d="M3,0A3,3 0 1,1 0,-3A3,3 0 0,1 3,0Z" style="opacity: 1; stroke-width: 0px; fill: rgb(99, 110, 250); fill-opacity: 1;"/><path class="point" transform="translate(18.03,110)" d="M3,0A3,3 0 1,1 0,-3A3,3 0 0,1 3,0Z" style="opacity: 1; stroke-width: 0px; fill: rgb(99, 110, 250); fill-opacity: 1;"/><path class="point" transform="translate(16.14,103.88)" d="M3,0A3,3 0 1,1 0,-3A3,3 0 0,1 3,0Z" style="opacity: 1; stroke-width: 0px; fill: rgb(99, 110, 250); fill-opacity: 1;"/><path class="point" transform="translate(13.52,100.45)" d="M3,0A3,3 0 1,1 0,-3A3,3 0 0,1 3,0Z" style="opacity: 1; stroke-width: 0px; fill: rgb(99, 110, 250); fill-opacity: 1;"/><path class="point" transform="translate(16.46,100.3)" d="M3,0A3,3 0 1,1 0,-3A3,3 0 0,1 3,0Z" style="opacity: 1; stroke-width: 0px; fill: rgb(99, 110, 250); fill-opacity: 1;"/><path class="point" transform="translate(21.83,100.25)" d="M3,0A3,3 0 1,1 0,-3A3,3 0 0,1 3,0Z" style="opacity: 1; stroke-width: 0px; fill: rgb(99, 110, 250); fill-opacity: 1;"/><path class="point" transform="translate(17.23,98.66)" d="M3,0A3,3 0 1,1 0,-3A3,3 0 0,1 3,0Z" style="opacity: 1; stroke-width: 0px; fill: rgb(99, 110, 250); fill-opacity: 1;"/><path class="point" transform="translate(14.21,96.22)" d="M3,0A3,3 0 1,1 0,-3A3,3 0 0,1 3,0Z" style="opacity: 1; stroke-width: 0px; fill: rgb(99, 110, 250); fill-opacity: 1;"/><path class="point" transform="translate(21.15,83.88)" d="M3,0A3,3 0 1,1 0,-3A3,3 0 0,1 3,0Z" style="opacity: 1; stroke-width: 0px; fill: rgb(99, 110, 250); fill-opacity: 1;"/><path class="point" transform="translate(15.75,82.49)" d="M3,0A3,3 0 1,1 0,-3A3,3 0 0,1 3,0Z" style="opacity: 1; stroke-width: 0px; fill: rgb(99, 110, 250); fill-opacity: 1;"/></g></g><g class="trace violins" style="opacity: 1;"><path class="violin" d="M178.53,257.1Q178.77,255.47 178.95,254.67C179.14,253.85 179.36,253.04 179.65,252.24C179.94,251.42 180.3,250.61 180.69,249.81C181.1,248.99 181.57,248.18 182.06,247.38C182.56,246.56 183.12,245.76 183.66,244.95C184.2,244.14 184.78,243.33 185.3,242.51C185.81,241.71 186.32,240.9 186.73,240.08C187.13,239.28 187.5,238.47 187.76,237.65C188.01,236.85 188.19,236.03 188.27,235.22C188.35,234.41 188.33,233.6 188.25,232.79C188.17,231.98 188,231.16 187.79,230.36C187.58,229.54 187.29,228.74 186.99,227.93C186.69,227.11 186.34,226.3 185.98,225.49C185.62,224.68 185.23,223.87 184.85,223.06C184.47,222.25 184.07,221.44 183.68,220.63C183.29,219.82 182.9,219.01 182.53,218.2C182.17,217.39 181.81,216.58 181.49,215.77C181.17,214.96 180.88,214.15 180.62,213.34C180.36,212.53 180.14,211.72 179.94,210.91C179.75,210.1 179.58,209.29 179.45,208.48C179.32,207.67 179.22,206.85 179.14,206.04C179.06,205.23 179,204.42 178.95,203.61C178.9,202.8 178.88,201.99 178.86,201.18C178.84,200.37 178.83,199.56 178.83,198.75C178.83,197.94 178.84,197.13 178.85,196.32C178.86,195.51 178.89,194.7 178.91,193.89C178.93,193.08 178.96,192.27 178.99,191.46C179.02,190.65 179.05,189.83 179.09,189.02C179.13,188.21 179.17,187.4 179.21,186.59C179.25,185.78 179.29,184.97 179.33,184.16C179.37,183.35 179.42,182.54 179.46,181.73C179.5,180.92 179.54,180.11 179.57,179.3C179.6,178.49 179.63,177.68 179.66,176.87C179.69,176.06 179.73,175.25 179.75,174.44C179.78,173.63 179.79,172.81 179.81,172C179.83,171.19 179.84,170.38 179.85,169.57C179.86,168.76 179.86,167.95 179.85,167.14C179.84,166.33 179.83,165.52 179.8,164.71C179.77,163.9 179.73,163.09 179.69,162.28C179.64,161.47 179.58,160.66 179.53,159.85C179.47,159.04 179.42,158.23 179.36,157.42C179.3,156.61 179.24,155.79 179.18,154.98C179.12,154.17 179.07,153.36 179.02,152.55C178.97,151.74 178.93,150.93 178.89,150.12C178.85,149.31 178.83,148.5 178.8,147.69C178.77,146.88 178.75,146.07 178.73,145.26C178.71,144.45 178.69,143.64 178.67,142.83C178.65,142.02 178.63,141.21 178.61,140.4C178.59,139.59 178.57,138.77 178.54,137.96C178.51,137.15 178.48,136.34 178.45,135.53C178.42,134.72 178.39,133.91 178.36,133.1C178.33,132.29 178.3,131.48 178.28,130.67C178.26,129.86 178.24,129.05 178.22,128.24C178.2,127.43 178.18,126.62 178.17,125.81C178.16,125 178.15,124.19 178.15,123.38C178.14,122.57 178.14,121.75 178.14,120.94C178.14,120.13 178.13,119.32 178.13,118.51C178.13,117.7 178.13,116.89 178.13,116.08C178.13,115.27 178.13,114.46 178.13,113.65C178.13,112.84 178.14,112.03 178.14,111.22C178.14,110.41 178.14,109.6 178.15,108.79C178.16,107.98 178.17,107.17 178.18,106.36C178.19,105.55 178.21,104.73 178.23,103.92C178.25,103.11 178.27,102.3 178.29,101.49C178.31,100.68 178.34,99.87 178.37,99.06C178.39,98.25 178.42,97.44 178.44,96.63C178.46,95.82 178.49,95.01 178.5,94.2C178.51,93.39 178.52,92.58 178.52,91.77C178.52,90.96 178.5,90.15 178.49,89.34C178.48,88.53 178.46,87.71 178.44,86.9C178.42,86.09 178.39,85.28 178.36,84.47C178.33,83.66 178.3,82.85 178.28,82.04C178.26,81.23 178.24,80.42 178.22,79.61Q178.2,78.8 178.18,77.18L178.07,77.18Q178.05,78.8 178.03,79.61C178.01,80.42 177.99,81.23 177.97,82.04C177.95,82.85 177.92,83.66 177.89,84.47C177.86,85.28 177.83,86.09 177.81,86.9C177.79,87.71 177.77,88.53 177.76,89.34C177.75,90.15 177.73,90.96 177.73,91.77C177.73,92.58 177.74,93.39 177.75,94.2C177.76,95.01 177.79,95.82 177.81,96.63C177.83,97.44 177.86,98.25 177.88,99.06C177.91,99.87 177.94,100.68 177.96,101.49C177.98,102.3 178,103.11 178.02,103.92C178.04,104.73 178.06,105.55 178.07,106.36C178.08,107.17 178.09,107.98 178.1,108.79C178.11,109.6 178.11,110.41 178.11,111.22C178.11,112.03 178.12,112.84 178.12,113.65C178.12,114.46 178.12,115.27 178.12,116.08C178.12,116.89 178.12,117.7 178.12,118.51C178.12,119.32 178.11,120.13 178.11,120.94C178.11,121.75 178.11,122.57 178.1,123.38C178.1,124.19 178.09,125 178.08,125.81C178.07,126.62 178.05,127.43 178.03,128.24C178.01,129.05 177.99,129.86 177.97,130.67C177.95,131.48 177.92,132.29 177.89,133.1C177.86,133.91 177.83,134.72 177.8,135.53C177.77,136.34 177.74,137.15 177.71,137.96C177.68,138.77 177.66,139.59 177.64,140.4C177.62,141.21 177.6,142.02 177.58,142.83C177.56,143.64 177.54,144.45 177.52,145.26C177.5,146.07 177.48,146.88 177.45,147.69C177.42,148.5 177.4,149.31 177.36,150.12C177.32,150.93 177.28,151.74 177.23,152.55C177.18,153.36 177.13,154.17 177.07,154.98C177.01,155.79 176.95,156.61 176.89,157.42C176.83,158.23 176.78,159.04 176.72,159.85C176.67,160.66 176.61,161.47 176.56,162.28C176.52,163.09 176.48,163.9 176.45,164.71C176.42,165.52 176.41,166.33 176.4,167.14C176.39,167.95 176.39,168.76 176.4,169.57C176.41,170.38 176.42,171.19 176.44,172C176.46,172.81 176.47,173.63 176.5,174.44C176.52,175.25 176.56,176.06 176.59,176.87C176.62,177.68 176.65,178.49 176.68,179.3C176.71,180.11 176.75,180.92 176.79,181.73C176.83,182.54 176.88,183.35 176.92,184.16C176.96,184.97 177,185.78 177.04,186.59C177.08,187.4 177.12,188.21 177.16,189.02C177.2,189.83 177.23,190.65 177.26,191.46C177.29,192.27 177.32,193.08 177.34,193.89C177.36,194.7 177.39,195.51 177.4,196.32C177.41,197.13 177.42,197.94 177.42,198.75C177.42,199.56 177.41,200.37 177.39,201.18C177.37,201.99 177.35,202.8 177.3,203.61C177.25,204.42 177.19,205.23 177.11,206.04C177.03,206.85 176.93,207.67 176.8,208.48C176.67,209.29 176.5,210.1 176.31,210.91C176.11,211.72 175.89,212.53 175.63,213.34C175.37,214.15 175.08,214.96 174.76,215.77C174.44,216.58 174.08,217.39 173.72,218.2C173.35,219.01 172.96,219.82 172.57,220.63C172.18,221.44 171.78,222.25 171.4,223.06C171.02,223.87 170.63,224.68 170.27,225.49C169.91,226.3 169.56,227.11 169.26,227.93C168.96,228.74 168.67,229.54 168.46,230.36C168.25,231.16 168.08,231.98 168,232.79C167.92,233.6 167.9,234.41 167.98,235.22C168.06,236.03 168.24,236.85 168.49,237.65C168.75,238.47 169.12,239.28 169.52,240.08C169.93,240.9 170.44,241.71 170.95,242.51C171.47,243.33 172.05,244.14 172.59,244.95C173.13,245.76 173.69,246.56 174.19,247.38C174.68,248.18 175.15,248.99 175.56,249.81C175.95,250.61 176.31,251.42 176.6,252.24C176.89,253.04 177.11,253.85 177.3,254.67Q177.48,255.47 177.72,257.1Z" style="vector-effect: non-scaling-stroke; stroke-width: 2px; stroke: rgb(239, 85, 59); stroke-opacity: 1; fill: rgb(239, 85, 59); fill-opacity: 0.5;"/><g class="points"><path class="point" transform="translate(139.67,242.39)" d="M3,0A3,3 0 1,1 0,-3A3,3 0 0,1 3,0Z" style="opacity: 1; stroke-width: 0px; fill: rgb(239, 85, 59); fill-opacity: 1;"/><path class="point" transform="translate(130.33,241.79)" d="M3,0A3,3 0 1,1 0,-3A3,3 0 0,1 3,0Z" style="opacity: 1; stroke-width: 0px; fill: rgb(239, 85, 59); fill-opacity: 1;"/><path class="point" transform="translate(141.59,241.79)" d="M3,0A3,3 0 1,1 0,-3A3,3 0 0,1 3,0Z" style="opacity: 1; stroke-width: 0px; fill: rgb(239, 85, 59); fill-opacity: 1;"/><path class="point" transform="translate(128.53,241.15)" d="M3,0A3,3 0 1,1 0,-3A3,3 0 0,1 3,0Z" style="opacity: 1; stroke-width: 0px; fill: rgb(239, 85, 59); fill-opacity: 1;"/><path class="point" transform="translate(133.21,240.85)" d="M3,0A3,3 0 1,1 0,-3A3,3 0 0,1 3,0Z" style="opacity: 1; stroke-width: 0px; fill: rgb(239, 85, 59); fill-opacity: 1;"/><path class="point" transform="translate(139.66,240.7)" d="M3,0A3,3 0 1,1 0,-3A3,3 0 0,1 3,0Z" style="opacity: 1; stroke-width: 0px; fill: rgb(239, 85, 59); fill-opacity: 1;"/><path class="point" transform="translate(134.94,239.85)" d="M3,0A3,3 0 1,1 0,-3A3,3 0 0,1 3,0Z" style="opacity: 1; stroke-width: 0px; fill: rgb(239, 85, 59); fill-opacity: 1;"/><path class="point" transform="translate(137.26,239.8)" d="M3,0A3,3 0 1,1 0,-3A3,3 0 0,1 3,0Z" style="opacity: 1; stroke-width: 0px; fill: rgb(239, 85, 59); fill-opacity: 1;"/><path class="point" transform="translate(132.93,239.21)" d="M3,0A3,3 0 1,1 0,-3A3,3 0 0,1 3,0Z" style="opacity: 1; stroke-width: 0px; fill: rgb(239, 85, 59); fill-opacity: 1;"/><path class="point" transform="translate(130.48,239.01)" d="M3,0A3,3 0 1,1 0,-3A3,3 0 0,1 3,0Z" style="opacity: 1; stroke-width: 0px; fill: rgb(239, 85, 59); fill-opacity: 1;"/><path class="point" transform="translate(136.95,238.91)" d="M3,0A3,3 0 1,1 0,-3A3,3 0 0,1 3,0Z" style="opacity: 1; stroke-width: 0px; fill: rgb(239, 85, 59); fill-opacity: 1;"/><path class="point" transform="translate(133,237.42)" d="M3,0A3,3 0 1,1 0,-3A3,3 0 0,1 3,0Z" style="opacity: 1; stroke-width: 0px; fill: rgb(239, 85, 59); fill-opacity: 1;"/><path class="point" transform="translate(139.48,236.77)" d="M3,0A3,3 0 1,1 0,-3A3,3 0 0,1 3,0Z" style="opacity: 1; stroke-width: 0px; fill: rgb(239, 85, 59); fill-opacity: 1;"/><path class="point" transform="translate(128.46,236.32)" d="M3,0A3,3 0 1,1 0,-3A3,3 0 0,1 3,0Z" style="opacity: 1; stroke-width: 0px; fill: rgb(239, 85, 59); fill-opacity: 1;"/><path class="point" transform="translate(131.32,234.88)" d="M3,0A3,3 0 1,1 0,-3A3,3 0 0,1 3,0Z" style="opacity: 1; stroke-width: 0px; fill: rgb(239, 85, 59); fill-opacity: 1;"/><path class="point" transform="translate(140.89,234.78)" d="M3,0A3,3 0 1,1 0,-3A3,3 0 0,1 3,0Z" style="opacity: 1; stroke-width: 0px; fill: rgb(239, 85, 59); fill-opacity: 1;"/><path class="point" transform="translate(133.44,234.38)" d="M3,0A3,3 0 1,1 0,-3A3,3 0 0,1 3,0Z" style="opacity: 1; stroke-width: 0px; fill: rgb(239, 85, 59); fill-opacity: 1;"/><path class="point" transform="translate(128.78,234.28)" d="M3,0A3,3 0 1,1 0,-3A3,3 0 0,1 3,0Z" style="opacity: 1; stroke-width: 0px; fill: rgb(239, 85, 59); fill-opacity: 1;"/><path class="point" transform="translate(133.08,234.04)" d="M3,0A3,3 0 1,1 0,-3A3,3 0 0,1 3,0Z" style="opacity: 1; stroke-width: 0px; fill: rgb(239, 85, 59); fill-opacity: 1;"/><path class="point" transform="translate(135.07,233.54)" d="M3,0A3,3 0 1,1 0,-3A3,3 0 0,1 3,0Z" style="opacity: 1; stroke-width: 0px; fill: rgb(239, 85, 59); fill-opacity: 1;"/><path class="point" transform="translate(138.31,232.84)" d="M3,0A3,3 0 1,1 0,-3A3,3 0 0,1 3,0Z" style="opacity: 1; stroke-width: 0px; fill: rgb(239, 85, 59); fill-opacity: 1;"/><path class="point" transform="translate(135.87,232.49)" d="M3,0A3,3 0 1,1 0,-3A3,3 0 0,1 3,0Z" style="opacity: 1; stroke-width: 0px; fill: rgb(239, 85, 59); fill-opacity: 1;"/><path class="point" transform="translate(133.65,232.34)" d="M3,0A3,3 0 1,1 0,-3A3,3 0 0,1 3,0Z" style="opacity: 1; stroke-width: 0px; fill: rgb(239, 85, 59); fill-opacity: 1;"/><path class="point" transform="translate(130.59,230.4)" d="M3,0A3,3 0 1,1 0,-3A3,3 0 0,1 3,0Z" style="opacity: 1; stroke-width: 0px; fill: rgb(239, 85, 59); fill-opacity: 1;"/><path class="point" transform="translate(135.2,229.76)" d="M3,0A3,3 0 1,1 0,-3A3,3 0 0,1 3,0Z" style="opacity: 1; stroke-width: 0px; fill: rgb(239, 85, 59); fill-opacity: 1;"/><path class="point" transform="translate(133.61,229.51)" d="M3,0A3,3 0 1,1 0,-3A3,3 0 0,1 3,0Z" style="opacity: 1; stroke-width: 0px; fill: rgb(239, 85, 59); fill-opacity: 1;"/><path class="point" transform="translate(137.8,227.22)" d="M3,0A3,3 0 1,1 0,-3A3,3 0 0,1 3,0Z" style="opacity: 1; stroke-width: 0px; fill: rgb(239, 85, 59); fill-opacity: 1;"/><path class="point" transform="translate(134.73,226.23)" d="M3,0A3,3 0 1,1 0,-3A3,3 0 0,1 3,0Z" style="opacity: 1; stroke-width: 0px; fill: rgb(239, 85, 59); fill-opacity: 1;"/><path class="point" transform="translate(131.25,225.93)" d="M3,0A3,3 0 1,1 0,-3A3,3 0 0,1 3,0Z" style="opacity: 1; stroke-width: 0px; fill: rgb(239, 85, 59); fill-opacity: 1;"/><path class="point" transform="translate(130.49,225.68)" d="M3,0A3,3 0 1,1 0,-3A3,3 0 0,1 3,0Z" style="opacity: 1; stroke-width: 0px; fill: rgb(239, 85, 59); fill-opacity: 1;"/><path class="point" transform="translate(138.11,224.64)" d="M3,0A3,3 0 1,1 0,-3A3,3 0 0,1 3,0Z" style="opacity: 1; stroke-width: 0px; fill: rgb(239, 85, 59); fill-opacity: 1;"/><path class="point" transform="translate(130.88,224.39)" d="M3,0A3,3 0 1,1 0,-3A3,3 0 0,1 3,0Z" style="opacity: 1; stroke-width: 0px; fill: rgb(239, 85, 59); fill-opacity: 1;"/><path class="point" transform="translate(138.19,224.24)" d="M3,0A3,3 0 1,1 0,-3A3,3 0 0,1 3,0Z" style="opacity: 1; stroke-width: 0px; fill: rgb(239, 85, 59); fill-opacity: 1;"/><path class="point" transform="translate(135.99,223.64)" d="M3,0A3,3 0 1,1 0,-3A3,3 0 0,1 3,0Z" style="opacity: 1; stroke-width: 0px; fill: rgb(239, 85, 59); fill-opacity: 1;"/><path class="point" transform="translate(134.38,220.06)" d="M3,0A3,3 0 1,1 0,-3A3,3 0 0,1 3,0Z" style="opacity: 1; stroke-width: 0px; fill: rgb(239, 85, 59); fill-opacity: 1;"/><path class="point" transform="translate(133.73,220.01)" d="M3,0A3,3 0 1,1 0,-3A3,3 0 0,1 3,0Z" style="opacity: 1; stroke-width: 0px; fill: rgb(239, 85, 59); fill-opacity: 1;"/><path class="point" transform="translate(136.28,217.57)" d="M3,0A3,3 0 1,1 0,-3A3,3 0 0,1 3,0Z" style="opacity: 1; stroke-width: 0px; fill: rgb(239, 85, 59); fill-opacity: 1;"/><path class="point" transform="translate(134.97,216.28)" d="M3,0A3,3 0 1,1 0,-3A3,3 0 0,1 3,0Z" style="opacity: 1; stroke-width: 0px; fill: rgb(239, 85, 59); fill-opacity: 1;"/><path class="point" transform="translate(136.71,205.79)" d="M3,0A3,3 0 1,1 0,-3A3,3 0 0,1 3,0Z" style="opacity: 1; stroke-width: 0px; fill: rgb(239, 85, 59); fill-opacity: 1;"/><path class="point" transform="translate(133.42,194)" d="M3,0A3,3 0 1,1 0,-3A3,3 0 0,1 3,0Z" style="opacity: 1; stroke-width: 0px; fill: rgb(239, 85, 59); fill-opacity: 1;"/><path class="point" transform="translate(136.59,185.2)" d="M3,0A3,3 0 1,1 0,-3A3,3 0 0,1 3,0Z" style="opacity: 1; stroke-width: 0px; fill: rgb(239, 85, 59); fill-opacity: 1;"/><path class="point" transform="translate(135.05,179.28)" d="M3,0A3,3 0 1,1 0,-3A3,3 0 0,1 3,0Z" style="opacity: 1; stroke-width: 0px; fill: rgb(239, 85, 59); fill-opacity: 1;"/><path class="point" transform="translate(134.44,176.94)" d="M3,0A3,3 0 1,1 0,-3A3,3 0 0,1 3,0Z" style="opacity: 1; stroke-width: 0px; fill: rgb(239, 85, 59); fill-opacity: 1;"/><path class="point" transform="translate(133.29,170.47)" d="M3,0A3,3 0 1,1 0,-3A3,3 0 0,1 3,0Z" style="opacity: 1; stroke-width: 0px; fill: rgb(239, 85, 59); fill-opacity: 1;"/><path class="point" transform="translate(134.61,165.65)" d="M3,0A3,3 0 1,1 0,-3A3,3 0 0,1 3,0Z" style="opacity: 1; stroke-width: 0px; fill: rgb(239, 85, 59); fill-opacity: 1;"/><path class="point" transform="translate(136.25,165.65)" d="M3,0A3,3 0 1,1 0,-3A3,3 0 0,1 3,0Z" style="opacity: 1; stroke-width: 0px; fill: rgb(239, 85, 59); fill-opacity: 1;"/><path class="point" transform="translate(134.86,160.63)" d="M3,0A3,3 0 1,1 0,-3A3,3 0 0,1 3,0Z" style="opacity: 1; stroke-width: 0px; fill: rgb(239, 85, 59); fill-opacity: 1;"/><path class="point" transform="translate(134.11,153.17)" d="M3,0A3,3 0 1,1 0,-3A3,3 0 0,1 3,0Z" style="opacity: 1; stroke-width: 0px; fill: rgb(239, 85, 59); fill-opacity: 1;"/><path class="point" transform="translate(135.89,140.83)" d="M3,0A3,3 0 1,1 0,-3A3,3 0 0,1 3,0Z" style="opacity: 1; stroke-width: 0px; fill: rgb(239, 85, 59); fill-opacity: 1;"/><path class="point" transform="translate(134.52,91.89)" d="M3,0A3,3 0 1,1 0,-3A3,3 0 0,1 3,0Z" style="opacity: 1; stroke-width: 0px; fill: rgb(239, 85, 59); fill-opacity: 1;"/></g></g><g class="trace violins" style="opacity: 1;"><path class="violin" d="M295.5,251.59Q295.87,251.07 296.12,250.83C296.4,250.56 296.76,250.31 297.14,250.08C297.58,249.81 298.1,249.57 298.65,249.33C299.27,249.06 299.98,248.81 300.7,248.57C301.49,248.31 302.36,248.06 303.23,247.82C304.16,247.56 305.14,247.32 306.12,247.07C307.12,246.82 308.16,246.57 309.18,246.32C310.21,246.07 311.25,245.81 312.26,245.56C313.25,245.31 314.23,245.07 315.18,244.81C316.08,244.57 316.97,244.32 317.81,244.06C318.59,243.82 319.36,243.57 320.06,243.3C320.69,243.06 321.31,242.82 321.83,242.55C322.27,242.32 322.73,242.09 323.01,241.8C323.24,241.57 323.46,241.3 323.48,241.04C323.5,240.79 323.34,240.51 323.14,240.29C322.88,240 322.41,239.77 321.95,239.54C321.39,239.26 320.69,239.02 319.98,238.78C319.18,238.51 318.29,238.27 317.4,238.03C316.45,237.77 315.45,237.53 314.46,237.28C313.46,237.03 312.42,236.78 311.42,236.53C310.44,236.28 309.45,236.03 308.51,235.77C307.61,235.52 306.73,235.28 305.9,235.02C305.13,234.78 304.38,234.54 303.7,234.27C303.08,234.03 302.5,233.78 301.97,233.51C301.5,233.27 301.07,233.03 300.69,232.76C300.36,232.52 300.05,232.28 299.8,232.01C299.57,231.77 299.39,231.51 299.23,231.25C299.08,231.01 298.98,230.75 298.88,230.5C298.79,230.25 298.73,230 298.66,229.75C298.59,229.5 298.54,229.24 298.47,228.99C298.4,228.74 298.33,228.49 298.24,228.24C298.15,227.99 298.05,227.74 297.93,227.49C297.81,227.23 297.68,226.98 297.53,226.73C297.38,226.48 297.21,226.23 297.05,225.98C296.89,225.73 296.71,225.48 296.55,225.23C296.39,224.98 296.22,224.73 296.07,224.48C295.92,224.23 295.78,223.98 295.66,223.72C295.54,223.47 295.44,223.22 295.35,222.97C295.26,222.72 295.2,222.47 295.14,222.22C295.08,221.97 295.04,221.71 295.01,221.46C294.98,221.21 294.97,220.96 294.96,220.71C294.95,220.46 294.95,220.21 294.96,219.96C294.97,219.71 294.98,219.45 295.01,219.2C295.04,218.95 295.07,218.7 295.12,218.45C295.17,218.2 295.22,217.95 295.29,217.7C295.36,217.45 295.44,217.19 295.52,216.94C295.6,216.69 295.69,216.44 295.77,216.19C295.85,215.94 295.93,215.69 295.99,215.44C296.05,215.19 296.1,214.94 296.13,214.69C296.16,214.44 296.17,214.18 296.16,213.93C296.15,213.68 296.12,213.43 296.09,213.18C296.06,212.93 296.01,212.68 295.99,212.43C295.96,212.18 295.94,211.92 295.94,211.67C295.94,211.42 295.96,211.17 296,210.92C296.04,210.67 296.12,210.42 296.21,210.17C296.3,209.91 296.42,209.66 296.53,209.41C296.64,209.16 296.78,208.91 296.88,208.66C296.98,208.41 297.09,208.16 297.15,207.91C297.21,207.66 297.25,207.4 297.25,207.15C297.25,206.9 297.21,206.65 297.15,206.4C297.08,206.15 296.97,205.9 296.86,205.65C296.75,205.39 296.6,205.14 296.47,204.89C296.34,204.64 296.2,204.39 296.08,204.14C295.97,203.89 295.85,203.64 295.78,203.39C295.71,203.14 295.66,202.89 295.64,202.64C295.62,202.39 295.62,202.13 295.64,201.88C295.66,201.63 295.72,201.38 295.77,201.13C295.82,200.88 295.9,200.63 295.95,200.38C296,200.13 296.06,199.87 296.09,199.62C296.12,199.37 296.14,199.12 296.14,198.87C296.14,198.62 296.1,198.37 296.06,198.12C296.01,197.87 295.94,197.61 295.87,197.36C295.8,197.11 295.71,196.86 295.63,196.61C295.55,196.36 295.46,196.11 295.39,195.86C295.32,195.61 295.25,195.35 295.19,195.1Q295.13,194.85 295.05,194.35L294.7,194.35Q294.62,194.85 294.56,195.1C294.5,195.35 294.43,195.61 294.36,195.86C294.29,196.11 294.2,196.36 294.12,196.61C294.04,196.86 293.95,197.11 293.88,197.36C293.81,197.61 293.74,197.87 293.69,198.12C293.65,198.37 293.61,198.62 293.61,198.87C293.61,199.12 293.63,199.37 293.66,199.62C293.69,199.87 293.75,200.13 293.8,200.38C293.85,200.63 293.93,200.88 293.98,201.13C294.03,201.38 294.09,201.63 294.11,201.88C294.13,202.13 294.13,202.39 294.11,202.64C294.09,202.89 294.04,203.14 293.97,203.39C293.9,203.64 293.78,203.89 293.67,204.14C293.55,204.39 293.41,204.64 293.28,204.89C293.15,205.14 293,205.39 292.89,205.65C292.78,205.9 292.67,206.15 292.6,206.4C292.54,206.65 292.5,206.9 292.5,207.15C292.5,207.4 292.54,207.66 292.6,207.91C292.66,208.16 292.77,208.41 292.87,208.66C292.97,208.91 293.11,209.16 293.22,209.41C293.33,209.66 293.45,209.91 293.54,210.17C293.63,210.42 293.71,210.67 293.75,210.92C293.79,211.17 293.81,211.42 293.81,211.67C293.81,211.92 293.79,212.18 293.76,212.43C293.74,212.68 293.69,212.93 293.66,213.18C293.63,213.43 293.6,213.68 293.59,213.93C293.58,214.18 293.59,214.44 293.62,214.69C293.65,214.94 293.7,215.19 293.76,215.44C293.82,215.69 293.9,215.94 293.98,216.19C294.06,216.44 294.15,216.69 294.23,216.94C294.31,217.19 294.39,217.45 294.46,217.7C294.53,217.95 294.58,218.2 294.63,218.45C294.68,218.7 294.71,218.95 294.74,219.2C294.77,219.45 294.78,219.71 294.79,219.96C294.8,220.21 294.8,220.46 294.79,220.71C294.78,220.96 294.77,221.21 294.74,221.46C294.71,221.71 294.67,221.97 294.61,222.22C294.55,222.47 294.49,222.72 294.4,222.97C294.31,223.22 294.21,223.47 294.09,223.72C293.97,223.98 293.83,224.23 293.68,224.48C293.53,224.73 293.36,224.98 293.2,225.23C293.04,225.48 292.86,225.73 292.7,225.98C292.54,226.23 292.37,226.48 292.22,226.73C292.07,226.98 291.94,227.23 291.82,227.49C291.7,227.74 291.6,227.99 291.51,228.24C291.42,228.49 291.35,228.74 291.28,228.99C291.21,229.24 291.16,229.5 291.09,229.75C291.02,230 290.96,230.25 290.87,230.5C290.77,230.75 290.67,231.01 290.52,231.25C290.36,231.51 290.18,231.77 289.95,232.01C289.7,232.28 289.39,232.52 289.06,232.76C288.68,233.03 288.25,233.27 287.78,233.51C287.25,233.78 286.67,234.03 286.05,234.27C285.37,234.54 284.62,234.78 283.85,235.02C283.02,235.28 282.14,235.52 281.24,235.77C280.3,236.03 279.31,236.28 278.33,236.53C277.33,236.78 276.29,237.03 275.29,237.28C274.3,237.53 273.3,237.77 272.35,238.03C271.46,238.27 270.57,238.51 269.77,238.78C269.06,239.02 268.36,239.26 267.8,239.54C267.34,239.77 266.87,240 266.61,240.29C266.41,240.51 266.25,240.79 266.27,241.04C266.29,241.3 266.51,241.57 266.74,241.8C267.02,242.09 267.48,242.32 267.92,242.55C268.44,242.82 269.06,243.06 269.69,243.3C270.39,243.57 271.16,243.82 271.94,244.06C272.78,244.32 273.67,244.57 274.57,244.81C275.52,245.07 276.5,245.31 277.49,245.56C278.5,245.81 279.54,246.07 280.57,246.32C281.59,246.57 282.63,246.82 283.63,247.07C284.61,247.32 285.59,247.56 286.52,247.82C287.39,248.06 288.26,248.31 289.05,248.57C289.77,248.81 290.48,249.06 291.1,249.33C291.65,249.57 292.17,249.81 292.61,250.08C292.99,250.31 293.35,250.56 293.63,250.83Q293.88,251.07 294.25,251.59Z" style="vector-effect: non-scaling-stroke; stroke-width: 2px; stroke: rgb(0, 204, 150); stroke-opacity: 1; fill: rgb(0, 204, 150); fill-opacity: 0.5;"/><g class="points"><path class="point" transform="translate(254.48,247.02)" d="M3,0A3,3 0 1,1 0,-3A3,3 0 0,1 3,0Z" style="opacity: 1; stroke-width: 0px; fill: rgb(0, 204, 150); fill-opacity: 1;"/><path class="point" transform="translate(248.8,246.82)" d="M3,0A3,3 0 1,1 0,-3A3,3 0 0,1 3,0Z" style="opacity: 1; stroke-width: 0px; fill: rgb(0, 204, 150); fill-opacity: 1;"/><path class="point" transform="translate(255.94,246.67)" d="M3,0A3,3 0 1,1 0,-3A3,3 0 0,1 3,0Z" style="opacity: 1; stroke-width: 0px; fill: rgb(0, 204, 150); fill-opacity: 1;"/><path class="point" transform="translate(247.42,246.27)" d="M3,0A3,3 0 1,1 0,-3A3,3 0 0,1 3,0Z" style="opacity: 1; stroke-width: 0px; fill: rgb(0, 204, 150); fill-opacity: 1;"/><path class="point" transform="translate(250.61,245.72)" d="M3,0A3,3 0 1,1 0,-3A3,3 0 0,1 3,0Z" style="opacity: 1; stroke-width: 0px; fill: rgb(0, 204, 150); fill-opacity: 1;"/><path class="point" transform="translate(254.8,244.83)" d="M3,0A3,3 0 1,1 0,-3A3,3 0 0,1 3,0Z" style="opacity: 1; stroke-width: 0px; fill: rgb(0, 204, 150); fill-opacity: 1;"/><path class="point" transform="translate(251.77,244.53)" d="M3,0A3,3 0 1,1 0,-3A3,3 0 0,1 3,0Z" style="opacity: 1; stroke-width: 0px; fill: rgb(0, 204, 150); fill-opacity: 1;"/><path class="point" transform="translate(253.54,244.28)" d="M3,0A3,3 0 1,1 0,-3A3,3 0 0,1 3,0Z" style="opacity: 1; stroke-width: 0px; fill: rgb(0, 204, 150); fill-opacity: 1;"/><path class="point" transform="translate(250.16,244.18)" d="M3,0A3,3 0 1,1 0,-3A3,3 0 0,1 3,0Z" style="opacity: 1; stroke-width: 0px; fill: rgb(0, 204, 150); fill-opacity: 1;"/><path class="point" transform="translate(247.84,243.98)" d="M3,0A3,3 0 1,1 0,-3A3,3 0 0,1 3,0Z" style="opacity: 1; stroke-width: 0px; fill: rgb(0, 204, 150); fill-opacity: 1;"/><path class="point" transform="translate(253.74,243.49)" d="M3,0A3,3 0 1,1 0,-3A3,3 0 0,1 3,0Z" style="opacity: 1; stroke-width: 0px; fill: rgb(0, 204, 150); fill-opacity: 1;"/><path class="point" transform="translate(249.77,243.39)" d="M3,0A3,3 0 1,1 0,-3A3,3 0 0,1 3,0Z" style="opacity: 1; stroke-width: 0px; fill: rgb(0, 204, 150); fill-opacity: 1;"/><path class="point" transform="translate(256.08,243.19)" d="M3,0A3,3 0 1,1 0,-3A3,3 0 0,1 3,0Z" style="opacity: 1; stroke-width: 0px; fill: rgb(0, 204, 150); fill-opacity: 1;"/><path class="point" transform="translate(245.59,243.09)" d="M3,0A3,3 0 1,1 0,-3A3,3 0 0,1 3,0Z" style="opacity: 1; stroke-width: 0px; fill: rgb(0, 204, 150); fill-opacity: 1;"/><path class="point" transform="translate(248.46,242.49)" d="M3,0A3,3 0 1,1 0,-3A3,3 0 0,1 3,0Z" style="opacity: 1; stroke-width: 0px; fill: rgb(0, 204, 150); fill-opacity: 1;"/><path class="point" transform="translate(257.49,242.49)" d="M3,0A3,3 0 1,1 0,-3A3,3 0 0,1 3,0Z" style="opacity: 1; stroke-width: 0px; fill: rgb(0, 204, 150); fill-opacity: 1;"/><path class="point" transform="translate(250.43,242.24)" d="M3,0A3,3 0 1,1 0,-3A3,3 0 0,1 3,0Z" style="opacity: 1; stroke-width: 0px; fill: rgb(0, 204, 150); fill-opacity: 1;"/><path class="point" transform="translate(246.71,241.84)" d="M3,0A3,3 0 1,1 0,-3A3,3 0 0,1 3,0Z" style="opacity: 1; stroke-width: 0px; fill: rgb(0, 204, 150); fill-opacity: 1;"/><path class="point" transform="translate(249.93,241.79)" d="M3,0A3,3 0 1,1 0,-3A3,3 0 0,1 3,0Z" style="opacity: 1; stroke-width: 0px; fill: rgb(0, 204, 150); fill-opacity: 1;"/><path class="point" transform="translate(251.82,241.2)" d="M3,0A3,3 0 1,1 0,-3A3,3 0 0,1 3,0Z" style="opacity: 1; stroke-width: 0px; fill: rgb(0, 204, 150); fill-opacity: 1;"/><path class="point" transform="translate(254.89,240.85)" d="M3,0A3,3 0 1,1 0,-3A3,3 0 0,1 3,0Z" style="opacity: 1; stroke-width: 0px; fill: rgb(0, 204, 150); fill-opacity: 1;"/><path class="point" transform="translate(252.69,240.65)" d="M3,0A3,3 0 1,1 0,-3A3,3 0 0,1 3,0Z" style="opacity: 1; stroke-width: 0px; fill: rgb(0, 204, 150); fill-opacity: 1;"/><path class="point" transform="translate(250.04,240.45)" d="M3,0A3,3 0 1,1 0,-3A3,3 0 0,1 3,0Z" style="opacity: 1; stroke-width: 0px; fill: rgb(0, 204, 150); fill-opacity: 1;"/><path class="point" transform="translate(246.18,240.4)" d="M3,0A3,3 0 1,1 0,-3A3,3 0 0,1 3,0Z" style="opacity: 1; stroke-width: 0px; fill: rgb(0, 204, 150); fill-opacity: 1;"/><path class="point" transform="translate(251.95,240.3)" d="M3,0A3,3 0 1,1 0,-3A3,3 0 0,1 3,0Z" style="opacity: 1; stroke-width: 0px; fill: rgb(0, 204, 150); fill-opacity: 1;"/><path class="point" transform="translate(249.46,240.05)" d="M3,0A3,3 0 1,1 0,-3A3,3 0 0,1 3,0Z" style="opacity: 1; stroke-width: 0px; fill: rgb(0, 204, 150); fill-opacity: 1;"/><path class="point" transform="translate(255.54,239.8)" d="M3,0A3,3 0 1,1 0,-3A3,3 0 0,1 3,0Z" style="opacity: 1; stroke-width: 0px; fill: rgb(0, 204, 150); fill-opacity: 1;"/><path class="point" transform="translate(251.36,239.66)" d="M3,0A3,3 0 1,1 0,-3A3,3 0 0,1 3,0Z" style="opacity: 1; stroke-width: 0px; fill: rgb(0, 204, 150); fill-opacity: 1;"/><path class="point" transform="translate(247.54,239.66)" d="M3,0A3,3 0 1,1 0,-3A3,3 0 0,1 3,0Z" style="opacity: 1; stroke-width: 0px; fill: rgb(0, 204, 150); fill-opacity: 1;"/><path class="point" transform="translate(245.51,239.56)" d="M3,0A3,3 0 1,1 0,-3A3,3 0 0,1 3,0Z" style="opacity: 1; stroke-width: 0px; fill: rgb(0, 204, 150); fill-opacity: 1;"/><path class="point" transform="translate(255.42,239.46)" d="M3,0A3,3 0 1,1 0,-3A3,3 0 0,1 3,0Z" style="opacity: 1; stroke-width: 0px; fill: rgb(0, 204, 150); fill-opacity: 1;"/><path class="point" transform="translate(246.83,238.91)" d="M3,0A3,3 0 1,1 0,-3A3,3 0 0,1 3,0Z" style="opacity: 1; stroke-width: 0px; fill: rgb(0, 204, 150); fill-opacity: 1;"/><path class="point" transform="translate(255.54,238.26)" d="M3,0A3,3 0 1,1 0,-3A3,3 0 0,1 3,0Z" style="opacity: 1; stroke-width: 0px; fill: rgb(0, 204, 150); fill-opacity: 1;"/><path class="point" transform="translate(253.16,238.16)" d="M3,0A3,3 0 1,1 0,-3A3,3 0 0,1 3,0Z" style="opacity: 1; stroke-width: 0px; fill: rgb(0, 204, 150); fill-opacity: 1;"/><path class="point" transform="translate(250.4,238.16)" d="M3,0A3,3 0 1,1 0,-3A3,3 0 0,1 3,0Z" style="opacity: 1; stroke-width: 0px; fill: rgb(0, 204, 150); fill-opacity: 1;"/><path class="point" transform="translate(248.89,237.32)" d="M3,0A3,3 0 1,1 0,-3A3,3 0 0,1 3,0Z" style="opacity: 1; stroke-width: 0px; fill: rgb(0, 204, 150); fill-opacity: 1;"/><path class="point" transform="translate(253.92,236.97)" d="M3,0A3,3 0 1,1 0,-3A3,3 0 0,1 3,0Z" style="opacity: 1; stroke-width: 0px; fill: rgb(0, 204, 150); fill-opacity: 1;"/><path class="point" transform="translate(251.51,236.82)" d="M3,0A3,3 0 1,1 0,-3A3,3 0 0,1 3,0Z" style="opacity: 1; stroke-width: 0px; fill: rgb(0, 204, 150); fill-opacity: 1;"/><path class="point" transform="translate(254.41,236.22)" d="M3,0A3,3 0 1,1 0,-3A3,3 0 0,1 3,0Z" style="opacity: 1; stroke-width: 0px; fill: rgb(0, 204, 150); fill-opacity: 1;"/><path class="point" transform="translate(249.22,235.88)" d="M3,0A3,3 0 1,1 0,-3A3,3 0 0,1 3,0Z" style="opacity: 1; stroke-width: 0px; fill: rgb(0, 204, 150); fill-opacity: 1;"/><path class="point" transform="translate(253.93,235.68)" d="M3,0A3,3 0 1,1 0,-3A3,3 0 0,1 3,0Z" style="opacity: 1; stroke-width: 0px; fill: rgb(0, 204, 150); fill-opacity: 1;"/><path class="point" transform="translate(251.79,233.44)" d="M3,0A3,3 0 1,1 0,-3A3,3 0 0,1 3,0Z" style="opacity: 1; stroke-width: 0px; fill: rgb(0, 204, 150); fill-opacity: 1;"/><path class="point" transform="translate(251.23,232.74)" d="M3,0A3,3 0 1,1 0,-3A3,3 0 0,1 3,0Z" style="opacity: 1; stroke-width: 0px; fill: rgb(0, 204, 150); fill-opacity: 1;"/><path class="point" transform="translate(250.15,230.06)" d="M3,0A3,3 0 1,1 0,-3A3,3 0 0,1 3,0Z" style="opacity: 1; stroke-width: 0px; fill: rgb(0, 204, 150); fill-opacity: 1;"/><path class="point" transform="translate(251.32,228.56)" d="M3,0A3,3 0 1,1 0,-3A3,3 0 0,1 3,0Z" style="opacity: 1; stroke-width: 0px; fill: rgb(0, 204, 150); fill-opacity: 1;"/><path class="point" transform="translate(253.03,226.43)" d="M3,0A3,3 0 1,1 0,-3A3,3 0 0,1 3,0Z" style="opacity: 1; stroke-width: 0px; fill: rgb(0, 204, 150); fill-opacity: 1;"/><path class="point" transform="translate(251.6,214.29)" d="M3,0A3,3 0 1,1 0,-3A3,3 0 0,1 3,0Z" style="opacity: 1; stroke-width: 0px; fill: rgb(0, 204, 150); fill-opacity: 1;"/><path class="point" transform="translate(250.84,207.92)" d="M3,0A3,3 0 1,1 0,-3A3,3 0 0,1 3,0Z" style="opacity: 1; stroke-width: 0px; fill: rgb(0, 204, 150); fill-opacity: 1;"/><path class="point" transform="translate(252.65,206.33)" d="M3,0A3,3 0 1,1 0,-3A3,3 0 0,1 3,0Z" style="opacity: 1; stroke-width: 0px; fill: rgb(0, 204, 150); fill-opacity: 1;"/><path class="point" transform="translate(251.26,198.92)" d="M3,0A3,3 0 1,1 0,-3A3,3 0 0,1 3,0Z" style="opacity: 1; stroke-width: 0px; fill: rgb(0, 204, 150); fill-opacity: 1;"/></g></g><g class="trace violins" style="opacity: 1;"><path class="violin" d="M411.93,257.95Q412.11,256.36 412.26,255.57C412.41,254.77 412.6,253.97 412.84,253.18C413.08,252.38 413.38,251.58 413.72,250.8C414.07,249.99 414.49,249.2 414.92,248.41C415.36,247.61 415.86,246.81 416.35,246.02C416.84,245.22 417.38,244.44 417.86,243.64C418.34,242.85 418.82,242.06 419.22,241.25C419.61,240.46 419.97,239.67 420.25,238.86C420.52,238.08 420.74,237.28 420.89,236.48C421.04,235.69 421.11,234.89 421.15,234.09C421.19,233.3 421.16,232.5 421.13,231.71C421.1,230.91 421.03,230.12 420.94,229.32C420.85,228.52 420.74,227.72 420.61,226.93C420.48,226.13 420.33,225.34 420.15,224.55C419.97,223.75 419.76,222.95 419.54,222.16C419.32,221.36 419.06,220.57 418.81,219.78C418.56,218.98 418.28,218.19 418.03,217.39C417.78,216.59 417.52,215.8 417.29,215C417.06,214.21 416.83,213.42 416.63,212.62C416.43,211.83 416.25,211.03 416.08,210.23C415.91,209.44 415.75,208.64 415.59,207.85C415.43,207.05 415.27,206.26 415.11,205.46C414.95,204.66 414.79,203.87 414.62,203.07C414.46,202.28 414.28,201.48 414.12,200.69C413.96,199.89 413.79,199.1 413.64,198.3C413.49,197.5 413.34,196.71 413.21,195.91C413.08,195.12 412.96,194.32 412.86,193.53C412.75,192.73 412.66,191.94 412.58,191.14C412.5,190.35 412.43,189.55 412.36,188.76C412.29,187.96 412.23,187.17 412.18,186.37C412.13,185.57 412.09,184.78 412.04,183.98C412,183.19 411.95,182.39 411.91,181.6C411.87,180.8 411.84,180.01 411.81,179.21C411.78,178.42 411.75,177.62 411.73,176.83C411.71,176.03 411.7,175.24 411.69,174.44C411.68,173.64 411.66,172.85 411.66,172.05C411.66,171.26 411.66,170.46 411.66,169.67C411.66,168.87 411.67,168.08 411.68,167.28C411.69,166.48 411.71,165.69 411.73,164.89C411.75,164.1 411.77,163.3 411.79,162.51C411.81,161.71 411.84,160.92 411.87,160.12C411.9,159.33 411.93,158.53 411.95,157.74C411.97,156.94 411.99,156.15 412,155.35C412.01,154.55 412.03,153.76 412.03,152.96C412.03,152.17 412.01,151.37 412,150.58C411.99,149.78 411.97,148.99 411.95,148.19C411.93,147.4 411.9,146.6 411.87,145.81C411.84,145.01 411.82,144.22 411.79,143.42C411.77,142.62 411.74,141.83 411.72,141.03Q411.7,140.24 411.68,138.65L411.57,138.65Q411.55,140.24 411.53,141.03C411.51,141.83 411.48,142.62 411.46,143.42C411.43,144.22 411.41,145.01 411.38,145.81C411.35,146.6 411.32,147.4 411.3,148.19C411.28,148.99 411.26,149.78 411.25,150.58C411.24,151.37 411.22,152.17 411.22,152.96C411.22,153.76 411.24,154.55 411.25,155.35C411.26,156.15 411.28,156.94 411.3,157.74C411.32,158.53 411.35,159.33 411.38,160.12C411.41,160.92 411.44,161.71 411.46,162.51C411.48,163.3 411.5,164.1 411.52,164.89C411.54,165.69 411.56,166.48 411.57,167.28C411.58,168.08 411.59,168.87 411.59,169.67C411.59,170.46 411.59,171.26 411.59,172.05C411.59,172.85 411.57,173.64 411.56,174.44C411.55,175.24 411.54,176.03 411.52,176.83C411.5,177.62 411.47,178.42 411.44,179.21C411.41,180.01 411.38,180.8 411.34,181.6C411.3,182.39 411.25,183.19 411.21,183.98C411.16,184.78 411.12,185.57 411.07,186.37C411.02,187.17 410.96,187.96 410.89,188.76C410.82,189.55 410.75,190.35 410.67,191.14C410.59,191.94 410.5,192.73 410.39,193.53C410.29,194.32 410.17,195.12 410.04,195.91C409.91,196.71 409.76,197.5 409.61,198.3C409.46,199.1 409.29,199.89 409.13,200.69C408.97,201.48 408.79,202.28 408.63,203.07C408.46,203.87 408.3,204.66 408.14,205.46C407.98,206.26 407.82,207.05 407.66,207.85C407.5,208.64 407.34,209.44 407.17,210.23C407,211.03 406.82,211.83 406.62,212.62C406.42,213.42 406.19,214.21 405.96,215C405.73,215.8 405.47,216.59 405.22,217.39C404.97,218.19 404.69,218.98 404.44,219.78C404.19,220.57 403.93,221.36 403.71,222.16C403.49,222.95 403.28,223.75 403.1,224.55C402.92,225.34 402.77,226.13 402.64,226.93C402.51,227.72 402.4,228.52 402.31,229.32C402.22,230.12 402.15,230.91 402.12,231.71C402.09,232.5 402.06,233.3 402.1,234.09C402.14,234.89 402.21,235.69 402.36,236.48C402.51,237.28 402.73,238.08 403,238.86C403.28,239.67 403.64,240.46 404.03,241.25C404.43,242.06 404.91,242.85 405.39,243.64C405.87,244.44 406.41,245.22 406.9,246.02C407.39,246.81 407.89,247.61 408.33,248.41C408.76,249.2 409.18,249.99 409.53,250.8C409.87,251.58 410.17,252.38 410.41,253.18C410.65,253.97 410.84,254.77 410.99,255.57Q411.14,256.36 411.32,257.95Z" style="vector-effect: non-scaling-stroke; stroke-width: 2px; stroke: rgb(171, 99, 250); stroke-opacity: 1; fill: rgb(171, 99, 250); fill-opacity: 0.5;"/><g class="points"><path class="point" transform="translate(372.05,243.63)" d="M3,0A3,3 0 1,1 0,-3A3,3 0 0,1 3,0Z" style="opacity: 1; stroke-width: 0px; fill: rgb(171, 99, 250); fill-opacity: 1;"/><path class="point" transform="translate(364.81,242.79)" d="M3,0A3,3 0 1,1 0,-3A3,3 0 0,1 3,0Z" style="opacity: 1; stroke-width: 0px; fill: rgb(171, 99, 250); fill-opacity: 1;"/><path class="point" transform="translate(373.8,241.64)" d="M3,0A3,3 0 1,1 0,-3A3,3 0 0,1 3,0Z" style="opacity: 1; stroke-width: 0px; fill: rgb(171, 99, 250); fill-opacity: 1;"/><path class="point" transform="translate(362.87,241.64)" d="M3,0A3,3 0 1,1 0,-3A3,3 0 0,1 3,0Z" style="opacity: 1; stroke-width: 0px; fill: rgb(171, 99, 250); fill-opacity: 1;"/><path class="point" transform="translate(366.99,241.64)" d="M3,0A3,3 0 1,1 0,-3A3,3 0 0,1 3,0Z" style="opacity: 1; stroke-width: 0px; fill: rgb(171, 99, 250); fill-opacity: 1;"/><path class="point" transform="translate(372.58,240.35)" d="M3,0A3,3 0 1,1 0,-3A3,3 0 0,1 3,0Z" style="opacity: 1; stroke-width: 0px; fill: rgb(171, 99, 250); fill-opacity: 1;"/><path class="point" transform="translate(368.43,239.31)" d="M3,0A3,3 0 1,1 0,-3A3,3 0 0,1 3,0Z" style="opacity: 1; stroke-width: 0px; fill: rgb(171, 99, 250); fill-opacity: 1;"/><path class="point" transform="translate(371.21,239.21)" d="M3,0A3,3 0 1,1 0,-3A3,3 0 0,1 3,0Z" style="opacity: 1; stroke-width: 0px; fill: rgb(171, 99, 250); fill-opacity: 1;"/><path class="point" transform="translate(366.16,239.11)" d="M3,0A3,3 0 1,1 0,-3A3,3 0 0,1 3,0Z" style="opacity: 1; stroke-width: 0px; fill: rgb(171, 99, 250); fill-opacity: 1;"/><path class="point" transform="translate(363.41,238.66)" d="M3,0A3,3 0 1,1 0,-3A3,3 0 0,1 3,0Z" style="opacity: 1; stroke-width: 0px; fill: rgb(171, 99, 250); fill-opacity: 1;"/><path class="point" transform="translate(370.8,238.61)" d="M3,0A3,3 0 1,1 0,-3A3,3 0 0,1 3,0Z" style="opacity: 1; stroke-width: 0px; fill: rgb(171, 99, 250); fill-opacity: 1;"/><path class="point" transform="translate(366.11,238.26)" d="M3,0A3,3 0 1,1 0,-3A3,3 0 0,1 3,0Z" style="opacity: 1; stroke-width: 0px; fill: rgb(171, 99, 250); fill-opacity: 1;"/><path class="point" transform="translate(373.14,237.96)" d="M3,0A3,3 0 1,1 0,-3A3,3 0 0,1 3,0Z" style="opacity: 1; stroke-width: 0px; fill: rgb(171, 99, 250); fill-opacity: 1;"/><path class="point" transform="translate(362.56,237.42)" d="M3,0A3,3 0 1,1 0,-3A3,3 0 0,1 3,0Z" style="opacity: 1; stroke-width: 0px; fill: rgb(171, 99, 250); fill-opacity: 1;"/><path class="point" transform="translate(365.07,236.47)" d="M3,0A3,3 0 1,1 0,-3A3,3 0 0,1 3,0Z" style="opacity: 1; stroke-width: 0px; fill: rgb(171, 99, 250); fill-opacity: 1;"/><path class="point" transform="translate(374.28,235.88)" d="M3,0A3,3 0 1,1 0,-3A3,3 0 0,1 3,0Z" style="opacity: 1; stroke-width: 0px; fill: rgb(171, 99, 250); fill-opacity: 1;"/><path class="point" transform="translate(367.27,234.98)" d="M3,0A3,3 0 1,1 0,-3A3,3 0 0,1 3,0Z" style="opacity: 1; stroke-width: 0px; fill: rgb(171, 99, 250); fill-opacity: 1;"/><path class="point" transform="translate(364.05,233.64)" d="M3,0A3,3 0 1,1 0,-3A3,3 0 0,1 3,0Z" style="opacity: 1; stroke-width: 0px; fill: rgb(171, 99, 250); fill-opacity: 1;"/><path class="point" transform="translate(366.96,232.34)" d="M3,0A3,3 0 1,1 0,-3A3,3 0 0,1 3,0Z" style="opacity: 1; stroke-width: 0px; fill: rgb(171, 99, 250); fill-opacity: 1;"/><path class="point" transform="translate(368.61,231.85)" d="M3,0A3,3 0 1,1 0,-3A3,3 0 0,1 3,0Z" style="opacity: 1; stroke-width: 0px; fill: rgb(171, 99, 250); fill-opacity: 1;"/><path class="point" transform="translate(371.1,231.75)" d="M3,0A3,3 0 1,1 0,-3A3,3 0 0,1 3,0Z" style="opacity: 1; stroke-width: 0px; fill: rgb(171, 99, 250); fill-opacity: 1;"/><path class="point" transform="translate(369.33,230.16)" d="M3,0A3,3 0 1,1 0,-3A3,3 0 0,1 3,0Z" style="opacity: 1; stroke-width: 0px; fill: rgb(171, 99, 250); fill-opacity: 1;"/><path class="point" transform="translate(367.08,228.81)" d="M3,0A3,3 0 1,1 0,-3A3,3 0 0,1 3,0Z" style="opacity: 1; stroke-width: 0px; fill: rgb(171, 99, 250); fill-opacity: 1;"/><path class="point" transform="translate(363.5,227.82)" d="M3,0A3,3 0 1,1 0,-3A3,3 0 0,1 3,0Z" style="opacity: 1; stroke-width: 0px; fill: rgb(171, 99, 250); fill-opacity: 1;"/><path class="point" transform="translate(368.7,226.97)" d="M3,0A3,3 0 1,1 0,-3A3,3 0 0,1 3,0Z" style="opacity: 1; stroke-width: 0px; fill: rgb(171, 99, 250); fill-opacity: 1;"/><path class="point" transform="translate(366.94,226.18)" d="M3,0A3,3 0 1,1 0,-3A3,3 0 0,1 3,0Z" style="opacity: 1; stroke-width: 0px; fill: rgb(171, 99, 250); fill-opacity: 1;"/><path class="point" transform="translate(371.66,225.98)" d="M3,0A3,3 0 1,1 0,-3A3,3 0 0,1 3,0Z" style="opacity: 1; stroke-width: 0px; fill: rgb(171, 99, 250); fill-opacity: 1;"/><path class="point" transform="translate(368.17,225.58)" d="M3,0A3,3 0 1,1 0,-3A3,3 0 0,1 3,0Z" style="opacity: 1; stroke-width: 0px; fill: rgb(171, 99, 250); fill-opacity: 1;"/><path class="point" transform="translate(364.78,225.38)" d="M3,0A3,3 0 1,1 0,-3A3,3 0 0,1 3,0Z" style="opacity: 1; stroke-width: 0px; fill: rgb(171, 99, 250); fill-opacity: 1;"/><path class="point" transform="translate(362.79,224.93)" d="M3,0A3,3 0 1,1 0,-3A3,3 0 0,1 3,0Z" style="opacity: 1; stroke-width: 0px; fill: rgb(171, 99, 250); fill-opacity: 1;"/><path class="point" transform="translate(372.4,224.44)" d="M3,0A3,3 0 1,1 0,-3A3,3 0 0,1 3,0Z" style="opacity: 1; stroke-width: 0px; fill: rgb(171, 99, 250); fill-opacity: 1;"/><path class="point" transform="translate(363.1,223.34)" d="M3,0A3,3 0 1,1 0,-3A3,3 0 0,1 3,0Z" style="opacity: 1; stroke-width: 0px; fill: rgb(171, 99, 250); fill-opacity: 1;"/><path class="point" transform="translate(372.28,221.7)" d="M3,0A3,3 0 1,1 0,-3A3,3 0 0,1 3,0Z" style="opacity: 1; stroke-width: 0px; fill: rgb(171, 99, 250); fill-opacity: 1;"/><path class="point" transform="translate(370.02,220.36)" d="M3,0A3,3 0 1,1 0,-3A3,3 0 0,1 3,0Z" style="opacity: 1; stroke-width: 0px; fill: rgb(171, 99, 250); fill-opacity: 1;"/><path class="point" transform="translate(367.25,220.26)" d="M3,0A3,3 0 1,1 0,-3A3,3 0 0,1 3,0Z" style="opacity: 1; stroke-width: 0px; fill: rgb(171, 99, 250); fill-opacity: 1;"/><path class="point" transform="translate(366.13,219.81)" d="M3,0A3,3 0 1,1 0,-3A3,3 0 0,1 3,0Z" style="opacity: 1; stroke-width: 0px; fill: rgb(171, 99, 250); fill-opacity: 1;"/><path class="point" transform="translate(370.77,219.71)" d="M3,0A3,3 0 1,1 0,-3A3,3 0 0,1 3,0Z" style="opacity: 1; stroke-width: 0px; fill: rgb(171, 99, 250); fill-opacity: 1;"/><path class="point" transform="translate(368.21,218.02)" d="M3,0A3,3 0 1,1 0,-3A3,3 0 0,1 3,0Z" style="opacity: 1; stroke-width: 0px; fill: rgb(171, 99, 250); fill-opacity: 1;"/><path class="point" transform="translate(371.74,217.72)" d="M3,0A3,3 0 1,1 0,-3A3,3 0 0,1 3,0Z" style="opacity: 1; stroke-width: 0px; fill: rgb(171, 99, 250); fill-opacity: 1;"/><path class="point" transform="translate(365.05,213.69)" d="M3,0A3,3 0 1,1 0,-3A3,3 0 0,1 3,0Z" style="opacity: 1; stroke-width: 0px; fill: rgb(171, 99, 250); fill-opacity: 1;"/><path class="point" transform="translate(371.43,210.26)" d="M3,0A3,3 0 1,1 0,-3A3,3 0 0,1 3,0Z" style="opacity: 1; stroke-width: 0px; fill: rgb(171, 99, 250); fill-opacity: 1;"/><path class="point" transform="translate(368.4,210.21)" d="M3,0A3,3 0 1,1 0,-3A3,3 0 0,1 3,0Z" style="opacity: 1; stroke-width: 0px; fill: rgb(171, 99, 250); fill-opacity: 1;"/><path class="point" transform="translate(367.27,209.86)" d="M3,0A3,3 0 1,1 0,-3A3,3 0 0,1 3,0Z" style="opacity: 1; stroke-width: 0px; fill: rgb(171, 99, 250); fill-opacity: 1;"/><path class="point" transform="translate(365.71,206.33)" d="M3,0A3,3 0 1,1 0,-3A3,3 0 0,1 3,0Z" style="opacity: 1; stroke-width: 0px; fill: rgb(171, 99, 250); fill-opacity: 1;"/><path class="point" transform="translate(367.89,205.98)" d="M3,0A3,3 0 1,1 0,-3A3,3 0 0,1 3,0Z" style="opacity: 1; stroke-width: 0px; fill: rgb(171, 99, 250); fill-opacity: 1;"/><path class="point" transform="translate(370.1,204.74)" d="M3,0A3,3 0 1,1 0,-3A3,3 0 0,1 3,0Z" style="opacity: 1; stroke-width: 0px; fill: rgb(171, 99, 250); fill-opacity: 1;"/><path class="point" transform="translate(368.25,201.76)" d="M3,0A3,3 0 1,1 0,-3A3,3 0 0,1 3,0Z" style="opacity: 1; stroke-width: 0px; fill: rgb(171, 99, 250); fill-opacity: 1;"/><path class="point" transform="translate(367.3,198.23)" d="M3,0A3,3 0 1,1 0,-3A3,3 0 0,1 3,0Z" style="opacity: 1; stroke-width: 0px; fill: rgb(171, 99, 250); fill-opacity: 1;"/><path class="point" transform="translate(369.56,188.73)" d="M3,0A3,3 0 1,1 0,-3A3,3 0 0,1 3,0Z" style="opacity: 1; stroke-width: 0px; fill: rgb(171, 99, 250); fill-opacity: 1;"/><path class="point" transform="translate(367.86,152.97)" d="M3,0A3,3 0 1,1 0,-3A3,3 0 0,1 3,0Z" style="opacity: 1; stroke-width: 0px; fill: rgb(171, 99, 250); fill-opacity: 1;"/></g></g></g></g><g class="overplot"/><path class="xlines-above crisp" d="" style="fill: none; stroke-width: 1px; stroke: rgb(0, 0, 0); stroke-opacity: 0;"/><path class="ylines-above crisp" d="" style="fill: none; stroke-width: 1px; stroke: rgb(0, 0, 0); stroke-opacity: 0;"/><g class="overlines-above"/><g class="xaxislayer-above"><path class="xtick ticks crisp" d="M0,421v5" transform="translate(141.38,0)" style="stroke: rgb(51, 51, 51); stroke-opacity: 1; stroke-width: 1px;"/><path class="xtick ticks crisp" d="M0,421v5" transform="translate(258.13,0)" style="stroke: rgb(51, 51, 51); stroke-opacity: 1; stroke-width: 1px;"/><path class="xtick ticks crisp" d="M0,421v5" transform="translate(374.88,0)" style="stroke: rgb(51, 51, 51); stroke-opacity: 1; stroke-width: 1px;"/><path class="xtick ticks crisp" d="M0,421v5" transform="translate(491.63,0)" style="stroke: rgb(51, 51, 51); stroke-opacity: 1; stroke-width: 1px;"/><g class="xtick"><text text-anchor="middle" x="0" y="440.4" transform="translate(141.38,0)" style="font-family: 'Open Sans', verdana, arial, sans-serif; font-size: 12px; fill: rgb(51, 51, 51); fill-opacity: 1; white-space: pre; opacity: 1;">s_eff_cnn_id</text></g><g class="xtick"><text text-anchor="middle" x="0" y="440.4" transform="translate(258.13,0)" style="font-family: 'Open Sans', verdana, arial, sans-serif; font-size: 12px; fill: rgb(51, 51, 51); fill-opacity: 1; white-space: pre; opacity: 1;">s_eff_cnn_hw</text></g><g class="xtick"><text text-anchor="middle" x="0" y="440.4" transform="translate(374.88,0)" style="font-family: 'Open Sans', verdana, arial, sans-serif; font-size: 12px; fill: rgb(51, 51, 51); fill-opacity: 1; white-space: pre; opacity: 1;">aisy_mlp_id</text></g><g class="xtick"><text text-anchor="middle" x="0" y="440.4" transform="translate(491.63,0)" style="font-family: 'Open Sans', verdana, arial, sans-serif; font-size: 12px; fill: rgb(51, 51, 51); fill-opacity: 1; white-space: pre; opacity: 1;">aisy_mlp_hw</text></g></g><g class="yaxislayer-above"><path class="ytick ticks crisp" d="M79,0h-5" transform="translate(0,397.2)" style="stroke: rgb(51, 51, 51); stroke-opacity: 1; stroke-width: 1px;"/><path class="ytick ticks crisp" d="M79,0h-5" transform="translate(0,347.46000000000004)" style="stroke: rgb(51, 51, 51); stroke-opacity: 1; stroke-width: 1px;"/><path class="ytick ticks crisp" d="M79,0h-5" transform="translate(0,297.73)" style="stroke: rgb(51, 51, 51); stroke-opacity: 1; stroke-width: 1px;"/><path class="ytick ticks crisp" d="M79,0h-5" transform="translate(0,247.99)" style="stroke: rgb(51, 51, 51); stroke-opacity: 1; stroke-width: 1px;"/><path class="ytick ticks crisp" d="M79,0h-5" transform="translate(0,198.26)" style="stroke: rgb(51, 51, 51); stroke-opacity: 1; stroke-width: 1px;"/><path class="ytick ticks crisp" d="M79,0h-5" transform="translate(0,148.52)" style="stroke: rgb(51, 51, 51); stroke-opacity: 1; stroke-width: 1px;"/><g class="ytick"><text text-anchor="end" x="71.6" y="4.199999999999999" transform="translate(0,397.2)" style="font-family: 'Open Sans', verdana, arial, sans-serif; font-size: 12px; fill: rgb(51, 51, 51); fill-opacity: 1; white-space: pre; opacity: 1;">50</text></g><g class="ytick"><text text-anchor="end" x="71.6" y="4.199999999999999" style="font-family: 'Open Sans', verdana, arial, sans-serif; font-size: 12px; fill: rgb(51, 51, 51); fill-opacity: 1; white-space: pre; opacity: 1;" transform="translate(0,347.46000000000004)">0</text></g><g class="ytick"><text text-anchor="end" x="71.6" y="4.199999999999999" style="font-family: 'Open Sans', verdana, arial, sans-serif; font-size: 12px; fill: rgb(51, 51, 51); fill-opacity: 1; white-space: pre; opacity: 1;" transform="translate(0,297.73)">50</text></g><g class="ytick"><text text-anchor="end" x="71.6" y="4.199999999999999" style="font-family: 'Open Sans', verdana, arial, sans-serif; font-size: 12px; fill: rgb(51, 51, 51); fill-opacity: 1; white-space: pre; opacity: 1;" transform="translate(0,247.99)">100</text></g><g class="ytick"><text text-anchor="end" x="71.6" y="4.199999999999999" style="font-family: 'Open Sans', verdana, arial, sans-serif; font-size: 12px; fill: rgb(51, 51, 51); fill-opacity: 1; white-space: pre; opacity: 1;" transform="translate(0,198.26)">150</text></g><g class="ytick"><text text-anchor="end" x="71.6" y="4.199999999999999" style="font-family: 'Open Sans', verdana, arial, sans-serif; font-size: 12px; fill: rgb(51, 51, 51); fill-opacity: 1; white-space: pre; opacity: 1;" transform="translate(0,148.52)">200</text></g></g><g class="overaxes-above"/></g></g><g class="polarlayer"/><g class="ternarylayer"/><g class="geolayer"/><g class="funnelarealayer"/><g class="pielayer"/><g class="iciclelayer"/><g class="treemaplayer"/><g class="sunburstlayer"/><g class="glimages"/><defs id="topdefs-6419b0"><g class="clips"/><clipPath id="legend6419b0"><rect width="129" height="105" x="0" y="0"/></clipPath></defs><g class="layer-above"><g class="imagelayer"/><g class="shapelayer"/></g><g class="infolayer"><g class="legend" pointer-events="all" transform="translate(559.4000000000001,100)"><rect class="bg" shape-rendering="crispEdges" width="129" height="105" x="0" y="0" style="stroke: rgb(68, 68, 68); stroke-opacity: 1; fill: rgb(255, 255, 255); fill-opacity: 1; stroke-width: 0px;"/><g class="scrollbox" transform="" clip-path="url(#legend6419b0)"><text class="legendtitletext" text-anchor="start" x="2" y="18.2" style="font-family: 'Open Sans', verdana, arial, sans-serif; font-size: 14px; fill: rgb(51, 51, 51); fill-opacity: 1; white-space: pre;">model</text><g class="groups" transform=""><g class="traces" transform="translate(0,32.7)" style="opacity: 1;"><text class="legendtext" text-anchor="start" x="40" y="4.680000000000001" style="font-family: 'Open Sans', verdana, arial, sans-serif; font-size: 12px; fill: rgb(51, 51, 51); fill-opacity: 1; white-space: pre;">s_eff_cnn_id</text><g class="layers" style="opacity: 1;"><g class="legendfill"/><g class="legendlines"/><g class="legendsymbols"><g class="legendpoints"><path class="legendbox" d="M6,6H-6V-6H6Z" transform="translate(20,0)" style="stroke-width: 2px; fill: rgb(99, 110, 250); fill-opacity: 0.5; stroke: rgb(99, 110, 250); stroke-opacity: 1;"/></g></g></g><rect class="legendtoggle" x="0" y="-9.5" width="123.703125" height="19" style="fill: rgb(0, 0, 0); fill-opacity: 0;"/></g></g><g class="groups" transform=""><g class="traces" transform="translate(0,51.7)" style="opacity: 1;"><text class="legendtext" text-anchor="start" x="40" y="4.680000000000001" style="font-family: 'Open Sans', verdana, arial, sans-serif; font-size: 12px; fill: rgb(51, 51, 51); fill-opacity: 1; white-space: pre;">s_eff_cnn_hw</text><g class="layers" style="opacity: 1;"><g class="legendfill"/><g class="legendlines"/><g class="legendsymbols"><g class="legendpoints"><path class="legendbox" d="M6,6H-6V-6H6Z" transform="translate(20,0)" style="stroke-width: 2px; fill: rgb(239, 85, 59); fill-opacity: 0.5; stroke: rgb(239, 85, 59); stroke-opacity: 1;"/></g></g></g><rect class="legendtoggle" x="0" y="-9.5" width="123.703125" height="19" style="fill: rgb(0, 0, 0); fill-opacity: 0;"/></g></g><g class="groups" transform=""><g class="traces" transform="translate(0,70.7)" style="opacity: 1;"><text class="legendtext" text-anchor="start" x="40" y="4.680000000000001" style="font-family: 'Open Sans', verdana, arial, sans-serif; font-size: 12px; fill: rgb(51, 51, 51); fill-opacity: 1; white-space: pre;">aisy_mlp_id</text><g class="layers" style="opacity: 1;"><g class="legendfill"/><g class="legendlines"/><g class="legendsymbols"><g class="legendpoints"><path class="legendbox" d="M6,6H-6V-6H6Z" transform="translate(20,0)" style="stroke-width: 2px; fill: rgb(0, 204, 150); fill-opacity: 0.5; stroke: rgb(0, 204, 150); stroke-opacity: 1;"/></g></g></g><rect class="legendtoggle" x="0" y="-9.5" width="123.703125" height="19" style="fill: rgb(0, 0, 0); fill-opacity: 0;"/></g></g><g class="groups" transform=""><g class="traces" transform="translate(0,89.7)" style="opacity: 1;"><text class="legendtext" text-anchor="start" x="40" y="4.680000000000001" style="font-family: 'Open Sans', verdana, arial, sans-serif; font-size: 12px; fill: rgb(51, 51, 51); fill-opacity: 1; white-space: pre;">aisy_mlp_hw</text><g class="layers" style="opacity: 1;"><g class="legendfill"/><g class="legendlines"/><g class="legendsymbols"><g class="legendpoints"><path class="legendbox" d="M6,6H-6V-6H6Z" transform="translate(20,0)" style="stroke-width: 2px; fill: rgb(171, 99, 250); fill-opacity: 0.5; stroke: rgb(171, 99, 250); stroke-opacity: 1;"/></g></g></g><rect class="legendtoggle" x="0" y="-9.5" width="123.703125" height="19" style="fill: rgb(0, 0, 0); fill-opacity: 0;"/></g></g></g><rect class="scrollbar" rx="20" ry="3" width="0" height="0" x="0" y="0" style="fill: rgb(128, 139, 164); fill-opacity: 1;"/></g><g class="g-gtitle"><text class="gtitle" x="350" y="50" text-anchor="middle" dy="0em" style="font-family: 'Open Sans', verdana, arial, sans-serif; font-size: 17px; fill: rgb(51, 51, 51); opacity: 1; font-weight: normal; white-space: pre;">Distribution of average ranks over 50 experiments (with 1400 traces)</text></g><g class="g-xtitle"><text class="xtitle" x="315" y="468.20625" text-anchor="middle" style="font-family: 'Open Sans', verdana, arial, sans-serif; font-size: 14px; fill: rgb(51, 51, 51); opacity: 1; font-weight: normal; white-space: pre;">model</text></g><g class="g-ytitle"><text class="ytitle" transform="rotate(-90,21.715625000000003,260)" x="21.715625000000003" y="260" text-anchor="middle" style="font-family: 'Open Sans', verdana, arial, sans-serif; font-size: 14px; fill: rgb(51, 51, 51); opacity: 1; font-weight: normal; white-space: pre;">Average Ranks</text></g><g class="annotation" data-index="0" style="opacity: 1;"><g class="annotation-text-g" transform="rotate(0,141.38,133)"><g class="cursor-pointer" transform="translate(95,100)"><rect class="bg" x="0.5" y="0.5" width="92" height="65" style="stroke-width: 1px; stroke: rgb(0, 0, 0); stroke-opacity: 1; fill: rgb(211, 211, 211); fill-opacity: 1;"/><text class="annotation-text" text-anchor="middle" x="46.484375" y="-1.59375" style="font-family: 'Open Sans', verdana, arial, sans-serif; font-size: 12px; fill: rgb(51, 51, 51); fill-opacity: 1; white-space: pre;"><tspan class="line" dy="0em" x="46.484375" y="-1.59375"></tspan><tspan class="line" dy="1.3em" x="46.484375" y="-1.59375">min: 0.00</tspan><tspan class="line" dy="2.6em" x="46.484375" y="-1.59375">max: 165.85</tspan><tspan class="line" dy="3.9000000000000004em" x="46.484375" y="-1.59375">median: 36.60</tspan><tspan class="line" dy="5.2em" x="46.484375" y="-1.59375">mean: 58.97</tspan></text></g></g></g><g class="annotation" data-index="1" style="opacity: 1;"><g class="annotation-text-g" transform="rotate(0,258.13,133)"><g class="cursor-pointer" transform="translate(212,100)"><rect class="bg" x="0.5" y="0.5" width="92" height="65" style="stroke-width: 1px; stroke: rgb(0, 0, 0); stroke-opacity: 1; fill: rgb(211, 211, 211); fill-opacity: 1;"/><text class="annotation-text" text-anchor="middle" x="46.484375" y="-1.59375" style="font-family: 'Open Sans', verdana, arial, sans-serif; font-size: 12px; fill: rgb(51, 51, 51); fill-opacity: 1; white-space: pre;"><tspan class="line" dy="0em" x="46.484375" y="-1.59375"></tspan><tspan class="line" dy="1.3em" x="46.484375" y="-1.59375">min: 5.10</tspan><tspan class="line" dy="2.6em" x="46.484375" y="-1.59375">max: 156.40</tspan><tspan class="line" dy="3.9000000000000004em" x="46.484375" y="-1.59375">median: 17.93</tspan><tspan class="line" dy="5.2em" x="46.484375" y="-1.59375">mean: 31.34</tspan></text></g></g></g><g class="annotation" data-index="2" style="opacity: 1;"><g class="annotation-text-g" transform="rotate(0,374.88,133)"><g class="cursor-pointer" transform="translate(332,100)"><rect class="bg" x="0.5" y="0.5" width="84" height="65" style="stroke-width: 1px; stroke: rgb(0, 0, 0); stroke-opacity: 1; fill: rgb(211, 211, 211); fill-opacity: 1;"/><text class="annotation-text" text-anchor="middle" x="42.65625" y="-1.59375" style="font-family: 'Open Sans', verdana, arial, sans-serif; font-size: 12px; fill: rgb(51, 51, 51); fill-opacity: 1; white-space: pre;"><tspan class="line" dy="0em" x="42.65625" y="-1.59375"></tspan><tspan class="line" dy="1.3em" x="42.65625" y="-1.59375">min: 0.45</tspan><tspan class="line" dy="2.6em" x="42.65625" y="-1.59375">max: 48.80</tspan><tspan class="line" dy="3.9000000000000004em" x="42.65625" y="-1.59375">median: 7.33</tspan><tspan class="line" dy="5.2em" x="42.65625" y="-1.59375">mean: 10.09</tspan></text></g></g></g><g class="annotation" data-index="3" style="opacity: 1;"><g class="annotation-text-g" transform="rotate(0,491.63,133)"><g class="cursor-pointer" transform="translate(445,100)"><rect class="bg" x="0.5" y="0.5" width="92" height="65" style="stroke-width: 1px; stroke: rgb(0, 0, 0); stroke-opacity: 1; fill: rgb(211, 211, 211); fill-opacity: 1;"/><text class="annotation-text" text-anchor="middle" x="46.484375" y="-1.59375" style="font-family: 'Open Sans', verdana, arial, sans-serif; font-size: 12px; fill: rgb(51, 51, 51); fill-opacity: 1; white-space: pre;"><tspan class="line" dy="0em" x="46.484375" y="-1.59375"></tspan><tspan class="line" dy="1.3em" x="46.484375" y="-1.59375">min: 3.85</tspan><tspan class="line" dy="2.6em" x="46.484375" y="-1.59375">max: 95.00</tspan><tspan class="line" dy="3.9000000000000004em" x="46.484375" y="-1.59375">median: 21.00</tspan><tspan class="line" dy="5.2em" x="46.484375" y="-1.59375">mean: 23.04</tspan></text></g></g></g></g></svg>