<svg class="main-svg" xmlns="http://www.w3.org/2000/svg" xmlns:xlink="http://www.w3.org/1999/xlink" width="700" height="500" style="" viewBox="0 0 700 500"><rect x="0" y="0" width="700" height="500" style="fill: rgb(255, 255, 255); fill-opacity: 1;"/><defs id="defs-28a8cf"><g class="clips"><clipPath id="clip28a8cfxyplot" class="plotclip"><rect width="540" height="320"/></clipPath><clipPath class="axesclip" id="clip28a8cfx"><rect x="80" y="0" width="540" height="500"/></clipPath><clipPath class="axesclip" id="clip28a8cfy"><rect x="0" y="100" width="700" height="320"/></clipPath><clipPath class="axesclip" id="clip28a8cfxy"><rect x="80" y="100" width="540" height="320"/></clipPath></g><g class="gradients"/><g class="patterns"/></defs><g class="bglayer"><rect class="bg" x="80" y="100" width="540" height="320" style="fill: rgb(237, 237, 237); fill-opacity: 1; stroke-width: 0;"/></g><g class="layer-below"><g class="imagelayer"/><g class="shapelayer"/></g><g class="cartesianlayer"><g class="subplot xy"><g class="layer-subplot"><g class="shapelayer"/><g class="imagelayer"/></g><g class="gridlayer"><g class="x"><path class="xgrid crisp" transform="translate(188.43,0)" d="M0,100v320" style="stroke: rgb(255, 255, 255); stroke-opacity: 1; stroke-width: 1px;"/><path class="xgrid crisp" transform="translate(296.87,0)" d="M0,100v320" style="stroke: rgb(255, 255, 255); stroke-opacity: 1; stroke-width: 1px;"/><path class="xgrid crisp" transform="translate(405.3,0)" d="M0,100v320" style="stroke: rgb(255, 255, 255); stroke-opacity: 1; stroke-width: 1px;"/><path class="xgrid crisp" transform="translate(513.73,0)" d="M0,100v320" style="stroke: rgb(255, 255, 255); stroke-opacity: 1; stroke-width: 1px;"/></g><g class="y"><path class="ygrid crisp" transform="translate(0,345.98)" d="M80,0h540" style="stroke: rgb(255, 255, 255); stroke-opacity: 1; stroke-width: 1px;"/><path class="ygrid crisp" transform="translate(0,287.78)" d="M80,0h540" style="stroke: rgb(255, 255, 255); stroke-opacity: 1; stroke-width: 1px;"/><path class="ygrid crisp" transform="translate(0,229.58)" d="M80,0h540" style="stroke: rgb(255, 255, 255); stroke-opacity: 1; stroke-width: 1px;"/><path class="ygrid crisp" transform="translate(0,171.38)" d="M80,0h540" style="stroke: rgb(255, 255, 255); stroke-opacity: 1; stroke-width: 1px;"/><path class="ygrid crisp" transform="translate(0,113.18)" d="M80,0h540" style="stroke: rgb(255, 255, 255); stroke-opacity: 1; stroke-width: 1px;"/></g></g><g class="zerolinelayer"><path class="xzl zl crisp" transform="translate(80,0)" d="M0,100v320" style="stroke: rgb(255, 255, 255); stroke-opacity: 1; stroke-width: 1px;"/><path class="yzl zl crisp" transform="translate(0,404.17)" d="M80,0h540" style="stroke: rgb(255, 255, 255); stroke-opacity: 1; stroke-width: 1px;"/></g><path class="xlines-below"/><path class="ylines-below"/><g class="overlines-below"/><g class="xaxislayer-below"/><g class="yaxislayer-below"/><g class="overaxes-below"/><g class="plot" transform="translate(80,100)" clip-path="url(#clip28a8cfxyplot)"><g class="scatterlayer mlayer"><g class="trace scatter trace9e0fcf" style="stroke-miterlimit: 2; opacity: 1;"><g class="fills"/><g class="errorbars"/><g class="lines"><path class="js-line" d="M0,26.83L6.51,151.34L8.67,169.62L10.84,185.97L13.01,188.94L15.18,199.39L17.35,202.59L19.52,205.82L21.69,218.39L28.19,236.14L30.36,238.23L32.53,238.55L34.7,243.12L36.87,246.5L39.04,246.91L47.71,258.08L49.88,259.07L52.05,263.55L54.22,266.2L58.55,268.99L60.72,269.87L67.23,272.19L69.4,273.18L73.73,276.18L75.9,277.84L86.75,277.69L88.92,278.51L95.42,281.36L97.59,282.55L106.27,286.13L108.43,285.61L112.77,284.91L114.94,285.67L119.28,286.92L121.45,287.12L127.95,288.55L130.12,288.23L143.13,291.14L145.3,291.98L162.65,293.67L164.82,293.23L173.49,294.11L175.66,294.75L184.34,294.89L186.51,295.5L195.18,296.08L197.35,296.96L212.53,297.69L214.7,298.24L221.2,298.44L223.37,298.88L238.55,299.78L240.72,299.93L247.23,300.16L249.4,300.13L266.75,300.57L268.92,300.3L290.6,301.24L292.77,301.15L357.83,302.37L360,302.22L409.88,302.95L412.05,302.95L540,303.48" style="vector-effect: non-scaling-stroke; fill: none; stroke: rgb(248, 118, 109); stroke-opacity: 1; stroke-width: 2px; opacity: 1;"/></g><g class="points"/><g class="text"/></g><g class="trace scatter trace796d36" style="stroke-miterlimit: 2; opacity: 1;"><g class="fills"/><g class="errorbars"/><g class="lines"><path class="js-line" d="M0,58.66L4.34,125.33L6.51,147.88L10.84,195.49L13.01,200.52L15.18,210.3L17.35,212.22L19.52,219.49L21.69,229.5L26.02,240.1L28.19,245.22L30.36,248.94L32.53,246.76L34.7,252.67L36.87,254.94L39.04,253.74L41.2,257.12L43.37,261.37L45.54,260.23L47.71,262.68L49.88,262.91L54.22,265.88L56.39,266.14L58.55,268.59L60.72,268.53L62.89,269.98L65.06,270.45L71.57,273.91L73.73,275.57L75.9,277.87L78.07,276.94L80.24,275.95L82.41,276.44L91.08,278.13L93.25,279.15L101.93,282.18L104.1,281.65L106.27,283.6L108.43,282.73L112.77,282.82L114.94,283.83L127.95,286.28L130.12,285.32L134.46,286.05L136.63,286.63L145.3,289.65L147.47,289.54L151.81,290.15L153.98,290.85L156.14,290.41L158.31,290.82L162.65,291.46L164.82,291.46L171.33,293.29L173.49,293.84L180,294.46L182.17,293.79L188.67,294.34L190.84,295.01L193.01,294.69L195.18,295.24L201.69,296.29L203.86,296.58L229.88,297.31L232.05,296.93L240.72,297.31L242.89,297.31L247.23,297.8L249.4,297.69L253.73,297.63L255.9,298.01L264.58,298.38L266.75,298.35L271.08,298.53L273.25,298.79L292.77,299.81L294.94,299.81L307.95,300.45L310.12,300.22L327.47,301.06L329.64,300.83L368.67,301.53L370.84,301.38L396.87,302.72L399.04,302.6L420.72,302.84L422.89,302.84L440.24,303.1L442.41,303.16L468.43,303.45L470.6,303.36L487.95,303.42L490.12,303.3L507.47,303.59L509.64,303.48L533.49,303.65L535.66,303.65L540,303.53" style="vector-effect: non-scaling-stroke; fill: none; stroke: rgb(163, 165, 0); stroke-opacity: 1; stroke-width: 2px; opacity: 1;"/></g><g class="points"/><g class="text"/></g><g class="trace scatter trace564ca1" style="stroke-miterlimit: 2; opacity: 1;"><g class="fills"/><g class="errorbars"/><g class="lines"><path class="js-line" d="M0,30.87L4.34,120.99L6.51,151.4L10.84,195.05L13.01,196.42L15.18,204.04L17.35,208.9L19.52,213.44L21.69,224L23.86,227.29L26.02,237.25L28.19,240.5L30.36,241.32L32.53,237.13L34.7,241.52L39.04,247.52L41.2,247.52L43.37,252.09L45.54,254.91L47.71,257.76L49.88,259.3L52.05,262.53L54.22,264.1L62.89,269.92L65.06,270.16L69.4,270.91L71.57,271.7L78.07,277.02L80.24,277.02L91.08,278.65L93.25,279.73L95.42,280.87L97.59,281.01L101.93,282.52L104.1,281.45L106.27,283.69L108.43,283.31L112.77,283.66L114.94,284.01L117.11,284.42L119.28,284.01L127.95,285.32L130.12,284.3L149.64,288.98L151.81,289.25L153.98,290.15L156.14,289.89L166.99,291.87L169.16,291.31L175.66,292.24L177.83,292.71L182.17,291.84L184.34,292.39L190.84,293.03L193.01,292.36L203.86,294.51L206.02,294.34L212.53,295.24L214.7,295.24L219.04,294.8L221.2,295.53L225.54,296.11L227.71,296.26L229.88,296.73L232.05,295.94L255.9,297.89L258.07,298.01L264.58,298.09L266.75,298.44L271.08,298.59L273.25,298.82L281.93,299.55L284.1,299.49L294.94,300.22L297.11,300.22L333.98,300.77L336.14,301.12L351.33,300.94L353.49,300.83L399.04,302.08L401.2,302.05L418.55,302.28L420.72,302.34L531.33,303.04L533.49,303.13L540,303.19" style="vector-effect: non-scaling-stroke; fill: none; stroke: rgb(0, 191, 125); stroke-opacity: 1; stroke-width: 2px; opacity: 1;"/></g><g class="points"/><g class="text"/></g><g class="trace scatter traced6d4c6" style="stroke-miterlimit: 2; opacity: 1;"><g class="fills"/><g class="errorbars"/><g class="lines"><path class="js-line" d="M0,32.65L2.17,62.12L4.34,108.19L6.51,145.96L8.67,166.27L10.84,186.12L13.01,189.67L15.18,198.54L17.35,203.37L19.52,208.15L21.69,220.6L23.86,228.43L26.02,230.76L30.36,241.58L32.53,242.31L34.7,249.23L36.87,251.82L41.2,254.15L43.37,257.03L52.05,267.63L54.22,268L58.55,270.65L60.72,269.78L65.06,271.29L67.23,271.18L73.73,272.81L75.9,274.75L80.24,274.11L82.41,275.13L84.58,274.87L86.75,275.95L88.92,275.77L91.08,276.53L93.25,278.25L95.42,278.95L99.76,280.89L101.93,281.21L104.1,281.62L106.27,282.96L110.6,282.09L112.77,282L117.11,284.01L119.28,284.04L127.95,285.87L130.12,285.55L145.3,289.92L147.47,289.71L151.81,290.09L153.98,290.59L158.31,290.21L160.48,290.99L162.65,291.55L164.82,291.25L177.83,292.83L180,293.35L188.67,293.15L190.84,293.58L197.35,295.24L199.52,295.74L201.69,296.46L203.86,296.38L216.87,297.25L219.04,297.05L225.54,296.64L227.71,296.7L229.88,297.31L232.05,297.1L236.39,296.67L238.55,297.28L242.89,297.63L245.06,297.89L273.25,299.02L275.42,299.43L297.11,299.75L299.28,299.93L310.12,299.9L312.29,299.96L323.13,300.89L325.3,300.71L331.81,300.77L333.98,300.8L366.51,301.32L368.67,301.61L396.87,302.31L399.04,302.28L444.58,302.4L446.75,302.25L464.1,302.57L466.27,302.81L500.96,303.07L503.13,303.07L513.98,303.19L516.14,303.16L535.66,303.42L537.83,303.33L540,303.39" style="vector-effect: non-scaling-stroke; fill: none; stroke: rgb(0, 176, 246); stroke-opacity: 1; stroke-width: 2px; opacity: 1;"/></g><g class="points"/><g class="text"/></g><g class="trace scatter traceea07fd" style="stroke-miterlimit: 2; opacity: 1;"><g class="fills"/><g class="errorbars"/><g class="lines"><path class="js-line" d="M0,37.3L2.17,83.98L4.34,107.55L10.84,193.01L13.01,198.54L15.18,209.28L17.35,211.81L19.52,216.24L21.69,225.26L30.36,245.42L32.53,246.99L36.87,253.74L39.04,254.56L41.2,257.32L43.37,261.86L45.54,262.53L47.71,264.95L49.88,266.02L52.05,268.24L58.55,272.54L60.72,274.55L65.06,275.39L67.23,275.86L73.73,278.39L75.9,280.49L80.24,279.88L82.41,279.59L86.75,279.73L88.92,279.41L91.08,279.64L93.25,281.51L97.59,282.84L99.76,282.93L101.93,284.47L104.1,284.65L106.27,286.45L108.43,286.42L110.6,286.07L112.77,286.69L117.11,286.51L119.28,287.3L125.78,287.38L127.95,286.98L132.29,287.21L134.46,288.02L143.13,290.79L145.3,291.92L151.81,292.68L153.98,292.27L158.31,292.74L160.48,293.17L169.16,293.06L171.33,293.49L177.83,293.61L180,294.22L193.01,294.54L195.18,294.92L212.53,297.25L214.7,296.58L221.2,297.1L223.37,297.6L227.71,297.98L229.88,297.69L234.22,297.25L236.39,297.13L249.4,298.76L251.57,298.82L260.24,299.2L262.41,299.23L268.92,299.87L271.08,299.96L286.27,300.01L288.43,300.57L299.28,300.86L301.45,300.89L320.96,301.47L323.13,301.64L338.31,301.38L340.48,301.53L370.84,302.22L373.01,302.25L399.04,302.72L401.2,302.75L418.55,303.01L420.72,302.98L470.6,302.98L472.77,303.04L481.45,303.16L483.61,303.04L540,303.36" style="vector-effect: non-scaling-stroke; fill: none; stroke: rgb(231, 107, 243); stroke-opacity: 1; stroke-width: 2px; opacity: 1;"/></g><g class="points"/><g class="text"/></g><g class="trace scatter tracef3619e" style="stroke-miterlimit: 2; opacity: 1;"><g class="fills"/><g class="errorbars"/><g class="lines"><path class="js-line" d="M0,20.42L4.34,123.52L6.51,142.35L10.84,185.91L13.01,191.21L17.35,200.55L19.52,207.13L21.69,215.77L23.86,216.32L28.19,231.77L30.36,235L32.53,235.99L34.7,242.28L36.87,245.19L39.04,246.47L41.2,247.4L43.37,251.59L49.88,255.05L52.05,258.92L54.22,260.09L56.39,262.47L58.55,265.53L60.72,265.88L65.06,269.75L67.23,270.24L71.57,269.28L73.73,270.91L75.9,274.03L78.07,273.82L80.24,273.33L82.41,273.74L86.75,274.84L88.92,273.88L91.08,274.78L93.25,277.17L99.76,280.11L101.93,280.75L104.1,280.78L106.27,282.84L108.43,281.94L110.6,282.2L112.77,282.2L114.94,283.02L117.11,284.04L119.28,284.04L127.95,286.13L130.12,285.43L132.29,285.81L134.46,286.98L138.8,287.88L140.96,287.76L147.47,289.54L149.64,289.57L156.14,291.28L158.31,291.43L162.65,292.45L164.82,292.13L169.16,293.09L171.33,293.38L173.49,293.73L175.66,293.17L184.34,294.28L186.51,294.22L190.84,294.86L193.01,294.66L195.18,294.22L197.35,295.39L210.36,296.55L212.53,296.52L236.39,297.95L238.55,297.89L242.89,298.21L245.06,298.24L258.07,298.15L260.24,298.33L281.93,299.23L284.1,299.29L305.78,300.28L307.95,300.07L323.13,300.57L325.3,300.42L338.31,300.77L340.48,300.68L364.34,300.94L366.51,300.92L373.01,301.29L375.18,301.38L379.52,301.56L381.69,301.5L420.72,302.25L422.89,302.31L513.98,302.6L516.14,302.66L540,302.95" style="vector-effect: non-scaling-stroke; fill: none; stroke: rgb(248, 118, 109); stroke-opacity: 1; stroke-width: 2px; opacity: 1;"/></g><g class="points"/><g class="text"/></g><g class="trace scatter trace6e3fff" style="stroke-miterlimit: 2; opacity: 1;"><g class="fills"/><g class="errorbars"/><g class="lines"><path class="js-line" d="M0,60.78L4.34,129.58L6.51,155.56L8.67,177.27L10.84,189.29L15.18,201.51L17.35,200.38L23.86,225.08L26.02,229.77L28.19,237.19L30.36,239.43L32.53,241.06L34.7,246.21L36.87,249.73L39.04,251.56L41.2,252.81L43.37,255.55L45.54,255.99L47.71,259.27L49.88,262.04L52.05,266.17L58.55,269.72L60.72,270.86L67.23,274.38L69.4,273.97L75.9,278.04L78.07,278.13L80.24,277.64L82.41,278.92L84.58,279.12L86.75,280.17L88.92,280.05L91.08,280.75L93.25,282.5L95.42,282.87L97.59,282.61L99.76,283.48L106.27,287.3L108.43,285.61L114.94,285.93L117.11,287.01L119.28,287.82L121.45,287.65L140.96,289.8L143.13,290.29L149.64,291.55L151.81,292.01L169.16,293.03L171.33,293.93L177.83,294.34L180,294.48L186.51,294.08L188.67,294.31L206.02,296.81L208.19,296.67L214.7,297.19L216.87,296.87L238.55,298.35L240.72,298.76L279.76,300.65L281.93,300.39L290.6,300.89L292.77,300.86L305.78,300.97L307.95,301.35L316.63,301.41L318.8,301.5L323.13,301.35L325.3,301.56L331.81,301.67L333.98,301.56L340.48,301.76L342.65,301.67L351.33,301.96L353.49,301.73L370.84,302.25L373.01,302.25L381.69,302.4L383.86,302.49L403.37,302.55L405.54,302.4L416.39,302.66L418.55,302.63L540,303.1" style="vector-effect: non-scaling-stroke; fill: none; stroke: rgb(163, 165, 0); stroke-opacity: 1; stroke-width: 2px; opacity: 1;"/></g><g class="points"/><g class="text"/></g><g class="trace scatter traceea8ed4" style="stroke-miterlimit: 2; opacity: 1;"><g class="fills"/><g class="errorbars"/><g class="lines"><path class="js-line" d="M0,32.7L4.34,136.68L6.51,162.78L8.67,180.41L10.84,190.31L13.01,192.58L15.18,204.13L17.35,211.32L19.52,213.97L21.69,225.4L23.86,228.98L30.36,244.72L32.53,243.85L34.7,246.56L36.87,251.39L41.2,254.38L43.37,258.26L45.54,258.98L47.71,262.42L49.88,263.64L52.05,268.73L54.22,268.82L56.39,271.06L58.55,273.36L60.72,273.77L67.23,274.26L69.4,275.39L73.73,276.7L75.9,278.54L80.24,279L82.41,280.08L86.75,280.4L88.92,281.1L97.59,285.38L99.76,285.29L101.93,286.31L104.1,286.02L106.27,286.69L108.43,286.42L112.77,286.89L114.94,287.76L117.11,288.58L119.28,288.55L123.61,289.57L125.78,289.33L134.46,290.67L136.63,291.37L138.8,290.85L140.96,291.6L145.3,292.91L147.47,293.2L151.81,293.35L153.98,293.52L160.48,293.17L162.65,293.7L180,295.65L182.17,295.21L197.35,296.29L199.52,296.26L210.36,297.6L212.53,297.57L219.04,296.7L221.2,297.22L225.54,297.45L227.71,297.86L229.88,298.06L232.05,297.48L238.55,298.3L240.72,298.3L247.23,299.17L249.4,298.88L258.07,299.64L260.24,299.96L275.42,300.6L277.59,300.77L292.77,301.61L294.94,301.47L301.45,301.79L303.61,301.56L310.12,301.44L312.29,301.44L338.31,302.22L340.48,302.22L373.01,302.52L375.18,302.6L394.7,303.01L396.87,302.98L405.54,303.13L407.71,303.19L442.41,303.27L444.58,303.27L459.76,303.51L461.93,303.56L529.16,303.74L531.33,303.71L540,303.68" style="vector-effect: non-scaling-stroke; fill: none; stroke: rgb(0, 191, 125); stroke-opacity: 1; stroke-width: 2px; opacity: 1;"/></g><g class="points"/><g class="text"/></g><g class="trace scatter trace6d0876" style="stroke-miterlimit: 2; opacity: 1;"><g class="fills"/><g class="errorbars"/><g class="lines"><path class="js-line" d="M0,42.98L2.17,89.16L4.34,119.25L6.51,161.47L8.67,179.19L10.84,191.76L13.01,195.92L17.35,208.2L19.52,212.63L21.69,222.38L23.86,227.88L26.02,232.01L28.19,238.96L30.36,242.34L32.53,242.45L34.7,243.21L36.87,246.85L43.37,255.58L45.54,255.67L47.71,258.6L49.88,259.59L52.05,263.41L54.22,264.69L60.72,268L62.89,269.98L65.06,269.75L67.23,271.12L78.07,276.41L80.24,276.56L88.92,278.8L91.08,278.97L95.42,280.34L97.59,280.23L104.1,281.59L106.27,283.16L108.43,282.26L110.6,282.26L112.77,282.47L114.94,283.78L117.11,284.01L119.28,285.11L127.95,286.02L130.12,285.35L132.29,285.29L134.46,286.34L162.65,291.78L164.82,291.49L169.16,292.51L171.33,292.71L180,293.41L182.17,293.47L184.34,293.15L186.51,293.73L201.69,295.76L203.86,295.76L212.53,296.58L214.7,296.49L221.2,296L223.37,296.58L234.22,296.55L236.39,296.67L247.23,297.69L249.4,297.37L255.9,298.18L258.07,297.98L264.58,298.24L266.75,297.92L273.25,298.85L275.42,299.26L292.77,299.84L294.94,300.19L318.8,300.51L320.96,300.62L331.81,300.83L333.98,300.6L340.48,301.09L342.65,301.03L370.84,301.09L373.01,301L403.37,301.96L405.54,301.9L416.39,302.22L418.55,302.4L435.9,302.66L438.07,302.66L468.43,302.89L470.6,302.92L490.12,303.04L492.29,303.01L513.98,303.16L516.14,303.13L540,303.27" style="vector-effect: non-scaling-stroke; fill: none; stroke: rgb(0, 176, 246); stroke-opacity: 1; stroke-width: 2px; opacity: 1;"/></g><g class="points"/><g class="text"/></g><g class="trace scatter trace6d697a" style="stroke-miterlimit: 2; opacity: 1;"><g class="fills"/><g class="errorbars"/><g class="lines"><path class="js-line" d="M0,16L6.51,139.44L8.67,164.64L10.84,190.16L13.01,193.13L15.18,198.25L17.35,200.06L19.52,207.01L21.69,219.35L26.02,230.99L28.19,237.77L30.36,242.08L32.53,240.07L34.7,246.76L36.87,249.44L39.04,253.8L41.2,256.19L47.71,264.72L49.88,265.15L52.05,267.97L54.22,268.88L58.55,272.78L60.72,273.47L62.89,274.81L65.06,274.67L69.4,275.77L71.57,277.32L78.07,279.35L80.24,279.09L86.75,280.69L88.92,279.99L93.25,282.47L95.42,281.62L106.27,285.46L108.43,284.94L112.77,284.65L114.94,285.55L121.45,286.86L123.61,286.69L134.46,286.54L136.63,287.35L140.96,287.91L143.13,288.58L147.47,289.33L149.64,288.84L151.81,289.13L153.98,290.26L156.14,289.92L158.31,290.38L162.65,290.7L164.82,290.88L173.49,292.07L175.66,291.72L182.17,292.04L184.34,292.27L186.51,291.95L188.67,292.39L197.35,292.24L199.52,293L210.36,294.83L212.53,294.8L214.7,295.18L216.87,294.72L221.2,294.6L223.37,295.21L245.06,296.03L247.23,296.29L262.41,296.75L264.58,296.84L271.08,296.84L273.25,297.34L277.59,297.22L279.76,297.45L292.77,298.24L294.94,298.44L301.45,298.41L303.61,298.41L318.8,298.38L320.96,298.73L329.64,299.08L331.81,298.99L349.16,299.69L351.33,299.58L375.18,300.3L377.35,300.83L420.72,301.44L422.89,301.64L433.73,301.99L435.9,302.05L457.59,302.14L459.76,301.9L481.45,302.17L483.61,302.08L496.63,302.14L498.8,302.22L505.3,302.2L507.47,302.17L526.99,302.78L529.16,302.55L540,302.95" style="vector-effect: non-scaling-stroke; fill: none; stroke: rgb(231, 107, 243); stroke-opacity: 1; stroke-width: 2px; opacity: 1;"/></g><g class="points"/><g class="text"/></g><g class="trace scatter trace68508e" style="stroke-miterlimit: 2; opacity: 1;"><g class="fills"/><g class="errorbars"/><g class="lines"><path class="js-line" d="M0,24.7L6.51,165.43L8.67,191.7L10.84,208.9L13.01,215.04L17.35,224.38L19.52,230.73L21.69,236.23L23.86,236.31L26.02,238.55L28.19,242.31L30.36,245.68L32.53,245.68L39.04,251.45L41.2,251.94L43.37,254.94L45.54,255.9L47.71,258.95L49.88,260.03L54.22,264.05L56.39,266.72L58.55,268.29L60.72,268.7L62.89,269.17L65.06,271.82L69.4,272.81L71.57,274.73L78.07,277.02L80.24,276.53L84.58,278.36L86.75,278.63L88.92,278.13L91.08,279.03L93.25,281.54L95.42,282.2L101.93,285.06L104.1,285.55L106.27,286.34L108.43,285.75L112.77,285.43L114.94,286.71L121.45,287.35L123.61,287.44L127.95,287.47L130.12,287.33L134.46,288.4L136.63,289.3L143.13,290.18L145.3,290.56L153.98,292.59L156.14,293.17L162.65,293.96L164.82,293.41L169.16,294.46L171.33,294.75L177.83,295.82L180,296.03L201.69,297.51L203.86,297.45L210.36,297.95L212.53,298.24L216.87,298.62L219.04,298.18L229.88,299.23L232.05,299.05L240.72,299.26L242.89,299.58L255.9,299.58L258.07,299.49L273.25,300.45L275.42,300.19L288.43,300.68L290.6,300.83L294.94,300.74L297.11,301.06L325.3,301.7L327.47,301.56L355.66,301.96L357.83,301.88L368.67,302.11L370.84,302.17L388.19,302.6L390.36,302.46L403.37,302.84L405.54,302.87L422.89,303.01L425.06,303.04L448.92,302.95L451.08,302.98L459.76,303.01L461.93,303.04L472.77,303.19L474.94,303.21L503.13,303.19L505.3,303.27L537.83,303.51L540,303.42" style="vector-effect: non-scaling-stroke; fill: none; stroke: rgb(248, 118, 109); stroke-opacity: 1; stroke-width: 2px; opacity: 1;"/></g><g class="points"/><g class="text"/></g><g class="trace scatter tracebc42da" style="stroke-miterlimit: 2; opacity: 1;"><g class="fills"/><g class="errorbars"/><g class="lines"><path class="js-line" d="M0,24.26L2.17,73.94L4.34,104.38L6.51,137.9L8.67,156.87L10.84,178.35L13.01,187.28L15.18,196.36L17.35,201.37L19.52,206.31L21.69,220.51L26.02,227.23L28.19,236.49L30.36,240.88L32.53,240.07L36.87,249.26L39.04,251.07L41.2,252.06L43.37,254.01L49.88,256.22L52.05,259.42L54.22,262.21L56.39,263.23L62.89,265.01L65.06,267.13L67.23,266.69L69.4,268.73L73.73,272.86L75.9,276.21L78.07,276.97L80.24,276.85L82.41,278.1L84.58,277.69L86.75,278.39L88.92,277.81L91.08,278.13L93.25,279.27L95.42,279.64L97.59,280.89L104.1,283.51L106.27,285.35L112.77,284.27L114.94,285.09L119.28,285.67L121.45,286.13L125.78,287.5L127.95,287.03L132.29,286.77L134.46,287.65L147.47,290.91L149.64,291.46L158.31,292.3L160.48,293.12L164.82,293L166.99,293.99L175.66,295.21L177.83,295.18L188.67,296.06L190.84,296.7L197.35,296.78L199.52,297.07L206.02,298.09L208.19,297.95L212.53,297.98L214.7,298.33L221.2,297.66L223.37,298.18L227.71,298.18L229.88,298.56L236.39,298.15L238.55,298.59L247.23,299.11L249.4,298.94L258.07,299.2L260.24,299.4L268.92,299.23L271.08,299.4L290.6,300.33L292.77,299.87L351.33,301.15L353.49,301.15L362.17,301.56L364.34,301.58L386.02,302.52L388.19,302.4L412.05,302.81L414.22,302.63L516.14,303.16L518.31,303.33L526.99,303.3L529.16,303.39L540,303.45" style="vector-effect: non-scaling-stroke; fill: none; stroke: rgb(163, 165, 0); stroke-opacity: 1; stroke-width: 2px; opacity: 1;"/></g><g class="points"/><g class="text"/></g><g class="trace scatter trace901a4f" style="stroke-miterlimit: 2; opacity: 1;"><g class="fills"/><g class="errorbars"/><g class="lines"><path class="js-line" d="M0,47.22L4.34,129.4L6.51,153.15L8.67,176.16L10.84,186.23L13.01,195.43L15.18,200.73L19.52,215.1L21.69,224.65L23.86,226.54L26.02,233.26L30.36,239.49L32.53,239.86L34.7,239.17L36.87,241.76L43.37,252.06L45.54,252.67L49.88,259.24L52.05,263L60.72,269.92L62.89,269.63L69.4,272.16L71.57,274.41L75.9,278.07L78.07,278.39L84.58,279.44L86.75,280.02L88.92,280.52L91.08,281.91L95.42,284.07L97.59,283.48L104.1,284.27L106.27,285.75L112.77,284.62L114.94,285.9L125.78,287.15L127.95,286.66L132.29,286.8L134.46,286.98L147.47,290.09L149.64,289.74L153.98,291.05L156.14,290.76L162.65,291.95L164.82,291.46L169.16,292.68L171.33,293.06L177.83,293.47L180,294.37L184.34,294.11L186.51,294.89L190.84,294.63L193.01,294.66L195.18,294.28L197.35,295.1L216.87,296.2L219.04,295.91L232.05,297.25L234.22,297.48L242.89,297.71L245.06,298.15L258.07,299.34L260.24,299.29L275.42,300.13L277.59,299.93L284.1,300.28L286.27,300.3L292.77,300.8L294.94,300.8L301.45,301.35L303.61,301.09L318.8,301.41L320.96,301.53L325.3,301.61L327.47,301.67L346.99,301.61L349.16,301.82L407.71,302.28L409.88,302.34L425.06,302.25L427.23,302.22L474.94,302.52L477.11,302.57L492.29,302.52L494.46,302.6L524.82,302.6L526.99,302.66L540,302.92" style="vector-effect: non-scaling-stroke; fill: none; stroke: rgb(0, 191, 125); stroke-opacity: 1; stroke-width: 2px; opacity: 1;"/></g><g class="points"/><g class="text"/></g><g class="trace scatter traceb35eba" style="stroke-miterlimit: 2; opacity: 1;"><g class="fills"/><g class="errorbars"/><g class="lines"><path class="js-line" d="M0,42.83L2.17,75.45L4.34,122.85L8.67,185.56L10.84,203.11L26.02,242.08L28.19,249.09L30.36,251.36L32.53,250.6L36.87,255.75L39.04,257.24L45.54,261.72L47.71,265.04L49.88,265.04L52.05,268.38L54.22,269.25L56.39,270.97L58.55,270.88L60.72,272.48L67.23,273.15L69.4,274.35L73.73,276.27L75.9,278.13L78.07,278.6L80.24,277.72L88.92,279.38L91.08,280.46L95.42,282.5L97.59,283.46L99.76,283.22L101.93,283.98L106.27,285.67L108.43,285.23L114.94,285.7L117.11,285.75L127.95,287.73L130.12,286.98L134.46,287.73L136.63,287.82L143.13,288.81L145.3,290.06L149.64,290.15L151.81,290.61L153.98,291.34L156.14,291.25L171.33,293.7L173.49,293.64L180,295.62L182.17,295.15L208.19,298.59L210.36,298.27L229.88,298.12L232.05,297.6L249.4,298.99L251.57,299.11L255.9,298.88L258.07,299.05L271.08,299.2L273.25,299.55L307.95,301L310.12,300.71L318.8,301.12L320.96,301.18L327.47,301.7L329.64,301.67L346.99,301.9L349.16,301.9L368.67,301.7L370.84,301.88L388.19,302.31L390.36,302.31L425.06,303.27L427.23,303.1L505.3,303.48L507.47,303.45L540,303.65" style="vector-effect: non-scaling-stroke; fill: none; stroke: rgb(0, 176, 246); stroke-opacity: 1; stroke-width: 2px; opacity: 1;"/></g><g class="points"/><g class="text"/></g><g class="trace scatter trace36890e" style="stroke-miterlimit: 2; opacity: 1;"><g class="fills"/><g class="errorbars"/><g class="lines"><path class="js-line" d="M0,25.28L6.51,156.84L8.67,175.09L10.84,193.83L13.01,196.59L15.18,205.99L17.35,209.45L21.69,224.41L23.86,228.02L26.02,232.04L28.19,238.15L30.36,241.09L32.53,241.99L34.7,246.5L36.87,246.59L43.37,254.76L45.54,258.37L47.71,261.63L49.88,262.59L54.22,267.31L56.39,268.85L60.72,270.71L62.89,272.16L69.4,273.5L71.57,274.32L75.9,275.89L78.07,275.63L88.92,277.08L91.08,277.98L93.25,279.93L95.42,280.43L108.43,283.75L110.6,283.43L114.94,284.71L117.11,284.74L119.28,286.07L121.45,286.13L125.78,286.57L127.95,285.84L134.46,287.7L136.63,288.64L140.96,288.96L143.13,289.36L147.47,290.29L149.64,289.74L160.48,289.6L162.65,290.38L180,292.88L182.17,292.77L195.18,293.99L197.35,294.37L206.02,296.23L208.19,295.85L210.36,296.29L212.53,295.85L229.88,296.64L232.05,296.26L240.72,297.48L242.89,297.48L271.08,298.7L273.25,299.29L281.93,299.08L284.1,299.46L292.77,299.93L294.94,299.96L310.12,300.28L312.29,300.54L320.96,300.92L323.13,301.18L349.16,301.58L351.33,301.5L368.67,301.47L370.84,301.67L444.58,302.28L446.75,302.46L459.76,302.6L461.93,302.6L540,303.19" style="vector-effect: non-scaling-stroke; fill: none; stroke: rgb(231, 107, 243); stroke-opacity: 1; stroke-width: 2px; opacity: 1;"/></g><g class="points"/><g class="text"/></g><g class="trace scatter traceca4890" style="stroke-miterlimit: 2; opacity: 1;"><g class="fills"/><g class="errorbars"/><g class="lines"><path class="js-line" d="M0,31.13L4.34,138.86L6.51,167.58L10.84,203.26L13.01,208.49L15.18,213.65L17.35,216.35L19.52,221.07L21.69,231.51L26.02,242.89L28.19,245.63L30.36,248.89L32.53,248.48L34.7,252.23L36.87,253.34L43.37,262.56L45.54,262.77L47.71,265.47L49.88,263.9L52.05,267.63L54.22,269.75L58.55,271.84L60.72,272.28L71.57,278.28L73.73,278.13L75.9,280.25L78.07,280.2L80.24,280.17L82.41,281.01L84.58,280.6L86.75,281.65L91.08,282.84L93.25,283.98L104.1,285.99L106.27,287.5L112.77,287.44L114.94,288.14L119.28,288.69L121.45,287.88L125.78,288.14L127.95,288.49L132.29,288.23L134.46,289.04L138.8,289.8L140.96,289.45L143.13,290.24L145.3,289.89L149.64,290.53L151.81,290.29L153.98,291.11L156.14,291.02L169.16,292.62L171.33,292.21L180,293.79L182.17,292.97L190.84,293.58L193.01,293.38L197.35,294.28L199.52,294.89L214.7,296.03L216.87,295.62L221.2,295.68L223.37,296.17L238.55,296.29L240.72,296.55L245.06,296.99L247.23,297.6L260.24,297.89L262.41,297.89L271.08,298.27L273.25,298.79L286.27,299.78L288.43,300.3L297.11,300.19L299.28,300.42L307.95,300.48L310.12,300.45L316.63,300.94L318.8,300.83L338.31,301.26L340.48,301.32L379.52,301.47L381.69,301.73L405.54,302.14L407.71,302.05L438.07,302.6L440.24,302.6L455.42,302.72L457.59,302.78L481.45,302.78L483.61,302.87L505.3,302.92L507.47,302.95L540,303.24" style="vector-effect: non-scaling-stroke; fill: none; stroke: rgb(248, 118, 109); stroke-opacity: 1; stroke-width: 2px; opacity: 1;"/></g><g class="points"/><g class="text"/></g><g class="trace scatter trace8b12de" style="stroke-miterlimit: 2; opacity: 1;"><g class="fills"/><g class="errorbars"/><g class="lines"><path class="js-line" d="M0,21.3L2.17,80.08L4.34,109.76L10.84,183.03L13.01,186.32L15.18,196.24L17.35,200.08L19.52,204.51L21.69,216.7L23.86,219.9L26.02,225.58L28.19,234.54L30.36,238.61L32.53,239.46L34.7,242.6L39.04,247.72L41.2,250.08L43.37,254.06L45.54,254.65L47.71,258.17L49.88,259.16L52.05,262.5L54.22,264.25L58.55,266.9L60.72,267.65L65.06,269.37L67.23,270.04L71.57,272.22L73.73,273.33L75.9,275.39L78.07,274.61L84.58,275.86L86.75,276.82L91.08,277.49L93.25,278.8L99.76,280.72L101.93,282.7L104.1,282.93L106.27,284.42L112.77,284.71L114.94,285.09L119.28,286.31L121.45,286.54L123.61,287.3L125.78,286.77L127.95,287.3L130.12,286.8L134.46,287.73L136.63,288.96L138.8,288.98L140.96,289.77L147.47,290.93L149.64,290.56L151.81,290.7L153.98,291.87L158.31,291.43L160.48,292.51L164.82,292.88L166.99,293.2L171.33,294.11L173.49,294.72L180,294.19L182.17,294.34L188.67,294.78L190.84,294.57L195.18,294.31L197.35,294.51L212.53,296.06L214.7,296.06L219.04,296.03L221.2,296.2L225.54,297.39L227.71,297.45L232.05,297.16L234.22,297.16L258.07,299.72L260.24,299.49L273.25,299.64L275.42,299.64L279.76,299.64L281.93,299.93L288.43,300.39L290.6,300.86L294.94,300.68L297.11,300.83L340.48,301.44L342.65,301.35L386.02,302.69L388.19,302.63L399.04,302.78L401.2,302.92L526.99,303.39L529.16,303.42L540,303.36" style="vector-effect: non-scaling-stroke; fill: none; stroke: rgb(163, 165, 0); stroke-opacity: 1; stroke-width: 2px; opacity: 1;"/></g><g class="points"/><g class="text"/></g><g class="trace scatter trace286054" style="stroke-miterlimit: 2; opacity: 1;"><g class="fills"/><g class="errorbars"/><g class="lines"><path class="js-line" d="M0,29.56L2.17,80.4L4.34,109.99L8.67,171.1L10.84,186.9L13.01,190.51L15.18,201.89L17.35,212.92L19.52,214.87L23.86,234.42L26.02,243.65L30.36,250.14L32.53,250.11L34.7,250.83L36.87,254.12L39.04,256.19L41.2,256.39L43.37,258.6L45.54,256.95L47.71,259.8L49.88,260.61L56.39,269.2L58.55,269.02L60.72,269.72L62.89,269.02L67.23,272.31L69.4,271.55L73.73,273.71L75.9,276.06L80.24,276.73L82.41,277.05L84.58,277.23L86.75,278.42L88.92,278.19L91.08,279.38L93.25,281.01L95.42,281.51L104.1,284.3L106.27,285.96L112.77,285L114.94,285.75L127.95,288.08L130.12,287.97L134.46,288.37L136.63,288.75L138.8,289.36L140.96,289.1L147.47,289.6L149.64,289.51L153.98,290.32L156.14,290.76L160.48,291.28L162.65,291.14L175.66,293.44L177.83,293.49L190.84,294.69L193.01,294.25L197.35,295.74L199.52,295.79L203.86,296.58L206.02,296.38L225.54,297.8L227.71,297.6L232.05,297.45L234.22,297.45L251.57,297.98L253.73,298.35L281.93,299.02L284.1,299.14L310.12,299.87L312.29,299.69L318.8,300.36L320.96,300.25L327.47,300.89L329.64,300.83L336.14,300.65L338.31,300.86L351.33,301.35L353.49,301.21L362.17,301.15L364.34,301.38L370.84,301.41L373.01,301.79L401.2,302.05L403.37,302.2L440.24,302.57L442.41,302.57L540,303.04" style="vector-effect: non-scaling-stroke; fill: none; stroke: rgb(0, 191, 125); stroke-opacity: 1; stroke-width: 2px; opacity: 1;"/></g><g class="points"/><g class="text"/></g><g class="trace scatter trace423bb2" style="stroke-miterlimit: 2; opacity: 1;"><g class="fills"/><g class="errorbars"/><g class="lines"><path class="js-line" d="M0,31.66L4.34,109.76L6.51,137.37L10.84,182.28L13.01,192.4L15.18,195.75L17.35,204.8L19.52,211.49L21.69,221.56L26.02,231.95L28.19,235.73L32.53,238.96L34.7,242.19L36.87,242.98L39.04,246.53L43.37,256.25L45.54,258.14L47.71,260.38L49.88,261.05L52.05,264.25L54.22,265.97L58.55,267.8L60.72,270.83L62.89,269.72L65.06,269.72L69.4,270.16L71.57,272.48L73.73,273.33L75.9,276.18L80.24,276.12L82.41,277.17L88.92,277.43L91.08,279.24L95.42,280.69L97.59,280.57L99.76,281.21L101.93,283.34L104.1,283.4L106.27,285.06L110.6,283.83L112.77,283.14L117.11,285L119.28,285.75L121.45,285.11L123.61,285.84L127.95,287.21L130.12,286.6L138.8,288.93L140.96,288.49L156.14,291.02L158.31,290.99L162.65,291.46L164.82,291.69L169.16,292.65L171.33,292.8L175.66,293.49L177.83,293.55L184.34,294.25L186.51,294.08L190.84,294.69L193.01,294.25L208.19,296.38L210.36,296.46L214.7,296.38L216.87,296.06L221.2,295.76L223.37,296.55L255.9,298.24L258.07,297.92L271.08,298.76L273.25,299.14L279.76,299.17L281.93,299.31L338.31,301.21L340.48,301.18L366.51,301.38L368.67,301.58L377.35,301.85L379.52,301.93L429.4,302.95L431.57,302.81L448.92,302.84L451.08,303.01L483.61,303.21L485.78,303.21L500.96,303.16L503.13,303.19L540,303.62" style="vector-effect: non-scaling-stroke; fill: none; stroke: rgb(0, 176, 246); stroke-opacity: 1; stroke-width: 2px; opacity: 1;"/></g><g class="points"/><g class="text"/></g><g class="trace scatter trace837da2" style="stroke-miterlimit: 2; opacity: 1;"><g class="fills"/><g class="errorbars"/><g class="lines"><path class="js-line" d="M0,19.4L4.34,101.55L6.51,137.26L10.84,185.74L13.01,190.42L15.18,199.42L17.35,203.72L19.52,210.79L21.69,222.46L23.86,226.16L26.02,232.39L30.36,243.04L32.53,244.32L34.7,248.51L36.87,250.43L39.04,249.9L41.2,252.73L43.37,256.42L45.54,255.81L47.71,259.3L49.88,259.22L52.05,263.43L54.22,265.18L60.72,269.2L62.89,269.92L67.23,270.13L69.4,271.38L73.73,273.79L75.9,275.22L80.24,275.31L82.41,276.33L84.58,275.66L86.75,276.73L91.08,277.29L93.25,279.73L99.76,280.17L101.93,281.71L104.1,281.59L106.27,282.67L110.6,282.32L112.77,282.9L117.11,284.65L119.28,284.53L121.45,284.27L123.61,284.85L127.95,285.09L130.12,284.88L132.29,285.14L134.46,286.42L136.63,286.25L138.8,287.35L151.81,289.51L153.98,290.44L156.14,290.03L158.31,290.41L162.65,291.11L164.82,290.85L169.16,291.57L171.33,291.84L177.83,292.53L180,293.32L182.17,292.56L184.34,292.83L214.7,295.56L216.87,295.53L223.37,295.56L225.54,295.82L229.88,296.29L232.05,295.94L236.39,295.56L238.55,296.2L245.06,296.75L247.23,297.28L251.57,297.63L253.73,297.8L258.07,298.27L260.24,298.35L288.43,299.4L290.6,299.87L299.28,299.66L301.45,299.81L314.46,299.9L316.63,299.98L364.34,300.57L366.51,300.77L390.36,301.67L392.53,302.02L403.37,302.02L405.54,302.05L414.22,302.43L416.39,302.55L459.76,302.55L461.93,302.6L522.65,303.04L524.82,302.98L533.49,303.27L535.66,303.16L540,303.16" style="vector-effect: non-scaling-stroke; fill: none; stroke: rgb(231, 107, 243); stroke-opacity: 1; stroke-width: 2px; opacity: 1;"/></g><g class="points"/><g class="text"/></g><g class="trace scatter trace89aaf9" style="stroke-miterlimit: 2; opacity: 1;"><g class="fills"/><g class="errorbars"/><g class="lines"><path class="js-line" d="M0,37.68L6.51,149.42L8.67,173.34L10.84,191.5L13.01,199.68L17.35,211.35L19.52,216.9L21.69,230.93L23.86,234.66L28.19,243.65L30.36,244.93L32.53,243.5L34.7,248.74L41.2,261.4L43.37,264.83L45.54,264.74L47.71,266.58L49.88,267.77L52.05,271.26L54.22,273.18L56.39,272.83L60.72,274.32L62.89,276.53L69.4,279.15L71.57,279.24L75.9,281.77L78.07,281.54L86.75,281.56L88.92,282L91.08,283.4L93.25,283.89L97.59,285.11L99.76,284.85L106.27,288.75L108.43,288.34L112.77,288.05L114.94,288.84L119.28,289.54L121.45,289.1L125.78,289.54L127.95,289.42L132.29,289.25L134.46,289.57L138.8,290.96L140.96,290.7L145.3,291.89L147.47,292.36L158.31,293L160.48,293.49L166.99,294.34L169.16,294.46L188.67,295.76L190.84,296.06L193.01,295.42L195.18,296.11L206.02,297.48L208.19,297.48L214.7,298.06L216.87,297.74L247.23,299.58L249.4,299.34L253.73,299.46L255.9,299.2L266.75,299.72L268.92,299.49L284.1,300.68L286.27,300.6L305.78,300.92L307.95,300.92L340.48,301.61L342.65,301.7L420.72,303.19L422.89,303.13L440.24,303.13L442.41,303.13L481.45,303.16L483.61,303.24L500.96,303.33L503.13,303.33L535.66,303.59L537.83,303.62L540,303.56" style="vector-effect: non-scaling-stroke; fill: none; stroke: rgb(248, 118, 109); stroke-opacity: 1; stroke-width: 2px; opacity: 1;"/></g><g class="points"/><g class="text"/></g><g class="trace scatter trace68653c" style="stroke-miterlimit: 2; opacity: 1;"><g class="fills"/><g class="errorbars"/><g class="lines"><path class="js-line" d="M0,42.71L2.17,86.42L4.34,110.34L8.67,164.09L10.84,176.19L13.01,185.39L15.18,200.99L19.52,211.08L21.69,222.81L23.86,227.32L26.02,235.41L28.19,242.08L30.36,243.07L32.53,239.28L34.7,241.67L41.2,251.56L43.37,257.32L45.54,257.67L47.71,259.42L49.88,260.09L52.05,263.61L58.55,267.63L60.72,269.05L62.89,271.64L65.06,272.92L73.73,276.73L75.9,278.65L82.41,280.84L84.58,281.77L91.08,282.5L93.25,283.66L99.76,285.17L101.93,286.28L112.77,286.74L114.94,287.24L117.11,287.94L119.28,287.59L123.61,288.32L125.78,288.93L132.29,289.04L134.46,289.62L136.63,290.35L138.8,290.26L140.96,289.8L143.13,290.44L149.64,291.6L151.81,291.14L156.14,291.72L158.31,291.4L180,294.25L182.17,293.64L190.84,294.83L193.01,295.3L201.69,296.4L203.86,296.73L208.19,296.55L210.36,296.58L223.37,297.37L225.54,297.19L247.23,298.56L249.4,298.5L271.08,298.99L273.25,299.31L294.94,300.13L297.11,300.39L310.12,300.36L312.29,300.48L320.96,300.86L323.13,300.94L327.47,300.97L329.64,301.03L353.49,301.5L355.66,301.24L399.04,302.25L401.2,302.17L442.41,303.04L444.58,302.98L533.49,303.65L535.66,303.56L540,303.65" style="vector-effect: non-scaling-stroke; fill: none; stroke: rgb(163, 165, 0); stroke-opacity: 1; stroke-width: 2px; opacity: 1;"/></g><g class="points"/><g class="text"/></g><g class="trace scatter traceaaac12" style="stroke-miterlimit: 2; opacity: 1;"><g class="fills"/><g class="errorbars"/><g class="lines"><path class="js-line" d="M0,43.27L8.67,167.2L10.84,180.82L13.01,182.07L15.18,193.3L17.35,201.92L19.52,207.07L26.02,231.34L28.19,235.99L30.36,241.06L32.53,242.92L34.7,244.75L36.87,248.54L39.04,250.25L41.2,250.11L43.37,253.98L45.54,252.09L52.05,258.08L54.22,259.91L58.55,263.73L60.72,265.65L65.06,268.53L67.23,269.34L69.4,268.82L71.57,270.83L73.73,272.05L75.9,274.46L80.24,274.81L82.41,276.21L86.75,276.85L88.92,277.05L97.59,281.88L99.76,283.25L106.27,285.93L108.43,284.82L117.11,286.6L119.28,287.33L121.45,287.12L123.61,288.4L127.95,288.58L130.12,287.85L132.29,287.5L134.46,288.14L136.63,288.08L138.8,288.9L156.14,291.43L158.31,292.16L164.82,292.07L166.99,293.06L171.33,293.03L173.49,293.38L190.84,293.44L193.01,294.02L201.69,295.39L203.86,296.2L219.04,296.17L221.2,296.61L227.71,297.25L229.88,296.93L242.89,298.03L245.06,298.24L251.57,298.24L253.73,298.35L264.58,298.7L266.75,298.88L273.25,298.79L275.42,298.85L290.6,299.14L292.77,299.11L305.78,299.34L307.95,299.11L320.96,299.66L323.13,299.93L346.99,300.28L349.16,300.1L355.66,300.54L357.83,300.57L368.67,301L370.84,301.06L386.02,301.73L388.19,301.73L459.76,302.37L461.93,302.46L524.82,303.1L526.99,303.24L540,303.19" style="vector-effect: non-scaling-stroke; fill: none; stroke: rgb(0, 191, 125); stroke-opacity: 1; stroke-width: 2px; opacity: 1;"/></g><g class="points"/><g class="text"/></g><g class="trace scatter trace5ba7c3" style="stroke-miterlimit: 2; opacity: 1;"><g class="fills"/><g class="errorbars"/><g class="lines"><path class="js-line" d="M0,37.21L2.17,84.79L4.34,114.65L6.51,148.46L8.67,169.65L10.84,191.73L13.01,190.51L17.35,198.69L19.52,200.58L21.69,213.47L23.86,216.7L26.02,221.97L28.19,232.56L30.36,235L32.53,231.8L36.87,242.31L39.04,243.68L41.2,245.19L43.37,249.35L45.54,250.11L47.71,254.06L49.88,256.07L52.05,260.47L54.22,260.7L56.39,263.41L60.72,267.22L62.89,267.22L67.23,271.18L69.4,271.29L73.73,273.82L75.9,276.56L78.07,277.23L80.24,277L88.92,279L91.08,280.28L93.25,281.91L95.42,282.5L106.27,286.48L108.43,285.99L110.6,285.09L112.77,285.09L117.11,287.62L119.28,287.56L121.45,287.38L123.61,288.69L130.12,288.58L132.29,288.08L136.63,289.68L138.8,289.54L143.13,290.47L145.3,290.91L147.47,290.47L149.64,290.82L156.14,291.34L158.31,292.19L164.82,292.1L166.99,292.97L186.51,293.96L188.67,294.92L201.69,296.67L203.86,297.16L214.7,297.98L216.87,297.28L227.71,297.86L229.88,298.12L275.42,299.87L277.59,300.22L284.1,300.42L286.27,300.3L292.77,300.71L294.94,300.77L325.3,300.89L327.47,300.89L340.48,301.29L342.65,301.29L360,301.18L362.17,301.06L373.01,301.47L375.18,301.56L386.02,301.93L388.19,301.79L399.04,301.85L401.2,302.11L422.89,302.55L425.06,302.52L509.64,303.13L511.81,303.01L540,303.1" style="vector-effect: non-scaling-stroke; fill: none; stroke: rgb(0, 176, 246); stroke-opacity: 1; stroke-width: 2px; opacity: 1;"/></g><g class="points"/><g class="text"/></g><g class="trace scatter trace1d0bd6" style="stroke-miterlimit: 2; opacity: 1;"><g class="fills"/><g class="errorbars"/><g class="lines"><path class="js-line" d="M0,28.02L4.34,117.44L6.51,139.5L8.67,167.73L10.84,182.83L13.01,186.35L15.18,200.03L17.35,201.6L19.52,209.6L21.69,221.36L23.86,223.89L26.02,225.14L28.19,234.34L30.36,238.85L32.53,238.73L34.7,241.78L36.87,242.98L39.04,247.52L41.2,249.53L43.37,252.78L45.54,252.32L49.88,256.8L52.05,261.49L58.55,267.07L60.72,268.5L62.89,268.76L65.06,270.13L67.23,269.92L69.4,270.71L71.57,270.39L73.73,272.72L75.9,275.34L78.07,276.04L80.24,275.69L82.41,276.44L86.75,277L88.92,277.61L93.25,279.91L95.42,280.05L104.1,284.36L106.27,285.75L112.77,285.49L114.94,286.28L117.11,287.09L119.28,287.06L125.78,288.29L127.95,288.2L136.63,289.39L138.8,289.65L149.64,291.75L151.81,291.63L156.14,291.95L158.31,291.57L164.82,291.66L166.99,292.45L180,294.43L182.17,293.93L186.51,294.83L188.67,294.86L193.01,294.92L195.18,295.42L201.69,296.52L203.86,296.93L212.53,296.9L214.7,296.96L221.2,297.39L223.37,297.74L232.05,297.86L234.22,298.27L236.39,298.09L238.55,298.73L249.4,299.4L251.57,299.31L255.9,299.72L258.07,299.84L281.93,300.19L284.1,300.28L303.61,300.83L305.78,300.92L360,301.38L362.17,301.21L373.01,301.96L375.18,301.96L388.19,302.22L390.36,301.96L414.22,302.55L416.39,302.6L444.58,302.78L446.75,302.66L459.76,302.87L461.93,302.95L540,303.33" style="vector-effect: non-scaling-stroke; fill: none; stroke: rgb(231, 107, 243); stroke-opacity: 1; stroke-width: 2px; opacity: 1;"/></g><g class="points"/><g class="text"/></g><g class="trace scatter trace127084" style="stroke-miterlimit: 2; opacity: 1;"><g class="fills"/><g class="errorbars"/><g class="lines"><path class="js-line" d="M0,37.88L6.51,151.28L8.67,176.31L10.84,196.97L13.01,205.47L15.18,211.9L17.35,214.93L19.52,219.73L21.69,233.17L23.86,233.61L26.02,239.11L28.19,242.34L30.36,244.17L32.53,246.09L34.7,249.79L36.87,251.39L39.04,251.24L41.2,253.83L43.37,258.69L45.54,258.63L47.71,260.47L49.88,261.54L52.05,263.87L54.22,267.28L56.39,266.93L58.55,269.58L60.72,270.8L65.06,273.45L67.23,273.74L69.4,274.17L71.57,275.69L75.9,279.91L78.07,279.41L82.41,280.05L84.58,280.57L86.75,280.66L88.92,281.91L93.25,284.15L95.42,284.79L99.76,286.05L101.93,287.53L104.1,287.76L106.27,289.19L110.6,288.9L112.77,289.01L125.78,291.49L127.95,291.31L136.63,292.27L138.8,292.97L147.47,293.67L149.64,294.16L156.14,294.86L158.31,295.12L162.65,295.47L164.82,295.39L169.16,296.17L171.33,296.32L173.49,296.84L175.66,296.4L184.34,297.19L186.51,297.22L193.01,297.39L195.18,297.45L206.02,299.02L208.19,298.94L214.7,299.43L216.87,299.05L221.2,299.02L223.37,299.37L240.72,299.14L242.89,299.46L249.4,300.07L251.57,300.16L264.58,299.98L266.75,299.9L275.42,300.28L277.59,300.33L284.1,301.09L286.27,301.21L290.6,301.35L292.77,301.26L314.46,301.44L316.63,301.64L340.48,301.73L342.65,301.7L351.33,301.7L353.49,301.82L366.51,301.67L368.67,301.61L386.02,302.37L388.19,302.34L481.45,302.95L483.61,302.92L516.14,303.16L518.31,303.33L540,303.36" style="vector-effect: non-scaling-stroke; fill: none; stroke: rgb(248, 118, 109); stroke-opacity: 1; stroke-width: 2px; opacity: 1;"/></g><g class="points"/><g class="text"/></g><g class="trace scatter trace1b1211" style="stroke-miterlimit: 2; opacity: 1;"><g class="fills"/><g class="errorbars"/><g class="lines"><path class="js-line" d="M0,30.96L4.34,129.46L6.51,146.42L10.84,187.14L13.01,192.52L15.18,202.24L17.35,207.16L19.52,212.16L21.69,225.11L26.02,235.67L28.19,239.4L34.7,249.47L36.87,252.35L39.04,253.95L41.2,256.83L45.54,262.04L47.71,263.76L49.88,264.8L52.05,268.99L54.22,270.62L56.39,271.12L58.55,272.72L60.72,272.63L62.89,273.79L65.06,273.68L67.23,274.26L69.4,273.56L73.73,276.15L75.9,277.2L80.24,277.11L82.41,278.04L84.58,279.38L86.75,278.48L91.08,280.52L93.25,282.47L104.1,283.78L106.27,285.11L108.43,284.65L110.6,285.32L114.94,285.87L117.11,286.8L127.95,286.95L130.12,286.45L136.63,288.61L138.8,289.83L143.13,290.35L145.3,290.85L149.64,291.69L151.81,291.57L156.14,292.65L158.31,292.39L162.65,293L164.82,292.8L173.49,294.66L175.66,294.43L186.51,294.25L188.67,294.66L193.01,295.07L195.18,294.75L206.02,296L208.19,295.79L214.7,296.75L216.87,296.26L221.2,296.52L223.37,297.02L247.23,298.59L249.4,299.14L277.59,299.84L279.76,300.16L301.45,301.38L303.61,301.38L310.12,301.44L312.29,301.58L323.13,302.05L325.3,301.96L351.33,302.34L353.49,302.31L360,302.2L362.17,302.25L409.88,303.07L412.05,303.01L427.23,303.33L429.4,303.1L461.93,303.36L464.1,303.27L540,303.74" style="vector-effect: non-scaling-stroke; fill: none; stroke: rgb(163, 165, 0); stroke-opacity: 1; stroke-width: 2px; opacity: 1;"/></g><g class="points"/><g class="text"/></g><g class="trace scatter trace2c4915" style="stroke-miterlimit: 2; opacity: 1;"><g class="fills"/><g class="errorbars"/><g class="lines"><path class="js-line" d="M0,42.6L4.34,128.85L6.51,159.69L10.84,199.42L13.01,204.8L15.18,210.74L17.35,213.79L19.52,219.06L21.69,228.22L28.19,239.98L30.36,242.54L32.53,244.26L34.7,248.39L36.87,248.74L39.04,250.02L41.2,250.78L43.37,254.82L45.54,254.73L47.71,256.92L54.22,263.35L56.39,264.63L58.55,265.56L60.72,267.54L71.57,271.58L73.73,273.45L75.9,275.1L78.07,275.07L80.24,274.67L82.41,275.22L91.08,277.17L93.25,278.8L95.42,278.68L97.59,279.35L106.27,283.63L108.43,282.55L114.94,283.98L117.11,285L123.61,286.05L125.78,287.18L127.95,286.77L130.12,287.21L134.46,288L136.63,288.29L143.13,289.62L145.3,289.71L147.47,290.7L149.64,290.76L160.48,292.74L162.65,292.53L166.99,292.62L169.16,293.44L197.35,295.82L199.52,296.14L203.86,296.84L206.02,296.49L210.36,297.05L212.53,297.34L219.04,296.55L221.2,296.87L227.71,297.86L229.88,297.92L232.05,297.13L234.22,297.31L240.72,297.51L242.89,297.66L249.4,298.44L251.57,298.3L262.41,299.23L264.58,298.97L268.92,299.29L271.08,299.4L275.42,299.52L277.59,299.75L307.95,300.33L310.12,300.3L320.96,300.39L323.13,300.25L342.65,300.89L344.82,300.89L357.83,301.21L360,301.15L381.69,302.11L383.86,302.11L407.71,302.52L409.88,302.37L459.76,302.34L461.93,302.46L474.94,302.66L477.11,302.6L511.81,302.92L513.98,302.89L540,303.24" style="vector-effect: non-scaling-stroke; fill: none; stroke: rgb(0, 191, 125); stroke-opacity: 1; stroke-width: 2px; opacity: 1;"/></g><g class="points"/><g class="text"/></g><g class="trace scatter trace68d0bb" style="stroke-miterlimit: 2; opacity: 1;"><g class="fills"/><g class="errorbars"/><g class="lines"><path class="js-line" d="M0,35.03L4.34,125.97L6.51,156.23L8.67,178.93L10.84,193.51L13.01,200.35L15.18,210.36L17.35,216.85L19.52,218.91L21.69,227.12L23.86,231.25L30.36,248.57L32.53,249.61L34.7,251.62L36.87,252.46L39.04,252.64L41.2,253.72L43.37,255.87L45.54,255.99L47.71,259.51L49.88,259.8L52.05,263.7L54.22,265.21L56.39,265.47L58.55,267.19L60.72,269.49L62.89,270.48L69.4,272.46L71.57,274.23L75.9,278.22L78.07,278.74L80.24,278.63L82.41,279.47L86.75,280.17L88.92,280.2L91.08,281.62L93.25,281.74L95.42,282.18L97.59,283.46L99.76,283.72L101.93,284.94L104.1,285.2L106.27,287.24L110.6,287.06L112.77,287.01L117.11,287.91L119.28,289.04L125.78,289.6L127.95,289.71L132.29,289.48L134.46,290.09L138.8,290.82L140.96,290.99L147.47,292.91L149.64,293.15L153.98,293.99L156.14,294.69L162.65,295.39L164.82,295.21L184.34,297.13L186.51,297.16L199.52,298.53L201.69,299.05L208.19,299.05L210.36,299.64L219.04,299.69L221.2,299.69L229.88,300.48L232.05,300.04L238.55,299.98L240.72,300.42L305.78,301.9L307.95,301.79L323.13,302.2L325.3,302.11L383.86,302.78L386.02,302.87L431.57,302.6L433.73,302.55L451.08,302.55L453.25,302.75L479.28,303.16L481.45,303.16L540,303.59" style="vector-effect: non-scaling-stroke; fill: none; stroke: rgb(0, 176, 246); stroke-opacity: 1; stroke-width: 2px; opacity: 1;"/></g><g class="points"/><g class="text"/></g><g class="trace scatter trace2344a4" style="stroke-miterlimit: 2; opacity: 1;"><g class="fills"/><g class="errorbars"/><g class="lines"><path class="js-line" d="M0,32.94L4.34,119.54L6.51,135.75L10.84,180.33L13.01,181L15.18,193.16L17.35,200.46L19.52,207.77L21.69,222.99L23.86,224.67L26.02,229.18L28.19,233.87L30.36,240.48L32.53,238.26L34.7,241.76L39.04,244.4L41.2,248.3L43.37,251.39L45.54,250.83L49.88,254.27L52.05,258.55L56.39,261.02L58.55,264.63L65.06,267.42L67.23,267.01L69.4,268.32L71.57,270.59L75.9,272.31L78.07,273.18L82.41,274.73L84.58,274.11L91.08,275.22L93.25,277.26L99.76,280.23L101.93,280.37L104.1,281.1L106.27,282.87L110.6,282.5L112.77,283.11L117.11,284.82L119.28,285.03L123.61,285.38L125.78,284.62L127.95,284.36L130.12,285.26L132.29,284.85L134.46,286.25L138.8,287.97L140.96,288.34L143.13,288.11L145.3,289.07L153.98,289.51L156.14,289.42L158.31,289.13L160.48,289.86L164.82,290.47L166.99,290.99L173.49,291.55L175.66,291.69L182.17,292.74L184.34,293.23L197.35,293.87L199.52,294.34L219.04,295.5L221.2,295.27L227.71,295.76L229.88,295.56L234.22,295.42L236.39,295.79L247.23,295.71L249.4,296.35L253.73,296.43L255.9,296.49L273.25,297.86L275.42,297.86L290.6,299.23L292.77,299.11L303.61,299.81L305.78,299.75L323.13,299.81L325.3,299.87L331.81,300.28L333.98,299.9L357.83,300.57L360,300.57L383.86,301.7L386.02,301.41L399.04,301.82L401.2,301.7L416.39,302.08L418.55,301.96L446.75,302.46L448.92,302.43L477.11,303.01L479.28,302.95L503.13,302.95L505.3,303.01L540,303.13" style="vector-effect: non-scaling-stroke; fill: none; stroke: rgb(231, 107, 243); stroke-opacity: 1; stroke-width: 2px; opacity: 1;"/></g><g class="points"/><g class="text"/></g><g class="trace scatter tracef0efde" style="stroke-miterlimit: 2; opacity: 1;"><g class="fills"/><g class="errorbars"/><g class="lines"><path class="js-line" d="M0,38.9L6.51,160.57L8.67,180.76L10.84,198.19L13.01,199.12L15.18,201.74L17.35,208.38L19.52,211.49L21.69,220.69L26.02,228.49L28.19,231.89L30.36,233.81L32.53,237.51L34.7,242.72L36.87,242.83L39.04,244.72L41.2,248.77L47.71,255.81L49.88,256.89L54.22,261.89L56.39,263L67.23,268.96L69.4,269.25L73.73,272.46L75.9,273.21L84.58,274.87L86.75,276.27L91.08,278.01L93.25,279.88L101.93,280.98L104.1,280.55L108.43,283.31L110.6,283.63L112.77,283.22L114.94,284.18L117.11,284.27L119.28,285.41L123.61,286.6L125.78,286.42L132.29,287.44L134.46,288L138.8,289.48L140.96,289.92L147.47,290.73L149.64,290L158.31,290.41L160.48,291.46L164.82,292.19L166.99,292.68L173.49,293.52L175.66,293.9L177.83,293.73L180,294.37L182.17,293.35L184.34,293.87L199.52,294.25L201.69,294.63L206.02,294.98L208.19,294.86L212.53,295.27L214.7,295.1L219.04,294.66L221.2,295.01L225.54,295.44L227.71,295.5L229.88,296.14L232.05,295.74L236.39,295.33L238.55,295.42L247.23,296.58L249.4,296.35L260.24,295.85L262.41,295.97L264.58,295.65L266.75,296.11L275.42,297.1L277.59,297.02L292.77,298.18L294.94,298.03L301.45,298.7L303.61,298.76L318.8,298.67L320.96,298.76L325.3,298.99L327.47,299.08L333.98,299.23L336.14,299.84L349.16,300.07L351.33,299.96L377.35,300.92L379.52,300.83L388.19,301.21L390.36,301L416.39,301.53L418.55,301.41L427.23,301.41L429.4,301.47L481.45,302.31L483.61,302.22L492.29,302.2L494.46,302.37L520.48,302.69L522.65,302.81L540,303.01" style="vector-effect: non-scaling-stroke; fill: none; stroke: rgb(248, 118, 109); stroke-opacity: 1; stroke-width: 2px; opacity: 1;"/></g><g class="points"/><g class="text"/></g><g class="trace scatter tracec5bc73" style="stroke-miterlimit: 2; opacity: 1;"><g class="fills"/><g class="errorbars"/><g class="lines"><path class="js-line" d="M0,49.64L2.17,100.33L4.34,131.79L8.67,190.19L10.84,201.6L13.01,203.2L15.18,207.16L17.35,211.17L19.52,219.12L21.69,232.21L23.86,235.18L28.19,246.62L30.36,249.99L32.53,248.97L34.7,252.87L39.04,257.79L41.2,259.1L45.54,260.44L47.71,263.41L54.22,267.1L56.39,268.59L58.55,270.54L60.72,271.38L62.89,272.43L65.06,272.16L67.23,272.51L69.4,273.85L73.73,276.56L75.9,277.78L84.58,278.65L86.75,279.91L91.08,280.66L93.25,282.67L97.59,283.11L99.76,284.42L106.27,287.12L108.43,286.34L110.6,286.05L112.77,286.63L117.11,287.62L119.28,288.29L121.45,288.05L123.61,288.72L132.29,288.55L134.46,289.62L138.8,290.53L140.96,290.32L147.47,292.62L149.64,292.88L162.65,293.84L164.82,293.09L166.99,293.9L169.16,293.67L177.83,295.5L180,295.91L182.17,295.15L184.34,295.24L186.51,296.03L188.67,296L195.18,296.32L197.35,296.61L201.69,297.19L203.86,297.02L208.19,297.74L210.36,297.86L221.2,297.48L223.37,298.21L229.88,298.3L232.05,298.21L268.92,299.58L271.08,299.52L279.76,299.93L281.93,299.69L310.12,300.8L312.29,300.74L362.17,301.47L364.34,301.18L373.01,301.76L375.18,301.9L383.86,302.11L386.02,302.17L422.89,302.92L425.06,302.78L494.46,303.1L496.63,303.07L509.64,303.16L511.81,303.1L520.48,303.21L522.65,303.3L540,303.3" style="vector-effect: non-scaling-stroke; fill: none; stroke: rgb(163, 165, 0); stroke-opacity: 1; stroke-width: 2px; opacity: 1;"/></g><g class="points"/><g class="text"/></g><g class="trace scatter trace13ab8b" style="stroke-miterlimit: 2; opacity: 1;"><g class="fills"/><g class="errorbars"/><g class="lines"><path class="js-line" d="M0,17.75L6.51,139.41L8.67,166.62L10.84,190.34L13.01,190.92L19.52,203.78L21.69,219.44L26.02,228.6L28.19,238.03L30.36,241.9L32.53,242.25L36.87,251.33L39.04,253.31L43.37,259.07L45.54,259.74L49.88,263.43L52.05,266.93L54.22,268.09L56.39,270.94L60.72,273.5L62.89,273.85L67.23,276.59L69.4,276.36L75.9,280.08L78.07,279.35L80.24,278.48L82.41,280.08L91.08,281.71L93.25,283.14L104.1,286.13L106.27,287.35L112.77,287.38L114.94,287.7L127.95,289.42L130.12,289.19L134.46,289.57L136.63,290.03L140.96,291.02L143.13,292.1L158.31,293.61L160.48,293.7L162.65,294.4L164.82,293.87L173.49,295.04L175.66,295.12L190.84,295.94L193.01,295.97L197.35,296.67L199.52,297.28L214.7,297.6L216.87,297.16L219.04,296.93L221.2,297.51L225.54,297.8L227.71,298.06L238.55,298.94L240.72,299.14L255.9,299.66L258.07,299.37L264.58,299.72L266.75,299.75L303.61,301.61L305.78,301.21L316.63,301.58L318.8,301.76L383.86,302.37L386.02,302.49L425.06,302.89L427.23,302.84L540,303.24" style="vector-effect: non-scaling-stroke; fill: none; stroke: rgb(0, 191, 125); stroke-opacity: 1; stroke-width: 2px; opacity: 1;"/></g><g class="points"/><g class="text"/></g><g class="trace scatter traceaceb92" style="stroke-miterlimit: 2; opacity: 1;"><g class="fills"/><g class="errorbars"/><g class="lines"><path class="js-line" d="M0,30.75L6.51,147.79L8.67,164.96L10.84,182.25L13.01,188.85L15.18,200.96L17.35,203.52L23.86,229.59L26.02,235L28.19,241.46L30.36,242.34L32.53,240.48L34.7,242.6L36.87,247.75L39.04,250.08L41.2,252L43.37,255.29L47.71,259.51L49.88,259.13L52.05,263.46L54.22,266L58.55,269.55L60.72,270.68L67.23,270.3L69.4,271.87L75.9,275.98L78.07,275.98L80.24,275.45L82.41,276.41L84.58,275.74L86.75,276.12L88.92,276.27L91.08,278.16L101.93,282.55L104.1,282.87L106.27,283.6L108.43,283.14L112.77,282.93L114.94,283.8L119.28,285.06L121.45,284.24L125.78,285.32L127.95,285.52L134.46,286.34L136.63,287.21L138.8,288.26L140.96,288.23L145.3,288.84L147.47,289.19L149.64,289.01L151.81,289.62L156.14,289.92L158.31,290.06L162.65,290.79L164.82,290.44L166.99,291.81L169.16,291.89L175.66,291.84L177.83,292.71L180,293.49L182.17,293.23L188.67,293.82L190.84,294.16L195.18,294.14L197.35,295.07L206.02,296.73L208.19,296.55L227.71,297.37L229.88,297.92L234.22,297.51L236.39,297.6L247.23,298.99L249.4,298.85L253.73,299.02L255.9,299.14L268.92,299.69L271.08,299.78L279.76,300.39L281.93,300.28L290.6,300.92L292.77,300.65L301.45,301.53L303.61,301.53L310.12,301.32L312.29,301.35L340.48,301.9L342.65,301.9L407.71,303.1L409.88,302.92L446.75,302.81L448.92,302.69L464.1,302.95L466.27,303.01L477.11,303.39L479.28,303.36L516.14,303.39L518.31,303.53L540,303.65" style="vector-effect: non-scaling-stroke; fill: none; stroke: rgb(0, 176, 246); stroke-opacity: 1; stroke-width: 2px; opacity: 1;"/></g><g class="points"/><g class="text"/></g><g class="trace scatter trace699859" style="stroke-miterlimit: 2; opacity: 1;"><g class="fills"/><g class="errorbars"/><g class="lines"><path class="js-line" d="M0,36.6L8.67,167.29L10.84,191.53L15.18,209.37L17.35,213.91L19.52,215.16L21.69,228.86L23.86,232.12L26.02,238.73L28.19,243.94L30.36,246.76L32.53,247.75L34.7,251.3L39.04,256.95L41.2,258.28L43.37,262.1L45.54,263.46L47.71,264.95L49.88,264.74L52.05,268.56L54.22,269.75L58.55,271.76L60.72,271.76L62.89,271.7L65.06,273.21L69.4,274.06L71.57,277.08L75.9,280.92L78.07,281.19L82.41,281.13L84.58,281.45L86.75,282.61L88.92,282.76L91.08,283.34L93.25,285.03L95.42,285.67L97.59,285.38L101.93,287.27L104.1,286.92L106.27,288.08L108.43,287.35L112.77,286.69L114.94,287.62L119.28,288.87L121.45,288.75L123.61,289.39L125.78,289.25L130.12,289.22L132.29,289.94L134.46,290.82L136.63,290.67L145.3,292.36L147.47,292.59L160.48,294.19L162.65,293.84L173.49,295.01L175.66,295.21L182.17,295.44L184.34,296L186.51,295.62L188.67,296.08L216.87,297.98L219.04,297.77L225.54,298.62L227.71,298.56L229.88,298.99L232.05,298.5L240.72,299.49L242.89,299.4L249.4,300.04L251.57,300.16L255.9,300.19L258.07,300.45L288.43,301.5L290.6,301.61L373.01,301.99L375.18,302.05L383.86,302.46L386.02,302.57L405.54,302.55L407.71,302.89L461.93,303.07L464.1,302.89L540,303.27" style="vector-effect: non-scaling-stroke; fill: none; stroke: rgb(231, 107, 243); stroke-opacity: 1; stroke-width: 2px; opacity: 1;"/></g><g class="points"/><g class="text"/></g><g class="trace scatter trace0be515" style="stroke-miterlimit: 2; opacity: 1;"><g class="fills"/><g class="errorbars"/><g class="lines"><path class="js-line" d="M0,36.05L4.34,119.04L6.51,147.33L8.67,171.77L10.84,184.6L13.01,187.16L15.18,194.61L19.52,208.7L21.69,221.74L23.86,222.81L26.02,226.16L28.19,232.62L30.36,234.68L32.53,236.14L34.7,240.94L41.2,249.5L43.37,250.22L45.54,250.81L47.71,255.35L49.88,257.24L52.05,260.85L54.22,263.93L56.39,265.7L65.06,271.5L67.23,271.7L71.57,274.26L73.73,275.39L75.9,276.85L78.07,277.05L82.41,277L84.58,276.65L86.75,277.84L88.92,277.87L95.42,282.06L97.59,282.29L104.1,283.57L106.27,285.52L110.6,283.98L112.77,284.12L114.94,285.58L117.11,286.13L132.29,287.27L134.46,288.46L136.63,288.75L138.8,289.92L143.13,289.65L145.3,290.59L147.47,291.57L149.64,291.17L153.98,291.84L156.14,291.49L158.31,291.34L160.48,292.21L169.16,292.94L171.33,293.03L180,294.31L182.17,294.14L184.34,293.84L186.51,294.34L197.35,295.44L199.52,295.68L208.19,296.29L210.36,296.32L223.37,296.93L225.54,296.96L227.71,296.78L229.88,297.37L236.39,296.84L238.55,297.39L258.07,299.37L260.24,299.37L266.75,299.61L268.92,299.4L327.47,301.32L329.64,301.35L342.65,301.7L344.82,301.85L357.83,301.32L360,301.44L396.87,302.78L399.04,302.84L433.73,302.92L435.9,302.84L479.28,302.98L481.45,303.04L520.48,303.48L522.65,303.39L540,303.56" style="vector-effect: non-scaling-stroke; fill: none; stroke: rgb(248, 118, 109); stroke-opacity: 1; stroke-width: 2px; opacity: 1;"/></g><g class="points"/><g class="text"/></g><g class="trace scatter tracef33a64" style="stroke-miterlimit: 2; opacity: 1;"><g class="fills"/><g class="errorbars"/><g class="lines"><path class="js-line" d="M0,52.87L4.34,132.4L6.51,163.56L10.84,200.46L13.01,209.92L15.18,221.62L17.35,221.09L19.52,225.46L21.69,236.05L23.86,235.12L26.02,238.55L28.19,243.85L30.36,245.83L32.53,243.15L34.7,247.63L36.87,251.15L39.04,251.53L41.2,253.4L43.37,257.06L49.88,261.08L52.05,263.55L60.72,268.5L62.89,269.66L65.06,271.44L67.23,271.38L71.57,271.93L73.73,273.53L78.07,276.47L80.24,275.34L82.41,276.53L84.58,276.53L93.25,279.99L95.42,281.54L99.76,282.18L101.93,283.51L104.1,283.25L106.27,285.35L112.77,284.47L114.94,285.23L119.28,286.71L121.45,286.66L125.78,288.23L127.95,288.05L134.46,288.37L136.63,289.39L147.47,292.01L149.64,291.46L158.31,292.51L160.48,292.36L162.65,292.94L164.82,292.48L169.16,292.94L171.33,293.09L175.66,294.28L177.83,294.54L184.34,295.18L186.51,295.21L199.52,297.48L201.69,297.66L206.02,297.51L208.19,297.8L214.7,297.98L216.87,297.22L260.24,300.33L262.41,300.1L273.25,300.36L275.42,300.54L284.1,300.42L286.27,300.57L297.11,301.06L299.28,300.92L325.3,301.56L327.47,301.5L349.16,301.56L351.33,301.5L481.45,303.19L483.61,302.98L500.96,303.24L503.13,303.21L537.83,303.51L540,303.45" style="vector-effect: non-scaling-stroke; fill: none; stroke: rgb(163, 165, 0); stroke-opacity: 1; stroke-width: 2px; opacity: 1;"/></g><g class="points"/><g class="text"/></g><g class="trace scatter traceffab93" style="stroke-miterlimit: 2; opacity: 1;"><g class="fills"/><g class="errorbars"/><g class="lines"><path class="js-line" d="M0,35.61L2.17,85.2L4.34,111.65L6.51,154.98L8.67,175L13.01,187.92L15.18,198.05L21.69,228.11L23.86,227.76L26.02,236.46L28.19,240.82L32.53,242.31L34.7,246.94L36.87,249.64L39.04,255.52L41.2,255.49L43.37,259.74L45.54,260.61L47.71,262.85L54.22,269.05L56.39,273.5L58.55,274.55L60.72,276.68L65.06,277.61L67.23,278.8L69.4,279.29L71.57,280.84L78.07,283.8L80.24,283.46L88.92,285.14L91.08,284.85L97.59,285.29L99.76,286.22L101.93,287.24L104.1,287.24L108.43,288.4L110.6,289.07L114.94,289.1L117.11,290.26L121.45,289.51L123.61,289.57L125.78,290.41L127.95,290.44L130.12,289.86L132.29,290.93L145.3,293.73L147.47,293.29L153.98,293.84L156.14,293.87L160.48,293.99L162.65,294.4L169.16,294.78L171.33,295.3L182.17,296.11L184.34,296.03L195.18,296.99L197.35,297.71L208.19,298.27L210.36,298.35L214.7,298.47L216.87,298.44L219.04,298.01L221.2,298.59L245.06,299.93L247.23,300.13L271.08,300.28L273.25,300.6L277.59,300.54L279.76,300.83L284.1,300.74L286.27,300.92L292.77,301.26L294.94,301.29L451.08,302.98L453.25,302.98L461.93,303.04L464.1,303.1L540,303.48" style="vector-effect: non-scaling-stroke; fill: none; stroke: rgb(0, 191, 125); stroke-opacity: 1; stroke-width: 2px; opacity: 1;"/></g><g class="points"/><g class="text"/></g><g class="trace scatter trace28b8aa" style="stroke-miterlimit: 2; opacity: 1;"><g class="fills"/><g class="errorbars"/><g class="lines"><path class="js-line" d="M0,20.34L4.34,113.98L6.51,138.98L8.67,165.14L10.84,179.77L13.01,183.21L15.18,191.59L17.35,200.4L19.52,205.93L28.19,230.93L30.36,233.29L32.53,234.28L34.7,237.86L36.87,242.19L39.04,244.29L41.2,246.64L43.37,251.1L45.54,250.25L47.71,254.38L49.88,255.37L52.05,260.12L54.22,261.02L56.39,263.14L58.55,265.91L60.72,266.64L62.89,267.8L65.06,267.04L69.4,267.95L71.57,269.81L75.9,273.59L78.07,274.26L80.24,274.17L82.41,274.96L93.25,278.92L95.42,279.79L99.76,281.07L101.93,282.2L104.1,282.29L106.27,284.04L108.43,284.33L110.6,283.57L117.11,285.23L119.28,285.09L127.95,286.63L130.12,286.45L134.46,286.86L136.63,287.97L143.13,288.17L145.3,289.33L151.81,290.79L153.98,291.31L162.65,292.33L164.82,292.04L169.16,293.29L171.33,293.32L193.01,294.89L195.18,295.47L214.7,296.58L216.87,296.29L221.2,296.4L223.37,296.9L247.23,298.21L249.4,298.15L260.24,298.35L262.41,298.27L271.08,298.38L273.25,298.76L288.43,299.87L290.6,299.9L297.11,299.61L299.28,299.87L310.12,300.16L312.29,299.98L320.96,300.28L323.13,300.6L333.98,300.6L336.14,300.97L353.49,301.21L355.66,301.12L366.51,301.38L368.67,301.5L409.88,302.43L412.05,302.17L438.07,302.4L440.24,302.4L451.08,302.49L453.25,302.52L540,303.24" style="vector-effect: non-scaling-stroke; fill: none; stroke: rgb(0, 176, 246); stroke-opacity: 1; stroke-width: 2px; opacity: 1;"/></g><g class="points"/><g class="text"/></g><g class="trace scatter traceee3c45" style="stroke-miterlimit: 2; opacity: 1;"><g class="fills"/><g class="errorbars"/><g class="lines"><path class="js-line" d="M0,31.42L6.51,140.4L8.67,170.87L10.84,187.08L13.01,184.4L15.18,191.68L17.35,194.93L23.86,218.18L26.02,224.59L28.19,232.5L30.36,235.85L32.53,233.61L34.7,240.18L43.37,256.45L45.54,257L47.71,259.33L49.88,260.23L52.05,263.87L54.22,265.76L60.72,272.48L62.89,273.36L65.06,275.6L67.23,276.24L71.57,278.01L73.73,279.24L75.9,282.06L78.07,282.64L80.24,281.07L82.41,281.68L86.75,281.51L88.92,281.45L91.08,281.88L93.25,283.11L99.76,285.58L101.93,286.69L104.1,286.63L106.27,287.53L108.43,288.23L110.6,288.05L112.77,287.82L114.94,288.98L121.45,290.24L123.61,290.18L132.29,290.59L134.46,290.93L136.63,291.87L138.8,291.84L143.13,292.48L145.3,292.8L151.81,292.94L153.98,293.38L160.48,294.8L162.65,294.83L166.99,295.56L169.16,295.88L175.66,296.67L177.83,296.93L186.51,297.45L188.67,297.69L195.18,297.8L197.35,298.24L203.86,298.38L206.02,298.82L234.22,299.14L236.39,299.55L249.4,299.96L251.57,299.81L262.41,300.39L264.58,300.71L271.08,300.92L273.25,300.86L286.27,300.68L288.43,300.8L323.13,302.31L325.3,302.31L338.31,302.46L340.48,302.52L351.33,302.49L353.49,302.46L407.71,303.24L409.88,303.21L464.1,303.16L466.27,303.3L540,303.68" style="vector-effect: non-scaling-stroke; fill: none; stroke: rgb(231, 107, 243); stroke-opacity: 1; stroke-width: 2px; opacity: 1;"/></g><g class="points"/><g class="text"/></g><g class="trace scatter tracea107e2" style="stroke-miterlimit: 2; opacity: 1;"><g class="fills"/><g class="errorbars"/><g class="lines"><path class="js-line" d="M0,43.41L2.17,107.78L4.34,134.9L6.51,171.13L8.67,191.21L10.84,206.34L13.01,209.16L15.18,220.75L17.35,222.7L19.52,222.61L21.69,232.76L23.86,240.01L26.02,243.79L28.19,248.36L30.36,250.22L32.53,249.32L34.7,251.1L39.04,256.28L41.2,257.15L43.37,259.91L45.54,258.17L49.88,261.75L52.05,265.68L56.39,268.44L58.55,269.78L75.9,279.93L78.07,279.61L84.58,279.88L86.75,280.57L88.92,280.6L91.08,281.94L93.25,284.36L95.42,284.56L99.76,284.53L101.93,286.25L104.1,285.99L106.27,288.05L108.43,287.97L110.6,287.12L114.94,287.38L117.11,288.4L123.61,287.65L125.78,288.61L127.95,288.69L130.12,287.79L147.47,291.52L149.64,291.6L158.31,293.2L160.48,292.97L164.82,293.03L166.99,294.02L180,295.42L182.17,295.12L197.35,296.78L199.52,297.13L216.87,298.35L219.04,298.09L229.88,298.82L232.05,298.47L238.55,298.97L240.72,298.97L249.4,299.9L251.57,299.84L288.43,301.61L290.6,301.82L301.45,301.9L303.61,301.96L316.63,301.88L318.8,302.05L331.81,302.63L333.98,302.63L386.02,302.92L388.19,302.87L396.87,302.75L399.04,302.78L470.6,303.36L472.77,303.3L540,303.62" style="vector-effect: non-scaling-stroke; fill: none; stroke: rgb(248, 118, 109); stroke-opacity: 1; stroke-width: 2px; opacity: 1;"/></g><g class="points"/><g class="text"/></g><g class="trace scatter trace205850" style="stroke-miterlimit: 2; opacity: 1;"><g class="fills"/><g class="errorbars"/><g class="lines"><path class="js-line" d="M0,39.11L2.17,85L4.34,113.69L8.67,167.46L10.84,183.03L13.01,190.63L15.18,193.94L17.35,208.38L19.52,211.49L23.86,229.5L26.02,232.24L30.36,241.17L32.53,244.2L36.87,249.53L39.04,250.02L41.2,250.57L43.37,255.14L45.54,254.59L47.71,257.41L49.88,257.15L52.05,259.27L54.22,260.53L56.39,263.49L60.72,266.26L62.89,267.39L67.23,272.4L69.4,271.67L71.57,273.42L73.73,274L78.07,276.27L80.24,276.7L82.41,276.65L84.58,277.93L86.75,277.98L88.92,277.23L91.08,278.25L93.25,280.49L99.76,281.13L101.93,282.35L104.1,282.32L106.27,283.6L108.43,282.76L110.6,283.08L112.77,282.84L114.94,283.78L117.11,284.88L119.28,284.91L121.45,285.23L123.61,286.51L132.29,286.1L134.46,287.21L147.47,291.46L149.64,291.28L175.66,294.08L177.83,293.29L190.84,293.73L193.01,293.73L203.86,295.68L206.02,295.82L223.37,297.22L225.54,297.66L227.71,297.42L229.88,298.06L232.05,297.25L234.22,297.28L240.72,298.15L242.89,298.24L253.73,298.82L255.9,299.2L271.08,299.49L273.25,299.87L279.76,299.78L281.93,299.9L292.77,300.22L294.94,300.3L303.61,300.48L305.78,300.28L314.46,300.45L316.63,300.92L344.82,301.7L346.99,301.7L357.83,301.61L360,301.44L370.84,301.67L373.01,301.85L414.22,302.89L416.39,302.95L433.73,303.01L435.9,302.98L457.59,303.16L459.76,303.19L494.46,303.27L496.63,303.27L511.81,303.42L513.98,303.45L540,303.56" style="vector-effect: non-scaling-stroke; fill: none; stroke: rgb(163, 165, 0); stroke-opacity: 1; stroke-width: 2px; opacity: 1;"/></g><g class="points"/><g class="text"/></g><g class="trace scatter trace9dc3f8" style="stroke-miterlimit: 2; opacity: 1;"><g class="fills"/><g class="errorbars"/><g class="lines"><path class="js-line" d="M0,57.64L2.17,93.52L4.34,116.22L8.67,169.85L10.84,182.57L13.01,190.28L15.18,201.02L17.35,199.76L19.52,205.93L23.86,223.66L26.02,232.33L30.36,241.58L32.53,241.14L34.7,245.16L36.87,245.63L39.04,248.07L41.2,252.26L43.37,255.87L45.54,257.21L47.71,260.26L49.88,261.81L52.05,266.08L54.22,267.83L58.55,269.63L60.72,271.12L67.23,274.96L69.4,276.09L73.73,278.92L75.9,280.95L78.07,279.99L80.24,280.14L84.58,281.24L86.75,282.44L91.08,282.5L93.25,284.62L97.59,285.64L99.76,286.05L101.93,287.65L104.1,287.3L106.27,288.81L108.43,288.81L121.45,289.48L123.61,290.44L127.95,290.32L130.12,290.06L134.46,290.29L136.63,291.52L140.96,292.24L143.13,292.24L147.47,293.12L149.64,293.03L153.98,293.9L156.14,293.55L162.65,293.93L164.82,293.55L177.83,295.15L180,295.39L184.34,295.15L186.51,295.07L190.84,295.82L193.01,295.47L197.35,296.2L199.52,296.75L201.69,297.57L203.86,297.51L208.19,297.77L210.36,297.6L219.04,297.63L221.2,298.01L232.05,298.67L234.22,298.3L240.72,299.55L242.89,299.26L258.07,299.98L260.24,300.19L286.27,300.71L288.43,301.35L351.33,302.37L353.49,302.34L362.17,302.4L364.34,302.46L375.18,302.6L377.35,302.78L524.82,303.48L526.99,303.56L540,303.42" style="vector-effect: non-scaling-stroke; fill: none; stroke: rgb(0, 191, 125); stroke-opacity: 1; stroke-width: 2px; opacity: 1;"/></g><g class="points"/><g class="text"/></g><g class="trace scatter trace0eb7f8" style="stroke-miterlimit: 2; opacity: 1;"><g class="fills"/><g class="errorbars"/><g class="lines"><path class="js-line" d="M0,37.39L2.17,96.37L4.34,117.24L10.84,172.53L13.01,179.19L19.52,205.88L21.69,217.14L28.19,235.85L30.36,239.14L32.53,240.24L34.7,244.67L36.87,245.31L39.04,248.22L41.2,250.95L43.37,254.94L45.54,255.17L47.71,257.12L49.88,256.65L52.05,261.22L58.55,267.74L60.72,268.29L65.06,271.09L67.23,271.06L75.9,277.05L78.07,276.85L80.24,277.34L82.41,278.89L84.58,279.64L86.75,279.56L91.08,280.31L93.25,282L97.59,282.52L99.76,283.63L101.93,285.14L104.1,285.32L106.27,286.71L108.43,286.6L112.77,286.07L114.94,287.15L117.11,287.91L119.28,287.76L121.45,288.81L123.61,288.9L127.95,289.25L130.12,288.75L136.63,291.08L138.8,291.75L143.13,291.69L145.3,291.78L147.47,292.48L149.64,292.04L156.14,292.36L158.31,292.97L166.99,294.78L169.16,294.75L186.51,295.85L188.67,296.46L195.18,296.64L197.35,297.39L216.87,298.27L219.04,298.06L229.88,299.14L232.05,298.91L245.06,299.58L247.23,299.75L264.58,299.9L266.75,299.75L297.11,300.94L299.28,300.86L305.78,301.15L307.95,301.21L314.46,301.18L316.63,301.67L327.47,301.56L329.64,301.53L375.18,301.73L377.35,302.17L392.53,302.2L394.7,302.22L483.61,303.04L485.78,302.89L540,303.21" style="vector-effect: non-scaling-stroke; fill: none; stroke: rgb(0, 176, 246); stroke-opacity: 1; stroke-width: 2px; opacity: 1;"/></g><g class="points"/><g class="text"/></g><g class="trace scatter trace180da1" style="stroke-miterlimit: 2; opacity: 1;"><g class="fills"/><g class="errorbars"/><g class="lines"><path class="js-line" d="M0,39.54L2.17,75.13L4.34,126.55L8.67,175.15L10.84,187.19L13.01,190.57L15.18,196.53L21.69,217.14L23.86,219.99L28.19,234.1L30.36,240.71L32.53,239.75L34.7,244.2L36.87,243.47L39.04,245.83L43.37,250.17L45.54,250.43L47.71,253.31L49.88,254.06L52.05,259.42L54.22,261.72L56.39,263.06L58.55,265.7L69.4,273.15L71.57,274.38L75.9,278.97L78.07,279.09L86.75,282.52L88.92,283.4L91.08,283.48L93.25,285.84L104.1,288.43L106.27,289.94L112.77,289.13L114.94,289.62L117.11,290.53L119.28,290.32L125.78,291.57L127.95,291.14L136.63,292.85L138.8,293.06L143.13,293.84L145.3,294.34L149.64,294.8L151.81,294.95L160.48,295.94L162.65,295.85L166.99,295.76L169.16,296L177.83,296.64L180,296.58L182.17,296.2L184.34,296.78L195.18,297.74L197.35,297.92L203.86,298.44L206.02,298.06L223.37,298.12L225.54,298.3L232.05,297.95L234.22,298.03L238.55,298.76L240.72,299.17L286.27,301.29L288.43,301.88L297.11,302.14L299.28,302.08L305.78,302.08L307.95,302.14L320.96,302.34L323.13,302.49L333.98,302.46L336.14,302.66L360,302.66L362.17,302.84L390.36,303.19L392.53,303.21L431.57,303.62L433.73,303.56L457.59,303.8L459.76,303.74L529.16,303.97L531.33,303.94L540,303.91" style="vector-effect: non-scaling-stroke; fill: none; stroke: rgb(231, 107, 243); stroke-opacity: 1; stroke-width: 2px; opacity: 1;"/></g><g class="points"/><g class="text"/></g><g class="trace scatter tracef322af" style="stroke-miterlimit: 2; opacity: 1;"><g class="fills"/><g class="errorbars"/><g class="lines"><path class="js-line" d="M0,40.44L4.34,120.15L6.51,145.29L10.84,188.97L13.01,189.73L17.35,209.37L19.52,213.3L21.69,224.38L23.86,228.86L26.02,233.29L28.19,241.2L30.36,245.68L32.53,242.25L36.87,249.58L39.04,250.57L41.2,252.06L43.37,257.56L45.54,256.89L47.71,261.57L49.88,263.14L52.05,266.75L54.22,269.55L56.39,270.22L60.72,271.84L62.89,272.37L65.06,274.81L67.23,274.99L69.4,274.84L71.57,276.12L75.9,280.87L78.07,280.6L82.41,280.43L84.58,280.78L86.75,281.56L88.92,281.51L95.42,283.66L97.59,284.59L99.76,284.68L101.93,285.75L108.43,288.75L110.6,288.05L112.77,287.73L114.94,288.52L119.28,289.68L121.45,289.45L125.78,289.71L127.95,289.71L132.29,289.62L134.46,289.92L138.8,291.17L140.96,291.37L145.3,292.94L147.47,293.35L171.33,296.11L173.49,296.67L188.67,297.31L190.84,297.42L203.86,297.69L206.02,298.21L212.53,298.35L214.7,298.41L219.04,298.18L221.2,298.18L232.05,299.08L234.22,298.76L266.75,300.33L268.92,300.28L279.76,301.09L281.93,300.89L288.43,301.7L290.6,301.61L294.94,301.24L297.11,301.38L316.63,301.79L318.8,302.05L442.41,303.27L444.58,303.21L540,303.45" style="vector-effect: non-scaling-stroke; fill: none; stroke: rgb(248, 118, 109); stroke-opacity: 1; stroke-width: 2px; opacity: 1;"/></g><g class="points"/><g class="text"/></g><g class="trace scatter tracec5fbd1" style="stroke-miterlimit: 2; opacity: 1;"><g class="fills"/><g class="errorbars"/><g class="lines"><path class="js-line" d="M0,31.89L4.34,129.46L6.51,157.77L10.84,199.42L13.01,202.35L17.35,211.99L19.52,216.53L21.69,226.13L23.86,229.48L26.02,237.22L28.19,240.59L32.53,243.79L34.7,245.68L36.87,247.43L39.04,247.14L43.37,253.86L45.54,253.05L47.71,256.6L49.88,256.42L52.05,260.85L54.22,262.36L56.39,264.42L58.55,265.21L78.07,272.14L80.24,271.82L82.41,273.59L84.58,274.32L88.92,273.65L91.08,274.75L97.59,278.65L99.76,278.74L101.93,280.23L104.1,280.78L108.43,281.88L110.6,281.94L112.77,282L114.94,282.82L121.45,282.82L123.61,284.01L127.95,284.1L130.12,283.75L147.47,287.62L149.64,287.3L156.14,288.02L158.31,287.88L162.65,287.91L164.82,288.29L171.33,290.03L173.49,290.12L182.17,290.61L184.34,290.59L188.67,291.52L190.84,291.81L195.18,292.04L197.35,292.83L203.86,293.29L206.02,292.83L212.53,293.15L214.7,293.84L221.2,293.93L223.37,294.28L232.05,294.92L234.22,294.95L238.55,295.12L240.72,295.42L247.23,296.7L249.4,296.75L258.07,296.93L260.24,297.07L266.75,297.42L268.92,297.37L279.76,297.74L281.93,297.95L297.11,298.85L299.28,298.62L305.78,298.94L307.95,298.99L351.33,300.1L353.49,300.07L375.18,300.71L377.35,301.03L392.53,300.83L394.7,301.03L405.54,301.5L407.71,301.61L457.59,302.52L459.76,302.49L481.45,302.43L483.61,302.37L503.13,302.49L505.3,302.55L540,302.52" style="vector-effect: non-scaling-stroke; fill: none; stroke: rgb(163, 165, 0); stroke-opacity: 1; stroke-width: 2px; opacity: 1;"/></g><g class="points"/><g class="text"/></g><g class="trace scatter trace84a53f" style="stroke-miterlimit: 2; opacity: 1;"><g class="fills"/><g class="errorbars"/><g class="lines"><path class="js-line" d="M0,45.36L4.34,131.56L6.51,164.06L10.84,205.32L13.01,205.61L15.18,214.37L17.35,217.4L19.52,223.71L21.69,233.61L23.86,236.11L26.02,242.08L28.19,247.75L30.36,250.6L32.53,248.07L34.7,252.38L36.87,255.96L39.04,257.5L41.2,258.46L43.37,261.72L45.54,262.85L47.71,265.3L49.88,264.92L52.05,268.44L56.39,269.9L58.55,270.65L62.89,271.73L65.06,272.63L71.57,276.97L73.73,276.59L75.9,279.03L78.07,279.56L80.24,279.38L82.41,279.96L88.92,281.13L91.08,281.77L93.25,283.02L95.42,282.87L97.59,283.14L99.76,284.36L101.93,286.1L104.1,286.19L106.27,286.95L108.43,286.63L125.78,289.19L127.95,289.33L130.12,289.1L132.29,288.11L138.8,289.74L140.96,289.8L147.47,291.08L149.64,291.49L153.98,292.45L156.14,292.01L184.34,294.75L186.51,294.51L190.84,295.27L193.01,295.27L199.52,296.52L201.69,297.22L210.36,298.01L212.53,297.54L221.2,297.48L223.37,298.03L229.88,298.65L232.05,297.83L258.07,299.66L260.24,299.34L279.76,300.6L281.93,300.28L294.94,301.21L297.11,301.12L329.64,301.76L331.81,301.88L346.99,301.99L349.16,301.96L399.04,302.69L401.2,302.57L414.22,302.95L416.39,302.98L457.59,302.95L459.76,303.07L483.61,303.07L485.78,303.19L494.46,303.04L496.63,303.13L518.31,303.27L520.48,303.24L540,303.45" style="vector-effect: non-scaling-stroke; fill: none; stroke: rgb(0, 191, 125); stroke-opacity: 1; stroke-width: 2px; opacity: 1;"/></g><g class="points"/><g class="text"/></g><g class="trace scatter tracefa5505" style="stroke-miterlimit: 2; opacity: 1;"><g class="fills"/><g class="errorbars"/><g class="lines"><path class="js-line" d="M0,33.95L2.17,90.93L4.34,126.93L10.84,194.24L13.01,201.07L15.18,208.7L17.35,210.44L19.52,213.35L21.69,223.8L26.02,234.22L28.19,239.92L30.36,243.59L32.53,243.73L34.7,249.29L36.87,248.97L39.04,248.74L41.2,250.63L45.54,258.02L47.71,259.68L49.88,259.48L52.05,262.71L54.22,263.67L56.39,265.59L58.55,266.58L60.72,266.14L75.9,275.42L78.07,275.95L82.41,276.01L84.58,275.8L86.75,276.18L88.92,275.74L91.08,276.82L93.25,278.86L95.42,278.8L97.59,279.96L108.43,283.43L110.6,283.57L112.77,282.96L114.94,284.04L119.28,285.29L121.45,285.55L125.78,286.6L127.95,286.31L132.29,285.78L134.46,286.51L138.8,286.89L140.96,287.09L149.64,289.13L151.81,289.3L162.65,291.37L164.82,291.34L171.33,293.17L173.49,293.06L180,293.47L182.17,293.38L193.01,294.66L195.18,294.8L203.86,296.58L206.02,296.67L221.2,296.7L223.37,297.22L251.57,298.99L253.73,298.59L277.59,299.87L279.76,299.78L290.6,300.51L292.77,300.19L299.28,300.51L301.45,300.42L329.64,300.71L331.81,300.86L338.31,300.83L340.48,301.12L418.55,302.6L420.72,302.6L509.64,303.13L511.81,303.19L540,303.07" style="vector-effect: non-scaling-stroke; fill: none; stroke: rgb(0, 176, 246); stroke-opacity: 1; stroke-width: 2px; opacity: 1;"/></g><g class="points"/><g class="text"/></g><g class="trace scatter trace9f6bda" style="stroke-miterlimit: 2; opacity: 1;"><g class="fills"/><g class="errorbars"/><g class="lines"><path class="js-line" d="M0,59.13L4.34,130.25L6.51,148.03L8.67,170.9L10.84,185.3L15.18,207.42L17.35,209.28L19.52,212.89L21.69,219.12L23.86,224.53L26.02,233.87L28.19,239.69L30.36,242.08L32.53,242.95L34.7,247.69L36.87,249.55L39.04,249.73L41.2,253.4L43.37,254.76L45.54,254.33L47.71,257.21L49.88,259.1L52.05,262.91L54.22,263.93L56.39,267.01L58.55,265.76L60.72,267.04L65.06,268.21L67.23,270.56L69.4,270.88L71.57,272.05L73.73,273.27L75.9,276.21L80.24,276.09L82.41,277.46L84.58,278.97L86.75,279.12L91.08,280.02L93.25,282.26L97.59,283.46L99.76,284.53L101.93,285.38L104.1,285.06L106.27,286.57L108.43,286.63L114.94,287.62L117.11,287.18L123.61,288.14L125.78,288.78L134.46,290.26L136.63,290.38L143.13,290.96L145.3,291.87L147.47,292.3L149.64,291.87L158.31,292.21L160.48,292.33L166.99,292.71L169.16,292.8L180,294.11L182.17,293.93L188.67,293.87L190.84,294.72L195.18,294.28L197.35,294.78L199.52,294.37L201.69,294.75L203.86,295.42L206.02,295.18L221.2,294.92L223.37,295.79L227.71,295.33L229.88,295.59L234.22,295.65L236.39,296.2L249.4,298.27L251.57,298.01L271.08,298.94L273.25,299.43L290.6,300.16L292.77,299.66L316.63,299.98L318.8,300.19L329.64,300.68L331.81,300.39L360,301.06L362.17,300.94L396.87,301.64L399.04,301.58L409.88,301.93L412.05,301.82L433.73,301.67L435.9,301.9L442.41,301.9L444.58,301.79L466.27,302.17L468.43,302.17L474.94,302.6L477.11,302.55L511.81,302.63L513.98,302.57L529.16,303.1L531.33,303.16L540,303.04" style="vector-effect: non-scaling-stroke; fill: none; stroke: rgb(231, 107, 243); stroke-opacity: 1; stroke-width: 2px; opacity: 1;"/></g><g class="points"/><g class="text"/></g></g></g><g class="overplot"/><path class="xlines-above crisp" d="" style="fill: none; stroke-width: 1px; stroke: rgb(0, 0, 0); stroke-opacity: 0;"/><path class="ylines-above crisp" d="" style="fill: none; stroke-width: 1px; stroke: rgb(0, 0, 0); stroke-opacity: 0;"/><g class="overlines-above"/><g class="xaxislayer-above"><path class="xtick ticks crisp" d="M0,421v5" transform="translate(80,0)" style="stroke: rgb(51, 51, 51); stroke-opacity: 1; stroke-width: 1px;"/><path class="xtick ticks crisp" d="M0,421v5" transform="translate(188.43,0)" style="stroke: rgb(51, 51, 51); stroke-opacity: 1; stroke-width: 1px;"/><path class="xtick ticks crisp" d="M0,421v5" transform="translate(296.87,0)" style="stroke: rgb(51, 51, 51); stroke-opacity: 1; stroke-width: 1px;"/><path class="xtick ticks crisp" d="M0,421v5" transform="translate(405.3,0)" style="stroke: rgb(51, 51, 51); stroke-opacity: 1; stroke-width: 1px;"/><path class="xtick ticks crisp" d="M0,421v5" transform="translate(513.73,0)" style="stroke: rgb(51, 51, 51); stroke-opacity: 1; stroke-width: 1px;"/><g class="xtick"><text text-anchor="middle" x="0" y="440.4" transform="translate(80,0)" style="font-family: 'Open Sans', verdana, arial, sans-serif; font-size: 12px; fill: rgb(51, 51, 51); fill-opacity: 1; white-space: pre; opacity: 1;">0</text></g><g class="xtick"><text text-anchor="middle" x="0" y="440.4" style="font-family: 'Open Sans', verdana, arial, sans-serif; font-size: 12px; fill: rgb(51, 51, 51); fill-opacity: 1; white-space: pre; opacity: 1;" transform="translate(188.43,0)">50</text></g><g class="xtick"><text text-anchor="middle" x="0" y="440.4" style="font-family: 'Open Sans', verdana, arial, sans-serif; font-size: 12px; fill: rgb(51, 51, 51); fill-opacity: 1; white-space: pre; opacity: 1;" transform="translate(296.87,0)">100</text></g><g class="xtick"><text text-anchor="middle" x="0" y="440.4" style="font-family: 'Open Sans', verdana, arial, sans-serif; font-size: 12px; fill: rgb(51, 51, 51); fill-opacity: 1; white-space: pre; opacity: 1;" transform="translate(405.3,0)">150</text></g><g class="xtick"><text text-anchor="middle" x="0" y="440.4" style="font-family: 'Open Sans', verdana, arial, sans-serif; font-size: 12px; fill: rgb(51, 51, 51); fill-opacity: 1; white-space: pre; opacity: 1;" transform="translate(513.73,0)">200</text></g></g><g class="yaxislayer-above"><path class="ytick ticks crisp" d="M79,0h-5" transform="translate(0,404.17)" style="stroke: rgb(51, 51, 51); stroke-opacity: 1; stroke-width: 1px;"/><path class="ytick ticks crisp" d="M79,0h-5" transform="translate(0,345.98)" style="stroke: rgb(51, 51, 51); stroke-opacity: 1; stroke-width: 1px;"/><path class="ytick ticks crisp" d="M79,0h-5" transform="translate(0,287.78)" style="stroke: rgb(51, 51, 51); stroke-opacity: 1; stroke-width: 1px;"/><path class="ytick ticks crisp" d="M79,0h-5" transform="translate(0,229.58)" style="stroke: rgb(51, 51, 51); stroke-opacity: 1; stroke-width: 1px;"/><path class="ytick ticks crisp" d="M79,0h-5" transform="translate(0,171.38)" style="stroke: rgb(51, 51, 51); stroke-opacity: 1; stroke-width: 1px;"/><path class="ytick ticks crisp" d="M79,0h-5" transform="translate(0,113.18)" style="stroke: rgb(51, 51, 51); stroke-opacity: 1; stroke-width: 1px;"/><g class="ytick"><text text-anchor="end" x="71.6" y="4.199999999999999" transform="translate(0,404.17)" style="font-family: 'Open Sans', verdana, arial, sans-serif; font-size: 12px; fill: rgb(51, 51, 51); fill-opacity: 1; white-space: pre; opacity: 1;">0</text></g><g class="ytick"><text text-anchor="end" x="71.6" y="4.199999999999999" style="font-family: 'Open Sans', verdana, arial, sans-serif; font-size: 12px; fill: rgb(51, 51, 51); fill-opacity: 1; white-space: pre; opacity: 1;" transform="translate(0,345.98)">20</text></g><g class="ytick"><text text-anchor="end" x="71.6" y="4.199999999999999" style="font-family: 'Open Sans', verdana, arial, sans-serif; font-size: 12px; fill: rgb(51, 51, 51); fill-opacity: 1; white-space: pre; opacity: 1;" transform="translate(0,287.78)">40</text></g><g class="ytick"><text text-anchor="end" x="71.6" y="4.199999999999999" style="font-family: 'Open Sans', verdana, arial, sans-serif; font-size: 12px; fill: rgb(51, 51, 51); fill-opacity: 1; white-space: pre; opacity: 1;" transform="translate(0,229.58)">60</text></g><g class="ytick"><text text-anchor="end" x="71.6" y="4.199999999999999" style="font-family: 'Open Sans', verdana, arial, sans-serif; font-size: 12px; fill: rgb(51, 51, 51); fill-opacity: 1; white-space: pre; opacity: 1;" transform="translate(0,171.38)">80</text></g><g class="ytick"><text text-anchor="end" x="71.6" y="4.199999999999999" style="font-family: 'Open Sans', verdana, arial, sans-serif; font-size: 12px; fill: rgb(51, 51, 51); fill-opacity: 1; white-space: pre; opacity: 1;" transform="translate(0,113.18)">100</text></g></g><g class="overaxes-above"/></g></g><g class="polarlayer"/><g class="ternarylayer"/><g class="geolayer"/><g class="funnelarealayer"/><g class="pielayer"/><g class="iciclelayer"/><g class="treemaplayer"/><g class="sunburstlayer"/><g class="glimages"/><defs id="topdefs-28a8cf"><g class="clips"/></defs><g class="layer-above"><g class="imagelayer"/><g class="shapelayer"/></g><g class="infolayer"><g class="g-gtitle"><text class="gtitle" x="350" y="50" text-anchor="middle" dy="0em" style="font-family: 'Open Sans', verdana, arial, sans-serif; font-size: 17px; fill: rgb(51, 51, 51); opacity: 1; font-weight: normal; white-space: pre;">Average Rank: ascad_v1_fk_50-s_eff_cnn_id (early_stopping)</text></g><g class="g-xtitle"/><g class="g-ytitle"/></g></svg>