<svg class="main-svg" xmlns="http://www.w3.org/2000/svg" xmlns:xlink="http://www.w3.org/1999/xlink" width="700" height="500" style="" viewBox="0 0 700 500"><rect x="0" y="0" width="700" height="500" style="fill: rgb(255, 255, 255); fill-opacity: 1;"/><defs id="defs-c18a61"><g class="clips"><clipPath id="clipc18a61xyplot" class="plotclip"><rect width="540" height="320"/></clipPath><clipPath class="axesclip" id="clipc18a61x"><rect x="80" y="0" width="540" height="500"/></clipPath><clipPath class="axesclip" id="clipc18a61y"><rect x="0" y="100" width="700" height="320"/></clipPath><clipPath class="axesclip" id="clipc18a61xy"><rect x="80" y="100" width="540" height="320"/></clipPath></g><g class="gradients"/><g class="patterns"/></defs><g class="bglayer"><rect class="bg" x="80" y="100" width="540" height="320" style="fill: rgb(237, 237, 237); fill-opacity: 1; stroke-width: 0;"/></g><g class="layer-below"><g class="imagelayer"/><g class="shapelayer"/></g><g class="cartesianlayer"><g class="subplot xy"><g class="layer-subplot"><g class="shapelayer"/><g class="imagelayer"/></g><g class="gridlayer"><g class="x"><path class="xgrid crisp" transform="translate(189.09,0)" d="M0,100v320" style="stroke: rgb(255, 255, 255); stroke-opacity: 1; stroke-width: 1px;"/><path class="xgrid crisp" transform="translate(298.18,0)" d="M0,100v320" style="stroke: rgb(255, 255, 255); stroke-opacity: 1; stroke-width: 1px;"/><path class="xgrid crisp" transform="translate(407.27,0)" d="M0,100v320" style="stroke: rgb(255, 255, 255); stroke-opacity: 1; stroke-width: 1px;"/><path class="xgrid crisp" transform="translate(516.36,0)" d="M0,100v320" style="stroke: rgb(255, 255, 255); stroke-opacity: 1; stroke-width: 1px;"/></g><g class="y"><path class="ygrid crisp" transform="translate(0,378.1)" d="M80,0h540" style="stroke: rgb(255, 255, 255); stroke-opacity: 1; stroke-width: 1px;"/><path class="ygrid crisp" transform="translate(0,311.43)" d="M80,0h540" style="stroke: rgb(255, 255, 255); stroke-opacity: 1; stroke-width: 1px;"/><path class="ygrid crisp" transform="translate(0,244.76)" d="M80,0h540" style="stroke: rgb(255, 255, 255); stroke-opacity: 1; stroke-width: 1px;"/><path class="ygrid crisp" transform="translate(0,178.09)" d="M80,0h540" style="stroke: rgb(255, 255, 255); stroke-opacity: 1; stroke-width: 1px;"/><path class="ygrid crisp" transform="translate(0,111.42)" d="M80,0h540" style="stroke: rgb(255, 255, 255); stroke-opacity: 1; stroke-width: 1px;"/></g></g><g class="zerolinelayer"><path class="xzl zl crisp" transform="translate(80,0)" d="M0,100v320" style="stroke: rgb(255, 255, 255); stroke-opacity: 1; stroke-width: 1px;"/></g><path class="xlines-below"/><path class="ylines-below"/><g class="overlines-below"/><g class="xaxislayer-below"/><g class="yaxislayer-below"/><g class="overaxes-below"/><g class="plot" transform="translate(80,100)" clip-path="url(#clipc18a61xyplot)"><g class="scatterlayer mlayer"><g class="trace scatter tracee563cf" style="stroke-miterlimit: 2; opacity: 1;"><g class="fills"/><g class="errorbars"/><g class="lines"><path class="js-line" d="M0,20.45L5.45,40.06L10.91,42.52L16.36,43.92L21.82,46.3L27.27,48.13L32.73,48.96L43.64,52L49.09,52.5L65.45,55.5L70.91,55.42L81.82,56.64L87.27,58.47L98.18,63.06L103.64,68.5L109.09,72.95L114.55,74.68L120,77.26L125.45,77.99L130.91,82.85L136.36,89.79L147.27,102.17L152.73,108.14L158.18,112.78L163.64,119.96L169.09,123.4L174.55,125.83L180,129.15L185.45,130.59L190.91,133.49L196.36,134.96L201.82,137.88L207.27,139.3L212.73,139.39L218.18,141.25L223.64,143.86L229.09,147.5L234.55,149.14L240,154.04L245.45,157.03L250.91,161.57L261.82,166.96L267.27,170.27L272.73,175.12L278.18,177.5L289.09,184.82L294.55,186.01L305.45,193.76L310.91,196.91L321.82,203.9L327.27,207.16L332.73,208.97L338.18,213.02L343.64,215.22L349.09,218.4L354.55,222.78L360,225.1L365.45,229.23L370.91,231.25L381.82,238.16L387.27,240.19L398.18,245.81L403.64,250.36L409.09,253.38L414.55,255.51L430.91,265.79L436.36,268.1L447.27,269.48L452.73,270.99L458.18,271.78L463.64,273.52L469.09,273.33L474.55,274.98L485.45,276.68L490.91,276.73L496.36,278.3L501.82,278.9L518.18,281.55L523.64,282.1L529.09,283.68L534.55,284.1L540,284.96" style="vector-effect: non-scaling-stroke; fill: none; stroke: rgb(248, 118, 109); stroke-opacity: 1; stroke-width: 2px; opacity: 1;"/></g><g class="points"/><g class="text"/></g><g class="trace scatter tracefe2602" style="stroke-miterlimit: 2; opacity: 1;"><g class="fills"/><g class="errorbars"/><g class="lines"><path class="js-line" d="M0,19.92L5.45,41.68L10.91,43.88L21.82,47.82L27.27,48.88L43.64,51.52L49.09,52.37L60,54.01L65.45,53.8L98.18,57.37L103.64,58.34L109.09,58.95L114.55,60.81L120,61.74L125.45,63.81L136.36,68.62L141.82,70.4L147.27,72.94L152.73,74.05L158.18,74.88L163.64,77.8L169.09,78.91L174.55,87.12L185.45,106.84L190.91,112.56L196.36,116.91L201.82,118.25L207.27,121.88L212.73,121.82L218.18,123.17L223.64,127.32L229.09,129.98L234.55,134.71L240,140L245.45,142.57L250.91,147.37L256.36,149.78L261.82,155.07L267.27,157.52L272.73,160.47L278.18,165.32L283.64,166.58L289.09,171.63L294.55,173.99L300,178.13L305.45,180.33L310.91,183.85L327.27,192.3L332.73,196.96L338.18,197.94L343.64,202.76L349.09,204.97L354.55,208.87L365.45,214.74L370.91,218.99L376.36,222.58L381.82,224.59L387.27,228.66L392.73,230.62L403.64,237.44L409.09,240.19L420,246.76L425.45,250.57L430.91,252.8L436.36,256.09L441.82,256.47L447.27,257.72L458.18,259.55L463.64,260.22L485.45,264.01L490.91,264.77L507.27,267.5L512.73,268.08L540,272.3" style="vector-effect: non-scaling-stroke; fill: none; stroke: rgb(163, 165, 0); stroke-opacity: 1; stroke-width: 2px; opacity: 1;"/></g><g class="points"/><g class="text"/></g><g class="trace scatter trace436631" style="stroke-miterlimit: 2; opacity: 1;"><g class="fills"/><g class="errorbars"/><g class="lines"><path class="js-line" d="M0,22.32L5.45,43.51L10.91,45.88L16.36,47.47L21.82,48L32.73,49.76L38.18,50.05L70.91,53.43L76.36,54.09L81.82,53.67L87.27,54.24L92.73,55.31L98.18,54.99L103.64,57.74L109.09,58.99L114.55,62.07L120,63.29L130.91,70.24L136.36,73.1L141.82,74.73L147.27,79.17L163.64,102.23L169.09,108.4L174.55,114.14L180,118.68L190.91,121.07L196.36,124.29L201.82,124.89L207.27,126.32L212.73,127.15L218.18,130.51L223.64,132.62L229.09,136.94L245.45,149.94L250.91,155.5L256.36,157.48L261.82,162.62L267.27,165.83L272.73,171.1L278.18,174.21L283.64,174.93L289.09,182.22L294.55,183.67L305.45,190.75L310.91,192.42L321.82,199.37L327.27,200.95L343.64,211.85L349.09,214.27L354.55,217.22L360,221.66L365.45,223.51L370.91,227.44L376.36,231.07L381.82,233.7L387.27,237.52L392.73,239.33L403.64,245.66L409.09,250.14L420,255.74L425.45,259.15L436.36,264.98L441.82,265.28L469.09,269.61L474.55,271.25L485.45,272.56L490.91,274.16L501.82,275.03L507.27,275.78L523.64,278.33L529.09,278.91L534.55,280.19L540,280.21" style="vector-effect: non-scaling-stroke; fill: none; stroke: rgb(0, 191, 125); stroke-opacity: 1; stroke-width: 2px; opacity: 1;"/></g><g class="points"/><g class="text"/></g><g class="trace scatter traceafc2fd" style="stroke-miterlimit: 2; opacity: 1;"><g class="fills"/><g class="errorbars"/><g class="lines"><path class="js-line" d="M0,19L5.45,39.13L10.91,40.99L21.82,45.34L27.27,48.5L54.55,53.74L60,54.26L98.18,57.66L103.64,58.52L120,60.87L125.45,62.83L130.91,66.49L136.36,72.1L152.73,99.35L158.18,106.52L163.64,112.47L169.09,115.14L185.45,127.9L190.91,130.54L196.36,135L201.82,135.06L207.27,136.66L212.73,139.12L218.18,139.69L223.64,144.44L240,153.79L245.45,158.26L250.91,161.9L256.36,162.51L261.82,168.03L267.27,171.08L278.18,178.12L283.64,179.31L289.09,185.31L294.55,187.2L300,189.5L305.45,192.87L310.91,196.58L316.36,198.23L332.73,208.1L338.18,210.08L343.64,214.52L349.09,217.18L360,223.44L365.45,226.28L381.82,235.3L387.27,239.37L392.73,241.12L398.18,243.94L403.64,246.79L409.09,250.74L414.55,252.86L420,256.83L436.36,266.07L441.82,266.17L490.91,273.98L496.36,275.23L501.82,274.7L507.27,276.36L518.18,278.05L523.64,279.05L529.09,278.93L534.55,280.46L540,281.05" style="vector-effect: non-scaling-stroke; fill: none; stroke: rgb(0, 176, 246); stroke-opacity: 1; stroke-width: 2px; opacity: 1;"/></g><g class="points"/><g class="text"/></g><g class="trace scatter tracefc490b" style="stroke-miterlimit: 2; opacity: 1;"><g class="fills"/><g class="errorbars"/><g class="lines"><path class="js-line" d="M0,22.5L5.45,42.28L10.91,45.61L27.27,50.49L32.73,50.55L43.64,52.75L49.09,53.48L54.55,53.51L60,54.73L70.91,56.04L76.36,57.21L81.82,56.54L87.27,57.53L98.18,58.63L103.64,59.29L114.55,62.41L120,65.83L130.91,81.22L136.36,88.22L147.27,100.59L152.73,106.74L158.18,111.22L163.64,117.8L169.09,118L174.55,122.64L180,126L185.45,127.25L196.36,131.45L201.82,131.67L218.18,136.61L223.64,140.1L240,152.58L245.45,155.31L250.91,159.7L256.36,161.31L261.82,166.97L267.27,169.4L278.18,177.1L283.64,179.34L289.09,184.99L294.55,187.25L310.91,194.18L316.36,198.72L327.27,204.29L332.73,208.35L338.18,210.32L343.64,213.67L354.55,220.57L360,223.58L365.45,225.54L370.91,230.03L376.36,233.95L381.82,235.85L387.27,239.93L392.73,241.11L403.64,247.78L409.09,250.07L425.45,260.51L430.91,263.5L436.36,266.36L441.82,267.04L463.64,270.07L469.09,271.86L480,272.98L485.45,274.34L490.91,275.68L496.36,275.71L501.82,275.89L507.27,277.11L518.18,279.47L523.64,279.56L529.09,279.72L534.55,281.02L540,282.03" style="vector-effect: non-scaling-stroke; fill: none; stroke: rgb(231, 107, 243); stroke-opacity: 1; stroke-width: 2px; opacity: 1;"/></g><g class="points"/><g class="text"/></g><g class="trace scatter trace4ac5c8" style="stroke-miterlimit: 2; opacity: 1;"><g class="fills"/><g class="errorbars"/><g class="lines"><path class="js-line" d="M0,17.72L5.45,39.58L10.91,41.29L21.82,46.27L27.27,48.32L49.09,51.72L54.55,52.38L70.91,54.14L76.36,54.25L81.82,54.42L87.27,55.43L98.18,59.23L103.64,65.51L109.09,74.83L114.55,85.95L120,97.23L125.45,105.33L130.91,111.32L136.36,115.21L141.82,118.66L147.27,120.79L152.73,124.68L158.18,127.32L163.64,132.33L169.09,133.41L174.55,136.67L180,141.62L185.45,142.84L190.91,142.99L196.36,146.49L201.82,146.38L207.27,146.21L212.73,145.26L218.18,146.72L223.64,151.87L229.09,155.47L234.55,157.26L240,161.37L245.45,163.95L250.91,167.74L256.36,170.61L267.27,177.38L272.73,180.81L278.18,185.17L283.64,186.01L289.09,191.27L294.55,193.55L316.36,205.97L321.82,208.83L327.27,211.94L332.73,216.57L343.64,221.27L349.09,224.83L354.55,227.37L360,230.78L365.45,233.31L370.91,237.02L387.27,247.38L392.73,249.27L398.18,253.32L403.64,255.74L409.09,259.84L414.55,262.71L425.45,270.21L430.91,272.16L436.36,276.79L441.82,276.09L463.64,280.76L469.09,281.32L485.45,283.92L490.91,285.44L501.82,286.54L507.27,287.25L512.73,287.8L518.18,289.55L534.55,291.57L540,292.17" style="vector-effect: non-scaling-stroke; fill: none; stroke: rgb(248, 118, 109); stroke-opacity: 1; stroke-width: 2px; opacity: 1;"/></g><g class="points"/><g class="text"/></g><g class="trace scatter traceb3d0d5" style="stroke-miterlimit: 2; opacity: 1;"><g class="fills"/><g class="errorbars"/><g class="lines"><path class="js-line" d="M0,19.28L5.45,42.19L10.91,45.65L16.36,47.47L21.82,48.39L76.36,53.75L81.82,54.09L98.18,55.74L103.64,58.61L125.45,73.08L130.91,79.04L136.36,86.43L141.82,95.72L147.27,104.46L152.73,111.03L158.18,115.09L163.64,120.18L169.09,119.92L174.55,123.21L180,126.15L185.45,127.22L190.91,126.51L196.36,130.47L207.27,131.47L212.73,133.11L218.18,134.5L223.64,137.11L229.09,142.23L234.55,144.72L250.91,157.58L256.36,157.92L261.82,162.99L267.27,165.26L278.18,173L283.64,175.95L289.09,181.65L294.55,183.15L300,186.73L305.45,188.84L310.91,191.56L316.36,195.39L327.27,200.7L332.73,204.69L338.18,206.67L343.64,211.44L349.09,212.4L354.55,215.94L387.27,235.12L392.73,236.88L398.18,241.03L403.64,244.05L414.55,249.44L420,253.69L425.45,256.99L430.91,259.1L436.36,262.93L441.82,262.91L463.64,267.2L469.09,267.17L485.45,270.71L490.91,271.48L496.36,272.52L501.82,272.38L507.27,273.91L512.73,274.62L523.64,276.2L529.09,276.95L540,278.74" style="vector-effect: non-scaling-stroke; fill: none; stroke: rgb(163, 165, 0); stroke-opacity: 1; stroke-width: 2px; opacity: 1;"/></g><g class="points"/><g class="text"/></g><g class="trace scatter trace3ef19f" style="stroke-miterlimit: 2; opacity: 1;"><g class="fills"/><g class="errorbars"/><g class="lines"><path class="js-line" d="M0,20.12L5.45,39.52L10.91,45.24L16.36,48.51L21.82,49.61L27.27,51.68L32.73,52.83L49.09,55.9L54.55,56.18L65.45,58.04L70.91,58.86L81.82,60.01L87.27,60.36L98.18,62.55L103.64,64.71L109.09,66.61L114.55,69.73L120,74.43L125.45,81.38L147.27,111.97L152.73,118.43L158.18,122.95L163.64,128.74L169.09,130.23L174.55,133.05L185.45,140.05L190.91,140.89L196.36,143.21L201.82,143.59L207.27,144.62L212.73,144.69L218.18,146L223.64,149.33L229.09,153.38L234.55,155.81L245.45,162.83L250.91,167.61L256.36,168.68L261.82,173.51L283.64,184.71L289.09,190.48L294.55,191.38L300,194.49L305.45,198.08L310.91,200.72L321.82,206.63L327.27,209.37L332.73,215.1L338.18,215.64L349.09,223.31L354.55,225.73L376.36,239.51L381.82,241.5L420,264.37L425.45,267.21L436.36,273.84L441.82,274.02L452.73,276.27L458.18,276.15L463.64,278.33L469.09,278.46L480,280.89L485.45,281.46L490.91,282.93L496.36,283.34L512.73,285.95L518.18,286.91L540,289.66" style="vector-effect: non-scaling-stroke; fill: none; stroke: rgb(0, 191, 125); stroke-opacity: 1; stroke-width: 2px; opacity: 1;"/></g><g class="points"/><g class="text"/></g><g class="trace scatter tracec7b52c" style="stroke-miterlimit: 2; opacity: 1;"><g class="fills"/><g class="errorbars"/><g class="lines"><path class="js-line" d="M0,24.09L5.45,43.9L10.91,46.17L21.82,47.39L27.27,47.78L38.18,49.26L43.64,50.27L54.55,50.88L60,51.8L81.82,52.29L87.27,52.61L92.73,53.31L98.18,52.75L109.09,53.65L114.55,53.36L125.45,55.82L130.91,56.49L136.36,58.66L141.82,62.24L147.27,68.16L152.73,77.54L163.64,94.68L169.09,100.1L174.55,104.37L180,111.05L185.45,115.1L190.91,117.68L196.36,120.55L201.82,120.75L207.27,124.13L212.73,126.27L218.18,127.71L223.64,132.19L234.55,140L240,145.55L245.45,150.27L250.91,153.66L256.36,156.09L261.82,160.15L272.73,168.24L278.18,173.17L283.64,174.33L289.09,180.39L294.55,180.45L300,184.54L305.45,189.16L310.91,191.45L316.36,194.27L321.82,198.72L327.27,201.78L332.73,206.31L338.18,208.31L343.64,212.18L354.55,218.3L360,222.08L365.45,224.05L370.91,227.97L387.27,238.72L392.73,241.16L414.55,255.83L420,258.86L425.45,262.67L430.91,264.99L436.36,268.59L441.82,269.32L452.73,270.71L458.18,272.54L490.91,278.63L496.36,279.33L501.82,279.1L507.27,280.18L518.18,282.82L523.64,283.61L529.09,283.98L534.55,285.27L540,286.22" style="vector-effect: non-scaling-stroke; fill: none; stroke: rgb(0, 176, 246); stroke-opacity: 1; stroke-width: 2px; opacity: 1;"/></g><g class="points"/><g class="text"/></g><g class="trace scatter trace674f33" style="stroke-miterlimit: 2; opacity: 1;"><g class="fills"/><g class="errorbars"/><g class="lines"><path class="js-line" d="M0,16.6L5.45,40.61L10.91,45.29L16.36,47.95L21.82,49.15L60,54.77L65.45,54.98L76.36,56.33L81.82,56.66L98.18,59.6L103.64,63L109.09,66.38L114.55,71.44L120,72.89L125.45,75.66L130.91,76.24L136.36,77.72L141.82,78.79L147.27,78.47L152.73,80.39L158.18,79.99L163.64,80.59L169.09,78.96L180,79.38L185.45,78.49L196.36,77.39L201.82,75.53L207.27,76.58L212.73,75.62L218.18,77.14L223.64,76.43L229.09,82.88L234.55,92.34L250.91,121.17L256.36,124.65L261.82,132.67L267.27,138.35L272.73,142.44L278.18,147.97L283.64,151.55L289.09,158.6L294.55,161.15L300,167.59L327.27,186.86L332.73,192.64L338.18,194.22L343.64,199.75L354.55,205.61L360,210.37L365.45,213.07L370.91,217.09L403.64,236.85L409.09,240.31L414.55,242.46L420,246.42L430.91,253.26L436.36,256.31L441.82,256.56L447.27,257.73L469.09,261.37L474.55,263.01L480,263.32L485.45,264.62L490.91,265.23L496.36,266.99L501.82,266.6L507.27,267.78L534.55,271.89L540,272.62" style="vector-effect: non-scaling-stroke; fill: none; stroke: rgb(231, 107, 243); stroke-opacity: 1; stroke-width: 2px; opacity: 1;"/></g><g class="points"/><g class="text"/></g><g class="trace scatter trace32ef4f" style="stroke-miterlimit: 2; opacity: 1;"><g class="fills"/><g class="errorbars"/><g class="lines"><path class="js-line" d="M0,16.49L5.45,38.93L10.91,43.65L16.36,47.06L21.82,48.66L27.27,50.46L32.73,51.26L43.64,54L49.09,54.84L60,57.12L65.45,58.7L76.36,62.56L81.82,63.67L92.73,69.01L98.18,76.27L103.64,87.13L109.09,95.4L120,110.02L125.45,115.84L136.36,124.64L141.82,129.94L147.27,131.73L152.73,134.53L158.18,137.46L163.64,141.59L169.09,142.53L174.55,144.46L180,147.05L185.45,146.48L196.36,151.53L201.82,149.14L207.27,150.72L212.73,150.12L218.18,150.92L223.64,154.86L229.09,156.58L234.55,161.43L245.45,167.21L250.91,171.77L256.36,172.59L261.82,176.96L267.27,180.75L272.73,183.58L278.18,186.54L283.64,188.22L289.09,193.12L294.55,196.16L305.45,201.1L310.91,205.19L316.36,207.29L321.82,210.23L327.27,213.31L332.73,218.16L338.18,219.65L343.64,222.98L349.09,226.56L354.55,228.36L360,232.48L365.45,234.82L370.91,238.1L376.36,242.47L381.82,243.76L387.27,248.5L392.73,249.8L398.18,253.8L403.64,256.97L409.09,261.2L414.55,263.6L420,267.6L430.91,273.16L436.36,277.26L441.82,276.78L447.27,278.17L452.73,278.32L458.18,279.69L463.64,281.19L469.09,281.7L480,283.22L485.45,284.04L490.91,285.52L496.36,285.97L529.09,291.04L534.55,291.77L540,292.53" style="vector-effect: non-scaling-stroke; fill: none; stroke: rgb(248, 118, 109); stroke-opacity: 1; stroke-width: 2px; opacity: 1;"/></g><g class="points"/><g class="text"/></g><g class="trace scatter trace8c785b" style="stroke-miterlimit: 2; opacity: 1;"><g class="fills"/><g class="errorbars"/><g class="lines"><path class="js-line" d="M0,18.54L5.45,39.93L10.91,44.96L16.36,48.43L21.82,49.9L27.27,51.65L32.73,52.6L54.55,57.79L60,60.39L65.45,62.21L70.91,65.27L81.82,72.96L87.27,80.79L98.18,97.4L103.64,105.2L109.09,113.18L114.55,117.52L120,122.78L125.45,126.01L130.91,130.85L136.36,133.14L141.82,136.67L147.27,137.72L152.73,141.12L158.18,142.76L163.64,146.4L169.09,145.66L174.55,147.62L180,150.46L185.45,149.8L190.91,150.07L196.36,152.38L201.82,151.43L207.27,152.26L212.73,152.26L218.18,151.89L223.64,156.14L229.09,159.89L234.55,162.17L240,165.07L245.45,169.92L250.91,173.89L256.36,175.11L261.82,180.11L267.27,182.91L272.73,186.32L278.18,188.72L283.64,191.39L289.09,197.04L305.45,203.81L310.91,207.25L316.36,210.73L321.82,213.02L332.73,220.46L338.18,222.12L343.64,226.12L349.09,229.01L376.36,244.4L381.82,247.8L387.27,251.58L392.73,253.64L403.64,260.8L409.09,262.9L420,269.78L425.45,273.67L430.91,276.31L436.36,279.93L441.82,279.31L447.27,280.83L458.18,282.39L463.64,283.85L474.55,286.08L480,286.23L485.45,287.77L490.91,288.43L496.36,289.68L501.82,289.88L518.18,292.68L523.64,293.14L540,295.76" style="vector-effect: non-scaling-stroke; fill: none; stroke: rgb(163, 165, 0); stroke-opacity: 1; stroke-width: 2px; opacity: 1;"/></g><g class="points"/><g class="text"/></g><g class="trace scatter trace7b4bda" style="stroke-miterlimit: 2; opacity: 1;"><g class="fills"/><g class="errorbars"/><g class="lines"><path class="js-line" d="M0,19.24L5.45,40.4L10.91,43.2L16.36,45.79L21.82,47.54L32.73,50.35L38.18,51.23L65.45,56.86L70.91,59.15L81.82,63.87L87.27,69.68L114.55,111.23L120,116.92L125.45,121.92L130.91,125.14L136.36,128.11L141.82,129.68L147.27,131.68L152.73,135.13L158.18,134.77L163.64,137.69L169.09,138.34L174.55,139.88L185.45,142.1L190.91,141.97L196.36,144.77L201.82,144.25L207.27,143.66L212.73,144.52L218.18,145.73L223.64,149.5L229.09,152.22L234.55,156.07L240,161.41L245.45,163.51L250.91,167.56L256.36,169.94L267.27,178.37L272.73,181.58L278.18,185.83L283.64,187.49L289.09,193.37L294.55,194.35L300,197.83L305.45,202.25L310.91,204.45L316.36,207.93L327.27,214.52L332.73,219.04L338.18,220.53L343.64,224.53L354.55,230.55L360,234.89L365.45,236.67L370.91,240.19L387.27,251.48L392.73,254.06L403.64,261.27L409.09,264.83L414.55,267.09L420,271.28L436.36,281.26L441.82,280.78L447.27,282.7L452.73,282.82L463.64,285.24L469.09,286.3L480,288.73L485.45,288.91L501.82,291.57L507.27,292.47L523.64,295.91L529.09,295.67L540,297.55" style="vector-effect: non-scaling-stroke; fill: none; stroke: rgb(0, 191, 125); stroke-opacity: 1; stroke-width: 2px; opacity: 1;"/></g><g class="points"/><g class="text"/></g><g class="trace scatter trace2e29f3" style="stroke-miterlimit: 2; opacity: 1;"><g class="fills"/><g class="errorbars"/><g class="lines"><path class="js-line" d="M0,21.54L5.45,40.98L10.91,43.87L21.82,47.3L27.27,47.84L60,53.37L65.45,54.15L70.91,55.03L76.36,57.12L81.82,59L87.27,64.35L92.73,69.77L98.18,72.42L103.64,75.83L109.09,77.82L114.55,79.31L120,78.6L136.36,81.27L141.82,80.54L147.27,80.63L152.73,82.17L158.18,80.09L163.64,81.64L169.09,79.95L174.55,79.75L180,80.44L185.45,79.5L190.91,77.73L196.36,77.13L207.27,75.59L212.73,75.41L218.18,76.72L223.64,76.36L229.09,79.15L234.55,80.12L245.45,87.23L250.91,98.13L261.82,118.8L267.27,124.85L272.73,129.26L278.18,134.83L283.64,139.17L289.09,145.09L294.55,147.37L300,152.69L316.36,164.84L321.82,169.25L327.27,171.99L332.73,177.08L349.09,187.13L354.55,190.74L360,195.52L365.45,197.55L370.91,202.09L376.36,205.3L381.82,208.03L387.27,212.82L392.73,215.04L398.18,218.22L420,231.44L425.45,234.63L430.91,237.26L436.36,240.74L447.27,242.14L452.73,243.14L496.36,250.69L501.82,250.83L512.73,253.03L518.18,253.46L523.64,254.68L529.09,254.89L540,257.42" style="vector-effect: non-scaling-stroke; fill: none; stroke: rgb(0, 176, 246); stroke-opacity: 1; stroke-width: 2px; opacity: 1;"/></g><g class="points"/><g class="text"/></g><g class="trace scatter trace797ffc" style="stroke-miterlimit: 2; opacity: 1;"><g class="fills"/><g class="errorbars"/><g class="lines"><path class="js-line" d="M0,18.81L5.45,39.72L10.91,44.83L16.36,47.48L21.82,48.76L43.64,54.8L49.09,55.42L54.55,57.71L60,58.4L65.45,60.54L70.91,61.8L81.82,67.9L87.27,75.68L103.64,103.89L109.09,110.55L114.55,116.15L120,119.36L125.45,124.83L130.91,128.51L136.36,130.83L141.82,134.26L147.27,135.59L152.73,138.88L158.18,137.59L163.64,141.34L169.09,141.89L174.55,143.54L180,146.6L185.45,146.87L190.91,147.37L196.36,149.55L207.27,149.82L212.73,150.23L218.18,150.8L223.64,154.68L234.55,160.4L240,164.03L250.91,172.7L256.36,172.78L261.82,177.65L267.27,180.8L278.18,187.53L283.64,188.37L289.09,193.59L294.55,196.51L327.27,213.62L332.73,218.64L338.18,220.27L343.64,224.38L360,233.77L365.45,235.32L376.36,243.25L381.82,246.32L387.27,250.2L392.73,251.33L398.18,255.63L403.64,258.74L414.55,265.2L420,268.92L430.91,274.49L436.36,278.37L447.27,279.46L452.73,280.18L458.18,281.9L463.64,282.16L496.36,287.98L501.82,288.49L512.73,290.62L518.18,291.2L523.64,292.41L529.09,292.56L540,294.93" style="vector-effect: non-scaling-stroke; fill: none; stroke: rgb(231, 107, 243); stroke-opacity: 1; stroke-width: 2px; opacity: 1;"/></g><g class="points"/><g class="text"/></g><g class="trace scatter trace2f641c" style="stroke-miterlimit: 2; opacity: 1;"><g class="fills"/><g class="errorbars"/><g class="lines"><path class="js-line" d="M0,27.17L5.45,43.46L10.91,44.55L38.18,49.3L43.64,50.04L49.09,51.28L54.55,51.04L60,52.04L65.45,52.12L76.36,52.76L81.82,52.37L92.73,53.54L98.18,52.82L103.64,54.39L109.09,54.71L120,54.54L125.45,55.22L141.82,59.49L147.27,62.3L152.73,66.14L158.18,66.91L163.64,69.73L169.09,69.77L174.55,70.37L180,70L196.36,69.65L201.82,68.7L207.27,69.24L212.73,68.71L218.18,68.48L223.64,69.88L229.09,71.83L234.55,74.65L245.45,79.57L250.91,89.25L267.27,115.33L272.73,120.34L278.18,128.45L283.64,132.2L289.09,140.23L294.55,145.38L300,151.69L305.45,156.26L316.36,165.15L321.82,171.19L327.27,173.62L332.73,179.36L338.18,182.4L343.64,187.35L354.55,193.05L360,197.03L365.45,198.94L370.91,203.89L376.36,207.25L381.82,209.52L387.27,213.39L392.73,216.24L398.18,218.94L403.64,222.56L436.36,239.88L441.82,240.58L447.27,241.36L452.73,243.03L458.18,243.43L463.64,244.69L485.45,247.83L490.91,249.44L540,256.07" style="vector-effect: non-scaling-stroke; fill: none; stroke: rgb(248, 118, 109); stroke-opacity: 1; stroke-width: 2px; opacity: 1;"/></g><g class="points"/><g class="text"/></g><g class="trace scatter trace7c56ea" style="stroke-miterlimit: 2; opacity: 1;"><g class="fills"/><g class="errorbars"/><g class="lines"><path class="js-line" d="M0,17.03L5.45,38.67L10.91,42.77L27.27,48.93L32.73,50.81L38.18,51.71L43.64,53.63L60,56.23L65.45,56.82L76.36,59.29L81.82,59.57L87.27,61.01L92.73,63.67L98.18,68.28L103.64,75.43L120,88.88L125.45,96.62L130.91,107.58L136.36,115.9L141.82,121.57L147.27,125.05L158.18,131.36L163.64,133.53L169.09,132.33L174.55,133.89L180,137.77L185.45,139.1L190.91,140.34L196.36,142.98L201.82,141.5L207.27,143.05L212.73,144.16L218.18,144.12L229.09,150.55L234.55,153.35L240,158.08L245.45,161.14L250.91,165.39L256.36,166.63L261.82,172.4L267.27,174.14L278.18,181.11L283.64,183.22L289.09,188.91L294.55,190.43L300,191.84L305.45,195.56L310.91,198.66L316.36,202.79L321.82,205.83L327.27,207.8L332.73,212.5L338.18,214.02L349.09,221.67L354.55,223.71L360,227.28L365.45,229.8L387.27,243.02L392.73,245.65L414.55,256.88L420,261.2L425.45,263.58L430.91,267.18L436.36,269.91L441.82,270.56L458.18,273.64L463.64,274.66L480,277.65L485.45,277.62L501.82,280.59L507.27,281.52L523.64,283.58L529.09,284.15L540,286.17" style="vector-effect: non-scaling-stroke; fill: none; stroke: rgb(163, 165, 0); stroke-opacity: 1; stroke-width: 2px; opacity: 1;"/></g><g class="points"/><g class="text"/></g><g class="trace scatter trace0e66da" style="stroke-miterlimit: 2; opacity: 1;"><g class="fills"/><g class="errorbars"/><g class="lines"><path class="js-line" d="M0,19.07L5.45,39.96L10.91,43.73L21.82,49.26L27.27,50.81L43.64,55.9L49.09,56.32L54.55,58.29L60,59.39L65.45,60.62L70.91,63.14L76.36,65.9L81.82,70.86L87.27,79.28L92.73,89.61L103.64,110.69L109.09,118.86L125.45,132.09L130.91,135.53L147.27,144.63L152.73,146.35L158.18,146.15L163.64,150.4L174.55,150.46L180,153.78L185.45,152.42L190.91,152.89L196.36,155.4L201.82,153.62L207.27,154.99L212.73,154.81L218.18,155.61L223.64,158.78L261.82,180.99L267.27,185.35L272.73,187.79L278.18,192.25L283.64,194.49L289.09,199.16L294.55,201.06L300,204.54L305.45,207.15L310.91,211.31L316.36,214.14L321.82,218.05L332.73,225.2L338.18,227.05L354.55,237.35L360,240.61L370.91,247.6L376.36,250.43L381.82,253.55L387.27,258.06L392.73,259.76L398.18,263.79L409.09,270.93L414.55,272.45L425.45,280.45L430.91,283.06L436.36,287.14L441.82,287.63L447.27,288.09L452.73,289.39L463.64,291.36L469.09,292.51L474.55,294.13L480,294.32L496.36,297.25L501.82,297.94L518.18,301.01L523.64,301.61L529.09,301.44L534.55,303.02L540,304" style="vector-effect: non-scaling-stroke; fill: none; stroke: rgb(0, 191, 125); stroke-opacity: 1; stroke-width: 2px; opacity: 1;"/></g><g class="points"/><g class="text"/></g><g class="trace scatter trace5a680d" style="stroke-miterlimit: 2; opacity: 1;"><g class="fills"/><g class="errorbars"/><g class="lines"><path class="js-line" d="M0,19.61L5.45,38.89L10.91,42.68L21.82,48.08L27.27,49.74L49.09,55.58L54.55,56.13L65.45,57.45L70.91,59.36L76.36,60.56L81.82,63.22L92.73,73.85L98.18,77.95L103.64,83.07L109.09,89.23L114.55,94.6L120,97.98L125.45,103.25L130.91,106.7L136.36,110.24L141.82,115.38L147.27,118.61L152.73,123.48L158.18,125.13L163.64,129.03L169.09,129.69L174.55,132.28L190.91,135.8L196.36,138.06L201.82,135.17L207.27,137.74L212.73,137.65L218.18,138.56L229.09,144.51L234.55,148.67L250.91,161.85L256.36,162.92L261.82,170.59L267.27,172.35L272.73,175.13L278.18,180.33L283.64,182.57L289.09,187.46L294.55,189.67L300,193.41L305.45,196.12L310.91,199.95L321.82,206.73L327.27,209.08L332.73,213.32L338.18,215.86L343.64,220.1L349.09,222.35L370.91,235.6L376.36,239.68L381.82,243.53L387.27,246.34L403.64,256.17L409.09,260.01L414.55,262.78L420,266.46L425.45,270.13L430.91,272.63L436.36,276.61L441.82,276.93L452.73,278.7L458.18,279.77L463.64,280.38L469.09,282.05L496.36,286.63L501.82,286.88L529.09,291.48L534.55,292.32L540,293.02" style="vector-effect: non-scaling-stroke; fill: none; stroke: rgb(0, 176, 246); stroke-opacity: 1; stroke-width: 2px; opacity: 1;"/></g><g class="points"/><g class="text"/></g><g class="trace scatter tracec7b877" style="stroke-miterlimit: 2; opacity: 1;"><g class="fills"/><g class="errorbars"/><g class="lines"><path class="js-line" d="M0,18.47L5.45,39.9L10.91,42.58L27.27,48.54L32.73,49.87L38.18,50.44L43.64,51.99L49.09,53.16L54.55,53.23L70.91,56.58L76.36,56.95L87.27,59.54L92.73,61.53L98.18,64.01L103.64,69.9L114.55,90.03L120,100.58L130.91,114.58L136.36,117.29L141.82,121.92L147.27,124.37L152.73,127.74L158.18,130.08L163.64,132.81L169.09,132.6L174.55,134.24L180,137.33L185.45,136.73L190.91,139.07L196.36,142.37L201.82,140.81L207.27,143.33L212.73,143.57L218.18,143.65L223.64,148.21L234.55,154.58L240,158.77L245.45,161.73L250.91,165.93L256.36,167.04L261.82,172.6L267.27,174.69L272.73,178.34L278.18,182.8L283.64,185.87L289.09,189.84L294.55,192.52L305.45,198.08L310.91,201.34L316.36,205.01L321.82,207.73L327.27,210.69L332.73,214.88L338.18,216.61L343.64,221.62L354.55,226.66L360,230.84L365.45,233.02L370.91,237.03L376.36,240.81L381.82,243.66L387.27,247.5L392.73,249.41L430.91,273.05L436.36,275.72L469.09,281.24L474.55,283.01L485.45,284.02L490.91,285.05L501.82,286.69L507.27,288.14L518.18,289.43L523.64,290.07L540,291.99" style="vector-effect: non-scaling-stroke; fill: none; stroke: rgb(231, 107, 243); stroke-opacity: 1; stroke-width: 2px; opacity: 1;"/></g><g class="points"/><g class="text"/></g><g class="trace scatter tracef9e5b7" style="stroke-miterlimit: 2; opacity: 1;"><g class="fills"/><g class="errorbars"/><g class="lines"><path class="js-line" d="M0,26.09L5.45,44.84L10.91,47L27.27,49.45L32.73,49.88L49.09,51.69L54.55,51.95L65.45,52.57L70.91,53.92L92.73,54.55L98.18,55.1L109.09,58.48L114.55,59.45L125.45,64.6L130.91,71.4L141.82,83.09L147.27,88.21L158.18,99.22L163.64,103.69L169.09,106.13L174.55,111.05L180,118.14L185.45,121.87L190.91,122.83L196.36,126.58L201.82,127.3L207.27,129.53L212.73,130.02L218.18,133.41L223.64,136.13L229.09,140.68L234.55,143.37L240,147.73L245.45,151.5L250.91,157.04L256.36,157.24L261.82,163.98L272.73,169.49L278.18,173.91L283.64,175.42L289.09,181.5L294.55,182.13L300,185.93L305.45,189.03L310.91,191.05L316.36,194.58L321.82,196.95L332.73,204.83L338.18,205.82L343.64,210.01L349.09,212.13L376.36,227.7L381.82,230.37L414.55,248.42L420,251.97L425.45,254.22L430.91,257.47L436.36,260.89L441.82,260.92L463.64,264.21L469.09,265.83L490.91,268.7L496.36,270.14L501.82,270.36L507.27,271.37L523.64,273.92L529.09,274.24L534.55,274.71L540,275.95" style="vector-effect: non-scaling-stroke; fill: none; stroke: rgb(248, 118, 109); stroke-opacity: 1; stroke-width: 2px; opacity: 1;"/></g><g class="points"/><g class="text"/></g><g class="trace scatter trace27d339" style="stroke-miterlimit: 2; opacity: 1;"><g class="fills"/><g class="errorbars"/><g class="lines"><path class="js-line" d="M0,16L5.45,39.18L10.91,42.6L16.36,45.03L21.82,46.6L27.27,49.07L32.73,50.23L65.45,54.73L70.91,56.13L81.82,59.38L87.27,64.05L92.73,69.74L98.18,73.91L109.09,83.13L114.55,88.23L120,95.86L125.45,107.78L136.36,121.13L141.82,125.7L152.73,133.96L158.18,137.86L163.64,141.39L169.09,141.79L180,147.44L185.45,148.33L190.91,148.51L196.36,152.13L201.82,150.02L207.27,151.4L212.73,151.65L218.18,154.46L229.09,159.38L234.55,163.22L240,167.27L245.45,169.64L250.91,173.55L256.36,175.07L261.82,180.6L267.27,183.09L272.73,185.03L278.18,189.68L283.64,191.94L289.09,197.38L300,201.93L305.45,205.25L321.82,214.8L327.27,216.85L332.73,220.99L338.18,222.7L343.64,228.38L349.09,231.08L354.55,232.97L360,236.32L387.27,252.71L392.73,255.46L425.45,275.46L430.91,278.07L436.36,281.66L441.82,281.71L458.18,285.3L463.64,286.01L496.36,292.09L501.82,292.23L518.18,295.75L523.64,295.91L529.09,296.32L534.55,298L540,298.4" style="vector-effect: non-scaling-stroke; fill: none; stroke: rgb(163, 165, 0); stroke-opacity: 1; stroke-width: 2px; opacity: 1;"/></g><g class="points"/><g class="text"/></g><g class="trace scatter traceae5a74" style="stroke-miterlimit: 2; opacity: 1;"><g class="fills"/><g class="errorbars"/><g class="lines"><path class="js-line" d="M0,16.34L5.45,38.87L10.91,42.13L27.27,48.99L32.73,50.56L54.55,54.83L60,55.35L81.82,58.94L87.27,61.32L92.73,63.45L98.18,67.69L103.64,74.83L109.09,85.62L125.45,111.47L130.91,118.3L141.82,126.32L147.27,128.41L152.73,131.44L158.18,133.48L163.64,135.53L169.09,134.91L174.55,136.6L180,139.33L185.45,138.36L190.91,140L196.36,141.09L201.82,140.51L207.27,138.29L212.73,141.11L218.18,140.76L223.64,142.78L229.09,148.36L234.55,148.67L240,153.14L245.45,156.52L250.91,159.45L256.36,159.75L261.82,166.46L267.27,169.24L272.73,172.43L278.18,176.69L283.64,177.45L289.09,182.89L294.55,183.05L300,185.76L305.45,188.96L310.91,191.09L316.36,194.66L321.82,197.22L327.27,199.47L332.73,204L338.18,205.06L343.64,209.68L349.09,212.56L354.55,214.52L365.45,220.32L370.91,223.41L376.36,227.2L381.82,229.18L387.27,233.24L392.73,234.85L403.64,240.77L409.09,244.2L414.55,246.43L420,250.34L436.36,259.05L441.82,259.16L452.73,260.1L458.18,261.77L463.64,262.24L469.09,263.58L474.55,264.9L480,265.25L496.36,268.19L501.82,268.34L507.27,268.94L512.73,270.36L529.09,272.49L534.55,273.07L540,274.35" style="vector-effect: non-scaling-stroke; fill: none; stroke: rgb(0, 191, 125); stroke-opacity: 1; stroke-width: 2px; opacity: 1;"/></g><g class="points"/><g class="text"/></g><g class="trace scatter trace71ef97" style="stroke-miterlimit: 2; opacity: 1;"><g class="fills"/><g class="errorbars"/><g class="lines"><path class="js-line" d="M0,17.7L5.45,38.76L10.91,44.33L16.36,47.18L21.82,48.97L43.64,54.24L49.09,55.47L54.55,57.02L60,59.98L65.45,62.46L70.91,67.73L76.36,76.75L81.82,87.65L87.27,99.6L92.73,108.54L103.64,122.55L109.09,127.25L136.36,144.16L141.82,147.05L147.27,148.13L152.73,150.53L163.64,153.63L169.09,153.63L174.55,154.01L180,156.37L185.45,156.93L190.91,156.33L196.36,159.09L201.82,157.14L212.73,156.81L218.18,157.26L223.64,161.78L229.09,164.14L240,170.41L245.45,174.33L250.91,178.28L256.36,178.45L261.82,183.19L267.27,186.05L272.73,188.72L278.18,192.54L283.64,194.65L289.09,199.75L300,203.03L305.45,206.34L310.91,209.46L316.36,213.52L321.82,215.76L327.27,219.19L343.64,228.81L349.09,231.04L354.55,233.53L360,237.46L381.82,249.11L387.27,253.62L392.73,255.31L398.18,258.58L420,270.92L425.45,274.7L430.91,277.22L436.36,280.65L441.82,279.79L447.27,282.11L452.73,282.03L458.18,283.3L463.64,284.65L469.09,285.17L480,286.52L485.45,288.07L490.91,289.36L496.36,289.78L507.27,290.81L512.73,292.39L518.18,292.69L523.64,293.92L529.09,293.81L534.55,295.38L540,296.28" style="vector-effect: non-scaling-stroke; fill: none; stroke: rgb(0, 176, 246); stroke-opacity: 1; stroke-width: 2px; opacity: 1;"/></g><g class="points"/><g class="text"/></g><g class="trace scatter tracee7ac27" style="stroke-miterlimit: 2; opacity: 1;"><g class="fills"/><g class="errorbars"/><g class="lines"><path class="js-line" d="M0,20.7L5.45,42.08L10.91,46.15L27.27,50.24L32.73,50.51L60,54.59L65.45,55.01L81.82,59.72L87.27,62.51L92.73,67.38L98.18,70.19L103.64,73.95L109.09,76.1L114.55,78.93L120,78.28L130.91,83.77L136.36,88L141.82,96.53L147.27,103.05L152.73,110.44L158.18,114.24L163.64,119.53L169.09,121.17L180,126.82L185.45,130.04L190.91,131.28L196.36,135.36L201.82,134.16L207.27,136.15L218.18,139.24L223.64,143.41L229.09,145.75L234.55,149.49L240,152.56L245.45,157.36L250.91,161.06L256.36,161.52L261.82,166.89L267.27,170.03L272.73,172.94L278.18,177.93L283.64,178.69L289.09,184.77L294.55,186.56L300,189.77L310.91,196.01L316.36,198.95L332.73,209.57L338.18,211.57L343.64,215.68L349.09,218.35L365.45,226.96L370.91,231.06L376.36,234L381.82,235.92L387.27,240.09L392.73,242.28L398.18,245.08L403.64,249.04L409.09,252.63L414.55,255.11L425.45,261.78L430.91,264.43L436.36,268.04L441.82,267.97L480,274.51L485.45,275.04L490.91,276.32L496.36,276.65L529.09,281.59L534.55,282.04L540,282.83" style="vector-effect: non-scaling-stroke; fill: none; stroke: rgb(231, 107, 243); stroke-opacity: 1; stroke-width: 2px; opacity: 1;"/></g><g class="points"/><g class="text"/></g><g class="trace scatter tracebedec1" style="stroke-miterlimit: 2; opacity: 1;"><g class="fills"/><g class="errorbars"/><g class="lines"><path class="js-line" d="M0,22.33L5.45,39.3L10.91,42.23L21.82,46.08L27.27,47.15L43.64,50.63L49.09,51.39L54.55,50.86L60,51.9L76.36,53.69L81.82,53.22L87.27,54.56L92.73,55.11L98.18,55.65L103.64,58.4L109.09,61.79L114.55,66.36L120,74.92L125.45,86.26L130.91,98.95L136.36,106.18L141.82,110.69L147.27,116.53L158.18,121.45L163.64,125.69L169.09,125.72L174.55,128.74L180,130.45L185.45,133.03L190.91,133.82L196.36,138.87L201.82,137.47L207.27,138.58L212.73,138.92L218.18,141.67L245.45,158.92L250.91,162.9L256.36,162.7L261.82,168.88L272.73,174.57L278.18,178.26L283.64,181.18L289.09,186.61L294.55,187.95L300,190.69L310.91,196.81L316.36,199.66L327.27,205.09L332.73,208.94L338.18,211.04L343.64,215.32L365.45,225.54L370.91,229.28L376.36,233.48L381.82,235.02L387.27,239.08L392.73,240.5L425.45,260L430.91,262.13L436.36,266.04L441.82,266.26L447.27,267.76L452.73,267.73L474.55,271.86L480,272.55L490.91,274.23L496.36,274.11L507.27,276.3L512.73,277.3L540,280.44" style="vector-effect: non-scaling-stroke; fill: none; stroke: rgb(248, 118, 109); stroke-opacity: 1; stroke-width: 2px; opacity: 1;"/></g><g class="points"/><g class="text"/></g><g class="trace scatter tracec164dc" style="stroke-miterlimit: 2; opacity: 1;"><g class="fills"/><g class="errorbars"/><g class="lines"><path class="js-line" d="M0,19.66L5.45,39.11L10.91,41.54L32.73,49.32L38.18,50.34L60,54.48L65.45,55.09L76.36,56.75L81.82,58.26L92.73,62.04L98.18,64.89L109.09,75.98L114.55,82.89L130.91,108.43L136.36,113.39L141.82,117.83L147.27,120.35L163.64,129.94L169.09,130.24L180,137.45L185.45,137.73L190.91,140.13L196.36,141.68L201.82,140.19L207.27,141.6L218.18,144.24L223.64,147.78L240,157.26L245.45,161.6L250.91,166.35L256.36,166.04L261.82,172.1L267.27,173.92L278.18,182.35L283.64,183.89L289.09,189.35L294.55,190.56L305.45,197.39L310.91,199.51L316.36,203.68L321.82,206.03L327.27,208.83L332.73,213.64L338.18,215.52L343.64,218.88L349.09,223.23L354.55,225.24L365.45,231.02L370.91,234.72L381.82,241.5L387.27,244.9L392.73,246.88L398.18,250.72L414.55,259.61L420,262.93L425.45,267.14L430.91,269.34L436.36,272.54L441.82,273.2L447.27,274.58L452.73,274.23L485.45,280.96L490.91,282L512.73,284.64L518.18,285.71L540,288.95" style="vector-effect: non-scaling-stroke; fill: none; stroke: rgb(163, 165, 0); stroke-opacity: 1; stroke-width: 2px; opacity: 1;"/></g><g class="points"/><g class="text"/></g><g class="trace scatter trace2ab8d1" style="stroke-miterlimit: 2; opacity: 1;"><g class="fills"/><g class="errorbars"/><g class="lines"><path class="js-line" d="M0,22.67L5.45,40.18L10.91,40.7L21.82,46.17L27.27,47.48L49.09,51.44L54.55,52.46L70.91,57.11L76.36,58.36L81.82,60.43L87.27,64.04L92.73,68.94L98.18,76.56L103.64,84.97L109.09,94.85L120,107.48L125.45,111.54L136.36,119.55L141.82,121.54L152.73,126.64L158.18,127.15L163.64,131.84L169.09,131.47L180,136.68L185.45,138.04L190.91,138.33L196.36,141.53L201.82,140.97L207.27,141.84L212.73,144.34L218.18,144.89L223.64,149.19L229.09,152.34L234.55,155.82L240,160.55L245.45,161.77L250.91,167.01L256.36,168.86L261.82,173.67L272.73,178.84L278.18,184.35L283.64,185.51L289.09,191.33L294.55,193.15L300,195.85L305.45,197.93L310.91,201.46L332.73,215.11L338.18,216.99L343.64,222.01L349.09,224.22L365.45,232.18L370.91,236.67L376.36,240.77L381.82,242.63L387.27,246.72L392.73,248.71L398.18,252.35L403.64,254.38L420,265.36L425.45,268.93L430.91,271.26L436.36,274.82L441.82,274.97L447.27,275.99L485.45,282.52L490.91,284L496.36,284.01L501.82,284.87L529.09,288.79L534.55,289.05L540,289.91" style="vector-effect: non-scaling-stroke; fill: none; stroke: rgb(0, 191, 125); stroke-opacity: 1; stroke-width: 2px; opacity: 1;"/></g><g class="points"/><g class="text"/></g><g class="trace scatter traceb61708" style="stroke-miterlimit: 2; opacity: 1;"><g class="fills"/><g class="errorbars"/><g class="lines"><path class="js-line" d="M0,18.16L5.45,39.26L10.91,42.39L32.73,48.89L38.18,50.12L43.64,51.3L49.09,51.6L65.45,54.58L70.91,56.83L81.82,63.55L87.27,68.3L92.73,72.96L98.18,76.29L103.64,83.26L109.09,92.28L120,108.32L125.45,113.45L130.91,120.98L136.36,123.64L141.82,127.42L147.27,129.83L152.73,133.19L158.18,134.45L163.64,137.93L169.09,137.29L185.45,141.73L190.91,142.56L196.36,143.93L201.82,142.6L207.27,142.23L212.73,143.74L223.64,146.8L229.09,150.05L234.55,152.14L240,157.35L245.45,159.41L250.91,163.53L256.36,164.32L261.82,169.83L267.27,173.04L272.73,175.33L278.18,178.6L283.64,180.08L289.09,186.06L294.55,187.48L321.82,202.22L327.27,204.11L332.73,209.2L338.18,209.48L343.64,215.22L349.09,218.4L354.55,219.39L360,223.94L370.91,228.59L376.36,232.91L381.82,234.64L387.27,240.03L392.73,241.78L398.18,244.89L409.09,251.43L414.55,253.65L425.45,261.35L430.91,263.37L436.36,266.9L441.82,267.1L447.27,268.43L452.73,268.83L458.18,270.23L463.64,270.51L469.09,272.57L474.55,272.97L485.45,274.76L490.91,275.57L518.18,279.52L523.64,280.86L534.55,281.61L540,282.7" style="vector-effect: non-scaling-stroke; fill: none; stroke: rgb(0, 176, 246); stroke-opacity: 1; stroke-width: 2px; opacity: 1;"/></g><g class="points"/><g class="text"/></g><g class="trace scatter tracec99aed" style="stroke-miterlimit: 2; opacity: 1;"><g class="fills"/><g class="errorbars"/><g class="lines"><path class="js-line" d="M0,18.99L5.45,39.47L10.91,41.03L16.36,42.09L21.82,44.34L38.18,50.8L43.64,51.97L54.55,53.58L60,54.68L76.36,55.52L81.82,55.6L92.73,57.39L98.18,57.84L109.09,61.06L114.55,63.38L120,66.12L125.45,70.19L130.91,74.8L136.36,80.9L152.73,102.67L158.18,107.5L163.64,115.41L169.09,116.1L174.55,118.75L180,122.76L185.45,122.69L190.91,125.52L201.82,125.46L207.27,128.07L212.73,128.04L218.18,130.25L223.64,132.49L229.09,135.96L245.45,146.93L250.91,152.39L256.36,154.41L261.82,158.63L278.18,169.39L283.64,171.54L289.09,178.09L294.55,178.74L327.27,198.18L332.73,202.34L338.18,203.85L343.64,206.73L349.09,210.94L354.55,214.16L365.45,219.41L370.91,222.21L376.36,226.05L381.82,228.53L387.27,232.89L392.73,235.02L436.36,260.97L441.82,260.7L469.09,265.73L474.55,267.35L490.91,269.45L496.36,270.56L501.82,270.54L507.27,271.39L540,276.69" style="vector-effect: non-scaling-stroke; fill: none; stroke: rgb(231, 107, 243); stroke-opacity: 1; stroke-width: 2px; opacity: 1;"/></g><g class="points"/><g class="text"/></g><g class="trace scatter trace0a7de8" style="stroke-miterlimit: 2; opacity: 1;"><g class="fills"/><g class="errorbars"/><g class="lines"><path class="js-line" d="M0,20.12L5.45,40.18L10.91,44.59L21.82,48.72L27.27,50.14L43.64,54.18L49.09,54.79L54.55,55.43L60,56.93L65.45,58.41L70.91,61.32L81.82,71.05L87.27,74.78L92.73,77.71L98.18,79.11L109.09,82.42L114.55,82.7L120,81.51L125.45,82.38L136.36,83.45L141.82,81.37L147.27,82.94L152.73,83.22L158.18,81.99L163.64,82.15L169.09,81.08L174.55,81.81L180,81.51L185.45,83.8L190.91,84.93L196.36,92.97L207.27,110.96L212.73,115.43L223.64,125.97L229.09,132.12L234.55,137.29L240,143.62L245.45,149.09L250.91,155.7L256.36,157.4L261.82,162.98L272.73,170.18L278.18,174.68L283.64,177.15L289.09,183.24L294.55,185.41L300,188.54L305.45,191.86L310.91,194.19L321.82,201.24L327.27,203.86L332.73,208.92L338.18,211.47L365.45,226.74L370.91,230.78L376.36,234.45L381.82,236.94L387.27,240.73L392.73,242.62L398.18,246.79L403.64,249.19L414.55,256.03L420,258.94L430.91,265.16L436.36,268.66L441.82,268.88L447.27,270.02L452.73,270.17L458.18,271.36L507.27,279.12L512.73,279.99L523.64,281.79L529.09,282.28L540,284.06" style="vector-effect: non-scaling-stroke; fill: none; stroke: rgb(248, 118, 109); stroke-opacity: 1; stroke-width: 2px; opacity: 1;"/></g><g class="points"/><g class="text"/></g><g class="trace scatter trace814763" style="stroke-miterlimit: 2; opacity: 1;"><g class="fills"/><g class="errorbars"/><g class="lines"><path class="js-line" d="M0,20.57L5.45,40.81L10.91,44.96L16.36,47.1L21.82,47.91L27.27,49.81L32.73,50.84L49.09,54.12L54.55,53.77L65.45,55.74L70.91,57.69L76.36,60.79L81.82,65.02L92.73,74.62L98.18,78.05L103.64,84.23L109.09,94.49L120,113.79L125.45,119.6L130.91,123.94L136.36,126.95L141.82,130.4L147.27,132.68L152.73,135.67L158.18,137.04L163.64,140.26L169.09,139.45L174.55,140.16L180,142.65L190.91,142.68L196.36,144.64L201.82,142.29L207.27,144.78L212.73,144.91L218.18,143.16L234.55,150.93L240,155.15L245.45,159.71L250.91,161.16L256.36,163.62L261.82,168.6L272.73,174.25L278.18,178.65L283.64,179.92L289.09,185.24L294.55,186.1L300,189.62L310.91,195.05L316.36,199.23L321.82,201.16L327.27,204.04L332.73,208.07L338.18,210.58L343.64,215.21L349.09,216.3L360,223.45L365.45,225.88L376.36,232.56L381.82,235.64L387.27,238.6L392.73,240.57L403.64,247.41L409.09,250.29L425.45,260.82L430.91,263L436.36,266.22L441.82,266.61L447.27,268.36L452.73,268.75L458.18,270.14L463.64,270.16L474.55,272.62L480,273.19L490.91,275.23L496.36,276.28L507.27,277.46L512.73,278.48L529.09,279.97L534.55,281.49L540,282.4" style="vector-effect: non-scaling-stroke; fill: none; stroke: rgb(163, 165, 0); stroke-opacity: 1; stroke-width: 2px; opacity: 1;"/></g><g class="points"/><g class="text"/></g><g class="trace scatter traceca3245" style="stroke-miterlimit: 2; opacity: 1;"><g class="fills"/><g class="errorbars"/><g class="lines"><path class="js-line" d="M0,16.15L5.45,39.57L10.91,44.14L16.36,47.13L21.82,48.22L49.09,55.33L54.55,56.37L70.91,61.15L76.36,63.21L87.27,73.16L92.73,79.91L98.18,85.9L103.64,94.35L114.55,109.66L120,116.32L130.91,127.28L136.36,127.86L147.27,133.67L152.73,134.83L158.18,135.7L163.64,138.82L169.09,137.64L174.55,139.8L180,142.13L185.45,140.77L190.91,142.31L196.36,142.98L212.73,142.7L218.18,144.96L223.64,147.3L229.09,150.68L240,156.71L245.45,160.64L250.91,164.16L256.36,165.46L261.82,170.79L267.27,173.46L272.73,176.96L278.18,178.88L283.64,181.74L289.09,186.79L294.55,189.07L300,190.19L305.45,194.71L310.91,197.51L321.82,204.02L327.27,205.77L332.73,210.59L338.18,211.13L343.64,215.22L349.09,217.62L354.55,221.47L360,224.3L370.91,229.71L376.36,233.87L387.27,240.95L392.73,242.63L409.09,253.41L414.55,255.09L420,259.58L425.45,262.25L430.91,265.08L436.36,268.79L441.82,268.56L447.27,270.48L452.73,270.83L458.18,271.96L512.73,281.02L518.18,281.9L529.09,283.04L534.55,283.56L540,285.59" style="vector-effect: non-scaling-stroke; fill: none; stroke: rgb(0, 191, 125); stroke-opacity: 1; stroke-width: 2px; opacity: 1;"/></g><g class="points"/><g class="text"/></g><g class="trace scatter traceb19de4" style="stroke-miterlimit: 2; opacity: 1;"><g class="fills"/><g class="errorbars"/><g class="lines"><path class="js-line" d="M0,23.59L5.45,43.35L10.91,46.38L38.18,49.08L43.64,50.52L54.55,51.62L60,53.02L65.45,55.98L70.91,61.63L76.36,67.96L81.82,72.17L87.27,75.38L92.73,76.9L98.18,78.8L103.64,79.41L109.09,80.99L114.55,81.18L147.27,80.37L152.73,81.6L158.18,79.72L163.64,81.16L169.09,79.68L174.55,80.9L180,79.6L185.45,80.2L190.91,80.58L196.36,82.18L201.82,85.85L207.27,95.78L212.73,106.45L218.18,113.15L240,136.43L245.45,140.85L250.91,146.62L256.36,148.86L278.18,167.02L283.64,169.11L289.09,175.96L294.55,178.28L300,180.91L305.45,184.43L310.91,188.51L316.36,190.7L321.82,195.38L327.27,197.26L332.73,202.57L338.18,205.35L349.09,212.29L354.55,214.78L360,218.89L365.45,221.6L376.36,228.27L381.82,231.05L387.27,235.3L392.73,237.76L403.64,244.2L409.09,247.87L414.55,250.34L420,253.91L425.45,257.47L430.91,260.01L436.36,263.53L441.82,263.56L463.64,268.43L469.09,268.43L490.91,272.82L496.36,273.39L501.82,273.46L507.27,274.83L529.09,278.07L534.55,278.48L540,279.28" style="vector-effect: non-scaling-stroke; fill: none; stroke: rgb(0, 176, 246); stroke-opacity: 1; stroke-width: 2px; opacity: 1;"/></g><g class="points"/><g class="text"/></g><g class="trace scatter trace9113f3" style="stroke-miterlimit: 2; opacity: 1;"><g class="fills"/><g class="errorbars"/><g class="lines"><path class="js-line" d="M0,19.54L5.45,43.13L10.91,45.91L49.09,51.9L54.55,51.83L70.91,53.56L76.36,53.67L87.27,54.77L92.73,55.81L98.18,56.36L103.64,59.62L109.09,62.75L114.55,68.21L125.45,74.74L130.91,76.01L136.36,78.21L141.82,78.21L147.27,78.44L152.73,80.01L158.18,79.34L163.64,80.09L169.09,80.17L174.55,81.18L180,87.5L185.45,95.03L196.36,113.58L201.82,116.51L212.73,124.58L218.18,128.96L229.09,139.86L234.55,144.72L240,149.83L245.45,153.25L250.91,157.82L256.36,159.48L261.82,164.11L267.27,167.72L283.64,178.11L289.09,183.4L294.55,183.44L300,187.3L305.45,190.22L310.91,194.32L316.36,196.21L321.82,199.51L327.27,202.33L332.73,206.6L338.18,208.21L343.64,212.09L354.55,216.31L360,220.27L370.91,225.58L376.36,230.42L392.73,237.38L398.18,241.12L409.09,247.72L414.55,249.88L425.45,257.07L430.91,259.42L436.36,262.49L441.82,263.07L469.09,267.15L474.55,268.44L496.36,272.26L501.82,272.35L523.64,275.74L529.09,276.08L540,277.62" style="vector-effect: non-scaling-stroke; fill: none; stroke: rgb(231, 107, 243); stroke-opacity: 1; stroke-width: 2px; opacity: 1;"/></g><g class="points"/><g class="text"/></g><g class="trace scatter trace3a8fb3" style="stroke-miterlimit: 2; opacity: 1;"><g class="fills"/><g class="errorbars"/><g class="lines"><path class="js-line" d="M0,22.63L5.45,43.05L10.91,46.62L49.09,53.56L54.55,54.09L65.45,55.72L70.91,55.71L87.27,59.44L92.73,61.03L98.18,63.13L103.64,67.59L114.55,75.02L120,77.2L130.91,82.69L136.36,84.65L147.27,93.68L152.73,101.59L163.64,117.04L169.09,120.31L174.55,126.82L180,131.15L196.36,139.89L201.82,139.6L207.27,142.21L212.73,143.59L218.18,144.84L223.64,148.97L240,161.49L245.45,164.29L250.91,168.76L256.36,170.25L267.27,179.21L272.73,182.58L278.18,186.12L283.64,187.51L289.09,194.45L294.55,196.36L300,198.82L305.45,202.74L310.91,205.74L316.36,207.87L321.82,211.75L327.27,214.16L332.73,218.49L338.18,220.13L343.64,225.73L349.09,227.52L354.55,229.26L360,233.35L365.45,235.35L370.91,239.34L376.36,244.12L381.82,245.14L387.27,249.92L392.73,250.6L398.18,255.62L403.64,258.58L414.55,265.18L420,268.66L425.45,272.1L430.91,274.26L436.36,277.71L441.82,277.29L447.27,279.23L452.73,279.68L463.64,281.79L469.09,282.99L507.27,289.4L512.73,289.64L523.64,291.94L529.09,290.94L534.55,292.85L540,293.34" style="vector-effect: non-scaling-stroke; fill: none; stroke: rgb(248, 118, 109); stroke-opacity: 1; stroke-width: 2px; opacity: 1;"/></g><g class="points"/><g class="text"/></g><g class="trace scatter traceb6b2b3" style="stroke-miterlimit: 2; opacity: 1;"><g class="fills"/><g class="errorbars"/><g class="lines"><path class="js-line" d="M0,21.15L5.45,39.31L10.91,41L21.82,43.86L27.27,47.1L38.18,49.85L43.64,50.74L60,53.21L65.45,53.77L76.36,56.2L81.82,57.35L87.27,59.6L92.73,63.63L98.18,66.56L103.64,72.32L109.09,77.02L114.55,82.72L120,88.41L125.45,97.71L130.91,107.24L136.36,111.97L152.73,123.47L158.18,124.43L163.64,128.76L169.09,128.72L174.55,131L180,134.1L190.91,136.4L196.36,138.7L207.27,139.68L212.73,142.61L218.18,143.91L223.64,147.12L234.55,153.92L240,159.78L245.45,160.85L250.91,167.13L256.36,167.16L261.82,173.29L272.73,178.68L278.18,182.69L283.64,184.31L289.09,189.42L294.55,192.53L300,193.35L310.91,200.11L316.36,202.93L327.27,208.75L332.73,213.7L338.18,214.75L343.64,218.62L349.09,221.72L354.55,223.74L376.36,236.92L381.82,239.68L387.27,243.57L392.73,246.26L398.18,248.73L403.64,252.53L409.09,255.81L414.55,257.65L420,261.14L425.45,265.63L430.91,266.59L436.36,271.07L458.18,274.3L463.64,275.4L474.55,277.92L480,278.03L485.45,278.43L490.91,280.49L496.36,280.99L501.82,280.64L523.64,284.66L529.09,285.36L540,286.4" style="vector-effect: non-scaling-stroke; fill: none; stroke: rgb(163, 165, 0); stroke-opacity: 1; stroke-width: 2px; opacity: 1;"/></g><g class="points"/><g class="text"/></g><g class="trace scatter trace31f16e" style="stroke-miterlimit: 2; opacity: 1;"><g class="fills"/><g class="errorbars"/><g class="lines"><path class="js-line" d="M0,21.29L5.45,41.82L10.91,44.6L16.36,46.62L21.82,47.72L27.27,49.23L32.73,49.88L65.45,54.07L70.91,54.08L76.36,55.01L81.82,54.31L87.27,54.99L92.73,54.72L109.09,54.87L114.55,54.93L130.91,56.27L136.36,57.8L147.27,63.72L152.73,68.83L158.18,69.42L163.64,72.77L169.09,72.11L174.55,72.46L180,73.25L185.45,72.98L196.36,72.58L201.82,71.04L207.27,72.12L212.73,72.2L218.18,71.64L223.64,72.82L229.09,76.79L234.55,82.34L250.91,109.3L256.36,114.98L261.82,122.03L267.27,126.23L272.73,130.39L278.18,135.87L283.64,139.43L289.09,144.7L305.45,154.93L310.91,160.14L316.36,163.63L321.82,168.6L327.27,170.14L332.73,176.24L338.18,177.92L343.64,182.04L349.09,185.19L354.55,189.82L360,192.67L365.45,194.59L370.91,198.7L376.36,201.74L381.82,204.76L387.27,209.03L392.73,211.36L398.18,214.71L403.64,217.62L409.09,221.58L420,226.86L425.45,230.87L430.91,233.18L436.36,236.31L452.73,238.33L458.18,239.78L485.45,244.3L490.91,245.08L501.82,246.51L507.27,247L518.18,249.55L523.64,249.89L529.09,250.23L534.55,251.83L540,252.14" style="vector-effect: non-scaling-stroke; fill: none; stroke: rgb(0, 191, 125); stroke-opacity: 1; stroke-width: 2px; opacity: 1;"/></g><g class="points"/><g class="text"/></g><g class="trace scatter trace54ee7a" style="stroke-miterlimit: 2; opacity: 1;"><g class="fills"/><g class="errorbars"/><g class="lines"><path class="js-line" d="M0,17.82L5.45,39.42L10.91,44.56L16.36,47.57L21.82,48.63L43.64,54.21L49.09,56.19L54.55,56.98L60,59.66L65.45,61.06L70.91,65.57L76.36,70.2L81.82,75.83L87.27,81.47L92.73,85.77L109.09,107.97L114.55,110.72L125.45,120.67L130.91,123.14L152.73,131.93L158.18,132.35L163.64,134.69L169.09,133.45L180,135.97L185.45,136.36L196.36,139.14L201.82,138.81L207.27,139.28L212.73,140.53L218.18,140.55L223.64,144.3L229.09,148.34L234.55,149.63L240,153.9L245.45,156.88L250.91,161.18L256.36,162.22L261.82,167.38L267.27,169.99L272.73,173.47L278.18,177.88L283.64,179.32L289.09,184.03L294.55,185.28L300,187.88L316.36,196.68L321.82,200.07L332.73,206.64L338.18,208.55L349.09,215.33L354.55,218.27L365.45,222.22L370.91,227.09L392.73,239.13L398.18,241.07L409.09,248.44L414.55,251.25L436.36,263.97L441.82,263.85L458.18,267.34L463.64,267.32L496.36,273.37L501.82,273.59L523.64,277.11L529.09,277.52L540,279.6" style="vector-effect: non-scaling-stroke; fill: none; stroke: rgb(0, 176, 246); stroke-opacity: 1; stroke-width: 2px; opacity: 1;"/></g><g class="points"/><g class="text"/></g><g class="trace scatter trace2ad364" style="stroke-miterlimit: 2; opacity: 1;"><g class="fills"/><g class="errorbars"/><g class="lines"><path class="js-line" d="M0,22.9L5.45,43.14L10.91,46.52L27.27,50.51L32.73,51.11L43.64,53.66L49.09,53.9L60,54.88L65.45,55.38L87.27,57.61L92.73,58.61L98.18,59.65L103.64,62.61L109.09,65.08L114.55,69.81L120,72.43L125.45,76.82L130.91,79.41L136.36,83.86L147.27,100.91L152.73,105.75L158.18,109.98L163.64,117.45L169.09,117.55L174.55,123.1L180,126.02L185.45,125.69L196.36,129.72L201.82,129.95L207.27,129.77L212.73,131.42L218.18,132.65L223.64,136.08L234.55,143.07L240,147.91L245.45,150.05L250.91,155.9L256.36,156.13L261.82,161.91L267.27,165.8L272.73,168.09L278.18,173.37L283.64,173.87L289.09,179.87L294.55,180.35L300,184.68L305.45,187.65L310.91,189.68L316.36,193.12L321.82,196.78L327.27,198L332.73,203.43L338.18,204.93L343.64,207.86L349.09,212.49L354.55,214.72L360,218.78L365.45,221.22L370.91,224.6L376.36,228.31L381.82,231.08L387.27,234.77L392.73,236.78L414.55,250.72L420,253.66L430.91,260.35L436.36,263.6L441.82,263.31L447.27,264.76L469.09,268.8L474.55,270.31L485.45,271.24L490.91,272.5L496.36,273.63L501.82,273.96L507.27,275.51L512.73,275.74L540,280.2" style="vector-effect: non-scaling-stroke; fill: none; stroke: rgb(231, 107, 243); stroke-opacity: 1; stroke-width: 2px; opacity: 1;"/></g><g class="points"/><g class="text"/></g><g class="trace scatter traceda1c76" style="stroke-miterlimit: 2; opacity: 1;"><g class="fills"/><g class="errorbars"/><g class="lines"><path class="js-line" d="M0,21.02L5.45,41.34L10.91,45.34L16.36,48.02L21.82,49.46L32.73,51.7L38.18,53.05L81.82,59.09L87.27,60.42L98.18,62.81L103.64,65.63L109.09,68.27L114.55,72.86L130.91,100.38L136.36,107.09L141.82,113.52L147.27,115.71L152.73,120.52L158.18,122.69L163.64,127.8L169.09,130.98L174.55,133.83L180,137.59L190.91,138.66L196.36,142.58L201.82,141.03L207.27,143.14L218.18,146.41L223.64,150.83L229.09,153.41L234.55,157.21L245.45,164.53L250.91,169.65L256.36,172.2L261.82,175.7L267.27,179.82L272.73,181.98L278.18,187.73L283.64,188.34L289.09,194.16L294.55,196.94L300,199.19L305.45,202.44L310.91,205.05L316.36,208.66L327.27,214.72L332.73,218.9L338.18,220.22L343.64,224.97L354.55,230.1L360,233.42L376.36,243.08L381.82,245.95L387.27,250.19L392.73,252.62L409.09,262.43L414.55,265.57L425.45,272.42L430.91,275.08L436.36,279.39L441.82,279.4L447.27,280.25L452.73,280.16L469.09,284.36L474.55,285.25L480,285.77L485.45,287.05L512.73,291.33L518.18,292.39L534.55,294.31L540,295.14" style="vector-effect: non-scaling-stroke; fill: none; stroke: rgb(248, 118, 109); stroke-opacity: 1; stroke-width: 2px; opacity: 1;"/></g><g class="points"/><g class="text"/></g><g class="trace scatter trace3156d5" style="stroke-miterlimit: 2; opacity: 1;"><g class="fills"/><g class="errorbars"/><g class="lines"><path class="js-line" d="M0,17.78L5.45,38.29L10.91,42.61L16.36,45.9L21.82,47.97L54.55,55.82L60,57.95L65.45,60.61L70.91,64.4L81.82,74.84L87.27,84.15L103.64,109.06L109.09,115.25L114.55,120.1L120,123.79L130.91,136.66L136.36,139.72L141.82,144.23L147.27,147.17L152.73,150.72L158.18,151.92L163.64,154.87L169.09,154.41L174.55,155.3L180,158.03L185.45,156.08L190.91,156.83L196.36,160.39L201.82,157.93L212.73,158.12L218.18,157.43L223.64,162.69L229.09,164.48L250.91,178.51L256.36,180.29L261.82,184.42L267.27,187.05L278.18,194.24L283.64,196.68L289.09,200.85L294.55,202.91L300,205.05L305.45,208.82L327.27,221.21L332.73,224.72L338.18,227.08L343.64,231.13L354.55,236.66L360,241.21L365.45,242.81L370.91,246.68L376.36,250.99L381.82,253.16L387.27,257.21L392.73,259.82L409.09,269.83L414.55,272.37L420,276.77L425.45,280.08L430.91,282.98L436.36,286.81L441.82,286.88L447.27,288.19L452.73,288.27L458.18,290.02L469.09,291.34L474.55,293.08L485.45,294.36L490.91,295.22L496.36,297.05L501.82,296.35L507.27,298.36L512.73,298.98L540,302.82" style="vector-effect: non-scaling-stroke; fill: none; stroke: rgb(163, 165, 0); stroke-opacity: 1; stroke-width: 2px; opacity: 1;"/></g><g class="points"/><g class="text"/></g><g class="trace scatter traceab7078" style="stroke-miterlimit: 2; opacity: 1;"><g class="fills"/><g class="errorbars"/><g class="lines"><path class="js-line" d="M0,22.6L5.45,42.46L10.91,45.98L21.82,48.69L27.27,49.77L65.45,55.52L70.91,57.24L81.82,61.85L87.27,64.16L114.55,75.97L120,76.12L130.91,78.01L136.36,78.09L147.27,78.05L152.73,80.07L158.18,78.05L163.64,79.48L169.09,78.12L174.55,77.59L180,77.77L185.45,77.18L190.91,76.14L196.36,76.04L212.73,73.61L218.18,74.96L223.64,75.66L229.09,77.19L234.55,79.67L240,81.26L245.45,82.2L250.91,84.78L256.36,86.88L261.82,90.07L283.64,98.69L289.09,102.4L300,106.04L305.45,108.85L310.91,110.03L316.36,112.62L327.27,118.94L332.73,122.26L338.18,126.95L343.64,133.3L360,151.11L365.45,155.85L376.36,165.99L381.82,169.46L392.73,177.66L398.18,180.84L420,195.98L425.45,199.19L436.36,204.33L441.82,205.5L463.64,210.22L469.09,211.17L474.55,212.75L480,212.96L490.91,215.52L496.36,216.55L501.82,216.84L507.27,217.99L518.18,219.71L523.64,220.21L529.09,221.35L534.55,221.66L540,222.81" style="vector-effect: non-scaling-stroke; fill: none; stroke: rgb(0, 191, 125); stroke-opacity: 1; stroke-width: 2px; opacity: 1;"/></g><g class="points"/><g class="text"/></g><g class="trace scatter trace13c738" style="stroke-miterlimit: 2; opacity: 1;"><g class="fills"/><g class="errorbars"/><g class="lines"><path class="js-line" d="M0,25.58L5.45,43.71L10.91,46.3L21.82,47.99L27.27,48.63L60,52.34L65.45,52.8L70.91,52.88L76.36,53.86L81.82,53.24L87.27,53.99L92.73,54.6L98.18,54.27L109.09,55.98L114.55,56.51L120,56.95L125.45,58.55L136.36,62.18L141.82,62.78L147.27,64.4L152.73,67.19L158.18,72.08L163.64,79.45L169.09,85.06L174.55,93L180,103.31L185.45,110.21L196.36,120.9L201.82,123.7L207.27,126.34L212.73,129.88L218.18,132.01L223.64,137.18L229.09,141.81L234.55,144.25L240,150.3L245.45,152.62L250.91,157.25L256.36,159.09L261.82,163.71L267.27,167.33L272.73,170.87L278.18,175.96L283.64,177.19L289.09,180.35L305.45,189.52L310.91,192.45L316.36,194.57L321.82,197.97L332.73,205.01L338.18,207.58L349.09,214.85L354.55,217.13L370.91,225.44L376.36,230.44L381.82,231.5L387.27,234.38L392.73,237.12L398.18,240.99L425.45,256.71L430.91,258.55L436.36,262.3L441.82,262.15L458.18,264.99L463.64,265.88L480,268.74L485.45,269.64L523.64,275.13L529.09,275.44L534.55,276.98L540,277.17" style="vector-effect: non-scaling-stroke; fill: none; stroke: rgb(0, 176, 246); stroke-opacity: 1; stroke-width: 2px; opacity: 1;"/></g><g class="points"/><g class="text"/></g><g class="trace scatter trace435311" style="stroke-miterlimit: 2; opacity: 1;"><g class="fills"/><g class="errorbars"/><g class="lines"><path class="js-line" d="M0,21.71L5.45,42.16L10.91,45.33L16.36,46.89L21.82,47.39L27.27,49.17L32.73,49.9L43.64,52.29L49.09,52.37L54.55,54.08L60,54.27L70.91,55.42L76.36,55.54L81.82,56.22L87.27,55.45L92.73,56.02L98.18,55.72L114.55,58.52L120,58.24L125.45,58.75L130.91,60.79L136.36,61L141.82,63.48L147.27,67.43L152.73,76.91L163.64,96.32L169.09,101.64L174.55,107.9L180,111.71L190.91,116.56L196.36,121.53L201.82,121.86L207.27,123.5L212.73,126.75L218.18,128.13L229.09,139.15L234.55,142.09L245.45,149.02L250.91,155.12L256.36,156.16L261.82,161.91L278.18,172.81L283.64,175.14L289.09,180.03L294.55,182.54L300,185.72L305.45,187.73L321.82,198.15L327.27,200.89L332.73,205.31L338.18,207.77L343.64,212.32L349.09,214.66L354.55,217.8L360,220.03L365.45,222.54L370.91,226.76L381.82,233.76L387.27,236.49L392.73,238.72L398.18,242.24L409.09,249.09L414.55,251.91L425.45,259.32L430.91,261.09L436.36,264.86L441.82,264.99L458.18,268.13L463.64,268.97L474.55,271.73L480,271.66L485.45,273.14L490.91,273.67L496.36,274.76L501.82,274.7L523.64,278.64L529.09,278.98L540,280.67" style="vector-effect: non-scaling-stroke; fill: none; stroke: rgb(231, 107, 243); stroke-opacity: 1; stroke-width: 2px; opacity: 1;"/></g><g class="points"/><g class="text"/></g><g class="trace scatter traceba5d67" style="stroke-miterlimit: 2; opacity: 1;"><g class="fills"/><g class="errorbars"/><g class="lines"><path class="js-line" d="M0,20.31L5.45,41.88L10.91,44.22L27.27,48.1L32.73,48.36L38.18,48.83L43.64,50.23L65.45,52.91L70.91,52.97L92.73,53.94L98.18,52.38L103.64,53.67L109.09,53.9L114.55,54.6L120,53.74L130.91,57.23L136.36,59.62L147.27,69.67L152.73,77.39L163.64,94L169.09,98.39L180,109.77L185.45,110.73L190.91,112.56L196.36,117.3L207.27,117.14L212.73,119.58L218.18,121.59L223.64,126.46L240,140.68L245.45,143.52L250.91,148.78L256.36,150.32L261.82,155.65L267.27,159.91L278.18,168.23L283.64,170.12L289.09,177.18L294.55,178.68L300,181.64L305.45,185.86L316.36,193.02L321.82,195.56L327.27,198.28L332.73,203.94L338.18,204.76L343.64,208.86L360,219.28L365.45,220.73L376.36,228.54L381.82,230.38L392.73,237.39L398.18,239.64L414.55,249.19L420,252.38L425.45,256.16L430.91,258.16L436.36,261.69L441.82,261.15L447.27,262.62L452.73,263.27L463.64,265.69L469.09,266.04L485.45,269.24L490.91,269.48L496.36,271.04L501.82,270.82L518.18,273.73L523.64,274.54L534.55,276.13L540,276.75" style="vector-effect: non-scaling-stroke; fill: none; stroke: rgb(248, 118, 109); stroke-opacity: 1; stroke-width: 2px; opacity: 1;"/></g><g class="points"/><g class="text"/></g><g class="trace scatter tracec24463" style="stroke-miterlimit: 2; opacity: 1;"><g class="fills"/><g class="errorbars"/><g class="lines"><path class="js-line" d="M0,20.72L5.45,40.14L10.91,41.47L32.73,48.29L38.18,48.44L49.09,50.63L54.55,50.81L70.91,53.67L76.36,54.84L81.82,55.15L87.27,56.56L98.18,60.5L103.64,65.1L114.55,73.83L120,74.91L125.45,77.39L130.91,77.58L136.36,77.54L141.82,78.34L147.27,77.67L152.73,79.25L158.18,78.01L163.64,78.86L174.55,77.61L180,77.47L185.45,77.36L190.91,76.12L196.36,76.76L201.82,74.15L207.27,75.96L212.73,74.68L223.64,74.51L229.09,76.64L250.91,84.58L256.36,84.51L267.27,89.97L272.73,92.07L278.18,93.48L283.64,95.79L294.55,100.45L300,101.59L305.45,104.78L310.91,106.82L316.36,109.97L321.82,115.81L327.27,120.95L332.73,129.63L343.64,147.41L349.09,153.41L354.55,160.54L360,165.78L365.45,169.65L370.91,174.9L376.36,179.78L381.82,183.02L387.27,188.14L392.73,191.09L409.09,202.82L414.55,206.29L430.91,216.78L436.36,219.58L447.27,221.33L452.73,222.8L469.09,225.68L474.55,227.54L490.91,230.3L496.36,231.25L512.73,233.47L518.18,234.63L529.09,235.84L534.55,236.83L540,237.32" style="vector-effect: non-scaling-stroke; fill: none; stroke: rgb(163, 165, 0); stroke-opacity: 1; stroke-width: 2px; opacity: 1;"/></g><g class="points"/><g class="text"/></g><g class="trace scatter trace52a6c2" style="stroke-miterlimit: 2; opacity: 1;"><g class="fills"/><g class="errorbars"/><g class="lines"><path class="js-line" d="M0,18.88L5.45,38.66L10.91,42.52L21.82,48.01L27.27,50.23L76.36,61.21L81.82,62.78L92.73,69.27L98.18,75.48L114.55,108.63L120,116.7L130.91,127.61L136.36,131.2L141.82,134.53L147.27,136.12L163.64,145.27L169.09,146L174.55,147.02L180,149.93L190.91,149.12L196.36,151.4L212.73,151.34L218.18,152.68L229.09,158.57L234.55,160.93L240,164.52L245.45,169.04L250.91,172.5L256.36,172.15L261.82,177.91L267.27,181.89L272.73,183.67L278.18,188.96L283.64,189.79L289.09,195.45L300,199.38L305.45,203.19L327.27,215.22L332.73,220.99L338.18,222.76L343.64,225.56L360,235.37L365.45,237.7L392.73,254.28L398.18,257.48L403.64,261.49L409.09,263.94L414.55,267.09L420,271.72L436.36,280.24L441.82,280.55L458.18,284.07L463.64,284.41L469.09,285.22L474.55,286.8L490.91,289.68L496.36,290.11L540,296.26" style="vector-effect: non-scaling-stroke; fill: none; stroke: rgb(0, 191, 125); stroke-opacity: 1; stroke-width: 2px; opacity: 1;"/></g><g class="points"/><g class="text"/></g><g class="trace scatter trace3ed70f" style="stroke-miterlimit: 2; opacity: 1;"><g class="fills"/><g class="errorbars"/><g class="lines"><path class="js-line" d="M0,18.88L5.45,42.66L10.91,46.2L32.73,52.1L38.18,52.92L54.55,55.6L60,56.35L87.27,59.63L92.73,61.83L103.64,68.26L109.09,72.58L130.91,78.42L136.36,78.68L141.82,79.31L147.27,79.15L158.18,85.25L163.64,97.62L169.09,105.78L174.55,112.5L180,118.83L185.45,120.98L190.91,123.13L196.36,128.79L201.82,129.85L207.27,132.56L212.73,134.59L218.18,138.59L229.09,145L234.55,149.92L240,153.35L245.45,157.93L250.91,161.66L256.36,163.54L261.82,168.38L267.27,171.45L278.18,178.73L283.64,180.07L289.09,186.42L294.55,187.76L305.45,194.26L310.91,197.52L316.36,200.12L321.82,203.83L327.27,206.01L332.73,211.63L349.09,219.36L354.55,222.68L360,226.33L365.45,228.97L381.82,238.64L387.27,242.9L392.73,244.38L398.18,247.99L409.09,254.72L414.55,257.56L420,261.69L425.45,264.77L430.91,267.17L436.36,270.5L441.82,270.61L447.27,272.29L452.73,272.66L458.18,273.8L469.09,275.56L474.55,277.3L490.91,279.04L496.36,280.12L501.82,280.39L507.27,281.8L529.09,284.63L534.55,285.35L540,286.57" style="vector-effect: non-scaling-stroke; fill: none; stroke: rgb(0, 176, 246); stroke-opacity: 1; stroke-width: 2px; opacity: 1;"/></g><g class="points"/><g class="text"/></g><g class="trace scatter traceca2818" style="stroke-miterlimit: 2; opacity: 1;"><g class="fills"/><g class="errorbars"/><g class="lines"><path class="js-line" d="M0,20.65L5.45,38.84L10.91,41.66L38.18,51.11L43.64,52.61L60,55.13L65.45,56.25L70.91,57L76.36,59.06L81.82,60.18L87.27,63.81L92.73,66.28L98.18,70.38L103.64,73.77L109.09,76.09L114.55,77.77L120,77.58L130.91,80.23L136.36,80.35L147.27,83.3L152.73,90.11L158.18,96L163.64,106.46L174.55,116.47L180,122.27L185.45,124.76L190.91,125.57L196.36,130.09L201.82,130.82L212.73,134.94L218.18,136.37L223.64,139.62L229.09,144.33L250.91,161.81L256.36,162.99L261.82,168.45L267.27,170.72L278.18,178.17L283.64,180.63L289.09,186.43L294.55,187.6L327.27,206.33L332.73,211.03L338.18,212.36L343.64,217.08L349.09,219.57L354.55,223.05L365.45,228.77L370.91,232.75L381.82,238.72L387.27,242.9L392.73,244.73L398.18,248.9L403.64,251.86L409.09,255.89L414.55,258.5L420,262L425.45,264.83L430.91,268.72L436.36,271.79L441.82,271.82L463.64,276.4L469.09,276.83L474.55,278.42L480,279.22L485.45,279.32L490.91,281.39L501.82,282.09L507.27,283.25L523.64,285.87L529.09,286.67L540,288.05" style="vector-effect: non-scaling-stroke; fill: none; stroke: rgb(231, 107, 243); stroke-opacity: 1; stroke-width: 2px; opacity: 1;"/></g><g class="points"/><g class="text"/></g></g></g><g class="overplot"/><path class="xlines-above crisp" d="" style="fill: none; stroke-width: 1px; stroke: rgb(0, 0, 0); stroke-opacity: 0;"/><path class="ylines-above crisp" d="" style="fill: none; stroke-width: 1px; stroke: rgb(0, 0, 0); stroke-opacity: 0;"/><g class="overlines-above"/><g class="xaxislayer-above"><path class="xtick ticks crisp" d="M0,421v5" transform="translate(80,0)" style="stroke: rgb(51, 51, 51); stroke-opacity: 1; stroke-width: 1px;"/><path class="xtick ticks crisp" d="M0,421v5" transform="translate(189.09,0)" style="stroke: rgb(51, 51, 51); stroke-opacity: 1; stroke-width: 1px;"/><path class="xtick ticks crisp" d="M0,421v5" transform="translate(298.18,0)" style="stroke: rgb(51, 51, 51); stroke-opacity: 1; stroke-width: 1px;"/><path class="xtick ticks crisp" d="M0,421v5" transform="translate(407.27,0)" style="stroke: rgb(51, 51, 51); stroke-opacity: 1; stroke-width: 1px;"/><path class="xtick ticks crisp" d="M0,421v5" transform="translate(516.36,0)" style="stroke: rgb(51, 51, 51); stroke-opacity: 1; stroke-width: 1px;"/><g class="xtick"><text text-anchor="middle" x="0" y="440.4" transform="translate(80,0)" style="font-family: 'Open Sans', verdana, arial, sans-serif; font-size: 12px; fill: rgb(51, 51, 51); fill-opacity: 1; white-space: pre; opacity: 1;">0</text></g><g class="xtick"><text text-anchor="middle" x="0" y="440.4" style="font-family: 'Open Sans', verdana, arial, sans-serif; font-size: 12px; fill: rgb(51, 51, 51); fill-opacity: 1; white-space: pre; opacity: 1;" transform="translate(189.09,0)">20</text></g><g class="xtick"><text text-anchor="middle" x="0" y="440.4" style="font-family: 'Open Sans', verdana, arial, sans-serif; font-size: 12px; fill: rgb(51, 51, 51); fill-opacity: 1; white-space: pre; opacity: 1;" transform="translate(298.18,0)">40</text></g><g class="xtick"><text text-anchor="middle" x="0" y="440.4" style="font-family: 'Open Sans', verdana, arial, sans-serif; font-size: 12px; fill: rgb(51, 51, 51); fill-opacity: 1; white-space: pre; opacity: 1;" transform="translate(407.27,0)">60</text></g><g class="xtick"><text text-anchor="middle" x="0" y="440.4" style="font-family: 'Open Sans', verdana, arial, sans-serif; font-size: 12px; fill: rgb(51, 51, 51); fill-opacity: 1; white-space: pre; opacity: 1;" transform="translate(516.36,0)">80</text></g></g><g class="yaxislayer-above"><path class="ytick ticks crisp" d="M79,0h-5" transform="translate(0,378.1)" style="stroke: rgb(51, 51, 51); stroke-opacity: 1; stroke-width: 1px;"/><path class="ytick ticks crisp" d="M79,0h-5" transform="translate(0,311.43)" style="stroke: rgb(51, 51, 51); stroke-opacity: 1; stroke-width: 1px;"/><path class="ytick ticks crisp" d="M79,0h-5" transform="translate(0,244.76)" style="stroke: rgb(51, 51, 51); stroke-opacity: 1; stroke-width: 1px;"/><path class="ytick ticks crisp" d="M79,0h-5" transform="translate(0,178.09)" style="stroke: rgb(51, 51, 51); stroke-opacity: 1; stroke-width: 1px;"/><path class="ytick ticks crisp" d="M79,0h-5" transform="translate(0,111.42)" style="stroke: rgb(51, 51, 51); stroke-opacity: 1; stroke-width: 1px;"/><g class="ytick"><text text-anchor="end" x="71.6" y="4.199999999999999" transform="translate(0,378.1)" style="font-family: 'Open Sans', verdana, arial, sans-serif; font-size: 12px; fill: rgb(51, 51, 51); fill-opacity: 1; white-space: pre; opacity: 1;">5.2</text></g><g class="ytick"><text text-anchor="end" x="71.6" y="4.199999999999999" style="font-family: 'Open Sans', verdana, arial, sans-serif; font-size: 12px; fill: rgb(51, 51, 51); fill-opacity: 1; white-space: pre; opacity: 1;" transform="translate(0,311.43)">5.3</text></g><g class="ytick"><text text-anchor="end" x="71.6" y="4.199999999999999" style="font-family: 'Open Sans', verdana, arial, sans-serif; font-size: 12px; fill: rgb(51, 51, 51); fill-opacity: 1; white-space: pre; opacity: 1;" transform="translate(0,244.76)">5.4</text></g><g class="ytick"><text text-anchor="end" x="71.6" y="4.199999999999999" style="font-family: 'Open Sans', verdana, arial, sans-serif; font-size: 12px; fill: rgb(51, 51, 51); fill-opacity: 1; white-space: pre; opacity: 1;" transform="translate(0,178.09)">5.5</text></g><g class="ytick"><text text-anchor="end" x="71.6" y="4.199999999999999" style="font-family: 'Open Sans', verdana, arial, sans-serif; font-size: 12px; fill: rgb(51, 51, 51); fill-opacity: 1; white-space: pre; opacity: 1;" transform="translate(0,111.42)">5.6</text></g></g><g class="overaxes-above"/></g></g><g class="polarlayer"/><g class="ternarylayer"/><g class="geolayer"/><g class="funnelarealayer"/><g class="pielayer"/><g class="iciclelayer"/><g class="treemaplayer"/><g class="sunburstlayer"/><g class="glimages"/><defs id="topdefs-c18a61"><g class="clips"/></defs><g class="layer-above"><g class="imagelayer"/><g class="shapelayer"/></g><g class="infolayer"><g class="g-gtitle"><text class="gtitle" x="350" y="50" text-anchor="middle" dy="0em" style="font-family: 'Open Sans', verdana, arial, sans-serif; font-size: 17px; fill: rgb(51, 51, 51); opacity: 1; font-weight: normal; white-space: pre;">Train Loss: ascad_v1_fk_100-s_eff_cnn_id (early_stopping)</text></g><g class="g-xtitle"/><g class="g-ytitle"/></g></svg>