<svg class="main-svg" xmlns="http://www.w3.org/2000/svg" xmlns:xlink="http://www.w3.org/1999/xlink" width="700" height="500" style="" viewBox="0 0 700 500"><rect x="0" y="0" width="700" height="500" style="fill: rgb(255, 255, 255); fill-opacity: 1;"/><defs id="defs-e0c55f"><g class="clips"><clipPath id="clipe0c55fxyplot" class="plotclip"><rect width="540" height="320"/></clipPath><clipPath class="axesclip" id="clipe0c55fx"><rect x="80" y="0" width="540" height="500"/></clipPath><clipPath class="axesclip" id="clipe0c55fy"><rect x="0" y="100" width="700" height="320"/></clipPath><clipPath class="axesclip" id="clipe0c55fxy"><rect x="80" y="100" width="540" height="320"/></clipPath></g><g class="gradients"/><g class="patterns"/></defs><g class="bglayer"><rect class="bg" x="80" y="100" width="540" height="320" style="fill: rgb(237, 237, 237); fill-opacity: 1; stroke-width: 0;"/></g><g class="layer-below"><g class="imagelayer"/><g class="shapelayer"/></g><g class="cartesianlayer"><g class="subplot xy"><g class="layer-subplot"><g class="shapelayer"/><g class="imagelayer"/></g><g class="gridlayer"><g class="x"><path class="xgrid crisp" transform="translate(190.2,0)" d="M0,100v320" style="stroke: rgb(255, 255, 255); stroke-opacity: 1; stroke-width: 1px;"/><path class="xgrid crisp" transform="translate(300.40999999999997,0)" d="M0,100v320" style="stroke: rgb(255, 255, 255); stroke-opacity: 1; stroke-width: 1px;"/><path class="xgrid crisp" transform="translate(410.61,0)" d="M0,100v320" style="stroke: rgb(255, 255, 255); stroke-opacity: 1; stroke-width: 1px;"/><path class="xgrid crisp" transform="translate(520.8199999999999,0)" d="M0,100v320" style="stroke: rgb(255, 255, 255); stroke-opacity: 1; stroke-width: 1px;"/></g><g class="y"><path class="ygrid crisp" transform="translate(0,384.46)" d="M80,0h540" style="stroke: rgb(255, 255, 255); stroke-opacity: 1; stroke-width: 1px;"/><path class="ygrid crisp" transform="translate(0,340.21000000000004)" d="M80,0h540" style="stroke: rgb(255, 255, 255); stroke-opacity: 1; stroke-width: 1px;"/><path class="ygrid crisp" transform="translate(0,295.96000000000004)" d="M80,0h540" style="stroke: rgb(255, 255, 255); stroke-opacity: 1; stroke-width: 1px;"/><path class="ygrid crisp" transform="translate(0,251.71)" d="M80,0h540" style="stroke: rgb(255, 255, 255); stroke-opacity: 1; stroke-width: 1px;"/><path class="ygrid crisp" transform="translate(0,207.45)" d="M80,0h540" style="stroke: rgb(255, 255, 255); stroke-opacity: 1; stroke-width: 1px;"/><path class="ygrid crisp" transform="translate(0,163.2)" d="M80,0h540" style="stroke: rgb(255, 255, 255); stroke-opacity: 1; stroke-width: 1px;"/><path class="ygrid crisp" transform="translate(0,118.95)" d="M80,0h540" style="stroke: rgb(255, 255, 255); stroke-opacity: 1; stroke-width: 1px;"/></g></g><g class="zerolinelayer"><path class="xzl zl crisp" transform="translate(80,0)" d="M0,100v320" style="stroke: rgb(255, 255, 255); stroke-opacity: 1; stroke-width: 1px;"/></g><path class="xlines-below"/><path class="ylines-below"/><g class="overlines-below"/><g class="xaxislayer-below"/><g class="yaxislayer-below"/><g class="overaxes-below"/><g class="plot" transform="translate(80,100)" clip-path="url(#clipe0c55fxyplot)"><g class="scatterlayer mlayer"><g class="trace scatter trace47006e" style="stroke-miterlimit: 2; opacity: 1;"><g class="fills"/><g class="errorbars"/><g class="lines"><path class="js-line" d="M0,301.83L11.02,298.11L22.04,296.19L44.08,293.98L55.1,291.65L66.12,289.21L77.14,285.4L88.16,280.17L99.18,272.29L110.2,264.23L121.22,253.38L132.24,240.61L143.27,230.21L165.31,206.27L176.33,197.62L187.35,186.48L198.37,177.68L209.39,168.77L220.41,158.39L231.43,149.73L242.45,142.62L275.51,119.24L286.53,113.72L319.59,93.98L330.61,89.44L352.65,79.6L363.67,72.86L374.69,69.74L385.71,64.53L407.76,57.54L418.78,52.16L429.8,49.41L440.82,44.36L462.86,39.44L473.88,36.32L484.9,32.83L495.92,31.69L517.96,25.59L528.98,23.92L540,22.48" style="vector-effect: non-scaling-stroke; fill: none; stroke: rgb(248, 118, 109); stroke-opacity: 1; stroke-width: 2px; opacity: 1;"/></g><g class="points"/><g class="text"/></g><g class="trace scatter trace2a0e1f" style="stroke-miterlimit: 2; opacity: 1;"><g class="fills"/><g class="errorbars"/><g class="lines"><path class="js-line" d="M0,301.83L11.02,298.11L22.04,296.19L44.08,293.98L55.1,291.65L66.12,289.21L77.14,285.4L88.16,280.17L99.18,272.29L110.2,264.23L121.22,253.38L132.24,240.61L143.27,230.21L165.31,206.27L176.33,197.62L187.35,186.48L198.37,177.68L209.39,168.77L220.41,158.39L231.43,149.73L242.45,142.62L275.51,119.24L286.53,113.72L319.59,93.98L330.61,89.44L352.65,79.6L363.67,72.86L374.69,69.74L385.71,64.53L407.76,57.54L418.78,52.16L429.8,49.41L440.82,44.36L462.86,39.44L473.88,36.32L484.9,32.83L495.92,31.69L517.96,25.59L528.98,23.92L540,22.48" style="vector-effect: non-scaling-stroke; fill: none; stroke: rgb(163, 165, 0); stroke-opacity: 1; stroke-width: 2px; opacity: 1;"/></g><g class="points"/><g class="text"/></g><g class="trace scatter trace3b8792" style="stroke-miterlimit: 2; opacity: 1;"><g class="fills"/><g class="errorbars"/><g class="lines"><path class="js-line" d="M0,303.29L22.04,296.87L33.06,294.76L44.08,295.09L55.1,290.93L66.12,287.48L77.14,280.45L88.16,272.64L99.18,259.57L132.24,221.58L143.27,211.13L154.29,198.95L165.31,191L187.35,172.22L198.37,165.08L209.39,158.7L220.41,150.53L231.43,142.03L242.45,135.23L253.47,131.32L264.49,123.69L275.51,120.44L286.53,113.7L319.59,99.94L330.61,95.64L352.65,85.81L363.67,81.33L374.69,78.23L385.71,72.85L396.73,69.48L407.76,65.14L418.78,62.58L429.8,58.65L473.88,46.26L484.9,44.03L495.92,40.93L506.94,38.96L517.96,35.99L528.98,33.89L540,31.82" style="vector-effect: non-scaling-stroke; fill: none; stroke: rgb(0, 191, 125); stroke-opacity: 1; stroke-width: 2px; opacity: 1;"/></g><g class="points"/><g class="text"/></g><g class="trace scatter trace4e1e4a" style="stroke-miterlimit: 2; opacity: 1;"><g class="fills"/><g class="errorbars"/><g class="lines"><path class="js-line" d="M0,303.29L22.04,296.87L33.06,294.76L44.08,295.09L55.1,290.93L66.12,287.48L77.14,280.45L88.16,272.64L99.18,259.57L132.24,221.58L143.27,211.13L154.29,198.95L165.31,191L187.35,172.22L198.37,165.08L209.39,158.7L220.41,150.53L231.43,142.03L242.45,135.23L253.47,131.32L264.49,123.69L275.51,120.44L286.53,113.7L319.59,99.94L330.61,95.64L352.65,85.81L363.67,81.33L374.69,78.23L385.71,72.85L396.73,69.48L407.76,65.14L418.78,62.58L429.8,58.65L473.88,46.26L484.9,44.03L495.92,40.93L506.94,38.96L517.96,35.99L528.98,33.89L540,31.82" style="vector-effect: non-scaling-stroke; fill: none; stroke: rgb(0, 176, 246); stroke-opacity: 1; stroke-width: 2px; opacity: 1;"/></g><g class="points"/><g class="text"/></g><g class="trace scatter trace3169d8" style="stroke-miterlimit: 2; opacity: 1;"><g class="fills"/><g class="errorbars"/><g class="lines"><path class="js-line" d="M0,302.85L22.04,296.02L33.06,294.97L66.12,290.23L77.14,286L88.16,279.7L99.18,271.18L110.2,262.2L121.22,248.95L143.27,226.23L154.29,217.43L176.33,196.25L187.35,188.51L198.37,177.57L209.39,169.75L231.43,155.35L242.45,146.55L253.47,140.02L264.49,132.19L286.53,120.94L297.55,114.11L308.57,108.48L319.59,101.7L330.61,95.29L341.63,91.02L363.67,81.94L374.69,75.71L385.71,72.33L396.73,68.14L407.76,63.11L418.78,59.5L440.82,51.17L451.84,47.4L462.86,45.27L473.88,40.68L484.9,36.97L495.92,36.07L506.94,31.3L517.96,29.25L528.98,27.45L540,24.13" style="vector-effect: non-scaling-stroke; fill: none; stroke: rgb(231, 107, 243); stroke-opacity: 1; stroke-width: 2px; opacity: 1;"/></g><g class="points"/><g class="text"/></g><g class="trace scatter trace566e64" style="stroke-miterlimit: 2; opacity: 1;"><g class="fills"/><g class="errorbars"/><g class="lines"><path class="js-line" d="M0,302.85L22.04,296.02L33.06,294.97L66.12,290.23L77.14,286L88.16,279.7L99.18,271.18L110.2,262.2L121.22,248.95L143.27,226.23L154.29,217.43L176.33,196.25L187.35,188.51L198.37,177.57L209.39,169.75L231.43,155.35L242.45,146.55L253.47,140.02L264.49,132.19L286.53,120.94L297.55,114.11L308.57,108.48L319.59,101.7L330.61,95.29L341.63,91.02L363.67,81.94L374.69,75.71L385.71,72.33L396.73,68.14L407.76,63.11L418.78,59.5L440.82,51.17L451.84,47.4L462.86,45.27L473.88,40.68L484.9,36.97L495.92,36.07L506.94,31.3L517.96,29.25L528.98,27.45L540,24.13" style="vector-effect: non-scaling-stroke; fill: none; stroke: rgb(248, 118, 109); stroke-opacity: 1; stroke-width: 2px; opacity: 1;"/></g><g class="points"/><g class="text"/></g><g class="trace scatter tracea19dc8" style="stroke-miterlimit: 2; opacity: 1;"><g class="fills"/><g class="errorbars"/><g class="lines"><path class="js-line" d="M0,302.21L11.02,297.75L22.04,295.45L44.08,294.71L55.1,292.22L66.12,291.57L77.14,287.19L88.16,284.19L99.18,278.07L110.2,269.57L121.22,259.53L132.24,249.91L143.27,238.41L187.35,199.33L198.37,190.71L220.41,172.97L231.43,166.35L253.47,150.05L264.49,145.02L286.53,131.02L297.55,125.05L319.59,114.02L330.61,110.01L341.63,103.49L352.65,99.39L363.67,93.99L374.69,90.85L385.71,86.57L396.73,81.04L407.76,76.69L418.78,74.25L462.86,59.45L473.88,56.52L484.9,51.76L495.92,50.27L506.94,46.78L517.96,44.37L528.98,41.1L540,38.99" style="vector-effect: non-scaling-stroke; fill: none; stroke: rgb(163, 165, 0); stroke-opacity: 1; stroke-width: 2px; opacity: 1;"/></g><g class="points"/><g class="text"/></g><g class="trace scatter trace47ab4b" style="stroke-miterlimit: 2; opacity: 1;"><g class="fills"/><g class="errorbars"/><g class="lines"><path class="js-line" d="M0,302.21L11.02,297.75L22.04,295.45L44.08,294.71L55.1,292.22L66.12,291.57L77.14,287.19L88.16,284.19L99.18,278.07L110.2,269.57L121.22,259.53L132.24,249.91L143.27,238.41L187.35,199.33L198.37,190.71L220.41,172.97L231.43,166.35L253.47,150.05L264.49,145.02L286.53,131.02L297.55,125.05L319.59,114.02L330.61,110.01L341.63,103.49L352.65,99.39L363.67,93.99L374.69,90.85L385.71,86.57L396.73,81.04L407.76,76.69L418.78,74.25L462.86,59.45L473.88,56.52L484.9,51.76L495.92,50.27L506.94,46.78L517.96,44.37L528.98,41.1L540,38.99" style="vector-effect: non-scaling-stroke; fill: none; stroke: rgb(0, 191, 125); stroke-opacity: 1; stroke-width: 2px; opacity: 1;"/></g><g class="points"/><g class="text"/></g><g class="trace scatter trace063a21" style="stroke-miterlimit: 2; opacity: 1;"><g class="fills"/><g class="errorbars"/><g class="lines"><path class="js-line" d="M0,302.71L11.02,298.4L22.04,296.38L44.08,294.09L55.1,291.35L66.12,288.29L77.14,283.74L88.16,277.39L99.18,267.81L110.2,258.62L121.22,246.76L132.24,232.49L143.27,219.68L176.33,186.99L187.35,177.64L198.37,169.46L209.39,157.5L220.41,151.52L231.43,142.27L253.47,127.25L264.49,121.2L275.51,115.14L286.53,109.98L308.57,96.25L319.59,91.75L363.67,71.89L374.69,66L385.71,64.25L396.73,59.01L407.76,56.49L418.78,52.01L440.82,45.49L451.84,40.78L462.86,37.54L473.88,35.17L495.92,30.93L506.94,28.36L540,21.26" style="vector-effect: non-scaling-stroke; fill: none; stroke: rgb(0, 176, 246); stroke-opacity: 1; stroke-width: 2px; opacity: 1;"/></g><g class="points"/><g class="text"/></g><g class="trace scatter trace7175f4" style="stroke-miterlimit: 2; opacity: 1;"><g class="fills"/><g class="errorbars"/><g class="lines"><path class="js-line" d="M0,302.71L11.02,298.4L22.04,296.38L44.08,294.09L55.1,291.35L66.12,288.29L77.14,283.74L88.16,277.39L99.18,267.81L110.2,258.62L121.22,246.76L132.24,232.49L143.27,219.68L176.33,186.99L187.35,177.64L198.37,169.46L209.39,157.5L220.41,151.52L231.43,142.27L253.47,127.25L264.49,121.2L275.51,115.14L286.53,109.98L308.57,96.25L319.59,91.75L363.67,71.89L374.69,66L385.71,64.25L396.73,59.01L407.76,56.49L418.78,52.01L440.82,45.49L451.84,40.78L462.86,37.54L473.88,35.17L495.92,30.93L506.94,28.36L540,21.26" style="vector-effect: non-scaling-stroke; fill: none; stroke: rgb(231, 107, 243); stroke-opacity: 1; stroke-width: 2px; opacity: 1;"/></g><g class="points"/><g class="text"/></g><g class="trace scatter tracecbcb00" style="stroke-miterlimit: 2; opacity: 1;"><g class="fills"/><g class="errorbars"/><g class="lines"><path class="js-line" d="M0,301.57L22.04,296.26L33.06,295.18L44.08,292.57L55.1,291.11L66.12,286.75L77.14,284.73L88.16,277L99.18,267.4L110.2,257.02L121.22,244.43L132.24,234.41L143.27,221.17L165.31,198.98L176.33,189.85L198.37,169.1L209.39,161.82L220.41,152.76L231.43,146.2L242.45,139.79L253.47,131.77L264.49,124.31L275.51,117.98L286.53,113.24L297.55,106.81L308.57,99.89L319.59,94.84L341.63,84.55L352.65,79.23L418.78,51.73L429.8,48.24L440.82,44.21L451.84,41.32L462.86,36.85L473.88,34.31L506.94,25.1L517.96,23.24L540,19.77" style="vector-effect: non-scaling-stroke; fill: none; stroke: rgb(248, 118, 109); stroke-opacity: 1; stroke-width: 2px; opacity: 1;"/></g><g class="points"/><g class="text"/></g><g class="trace scatter trace942ce1" style="stroke-miterlimit: 2; opacity: 1;"><g class="fills"/><g class="errorbars"/><g class="lines"><path class="js-line" d="M0,301.57L22.04,296.26L33.06,295.18L44.08,292.57L55.1,291.11L66.12,286.75L77.14,284.73L88.16,277L99.18,267.4L110.2,257.02L121.22,244.43L132.24,234.41L143.27,221.17L165.31,198.98L176.33,189.85L198.37,169.1L209.39,161.82L220.41,152.76L231.43,146.2L242.45,139.79L253.47,131.77L264.49,124.31L275.51,117.98L286.53,113.24L297.55,106.81L308.57,99.89L319.59,94.84L341.63,84.55L352.65,79.23L418.78,51.73L429.8,48.24L440.82,44.21L451.84,41.32L462.86,36.85L473.88,34.31L506.94,25.1L517.96,23.24L540,19.77" style="vector-effect: non-scaling-stroke; fill: none; stroke: rgb(163, 165, 0); stroke-opacity: 1; stroke-width: 2px; opacity: 1;"/></g><g class="points"/><g class="text"/></g><g class="trace scatter trace00097f" style="stroke-miterlimit: 2; opacity: 1;"><g class="fills"/><g class="errorbars"/><g class="lines"><path class="js-line" d="M0,303.05L11.02,298.28L22.04,297.43L55.1,291.85L66.12,288.96L77.14,285.72L88.16,279.42L99.18,272.53L110.2,261.05L143.27,225.77L154.29,215.64L176.33,193.43L187.35,185.15L209.39,166.47L220.41,158.4L231.43,149.8L242.45,143.43L253.47,135.5L264.49,129.82L286.53,114.31L297.55,108.63L319.59,96.57L330.61,91.36L363.67,75.83L374.69,70.21L385.71,64.85L396.73,61.56L407.76,56.45L418.78,52.77L429.8,50.48L440.82,47.06L451.84,42.16L462.86,39.81L484.9,33.25L495.92,32.22L506.94,29.82L517.96,26.64L540,21.8" style="vector-effect: non-scaling-stroke; fill: none; stroke: rgb(0, 191, 125); stroke-opacity: 1; stroke-width: 2px; opacity: 1;"/></g><g class="points"/><g class="text"/></g><g class="trace scatter trace33b7c2" style="stroke-miterlimit: 2; opacity: 1;"><g class="fills"/><g class="errorbars"/><g class="lines"><path class="js-line" d="M0,303.05L11.02,298.28L22.04,297.43L55.1,291.85L66.12,288.96L77.14,285.72L88.16,279.42L99.18,272.53L110.2,261.05L143.27,225.77L154.29,215.64L176.33,193.43L187.35,185.15L209.39,166.47L220.41,158.4L231.43,149.8L242.45,143.43L253.47,135.5L264.49,129.82L286.53,114.31L297.55,108.63L319.59,96.57L330.61,91.36L363.67,75.83L374.69,70.21L385.71,64.85L396.73,61.56L407.76,56.45L418.78,52.77L429.8,50.48L440.82,47.06L451.84,42.16L462.86,39.81L484.9,33.25L495.92,32.22L506.94,29.82L517.96,26.64L540,21.8" style="vector-effect: non-scaling-stroke; fill: none; stroke: rgb(0, 176, 246); stroke-opacity: 1; stroke-width: 2px; opacity: 1;"/></g><g class="points"/><g class="text"/></g><g class="trace scatter tracec6c84c" style="stroke-miterlimit: 2; opacity: 1;"><g class="fills"/><g class="errorbars"/><g class="lines"><path class="js-line" d="M0,302.22L11.02,297.38L22.04,296.81L33.06,295.82L44.08,293.1L66.12,288L77.14,281.74L88.16,274.45L99.18,265.23L110.2,252.68L121.22,242.67L154.29,207.62L165.31,197.46L176.33,185.74L187.35,176.91L198.37,166.96L209.39,159.55L220.41,148.73L231.43,141.74L242.45,133.29L253.47,126.01L264.49,120.48L275.51,113.98L297.55,100.6L308.57,95.42L330.61,83.77L341.63,79.94L352.65,77.15L363.67,71.29L374.69,67.75L385.71,62.78L429.8,48.19L440.82,45.26L484.9,34.75L495.92,33.29L506.94,28.7L517.96,28.45L528.98,25.43L540,23.81" style="vector-effect: non-scaling-stroke; fill: none; stroke: rgb(231, 107, 243); stroke-opacity: 1; stroke-width: 2px; opacity: 1;"/></g><g class="points"/><g class="text"/></g><g class="trace scatter trace8f835e" style="stroke-miterlimit: 2; opacity: 1;"><g class="fills"/><g class="errorbars"/><g class="lines"><path class="js-line" d="M0,302.22L11.02,297.38L22.04,296.81L33.06,295.82L44.08,293.1L66.12,288L77.14,281.74L88.16,274.45L99.18,265.23L110.2,252.68L121.22,242.67L154.29,207.62L165.31,197.46L176.33,185.74L187.35,176.91L198.37,166.96L209.39,159.55L220.41,148.73L231.43,141.74L242.45,133.29L253.47,126.01L264.49,120.48L275.51,113.98L297.55,100.6L308.57,95.42L330.61,83.77L341.63,79.94L352.65,77.15L363.67,71.29L374.69,67.75L385.71,62.78L429.8,48.19L440.82,45.26L484.9,34.75L495.92,33.29L506.94,28.7L517.96,28.45L528.98,25.43L540,23.81" style="vector-effect: non-scaling-stroke; fill: none; stroke: rgb(248, 118, 109); stroke-opacity: 1; stroke-width: 2px; opacity: 1;"/></g><g class="points"/><g class="text"/></g><g class="trace scatter trace31703e" style="stroke-miterlimit: 2; opacity: 1;"><g class="fills"/><g class="errorbars"/><g class="lines"><path class="js-line" d="M0,302.93L11.02,297.91L22.04,295.38L33.06,295.17L44.08,293.9L55.1,291.73L66.12,288.31L77.14,283.29L88.16,277.15L99.18,271.02L110.2,260.4L132.24,239.03L143.27,226.05L154.29,217.19L165.31,206.89L198.37,178.05L209.39,169.68L220.41,162.92L231.43,153.46L242.45,145.39L253.47,139.75L264.49,131.96L275.51,126.57L286.53,117.78L297.55,112.75L319.59,99.36L330.61,93.99L352.65,83.69L363.67,78.48L385.71,68.21L396.73,63.31L407.76,59.24L418.78,56.02L429.8,50.67L440.82,46.94L451.84,43.86L462.86,38.84L473.88,36.71L484.9,33.07L506.94,26.5L517.96,25.34L540,19.04" style="vector-effect: non-scaling-stroke; fill: none; stroke: rgb(163, 165, 0); stroke-opacity: 1; stroke-width: 2px; opacity: 1;"/></g><g class="points"/><g class="text"/></g><g class="trace scatter trace3ab63f" style="stroke-miterlimit: 2; opacity: 1;"><g class="fills"/><g class="errorbars"/><g class="lines"><path class="js-line" d="M0,302.93L11.02,297.91L22.04,295.38L33.06,295.17L44.08,293.9L55.1,291.73L66.12,288.31L77.14,283.29L88.16,277.15L99.18,271.02L110.2,260.4L132.24,239.03L143.27,226.05L154.29,217.19L165.31,206.89L198.37,178.05L209.39,169.68L220.41,162.92L231.43,153.46L242.45,145.39L253.47,139.75L264.49,131.96L275.51,126.57L286.53,117.78L297.55,112.75L319.59,99.36L330.61,93.99L352.65,83.69L363.67,78.48L385.71,68.21L396.73,63.31L407.76,59.24L418.78,56.02L429.8,50.67L440.82,46.94L451.84,43.86L462.86,38.84L473.88,36.71L484.9,33.07L506.94,26.5L517.96,25.34L540,19.04" style="vector-effect: non-scaling-stroke; fill: none; stroke: rgb(0, 191, 125); stroke-opacity: 1; stroke-width: 2px; opacity: 1;"/></g><g class="points"/><g class="text"/></g><g class="trace scatter trace6d5b6f" style="stroke-miterlimit: 2; opacity: 1;"><g class="fills"/><g class="errorbars"/><g class="lines"><path class="js-line" d="M0,302.36L11.02,296.94L22.04,296.5L44.08,294.8L55.1,291.66L66.12,289.15L77.14,284.19L88.16,279.46L99.18,272.77L110.2,263.6L121.22,252.6L143.27,231.48L154.29,218.74L176.33,196.66L187.35,187.15L198.37,175.64L209.39,166.77L231.43,149.26L242.45,142.79L253.47,136.65L264.49,129.62L275.51,122.7L286.53,116.69L308.57,106.16L319.59,99.87L341.63,89.75L352.65,82.96L363.67,77.92L374.69,73.98L407.76,60.17L418.78,56.05L429.8,51.81L440.82,50.01L451.84,44.45L462.86,41.25L473.88,38.94L484.9,34.29L495.92,32.19L506.94,29.02L517.96,27.07L528.98,23.97L540,22.9" style="vector-effect: non-scaling-stroke; fill: none; stroke: rgb(0, 176, 246); stroke-opacity: 1; stroke-width: 2px; opacity: 1;"/></g><g class="points"/><g class="text"/></g><g class="trace scatter trace7dd39f" style="stroke-miterlimit: 2; opacity: 1;"><g class="fills"/><g class="errorbars"/><g class="lines"><path class="js-line" d="M0,302.36L11.02,296.94L22.04,296.5L44.08,294.8L55.1,291.66L66.12,289.15L77.14,284.19L88.16,279.46L99.18,272.77L110.2,263.6L121.22,252.6L143.27,231.48L154.29,218.74L176.33,196.66L187.35,187.15L198.37,175.64L209.39,166.77L231.43,149.26L242.45,142.79L253.47,136.65L264.49,129.62L275.51,122.7L286.53,116.69L308.57,106.16L319.59,99.87L341.63,89.75L352.65,82.96L363.67,77.92L374.69,73.98L407.76,60.17L418.78,56.05L429.8,51.81L440.82,50.01L451.84,44.45L462.86,41.25L473.88,38.94L484.9,34.29L495.92,32.19L506.94,29.02L517.96,27.07L528.98,23.97L540,22.9" style="vector-effect: non-scaling-stroke; fill: none; stroke: rgb(231, 107, 243); stroke-opacity: 1; stroke-width: 2px; opacity: 1;"/></g><g class="points"/><g class="text"/></g><g class="trace scatter trace4f009d" style="stroke-miterlimit: 2; opacity: 1;"><g class="fills"/><g class="errorbars"/><g class="lines"><path class="js-line" d="M0,303.12L11.02,298.1L22.04,296.97L44.08,294.35L55.1,291.15L77.14,286.62L88.16,279.08L110.2,263.62L121.22,253.35L143.27,230.94L154.29,220.53L165.31,208.11L176.33,200.47L187.35,189.74L198.37,180.25L220.41,165.51L231.43,155.02L242.45,148.06L253.47,142L275.51,125.86L286.53,119.55L319.59,99.96L330.61,95.46L341.63,90.8L352.65,85.1L363.67,80.57L374.69,74.72L396.73,66.75L407.76,62.87L418.78,57.54L429.8,53.98L451.84,46.38L462.86,42.01L473.88,39.21L484.9,35.41L495.92,34.21L506.94,30.62L528.98,25.62L540,23.32" style="vector-effect: non-scaling-stroke; fill: none; stroke: rgb(248, 118, 109); stroke-opacity: 1; stroke-width: 2px; opacity: 1;"/></g><g class="points"/><g class="text"/></g><g class="trace scatter trace5dfd15" style="stroke-miterlimit: 2; opacity: 1;"><g class="fills"/><g class="errorbars"/><g class="lines"><path class="js-line" d="M0,303.12L11.02,298.1L22.04,296.97L44.08,294.35L55.1,291.15L77.14,286.62L88.16,279.08L110.2,263.62L121.22,253.35L143.27,230.94L154.29,220.53L165.31,208.11L176.33,200.47L187.35,189.74L198.37,180.25L220.41,165.51L231.43,155.02L242.45,148.06L253.47,142L275.51,125.86L286.53,119.55L319.59,99.96L330.61,95.46L341.63,90.8L352.65,85.1L363.67,80.57L374.69,74.72L396.73,66.75L407.76,62.87L418.78,57.54L429.8,53.98L451.84,46.38L462.86,42.01L473.88,39.21L484.9,35.41L495.92,34.21L506.94,30.62L528.98,25.62L540,23.32" style="vector-effect: non-scaling-stroke; fill: none; stroke: rgb(163, 165, 0); stroke-opacity: 1; stroke-width: 2px; opacity: 1;"/></g><g class="points"/><g class="text"/></g><g class="trace scatter trace46a4d0" style="stroke-miterlimit: 2; opacity: 1;"><g class="fills"/><g class="errorbars"/><g class="lines"><path class="js-line" d="M0,302.76L11.02,298.41L22.04,296.15L33.06,295.79L44.08,294.07L55.1,292.23L66.12,288.11L77.14,283.7L88.16,277.61L110.2,258.45L121.22,246.72L132.24,233.03L143.27,222.09L176.33,187.38L187.35,177.63L242.45,133.46L253.47,126L264.49,120.96L275.51,111.3L286.53,105.92L297.55,99.24L308.57,92.35L319.59,86.61L330.61,81.64L341.63,74.83L352.65,70.72L363.67,65.4L374.69,61.65L385.71,56.02L396.73,52.82L407.76,48.8L418.78,43.59L429.8,41.78L440.82,39.42L451.84,34.26L462.86,33.14L473.88,30.2L484.9,26.1L495.92,24.58L506.94,20.84L517.96,20.92L540,16" style="vector-effect: non-scaling-stroke; fill: none; stroke: rgb(0, 191, 125); stroke-opacity: 1; stroke-width: 2px; opacity: 1;"/></g><g class="points"/><g class="text"/></g><g class="trace scatter tracea4fc34" style="stroke-miterlimit: 2; opacity: 1;"><g class="fills"/><g class="errorbars"/><g class="lines"><path class="js-line" d="M0,302.76L11.02,298.41L22.04,296.15L33.06,295.79L44.08,294.07L55.1,292.23L66.12,288.11L77.14,283.7L88.16,277.61L110.2,258.45L121.22,246.72L132.24,233.03L143.27,222.09L176.33,187.38L187.35,177.63L242.45,133.46L253.47,126L264.49,120.96L275.51,111.3L286.53,105.92L297.55,99.24L308.57,92.35L319.59,86.61L330.61,81.64L341.63,74.83L352.65,70.72L363.67,65.4L374.69,61.65L385.71,56.02L396.73,52.82L407.76,48.8L418.78,43.59L429.8,41.78L440.82,39.42L451.84,34.26L462.86,33.14L473.88,30.2L484.9,26.1L495.92,24.58L506.94,20.84L517.96,20.92L540,16" style="vector-effect: non-scaling-stroke; fill: none; stroke: rgb(0, 176, 246); stroke-opacity: 1; stroke-width: 2px; opacity: 1;"/></g><g class="points"/><g class="text"/></g><g class="trace scatter tracef5367e" style="stroke-miterlimit: 2; opacity: 1;"><g class="fills"/><g class="errorbars"/><g class="lines"><path class="js-line" d="M0,302.22L11.02,298.28L22.04,295.94L55.1,292.97L66.12,290.53L77.14,287L88.16,284.41L99.18,279.24L110.2,272.61L132.24,253.8L143.27,242.1L154.29,231.33L165.31,222.22L176.33,212.29L187.35,203.55L198.37,193.95L209.39,185.35L242.45,163.85L253.47,155.23L264.49,151.57L275.51,143.75L286.53,138.7L297.55,131.91L341.63,110.89L352.65,106.78L363.67,101.83L374.69,95.84L385.71,92.38L396.73,87.15L451.84,68.85L462.86,64.78L484.9,58.97L495.92,55.09L506.94,52.57L517.96,48.62L540,44.67" style="vector-effect: non-scaling-stroke; fill: none; stroke: rgb(231, 107, 243); stroke-opacity: 1; stroke-width: 2px; opacity: 1;"/></g><g class="points"/><g class="text"/></g><g class="trace scatter trace44fbb7" style="stroke-miterlimit: 2; opacity: 1;"><g class="fills"/><g class="errorbars"/><g class="lines"><path class="js-line" d="M0,302.22L11.02,298.28L22.04,295.94L55.1,292.97L66.12,290.53L77.14,287L88.16,284.41L99.18,279.24L110.2,272.61L132.24,253.8L143.27,242.1L154.29,231.33L165.31,222.22L176.33,212.29L187.35,203.55L198.37,193.95L209.39,185.35L242.45,163.85L253.47,155.23L264.49,151.57L275.51,143.75L286.53,138.7L297.55,131.91L341.63,110.89L352.65,106.78L363.67,101.83L374.69,95.84L385.71,92.38L396.73,87.15L451.84,68.85L462.86,64.78L484.9,58.97L495.92,55.09L506.94,52.57L517.96,48.62L540,44.67" style="vector-effect: non-scaling-stroke; fill: none; stroke: rgb(248, 118, 109); stroke-opacity: 1; stroke-width: 2px; opacity: 1;"/></g><g class="points"/><g class="text"/></g><g class="trace scatter trace4195d6" style="stroke-miterlimit: 2; opacity: 1;"><g class="fills"/><g class="errorbars"/><g class="lines"><path class="js-line" d="M0,302.11L11.02,298.44L22.04,296.79L33.06,296L44.08,294.16L66.12,290.59L77.14,287.43L88.16,280.61L99.18,275.88L143.27,237.3L154.29,227.23L165.31,216.31L176.33,207.51L198.37,188.21L209.39,181.24L220.41,172.63L231.43,166.89L242.45,157.9L253.47,151.52L264.49,142.81L275.51,137.28L319.59,114.36L330.61,107.42L341.63,103.61L352.65,98.08L363.67,93.52L374.69,88.02L385.71,85.42L396.73,79.83L418.78,72.6L429.8,67.61L451.84,61.67L462.86,56L473.88,53.53L484.9,50.26L495.92,47.77L506.94,43.58L517.96,42.6L528.98,40.18L540,37.04" style="vector-effect: non-scaling-stroke; fill: none; stroke: rgb(163, 165, 0); stroke-opacity: 1; stroke-width: 2px; opacity: 1;"/></g><g class="points"/><g class="text"/></g><g class="trace scatter trace4fc831" style="stroke-miterlimit: 2; opacity: 1;"><g class="fills"/><g class="errorbars"/><g class="lines"><path class="js-line" d="M0,302.11L11.02,298.44L22.04,296.79L33.06,296L44.08,294.16L66.12,290.59L77.14,287.43L88.16,280.61L99.18,275.88L143.27,237.3L154.29,227.23L165.31,216.31L176.33,207.51L198.37,188.21L209.39,181.24L220.41,172.63L231.43,166.89L242.45,157.9L253.47,151.52L264.49,142.81L275.51,137.28L319.59,114.36L330.61,107.42L341.63,103.61L352.65,98.08L363.67,93.52L374.69,88.02L385.71,85.42L396.73,79.83L418.78,72.6L429.8,67.61L451.84,61.67L462.86,56L473.88,53.53L484.9,50.26L495.92,47.77L506.94,43.58L517.96,42.6L528.98,40.18L540,37.04" style="vector-effect: non-scaling-stroke; fill: none; stroke: rgb(0, 191, 125); stroke-opacity: 1; stroke-width: 2px; opacity: 1;"/></g><g class="points"/><g class="text"/></g><g class="trace scatter trace544fba" style="stroke-miterlimit: 2; opacity: 1;"><g class="fills"/><g class="errorbars"/><g class="lines"><path class="js-line" d="M0,303.02L11.02,298.4L22.04,296.44L33.06,294.41L44.08,293.27L55.1,292.47L66.12,289.23L88.16,279.56L99.18,273.37L110.2,263.51L121.22,256.04L132.24,247.09L143.27,234.7L154.29,223.37L165.31,214.63L176.33,204.24L187.35,194.89L198.37,187.06L209.39,178.04L220.41,169.61L231.43,163.35L253.47,148.92L264.49,141.65L297.55,124.99L308.57,118.84L341.63,101.87L352.65,97.91L374.69,87.49L385.71,83.8L396.73,78.19L407.76,75.29L418.78,70.26L429.8,66.94L473.88,51.7L484.9,49.59L506.94,42.62L517.96,40.55L528.98,37.94L540,36.11" style="vector-effect: non-scaling-stroke; fill: none; stroke: rgb(0, 176, 246); stroke-opacity: 1; stroke-width: 2px; opacity: 1;"/></g><g class="points"/><g class="text"/></g><g class="trace scatter tracef74e8c" style="stroke-miterlimit: 2; opacity: 1;"><g class="fills"/><g class="errorbars"/><g class="lines"><path class="js-line" d="M0,303.02L11.02,298.4L22.04,296.44L33.06,294.41L44.08,293.27L55.1,292.47L66.12,289.23L88.16,279.56L99.18,273.37L110.2,263.51L121.22,256.04L132.24,247.09L143.27,234.7L154.29,223.37L165.31,214.63L176.33,204.24L187.35,194.89L198.37,187.06L209.39,178.04L220.41,169.61L231.43,163.35L253.47,148.92L264.49,141.65L297.55,124.99L308.57,118.84L341.63,101.87L352.65,97.91L374.69,87.49L385.71,83.8L396.73,78.19L407.76,75.29L418.78,70.26L429.8,66.94L473.88,51.7L484.9,49.59L506.94,42.62L517.96,40.55L528.98,37.94L540,36.11" style="vector-effect: non-scaling-stroke; fill: none; stroke: rgb(231, 107, 243); stroke-opacity: 1; stroke-width: 2px; opacity: 1;"/></g><g class="points"/><g class="text"/></g><g class="trace scatter trace8d3295" style="stroke-miterlimit: 2; opacity: 1;"><g class="fills"/><g class="errorbars"/><g class="lines"><path class="js-line" d="M0,302.94L11.02,297.98L22.04,295.99L33.06,295.21L44.08,293.45L66.12,288.79L77.14,285.12L88.16,279.07L99.18,270.14L110.2,261.85L121.22,252.13L132.24,240.86L143.27,227.97L154.29,218.23L165.31,206.64L176.33,199.3L187.35,187.6L198.37,181.1L209.39,172.27L231.43,155.73L242.45,149.44L253.47,142L264.49,135.52L286.53,122.66L297.55,117.04L308.57,110.19L319.59,105.17L330.61,99.68L341.63,95.54L352.65,88.8L363.67,84.28L374.69,80.71L385.71,75.72L396.73,72.45L407.76,68.11L418.78,63.57L429.8,59.98L462.86,48.81L473.88,46.04L484.9,43.53L495.92,39.6L528.98,32.31L540,30.12" style="vector-effect: non-scaling-stroke; fill: none; stroke: rgb(248, 118, 109); stroke-opacity: 1; stroke-width: 2px; opacity: 1;"/></g><g class="points"/><g class="text"/></g><g class="trace scatter tracef772a0" style="stroke-miterlimit: 2; opacity: 1;"><g class="fills"/><g class="errorbars"/><g class="lines"><path class="js-line" d="M0,302.94L11.02,297.98L22.04,295.99L33.06,295.21L44.08,293.45L66.12,288.79L77.14,285.12L88.16,279.07L99.18,270.14L110.2,261.85L121.22,252.13L132.24,240.86L143.27,227.97L154.29,218.23L165.31,206.64L176.33,199.3L187.35,187.6L198.37,181.1L209.39,172.27L231.43,155.73L242.45,149.44L253.47,142L264.49,135.52L286.53,122.66L297.55,117.04L308.57,110.19L319.59,105.17L330.61,99.68L341.63,95.54L352.65,88.8L363.67,84.28L374.69,80.71L385.71,75.72L396.73,72.45L407.76,68.11L418.78,63.57L429.8,59.98L462.86,48.81L473.88,46.04L484.9,43.53L495.92,39.6L528.98,32.31L540,30.12" style="vector-effect: non-scaling-stroke; fill: none; stroke: rgb(163, 165, 0); stroke-opacity: 1; stroke-width: 2px; opacity: 1;"/></g><g class="points"/><g class="text"/></g><g class="trace scatter tracea451e6" style="stroke-miterlimit: 2; opacity: 1;"><g class="fills"/><g class="errorbars"/><g class="lines"><path class="js-line" d="M0,302.69L22.04,295.78L33.06,295.16L44.08,292.95L55.1,292.62L66.12,289.23L77.14,284.21L88.16,279.71L99.18,271.26L121.22,252.1L132.24,241.81L143.27,233.33L154.29,222.16L165.31,214.17L176.33,203.41L187.35,196.74L198.37,187.93L242.45,156.95L253.47,148.63L264.49,144.72L275.51,136.37L308.57,119.49L319.59,115.32L330.61,109.58L341.63,106.49L352.65,100.83L363.67,96.75L374.69,93.48L385.71,88.71L396.73,84.15L407.76,81.59L418.78,78.87L429.8,74.25L440.82,71.72L451.84,67.67L462.86,64.39L473.88,62.26L506.94,54.68L517.96,53.55L528.98,51.3L540,47.91" style="vector-effect: non-scaling-stroke; fill: none; stroke: rgb(0, 191, 125); stroke-opacity: 1; stroke-width: 2px; opacity: 1;"/></g><g class="points"/><g class="text"/></g><g class="trace scatter trace41bf9b" style="stroke-miterlimit: 2; opacity: 1;"><g class="fills"/><g class="errorbars"/><g class="lines"><path class="js-line" d="M0,302.69L22.04,295.78L33.06,295.16L44.08,292.95L55.1,292.62L66.12,289.23L77.14,284.21L88.16,279.71L99.18,271.26L121.22,252.1L132.24,241.81L143.27,233.33L154.29,222.16L165.31,214.17L176.33,203.41L187.35,196.74L198.37,187.93L242.45,156.95L253.47,148.63L264.49,144.72L275.51,136.37L308.57,119.49L319.59,115.32L330.61,109.58L341.63,106.49L352.65,100.83L363.67,96.75L374.69,93.48L385.71,88.71L396.73,84.15L407.76,81.59L418.78,78.87L429.8,74.25L440.82,71.72L451.84,67.67L462.86,64.39L473.88,62.26L506.94,54.68L517.96,53.55L528.98,51.3L540,47.91" style="vector-effect: non-scaling-stroke; fill: none; stroke: rgb(0, 176, 246); stroke-opacity: 1; stroke-width: 2px; opacity: 1;"/></g><g class="points"/><g class="text"/></g><g class="trace scatter trace917b86" style="stroke-miterlimit: 2; opacity: 1;"><g class="fills"/><g class="errorbars"/><g class="lines"><path class="js-line" d="M0,302.55L11.02,299.38L22.04,297.1L33.06,294.7L44.08,294.36L55.1,291.71L66.12,286.26L77.14,281.87L88.16,273.36L99.18,266.55L110.2,258.17L132.24,235.05L143.27,223.57L165.31,201.8L176.33,192.39L187.35,180.58L198.37,172.91L209.39,165.46L220.41,154.83L253.47,133.16L264.49,126.36L275.51,119.81L286.53,114.52L297.55,110.1L308.57,103.77L319.59,98.2L330.61,94.71L341.63,88.78L352.65,84.97L363.67,81.05L374.69,76.29L396.73,67.38L407.76,64.71L440.82,52.94L451.84,50.53L462.86,45.38L473.88,44.77L506.94,34.89L517.96,33.32L528.98,29.99L540,28.4" style="vector-effect: non-scaling-stroke; fill: none; stroke: rgb(231, 107, 243); stroke-opacity: 1; stroke-width: 2px; opacity: 1;"/></g><g class="points"/><g class="text"/></g><g class="trace scatter tracea7d489" style="stroke-miterlimit: 2; opacity: 1;"><g class="fills"/><g class="errorbars"/><g class="lines"><path class="js-line" d="M0,302.55L11.02,299.38L22.04,297.1L33.06,294.7L44.08,294.36L55.1,291.71L66.12,286.26L77.14,281.87L88.16,273.36L99.18,266.55L110.2,258.17L132.24,235.05L143.27,223.57L165.31,201.8L176.33,192.39L187.35,180.58L198.37,172.91L209.39,165.46L220.41,154.83L253.47,133.16L264.49,126.36L275.51,119.81L286.53,114.52L297.55,110.1L308.57,103.77L319.59,98.2L330.61,94.71L341.63,88.78L352.65,84.97L363.67,81.05L374.69,76.29L396.73,67.38L407.76,64.71L440.82,52.94L451.84,50.53L462.86,45.38L473.88,44.77L506.94,34.89L517.96,33.32L528.98,29.99L540,28.4" style="vector-effect: non-scaling-stroke; fill: none; stroke: rgb(248, 118, 109); stroke-opacity: 1; stroke-width: 2px; opacity: 1;"/></g><g class="points"/><g class="text"/></g><g class="trace scatter trace5ee5e6" style="stroke-miterlimit: 2; opacity: 1;"><g class="fills"/><g class="errorbars"/><g class="lines"><path class="js-line" d="M0,301.3L11.02,297.99L22.04,296.69L33.06,296.2L44.08,293.73L55.1,293.53L66.12,291.18L77.14,287.84L88.16,283.31L99.18,276.81L110.2,268.86L121.22,260.35L132.24,248.79L154.29,228.31L165.31,216.39L187.35,198.85L198.37,187.78L209.39,182.06L220.41,173.22L231.43,168.23L242.45,161.75L253.47,152.67L264.49,148.3L286.53,135.49L297.55,131.61L308.57,125.17L319.59,120.89L330.61,115.82L341.63,111.71L352.65,108.03L363.67,101.88L374.69,98.33L385.71,93.96L396.73,89.31L407.76,85.67L418.78,82.81L429.8,78.7L462.86,67.94L473.88,66.3L484.9,63.13L495.92,60.78L506.94,60.3L517.96,54.74L528.98,53.4L540,50.22" style="vector-effect: non-scaling-stroke; fill: none; stroke: rgb(163, 165, 0); stroke-opacity: 1; stroke-width: 2px; opacity: 1;"/></g><g class="points"/><g class="text"/></g><g class="trace scatter trace9d4c75" style="stroke-miterlimit: 2; opacity: 1;"><g class="fills"/><g class="errorbars"/><g class="lines"><path class="js-line" d="M0,301.3L11.02,297.99L22.04,296.69L33.06,296.2L44.08,293.73L55.1,293.53L66.12,291.18L77.14,287.84L88.16,283.31L99.18,276.81L110.2,268.86L121.22,260.35L132.24,248.79L154.29,228.31L165.31,216.39L187.35,198.85L198.37,187.78L209.39,182.06L220.41,173.22L231.43,168.23L242.45,161.75L253.47,152.67L264.49,148.3L286.53,135.49L297.55,131.61L308.57,125.17L319.59,120.89L330.61,115.82L341.63,111.71L352.65,108.03L363.67,101.88L374.69,98.33L385.71,93.96L396.73,89.31L407.76,85.67L418.78,82.81L429.8,78.7L462.86,67.94L473.88,66.3L484.9,63.13L495.92,60.78L506.94,60.3L517.96,54.74L528.98,53.4L540,50.22" style="vector-effect: non-scaling-stroke; fill: none; stroke: rgb(0, 191, 125); stroke-opacity: 1; stroke-width: 2px; opacity: 1;"/></g><g class="points"/><g class="text"/></g><g class="trace scatter trace89084c" style="stroke-miterlimit: 2; opacity: 1;"><g class="fills"/><g class="errorbars"/><g class="lines"><path class="js-line" d="M0,302.11L11.02,298.36L22.04,297.46L55.1,292.35L66.12,290.89L77.14,288.43L88.16,284.23L99.18,278.2L110.2,273.59L154.29,232.77L165.31,221.17L176.33,213.97L187.35,203.16L198.37,195.66L209.39,185.4L231.43,170.64L242.45,164.4L253.47,158.17L264.49,150.68L275.51,146.42L286.53,139.83L308.57,126.81L319.59,121.88L330.61,117.5L341.63,112.11L363.67,102.14L374.69,97.4L385.71,91.97L396.73,87.45L407.76,82.71L418.78,79.28L429.8,73.27L440.82,69.32L451.84,66.23L462.86,61.23L473.88,59.2L484.9,54.87L495.92,52.95L506.94,48.85L540,39.61" style="vector-effect: non-scaling-stroke; fill: none; stroke: rgb(0, 176, 246); stroke-opacity: 1; stroke-width: 2px; opacity: 1;"/></g><g class="points"/><g class="text"/></g><g class="trace scatter trace35f223" style="stroke-miterlimit: 2; opacity: 1;"><g class="fills"/><g class="errorbars"/><g class="lines"><path class="js-line" d="M0,302.11L11.02,298.36L22.04,297.46L55.1,292.35L66.12,290.89L77.14,288.43L88.16,284.23L99.18,278.2L110.2,273.59L154.29,232.77L165.31,221.17L176.33,213.97L187.35,203.16L198.37,195.66L209.39,185.4L231.43,170.64L242.45,164.4L253.47,158.17L264.49,150.68L275.51,146.42L286.53,139.83L308.57,126.81L319.59,121.88L330.61,117.5L341.63,112.11L363.67,102.14L374.69,97.4L385.71,91.97L396.73,87.45L407.76,82.71L418.78,79.28L429.8,73.27L440.82,69.32L451.84,66.23L462.86,61.23L473.88,59.2L484.9,54.87L495.92,52.95L506.94,48.85L540,39.61" style="vector-effect: non-scaling-stroke; fill: none; stroke: rgb(231, 107, 243); stroke-opacity: 1; stroke-width: 2px; opacity: 1;"/></g><g class="points"/><g class="text"/></g><g class="trace scatter tracee33ceb" style="stroke-miterlimit: 2; opacity: 1;"><g class="fills"/><g class="errorbars"/><g class="lines"><path class="js-line" d="M0,302.66L11.02,298.2L22.04,296.03L55.1,291.82L66.12,289.59L88.16,279.53L99.18,272.49L110.2,263.51L121.22,253.32L143.27,229.37L154.29,219.12L165.31,207.47L176.33,199.17L187.35,189.15L198.37,182.11L209.39,172.27L220.41,165.66L231.43,156.68L242.45,150.46L275.51,128.88L286.53,124.1L297.55,117.06L308.57,113.44L319.59,106.68L330.61,101.38L341.63,96.42L352.65,92.71L374.69,82.23L385.71,79.19L396.73,75.3L407.76,70.32L418.78,67.81L429.8,64.27L440.82,59.69L451.84,58.27L462.86,55.24L473.88,53.06L495.92,46.93L506.94,44.91L517.96,42.94L528.98,39.23L540,37.44" style="vector-effect: non-scaling-stroke; fill: none; stroke: rgb(248, 118, 109); stroke-opacity: 1; stroke-width: 2px; opacity: 1;"/></g><g class="points"/><g class="text"/></g><g class="trace scatter trace2e3611" style="stroke-miterlimit: 2; opacity: 1;"><g class="fills"/><g class="errorbars"/><g class="lines"><path class="js-line" d="M0,302.66L11.02,298.2L22.04,296.03L55.1,291.82L66.12,289.59L88.16,279.53L99.18,272.49L110.2,263.51L121.22,253.32L143.27,229.37L154.29,219.12L165.31,207.47L176.33,199.17L187.35,189.15L198.37,182.11L209.39,172.27L220.41,165.66L231.43,156.68L242.45,150.46L275.51,128.88L286.53,124.1L297.55,117.06L308.57,113.44L319.59,106.68L330.61,101.38L341.63,96.42L352.65,92.71L374.69,82.23L385.71,79.19L396.73,75.3L407.76,70.32L418.78,67.81L429.8,64.27L440.82,59.69L451.84,58.27L462.86,55.24L473.88,53.06L495.92,46.93L506.94,44.91L517.96,42.94L528.98,39.23L540,37.44" style="vector-effect: non-scaling-stroke; fill: none; stroke: rgb(163, 165, 0); stroke-opacity: 1; stroke-width: 2px; opacity: 1;"/></g><g class="points"/><g class="text"/></g><g class="trace scatter trace441c9a" style="stroke-miterlimit: 2; opacity: 1;"><g class="fills"/><g class="errorbars"/><g class="lines"><path class="js-line" d="M0,301.31L22.04,295.62L33.06,294.72L44.08,292.7L55.1,293.13L66.12,290.9L77.14,286.45L88.16,280.76L99.18,272.11L110.2,263.95L121.22,253.05L132.24,239.7L143.27,228.2L154.29,217.03L165.31,207.86L176.33,199.2L187.35,188.7L198.37,179.6L209.39,172.17L220.41,161.63L231.43,154.17L242.45,148.04L253.47,139.74L275.51,127.56L286.53,120.49L297.55,112.56L308.57,107.76L341.63,89.95L352.65,84.19L374.69,73.78L385.71,68.93L396.73,65.93L407.76,59.46L418.78,57.23L429.8,52.14L440.82,47.41L451.84,44.82L462.86,40.68L473.88,38.27L484.9,34.32L495.92,31.48L506.94,28.52L517.96,26.55L540,21.22" style="vector-effect: non-scaling-stroke; fill: none; stroke: rgb(0, 191, 125); stroke-opacity: 1; stroke-width: 2px; opacity: 1;"/></g><g class="points"/><g class="text"/></g><g class="trace scatter traceab5657" style="stroke-miterlimit: 2; opacity: 1;"><g class="fills"/><g class="errorbars"/><g class="lines"><path class="js-line" d="M0,301.31L22.04,295.62L33.06,294.72L44.08,292.7L55.1,293.13L66.12,290.9L77.14,286.45L88.16,280.76L99.18,272.11L110.2,263.95L121.22,253.05L132.24,239.7L143.27,228.2L154.29,217.03L165.31,207.86L176.33,199.2L187.35,188.7L198.37,179.6L209.39,172.17L220.41,161.63L231.43,154.17L242.45,148.04L253.47,139.74L275.51,127.56L286.53,120.49L297.55,112.56L308.57,107.76L341.63,89.95L352.65,84.19L374.69,73.78L385.71,68.93L396.73,65.93L407.76,59.46L418.78,57.23L429.8,52.14L440.82,47.41L451.84,44.82L462.86,40.68L473.88,38.27L484.9,34.32L495.92,31.48L506.94,28.52L517.96,26.55L540,21.22" style="vector-effect: non-scaling-stroke; fill: none; stroke: rgb(0, 176, 246); stroke-opacity: 1; stroke-width: 2px; opacity: 1;"/></g><g class="points"/><g class="text"/></g><g class="trace scatter tracee82dce" style="stroke-miterlimit: 2; opacity: 1;"><g class="fills"/><g class="errorbars"/><g class="lines"><path class="js-line" d="M0,301.95L11.02,297.95L22.04,296.03L33.06,295.27L44.08,293.15L66.12,290.88L77.14,286.6L88.16,280.56L99.18,271.18L110.2,262.31L121.22,251.31L143.27,229.68L154.29,220.44L165.31,210.62L176.33,203.42L198.37,185.05L209.39,178.22L220.41,172.43L231.43,165.66L242.45,158.7L253.47,153.93L264.49,149.16L275.51,143.31L286.53,136.84L297.55,134.12L308.57,126.6L319.59,123.51L352.65,109.31L363.67,105.42L374.69,100.51L385.71,97.27L407.76,88.19L418.78,84.32L440.82,77.6L451.84,75.67L462.86,70.66L473.88,68.93L484.9,65.74L495.92,63.9L517.96,57.24L528.98,54.4L540,50.35" style="vector-effect: non-scaling-stroke; fill: none; stroke: rgb(231, 107, 243); stroke-opacity: 1; stroke-width: 2px; opacity: 1;"/></g><g class="points"/><g class="text"/></g><g class="trace scatter trace44fe3c" style="stroke-miterlimit: 2; opacity: 1;"><g class="fills"/><g class="errorbars"/><g class="lines"><path class="js-line" d="M0,301.95L11.02,297.95L22.04,296.03L33.06,295.27L44.08,293.15L66.12,290.88L77.14,286.6L88.16,280.56L99.18,271.18L110.2,262.31L121.22,251.31L143.27,229.68L154.29,220.44L165.31,210.62L176.33,203.42L198.37,185.05L209.39,178.22L220.41,172.43L231.43,165.66L242.45,158.7L253.47,153.93L264.49,149.16L275.51,143.31L286.53,136.84L297.55,134.12L308.57,126.6L319.59,123.51L352.65,109.31L363.67,105.42L374.69,100.51L385.71,97.27L407.76,88.19L418.78,84.32L440.82,77.6L451.84,75.67L462.86,70.66L473.88,68.93L484.9,65.74L495.92,63.9L517.96,57.24L528.98,54.4L540,50.35" style="vector-effect: non-scaling-stroke; fill: none; stroke: rgb(248, 118, 109); stroke-opacity: 1; stroke-width: 2px; opacity: 1;"/></g><g class="points"/><g class="text"/></g><g class="trace scatter trace5e8f14" style="stroke-miterlimit: 2; opacity: 1;"><g class="fills"/><g class="errorbars"/><g class="lines"><path class="js-line" d="M0,302.71L11.02,297.69L22.04,295.88L33.06,294.42L44.08,294.29L66.12,289.58L77.14,285.84L88.16,281.78L99.18,274.29L110.2,264.64L121.22,252.06L132.24,243.03L143.27,231.83L154.29,220.04L165.31,210.16L187.35,192.38L198.37,182.59L209.39,172.54L220.41,166.64L242.45,151.98L253.47,142.82L264.49,137.96L275.51,131.81L297.55,118.75L308.57,113.89L319.59,110.09L330.61,103.06L352.65,93.89L363.67,88.11L374.69,81.89L385.71,78.88L407.76,68.06L418.78,66.67L429.8,61.37L440.82,57.92L484.9,43.84L495.92,40.85L517.96,36.01L528.98,34.44L540,31.17" style="vector-effect: non-scaling-stroke; fill: none; stroke: rgb(163, 165, 0); stroke-opacity: 1; stroke-width: 2px; opacity: 1;"/></g><g class="points"/><g class="text"/></g><g class="trace scatter trace586233" style="stroke-miterlimit: 2; opacity: 1;"><g class="fills"/><g class="errorbars"/><g class="lines"><path class="js-line" d="M0,302.71L11.02,297.69L22.04,295.88L33.06,294.42L44.08,294.29L66.12,289.58L77.14,285.84L88.16,281.78L99.18,274.29L110.2,264.64L121.22,252.06L132.24,243.03L143.27,231.83L154.29,220.04L165.31,210.16L187.35,192.38L198.37,182.59L209.39,172.54L220.41,166.64L242.45,151.98L253.47,142.82L264.49,137.96L275.51,131.81L297.55,118.75L308.57,113.89L319.59,110.09L330.61,103.06L352.65,93.89L363.67,88.11L374.69,81.89L385.71,78.88L407.76,68.06L418.78,66.67L429.8,61.37L440.82,57.92L484.9,43.84L495.92,40.85L517.96,36.01L528.98,34.44L540,31.17" style="vector-effect: non-scaling-stroke; fill: none; stroke: rgb(0, 191, 125); stroke-opacity: 1; stroke-width: 2px; opacity: 1;"/></g><g class="points"/><g class="text"/></g><g class="trace scatter tracee3eb0a" style="stroke-miterlimit: 2; opacity: 1;"><g class="fills"/><g class="errorbars"/><g class="lines"><path class="js-line" d="M0,303.18L11.02,299.2L22.04,296.45L44.08,293.8L55.1,293.29L77.14,284.64L88.16,277.23L99.18,270.46L110.2,260.09L132.24,236.29L143.27,227.16L154.29,216.1L165.31,206.13L198.37,181.89L209.39,175.8L220.41,166.51L231.43,158.37L242.45,150.72L253.47,144.76L264.49,137.72L275.51,132.12L297.55,119.56L308.57,115.49L319.59,109.77L330.61,105.1L374.69,85.16L385.71,83.01L407.76,72.19L418.78,68.85L429.8,66.74L440.82,62.54L451.84,58.47L462.86,56.44L473.88,52.77L484.9,48.02L495.92,47.43L506.94,45.47L517.96,41.36L528.98,39.2L540,36.51" style="vector-effect: non-scaling-stroke; fill: none; stroke: rgb(0, 176, 246); stroke-opacity: 1; stroke-width: 2px; opacity: 1;"/></g><g class="points"/><g class="text"/></g><g class="trace scatter tracebe273d" style="stroke-miterlimit: 2; opacity: 1;"><g class="fills"/><g class="errorbars"/><g class="lines"><path class="js-line" d="M0,303.18L11.02,299.2L22.04,296.45L44.08,293.8L55.1,293.29L77.14,284.64L88.16,277.23L99.18,270.46L110.2,260.09L132.24,236.29L143.27,227.16L154.29,216.1L165.31,206.13L198.37,181.89L209.39,175.8L220.41,166.51L231.43,158.37L242.45,150.72L253.47,144.76L264.49,137.72L275.51,132.12L297.55,119.56L308.57,115.49L319.59,109.77L330.61,105.1L374.69,85.16L385.71,83.01L407.76,72.19L418.78,68.85L429.8,66.74L440.82,62.54L451.84,58.47L462.86,56.44L473.88,52.77L484.9,48.02L495.92,47.43L506.94,45.47L517.96,41.36L528.98,39.2L540,36.51" style="vector-effect: non-scaling-stroke; fill: none; stroke: rgb(231, 107, 243); stroke-opacity: 1; stroke-width: 2px; opacity: 1;"/></g><g class="points"/><g class="text"/></g><g class="trace scatter traceb7292f" style="stroke-miterlimit: 2; opacity: 1;"><g class="fills"/><g class="errorbars"/><g class="lines"><path class="js-line" d="M0,302.45L22.04,296.35L33.06,295.66L44.08,293.84L55.1,293.06L77.14,288.37L88.16,283.62L99.18,278.09L110.2,269.43L121.22,259.5L132.24,247.34L143.27,237.66L154.29,226.46L165.31,217.91L176.33,207.55L198.37,190.49L209.39,181.42L231.43,168.25L242.45,160.52L264.49,147.68L275.51,143.62L286.53,136.16L297.55,130.22L308.57,125.66L319.59,119.81L352.65,104.62L363.67,101.06L396.73,89.09L407.76,83.6L418.78,79.76L429.8,78.01L440.82,72.98L451.84,70.78L462.86,67.22L473.88,64.97L506.94,54.19L517.96,52.71L528.98,49L540,47.1" style="vector-effect: non-scaling-stroke; fill: none; stroke: rgb(248, 118, 109); stroke-opacity: 1; stroke-width: 2px; opacity: 1;"/></g><g class="points"/><g class="text"/></g><g class="trace scatter trace2a2b28" style="stroke-miterlimit: 2; opacity: 1;"><g class="fills"/><g class="errorbars"/><g class="lines"><path class="js-line" d="M0,302.45L22.04,296.35L33.06,295.66L44.08,293.84L55.1,293.06L77.14,288.37L88.16,283.62L99.18,278.09L110.2,269.43L121.22,259.5L132.24,247.34L143.27,237.66L154.29,226.46L165.31,217.91L176.33,207.55L198.37,190.49L209.39,181.42L231.43,168.25L242.45,160.52L264.49,147.68L275.51,143.62L286.53,136.16L297.55,130.22L308.57,125.66L319.59,119.81L352.65,104.62L363.67,101.06L396.73,89.09L407.76,83.6L418.78,79.76L429.8,78.01L440.82,72.98L451.84,70.78L462.86,67.22L473.88,64.97L506.94,54.19L517.96,52.71L528.98,49L540,47.1" style="vector-effect: non-scaling-stroke; fill: none; stroke: rgb(163, 165, 0); stroke-opacity: 1; stroke-width: 2px; opacity: 1;"/></g><g class="points"/><g class="text"/></g><g class="trace scatter trace10ae91" style="stroke-miterlimit: 2; opacity: 1;"><g class="fills"/><g class="errorbars"/><g class="lines"><path class="js-line" d="M0,301.78L11.02,298.31L22.04,297.47L33.06,295.27L44.08,293.88L66.12,289.48L77.14,285.45L88.16,281.81L99.18,275.24L121.22,256.81L132.24,246.37L165.31,218.21L176.33,210.85L242.45,168.24L253.47,161.56L264.49,158.25L275.51,153.58L286.53,146.23L297.55,140.49L308.57,135.69L319.59,133.24L341.63,124.36L352.65,120.25L363.67,115.19L374.69,111.84L385.71,109.11L396.73,107.75L407.76,101.39L418.78,99.03L429.8,94.91L440.82,91.81L462.86,85.88L473.88,84.31L495.92,75.2L506.94,73.18L517.96,71.8L528.98,67.46L540,66.73" style="vector-effect: non-scaling-stroke; fill: none; stroke: rgb(0, 191, 125); stroke-opacity: 1; stroke-width: 2px; opacity: 1;"/></g><g class="points"/><g class="text"/></g><g class="trace scatter tracead4eb1" style="stroke-miterlimit: 2; opacity: 1;"><g class="fills"/><g class="errorbars"/><g class="lines"><path class="js-line" d="M0,301.78L11.02,298.31L22.04,297.47L33.06,295.27L44.08,293.88L66.12,289.48L77.14,285.45L88.16,281.81L99.18,275.24L121.22,256.81L132.24,246.37L165.31,218.21L176.33,210.85L242.45,168.24L253.47,161.56L264.49,158.25L275.51,153.58L286.53,146.23L297.55,140.49L308.57,135.69L319.59,133.24L341.63,124.36L352.65,120.25L363.67,115.19L374.69,111.84L385.71,109.11L396.73,107.75L407.76,101.39L418.78,99.03L429.8,94.91L440.82,91.81L462.86,85.88L473.88,84.31L495.92,75.2L506.94,73.18L517.96,71.8L528.98,67.46L540,66.73" style="vector-effect: non-scaling-stroke; fill: none; stroke: rgb(0, 176, 246); stroke-opacity: 1; stroke-width: 2px; opacity: 1;"/></g><g class="points"/><g class="text"/></g><g class="trace scatter trace8d1699" style="stroke-miterlimit: 2; opacity: 1;"><g class="fills"/><g class="errorbars"/><g class="lines"><path class="js-line" d="M0,302.92L11.02,298.07L22.04,296.77L33.06,296.22L44.08,294.38L66.12,289.82L77.14,284.88L88.16,279.53L99.18,271.6L121.22,252.04L132.24,241.19L154.29,218.25L165.31,208.41L198.37,177.56L209.39,169.5L220.41,160.76L231.43,153.07L253.47,137.6L264.49,131.27L286.53,117.23L297.55,112.17L330.61,93.96L341.63,89.33L352.65,82.52L363.67,78.72L418.78,58.65L429.8,52.97L440.82,48.26L451.84,46.93L473.88,41.01L484.9,37.08L506.94,33.42L517.96,29.75L528.98,28.77L540,26.4" style="vector-effect: non-scaling-stroke; fill: none; stroke: rgb(231, 107, 243); stroke-opacity: 1; stroke-width: 2px; opacity: 1;"/></g><g class="points"/><g class="text"/></g><g class="trace scatter traced3e30f" style="stroke-miterlimit: 2; opacity: 1;"><g class="fills"/><g class="errorbars"/><g class="lines"><path class="js-line" d="M0,302.92L11.02,298.07L22.04,296.77L33.06,296.22L44.08,294.38L66.12,289.82L77.14,284.88L88.16,279.53L99.18,271.6L121.22,252.04L132.24,241.19L154.29,218.25L165.31,208.41L198.37,177.56L209.39,169.5L220.41,160.76L231.43,153.07L253.47,137.6L264.49,131.27L286.53,117.23L297.55,112.17L330.61,93.96L341.63,89.33L352.65,82.52L363.67,78.72L418.78,58.65L429.8,52.97L440.82,48.26L451.84,46.93L473.88,41.01L484.9,37.08L506.94,33.42L517.96,29.75L528.98,28.77L540,26.4" style="vector-effect: non-scaling-stroke; fill: none; stroke: rgb(248, 118, 109); stroke-opacity: 1; stroke-width: 2px; opacity: 1;"/></g><g class="points"/><g class="text"/></g><g class="trace scatter trace4f9c10" style="stroke-miterlimit: 2; opacity: 1;"><g class="fills"/><g class="errorbars"/><g class="lines"><path class="js-line" d="M0,302.66L11.02,298.86L22.04,296.73L33.06,296.52L44.08,293.71L55.1,293.54L66.12,290.31L77.14,288.34L88.16,282.4L99.18,276.27L110.2,266.68L121.22,258.13L132.24,247.62L143.27,235.88L154.29,225.3L165.31,215.67L176.33,207.83L187.35,197.8L198.37,189.15L220.41,172.58L231.43,165.1L253.47,150.28L264.49,143.44L275.51,136.22L286.53,129.9L308.57,116.02L319.59,112.1L352.65,93.97L363.67,89.1L385.71,79.23L396.73,73.43L407.76,69.67L418.78,66.87L429.8,62.1L440.82,58.44L451.84,55.38L462.86,51.23L473.88,47.35L484.9,45.44L506.94,38.53L517.96,36.04L540,30.43" style="vector-effect: non-scaling-stroke; fill: none; stroke: rgb(163, 165, 0); stroke-opacity: 1; stroke-width: 2px; opacity: 1;"/></g><g class="points"/><g class="text"/></g><g class="trace scatter trace52541f" style="stroke-miterlimit: 2; opacity: 1;"><g class="fills"/><g class="errorbars"/><g class="lines"><path class="js-line" d="M0,302.66L11.02,298.86L22.04,296.73L33.06,296.52L44.08,293.71L55.1,293.54L66.12,290.31L77.14,288.34L88.16,282.4L99.18,276.27L110.2,266.68L121.22,258.13L132.24,247.62L143.27,235.88L154.29,225.3L165.31,215.67L176.33,207.83L187.35,197.8L198.37,189.15L220.41,172.58L231.43,165.1L253.47,150.28L264.49,143.44L275.51,136.22L286.53,129.9L308.57,116.02L319.59,112.1L352.65,93.97L363.67,89.1L385.71,79.23L396.73,73.43L407.76,69.67L418.78,66.87L429.8,62.1L440.82,58.44L451.84,55.38L462.86,51.23L473.88,47.35L484.9,45.44L506.94,38.53L517.96,36.04L540,30.43" style="vector-effect: non-scaling-stroke; fill: none; stroke: rgb(0, 191, 125); stroke-opacity: 1; stroke-width: 2px; opacity: 1;"/></g><g class="points"/><g class="text"/></g><g class="trace scatter trace538878" style="stroke-miterlimit: 2; opacity: 1;"><g class="fills"/><g class="errorbars"/><g class="lines"><path class="js-line" d="M0,302.46L11.02,299.07L22.04,296.93L33.06,295.51L44.08,294.96L77.14,287.25L88.16,282.51L99.18,276.19L110.2,267.58L132.24,243.95L143.27,232.59L165.31,209.85L176.33,201.01L187.35,189.96L198.37,182.58L220.41,164.78L231.43,156.4L242.45,151.39L253.47,142.42L264.49,137.23L275.51,130.6L297.55,118.56L308.57,113.5L330.61,102.03L341.63,97.53L352.65,90.36L363.67,86.01L374.69,81.55L385.71,78.62L396.73,73.06L407.76,69.02L429.8,60.26L440.82,57.28L451.84,53.4L462.86,51.18L484.9,43.71L495.92,41.54L506.94,39.34L517.96,37.99L540,32.08" style="vector-effect: non-scaling-stroke; fill: none; stroke: rgb(0, 176, 246); stroke-opacity: 1; stroke-width: 2px; opacity: 1;"/></g><g class="points"/><g class="text"/></g><g class="trace scatter trace7a009e" style="stroke-miterlimit: 2; opacity: 1;"><g class="fills"/><g class="errorbars"/><g class="lines"><path class="js-line" d="M0,302.46L11.02,299.07L22.04,296.93L33.06,295.51L44.08,294.96L77.14,287.25L88.16,282.51L99.18,276.19L110.2,267.58L132.24,243.95L143.27,232.59L165.31,209.85L176.33,201.01L187.35,189.96L198.37,182.58L220.41,164.78L231.43,156.4L242.45,151.39L253.47,142.42L264.49,137.23L275.51,130.6L297.55,118.56L308.57,113.5L330.61,102.03L341.63,97.53L352.65,90.36L363.67,86.01L374.69,81.55L385.71,78.62L396.73,73.06L407.76,69.02L429.8,60.26L440.82,57.28L451.84,53.4L462.86,51.18L484.9,43.71L495.92,41.54L506.94,39.34L517.96,37.99L540,32.08" style="vector-effect: non-scaling-stroke; fill: none; stroke: rgb(231, 107, 243); stroke-opacity: 1; stroke-width: 2px; opacity: 1;"/></g><g class="points"/><g class="text"/></g><g class="trace scatter trace9ab0cc" style="stroke-miterlimit: 2; opacity: 1;"><g class="fills"/><g class="errorbars"/><g class="lines"><path class="js-line" d="M0,302.21L11.02,298.55L22.04,297.18L33.06,295.16L44.08,294.6L55.1,291.96L66.12,291.93L88.16,282.29L99.18,275.35L110.2,263.27L121.22,256.01L132.24,242.66L143.27,230.82L187.35,192.9L198.37,182.7L253.47,143.56L264.49,137.19L275.51,132.01L286.53,125.63L330.61,101.51L341.63,97.73L352.65,90.06L363.67,84.75L374.69,79.83L385.71,76.25L407.76,66.16L418.78,62.11L440.82,54.2L451.84,50.51L473.88,44.17L484.9,40.14L540,25.59" style="vector-effect: non-scaling-stroke; fill: none; stroke: rgb(248, 118, 109); stroke-opacity: 1; stroke-width: 2px; opacity: 1;"/></g><g class="points"/><g class="text"/></g><g class="trace scatter tracece6524" style="stroke-miterlimit: 2; opacity: 1;"><g class="fills"/><g class="errorbars"/><g class="lines"><path class="js-line" d="M0,302.21L11.02,298.55L22.04,297.18L33.06,295.16L44.08,294.6L55.1,291.96L66.12,291.93L88.16,282.29L99.18,275.35L110.2,263.27L121.22,256.01L132.24,242.66L143.27,230.82L187.35,192.9L198.37,182.7L253.47,143.56L264.49,137.19L275.51,132.01L286.53,125.63L330.61,101.51L341.63,97.73L352.65,90.06L363.67,84.75L374.69,79.83L385.71,76.25L407.76,66.16L418.78,62.11L440.82,54.2L451.84,50.51L473.88,44.17L484.9,40.14L540,25.59" style="vector-effect: non-scaling-stroke; fill: none; stroke: rgb(163, 165, 0); stroke-opacity: 1; stroke-width: 2px; opacity: 1;"/></g><g class="points"/><g class="text"/></g><g class="trace scatter tracef9157c" style="stroke-miterlimit: 2; opacity: 1;"><g class="fills"/><g class="errorbars"/><g class="lines"><path class="js-line" d="M0,302.71L11.02,298.55L22.04,297.01L33.06,294.99L44.08,294.6L55.1,291.49L66.12,289.79L77.14,286.37L88.16,281.25L99.18,275.62L110.2,266.09L132.24,243.79L143.27,232.91L165.31,212.82L176.33,201.79L187.35,193.67L198.37,183.3L209.39,174.07L220.41,167.82L242.45,149.99L253.47,144.03L264.49,136.4L275.51,130.84L286.53,123.75L297.55,117.96L308.57,109.53L319.59,103.18L352.65,87.66L363.67,83.64L374.69,77.48L385.71,74.16L396.73,66.8L407.76,63.91L462.86,46.67L473.88,42.12L484.9,39.61L495.92,38.25L506.94,35.05L517.96,34.2L528.98,30.74L540,29.33" style="vector-effect: non-scaling-stroke; fill: none; stroke: rgb(0, 191, 125); stroke-opacity: 1; stroke-width: 2px; opacity: 1;"/></g><g class="points"/><g class="text"/></g><g class="trace scatter trace8247b7" style="stroke-miterlimit: 2; opacity: 1;"><g class="fills"/><g class="errorbars"/><g class="lines"><path class="js-line" d="M0,302.71L11.02,298.55L22.04,297.01L33.06,294.99L44.08,294.6L55.1,291.49L66.12,289.79L77.14,286.37L88.16,281.25L99.18,275.62L110.2,266.09L132.24,243.79L143.27,232.91L165.31,212.82L176.33,201.79L187.35,193.67L198.37,183.3L209.39,174.07L220.41,167.82L242.45,149.99L253.47,144.03L264.49,136.4L275.51,130.84L286.53,123.75L297.55,117.96L308.57,109.53L319.59,103.18L352.65,87.66L363.67,83.64L374.69,77.48L385.71,74.16L396.73,66.8L407.76,63.91L462.86,46.67L473.88,42.12L484.9,39.61L495.92,38.25L506.94,35.05L517.96,34.2L528.98,30.74L540,29.33" style="vector-effect: non-scaling-stroke; fill: none; stroke: rgb(0, 176, 246); stroke-opacity: 1; stroke-width: 2px; opacity: 1;"/></g><g class="points"/><g class="text"/></g><g class="trace scatter traceae1e50" style="stroke-miterlimit: 2; opacity: 1;"><g class="fills"/><g class="errorbars"/><g class="lines"><path class="js-line" d="M0,302.42L11.02,297.66L22.04,296.7L44.08,294.48L55.1,292.07L66.12,290.49L77.14,287.59L99.18,277.43L110.2,269.16L132.24,247.97L143.27,235.55L154.29,226.37L165.31,215.57L187.35,195.81L198.37,189.96L209.39,180.72L220.41,174.43L242.45,158.93L253.47,154L275.51,140.58L286.53,134.63L297.55,128.47L308.57,123.3L319.59,117.22L330.61,114.49L352.65,103.25L363.67,98.91L374.69,93.42L385.71,89.04L396.73,85.57L407.76,80.42L418.78,74.91L429.8,72.94L484.9,53.38L495.92,50.7L540,38.75" style="vector-effect: non-scaling-stroke; fill: none; stroke: rgb(231, 107, 243); stroke-opacity: 1; stroke-width: 2px; opacity: 1;"/></g><g class="points"/><g class="text"/></g><g class="trace scatter trace59a952" style="stroke-miterlimit: 2; opacity: 1;"><g class="fills"/><g class="errorbars"/><g class="lines"><path class="js-line" d="M0,302.42L11.02,297.66L22.04,296.7L44.08,294.48L55.1,292.07L66.12,290.49L77.14,287.59L99.18,277.43L110.2,269.16L132.24,247.97L143.27,235.55L154.29,226.37L165.31,215.57L187.35,195.81L198.37,189.96L209.39,180.72L220.41,174.43L242.45,158.93L253.47,154L275.51,140.58L286.53,134.63L297.55,128.47L308.57,123.3L319.59,117.22L330.61,114.49L352.65,103.25L363.67,98.91L374.69,93.42L385.71,89.04L396.73,85.57L407.76,80.42L418.78,74.91L429.8,72.94L484.9,53.38L495.92,50.7L540,38.75" style="vector-effect: non-scaling-stroke; fill: none; stroke: rgb(248, 118, 109); stroke-opacity: 1; stroke-width: 2px; opacity: 1;"/></g><g class="points"/><g class="text"/></g><g class="trace scatter tracedcb970" style="stroke-miterlimit: 2; opacity: 1;"><g class="fills"/><g class="errorbars"/><g class="lines"><path class="js-line" d="M0,302.89L11.02,297.69L22.04,296.14L55.1,292.52L66.12,290.13L88.16,283.96L99.18,277.76L110.2,270.95L121.22,260.38L154.29,231.22L165.31,220.67L176.33,213.42L187.35,203.03L209.39,186.2L220.41,178.2L231.43,169.3L242.45,164.07L253.47,155.37L264.49,151.01L275.51,146.54L286.53,140.29L297.55,133.77L308.57,128.85L319.59,123.7L330.61,119.5L352.65,110.14L363.67,106.44L396.73,95.55L407.76,90.69L418.78,87.87L429.8,83.67L451.84,75.02L462.86,73.53L473.88,70.35L484.9,65.76L495.92,64.13L506.94,60.71L517.96,56.66L528.98,54.54L540,51.5" style="vector-effect: non-scaling-stroke; fill: none; stroke: rgb(163, 165, 0); stroke-opacity: 1; stroke-width: 2px; opacity: 1;"/></g><g class="points"/><g class="text"/></g><g class="trace scatter trace1b8be4" style="stroke-miterlimit: 2; opacity: 1;"><g class="fills"/><g class="errorbars"/><g class="lines"><path class="js-line" d="M0,302.89L11.02,297.69L22.04,296.14L55.1,292.52L66.12,290.13L88.16,283.96L99.18,277.76L110.2,270.95L121.22,260.38L154.29,231.22L165.31,220.67L176.33,213.42L187.35,203.03L209.39,186.2L220.41,178.2L231.43,169.3L242.45,164.07L253.47,155.37L264.49,151.01L275.51,146.54L286.53,140.29L297.55,133.77L308.57,128.85L319.59,123.7L330.61,119.5L352.65,110.14L363.67,106.44L396.73,95.55L407.76,90.69L418.78,87.87L429.8,83.67L451.84,75.02L462.86,73.53L473.88,70.35L484.9,65.76L495.92,64.13L506.94,60.71L517.96,56.66L528.98,54.54L540,51.5" style="vector-effect: non-scaling-stroke; fill: none; stroke: rgb(0, 191, 125); stroke-opacity: 1; stroke-width: 2px; opacity: 1;"/></g><g class="points"/><g class="text"/></g><g class="trace scatter trace20890e" style="stroke-miterlimit: 2; opacity: 1;"><g class="fills"/><g class="errorbars"/><g class="lines"><path class="js-line" d="M0,302.19L11.02,298.4L22.04,296.7L55.1,291.14L66.12,289.78L77.14,287.3L88.16,280.73L99.18,276.13L110.2,265.68L121.22,257.73L132.24,246.95L154.29,225.21L165.31,215.96L187.35,194.9L198.37,188.32L209.39,179.32L220.41,172.13L242.45,158.9L253.47,150.98L264.49,145.74L275.51,139.41L286.53,133.4L297.55,126.37L363.67,99.66L374.69,94.43L385.71,89.78L396.73,86.07L418.78,77.75L429.8,74.76L462.86,64.58L473.88,62.03L506.94,50.65L517.96,50.44L528.98,46.48L540,43.52" style="vector-effect: non-scaling-stroke; fill: none; stroke: rgb(0, 176, 246); stroke-opacity: 1; stroke-width: 2px; opacity: 1;"/></g><g class="points"/><g class="text"/></g><g class="trace scatter trace759025" style="stroke-miterlimit: 2; opacity: 1;"><g class="fills"/><g class="errorbars"/><g class="lines"><path class="js-line" d="M0,302.19L11.02,298.4L22.04,296.7L55.1,291.14L66.12,289.78L77.14,287.3L88.16,280.73L99.18,276.13L110.2,265.68L121.22,257.73L132.24,246.95L154.29,225.21L165.31,215.96L187.35,194.9L198.37,188.32L209.39,179.32L220.41,172.13L242.45,158.9L253.47,150.98L264.49,145.74L275.51,139.41L286.53,133.4L297.55,126.37L363.67,99.66L374.69,94.43L385.71,89.78L396.73,86.07L418.78,77.75L429.8,74.76L462.86,64.58L473.88,62.03L506.94,50.65L517.96,50.44L528.98,46.48L540,43.52" style="vector-effect: non-scaling-stroke; fill: none; stroke: rgb(231, 107, 243); stroke-opacity: 1; stroke-width: 2px; opacity: 1;"/></g><g class="points"/><g class="text"/></g><g class="trace scatter tracecbe1a1" style="stroke-miterlimit: 2; opacity: 1;"><g class="fills"/><g class="errorbars"/><g class="lines"><path class="js-line" d="M0,303.36L11.02,298.21L22.04,297.02L33.06,294.55L44.08,293.83L66.12,289.04L77.14,284.4L88.16,278.67L99.18,268.5L110.2,257.5L121.22,248.67L132.24,235.05L143.27,224.34L154.29,212.54L165.31,203.04L187.35,181.27L198.37,173.78L209.39,162.64L220.41,153.31L242.45,139.08L253.47,130.89L264.49,125.76L275.51,116.5L297.55,104.63L308.57,99.9L319.59,93.88L330.61,86.72L341.63,80.88L352.65,77.28L363.67,71.45L374.69,67.09L385.71,61.9L396.73,58.22L407.76,53.23L418.78,50.71L440.82,42.17L451.84,39.32L462.86,37.64L473.88,33.38L484.9,30.97L495.92,27.14L506.94,26.94L517.96,22.93L528.98,22.62L540,20.66" style="vector-effect: non-scaling-stroke; fill: none; stroke: rgb(248, 118, 109); stroke-opacity: 1; stroke-width: 2px; opacity: 1;"/></g><g class="points"/><g class="text"/></g><g class="trace scatter trace95813b" style="stroke-miterlimit: 2; opacity: 1;"><g class="fills"/><g class="errorbars"/><g class="lines"><path class="js-line" d="M0,303.36L11.02,298.21L22.04,297.02L33.06,294.55L44.08,293.83L66.12,289.04L77.14,284.4L88.16,278.67L99.18,268.5L110.2,257.5L121.22,248.67L132.24,235.05L143.27,224.34L154.29,212.54L165.31,203.04L187.35,181.27L198.37,173.78L209.39,162.64L220.41,153.31L242.45,139.08L253.47,130.89L264.49,125.76L275.51,116.5L297.55,104.63L308.57,99.9L319.59,93.88L330.61,86.72L341.63,80.88L352.65,77.28L363.67,71.45L374.69,67.09L385.71,61.9L396.73,58.22L407.76,53.23L418.78,50.71L440.82,42.17L451.84,39.32L462.86,37.64L473.88,33.38L484.9,30.97L495.92,27.14L506.94,26.94L517.96,22.93L528.98,22.62L540,20.66" style="vector-effect: non-scaling-stroke; fill: none; stroke: rgb(163, 165, 0); stroke-opacity: 1; stroke-width: 2px; opacity: 1;"/></g><g class="points"/><g class="text"/></g><g class="trace scatter trace5c6179" style="stroke-miterlimit: 2; opacity: 1;"><g class="fills"/><g class="errorbars"/><g class="lines"><path class="js-line" d="M0,302.11L11.02,298.64L22.04,296.37L55.1,291.98L66.12,289.27L77.14,283.97L88.16,276.68L99.18,268.62L110.2,259.3L132.24,236.32L143.27,221.47L154.29,209.76L165.31,201.2L187.35,180.53L198.37,172.61L209.39,162.58L220.41,154.57L242.45,140.86L253.47,130.92L264.49,123.67L275.51,118.93L286.53,111.84L297.55,106.4L308.57,100.06L319.59,95.23L330.61,88.55L341.63,84.84L352.65,80.52L363.67,75.04L374.69,70.24L385.71,66.56L396.73,62.66L407.76,57.7L418.78,56.29L429.8,51.4L462.86,42.28L473.88,40.75L484.9,37.1L495.92,35.2L506.94,32.17L517.96,32.25L540,25.71" style="vector-effect: non-scaling-stroke; fill: none; stroke: rgb(0, 191, 125); stroke-opacity: 1; stroke-width: 2px; opacity: 1;"/></g><g class="points"/><g class="text"/></g><g class="trace scatter trace1940f7" style="stroke-miterlimit: 2; opacity: 1;"><g class="fills"/><g class="errorbars"/><g class="lines"><path class="js-line" d="M0,302.11L11.02,298.64L22.04,296.37L55.1,291.98L66.12,289.27L77.14,283.97L88.16,276.68L99.18,268.62L110.2,259.3L132.24,236.32L143.27,221.47L154.29,209.76L165.31,201.2L187.35,180.53L198.37,172.61L209.39,162.58L220.41,154.57L242.45,140.86L253.47,130.92L264.49,123.67L275.51,118.93L286.53,111.84L297.55,106.4L308.57,100.06L319.59,95.23L330.61,88.55L341.63,84.84L352.65,80.52L363.67,75.04L374.69,70.24L385.71,66.56L396.73,62.66L407.76,57.7L418.78,56.29L429.8,51.4L462.86,42.28L473.88,40.75L484.9,37.1L495.92,35.2L506.94,32.17L517.96,32.25L540,25.71" style="vector-effect: non-scaling-stroke; fill: none; stroke: rgb(0, 176, 246); stroke-opacity: 1; stroke-width: 2px; opacity: 1;"/></g><g class="points"/><g class="text"/></g><g class="trace scatter trace0da887" style="stroke-miterlimit: 2; opacity: 1;"><g class="fills"/><g class="errorbars"/><g class="lines"><path class="js-line" d="M0,302.34L11.02,297.63L22.04,295.91L55.1,292.48L66.12,288.91L77.14,287.33L88.16,284.04L99.18,277.61L110.2,269.49L132.24,252.49L143.27,240.65L176.33,213.42L187.35,205.33L198.37,195.64L209.39,187.4L242.45,166.62L253.47,161.61L264.49,153.73L275.51,148.88L286.53,142.74L297.55,138.71L308.57,131.49L319.59,126.33L330.61,121.59L341.63,115.37L352.65,113.3L363.67,108.83L374.69,102.85L385.71,98.69L407.76,89.87L418.78,84.66L429.8,82.26L440.82,77.25L451.84,75.86L462.86,70.75L506.94,57.87L517.96,52.93L540,48.58" style="vector-effect: non-scaling-stroke; fill: none; stroke: rgb(231, 107, 243); stroke-opacity: 1; stroke-width: 2px; opacity: 1;"/></g><g class="points"/><g class="text"/></g><g class="trace scatter traceb16ca7" style="stroke-miterlimit: 2; opacity: 1;"><g class="fills"/><g class="errorbars"/><g class="lines"><path class="js-line" d="M0,302.34L11.02,297.63L22.04,295.91L55.1,292.48L66.12,288.91L77.14,287.33L88.16,284.04L99.18,277.61L110.2,269.49L132.24,252.49L143.27,240.65L176.33,213.42L187.35,205.33L198.37,195.64L209.39,187.4L242.45,166.62L253.47,161.61L264.49,153.73L275.51,148.88L286.53,142.74L297.55,138.71L308.57,131.49L319.59,126.33L330.61,121.59L341.63,115.37L352.65,113.3L363.67,108.83L374.69,102.85L385.71,98.69L407.76,89.87L418.78,84.66L429.8,82.26L440.82,77.25L451.84,75.86L462.86,70.75L506.94,57.87L517.96,52.93L540,48.58" style="vector-effect: non-scaling-stroke; fill: none; stroke: rgb(248, 118, 109); stroke-opacity: 1; stroke-width: 2px; opacity: 1;"/></g><g class="points"/><g class="text"/></g><g class="trace scatter traced9f762" style="stroke-miterlimit: 2; opacity: 1;"><g class="fills"/><g class="errorbars"/><g class="lines"><path class="js-line" d="M0,301.67L11.02,298.24L22.04,296.2L55.1,290.42L66.12,288.72L77.14,283.9L88.16,280.12L110.2,263.27L121.22,250.67L132.24,239.62L143.27,229.74L154.29,218.43L165.31,208.42L187.35,191.79L198.37,182.19L209.39,175.39L220.41,167.36L231.43,160.52L242.45,155.4L253.47,148.27L264.49,142.21L286.53,129.71L297.55,125.03L330.61,109.1L341.63,102.84L352.65,100.25L363.67,93.8L396.73,82.38L407.76,77.69L418.78,75.01L429.8,71.2L451.84,65.63L462.86,60.95L473.88,59.17L484.9,56.57L506.94,49.68L517.96,46.5L528.98,45.27L540,41.23" style="vector-effect: non-scaling-stroke; fill: none; stroke: rgb(163, 165, 0); stroke-opacity: 1; stroke-width: 2px; opacity: 1;"/></g><g class="points"/><g class="text"/></g><g class="trace scatter trace2fe1ad" style="stroke-miterlimit: 2; opacity: 1;"><g class="fills"/><g class="errorbars"/><g class="lines"><path class="js-line" d="M0,301.67L11.02,298.24L22.04,296.2L55.1,290.42L66.12,288.72L77.14,283.9L88.16,280.12L110.2,263.27L121.22,250.67L132.24,239.62L143.27,229.74L154.29,218.43L165.31,208.42L187.35,191.79L198.37,182.19L209.39,175.39L220.41,167.36L231.43,160.52L242.45,155.4L253.47,148.27L264.49,142.21L286.53,129.71L297.55,125.03L330.61,109.1L341.63,102.84L352.65,100.25L363.67,93.8L396.73,82.38L407.76,77.69L418.78,75.01L429.8,71.2L451.84,65.63L462.86,60.95L473.88,59.17L484.9,56.57L506.94,49.68L517.96,46.5L528.98,45.27L540,41.23" style="vector-effect: non-scaling-stroke; fill: none; stroke: rgb(0, 191, 125); stroke-opacity: 1; stroke-width: 2px; opacity: 1;"/></g><g class="points"/><g class="text"/></g><g class="trace scatter trace50fcf1" style="stroke-miterlimit: 2; opacity: 1;"><g class="fills"/><g class="errorbars"/><g class="lines"><path class="js-line" d="M0,302.92L11.02,299.18L22.04,296.86L44.08,293.94L55.1,291.75L66.12,289.23L77.14,285.29L88.16,278.84L99.18,270.7L110.2,260.68L121.22,248.68L132.24,240L143.27,227.36L165.31,207.04L176.33,198.91L187.35,188.91L198.37,182.36L209.39,175.75L220.41,167.91L242.45,154.31L253.47,148.31L264.49,140.16L275.51,136.73L286.53,132.36L297.55,126.69L319.59,116.47L330.61,113.01L341.63,107.82L352.65,103.87L407.76,84.05L418.78,81.34L451.84,70.79L462.86,66.18L473.88,63.24L484.9,61.55L506.94,54.44L517.96,53.64L528.98,51.31L540,46.28" style="vector-effect: non-scaling-stroke; fill: none; stroke: rgb(0, 176, 246); stroke-opacity: 1; stroke-width: 2px; opacity: 1;"/></g><g class="points"/><g class="text"/></g><g class="trace scatter tracebde1f9" style="stroke-miterlimit: 2; opacity: 1;"><g class="fills"/><g class="errorbars"/><g class="lines"><path class="js-line" d="M0,302.92L11.02,299.18L22.04,296.86L44.08,293.94L55.1,291.75L66.12,289.23L77.14,285.29L88.16,278.84L99.18,270.7L110.2,260.68L121.22,248.68L132.24,240L143.27,227.36L165.31,207.04L176.33,198.91L187.35,188.91L198.37,182.36L209.39,175.75L220.41,167.91L242.45,154.31L253.47,148.31L264.49,140.16L275.51,136.73L286.53,132.36L297.55,126.69L319.59,116.47L330.61,113.01L341.63,107.82L352.65,103.87L407.76,84.05L418.78,81.34L451.84,70.79L462.86,66.18L473.88,63.24L484.9,61.55L506.94,54.44L517.96,53.64L528.98,51.31L540,46.28" style="vector-effect: non-scaling-stroke; fill: none; stroke: rgb(231, 107, 243); stroke-opacity: 1; stroke-width: 2px; opacity: 1;"/></g><g class="points"/><g class="text"/></g><g class="trace scatter traced5f2ec" style="stroke-miterlimit: 2; opacity: 1;"><g class="fills"/><g class="errorbars"/><g class="lines"><path class="js-line" d="M0,302.99L11.02,297.97L22.04,297.5L44.08,295.43L55.1,292.18L77.14,284.15L88.16,276.29L99.18,267.26L110.2,253.38L121.22,242.88L132.24,227.56L143.27,216.91L154.29,204.82L165.31,193.44L176.33,184.16L198.37,164.71L209.39,157.63L220.41,147.45L231.43,142.78L253.47,126.86L264.49,122.41L275.51,117.64L286.53,110.9L319.59,93.14L330.61,89.65L341.63,83.16L352.65,80.21L363.67,75.53L374.69,72.15L385.71,68.55L396.73,63.59L407.76,60.91L418.78,55.88L429.8,53.83L440.82,50.25L462.86,43.49L473.88,41.54L495.92,35.6L506.94,32.56L517.96,32.8L528.98,29.34L540,26.42" style="vector-effect: non-scaling-stroke; fill: none; stroke: rgb(248, 118, 109); stroke-opacity: 1; stroke-width: 2px; opacity: 1;"/></g><g class="points"/><g class="text"/></g><g class="trace scatter trace437ed5" style="stroke-miterlimit: 2; opacity: 1;"><g class="fills"/><g class="errorbars"/><g class="lines"><path class="js-line" d="M0,302.99L11.02,297.97L22.04,297.5L44.08,295.43L55.1,292.18L77.14,284.15L88.16,276.29L99.18,267.26L110.2,253.38L121.22,242.88L132.24,227.56L143.27,216.91L154.29,204.82L165.31,193.44L176.33,184.16L198.37,164.71L209.39,157.63L220.41,147.45L231.43,142.78L253.47,126.86L264.49,122.41L275.51,117.64L286.53,110.9L319.59,93.14L330.61,89.65L341.63,83.16L352.65,80.21L363.67,75.53L374.69,72.15L385.71,68.55L396.73,63.59L407.76,60.91L418.78,55.88L429.8,53.83L440.82,50.25L462.86,43.49L473.88,41.54L495.92,35.6L506.94,32.56L517.96,32.8L528.98,29.34L540,26.42" style="vector-effect: non-scaling-stroke; fill: none; stroke: rgb(163, 165, 0); stroke-opacity: 1; stroke-width: 2px; opacity: 1;"/></g><g class="points"/><g class="text"/></g><g class="trace scatter tracecdf738" style="stroke-miterlimit: 2; opacity: 1;"><g class="fills"/><g class="errorbars"/><g class="lines"><path class="js-line" d="M0,301.8L22.04,295.9L33.06,294.63L44.08,294.9L55.1,291.64L66.12,289.56L77.14,285.81L88.16,281.97L99.18,274.47L121.22,252.86L132.24,241.65L143.27,231.89L154.29,218.29L165.31,209.57L176.33,199.14L187.35,187.69L198.37,180.11L220.41,162.87L231.43,155.18L253.47,138.65L264.49,132.33L275.51,126.48L286.53,119.75L297.55,112.7L308.57,107.59L319.59,101.72L330.61,94.99L352.65,84.86L363.67,78.74L374.69,73.88L385.71,70.28L407.76,59.87L418.78,56.46L429.8,50.86L440.82,48.02L451.84,43.24L462.86,41.5L473.88,36.63L484.9,33.57L495.92,30.96L506.94,29.68L517.96,26.95L528.98,23.19L540,21.93" style="vector-effect: non-scaling-stroke; fill: none; stroke: rgb(0, 191, 125); stroke-opacity: 1; stroke-width: 2px; opacity: 1;"/></g><g class="points"/><g class="text"/></g><g class="trace scatter traceb42305" style="stroke-miterlimit: 2; opacity: 1;"><g class="fills"/><g class="errorbars"/><g class="lines"><path class="js-line" d="M0,301.8L22.04,295.9L33.06,294.63L44.08,294.9L55.1,291.64L66.12,289.56L77.14,285.81L88.16,281.97L99.18,274.47L121.22,252.86L132.24,241.65L143.27,231.89L154.29,218.29L165.31,209.57L176.33,199.14L187.35,187.69L198.37,180.11L220.41,162.87L231.43,155.18L253.47,138.65L264.49,132.33L275.51,126.48L286.53,119.75L297.55,112.7L308.57,107.59L319.59,101.72L330.61,94.99L352.65,84.86L363.67,78.74L374.69,73.88L385.71,70.28L407.76,59.87L418.78,56.46L429.8,50.86L440.82,48.02L451.84,43.24L462.86,41.5L473.88,36.63L484.9,33.57L495.92,30.96L506.94,29.68L517.96,26.95L528.98,23.19L540,21.93" style="vector-effect: non-scaling-stroke; fill: none; stroke: rgb(0, 176, 246); stroke-opacity: 1; stroke-width: 2px; opacity: 1;"/></g><g class="points"/><g class="text"/></g><g class="trace scatter trace449325" style="stroke-miterlimit: 2; opacity: 1;"><g class="fills"/><g class="errorbars"/><g class="lines"><path class="js-line" d="M0,303.11L11.02,298.63L22.04,297.32L55.1,292.2L66.12,289.28L88.16,278.95L99.18,270L132.24,238.61L143.27,225.11L165.31,206.03L176.33,194.02L187.35,186.54L198.37,175.33L209.39,166.37L220.41,158.62L231.43,150.49L242.45,143.6L253.47,133.61L264.49,126.25L275.51,121.74L286.53,113.07L308.57,99.57L319.59,95.05L330.61,87.72L341.63,83.56L352.65,78.41L363.67,71.93L396.73,57.2L407.76,54.42L429.8,46.6L440.82,43.72L451.84,41.08L462.86,36.35L473.88,34.12L484.9,30.88L506.94,25.34L517.96,24.56L540,21.45" style="vector-effect: non-scaling-stroke; fill: none; stroke: rgb(231, 107, 243); stroke-opacity: 1; stroke-width: 2px; opacity: 1;"/></g><g class="points"/><g class="text"/></g><g class="trace scatter trace31fb75" style="stroke-miterlimit: 2; opacity: 1;"><g class="fills"/><g class="errorbars"/><g class="lines"><path class="js-line" d="M0,303.11L11.02,298.63L22.04,297.32L55.1,292.2L66.12,289.28L88.16,278.95L99.18,270L132.24,238.61L143.27,225.11L165.31,206.03L176.33,194.02L187.35,186.54L198.37,175.33L209.39,166.37L220.41,158.62L231.43,150.49L242.45,143.6L253.47,133.61L264.49,126.25L275.51,121.74L286.53,113.07L308.57,99.57L319.59,95.05L330.61,87.72L341.63,83.56L352.65,78.41L363.67,71.93L396.73,57.2L407.76,54.42L429.8,46.6L440.82,43.72L451.84,41.08L462.86,36.35L473.88,34.12L484.9,30.88L506.94,25.34L517.96,24.56L540,21.45" style="vector-effect: non-scaling-stroke; fill: none; stroke: rgb(248, 118, 109); stroke-opacity: 1; stroke-width: 2px; opacity: 1;"/></g><g class="points"/><g class="text"/></g><g class="trace scatter tracee68b7d" style="stroke-miterlimit: 2; opacity: 1;"><g class="fills"/><g class="errorbars"/><g class="lines"><path class="js-line" d="M0,302.01L11.02,297.77L22.04,297.54L33.06,296.7L44.08,293.3L55.1,292.67L66.12,290.84L77.14,287.87L88.16,281.89L99.18,277.77L110.2,269.77L121.22,257.39L132.24,249.24L143.27,240.4L154.29,228.55L165.31,218.78L176.33,207.9L220.41,175.6L231.43,168.8L242.45,160.69L253.47,155.11L264.49,146.5L275.51,142.14L286.53,134.26L297.55,129.2L319.59,117.78L330.61,113.48L341.63,107.07L352.65,103.19L363.67,97.11L374.69,93.64L385.71,90.21L396.73,84.72L407.76,81.15L418.78,74.91L429.8,72.85L440.82,68L451.84,65.34L462.86,60.08L473.88,57.14L484.9,55.16L506.94,47.45L517.96,46.07L528.98,41.84L540,41.05" style="vector-effect: non-scaling-stroke; fill: none; stroke: rgb(163, 165, 0); stroke-opacity: 1; stroke-width: 2px; opacity: 1;"/></g><g class="points"/><g class="text"/></g><g class="trace scatter trace347fe0" style="stroke-miterlimit: 2; opacity: 1;"><g class="fills"/><g class="errorbars"/><g class="lines"><path class="js-line" d="M0,302.01L11.02,297.77L22.04,297.54L33.06,296.7L44.08,293.3L55.1,292.67L66.12,290.84L77.14,287.87L88.16,281.89L99.18,277.77L110.2,269.77L121.22,257.39L132.24,249.24L143.27,240.4L154.29,228.55L165.31,218.78L176.33,207.9L220.41,175.6L231.43,168.8L242.45,160.69L253.47,155.11L264.49,146.5L275.51,142.14L286.53,134.26L297.55,129.2L319.59,117.78L330.61,113.48L341.63,107.07L352.65,103.19L363.67,97.11L374.69,93.64L385.71,90.21L396.73,84.72L407.76,81.15L418.78,74.91L429.8,72.85L440.82,68L451.84,65.34L462.86,60.08L473.88,57.14L484.9,55.16L506.94,47.45L517.96,46.07L528.98,41.84L540,41.05" style="vector-effect: non-scaling-stroke; fill: none; stroke: rgb(0, 191, 125); stroke-opacity: 1; stroke-width: 2px; opacity: 1;"/></g><g class="points"/><g class="text"/></g><g class="trace scatter trace290a34" style="stroke-miterlimit: 2; opacity: 1;"><g class="fills"/><g class="errorbars"/><g class="lines"><path class="js-line" d="M0,302.67L11.02,297.59L22.04,295.99L44.08,293.98L55.1,291.48L66.12,289.51L77.14,284.88L88.16,278.78L99.18,270.51L110.2,260.48L121.22,248.42L143.27,223.14L154.29,214.06L165.31,202.26L176.33,192.18L187.35,183.9L198.37,172.34L220.41,157.63L231.43,149.56L253.47,135.05L264.49,129.28L286.53,114.65L297.55,109.63L308.57,103.92L319.59,99.08L341.63,89.48L352.65,84.8L363.67,81.69L374.69,75.95L396.73,66.67L407.76,64.55L429.8,55.92L440.82,53.03L451.84,49.39L462.86,46.81L484.9,40.19L495.92,37.8L540,26.89" style="vector-effect: non-scaling-stroke; fill: none; stroke: rgb(0, 176, 246); stroke-opacity: 1; stroke-width: 2px; opacity: 1;"/></g><g class="points"/><g class="text"/></g><g class="trace scatter trace124344" style="stroke-miterlimit: 2; opacity: 1;"><g class="fills"/><g class="errorbars"/><g class="lines"><path class="js-line" d="M0,302.67L11.02,297.59L22.04,295.99L44.08,293.98L55.1,291.48L66.12,289.51L77.14,284.88L88.16,278.78L99.18,270.51L110.2,260.48L121.22,248.42L143.27,223.14L154.29,214.06L165.31,202.26L176.33,192.18L187.35,183.9L198.37,172.34L220.41,157.63L231.43,149.56L253.47,135.05L264.49,129.28L286.53,114.65L297.55,109.63L308.57,103.92L319.59,99.08L341.63,89.48L352.65,84.8L363.67,81.69L374.69,75.95L396.73,66.67L407.76,64.55L429.8,55.92L440.82,53.03L451.84,49.39L462.86,46.81L484.9,40.19L495.92,37.8L540,26.89" style="vector-effect: non-scaling-stroke; fill: none; stroke: rgb(231, 107, 243); stroke-opacity: 1; stroke-width: 2px; opacity: 1;"/></g><g class="points"/><g class="text"/></g><g class="trace scatter traced8c8fd" style="stroke-miterlimit: 2; opacity: 1;"><g class="fills"/><g class="errorbars"/><g class="lines"><path class="js-line" d="M0,302.33L11.02,297.7L22.04,296.22L33.06,295.22L44.08,292.73L66.12,288.7L77.14,283.69L99.18,267.99L110.2,257.33L121.22,247.02L132.24,235.61L154.29,215.13L165.31,204.21L176.33,194.75L187.35,186.81L209.39,168.39L220.41,160.86L275.51,125.93L286.53,120.87L297.55,114.58L308.57,110.3L319.59,104.33L330.61,100.07L341.63,94.68L352.65,91.38L363.67,86.37L374.69,82.49L396.73,73.64L407.76,71.33L429.8,62.42L440.82,60.61L451.84,55.8L462.86,52.38L473.88,50.97L484.9,47.97L540,33.43" style="vector-effect: non-scaling-stroke; fill: none; stroke: rgb(248, 118, 109); stroke-opacity: 1; stroke-width: 2px; opacity: 1;"/></g><g class="points"/><g class="text"/></g><g class="trace scatter trace635876" style="stroke-miterlimit: 2; opacity: 1;"><g class="fills"/><g class="errorbars"/><g class="lines"><path class="js-line" d="M0,302.33L11.02,297.7L22.04,296.22L33.06,295.22L44.08,292.73L66.12,288.7L77.14,283.69L99.18,267.99L110.2,257.33L121.22,247.02L132.24,235.61L154.29,215.13L165.31,204.21L176.33,194.75L187.35,186.81L209.39,168.39L220.41,160.86L275.51,125.93L286.53,120.87L297.55,114.58L308.57,110.3L319.59,104.33L330.61,100.07L341.63,94.68L352.65,91.38L363.67,86.37L374.69,82.49L396.73,73.64L407.76,71.33L429.8,62.42L440.82,60.61L451.84,55.8L462.86,52.38L473.88,50.97L484.9,47.97L540,33.43" style="vector-effect: non-scaling-stroke; fill: none; stroke: rgb(163, 165, 0); stroke-opacity: 1; stroke-width: 2px; opacity: 1;"/></g><g class="points"/><g class="text"/></g><g class="trace scatter trace130441" style="stroke-miterlimit: 2; opacity: 1;"><g class="fills"/><g class="errorbars"/><g class="lines"><path class="js-line" d="M0,302.86L11.02,298.29L22.04,297.48L33.06,295.96L44.08,293.57L66.12,290.85L77.14,288.47L88.16,284.8L99.18,279.3L121.22,263.34L132.24,253.2L143.27,241.6L154.29,233.1L176.33,214.42L187.35,206.58L198.37,199.7L209.39,189.67L231.43,175.36L242.45,169.32L253.47,163.8L264.49,156.13L275.51,151.56L286.53,144.26L308.57,133.88L319.59,126.78L330.61,122.51L341.63,117.16L352.65,110.56L363.67,106.94L374.69,100.38L385.71,97.34L418.78,84.47L429.8,80.38L440.82,77.9L451.84,71.82L473.88,65.24L484.9,61.38L495.92,58.87L506.94,54.86L517.96,51.16L528.98,48.48L540,44.65" style="vector-effect: non-scaling-stroke; fill: none; stroke: rgb(0, 191, 125); stroke-opacity: 1; stroke-width: 2px; opacity: 1;"/></g><g class="points"/><g class="text"/></g><g class="trace scatter trace24433e" style="stroke-miterlimit: 2; opacity: 1;"><g class="fills"/><g class="errorbars"/><g class="lines"><path class="js-line" d="M0,302.86L11.02,298.29L22.04,297.48L33.06,295.96L44.08,293.57L66.12,290.85L77.14,288.47L88.16,284.8L99.18,279.3L121.22,263.34L132.24,253.2L143.27,241.6L154.29,233.1L176.33,214.42L187.35,206.58L198.37,199.7L209.39,189.67L231.43,175.36L242.45,169.32L253.47,163.8L264.49,156.13L275.51,151.56L286.53,144.26L308.57,133.88L319.59,126.78L330.61,122.51L341.63,117.16L352.65,110.56L363.67,106.94L374.69,100.38L385.71,97.34L418.78,84.47L429.8,80.38L440.82,77.9L451.84,71.82L473.88,65.24L484.9,61.38L495.92,58.87L506.94,54.86L517.96,51.16L528.98,48.48L540,44.65" style="vector-effect: non-scaling-stroke; fill: none; stroke: rgb(0, 176, 246); stroke-opacity: 1; stroke-width: 2px; opacity: 1;"/></g><g class="points"/><g class="text"/></g><g class="trace scatter trace3cf0af" style="stroke-miterlimit: 2; opacity: 1;"><g class="fills"/><g class="errorbars"/><g class="lines"><path class="js-line" d="M0,304L11.02,298.69L22.04,296.64L33.06,294.43L44.08,293.82L55.1,292.91L66.12,290.18L77.14,288.48L88.16,284.13L110.2,271.11L121.22,259.94L132.24,250.78L143.27,239.46L165.31,220.97L176.33,210.33L187.35,202.21L198.37,195.55L209.39,186.65L220.41,180.38L231.43,170.82L242.45,162.56L253.47,157.97L264.49,150.2L275.51,143.44L286.53,138.83L319.59,121.49L330.61,118.19L341.63,112.65L352.65,108.34L363.67,104.83L374.69,99.31L385.71,94.9L396.73,92.1L418.78,84.06L429.8,78.96L451.84,73.07L462.86,69.38L473.88,64.34L484.9,63.19L495.92,60.06L506.94,55.75L517.96,53.53L528.98,49.97L540,47.98" style="vector-effect: non-scaling-stroke; fill: none; stroke: rgb(231, 107, 243); stroke-opacity: 1; stroke-width: 2px; opacity: 1;"/></g><g class="points"/><g class="text"/></g><g class="trace scatter trace8f1fa4" style="stroke-miterlimit: 2; opacity: 1;"><g class="fills"/><g class="errorbars"/><g class="lines"><path class="js-line" d="M0,304L11.02,298.69L22.04,296.64L33.06,294.43L44.08,293.82L55.1,292.91L66.12,290.18L77.14,288.48L88.16,284.13L110.2,271.11L121.22,259.94L132.24,250.78L143.27,239.46L165.31,220.97L176.33,210.33L187.35,202.21L198.37,195.55L209.39,186.65L220.41,180.38L231.43,170.82L242.45,162.56L253.47,157.97L264.49,150.2L275.51,143.44L286.53,138.83L319.59,121.49L330.61,118.19L341.63,112.65L352.65,108.34L363.67,104.83L374.69,99.31L385.71,94.9L396.73,92.1L418.78,84.06L429.8,78.96L451.84,73.07L462.86,69.38L473.88,64.34L484.9,63.19L495.92,60.06L506.94,55.75L517.96,53.53L528.98,49.97L540,47.98" style="vector-effect: non-scaling-stroke; fill: none; stroke: rgb(248, 118, 109); stroke-opacity: 1; stroke-width: 2px; opacity: 1;"/></g><g class="points"/><g class="text"/></g><g class="trace scatter trace07ba28" style="stroke-miterlimit: 2; opacity: 1;"><g class="fills"/><g class="errorbars"/><g class="lines"><path class="js-line" d="M0,301.5L11.02,298.38L22.04,296.53L33.06,294.38L44.08,293.3L55.1,292.12L66.12,287.83L77.14,281.78L88.16,274.56L99.18,266.33L110.2,253.94L132.24,232.35L143.27,220.71L154.29,210.01L165.31,200.68L187.35,181.53L198.37,172.56L231.43,149.36L242.45,141.21L253.47,135.02L264.49,127.11L275.51,120.34L286.53,115.34L308.57,102.96L319.59,99.4L341.63,87.15L352.65,83.41L374.69,73.45L385.71,68.54L396.73,64.93L407.76,59.75L418.78,56.91L429.8,52.15L451.84,45.03L462.86,41.34L473.88,39.22L484.9,35.91L517.96,26.85L528.98,25.06L540,22.86" style="vector-effect: non-scaling-stroke; fill: none; stroke: rgb(163, 165, 0); stroke-opacity: 1; stroke-width: 2px; opacity: 1;"/></g><g class="points"/><g class="text"/></g><g class="trace scatter tracec17ef2" style="stroke-miterlimit: 2; opacity: 1;"><g class="fills"/><g class="errorbars"/><g class="lines"><path class="js-line" d="M0,301.5L11.02,298.38L22.04,296.53L33.06,294.38L44.08,293.3L55.1,292.12L66.12,287.83L77.14,281.78L88.16,274.56L99.18,266.33L110.2,253.94L132.24,232.35L143.27,220.71L154.29,210.01L165.31,200.68L187.35,181.53L198.37,172.56L231.43,149.36L242.45,141.21L253.47,135.02L264.49,127.11L275.51,120.34L286.53,115.34L308.57,102.96L319.59,99.4L341.63,87.15L352.65,83.41L374.69,73.45L385.71,68.54L396.73,64.93L407.76,59.75L418.78,56.91L429.8,52.15L451.84,45.03L462.86,41.34L473.88,39.22L484.9,35.91L517.96,26.85L528.98,25.06L540,22.86" style="vector-effect: non-scaling-stroke; fill: none; stroke: rgb(0, 191, 125); stroke-opacity: 1; stroke-width: 2px; opacity: 1;"/></g><g class="points"/><g class="text"/></g><g class="trace scatter trace327404" style="stroke-miterlimit: 2; opacity: 1;"><g class="fills"/><g class="errorbars"/><g class="lines"><path class="js-line" d="M0,302.31L11.02,297.22L22.04,296.8L44.08,294.88L55.1,292.29L66.12,288.04L77.14,282.85L88.16,276.3L99.18,267.42L110.2,256.6L121.22,244.08L143.27,221.65L154.29,212.43L187.35,183.18L198.37,175.99L220.41,158.68L231.43,152.14L264.49,131.61L275.51,127.11L286.53,120.34L297.55,115.32L308.57,110.16L319.59,106.9L330.61,101.5L341.63,97.26L374.69,84.66L385.71,81.75L396.73,79.32L407.76,74.72L418.78,69.76L429.8,67.4L440.82,64.61L451.84,60.15L462.86,56.4L473.88,54.26L495.92,47.82L506.94,43.93L517.96,42.1L528.98,38.9L540,35.65" style="vector-effect: non-scaling-stroke; fill: none; stroke: rgb(0, 176, 246); stroke-opacity: 1; stroke-width: 2px; opacity: 1;"/></g><g class="points"/><g class="text"/></g><g class="trace scatter trace9ad099" style="stroke-miterlimit: 2; opacity: 1;"><g class="fills"/><g class="errorbars"/><g class="lines"><path class="js-line" d="M0,302.31L11.02,297.22L22.04,296.8L44.08,294.88L55.1,292.29L66.12,288.04L77.14,282.85L88.16,276.3L99.18,267.42L110.2,256.6L121.22,244.08L143.27,221.65L154.29,212.43L187.35,183.18L198.37,175.99L220.41,158.68L231.43,152.14L264.49,131.61L275.51,127.11L286.53,120.34L297.55,115.32L308.57,110.16L319.59,106.9L330.61,101.5L341.63,97.26L374.69,84.66L385.71,81.75L396.73,79.32L407.76,74.72L418.78,69.76L429.8,67.4L440.82,64.61L451.84,60.15L462.86,56.4L473.88,54.26L495.92,47.82L506.94,43.93L517.96,42.1L528.98,38.9L540,35.65" style="vector-effect: non-scaling-stroke; fill: none; stroke: rgb(231, 107, 243); stroke-opacity: 1; stroke-width: 2px; opacity: 1;"/></g><g class="points"/><g class="text"/></g></g></g><g class="overplot"/><path class="xlines-above crisp" d="" style="fill: none; stroke-width: 1px; stroke: rgb(0, 0, 0); stroke-opacity: 0;"/><path class="ylines-above crisp" d="" style="fill: none; stroke-width: 1px; stroke: rgb(0, 0, 0); stroke-opacity: 0;"/><g class="overlines-above"/><g class="xaxislayer-above"><path class="xtick ticks crisp" d="M0,421v5" transform="translate(80,0)" style="stroke: rgb(51, 51, 51); stroke-opacity: 1; stroke-width: 1px;"/><path class="xtick ticks crisp" d="M0,421v5" transform="translate(190.2,0)" style="stroke: rgb(51, 51, 51); stroke-opacity: 1; stroke-width: 1px;"/><path class="xtick ticks crisp" d="M0,421v5" transform="translate(300.40999999999997,0)" style="stroke: rgb(51, 51, 51); stroke-opacity: 1; stroke-width: 1px;"/><path class="xtick ticks crisp" d="M0,421v5" transform="translate(410.61,0)" style="stroke: rgb(51, 51, 51); stroke-opacity: 1; stroke-width: 1px;"/><path class="xtick ticks crisp" d="M0,421v5" transform="translate(520.8199999999999,0)" style="stroke: rgb(51, 51, 51); stroke-opacity: 1; stroke-width: 1px;"/><g class="xtick"><text text-anchor="middle" x="0" y="440.4" transform="translate(80,0)" style="font-family: 'Open Sans', verdana, arial, sans-serif; font-size: 12px; fill: rgb(51, 51, 51); fill-opacity: 1; white-space: pre; opacity: 1;">0</text></g><g class="xtick"><text text-anchor="middle" x="0" y="440.4" style="font-family: 'Open Sans', verdana, arial, sans-serif; font-size: 12px; fill: rgb(51, 51, 51); fill-opacity: 1; white-space: pre; opacity: 1;" transform="translate(190.2,0)">10</text></g><g class="xtick"><text text-anchor="middle" x="0" y="440.4" style="font-family: 'Open Sans', verdana, arial, sans-serif; font-size: 12px; fill: rgb(51, 51, 51); fill-opacity: 1; white-space: pre; opacity: 1;" transform="translate(300.40999999999997,0)">20</text></g><g class="xtick"><text text-anchor="middle" x="0" y="440.4" style="font-family: 'Open Sans', verdana, arial, sans-serif; font-size: 12px; fill: rgb(51, 51, 51); fill-opacity: 1; white-space: pre; opacity: 1;" transform="translate(410.61,0)">30</text></g><g class="xtick"><text text-anchor="middle" x="0" y="440.4" style="font-family: 'Open Sans', verdana, arial, sans-serif; font-size: 12px; fill: rgb(51, 51, 51); fill-opacity: 1; white-space: pre; opacity: 1;" transform="translate(520.8199999999999,0)">40</text></g></g><g class="yaxislayer-above"><path class="ytick ticks crisp" d="M79,0h-5" transform="translate(0,384.46)" style="stroke: rgb(51, 51, 51); stroke-opacity: 1; stroke-width: 1px;"/><path class="ytick ticks crisp" d="M79,0h-5" transform="translate(0,340.21000000000004)" style="stroke: rgb(51, 51, 51); stroke-opacity: 1; stroke-width: 1px;"/><path class="ytick ticks crisp" d="M79,0h-5" transform="translate(0,295.96000000000004)" style="stroke: rgb(51, 51, 51); stroke-opacity: 1; stroke-width: 1px;"/><path class="ytick ticks crisp" d="M79,0h-5" transform="translate(0,251.71)" style="stroke: rgb(51, 51, 51); stroke-opacity: 1; stroke-width: 1px;"/><path class="ytick ticks crisp" d="M79,0h-5" transform="translate(0,207.45)" style="stroke: rgb(51, 51, 51); stroke-opacity: 1; stroke-width: 1px;"/><path class="ytick ticks crisp" d="M79,0h-5" transform="translate(0,163.2)" style="stroke: rgb(51, 51, 51); stroke-opacity: 1; stroke-width: 1px;"/><path class="ytick ticks crisp" d="M79,0h-5" transform="translate(0,118.95)" style="stroke: rgb(51, 51, 51); stroke-opacity: 1; stroke-width: 1px;"/><g class="ytick"><text text-anchor="end" x="71.6" y="4.199999999999999" transform="translate(0,384.46)" style="font-family: 'Open Sans', verdana, arial, sans-serif; font-size: 12px; fill: rgb(51, 51, 51); fill-opacity: 1; white-space: pre; opacity: 1;">0.3</text></g><g class="ytick"><text text-anchor="end" x="71.6" y="4.199999999999999" style="font-family: 'Open Sans', verdana, arial, sans-serif; font-size: 12px; fill: rgb(51, 51, 51); fill-opacity: 1; white-space: pre; opacity: 1;" transform="translate(0,340.21000000000004)">0.4</text></g><g class="ytick"><text text-anchor="end" x="71.6" y="4.199999999999999" style="font-family: 'Open Sans', verdana, arial, sans-serif; font-size: 12px; fill: rgb(51, 51, 51); fill-opacity: 1; white-space: pre; opacity: 1;" transform="translate(0,295.96000000000004)">0.5</text></g><g class="ytick"><text text-anchor="end" x="71.6" y="4.199999999999999" style="font-family: 'Open Sans', verdana, arial, sans-serif; font-size: 12px; fill: rgb(51, 51, 51); fill-opacity: 1; white-space: pre; opacity: 1;" transform="translate(0,251.71)">0.6</text></g><g class="ytick"><text text-anchor="end" x="71.6" y="4.199999999999999" style="font-family: 'Open Sans', verdana, arial, sans-serif; font-size: 12px; fill: rgb(51, 51, 51); fill-opacity: 1; white-space: pre; opacity: 1;" transform="translate(0,207.45)">0.7</text></g><g class="ytick"><text text-anchor="end" x="71.6" y="4.199999999999999" style="font-family: 'Open Sans', verdana, arial, sans-serif; font-size: 12px; fill: rgb(51, 51, 51); fill-opacity: 1; white-space: pre; opacity: 1;" transform="translate(0,163.2)">0.8</text></g><g class="ytick"><text text-anchor="end" x="71.6" y="4.199999999999999" style="font-family: 'Open Sans', verdana, arial, sans-serif; font-size: 12px; fill: rgb(51, 51, 51); fill-opacity: 1; white-space: pre; opacity: 1;" transform="translate(0,118.95)">0.9</text></g></g><g class="overaxes-above"/></g></g><g class="polarlayer"/><g class="ternarylayer"/><g class="geolayer"/><g class="funnelarealayer"/><g class="pielayer"/><g class="iciclelayer"/><g class="treemaplayer"/><g class="sunburstlayer"/><g class="glimages"/><defs id="topdefs-e0c55f"><g class="clips"/></defs><g class="layer-above"><g class="imagelayer"/><g class="shapelayer"/></g><g class="infolayer"><g class="g-gtitle"><text class="gtitle" x="350" y="50" text-anchor="middle" dy="0em" style="font-family: 'Open Sans', verdana, arial, sans-serif; font-size: 17px; fill: rgb(51, 51, 51); opacity: 1; font-weight: normal; white-space: pre;">Train Accuracy: ascad_v1_fk_0_noisy-aisy_mlp_hw (original)</text></g><g class="g-xtitle"/><g class="g-ytitle"/></g></svg>