<svg class="main-svg" xmlns="http://www.w3.org/2000/svg" xmlns:xlink="http://www.w3.org/1999/xlink" width="700" height="500" style="" viewBox="0 0 700 500"><rect x="0" y="0" width="700" height="500" style="fill: rgb(255, 255, 255); fill-opacity: 1;"/><defs id="defs-fb379a"><g class="clips"><clipPath id="clipfb379axyplot" class="plotclip"><rect width="540" height="320"/></clipPath><clipPath class="axesclip" id="clipfb379ax"><rect x="80" y="0" width="540" height="500"/></clipPath><clipPath class="axesclip" id="clipfb379ay"><rect x="0" y="100" width="700" height="320"/></clipPath><clipPath class="axesclip" id="clipfb379axy"><rect x="80" y="100" width="540" height="320"/></clipPath></g><g class="gradients"/><g class="patterns"/></defs><g class="bglayer"><rect class="bg" x="80" y="100" width="540" height="320" style="fill: rgb(237, 237, 237); fill-opacity: 1; stroke-width: 0;"/></g><g class="layer-below"><g class="imagelayer"/><g class="shapelayer"/></g><g class="cartesianlayer"><g class="subplot xy"><g class="layer-subplot"><g class="shapelayer"/><g class="imagelayer"/></g><g class="gridlayer"><g class="x"><path class="xgrid crisp" transform="translate(190.2,0)" d="M0,100v320" style="stroke: rgb(255, 255, 255); stroke-opacity: 1; stroke-width: 1px;"/><path class="xgrid crisp" transform="translate(300.40999999999997,0)" d="M0,100v320" style="stroke: rgb(255, 255, 255); stroke-opacity: 1; stroke-width: 1px;"/><path class="xgrid crisp" transform="translate(410.61,0)" d="M0,100v320" style="stroke: rgb(255, 255, 255); stroke-opacity: 1; stroke-width: 1px;"/><path class="xgrid crisp" transform="translate(520.8199999999999,0)" d="M0,100v320" style="stroke: rgb(255, 255, 255); stroke-opacity: 1; stroke-width: 1px;"/></g><g class="y"><path class="ygrid crisp" transform="translate(0,384.08)" d="M80,0h540" style="stroke: rgb(255, 255, 255); stroke-opacity: 1; stroke-width: 1px;"/><path class="ygrid crisp" transform="translate(0,345.44)" d="M80,0h540" style="stroke: rgb(255, 255, 255); stroke-opacity: 1; stroke-width: 1px;"/><path class="ygrid crisp" transform="translate(0,306.81)" d="M80,0h540" style="stroke: rgb(255, 255, 255); stroke-opacity: 1; stroke-width: 1px;"/><path class="ygrid crisp" transform="translate(0,268.16999999999996)" d="M80,0h540" style="stroke: rgb(255, 255, 255); stroke-opacity: 1; stroke-width: 1px;"/><path class="ygrid crisp" transform="translate(0,229.54)" d="M80,0h540" style="stroke: rgb(255, 255, 255); stroke-opacity: 1; stroke-width: 1px;"/><path class="ygrid crisp" transform="translate(0,190.9)" d="M80,0h540" style="stroke: rgb(255, 255, 255); stroke-opacity: 1; stroke-width: 1px;"/><path class="ygrid crisp" transform="translate(0,152.26)" d="M80,0h540" style="stroke: rgb(255, 255, 255); stroke-opacity: 1; stroke-width: 1px;"/><path class="ygrid crisp" transform="translate(0,113.63)" d="M80,0h540" style="stroke: rgb(255, 255, 255); stroke-opacity: 1; stroke-width: 1px;"/></g></g><g class="zerolinelayer"><path class="xzl zl crisp" transform="translate(80,0)" d="M0,100v320" style="stroke: rgb(255, 255, 255); stroke-opacity: 1; stroke-width: 1px;"/></g><path class="xlines-below"/><path class="ylines-below"/><g class="overlines-below"/><g class="xaxislayer-below"/><g class="yaxislayer-below"/><g class="overaxes-below"/><g class="plot" transform="translate(80,100)" clip-path="url(#clipfb379axyplot)"><g class="scatterlayer mlayer"><g class="trace scatter trace1bb2c8" style="stroke-miterlimit: 2; opacity: 1;"><g class="fills"/><g class="errorbars"/><g class="lines"><path class="js-line" d="M0,16.19L11.02,22.24L22.04,25.23L55.1,34.91L66.12,39.35L77.14,44.79L88.16,51.15L99.18,58.81L110.2,67.69L132.24,86.35L143.27,96.05L176.33,124.17L187.35,132.39L209.39,147.79L220.41,154.82L242.45,170.06L253.47,176.42L275.51,189.36L286.53,194.59L308.57,205.53L319.59,209.92L352.65,225.31L363.67,229.57L385.71,238.93L396.73,243L407.76,245.19L418.78,249.08L429.8,254.57L440.82,258.27L451.84,262.16L462.86,264.03L473.88,266.75L484.9,270.8L506.94,276.87L517.96,277.67L528.98,282.8L540,285.89" style="vector-effect: non-scaling-stroke; fill: none; stroke: rgb(248, 118, 109); stroke-opacity: 1; stroke-width: 2px; opacity: 1;"/></g><g class="points"/><g class="text"/></g><g class="trace scatter traced4372f" style="stroke-miterlimit: 2; opacity: 1;"><g class="fills"/><g class="errorbars"/><g class="lines"><path class="js-line" d="M0,16.44L11.02,22.38L22.04,25.17L44.08,30.99L55.1,34.79L77.14,44.42L88.16,50.89L110.2,67.42L121.22,76.75L143.27,97.3L154.29,106.52L176.33,125.32L187.35,132.96L198.37,142.52L209.39,149.85L220.41,157.27L231.43,163.75L242.45,168.88L253.47,176.82L297.55,199.62L308.57,205.41L319.59,210.93L330.61,214.84L341.63,219.09L352.65,224.32L374.69,233.25L385.71,236.82L396.73,241.67L407.76,245.2L418.78,250.03L429.8,253.29L451.84,261.51L462.86,264.66L473.88,265.83L484.9,269.29L495.92,273.04L506.94,274.75L517.96,277.92L528.98,280.06L540,282.39" style="vector-effect: non-scaling-stroke; fill: none; stroke: rgb(163, 165, 0); stroke-opacity: 1; stroke-width: 2px; opacity: 1;"/></g><g class="points"/><g class="text"/></g><g class="trace scatter trace6febb1" style="stroke-miterlimit: 2; opacity: 1;"><g class="fills"/><g class="errorbars"/><g class="lines"><path class="js-line" d="M0,16.68L11.02,22.34L22.04,25.6L33.06,28.37L44.08,32.05L55.1,35.49L66.12,40.69L88.16,54.17L99.18,64.02L110.2,73.15L121.22,85.04L154.29,119.14L165.31,129.55L176.33,139.67L187.35,147.58L209.39,164.93L220.41,172.57L242.45,187.36L253.47,193.23L264.49,199.2L275.51,206.07L286.53,210.88L297.55,216.72L308.57,224.04L319.59,228.9L341.63,238.83L352.65,244.93L363.67,246.91L374.69,252.96L396.73,262.11L407.76,265.62L418.78,268.73L429.8,273.53L451.84,281.63L462.86,283.13L484.9,290.56L495.92,293.29L506.94,298.18L517.96,299.15L528.98,300.58L540,303.15" style="vector-effect: non-scaling-stroke; fill: none; stroke: rgb(0, 191, 125); stroke-opacity: 1; stroke-width: 2px; opacity: 1;"/></g><g class="points"/><g class="text"/></g><g class="trace scatter trace81097c" style="stroke-miterlimit: 2; opacity: 1;"><g class="fills"/><g class="errorbars"/><g class="lines"><path class="js-line" d="M0,16.64L11.02,22.25L22.04,25.17L55.1,35.09L66.12,39.75L77.14,45.08L88.16,52.52L99.18,60.09L110.2,69.9L143.27,100.31L154.29,111.68L187.35,139.81L198.37,148.06L209.39,157.19L220.41,163.37L231.43,171.63L242.45,177.53L253.47,185.22L264.49,191.31L275.51,195.56L286.53,201.62L297.55,206.56L308.57,212.39L341.63,228.22L352.65,232.21L363.67,236.59L374.69,239.42L396.73,247.78L407.76,251.43L418.78,253.66L429.8,259.72L451.84,264.82L462.86,269.02L473.88,270.08L484.9,274.13L495.92,277.58L506.94,278.99L517.96,284.22L528.98,284.99L540,289.36" style="vector-effect: non-scaling-stroke; fill: none; stroke: rgb(0, 176, 246); stroke-opacity: 1; stroke-width: 2px; opacity: 1;"/></g><g class="points"/><g class="text"/></g><g class="trace scatter trace346c26" style="stroke-miterlimit: 2; opacity: 1;"><g class="fills"/><g class="errorbars"/><g class="lines"><path class="js-line" d="M0,16.45L11.02,22.33L22.04,25.21L44.08,31.16L55.1,34.93L66.12,39.35L77.14,45.13L99.18,59.46L110.2,68.16L121.22,78.1L132.24,89.15L165.31,121.66L176.33,130.51L187.35,140.43L198.37,148.36L209.39,157.15L220.41,164.97L231.43,173.38L242.45,180.06L264.49,193.5L275.51,198.71L286.53,206.37L297.55,211.85L308.57,215.59L319.59,221.86L330.61,226.32L341.63,232.55L363.67,241.65L374.69,244.63L385.71,249.67L396.73,252.9L418.78,260.43L429.8,261.01L440.82,266.45L451.84,269.43L462.86,271.85L473.88,276.34L484.9,278.82L495.92,282.32L517.96,285.85L528.98,289.65L540,292.05" style="vector-effect: non-scaling-stroke; fill: none; stroke: rgb(231, 107, 243); stroke-opacity: 1; stroke-width: 2px; opacity: 1;"/></g><g class="points"/><g class="text"/></g><g class="trace scatter tracef504e2" style="stroke-miterlimit: 2; opacity: 1;"><g class="fills"/><g class="errorbars"/><g class="lines"><path class="js-line" d="M0,16.54L11.02,22.08L22.04,25.24L44.08,30.46L55.1,34.2L66.12,38.06L77.14,43.69L88.16,49.54L99.18,56.55L121.22,71.89L132.24,81.17L154.29,99.34L165.31,107.5L176.33,114.91L187.35,124.26L220.41,146.99L231.43,152.84L242.45,160.86L253.47,166.96L286.53,183.94L297.55,191.38L308.57,194.14L319.59,199.37L341.63,209.31L352.65,212.82L363.67,216.68L374.69,221.93L407.76,235.85L418.78,239.12L451.84,250.18L462.86,256L484.9,261.45L495.92,265.93L540,277.97" style="vector-effect: non-scaling-stroke; fill: none; stroke: rgb(248, 118, 109); stroke-opacity: 1; stroke-width: 2px; opacity: 1;"/></g><g class="points"/><g class="text"/></g><g class="trace scatter trace1b5d70" style="stroke-miterlimit: 2; opacity: 1;"><g class="fills"/><g class="errorbars"/><g class="lines"><path class="js-line" d="M0,16.36L11.02,21.94L22.04,25.13L55.1,34.3L66.12,38.3L77.14,43.82L88.16,50.23L99.18,57.54L110.2,66.72L121.22,76.54L132.24,87.55L176.33,129.13L187.35,137.19L198.37,146.81L209.39,155.43L242.45,177.52L253.47,184.14L264.49,190.11L275.51,197.5L297.55,209.03L308.57,213.34L330.61,224.84L341.63,229.93L352.65,235.82L363.67,238.6L374.69,242.66L385.71,245.72L396.73,249.22L407.76,254.33L429.8,260.57L440.82,262.82L462.86,271.01L473.88,272.11L517.96,281.73L528.98,283.72L540,286.54" style="vector-effect: non-scaling-stroke; fill: none; stroke: rgb(163, 165, 0); stroke-opacity: 1; stroke-width: 2px; opacity: 1;"/></g><g class="points"/><g class="text"/></g><g class="trace scatter traced43c8b" style="stroke-miterlimit: 2; opacity: 1;"><g class="fills"/><g class="errorbars"/><g class="lines"><path class="js-line" d="M0,16.02L11.02,22.31L22.04,25.33L44.08,31.25L55.1,35.01L66.12,39.64L77.14,45.52L99.18,59.82L110.2,69.08L132.24,88.72L143.27,99.91L154.29,110.39L165.31,119.71L187.35,138.9L198.37,146.74L209.39,155.02L220.41,162.31L231.43,170.05L242.45,175.91L264.49,190.42L275.51,196.23L286.53,201.25L297.55,207.56L308.57,211.3L319.59,216.72L330.61,222.97L341.63,227.15L374.69,240.32L385.71,243.99L396.73,247.51L407.76,252.32L418.78,257.09L429.8,259.52L451.84,267.48L462.86,269.92L473.88,274.07L484.9,276.7L495.92,278.99L506.94,283.12L528.98,287.93L540,289.87" style="vector-effect: non-scaling-stroke; fill: none; stroke: rgb(0, 191, 125); stroke-opacity: 1; stroke-width: 2px; opacity: 1;"/></g><g class="points"/><g class="text"/></g><g class="trace scatter trace8f5638" style="stroke-miterlimit: 2; opacity: 1;"><g class="fills"/><g class="errorbars"/><g class="lines"><path class="js-line" d="M0,16.46L11.02,22.29L22.04,25.04L44.08,31.07L55.1,34.67L66.12,39.11L77.14,44.47L88.16,51.02L99.18,58.57L110.2,66.64L121.22,75.92L154.29,104.98L165.31,114.41L187.35,131.85L198.37,138.99L209.39,147.9L220.41,155.25L231.43,161.92L242.45,169.72L253.47,175.26L264.49,181.92L286.53,192.48L297.55,199.59L341.63,220.33L352.65,224.21L374.69,232.64L385.71,238.11L396.73,241.12L407.76,245.99L429.8,254.12L440.82,257.05L462.86,265.32L473.88,268.07L495.92,274.97L506.94,276.63L517.96,281.1L528.98,283.32L540,286.58" style="vector-effect: non-scaling-stroke; fill: none; stroke: rgb(0, 176, 246); stroke-opacity: 1; stroke-width: 2px; opacity: 1;"/></g><g class="points"/><g class="text"/></g><g class="trace scatter tracee58050" style="stroke-miterlimit: 2; opacity: 1;"><g class="fills"/><g class="errorbars"/><g class="lines"><path class="js-line" d="M0,16.61L11.02,22.21L22.04,25.3L44.08,30.94L55.1,34.7L77.14,43.72L88.16,49.9L110.2,64.47L121.22,73.88L143.27,92.23L154.29,101.48L165.31,111.22L176.33,118.62L198.37,136.91L209.39,144.08L220.41,152.03L231.43,156.91L253.47,169.3L264.49,174.47L286.53,186.94L297.55,191.55L308.57,195.23L319.59,200.39L330.61,202.77L341.63,207.6L352.65,211.47L363.67,216.86L374.69,219.88L385.71,223.79L429.8,238.03L440.82,240.35L451.84,244.51L462.86,244.93L473.88,251.41L484.9,253.33L495.92,255L506.94,258.67L517.96,260.78L528.98,264.17L540,266.93" style="vector-effect: non-scaling-stroke; fill: none; stroke: rgb(231, 107, 243); stroke-opacity: 1; stroke-width: 2px; opacity: 1;"/></g><g class="points"/><g class="text"/></g><g class="trace scatter trace16ace5" style="stroke-miterlimit: 2; opacity: 1;"><g class="fills"/><g class="errorbars"/><g class="lines"><path class="js-line" d="M0,16.13L11.02,22.21L22.04,25.08L44.08,31.11L55.1,34.84L66.12,39.38L77.14,45.02L88.16,51.1L99.18,59.3L110.2,67.28L121.22,76.33L154.29,103.09L165.31,113.29L187.35,131.2L198.37,139.56L209.39,147.45L220.41,153.73L231.43,162.01L242.45,168.76L264.49,181.14L275.51,188.26L297.55,199.89L308.57,204.27L319.59,210.94L330.61,214.03L341.63,221.11L352.65,225.13L363.67,229.53L374.69,235.07L385.71,239.38L396.73,241.7L407.76,247.2L418.78,250.46L462.86,264.75L473.88,268L495.92,274.15L506.94,278.39L517.96,279.48L528.98,284.67L540,285.72" style="vector-effect: non-scaling-stroke; fill: none; stroke: rgb(248, 118, 109); stroke-opacity: 1; stroke-width: 2px; opacity: 1;"/></g><g class="points"/><g class="text"/></g><g class="trace scatter tracebd391e" style="stroke-miterlimit: 2; opacity: 1;"><g class="fills"/><g class="errorbars"/><g class="lines"><path class="js-line" d="M0,16.71L11.02,22.36L22.04,25.24L44.08,31.14L55.1,34.36L77.14,43.57L88.16,49.99L110.2,66.32L121.22,75.84L132.24,85.75L143.27,96.82L187.35,134.8L198.37,142.54L220.41,157.22L231.43,163.89L253.47,177.65L264.49,182.19L275.51,189.29L286.53,194.01L297.55,200.64L308.57,204.49L352.65,223.95L363.67,226.56L374.69,232.24L385.71,235.71L407.76,242.61L418.78,247.56L429.8,248.49L440.82,252.4L451.84,253.81L462.86,258.66L484.9,266.05L495.92,267.65L517.96,273.83L528.98,275.77L540,278.33" style="vector-effect: non-scaling-stroke; fill: none; stroke: rgb(163, 165, 0); stroke-opacity: 1; stroke-width: 2px; opacity: 1;"/></g><g class="points"/><g class="text"/></g><g class="trace scatter trace1b1624" style="stroke-miterlimit: 2; opacity: 1;"><g class="fills"/><g class="errorbars"/><g class="lines"><path class="js-line" d="M0,16.74L11.02,22.28L22.04,25.61L44.08,31.01L55.1,35.12L66.12,39.61L77.14,45.07L88.16,51.71L99.18,59.55L110.2,68.46L121.22,78.73L132.24,87.79L143.27,98.25L165.31,116.1L176.33,125.44L220.41,156.02L231.43,162.22L264.49,181.94L275.51,187.01L286.53,193.17L297.55,198.41L308.57,202.74L319.59,208.58L363.67,228.29L374.69,229.79L385.71,235.6L396.73,239.47L407.76,243.91L418.78,246.72L451.84,256.51L462.86,261.02L495.92,270.74L506.94,273.75L517.96,277.58L528.98,278.42L540,283.56" style="vector-effect: non-scaling-stroke; fill: none; stroke: rgb(0, 191, 125); stroke-opacity: 1; stroke-width: 2px; opacity: 1;"/></g><g class="points"/><g class="text"/></g><g class="trace scatter trace032962" style="stroke-miterlimit: 2; opacity: 1;"><g class="fills"/><g class="errorbars"/><g class="lines"><path class="js-line" d="M0,16.4L11.02,22.41L22.04,25.36L44.08,31.13L55.1,34.76L77.14,42.8L88.16,48.82L110.2,63.98L121.22,72.99L132.24,83.61L143.27,92.73L154.29,102.96L165.31,110.8L176.33,120L187.35,126.71L198.37,135.08L209.39,141.12L220.41,147.62L231.43,153.17L242.45,159.55L253.47,164.61L264.49,170.44L275.51,173.93L297.55,184.23L308.57,187.95L319.59,192.86L330.61,195.13L341.63,200.51L352.65,204.4L363.67,208.69L374.69,211.51L385.71,213.87L396.73,218.06L407.76,219.82L418.78,224.11L451.84,233.38L462.86,234.62L473.88,238.53L484.9,239.02L528.98,247.81L540,251.73" style="vector-effect: non-scaling-stroke; fill: none; stroke: rgb(0, 176, 246); stroke-opacity: 1; stroke-width: 2px; opacity: 1;"/></g><g class="points"/><g class="text"/></g><g class="trace scatter tracee7ae18" style="stroke-miterlimit: 2; opacity: 1;"><g class="fills"/><g class="errorbars"/><g class="lines"><path class="js-line" d="M0,16.47L11.02,22.19L22.04,25.63L44.08,31.49L55.1,35.02L77.14,45.3L88.16,52.02L110.2,68.04L121.22,77.82L176.33,125.69L187.35,132.96L198.37,143.37L209.39,150.45L253.47,179.28L264.49,185.72L286.53,197.07L297.55,201.49L308.57,206.71L319.59,213.59L330.61,216.66L341.63,222.08L352.65,228.28L363.67,231.28L374.69,236.89L385.71,240.25L396.73,244.74L407.76,247.26L440.82,260.02L451.84,262.9L462.86,267.27L473.88,269.95L484.9,272.45L495.92,276.97L506.94,279.08L517.96,283.22L528.98,283.79L540,287.42" style="vector-effect: non-scaling-stroke; fill: none; stroke: rgb(231, 107, 243); stroke-opacity: 1; stroke-width: 2px; opacity: 1;"/></g><g class="points"/><g class="text"/></g><g class="trace scatter trace42651a" style="stroke-miterlimit: 2; opacity: 1;"><g class="fills"/><g class="errorbars"/><g class="lines"><path class="js-line" d="M0,16.59L11.02,22.2L22.04,25.19L44.08,31.06L55.1,35.08L66.12,39.26L77.14,44.53L88.16,51.41L99.18,60.15L110.2,69.45L121.22,80.18L132.24,89.82L143.27,100.89L154.29,111.81L165.31,120.86L187.35,141.55L198.37,149.95L220.41,167.49L231.43,174.98L242.45,183.34L253.47,189.18L264.49,196.44L275.51,202.76L286.53,210.41L297.55,216.34L308.57,221.89L319.59,228.28L330.61,232.44L341.63,237.51L352.65,243.98L363.67,247.8L374.69,250.7L385.71,256.01L396.73,259.92L407.76,264.65L418.78,266.91L429.8,271.85L440.82,276.37L451.84,277.86L473.88,284.76L484.9,286.85L495.92,290.9L506.94,292.58L528.98,297.04L540,298.92" style="vector-effect: non-scaling-stroke; fill: none; stroke: rgb(248, 118, 109); stroke-opacity: 1; stroke-width: 2px; opacity: 1;"/></g><g class="points"/><g class="text"/></g><g class="trace scatter trace34de1d" style="stroke-miterlimit: 2; opacity: 1;"><g class="fills"/><g class="errorbars"/><g class="lines"><path class="js-line" d="M0,16.6L11.02,22.52L22.04,25.5L55.1,34.55L66.12,39.22L88.16,50.54L99.18,58.13L121.22,76.75L132.24,87.18L143.27,96.08L154.29,107.44L187.35,135.64L198.37,144.2L209.39,152.4L220.41,158.93L231.43,166.5L242.45,172.97L253.47,180.29L264.49,186.54L275.51,193.52L286.53,196.59L319.59,213.17L330.61,216.59L352.65,226.51L363.67,229.97L374.69,232.22L385.71,237.52L418.78,249.45L429.8,252.04L440.82,257.29L451.84,258.58L462.86,263.84L473.88,264.28L484.9,268.8L495.92,270.49L506.94,274.08L517.96,276.61L528.98,279.96L540,282.22" style="vector-effect: non-scaling-stroke; fill: none; stroke: rgb(163, 165, 0); stroke-opacity: 1; stroke-width: 2px; opacity: 1;"/></g><g class="points"/><g class="text"/></g><g class="trace scatter tracefe753d" style="stroke-miterlimit: 2; opacity: 1;"><g class="fills"/><g class="errorbars"/><g class="lines"><path class="js-line" d="M0,16.66L11.02,22.4L22.04,25.24L44.08,31.35L55.1,35.38L77.14,46.39L88.16,53.84L99.18,62.2L110.2,72.33L132.24,93.68L143.27,105.86L165.31,128.15L176.33,138.02L187.35,147.62L198.37,156.04L209.39,164.54L220.41,171.83L231.43,181.4L242.45,187.79L264.49,200.54L275.51,207.42L330.61,235.02L341.63,241.13L352.65,244.86L363.67,250.97L374.69,254.4L385.71,258.77L396.73,264.08L407.76,268.27L418.78,271.68L429.8,276.18L440.82,278.41L451.84,283.41L462.86,284.64L473.88,290.05L484.9,291.49L495.92,294.51L517.96,297.5L528.98,301.7L540,302.96" style="vector-effect: non-scaling-stroke; fill: none; stroke: rgb(0, 191, 125); stroke-opacity: 1; stroke-width: 2px; opacity: 1;"/></g><g class="points"/><g class="text"/></g><g class="trace scatter trace7fc918" style="stroke-miterlimit: 2; opacity: 1;"><g class="fills"/><g class="errorbars"/><g class="lines"><path class="js-line" d="M0,16.71L11.02,22.28L22.04,25.34L44.08,31.6L55.1,35.34L77.14,45.99L88.16,53.41L99.18,60.75L110.2,69.96L165.31,119.05L176.33,128.93L187.35,137.53L198.37,144.57L220.41,160.21L231.43,167.17L242.45,174.35L253.47,180.62L275.51,192.23L286.53,199.08L297.55,205.31L308.57,209.33L319.59,215.86L330.61,220.46L341.63,226.17L352.65,229.63L363.67,236.57L374.69,239.5L385.71,242.48L396.73,246.89L407.76,251.11L418.78,253.92L429.8,259.15L440.82,261.9L462.86,266.74L473.88,271.11L484.9,272.39L495.92,275.17L506.94,276.81L517.96,280.32L540,285.5" style="vector-effect: non-scaling-stroke; fill: none; stroke: rgb(0, 176, 246); stroke-opacity: 1; stroke-width: 2px; opacity: 1;"/></g><g class="points"/><g class="text"/></g><g class="trace scatter tracee6ea4c" style="stroke-miterlimit: 2; opacity: 1;"><g class="fills"/><g class="errorbars"/><g class="lines"><path class="js-line" d="M0,16.55L11.02,21.92L22.04,25.1L55.1,34.78L66.12,39.46L77.14,45.21L88.16,52.01L110.2,68.69L121.22,79.24L143.27,98.85L154.29,109.02L176.33,128.5L187.35,136.83L209.39,153.68L220.41,160.83L242.45,174.88L253.47,180.45L275.51,194.83L286.53,199.36L297.55,206.54L308.57,211.61L319.59,218.3L330.61,223.25L352.65,232.77L363.67,237.55L385.71,245.47L396.73,249.88L418.78,257.05L429.8,261.9L440.82,265.29L451.84,269.72L484.9,277.41L495.92,281.1L517.96,286.71L528.98,288.18L540,291.18" style="vector-effect: non-scaling-stroke; fill: none; stroke: rgb(231, 107, 243); stroke-opacity: 1; stroke-width: 2px; opacity: 1;"/></g><g class="points"/><g class="text"/></g><g class="trace scatter trace1dc3b5" style="stroke-miterlimit: 2; opacity: 1;"><g class="fills"/><g class="errorbars"/><g class="lines"><path class="js-line" d="M0,16.5L11.02,22.18L22.04,25.15L44.08,30.29L55.1,33.29L77.14,41.34L88.16,47.13L110.2,60.31L121.22,67.72L176.33,109.21L187.35,117.14L198.37,126.45L209.39,132.46L231.43,147.91L242.45,154.19L275.51,171.76L286.53,176.35L297.55,182.32L308.57,187.43L319.59,192.09L330.61,195.92L352.65,205.88L363.67,209.22L385.71,218.37L396.73,221.44L407.76,226.35L418.78,229.66L429.8,234.29L440.82,237.31L451.84,239.67L462.86,245.89L473.88,246.17L484.9,248.86L506.94,257.02L517.96,257.95L540,265.06" style="vector-effect: non-scaling-stroke; fill: none; stroke: rgb(248, 118, 109); stroke-opacity: 1; stroke-width: 2px; opacity: 1;"/></g><g class="points"/><g class="text"/></g><g class="trace scatter traceea95b7" style="stroke-miterlimit: 2; opacity: 1;"><g class="fills"/><g class="errorbars"/><g class="lines"><path class="js-line" d="M0,16.37L11.02,22.08L22.04,25.28L44.08,31.08L55.1,34.53L66.12,38.5L77.14,43.61L88.16,49.97L99.18,57.32L121.22,74.32L132.24,84.82L143.27,94.89L154.29,103.68L176.33,123.33L187.35,132.63L220.41,155.5L231.43,163.21L275.51,189.35L286.53,194.79L308.57,207.49L319.59,212.25L330.61,219.13L341.63,223.29L396.73,248.17L407.76,251.01L440.82,261.14L451.84,265.04L462.86,269.88L473.88,270.8L484.9,274.89L495.92,276.96L506.94,281.14L517.96,281.93L528.98,285.94L540,287.6" style="vector-effect: non-scaling-stroke; fill: none; stroke: rgb(163, 165, 0); stroke-opacity: 1; stroke-width: 2px; opacity: 1;"/></g><g class="points"/><g class="text"/></g><g class="trace scatter trace3bb45e" style="stroke-miterlimit: 2; opacity: 1;"><g class="fills"/><g class="errorbars"/><g class="lines"><path class="js-line" d="M0,16.87L11.02,22.38L22.04,25.38L44.08,31.21L55.1,35.34L66.12,39.61L77.14,45.74L88.16,52.26L99.18,60.2L121.22,78.38L132.24,88.08L143.27,98.61L154.29,107.58L176.33,126.07L187.35,135.26L198.37,142.94L209.39,151.59L220.41,157.19L231.43,165.16L242.45,172.54L253.47,178.65L275.51,193.15L286.53,196.91L308.57,210.3L319.59,215.08L330.61,221.58L341.63,227.11L374.69,241.17L385.71,246.97L396.73,250.41L407.76,255.33L418.78,259.23L429.8,262L440.82,264.33L451.84,268.63L473.88,275.51L484.9,277.62L528.98,290.01L540,291.56" style="vector-effect: non-scaling-stroke; fill: none; stroke: rgb(0, 191, 125); stroke-opacity: 1; stroke-width: 2px; opacity: 1;"/></g><g class="points"/><g class="text"/></g><g class="trace scatter trace9a8282" style="stroke-miterlimit: 2; opacity: 1;"><g class="fills"/><g class="errorbars"/><g class="lines"><path class="js-line" d="M0,16.48L11.02,22.47L22.04,25.21L44.08,30.99L55.1,34.49L66.12,38.77L77.14,44.47L88.16,50.7L99.18,58.4L110.2,67.08L121.22,77.17L143.27,98.53L154.29,107.87L165.31,119.58L176.33,129.3L198.37,147.49L209.39,155.36L231.43,172.59L242.45,177.96L253.47,186.8L264.49,193.31L275.51,200.82L286.53,205.38L308.57,217.92L319.59,222.84L341.63,232.44L352.65,238.05L396.73,254.67L407.76,257.19L418.78,260.15L429.8,264.89L440.82,268.79L451.84,270.88L462.86,275.26L473.88,277.84L495.92,284.2L506.94,285.34L528.98,291.24L540,292.76" style="vector-effect: non-scaling-stroke; fill: none; stroke: rgb(0, 176, 246); stroke-opacity: 1; stroke-width: 2px; opacity: 1;"/></g><g class="points"/><g class="text"/></g><g class="trace scatter tracedcaab0" style="stroke-miterlimit: 2; opacity: 1;"><g class="fills"/><g class="errorbars"/><g class="lines"><path class="js-line" d="M0,16.2L11.02,22.34L22.04,25.23L44.08,30.67L55.1,34.61L77.14,44.26L88.16,50.35L99.18,57.68L110.2,66.33L143.27,93.79L154.29,102.89L176.33,119.85L187.35,127.27L198.37,135.3L209.39,142.02L220.41,147.13L231.43,154.53L253.47,165.42L264.49,171.05L286.53,181.21L297.55,188.22L308.57,191.21L319.59,196.67L330.61,201.86L341.63,205.82L352.65,211.99L363.67,215.28L374.69,220.12L385.71,223.87L429.8,240.56L440.82,242.61L451.84,245.78L462.86,249.84L495.92,260.49L506.94,263.52L517.96,268.27L528.98,269.53L540,271.49" style="vector-effect: non-scaling-stroke; fill: none; stroke: rgb(231, 107, 243); stroke-opacity: 1; stroke-width: 2px; opacity: 1;"/></g><g class="points"/><g class="text"/></g><g class="trace scatter trace8c05c4" style="stroke-miterlimit: 2; opacity: 1;"><g class="fills"/><g class="errorbars"/><g class="lines"><path class="js-line" d="M0,16.39L11.02,22.44L22.04,25.41L44.08,31.42L55.1,35.42L66.12,40.14L77.14,46.54L88.16,52.69L99.18,61.74L110.2,70.43L121.22,81.31L176.33,132.34L187.35,139.87L198.37,150L209.39,157.73L231.43,173.86L242.45,180.68L253.47,188.15L264.49,194.33L275.51,200.81L286.53,205.02L308.57,217.44L319.59,222.43L352.65,237.01L363.67,240.75L374.69,245.18L385.71,251.23L396.73,254.4L407.76,258.87L418.78,263.58L429.8,266.66L451.84,273.98L462.86,276.9L473.88,281.91L484.9,284.9L506.94,289.88L517.96,293.58L540,298.01" style="vector-effect: non-scaling-stroke; fill: none; stroke: rgb(248, 118, 109); stroke-opacity: 1; stroke-width: 2px; opacity: 1;"/></g><g class="points"/><g class="text"/></g><g class="trace scatter trace638604" style="stroke-miterlimit: 2; opacity: 1;"><g class="fills"/><g class="errorbars"/><g class="lines"><path class="js-line" d="M0,16.59L11.02,22.24L22.04,25.06L55.1,34.26L66.12,38.22L77.14,42.84L88.16,48.82L110.2,62.85L121.22,70.58L143.27,87.46L154.29,97.22L187.35,124.99L198.37,134.11L242.45,163.6L253.47,169.19L264.49,174.79L275.51,181.92L286.53,187.53L297.55,190.94L319.59,201.61L330.61,205.73L341.63,211.78L352.65,214.48L363.67,219.87L374.69,223.12L385.71,229.32L396.73,231.18L407.76,235.61L418.78,238.47L429.8,240.5L440.82,244.99L451.84,249.02L462.86,252.12L506.94,263.32L517.96,264.64L528.98,266.94L540,271.1" style="vector-effect: non-scaling-stroke; fill: none; stroke: rgb(163, 165, 0); stroke-opacity: 1; stroke-width: 2px; opacity: 1;"/></g><g class="points"/><g class="text"/></g><g class="trace scatter trace2ea85e" style="stroke-miterlimit: 2; opacity: 1;"><g class="fills"/><g class="errorbars"/><g class="lines"><path class="js-line" d="M0,16.61L11.02,22.3L22.04,24.98L55.1,34.67L66.12,38.91L88.16,50.73L99.18,59.06L110.2,67.6L121.22,77.46L154.29,109.01L165.31,119.4L187.35,137.76L198.37,145.32L209.39,154.52L220.41,161.75L253.47,183.59L264.49,190.07L275.51,193.94L286.53,200.59L319.59,218.48L330.61,222.75L352.65,231.87L363.67,237.62L374.69,241.74L385.71,247.5L396.73,250.89L407.76,256.51L418.78,257.5L429.8,262.05L440.82,266.58L451.84,268.95L462.86,273.1L473.88,276.41L484.9,278.45L495.92,281.94L506.94,284.73L517.96,288.71L528.98,290.41L540,292.94" style="vector-effect: non-scaling-stroke; fill: none; stroke: rgb(0, 191, 125); stroke-opacity: 1; stroke-width: 2px; opacity: 1;"/></g><g class="points"/><g class="text"/></g><g class="trace scatter trace9d28f4" style="stroke-miterlimit: 2; opacity: 1;"><g class="fills"/><g class="errorbars"/><g class="lines"><path class="js-line" d="M0,16.17L11.02,22.14L22.04,25.35L44.08,31.33L55.1,35.85L66.12,40.37L77.14,46.52L88.16,53.99L99.18,62.6L110.2,72.31L121.22,83.09L143.27,104.08L154.29,114.2L187.35,140.1L198.37,146.71L209.39,154.79L220.41,159.6L231.43,166.85L242.45,172.49L253.47,178.84L264.49,183.13L275.51,189.45L286.53,193.75L297.55,200.01L308.57,202.99L319.59,208.93L330.61,213.59L429.8,248.2L440.82,249.33L451.84,252.91L462.86,257.7L473.88,259.41L484.9,262.5L517.96,268.48L528.98,271.73L540,274.24" style="vector-effect: non-scaling-stroke; fill: none; stroke: rgb(0, 176, 246); stroke-opacity: 1; stroke-width: 2px; opacity: 1;"/></g><g class="points"/><g class="text"/></g><g class="trace scatter trace59589c" style="stroke-miterlimit: 2; opacity: 1;"><g class="fills"/><g class="errorbars"/><g class="lines"><path class="js-line" d="M0,16.73L11.02,22.2L22.04,25.55L33.06,28.34L44.08,31.93L55.1,35.48L66.12,40.69L88.16,53.38L99.18,62.57L143.27,101.94L154.29,112.68L176.33,129.95L187.35,139.92L209.39,154.67L220.41,161.67L231.43,169.26L242.45,175.28L253.47,181.46L264.49,188.76L275.51,192.94L286.53,200.01L297.55,205.01L308.57,210.99L330.61,220.75L341.63,225.53L352.65,231.53L363.67,235.95L374.69,239.36L385.71,244.85L418.78,256.89L429.8,261.8L451.84,268.14L462.86,272.52L495.92,282.84L506.94,286.94L517.96,288.04L528.98,292.53L540,293.67" style="vector-effect: non-scaling-stroke; fill: none; stroke: rgb(231, 107, 243); stroke-opacity: 1; stroke-width: 2px; opacity: 1;"/></g><g class="points"/><g class="text"/></g><g class="trace scatter trace5d1361" style="stroke-miterlimit: 2; opacity: 1;"><g class="fills"/><g class="errorbars"/><g class="lines"><path class="js-line" d="M0,16.59L11.02,22.36L22.04,25.29L44.08,31.59L55.1,35.38L77.14,46.01L88.16,52.68L99.18,60.34L110.2,70.1L121.22,80.85L132.24,93.54L154.29,117.25L165.31,126.68L198.37,156.27L209.39,164.14L220.41,171.28L231.43,179.82L242.45,186.02L253.47,194.28L264.49,201.85L275.51,207.83L297.55,220.59L308.57,225.78L319.59,230.32L330.61,235.84L363.67,248.43L374.69,254.98L385.71,257.51L396.73,262.65L418.78,272.4L429.8,275.7L451.84,283.44L462.86,285.89L473.88,289.74L484.9,291.19L506.94,297.27L517.96,298.58L528.98,301.87L540,304" style="vector-effect: non-scaling-stroke; fill: none; stroke: rgb(248, 118, 109); stroke-opacity: 1; stroke-width: 2px; opacity: 1;"/></g><g class="points"/><g class="text"/></g><g class="trace scatter traceefd38b" style="stroke-miterlimit: 2; opacity: 1;"><g class="fills"/><g class="errorbars"/><g class="lines"><path class="js-line" d="M0,16.44L11.02,22.26L22.04,25.05L55.1,34.7L66.12,38.92L88.16,50.47L99.18,57.82L121.22,75.01L132.24,84.76L143.27,95.51L154.29,103.68L187.35,131.53L198.37,139.62L220.41,154.42L231.43,162.95L242.45,168.67L253.47,175.94L275.51,189.63L286.53,195.96L308.57,207.47L319.59,211.86L341.63,221.64L352.65,228.43L363.67,232.93L374.69,236.25L385.71,241.12L396.73,244.81L407.76,249.82L418.78,253.17L440.82,261.19L451.84,264.84L473.88,270.32L484.9,274.1L495.92,276.54L506.94,280.67L528.98,285.77L540,288.48" style="vector-effect: non-scaling-stroke; fill: none; stroke: rgb(163, 165, 0); stroke-opacity: 1; stroke-width: 2px; opacity: 1;"/></g><g class="points"/><g class="text"/></g><g class="trace scatter traceef95e5" style="stroke-miterlimit: 2; opacity: 1;"><g class="fills"/><g class="errorbars"/><g class="lines"><path class="js-line" d="M0,16.57L11.02,22.24L22.04,25.05L44.08,31.17L55.1,35.11L66.12,39.55L77.14,45.16L99.18,60.6L110.2,68.83L132.24,88.16L143.27,99.18L154.29,109.82L165.31,119.02L176.33,127.12L187.35,137.52L209.39,155.33L220.41,161.05L231.43,167.63L242.45,175.12L253.47,180.61L264.49,188.36L275.51,194.33L286.53,199.23L308.57,211.44L319.59,214.86L330.61,221.68L341.63,226.65L363.67,237.58L374.69,242.21L385.71,245.29L396.73,251.44L407.76,254.5L418.78,260.59L429.8,264.02L440.82,265.91L451.84,270.41L462.86,276.76L473.88,279.88L484.9,281.42L495.92,285.79L506.94,287.59L517.96,292.47L528.98,295.04L540,296.29" style="vector-effect: non-scaling-stroke; fill: none; stroke: rgb(0, 191, 125); stroke-opacity: 1; stroke-width: 2px; opacity: 1;"/></g><g class="points"/><g class="text"/></g><g class="trace scatter trace62bc79" style="stroke-miterlimit: 2; opacity: 1;"><g class="fills"/><g class="errorbars"/><g class="lines"><path class="js-line" d="M0,16.48L11.02,22.04L22.04,24.96L44.08,30.58L55.1,34.29L66.12,38.06L77.14,42.85L99.18,55.56L110.2,63.98L121.22,72.52L132.24,82.8L165.31,113.76L176.33,123.23L209.39,151.03L220.41,157.11L231.43,164.49L242.45,170.78L275.51,190.03L286.53,194.95L308.57,206.1L319.59,210.71L330.61,216.32L341.63,220.61L363.67,229.75L374.69,233L407.76,247.31L418.78,250.12L429.8,254.42L440.82,257.14L462.86,265.46L473.88,267.37L484.9,271.76L495.92,275L506.94,278.33L517.96,280.47L528.98,283.5L540,284.98" style="vector-effect: non-scaling-stroke; fill: none; stroke: rgb(0, 176, 246); stroke-opacity: 1; stroke-width: 2px; opacity: 1;"/></g><g class="points"/><g class="text"/></g><g class="trace scatter tracec0ad42" style="stroke-miterlimit: 2; opacity: 1;"><g class="fills"/><g class="errorbars"/><g class="lines"><path class="js-line" d="M0,16.62L11.02,22.18L22.04,25.28L55.1,34.14L66.12,38.65L88.16,50.54L99.18,58.72L110.2,66.95L121.22,77.69L154.29,112.38L165.31,122.28L198.37,150.79L209.39,158.63L231.43,174.2L242.45,181.31L253.47,186.79L264.49,193.83L308.57,215.28L319.59,219.57L341.63,229.35L352.65,234.47L363.67,239.32L374.69,242.66L385.71,247.57L396.73,251.19L418.78,257.69L429.8,260.62L440.82,264.89L451.84,268.27L462.86,272.01L473.88,274.47L495.92,281.23L506.94,281.99L517.96,285.8L528.98,288.45L540,291.17" style="vector-effect: non-scaling-stroke; fill: none; stroke: rgb(231, 107, 243); stroke-opacity: 1; stroke-width: 2px; opacity: 1;"/></g><g class="points"/><g class="text"/></g><g class="trace scatter trace236ef0" style="stroke-miterlimit: 2; opacity: 1;"><g class="fills"/><g class="errorbars"/><g class="lines"><path class="js-line" d="M0,16.93L11.02,22.37L22.04,25.41L44.08,31.03L55.1,34.63L66.12,39.16L77.14,44.69L88.16,50.45L99.18,57.43L121.22,74.39L132.24,84.85L165.31,113.49L176.33,123.83L187.35,131.48L198.37,141.11L209.39,148.56L220.41,157.13L242.45,169.99L253.47,177.87L264.49,183.99L275.51,188.6L286.53,195.94L297.55,200.88L308.57,204.84L319.59,209.71L341.63,219.5L352.65,222.87L374.69,232.9L385.71,236.74L418.78,249.48L429.8,252.63L440.82,257.65L451.84,261.07L462.86,262.9L473.88,267.73L484.9,268.9L495.92,271.06L506.94,275.63L517.96,278L528.98,280.68L540,282.28" style="vector-effect: non-scaling-stroke; fill: none; stroke: rgb(248, 118, 109); stroke-opacity: 1; stroke-width: 2px; opacity: 1;"/></g><g class="points"/><g class="text"/></g><g class="trace scatter trace67bc61" style="stroke-miterlimit: 2; opacity: 1;"><g class="fills"/><g class="errorbars"/><g class="lines"><path class="js-line" d="M0,16.14L11.02,22.07L22.04,24.97L44.08,31.2L55.1,35.03L66.12,39.02L77.14,44.71L88.16,51.21L99.18,59.44L110.2,68.17L121.22,77.87L154.29,108.46L165.31,117.69L187.35,137.23L198.37,145.38L209.39,152.79L220.41,162.43L231.43,168.03L242.45,174.74L264.49,187.43L275.51,193.31L286.53,198.51L297.55,204.74L330.61,219.58L341.63,223.51L352.65,228.68L363.67,232.84L418.78,251.27L429.8,256.75L440.82,258.66L451.84,262.97L462.86,265.37L473.88,269.05L495.92,272.65L506.94,276.77L517.96,278.38L528.98,280.97L540,282.92" style="vector-effect: non-scaling-stroke; fill: none; stroke: rgb(163, 165, 0); stroke-opacity: 1; stroke-width: 2px; opacity: 1;"/></g><g class="points"/><g class="text"/></g><g class="trace scatter trace15250c" style="stroke-miterlimit: 2; opacity: 1;"><g class="fills"/><g class="errorbars"/><g class="lines"><path class="js-line" d="M0,16.52L11.02,22.06L22.04,25.53L44.08,31.29L55.1,34.87L66.12,39.11L77.14,44.55L88.16,51.1L99.18,58.9L165.31,118.51L176.33,127.51L198.37,145.69L209.39,152.64L231.43,167.15L242.45,174.31L264.49,186.5L275.51,192.17L297.55,204.52L308.57,208.86L319.59,217.15L330.61,220.29L352.65,228.8L363.67,235.15L374.69,239.09L385.71,243.98L396.73,247.73L407.76,252.91L418.78,255.31L429.8,260.22L440.82,265.16L451.84,267.46L462.86,272.21L473.88,275.8L484.9,279.41L495.92,282.09L517.96,287.6L528.98,288.8L540,291.68" style="vector-effect: non-scaling-stroke; fill: none; stroke: rgb(0, 191, 125); stroke-opacity: 1; stroke-width: 2px; opacity: 1;"/></g><g class="points"/><g class="text"/></g><g class="trace scatter trace6bee66" style="stroke-miterlimit: 2; opacity: 1;"><g class="fills"/><g class="errorbars"/><g class="lines"><path class="js-line" d="M0,16.32L11.02,22.47L22.04,25.13L44.08,31.02L55.1,34.92L66.12,39.5L77.14,45.34L88.16,51.83L99.18,60.58L121.22,80.58L132.24,91.81L143.27,102.67L154.29,111.49L165.31,122.21L176.33,130.62L198.37,148.52L209.39,155.94L231.43,171.62L242.45,177.24L253.47,185.19L264.49,191.35L286.53,204.38L297.55,208.5L319.59,221.28L330.61,225.98L341.63,231.5L352.65,235.52L374.69,244.78L385.71,249.72L396.73,254.92L407.76,257.72L418.78,263.33L429.8,266.93L451.84,274.24L462.86,277.52L473.88,281.5L484.9,283.48L495.92,287.48L506.94,288.57L517.96,292.92L528.98,294.72L540,296.66" style="vector-effect: non-scaling-stroke; fill: none; stroke: rgb(0, 176, 246); stroke-opacity: 1; stroke-width: 2px; opacity: 1;"/></g><g class="points"/><g class="text"/></g><g class="trace scatter traceefe4e4" style="stroke-miterlimit: 2; opacity: 1;"><g class="fills"/><g class="errorbars"/><g class="lines"><path class="js-line" d="M0,16.48L11.02,22.12L22.04,25.03L55.1,34.44L66.12,39.14L77.14,44.75L88.16,51.92L110.2,68.95L121.22,79.6L154.29,110.95L165.31,122.07L209.39,159.94L220.41,168.05L242.45,181.28L253.47,189.09L275.51,203.38L286.53,210.02L297.55,215.02L308.57,222.07L319.59,226.2L330.61,232.06L341.63,237.97L352.65,242.31L374.69,252.45L385.71,255.96L407.76,263.62L418.78,267.96L451.84,277.12L462.86,280.66L473.88,284.44L484.9,286.92L528.98,297.4L540,299.34" style="vector-effect: non-scaling-stroke; fill: none; stroke: rgb(231, 107, 243); stroke-opacity: 1; stroke-width: 2px; opacity: 1;"/></g><g class="points"/><g class="text"/></g><g class="trace scatter traceb749f7" style="stroke-miterlimit: 2; opacity: 1;"><g class="fills"/><g class="errorbars"/><g class="lines"><path class="js-line" d="M0,16.77L11.02,22.54L22.04,25.62L44.08,32.13L55.1,36.05L66.12,40.85L77.14,47.65L88.16,55.06L99.18,64.43L132.24,93.61L143.27,105.12L165.31,123.27L176.33,133.76L187.35,139.58L198.37,147.93L209.39,156.07L220.41,162.1L242.45,174.24L253.47,181.57L264.49,184.82L275.51,191.78L286.53,197.8L297.55,201.34L308.57,207.04L319.59,211.01L330.61,216.43L341.63,220.75L363.67,229.07L374.69,233.92L385.71,237.08L396.73,242.74L407.76,245.38L418.78,250.84L429.8,253.89L440.82,255.49L462.86,263.34L473.88,266.03L495.92,272.43L506.94,274.57L517.96,278.82L528.98,280.53L540,284.16" style="vector-effect: non-scaling-stroke; fill: none; stroke: rgb(248, 118, 109); stroke-opacity: 1; stroke-width: 2px; opacity: 1;"/></g><g class="points"/><g class="text"/></g><g class="trace scatter trace15c897" style="stroke-miterlimit: 2; opacity: 1;"><g class="fills"/><g class="errorbars"/><g class="lines"><path class="js-line" d="M0,16.38L11.02,22.4L22.04,25.57L44.08,31.46L55.1,35.45L77.14,45.76L88.16,52.53L110.2,68L121.22,77.84L176.33,122.93L187.35,130.76L209.39,146.14L220.41,153.83L231.43,162.22L242.45,168.71L253.47,176.23L264.49,181.4L286.53,193.75L297.55,198.68L308.57,205.21L319.59,209.09L352.65,223.32L363.67,226.94L374.69,232.19L385.71,234.2L407.76,243.51L418.78,246.93L429.8,251.35L440.82,253.45L451.84,256.09L462.86,259.87L506.94,272.61L517.96,273.93L528.98,276.29L540,281.45" style="vector-effect: non-scaling-stroke; fill: none; stroke: rgb(163, 165, 0); stroke-opacity: 1; stroke-width: 2px; opacity: 1;"/></g><g class="points"/><g class="text"/></g><g class="trace scatter trace145ce9" style="stroke-miterlimit: 2; opacity: 1;"><g class="fills"/><g class="errorbars"/><g class="lines"><path class="js-line" d="M0,16.17L11.02,22.06L22.04,25.03L44.08,31.16L55.1,34.48L66.12,38.96L77.14,44.64L99.18,59.58L110.2,69.45L154.29,110.33L165.31,121.39L198.37,146.59L209.39,155.31L242.45,177.13L253.47,183.67L264.49,191.37L275.51,197.56L297.55,209.92L308.57,214.71L319.59,220.59L330.61,225.48L341.63,230.42L352.65,237.29L363.67,240.47L374.69,246.05L396.73,254.69L407.76,257.37L429.8,265.34L440.82,268.98L462.86,276.32L473.88,278.87L484.9,281.33L495.92,284.87L506.94,289.06L517.96,289.32L540,294.39" style="vector-effect: non-scaling-stroke; fill: none; stroke: rgb(0, 191, 125); stroke-opacity: 1; stroke-width: 2px; opacity: 1;"/></g><g class="points"/><g class="text"/></g><g class="trace scatter tracec4cdd2" style="stroke-miterlimit: 2; opacity: 1;"><g class="fills"/><g class="errorbars"/><g class="lines"><path class="js-line" d="M0,16L11.02,21.7L22.04,24.87L44.08,30.96L55.1,34.62L66.12,39.07L77.14,45.42L88.16,52L99.18,60.64L110.2,69.29L121.22,79.16L143.27,100.79L154.29,110.3L165.31,121.48L176.33,130.88L187.35,138.45L198.37,147.73L209.39,156.99L220.41,164.73L231.43,172.53L242.45,178.42L253.47,186.73L264.49,190.22L275.51,198.2L286.53,203.22L319.59,220.2L330.61,223.21L352.65,233.68L363.67,238.87L374.69,242.31L385.71,247.62L396.73,251.26L407.76,253.54L418.78,258.54L429.8,260.67L440.82,263.92L451.84,266.37L462.86,270.36L473.88,272.36L484.9,276.1L495.92,278.2L506.94,280.52L517.96,281.66L528.98,284.57L540,286.53" style="vector-effect: non-scaling-stroke; fill: none; stroke: rgb(0, 176, 246); stroke-opacity: 1; stroke-width: 2px; opacity: 1;"/></g><g class="points"/><g class="text"/></g><g class="trace scatter trace8966b9" style="stroke-miterlimit: 2; opacity: 1;"><g class="fills"/><g class="errorbars"/><g class="lines"><path class="js-line" d="M0,16.45L11.02,22.34L22.04,25.37L44.08,31.05L55.1,35L77.14,44.07L88.16,50.81L110.2,67.8L121.22,77.8L165.31,116.47L176.33,125.05L198.37,138.37L209.39,144.42L231.43,158.78L242.45,164.31L253.47,168.93L264.49,175.19L275.51,181.65L286.53,186.23L297.55,189.51L308.57,195.9L319.59,198.95L330.61,203.61L341.63,207.53L352.65,210.16L363.67,214.7L374.69,217.46L396.73,225.75L407.76,226.89L418.78,231.86L429.8,233.59L440.82,235.4L451.84,238.58L484.9,246.66L495.92,246.76L506.94,249.67L517.96,253.41L528.98,254.27L540,258.01" style="vector-effect: non-scaling-stroke; fill: none; stroke: rgb(231, 107, 243); stroke-opacity: 1; stroke-width: 2px; opacity: 1;"/></g><g class="points"/><g class="text"/></g><g class="trace scatter trace7df428" style="stroke-miterlimit: 2; opacity: 1;"><g class="fills"/><g class="errorbars"/><g class="lines"><path class="js-line" d="M0,16.7L11.02,22.53L22.04,25.42L55.1,34.97L66.12,39.58L77.14,45.53L88.16,52.35L99.18,60.62L110.2,70.49L121.22,80.9L132.24,92.57L176.33,135L187.35,144.59L220.41,170.94L231.43,177.05L253.47,189.93L264.49,197.71L275.51,203.12L286.53,210.07L297.55,214.82L308.57,220.83L319.59,225.1L330.61,230.67L374.69,247.19L385.71,249.88L396.73,255.52L407.76,258.47L418.78,261.16L429.8,265.94L440.82,268.67L451.84,272.44L462.86,274.4L473.88,277.42L495.92,283.92L506.94,287.79L517.96,287.01L528.98,290.85L540,292.49" style="vector-effect: non-scaling-stroke; fill: none; stroke: rgb(248, 118, 109); stroke-opacity: 1; stroke-width: 2px; opacity: 1;"/></g><g class="points"/><g class="text"/></g><g class="trace scatter tracea69d53" style="stroke-miterlimit: 2; opacity: 1;"><g class="fills"/><g class="errorbars"/><g class="lines"><path class="js-line" d="M0,16.56L11.02,22.48L22.04,25.36L55.1,34.78L66.12,39.05L77.14,43.87L88.16,50.91L110.2,66.87L121.22,76.23L143.27,95.39L154.29,106.27L176.33,124.67L187.35,132.73L220.41,156.4L231.43,162.46L253.47,177.08L264.49,183.88L286.53,194.75L297.55,202.2L319.59,211.01L330.61,217.95L352.65,227.14L363.67,230.85L396.73,243.95L407.76,247.25L429.8,254.52L440.82,256.4L462.86,264.54L473.88,267.59L484.9,270.68L495.92,275.86L506.94,276.68L517.96,279.3L528.98,282.54L540,283.89" style="vector-effect: non-scaling-stroke; fill: none; stroke: rgb(163, 165, 0); stroke-opacity: 1; stroke-width: 2px; opacity: 1;"/></g><g class="points"/><g class="text"/></g><g class="trace scatter traced8ee3c" style="stroke-miterlimit: 2; opacity: 1;"><g class="fills"/><g class="errorbars"/><g class="lines"><path class="js-line" d="M0,16.43L11.02,22.13L22.04,25.13L44.08,31.04L55.1,34.84L66.12,39.01L77.14,44.08L99.18,58.22L110.2,66.81L132.24,84.19L143.27,94.15L176.33,121.03L187.35,128.95L209.39,144.83L220.41,152.28L242.45,167.13L253.47,173.81L275.51,188.69L286.53,195.37L308.57,207.28L319.59,213.84L330.61,218.46L341.63,224.99L352.65,230.71L363.67,235.3L374.69,239.18L385.71,244.76L396.73,248.74L407.76,253.8L418.78,259.73L429.8,262.72L440.82,265.42L451.84,269.72L462.86,274.5L473.88,276.7L484.9,279.4L495.92,280.82L506.94,285.81L517.96,287.88L528.98,290.08L540,295.54" style="vector-effect: non-scaling-stroke; fill: none; stroke: rgb(0, 191, 125); stroke-opacity: 1; stroke-width: 2px; opacity: 1;"/></g><g class="points"/><g class="text"/></g><g class="trace scatter trace6bb0dd" style="stroke-miterlimit: 2; opacity: 1;"><g class="fills"/><g class="errorbars"/><g class="lines"><path class="js-line" d="M0,16.29L11.02,22.1L22.04,25.09L33.06,27.65L44.08,31.64L55.1,34.67L66.12,38.95L77.14,44.17L88.16,51.35L110.2,68.06L121.22,77.49L165.31,116.66L176.33,124.51L187.35,132.21L198.37,141.03L231.43,163.49L242.45,169.15L253.47,176.22L264.49,180.99L286.53,192.08L297.55,196.81L308.57,202.87L319.59,207.49L352.65,221.55L363.67,223.58L374.69,231.16L385.71,232.73L396.73,236.71L407.76,239.87L418.78,243.39L429.8,245.96L440.82,249.12L451.84,253.5L462.86,255.79L473.88,260.7L484.9,264.32L495.92,266.84L506.94,268.72L517.96,271.44L540,278.58" style="vector-effect: non-scaling-stroke; fill: none; stroke: rgb(0, 176, 246); stroke-opacity: 1; stroke-width: 2px; opacity: 1;"/></g><g class="points"/><g class="text"/></g><g class="trace scatter trace732b31" style="stroke-miterlimit: 2; opacity: 1;"><g class="fills"/><g class="errorbars"/><g class="lines"><path class="js-line" d="M0,16.53L11.02,21.99L22.04,25.32L44.08,31.64L55.1,35.61L77.14,45.88L88.16,53.55L99.18,61.61L110.2,71.69L121.22,80.62L132.24,90.96L154.29,112.4L165.31,122.15L176.33,131.3L187.35,141.69L198.37,150.11L209.39,156.55L220.41,164.28L231.43,171L242.45,177.83L253.47,183.73L286.53,201.07L297.55,207.58L308.57,211.89L319.59,217.37L341.63,228.09L352.65,230.69L396.73,248L407.76,250.44L429.8,256.91L440.82,257.75L451.84,262.91L462.86,266.85L484.9,271.1L495.92,273.94L506.94,275.46L517.96,278.79L528.98,281.4L540,281.48" style="vector-effect: non-scaling-stroke; fill: none; stroke: rgb(231, 107, 243); stroke-opacity: 1; stroke-width: 2px; opacity: 1;"/></g><g class="points"/><g class="text"/></g></g></g><g class="overplot"/><path class="xlines-above crisp" d="" style="fill: none; stroke-width: 1px; stroke: rgb(0, 0, 0); stroke-opacity: 0;"/><path class="ylines-above crisp" d="" style="fill: none; stroke-width: 1px; stroke: rgb(0, 0, 0); stroke-opacity: 0;"/><g class="overlines-above"/><g class="xaxislayer-above"><path class="xtick ticks crisp" d="M0,421v5" transform="translate(80,0)" style="stroke: rgb(51, 51, 51); stroke-opacity: 1; stroke-width: 1px;"/><path class="xtick ticks crisp" d="M0,421v5" transform="translate(190.2,0)" style="stroke: rgb(51, 51, 51); stroke-opacity: 1; stroke-width: 1px;"/><path class="xtick ticks crisp" d="M0,421v5" transform="translate(300.40999999999997,0)" style="stroke: rgb(51, 51, 51); stroke-opacity: 1; stroke-width: 1px;"/><path class="xtick ticks crisp" d="M0,421v5" transform="translate(410.61,0)" style="stroke: rgb(51, 51, 51); stroke-opacity: 1; stroke-width: 1px;"/><path class="xtick ticks crisp" d="M0,421v5" transform="translate(520.8199999999999,0)" style="stroke: rgb(51, 51, 51); stroke-opacity: 1; stroke-width: 1px;"/><g class="xtick"><text text-anchor="middle" x="0" y="440.4" transform="translate(80,0)" style="font-family: 'Open Sans', verdana, arial, sans-serif; font-size: 12px; fill: rgb(51, 51, 51); fill-opacity: 1; white-space: pre; opacity: 1;">0</text></g><g class="xtick"><text text-anchor="middle" x="0" y="440.4" style="font-family: 'Open Sans', verdana, arial, sans-serif; font-size: 12px; fill: rgb(51, 51, 51); fill-opacity: 1; white-space: pre; opacity: 1;" transform="translate(190.2,0)">10</text></g><g class="xtick"><text text-anchor="middle" x="0" y="440.4" style="font-family: 'Open Sans', verdana, arial, sans-serif; font-size: 12px; fill: rgb(51, 51, 51); fill-opacity: 1; white-space: pre; opacity: 1;" transform="translate(300.40999999999997,0)">20</text></g><g class="xtick"><text text-anchor="middle" x="0" y="440.4" style="font-family: 'Open Sans', verdana, arial, sans-serif; font-size: 12px; fill: rgb(51, 51, 51); fill-opacity: 1; white-space: pre; opacity: 1;" transform="translate(410.61,0)">30</text></g><g class="xtick"><text text-anchor="middle" x="0" y="440.4" style="font-family: 'Open Sans', verdana, arial, sans-serif; font-size: 12px; fill: rgb(51, 51, 51); fill-opacity: 1; white-space: pre; opacity: 1;" transform="translate(520.8199999999999,0)">40</text></g></g><g class="yaxislayer-above"><path class="ytick ticks crisp" d="M79,0h-5" transform="translate(0,384.08)" style="stroke: rgb(51, 51, 51); stroke-opacity: 1; stroke-width: 1px;"/><path class="ytick ticks crisp" d="M79,0h-5" transform="translate(0,345.44)" style="stroke: rgb(51, 51, 51); stroke-opacity: 1; stroke-width: 1px;"/><path class="ytick ticks crisp" d="M79,0h-5" transform="translate(0,306.81)" style="stroke: rgb(51, 51, 51); stroke-opacity: 1; stroke-width: 1px;"/><path class="ytick ticks crisp" d="M79,0h-5" transform="translate(0,268.16999999999996)" style="stroke: rgb(51, 51, 51); stroke-opacity: 1; stroke-width: 1px;"/><path class="ytick ticks crisp" d="M79,0h-5" transform="translate(0,229.54)" style="stroke: rgb(51, 51, 51); stroke-opacity: 1; stroke-width: 1px;"/><path class="ytick ticks crisp" d="M79,0h-5" transform="translate(0,190.9)" style="stroke: rgb(51, 51, 51); stroke-opacity: 1; stroke-width: 1px;"/><path class="ytick ticks crisp" d="M79,0h-5" transform="translate(0,152.26)" style="stroke: rgb(51, 51, 51); stroke-opacity: 1; stroke-width: 1px;"/><path class="ytick ticks crisp" d="M79,0h-5" transform="translate(0,113.63)" style="stroke: rgb(51, 51, 51); stroke-opacity: 1; stroke-width: 1px;"/><g class="ytick"><text text-anchor="end" x="71.6" y="4.199999999999999" transform="translate(0,384.08)" style="font-family: 'Open Sans', verdana, arial, sans-serif; font-size: 12px; fill: rgb(51, 51, 51); fill-opacity: 1; white-space: pre; opacity: 1;">0.4</text></g><g class="ytick"><text text-anchor="end" x="71.6" y="4.199999999999999" style="font-family: 'Open Sans', verdana, arial, sans-serif; font-size: 12px; fill: rgb(51, 51, 51); fill-opacity: 1; white-space: pre; opacity: 1;" transform="translate(0,345.44)">0.6</text></g><g class="ytick"><text text-anchor="end" x="71.6" y="4.199999999999999" style="font-family: 'Open Sans', verdana, arial, sans-serif; font-size: 12px; fill: rgb(51, 51, 51); fill-opacity: 1; white-space: pre; opacity: 1;" transform="translate(0,306.81)">0.8</text></g><g class="ytick"><text text-anchor="end" x="71.6" y="4.199999999999999" style="font-family: 'Open Sans', verdana, arial, sans-serif; font-size: 12px; fill: rgb(51, 51, 51); fill-opacity: 1; white-space: pre; opacity: 1;" transform="translate(0,268.16999999999996)">1</text></g><g class="ytick"><text text-anchor="end" x="71.6" y="4.199999999999999" style="font-family: 'Open Sans', verdana, arial, sans-serif; font-size: 12px; fill: rgb(51, 51, 51); fill-opacity: 1; white-space: pre; opacity: 1;" transform="translate(0,229.54)">1.2</text></g><g class="ytick"><text text-anchor="end" x="71.6" y="4.199999999999999" style="font-family: 'Open Sans', verdana, arial, sans-serif; font-size: 12px; fill: rgb(51, 51, 51); fill-opacity: 1; white-space: pre; opacity: 1;" transform="translate(0,190.9)">1.4</text></g><g class="ytick"><text text-anchor="end" x="71.6" y="4.199999999999999" style="font-family: 'Open Sans', verdana, arial, sans-serif; font-size: 12px; fill: rgb(51, 51, 51); fill-opacity: 1; white-space: pre; opacity: 1;" transform="translate(0,152.26)">1.6</text></g><g class="ytick"><text text-anchor="end" x="71.6" y="4.199999999999999" style="font-family: 'Open Sans', verdana, arial, sans-serif; font-size: 12px; fill: rgb(51, 51, 51); fill-opacity: 1; white-space: pre; opacity: 1;" transform="translate(0,113.63)">1.8</text></g></g><g class="overaxes-above"/></g></g><g class="polarlayer"/><g class="ternarylayer"/><g class="geolayer"/><g class="funnelarealayer"/><g class="pielayer"/><g class="iciclelayer"/><g class="treemaplayer"/><g class="sunburstlayer"/><g class="glimages"/><defs id="topdefs-fb379a"><g class="clips"/></defs><g class="layer-above"><g class="imagelayer"/><g class="shapelayer"/></g><g class="infolayer"><g class="g-gtitle"><text class="gtitle" x="350" y="50" text-anchor="middle" dy="0em" style="font-family: 'Open Sans', verdana, arial, sans-serif; font-size: 17px; fill: rgb(51, 51, 51); opacity: 1; font-weight: normal; white-space: pre;">Train Loss: ascad_v1_fk_0_noisy-aisy_mlp_hw (original)</text></g><g class="g-xtitle"/><g class="g-ytitle"/></g></svg>