<svg class="main-svg" xmlns="http://www.w3.org/2000/svg" xmlns:xlink="http://www.w3.org/1999/xlink" width="700" height="500" style="" viewBox="0 0 700 500"><rect x="0" y="0" width="700" height="500" style="fill: rgb(255, 255, 255); fill-opacity: 1;"/><defs id="defs-73f04e"><g class="clips"><clipPath id="clip73f04exyplot" class="plotclip"><rect width="470" height="320"/></clipPath><clipPath class="axesclip" id="clip73f04ex"><rect x="80" y="0" width="470" height="500"/></clipPath><clipPath class="axesclip" id="clip73f04ey"><rect x="0" y="100" width="700" height="320"/></clipPath><clipPath class="axesclip" id="clip73f04exy"><rect x="80" y="100" width="470" height="320"/></clipPath></g><g class="gradients"/><g class="patterns"/></defs><g class="bglayer"><rect class="bg" x="80" y="100" width="470" height="320" style="fill: rgb(237, 237, 237); fill-opacity: 1; stroke-width: 0;"/></g><g class="layer-below"><g class="imagelayer"/><g class="shapelayer"/></g><g class="cartesianlayer"><g class="subplot xy"><g class="layer-subplot"><g class="shapelayer"/><g class="imagelayer"/></g><g class="gridlayer"><g class="x"><path class="xgrid crisp" transform="translate(199.75,0)" d="M0,100v320" style="stroke: rgb(255, 255, 255); stroke-opacity: 1; stroke-width: 1px;"/><path class="xgrid crisp" transform="translate(433.25,0)" d="M0,100v320" style="stroke: rgb(255, 255, 255); stroke-opacity: 1; stroke-width: 1px;"/></g><g class="y"><path class="ygrid crisp" transform="translate(0,346.36)" d="M80,0h470" style="stroke: rgb(255, 255, 255); stroke-opacity: 1; stroke-width: 1px;"/><path class="ygrid crisp" transform="translate(0,288.82)" d="M80,0h470" style="stroke: rgb(255, 255, 255); stroke-opacity: 1; stroke-width: 1px;"/><path class="ygrid crisp" transform="translate(0,231.28)" d="M80,0h470" style="stroke: rgb(255, 255, 255); stroke-opacity: 1; stroke-width: 1px;"/><path class="ygrid crisp" transform="translate(0,173.74)" d="M80,0h470" style="stroke: rgb(255, 255, 255); stroke-opacity: 1; stroke-width: 1px;"/><path class="ygrid crisp" transform="translate(0,116.2)" d="M80,0h470" style="stroke: rgb(255, 255, 255); stroke-opacity: 1; stroke-width: 1px;"/></g></g><g class="zerolinelayer"><path class="yzl zl crisp" transform="translate(0,403.9)" d="M80,0h470" style="stroke: rgb(255, 255, 255); stroke-opacity: 1; stroke-width: 1px;"/></g><path class="xlines-below"/><path class="ylines-below"/><g class="overlines-below"/><g class="xaxislayer-below"/><g class="yaxislayer-below"/><g class="overaxes-below"/><g class="plot" transform="translate(80,100)" clip-path="url(#clip73f04exyplot)"><g class="violinlayer mlayer"><g class="trace violins" style="opacity: 1;"><path class="violin" d="M122.25,304Q123.69,303.98 124.54,303.98C125.59,303.97 126.8,303.97 128.08,303.97C129.59,303.96 131.27,303.96 133,303.95C134.93,303.94 137.01,303.94 139.11,303.93C141.33,303.92 143.67,303.91 145.98,303.91C148.32,303.9 150.71,303.91 153.04,303.9C155.31,303.9 157.59,303.89 159.77,303.88C161.84,303.87 163.89,303.87 165.82,303.86C167.6,303.86 169.34,303.86 170.93,303.85C172.31,303.85 173.7,303.84 174.8,303.83C175.62,303.82 176.96,303.83 176.96,303.81C176.96,303.81 176.94,303.8 176.92,303.8C176.73,303.78 175.38,303.79 174.42,303.78C173.1,303.77 171.38,303.77 169.71,303.76C167.8,303.75 165.65,303.74 163.57,303.74C161.44,303.73 159.19,303.74 157.08,303.73C155.07,303.73 153.04,303.72 151.19,303.71C149.54,303.7 147.94,303.7 146.5,303.69C145.26,303.69 144.11,303.69 143.06,303.68C142.17,303.68 141.37,303.67 140.6,303.66C139.91,303.65 139.29,303.65 138.65,303.64C138.03,303.63 137.44,303.62 136.81,303.62C136.15,303.61 135.49,303.61 134.8,303.61C134.07,303.6 133.31,303.6 132.54,303.59C131.74,303.58 130.92,303.58 130.11,303.57C129.31,303.57 128.49,303.57 127.72,303.56C127,303.56 126.28,303.55 125.64,303.54C125.09,303.53 124.54,303.53 124.09,303.52C123.75,303.52 123.4,303.52 123.19,303.51C123.08,303.51 122.94,303.5 122.94,303.49C122.94,303.48 123.07,303.48 123.16,303.47C123.28,303.46 123.47,303.46 123.61,303.45C123.74,303.45 123.91,303.45 124,303.44C124.04,303.44 124.1,303.43 124.1,303.42C124.1,303.41 123.93,303.4 123.82,303.4C123.66,303.39 123.43,303.39 123.21,303.39C122.96,303.38 122.68,303.38 122.42,303.37C122.15,303.36 121.87,303.36 121.61,303.35C121.37,303.35 121.13,303.35 120.92,303.34C120.74,303.34 120.57,303.33 120.42,303.32C120.31,303.31 120.2,303.31 120.12,303.3C120.06,303.29 119.99,303.29 119.98,303.28C119.98,303.28 119.98,303.27 119.98,303.27C119.99,303.26 120.05,303.26 120.1,303.25C120.17,303.24 120.26,303.23 120.35,303.23C120.46,303.22 120.58,303.22 120.71,303.22C120.85,303.21 121,303.21 121.15,303.2C121.29,303.19 121.45,303.19 121.58,303.18C121.69,303.17 121.82,303.17 121.89,303.16C121.93,303.16 121.99,303.15 121.99,303.15C121.99,303.14 121.91,303.14 121.86,303.13C121.78,303.12 121.65,303.11 121.53,303.11C121.4,303.1 121.24,303.1 121.1,303.1C120.95,303.09 120.8,303.09 120.66,303.08C120.54,303.07 120.42,303.07 120.31,303.06Q120.22,303.06 120.05,303.05L119.45,303.05Q119.28,303.06 119.19,303.06C119.08,303.07 118.96,303.07 118.84,303.08C118.7,303.09 118.55,303.09 118.4,303.1C118.26,303.1 118.1,303.1 117.97,303.11C117.85,303.11 117.72,303.12 117.64,303.13C117.59,303.14 117.51,303.14 117.51,303.15C117.51,303.15 117.57,303.16 117.61,303.16C117.68,303.17 117.81,303.17 117.92,303.18C118.05,303.19 118.21,303.19 118.35,303.2C118.5,303.21 118.65,303.21 118.79,303.22C118.92,303.22 119.04,303.22 119.15,303.23C119.24,303.23 119.33,303.24 119.4,303.25C119.45,303.26 119.51,303.26 119.52,303.27C119.52,303.27 119.52,303.28 119.52,303.28C119.51,303.29 119.44,303.29 119.38,303.3C119.3,303.31 119.19,303.31 119.08,303.32C118.93,303.33 118.76,303.34 118.58,303.34C118.37,303.35 118.13,303.35 117.89,303.35C117.63,303.36 117.35,303.36 117.08,303.37C116.82,303.38 116.54,303.38 116.29,303.39C116.07,303.39 115.84,303.39 115.68,303.4C115.57,303.4 115.4,303.41 115.4,303.42C115.4,303.43 115.46,303.44 115.5,303.44C115.59,303.45 115.76,303.45 115.89,303.45C116.03,303.46 116.22,303.46 116.34,303.47C116.43,303.48 116.56,303.48 116.56,303.49C116.56,303.5 116.42,303.51 116.31,303.51C116.1,303.52 115.75,303.52 115.41,303.52C114.96,303.53 114.41,303.53 113.86,303.54C113.22,303.55 112.5,303.56 111.78,303.56C111.01,303.57 110.19,303.57 109.39,303.57C108.58,303.58 107.76,303.58 106.96,303.59C106.19,303.6 105.43,303.6 104.7,303.61C104.01,303.61 103.35,303.61 102.69,303.62C102.06,303.62 101.47,303.63 100.85,303.64C100.21,303.65 99.59,303.65 98.9,303.66C98.13,303.67 97.33,303.68 96.44,303.68C95.39,303.69 94.24,303.69 93,303.69C91.56,303.7 89.96,303.7 88.31,303.71C86.46,303.72 84.43,303.73 82.42,303.73C80.31,303.74 78.06,303.73 75.93,303.74C73.85,303.74 71.7,303.75 69.79,303.76C68.12,303.77 66.4,303.77 65.08,303.78C64.12,303.79 62.77,303.78 62.58,303.8C62.56,303.8 62.54,303.81 62.54,303.81C62.54,303.83 63.88,303.82 64.7,303.83C65.8,303.84 67.19,303.85 68.57,303.85C70.16,303.86 71.9,303.86 73.68,303.86C75.61,303.87 77.66,303.87 79.73,303.88C81.91,303.89 84.19,303.9 86.46,303.9C88.79,303.91 91.18,303.9 93.52,303.91C95.83,303.91 98.17,303.92 100.39,303.93C102.49,303.94 104.57,303.94 106.5,303.95C108.23,303.96 109.91,303.96 111.42,303.97C112.7,303.97 113.91,303.97 114.96,303.98Q115.81,303.98 117.25,304Z" style="vector-effect: non-scaling-stroke; stroke-width: 2px; stroke: rgb(99, 110, 250); stroke-opacity: 1; fill: rgb(99, 110, 250); fill-opacity: 0.5;"/><g class="points"><path class="point" transform="translate(42.84,303.9)" d="M3,0A3,3 0 1,1 0,-3A3,3 0 0,1 3,0Z" style="opacity: 1; stroke-width: 0px; fill: rgb(99, 110, 250); fill-opacity: 1;"/><path class="point" transform="translate(23,303.9)" d="M3,0A3,3 0 1,1 0,-3A3,3 0 0,1 3,0Z" style="opacity: 1; stroke-width: 0px; fill: rgb(99, 110, 250); fill-opacity: 1;"/><path class="point" transform="translate(41.81,303.9)" d="M3,0A3,3 0 1,1 0,-3A3,3 0 0,1 3,0Z" style="opacity: 1; stroke-width: 0px; fill: rgb(99, 110, 250); fill-opacity: 1;"/><path class="point" transform="translate(24.76,303.9)" d="M3,0A3,3 0 1,1 0,-3A3,3 0 0,1 3,0Z" style="opacity: 1; stroke-width: 0px; fill: rgb(99, 110, 250); fill-opacity: 1;"/><path class="point" transform="translate(31.1,303.9)" d="M3,0A3,3 0 1,1 0,-3A3,3 0 0,1 3,0Z" style="opacity: 1; stroke-width: 0px; fill: rgb(99, 110, 250); fill-opacity: 1;"/><path class="point" transform="translate(38.44,303.9)" d="M3,0A3,3 0 1,1 0,-3A3,3 0 0,1 3,0Z" style="opacity: 1; stroke-width: 0px; fill: rgb(99, 110, 250); fill-opacity: 1;"/><path class="point" transform="translate(33.62,303.9)" d="M3,0A3,3 0 1,1 0,-3A3,3 0 0,1 3,0Z" style="opacity: 1; stroke-width: 0px; fill: rgb(99, 110, 250); fill-opacity: 1;"/><path class="point" transform="translate(36.43,303.87)" d="M3,0A3,3 0 1,1 0,-3A3,3 0 0,1 3,0Z" style="opacity: 1; stroke-width: 0px; fill: rgb(99, 110, 250); fill-opacity: 1;"/><path class="point" transform="translate(31.2,303.87)" d="M3,0A3,3 0 1,1 0,-3A3,3 0 0,1 3,0Z" style="opacity: 1; stroke-width: 0px; fill: rgb(99, 110, 250); fill-opacity: 1;"/><path class="point" transform="translate(27.65,303.87)" d="M3,0A3,3 0 1,1 0,-3A3,3 0 0,1 3,0Z" style="opacity: 1; stroke-width: 0px; fill: rgb(99, 110, 250); fill-opacity: 1;"/><path class="point" transform="translate(36.23,303.84)" d="M3,0A3,3 0 1,1 0,-3A3,3 0 0,1 3,0Z" style="opacity: 1; stroke-width: 0px; fill: rgb(99, 110, 250); fill-opacity: 1;"/><path class="point" transform="translate(31.63,303.84)" d="M3,0A3,3 0 1,1 0,-3A3,3 0 0,1 3,0Z" style="opacity: 1; stroke-width: 0px; fill: rgb(99, 110, 250); fill-opacity: 1;"/><path class="point" transform="translate(39.38,303.84)" d="M3,0A3,3 0 1,1 0,-3A3,3 0 0,1 3,0Z" style="opacity: 1; stroke-width: 0px; fill: rgb(99, 110, 250); fill-opacity: 1;"/><path class="point" transform="translate(25.59,303.84)" d="M3,0A3,3 0 1,1 0,-3A3,3 0 0,1 3,0Z" style="opacity: 1; stroke-width: 0px; fill: rgb(99, 110, 250); fill-opacity: 1;"/><path class="point" transform="translate(28.97,303.84)" d="M3,0A3,3 0 1,1 0,-3A3,3 0 0,1 3,0Z" style="opacity: 1; stroke-width: 0px; fill: rgb(99, 110, 250); fill-opacity: 1;"/><path class="point" transform="translate(44.67,303.84)" d="M3,0A3,3 0 1,1 0,-3A3,3 0 0,1 3,0Z" style="opacity: 1; stroke-width: 0px; fill: rgb(99, 110, 250); fill-opacity: 1;"/><path class="point" transform="translate(31.79,303.81)" d="M3,0A3,3 0 1,1 0,-3A3,3 0 0,1 3,0Z" style="opacity: 1; stroke-width: 0px; fill: rgb(99, 110, 250); fill-opacity: 1;"/><path class="point" transform="translate(26.57,303.81)" d="M3,0A3,3 0 1,1 0,-3A3,3 0 0,1 3,0Z" style="opacity: 1; stroke-width: 0px; fill: rgb(99, 110, 250); fill-opacity: 1;"/><path class="point" transform="translate(31.1,303.81)" d="M3,0A3,3 0 1,1 0,-3A3,3 0 0,1 3,0Z" style="opacity: 1; stroke-width: 0px; fill: rgb(99, 110, 250); fill-opacity: 1;"/><path class="point" transform="translate(33.76,303.81)" d="M3,0A3,3 0 1,1 0,-3A3,3 0 0,1 3,0Z" style="opacity: 1; stroke-width: 0px; fill: rgb(99, 110, 250); fill-opacity: 1;"/><path class="point" transform="translate(37.8,303.81)" d="M3,0A3,3 0 1,1 0,-3A3,3 0 0,1 3,0Z" style="opacity: 1; stroke-width: 0px; fill: rgb(99, 110, 250); fill-opacity: 1;"/><path class="point" transform="translate(35.29,303.78)" d="M3,0A3,3 0 1,1 0,-3A3,3 0 0,1 3,0Z" style="opacity: 1; stroke-width: 0px; fill: rgb(99, 110, 250); fill-opacity: 1;"/><path class="point" transform="translate(30.52,303.78)" d="M3,0A3,3 0 1,1 0,-3A3,3 0 0,1 3,0Z" style="opacity: 1; stroke-width: 0px; fill: rgb(99, 110, 250); fill-opacity: 1;"/><path class="point" transform="translate(23.79,303.78)" d="M3,0A3,3 0 1,1 0,-3A3,3 0 0,1 3,0Z" style="opacity: 1; stroke-width: 0px; fill: rgb(99, 110, 250); fill-opacity: 1;"/><path class="point" transform="translate(33.9,303.78)" d="M3,0A3,3 0 1,1 0,-3A3,3 0 0,1 3,0Z" style="opacity: 1; stroke-width: 0px; fill: rgb(99, 110, 250); fill-opacity: 1;"/><path class="point" transform="translate(30.39,303.78)" d="M3,0A3,3 0 1,1 0,-3A3,3 0 0,1 3,0Z" style="opacity: 1; stroke-width: 0px; fill: rgb(99, 110, 250); fill-opacity: 1;"/><path class="point" transform="translate(41.93,303.78)" d="M3,0A3,3 0 1,1 0,-3A3,3 0 0,1 3,0Z" style="opacity: 1; stroke-width: 0px; fill: rgb(99, 110, 250); fill-opacity: 1;"/><path class="point" transform="translate(32.86,303.78)" d="M3,0A3,3 0 1,1 0,-3A3,3 0 0,1 3,0Z" style="opacity: 1; stroke-width: 0px; fill: rgb(99, 110, 250); fill-opacity: 1;"/><path class="point" transform="translate(26,303.78)" d="M3,0A3,3 0 1,1 0,-3A3,3 0 0,1 3,0Z" style="opacity: 1; stroke-width: 0px; fill: rgb(99, 110, 250); fill-opacity: 1;"/><path class="point" transform="translate(22.62,303.78)" d="M3,0A3,3 0 1,1 0,-3A3,3 0 0,1 3,0Z" style="opacity: 1; stroke-width: 0px; fill: rgb(99, 110, 250); fill-opacity: 1;"/><path class="point" transform="translate(40.78,303.78)" d="M3,0A3,3 0 1,1 0,-3A3,3 0 0,1 3,0Z" style="opacity: 1; stroke-width: 0px; fill: rgb(99, 110, 250); fill-opacity: 1;"/><path class="point" transform="translate(26.61,303.78)" d="M3,0A3,3 0 1,1 0,-3A3,3 0 0,1 3,0Z" style="opacity: 1; stroke-width: 0px; fill: rgb(99, 110, 250); fill-opacity: 1;"/><path class="point" transform="translate(38.1,303.75)" d="M3,0A3,3 0 1,1 0,-3A3,3 0 0,1 3,0Z" style="opacity: 1; stroke-width: 0px; fill: rgb(99, 110, 250); fill-opacity: 1;"/><path class="point" transform="translate(35.47,303.75)" d="M3,0A3,3 0 1,1 0,-3A3,3 0 0,1 3,0Z" style="opacity: 1; stroke-width: 0px; fill: rgb(99, 110, 250); fill-opacity: 1;"/><path class="point" transform="translate(31.85,303.75)" d="M3,0A3,3 0 1,1 0,-3A3,3 0 0,1 3,0Z" style="opacity: 1; stroke-width: 0px; fill: rgb(99, 110, 250); fill-opacity: 1;"/><path class="point" transform="translate(30.35,303.75)" d="M3,0A3,3 0 1,1 0,-3A3,3 0 0,1 3,0Z" style="opacity: 1; stroke-width: 0px; fill: rgb(99, 110, 250); fill-opacity: 1;"/><path class="point" transform="translate(36.39,303.72)" d="M3,0A3,3 0 1,1 0,-3A3,3 0 0,1 3,0Z" style="opacity: 1; stroke-width: 0px; fill: rgb(99, 110, 250); fill-opacity: 1;"/><path class="point" transform="translate(33.29,303.7)" d="M3,0A3,3 0 1,1 0,-3A3,3 0 0,1 3,0Z" style="opacity: 1; stroke-width: 0px; fill: rgb(99, 110, 250); fill-opacity: 1;"/><path class="point" transform="translate(38.11,303.7)" d="M3,0A3,3 0 1,1 0,-3A3,3 0 0,1 3,0Z" style="opacity: 1; stroke-width: 0px; fill: rgb(99, 110, 250); fill-opacity: 1;"/><path class="point" transform="translate(29.37,303.7)" d="M3,0A3,3 0 1,1 0,-3A3,3 0 0,1 3,0Z" style="opacity: 1; stroke-width: 0px; fill: rgb(99, 110, 250); fill-opacity: 1;"/><path class="point" transform="translate(37.1,303.67)" d="M3,0A3,3 0 1,1 0,-3A3,3 0 0,1 3,0Z" style="opacity: 1; stroke-width: 0px; fill: rgb(99, 110, 250); fill-opacity: 1;"/><path class="point" transform="translate(33.49,303.64)" d="M3,0A3,3 0 1,1 0,-3A3,3 0 0,1 3,0Z" style="opacity: 1; stroke-width: 0px; fill: rgb(99, 110, 250); fill-opacity: 1;"/><path class="point" transform="translate(32.35,303.64)" d="M3,0A3,3 0 1,1 0,-3A3,3 0 0,1 3,0Z" style="opacity: 1; stroke-width: 0px; fill: rgb(99, 110, 250); fill-opacity: 1;"/><path class="point" transform="translate(30.16,303.64)" d="M3,0A3,3 0 1,1 0,-3A3,3 0 0,1 3,0Z" style="opacity: 1; stroke-width: 0px; fill: rgb(99, 110, 250); fill-opacity: 1;"/><path class="point" transform="translate(32.85,303.61)" d="M3,0A3,3 0 1,1 0,-3A3,3 0 0,1 3,0Z" style="opacity: 1; stroke-width: 0px; fill: rgb(99, 110, 250); fill-opacity: 1;"/><path class="point" transform="translate(35.75,303.58)" d="M3,0A3,3 0 1,1 0,-3A3,3 0 0,1 3,0Z" style="opacity: 1; stroke-width: 0px; fill: rgb(99, 110, 250); fill-opacity: 1;"/><path class="point" transform="translate(33.31,303.58)" d="M3,0A3,3 0 1,1 0,-3A3,3 0 0,1 3,0Z" style="opacity: 1; stroke-width: 0px; fill: rgb(99, 110, 250); fill-opacity: 1;"/><path class="point" transform="translate(32.03,303.44)" d="M3,0A3,3 0 1,1 0,-3A3,3 0 0,1 3,0Z" style="opacity: 1; stroke-width: 0px; fill: rgb(99, 110, 250); fill-opacity: 1;"/><path class="point" transform="translate(35.04,303.41)" d="M3,0A3,3 0 1,1 0,-3A3,3 0 0,1 3,0Z" style="opacity: 1; stroke-width: 0px; fill: rgb(99, 110, 250); fill-opacity: 1;"/><path class="point" transform="translate(32.79,303.15)" d="M3,0A3,3 0 1,1 0,-3A3,3 0 0,1 3,0Z" style="opacity: 1; stroke-width: 0px; fill: rgb(99, 110, 250); fill-opacity: 1;"/></g></g><g class="trace violins" style="opacity: 1;"><path class="violin" d="M353.25,303.28Q353.26,301.53 353.26,300.65C353.26,299.77 353.27,298.9 353.27,298.02C353.27,297.14 353.28,296.27 353.28,295.39C353.28,294.51 353.29,293.64 353.29,292.76C353.3,291.88 353.3,291.01 353.31,290.13C353.32,289.25 353.32,288.38 353.33,287.5C353.34,286.62 353.34,285.75 353.35,284.87C353.35,283.99 353.36,283.12 353.36,282.24C353.37,281.36 353.37,280.49 353.38,279.61C353.38,278.73 353.39,277.86 353.39,276.98C353.39,276.1 353.4,275.23 353.4,274.35C353.4,273.47 353.41,272.6 353.41,271.72C353.41,270.84 353.42,269.96 353.42,269.08C353.42,268.2 353.43,267.33 353.43,266.45C353.44,265.57 353.44,264.7 353.45,263.82C353.46,262.94 353.46,262.07 353.47,261.19C353.47,260.31 353.48,259.44 353.48,258.56C353.49,257.68 353.49,256.81 353.5,255.93C353.5,255.05 353.51,254.18 353.51,253.3C353.51,252.42 353.52,251.55 353.52,250.67C353.52,249.79 353.52,248.92 353.52,248.04C353.52,247.16 353.52,246.29 353.52,245.41C353.52,244.53 353.51,243.66 353.51,242.78C353.51,241.9 353.51,241.03 353.5,240.15C353.49,239.27 353.48,238.4 353.47,237.52C353.46,236.64 353.45,235.76 353.44,234.88C353.43,234 353.42,233.13 353.41,232.25C353.4,231.37 353.4,230.5 353.39,229.62C353.38,228.74 353.38,227.87 353.37,226.99C353.36,226.11 353.36,225.24 353.35,224.36C353.35,223.48 353.34,222.61 353.34,221.73C353.34,220.85 353.33,219.98 353.33,219.1C353.33,218.22 353.32,217.35 353.32,216.47C353.32,215.59 353.31,214.72 353.31,213.84C353.31,212.96 353.3,212.09 353.3,211.21C353.3,210.33 353.29,209.46 353.29,208.58C353.29,207.7 353.29,206.83 353.29,205.95C353.29,205.07 353.28,204.2 353.28,203.32C353.28,202.44 353.28,201.57 353.28,200.69C353.28,199.81 353.28,198.93 353.28,198.05C353.28,197.17 353.27,196.3 353.27,195.42C353.27,194.54 353.27,193.67 353.27,192.79C353.27,191.91 353.27,191.04 353.27,190.16C353.27,189.28 353.26,188.41 353.26,187.53C353.26,186.65 353.26,185.78 353.26,184.9C353.26,184.02 353.25,183.15 353.25,182.27C353.25,181.39 353.25,180.52 353.25,179.64C353.25,178.76 353.25,177.89 353.25,177.01C353.25,176.13 353.25,175.26 353.25,174.38C353.25,173.5 353.25,172.63 353.25,171.75C353.25,170.87 353.25,170 353.25,169.12C353.25,168.24 353.25,167.37 353.25,166.49C353.25,165.61 353.25,164.73 353.25,163.85C353.25,162.97 353.25,162.1 353.25,161.22C353.25,160.34 353.25,159.47 353.25,158.59C353.25,157.71 353.25,156.84 353.25,155.96C353.25,155.08 353.25,154.21 353.25,153.33C353.25,152.45 353.25,151.58 353.25,150.7C353.25,149.82 353.25,148.95 353.25,148.07C353.25,147.19 353.25,146.32 353.25,145.44C353.25,144.56 353.25,143.69 353.25,142.81C353.25,141.93 353.25,141.06 353.25,140.18C353.25,139.3 353.25,138.43 353.25,137.55C353.25,136.67 353.25,135.8 353.25,134.92C353.25,134.04 353.25,133.17 353.25,132.29C353.25,131.41 353.25,130.53 353.25,129.65C353.25,128.77 353.25,127.9 353.25,127.02C353.25,126.14 353.25,125.27 353.25,124.39C353.25,123.51 353.25,122.64 353.25,121.76C353.25,120.88 353.25,120.01 353.25,119.13C353.25,118.25 353.25,117.38 353.25,116.5C353.25,115.62 353.25,114.75 353.25,113.87C353.25,112.99 353.25,112.12 353.25,111.24C353.25,110.36 353.25,109.49 353.25,108.61C353.25,107.73 353.26,106.86 353.26,105.98C353.26,105.1 353.26,104.23 353.26,103.35C353.26,102.47 353.26,101.6 353.26,100.72C353.26,99.84 353.26,98.97 353.26,98.09C353.26,97.21 353.26,96.34 353.26,95.46C353.26,94.58 353.26,93.7 353.26,92.82C353.26,91.94 353.26,91.07 353.26,90.19C353.26,89.31 353.26,88.44 353.26,87.56C353.26,86.68 353.26,85.81 353.26,84.93C353.26,84.05 353.25,83.18 353.25,82.3Q353.25,81.42 353.25,79.67L353.25,79.67Q353.25,81.42 353.25,82.3C353.25,83.18 353.24,84.05 353.24,84.93C353.24,85.81 353.24,86.68 353.24,87.56C353.24,88.44 353.24,89.31 353.24,90.19C353.24,91.07 353.24,91.94 353.24,92.82C353.24,93.7 353.24,94.58 353.24,95.46C353.24,96.34 353.24,97.21 353.24,98.09C353.24,98.97 353.24,99.84 353.24,100.72C353.24,101.6 353.24,102.47 353.24,103.35C353.24,104.23 353.24,105.1 353.24,105.98C353.24,106.86 353.25,107.73 353.25,108.61C353.25,109.49 353.25,110.36 353.25,111.24C353.25,112.12 353.25,112.99 353.25,113.87C353.25,114.75 353.25,115.62 353.25,116.5C353.25,117.38 353.25,118.25 353.25,119.13C353.25,120.01 353.25,120.88 353.25,121.76C353.25,122.64 353.25,123.51 353.25,124.39C353.25,125.27 353.25,126.14 353.25,127.02C353.25,127.9 353.25,128.77 353.25,129.65C353.25,130.53 353.25,131.41 353.25,132.29C353.25,133.17 353.25,134.04 353.25,134.92C353.25,135.8 353.25,136.67 353.25,137.55C353.25,138.43 353.25,139.3 353.25,140.18C353.25,141.06 353.25,141.93 353.25,142.81C353.25,143.69 353.25,144.56 353.25,145.44C353.25,146.32 353.25,147.19 353.25,148.07C353.25,148.95 353.25,149.82 353.25,150.7C353.25,151.58 353.25,152.45 353.25,153.33C353.25,154.21 353.25,155.08 353.25,155.96C353.25,156.84 353.25,157.71 353.25,158.59C353.25,159.47 353.25,160.34 353.25,161.22C353.25,162.1 353.25,162.97 353.25,163.85C353.25,164.73 353.25,165.61 353.25,166.49C353.25,167.37 353.25,168.24 353.25,169.12C353.25,170 353.25,170.87 353.25,171.75C353.25,172.63 353.25,173.5 353.25,174.38C353.25,175.26 353.25,176.13 353.25,177.01C353.25,177.89 353.25,178.76 353.25,179.64C353.25,180.52 353.25,181.39 353.25,182.27C353.25,183.15 353.24,184.02 353.24,184.9C353.24,185.78 353.24,186.65 353.24,187.53C353.24,188.41 353.23,189.28 353.23,190.16C353.23,191.04 353.23,191.91 353.23,192.79C353.23,193.67 353.23,194.54 353.23,195.42C353.23,196.3 353.22,197.17 353.22,198.05C353.22,198.93 353.22,199.81 353.22,200.69C353.22,201.57 353.22,202.44 353.22,203.32C353.22,204.2 353.21,205.07 353.21,205.95C353.21,206.83 353.21,207.7 353.21,208.58C353.21,209.46 353.2,210.33 353.2,211.21C353.2,212.09 353.19,212.96 353.19,213.84C353.19,214.72 353.18,215.59 353.18,216.47C353.18,217.35 353.17,218.22 353.17,219.1C353.17,219.98 353.16,220.85 353.16,221.73C353.16,222.61 353.15,223.48 353.15,224.36C353.14,225.24 353.14,226.11 353.13,226.99C353.12,227.87 353.12,228.74 353.11,229.62C353.1,230.5 353.1,231.37 353.09,232.25C353.08,233.13 353.07,234 353.06,234.88C353.05,235.76 353.04,236.64 353.03,237.52C353.02,238.4 353.01,239.27 353,240.15C352.99,241.03 352.99,241.9 352.99,242.78C352.99,243.66 352.98,244.53 352.98,245.41C352.98,246.29 352.98,247.16 352.98,248.04C352.98,248.92 352.98,249.79 352.98,250.67C352.98,251.55 352.99,252.42 352.99,253.3C352.99,254.18 353,255.05 353,255.93C353.01,256.81 353.01,257.68 353.02,258.56C353.02,259.44 353.03,260.31 353.03,261.19C353.04,262.07 353.04,262.94 353.05,263.82C353.06,264.7 353.06,265.57 353.07,266.45C353.07,267.33 353.08,268.2 353.08,269.08C353.08,269.96 353.09,270.84 353.09,271.72C353.09,272.6 353.1,273.47 353.1,274.35C353.1,275.23 353.11,276.1 353.11,276.98C353.11,277.86 353.12,278.73 353.12,279.61C353.13,280.49 353.13,281.36 353.14,282.24C353.14,283.12 353.15,283.99 353.15,284.87C353.16,285.75 353.16,286.62 353.17,287.5C353.18,288.38 353.18,289.25 353.19,290.13C353.2,291.01 353.2,291.88 353.21,292.76C353.21,293.64 353.22,294.51 353.22,295.39C353.22,296.27 353.23,297.14 353.23,298.02C353.23,298.9 353.24,299.77 353.24,300.65Q353.24,301.53 353.25,303.28Z" style="vector-effect: non-scaling-stroke; stroke-width: 2px; stroke: rgb(239, 85, 59); stroke-opacity: 1; fill: rgb(239, 85, 59); fill-opacity: 0.5;"/><g class="points"><path class="point" transform="translate(271.81,287.44)" d="M3,0A3,3 0 1,1 0,-3A3,3 0 0,1 3,0Z" style="opacity: 1; stroke-width: 0px; fill: rgb(239, 85, 59); fill-opacity: 1;"/><path class="point" transform="translate(261.85,284.79)" d="M3,0A3,3 0 1,1 0,-3A3,3 0 0,1 3,0Z" style="opacity: 1; stroke-width: 0px; fill: rgb(239, 85, 59); fill-opacity: 1;"/><path class="point" transform="translate(274.36,283.33)" d="M3,0A3,3 0 1,1 0,-3A3,3 0 0,1 3,0Z" style="opacity: 1; stroke-width: 0px; fill: rgb(239, 85, 59); fill-opacity: 1;"/><path class="point" transform="translate(259.48,281.51)" d="M3,0A3,3 0 1,1 0,-3A3,3 0 0,1 3,0Z" style="opacity: 1; stroke-width: 0px; fill: rgb(239, 85, 59); fill-opacity: 1;"/><path class="point" transform="translate(265.19,279.59)" d="M3,0A3,3 0 1,1 0,-3A3,3 0 0,1 3,0Z" style="opacity: 1; stroke-width: 0px; fill: rgb(239, 85, 59); fill-opacity: 1;"/><path class="point" transform="translate(272.29,275.9)" d="M3,0A3,3 0 1,1 0,-3A3,3 0 0,1 3,0Z" style="opacity: 1; stroke-width: 0px; fill: rgb(239, 85, 59); fill-opacity: 1;"/><path class="point" transform="translate(267.1,274.7)" d="M3,0A3,3 0 1,1 0,-3A3,3 0 0,1 3,0Z" style="opacity: 1; stroke-width: 0px; fill: rgb(239, 85, 59); fill-opacity: 1;"/><path class="point" transform="translate(269.95,273.08)" d="M3,0A3,3 0 1,1 0,-3A3,3 0 0,1 3,0Z" style="opacity: 1; stroke-width: 0px; fill: rgb(239, 85, 59); fill-opacity: 1;"/><path class="point" transform="translate(264.68,272.65)" d="M3,0A3,3 0 1,1 0,-3A3,3 0 0,1 3,0Z" style="opacity: 1; stroke-width: 0px; fill: rgb(239, 85, 59); fill-opacity: 1;"/><path class="point" transform="translate(260.84,269.75)" d="M3,0A3,3 0 1,1 0,-3A3,3 0 0,1 3,0Z" style="opacity: 1; stroke-width: 0px; fill: rgb(239, 85, 59); fill-opacity: 1;"/><path class="point" transform="translate(270.09,268.31)" d="M3,0A3,3 0 1,1 0,-3A3,3 0 0,1 3,0Z" style="opacity: 1; stroke-width: 0px; fill: rgb(239, 85, 59); fill-opacity: 1;"/><path class="point" transform="translate(264.05,265.2)" d="M3,0A3,3 0 1,1 0,-3A3,3 0 0,1 3,0Z" style="opacity: 1; stroke-width: 0px; fill: rgb(239, 85, 59); fill-opacity: 1;"/><path class="point" transform="translate(274.21,261.52)" d="M3,0A3,3 0 1,1 0,-3A3,3 0 0,1 3,0Z" style="opacity: 1; stroke-width: 0px; fill: rgb(239, 85, 59); fill-opacity: 1;"/><path class="point" transform="translate(257.22,259.62)" d="M3,0A3,3 0 1,1 0,-3A3,3 0 0,1 3,0Z" style="opacity: 1; stroke-width: 0px; fill: rgb(239, 85, 59); fill-opacity: 1;"/><path class="point" transform="translate(260.7,259.42)" d="M3,0A3,3 0 1,1 0,-3A3,3 0 0,1 3,0Z" style="opacity: 1; stroke-width: 0px; fill: rgb(239, 85, 59); fill-opacity: 1;"/><path class="point" transform="translate(276.66,259.3)" d="M3,0A3,3 0 1,1 0,-3A3,3 0 0,1 3,0Z" style="opacity: 1; stroke-width: 0px; fill: rgb(239, 85, 59); fill-opacity: 1;"/><path class="point" transform="translate(264.55,259.27)" d="M3,0A3,3 0 1,1 0,-3A3,3 0 0,1 3,0Z" style="opacity: 1; stroke-width: 0px; fill: rgb(239, 85, 59); fill-opacity: 1;"/><path class="point" transform="translate(255.83,258.73)" d="M3,0A3,3 0 1,1 0,-3A3,3 0 0,1 3,0Z" style="opacity: 1; stroke-width: 0px; fill: rgb(239, 85, 59); fill-opacity: 1;"/><path class="point" transform="translate(262.9,257.81)" d="M3,0A3,3 0 1,1 0,-3A3,3 0 0,1 3,0Z" style="opacity: 1; stroke-width: 0px; fill: rgb(239, 85, 59); fill-opacity: 1;"/><path class="point" transform="translate(267.16,257.69)" d="M3,0A3,3 0 1,1 0,-3A3,3 0 0,1 3,0Z" style="opacity: 1; stroke-width: 0px; fill: rgb(239, 85, 59); fill-opacity: 1;"/><path class="point" transform="translate(273.01,253.26)" d="M3,0A3,3 0 1,1 0,-3A3,3 0 0,1 3,0Z" style="opacity: 1; stroke-width: 0px; fill: rgb(239, 85, 59); fill-opacity: 1;"/><path class="point" transform="translate(268.71,252.92)" d="M3,0A3,3 0 1,1 0,-3A3,3 0 0,1 3,0Z" style="opacity: 1; stroke-width: 0px; fill: rgb(239, 85, 59); fill-opacity: 1;"/><path class="point" transform="translate(264.36,252.57)" d="M3,0A3,3 0 1,1 0,-3A3,3 0 0,1 3,0Z" style="opacity: 1; stroke-width: 0px; fill: rgb(239, 85, 59); fill-opacity: 1;"/><path class="point" transform="translate(258.22,250.96)" d="M3,0A3,3 0 1,1 0,-3A3,3 0 0,1 3,0Z" style="opacity: 1; stroke-width: 0px; fill: rgb(239, 85, 59); fill-opacity: 1;"/><path class="point" transform="translate(267.41,249.49)" d="M3,0A3,3 0 1,1 0,-3A3,3 0 0,1 3,0Z" style="opacity: 1; stroke-width: 0px; fill: rgb(239, 85, 59); fill-opacity: 1;"/><path class="point" transform="translate(263.73,248.63)" d="M3,0A3,3 0 1,1 0,-3A3,3 0 0,1 3,0Z" style="opacity: 1; stroke-width: 0px; fill: rgb(239, 85, 59); fill-opacity: 1;"/><path class="point" transform="translate(273.31,246.79)" d="M3,0A3,3 0 1,1 0,-3A3,3 0 0,1 3,0Z" style="opacity: 1; stroke-width: 0px; fill: rgb(239, 85, 59); fill-opacity: 1;"/><path class="point" transform="translate(266.31,245)" d="M3,0A3,3 0 1,1 0,-3A3,3 0 0,1 3,0Z" style="opacity: 1; stroke-width: 0px; fill: rgb(239, 85, 59); fill-opacity: 1;"/><path class="point" transform="translate(258.56,244.37)" d="M3,0A3,3 0 1,1 0,-3A3,3 0 0,1 3,0Z" style="opacity: 1; stroke-width: 0px; fill: rgb(239, 85, 59); fill-opacity: 1;"/><path class="point" transform="translate(254.19,244.23)" d="M3,0A3,3 0 1,1 0,-3A3,3 0 0,1 3,0Z" style="opacity: 1; stroke-width: 0px; fill: rgb(239, 85, 59); fill-opacity: 1;"/><path class="point" transform="translate(275.84,243.11)" d="M3,0A3,3 0 1,1 0,-3A3,3 0 0,1 3,0Z" style="opacity: 1; stroke-width: 0px; fill: rgb(239, 85, 59); fill-opacity: 1;"/><path class="point" transform="translate(253.14,242.65)" d="M3,0A3,3 0 1,1 0,-3A3,3 0 0,1 3,0Z" style="opacity: 1; stroke-width: 0px; fill: rgb(239, 85, 59); fill-opacity: 1;"/><path class="point" transform="translate(277.64,242.53)" d="M3,0A3,3 0 1,1 0,-3A3,3 0 0,1 3,0Z" style="opacity: 1; stroke-width: 0px; fill: rgb(239, 85, 59); fill-opacity: 1;"/><path class="point" transform="translate(270.51,242.07)" d="M3,0A3,3 0 1,1 0,-3A3,3 0 0,1 3,0Z" style="opacity: 1; stroke-width: 0px; fill: rgb(239, 85, 59); fill-opacity: 1;"/><path class="point" transform="translate(263.92,241.38)" d="M3,0A3,3 0 1,1 0,-3A3,3 0 0,1 3,0Z" style="opacity: 1; stroke-width: 0px; fill: rgb(239, 85, 59); fill-opacity: 1;"/><path class="point" transform="translate(260.4,241.26)" d="M3,0A3,3 0 1,1 0,-3A3,3 0 0,1 3,0Z" style="opacity: 1; stroke-width: 0px; fill: rgb(239, 85, 59); fill-opacity: 1;"/><path class="point" transform="translate(272.57,240.95)" d="M3,0A3,3 0 1,1 0,-3A3,3 0 0,1 3,0Z" style="opacity: 1; stroke-width: 0px; fill: rgb(239, 85, 59); fill-opacity: 1;"/><path class="point" transform="translate(266.25,239.45)" d="M3,0A3,3 0 1,1 0,-3A3,3 0 0,1 3,0Z" style="opacity: 1; stroke-width: 0px; fill: rgb(239, 85, 59); fill-opacity: 1;"/><path class="point" transform="translate(273.47,236.09)" d="M3,0A3,3 0 1,1 0,-3A3,3 0 0,1 3,0Z" style="opacity: 1; stroke-width: 0px; fill: rgb(239, 85, 59); fill-opacity: 1;"/><path class="point" transform="translate(260.3,232.46)" d="M3,0A3,3 0 1,1 0,-3A3,3 0 0,1 3,0Z" style="opacity: 1; stroke-width: 0px; fill: rgb(239, 85, 59); fill-opacity: 1;"/><path class="point" transform="translate(272.72,231.54)" d="M3,0A3,3 0 1,1 0,-3A3,3 0 0,1 3,0Z" style="opacity: 1; stroke-width: 0px; fill: rgb(239, 85, 59); fill-opacity: 1;"/><path class="point" transform="translate(266.77,229.99)" d="M3,0A3,3 0 1,1 0,-3A3,3 0 0,1 3,0Z" style="opacity: 1; stroke-width: 0px; fill: rgb(239, 85, 59); fill-opacity: 1;"/><path class="point" transform="translate(264.79,229.21)" d="M3,0A3,3 0 1,1 0,-3A3,3 0 0,1 3,0Z" style="opacity: 1; stroke-width: 0px; fill: rgb(239, 85, 59); fill-opacity: 1;"/><path class="point" transform="translate(261.24,220.84)" d="M3,0A3,3 0 1,1 0,-3A3,3 0 0,1 3,0Z" style="opacity: 1; stroke-width: 0px; fill: rgb(239, 85, 59); fill-opacity: 1;"/><path class="point" transform="translate(266.09,218.71)" d="M3,0A3,3 0 1,1 0,-3A3,3 0 0,1 3,0Z" style="opacity: 1; stroke-width: 0px; fill: rgb(239, 85, 59); fill-opacity: 1;"/><path class="point" transform="translate(269.64,217.38)" d="M3,0A3,3 0 1,1 0,-3A3,3 0 0,1 3,0Z" style="opacity: 1; stroke-width: 0px; fill: rgb(239, 85, 59); fill-opacity: 1;"/><path class="point" transform="translate(266.69,216.15)" d="M3,0A3,3 0 1,1 0,-3A3,3 0 0,1 3,0Z" style="opacity: 1; stroke-width: 0px; fill: rgb(239, 85, 59); fill-opacity: 1;"/><path class="point" transform="translate(265.17,203.52)" d="M3,0A3,3 0 1,1 0,-3A3,3 0 0,1 3,0Z" style="opacity: 1; stroke-width: 0px; fill: rgb(239, 85, 59); fill-opacity: 1;"/><path class="point" transform="translate(268.79,194.8)" d="M3,0A3,3 0 1,1 0,-3A3,3 0 0,1 3,0Z" style="opacity: 1; stroke-width: 0px; fill: rgb(239, 85, 59); fill-opacity: 1;"/><path class="point" transform="translate(266.06,95.51)" d="M3,0A3,3 0 1,1 0,-3A3,3 0 0,1 3,0Z" style="opacity: 1; stroke-width: 0px; fill: rgb(239, 85, 59); fill-opacity: 1;"/></g></g></g></g><g class="overplot"/><path class="xlines-above crisp" d="" style="fill: none; stroke-width: 1px; stroke: rgb(0, 0, 0); stroke-opacity: 0;"/><path class="ylines-above crisp" d="" style="fill: none; stroke-width: 1px; stroke: rgb(0, 0, 0); stroke-opacity: 0;"/><g class="overlines-above"/><g class="xaxislayer-above"><path class="xtick ticks crisp" d="M0,421v5" transform="translate(199.75,0)" style="stroke: rgb(51, 51, 51); stroke-opacity: 1; stroke-width: 1px;"/><path class="xtick ticks crisp" d="M0,421v5" transform="translate(433.25,0)" style="stroke: rgb(51, 51, 51); stroke-opacity: 1; stroke-width: 1px;"/><g class="xtick"><text text-anchor="middle" x="0" y="440.4" transform="translate(199.75,0)" style="font-family: 'Open Sans', verdana, arial, sans-serif; font-size: 12px; fill: rgb(51, 51, 51); fill-opacity: 1; white-space: pre; opacity: 1;">s_eff_cnn_id</text></g><g class="xtick"><text text-anchor="middle" x="0" y="440.4" transform="translate(433.25,0)" style="font-family: 'Open Sans', verdana, arial, sans-serif; font-size: 12px; fill: rgb(51, 51, 51); fill-opacity: 1; white-space: pre; opacity: 1;">s_eff_cnn_hw</text></g></g><g class="yaxislayer-above"><path class="ytick ticks crisp" d="M79,0h-5" transform="translate(0,403.9)" style="stroke: rgb(51, 51, 51); stroke-opacity: 1; stroke-width: 1px;"/><path class="ytick ticks crisp" d="M79,0h-5" transform="translate(0,346.36)" style="stroke: rgb(51, 51, 51); stroke-opacity: 1; stroke-width: 1px;"/><path class="ytick ticks crisp" d="M79,0h-5" transform="translate(0,288.82)" style="stroke: rgb(51, 51, 51); stroke-opacity: 1; stroke-width: 1px;"/><path class="ytick ticks crisp" d="M79,0h-5" transform="translate(0,231.28)" style="stroke: rgb(51, 51, 51); stroke-opacity: 1; stroke-width: 1px;"/><path class="ytick ticks crisp" d="M79,0h-5" transform="translate(0,173.74)" style="stroke: rgb(51, 51, 51); stroke-opacity: 1; stroke-width: 1px;"/><path class="ytick ticks crisp" d="M79,0h-5" transform="translate(0,116.2)" style="stroke: rgb(51, 51, 51); stroke-opacity: 1; stroke-width: 1px;"/><g class="ytick"><text text-anchor="end" x="71.6" y="4.199999999999999" transform="translate(0,403.9)" style="font-family: 'Open Sans', verdana, arial, sans-serif; font-size: 12px; fill: rgb(51, 51, 51); fill-opacity: 1; white-space: pre; opacity: 1;">0</text></g><g class="ytick"><text text-anchor="end" x="71.6" y="4.199999999999999" style="font-family: 'Open Sans', verdana, arial, sans-serif; font-size: 12px; fill: rgb(51, 51, 51); fill-opacity: 1; white-space: pre; opacity: 1;" transform="translate(0,346.36)">20</text></g><g class="ytick"><text text-anchor="end" x="71.6" y="4.199999999999999" style="font-family: 'Open Sans', verdana, arial, sans-serif; font-size: 12px; fill: rgb(51, 51, 51); fill-opacity: 1; white-space: pre; opacity: 1;" transform="translate(0,288.82)">40</text></g><g class="ytick"><text text-anchor="end" x="71.6" y="4.199999999999999" style="font-family: 'Open Sans', verdana, arial, sans-serif; font-size: 12px; fill: rgb(51, 51, 51); fill-opacity: 1; white-space: pre; opacity: 1;" transform="translate(0,231.28)">60</text></g><g class="ytick"><text text-anchor="end" x="71.6" y="4.199999999999999" style="font-family: 'Open Sans', verdana, arial, sans-serif; font-size: 12px; fill: rgb(51, 51, 51); fill-opacity: 1; white-space: pre; opacity: 1;" transform="translate(0,173.74)">80</text></g><g class="ytick"><text text-anchor="end" x="71.6" y="4.199999999999999" style="font-family: 'Open Sans', verdana, arial, sans-serif; font-size: 12px; fill: rgb(51, 51, 51); fill-opacity: 1; white-space: pre; opacity: 1;" transform="translate(0,116.2)">100</text></g></g><g class="overaxes-above"/></g></g><g class="polarlayer"/><g class="ternarylayer"/><g class="geolayer"/><g class="funnelarealayer"/><g class="pielayer"/><g class="iciclelayer"/><g class="treemaplayer"/><g class="sunburstlayer"/><g class="glimages"/><defs id="topdefs-73f04e"><g class="clips"/><clipPath id="legend73f04e"><rect width="129" height="67" x="0" y="0"/></clipPath></defs><g class="layer-above"><g class="imagelayer"/><g class="shapelayer"/></g><g class="infolayer"><g class="legend" pointer-events="all" transform="translate(559.4000000000001,100)"><rect class="bg" shape-rendering="crispEdges" width="129" height="67" x="0" y="0" style="stroke: rgb(68, 68, 68); stroke-opacity: 1; fill: rgb(255, 255, 255); fill-opacity: 1; stroke-width: 0px;"/><g class="scrollbox" transform="" clip-path="url(#legend73f04e)"><text class="legendtitletext" text-anchor="start" x="2" y="18.2" style="font-family: 'Open Sans', verdana, arial, sans-serif; font-size: 14px; fill: rgb(51, 51, 51); fill-opacity: 1; white-space: pre;">model</text><g class="groups" transform=""><g class="traces" transform="translate(0,32.7)" style="opacity: 1;"><text class="legendtext" text-anchor="start" x="40" y="4.680000000000001" style="font-family: 'Open Sans', verdana, arial, sans-serif; font-size: 12px; fill: rgb(51, 51, 51); fill-opacity: 1; white-space: pre;">s_eff_cnn_id</text><g class="layers" style="opacity: 1;"><g class="legendfill"/><g class="legendlines"/><g class="legendsymbols"><g class="legendpoints"><path class="legendbox" d="M6,6H-6V-6H6Z" transform="translate(20,0)" style="stroke-width: 2px; fill: rgb(99, 110, 250); fill-opacity: 0.5; stroke: rgb(99, 110, 250); stroke-opacity: 1;"/></g></g></g><rect class="legendtoggle" x="0" y="-9.5" width="123.703125" height="19" style="fill: rgb(0, 0, 0); fill-opacity: 0;"/></g></g><g class="groups" transform=""><g class="traces" transform="translate(0,51.7)" style="opacity: 1;"><text class="legendtext" text-anchor="start" x="40" y="4.680000000000001" style="font-family: 'Open Sans', verdana, arial, sans-serif; font-size: 12px; fill: rgb(51, 51, 51); fill-opacity: 1; white-space: pre;">s_eff_cnn_hw</text><g class="layers" style="opacity: 1;"><g class="legendfill"/><g class="legendlines"/><g class="legendsymbols"><g class="legendpoints"><path class="legendbox" d="M6,6H-6V-6H6Z" transform="translate(20,0)" style="stroke-width: 2px; fill: rgb(239, 85, 59); fill-opacity: 0.5; stroke: rgb(239, 85, 59); stroke-opacity: 1;"/></g></g></g><rect class="legendtoggle" x="0" y="-9.5" width="123.703125" height="19" style="fill: rgb(0, 0, 0); fill-opacity: 0;"/></g></g></g><rect class="scrollbar" rx="20" ry="3" width="0" height="0" x="0" y="0" style="fill: rgb(128, 139, 164); fill-opacity: 1;"/></g><g class="g-gtitle"><text class="gtitle" x="350" y="50" text-anchor="middle" dy="0em" style="font-family: 'Open Sans', verdana, arial, sans-serif; font-size: 17px; fill: rgb(51, 51, 51); opacity: 1; font-weight: normal; white-space: pre;">Distribution of average ranks over 50 experiments (with 400 traces)</text></g><g class="g-xtitle"><text class="xtitle" x="315" y="468.20625" text-anchor="middle" style="font-family: 'Open Sans', verdana, arial, sans-serif; font-size: 14px; fill: rgb(51, 51, 51); opacity: 1; font-weight: normal; white-space: pre;">model</text></g><g class="g-ytitle"><text class="ytitle" transform="rotate(-90,23.903125000000003,260)" x="23.903125000000003" y="260" text-anchor="middle" style="font-family: 'Open Sans', verdana, arial, sans-serif; font-size: 14px; fill: rgb(51, 51, 51); opacity: 1; font-weight: normal; white-space: pre;">Average Ranks</text></g><g class="annotation" data-index="0" style="opacity: 1;"><g class="annotation-text-g" transform="rotate(0,199.75,133)"><g class="cursor-pointer" transform="translate(157,100)"><rect class="bg" x="0.5" y="0.5" width="85" height="65" style="stroke-width: 1px; stroke: rgb(0, 0, 0); stroke-opacity: 1; fill: rgb(211, 211, 211); fill-opacity: 1;"/><text class="annotation-text" text-anchor="middle" x="42.65625" y="-1.59375" style="font-family: 'Open Sans', verdana, arial, sans-serif; font-size: 12px; fill: rgb(51, 51, 51); fill-opacity: 1; white-space: pre;"><tspan class="line" dy="0em" x="42.65625" y="-1.59375"></tspan><tspan class="line" dy="1.3em" x="42.65625" y="-1.59375">min: 0.00</tspan><tspan class="line" dy="2.6em" x="42.65625" y="-1.59375">max: 0.26</tspan><tspan class="line" dy="3.9000000000000004em" x="42.65625" y="-1.59375">median: 0.04</tspan><tspan class="line" dy="5.2em" x="42.65625" y="-1.59375">mean: 0.05</tspan></text></g></g></g><g class="annotation" data-index="1" style="opacity: 1;"><g class="annotation-text-g" transform="rotate(0,433.25,133)"><g class="cursor-pointer" transform="translate(387,100)"><rect class="bg" x="0.5" y="0.5" width="92" height="65" style="stroke-width: 1px; stroke: rgb(0, 0, 0); stroke-opacity: 1; fill: rgb(211, 211, 211); fill-opacity: 1;"/><text class="annotation-text" text-anchor="middle" x="46.484375" y="-1.59375" style="font-family: 'Open Sans', verdana, arial, sans-serif; font-size: 12px; fill: rgb(51, 51, 51); fill-opacity: 1; white-space: pre;"><tspan class="line" dy="0em" x="46.484375" y="-1.59375"></tspan><tspan class="line" dy="1.3em" x="46.484375" y="-1.59375">min: 5.72</tspan><tspan class="line" dy="2.6em" x="46.484375" y="-1.59375">max: 72.43</tspan><tspan class="line" dy="3.9000000000000004em" x="46.484375" y="-1.59375">median: 19.06</tspan><tspan class="line" dy="5.2em" x="46.484375" y="-1.59375">mean: 19.86</tspan></text></g></g></g></g></svg>