<svg class="main-svg" xmlns="http://www.w3.org/2000/svg" xmlns:xlink="http://www.w3.org/1999/xlink" width="700" height="500" style="" viewBox="0 0 700 500"><rect x="0" y="0" width="700" height="500" style="fill: rgb(255, 255, 255); fill-opacity: 1;"/><defs id="defs-8221a1"><g class="clips"><clipPath id="clip8221a1xyplot" class="plotclip"><rect width="540" height="320"/></clipPath><clipPath class="axesclip" id="clip8221a1x"><rect x="80" y="0" width="540" height="500"/></clipPath><clipPath class="axesclip" id="clip8221a1y"><rect x="0" y="100" width="700" height="320"/></clipPath><clipPath class="axesclip" id="clip8221a1xy"><rect x="80" y="100" width="540" height="320"/></clipPath></g><g class="gradients"/><g class="patterns"/></defs><g class="bglayer"><rect class="bg" x="80" y="100" width="540" height="320" style="fill: rgb(237, 237, 237); fill-opacity: 1; stroke-width: 0;"/></g><g class="layer-below"><g class="imagelayer"/><g class="shapelayer"/></g><g class="cartesianlayer"><g class="subplot xy"><g class="layer-subplot"><g class="shapelayer"/><g class="imagelayer"/></g><g class="gridlayer"><g class="x"><path class="xgrid crisp" transform="translate(190.2,0)" d="M0,100v320" style="stroke: rgb(255, 255, 255); stroke-opacity: 1; stroke-width: 1px;"/><path class="xgrid crisp" transform="translate(300.40999999999997,0)" d="M0,100v320" style="stroke: rgb(255, 255, 255); stroke-opacity: 1; stroke-width: 1px;"/><path class="xgrid crisp" transform="translate(410.61,0)" d="M0,100v320" style="stroke: rgb(255, 255, 255); stroke-opacity: 1; stroke-width: 1px;"/><path class="xgrid crisp" transform="translate(520.8199999999999,0)" d="M0,100v320" style="stroke: rgb(255, 255, 255); stroke-opacity: 1; stroke-width: 1px;"/></g><g class="y"><path class="ygrid crisp" transform="translate(0,398.16)" d="M80,0h540" style="stroke: rgb(255, 255, 255); stroke-opacity: 1; stroke-width: 1px;"/><path class="ygrid crisp" transform="translate(0,334.83000000000004)" d="M80,0h540" style="stroke: rgb(255, 255, 255); stroke-opacity: 1; stroke-width: 1px;"/><path class="ygrid crisp" transform="translate(0,271.5)" d="M80,0h540" style="stroke: rgb(255, 255, 255); stroke-opacity: 1; stroke-width: 1px;"/><path class="ygrid crisp" transform="translate(0,208.18)" d="M80,0h540" style="stroke: rgb(255, 255, 255); stroke-opacity: 1; stroke-width: 1px;"/><path class="ygrid crisp" transform="translate(0,144.85)" d="M80,0h540" style="stroke: rgb(255, 255, 255); stroke-opacity: 1; stroke-width: 1px;"/></g></g><g class="zerolinelayer"><path class="xzl zl crisp" transform="translate(80,0)" d="M0,100v320" style="stroke: rgb(255, 255, 255); stroke-opacity: 1; stroke-width: 1px;"/></g><path class="xlines-below"/><path class="ylines-below"/><g class="overlines-below"/><g class="xaxislayer-below"/><g class="yaxislayer-below"/><g class="overaxes-below"/><g class="plot" transform="translate(80,100)" clip-path="url(#clip8221a1xyplot)"><g class="scatterlayer mlayer"><g class="trace scatter tracebd6038" style="stroke-miterlimit: 2; opacity: 1;"><g class="fills"/><g class="errorbars"/><g class="lines"><path class="js-line" d="M0,241.16L11.02,167L22.04,149.48L33.06,137.38L44.08,137.73L55.1,137.17L66.12,130.97L88.16,128.86L99.18,131.26L110.2,134.92L121.22,133.51L132.24,124.99L143.27,126.96L154.29,124.22L165.31,124.71L176.33,130.13L187.35,137.31L198.37,144.34L209.39,132.45L220.41,141.95L231.43,134.07L242.45,119.58L253.47,134.42L264.49,121.05L275.51,130.48L286.53,116.34L297.55,126.05L308.57,124.78L319.59,115.28L330.61,115.21L341.63,108.25L352.65,98.61L363.67,107.05L374.69,101.63L385.71,101.42L396.73,99.73L407.76,94.39L418.78,88.62L429.8,85.52L440.82,88.47L451.84,88.26L462.86,81.72L473.88,85.66L495.92,78.41L506.94,81.16L517.96,81.58L528.98,79.54L540,79.61" style="vector-effect: non-scaling-stroke; fill: none; stroke: rgb(248, 118, 109); stroke-opacity: 1; stroke-width: 2px; opacity: 1;"/></g><g class="points"/><g class="text"/></g><g class="trace scatter tracedfd73e" style="stroke-miterlimit: 2; opacity: 1;"><g class="fills"/><g class="errorbars"/><g class="lines"><path class="js-line" d="M0,265.58L11.02,171.29L22.04,160.11L33.06,153.42L44.08,141.95L55.1,141.46L66.12,136.67L77.14,142.66L88.16,135.13L99.18,140.83L110.2,137.87L121.22,122.25L132.24,130.55L143.27,127.81L154.29,126.89L165.31,136.82L176.33,120.7L187.35,123.23L198.37,131.26L209.39,123.8L220.41,117.39L231.43,121.69L242.45,114.3L253.47,114.09L264.49,103.11L275.51,108.32L286.53,101.49L297.55,91.85L308.57,96.71L319.59,93.33L330.61,87.42L341.63,87.77L352.65,81.23L374.69,78.76L385.71,73.91L396.73,68.28L407.76,69.41L418.78,65.25L429.8,62.72L440.82,60.96L451.84,54.77L462.86,56.18L473.88,55.61L484.9,55.12L495.92,55.97L506.94,57.09L517.96,51.96L528.98,48.16L540,52.1" style="vector-effect: non-scaling-stroke; fill: none; stroke: rgb(163, 165, 0); stroke-opacity: 1; stroke-width: 2px; opacity: 1;"/></g><g class="points"/><g class="text"/></g><g class="trace scatter trace21f20d" style="stroke-miterlimit: 2; opacity: 1;"><g class="fills"/><g class="errorbars"/><g class="lines"><path class="js-line" d="M0,249.68L11.02,168.27L22.04,146.95L33.06,141.6L44.08,147.09L55.1,147.51L66.12,138.43L77.14,144.98L88.16,138.08L99.18,135.27L110.2,127.32L121.22,131.61L132.24,133.51L143.27,128.86L154.29,126.33L165.31,128.58L176.33,114.16L187.35,122.04L198.37,119.01L209.39,123.87L220.41,125.13L231.43,108.74L242.45,97.97L253.47,105.71L264.49,112.4L286.53,97.55L297.55,101L308.57,88.05L319.59,86.43L330.61,84.11L341.63,83.27L352.65,75.6L363.67,76.79L374.69,72.01L385.71,70.39L396.73,64.9L407.76,55.12L418.78,59.7L429.8,49.07L440.82,50.2L451.84,49.99L462.86,47.1L473.88,47.03L495.92,43.79L506.94,45.34L517.96,44.57L528.98,45.34L540,43.65" style="vector-effect: non-scaling-stroke; fill: none; stroke: rgb(0, 191, 125); stroke-opacity: 1; stroke-width: 2px; opacity: 1;"/></g><g class="points"/><g class="text"/></g><g class="trace scatter trace3f40c5" style="stroke-miterlimit: 2; opacity: 1;"><g class="fills"/><g class="errorbars"/><g class="lines"><path class="js-line" d="M0,272.97L11.02,153.84L22.04,142.02L33.06,144.63L44.08,136.32L55.1,129.22L66.12,123.59L77.14,129.36L88.16,126.47L99.18,124.15L110.2,112.89L121.22,118.59L132.24,117.96L143.27,118.17L154.29,105.01L165.31,107.4L176.33,106.49L187.35,108.46L198.37,105.57L209.39,104.87L220.41,106.49L231.43,98.19L242.45,96.14L253.47,88.4L264.49,95.3L275.51,82.21L286.53,79.61L297.55,75.46L308.57,75.88L319.59,73.21L330.61,58.78L341.63,54.28L352.65,55.69L363.67,55.69L374.69,52.94L385.71,46.54L396.73,46.89L407.76,42.6L418.78,33.94L429.8,37.67L440.82,32.18L451.84,28.31L462.86,28.81L473.88,21.98L484.9,29.86L506.94,26.34L517.96,24.44L528.98,26.55L540,23.32" style="vector-effect: non-scaling-stroke; fill: none; stroke: rgb(0, 176, 246); stroke-opacity: 1; stroke-width: 2px; opacity: 1;"/></g><g class="points"/><g class="text"/></g><g class="trace scatter trace4745fa" style="stroke-miterlimit: 2; opacity: 1;"><g class="fills"/><g class="errorbars"/><g class="lines"><path class="js-line" d="M0,258.33L11.02,156.31L22.04,149.06L33.06,141.81L44.08,143.22L55.1,131.33L66.12,133.72L77.14,134.99L88.16,128.93L99.18,140.83L110.2,127.25L121.22,122.39L132.24,127.18L154.29,125.28L165.31,119.93L176.33,133.65L187.35,123.38L198.37,135.13L209.39,122.32L220.41,129.99L231.43,123.8L242.45,117.25L253.47,115.42L264.49,107.68L275.51,111.7L286.53,101.91L297.55,96.92L308.57,95.23L319.59,92.49L330.61,83.76L341.63,87.98L352.65,77.78L363.67,80.38L374.69,63.28L385.71,67.65L396.73,69.41L407.76,57.3L418.78,56.53L429.8,50.55L440.82,48.3L451.84,47.31L462.86,43.23L473.88,51.32L484.9,46.33L495.92,43.16L540,40.06" style="vector-effect: non-scaling-stroke; fill: none; stroke: rgb(231, 107, 243); stroke-opacity: 1; stroke-width: 2px; opacity: 1;"/></g><g class="points"/><g class="text"/></g><g class="trace scatter trace78d157" style="stroke-miterlimit: 2; opacity: 1;"><g class="fills"/><g class="errorbars"/><g class="lines"><path class="js-line" d="M0,238.35L11.02,174.6L22.04,155.32L33.06,140.12L44.08,136.67L55.1,135.48L66.12,147.02L77.14,139.49L88.16,145.47L99.18,135.06L110.2,132.66L121.22,128.93L132.24,131.82L143.27,125.91L154.29,123.8L165.31,121.97L176.33,124.43L187.35,127.53L198.37,122.95L209.39,129.99L220.41,138.86L231.43,119.58L242.45,126.33L253.47,117.96L264.49,114.72L275.51,111.7L286.53,110.29L297.55,104.8L308.57,102.62L319.59,96.36L330.61,96.71L341.63,94.53L352.65,87.14L363.67,84.53L374.69,83.06L385.71,76.37L396.73,72.29L407.76,73.14L418.78,72.43L429.8,64.13L440.82,62.86L451.84,62.09L462.86,59.41L473.88,54.7L484.9,56.39L495.92,56.6L506.94,50.27L517.96,51.96L528.98,50.9L540,50.34" style="vector-effect: non-scaling-stroke; fill: none; stroke: rgb(248, 118, 109); stroke-opacity: 1; stroke-width: 2px; opacity: 1;"/></g><g class="points"/><g class="text"/></g><g class="trace scatter trace75008a" style="stroke-miterlimit: 2; opacity: 1;"><g class="fills"/><g class="errorbars"/><g class="lines"><path class="js-line" d="M0,253.62L11.02,156.24L22.04,150.4L33.06,139.56L44.08,140.26L55.1,138.64L66.12,139.35L77.14,131.96L88.16,133.23L99.18,138.79L110.2,137.87L121.22,130.76L132.24,128.3L154.29,126.68L165.31,133.09L176.33,125.56L187.35,127.6L198.37,125.06L209.39,116.62L220.41,121.76L231.43,122.74L242.45,114.44L253.47,115.92L264.49,109.16L275.51,107.05L286.53,109.02L297.55,95.3L308.57,93.47L319.59,85.38L330.61,84.96L341.63,81.86L352.65,76.3L363.67,74.12L374.69,70.18L385.71,73.35L396.73,64.06L407.76,60.54L418.78,53.36L429.8,54.42L440.82,49.49L451.84,48.44L462.86,44.22L473.88,46.61L484.9,44.99L495.92,44.5L506.94,39.5L517.96,42.46L528.98,39.22L540,37.81" style="vector-effect: non-scaling-stroke; fill: none; stroke: rgb(163, 165, 0); stroke-opacity: 1; stroke-width: 2px; opacity: 1;"/></g><g class="points"/><g class="text"/></g><g class="trace scatter traceffb2c1" style="stroke-miterlimit: 2; opacity: 1;"><g class="fills"/><g class="errorbars"/><g class="lines"><path class="js-line" d="M0,266.85L11.02,164.61L22.04,139.7L33.06,142.58L44.08,138.57L55.1,143.15L66.12,143.15L77.14,137.52L88.16,140.76L99.18,139.07L110.2,139.14L121.22,135.62L132.24,133.79L143.27,135.06L154.29,134.35L165.31,136.11L176.33,128.86L187.35,125.7L198.37,127.39L209.39,125.2L220.41,135.97L231.43,126.12L242.45,124.92L253.47,127.95L264.49,110.92L275.51,112.89L286.53,105.64L297.55,109.02L308.57,107.9L319.59,103.11L330.61,97.27L341.63,90.23L352.65,92.77L363.67,79.4L374.69,82.14L385.71,74.61L396.73,73.35L407.76,68.42L418.78,67.08L429.8,62.09L440.82,58.99L451.84,52.87L462.86,52.94L473.88,55.76L484.9,55.26L495.92,53.15L506.94,53.72L517.96,50.9L528.98,51.39L540,49.7" style="vector-effect: non-scaling-stroke; fill: none; stroke: rgb(0, 191, 125); stroke-opacity: 1; stroke-width: 2px; opacity: 1;"/></g><g class="points"/><g class="text"/></g><g class="trace scatter trace621f2c" style="stroke-miterlimit: 2; opacity: 1;"><g class="fills"/><g class="errorbars"/><g class="lines"><path class="js-line" d="M0,297.53L11.02,162.29L22.04,153.77L33.06,157.29L44.08,147.37L55.1,151.03L66.12,144.27L77.14,135.55L88.16,139.49L99.18,123.16L110.2,124.5L121.22,129.22L132.24,117.11L143.27,125.2L154.29,120.7L165.31,118.31L176.33,122.81L187.35,120.14L198.37,126.12L209.39,126.89L220.41,120.91L231.43,120.77L242.45,114.65L253.47,105.36L264.49,106.77L275.51,113.67L286.53,97.69L297.55,97.48L308.57,88.69L319.59,89.88L330.61,82.99L341.63,80.1L352.65,81.93L363.67,80.45L374.69,70.67L385.71,69.48L396.73,66.03L407.76,58.85L418.78,55.19L429.8,52.94L440.82,52.38L451.84,48.16L462.86,49.99L473.88,47.31L484.9,46.47L495.92,44.22L506.94,45.34L528.98,44.43L540,40.63" style="vector-effect: non-scaling-stroke; fill: none; stroke: rgb(0, 176, 246); stroke-opacity: 1; stroke-width: 2px; opacity: 1;"/></g><g class="points"/><g class="text"/></g><g class="trace scatter trace2b003a" style="stroke-miterlimit: 2; opacity: 1;"><g class="fills"/><g class="errorbars"/><g class="lines"><path class="js-line" d="M0,248.62L11.02,173.33L22.04,161.37L33.06,152.01L44.08,146.67L55.1,142.51L66.12,135.41L77.14,135.41L88.16,138.22L99.18,140.19L110.2,129.99L132.24,131.89L143.27,127.67L154.29,127.18L165.31,124.64L176.33,129.15L187.35,124.71L198.37,117.96L209.39,125.7L220.41,118.1L231.43,118.03L242.45,110.92L253.47,101.14L264.49,103.11L275.51,99.52L286.53,89.81L297.55,91.01L308.57,83.97L319.59,86.93L330.61,82.78L341.63,66.59L352.65,63.85L363.67,58.08L374.69,54.21L385.71,55.05L396.73,45.2L407.76,42.46L418.78,39.71L429.8,31.62L440.82,35.84L451.84,29.86L462.86,25.01L473.88,28.24L484.9,25.92L495.92,21.42L506.94,22.75L517.96,23.18L540,21.28" style="vector-effect: non-scaling-stroke; fill: none; stroke: rgb(231, 107, 243); stroke-opacity: 1; stroke-width: 2px; opacity: 1;"/></g><g class="points"/><g class="text"/></g><g class="trace scatter trace222ba0" style="stroke-miterlimit: 2; opacity: 1;"><g class="fills"/><g class="errorbars"/><g class="lines"><path class="js-line" d="M0,241.66L11.02,171.5L22.04,152.58L33.06,148.21L44.08,140.05L55.1,141.88L66.12,135.97L77.14,128.44L88.16,132.87L99.18,131.96L110.2,123.23L121.22,125.2L132.24,124.08L143.27,124.01L154.29,127.6L165.31,127.88L176.33,132.38L187.35,125.98L198.37,126.12L209.39,132.38L220.41,129.57L231.43,125.98L242.45,126.47L253.47,124.92L264.49,117.82L275.51,117.96L286.53,109.16L297.55,111.34L308.57,103.46L319.59,105.15L330.61,98.54L341.63,96.99L352.65,89.88L363.67,88.12L374.69,80.73L385.71,73.77L396.73,74.12L407.76,73.07L418.78,67.93L429.8,57.09L440.82,56.67L451.84,49.07L462.86,54.14L473.88,52.59L484.9,52.94L495.92,54.77L506.94,50.69L528.98,46.75L540,47.66" style="vector-effect: non-scaling-stroke; fill: none; stroke: rgb(248, 118, 109); stroke-opacity: 1; stroke-width: 2px; opacity: 1;"/></g><g class="points"/><g class="text"/></g><g class="trace scatter traceaeca37" style="stroke-miterlimit: 2; opacity: 1;"><g class="fills"/><g class="errorbars"/><g class="lines"><path class="js-line" d="M0,246.02L11.02,162.99L22.04,148.78L33.06,143.57L44.08,137.45L55.1,135.48L66.12,138.79L77.14,134.49L88.16,138.71L99.18,134.42L110.2,125.7L132.24,138.22L143.27,123.45L154.29,129.22L165.31,122.81L176.33,125.42L187.35,129L198.37,130.83L209.39,131.47L231.43,116.13L242.45,121.41L253.47,109.44L264.49,106.14L275.51,114.09L286.53,104.94L308.57,91.64L319.59,90.23L330.61,92.42L341.63,90.52L352.65,78.55L363.67,76.02L374.69,69.76L385.71,68.98L396.73,64.69L407.76,58.85L418.78,59.13L429.8,53.5L440.82,46.19L451.84,52.03L462.86,46.47L473.88,47.03L484.9,45.48L495.92,51.67L506.94,44.85L517.96,42.88L540,43.44" style="vector-effect: non-scaling-stroke; fill: none; stroke: rgb(163, 165, 0); stroke-opacity: 1; stroke-width: 2px; opacity: 1;"/></g><g class="points"/><g class="text"/></g><g class="trace scatter trace2e7013" style="stroke-miterlimit: 2; opacity: 1;"><g class="fills"/><g class="errorbars"/><g class="lines"><path class="js-line" d="M0,270.15L11.02,163.27L22.04,150.82L33.06,141.81L44.08,137.87L55.1,133.93L66.12,131.12L88.16,129.43L99.18,120.56L110.2,129.64L121.22,132.87L132.24,122.95L143.27,122.88L154.29,117.11L165.31,122.46L176.33,123.38L187.35,127.74L209.39,120.91L220.41,122.74L231.43,124.36L242.45,117.32L253.47,117.96L264.49,104.45L275.51,107.05L286.53,100.72L297.55,94.1L308.57,89.95L319.59,91.85L330.61,87.84L363.67,78.27L374.69,71.24L385.71,69.41L396.73,64.62L407.76,64.13L418.78,59.91L429.8,51.46L440.82,53.08L451.84,53.93L462.86,49L473.88,52.73L484.9,50.55L495.92,50.2L506.94,47.95L517.96,46.54L528.98,46.26L540,45.55" style="vector-effect: non-scaling-stroke; fill: none; stroke: rgb(0, 191, 125); stroke-opacity: 1; stroke-width: 2px; opacity: 1;"/></g><g class="points"/><g class="text"/></g><g class="trace scatter trace404e64" style="stroke-miterlimit: 2; opacity: 1;"><g class="fills"/><g class="errorbars"/><g class="lines"><path class="js-line" d="M0,252.07L11.02,170.52L22.04,149.55L33.06,142.37L44.08,139L55.1,133.02L66.12,124.57L77.14,131.54L88.16,131.05L99.18,134.14L110.2,123.09L121.22,133.3L132.24,121.26L143.27,123.87L154.29,129L176.33,127.03L187.35,135.06L198.37,126.19L209.39,132.45L220.41,137.38L231.43,126.61L242.45,133.09L253.47,119.72L264.49,122.53L275.51,109.51L286.53,111.7L297.55,107.47L308.57,103.96L319.59,91.5L341.63,92.63L352.65,93.47L363.67,81.72L374.69,74.54L385.71,76.51L396.73,70.11L407.76,70.11L418.78,58.01L429.8,55.47L440.82,50.34L451.84,54.98L462.86,53.64L473.88,49.92L484.9,47.17L495.92,50.41L506.94,43.3L517.96,43.93L528.98,42.67L540,41.4" style="vector-effect: non-scaling-stroke; fill: none; stroke: rgb(0, 176, 246); stroke-opacity: 1; stroke-width: 2px; opacity: 1;"/></g><g class="points"/><g class="text"/></g><g class="trace scatter tracec73054" style="stroke-miterlimit: 2; opacity: 1;"><g class="fills"/><g class="errorbars"/><g class="lines"><path class="js-line" d="M0,234.2L11.02,162.22L22.04,161.37L33.06,142.23L44.08,150.54L55.1,147.51L66.12,149.48L77.14,152.37L88.16,147.16L99.18,142.44L110.2,141.46L121.22,138.86L132.24,133.16L143.27,137.31L154.29,133.51L165.31,132.59L176.33,130.69L187.35,120.49L198.37,131.89L209.39,131.82L220.41,133.44L231.43,124.78L242.45,121.69L253.47,128.37L264.49,119.58L275.51,112.33L286.53,108.88L297.55,102.13L308.57,98.33L319.59,103.6L330.61,90.02L341.63,88.69L352.65,88.83L363.67,77.85L374.69,76.58L385.71,70.53L396.73,75.46L407.76,72.08L418.78,73.21L429.8,58.57L440.82,62.09L451.84,62.65L462.86,58.71L473.88,61.17L484.9,56.46L506.94,53.86L517.96,51.53L540,51.53" style="vector-effect: non-scaling-stroke; fill: none; stroke: rgb(231, 107, 243); stroke-opacity: 1; stroke-width: 2px; opacity: 1;"/></g><g class="points"/><g class="text"/></g><g class="trace scatter tracef89c5b" style="stroke-miterlimit: 2; opacity: 1;"><g class="fills"/><g class="errorbars"/><g class="lines"><path class="js-line" d="M0,244.75L11.02,167.21L22.04,150.89L33.06,150.68L44.08,147.79L55.1,141.6L66.12,144.27L77.14,138.15L88.16,130.34L99.18,124.43L110.2,125.7L132.24,120L143.27,120.77L154.29,120.28L165.31,116.34L176.33,115.78L187.35,113.31L198.37,121.55L209.39,116.34L220.41,120.35L231.43,111.91L242.45,111.7L253.47,106.49L264.49,94.03L275.51,97.76L286.53,87.7L297.55,93.82L308.57,87L319.59,84.39L330.61,78.98L341.63,71.38L363.67,60.89L374.69,59.48L385.71,52.52L396.73,53.22L407.76,50.62L418.78,44.85L429.8,45.83L440.82,38.87L451.84,41.61L462.86,36.12L473.88,36.12L484.9,32.47L495.92,36.97L506.94,28.95L517.96,32.39L528.98,31.83L540,27.82" style="vector-effect: non-scaling-stroke; fill: none; stroke: rgb(248, 118, 109); stroke-opacity: 1; stroke-width: 2px; opacity: 1;"/></g><g class="points"/><g class="text"/></g><g class="trace scatter tracefd0b8c" style="stroke-miterlimit: 2; opacity: 1;"><g class="fills"/><g class="errorbars"/><g class="lines"><path class="js-line" d="M0,252.77L11.02,168.9L22.04,152.72L33.06,144.34L44.08,138.64L55.1,137.38L66.12,133.3L88.16,135.34L99.18,127.81L110.2,131.47L121.22,120.42L132.24,117.04L143.27,111.41L154.29,118.73L165.31,118.87L187.35,122.67L198.37,120.49L209.39,121.12L220.41,127.95L231.43,118.1L242.45,118.52L253.47,111.06L264.49,111.7L275.51,103.74L286.53,99.73L297.55,107.4L308.57,95.02L319.59,87.21L330.61,86.29L341.63,85.24L352.65,81.65L363.67,71.73L374.69,77.99L396.73,67.01L407.76,58.29L418.78,60.33L429.8,54.56L440.82,52.66L451.84,51.6L462.86,40.21L473.88,52.73L484.9,42.46L495.92,45.69L506.94,42.67L517.96,43.72L528.98,38.87L540,38.87" style="vector-effect: non-scaling-stroke; fill: none; stroke: rgb(163, 165, 0); stroke-opacity: 1; stroke-width: 2px; opacity: 1;"/></g><g class="points"/><g class="text"/></g><g class="trace scatter tracef1ad81" style="stroke-miterlimit: 2; opacity: 1;"><g class="fills"/><g class="errorbars"/><g class="lines"><path class="js-line" d="M0,254.75L11.02,158.56L22.04,142.87L33.06,138.64L44.08,126.4L55.1,134.56L66.12,128.86L77.14,119.15L88.16,122.18L99.18,127.18L110.2,129.43L121.22,118.87L132.24,126.19L143.27,127.03L154.29,126.54L165.31,127.67L176.33,119.72L187.35,127.88L198.37,123.23L209.39,133.72L220.41,119.72L231.43,121.05L242.45,115.92L253.47,117.11L264.49,112.33L275.51,105.78L286.53,105.01L297.55,96.5L308.57,100.37L319.59,96.14L330.61,88.9L341.63,92.49L352.65,87.84L363.67,78.91L374.69,76.58L396.73,68.63L407.76,62.44L418.78,58.71L429.8,59.48L451.84,50.69L462.86,48.02L473.88,47.73L484.9,48.72L495.92,44.5L506.94,45.06L517.96,42.53L528.98,44.5L540,38.59" style="vector-effect: non-scaling-stroke; fill: none; stroke: rgb(0, 191, 125); stroke-opacity: 1; stroke-width: 2px; opacity: 1;"/></g><g class="points"/><g class="text"/></g><g class="trace scatter tracec0be40" style="stroke-miterlimit: 2; opacity: 1;"><g class="fills"/><g class="errorbars"/><g class="lines"><path class="js-line" d="M0,234.06L11.02,155.18L22.04,142.44L44.08,139.21L55.1,134.7L66.12,129.43L77.14,130.2L88.16,125.13L99.18,128.58L110.2,128.65L121.22,132.8L132.24,124.5L143.27,131.96L154.29,120.91L165.31,119.22L176.33,119.36L187.35,115.49L198.37,118.45L209.39,119.08L220.41,110.85L231.43,112.54L242.45,100.01L253.47,102.69L264.49,94.67L275.51,93.96L286.53,83.55L297.55,86.01L308.57,76.51L319.59,73.91L330.61,65.11L341.63,58.99L352.65,58.78L363.67,54.7L374.69,47.52L385.71,42.11L396.73,41.12L407.76,38.66L418.78,34.08L429.8,28.6L440.82,28.1L451.84,25.08L473.88,23.88L484.9,19.24L495.92,20.43L506.94,18.81L517.96,16L528.98,16.7L540,18.46" style="vector-effect: non-scaling-stroke; fill: none; stroke: rgb(0, 176, 246); stroke-opacity: 1; stroke-width: 2px; opacity: 1;"/></g><g class="points"/><g class="text"/></g><g class="trace scatter traceae42df" style="stroke-miterlimit: 2; opacity: 1;"><g class="fills"/><g class="errorbars"/><g class="lines"><path class="js-line" d="M0,235.82L11.02,152.72L22.04,143.15L33.06,135.55L44.08,129.78L55.1,133.51L66.12,118.1L77.14,123.16L88.16,129.57L99.18,126.05L110.2,121.19L121.22,124.15L132.24,115L143.27,112.33L154.29,105.71L165.31,110.64L176.33,110.5L187.35,105.93L198.37,116.69L209.39,102.69L220.41,107.19L231.43,97.55L242.45,94.67L253.47,90.94L264.49,84.04L275.51,83.9L286.53,81.09L297.55,83.34L308.57,74.4L319.59,71.17L330.61,67.15L341.63,63.07L352.65,57.87L363.67,63.43L374.69,55.12L385.71,48.65L396.73,44.15L407.76,44.92L418.78,41.12L429.8,35.28L440.82,33.59L451.84,30.78L462.86,31.55L473.88,27.26L484.9,32.18L506.94,26.77L517.96,28.17L540,26.48" style="vector-effect: non-scaling-stroke; fill: none; stroke: rgb(231, 107, 243); stroke-opacity: 1; stroke-width: 2px; opacity: 1;"/></g><g class="points"/><g class="text"/></g><g class="trace scatter trace3fedf6" style="stroke-miterlimit: 2; opacity: 1;"><g class="fills"/><g class="errorbars"/><g class="lines"><path class="js-line" d="M0,255.1L11.02,176.08L22.04,151.24L44.08,136.11L55.1,141.46L66.12,129.64L77.14,122.25L88.16,132.8L99.18,127.95L110.2,128.72L121.22,125.06L132.24,118.73L143.27,117.61L154.29,120.14L165.31,121.48L176.33,103.32L187.35,112.75L209.39,125.84L220.41,119.08L231.43,115.42L242.45,102.76L253.47,100.86L264.49,95.3L275.51,94.24L286.53,80.95L297.55,86.72L308.57,82.42L319.59,75.11L330.61,64.27L341.63,63.57L352.65,62.02L374.69,46.82L385.71,55.54L396.73,47.52L407.76,43.79L418.78,38.09L429.8,36.05L440.82,32.61L451.84,33.45L473.88,26.48L484.9,28.74L495.92,29.44L506.94,23.67L517.96,28.24L528.98,22.83L540,21.84" style="vector-effect: non-scaling-stroke; fill: none; stroke: rgb(248, 118, 109); stroke-opacity: 1; stroke-width: 2px; opacity: 1;"/></g><g class="points"/><g class="text"/></g><g class="trace scatter tracea8040a" style="stroke-miterlimit: 2; opacity: 1;"><g class="fills"/><g class="errorbars"/><g class="lines"><path class="js-line" d="M0,247.92L11.02,157.43L22.04,142.37L33.06,140.05L44.08,134.77L55.1,133.37L66.12,133.79L77.14,131.4L88.16,124.01L99.18,127.18L110.2,128.02L121.22,118.73L132.24,113.81L143.27,122.25L154.29,115.42L165.31,112.89L176.33,108.39L187.35,116.13L198.37,114.79L209.39,109.87L220.41,111.84L231.43,104.59L242.45,102.9L253.47,96.57L264.49,98.19L275.51,96.5L286.53,76.23L297.55,82.71L308.57,78.91L319.59,73.84L330.61,65.75L341.63,58.43L352.65,54.49L363.67,54.7L374.69,43.37L385.71,49.7L396.73,49.63L407.76,36.76L418.78,31.2L429.8,31.76L440.82,25.57L451.84,29.23L462.86,29.65L473.88,30.92L484.9,24.02L495.92,23.67L506.94,21.63L517.96,20.71L528.98,23.46L540,19.87" style="vector-effect: non-scaling-stroke; fill: none; stroke: rgb(163, 165, 0); stroke-opacity: 1; stroke-width: 2px; opacity: 1;"/></g><g class="points"/><g class="text"/></g><g class="trace scatter trace616a40" style="stroke-miterlimit: 2; opacity: 1;"><g class="fills"/><g class="errorbars"/><g class="lines"><path class="js-line" d="M0,259.25L11.02,155.39L22.04,142.58L33.06,145.4L44.08,134.14L66.12,132.1L77.14,134.99L88.16,128.16L99.18,130.13L110.2,128.44L121.22,127.95L132.24,129L143.27,133.16L154.29,129.64L165.31,124.5L176.33,124.36L187.35,135.41L198.37,127.25L209.39,123.87L220.41,134.49L231.43,128.3L242.45,122.81L253.47,115.78L264.49,112.19L275.51,113.17L286.53,112.68L297.55,102.83L308.57,103.04L319.59,102.27L330.61,96L341.63,92.42L352.65,93.4L363.67,87.84L374.69,74.68L385.71,67.37L396.73,70.74L407.76,64.9L418.78,60.47L429.8,63.28L440.82,57.94L451.84,58.15L462.86,57.37L473.88,55.76L484.9,53.86L495.92,55.33L517.96,47.66L528.98,51.04L540,49.7" style="vector-effect: non-scaling-stroke; fill: none; stroke: rgb(0, 191, 125); stroke-opacity: 1; stroke-width: 2px; opacity: 1;"/></g><g class="points"/><g class="text"/></g><g class="trace scatter trace0e5410" style="stroke-miterlimit: 2; opacity: 1;"><g class="fills"/><g class="errorbars"/><g class="lines"><path class="js-line" d="M0,253.9L11.02,159.68L22.04,143.92L33.06,147.79L44.08,142.16L66.12,143.15L77.14,138.5L88.16,131.89L99.18,142.02L121.22,129.64L132.24,128.37L143.27,120.91L154.29,123.23L165.31,127.95L176.33,121.41L187.35,123.09L198.37,117.11L209.39,126.89L220.41,125.56L231.43,107.61L242.45,116.83L253.47,109.58L264.49,110.99L275.51,94.17L286.53,97.97L297.55,96.71L308.57,88.33L319.59,79.96L330.61,72.85L341.63,76.79L352.65,67.08L363.67,66.45L374.69,57.37L385.71,52.45L396.73,50.2L407.76,47.52L418.78,45.69L429.8,38.24L440.82,39.57L451.84,37.81L462.86,36.97L473.88,32.82L484.9,31.76L495.92,33.59L506.94,32.96L517.96,31.06L528.98,27.96L540,26.27" style="vector-effect: non-scaling-stroke; fill: none; stroke: rgb(0, 176, 246); stroke-opacity: 1; stroke-width: 2px; opacity: 1;"/></g><g class="points"/><g class="text"/></g><g class="trace scatter tracea7dd0c" style="stroke-miterlimit: 2; opacity: 1;"><g class="fills"/><g class="errorbars"/><g class="lines"><path class="js-line" d="M0,277.89L11.02,154.76L22.04,146.45L33.06,141.74L44.08,140.61L55.1,139.35L66.12,134.84L77.14,132.1L88.16,138.36L99.18,135.76L110.2,138.57L121.22,128.65L132.24,124.92L143.27,124.78L154.29,129.22L165.31,130.83L176.33,125.06L187.35,130.76L198.37,126.05L209.39,125.28L220.41,117.54L231.43,128.79L242.45,126.4L253.47,120.14L264.49,109.16L275.51,105.29L286.53,102.76L297.55,104.52L308.57,93.82L319.59,97.06L330.61,87.35L341.63,79.19L352.65,84.82L363.67,78.41L374.69,81.58L385.71,67.44L396.73,69.12L407.76,63.07L418.78,58.22L429.8,56.81L440.82,58.57L451.84,52.24L462.86,55.05L473.88,47.1L484.9,47.87L495.92,47.73L506.94,49.56L517.96,46.68L528.98,46.4L540,46.12" style="vector-effect: non-scaling-stroke; fill: none; stroke: rgb(231, 107, 243); stroke-opacity: 1; stroke-width: 2px; opacity: 1;"/></g><g class="points"/><g class="text"/></g><g class="trace scatter trace5eb4b2" style="stroke-miterlimit: 2; opacity: 1;"><g class="fills"/><g class="errorbars"/><g class="lines"><path class="js-line" d="M0,258.47L11.02,156.24L22.04,147.72L33.06,147.93L44.08,138.86L55.1,142.44L66.12,139.56L77.14,137.94L88.16,133.58L99.18,128.93L110.2,137.03L121.22,130.97L132.24,118.8L143.27,128.58L154.29,122.46L165.31,131.89L176.33,132.03L187.35,134.56L198.37,131.26L209.39,125.63L220.41,134.92L231.43,126.75L242.45,114.58L253.47,114.16L264.49,112.26L275.51,113.95L286.53,101.84L297.55,99.38L308.57,100.44L319.59,96.5L330.61,98.82L341.63,86.5L352.65,82.99L363.67,85.87L374.69,68.56L385.71,73.49L396.73,64.13L407.76,68.28L418.78,59.27L429.8,56.18L440.82,52.24L451.84,51.39L462.86,49.7L473.88,50.06L484.9,46.61L495.92,49L506.94,44.43L517.96,45.2L528.98,42.67L540,41.33" style="vector-effect: non-scaling-stroke; fill: none; stroke: rgb(248, 118, 109); stroke-opacity: 1; stroke-width: 2px; opacity: 1;"/></g><g class="points"/><g class="text"/></g><g class="trace scatter trace40609e" style="stroke-miterlimit: 2; opacity: 1;"><g class="fills"/><g class="errorbars"/><g class="lines"><path class="js-line" d="M0,249.54L11.02,157.22L22.04,144.2L33.06,137.8L44.08,143.92L55.1,137.38L66.12,128.79L77.14,131.96L88.16,129.99L99.18,124.43L110.2,129.78L121.22,121.33L132.24,128.93L143.27,133.3L154.29,127.03L165.31,127.39L176.33,124.43L187.35,124.36L198.37,142.23L209.39,130.69L220.41,128.86L231.43,120.14L242.45,123.02L253.47,118.59L264.49,121.26L275.51,116.76L286.53,116.9L297.55,104.66L308.57,104.59L319.59,110.22L330.61,98.4L341.63,96.5L352.65,99.38L363.67,92.56L374.69,88.69L407.76,78.69L418.78,72.01L429.8,71.02L440.82,67.72L451.84,72.5L462.86,63.28L473.88,64.69L484.9,64.27L495.92,62.16L506.94,65.33L517.96,58.99L528.98,61.88L540,60.33" style="vector-effect: non-scaling-stroke; fill: none; stroke: rgb(163, 165, 0); stroke-opacity: 1; stroke-width: 2px; opacity: 1;"/></g><g class="points"/><g class="text"/></g><g class="trace scatter traced48bff" style="stroke-miterlimit: 2; opacity: 1;"><g class="fills"/><g class="errorbars"/><g class="lines"><path class="js-line" d="M0,271.49L11.02,163.27L22.04,152.72L33.06,145.75L44.08,142.66L55.1,142.87L66.12,132.95L77.14,134.77L88.16,145.61L99.18,138.71L110.2,134.84L121.22,126.12L132.24,129.78L143.27,131.96L154.29,120.84L165.31,123.45L176.33,130.2L187.35,130.62L198.37,113.88L209.39,122.67L220.41,117.32L231.43,126.4L242.45,116.83L253.47,105.57L264.49,108.95L275.51,110.29L286.53,99.31L297.55,105.43L308.57,94.17L319.59,92.06L330.61,85.17L341.63,86.29L352.65,83.9L363.67,73.91L374.69,70.88L396.73,70.11L407.76,66.24L429.8,56.95L440.82,54.63L451.84,52.03L462.86,52.94L473.88,49.07L484.9,47.17L506.94,49.7L517.96,47.03L528.98,48.16L540,46.96" style="vector-effect: non-scaling-stroke; fill: none; stroke: rgb(0, 191, 125); stroke-opacity: 1; stroke-width: 2px; opacity: 1;"/></g><g class="points"/><g class="text"/></g><g class="trace scatter tracee16b76" style="stroke-miterlimit: 2; opacity: 1;"><g class="fills"/><g class="errorbars"/><g class="lines"><path class="js-line" d="M0,281.06L11.02,163.13L22.04,146.67L33.06,140.76L44.08,142.51L55.1,136.39L66.12,140.19L77.14,139.49L88.16,125.2L99.18,133.44L110.2,128.02L121.22,129.22L132.24,124.64L143.27,117.61L154.29,125.56L165.31,119.44L176.33,121.69L187.35,115L198.37,122.81L209.39,113.67L220.41,115.42L231.43,111.7L242.45,116.83L253.47,114.58L264.49,93.54L275.51,98.47L286.53,98.75L297.55,95.16L308.57,83.9L319.59,83.06L330.61,75.25L352.65,67.72L363.67,66.87L374.69,62.37L385.71,55.69L396.73,48.09L407.76,53.72L418.78,47.17L429.8,44.29L440.82,36.83L451.84,35.63L462.86,34.15L473.88,38.31L484.9,33.59L495.92,29.86L506.94,28.45L517.96,28.03L528.98,26.62L540,29.65" style="vector-effect: non-scaling-stroke; fill: none; stroke: rgb(0, 176, 246); stroke-opacity: 1; stroke-width: 2px; opacity: 1;"/></g><g class="points"/><g class="text"/></g><g class="trace scatter tracee223e4" style="stroke-miterlimit: 2; opacity: 1;"><g class="fills"/><g class="errorbars"/><g class="lines"><path class="js-line" d="M0,271.77L11.02,174.53L22.04,157.71L33.06,141.74L44.08,155.25L55.1,148.78L66.12,139.28L77.14,138.43L88.16,141.81L99.18,133.51L110.2,133.02L121.22,124.15L132.24,121.19L143.27,118.66L154.29,118.31L165.31,115.42L176.33,119.29L187.35,125.56L198.37,112.89L220.41,116.2L231.43,101.14L242.45,111.7L253.47,105.43L264.49,103.53L275.51,94.17L286.53,90.52L297.55,85.24L319.59,87.91L330.61,76.86L341.63,69.83L352.65,60.12L363.67,62.51L374.69,55.61L385.71,55.05L396.73,49.14L407.76,42.74L418.78,45.2L440.82,36.26L451.84,36.9L462.86,30.42L473.88,27.89L484.9,32.96L495.92,35L506.94,30.42L517.96,29.37L540,27.54" style="vector-effect: non-scaling-stroke; fill: none; stroke: rgb(231, 107, 243); stroke-opacity: 1; stroke-width: 2px; opacity: 1;"/></g><g class="points"/><g class="text"/></g><g class="trace scatter tracec01511" style="stroke-miterlimit: 2; opacity: 1;"><g class="fills"/><g class="errorbars"/><g class="lines"><path class="js-line" d="M0,264.24L11.02,159.68L22.04,152.01L33.06,140.19L44.08,138.71L55.1,139.77L66.12,145.26L77.14,147.58L88.16,138.93L99.18,132.45L110.2,127.95L121.22,117.39L132.24,121.26L143.27,119.93L154.29,122.53L165.31,122.11L176.33,117.54L187.35,116.83L198.37,119.15L209.39,114.37L220.41,107.4L231.43,111.13L242.45,97.69L253.47,107.54L264.49,98.4L275.51,85.03L286.53,98.11L297.55,79.33L308.57,77.5L319.59,77.85L330.61,67.23L341.63,68.28L352.65,63.71L363.67,61.53L374.69,56.46L385.71,50.13L396.73,45.2L407.76,43.86L418.78,43.51L429.8,38.73L440.82,43.65L451.84,38.24L462.86,35.21L484.9,36.9L495.92,34.08L517.96,35.35L528.98,34.29L540,31.69" style="vector-effect: non-scaling-stroke; fill: none; stroke: rgb(248, 118, 109); stroke-opacity: 1; stroke-width: 2px; opacity: 1;"/></g><g class="points"/><g class="text"/></g><g class="trace scatter trace194475" style="stroke-miterlimit: 2; opacity: 1;"><g class="fills"/><g class="errorbars"/><g class="lines"><path class="js-line" d="M0,292.11L11.02,168.2L22.04,157.22L33.06,142.16L44.08,141.88L55.1,133.93L66.12,136.04L77.14,135.69L88.16,137.59L99.18,126.47L110.2,126.96L121.22,128.44L132.24,124.85L143.27,119.08L154.29,129.92L165.31,129.85L176.33,118.94L187.35,121.83L198.37,126.33L209.39,120.7L220.41,117.32L231.43,118.52L242.45,108.95L264.49,94.6L275.51,88.83L286.53,89.04L297.55,90.87L308.57,81.51L319.59,82.56L330.61,76.3L341.63,66.94L352.65,70.53L363.67,55.76L374.69,56.95L385.71,55.83L396.73,44.15L407.76,49.42L418.78,42.03L429.8,43.51L440.82,41.19L451.84,40.21L462.86,37.88L473.88,36.34L484.9,33.73L495.92,33.52L506.94,28.03L517.96,32.47L528.98,32.39L540,29.93" style="vector-effect: non-scaling-stroke; fill: none; stroke: rgb(163, 165, 0); stroke-opacity: 1; stroke-width: 2px; opacity: 1;"/></g><g class="points"/><g class="text"/></g><g class="trace scatter traceb34b76" style="stroke-miterlimit: 2; opacity: 1;"><g class="fills"/><g class="errorbars"/><g class="lines"><path class="js-line" d="M0,237.15L11.02,153.77L22.04,144.13L33.06,141.81L44.08,143.08L55.1,142.94L66.12,139.07L77.14,145.96L88.16,137.45L99.18,136.6L110.2,127.25L121.22,126.96L132.24,129.15L143.27,116.62L154.29,116.62L165.31,126.47L176.33,120L198.37,120.56L209.39,116.83L220.41,119.36L231.43,114.3L242.45,109.37L253.47,114.58L264.49,100.58L275.51,100.72L286.53,88.47L297.55,94.03L308.57,84.46L319.59,83.2L330.61,75.67L341.63,74.4L352.65,72.92L363.67,65.25L374.69,65.54L385.71,52.03L396.73,56.04L407.76,48.44L429.8,44.64L440.82,43.93L451.84,39.71L462.86,39.57L473.88,39.29L484.9,37.18L495.92,36.76L506.94,33.66L528.98,32.04L540,29.58" style="vector-effect: non-scaling-stroke; fill: none; stroke: rgb(0, 191, 125); stroke-opacity: 1; stroke-width: 2px; opacity: 1;"/></g><g class="points"/><g class="text"/></g><g class="trace scatter traceef901a" style="stroke-miterlimit: 2; opacity: 1;"><g class="fills"/><g class="errorbars"/><g class="lines"><path class="js-line" d="M0,271.28L11.02,178.61L22.04,163.2L33.06,141.67L44.08,148.35L55.1,138.15L66.12,138.22L77.14,138.57L88.16,129.15L99.18,130.2L110.2,121.69L121.22,127.25L132.24,122.74L154.29,123.38L165.31,120.63L176.33,113.88L187.35,118.73L198.37,116.48L209.39,119.36L220.41,114.02L231.43,116.13L242.45,101.84L253.47,102.41L264.49,101.35L275.51,96.43L286.53,86.5L297.55,83.55L308.57,78.34L319.59,78.69L341.63,72.01L352.65,65.82L363.67,57.8L374.69,53.64L385.71,58.71L396.73,54.07L407.76,44.78L418.78,48.02L429.8,42.88L440.82,39.57L451.84,36.69L462.86,36.76L473.88,39.71L484.9,36.41L495.92,34.29L506.94,36.34L517.96,33.66L528.98,33.59L540,33.31" style="vector-effect: non-scaling-stroke; fill: none; stroke: rgb(0, 176, 246); stroke-opacity: 1; stroke-width: 2px; opacity: 1;"/></g><g class="points"/><g class="text"/></g><g class="trace scatter trace9d9d0f" style="stroke-miterlimit: 2; opacity: 1;"><g class="fills"/><g class="errorbars"/><g class="lines"><path class="js-line" d="M0,304L11.02,164.54L22.04,149.76L33.06,143.29L44.08,144.98L55.1,139.91L66.12,137.17L77.14,137.87L88.16,136.53L110.2,128.3L121.22,125.2L132.24,121.26L143.27,122.46L154.29,129L165.31,115.64L176.33,122.88L187.35,110.22L198.37,116.34L209.39,121.26L231.43,104.73L242.45,108.53L253.47,102.69L264.49,97.9L275.51,91.57L286.53,88.33L297.55,79.82L308.57,80.17L319.59,78.91L330.61,66.38L341.63,68.49L352.65,63.92L363.67,62.79L374.69,51.11L385.71,47.38L396.73,44.71L407.76,41.89L418.78,36.41L451.84,31.06L462.86,27.82L473.88,29.72L484.9,30.78L495.92,26.48L506.94,28.31L517.96,23.81L528.98,21.77L540,19.94" style="vector-effect: non-scaling-stroke; fill: none; stroke: rgb(231, 107, 243); stroke-opacity: 1; stroke-width: 2px; opacity: 1;"/></g><g class="points"/><g class="text"/></g><g class="trace scatter tracef7c1bd" style="stroke-miterlimit: 2; opacity: 1;"><g class="fills"/><g class="errorbars"/><g class="lines"><path class="js-line" d="M0,264.6L11.02,175.44L22.04,153.14L33.06,147.16L44.08,139.42L66.12,139.98L77.14,138.29L88.16,128.51L99.18,126.75L121.22,118.45L132.24,122.95L143.27,117.32L154.29,123.31L165.31,123.16L176.33,120.07L187.35,123.59L198.37,120.77L209.39,123.94L220.41,118.66L231.43,113.95L242.45,118.24L253.47,108.95L264.49,96.29L275.51,88.97L286.53,91.5L297.55,80.73L308.57,77.22L319.59,83.41L330.61,66.38L341.63,66.66L352.65,61.17L374.69,56.88L385.71,45.55L396.73,45.27L407.76,41.61L418.78,37.88L429.8,28.38L440.82,22.75L451.84,25.29L462.86,28.1L473.88,25.36L484.9,21.7L495.92,19.45L506.94,22.19L517.96,20.08L540,18.04" style="vector-effect: non-scaling-stroke; fill: none; stroke: rgb(248, 118, 109); stroke-opacity: 1; stroke-width: 2px; opacity: 1;"/></g><g class="points"/><g class="text"/></g><g class="trace scatter trace20b138" style="stroke-miterlimit: 2; opacity: 1;"><g class="fills"/><g class="errorbars"/><g class="lines"><path class="js-line" d="M0,272.13L11.02,159.68L22.04,150.47L33.06,139.42L44.08,149.27L55.1,145.54L66.12,134.49L77.14,136.67L88.16,130.13L99.18,132.24L110.2,130.76L121.22,122.88L132.24,124.78L143.27,115.92L154.29,125.84L165.31,124.57L176.33,125.91L187.35,131.33L198.37,124.71L209.39,126.19L220.41,112.33L231.43,115.78L242.45,114.02L253.47,109.72L264.49,109.87L275.51,110.36L286.53,96L297.55,98.26L308.57,85.24L319.59,86.43L330.61,91.85L341.63,81.44L352.65,75.6L363.67,74.19L374.69,67.15L385.71,71.45L396.73,62.93L407.76,63.28L418.78,59.27L429.8,56.39L440.82,54.7L451.84,50.2L462.86,50.62L484.9,47.95L495.92,46.54L506.94,48.72L517.96,45.9L528.98,44.43L540,44.71" style="vector-effect: non-scaling-stroke; fill: none; stroke: rgb(163, 165, 0); stroke-opacity: 1; stroke-width: 2px; opacity: 1;"/></g><g class="points"/><g class="text"/></g><g class="trace scatter trace357e91" style="stroke-miterlimit: 2; opacity: 1;"><g class="fills"/><g class="errorbars"/><g class="lines"><path class="js-line" d="M0,263.19L11.02,177.27L22.04,155.39L33.06,146.31L44.08,143.15L55.1,138.08L66.12,137.8L77.14,136.96L88.16,130.06L99.18,139.7L110.2,140.83L121.22,135.27L132.24,140.54L143.27,132.1L154.29,129.36L165.31,131.19L176.33,126.75L187.35,129.78L198.37,122.46L209.39,125.35L220.41,118.66L231.43,119.01L242.45,124.15L253.47,114.72L264.49,109.8L275.51,109.8L286.53,100.16L297.55,98.19L308.57,91.43L319.59,94.53L330.61,85.66L341.63,92.2L352.65,81.51L363.67,71.31L374.69,69.76L385.71,61.74L396.73,58.78L407.76,55.12L418.78,56.04L440.82,47.73L451.84,44.08L462.86,46.33L473.88,44.64L484.9,39.92L495.92,42.67L506.94,44.29L517.96,39.22L528.98,40.98L540,39.22" style="vector-effect: non-scaling-stroke; fill: none; stroke: rgb(0, 191, 125); stroke-opacity: 1; stroke-width: 2px; opacity: 1;"/></g><g class="points"/><g class="text"/></g><g class="trace scatter trace4d5c4f" style="stroke-miterlimit: 2; opacity: 1;"><g class="fills"/><g class="errorbars"/><g class="lines"><path class="js-line" d="M0,295.13L11.02,156.66L22.04,141.95L33.06,142.73L44.08,145.33L55.1,136.74L66.12,133.58L77.14,136.74L88.16,132.52L99.18,121.69L110.2,132.8L121.22,133.02L132.24,128.44L143.27,132.24L154.29,122.53L165.31,138.71L176.33,123.38L187.35,129L198.37,125.98L209.39,127.88L220.41,133.44L231.43,120.42L242.45,124.92L253.47,115.14L264.49,113.38L275.51,111.13L286.53,99.24L297.55,98.82L308.57,84.53L319.59,83.2L330.61,83.13L341.63,68.98L352.65,71.73L363.67,64.48L374.69,61.81L385.71,61.88L396.73,59.48L407.76,53.22L418.78,50.9L440.82,41.19L451.84,32.68L462.86,36.9L473.88,34.72L484.9,34.44L495.92,34.93L506.94,34.93L517.96,32.25L528.98,29.93L540,31.34" style="vector-effect: non-scaling-stroke; fill: none; stroke: rgb(0, 176, 246); stroke-opacity: 1; stroke-width: 2px; opacity: 1;"/></g><g class="points"/><g class="text"/></g><g class="trace scatter trace0f12ce" style="stroke-miterlimit: 2; opacity: 1;"><g class="fills"/><g class="errorbars"/><g class="lines"><path class="js-line" d="M0,280.99L11.02,166.58L22.04,156.52L33.06,146.6L44.08,142.66L55.1,142.16L66.12,129.92L77.14,133.02L88.16,138.5L99.18,134.07L110.2,131.96L121.22,137.87L132.24,127.88L143.27,126.26L154.29,122.04L165.31,109.65L176.33,112.61L187.35,116.48L198.37,113.45L209.39,113.52L220.41,107.9L231.43,107.75L242.45,102.34L253.47,102.83L264.49,98.68L275.51,98.54L286.53,94.03L297.55,81.86L308.57,77.78L319.59,75.95L330.61,64.06L341.63,66.03L352.65,62.58L363.67,61.03L374.69,53.79L385.71,56.46L396.73,49L407.76,43.72L418.78,44.36L440.82,29.93L451.84,40.21L462.86,34.51L473.88,33.8L484.9,31.55L495.92,26.98L506.94,26.7L517.96,24.58L540,21.63" style="vector-effect: non-scaling-stroke; fill: none; stroke: rgb(231, 107, 243); stroke-opacity: 1; stroke-width: 2px; opacity: 1;"/></g><g class="points"/><g class="text"/></g><g class="trace scatter tracefef83e" style="stroke-miterlimit: 2; opacity: 1;"><g class="fills"/><g class="errorbars"/><g class="lines"><path class="js-line" d="M0,286.97L11.02,163.69L22.04,144.77L33.06,142.02L44.08,134.49L55.1,140.54L66.12,137.24L77.14,136.39L88.16,133.93L99.18,133.02L110.2,133.86L121.22,138.43L132.24,137.38L143.27,130.9L154.29,126.54L165.31,127.53L176.33,131.75L187.35,122.04L198.37,127.25L209.39,127.39L220.41,121.62L231.43,118.03L242.45,123.52L253.47,120.98L264.49,109.09L275.51,110.92L286.53,109.02L297.55,91.43L308.57,96.29L319.59,83.27L330.61,83.62L341.63,73.28L352.65,73.42L374.69,64.06L385.71,63.14L396.73,60.26L407.76,54.77L429.8,50.13L440.82,41.75L462.86,40.06L473.88,42.88L484.9,37.25L495.92,35.98L517.96,34.86L528.98,31.83L540,31.97" style="vector-effect: non-scaling-stroke; fill: none; stroke: rgb(248, 118, 109); stroke-opacity: 1; stroke-width: 2px; opacity: 1;"/></g><g class="points"/><g class="text"/></g><g class="trace scatter tracefc96be" style="stroke-miterlimit: 2; opacity: 1;"><g class="fills"/><g class="errorbars"/><g class="lines"><path class="js-line" d="M0,267.34L11.02,178.12L22.04,152.15L33.06,140.97L44.08,146.67L66.12,139.56L77.14,140.4L88.16,139.91L99.18,125.49L110.2,130.2L121.22,126.12L132.24,129.85L143.27,118.03L154.29,132.8L165.31,129.78L176.33,126.12L187.35,128.23L198.37,125.35L209.39,126.54L220.41,129.22L231.43,123.73L242.45,123.94L253.47,109.94L275.51,105.01L286.53,99.24L297.55,93.68L308.57,89.25L319.59,82.42L330.61,86.01L341.63,77.22L352.65,67.44L363.67,66.66L374.69,67.93L385.71,59.34L396.73,57.87L418.78,50.2L429.8,49.49L440.82,40.42L451.84,40.63L462.86,39.78L473.88,34.79L484.9,37.39L495.92,32.96L506.94,36.83L517.96,35.98L528.98,35.63L540,34.37" style="vector-effect: non-scaling-stroke; fill: none; stroke: rgb(163, 165, 0); stroke-opacity: 1; stroke-width: 2px; opacity: 1;"/></g><g class="points"/><g class="text"/></g><g class="trace scatter trace1b03f5" style="stroke-miterlimit: 2; opacity: 1;"><g class="fills"/><g class="errorbars"/><g class="lines"><path class="js-line" d="M0,260.87L11.02,161.58L22.04,151.59L33.06,144.84L44.08,139L55.1,135.9L66.12,139.14L77.14,137.17L88.16,128.37L99.18,122.18L110.2,119.93L121.22,117.89L132.24,119.51L143.27,120.84L154.29,117.96L165.31,123.38L176.33,120.84L187.35,132.03L198.37,132.17L209.39,119.44L220.41,124.78L231.43,111.77L242.45,117.75L253.47,104.73L264.49,111.13L275.51,112.54L286.53,104.87L297.55,95.93L308.57,108.53L319.59,90.16L330.61,86.15L341.63,87.14L352.65,85.87L363.67,82.85L374.69,72.43L385.71,74.82L396.73,75.46L407.76,60.54L418.78,54.07L429.8,52.87L440.82,55.97L451.84,42.74L462.86,55.19L473.88,46.75L484.9,49.42L495.92,46.4L506.94,41.75L517.96,48.37L528.98,38.02L540,42.39" style="vector-effect: non-scaling-stroke; fill: none; stroke: rgb(0, 191, 125); stroke-opacity: 1; stroke-width: 2px; opacity: 1;"/></g><g class="points"/><g class="text"/></g><g class="trace scatter trace042485" style="stroke-miterlimit: 2; opacity: 1;"><g class="fills"/><g class="errorbars"/><g class="lines"><path class="js-line" d="M0,235.18L11.02,166.37L22.04,147.16L33.06,147.37L44.08,145.68L66.12,131.26L77.14,133.09L99.18,138.01L110.2,131.4L121.22,121.9L132.24,124.64L154.29,128.23L165.31,115.14L176.33,124.08L187.35,118.1L198.37,119.72L209.39,120.35L220.41,128.51L231.43,117.32L242.45,112.47L253.47,118.03L264.49,106L275.51,112.82L286.53,97.76L297.55,101.21L308.57,96.14L319.59,98.26L330.61,86.79L341.63,84.11L352.65,76.65L363.67,80.88L374.69,67.58L385.71,64.76L396.73,68.56L407.76,61.03L418.78,54.07L429.8,53.64L440.82,48.09L451.84,48.86L462.86,47.95L473.88,45.69L484.9,42.74L495.92,44.57L506.94,44.85L517.96,43.86L540,41.75" style="vector-effect: non-scaling-stroke; fill: none; stroke: rgb(0, 176, 246); stroke-opacity: 1; stroke-width: 2px; opacity: 1;"/></g><g class="points"/><g class="text"/></g><g class="trace scatter trace8ec384" style="stroke-miterlimit: 2; opacity: 1;"><g class="fills"/><g class="errorbars"/><g class="lines"><path class="js-line" d="M0,227.16L11.02,169.11L22.04,157.22L33.06,140.05L44.08,143.57L55.1,145.54L66.12,137.59L77.14,132.8L88.16,134.63L99.18,133.79L110.2,130.13L121.22,131.68L132.24,136.67L143.27,133.37L154.29,140.47L165.31,134.7L176.33,133.02L198.37,129.5L209.39,137.24L231.43,121.69L242.45,130.55L253.47,136.18L264.49,126.12L275.51,118.66L286.53,115.71L297.55,120.49L308.57,108.53L319.59,99.45L330.61,103.53L341.63,95.44L352.65,96.71L363.67,95.79L374.69,85.59L385.71,89.25L396.73,89.74L407.76,82.28L418.78,78.13L429.8,70.67L440.82,74.33L451.84,71.45L462.86,63.43L473.88,65.68L484.9,66.24L495.92,63.85L506.94,66.03L517.96,63.21L528.98,66.73L540,64.2" style="vector-effect: non-scaling-stroke; fill: none; stroke: rgb(231, 107, 243); stroke-opacity: 1; stroke-width: 2px; opacity: 1;"/></g><g class="points"/><g class="text"/></g><g class="trace scatter traceab993b" style="stroke-miterlimit: 2; opacity: 1;"><g class="fills"/><g class="errorbars"/><g class="lines"><path class="js-line" d="M0,254.96L11.02,175.52L22.04,154.62L33.06,151.1L44.08,139.14L55.1,143.15L66.12,144.77L77.14,138.08L88.16,141.88L99.18,134.49L110.2,130.83L121.22,136.96L132.24,128.93L143.27,133.3L154.29,130.2L165.31,138.29L176.33,133.3L187.35,136.89L198.37,131.33L209.39,138.43L220.41,131.61L231.43,129.71L242.45,123.09L264.49,129.57L275.51,120.7L286.53,123.59L297.55,114.23L308.57,111.2L319.59,117.25L330.61,113.81L341.63,111.48L352.65,106.77L363.67,98.89L374.69,102.34L385.71,91.36L396.73,88.83L407.76,84.53L418.78,82.56L429.8,76.3L440.82,79.12L451.84,79.26L462.86,76.51L473.88,75.46L484.9,69.48L495.92,74.89L506.94,69.12L517.96,68.84L540,66.31" style="vector-effect: non-scaling-stroke; fill: none; stroke: rgb(248, 118, 109); stroke-opacity: 1; stroke-width: 2px; opacity: 1;"/></g><g class="points"/><g class="text"/></g><g class="trace scatter traced630a8" style="stroke-miterlimit: 2; opacity: 1;"><g class="fills"/><g class="errorbars"/><g class="lines"><path class="js-line" d="M0,241.87L11.02,167.56L22.04,151.8L33.06,141.32L44.08,139.63L55.1,132.17L66.12,128.37L77.14,133.3L88.16,134.99L99.18,122.04L110.2,120.35L121.22,124.85L132.24,119.01L143.27,115.92L154.29,123.38L165.31,118.24L176.33,116.34L187.35,118.31L198.37,123.02L209.39,112.61L220.41,117.75L242.45,108.74L253.47,102.13L275.51,91.64L286.53,87.77L297.55,80.17L308.57,85.31L319.59,72.85L330.61,71.1L341.63,68.21L352.65,68.35L363.67,66.31L374.69,55.69L385.71,61.46L396.73,50.06L407.76,47.73L418.78,42.81L429.8,39.85L440.82,36.05L451.84,29.65L462.86,33.52L473.88,30.92L484.9,33.87L495.92,32.32L506.94,27.4L517.96,27.47L528.98,25.99L540,26.41" style="vector-effect: non-scaling-stroke; fill: none; stroke: rgb(163, 165, 0); stroke-opacity: 1; stroke-width: 2px; opacity: 1;"/></g><g class="points"/><g class="text"/></g><g class="trace scatter tracea8d652" style="stroke-miterlimit: 2; opacity: 1;"><g class="fills"/><g class="errorbars"/><g class="lines"><path class="js-line" d="M0,248.69L11.02,161.02L22.04,152.15L33.06,151.24L44.08,137.52L55.1,136.53L66.12,134.35L77.14,129.43L88.16,129.71L99.18,138.36L110.2,117.75L121.22,118.8L132.24,113.52L143.27,116.06L154.29,111.13L165.31,117.25L176.33,112.47L187.35,118.52L198.37,109.51L209.39,113.67L220.41,111.98L231.43,117.75L242.45,106.84L253.47,101.91L264.49,90.59L275.51,96.29L286.53,87.91L297.55,82.85L308.57,71.8L319.59,71.8L330.61,70.18L341.63,62.16L352.65,58.43L363.67,57.51L374.69,57.94L385.71,51.74L396.73,46.96L407.76,40.28L418.78,39.92L429.8,40.98L440.82,32.32L451.84,37.67L462.86,35.42L473.88,36.12L484.9,35.49L495.92,36.19L506.94,32.11L528.98,32.82L540,29.16" style="vector-effect: non-scaling-stroke; fill: none; stroke: rgb(0, 191, 125); stroke-opacity: 1; stroke-width: 2px; opacity: 1;"/></g><g class="points"/><g class="text"/></g><g class="trace scatter tracee7225a" style="stroke-miterlimit: 2; opacity: 1;"><g class="fills"/><g class="errorbars"/><g class="lines"><path class="js-line" d="M0,254.46L11.02,169.68L22.04,145.96L33.06,145.12L44.08,141.39L55.1,137.45L66.12,144.91L88.16,133.09L99.18,138.79L110.2,132.31L121.22,128.93L132.24,134.84L143.27,126.68L154.29,131.89L165.31,128.58L176.33,123.87L187.35,123.31L198.37,129.64L209.39,124.15L220.41,119.58L231.43,119.65L253.47,106.28L264.49,101.21L275.51,104.38L286.53,86.5L297.55,86.86L308.57,79.61L319.59,81.3L330.61,70.81L341.63,70.67L352.65,67.44L363.67,54.7L374.69,51.96L385.71,52.59L396.73,47.59L407.76,48.02L418.78,43.16L429.8,37.95L440.82,27.54L462.86,30.07L473.88,28.17L484.9,23.18L495.92,22.97L506.94,23.11L517.96,20.57L528.98,21.42L540,16.21" style="vector-effect: non-scaling-stroke; fill: none; stroke: rgb(0, 176, 246); stroke-opacity: 1; stroke-width: 2px; opacity: 1;"/></g><g class="points"/><g class="text"/></g><g class="trace scatter trace09d7e9" style="stroke-miterlimit: 2; opacity: 1;"><g class="fills"/><g class="errorbars"/><g class="lines"><path class="js-line" d="M0,259.81L11.02,166.09L22.04,145.4L33.06,139.14L44.08,138.29L55.1,132.17L66.12,133.86L88.16,126.89L99.18,129.71L110.2,118.87L121.22,116.9L132.24,119.86L143.27,121.83L154.29,122.95L165.31,126.89L176.33,124.01L187.35,125.06L198.37,129.43L209.39,117.11L220.41,125.28L231.43,121.62L242.45,111.7L253.47,107.54L264.49,107.26L275.51,105.85L286.53,96.07L297.55,89.25L308.57,97.55L319.59,85.94L330.61,88.76L341.63,85.59L352.65,73.91L363.67,77.22L374.69,73.56L385.71,65.68L396.73,62.16L407.76,60.82L418.78,56.32L429.8,59.77L440.82,50.27L451.84,53.43L462.86,53.29L473.88,49.42L484.9,48.09L495.92,48.23L506.94,43.72L517.96,46.12L528.98,45.27L540,41.75" style="vector-effect: non-scaling-stroke; fill: none; stroke: rgb(231, 107, 243); stroke-opacity: 1; stroke-width: 2px; opacity: 1;"/></g><g class="points"/><g class="text"/></g></g></g><g class="overplot"/><path class="xlines-above crisp" d="" style="fill: none; stroke-width: 1px; stroke: rgb(0, 0, 0); stroke-opacity: 0;"/><path class="ylines-above crisp" d="" style="fill: none; stroke-width: 1px; stroke: rgb(0, 0, 0); stroke-opacity: 0;"/><g class="overlines-above"/><g class="xaxislayer-above"><path class="xtick ticks crisp" d="M0,421v5" transform="translate(80,0)" style="stroke: rgb(51, 51, 51); stroke-opacity: 1; stroke-width: 1px;"/><path class="xtick ticks crisp" d="M0,421v5" transform="translate(190.2,0)" style="stroke: rgb(51, 51, 51); stroke-opacity: 1; stroke-width: 1px;"/><path class="xtick ticks crisp" d="M0,421v5" transform="translate(300.40999999999997,0)" style="stroke: rgb(51, 51, 51); stroke-opacity: 1; stroke-width: 1px;"/><path class="xtick ticks crisp" d="M0,421v5" transform="translate(410.61,0)" style="stroke: rgb(51, 51, 51); stroke-opacity: 1; stroke-width: 1px;"/><path class="xtick ticks crisp" d="M0,421v5" transform="translate(520.8199999999999,0)" style="stroke: rgb(51, 51, 51); stroke-opacity: 1; stroke-width: 1px;"/><g class="xtick"><text text-anchor="middle" x="0" y="440.4" transform="translate(80,0)" style="font-family: 'Open Sans', verdana, arial, sans-serif; font-size: 12px; fill: rgb(51, 51, 51); fill-opacity: 1; white-space: pre; opacity: 1;">0</text></g><g class="xtick"><text text-anchor="middle" x="0" y="440.4" style="font-family: 'Open Sans', verdana, arial, sans-serif; font-size: 12px; fill: rgb(51, 51, 51); fill-opacity: 1; white-space: pre; opacity: 1;" transform="translate(190.2,0)">10</text></g><g class="xtick"><text text-anchor="middle" x="0" y="440.4" style="font-family: 'Open Sans', verdana, arial, sans-serif; font-size: 12px; fill: rgb(51, 51, 51); fill-opacity: 1; white-space: pre; opacity: 1;" transform="translate(300.40999999999997,0)">20</text></g><g class="xtick"><text text-anchor="middle" x="0" y="440.4" style="font-family: 'Open Sans', verdana, arial, sans-serif; font-size: 12px; fill: rgb(51, 51, 51); fill-opacity: 1; white-space: pre; opacity: 1;" transform="translate(410.61,0)">30</text></g><g class="xtick"><text text-anchor="middle" x="0" y="440.4" style="font-family: 'Open Sans', verdana, arial, sans-serif; font-size: 12px; fill: rgb(51, 51, 51); fill-opacity: 1; white-space: pre; opacity: 1;" transform="translate(520.8199999999999,0)">40</text></g></g><g class="yaxislayer-above"><path class="ytick ticks crisp" d="M79,0h-5" transform="translate(0,398.16)" style="stroke: rgb(51, 51, 51); stroke-opacity: 1; stroke-width: 1px;"/><path class="ytick ticks crisp" d="M79,0h-5" transform="translate(0,334.83000000000004)" style="stroke: rgb(51, 51, 51); stroke-opacity: 1; stroke-width: 1px;"/><path class="ytick ticks crisp" d="M79,0h-5" transform="translate(0,271.5)" style="stroke: rgb(51, 51, 51); stroke-opacity: 1; stroke-width: 1px;"/><path class="ytick ticks crisp" d="M79,0h-5" transform="translate(0,208.18)" style="stroke: rgb(51, 51, 51); stroke-opacity: 1; stroke-width: 1px;"/><path class="ytick ticks crisp" d="M79,0h-5" transform="translate(0,144.85)" style="stroke: rgb(51, 51, 51); stroke-opacity: 1; stroke-width: 1px;"/><g class="ytick"><text text-anchor="end" x="71.6" y="4.199999999999999" transform="translate(0,398.16)" style="font-family: 'Open Sans', verdana, arial, sans-serif; font-size: 12px; fill: rgb(51, 51, 51); fill-opacity: 1; white-space: pre; opacity: 1;">0.22</text></g><g class="ytick"><text text-anchor="end" x="71.6" y="4.199999999999999" style="font-family: 'Open Sans', verdana, arial, sans-serif; font-size: 12px; fill: rgb(51, 51, 51); fill-opacity: 1; white-space: pre; opacity: 1;" transform="translate(0,334.83000000000004)">0.24</text></g><g class="ytick"><text text-anchor="end" x="71.6" y="4.199999999999999" style="font-family: 'Open Sans', verdana, arial, sans-serif; font-size: 12px; fill: rgb(51, 51, 51); fill-opacity: 1; white-space: pre; opacity: 1;" transform="translate(0,271.5)">0.26</text></g><g class="ytick"><text text-anchor="end" x="71.6" y="4.199999999999999" style="font-family: 'Open Sans', verdana, arial, sans-serif; font-size: 12px; fill: rgb(51, 51, 51); fill-opacity: 1; white-space: pre; opacity: 1;" transform="translate(0,208.18)">0.28</text></g><g class="ytick"><text text-anchor="end" x="71.6" y="4.199999999999999" style="font-family: 'Open Sans', verdana, arial, sans-serif; font-size: 12px; fill: rgb(51, 51, 51); fill-opacity: 1; white-space: pre; opacity: 1;" transform="translate(0,144.85)">0.3</text></g></g><g class="overaxes-above"/></g></g><g class="polarlayer"/><g class="ternarylayer"/><g class="geolayer"/><g class="funnelarealayer"/><g class="pielayer"/><g class="iciclelayer"/><g class="treemaplayer"/><g class="sunburstlayer"/><g class="glimages"/><defs id="topdefs-8221a1"><g class="clips"/></defs><g class="layer-above"><g class="imagelayer"/><g class="shapelayer"/></g><g class="infolayer"><g class="g-gtitle"><text class="gtitle" x="350" y="50" text-anchor="middle" dy="0em" style="font-family: 'Open Sans', verdana, arial, sans-serif; font-size: 17px; fill: rgb(51, 51, 51); opacity: 1; font-weight: normal; white-space: pre;">Train Accuracy: ascad_v1_fk_0_noisy-s_eff_cnn_hw (original)</text></g><g class="g-xtitle"/><g class="g-ytitle"/></g></svg>