<svg class="main-svg" xmlns="http://www.w3.org/2000/svg" xmlns:xlink="http://www.w3.org/1999/xlink" width="700" height="500" style="" viewBox="0 0 700 500"><rect x="0" y="0" width="700" height="500" style="fill: rgb(255, 255, 255); fill-opacity: 1;"/><defs id="defs-e6c898"><g class="clips"><clipPath id="clipe6c898xyplot" class="plotclip"><rect width="540" height="320"/></clipPath><clipPath class="axesclip" id="clipe6c898x"><rect x="80" y="0" width="540" height="500"/></clipPath><clipPath class="axesclip" id="clipe6c898y"><rect x="0" y="100" width="700" height="320"/></clipPath><clipPath class="axesclip" id="clipe6c898xy"><rect x="80" y="100" width="540" height="320"/></clipPath></g><g class="gradients"/><g class="patterns"/></defs><g class="bglayer"><rect class="bg" x="80" y="100" width="540" height="320" style="fill: rgb(237, 237, 237); fill-opacity: 1; stroke-width: 0;"/></g><g class="layer-below"><g class="imagelayer"/><g class="shapelayer"/></g><g class="cartesianlayer"><g class="subplot xy"><g class="layer-subplot"><g class="shapelayer"/><g class="imagelayer"/></g><g class="gridlayer"><g class="x"><path class="xgrid crisp" transform="translate(189.09,0)" d="M0,100v320" style="stroke: rgb(255, 255, 255); stroke-opacity: 1; stroke-width: 1px;"/><path class="xgrid crisp" transform="translate(298.18,0)" d="M0,100v320" style="stroke: rgb(255, 255, 255); stroke-opacity: 1; stroke-width: 1px;"/><path class="xgrid crisp" transform="translate(407.27,0)" d="M0,100v320" style="stroke: rgb(255, 255, 255); stroke-opacity: 1; stroke-width: 1px;"/><path class="xgrid crisp" transform="translate(516.36,0)" d="M0,100v320" style="stroke: rgb(255, 255, 255); stroke-opacity: 1; stroke-width: 1px;"/></g><g class="y"><path class="ygrid crisp" transform="translate(0,385.66)" d="M80,0h540" style="stroke: rgb(255, 255, 255); stroke-opacity: 1; stroke-width: 1px;"/><path class="ygrid crisp" transform="translate(0,345.15999999999997)" d="M80,0h540" style="stroke: rgb(255, 255, 255); stroke-opacity: 1; stroke-width: 1px;"/><path class="ygrid crisp" transform="translate(0,304.65999999999997)" d="M80,0h540" style="stroke: rgb(255, 255, 255); stroke-opacity: 1; stroke-width: 1px;"/><path class="ygrid crisp" transform="translate(0,264.15999999999997)" d="M80,0h540" style="stroke: rgb(255, 255, 255); stroke-opacity: 1; stroke-width: 1px;"/><path class="ygrid crisp" transform="translate(0,223.66)" d="M80,0h540" style="stroke: rgb(255, 255, 255); stroke-opacity: 1; stroke-width: 1px;"/><path class="ygrid crisp" transform="translate(0,183.16)" d="M80,0h540" style="stroke: rgb(255, 255, 255); stroke-opacity: 1; stroke-width: 1px;"/><path class="ygrid crisp" transform="translate(0,142.67000000000002)" d="M80,0h540" style="stroke: rgb(255, 255, 255); stroke-opacity: 1; stroke-width: 1px;"/><path class="ygrid crisp" transform="translate(0,102.17)" d="M80,0h540" style="stroke: rgb(255, 255, 255); stroke-opacity: 1; stroke-width: 1px;"/></g></g><g class="zerolinelayer"><path class="xzl zl crisp" transform="translate(80,0)" d="M0,100v320" style="stroke: rgb(255, 255, 255); stroke-opacity: 1; stroke-width: 1px;"/></g><path class="xlines-below"/><path class="ylines-below"/><g class="overlines-below"/><g class="xaxislayer-below"/><g class="yaxislayer-below"/><g class="overaxes-below"/><g class="plot" transform="translate(80,100)" clip-path="url(#clipe6c898xyplot)"><g class="scatterlayer mlayer"><g class="trace scatter trace5f9bf2" style="stroke-miterlimit: 2; opacity: 1;"><g class="fills"/><g class="errorbars"/><g class="lines"><path class="js-line" d="M0,302.31L5.45,297.25L10.91,296.92L16.36,294.81L21.82,293.52L27.27,292.33L32.73,289.76L43.64,279.66L49.09,272.55L60,253.18L65.45,239.87L76.36,219.09L81.82,211.24L92.73,194.59L98.18,187.89L103.64,179.44L109.09,174.73L114.55,169.9L120,162.3L125.45,158L130.91,152.4L141.82,142.07L147.27,138.04L152.73,132.01L158.18,128.93L163.64,123.65L169.09,120.77L190.91,104L196.36,101.57L201.82,97.59L207.27,95.54L218.18,86.04L223.64,83.09L229.09,81.12L234.55,77.24L240,73.72L245.45,71.5L250.91,68.54L256.36,67.41L261.82,63.82L267.27,62.05L278.18,57.74L283.64,53.85L294.55,52.34L300,49.45L310.91,45.81L316.36,44.35L327.27,41.99L332.73,39.73L338.18,38.45L343.64,38.89L354.55,35.61L360,34.37L376.36,32.06L381.82,30.13L387.27,30.68L392.73,29.99L414.55,28.15L420,26.64L436.36,25.94L441.82,24.39L447.27,25.21L452.73,24.01L469.09,22.69L474.55,23.28L490.91,22.25L496.36,20.83L507.27,21.93L512.73,20.85L518.18,20.65L523.64,19.58L529.09,21.33L534.55,19.19L540,19.01" style="vector-effect: non-scaling-stroke; fill: none; stroke: rgb(248, 118, 109); stroke-opacity: 1; stroke-width: 2px; opacity: 1;"/></g><g class="points"/><g class="text"/></g><g class="trace scatter traceac313c" style="stroke-miterlimit: 2; opacity: 1;"><g class="fills"/><g class="errorbars"/><g class="lines"><path class="js-line" d="M0,302.29L5.45,297.55L10.91,296.47L32.73,291.46L38.18,287.37L43.64,283.9L49.09,278.01L54.55,270.56L60,261.72L65.45,252.98L70.91,241.22L76.36,232.8L81.82,222.98L92.73,203.25L98.18,198.12L103.64,190.67L109.09,181.95L114.55,172.93L120,168.44L152.73,130.79L158.18,125.32L163.64,119.71L169.09,115.41L174.55,111.29L180,105.99L190.91,96.48L196.36,93.34L201.82,88.18L207.27,84.55L223.64,73.63L229.09,73.01L234.55,69.25L240,67.01L250.91,60.95L256.36,58.76L261.82,56.15L267.27,55.01L278.18,50.98L283.64,47.19L289.09,47.27L294.55,45.19L310.91,41.26L316.36,40.43L327.27,39.19L332.73,36.55L343.64,36.16L349.09,35.18L360,32.27L365.45,32.56L376.36,31.49L381.82,30.72L420,27.58L425.45,25.96L436.36,25.87L441.82,25.85L447.27,26.06L452.73,24.77L458.18,25.63L463.64,23.49L469.09,24.51L474.55,23.8L490.91,22.16L496.36,23.24L501.82,23.33L507.27,21.57L523.64,22.04L529.09,20.77L534.55,21.34L540,20.65" style="vector-effect: non-scaling-stroke; fill: none; stroke: rgb(163, 165, 0); stroke-opacity: 1; stroke-width: 2px; opacity: 1;"/></g><g class="points"/><g class="text"/></g><g class="trace scatter tracedd388d" style="stroke-miterlimit: 2; opacity: 1;"><g class="fills"/><g class="errorbars"/><g class="lines"><path class="js-line" d="M0,302.16L5.45,297.86L10.91,296.68L21.82,293.84L27.27,291.19L32.73,289.88L38.18,284.28L43.64,278.26L49.09,270.31L54.55,258.49L60,249.39L70.91,227.04L76.36,218.24L92.73,191.29L98.18,184.2L103.64,177.5L109.09,168.88L114.55,160.48L120,154.93L136.36,138.97L141.82,133.91L152.73,123.91L158.18,121.63L163.64,115.46L169.09,112.86L180,103.54L185.45,101.07L190.91,96.75L196.36,94.62L201.82,90.48L207.27,87.43L212.73,83.32L218.18,80.61L234.55,72.51L240,69.74L245.45,67.08L250.91,65.83L256.36,62.59L261.82,61.26L272.73,58.05L278.18,55.07L283.64,54.56L289.09,52.4L300,48.84L305.45,48.43L316.36,44.27L321.82,43.67L332.73,41.88L338.18,40.35L365.45,35.69L370.91,35.71L376.36,34.35L381.82,34.26L387.27,32.24L392.73,32.24L398.18,31.57L403.64,32.06L409.09,30.29L414.55,29.87L420,29.52L425.45,28.05L430.91,28.45L436.36,27.56L441.82,27.6L447.27,25.98L452.73,26.56L458.18,26.12L469.09,25.49L474.55,24.7L480,24.54L485.45,25.49L490.91,23.72L496.36,23.78L507.27,22.64L512.73,22.85L529.09,21.42L534.55,21.11L540,20.11" style="vector-effect: non-scaling-stroke; fill: none; stroke: rgb(0, 191, 125); stroke-opacity: 1; stroke-width: 2px; opacity: 1;"/></g><g class="points"/><g class="text"/></g><g class="trace scatter trace77b9b5" style="stroke-miterlimit: 2; opacity: 1;"><g class="fills"/><g class="errorbars"/><g class="lines"><path class="js-line" d="M0,303.39L5.45,298.23L10.91,297.3L27.27,292.96L32.73,289.43L38.18,286.29L43.64,279.93L49.09,273.87L54.55,265.17L92.73,196.35L98.18,190.25L120,161.47L125.45,156.24L130.91,151.91L136.36,145.92L147.27,135.28L152.73,131.98L163.64,122.53L169.09,118.86L174.55,114.21L180,110.79L185.45,107.83L190.91,103.1L207.27,94.46L212.73,89.73L218.18,87.72L223.64,84.64L234.55,79.16L240,76.37L245.45,73.17L250.91,71.74L256.36,67.55L261.82,66.79L272.73,61.26L278.18,60.41L283.64,56.92L289.09,55.03L300,52.19L305.45,49.45L316.36,48.08L321.82,45.83L327.27,43.58L332.73,42.94L338.18,41.33L343.64,41.26L349.09,40.15L354.55,37.75L360,37.77L365.45,36.56L376.36,34.53L381.82,34.68L387.27,32.81L392.73,33.23L398.18,31.99L403.64,31.67L409.09,30.44L414.55,30.08L447.27,26.17L452.73,26.67L458.18,24.87L463.64,24.77L469.09,25.21L474.55,24.86L480,24.56L485.45,23.32L490.91,23.87L496.36,23.01L507.27,22.7L512.73,22.63L518.18,23.06L523.64,22.61L529.09,21.47L534.55,21.34L540,20.8" style="vector-effect: non-scaling-stroke; fill: none; stroke: rgb(0, 176, 246); stroke-opacity: 1; stroke-width: 2px; opacity: 1;"/></g><g class="points"/><g class="text"/></g><g class="trace scatter traceee6210" style="stroke-miterlimit: 2; opacity: 1;"><g class="fills"/><g class="errorbars"/><g class="lines"><path class="js-line" d="M0,301.4L5.45,298.34L10.91,297.03L27.27,292.65L32.73,290.68L38.18,286.17L43.64,279.74L49.09,271.76L54.55,261.7L76.36,215.75L81.82,205.62L98.18,177.83L103.64,170.21L120,149.52L125.45,142.91L136.36,129.38L141.82,124.05L163.64,102.95L169.09,98.47L180,90.08L185.45,85.71L196.36,78.16L201.82,73.86L212.73,66.79L218.18,65.14L234.55,56.2L240,53.77L245.45,51.01L250.91,49.33L261.82,44.48L267.27,42.52L300,35.02L305.45,34.2L316.36,32.45L321.82,32.55L332.73,30.83L338.18,29.45L349.09,27.66L354.55,27.94L365.45,25.94L370.91,26.57L381.82,25.68L387.27,25.12L392.73,24.02L398.18,24.15L403.64,24.81L409.09,24.14L414.55,22.87L420,22.68L425.45,23.85L430.91,22.19L452.73,21.86L458.18,21.02L463.64,21.02L469.09,20.18L474.55,20.59L480,19.41L485.45,20.13L490.91,19.75L518.18,19.48L523.64,18.5L529.09,19.28L534.55,17.71L540,17.93" style="vector-effect: non-scaling-stroke; fill: none; stroke: rgb(231, 107, 243); stroke-opacity: 1; stroke-width: 2px; opacity: 1;"/></g><g class="points"/><g class="text"/></g><g class="trace scatter tracede4274" style="stroke-miterlimit: 2; opacity: 1;"><g class="fills"/><g class="errorbars"/><g class="lines"><path class="js-line" d="M0,302.7L5.45,298.22L10.91,297.3L27.27,293.43L32.73,288.59L38.18,285.14L43.64,279.41L60,251.7L65.45,241.49L70.91,232.17L76.36,220.94L81.82,214.04L87.27,205.26L92.73,195.92L98.18,188.7L103.64,182.12L109.09,174.33L120,161.42L125.45,156.64L136.36,143.54L141.82,139.49L152.73,129.41L158.18,126.11L169.09,115.45L174.55,112.31L185.45,102.61L190.91,100L196.36,96.35L201.82,93.77L207.27,89.6L212.73,88.14L218.18,83.81L223.64,82.16L240,72.36L245.45,71.04L250.91,68.43L256.36,67.65L267.27,60.33L272.73,58.87L294.55,51.91L300,51.66L305.45,48.61L310.91,46.54L316.36,45.73L321.82,43.55L332.73,41.03L338.18,39.87L343.64,38.28L349.09,38.83L354.55,36.76L360,35.82L370.91,33.31L376.36,32L387.27,30.65L392.73,31.1L409.09,28.15L414.55,27.87L430.91,24.89L436.36,25.95L447.27,23.96L452.73,24.4L458.18,23.06L463.64,23.9L469.09,22.6L474.55,23.38L480,22.2L485.45,21.8L501.82,21.61L507.27,19.56L529.09,19.75L534.55,18.6L540,18.75" style="vector-effect: non-scaling-stroke; fill: none; stroke: rgb(248, 118, 109); stroke-opacity: 1; stroke-width: 2px; opacity: 1;"/></g><g class="points"/><g class="text"/></g><g class="trace scatter trace7f5de5" style="stroke-miterlimit: 2; opacity: 1;"><g class="fills"/><g class="errorbars"/><g class="lines"><path class="js-line" d="M0,302.62L5.45,299.01L10.91,297.68L16.36,296.71L21.82,294.92L32.73,291.18L38.18,288.34L43.64,286.39L49.09,281.52L60,266.52L65.45,258.28L70.91,248.49L76.36,240.4L87.27,222.48L92.73,214.92L103.64,202.15L109.09,196.31L114.55,188.2L120,183.88L130.91,172.3L136.36,167.02L147.27,158.54L152.73,153.25L174.55,136.24L180,132.18L185.45,128.93L190.91,127.63L207.27,115.47L212.73,113.12L218.18,110.02L223.64,104.76L234.55,101.76L240,98.2L245.45,97.41L250.91,93.22L256.36,92.46L261.82,89.54L267.27,86.18L272.73,84.76L278.18,81.72L283.64,80.16L305.45,72.03L310.91,70.21L321.82,67.29L327.27,64.96L338.18,61.21L343.64,61.25L349.09,59.03L354.55,57.78L360,54.51L365.45,54.08L387.27,49.18L392.73,48.55L398.18,45.65L403.64,46.47L409.09,45.26L414.55,45.09L420,43.35L425.45,42.87L452.73,38.32L458.18,38.01L463.64,38.23L469.09,37.58L474.55,36.49L480,36.92L485.45,35.12L490.91,35.37L507.27,34.42L512.73,33.17L518.18,32.19L523.64,32.56L534.55,31.04L540,31.46" style="vector-effect: non-scaling-stroke; fill: none; stroke: rgb(163, 165, 0); stroke-opacity: 1; stroke-width: 2px; opacity: 1;"/></g><g class="points"/><g class="text"/></g><g class="trace scatter tracea7c479" style="stroke-miterlimit: 2; opacity: 1;"><g class="fills"/><g class="errorbars"/><g class="lines"><path class="js-line" d="M0,302.23L5.45,298.08L10.91,296.12L21.82,294.59L27.27,292.52L38.18,285.88L43.64,280.25L49.09,274.94L54.55,266.25L65.45,247.45L70.91,236.55L76.36,228.35L81.82,217.73L92.73,199.48L98.18,191.57L109.09,174.85L114.55,168.16L141.82,135.83L147.27,131.3L152.73,125.95L158.18,121.72L169.09,110.06L174.55,106.92L190.91,94.07L196.36,90.4L201.82,87.25L207.27,82.26L212.73,78.22L218.18,76.41L245.45,61.41L250.91,59.24L256.36,57.96L261.82,55.2L267.27,52.3L272.73,50.37L278.18,47.47L283.64,46.99L305.45,40.56L310.91,39.75L321.82,37.15L327.27,37.1L338.18,34.56L343.64,34.31L354.55,31.07L360,30.1L365.45,29.34L370.91,29.64L381.82,28.02L387.27,27.8L398.18,25.49L403.64,25.14L414.55,24.84L420,23.77L436.36,22.77L441.82,22.71L452.73,21.48L458.18,21.87L463.64,20.81L469.09,21.14L474.55,20.65L480,20.92L485.45,20.04L490.91,20.04L501.82,19.46L507.27,19.58L512.73,18.58L518.18,18.9L523.64,19.09L529.09,18.31L540,18.59" style="vector-effect: non-scaling-stroke; fill: none; stroke: rgb(0, 191, 125); stroke-opacity: 1; stroke-width: 2px; opacity: 1;"/></g><g class="points"/><g class="text"/></g><g class="trace scatter tracec12820" style="stroke-miterlimit: 2; opacity: 1;"><g class="fills"/><g class="errorbars"/><g class="lines"><path class="js-line" d="M0,302.59L5.45,297.99L10.91,297.2L27.27,293.53L32.73,290L38.18,286.39L43.64,281.01L65.45,245.88L70.91,235.5L76.36,228.02L81.82,216.8L92.73,200.06L98.18,193L103.64,186.41L109.09,177.27L114.55,171.64L120,164.53L130.91,154.53L136.36,148.72L147.27,138.64L152.73,134.68L163.64,124.98L169.09,122.63L174.55,117.35L180,114.88L185.45,110.4L190.91,107.57L196.36,107.13L201.82,100.69L207.27,98.36L212.73,95.2L218.18,90.46L223.64,87.89L229.09,84.6L234.55,83.02L240,78.69L245.45,76.57L261.82,71.12L267.27,68.02L278.18,64.3L283.64,62.33L289.09,61.37L294.55,58.16L300,56.15L305.45,55.75L316.36,51.24L321.82,50.36L327.27,50.32L332.73,48.2L343.64,45.42L349.09,45.29L354.55,43.32L360,43.04L370.91,40.15L376.36,39.57L392.73,37.77L398.18,36.17L409.09,34L414.55,34.99L425.45,32.46L430.91,32.85L436.36,30.35L441.82,30.74L447.27,29.59L452.73,30.06L463.64,29.45L469.09,27.34L485.45,27.23L490.91,25.72L501.82,25.92L507.27,24.64L512.73,24.82L518.18,23.33L523.64,25.11L529.09,23.23L534.55,23.56L540,22.45" style="vector-effect: non-scaling-stroke; fill: none; stroke: rgb(0, 176, 246); stroke-opacity: 1; stroke-width: 2px; opacity: 1;"/></g><g class="points"/><g class="text"/></g><g class="trace scatter trace80d27c" style="stroke-miterlimit: 2; opacity: 1;"><g class="fills"/><g class="errorbars"/><g class="lines"><path class="js-line" d="M0,301.53L10.91,296.94L16.36,295.8L21.82,295.19L27.27,292.13L32.73,290.1L38.18,285.63L43.64,280.46L49.09,273.98L76.36,225.43L81.82,213.76L109.09,169.65L114.55,162.74L120,153.94L125.45,149.27L130.91,140.88L136.36,134.53L141.82,129.37L147.27,122.21L152.73,117.26L158.18,111.16L169.09,101.1L174.55,97.02L185.45,87.14L190.91,83.82L201.82,75.8L207.27,72.5L218.18,66.39L223.64,64.74L229.09,60.94L234.55,58.37L240,55.36L245.45,53.55L250.91,52.35L256.36,48.94L278.18,41.42L283.64,40.77L294.55,37.72L300,37.03L316.36,33.58L321.82,34.05L327.27,31.5L332.73,29.99L338.18,29.9L343.64,28.48L354.55,28.41L360,27.16L365.45,27.53L370.91,25.91L381.82,24.53L387.27,25.02L398.18,23.97L403.64,22.67L420,22.19L425.45,22.71L430.91,21.49L436.36,22.07L452.73,21.69L458.18,20.89L474.55,21.05L480,19.3L485.45,19.99L490.91,19.73L518.18,19.11L523.64,19.46L529.09,18.8L534.55,19.04L540,17.75" style="vector-effect: non-scaling-stroke; fill: none; stroke: rgb(231, 107, 243); stroke-opacity: 1; stroke-width: 2px; opacity: 1;"/></g><g class="points"/><g class="text"/></g><g class="trace scatter trace86abce" style="stroke-miterlimit: 2; opacity: 1;"><g class="fills"/><g class="errorbars"/><g class="lines"><path class="js-line" d="M0,301.95L5.45,298.55L10.91,297.09L21.82,294.76L27.27,292.13L32.73,289.9L38.18,285.24L43.64,280.69L49.09,272.03L60,252.82L65.45,241.46L81.82,209.04L87.27,201.33L98.18,182.11L103.64,174.81L109.09,166.45L114.55,159.65L120,152.81L125.45,148.08L130.91,140.93L136.36,135.2L141.82,130.33L147.27,124.44L163.64,109.7L169.09,106.45L196.36,86.93L201.82,83.44L223.64,70.57L229.09,68.78L245.45,59.44L250.91,57.19L256.36,53.68L261.82,52.19L278.18,46.33L283.64,45.2L289.09,43.23L294.55,42.47L300,39.8L305.45,38.99L327.27,35.3L332.73,33.11L338.18,32.87L343.64,31.17L349.09,31.34L354.55,30.24L376.36,27.92L381.82,26.89L387.27,25.67L392.73,25.77L409.09,24.29L414.55,24.76L420,22.92L425.45,21.94L436.36,22.03L441.82,21.17L447.27,21.68L452.73,21.24L480,19.62L485.45,18.48L507.27,17.48L512.73,16.37L523.64,16.67L529.09,16.23L540,16.26" style="vector-effect: non-scaling-stroke; fill: none; stroke: rgb(248, 118, 109); stroke-opacity: 1; stroke-width: 2px; opacity: 1;"/></g><g class="points"/><g class="text"/></g><g class="trace scatter tracec46b1f" style="stroke-miterlimit: 2; opacity: 1;"><g class="fills"/><g class="errorbars"/><g class="lines"><path class="js-line" d="M0,302.76L5.45,298.29L10.91,296.77L16.36,296.19L21.82,293.72L27.27,291.54L32.73,291.52L43.64,285.49L49.09,280.87L60,266.82L65.45,258.28L81.82,231.01L87.27,223.69L98.18,208.3L103.64,202.43L120,181.32L125.45,176.55L141.82,159.71L147.27,155.59L152.73,150.22L158.18,145.92L169.09,136.52L174.55,131.17L185.45,124.5L190.91,119.72L196.36,114.83L201.82,112.44L212.73,105.34L218.18,101.17L223.64,97.11L229.09,94.27L234.55,91.8L240,87.67L256.36,79.91L261.82,78.86L267.27,74.33L272.73,72.73L278.18,69.39L283.64,68.23L289.09,65.61L294.55,63.9L305.45,60L310.91,57.49L332.73,50.79L338.18,49.71L343.64,49.02L349.09,46.14L354.55,45.68L360,43.22L365.45,41.96L370.91,41.62L376.36,39.98L381.82,39.7L387.27,39.47L392.73,38.13L414.55,34.18L420,34.5L436.36,30.52L441.82,30.35L447.27,29.85L452.73,30.21L463.64,29.29L469.09,27.19L474.55,27.52L480,27.05L490.91,26.47L496.36,26.8L501.82,25.08L507.27,24.93L512.73,25.06L518.18,23.81L523.64,24.14L529.09,22.7L540,22.92" style="vector-effect: non-scaling-stroke; fill: none; stroke: rgb(163, 165, 0); stroke-opacity: 1; stroke-width: 2px; opacity: 1;"/></g><g class="points"/><g class="text"/></g><g class="trace scatter tracec68eb2" style="stroke-miterlimit: 2; opacity: 1;"><g class="fills"/><g class="errorbars"/><g class="lines"><path class="js-line" d="M0,303.2L5.45,298.2L10.91,296.39L21.82,294.02L27.27,293.31L38.18,289.68L43.64,284.26L49.09,279.27L54.55,271.44L65.45,254.62L70.91,244.13L76.36,236.18L81.82,225.78L98.18,200.49L103.64,193.67L125.45,165.73L130.91,161.17L136.36,154.31L141.82,149.23L147.27,144.35L152.73,137.51L158.18,133.9L163.64,128.76L169.09,124.88L174.55,118.6L180,113.69L185.45,110.26L212.73,90.35L218.18,88.46L223.64,82.14L229.09,80.6L234.55,77.95L240,74.17L245.45,72.43L250.91,69.63L261.82,64.33L267.27,61.95L272.73,58.33L278.18,56.5L283.64,54.55L289.09,50.77L294.55,49.21L300,48.53L305.45,44.95L310.91,43.39L316.36,41.54L321.82,40.77L354.55,32.78L360,33.1L370.91,29.63L376.36,29.16L392.73,26.98L398.18,27.61L409.09,25.89L414.55,25.6L420,24.61L425.45,24.65L430.91,23.51L436.36,23.5L447.27,23.26L452.73,21.68L474.55,21.71L480,20.9L485.45,21.53L490.91,21.28L496.36,21.55L501.82,21.06L507.27,19.84L512.73,19.91L518.18,20.53L523.64,20.39L540,19.64" style="vector-effect: non-scaling-stroke; fill: none; stroke: rgb(0, 191, 125); stroke-opacity: 1; stroke-width: 2px; opacity: 1;"/></g><g class="points"/><g class="text"/></g><g class="trace scatter trace9a13f1" style="stroke-miterlimit: 2; opacity: 1;"><g class="fills"/><g class="errorbars"/><g class="lines"><path class="js-line" d="M0,302.5L5.45,299.08L10.91,297.48L16.36,295.52L21.82,294.57L27.27,292.77L32.73,291.99L38.18,288.72L43.64,283.97L49.09,276.74L54.55,265.72L60,256.92L65.45,246.61L76.36,225.04L81.82,215.1L87.27,204.43L92.73,195.91L98.18,189.9L103.64,182.36L109.09,174.08L114.55,168.22L120,159.27L125.45,154.34L130.91,147.94L136.36,139.9L141.82,135.38L147.27,129.01L152.73,126.42L158.18,119.5L174.55,106.1L180,101.51L207.27,80.87L212.73,78.02L223.64,69.49L229.09,68.07L234.55,63.25L240,60.81L245.45,59.52L250.91,56.57L256.36,53.06L261.82,51.17L267.27,50.33L272.73,47.8L278.18,45.94L283.64,45.04L294.55,41.95L300,39.28L338.18,31.73L343.64,31.52L354.55,30.35L360,28.66L365.45,28.17L370.91,26.77L376.36,27.06L381.82,26.53L398.18,24.89L403.64,24.91L409.09,23.73L414.55,23.59L420,23.59L425.45,21.98L436.36,21.23L441.82,22.36L447.27,20.85L452.73,20.75L469.09,20.03L474.55,20.3L490.91,18.82L496.36,18.73L529.09,18.65L534.55,17.75L540,17.89" style="vector-effect: non-scaling-stroke; fill: none; stroke: rgb(0, 176, 246); stroke-opacity: 1; stroke-width: 2px; opacity: 1;"/></g><g class="points"/><g class="text"/></g><g class="trace scatter tracee0e61b" style="stroke-miterlimit: 2; opacity: 1;"><g class="fills"/><g class="errorbars"/><g class="lines"><path class="js-line" d="M0,302.99L5.45,298.53L10.91,297.15L21.82,294.46L27.27,291.99L32.73,291.02L38.18,288.66L49.09,280.06L54.55,272.67L60,266.17L65.45,256.84L76.36,239.92L81.82,229.16L98.18,205.72L103.64,198.96L109.09,189.76L114.55,182.3L120,177.09L125.45,168.76L130.91,162.18L136.36,157.5L141.82,149.73L147.27,144.76L158.18,133.98L163.64,129.43L174.55,119.68L180,113.2L190.91,106.01L196.36,101.18L212.73,90.31L218.18,87.57L240,74.16L245.45,71.16L256.36,66.28L261.82,62.62L283.64,54.14L289.09,51.94L300,48.08L305.45,47.26L310.91,45.86L316.36,42.88L321.82,42.42L327.27,40.66L349.09,36.31L354.55,35.44L360,34.47L365.45,34.31L370.91,32.7L376.36,32.08L387.27,31.8L392.73,29.32L409.09,28.68L414.55,27.54L425.45,26.76L430.91,27.29L436.36,25.58L441.82,25.04L447.27,25.48L452.73,25.07L458.18,25.37L463.64,24.86L469.09,23.72L474.55,23.76L480,23.92L485.45,22.7L490.91,22.54L496.36,23.46L507.27,22.45L512.73,21.13L523.64,20.42L529.09,20.83L534.55,21.84L540,20.56" style="vector-effect: non-scaling-stroke; fill: none; stroke: rgb(231, 107, 243); stroke-opacity: 1; stroke-width: 2px; opacity: 1;"/></g><g class="points"/><g class="text"/></g><g class="trace scatter trace5a0e01" style="stroke-miterlimit: 2; opacity: 1;"><g class="fills"/><g class="errorbars"/><g class="lines"><path class="js-line" d="M0,302.92L5.45,298.48L10.91,297.19L16.36,296.27L21.82,293.85L32.73,291.57L38.18,286.93L43.64,282.62L49.09,276.06L54.55,267.78L60,256.45L65.45,247.29L70.91,234.95L87.27,203.52L92.73,194.03L98.18,187.31L103.64,178.8L120,155.59L125.45,150.16L136.36,138.79L141.82,132.5L163.64,113.98L169.09,108.13L174.55,105.56L180,101.25L185.45,98.59L190.91,93.33L196.36,90.54L201.82,86.4L207.27,83.5L212.73,78.94L229.09,72.2L234.55,69.58L245.45,62.43L250.91,60.66L256.36,58.07L261.82,56.85L267.27,55.72L272.73,52.85L278.18,50.24L283.64,48.97L294.55,45.22L300,44.75L310.91,40.89L316.36,40.53L327.27,37.09L332.73,36.05L338.18,35.48L343.64,33.81L349.09,33.69L354.55,32.31L360,32.1L365.45,31.1L370.91,29.84L376.36,29.78L392.73,27.29L398.18,27.74L409.09,26.16L414.55,26.7L420,25.01L425.45,25.4L430.91,23.44L436.36,23.48L458.18,22.04L463.64,22.01L469.09,21.02L474.55,21.89L485.45,20.47L490.91,21.21L512.73,19.62L518.18,20.57L523.64,19.1L529.09,19.3L534.55,18.84L540,19.65" style="vector-effect: non-scaling-stroke; fill: none; stroke: rgb(248, 118, 109); stroke-opacity: 1; stroke-width: 2px; opacity: 1;"/></g><g class="points"/><g class="text"/></g><g class="trace scatter trace6b641c" style="stroke-miterlimit: 2; opacity: 1;"><g class="fills"/><g class="errorbars"/><g class="lines"><path class="js-line" d="M0,302.07L5.45,298.09L10.91,297.1L32.73,291.28L38.18,287.61L43.64,284.07L49.09,276.89L54.55,271.44L60,263.81L65.45,256.22L70.91,246.41L92.73,210.76L98.18,204.06L103.64,196.34L109.09,186.66L114.55,180.95L120,173.01L125.45,168.24L130.91,160.21L136.36,154.9L141.82,148.38L147.27,141.4L152.73,136.52L185.45,107.3L190.91,101.9L196.36,99.21L201.82,94.65L207.27,92.38L212.73,88.02L229.09,76.12L234.55,74.35L245.45,69.72L250.91,65.4L256.36,63.09L261.82,59.56L272.73,54.64L278.18,51.91L294.55,46.21L300,45.34L316.36,40.37L321.82,39.52L332.73,36.37L338.18,35.97L343.64,33.41L349.09,32.6L387.27,27.58L392.73,27.6L403.64,25.19L409.09,25.82L425.45,23.51L430.91,23.51L441.82,22.5L447.27,22.34L458.18,21.46L463.64,22.75L474.55,20.35L480,20.36L485.45,19.59L490.91,20.36L496.36,19L501.82,19.3L507.27,18.01L512.73,19.61L523.64,18.36L529.09,18.47L534.55,18.62L540,17.73" style="vector-effect: non-scaling-stroke; fill: none; stroke: rgb(163, 165, 0); stroke-opacity: 1; stroke-width: 2px; opacity: 1;"/></g><g class="points"/><g class="text"/></g><g class="trace scatter trace54c74d" style="stroke-miterlimit: 2; opacity: 1;"><g class="fills"/><g class="errorbars"/><g class="lines"><path class="js-line" d="M0,302.47L5.45,297.37L10.91,296.13L21.82,294.13L27.27,292.58L32.73,288.88L38.18,283.64L43.64,280.38L49.09,272.42L76.36,220.59L81.82,211.11L98.18,185.9L103.64,178.98L109.09,170.73L114.55,164.73L130.91,147.69L136.36,142.2L141.82,135.51L147.27,132.56L152.73,127.62L158.18,121.43L163.64,116.32L169.09,112.92L174.55,107.77L180,104.78L185.45,100.2L190.91,96.82L196.36,93.57L201.82,88.62L207.27,86.55L212.73,82.62L229.09,73.15L234.55,71.26L250.91,64.08L256.36,61.65L267.27,57.41L272.73,56.44L278.18,54.63L283.64,53.69L289.09,50.96L294.55,49.21L300,48.03L305.45,45.69L316.36,44.09L321.82,41.34L327.27,42.36L332.73,40.65L338.18,40.07L343.64,38.45L349.09,38.53L354.55,37.46L360,35.37L365.45,34.74L370.91,33.19L376.36,33.19L403.64,28.54L409.09,28.62L436.36,25.98L441.82,24.84L447.27,25.27L452.73,24.45L458.18,23.5L463.64,23.61L469.09,22.74L474.55,22.94L480,22.61L485.45,23.29L496.36,21.05L501.82,20.93L507.27,21.86L512.73,20.27L518.18,20.87L523.64,20.18L529.09,20.61L534.55,19.91L540,19.75" style="vector-effect: non-scaling-stroke; fill: none; stroke: rgb(0, 191, 125); stroke-opacity: 1; stroke-width: 2px; opacity: 1;"/></g><g class="points"/><g class="text"/></g><g class="trace scatter tracefe7951" style="stroke-miterlimit: 2; opacity: 1;"><g class="fills"/><g class="errorbars"/><g class="lines"><path class="js-line" d="M0,301.62L5.45,297.55L10.91,296.42L16.36,295.29L21.82,293.33L27.27,291.22L32.73,288.05L43.64,276.02L49.09,268.79L54.55,260.35L60,250.5L65.45,239L70.91,230.7L81.82,211.51L87.27,204.57L92.73,195.4L98.18,187.76L114.55,168.05L120,162.39L136.36,141.76L141.82,136.04L147.27,131.89L152.73,125.08L163.64,115.65L169.09,108.97L180,100.98L185.45,96.15L190.91,92.08L196.36,86.97L207.27,80.61L212.73,75.48L223.64,68.48L229.09,65.96L240,58.78L245.45,56.9L256.36,51.66L261.82,49.73L267.27,48.5L272.73,45.63L289.09,39.71L294.55,38.9L305.45,36.24L310.91,34.85L316.36,33.27L321.82,33.3L327.27,33.95L332.73,32.19L360,27.88L365.45,28.34L370.91,26.65L376.36,26.99L381.82,26.89L387.27,25.39L392.73,24.73L398.18,24.97L403.64,23.86L409.09,23.78L420,23.09L425.45,22.15L436.36,21.26L441.82,21.77L447.27,21L452.73,21.17L485.45,19.47L490.91,19.33L496.36,18.75L501.82,19.83L518.18,17.7L523.64,18.21L534.55,17.77L540,17.64" style="vector-effect: non-scaling-stroke; fill: none; stroke: rgb(0, 176, 246); stroke-opacity: 1; stroke-width: 2px; opacity: 1;"/></g><g class="points"/><g class="text"/></g><g class="trace scatter trace0e2d96" style="stroke-miterlimit: 2; opacity: 1;"><g class="fills"/><g class="errorbars"/><g class="lines"><path class="js-line" d="M0,302.09L5.45,298.47L10.91,296.33L16.36,294.95L21.82,294.38L32.73,290.91L38.18,287.39L49.09,276.87L54.55,269.13L60,258.55L65.45,249.63L87.27,213.71L92.73,206.15L109.09,185.79L114.55,179.57L125.45,167.56L130.91,162.53L136.36,158.35L141.82,151.93L147.27,149.58L152.73,142.82L169.09,130.61L174.55,124.92L180,122.21L185.45,117.96L190.91,115.98L196.36,109.89L201.82,106.74L207.27,102.19L212.73,100.44L218.18,96.08L223.64,92.84L229.09,91.03L245.45,82.45L250.91,81.35L261.82,76.29L267.27,74.63L278.18,68.72L283.64,67.78L294.55,64.62L300,61.37L305.45,62.61L310.91,58.9L316.36,59.18L321.82,55.79L327.27,54.67L332.73,52.7L338.18,53.02L343.64,51.57L354.55,48.19L360,47.93L370.91,46.39L376.36,43.95L387.27,42.05L392.73,41.89L398.18,41.28L403.64,39.59L414.55,38.09L420,37.62L425.45,36.4L430.91,36.14L436.36,34.12L441.82,33.94L452.73,33.61L458.18,32.55L463.64,32.92L469.09,31.38L480,30.08L485.45,29.67L490.91,29.54L496.36,28.18L501.82,28.25L507.27,27.35L518.18,27.16L523.64,26.65L534.55,25.31L540,24.59" style="vector-effect: non-scaling-stroke; fill: none; stroke: rgb(231, 107, 243); stroke-opacity: 1; stroke-width: 2px; opacity: 1;"/></g><g class="points"/><g class="text"/></g><g class="trace scatter traceb80b4a" style="stroke-miterlimit: 2; opacity: 1;"><g class="fills"/><g class="errorbars"/><g class="lines"><path class="js-line" d="M0,301.81L10.91,296.3L16.36,295.61L21.82,294.06L27.27,291.66L38.18,284.34L43.64,279.99L49.09,271.53L54.55,261.63L65.45,240.11L70.91,229.76L81.82,210.23L87.27,200.9L92.73,190.53L98.18,184.03L103.64,174.36L109.09,167.74L120,153.43L125.45,148.21L158.18,114.9L163.64,110.98L169.09,105.51L174.55,102.27L180,97.01L185.45,93.51L190.91,88.9L196.36,85.86L201.82,82.8L207.27,78.4L212.73,73.89L218.18,71.8L229.09,65.6L234.55,62.67L250.91,54.9L256.36,52.88L261.82,50.28L267.27,48.52L272.73,46.04L278.18,44.8L283.64,42.67L289.09,41.46L294.55,39.48L300,38.54L310.91,35.3L316.36,35.08L321.82,33.62L327.27,33.05L338.18,31.58L343.64,29.88L354.55,28.72L360,29.59L365.45,27.59L370.91,27.2L387.27,25.16L392.73,25.03L398.18,24.68L403.64,23.51L425.45,22.26L430.91,21.72L441.82,21.96L447.27,21.19L452.73,21.98L458.18,21.53L469.09,20.79L474.55,21.32L485.45,19.69L490.91,19.84L523.64,18.11L529.09,18.55L540,17.51" style="vector-effect: non-scaling-stroke; fill: none; stroke: rgb(248, 118, 109); stroke-opacity: 1; stroke-width: 2px; opacity: 1;"/></g><g class="points"/><g class="text"/></g><g class="trace scatter tracead176c" style="stroke-miterlimit: 2; opacity: 1;"><g class="fills"/><g class="errorbars"/><g class="lines"><path class="js-line" d="M0,301.53L5.45,298.87L10.91,297.56L16.36,295.52L21.82,294.72L32.73,290.29L38.18,285.12L43.64,281.61L49.09,274.58L54.55,263.76L60,255.09L65.45,243.97L70.91,234.73L87.27,206.52L92.73,198.66L103.64,182.67L109.09,176.33L114.55,169.54L120,161.17L130.91,149.33L136.36,143.95L141.82,136.59L147.27,132.55L152.73,124.96L158.18,121.09L180,102.2L185.45,98.61L196.36,88.3L201.82,85.46L207.27,80.8L212.73,77.16L223.64,70.36L229.09,67.68L240,62.92L245.45,60.31L256.36,53.88L261.82,51.54L272.73,46.51L278.18,45.65L294.55,40.14L300,39.16L316.36,34.87L321.82,34.24L327.27,33.7L332.73,31.8L338.18,31.92L343.64,30.35L365.45,27.18L370.91,26.64L381.82,25.76L387.27,26.13L392.73,24.57L398.18,25.16L414.55,22.78L420,22.95L425.45,21.5L430.91,22.43L436.36,21.6L441.82,21.94L447.27,21.92L452.73,20.94L463.64,20.81L469.09,20.27L507.27,19.2L512.73,18.51L529.09,19.25L534.55,17.9L540,17.91" style="vector-effect: non-scaling-stroke; fill: none; stroke: rgb(163, 165, 0); stroke-opacity: 1; stroke-width: 2px; opacity: 1;"/></g><g class="points"/><g class="text"/></g><g class="trace scatter trace567093" style="stroke-miterlimit: 2; opacity: 1;"><g class="fills"/><g class="errorbars"/><g class="lines"><path class="js-line" d="M0,302.22L10.91,297.03L16.36,296.71L27.27,292.81L32.73,290.17L43.64,280.76L49.09,273.41L65.45,241.19L70.91,229.51L87.27,197.47L92.73,188.25L98.18,178.26L103.64,170.46L114.55,154.29L120,146.91L136.36,127.43L141.82,121.96L152.73,110.39L158.18,105.69L163.64,100.75L169.09,96.94L174.55,90.45L180,86.8L190.91,80.03L196.36,73.95L201.82,72.43L207.27,69.24L212.73,65.17L218.18,62.69L229.09,56.05L234.55,54.34L240,52.4L245.45,49.31L256.36,46.01L261.82,43.22L267.27,42.81L272.73,40.02L300,33.88L305.45,32.23L310.91,32.51L316.36,31.16L327.27,29.75L332.73,28.25L343.64,28.24L349.09,26.86L365.45,25.36L370.91,25.45L376.36,24.47L381.82,24.7L398.18,23.21L403.64,23.52L409.09,24.04L414.55,22.87L425.45,22.05L430.91,22.48L436.36,22.67L441.82,20.78L458.18,20.71L463.64,20.62L474.55,19.2L480,19.25L485.45,19.66L490.91,18.56L501.82,18.55L507.27,17.48L518.18,17.83L523.64,17.58L540,17.17" style="vector-effect: non-scaling-stroke; fill: none; stroke: rgb(0, 191, 125); stroke-opacity: 1; stroke-width: 2px; opacity: 1;"/></g><g class="points"/><g class="text"/></g><g class="trace scatter trace455216" style="stroke-miterlimit: 2; opacity: 1;"><g class="fills"/><g class="errorbars"/><g class="lines"><path class="js-line" d="M0,302.42L5.45,298.47L10.91,296.85L16.36,295.43L21.82,295.47L27.27,291.92L32.73,289.69L38.18,286.65L43.64,281.85L49.09,275.29L54.55,265.85L70.91,236.98L76.36,226.62L92.73,197.52L98.18,191.16L109.09,175.94L114.55,168.75L120,162L125.45,156.81L136.36,145.19L141.82,140.84L147.27,136.31L152.73,130.76L158.18,125.27L163.64,121.39L169.09,117.41L174.55,114.96L180,111.84L185.45,106.49L196.36,98.11L201.82,95.24L207.27,93.14L212.73,89.33L218.18,86.58L223.64,82.47L229.09,80.11L234.55,76.9L240,75.05L245.45,71.36L267.27,62.71L272.73,60.05L278.18,57.32L283.64,55.72L294.55,51.83L300,51.11L305.45,47.92L310.91,46.64L332.73,41.44L338.18,39.51L376.36,31.91L381.82,31.7L392.73,30.71L398.18,29.02L403.64,29.1L409.09,27.7L414.55,28.06L420,26.48L425.45,26.82L430.91,26.2L447.27,25.47L452.73,24.33L458.18,24.58L463.64,23.69L469.09,23L474.55,23.58L480,22.85L485.45,22.88L490.91,22.02L496.36,22.34L501.82,21.36L507.27,21.58L512.73,21.18L518.18,21.8L523.64,20.72L529.09,20.77L534.55,19.79L540,20.54" style="vector-effect: non-scaling-stroke; fill: none; stroke: rgb(0, 176, 246); stroke-opacity: 1; stroke-width: 2px; opacity: 1;"/></g><g class="points"/><g class="text"/></g><g class="trace scatter tracebfc460" style="stroke-miterlimit: 2; opacity: 1;"><g class="fills"/><g class="errorbars"/><g class="lines"><path class="js-line" d="M0,302.74L5.45,299.12L10.91,296.77L21.82,293.41L27.27,292.89L32.73,289.74L38.18,285.57L49.09,273.06L54.55,261.64L65.45,240.14L70.91,227.66L87.27,196.44L92.73,186.22L103.64,169.62L109.09,160.88L114.55,154.18L120,148.8L130.91,134.26L136.36,129.84L147.27,117.4L152.73,112.56L169.09,98.28L174.55,93.27L185.45,85.95L190.91,80.93L207.27,70.73L212.73,68.71L218.18,66.1L223.64,62.28L229.09,58.78L234.55,56.65L240,53.35L245.45,52.24L261.82,45.67L267.27,44.03L289.09,38.04L294.55,37.08L300,35.51L305.45,34.81L316.36,33L321.82,31.36L327.27,31.17L332.73,29.63L349.09,28.41L354.55,27.85L370.91,26.24L376.36,25.62L381.82,24.81L387.27,25.21L425.45,23.2L430.91,22.73L441.82,21.93L447.27,21.33L452.73,21.72L458.18,20.82L469.09,20.95L474.55,19.91L485.45,20.54L490.91,19.63L501.82,20.05L507.27,19.2L512.73,18.71L518.18,19.34L523.64,20L529.09,18.26L540,19.02" style="vector-effect: non-scaling-stroke; fill: none; stroke: rgb(231, 107, 243); stroke-opacity: 1; stroke-width: 2px; opacity: 1;"/></g><g class="points"/><g class="text"/></g><g class="trace scatter tracec39dde" style="stroke-miterlimit: 2; opacity: 1;"><g class="fills"/><g class="errorbars"/><g class="lines"><path class="js-line" d="M0,302.76L5.45,297.38L10.91,297.99L16.36,296.97L21.82,293.71L27.27,292.74L32.73,290.9L38.18,288.72L43.64,283.8L49.09,279.31L54.55,271.79L65.45,256.62L70.91,247.54L76.36,236.22L81.82,229L103.64,195.38L109.09,188.77L120,174.72L125.45,168.98L130.91,163.85L136.36,156.58L169.09,128.07L174.55,122.06L180,119.61L185.45,114.62L190.91,109.6L196.36,106.79L201.82,102.06L207.27,98.37L212.73,94.46L218.18,89.57L223.64,88L229.09,84.66L240,78.58L245.45,75.97L250.91,72.06L256.36,70.11L261.82,67.08L267.27,65.63L272.73,63.55L278.18,59.64L283.64,58.58L289.09,55.64L300,51.62L305.45,50.46L310.91,47.63L316.36,46.15L321.82,43.76L327.27,42.45L343.64,38.55L349.09,36.77L370.91,32.59L376.36,30.53L381.82,30.31L387.27,28.76L392.73,29.62L398.18,27.97L403.64,28.22L409.09,27.34L414.55,25.6L420,25.74L425.45,24.35L430.91,24.54L436.36,24.66L441.82,24.02L463.64,21.79L469.09,22.78L480,20.81L485.45,21L490.91,20.57L496.36,21.3L501.82,19.84L507.27,19.61L512.73,21.84L518.18,19.4L523.64,19.32L529.09,18.42L534.55,18.79L540,18.11" style="vector-effect: non-scaling-stroke; fill: none; stroke: rgb(248, 118, 109); stroke-opacity: 1; stroke-width: 2px; opacity: 1;"/></g><g class="points"/><g class="text"/></g><g class="trace scatter trace137e91" style="stroke-miterlimit: 2; opacity: 1;"><g class="fills"/><g class="errorbars"/><g class="lines"><path class="js-line" d="M0,303.22L5.45,298.65L10.91,296.55L16.36,296.61L21.82,294.6L27.27,293.08L32.73,290.58L43.64,284.09L49.09,278.68L60,262.63L65.45,253.04L76.36,234.66L81.82,225.22L92.73,209.05L98.18,202.92L109.09,188.17L114.55,183.1L120,174.59L125.45,169.24L130.91,165.2L136.36,158.9L141.82,154.51L147.27,148.82L152.73,142.34L158.18,140.21L163.64,133.47L169.09,130.93L180,121.58L185.45,118.46L196.36,108.67L201.82,105.4L218.18,94.32L223.64,92.31L234.55,84.92L240,81.81L256.36,73.86L261.82,72.38L278.18,62.54L283.64,61.57L289.09,59.97L294.55,57.53L316.36,50.17L321.82,49.27L327.27,48.02L332.73,45.93L338.18,45.38L343.64,43.1L349.09,42.29L354.55,42.46L360,40.57L365.45,39.75L370.91,38.06L376.36,38.24L387.27,34.99L392.73,34.62L403.64,32.86L409.09,32.95L414.55,30.94L420,31.17L425.45,29.06L430.91,29.01L436.36,29.51L441.82,27.86L447.27,29.39L452.73,27.6L469.09,26.22L474.55,27.41L485.45,25.68L490.91,25.94L496.36,24.14L501.82,24.92L507.27,24.38L512.73,22.95L529.09,23.49L534.55,21.93L540,21.89" style="vector-effect: non-scaling-stroke; fill: none; stroke: rgb(163, 165, 0); stroke-opacity: 1; stroke-width: 2px; opacity: 1;"/></g><g class="points"/><g class="text"/></g><g class="trace scatter traced49bdb" style="stroke-miterlimit: 2; opacity: 1;"><g class="fills"/><g class="errorbars"/><g class="lines"><path class="js-line" d="M0,302.57L5.45,297.83L10.91,296.67L16.36,294.62L21.82,293.96L32.73,289.87L38.18,284.33L49.09,270.73L54.55,260.91L65.45,238.62L70.91,228.35L87.27,199.08L92.73,190.69L98.18,181.07L103.64,174.89L114.55,161.14L120,153.85L130.91,142.77L136.36,136.52L158.18,117.57L163.64,112.52L185.45,96.11L190.91,92.7L212.73,77.47L218.18,75.41L223.64,71.84L229.09,70L234.55,67.26L240,62.78L245.45,63.37L250.91,58.97L256.36,57.52L261.82,54.68L267.27,52.11L272.73,50.96L278.18,48.97L283.64,47.98L289.09,45.8L294.55,44.68L310.91,40.28L316.36,39.93L327.27,37.02L332.73,35.76L349.09,33.48L354.55,32.35L370.91,29.9L376.36,29.33L387.27,27.97L392.73,27.17L398.18,27.49L403.64,26.49L452.73,22.33L458.18,23.23L463.64,21.93L469.09,22.75L474.55,21.66L480,22.03L485.45,22.1L490.91,21.27L496.36,21.14L501.82,19.97L507.27,20.94L512.73,20.01L534.55,18.74L540,19.49" style="vector-effect: non-scaling-stroke; fill: none; stroke: rgb(0, 191, 125); stroke-opacity: 1; stroke-width: 2px; opacity: 1;"/></g><g class="points"/><g class="text"/></g><g class="trace scatter tracea18dad" style="stroke-miterlimit: 2; opacity: 1;"><g class="fills"/><g class="errorbars"/><g class="lines"><path class="js-line" d="M0,302.4L5.45,298.18L10.91,296.9L16.36,296.23L21.82,293.65L27.27,291.64L32.73,288.38L38.18,283.84L43.64,276.54L49.09,268.26L54.55,257.2L65.45,234.72L70.91,224.49L76.36,213.87L81.82,204.98L87.27,194.98L92.73,188.25L98.18,178.88L103.64,172.33L114.55,157.71L120,150.65L125.45,142.35L130.91,138.2L136.36,131.43L141.82,125.94L152.73,115.94L158.18,110.85L174.55,95.86L180,93.15L196.36,78.86L201.82,75.85L218.18,65.51L223.64,62.63L245.45,51.87L250.91,49.6L256.36,46.86L261.82,45.05L267.27,43.55L272.73,40.81L294.55,36.11L300,35.52L310.91,32.98L316.36,31.71L321.82,32.84L327.27,30.69L332.73,30.58L338.18,29.15L354.55,27.98L360,26.63L365.45,26.96L370.91,25.89L376.36,25.51L381.82,26.04L387.27,24.92L392.73,25.56L414.55,22.89L420,22.7L425.45,22.25L430.91,22.97L436.36,21.82L441.82,22.05L447.27,20.86L452.73,21.48L458.18,21.71L463.64,21.09L469.09,19.91L474.55,20.14L480,20.82L485.45,19.54L518.18,18.34L523.64,18.34L529.09,18.79L534.55,18L540,18.11" style="vector-effect: non-scaling-stroke; fill: none; stroke: rgb(0, 176, 246); stroke-opacity: 1; stroke-width: 2px; opacity: 1;"/></g><g class="points"/><g class="text"/></g><g class="trace scatter tracec669bc" style="stroke-miterlimit: 2; opacity: 1;"><g class="fills"/><g class="errorbars"/><g class="lines"><path class="js-line" d="M0,301.98L5.45,297.66L10.91,296.43L27.27,291.78L32.73,289.05L38.18,285.71L43.64,279.93L54.55,263.97L60,254.31L76.36,225.13L81.82,215.9L103.64,183.53L109.09,175.85L114.55,168.35L120,162.23L130.91,147.51L136.36,142.07L158.18,119.84L163.64,115.59L180,100.89L185.45,97.51L190.91,90.63L196.36,89.09L218.18,74.57L223.64,72.31L234.55,64.93L240,63.28L245.45,60.73L250.91,59.21L256.36,56.47L261.82,55.06L272.73,50.43L278.18,48.88L283.64,47.84L289.09,45.83L300,44.62L305.45,41.18L310.91,41.88L316.36,40.89L321.82,38.78L327.27,37.52L338.18,36.46L343.64,34.41L370.91,31.62L376.36,31.75L398.18,28.94L403.64,29.16L414.55,28.57L420,28.05L425.45,27.17L430.91,27.14L463.64,24.98L469.09,24.77L496.36,23.26L501.82,23.65L518.18,22.58L523.64,23.23L529.09,22.05L534.55,22.03L540,21.95" style="vector-effect: non-scaling-stroke; fill: none; stroke: rgb(231, 107, 243); stroke-opacity: 1; stroke-width: 2px; opacity: 1;"/></g><g class="points"/><g class="text"/></g><g class="trace scatter trace00a682" style="stroke-miterlimit: 2; opacity: 1;"><g class="fills"/><g class="errorbars"/><g class="lines"><path class="js-line" d="M0,302.2L5.45,298.53L10.91,296.42L21.82,294.92L27.27,292.51L38.18,286.02L43.64,280.56L49.09,274.01L54.55,266.11L81.82,215.84L87.27,207.86L92.73,196.98L98.18,189.8L109.09,173.73L114.55,166L120,159.25L125.45,154.59L136.36,141.94L141.82,136.63L147.27,132.22L152.73,125.78L158.18,120.14L163.64,117.38L201.82,87.9L207.27,85L218.18,77.62L223.64,75.5L229.09,71.74L234.55,69.11L240,65.58L245.45,63.45L261.82,54.74L267.27,53.07L272.73,50.52L278.18,49.91L283.64,46.51L289.09,46.14L305.45,40.19L310.91,40.42L327.27,36.33L332.73,34.68L338.18,34.68L343.64,33.77L349.09,32.07L354.55,31.22L360,31.45L365.45,30.17L392.73,27.14L398.18,25.96L403.64,27.03L409.09,25.64L425.45,25.59L430.91,25.04L447.27,23.33L452.73,22.5L463.64,22.92L469.09,23.63L474.55,21.52L480,22.98L485.45,21.37L490.91,21.71L496.36,21.8L501.82,20.46L507.27,21.44L512.73,21.34L518.18,21.27L523.64,20.25L529.09,20.99L534.55,20.39L540,19.83" style="vector-effect: non-scaling-stroke; fill: none; stroke: rgb(248, 118, 109); stroke-opacity: 1; stroke-width: 2px; opacity: 1;"/></g><g class="points"/><g class="text"/></g><g class="trace scatter trace242555" style="stroke-miterlimit: 2; opacity: 1;"><g class="fills"/><g class="errorbars"/><g class="lines"><path class="js-line" d="M0,303.15L5.45,298.33L10.91,296.54L21.82,294.02L27.27,293.61L32.73,289.55L38.18,286.48L43.64,282.12L49.09,276.39L60,258.67L65.45,247.81L70.91,237.09L76.36,228.56L92.73,201.22L98.18,192.5L109.09,178.93L114.55,172.1L125.45,159.2L130.91,154.24L136.36,151.12L141.82,144.22L158.18,129.62L163.64,125.99L169.09,119.77L174.55,116.81L180,112.31L185.45,109.58L207.27,94.09L212.73,91.66L229.09,81.08L234.55,78.15L240,76.5L245.45,72.97L250.91,71.05L256.36,67.97L272.73,61.32L278.18,59.4L283.64,57.33L289.09,54.01L300,50.59L305.45,50.58L316.36,45.89L321.82,44.71L327.27,42.67L332.73,41.96L343.64,39.17L349.09,38.24L354.55,37.12L360,37.01L387.27,30.49L392.73,30.33L409.09,27.84L414.55,28.35L420,26.28L425.45,26.21L430.91,25.79L436.36,24.33L441.82,25.26L447.27,23.55L452.73,24.29L458.18,21.93L469.09,22.76L474.55,21.58L480,22.08L485.45,21.53L496.36,20.55L501.82,20.81L512.73,20.03L518.18,20.85L540,19.55" style="vector-effect: non-scaling-stroke; fill: none; stroke: rgb(163, 165, 0); stroke-opacity: 1; stroke-width: 2px; opacity: 1;"/></g><g class="points"/><g class="text"/></g><g class="trace scatter trace0b6423" style="stroke-miterlimit: 2; opacity: 1;"><g class="fills"/><g class="errorbars"/><g class="lines"><path class="js-line" d="M0,302.55L5.45,298.69L10.91,297.36L16.36,294.82L21.82,293.95L32.73,290.69L38.18,287.2L43.64,283.36L49.09,276.99L54.55,270.16L60,259.65L81.82,220L87.27,212.17L92.73,204.4L98.18,195.22L114.55,174.93L120,167.07L147.27,138.82L152.73,135.3L158.18,129.36L163.64,125.68L169.09,119.44L174.55,116.12L185.45,109.52L190.91,104.22L196.36,101.3L201.82,97.35L212.73,91.22L218.18,87.56L245.45,72.61L250.91,70.47L261.82,66.23L267.27,63.97L283.64,57.9L289.09,55L294.55,54.41L300,51.4L316.36,47.68L321.82,46.87L327.27,44.37L332.73,42.82L338.18,41.35L343.64,40.81L354.55,39.07L360,37.57L370.91,35.42L376.36,35.03L381.82,34.77L387.27,35.38L392.73,32.91L398.18,33.35L403.64,31.52L409.09,31.32L420,29.37L425.45,30.31L430.91,28.67L436.36,28.58L441.82,26.92L447.27,27.37L458.18,26.6L463.64,26.4L480,25.58L485.45,24.6L512.73,24.51L518.18,22.8L523.64,23.17L529.09,22.45L534.55,21.81L540,22.96" style="vector-effect: non-scaling-stroke; fill: none; stroke: rgb(0, 191, 125); stroke-opacity: 1; stroke-width: 2px; opacity: 1;"/></g><g class="points"/><g class="text"/></g><g class="trace scatter traceacebcf" style="stroke-miterlimit: 2; opacity: 1;"><g class="fills"/><g class="errorbars"/><g class="lines"><path class="js-line" d="M0,302.62L5.45,299.55L10.91,297.41L16.36,294.89L21.82,293.88L27.27,293.69L32.73,290.64L38.18,288.05L43.64,283.93L54.55,270.19L60,259.79L81.82,223.6L87.27,214.99L92.73,208.5L98.18,200.34L103.64,193.25L109.09,187.82L130.91,162.61L136.36,158.45L141.82,154.18L147.27,148.77L152.73,143.33L158.18,139.4L163.64,134.25L169.09,130.19L174.55,127.32L180,122.35L190.91,114.68L196.36,110.88L201.82,106.57L207.27,104.75L212.73,99.54L218.18,97.08L234.55,87.18L240,84L245.45,82.16L250.91,79.21L256.36,75.45L261.82,73.49L272.73,67.36L278.18,64.88L283.64,63.8L289.09,60.09L294.55,59.98L300,56.89L305.45,55.76L310.91,52.97L321.82,48.5L327.27,47.66L338.18,44.31L343.64,42.59L354.55,39.71L360,38.77L370.91,38.32L376.36,36.3L381.82,35.12L387.27,32.96L392.73,33.5L398.18,31.3L441.82,26.3L447.27,25L452.73,24.93L458.18,24.03L463.64,25L469.09,24L474.55,23.92L480,22.64L485.45,23.4L490.91,23.1L496.36,21.57L501.82,22.16L512.73,21.42L518.18,21.82L540,20.15" style="vector-effect: non-scaling-stroke; fill: none; stroke: rgb(0, 176, 246); stroke-opacity: 1; stroke-width: 2px; opacity: 1;"/></g><g class="points"/><g class="text"/></g><g class="trace scatter tracedacce2" style="stroke-miterlimit: 2; opacity: 1;"><g class="fills"/><g class="errorbars"/><g class="lines"><path class="js-line" d="M0,301.83L10.91,295.73L16.36,295.52L21.82,294.57L27.27,292.5L32.73,289.42L38.18,285.42L49.09,273.03L54.55,263.12L65.45,241.61L70.91,230.12L87.27,200.02L92.73,190.42L109.09,163.32L114.55,158.3L125.45,142.96L130.91,138.2L141.82,125.89L147.27,121.83L158.18,111.86L163.64,105.78L174.55,96.09L180,93.76L185.45,88L190.91,85.05L201.82,76.38L207.27,74.18L212.73,71.86L218.18,68.41L223.64,65.68L229.09,61.62L234.55,60.12L240,57.47L250.91,53.82L256.36,51.33L261.82,51.76L267.27,48.62L294.55,41.07L300,41.35L310.91,38.66L316.36,36.11L321.82,36.21L327.27,34.49L332.73,35.3L338.18,33.01L349.09,32.19L354.55,30.67L360,31.19L365.45,30.26L376.36,29.55L381.82,28.37L387.27,28.23L392.73,26.84L403.64,26.7L409.09,26.3L420,25.54L425.45,24.95L430.91,25.28L436.36,24.67L441.82,25.22L447.27,24.03L463.64,24.09L469.09,22.81L480,22.25L485.45,22.2L496.36,22.31L501.82,20.71L518.18,21.02L523.64,20.69L529.09,21.45L534.55,20.85L540,20.27" style="vector-effect: non-scaling-stroke; fill: none; stroke: rgb(231, 107, 243); stroke-opacity: 1; stroke-width: 2px; opacity: 1;"/></g><g class="points"/><g class="text"/></g><g class="trace scatter trace54b19f" style="stroke-miterlimit: 2; opacity: 1;"><g class="fills"/><g class="errorbars"/><g class="lines"><path class="js-line" d="M0,303.43L5.45,298.63L10.91,296.86L27.27,292.95L32.73,290.81L38.18,287.07L43.64,282.41L49.09,276.48L54.55,267.31L60,257.39L65.45,249.03L70.91,237.95L76.36,229.68L81.82,219.87L87.27,212.63L92.73,204.09L98.18,197.42L103.64,189.48L109.09,183.48L120,170.17L125.45,164.12L130.91,157.07L136.36,154.87L147.27,143.44L152.73,137.78L158.18,132.4L163.64,128.73L169.09,122.9L174.55,119.03L185.45,109.74L190.91,105.94L196.36,101.04L201.82,97.65L207.27,91.45L212.73,88.95L218.18,86.16L223.64,82.2L234.55,74.99L240,71.6L245.45,67.85L250.91,66.43L261.82,58.89L267.27,56.26L283.64,49.56L289.09,48.26L294.55,45.71L300,44.58L310.91,40.04L316.36,39.1L327.27,36.33L332.73,35.81L343.64,34.01L349.09,32.27L354.55,32.55L360,30.33L370.91,29.73L376.36,28.52L387.27,27.59L392.73,26.07L409.09,26.21L414.55,24.22L430.91,23.45L436.36,22.96L447.27,22.86L452.73,21.89L480,21.01L485.45,20.17L501.82,19.93L507.27,19.63L512.73,19.85L518.18,18.79L523.64,19.28L529.09,18.83L534.55,18.97L540,18.13" style="vector-effect: non-scaling-stroke; fill: none; stroke: rgb(248, 118, 109); stroke-opacity: 1; stroke-width: 2px; opacity: 1;"/></g><g class="points"/><g class="text"/></g><g class="trace scatter tracefd5972" style="stroke-miterlimit: 2; opacity: 1;"><g class="fills"/><g class="errorbars"/><g class="lines"><path class="js-line" d="M0,302.85L5.45,299.03L10.91,297.09L21.82,294.47L27.27,291.4L32.73,290.02L38.18,286.46L49.09,278.58L54.55,269.8L60,262.24L65.45,252.33L76.36,232.07L81.82,223.76L98.18,197.48L103.64,190.41L109.09,182.64L114.55,177.34L136.36,151.85L141.82,145.59L158.18,129.71L163.64,125.59L180,110.58L185.45,107.02L190.91,104.42L196.36,98.55L207.27,92.02L212.73,87.57L234.55,73.82L240,70.98L250.91,65.37L256.36,62.7L261.82,59.32L267.27,57.38L278.18,52.21L283.64,50.71L289.09,48.22L294.55,47.46L305.45,42.71L310.91,41.42L316.36,41.32L321.82,38.41L332.73,36.79L338.18,35.36L349.09,32.59L354.55,32.24L365.45,29.7L370.91,29.36L376.36,28.81L381.82,29.36L387.27,27.33L392.73,26.98L398.18,26.25L403.64,26.5L409.09,26.57L414.55,25.29L425.45,24.2L430.91,24.18L447.27,23.33L452.73,22.6L480,20.56L485.45,19.92L496.36,20.01L501.82,19.8L507.27,19.81L512.73,19.07L518.18,19.27L523.64,18.6L529.09,19.07L534.55,17.9L540,18.68" style="vector-effect: non-scaling-stroke; fill: none; stroke: rgb(163, 165, 0); stroke-opacity: 1; stroke-width: 2px; opacity: 1;"/></g><g class="points"/><g class="text"/></g><g class="trace scatter tracef6cdf3" style="stroke-miterlimit: 2; opacity: 1;"><g class="fills"/><g class="errorbars"/><g class="lines"><path class="js-line" d="M0,302.97L5.45,298.53L10.91,296.22L21.82,294.59L27.27,291.88L32.73,290.38L38.18,287.06L43.64,283.12L49.09,277.31L54.55,271.39L60,263.11L65.45,253.16L70.91,245.01L76.36,235.51L81.82,227.81L87.27,217.19L92.73,209.76L98.18,201.62L103.64,194.91L120,174.98L125.45,167.35L130.91,162.65L136.36,155.43L141.82,150.59L147.27,143.47L152.73,139.49L158.18,133.21L163.64,130.37L169.09,124.28L190.91,107.39L196.36,104.39L201.82,99.45L207.27,97.06L212.73,93.64L218.18,87.7L223.64,86.14L229.09,82.12L240,76.86L245.45,75.06L250.91,70.7L256.36,68.9L272.73,61.05L278.18,59.24L283.64,56.73L289.09,55.18L300,51.3L305.45,50.05L310.91,47.25L316.36,46.55L327.27,44.33L332.73,42.23L343.64,39.15L349.09,38.34L354.55,37.29L360,37.18L365.45,35.2L370.91,34.75L403.64,28.73L409.09,29.26L420,27.51L425.45,26.52L430.91,25.84L436.36,26.27L447.27,25.58L452.73,25.42L463.64,24.25L469.09,24.39L480,22.22L485.45,22.78L512.73,21.67L518.18,21.44L540,20.15" style="vector-effect: non-scaling-stroke; fill: none; stroke: rgb(0, 191, 125); stroke-opacity: 1; stroke-width: 2px; opacity: 1;"/></g><g class="points"/><g class="text"/></g><g class="trace scatter trace8f56c5" style="stroke-miterlimit: 2; opacity: 1;"><g class="fills"/><g class="errorbars"/><g class="lines"><path class="js-line" d="M0,301.68L5.45,298.29L10.91,297.05L16.36,294.78L21.82,294.51L27.27,292.18L32.73,288.24L38.18,284.83L43.64,278.1L54.55,261.96L60,250.8L65.45,240.99L70.91,229.51L87.27,200.09L92.73,191.35L98.18,181.23L103.64,174.57L109.09,164.58L114.55,157.14L125.45,143.23L130.91,136.57L136.36,130.94L141.82,124.16L163.64,101.61L169.09,97.93L174.55,92.65L180,89.44L190.91,81.74L196.36,79.08L201.82,74.12L207.27,71.14L229.09,60.47L234.55,58.42L240,54.38L245.45,52.71L256.36,49.42L261.82,46.19L267.27,43.97L272.73,44.33L278.18,41.52L283.64,40.38L289.09,38.79L294.55,38.04L310.91,35.79L316.36,33.41L327.27,31.12L332.73,31.36L343.64,28.44L349.09,28.19L354.55,26.44L360,26.93L370.91,26.57L376.36,24.88L381.82,25.4L387.27,24.14L398.18,23.21L403.64,24.07L414.55,22.01L420,22.65L441.82,22.11L447.27,20.86L458.18,20.56L463.64,19.49L474.55,19.09L480,19.73L485.45,19.87L490.91,19.1L501.82,19.55L507.27,18.66L512.73,17.71L518.18,18.23L529.09,17.74L534.55,18.36L540,17.32" style="vector-effect: non-scaling-stroke; fill: none; stroke: rgb(0, 176, 246); stroke-opacity: 1; stroke-width: 2px; opacity: 1;"/></g><g class="points"/><g class="text"/></g><g class="trace scatter trace1e3937" style="stroke-miterlimit: 2; opacity: 1;"><g class="fills"/><g class="errorbars"/><g class="lines"><path class="js-line" d="M0,301.71L10.91,296.51L16.36,295.76L27.27,293.48L32.73,290.27L38.18,288.7L43.64,282.97L49.09,277.92L54.55,269.93L65.45,254.16L70.91,243.67L81.82,226.17L87.27,218.4L92.73,211.53L98.18,202.3L103.64,195L109.09,190.03L114.55,184.14L120,176.96L136.36,159.03L141.82,154.1L152.73,142L158.18,138.07L163.64,131.28L169.09,128.42L174.55,122.94L180,118.73L185.45,115.19L190.91,108.7L196.36,104.79L201.82,102.43L212.73,94.55L218.18,91.57L223.64,87.19L229.09,84.92L234.55,83.11L240,80.19L245.45,76.27L250.91,74.11L256.36,72.01L261.82,68.7L272.73,65.61L278.18,63.64L283.64,61.15L289.09,60.4L294.55,58.2L300,55.14L305.45,54.34L310.91,52.09L327.27,46.43L332.73,46.63L338.18,43.82L343.64,42.45L354.55,41.79L360,39.22L370.91,39.18L376.36,37.45L403.64,32.79L409.09,32.33L430.91,29.63L436.36,29.48L447.27,26.78L452.73,26.87L458.18,26.03L463.64,26.27L474.55,25.07L480,24.41L490.91,23.78L496.36,23.99L501.82,24.66L507.27,22.7L523.64,21.56L529.09,22.44L534.55,21.09L540,21.18" style="vector-effect: non-scaling-stroke; fill: none; stroke: rgb(231, 107, 243); stroke-opacity: 1; stroke-width: 2px; opacity: 1;"/></g><g class="points"/><g class="text"/></g><g class="trace scatter traced03728" style="stroke-miterlimit: 2; opacity: 1;"><g class="fills"/><g class="errorbars"/><g class="lines"><path class="js-line" d="M0,302.52L5.45,298.24L10.91,296.84L16.36,296.21L21.82,294.27L32.73,289.55L38.18,286.36L49.09,274.33L54.55,264.91L60,256.56L65.45,246.12L87.27,207.69L92.73,199.39L103.64,182.4L109.09,177.44L125.45,156.41L130.91,151.11L136.36,144.38L141.82,139.68L158.18,126.85L163.64,121.01L174.55,113.54L180,107.78L185.45,103.65L190.91,100.99L196.36,98.6L201.82,92.94L218.18,82.84L223.64,79.89L234.55,73.2L240,71.09L245.45,69.08L250.91,65.19L256.36,63.39L261.82,60.69L272.73,56.41L278.18,55.36L283.64,51.08L289.09,49.89L310.91,44.07L316.36,43.95L332.73,38.01L338.18,37.42L354.55,34.03L360,34.33L365.45,32.33L370.91,31.65L381.82,29.38L387.27,30.1L392.73,28.9L398.18,28.52L420,26.68L425.45,26.69L430.91,25.49L436.36,25.16L447.27,24.72L452.73,24.04L458.18,23.53L463.64,23.93L469.09,23.99L474.55,23.04L480,22.79L485.45,21.49L490.91,22.03L496.36,21.78L512.73,21.86L518.18,20.99L540,19.44" style="vector-effect: non-scaling-stroke; fill: none; stroke: rgb(248, 118, 109); stroke-opacity: 1; stroke-width: 2px; opacity: 1;"/></g><g class="points"/><g class="text"/></g><g class="trace scatter trace3a39e0" style="stroke-miterlimit: 2; opacity: 1;"><g class="fills"/><g class="errorbars"/><g class="lines"><path class="js-line" d="M0,303L5.45,297.45L10.91,297.66L21.82,294.15L27.27,292.88L38.18,288.23L43.64,281.8L60,256.12L65.45,245.96L81.82,218.39L87.27,211.41L92.73,204.79L98.18,196.93L130.91,162.57L136.36,158.9L141.82,155.2L147.27,149.41L158.18,140.47L163.64,137.74L169.09,134.68L174.55,129.72L180,126.73L185.45,122.2L190.91,118.82L196.36,114.55L207.27,109.39L212.73,103.95L229.09,96.93L234.55,91.47L240,88.82L245.45,85.1L267.27,75.54L272.73,72.28L283.64,65.75L289.09,64.45L294.55,61.8L300,60.54L310.91,54.62L316.36,54.69L321.82,50.93L327.27,50.23L332.73,47.31L338.18,46.04L343.64,44.74L349.09,44.66L360,39.31L365.45,39.35L381.82,36.34L387.27,34.6L398.18,33.1L403.64,33.57L409.09,31.18L414.55,30.73L441.82,27.95L447.27,27.44L458.18,25.91L463.64,25.44L490.91,23.68L496.36,23.66L501.82,22.41L507.27,22.27L512.73,21.2L518.18,21.33L529.09,22.43L534.55,20.29L540,21.01" style="vector-effect: non-scaling-stroke; fill: none; stroke: rgb(163, 165, 0); stroke-opacity: 1; stroke-width: 2px; opacity: 1;"/></g><g class="points"/><g class="text"/></g><g class="trace scatter traceea94be" style="stroke-miterlimit: 2; opacity: 1;"><g class="fills"/><g class="errorbars"/><g class="lines"><path class="js-line" d="M0,303.15L5.45,298.94L10.91,297.17L16.36,295.43L21.82,295.54L27.27,292.89L32.73,291.52L38.18,289.8L43.64,285.51L54.55,274.12L60,267.11L81.82,231.68L87.27,224.87L92.73,215.67L98.18,208.67L109.09,192.78L114.55,185.31L125.45,171.33L130.91,166.01L147.27,149.03L152.73,143.19L163.64,134.57L169.09,130.68L185.45,114.24L190.91,112.65L196.36,107.72L201.82,104.04L207.27,101.23L212.73,96.03L218.18,93.34L223.64,88.97L234.55,83.23L240,78.88L245.45,77.53L250.91,73.74L261.82,69.58L267.27,66.49L272.73,64.55L278.18,60.19L283.64,59.82L289.09,58.15L294.55,55.67L300,54.29L310.91,49.84L316.36,49.42L332.73,44.16L338.18,44.16L343.64,41.33L349.09,41.31L360,38.59L365.45,38.12L381.82,34.76L387.27,34.35L392.73,34.14L398.18,31.6L430.91,30.29L436.36,28.66L441.82,29.21L447.27,27.58L452.73,28.19L458.18,27.18L463.64,26.53L469.09,27.2L480,24.67L485.45,24.93L490.91,25.3L496.36,24.82L501.82,24.06L507.27,24.26L523.64,23.13L529.09,23.02L540,21.6" style="vector-effect: non-scaling-stroke; fill: none; stroke: rgb(0, 191, 125); stroke-opacity: 1; stroke-width: 2px; opacity: 1;"/></g><g class="points"/><g class="text"/></g><g class="trace scatter trace4d3347" style="stroke-miterlimit: 2; opacity: 1;"><g class="fills"/><g class="errorbars"/><g class="lines"><path class="js-line" d="M0,302.91L5.45,298.26L10.91,297.04L16.36,296.82L21.82,294.08L27.27,291.23L32.73,289.88L38.18,283.71L43.64,278.67L54.55,262.55L60,251.59L81.82,207.4L87.27,198.67L98.18,180.06L103.64,172.91L109.09,165.28L114.55,159.01L136.36,132.02L141.82,127.06L147.27,122.86L152.73,117.58L158.18,110.81L163.64,106.57L169.09,101.61L174.55,98.63L190.91,82.56L196.36,80.33L207.27,73.56L212.73,69.65L218.18,65.92L223.64,63.61L240,53.83L245.45,51.49L261.82,44.93L267.27,43.65L272.73,40.27L278.18,38.95L283.64,38.5L289.09,37L294.55,36.16L300,33.85L305.45,33.49L310.91,32.22L316.36,30.21L321.82,29.67L332.73,27.89L338.18,27.13L343.64,27.56L349.09,25.72L354.55,26.39L360,24.24L365.45,24.4L370.91,23.78L381.82,22.9L387.27,23.17L414.55,20.47L420,19.73L425.45,20.54L430.91,19.62L441.82,20L447.27,18.98L452.73,20.06L458.18,19.33L469.09,18.43L474.55,18.38L485.45,17.87L490.91,18.69L496.36,17.57L501.82,17.4L518.18,17.77L523.64,17.5L529.09,16L534.55,17.16L540,16.2" style="vector-effect: non-scaling-stroke; fill: none; stroke: rgb(0, 176, 246); stroke-opacity: 1; stroke-width: 2px; opacity: 1;"/></g><g class="points"/><g class="text"/></g><g class="trace scatter trace92bd3e" style="stroke-miterlimit: 2; opacity: 1;"><g class="fills"/><g class="errorbars"/><g class="lines"><path class="js-line" d="M0,302.25L5.45,298.05L10.91,296.58L16.36,295.99L21.82,292.93L27.27,291.92L32.73,289L43.64,279.55L49.09,272.4L54.55,265.14L60,255.73L65.45,243.67L70.91,235.54L87.27,207.25L92.73,200.11L98.18,192.77L103.64,183.94L109.09,175.62L114.55,171.35L120,163.78L125.45,157.86L141.82,139.85L147.27,135.33L158.18,126.18L163.64,120.56L169.09,116.47L174.55,110.94L180,108.72L185.45,105.27L190.91,100.59L196.36,97.44L201.82,94.12L207.27,89.34L212.73,85.39L218.18,82.4L229.09,77.03L234.55,73.8L240,71L245.45,67.34L250.91,64.57L256.36,62.83L261.82,60.83L267.27,57.66L272.73,55.24L278.18,53.75L283.64,51.54L289.09,48.42L294.55,48.07L300,45.84L305.45,44.73L310.91,42.83L321.82,40.78L327.27,39.02L349.09,35.28L354.55,33.8L365.45,32.66L370.91,30.81L392.73,28.8L398.18,27.74L414.55,25.43L420,25.87L430.91,23.71L436.36,24.61L441.82,23.59L447.27,23.72L458.18,23.6L463.64,22.88L501.82,21.99L507.27,20.31L512.73,21.08L518.18,19.91L523.64,20.83L529.09,20.24L540,21.09" style="vector-effect: non-scaling-stroke; fill: none; stroke: rgb(231, 107, 243); stroke-opacity: 1; stroke-width: 2px; opacity: 1;"/></g><g class="points"/><g class="text"/></g><g class="trace scatter tracec71627" style="stroke-miterlimit: 2; opacity: 1;"><g class="fills"/><g class="errorbars"/><g class="lines"><path class="js-line" d="M0,302.48L5.45,297.66L10.91,296.29L16.36,296.49L21.82,294L27.27,293.09L32.73,290.49L38.18,288.29L43.64,283.13L49.09,277L54.55,267.43L60,259L65.45,248.48L87.27,212.55L92.73,205.97L98.18,196.51L103.64,189.6L120,168.83L125.45,163.68L136.36,151.28L141.82,146.52L158.18,133.28L163.64,127L169.09,123.48L174.55,119L185.45,110.66L190.91,106.84L207.27,95.79L212.73,90.56L218.18,89.39L223.64,86.37L234.55,78.57L240,76.78L245.45,74.62L250.91,70.49L256.36,67.41L261.82,65.36L272.73,61.95L278.18,57.43L283.64,55.37L289.09,54.22L305.45,48.36L310.91,46.41L327.27,42.6L332.73,40.89L343.64,36.95L349.09,37.28L354.55,36.51L360,34.84L365.45,33.71L370.91,33.39L376.36,31.77L381.82,31.05L387.27,30.78L392.73,29.25L398.18,28L403.64,28.19L414.55,27.76L420,27.02L430.91,26.93L436.36,26.14L441.82,25.34L447.27,25.71L452.73,25.46L458.18,23.96L480,24.12L485.45,23.03L507.27,22.38L512.73,21.3L518.18,21.69L523.64,21.28L540,21.53" style="vector-effect: non-scaling-stroke; fill: none; stroke: rgb(248, 118, 109); stroke-opacity: 1; stroke-width: 2px; opacity: 1;"/></g><g class="points"/><g class="text"/></g><g class="trace scatter tracea5e19b" style="stroke-miterlimit: 2; opacity: 1;"><g class="fills"/><g class="errorbars"/><g class="lines"><path class="js-line" d="M0,302.69L5.45,297.74L10.91,295.65L16.36,295.49L21.82,293.4L32.73,291.51L38.18,288.52L43.64,286.99L49.09,282.19L60,269.82L65.45,261.64L70.91,252.28L76.36,245.38L81.82,238L87.27,228.7L92.73,221.17L98.18,211.58L109.09,198.24L114.55,193.42L120,184.6L125.45,178.02L141.82,162.61L147.27,158.32L152.73,153.72L158.18,147.78L174.55,134.37L180,130.71L190.91,121.64L196.36,118.36L201.82,113.79L207.27,111.65L212.73,107.6L218.18,105.84L240,91.25L245.45,89.89L250.91,86.2L256.36,84.1L261.82,80.48L267.27,77.8L278.18,73.2L283.64,72.14L294.55,67.06L300,65.39L305.45,64.22L310.91,62.12L321.82,58.96L327.27,56.52L332.73,55.15L338.18,54.71L370.91,46.32L376.36,46.71L387.27,44.21L392.73,43.3L398.18,42.62L403.64,41.17L409.09,40.48L414.55,38.17L420,38.66L425.45,37.54L436.36,35.89L441.82,34.48L452.73,33.69L458.18,31.67L474.55,31.14L480,29.89L490.91,29.39L496.36,29.64L507.27,27.29L512.73,26.72L518.18,27.03L523.64,26.28L540,24.77" style="vector-effect: non-scaling-stroke; fill: none; stroke: rgb(163, 165, 0); stroke-opacity: 1; stroke-width: 2px; opacity: 1;"/></g><g class="points"/><g class="text"/></g><g class="trace scatter tracec7c14b" style="stroke-miterlimit: 2; opacity: 1;"><g class="fills"/><g class="errorbars"/><g class="lines"><path class="js-line" d="M0,302.01L5.45,298.34L10.91,296.29L21.82,294.57L27.27,292.32L32.73,290.85L38.18,287.13L49.09,278.67L54.55,269.53L60,260.57L65.45,250.16L81.82,222.17L87.27,214.42L98.18,197.86L103.64,188.86L114.55,174.94L120,169.85L136.36,149.09L141.82,144.89L163.64,123.45L169.09,118.43L174.55,114.5L180,108.25L190.91,100.48L196.36,97.94L229.09,76.48L234.55,74.19L240,70.58L245.45,69.36L250.91,66.01L256.36,64.87L261.82,63.84L267.27,60.88L272.73,58.14L278.18,56.62L289.09,52.75L294.55,52.05L305.45,48.19L310.91,46.63L321.82,42.86L327.27,41.93L332.73,40.29L338.18,39.49L349.09,37.07L354.55,34.67L365.45,33.86L370.91,32.86L376.36,31.34L381.82,31.54L387.27,30.12L392.73,30.02L403.64,27.77L409.09,27.99L420,26.65L425.45,25.99L441.82,23.49L447.27,23.27L452.73,23.19L458.18,22.23L469.09,22.98L474.55,21.49L490.91,21.17L496.36,20.13L507.27,19.66L512.73,20.74L518.18,19.68L523.64,20.09L534.55,19.29L540,18.93" style="vector-effect: non-scaling-stroke; fill: none; stroke: rgb(0, 191, 125); stroke-opacity: 1; stroke-width: 2px; opacity: 1;"/></g><g class="points"/><g class="text"/></g><g class="trace scatter trace8f53dd" style="stroke-miterlimit: 2; opacity: 1;"><g class="fills"/><g class="errorbars"/><g class="lines"><path class="js-line" d="M0,302.7L5.45,298.33L10.91,297.25L21.82,294.96L27.27,293.36L32.73,290.97L38.18,287.76L43.64,282.48L49.09,275.33L54.55,266.42L60,255.28L76.36,223.38L81.82,215.53L87.27,205.9L92.73,198.52L103.64,182.79L109.09,175.22L114.55,169.48L120,162.53L125.45,154.78L130.91,149.02L136.36,142.92L141.82,138.17L158.18,122.39L163.64,119.04L169.09,113.26L174.55,109.2L185.45,100.19L190.91,96.74L201.82,89.24L207.27,85.65L212.73,82.49L218.18,80.89L223.64,76.24L229.09,73.46L250.91,62.83L256.36,61.14L267.27,57.2L272.73,55.9L278.18,53.57L283.64,52.98L289.09,50.63L294.55,49.3L300,46.06L305.45,44.66L310.91,44.35L316.36,43.25L321.82,41.72L327.27,41.24L332.73,39.31L338.18,38.63L343.64,37.97L349.09,36.44L365.45,33.83L370.91,32.63L381.82,30.63L387.27,30.15L403.64,27.76L409.09,27.65L430.91,24.54L436.36,24.87L441.82,23.39L447.27,23.08L452.73,23.55L458.18,22.51L480,21.28L485.45,21.56L490.91,20.46L496.36,20.81L512.73,19.11L518.18,19.37L523.64,18.8L529.09,19.37L540,17.83" style="vector-effect: non-scaling-stroke; fill: none; stroke: rgb(0, 176, 246); stroke-opacity: 1; stroke-width: 2px; opacity: 1;"/></g><g class="points"/><g class="text"/></g><g class="trace scatter trace3061d8" style="stroke-miterlimit: 2; opacity: 1;"><g class="fills"/><g class="errorbars"/><g class="lines"><path class="js-line" d="M0,304L5.45,297.54L10.91,296.83L21.82,295.01L27.27,292.78L32.73,289.82L38.18,287.91L49.09,276.87L54.55,266.91L65.45,250.18L70.91,237.99L92.73,200.66L98.18,192.99L109.09,177.19L114.55,170.71L130.91,150.87L136.36,144.87L147.27,133.06L152.73,128.31L158.18,123.14L163.64,119.24L180,103.5L185.45,99.51L190.91,95.14L196.36,92.2L201.82,87.04L207.27,84.38L212.73,80.29L218.18,77.91L223.64,73.43L229.09,71.2L234.55,67.59L240,65.35L250.91,59.54L256.36,57.84L278.18,48.9L283.64,48.61L294.55,45.48L300,44.05L321.82,38.84L327.27,38.82L349.09,34.4L354.55,34.15L370.91,31.14L376.36,31.42L381.82,29.64L387.27,29.56L392.73,28.69L398.18,28.65L409.09,26.59L414.55,27.44L436.36,25.49L441.82,23.9L447.27,24.56L452.73,24.14L458.18,23.48L463.64,24.7L469.09,23.15L474.55,23.59L490.91,22.38L496.36,21.17L501.82,21.93L507.27,20.89L512.73,20.66L518.18,21.34L534.55,19.45L540,19.3" style="vector-effect: non-scaling-stroke; fill: none; stroke: rgb(231, 107, 243); stroke-opacity: 1; stroke-width: 2px; opacity: 1;"/></g><g class="points"/><g class="text"/></g></g></g><g class="overplot"/><path class="xlines-above crisp" d="" style="fill: none; stroke-width: 1px; stroke: rgb(0, 0, 0); stroke-opacity: 0;"/><path class="ylines-above crisp" d="" style="fill: none; stroke-width: 1px; stroke: rgb(0, 0, 0); stroke-opacity: 0;"/><g class="overlines-above"/><g class="xaxislayer-above"><path class="xtick ticks crisp" d="M0,421v5" transform="translate(80,0)" style="stroke: rgb(51, 51, 51); stroke-opacity: 1; stroke-width: 1px;"/><path class="xtick ticks crisp" d="M0,421v5" transform="translate(189.09,0)" style="stroke: rgb(51, 51, 51); stroke-opacity: 1; stroke-width: 1px;"/><path class="xtick ticks crisp" d="M0,421v5" transform="translate(298.18,0)" style="stroke: rgb(51, 51, 51); stroke-opacity: 1; stroke-width: 1px;"/><path class="xtick ticks crisp" d="M0,421v5" transform="translate(407.27,0)" style="stroke: rgb(51, 51, 51); stroke-opacity: 1; stroke-width: 1px;"/><path class="xtick ticks crisp" d="M0,421v5" transform="translate(516.36,0)" style="stroke: rgb(51, 51, 51); stroke-opacity: 1; stroke-width: 1px;"/><g class="xtick"><text text-anchor="middle" x="0" y="440.4" transform="translate(80,0)" style="font-family: 'Open Sans', verdana, arial, sans-serif; font-size: 12px; fill: rgb(51, 51, 51); fill-opacity: 1; white-space: pre; opacity: 1;">0</text></g><g class="xtick"><text text-anchor="middle" x="0" y="440.4" style="font-family: 'Open Sans', verdana, arial, sans-serif; font-size: 12px; fill: rgb(51, 51, 51); fill-opacity: 1; white-space: pre; opacity: 1;" transform="translate(189.09,0)">20</text></g><g class="xtick"><text text-anchor="middle" x="0" y="440.4" style="font-family: 'Open Sans', verdana, arial, sans-serif; font-size: 12px; fill: rgb(51, 51, 51); fill-opacity: 1; white-space: pre; opacity: 1;" transform="translate(298.18,0)">40</text></g><g class="xtick"><text text-anchor="middle" x="0" y="440.4" style="font-family: 'Open Sans', verdana, arial, sans-serif; font-size: 12px; fill: rgb(51, 51, 51); fill-opacity: 1; white-space: pre; opacity: 1;" transform="translate(407.27,0)">60</text></g><g class="xtick"><text text-anchor="middle" x="0" y="440.4" style="font-family: 'Open Sans', verdana, arial, sans-serif; font-size: 12px; fill: rgb(51, 51, 51); fill-opacity: 1; white-space: pre; opacity: 1;" transform="translate(516.36,0)">80</text></g></g><g class="yaxislayer-above"><path class="ytick ticks crisp" d="M79,0h-5" transform="translate(0,385.66)" style="stroke: rgb(51, 51, 51); stroke-opacity: 1; stroke-width: 1px;"/><path class="ytick ticks crisp" d="M79,0h-5" transform="translate(0,345.15999999999997)" style="stroke: rgb(51, 51, 51); stroke-opacity: 1; stroke-width: 1px;"/><path class="ytick ticks crisp" d="M79,0h-5" transform="translate(0,304.65999999999997)" style="stroke: rgb(51, 51, 51); stroke-opacity: 1; stroke-width: 1px;"/><path class="ytick ticks crisp" d="M79,0h-5" transform="translate(0,264.15999999999997)" style="stroke: rgb(51, 51, 51); stroke-opacity: 1; stroke-width: 1px;"/><path class="ytick ticks crisp" d="M79,0h-5" transform="translate(0,223.66)" style="stroke: rgb(51, 51, 51); stroke-opacity: 1; stroke-width: 1px;"/><path class="ytick ticks crisp" d="M79,0h-5" transform="translate(0,183.16)" style="stroke: rgb(51, 51, 51); stroke-opacity: 1; stroke-width: 1px;"/><path class="ytick ticks crisp" d="M79,0h-5" transform="translate(0,142.67000000000002)" style="stroke: rgb(51, 51, 51); stroke-opacity: 1; stroke-width: 1px;"/><path class="ytick ticks crisp" d="M79,0h-5" transform="translate(0,102.17)" style="stroke: rgb(51, 51, 51); stroke-opacity: 1; stroke-width: 1px;"/><g class="ytick"><text text-anchor="end" x="71.6" y="4.199999999999999" transform="translate(0,385.66)" style="font-family: 'Open Sans', verdana, arial, sans-serif; font-size: 12px; fill: rgb(51, 51, 51); fill-opacity: 1; white-space: pre; opacity: 1;">0.3</text></g><g class="ytick"><text text-anchor="end" x="71.6" y="4.199999999999999" style="font-family: 'Open Sans', verdana, arial, sans-serif; font-size: 12px; fill: rgb(51, 51, 51); fill-opacity: 1; white-space: pre; opacity: 1;" transform="translate(0,345.15999999999997)">0.4</text></g><g class="ytick"><text text-anchor="end" x="71.6" y="4.199999999999999" style="font-family: 'Open Sans', verdana, arial, sans-serif; font-size: 12px; fill: rgb(51, 51, 51); fill-opacity: 1; white-space: pre; opacity: 1;" transform="translate(0,304.65999999999997)">0.5</text></g><g class="ytick"><text text-anchor="end" x="71.6" y="4.199999999999999" style="font-family: 'Open Sans', verdana, arial, sans-serif; font-size: 12px; fill: rgb(51, 51, 51); fill-opacity: 1; white-space: pre; opacity: 1;" transform="translate(0,264.15999999999997)">0.6</text></g><g class="ytick"><text text-anchor="end" x="71.6" y="4.199999999999999" style="font-family: 'Open Sans', verdana, arial, sans-serif; font-size: 12px; fill: rgb(51, 51, 51); fill-opacity: 1; white-space: pre; opacity: 1;" transform="translate(0,223.66)">0.7</text></g><g class="ytick"><text text-anchor="end" x="71.6" y="4.199999999999999" style="font-family: 'Open Sans', verdana, arial, sans-serif; font-size: 12px; fill: rgb(51, 51, 51); fill-opacity: 1; white-space: pre; opacity: 1;" transform="translate(0,183.16)">0.8</text></g><g class="ytick"><text text-anchor="end" x="71.6" y="4.199999999999999" style="font-family: 'Open Sans', verdana, arial, sans-serif; font-size: 12px; fill: rgb(51, 51, 51); fill-opacity: 1; white-space: pre; opacity: 1;" transform="translate(0,142.67000000000002)">0.9</text></g><g class="ytick"><text text-anchor="end" x="71.6" y="4.199999999999999" style="font-family: 'Open Sans', verdana, arial, sans-serif; font-size: 12px; fill: rgb(51, 51, 51); fill-opacity: 1; white-space: pre; opacity: 1;" transform="translate(0,102.17)">1</text></g></g><g class="overaxes-above"/></g></g><g class="polarlayer"/><g class="ternarylayer"/><g class="geolayer"/><g class="funnelarealayer"/><g class="pielayer"/><g class="iciclelayer"/><g class="treemaplayer"/><g class="sunburstlayer"/><g class="glimages"/><defs id="topdefs-e6c898"><g class="clips"/></defs><g class="layer-above"><g class="imagelayer"/><g class="shapelayer"/></g><g class="infolayer"><g class="g-gtitle"><text class="gtitle" x="350" y="50" text-anchor="middle" dy="0em" style="font-family: 'Open Sans', verdana, arial, sans-serif; font-size: 17px; fill: rgb(51, 51, 51); opacity: 1; font-weight: normal; white-space: pre;">Train Accuracy: ascad_v1_fk_0_noisy-aisy_mlp_hw (early_stopping)</text></g><g class="g-xtitle"/><g class="g-ytitle"/></g></svg>