<svg class="main-svg" xmlns="http://www.w3.org/2000/svg" xmlns:xlink="http://www.w3.org/1999/xlink" width="700" height="500" style="" viewBox="0 0 700 500"><rect x="0" y="0" width="700" height="500" style="fill: rgb(255, 255, 255); fill-opacity: 1;"/><defs id="defs-05e7d4"><g class="clips"><clipPath id="clip05e7d4xyplot" class="plotclip"><rect width="540" height="320"/></clipPath><clipPath class="axesclip" id="clip05e7d4x"><rect x="80" y="0" width="540" height="500"/></clipPath><clipPath class="axesclip" id="clip05e7d4y"><rect x="0" y="100" width="700" height="320"/></clipPath><clipPath class="axesclip" id="clip05e7d4xy"><rect x="80" y="100" width="540" height="320"/></clipPath></g><g class="gradients"/><g class="patterns"/></defs><g class="bglayer"><rect class="bg" x="80" y="100" width="540" height="320" style="fill: rgb(237, 237, 237); fill-opacity: 1; stroke-width: 0;"/></g><g class="layer-below"><g class="imagelayer"/><g class="shapelayer"/></g><g class="cartesianlayer"><g class="subplot xy"><g class="layer-subplot"><g class="shapelayer"/><g class="imagelayer"/></g><g class="gridlayer"><g class="x"><path class="xgrid crisp" transform="translate(189.09,0)" d="M0,100v320" style="stroke: rgb(255, 255, 255); stroke-opacity: 1; stroke-width: 1px;"/><path class="xgrid crisp" transform="translate(298.18,0)" d="M0,100v320" style="stroke: rgb(255, 255, 255); stroke-opacity: 1; stroke-width: 1px;"/><path class="xgrid crisp" transform="translate(407.27,0)" d="M0,100v320" style="stroke: rgb(255, 255, 255); stroke-opacity: 1; stroke-width: 1px;"/><path class="xgrid crisp" transform="translate(516.36,0)" d="M0,100v320" style="stroke: rgb(255, 255, 255); stroke-opacity: 1; stroke-width: 1px;"/></g><g class="y"><path class="ygrid crisp" transform="translate(0,340.99)" d="M80,0h540" style="stroke: rgb(255, 255, 255); stroke-opacity: 1; stroke-width: 1px;"/><path class="ygrid crisp" transform="translate(0,253.59)" d="M80,0h540" style="stroke: rgb(255, 255, 255); stroke-opacity: 1; stroke-width: 1px;"/><path class="ygrid crisp" transform="translate(0,166.18)" d="M80,0h540" style="stroke: rgb(255, 255, 255); stroke-opacity: 1; stroke-width: 1px;"/></g></g><g class="zerolinelayer"><path class="xzl zl crisp" transform="translate(80,0)" d="M0,100v320" style="stroke: rgb(255, 255, 255); stroke-opacity: 1; stroke-width: 1px;"/></g><path class="xlines-below"/><path class="ylines-below"/><g class="overlines-below"/><g class="xaxislayer-below"/><g class="yaxislayer-below"/><g class="overaxes-below"/><g class="plot" transform="translate(80,100)" clip-path="url(#clip05e7d4xyplot)"><g class="scatterlayer mlayer"><g class="trace scatter trace4c1976" style="stroke-miterlimit: 2; opacity: 1;"><g class="fills"/><g class="errorbars"/><g class="lines"><path class="js-line" d="M0,16.22L5.45,21.58L10.91,24.41L27.27,32.95L32.73,37.08L38.18,42.47L43.64,49.14L49.09,56.11L54.55,64.78L70.91,91.5L76.36,101.71L92.73,124.97L98.18,132L103.64,139.35L109.09,145.37L125.45,163.33L130.91,168.69L136.36,172.63L141.82,178.76L147.27,182.5L152.73,187.19L158.18,190.77L163.64,195.73L174.55,202.94L180,207.5L185.45,210.07L190.91,214.77L212.73,227.29L218.18,231.59L240,241.52L245.45,243.57L256.36,249.79L261.82,251.1L272.73,255.77L278.18,256.62L283.64,260.47L289.09,263.12L294.55,263.49L300,265.41L305.45,268.61L310.91,268.79L316.36,269.64L321.82,273.24L327.27,274.38L332.73,273.87L349.09,281.05L354.55,282.07L360,283.65L365.45,283.98L370.91,285.49L376.36,285.93L392.73,289.64L398.18,289.45L403.64,288.89L409.09,292.11L414.55,290.76L420,292.62L430.91,292.98L436.36,294.73L452.73,294.2L458.18,296.49L463.64,295.41L469.09,296.43L474.55,296.8L480,293.7L485.45,297.7L490.91,298.32L496.36,297.27L501.82,299.11L512.73,298.56L518.18,300.01L523.64,300.03L529.09,301.53L534.55,300.1L540,300.23" style="vector-effect: non-scaling-stroke; fill: none; stroke: rgb(248, 118, 109); stroke-opacity: 1; stroke-width: 2px; opacity: 1;"/></g><g class="points"/><g class="text"/></g><g class="trace scatter traceea6f29" style="stroke-miterlimit: 2; opacity: 1;"><g class="fills"/><g class="errorbars"/><g class="lines"><path class="js-line" d="M0,16.43L5.45,21.5L10.91,24.05L27.27,32.47L32.73,36.3L38.18,41.1L43.64,47.09L54.55,63.01L60,72.12L70.91,91.52L76.36,101.44L92.73,128.75L98.18,137.44L120,163.88L125.45,169.94L141.82,185.26L147.27,189.83L152.73,195.83L158.18,198.87L163.64,203.06L169.09,209.65L174.55,210.35L180,215.67L190.91,222.75L196.36,226.92L207.27,233.94L212.73,238.04L223.64,245.07L229.09,247.61L234.55,251.43L240,253.2L245.45,254.57L250.91,258.5L256.36,260.05L261.82,263.72L278.18,270.01L283.64,272.56L289.09,273.73L294.55,275.87L300,277.86L305.45,278.98L321.82,283.56L327.27,283.57L332.73,285.45L338.18,286.15L349.09,288.43L354.55,288.26L365.45,289.76L370.91,290.15L376.36,290.51L381.82,291.79L387.27,291.52L392.73,292.91L398.18,293.66L403.64,293.11L409.09,295.01L414.55,294.72L420,296L425.45,294.86L430.91,296.61L436.36,295.6L452.73,297.77L458.18,296.33L463.64,297.75L469.09,297.16L474.55,298.84L480,298.96L485.45,299.94L490.91,298.64L496.36,298.32L501.82,299.35L512.73,299.46L518.18,302.03L523.64,299.97L529.09,300.12L540,301.18" style="vector-effect: non-scaling-stroke; fill: none; stroke: rgb(163, 165, 0); stroke-opacity: 1; stroke-width: 2px; opacity: 1;"/></g><g class="points"/><g class="text"/></g><g class="trace scatter traceef98ea" style="stroke-miterlimit: 2; opacity: 1;"><g class="fills"/><g class="errorbars"/><g class="lines"><path class="js-line" d="M0,16.46L5.45,21.49L10.91,24.3L27.27,32.71L32.73,36.59L38.18,41.47L43.64,47.6L49.09,54.18L54.55,62.74L87.27,121.9L92.73,129.62L98.18,138.81L103.64,146.29L109.09,154.19L114.55,160.13L125.45,173.61L130.91,179.52L136.36,184.15L141.82,190.59L152.73,201.88L158.18,205.63L180,223.41L185.45,226.84L190.91,231.76L196.36,235.51L201.82,239.56L207.27,242.06L212.73,246.16L218.18,248.9L229.09,255.05L234.55,259.15L245.45,264.26L250.91,266.93L256.36,268.14L261.82,270.45L272.73,274.5L278.18,276.03L289.09,280.53L294.55,280.54L300,282.4L305.45,283.24L310.91,284.81L316.36,285.59L327.27,288.47L332.73,289.61L343.64,289.97L349.09,292.44L365.45,294.19L370.91,293.77L376.36,292.7L381.82,294.78L392.73,295.9L398.18,294.83L403.64,296.57L409.09,294.8L414.55,296.22L420,295.96L436.36,296.37L441.82,298.5L447.27,298.62L452.73,296.71L469.09,299.9L474.55,299.01L485.45,297.67L490.91,300.31L496.36,298.54L501.82,300.8L507.27,300.33L512.73,300.76L518.18,301.47L523.64,301.04L540,301.03" style="vector-effect: non-scaling-stroke; fill: none; stroke: rgb(0, 191, 125); stroke-opacity: 1; stroke-width: 2px; opacity: 1;"/></g><g class="points"/><g class="text"/></g><g class="trace scatter trace364402" style="stroke-miterlimit: 2; opacity: 1;"><g class="fills"/><g class="errorbars"/><g class="lines"><path class="js-line" d="M0,16.42L5.45,21.48L10.91,24.45L21.82,29.37L27.27,32.54L32.73,36.05L38.18,41.24L43.64,46.45L49.09,53.32L60,68.52L65.45,76.81L76.36,92.5L81.82,100.44L109.09,136.8L114.55,143.25L125.45,156.02L130.91,160.25L141.82,172.69L147.27,176.97L152.73,182.23L158.18,185.99L163.64,192.01L169.09,196.55L174.55,200.32L180,205.33L185.45,209.75L190.91,211.56L196.36,217.31L201.82,221.13L207.27,223.84L212.73,227.94L240,243.2L245.45,246.72L261.82,253.77L267.27,257.34L272.73,257.59L278.18,261.43L289.09,263.51L294.55,265.92L300,268.8L305.45,269.94L310.91,272.46L316.36,273.06L327.27,278.43L332.73,279.38L338.18,281.22L343.64,281.82L349.09,281.54L354.55,282.73L370.91,286.67L376.36,285.4L381.82,288.89L387.27,289.28L403.64,289.8L409.09,292.07L414.55,293.18L420,292.06L436.36,293.44L441.82,293.95L452.73,295.76L458.18,294.49L463.64,296.59L469.09,296.92L480,297.67L485.45,297.06L490.91,297.2L496.36,298.62L501.82,296.64L507.27,298.04L512.73,297.05L518.18,297.64L529.09,300.54L534.55,300.79L540,299.69" style="vector-effect: non-scaling-stroke; fill: none; stroke: rgb(0, 176, 246); stroke-opacity: 1; stroke-width: 2px; opacity: 1;"/></g><g class="points"/><g class="text"/></g><g class="trace scatter trace58205c" style="stroke-miterlimit: 2; opacity: 1;"><g class="fills"/><g class="errorbars"/><g class="lines"><path class="js-line" d="M0,16.49L5.45,21.35L10.91,24.24L27.27,32.42L32.73,36.61L43.64,48.17L49.09,54.89L60,71.84L65.45,81.77L92.73,125.7L98.18,132.44L109.09,148.21L114.55,154.21L136.36,179.26L141.82,184.14L152.73,193.87L158.18,198.77L169.09,209.23L174.55,213.88L180,217.2L185.45,222.89L190.91,225.79L196.36,230.08L201.82,233.97L207.27,236.93L218.18,243.35L223.64,246.2L234.55,251.56L240,255.92L245.45,257.66L250.91,260.31L261.82,264.86L267.27,265.92L272.73,269.61L278.18,271.12L283.64,271.51L289.09,274.16L294.55,274.72L300,276.13L305.45,278.75L310.91,279.71L316.36,281.65L321.82,282.35L327.27,282.59L332.73,284.7L338.18,285.91L343.64,284.68L349.09,285.07L354.55,287.3L365.45,287.2L370.91,288.32L376.36,289.36L381.82,289.53L392.73,290.2L398.18,292.8L403.64,291.57L409.09,291.94L414.55,292.44L420,294.06L425.45,291.36L430.91,292.83L436.36,292.35L441.82,295L447.27,293.94L452.73,294.78L458.18,295.17L463.64,294.61L469.09,294.86L474.55,297.38L480,297.17L485.45,294.88L490.91,295.17L496.36,297.24L501.82,297.52L507.27,296.36L512.73,297.67L518.18,297.2L529.09,297.24L534.55,298L540,298.74" style="vector-effect: non-scaling-stroke; fill: none; stroke: rgb(231, 107, 243); stroke-opacity: 1; stroke-width: 2px; opacity: 1;"/></g><g class="points"/><g class="text"/></g><g class="trace scatter trace916632" style="stroke-miterlimit: 2; opacity: 1;"><g class="fills"/><g class="errorbars"/><g class="lines"><path class="js-line" d="M0,16.52L5.45,21.49L10.91,24.47L16.36,27.03L21.82,30.79L27.27,34.37L32.73,39.6L43.64,54.16L49.09,63.89L60,83.54L65.45,95.45L81.82,125.97L87.27,134.43L103.64,158.52L109.09,164.87L120,177.86L125.45,182.83L136.36,195.3L141.82,199.7L152.73,210.67L158.18,214.06L169.09,224.72L174.55,226.92L180,230.5L185.45,235.45L190.91,238.45L196.36,242.49L201.82,244.55L207.27,249.58L212.73,251.63L218.18,255.15L223.64,256.68L229.09,259.4L234.55,263.46L240,264.7L245.45,267.2L250.91,268.03L267.27,273.83L272.73,274.9L283.64,278.32L289.09,279.78L294.55,281.59L300,281.52L305.45,283.83L310.91,284.53L316.36,284.97L321.82,286.77L327.27,288.26L332.73,288.21L343.64,290.44L349.09,290L354.55,292.73L360,291.69L365.45,293.51L370.91,292.27L376.36,295.22L381.82,294.01L387.27,296.34L392.73,295.36L398.18,296.45L403.64,295.33L409.09,295.79L414.55,295L420,294.74L425.45,296.9L430.91,296.45L436.36,297.69L441.82,297.64L447.27,299.67L452.73,299.13L458.18,299.83L469.09,296.85L474.55,298.39L480,300.79L485.45,299.52L496.36,299.7L501.82,301.33L512.73,300.15L518.18,300.56L523.64,302.35L529.09,302.56L534.55,301.43L540,301.36" style="vector-effect: non-scaling-stroke; fill: none; stroke: rgb(248, 118, 109); stroke-opacity: 1; stroke-width: 2px; opacity: 1;"/></g><g class="points"/><g class="text"/></g><g class="trace scatter trace454071" style="stroke-miterlimit: 2; opacity: 1;"><g class="fills"/><g class="errorbars"/><g class="lines"><path class="js-line" d="M0,16.02L5.45,21.33L10.91,24.2L21.82,29.85L27.27,33.46L32.73,37.55L38.18,42.96L43.64,49.27L49.09,57.19L60,76.31L65.45,86.65L76.36,105.61L81.82,114.75L92.73,131.87L98.18,139.23L109.09,153.86L114.55,159.83L125.45,172.6L130.91,178.75L163.64,207.96L169.09,212.28L180,220.49L185.45,224.51L190.91,227.22L196.36,232.48L201.82,235.09L207.27,238.57L212.73,239.95L218.18,244L223.64,246.25L229.09,249.39L234.55,253.71L240,255.45L250.91,260.61L256.36,261.96L261.82,263.72L267.27,266.4L272.73,266.34L278.18,269.23L283.64,270.16L289.09,272.54L294.55,273.53L300,275.55L305.45,277.21L310.91,277.86L321.82,280.94L327.27,282.43L332.73,282.47L338.18,283.28L354.55,285.82L360,287.17L370.91,287.92L376.36,289.21L392.73,290.98L398.18,292.89L403.64,291.4L409.09,293.08L420,294.25L425.45,293.47L430.91,295.42L436.36,294.93L441.82,296.29L447.27,295.49L452.73,297.76L458.18,295.64L463.64,296.39L469.09,298.23L474.55,296.6L480,296.61L485.45,299.58L490.91,298.32L496.36,298.5L501.82,300.57L507.27,299.93L512.73,300.85L523.64,300.23L529.09,300.48L540,301.21" style="vector-effect: non-scaling-stroke; fill: none; stroke: rgb(163, 165, 0); stroke-opacity: 1; stroke-width: 2px; opacity: 1;"/></g><g class="points"/><g class="text"/></g><g class="trace scatter traced9787a" style="stroke-miterlimit: 2; opacity: 1;"><g class="fills"/><g class="errorbars"/><g class="lines"><path class="js-line" d="M0,16.38L5.45,21.67L10.91,24.25L27.27,33.12L32.73,37.41L38.18,42.65L43.64,49.12L54.55,65.65L60,75.43L87.27,126.12L92.73,134.88L103.64,149.91L109.09,157.89L114.55,164.19L120,171.9L125.45,177.25L130.91,183.69L152.73,204.87L158.18,209.29L163.64,214.3L169.09,217.72L174.55,221.75L180,227.26L190.91,233.53L196.36,238.94L201.82,242.77L207.27,245.41L218.18,252.36L223.64,254.57L256.36,269.99L261.82,272.04L267.27,272.72L272.73,274.86L278.18,275.91L283.64,278.71L289.09,278.14L294.55,280.34L300,280.97L305.45,283.46L310.91,284.77L316.36,283.76L321.82,286.26L327.27,287.36L332.73,287.9L338.18,289.52L343.64,288.11L349.09,290.05L354.55,290.3L360,291.36L370.91,291.65L376.36,291.41L387.27,293.3L392.73,291.33L409.09,293.94L414.55,293.6L425.45,294.54L430.91,295.33L436.36,297.38L441.82,294.74L447.27,297.71L452.73,296.12L463.64,298.32L469.09,297.13L485.45,297.69L490.91,297.36L512.73,299.98L518.18,299.82L523.64,298.42L529.09,299.86L540,300.77" style="vector-effect: non-scaling-stroke; fill: none; stroke: rgb(0, 191, 125); stroke-opacity: 1; stroke-width: 2px; opacity: 1;"/></g><g class="points"/><g class="text"/></g><g class="trace scatter trace8d96d6" style="stroke-miterlimit: 2; opacity: 1;"><g class="fills"/><g class="errorbars"/><g class="lines"><path class="js-line" d="M0,16.41L5.45,21.68L10.91,24.14L27.27,32.74L32.73,36.72L38.18,41.37L43.64,47.27L49.09,54.02L54.55,62.04L92.73,122.77L98.18,129.65L103.64,137.11L109.09,142.73L120,154.8L125.45,159.66L130.91,165.97L136.36,170.26L147.27,180.13L152.73,184.17L180,203.09L185.45,206.93L201.82,217.44L207.27,219.67L212.73,224.53L218.18,226.98L229.09,233.03L234.55,236.08L240,238.03L245.45,241.61L256.36,247.56L261.82,250.47L267.27,251.93L272.73,254.83L278.18,256.62L283.64,259.53L289.09,261L294.55,263.52L300,264.96L305.45,268.02L310.91,268.57L316.36,270.42L332.73,276.06L338.18,275.4L343.64,277.75L349.09,278.37L354.55,280.83L360,280.36L365.45,282.65L370.91,282.46L376.36,283.55L381.82,283.87L387.27,286.46L392.73,285.31L398.18,285.67L403.64,288.57L409.09,288.65L414.55,289.58L420,289.7L425.45,290.69L436.36,290.5L441.82,291.98L447.27,293.52L452.73,291.84L458.18,293.66L463.64,294.08L469.09,293.21L474.55,295.77L480,295.27L485.45,295.88L490.91,296.36L496.36,295.57L507.27,298.03L512.73,297.13L518.18,298.03L523.64,297.03L529.09,298.46L534.55,299.03L540,300.73" style="vector-effect: non-scaling-stroke; fill: none; stroke: rgb(0, 176, 246); stroke-opacity: 1; stroke-width: 2px; opacity: 1;"/></g><g class="points"/><g class="text"/></g><g class="trace scatter tracec2f958" style="stroke-miterlimit: 2; opacity: 1;"><g class="fills"/><g class="errorbars"/><g class="lines"><path class="js-line" d="M0,16.36L5.45,21.65L10.91,24.34L21.82,29.94L27.27,33.25L32.73,37.46L38.18,42.89L43.64,49.26L49.09,57.31L54.55,65.51L60,75.36L76.36,102.25L81.82,112.5L87.27,119.28L92.73,127.28L98.18,134.84L103.64,140.87L120,159.46L125.45,164.89L130.91,169.05L136.36,174.15L147.27,184.11L152.73,188.29L158.18,194.51L163.64,196.84L180,208.57L185.45,211.9L207.27,223.74L212.73,228.24L218.18,230.41L223.64,234.25L234.55,238.07L240,241L245.45,244.18L250.91,244.51L256.36,247.47L261.82,248.91L267.27,253.34L272.73,253.95L289.09,261.32L294.55,262.36L300,264.3L305.45,265.34L310.91,268.5L316.36,270.45L327.27,272.59L332.73,275.82L338.18,274.81L343.64,277.45L349.09,279.24L354.55,278.61L370.91,282.83L376.36,283.27L381.82,284.14L387.27,285.96L403.64,287.25L409.09,288.71L414.55,289.45L420,289.35L430.91,291.34L436.36,291.2L441.82,294.02L447.27,293.13L452.73,294.76L458.18,291.77L463.64,293.92L469.09,295.2L480,296.24L485.45,294.97L490.91,298.49L496.36,296.84L501.82,297.74L507.27,296.65L512.73,299.89L518.18,299.02L540,299.95" style="vector-effect: non-scaling-stroke; fill: none; stroke: rgb(231, 107, 243); stroke-opacity: 1; stroke-width: 2px; opacity: 1;"/></g><g class="points"/><g class="text"/></g><g class="trace scatter tracea653b8" style="stroke-miterlimit: 2; opacity: 1;"><g class="fills"/><g class="errorbars"/><g class="lines"><path class="js-line" d="M0,16.45L5.45,21.58L10.91,24.09L21.82,29.57L27.27,32.56L32.73,36.33L38.18,41.01L43.64,46.29L49.09,52.83L60,66.31L65.45,75.42L76.36,92.84L81.82,102.16L103.64,133.93L109.09,140.34L130.91,166.23L136.36,171.3L141.82,176.91L147.27,180.86L163.64,195.39L169.09,199.16L174.55,204.85L180,208.82L190.91,216.31L196.36,221.66L201.82,224.29L207.27,228.24L218.18,234.4L223.64,237.22L229.09,240.81L234.55,243.1L240,245.02L245.45,248.65L250.91,249.86L256.36,253.63L261.82,254.91L267.27,257.44L289.09,265.19L294.55,266.39L300,266.88L305.45,268.58L310.91,271.03L316.36,272L321.82,272.11L327.27,273.85L338.18,277.57L343.64,278.33L349.09,276.98L354.55,279.71L360,282.47L365.45,283.12L376.36,284.23L381.82,285.46L387.27,285.7L392.73,287.22L398.18,288.32L403.64,287.68L409.09,288.32L414.55,290.35L425.45,290.37L430.91,292.83L441.82,292.93L447.27,293.92L452.73,293.43L458.18,294.7L469.09,295.06L474.55,295.4L480,295.75L485.45,297.12L490.91,296.68L496.36,297.48L501.82,298.77L507.27,296.8L512.73,297.4L518.18,296.8L523.64,297.76L529.09,299.5L540,298.18" style="vector-effect: non-scaling-stroke; fill: none; stroke: rgb(248, 118, 109); stroke-opacity: 1; stroke-width: 2px; opacity: 1;"/></g><g class="points"/><g class="text"/></g><g class="trace scatter tracebffc96" style="stroke-miterlimit: 2; opacity: 1;"><g class="fills"/><g class="errorbars"/><g class="lines"><path class="js-line" d="M0,16.31L5.45,21.72L10.91,24.29L21.82,29.94L27.27,33.62L32.73,37.4L38.18,42.35L43.64,48.46L49.09,56.14L60,72.95L65.45,82.54L76.36,101.11L81.82,110.53L103.64,140.36L109.09,147.18L114.55,151.91L120,158.76L141.82,180.51L147.27,184.27L152.73,189.17L158.18,192.6L163.64,196.03L169.09,200.46L174.55,205.29L180,208.18L190.91,215.37L196.36,217.73L201.82,220.11L207.27,224.11L212.73,227.04L218.18,231.21L223.64,233.19L229.09,236.76L234.55,240.36L240,242.46L245.45,244.31L250.91,247.31L256.36,249.07L261.82,251.86L267.27,252.37L272.73,254.98L278.18,257.9L283.64,258.96L289.09,260.62L294.55,261.36L300,263.87L305.45,264.65L310.91,267.64L316.36,268.65L321.82,268.94L327.27,271.7L332.73,274.12L338.18,273.37L349.09,277.77L354.55,278L360,278.45L365.45,280.5L370.91,282.08L376.36,282.17L381.82,283.04L387.27,281.9L398.18,284.83L403.64,285.61L409.09,285.86L414.55,288.51L420,287.04L425.45,289.37L430.91,289.92L436.36,288.58L447.27,290.87L452.73,290.87L458.18,291.1L463.64,290.26L469.09,291.63L474.55,291.08L480,290.83L485.45,293.27L490.91,292.53L496.36,293.84L501.82,294.04L507.27,295.21L512.73,292.68L518.18,294.31L534.55,294.47L540,297.49" style="vector-effect: non-scaling-stroke; fill: none; stroke: rgb(163, 165, 0); stroke-opacity: 1; stroke-width: 2px; opacity: 1;"/></g><g class="points"/><g class="text"/></g><g class="trace scatter traceb020df" style="stroke-miterlimit: 2; opacity: 1;"><g class="fills"/><g class="errorbars"/><g class="lines"><path class="js-line" d="M0,16.02L5.45,21.53L10.91,24.15L27.27,32.55L32.73,36.54L38.18,41.29L43.64,47.3L54.55,61.61L60,70.46L87.27,116.44L92.73,124.92L98.18,132.42L103.64,138.55L114.55,153.12L120,157.54L130.91,168.93L136.36,173.47L141.82,179.13L147.27,183.42L158.18,193.14L163.64,195.97L174.55,204.12L180,209.27L185.45,211.43L190.91,216.69L201.82,223.94L207.27,226.83L250.91,250.94L256.36,255.05L267.27,257.93L272.73,260.79L278.18,263.97L283.64,264.76L294.55,269.93L300,271.24L310.91,274.47L316.36,274.68L332.73,280.31L338.18,280.35L343.64,282.83L349.09,283.91L354.55,283.37L360,285.01L365.45,287.07L370.91,287.95L376.36,289.2L381.82,289.41L387.27,289.07L392.73,290.85L398.18,290.83L403.64,291.67L409.09,292.61L414.55,294.35L425.45,296.79L430.91,295.81L452.73,296.54L458.18,298.49L474.55,298.11L480,299.02L485.45,299.12L490.91,297.41L501.82,299.78L507.27,300.44L523.64,300.25L529.09,301.82L534.55,301.56L540,302.23" style="vector-effect: non-scaling-stroke; fill: none; stroke: rgb(0, 191, 125); stroke-opacity: 1; stroke-width: 2px; opacity: 1;"/></g><g class="points"/><g class="text"/></g><g class="trace scatter trace31b65d" style="stroke-miterlimit: 2; opacity: 1;"><g class="fills"/><g class="errorbars"/><g class="lines"><path class="js-line" d="M0,16.34L5.45,21.4L10.91,24.44L21.82,29.98L27.27,33.59L38.18,42.06L43.64,48.41L49.09,54.82L54.55,62.67L76.36,96.49L81.82,104.65L92.73,118.98L98.18,125.87L109.09,139.14L114.55,143.58L125.45,155.93L130.91,161.29L136.36,165.84L141.82,172.74L147.27,175.63L152.73,180.13L158.18,187.07L163.64,189.82L190.91,211.21L196.36,214.63L201.82,216.66L207.27,221.48L212.73,224.97L218.18,227.53L234.55,239.3L240,241.43L245.45,244.2L250.91,248.26L267.27,256.47L272.73,258.94L278.18,262.06L283.64,263.9L289.09,265L294.55,268.82L300,269.29L305.45,271.65L316.36,275.23L321.82,274.75L332.73,278.7L338.18,277.96L343.64,280.72L349.09,280.74L376.36,286.01L381.82,286.14L387.27,285.51L392.73,287.45L398.18,289.84L403.64,287.62L409.09,286.94L414.55,288.83L430.91,291.96L436.36,291.27L441.82,293.49L447.27,292.55L458.18,292.65L463.64,294.95L469.09,293.94L474.55,293.79L485.45,293.96L490.91,296.11L501.82,294.53L507.27,295.96L512.73,297.91L518.18,296.55L523.64,296.49L529.09,295.23L534.55,295.61L540,297.13" style="vector-effect: non-scaling-stroke; fill: none; stroke: rgb(0, 176, 246); stroke-opacity: 1; stroke-width: 2px; opacity: 1;"/></g><g class="points"/><g class="text"/></g><g class="trace scatter tracefcb20e" style="stroke-miterlimit: 2; opacity: 1;"><g class="fills"/><g class="errorbars"/><g class="lines"><path class="js-line" d="M0,16.5L5.45,21.69L10.91,24.31L21.82,29.82L27.27,33.49L32.73,37.8L38.18,43.86L43.64,50.24L49.09,58.44L70.91,96.66L76.36,106.75L87.27,124.09L92.73,132.69L103.64,147.5L109.09,153.13L114.55,159.68L120,164.86L130.91,176.21L136.36,180.2L141.82,184.54L147.27,190.81L163.64,203.04L169.09,205.19L174.55,210.43L180,212.99L185.45,215.75L190.91,220.15L196.36,223.68L201.82,225.82L212.73,233.16L218.18,234.07L223.64,236.47L229.09,239.76L234.55,241.17L240,244.08L245.45,243.79L250.91,246.42L256.36,251.39L261.82,252.1L267.27,254.09L272.73,257.64L283.64,261.14L289.09,261.49L294.55,261.67L300,264.08L305.45,266.15L310.91,267.4L316.36,267.55L321.82,269.08L332.73,273.46L338.18,273.71L343.64,276.35L349.09,276.44L354.55,275.26L360,276.98L365.45,279.7L370.91,279.87L376.36,278.93L381.82,280.6L387.27,280.68L392.73,281.52L403.64,282.6L409.09,281.13L420,285.01L425.45,284.95L430.91,285.92L436.36,286.1L441.82,286.01L447.27,284.87L452.73,285.44L458.18,284.92L463.64,282.5L469.09,288.28L474.55,286.81L480,288.46L490.91,287.18L496.36,284.55L501.82,287.51L507.27,287.16L512.73,286.03L518.18,289.43L523.64,288.62L529.09,291.13L534.55,292.2L540,289.95" style="vector-effect: non-scaling-stroke; fill: none; stroke: rgb(231, 107, 243); stroke-opacity: 1; stroke-width: 2px; opacity: 1;"/></g><g class="points"/><g class="text"/></g><g class="trace scatter tracee68be8" style="stroke-miterlimit: 2; opacity: 1;"><g class="fills"/><g class="errorbars"/><g class="lines"><path class="js-line" d="M0,16.22L5.45,21.7L10.91,24.41L16.36,26.58L21.82,29.61L27.27,32.92L32.73,37.23L38.18,42.32L43.64,49.05L54.55,65.76L60,75.8L81.82,114.24L87.27,122.05L98.18,138.34L103.64,145.36L114.55,158.9L120,164.84L136.36,183.7L141.82,188.27L152.73,198.29L158.18,202.27L163.64,208.51L169.09,211.78L174.55,216.98L180,220.41L185.45,225.07L190.91,231L201.82,238.49L207.27,240.33L218.18,248.97L223.64,251.31L229.09,254.36L234.55,258.55L240,259.83L245.45,263.26L250.91,264.56L256.36,268.38L261.82,268.6L267.27,272.23L283.64,277.5L289.09,279.45L305.45,283.22L310.91,283.49L316.36,286.03L321.82,285.24L327.27,287.51L332.73,288.74L338.18,289.74L343.64,289.39L349.09,289.14L354.55,290.94L360,291.23L365.45,292.48L370.91,294.07L376.36,294.74L381.82,294.44L387.27,295.6L398.18,298.3L403.64,294.85L409.09,296.47L414.55,297.08L436.36,299.73L441.82,299.31L452.73,300.88L458.18,299.59L463.64,301.86L469.09,302.35L474.55,300.73L480,301.07L490.91,302.81L496.36,301.85L507.27,303.77L512.73,302.84L523.64,303.73L529.09,303.59L534.55,303.21L540,304" style="vector-effect: non-scaling-stroke; fill: none; stroke: rgb(248, 118, 109); stroke-opacity: 1; stroke-width: 2px; opacity: 1;"/></g><g class="points"/><g class="text"/></g><g class="trace scatter trace71e167" style="stroke-miterlimit: 2; opacity: 1;"><g class="fills"/><g class="errorbars"/><g class="lines"><path class="js-line" d="M0,16.02L5.45,21.35L10.91,23.98L27.27,32.42L32.73,36.02L43.64,45.26L49.09,51.82L65.45,73.55L70.91,82.28L87.27,105.8L92.73,113.59L120,144.88L125.45,149.5L130.91,155.73L136.36,160.28L147.27,169.84L152.73,174.15L169.09,185.89L174.55,189.27L185.45,197.78L190.91,199.92L201.82,206.5L207.27,210.97L218.18,215.99L223.64,219.25L229.09,221.16L234.55,224.33L240,226.98L245.45,228.17L250.91,233.1L256.36,234.46L278.18,243.87L283.64,245.07L300,249.7L305.45,251.14L327.27,257.94L332.73,260.5L343.64,261.83L349.09,264.17L354.55,264.2L360,267.35L365.45,268.35L370.91,268.48L376.36,269.63L381.82,272.18L398.18,273.57L403.64,275.94L409.09,276.55L414.55,276.05L447.27,281.34L452.73,280.48L458.18,282.33L463.64,283.26L469.09,281.43L474.55,283.09L480,282.72L485.45,285.05L496.36,285.48L501.82,286.97L507.27,285.15L512.73,288.37L518.18,286.54L523.64,287.11L529.09,288.04L534.55,286.62L540,290.65" style="vector-effect: non-scaling-stroke; fill: none; stroke: rgb(163, 165, 0); stroke-opacity: 1; stroke-width: 2px; opacity: 1;"/></g><g class="points"/><g class="text"/></g><g class="trace scatter trace69320f" style="stroke-miterlimit: 2; opacity: 1;"><g class="fills"/><g class="errorbars"/><g class="lines"><path class="js-line" d="M0,16.56L5.45,21.72L10.91,24.13L21.82,29.56L27.27,33.56L32.73,37.64L38.18,43.31L43.64,49.61L49.09,57.35L54.55,65.42L60,74.88L76.36,103.87L81.82,111.58L103.64,145.04L109.09,150.59L120,164.53L125.45,169.42L141.82,187.75L147.27,190.67L152.73,197.1L158.18,201.65L169.09,211.12L174.55,214.68L185.45,224.92L190.91,228.57L196.36,231.13L201.82,235.46L207.27,238.55L212.73,243.31L223.64,249L229.09,252.9L234.55,256.75L240,257.14L245.45,261.47L250.91,263.64L256.36,264.97L261.82,267.46L267.27,270.27L272.73,271.16L278.18,273.94L283.64,275.08L289.09,276.65L294.55,277.43L305.45,282.33L310.91,281.4L316.36,284.39L321.82,284.86L327.27,285.2L332.73,287.48L338.18,287L343.64,289.07L354.55,290.45L360,289.47L365.45,291.14L370.91,291.79L376.36,290.48L381.82,293.45L387.27,294.26L392.73,293.78L398.18,295.67L403.64,295.71L409.09,297.68L414.55,296.8L420,296.29L425.45,297.88L430.91,297.98L436.36,299.66L441.82,298.12L447.27,299.55L452.73,299.65L458.18,301.17L469.09,300.21L474.55,299.4L480,299.18L485.45,302.11L490.91,299.84L496.36,300.17L512.73,302.3L518.18,302.24L523.64,302.92L529.09,302.11L540,300.76" style="vector-effect: non-scaling-stroke; fill: none; stroke: rgb(0, 191, 125); stroke-opacity: 1; stroke-width: 2px; opacity: 1;"/></g><g class="points"/><g class="text"/></g><g class="trace scatter trace99e23f" style="stroke-miterlimit: 2; opacity: 1;"><g class="fills"/><g class="errorbars"/><g class="lines"><path class="js-line" d="M0,16.22L5.45,21.59L10.91,24.45L16.36,26.62L21.82,29.79L32.73,36.74L38.18,41.45L43.64,46.79L49.09,53.96L60,69.74L65.45,78.71L70.91,87.15L76.36,97.04L81.82,105.09L87.27,114.63L92.73,121.96L98.18,130.57L109.09,143.06L114.55,150.88L125.45,162.49L130.91,168.9L136.36,172.24L141.82,177.8L152.73,187.63L158.18,191.27L163.64,196.17L169.09,199.73L174.55,205.05L180,209.12L207.27,227.11L212.73,231.62L223.64,237.06L229.09,240.93L234.55,244.15L240,246.1L250.91,250.63L256.36,251.6L272.73,260.34L278.18,262.16L289.09,266.83L294.55,267.63L305.45,271.49L310.91,271.43L316.36,275.25L321.82,275L327.27,275.94L332.73,277.65L338.18,279.4L343.64,280.2L349.09,282.14L354.55,282.34L360,284.39L365.45,284.07L381.82,287.91L387.27,287.94L392.73,288.7L398.18,288.47L403.64,289.11L409.09,290.93L414.55,291.51L420,290.53L425.45,293.06L430.91,294.02L447.27,294.47L452.73,295.04L458.18,294.56L463.64,295.29L474.55,297.8L480,295.7L485.45,295.75L490.91,298.66L496.36,298.2L501.82,296.68L507.27,298.21L512.73,298.14L523.64,297.8L529.09,295.94L540,298.69" style="vector-effect: non-scaling-stroke; fill: none; stroke: rgb(0, 176, 246); stroke-opacity: 1; stroke-width: 2px; opacity: 1;"/></g><g class="points"/><g class="text"/></g><g class="trace scatter tracef5ebe0" style="stroke-miterlimit: 2; opacity: 1;"><g class="fills"/><g class="errorbars"/><g class="lines"><path class="js-line" d="M0,16.16L5.45,21.53L10.91,24.55L21.82,29.91L27.27,33.23L38.18,41.7L43.64,47.51L54.55,60.84L60,69.08L65.45,76.3L70.91,85.66L81.82,101.4L87.27,109.76L103.64,130.71L109.09,135.69L114.55,141.11L120,148.22L141.82,169L147.27,173.26L158.18,181.17L163.64,185.25L174.55,193.98L180,197.46L196.36,208.3L201.82,211.56L207.27,215.27L212.73,216.46L218.18,220.43L223.64,223.1L234.55,227.82L240,231.01L245.45,234.11L250.91,235.43L256.36,239.21L261.82,239.11L272.73,244.5L278.18,246.21L283.64,249.59L289.09,250.44L294.55,250.65L300,252.87L305.45,253.42L310.91,256.02L316.36,256.92L321.82,258.92L327.27,260.28L332.73,262.97L338.18,262.7L343.64,265.68L349.09,265.18L354.55,266.47L360,268.23L365.45,267.94L370.91,269.21L376.36,268.64L381.82,271.76L387.27,271.53L398.18,275.1L403.64,274.11L409.09,275.46L414.55,274.73L420,276.38L425.45,275.45L430.91,275.86L436.36,278.03L441.82,280.08L447.27,279.99L452.73,281.69L458.18,281.24L469.09,283.42L474.55,283.11L480,283.05L485.45,285.29L490.91,285.07L496.36,285.68L501.82,285.89L507.27,284.26L512.73,286.53L518.18,285.73L529.09,288.56L534.55,288.88L540,288.45" style="vector-effect: non-scaling-stroke; fill: none; stroke: rgb(231, 107, 243); stroke-opacity: 1; stroke-width: 2px; opacity: 1;"/></g><g class="points"/><g class="text"/></g><g class="trace scatter trace148608" style="stroke-miterlimit: 2; opacity: 1;"><g class="fills"/><g class="errorbars"/><g class="lines"><path class="js-line" d="M0,16.44L5.45,21.89L10.91,24.49L21.82,29.89L27.27,33.21L32.73,37.05L38.18,42.03L49.09,54.38L54.55,62.15L81.82,104.2L87.27,111.35L103.64,132.65L109.09,137.65L114.55,144.26L120,149.51L130.91,160.09L136.36,164.98L141.82,168.61L147.27,173.78L152.73,177.73L158.18,183.31L163.64,186.92L169.09,191.93L174.55,195.1L180,200.5L190.91,206.69L196.36,211.66L201.82,215.62L207.27,218.47L218.18,224.08L223.64,228.18L229.09,230.62L234.55,234.54L240,235.99L245.45,239.99L250.91,243.42L256.36,245.15L261.82,247.1L267.27,250.26L272.73,251.62L278.18,255.5L289.09,258.91L294.55,260.95L300,263.48L305.45,265.15L310.91,267.87L316.36,268.1L332.73,275.03L338.18,274.77L349.09,277.39L354.55,278.48L365.45,281.59L370.91,283.08L387.27,284L392.73,286.56L398.18,287.04L403.64,288.38L409.09,288.56L414.55,290.8L420,290.22L425.45,291.29L430.91,291.32L436.36,290.49L441.82,292.61L447.27,293.41L452.73,293.34L458.18,294.5L463.64,294.96L469.09,296.27L480,293.66L485.45,297.55L490.91,298.21L496.36,297.89L518.18,298.59L523.64,300.1L534.55,298.95L540,299.14" style="vector-effect: non-scaling-stroke; fill: none; stroke: rgb(248, 118, 109); stroke-opacity: 1; stroke-width: 2px; opacity: 1;"/></g><g class="points"/><g class="text"/></g><g class="trace scatter tracedf920b" style="stroke-miterlimit: 2; opacity: 1;"><g class="fills"/><g class="errorbars"/><g class="lines"><path class="js-line" d="M0,16.23L5.45,21.62L10.91,24.46L21.82,29.88L27.27,33.28L38.18,42.49L43.64,48.88L49.09,55.92L54.55,64.25L65.45,82.88L70.91,92.97L81.82,111.6L87.27,118.43L92.73,128.38L98.18,134.58L109.09,149.45L114.55,155.51L120,162.6L125.45,167.92L152.73,196.82L158.18,201.46L174.55,215.39L180,220.45L190.91,228.76L196.36,231.88L201.82,236.91L207.27,240.71L218.18,247.18L223.64,249.55L240,259.24L245.45,260.59L250.91,263.36L256.36,267.2L261.82,268.87L267.27,272.19L278.18,274.18L283.64,275.82L289.09,278.52L294.55,279.18L316.36,284.53L321.82,284.29L332.73,285.87L338.18,287.76L343.64,287.35L349.09,289.97L354.55,288.95L360,291.11L365.45,289.89L370.91,291.3L381.82,292.02L387.27,293.39L392.73,293.66L398.18,294.71L409.09,293.64L414.55,295.54L420,296.75L425.45,295.79L430.91,297.29L436.36,296.12L447.27,296.44L452.73,297.82L458.18,297.42L463.64,298.75L474.55,298.71L480,301.48L485.45,298.69L490.91,299.05L501.82,300.83L507.27,298.39L512.73,298.5L518.18,299.98L529.09,299.03L534.55,300.65L540,301.47" style="vector-effect: non-scaling-stroke; fill: none; stroke: rgb(163, 165, 0); stroke-opacity: 1; stroke-width: 2px; opacity: 1;"/></g><g class="points"/><g class="text"/></g><g class="trace scatter traceac1d87" style="stroke-miterlimit: 2; opacity: 1;"><g class="fills"/><g class="errorbars"/><g class="lines"><path class="js-line" d="M0,16.59L5.45,21.59L10.91,24.38L21.82,29.72L27.27,32.8L38.18,41.79L43.64,47.84L60,72.13L65.45,82.55L92.73,127.37L98.18,134.88L103.64,143.37L109.09,150.34L114.55,157.48L120,162.89L125.45,170.1L130.91,175.75L136.36,180.98L141.82,187.28L152.73,197.99L158.18,201.44L163.64,205.88L169.09,211.34L185.45,224.09L190.91,229.25L196.36,232.2L201.82,236.59L212.73,244.88L218.18,245.83L223.64,250.02L229.09,253.18L234.55,256.98L240,259.02L245.45,262.28L250.91,264.32L256.36,266.27L261.82,270.65L267.27,271.6L272.73,273.57L278.18,275.06L283.64,275.41L289.09,279.93L294.55,279.01L300,281.39L305.45,280.98L310.91,283.65L316.36,284.89L338.18,287.67L343.64,289.58L349.09,291.33L354.55,290.66L365.45,292.79L370.91,291.96L376.36,293.33L381.82,293.5L387.27,294.8L392.73,294.98L409.09,296.22L414.55,295.47L430.91,294.81L436.36,295.39L452.73,296.9L458.18,297.31L463.64,297.88L469.09,296.06L474.55,299.66L480,298.97L490.91,297.95L496.36,298.01L501.82,300.16L507.27,299.46L518.18,299.52L523.64,298.02L540,300.97" style="vector-effect: non-scaling-stroke; fill: none; stroke: rgb(0, 191, 125); stroke-opacity: 1; stroke-width: 2px; opacity: 1;"/></g><g class="points"/><g class="text"/></g><g class="trace scatter tracebefe2a" style="stroke-miterlimit: 2; opacity: 1;"><g class="fills"/><g class="errorbars"/><g class="lines"><path class="js-line" d="M0,16.16L5.45,21.25L10.91,24.2L16.36,26.55L21.82,29.82L27.27,33.04L32.73,37.25L43.64,48.07L49.09,54.87L87.27,114.48L92.73,123.91L114.55,151.99L120,157.21L125.45,163.56L130.91,168.75L136.36,175.53L141.82,178.74L147.27,184.91L152.73,189.87L158.18,195.33L163.64,199.19L185.45,216.11L190.91,218.71L196.36,225.32L201.82,227.41L207.27,231.36L212.73,233.69L218.18,236.25L223.64,240.28L234.55,246.64L240,248.73L250.91,254.84L256.36,254.48L261.82,258.5L267.27,259.62L272.73,260.85L278.18,263.46L283.64,266.35L289.09,267.67L294.55,269.15L300,271.57L305.45,271.72L310.91,274.24L316.36,276.34L321.82,276.6L327.27,277L332.73,278.87L338.18,278.26L343.64,279.4L354.55,283.04L360,283.61L365.45,286.02L370.91,284.45L376.36,285.3L381.82,284.86L387.27,285.16L392.73,290.19L398.18,288.48L403.64,288.5L414.55,290.27L420,292.34L425.45,290.92L430.91,292.59L436.36,293.07L441.82,294.37L447.27,292.97L452.73,293.94L458.18,294.64L463.64,294.4L469.09,294.23L474.55,295.27L480,294.37L485.45,295.32L490.91,295.53L496.36,294.79L501.82,294.7L507.27,297.89L512.73,294.74L518.18,294.44L529.09,297.07L534.55,297.22L540,296.39" style="vector-effect: non-scaling-stroke; fill: none; stroke: rgb(0, 176, 246); stroke-opacity: 1; stroke-width: 2px; opacity: 1;"/></g><g class="points"/><g class="text"/></g><g class="trace scatter trace65b81a" style="stroke-miterlimit: 2; opacity: 1;"><g class="fills"/><g class="errorbars"/><g class="lines"><path class="js-line" d="M0,16.47L5.45,21.5L10.91,24.05L21.82,29.14L27.27,32.39L38.18,41.23L43.64,47.03L54.55,61.07L60,69.62L65.45,77.65L70.91,87.25L76.36,95.02L81.82,104.47L87.27,113.45L92.73,120.1L103.64,134.86L109.09,141.73L130.91,168.31L136.36,172.79L147.27,183.6L152.73,187.86L163.64,196.69L169.09,202.79L180,210.47L185.45,214.09L190.91,219.33L196.36,222.03L207.27,229.87L212.73,232.88L223.64,240.86L229.09,244.3L245.45,251.07L250.91,254.45L256.36,256.31L261.82,259.16L283.64,266.4L289.09,269.08L305.45,273.84L310.91,276.35L327.27,277.15L332.73,278.49L338.18,280.87L343.64,281.74L354.55,284.06L360,284.11L370.91,288.03L376.36,288.58L381.82,288.13L387.27,288.5L398.18,289.97L403.64,290.73L414.55,293.68L420,291.91L425.45,292.86L430.91,294.65L441.82,295.28L447.27,294.79L458.18,296.61L463.64,296.32L469.09,295.27L474.55,295.65L480,296.07L485.45,295.37L490.91,296.96L496.36,297.2L507.27,297.04L512.73,298.27L529.09,296.78L534.55,299.78L540,298.92" style="vector-effect: non-scaling-stroke; fill: none; stroke: rgb(231, 107, 243); stroke-opacity: 1; stroke-width: 2px; opacity: 1;"/></g><g class="points"/><g class="text"/></g><g class="trace scatter trace5038a1" style="stroke-miterlimit: 2; opacity: 1;"><g class="fills"/><g class="errorbars"/><g class="lines"><path class="js-line" d="M0,16.27L5.45,21.35L10.91,24.24L21.82,29.74L27.27,32.95L32.73,36.82L38.18,41.71L43.64,47.5L49.09,54.7L60,71.19L65.45,79.62L70.91,88.36L76.36,98.66L87.27,114.43L92.73,121.82L103.64,134.71L109.09,140.47L114.55,148.05L120,153.04L136.36,167.53L141.82,172.02L152.73,180.54L158.18,185.98L163.64,188.51L169.09,192.84L180,198.97L185.45,203.29L190.91,205.75L196.36,209.29L201.82,212.98L207.27,214.74L212.73,219.27L218.18,221.25L223.64,224.14L229.09,226.05L234.55,228.53L240,233.02L245.45,234.52L250.91,237.17L256.36,240.1L261.82,240.76L267.27,244.94L272.73,246.19L278.18,248.56L283.64,251.8L289.09,251.69L294.55,252.57L300,256.2L305.45,258.27L310.91,259.93L316.36,262.76L332.73,266.88L338.18,269.22L354.55,271.89L360,273.93L365.45,276.18L370.91,274.45L376.36,276.83L381.82,277.74L392.73,279.18L398.18,279.54L403.64,280.4L409.09,282.21L414.55,282.77L420,282.15L425.45,283.6L430.91,285.97L436.36,284.79L441.82,286.13L447.27,286.05L452.73,288.34L458.18,288.92L463.64,290.63L469.09,289.08L474.55,291.17L480,291.65L485.45,290.69L490.91,292.31L496.36,292.63L507.27,293.5L512.73,292.47L518.18,296.89L523.64,295.32L534.55,297.82L540,297.47" style="vector-effect: non-scaling-stroke; fill: none; stroke: rgb(248, 118, 109); stroke-opacity: 1; stroke-width: 2px; opacity: 1;"/></g><g class="points"/><g class="text"/></g><g class="trace scatter trace7733e3" style="stroke-miterlimit: 2; opacity: 1;"><g class="fills"/><g class="errorbars"/><g class="lines"><path class="js-line" d="M0,16.23L5.45,21.43L10.91,24.05L27.27,32.61L32.73,36.36L43.64,46.39L49.09,53.08L65.45,78L70.91,86.84L87.27,111.33L92.73,118.34L109.09,138.03L114.55,142.96L125.45,153.91L130.91,158.1L136.36,164.04L141.82,168.55L152.73,178.47L158.18,182.19L169.09,191.85L174.55,195.73L190.91,208.48L196.36,211.18L212.73,222.37L218.18,224.56L234.55,233.26L240,235.63L245.45,237.38L250.91,239.98L256.36,243.35L261.82,245.51L267.27,245.45L272.73,249.01L278.18,250.15L283.64,252.95L289.09,254.04L294.55,256.07L300,257.56L305.45,260.08L310.91,260.25L316.36,262.03L327.27,266.56L332.73,265.77L343.64,266.66L349.09,268.7L354.55,270.28L360,270.46L376.36,275.53L381.82,273.39L387.27,274.01L392.73,276.49L403.64,279.43L409.09,277.79L414.55,279.26L420,276.63L425.45,281.8L430.91,281.04L436.36,282.3L441.82,282.12L458.18,283.78L463.64,284.11L469.09,286.57L474.55,285.21L480,285.01L485.45,287.45L490.91,286.37L496.36,288.15L501.82,287.95L507.27,286.54L512.73,289.59L518.18,289.59L523.64,290.94L529.09,288.09L534.55,291.29L540,289.7" style="vector-effect: non-scaling-stroke; fill: none; stroke: rgb(163, 165, 0); stroke-opacity: 1; stroke-width: 2px; opacity: 1;"/></g><g class="points"/><g class="text"/></g><g class="trace scatter trace5fbe5e" style="stroke-miterlimit: 2; opacity: 1;"><g class="fills"/><g class="errorbars"/><g class="lines"><path class="js-line" d="M0,16.36L5.45,21.77L10.91,24.28L27.27,32.29L32.73,35.91L43.64,46.22L49.09,53.05L54.55,60.29L60,68.82L76.36,96.38L81.82,105.72L87.27,115.26L92.73,122.42L98.18,131.53L103.64,138.88L114.55,152.93L120,159.54L130.91,172.06L136.36,178.27L158.18,199.65L163.64,203.69L169.09,208.88L174.55,212.93L185.45,220.87L190.91,225.48L207.27,235.86L212.73,239.99L245.45,258.05L250.91,260.14L256.36,261.18L261.82,264.25L267.27,267.76L272.73,267.98L283.64,273.32L289.09,273.89L294.55,276.6L300,277.39L310.91,279.47L316.36,281.43L327.27,284.81L332.73,285.74L338.18,285.98L343.64,289.5L354.55,290.48L360,290.2L370.91,292.24L376.36,292.49L381.82,293.8L387.27,293.76L392.73,295.37L398.18,295.49L403.64,294.36L409.09,295.61L414.55,295.78L420,298.72L425.45,296.39L430.91,297.62L436.36,298.44L441.82,298.04L447.27,298.77L452.73,298.7L458.18,296.72L463.64,299.27L474.55,298.14L480,298.16L490.91,299.82L496.36,298.99L501.82,299.54L507.27,301.23L512.73,300.06L518.18,300.18L523.64,302.46L529.09,302.21L534.55,300.49L540,299.76" style="vector-effect: non-scaling-stroke; fill: none; stroke: rgb(0, 191, 125); stroke-opacity: 1; stroke-width: 2px; opacity: 1;"/></g><g class="points"/><g class="text"/></g><g class="trace scatter trace127e80" style="stroke-miterlimit: 2; opacity: 1;"><g class="fills"/><g class="errorbars"/><g class="lines"><path class="js-line" d="M0,16.38L5.45,21.77L10.91,24.31L21.82,29.34L27.27,32.89L32.73,36.31L38.18,41.38L43.64,46.55L49.09,53.26L54.55,60.21L60,68.91L65.45,76.49L70.91,85.46L98.18,127.49L103.64,134.72L114.55,149.46L120,154.03L125.45,161.41L130.91,166.13L158.18,190.87L163.64,194.5L169.09,199.95L174.55,203.77L185.45,211.38L190.91,217.39L229.09,239.87L234.55,243.21L240,247.28L245.45,249.55L250.91,252.44L256.36,253.12L261.82,257.88L267.27,259.41L278.18,263.63L283.64,266.05L289.09,269.18L294.55,270.95L300,274.32L305.45,275.79L310.91,276.08L316.36,279.26L332.73,283.03L338.18,284.84L343.64,283.97L349.09,285.36L354.55,286.85L360,287.16L370.91,289.68L376.36,290.51L381.82,290.1L387.27,291.76L392.73,292.8L398.18,290.84L409.09,293.34L414.55,294.01L420,293.34L425.45,295.38L436.36,296.22L441.82,295.15L447.27,296.56L452.73,296.98L458.18,295.66L463.64,298.76L474.55,297.64L480,297.74L490.91,298.19L496.36,297.04L501.82,299.79L507.27,298.1L512.73,299.22L518.18,298.93L529.09,299.7L534.55,299.72L540,300.46" style="vector-effect: non-scaling-stroke; fill: none; stroke: rgb(0, 176, 246); stroke-opacity: 1; stroke-width: 2px; opacity: 1;"/></g><g class="points"/><g class="text"/></g><g class="trace scatter tracea81fe0" style="stroke-miterlimit: 2; opacity: 1;"><g class="fills"/><g class="errorbars"/><g class="lines"><path class="js-line" d="M0,16.44L5.45,21.77L10.91,24.29L27.27,32.67L32.73,36.32L38.18,41.06L43.64,47.06L49.09,53.36L54.55,61.18L92.73,119.38L98.18,125.51L103.64,131.51L109.09,139.04L130.91,164.52L136.36,169.64L141.82,176.19L147.27,180.86L158.18,191.15L163.64,195.33L174.55,206.61L180,211.48L185.45,216.64L190.91,219.57L196.36,224.46L201.82,228.19L212.73,236.09L218.18,238.59L223.64,244.17L229.09,247.76L240,252.91L245.45,256.62L256.36,261.86L261.82,264.56L278.18,272.36L283.64,273.46L294.55,276.5L300,278.65L310.91,282.58L316.36,282.63L321.82,284.69L327.27,285.39L332.73,286.97L338.18,287.18L343.64,287.8L349.09,289.46L360,290.18L365.45,291.7L370.91,291.28L376.36,292.15L381.82,293.96L387.27,293.27L392.73,293.56L398.18,295.37L403.64,294.03L409.09,296.81L414.55,295.7L420,296.85L425.45,297.08L430.91,298.1L436.36,296.29L441.82,298.98L463.64,298.85L469.09,299.33L474.55,298.72L480,300.55L496.36,299.51L501.82,299.7L512.73,300.8L518.18,301.93L529.09,302.72L534.55,301.04L540,301.31" style="vector-effect: non-scaling-stroke; fill: none; stroke: rgb(231, 107, 243); stroke-opacity: 1; stroke-width: 2px; opacity: 1;"/></g><g class="points"/><g class="text"/></g><g class="trace scatter traceaf85a3" style="stroke-miterlimit: 2; opacity: 1;"><g class="fills"/><g class="errorbars"/><g class="lines"><path class="js-line" d="M0,16.4L5.45,21.53L10.91,24.31L27.27,33.35L32.73,37.64L38.18,42.71L43.64,48.84L54.55,64.7L60,74.22L87.27,121.31L92.73,128.6L114.55,158.92L120,164.22L136.36,181.4L141.82,185.88L147.27,191.57L152.73,194.88L174.55,213.43L180,216.97L185.45,220.16L190.91,224.77L196.36,227.66L201.82,231.51L207.27,233.81L212.73,237.02L229.09,245.84L234.55,247.83L240,251.43L245.45,253.95L261.82,260.68L267.27,263.15L272.73,265.51L278.18,265.86L283.64,268.03L289.09,271.53L294.55,271.2L300,272.97L305.45,276.27L310.91,276.36L316.36,280.24L321.82,279.8L327.27,279.65L332.73,281.39L338.18,284.38L343.64,285.68L349.09,287.81L354.55,286.94L360,287.39L365.45,287.07L370.91,289.21L376.36,290.04L387.27,290.38L392.73,292.22L398.18,291.92L403.64,293.94L409.09,292.97L414.55,293.42L425.45,295.75L430.91,294.45L441.82,296.05L447.27,295.95L452.73,297.21L458.18,297.52L463.64,298.52L469.09,296.43L474.55,297.64L480,297.44L490.91,299.69L496.36,299.5L501.82,298.75L507.27,299.87L512.73,299.62L518.18,300.74L523.64,301.24L529.09,300.97L534.55,302.94L540,301.49" style="vector-effect: non-scaling-stroke; fill: none; stroke: rgb(248, 118, 109); stroke-opacity: 1; stroke-width: 2px; opacity: 1;"/></g><g class="points"/><g class="text"/></g><g class="trace scatter trace85f16f" style="stroke-miterlimit: 2; opacity: 1;"><g class="fills"/><g class="errorbars"/><g class="lines"><path class="js-line" d="M0,16.37L5.45,21.55L10.91,24.3L21.82,29.73L27.27,33.1L32.73,36.93L38.18,41.93L49.09,55.4L54.55,63.4L87.27,114.63L92.73,122.98L114.55,150.45L120,156.46L125.45,163.39L130.91,168.12L141.82,179.18L147.27,183.45L152.73,189.62L158.18,193.43L163.64,199.03L169.09,203.33L180,210.5L185.45,215.66L190.91,218.56L196.36,222.47L207.27,231.93L212.73,233.62L218.18,237.74L223.64,240.86L234.55,246.68L240,250.73L250.91,255.12L256.36,258.62L283.64,269.13L289.09,269.91L294.55,272.95L300,275.09L305.45,275.5L310.91,278.59L316.36,278.75L321.82,281.29L327.27,280.96L332.73,282.59L338.18,284.73L343.64,284.36L354.55,285.69L360,287.24L365.45,287.69L370.91,289.1L376.36,290.66L381.82,290.01L387.27,291.67L392.73,292.1L398.18,291.86L403.64,292.63L409.09,295.17L414.55,295.56L420,294.29L425.45,296.38L436.36,295.35L441.82,296.41L447.27,297.4L452.73,297.14L463.64,298.46L469.09,299.55L485.45,300.02L490.91,301.09L496.36,300.44L501.82,300.61L512.73,299.56L518.18,301.07L529.09,302.39L534.55,302.31L540,301.69" style="vector-effect: non-scaling-stroke; fill: none; stroke: rgb(163, 165, 0); stroke-opacity: 1; stroke-width: 2px; opacity: 1;"/></g><g class="points"/><g class="text"/></g><g class="trace scatter trace8196a8" style="stroke-miterlimit: 2; opacity: 1;"><g class="fills"/><g class="errorbars"/><g class="lines"><path class="js-line" d="M0,16.19L5.45,21.43L10.91,24.16L21.82,29.62L27.27,33.23L32.73,37.25L38.18,43.14L49.09,58.67L54.55,67.87L76.36,110.01L81.82,120.35L87.27,129.66L92.73,136.89L98.18,146.52L103.64,153.56L120,174.66L125.45,180.87L136.36,193.36L141.82,197.87L147.27,203.98L152.73,208.8L163.64,218.46L169.09,221.93L180,231.8L185.45,235.14L190.91,238.18L196.36,242.94L207.27,248.43L212.73,252.49L218.18,256.29L223.64,259.17L240,267.21L245.45,271.17L261.82,275.63L267.27,277.78L278.18,280.56L283.64,280.54L289.09,282.99L294.55,283.54L305.45,286.59L310.91,287.64L316.36,287.52L321.82,289.82L327.27,289.9L332.73,291.03L338.18,290.61L343.64,292.86L354.55,293.65L360,294.15L365.45,295.28L370.91,295.46L376.36,294.34L381.82,295.65L387.27,296.16L392.73,297.53L398.18,298.03L403.64,297.05L414.55,297.59L420,297.05L425.45,297.38L430.91,299.23L436.36,296.87L441.82,298.52L447.27,300.51L452.73,299.33L458.18,301.36L463.64,301.43L469.09,299.54L474.55,299.98L485.45,300.9L490.91,300.08L496.36,302.36L501.82,301.29L507.27,303.44L512.73,300.7L523.64,300.47L529.09,301.73L534.55,303.08L540,302.82" style="vector-effect: non-scaling-stroke; fill: none; stroke: rgb(0, 191, 125); stroke-opacity: 1; stroke-width: 2px; opacity: 1;"/></g><g class="points"/><g class="text"/></g><g class="trace scatter trace23fd96" style="stroke-miterlimit: 2; opacity: 1;"><g class="fills"/><g class="errorbars"/><g class="lines"><path class="js-line" d="M0,16.44L5.45,21.64L10.91,24.33L21.82,29.21L27.27,32.34L38.18,41.05L43.64,46.72L54.55,60.98L60,69.37L81.82,102.11L87.27,110.89L98.18,124.92L103.64,132.75L109.09,138.9L114.55,146.33L130.91,166.88L136.36,171.89L141.82,178.64L147.27,182.72L163.64,199.5L169.09,203.31L174.55,206.27L180,212.32L185.45,215.16L190.91,220.3L196.36,225.25L201.82,228.76L207.27,231.13L212.73,234.94L223.64,240.95L229.09,244.7L234.55,249.05L240,251L256.36,257.2L261.82,260.21L267.27,262.84L272.73,264.05L278.18,264.48L283.64,267.57L289.09,270.12L294.55,271.59L310.91,277.75L316.36,277.11L321.82,278.37L327.27,278.26L332.73,281.04L338.18,282.47L365.45,286.08L370.91,287.29L376.36,287.26L381.82,288.25L387.27,290.04L392.73,289.4L398.18,291.65L403.64,291.06L409.09,293.34L414.55,294.08L425.45,294.06L430.91,293.53L436.36,295.11L441.82,295.63L458.18,295.68L463.64,296.49L469.09,297.58L474.55,297.63L480,298.85L485.45,298.91L501.82,298.82L507.27,298.77L512.73,300.62L518.18,298.16L523.64,299.46L529.09,299.01L540,299.49" style="vector-effect: non-scaling-stroke; fill: none; stroke: rgb(0, 176, 246); stroke-opacity: 1; stroke-width: 2px; opacity: 1;"/></g><g class="points"/><g class="text"/></g><g class="trace scatter trace9c73dd" style="stroke-miterlimit: 2; opacity: 1;"><g class="fills"/><g class="errorbars"/><g class="lines"><path class="js-line" d="M0,16.65L5.45,21.48L10.91,24.15L27.27,32.67L32.73,36.39L43.64,47.62L49.09,54.12L54.55,61.03L60,69.81L81.82,103.75L87.27,112.13L103.64,134.39L109.09,140.79L120,153.73L125.45,158.53L158.18,187.64L163.64,191.81L174.55,200.5L180,203.08L185.45,207.88L190.91,210.09L207.27,221.74L212.73,224.33L229.09,233.48L234.55,235.51L240,237.73L245.45,241.19L250.91,244.3L256.36,246.51L261.82,249.93L267.27,251.86L278.18,255.07L283.64,258.63L289.09,259.11L294.55,261.45L300,263.65L305.45,263.84L310.91,266.73L316.36,268.3L327.27,270.49L332.73,273.01L338.18,272.65L343.64,273.51L349.09,276.23L354.55,275.74L360,276.86L365.45,279.4L370.91,278.91L376.36,280.7L381.82,281.6L387.27,281.02L392.73,284.35L398.18,283.72L403.64,285.02L409.09,284.43L414.55,286.92L420,287.17L425.45,288.19L430.91,288.43L436.36,286.21L441.82,288.39L447.27,290.11L452.73,289.3L474.55,290.14L480,290.87L485.45,290.36L490.91,293.36L496.36,292.34L501.82,293.06L507.27,295.35L512.73,294.61L518.18,296L523.64,294.85L529.09,296.32L534.55,296.97L540,296.59" style="vector-effect: non-scaling-stroke; fill: none; stroke: rgb(231, 107, 243); stroke-opacity: 1; stroke-width: 2px; opacity: 1;"/></g><g class="points"/><g class="text"/></g><g class="trace scatter trace75409f" style="stroke-miterlimit: 2; opacity: 1;"><g class="fills"/><g class="errorbars"/><g class="lines"><path class="js-line" d="M0,16.45L5.45,21.55L10.91,24.28L21.82,29.36L27.27,32.99L32.73,36.84L38.18,42.85L49.09,56.76L54.55,65.25L76.36,102.6L81.82,110.9L92.73,127.75L98.18,134.44L109.09,149.26L114.55,155.52L125.45,169.11L130.91,174.26L147.27,190.93L152.73,196.81L163.64,206.8L169.09,211.89L180,219.63L185.45,224.41L190.91,227.31L196.36,231.81L207.27,239.31L212.73,244L218.18,245.51L223.64,247.91L229.09,252.07L234.55,253.88L245.45,259.23L250.91,260.77L256.36,263.66L261.82,265.49L272.73,270.93L278.18,272L283.64,274.12L289.09,274.5L294.55,276.18L300,277L316.36,280.24L321.82,280.58L332.73,283.74L338.18,283.97L343.64,284.11L349.09,285.64L354.55,287.85L360,286.83L370.91,286.52L376.36,289.33L381.82,288.61L387.27,289.04L392.73,288.5L398.18,290.85L403.64,291.39L409.09,290.41L414.55,289.44L420,291.03L430.91,291.81L436.36,289.76L452.73,294.66L458.18,293.24L463.64,295.51L469.09,295.88L474.55,295.34L480,296.12L485.45,296.22L490.91,297.43L496.36,295.68L501.82,297.41L507.27,293.26L512.73,297.56L518.18,296.92L523.64,299.53L529.09,297.77L534.55,297.38L540,297.96" style="vector-effect: non-scaling-stroke; fill: none; stroke: rgb(248, 118, 109); stroke-opacity: 1; stroke-width: 2px; opacity: 1;"/></g><g class="points"/><g class="text"/></g><g class="trace scatter trace13ea8a" style="stroke-miterlimit: 2; opacity: 1;"><g class="fills"/><g class="errorbars"/><g class="lines"><path class="js-line" d="M0,16L5.45,21.64L10.91,24.03L27.27,32.72L32.73,36.67L38.18,41.42L43.64,47.38L54.55,61.27L60,70.04L76.36,97.05L81.82,108.12L92.73,125.2L98.18,132.83L109.09,148.06L114.55,155.12L125.45,167.7L130.91,172.21L147.27,188.97L152.73,193.73L169.09,207.1L174.55,209.9L180,215.04L185.45,218.34L196.36,223.98L201.82,228.02L218.18,237.98L223.64,241.36L234.55,246.91L240,247.88L250.91,253.78L256.36,255.81L272.73,260.75L278.18,261.96L289.09,265.87L294.55,267.05L310.91,271.75L316.36,274.53L321.82,274.32L327.27,276.91L332.73,278.54L338.18,278.34L354.55,282.57L360,281.99L365.45,282.3L370.91,285.06L376.36,285.14L381.82,286.63L387.27,287.5L392.73,286.12L398.18,289.97L403.64,286.54L409.09,289.09L414.55,289.42L420,289.95L425.45,291.76L430.91,288.82L436.36,291.85L441.82,293.09L447.27,289.96L452.73,293.56L458.18,292.44L463.64,293.82L469.09,293.22L474.55,294.31L480,293.69L490.91,294.75L496.36,298.27L501.82,296.44L507.27,296.94L518.18,298.43L523.64,296.84L540,298.16" style="vector-effect: non-scaling-stroke; fill: none; stroke: rgb(163, 165, 0); stroke-opacity: 1; stroke-width: 2px; opacity: 1;"/></g><g class="points"/><g class="text"/></g><g class="trace scatter tracef029d5" style="stroke-miterlimit: 2; opacity: 1;"><g class="fills"/><g class="errorbars"/><g class="lines"><path class="js-line" d="M0,16.14L5.45,21.35L10.91,24.1L27.27,32.22L32.73,36.56L38.18,40.93L43.64,46.79L49.09,53.22L54.55,61.84L60,69.48L65.45,78.47L70.91,86.65L76.36,96.51L87.27,111.65L92.73,119.85L109.09,141.24L114.55,144.9L120,151.77L125.45,157.37L152.73,183.06L158.18,186.67L180,202.13L185.45,204.92L190.91,207.66L196.36,213.25L240,237.86L245.45,238.98L250.91,242.64L256.36,243.95L261.82,247.44L267.27,249.32L278.18,252.56L283.64,256.41L289.09,256.82L294.55,259.8L300,262.55L305.45,263.46L310.91,264.25L316.36,267.53L327.27,269.42L332.73,270.69L338.18,273.37L343.64,272.65L349.09,273.48L354.55,276.07L360,276.39L365.45,277.51L376.36,280.79L381.82,281.73L387.27,281.34L392.73,282.9L409.09,286.67L414.55,285.83L425.45,288.3L430.91,287.92L447.27,291.19L452.73,292.69L458.18,291.69L463.64,292.43L474.55,291.94L480,292.83L490.91,294.75L496.36,295.57L501.82,294.85L507.27,295.43L512.73,295.04L518.18,296.79L534.55,296.17L540,297.52" style="vector-effect: non-scaling-stroke; fill: none; stroke: rgb(0, 191, 125); stroke-opacity: 1; stroke-width: 2px; opacity: 1;"/></g><g class="points"/><g class="text"/></g><g class="trace scatter trace6b11ae" style="stroke-miterlimit: 2; opacity: 1;"><g class="fills"/><g class="errorbars"/><g class="lines"><path class="js-line" d="M0,16.37L5.45,21.56L10.91,24.34L21.82,30.12L27.27,33.62L32.73,37.81L38.18,43.86L49.09,58.87L54.55,67.57L76.36,105.22L81.82,113.53L103.64,144.72L109.09,150.82L125.45,169.19L130.91,173.69L136.36,179.75L141.82,183.92L152.73,194.69L158.18,197.66L163.64,203.68L169.09,207.75L174.55,213.23L180,215.71L185.45,217.96L190.91,222.45L196.36,227.02L201.82,230L207.27,234.29L212.73,235.75L218.18,240.57L223.64,242.37L234.55,247.9L240,249.47L245.45,253.72L250.91,255.18L256.36,255.73L261.82,260.38L272.73,263.51L278.18,265.52L283.64,267.44L289.09,267.3L300,272.26L305.45,274.01L310.91,273.38L316.36,274.53L321.82,276.96L327.27,277.33L338.18,280.71L343.64,279.34L360,282.42L365.45,284.34L370.91,283.46L376.36,287.01L381.82,285L387.27,286.99L392.73,289.09L398.18,287.44L414.55,291.5L420,291.04L425.45,292.61L430.91,293.05L441.82,293.26L447.27,294.91L458.18,294.91L463.64,296.47L480,297.83L485.45,297.42L490.91,297.82L496.36,296.9L501.82,299.15L507.27,300.27L512.73,299.74L518.18,298.15L523.64,299.89L529.09,298.91L534.55,300.44L540,299.82" style="vector-effect: non-scaling-stroke; fill: none; stroke: rgb(0, 176, 246); stroke-opacity: 1; stroke-width: 2px; opacity: 1;"/></g><g class="points"/><g class="text"/></g><g class="trace scatter trace14bce7" style="stroke-miterlimit: 2; opacity: 1;"><g class="fills"/><g class="errorbars"/><g class="lines"><path class="js-line" d="M0,16.13L5.45,21.56L10.91,24.32L21.82,30.19L27.27,33.81L32.73,37.64L38.18,43.5L49.09,56.84L54.55,65.11L81.82,107.48L87.27,114.6L103.64,134.23L109.09,139.75L114.55,145.42L120,152.3L136.36,165.58L141.82,171.1L147.27,176.31L152.73,179.29L158.18,184.13L163.64,187.53L169.09,192.13L174.55,195.56L180,201.23L185.45,203.26L212.73,223.3L218.18,225.56L223.64,229L229.09,230.79L234.55,233.35L240,238.32L245.45,240.06L250.91,243.36L256.36,245.15L261.82,248.18L267.27,249.59L272.73,253.78L289.09,261.02L294.55,262.27L305.45,264.96L310.91,268.2L332.73,274.31L338.18,274.93L343.64,277.48L349.09,277.32L370.91,283.67L376.36,284.53L392.73,285.09L398.18,286.47L403.64,288.15L409.09,286.72L414.55,290.06L420,291.13L425.45,289.6L430.91,292.72L441.82,292.42L447.27,293.66L452.73,293.1L458.18,293.47L469.09,295.61L474.55,295.25L485.45,296.62L490.91,297.41L496.36,298.16L501.82,295.63L507.27,297.17L512.73,297.89L518.18,297.13L523.64,298.79L534.55,300.15L540,298.46" style="vector-effect: non-scaling-stroke; fill: none; stroke: rgb(231, 107, 243); stroke-opacity: 1; stroke-width: 2px; opacity: 1;"/></g><g class="points"/><g class="text"/></g><g class="trace scatter trace4a87fe" style="stroke-miterlimit: 2; opacity: 1;"><g class="fills"/><g class="errorbars"/><g class="lines"><path class="js-line" d="M0,16.52L5.45,21.59L10.91,24.21L21.82,29.6L27.27,33L38.18,41.37L43.64,46.82L54.55,60.56L60,68.56L65.45,76.47L70.91,86.44L87.27,114.58L92.73,121.98L120,160.53L125.45,165.47L130.91,172.69L136.36,177.43L141.82,183.79L147.27,188.09L163.64,203.96L169.09,207.66L180,216.74L185.45,220.06L196.36,228.68L201.82,232.49L218.18,243.31L223.64,247.55L229.09,250.44L234.55,251.64L240,254.1L245.45,258.47L256.36,264.4L261.82,267.44L267.27,268.73L272.73,271.78L289.09,274.7L294.55,278.46L300,279.86L305.45,279.46L310.91,281.58L316.36,282.3L332.73,286.4L338.18,287.35L343.64,288.38L349.09,287.76L354.55,289.5L360,289.5L365.45,290.94L370.91,290.87L376.36,291.03L381.82,292.33L392.73,294.25L398.18,295.2L409.09,293.42L414.55,294.27L430.91,297.31L436.36,294.38L441.82,296.91L447.27,295.47L452.73,296.21L458.18,295.71L463.64,296.45L469.09,295.58L474.55,298.01L480,296.79L485.45,296.08L490.91,297.16L496.36,296.09L501.82,297.11L507.27,296.12L512.73,297.13L518.18,296.21L523.64,297.38L529.09,297.37L534.55,298.49L540,298.54" style="vector-effect: non-scaling-stroke; fill: none; stroke: rgb(248, 118, 109); stroke-opacity: 1; stroke-width: 2px; opacity: 1;"/></g><g class="points"/><g class="text"/></g><g class="trace scatter trace4dcbef" style="stroke-miterlimit: 2; opacity: 1;"><g class="fills"/><g class="errorbars"/><g class="lines"><path class="js-line" d="M0,16.29L5.45,21.57L10.91,24.32L21.82,29.51L27.27,32.83L38.18,40.63L43.64,46.29L49.09,51.97L54.55,58.93L65.45,74.05L70.91,83.5L87.27,107.7L92.73,114.83L98.18,122.41L103.64,128.46L114.55,140.85L120,145.68L130.91,156.39L136.36,162.25L141.82,166.87L147.27,170.49L158.18,179.38L163.64,183.81L169.09,188.97L174.55,191.81L180,196.29L185.45,199.72L190.91,203.19L196.36,208.38L212.73,216.03L218.18,220.14L229.09,224.25L234.55,227L245.45,233.14L250.91,234.39L272.73,244.91L278.18,248.05L283.64,249.2L289.09,251.16L294.55,252.67L300,255.35L305.45,256.11L310.91,259.26L327.27,263.01L332.73,264.42L338.18,264.61L343.64,268.29L349.09,267.33L354.55,269.36L360,271.46L365.45,271.29L370.91,272.77L376.36,272.98L381.82,275.09L387.27,274.95L392.73,275.02L398.18,275.92L403.64,276.18L409.09,277.67L414.55,277.43L420,280.37L425.45,279.95L430.91,280.88L436.36,280.94L441.82,282.36L463.64,284.5L469.09,284.89L474.55,284.42L480,285.13L485.45,284.99L490.91,286.58L496.36,285.42L501.82,285.23L507.27,285.73L512.73,288.17L529.09,289.59L534.55,285.45L540,289.17" style="vector-effect: non-scaling-stroke; fill: none; stroke: rgb(163, 165, 0); stroke-opacity: 1; stroke-width: 2px; opacity: 1;"/></g><g class="points"/><g class="text"/></g><g class="trace scatter trace712764" style="stroke-miterlimit: 2; opacity: 1;"><g class="fills"/><g class="errorbars"/><g class="lines"><path class="js-line" d="M0,16.29L5.45,21.75L10.91,24.22L21.82,28.86L27.27,32.19L38.18,40.8L43.64,47.06L54.55,62.6L60,71.96L70.91,92.03L76.36,102.81L87.27,122.42L92.73,132.3L98.18,141.84L103.64,149.32L109.09,158.3L114.55,165.64L136.36,192.77L141.82,198.21L147.27,202.36L152.73,208.51L158.18,214.09L163.64,218.21L169.09,223.87L174.55,228.19L180,233.4L185.45,237.05L190.91,242.79L196.36,245.38L212.73,255.01L218.18,260.33L223.64,262.74L229.09,266.46L234.55,268.45L240,271.96L245.45,273.36L250.91,276.53L256.36,276.68L261.82,278.95L289.09,286.08L294.55,286.95L300,287.66L305.45,289.89L310.91,290.02L316.36,291.46L321.82,291L327.27,291.42L332.73,291.65L338.18,293.06L343.64,293.11L349.09,294L354.55,294.92L360,295.04L365.45,296.29L370.91,295.1L376.36,296.45L381.82,295.99L387.27,294.79L392.73,296.52L398.18,297.67L403.64,296.51L414.55,298.9L420,296.49L425.45,298.38L430.91,298.42L441.82,297.4L447.27,299.15L452.73,301.26L458.18,299.13L469.09,300.77L474.55,300.58L485.45,300.44L490.91,301.74L496.36,302.14L501.82,301.6L518.18,303.45L523.64,301.66L529.09,302.44L534.55,302.4L540,302.48" style="vector-effect: non-scaling-stroke; fill: none; stroke: rgb(0, 191, 125); stroke-opacity: 1; stroke-width: 2px; opacity: 1;"/></g><g class="points"/><g class="text"/></g><g class="trace scatter traceaab85d" style="stroke-miterlimit: 2; opacity: 1;"><g class="fills"/><g class="errorbars"/><g class="lines"><path class="js-line" d="M0,16.6L5.45,21.69L10.91,24.47L16.36,26.9L21.82,30.3L27.27,33.38L32.73,37.88L43.64,48.75L49.09,56.41L54.55,63.92L60,72.86L87.27,120.72L92.73,129.04L114.55,158.59L120,164.27L136.36,183.92L141.82,188.55L147.27,195.16L152.73,200.51L158.18,204.4L163.64,209.54L190.91,232.19L196.36,235.54L207.27,244.08L212.73,247.49L223.64,254.41L229.09,256.39L245.45,265.83L250.91,267.04L256.36,268.44L261.82,271.77L267.27,272.24L272.73,275.16L278.18,275.26L283.64,277.73L310.91,283.53L316.36,285.14L338.18,288.53L343.64,288.3L349.09,290.03L354.55,289.76L370.91,292.25L376.36,293.69L381.82,292.57L387.27,293.63L392.73,294.6L398.18,292.78L409.09,296.79L414.55,295.59L420,294.36L425.45,296.38L441.82,298.56L447.27,299.89L452.73,300.25L458.18,299.23L463.64,300.42L469.09,300.2L474.55,301.32L480,301.65L485.45,301.61L490.91,302.89L496.36,300.21L501.82,301.11L507.27,301.96L512.73,301.41L518.18,303.87L523.64,303.72L529.09,301.78L534.55,301.65L540,303.19" style="vector-effect: non-scaling-stroke; fill: none; stroke: rgb(0, 176, 246); stroke-opacity: 1; stroke-width: 2px; opacity: 1;"/></g><g class="points"/><g class="text"/></g><g class="trace scatter tracec000f4" style="stroke-miterlimit: 2; opacity: 1;"><g class="fills"/><g class="errorbars"/><g class="lines"><path class="js-line" d="M0,16.23L5.45,21.53L10.91,24.31L21.82,29.87L27.27,33.93L32.73,38.42L38.18,44.02L43.64,50.39L49.09,58.13L54.55,65.99L60,75.37L81.82,110.99L87.27,118.27L92.73,126.29L98.18,132.39L109.09,147.84L114.55,154.67L120,159.72L125.45,166.08L136.36,175.95L141.82,183.27L147.27,186.46L152.73,191.75L174.55,210.07L180,213.88L185.45,217.42L190.91,222.28L207.27,231.68L212.73,236.09L223.64,242.18L229.09,245.55L234.55,248.75L240,250.45L256.36,259.54L261.82,261.23L272.73,265.93L278.18,266.6L283.64,269.17L289.09,270.14L294.55,271.57L300,272.15L305.45,276L310.91,275.81L316.36,276.44L321.82,278.41L332.73,283.99L338.18,282.97L360,286.2L365.45,287.77L376.36,287.29L381.82,290.03L398.18,289.98L403.64,290.76L409.09,289.74L414.55,291.53L420,292.32L425.45,291.89L436.36,292.88L441.82,294.46L452.73,293.74L458.18,295.57L463.64,295.36L469.09,296.21L474.55,296.58L480,296.09L490.91,296.34L496.36,299.11L507.27,297.77L512.73,298.09L518.18,299.24L523.64,298.37L529.09,300.06L534.55,298.79L540,298.6" style="vector-effect: non-scaling-stroke; fill: none; stroke: rgb(231, 107, 243); stroke-opacity: 1; stroke-width: 2px; opacity: 1;"/></g><g class="points"/><g class="text"/></g><g class="trace scatter trace59842a" style="stroke-miterlimit: 2; opacity: 1;"><g class="fills"/><g class="errorbars"/><g class="lines"><path class="js-line" d="M0,16.16L5.45,21.6L10.91,24.31L21.82,29.67L27.27,32.99L38.18,41.81L43.64,47.56L60,70.82L65.45,80.47L87.27,116.05L92.73,125.87L98.18,134.79L103.64,142.23L114.55,156.1L120,161.37L141.82,184.39L147.27,188.42L158.18,196.87L163.64,203.42L169.09,207.21L174.55,212.1L180,215.36L185.45,219.72L196.36,227.36L201.82,230.83L207.27,234.99L212.73,237.95L218.18,240.68L223.64,244.74L229.09,247.98L234.55,250.19L245.45,255.79L250.91,256.68L256.36,261.19L261.82,262.53L272.73,267.25L278.18,268.22L283.64,270.5L289.09,271.7L294.55,272.56L300,274.64L310.91,278.06L316.36,278.51L321.82,281.26L327.27,280.77L332.73,282.36L338.18,282.24L343.64,284.63L349.09,284.84L354.55,287.75L360,284.74L365.45,288.16L370.91,289.33L376.36,290.74L381.82,290.79L387.27,290.82L392.73,292L398.18,290.82L403.64,292.77L420,295L425.45,294.34L447.27,296.75L452.73,296.46L463.64,299L469.09,297.78L474.55,298.71L480,298.81L485.45,299.17L490.91,298.49L496.36,299.23L501.82,298.92L507.27,299.75L512.73,298.93L523.64,300.98L529.09,300.29L540,301.58" style="vector-effect: non-scaling-stroke; fill: none; stroke: rgb(248, 118, 109); stroke-opacity: 1; stroke-width: 2px; opacity: 1;"/></g><g class="points"/><g class="text"/></g><g class="trace scatter trace60c662" style="stroke-miterlimit: 2; opacity: 1;"><g class="fills"/><g class="errorbars"/><g class="lines"><path class="js-line" d="M0,16.14L5.45,21.48L10.91,24.11L21.82,29.28L27.27,32.74L38.18,42.87L43.64,49.47L49.09,56.25L54.55,64.67L76.36,103.47L81.82,112.31L98.18,136.28L103.64,143.08L125.45,169.51L130.91,174.76L136.36,179.47L141.82,186.11L163.64,204.88L169.09,209.05L180,216.36L185.45,219.2L196.36,226.19L201.82,231L223.64,243.09L229.09,244.87L234.55,246.39L240,250.21L245.45,252.17L250.91,256.14L256.36,257L261.82,259.65L283.64,269.44L289.09,270.21L300,273.7L305.45,274.22L310.91,276.09L316.36,278.9L321.82,279.87L327.27,281.8L332.73,281.7L338.18,284.02L343.64,285.46L349.09,284.4L354.55,286.01L360,286.66L365.45,286.45L370.91,289.83L376.36,290.52L381.82,289.54L392.73,293.01L398.18,293.33L403.64,291.06L409.09,295.12L414.55,294.09L420,294.23L425.45,293.78L430.91,296.42L436.36,295.75L441.82,296.39L447.27,296.45L452.73,298.73L458.18,297.32L463.64,298.12L474.55,297.44L480,299.21L485.45,301.15L490.91,299.07L496.36,300.56L501.82,299.53L507.27,299.58L512.73,300.62L523.64,302.15L529.09,300.52L534.55,301.21L540,300.11" style="vector-effect: non-scaling-stroke; fill: none; stroke: rgb(163, 165, 0); stroke-opacity: 1; stroke-width: 2px; opacity: 1;"/></g><g class="points"/><g class="text"/></g><g class="trace scatter tracec79730" style="stroke-miterlimit: 2; opacity: 1;"><g class="fills"/><g class="errorbars"/><g class="lines"><path class="js-line" d="M0,16.17L5.45,21.78L10.91,24.24L21.82,29.85L27.27,33.07L38.18,41.86L43.64,47.25L54.55,61.44L60,70.18L76.36,96L81.82,104.47L87.27,113.08L92.73,120.09L109.09,139.85L114.55,144.92L130.91,160.73L136.36,164.81L141.82,168.77L147.27,173.9L158.18,181.71L163.64,186.65L180,197.45L185.45,201.27L190.91,203.68L196.36,207.68L201.82,208.65L207.27,214.33L218.18,217.39L223.64,221.84L250.91,233.78L256.36,237.18L261.82,239.27L267.27,239.79L272.73,244.24L278.18,247.03L283.64,247.71L289.09,251.11L294.55,253.21L300,253.51L305.45,254.98L310.91,257.94L321.82,260.29L327.27,262.38L332.73,262.76L338.18,264.09L343.64,266.53L349.09,267.74L354.55,268.09L360,269.84L370.91,273.56L376.36,273.02L387.27,276.1L392.73,275.91L403.64,277.84L409.09,278.75L414.55,278.83L420,281.9L463.64,286.07L469.09,287.09L474.55,286.12L480,287.11L485.45,288.97L490.91,288.83L496.36,287.1L501.82,288.44L507.27,289.08L512.73,291.25L518.18,289.8L523.64,290.78L529.09,292.17L534.55,291.95L540,292.59" style="vector-effect: non-scaling-stroke; fill: none; stroke: rgb(0, 191, 125); stroke-opacity: 1; stroke-width: 2px; opacity: 1;"/></g><g class="points"/><g class="text"/></g><g class="trace scatter trace52a841" style="stroke-miterlimit: 2; opacity: 1;"><g class="fills"/><g class="errorbars"/><g class="lines"><path class="js-line" d="M0,16.38L5.45,21.52L10.91,24.2L27.27,33.07L32.73,37.09L43.64,48.73L49.09,55.32L87.27,114.58L92.73,122.44L103.64,135.81L109.09,143.79L114.55,148.9L120,155.6L125.45,160.99L130.91,167.72L141.82,176.32L147.27,181.74L152.73,187.35L158.18,190.48L163.64,194.98L169.09,201.77L190.91,217.69L196.36,220.88L201.82,225.34L207.27,228.52L212.73,230.79L218.18,235.76L240,248.77L245.45,250.64L250.91,252.41L256.36,255L261.82,257.84L267.27,257.74L278.18,264.97L283.64,266.36L310.91,275.67L316.36,275.33L321.82,278.78L327.27,278.27L338.18,281.3L343.64,282.4L349.09,282.38L354.55,284.01L370.91,285.94L376.36,288.68L381.82,287.52L387.27,290.28L392.73,288.64L398.18,291.06L409.09,290.92L414.55,293.96L425.45,293.24L430.91,294.56L436.36,292.75L441.82,294.61L447.27,295.21L452.73,294.8L458.18,296.91L463.64,295.52L469.09,296.12L474.55,295.8L480,296.28L485.45,298.63L490.91,298.02L496.36,298.37L501.82,294.15L507.27,298.3L512.73,298.07L518.18,298.91L529.09,299.77L534.55,298.33L540,297.23" style="vector-effect: non-scaling-stroke; fill: none; stroke: rgb(0, 176, 246); stroke-opacity: 1; stroke-width: 2px; opacity: 1;"/></g><g class="points"/><g class="text"/></g><g class="trace scatter trace2e7a14" style="stroke-miterlimit: 2; opacity: 1;"><g class="fills"/><g class="errorbars"/><g class="lines"><path class="js-line" d="M0,16.47L5.45,21.7L10.91,24.54L21.82,29.58L27.27,32.72L38.18,41.25L43.64,47.59L49.09,53.91L54.55,62.3L87.27,116.38L92.73,124.43L103.64,139.63L109.09,147L114.55,152.14L120,159.49L130.91,169.54L136.36,174.68L163.64,197.72L169.09,201.78L190.91,216.57L196.36,220.01L201.82,222.98L207.27,227.24L229.09,239.77L234.55,242.03L245.45,249.11L250.91,249.79L256.36,253.67L261.82,254.89L272.73,261.07L278.18,262.59L300,270.87L305.45,271.12L310.91,274.26L316.36,274.32L321.82,275.86L327.27,278.66L332.73,278.96L338.18,278.45L343.64,280.16L349.09,281.03L354.55,283.19L360,283.53L365.45,285.59L370.91,284.85L376.36,284.18L381.82,286.4L392.73,288.29L398.18,287.38L403.64,288L409.09,289.79L414.55,291.6L420,291.45L425.45,291.73L430.91,292.92L436.36,293.49L441.82,292.92L447.27,294.31L452.73,293.77L458.18,295.46L463.64,292.64L469.09,296.75L474.55,295.32L480,296.47L485.45,296.11L490.91,295.68L496.36,297L501.82,298.56L507.27,297.57L512.73,297.85L518.18,297.11L523.64,299.72L529.09,299.6L534.55,300.64L540,300.76" style="vector-effect: non-scaling-stroke; fill: none; stroke: rgb(231, 107, 243); stroke-opacity: 1; stroke-width: 2px; opacity: 1;"/></g><g class="points"/><g class="text"/></g></g></g><g class="overplot"/><path class="xlines-above crisp" d="" style="fill: none; stroke-width: 1px; stroke: rgb(0, 0, 0); stroke-opacity: 0;"/><path class="ylines-above crisp" d="" style="fill: none; stroke-width: 1px; stroke: rgb(0, 0, 0); stroke-opacity: 0;"/><g class="overlines-above"/><g class="xaxislayer-above"><path class="xtick ticks crisp" d="M0,421v5" transform="translate(80,0)" style="stroke: rgb(51, 51, 51); stroke-opacity: 1; stroke-width: 1px;"/><path class="xtick ticks crisp" d="M0,421v5" transform="translate(189.09,0)" style="stroke: rgb(51, 51, 51); stroke-opacity: 1; stroke-width: 1px;"/><path class="xtick ticks crisp" d="M0,421v5" transform="translate(298.18,0)" style="stroke: rgb(51, 51, 51); stroke-opacity: 1; stroke-width: 1px;"/><path class="xtick ticks crisp" d="M0,421v5" transform="translate(407.27,0)" style="stroke: rgb(51, 51, 51); stroke-opacity: 1; stroke-width: 1px;"/><path class="xtick ticks crisp" d="M0,421v5" transform="translate(516.36,0)" style="stroke: rgb(51, 51, 51); stroke-opacity: 1; stroke-width: 1px;"/><g class="xtick"><text text-anchor="middle" x="0" y="440.4" transform="translate(80,0)" style="font-family: 'Open Sans', verdana, arial, sans-serif; font-size: 12px; fill: rgb(51, 51, 51); fill-opacity: 1; white-space: pre; opacity: 1;">0</text></g><g class="xtick"><text text-anchor="middle" x="0" y="440.4" style="font-family: 'Open Sans', verdana, arial, sans-serif; font-size: 12px; fill: rgb(51, 51, 51); fill-opacity: 1; white-space: pre; opacity: 1;" transform="translate(189.09,0)">20</text></g><g class="xtick"><text text-anchor="middle" x="0" y="440.4" style="font-family: 'Open Sans', verdana, arial, sans-serif; font-size: 12px; fill: rgb(51, 51, 51); fill-opacity: 1; white-space: pre; opacity: 1;" transform="translate(298.18,0)">40</text></g><g class="xtick"><text text-anchor="middle" x="0" y="440.4" style="font-family: 'Open Sans', verdana, arial, sans-serif; font-size: 12px; fill: rgb(51, 51, 51); fill-opacity: 1; white-space: pre; opacity: 1;" transform="translate(407.27,0)">60</text></g><g class="xtick"><text text-anchor="middle" x="0" y="440.4" style="font-family: 'Open Sans', verdana, arial, sans-serif; font-size: 12px; fill: rgb(51, 51, 51); fill-opacity: 1; white-space: pre; opacity: 1;" transform="translate(516.36,0)">80</text></g></g><g class="yaxislayer-above"><path class="ytick ticks crisp" d="M79,0h-5" transform="translate(0,340.99)" style="stroke: rgb(51, 51, 51); stroke-opacity: 1; stroke-width: 1px;"/><path class="ytick ticks crisp" d="M79,0h-5" transform="translate(0,253.59)" style="stroke: rgb(51, 51, 51); stroke-opacity: 1; stroke-width: 1px;"/><path class="ytick ticks crisp" d="M79,0h-5" transform="translate(0,166.18)" style="stroke: rgb(51, 51, 51); stroke-opacity: 1; stroke-width: 1px;"/><g class="ytick"><text text-anchor="end" x="71.6" y="4.199999999999999" transform="translate(0,340.99)" style="font-family: 'Open Sans', verdana, arial, sans-serif; font-size: 12px; fill: rgb(51, 51, 51); fill-opacity: 1; white-space: pre; opacity: 1;">0.5</text></g><g class="ytick"><text text-anchor="end" x="71.6" y="4.199999999999999" style="font-family: 'Open Sans', verdana, arial, sans-serif; font-size: 12px; fill: rgb(51, 51, 51); fill-opacity: 1; white-space: pre; opacity: 1;" transform="translate(0,253.59)">1</text></g><g class="ytick"><text text-anchor="end" x="71.6" y="4.199999999999999" style="font-family: 'Open Sans', verdana, arial, sans-serif; font-size: 12px; fill: rgb(51, 51, 51); fill-opacity: 1; white-space: pre; opacity: 1;" transform="translate(0,166.18)">1.5</text></g></g><g class="overaxes-above"/></g></g><g class="polarlayer"/><g class="ternarylayer"/><g class="geolayer"/><g class="funnelarealayer"/><g class="pielayer"/><g class="iciclelayer"/><g class="treemaplayer"/><g class="sunburstlayer"/><g class="glimages"/><defs id="topdefs-05e7d4"><g class="clips"/></defs><g class="layer-above"><g class="imagelayer"/><g class="shapelayer"/></g><g class="infolayer"><g class="g-gtitle"><text class="gtitle" x="350" y="50" text-anchor="middle" dy="0em" style="font-family: 'Open Sans', verdana, arial, sans-serif; font-size: 17px; fill: rgb(51, 51, 51); opacity: 1; font-weight: normal; white-space: pre;">Train Loss: ascad_v1_fk_0_noisy-aisy_mlp_hw (early_stopping)</text></g><g class="g-xtitle"/><g class="g-ytitle"/></g></svg>