<svg class="main-svg" xmlns="http://www.w3.org/2000/svg" xmlns:xlink="http://www.w3.org/1999/xlink" width="700" height="500" style="" viewBox="0 0 700 500"><rect x="0" y="0" width="700" height="500" style="fill: rgb(255, 255, 255); fill-opacity: 1;"/><defs id="defs-c9e1e0"><g class="clips"><clipPath id="clipc9e1e0xyplot" class="plotclip"><rect width="540" height="320"/></clipPath><clipPath class="axesclip" id="clipc9e1e0x"><rect x="80" y="0" width="540" height="500"/></clipPath><clipPath class="axesclip" id="clipc9e1e0y"><rect x="0" y="100" width="700" height="320"/></clipPath><clipPath class="axesclip" id="clipc9e1e0xy"><rect x="80" y="100" width="540" height="320"/></clipPath></g><g class="gradients"/><g class="patterns"/></defs><g class="bglayer"><rect class="bg" x="80" y="100" width="540" height="320" style="fill: rgb(237, 237, 237); fill-opacity: 1; stroke-width: 0;"/></g><g class="layer-below"><g class="imagelayer"/><g class="shapelayer"/></g><g class="cartesianlayer"><g class="subplot xy"><g class="layer-subplot"><g class="shapelayer"/><g class="imagelayer"/></g><g class="gridlayer"><g class="x"><path class="xgrid crisp" transform="translate(189.09,0)" d="M0,100v320" style="stroke: rgb(255, 255, 255); stroke-opacity: 1; stroke-width: 1px;"/><path class="xgrid crisp" transform="translate(298.18,0)" d="M0,100v320" style="stroke: rgb(255, 255, 255); stroke-opacity: 1; stroke-width: 1px;"/><path class="xgrid crisp" transform="translate(407.27,0)" d="M0,100v320" style="stroke: rgb(255, 255, 255); stroke-opacity: 1; stroke-width: 1px;"/><path class="xgrid crisp" transform="translate(516.36,0)" d="M0,100v320" style="stroke: rgb(255, 255, 255); stroke-opacity: 1; stroke-width: 1px;"/></g><g class="y"><path class="ygrid crisp" transform="translate(0,401.82)" d="M80,0h540" style="stroke: rgb(255, 255, 255); stroke-opacity: 1; stroke-width: 1px;"/><path class="ygrid crisp" transform="translate(0,366.15)" d="M80,0h540" style="stroke: rgb(255, 255, 255); stroke-opacity: 1; stroke-width: 1px;"/><path class="ygrid crisp" transform="translate(0,330.48)" d="M80,0h540" style="stroke: rgb(255, 255, 255); stroke-opacity: 1; stroke-width: 1px;"/><path class="ygrid crisp" transform="translate(0,294.82)" d="M80,0h540" style="stroke: rgb(255, 255, 255); stroke-opacity: 1; stroke-width: 1px;"/><path class="ygrid crisp" transform="translate(0,259.15)" d="M80,0h540" style="stroke: rgb(255, 255, 255); stroke-opacity: 1; stroke-width: 1px;"/><path class="ygrid crisp" transform="translate(0,223.48000000000002)" d="M80,0h540" style="stroke: rgb(255, 255, 255); stroke-opacity: 1; stroke-width: 1px;"/><path class="ygrid crisp" transform="translate(0,187.82)" d="M80,0h540" style="stroke: rgb(255, 255, 255); stroke-opacity: 1; stroke-width: 1px;"/><path class="ygrid crisp" transform="translate(0,152.15)" d="M80,0h540" style="stroke: rgb(255, 255, 255); stroke-opacity: 1; stroke-width: 1px;"/><path class="ygrid crisp" transform="translate(0,116.48)" d="M80,0h540" style="stroke: rgb(255, 255, 255); stroke-opacity: 1; stroke-width: 1px;"/></g></g><g class="zerolinelayer"><path class="xzl zl crisp" transform="translate(80,0)" d="M0,100v320" style="stroke: rgb(255, 255, 255); stroke-opacity: 1; stroke-width: 1px;"/></g><path class="xlines-below"/><path class="ylines-below"/><g class="overlines-below"/><g class="xaxislayer-below"/><g class="yaxislayer-below"/><g class="overaxes-below"/><g class="plot" transform="translate(80,100)" clip-path="url(#clipc9e1e0xyplot)"><g class="scatterlayer mlayer"><g class="trace scatter trace15e8b3" style="stroke-miterlimit: 2; opacity: 1;"><g class="fills"/><g class="errorbars"/><g class="lines"><path class="js-line" d="M0,56.87L5.45,66.95L10.91,70.14L27.27,74.77L32.73,76.04L54.55,80.28L60,80.53L76.36,84.54L81.82,84.86L87.27,86.53L92.73,87.34L120,90.96L125.45,93L130.91,91.65L136.36,92.43L147.27,95.51L152.73,96.15L169.09,100.44L174.55,99.63L180,103.03L185.45,103.22L190.91,105.22L196.36,104.93L207.27,107.47L212.73,108.9L223.64,112.2L229.09,112.09L234.55,112.57L240,114.02L245.45,116.49L250.91,116.19L261.82,121.82L267.27,120.9L278.18,122.4L283.64,122.6L289.09,125.34L294.55,124.09L300,121.78L305.45,126.62L310.91,127.73L316.36,126.57L321.82,128.71L327.27,128.81L332.73,128.12L338.18,128.58L343.64,132.11L349.09,130.75L354.55,131.94L360,127.79L370.91,129.73L376.36,128.36L381.82,132.93L387.27,131.05L392.73,134.23L398.18,134.96L403.64,136.37L409.09,139.54L414.55,142.12L420,139.15L425.45,147.2L430.91,146.87L436.36,145.59L441.82,148.89L447.27,148.54L452.73,150.14L458.18,146.8L463.64,144.72L469.09,147.75L474.55,147.18L485.45,141.99L490.91,143.99L496.36,142.53L501.82,145.65L507.27,142.97L512.73,141.13L518.18,147.73L523.64,142.81L529.09,144.55L534.55,147.96L540,148.25" style="vector-effect: non-scaling-stroke; fill: none; stroke: rgb(248, 118, 109); stroke-opacity: 1; stroke-width: 2px; opacity: 1;"/></g><g class="points"/><g class="text"/></g><g class="trace scatter trace59bf12" style="stroke-miterlimit: 2; opacity: 1;"><g class="fills"/><g class="errorbars"/><g class="lines"><path class="js-line" d="M0,57.18L5.45,66.69L10.91,70.05L27.27,75.11L32.73,75.96L65.45,81.6L70.91,82.31L76.36,84.44L81.82,84.77L87.27,86.79L92.73,87.54L98.18,88.64L103.64,88.93L109.09,90.72L114.55,91.19L125.45,94.34L130.91,95.55L136.36,96.46L141.82,98.17L158.18,103.6L163.64,103.44L174.55,109.19L180,109.6L185.45,112.46L190.91,112.78L201.82,116.8L207.27,118.44L212.73,119.48L218.18,122.22L223.64,123.04L229.09,125.31L234.55,125.58L240,127.69L250.91,132.61L256.36,134.17L261.82,135.74L267.27,138.95L272.73,142.62L278.18,144.45L283.64,144.61L289.09,146.97L294.55,148.62L300,151.12L305.45,151.91L310.91,156.3L316.36,160.01L321.82,160.17L327.27,163.51L332.73,165.43L338.18,167.25L343.64,171.06L349.09,172.04L354.55,177.66L360,179.43L365.45,185.79L370.91,186.56L376.36,185.32L381.82,188.69L387.27,190.93L392.73,194.49L398.18,195.39L403.64,194.26L409.09,198.06L414.55,198.68L420,201.73L425.45,204.26L430.91,203.31L436.36,202.36L441.82,208.16L447.27,203.91L452.73,204.63L458.18,209.44L463.64,212.21L469.09,212.29L474.55,211.06L480,212.43L485.45,215.43L490.91,218.17L496.36,217.89L501.82,217.77L507.27,220.71L512.73,222.26L518.18,221.4L523.64,222.9L529.09,225.42L534.55,224.21L540,227" style="vector-effect: non-scaling-stroke; fill: none; stroke: rgb(163, 165, 0); stroke-opacity: 1; stroke-width: 2px; opacity: 1;"/></g><g class="points"/><g class="text"/></g><g class="trace scatter trace5cead7" style="stroke-miterlimit: 2; opacity: 1;"><g class="fills"/><g class="errorbars"/><g class="lines"><path class="js-line" d="M0,56.7L5.45,66.88L10.91,70.06L21.82,73.27L27.27,74.52L43.64,78.33L49.09,78.15L54.55,80.36L60,80.59L76.36,84.17L81.82,85.38L98.18,87.03L103.64,89.27L109.09,89.87L114.55,91.4L136.36,95.95L141.82,98.39L147.27,98.85L152.73,101.49L163.64,105.07L169.09,105.31L180,108.57L185.45,112.34L196.36,116.82L201.82,118.2L207.27,120.15L212.73,124.52L223.64,128.11L229.09,130.11L234.55,132.09L240,135.82L261.82,143.72L267.27,147.3L272.73,149.94L278.18,149.71L289.09,156.68L294.55,162.36L300,162.52L305.45,165.03L310.91,167.76L316.36,168.06L321.82,170.66L327.27,172.08L332.73,174.68L338.18,179.15L343.64,180.51L349.09,183.12L354.55,183.86L360,182.95L370.91,189.07L376.36,188.58L381.82,190.3L387.27,189.83L392.73,190.11L398.18,192.47L403.64,193.39L409.09,191.83L414.55,194.01L420,198.29L425.45,194.96L430.91,194.76L436.36,197.13L441.82,194.43L447.27,196.62L452.73,195.93L458.18,197.68L463.64,197.24L469.09,200.8L474.55,197.21L480,197.22L485.45,190.47L490.91,197.51L496.36,198.57L501.82,190.63L507.27,193.84L512.73,197.88L518.18,197.72L523.64,193.7L529.09,190.66L534.55,196.91L540,193.71" style="vector-effect: non-scaling-stroke; fill: none; stroke: rgb(0, 191, 125); stroke-opacity: 1; stroke-width: 2px; opacity: 1;"/></g><g class="points"/><g class="text"/></g><g class="trace scatter traceb4655f" style="stroke-miterlimit: 2; opacity: 1;"><g class="fills"/><g class="errorbars"/><g class="lines"><path class="js-line" d="M0,57.29L5.45,66.75L10.91,69.67L27.27,74.84L32.73,76.22L49.09,79.1L54.55,80.51L92.73,88.34L98.18,89.77L103.64,91.42L109.09,91.7L120,93.41L125.45,95.17L130.91,96.62L136.36,99.36L141.82,98.68L147.27,101.59L152.73,102.67L158.18,104.55L169.09,107.07L174.55,106.89L185.45,108.77L190.91,112.83L196.36,112.61L201.82,114.12L207.27,114.89L212.73,117.93L223.64,121.42L229.09,125.09L245.45,131.57L250.91,133.86L267.27,139.54L272.73,142.85L278.18,146.09L283.64,148.34L289.09,152.92L294.55,154.76L300,160.16L305.45,164.44L310.91,165.3L316.36,168.09L321.82,172.7L327.27,175.08L332.73,179.38L338.18,182.49L343.64,182.64L349.09,185.71L354.55,190.96L360,193.6L365.45,192.11L370.91,197.41L381.82,203.02L387.27,205.32L392.73,207.5L398.18,208.26L403.64,212.58L409.09,214.49L420,215.69L425.45,217.41L430.91,221.78L436.36,222.41L441.82,224.51L447.27,225.69L452.73,232.16L458.18,232.93L463.64,232.08L469.09,233.75L480,239.69L485.45,240.96L490.91,238.48L496.36,244.61L501.82,247.73L507.27,248.71L512.73,250.68L518.18,253.77L523.64,255.73L529.09,256.21L534.55,257.33L540,260.33" style="vector-effect: non-scaling-stroke; fill: none; stroke: rgb(0, 176, 246); stroke-opacity: 1; stroke-width: 2px; opacity: 1;"/></g><g class="points"/><g class="text"/></g><g class="trace scatter tracea6dfa1" style="stroke-miterlimit: 2; opacity: 1;"><g class="fills"/><g class="errorbars"/><g class="lines"><path class="js-line" d="M0,57.76L5.45,67.22L10.91,70.26L27.27,75.37L32.73,76.19L38.18,76.74L43.64,78.32L60,81.53L65.45,82.42L81.82,85.86L87.27,85.55L92.73,87.31L98.18,88.04L103.64,88.8L109.09,90.54L130.91,94.43L136.36,94.59L152.73,99.85L158.18,99.93L163.64,103.24L169.09,105.14L180,105.88L185.45,107.89L190.91,111.18L196.36,111.43L201.82,112.35L207.27,116.61L212.73,117.55L218.18,120.16L223.64,123.56L229.09,125.53L234.55,130.18L240,133.3L245.45,134.73L250.91,140.51L256.36,140.01L261.82,142.52L267.27,144.57L272.73,147.86L283.64,151.21L289.09,151.36L305.45,155.5L310.91,156.59L316.36,159.76L321.82,158.52L327.27,162.77L332.73,163.79L338.18,165.71L343.64,166.79L349.09,163.67L354.55,164.96L360,168.16L365.45,169.21L370.91,170.68L376.36,173.02L381.82,177.97L387.27,176.27L392.73,177.95L398.18,178.79L409.09,179.44L414.55,182.09L420,174.62L425.45,181.34L430.91,181.16L436.36,182.58L441.82,176.1L447.27,177.63L452.73,179.87L458.18,171.36L463.64,175.43L469.09,170.47L474.55,178L480,174L490.91,171.03L496.36,173.78L501.82,167.79L507.27,164.24L512.73,158.03L518.18,157.43L529.09,161.26L534.55,156.99L540,149.66" style="vector-effect: non-scaling-stroke; fill: none; stroke: rgb(231, 107, 243); stroke-opacity: 1; stroke-width: 2px; opacity: 1;"/></g><g class="points"/><g class="text"/></g><g class="trace scatter trace329bbf" style="stroke-miterlimit: 2; opacity: 1;"><g class="fills"/><g class="errorbars"/><g class="lines"><path class="js-line" d="M0,57.54L5.45,66.74L10.91,70.1L21.82,74.06L27.27,74.93L49.09,79.78L54.55,80.56L81.82,85.5L87.27,87.27L92.73,87.3L98.18,89.15L109.09,91.1L114.55,93.51L120,93.56L125.45,95.91L136.36,98.28L141.82,101.24L147.27,101.56L152.73,103.86L163.64,106.88L169.09,109.42L174.55,110.59L180,113.64L185.45,115.17L190.91,117.57L196.36,119.49L201.82,120.49L207.27,123.21L212.73,124.68L218.18,128.19L223.64,129.19L229.09,132L234.55,131.86L240,137.71L245.45,140.82L250.91,143.45L256.36,144.8L267.27,148.68L272.73,152.01L278.18,153.97L283.64,156.76L289.09,157L294.55,161.22L305.45,163.63L310.91,168.68L316.36,168.12L321.82,169.77L327.27,174.12L332.73,174.31L338.18,177.23L343.64,176.36L349.09,175.36L354.55,181.56L360,183L365.45,181.04L370.91,182.32L376.36,187.09L387.27,188.93L392.73,188.09L403.64,189.84L409.09,191.71L420,188.37L425.45,190.48L430.91,194.07L436.36,189.79L441.82,193.24L447.27,191.35L452.73,189.25L458.18,189.59L463.64,190.06L469.09,184.01L474.55,191.54L480,191.27L485.45,194.82L490.91,191.64L496.36,194.14L501.82,184.06L507.27,189.65L512.73,178.72L518.18,179.34L523.64,178.47L529.09,174.47L534.55,171.76L540,165.84" style="vector-effect: non-scaling-stroke; fill: none; stroke: rgb(248, 118, 109); stroke-opacity: 1; stroke-width: 2px; opacity: 1;"/></g><g class="points"/><g class="text"/></g><g class="trace scatter trace218ab5" style="stroke-miterlimit: 2; opacity: 1;"><g class="fills"/><g class="errorbars"/><g class="lines"><path class="js-line" d="M0,56.87L5.45,66.7L10.91,69.48L16.36,72.22L21.82,73.45L43.64,77.85L49.09,79.48L60,81.09L65.45,82.3L70.91,82.9L76.36,84.85L92.73,86.39L98.18,88.74L103.64,88.36L109.09,90.35L114.55,91.73L120,92.09L125.45,92.48L130.91,95.83L141.82,97.95L147.27,100.81L169.09,109.81L174.55,113.21L185.45,115.98L190.91,118.68L196.36,120.96L201.82,124.5L207.27,125.77L212.73,131.6L218.18,134.79L223.64,137L240,145.3L245.45,149.08L250.91,149.93L256.36,153.53L267.27,159.06L272.73,159.67L278.18,161.29L283.64,165.13L294.55,172.96L300,172.22L305.45,176.99L310.91,179.48L321.82,185.34L327.27,184.92L332.73,185.07L338.18,189.77L343.64,192.78L349.09,191.24L354.55,197.05L360,196.03L365.45,197.43L370.91,200.58L376.36,196.23L381.82,200.14L392.73,207.05L398.18,206.6L403.64,209.13L409.09,209.81L414.55,208.38L420,211.64L425.45,209.31L430.91,215.07L436.36,214.4L441.82,215.51L452.73,216.57L458.18,213.82L463.64,217.69L469.09,217.53L474.55,224.36L480,223.78L485.45,222.65L490.91,227.46L496.36,230.43L501.82,230.13L507.27,234.46L512.73,234.83L518.18,232.02L523.64,235.96L529.09,236.01L534.55,234.96L540,232.97" style="vector-effect: non-scaling-stroke; fill: none; stroke: rgb(163, 165, 0); stroke-opacity: 1; stroke-width: 2px; opacity: 1;"/></g><g class="points"/><g class="text"/></g><g class="trace scatter traceb11a23" style="stroke-miterlimit: 2; opacity: 1;"><g class="fills"/><g class="errorbars"/><g class="lines"><path class="js-line" d="M0,57.39L5.45,66.88L10.91,69.85L21.82,73.71L27.27,74.69L32.73,75.66L38.18,77.59L43.64,78.23L49.09,79.73L65.45,82.11L70.91,83.9L125.45,92.2L130.91,94.19L136.36,95.04L141.82,97.7L147.27,98.05L152.73,100.11L158.18,100.7L163.64,102.48L169.09,103.36L174.55,106.36L180,105.89L185.45,106.77L196.36,111.12L201.82,110.59L212.73,114.48L218.18,115.27L223.64,115.33L229.09,118.26L234.55,120.03L240,123.31L245.45,126.18L250.91,128.13L261.82,133.27L267.27,134.93L272.73,137.52L278.18,142.06L283.64,145.24L289.09,143.89L294.55,150.43L300,150.72L305.45,152.49L310.91,152.87L316.36,156.4L321.82,157.1L327.27,161.7L332.73,161.75L338.18,165.24L343.64,167.83L349.09,169.44L354.55,168.59L360,174.57L365.45,175.54L370.91,175.81L376.36,180.32L392.73,181.82L398.18,183.84L403.64,190.53L409.09,193.78L414.55,196.17L420,197.27L425.45,200.14L430.91,203.98L436.36,210.6L441.82,211.68L452.73,216.92L458.18,216.96L463.64,219.72L469.09,216.56L474.55,220.71L480,222.11L490.91,227.59L496.36,225.17L501.82,227.67L507.27,231.63L512.73,234L518.18,239.29L523.64,240.37L529.09,238.93L534.55,243.75L540,245.88" style="vector-effect: non-scaling-stroke; fill: none; stroke: rgb(0, 191, 125); stroke-opacity: 1; stroke-width: 2px; opacity: 1;"/></g><g class="points"/><g class="text"/></g><g class="trace scatter trace17ae32" style="stroke-miterlimit: 2; opacity: 1;"><g class="fills"/><g class="errorbars"/><g class="lines"><path class="js-line" d="M0,56.76L5.45,67.1L10.91,70.17L16.36,72.29L21.82,73.59L27.27,75.19L32.73,75.89L43.64,78.95L49.09,79.58L65.45,80.81L70.91,82.64L76.36,83.98L81.82,84.1L87.27,85.55L92.73,86.16L98.18,86.58L103.64,88.59L114.55,89.14L120,90.43L125.45,92.29L130.91,93.2L136.36,94.03L141.82,95.68L147.27,95.49L152.73,97.89L158.18,97.31L163.64,97.79L169.09,101.68L174.55,103L180,104.34L185.45,106.6L196.36,108.18L201.82,109.39L207.27,110.66L212.73,109.79L218.18,112.28L223.64,115.6L229.09,114.63L234.55,116.78L240,117.64L245.45,120.19L256.36,125.93L261.82,125.22L267.27,128.78L272.73,126.09L278.18,130.1L283.64,131.84L289.09,133.29L294.55,135.97L305.45,135.78L310.91,141.21L327.27,143.54L332.73,142.91L343.64,144.5L349.09,143.77L354.55,148.35L360,146.22L365.45,142.85L370.91,146.18L376.36,141.07L381.82,147.2L387.27,140.14L392.73,140.4L398.18,144.48L403.64,135.74L409.09,134.88L414.55,135.44L420,141.12L425.45,138.42L430.91,147.24L436.36,143.6L441.82,152.29L447.27,157.02L452.73,150.04L458.18,148.93L463.64,150.3L469.09,153.19L474.55,153.2L480,151.99L485.45,150.62L490.91,153.34L501.82,148.97L507.27,149.27L518.18,144.95L523.64,146.91L529.09,130.3L534.55,134.78L540,145.4" style="vector-effect: non-scaling-stroke; fill: none; stroke: rgb(0, 176, 246); stroke-opacity: 1; stroke-width: 2px; opacity: 1;"/></g><g class="points"/><g class="text"/></g><g class="trace scatter trace016d15" style="stroke-miterlimit: 2; opacity: 1;"><g class="fills"/><g class="errorbars"/><g class="lines"><path class="js-line" d="M0,57.03L5.45,67.11L10.91,68.98L21.82,73.53L27.27,74.64L43.64,78.35L49.09,78.84L54.55,80.3L60,80.73L65.45,80.93L70.91,81.91L76.36,83.81L81.82,84.51L87.27,85.41L92.73,87.21L103.64,88.86L109.09,91.52L114.55,91.16L120,93.41L125.45,93.34L130.91,96.07L136.36,96.89L141.82,98.89L147.27,99.87L152.73,102.61L163.64,106.41L169.09,106.65L180,112.66L185.45,114.29L190.91,117.25L196.36,118.74L212.73,126.82L218.18,127.21L223.64,129.82L229.09,131.59L240,135.42L245.45,136.39L250.91,138.9L256.36,139.8L261.82,142.9L267.27,144.82L272.73,147.61L278.18,151.6L283.64,153.41L289.09,154.3L294.55,157.23L300,159.28L305.45,158.92L310.91,160.24L316.36,166.1L321.82,166.51L332.73,172.22L338.18,173.97L349.09,174.7L354.55,180.74L360,184.19L365.45,186.17L370.91,187.18L376.36,190L381.82,190.17L387.27,192.86L392.73,194.55L398.18,194.37L409.09,197.86L414.55,200.36L425.45,200.24L430.91,204.43L436.36,202.64L441.82,201.95L447.27,204.27L452.73,205.69L458.18,210.4L463.64,212.72L469.09,209.29L474.55,218.69L480,214.78L485.45,217.87L490.91,217.5L496.36,215.13L501.82,219.78L507.27,212.59L512.73,215.46L518.18,215.24L523.64,216.63L529.09,221.64L534.55,224.05L540,222.39" style="vector-effect: non-scaling-stroke; fill: none; stroke: rgb(231, 107, 243); stroke-opacity: 1; stroke-width: 2px; opacity: 1;"/></g><g class="points"/><g class="text"/></g><g class="trace scatter tracef46903" style="stroke-miterlimit: 2; opacity: 1;"><g class="fills"/><g class="errorbars"/><g class="lines"><path class="js-line" d="M0,57.64L5.45,66.45L10.91,69.88L21.82,73.54L27.27,74.88L60,80.6L65.45,81.39L70.91,81.46L76.36,83.29L81.82,83.78L87.27,83.37L92.73,85.59L98.18,85.68L109.09,87.99L114.55,88.32L120,89.21L125.45,88.47L130.91,88.3L136.36,91.21L141.82,90.88L147.27,91.53L158.18,92.36L163.64,94.47L174.55,95.41L180,94.98L185.45,94.03L190.91,96.7L196.36,99.45L201.82,100.01L207.27,99.87L212.73,101.5L218.18,102.79L223.64,101.43L229.09,104.1L234.55,105.77L240,107.6L245.45,105.69L250.91,108.69L256.36,108.08L261.82,108.83L267.27,112.28L272.73,109.4L278.18,111.59L289.09,108.17L294.55,108.82L300,110.11L305.45,106.17L310.91,108.16L316.36,108.32L321.82,104.83L327.27,107.26L332.73,105.75L338.18,105.46L343.64,109L349.09,104L354.55,103.93L360,104.83L365.45,108.87L370.91,101.91L376.36,103.55L381.82,98.49L387.27,96.32L392.73,96.44L403.64,96.77L409.09,98.17L414.55,98.29L420,96.85L425.45,95.19L430.91,102.52L436.36,98.61L441.82,103.17L447.27,89.49L452.73,96.81L458.18,90.04L463.64,96.39L469.09,92.5L474.55,83.72L480,90.97L485.45,91.05L490.91,73.4L496.36,85.05L501.82,89.76L507.27,85.11L518.18,86.2L523.64,84.51L534.55,76.21L540,81.3" style="vector-effect: non-scaling-stroke; fill: none; stroke: rgb(248, 118, 109); stroke-opacity: 1; stroke-width: 2px; opacity: 1;"/></g><g class="points"/><g class="text"/></g><g class="trace scatter trace880f63" style="stroke-miterlimit: 2; opacity: 1;"><g class="fills"/><g class="errorbars"/><g class="lines"><path class="js-line" d="M0,57.18L5.45,66.17L10.91,69.6L32.73,75.73L38.18,76.73L54.55,80.26L60,80.44L81.82,85.16L87.27,86.88L103.64,90.09L109.09,92.38L125.45,95.42L130.91,97.38L141.82,98.59L147.27,102.37L158.18,105.49L163.64,105.46L174.55,109.69L180,112.04L196.36,115.24L201.82,117.71L212.73,121.48L218.18,123.32L223.64,124.86L229.09,125.1L234.55,128.33L240,130.09L245.45,131.1L250.91,133.52L261.82,137.52L267.27,137.89L272.73,138.07L278.18,143.3L283.64,142.71L289.09,146.48L294.55,146.18L300,150.75L305.45,151.83L310.91,152.09L316.36,153.22L321.82,155.53L332.73,161.93L338.18,161.59L343.64,163.22L349.09,163.37L354.55,168.67L360,169.88L365.45,170.77L370.91,173.03L381.82,172.73L387.27,177.27L392.73,178.62L398.18,178.37L403.64,179.23L409.09,183.21L414.55,189.71L420,188L425.45,191.42L430.91,191.58L436.36,194.34L441.82,195.53L447.27,199.42L452.73,201.3L458.18,197.05L463.64,200.42L469.09,204.61L474.55,201.46L480,208.72L485.45,203.97L490.91,206.59L496.36,210.22L501.82,214.38L507.27,209.08L512.73,214.82L518.18,217.2L523.64,218.4L529.09,222.66L534.55,218.69L540,219.85" style="vector-effect: non-scaling-stroke; fill: none; stroke: rgb(163, 165, 0); stroke-opacity: 1; stroke-width: 2px; opacity: 1;"/></g><g class="points"/><g class="text"/></g><g class="trace scatter tracebc850e" style="stroke-miterlimit: 2; opacity: 1;"><g class="fills"/><g class="errorbars"/><g class="lines"><path class="js-line" d="M0,56.48L5.45,66.64L10.91,70.19L27.27,75.12L32.73,75.93L43.64,78.43L49.09,79.33L92.73,87.53L98.18,84.28L103.64,89L109.09,90.19L114.55,91.54L120,91.77L125.45,93.84L130.91,93.27L141.82,96.4L147.27,96.54L152.73,97.82L158.18,101.03L163.64,100.57L169.09,102.59L174.55,105.37L180,106.53L196.36,112.07L201.82,112.27L207.27,114.14L212.73,115.07L223.64,120.62L229.09,120.81L234.55,121.23L240,125.43L250.91,127.66L256.36,130.43L261.82,130.59L267.27,135L278.18,138.09L283.64,139.06L289.09,143.23L294.55,142.93L305.45,148.62L310.91,147.31L321.82,149.08L327.27,152.67L332.73,153.73L338.18,152.74L343.64,153.53L349.09,156.02L354.55,159.96L360,158.52L365.45,158.63L370.91,164.3L376.36,167.77L381.82,168.14L387.27,169.59L392.73,168.87L398.18,171.97L403.64,172L409.09,172.39L414.55,171.37L420,171.27L425.45,174.31L430.91,174.52L436.36,170.1L441.82,172.21L447.27,177.76L452.73,175.32L458.18,176.09L463.64,176.6L469.09,179.49L474.55,176.43L480,180.87L485.45,179.93L490.91,182.49L496.36,176.98L501.82,177.27L507.27,175.64L512.73,177.75L518.18,180.18L523.64,177.7L529.09,175.33L534.55,171.51L540,167.14" style="vector-effect: non-scaling-stroke; fill: none; stroke: rgb(0, 191, 125); stroke-opacity: 1; stroke-width: 2px; opacity: 1;"/></g><g class="points"/><g class="text"/></g><g class="trace scatter traceb5efa4" style="stroke-miterlimit: 2; opacity: 1;"><g class="fills"/><g class="errorbars"/><g class="lines"><path class="js-line" d="M0,57.26L5.45,66.52L10.91,70.15L16.36,72.34L21.82,73.71L27.27,74.53L32.73,76.37L38.18,76.96L43.64,78.4L49.09,78.4L54.55,79.46L76.36,82.3L81.82,84.13L109.09,87.83L114.55,89.42L120,90.63L125.45,90.75L136.36,92.91L141.82,94.5L152.73,96.16L158.18,97.48L169.09,101.34L174.55,101.79L180,104.14L185.45,104.74L190.91,106.92L196.36,106.22L201.82,109.53L207.27,108.76L218.18,110.81L223.64,109.12L229.09,110.97L234.55,114.91L245.45,115.02L250.91,117.68L256.36,120.02L261.82,120.96L267.27,121.23L272.73,118.73L278.18,125.29L283.64,126.3L289.09,125.23L294.55,127.03L300,126.84L305.45,128.84L310.91,128.67L316.36,129.95L321.82,129.69L327.27,132.19L332.73,130.84L338.18,131.19L343.64,131.42L349.09,133.85L354.55,130.96L360,129.39L365.45,134.17L370.91,131.08L376.36,130.25L381.82,133.28L387.27,126.59L392.73,127.28L398.18,132.62L403.64,134.32L409.09,132.16L414.55,134.25L420,132.12L425.45,136.06L430.91,136.96L436.36,141.71L441.82,138.55L447.27,132.59L452.73,133.79L458.18,132.96L463.64,131.58L469.09,130.99L474.55,127.47L480,130.21L485.45,120.9L490.91,122.11L496.36,122.26L501.82,118.47L507.27,113.34L512.73,110.53L518.18,110.71L523.64,114.39L529.09,108.21L534.55,106.37L540,111.58" style="vector-effect: non-scaling-stroke; fill: none; stroke: rgb(0, 176, 246); stroke-opacity: 1; stroke-width: 2px; opacity: 1;"/></g><g class="points"/><g class="text"/></g><g class="trace scatter tracee67d97" style="stroke-miterlimit: 2; opacity: 1;"><g class="fills"/><g class="errorbars"/><g class="lines"><path class="js-line" d="M0,57.23L5.45,66.66L10.91,69.57L27.27,75.08L32.73,75.62L43.64,78.6L49.09,78.97L54.55,80.65L60,81.14L65.45,81.87L70.91,83.48L98.18,87.4L103.64,89.39L109.09,90.98L114.55,91.03L125.45,94.52L130.91,94.74L136.36,95.89L141.82,98.37L152.73,100.56L158.18,102.52L163.64,103.54L169.09,106.05L180,110.01L185.45,111.03L190.91,112.55L196.36,115.4L207.27,119.52L212.73,119.66L218.18,123.53L223.64,123.91L229.09,128.16L234.55,129.56L240,130.95L245.45,133.74L250.91,137.19L256.36,138.71L261.82,140.02L267.27,143.15L272.73,145.84L278.18,150.04L283.64,155.47L289.09,155.74L300,164.55L305.45,164.47L321.82,174.29L327.27,176.49L332.73,179.65L338.18,184.64L343.64,185.96L349.09,189.09L354.55,192.1L360,193.53L370.91,199.43L376.36,200.3L387.27,206.58L392.73,207.27L403.64,214.16L409.09,213.47L414.55,213.75L420,218.71L425.45,220.27L430.91,218.58L441.82,224.86L447.27,224.71L452.73,225.91L458.18,228.15L463.64,224.49L469.09,230.03L474.55,232.29L480,232.99L485.45,236.29L490.91,238.15L496.36,232.1L501.82,237.85L507.27,238.11L512.73,236.28L518.18,242.16L523.64,237.87L529.09,244.5L534.55,243.52L540,243.4" style="vector-effect: non-scaling-stroke; fill: none; stroke: rgb(231, 107, 243); stroke-opacity: 1; stroke-width: 2px; opacity: 1;"/></g><g class="points"/><g class="text"/></g><g class="trace scatter trace92d9ee" style="stroke-miterlimit: 2; opacity: 1;"><g class="fills"/><g class="errorbars"/><g class="lines"><path class="js-line" d="M0,57.68L5.45,67.07L10.91,69.87L21.82,73.81L27.27,75.18L38.18,77.4L43.64,77.97L49.09,79.36L54.55,79.88L60,79.37L65.45,81.77L70.91,82.22L76.36,83.73L81.82,84.02L87.27,85.71L98.18,87.45L103.64,89.37L109.09,90.13L114.55,91.69L120,92.68L125.45,92.72L136.36,95.23L141.82,97.63L147.27,97.98L152.73,100.17L163.64,103.24L169.09,105.66L180,108.64L185.45,111.71L190.91,113.26L196.36,113.51L207.27,116.37L212.73,117.74L218.18,119.6L223.64,122.49L234.55,125.18L240,129.38L245.45,133.33L250.91,136.36L261.82,139.63L267.27,142.76L283.64,149.39L289.09,150.77L294.55,152.2L300,156.17L305.45,159.14L310.91,161.22L316.36,164.82L321.82,164.86L332.73,171.81L338.18,173.41L343.64,177.04L349.09,177.07L354.55,179L360,184.27L365.45,184.89L370.91,189.35L376.36,191.65L381.82,195.19L387.27,196.1L392.73,199.79L398.18,199.75L403.64,203.27L409.09,206.48L414.55,206.75L420,209.99L425.45,210.2L436.36,212.5L441.82,214.6L447.27,217.14L452.73,216.37L458.18,218.57L463.64,221.6L469.09,220.99L474.55,218.5L485.45,228.47L490.91,226.42L501.82,228.29L507.27,232.54L512.73,230.37L518.18,229.09L523.64,232.84L529.09,230.81L534.55,229.93L540,228.08" style="vector-effect: non-scaling-stroke; fill: none; stroke: rgb(248, 118, 109); stroke-opacity: 1; stroke-width: 2px; opacity: 1;"/></g><g class="points"/><g class="text"/></g><g class="trace scatter trace6953ac" style="stroke-miterlimit: 2; opacity: 1;"><g class="fills"/><g class="errorbars"/><g class="lines"><path class="js-line" d="M0,57.74L5.45,66.33L10.91,70.47L32.73,76.05L38.18,76.78L43.64,77.5L49.09,79.04L65.45,82.16L70.91,83.48L76.36,84.96L81.82,85.11L87.27,85.66L92.73,87.37L98.18,87.68L103.64,89.9L109.09,90.2L114.55,91.82L130.91,94.63L136.36,96.6L141.82,97.59L147.27,100.77L152.73,101.06L158.18,103.42L163.64,103.26L169.09,105.92L174.55,108.34L180,108.67L185.45,108.02L190.91,111.6L196.36,113.32L201.82,114.16L212.73,119.77L218.18,120.06L229.09,125.41L234.55,125.98L240,126.35L245.45,128.03L256.36,132.37L261.82,133.74L283.64,138.98L289.09,139.11L294.55,142.5L300,142.38L305.45,142.96L310.91,145.23L316.36,148.04L321.82,149.45L327.27,146.78L332.73,150.96L338.18,148.48L343.64,153.42L349.09,154.23L354.55,157.88L360,158.75L365.45,157.43L370.91,160.48L376.36,160.76L381.82,164.7L387.27,165.4L392.73,166.81L398.18,169.54L403.64,168.32L409.09,168.32L414.55,170.68L420,169.17L425.45,172L430.91,173.14L436.36,174.41L441.82,173.4L447.27,177.97L452.73,178.86L458.18,180.13L463.64,182.65L469.09,182.2L474.55,183.53L485.45,186.35L490.91,187.83L496.36,189.12L501.82,184.08L507.27,186.9L512.73,190.58L518.18,189.98L523.64,192.13L529.09,195L534.55,192.08L540,193.47" style="vector-effect: non-scaling-stroke; fill: none; stroke: rgb(163, 165, 0); stroke-opacity: 1; stroke-width: 2px; opacity: 1;"/></g><g class="points"/><g class="text"/></g><g class="trace scatter trace16c665" style="stroke-miterlimit: 2; opacity: 1;"><g class="fills"/><g class="errorbars"/><g class="lines"><path class="js-line" d="M0,57.06L5.45,66.84L10.91,70.56L32.73,76.28L38.18,77.7L60,80.79L65.45,81.94L76.36,83.83L81.82,84.05L98.18,87.24L103.64,87.27L114.55,89.67L120,89.36L125.45,91.73L130.91,92.25L141.82,95.33L147.27,95.34L152.73,98.38L158.18,99.52L169.09,103.02L174.55,103.38L201.82,111.93L207.27,113.07L218.18,117.23L223.64,118.05L229.09,119.53L234.55,118.7L240,125.06L245.45,126L256.36,126.82L261.82,127.85L267.27,132.84L272.73,134.63L278.18,133.99L283.64,136.92L289.09,138.53L294.55,140.97L300,141.24L305.45,143.27L310.91,145.31L316.36,145.46L321.82,146.28L327.27,144.56L332.73,148.87L338.18,147.65L343.64,148.08L349.09,150.14L354.55,148.38L360,150.36L365.45,146.38L370.91,145.69L376.36,144.46L381.82,146.06L387.27,139.75L392.73,145.05L398.18,146.34L403.64,144.29L409.09,145.57L414.55,144.66L420,144.47L425.45,145.48L430.91,142.21L436.36,143.91L441.82,144.56L447.27,143.55L452.73,139.65L458.18,141.55L463.64,138.98L469.09,133.42L480,143L485.45,136.7L490.91,135.15L496.36,139.48L501.82,125.87L507.27,137.13L512.73,143.24L518.18,141.16L523.64,138.44L529.09,136.97L540,139.35" style="vector-effect: non-scaling-stroke; fill: none; stroke: rgb(0, 191, 125); stroke-opacity: 1; stroke-width: 2px; opacity: 1;"/></g><g class="points"/><g class="text"/></g><g class="trace scatter tracea9db3a" style="stroke-miterlimit: 2; opacity: 1;"><g class="fills"/><g class="errorbars"/><g class="lines"><path class="js-line" d="M0,57.51L5.45,67L10.91,70.23L16.36,72.47L21.82,73.9L54.55,80.85L60,81.45L65.45,82.03L70.91,83.51L76.36,83.71L81.82,85.06L98.18,88.44L103.64,89.66L109.09,90.17L114.55,92.09L120,92.81L125.45,94.57L130.91,95.45L136.36,97.24L147.27,99.81L152.73,102.56L158.18,103.07L163.64,105.44L169.09,108.3L174.55,109.58L180,109.97L185.45,112.25L196.36,117.55L201.82,117.42L207.27,120.95L212.73,122.17L223.64,127.06L229.09,126.56L240,131.81L245.45,132.48L250.91,136.98L256.36,136.94L267.27,140.51L272.73,141.31L283.64,144.46L289.09,146.73L300,147.09L305.45,148.73L310.91,149.06L316.36,147.05L332.73,154.87L338.18,155.83L343.64,153.77L349.09,155.76L354.55,155.28L360,160.13L365.45,158.92L370.91,161.54L376.36,158.71L381.82,161.92L387.27,155.66L392.73,155.78L398.18,164.02L403.64,153.9L409.09,158.85L414.55,159.65L420,154.12L425.45,155.09L430.91,156.4L436.36,148.13L441.82,154.39L447.27,144.78L452.73,148.43L458.18,147.97L463.64,147.45L469.09,141.22L474.55,136.5L480,135.04L485.45,143.38L490.91,140.85L496.36,131.34L501.82,134.06L507.27,132.88L512.73,137.7L518.18,124.8L523.64,133.1L529.09,131.92L534.55,133.44L540,124.74" style="vector-effect: non-scaling-stroke; fill: none; stroke: rgb(0, 176, 246); stroke-opacity: 1; stroke-width: 2px; opacity: 1;"/></g><g class="points"/><g class="text"/></g><g class="trace scatter trace584c62" style="stroke-miterlimit: 2; opacity: 1;"><g class="fills"/><g class="errorbars"/><g class="lines"><path class="js-line" d="M0,57.44L5.45,67.1L10.91,69.92L21.82,73.82L27.27,74.09L38.18,76.79L43.64,77.91L49.09,78.7L54.55,78.71L60,80.71L65.45,81.35L81.82,83.24L87.27,84.92L98.18,85.98L103.64,87.41L109.09,89.4L114.55,89.22L158.18,99.62L163.64,99.89L190.91,108.23L196.36,109.03L201.82,106.68L207.27,107.76L212.73,108.78L218.18,111.02L223.64,111.61L229.09,113.13L234.55,114.69L240,115.01L245.45,113.45L250.91,115.42L261.82,117.38L267.27,116.62L272.73,115.8L278.18,114.18L283.64,116.45L289.09,112.95L294.55,112.64L300,114.71L305.45,115.07L310.91,113.1L316.36,116.51L321.82,117.96L327.27,113.34L332.73,110.58L338.18,112.69L343.64,109.62L349.09,104.59L354.55,108.92L360,105.47L365.45,100.35L370.91,94.1L376.36,94.97L381.82,97.1L387.27,86.73L392.73,96.68L398.18,101.78L403.64,98.6L409.09,90.12L414.55,88.42L420,93.81L425.45,91.37L430.91,84.48L436.36,91.69L441.82,90.34L447.27,85.51L452.73,88.07L458.18,62.59L463.64,75.58L469.09,79.17L474.55,75.28L480,63.06L485.45,75.14L490.91,73.44L496.36,48.69L501.82,54.52L507.27,64.6L512.73,53.23L518.18,58.67L523.64,48.91L529.09,62.11L534.55,54.35L540,63.22" style="vector-effect: non-scaling-stroke; fill: none; stroke: rgb(231, 107, 243); stroke-opacity: 1; stroke-width: 2px; opacity: 1;"/></g><g class="points"/><g class="text"/></g><g class="trace scatter trace969e7c" style="stroke-miterlimit: 2; opacity: 1;"><g class="fills"/><g class="errorbars"/><g class="lines"><path class="js-line" d="M0,57.03L5.45,66.7L10.91,69.4L16.36,71.81L21.82,73.4L49.09,79.26L54.55,80L70.91,82.51L76.36,82.83L87.27,85.04L92.73,85.61L98.18,87.23L103.64,87.89L130.91,92.53L136.36,93.15L147.27,95.68L152.73,95.83L158.18,99.31L163.64,100.25L169.09,103.37L174.55,104.28L180,107L185.45,108.1L190.91,109.94L196.36,109.03L201.82,110.78L207.27,113.78L218.18,114.4L223.64,116.88L229.09,119.36L234.55,120.41L240,119.56L245.45,121.31L250.91,120.74L256.36,124.81L267.27,124.06L272.73,125.72L278.18,126.31L283.64,124.59L289.09,124.72L294.55,123.82L300,119.62L305.45,121.11L310.91,120.67L316.36,122.29L332.73,122.28L338.18,125.21L343.64,126.81L349.09,125.5L354.55,128.29L360,127.8L365.45,125.72L370.91,122.02L376.36,118.98L381.82,121.13L387.27,121.04L392.73,119.45L398.18,115.7L403.64,113.5L409.09,103.79L414.55,112.05L420,101.37L425.45,102.48L430.91,104.95L436.36,100.93L441.82,97.25L447.27,95.79L452.73,98.83L458.18,97.49L463.64,87.06L469.09,94.55L474.55,99.45L480,99.59L485.45,77.95L490.91,90.66L496.36,87.06L501.82,77.68L507.27,73.92L512.73,74.7L518.18,85.86L523.64,84.46L529.09,75.29L534.55,71.95L540,78.46" style="vector-effect: non-scaling-stroke; fill: none; stroke: rgb(248, 118, 109); stroke-opacity: 1; stroke-width: 2px; opacity: 1;"/></g><g class="points"/><g class="text"/></g><g class="trace scatter tracebd0ac5" style="stroke-miterlimit: 2; opacity: 1;"><g class="fills"/><g class="errorbars"/><g class="lines"><path class="js-line" d="M0,56.56L5.45,66.87L10.91,69.56L16.36,71.98L21.82,73.52L27.27,75.34L32.73,76.2L49.09,79.7L54.55,80.58L60,82.39L65.45,83.1L70.91,84.1L76.36,84.11L87.27,86.71L92.73,87.95L109.09,91.57L114.55,92.66L120,95L125.45,94.91L130.91,96.77L136.36,97.6L163.64,105.34L169.09,107.29L174.55,110.12L180,111.64L185.45,112.64L190.91,114.6L196.36,116.65L201.82,117.76L207.27,120.86L212.73,122.43L218.18,122.68L223.64,126.72L229.09,128.16L234.55,130.89L240,131.65L245.45,131.65L250.91,133.31L256.36,136.42L261.82,137.74L267.27,141.08L272.73,144L278.18,147.84L283.64,150.76L289.09,151.61L300,156.26L305.45,157.13L310.91,161.82L316.36,162.59L321.82,166.48L327.27,168.5L343.64,175.26L349.09,180.57L360,184.62L365.45,188.73L376.36,190.27L381.82,189.87L387.27,195.68L392.73,199.19L398.18,201.11L403.64,201.16L409.09,203.65L414.55,207.84L420,212.43L425.45,212.34L430.91,213.78L436.36,217.07L441.82,221.27L447.27,223.18L458.18,225.54L463.64,225.1L469.09,229.41L474.55,228.85L480,232.87L485.45,233.29L496.36,239.1L501.82,241.43L507.27,244.45L512.73,243.86L518.18,246.69L523.64,250.51L529.09,251.36L534.55,249.6L540,254.03" style="vector-effect: non-scaling-stroke; fill: none; stroke: rgb(163, 165, 0); stroke-opacity: 1; stroke-width: 2px; opacity: 1;"/></g><g class="points"/><g class="text"/></g><g class="trace scatter trace2917b4" style="stroke-miterlimit: 2; opacity: 1;"><g class="fills"/><g class="errorbars"/><g class="lines"><path class="js-line" d="M0,56.7L5.45,66.15L10.91,69.82L21.82,73.46L27.27,74.83L49.09,79.34L54.55,79.47L60,80.32L65.45,82.66L87.27,85.36L92.73,86.83L98.18,87.38L103.64,88.73L109.09,89.11L114.55,90.47L120,92.2L125.45,91.89L130.91,94.78L136.36,93.54L141.82,96.75L147.27,97.5L152.73,99.25L158.18,99.7L180,105.59L185.45,105.47L196.36,107.52L201.82,110.52L207.27,111.74L212.73,114.6L218.18,116.25L223.64,118.89L229.09,121.23L234.55,120.89L245.45,126.69L250.91,128.02L261.82,131.22L267.27,132.33L278.18,136.38L283.64,140.03L294.55,142.53L300,144.76L310.91,149.11L316.36,148.61L321.82,152.48L327.27,152.11L332.73,153.42L338.18,156.44L343.64,156.65L349.09,160.55L354.55,161.82L360,160.96L365.45,165.09L370.91,165.6L376.36,170.86L381.82,170.15L387.27,169.67L392.73,174.08L398.18,173.11L403.64,178.22L409.09,179.48L414.55,182.36L420,184.63L425.45,184.14L430.91,186.02L436.36,188.97L441.82,190.86L447.27,189.17L452.73,189.23L458.18,194.07L469.09,190.25L474.55,195.39L480,193.96L485.45,198.33L490.91,197.12L496.36,203.05L501.82,207.04L507.27,206.85L512.73,207.82L518.18,209.97L529.09,210.53L534.55,211.11L540,210.68" style="vector-effect: non-scaling-stroke; fill: none; stroke: rgb(0, 191, 125); stroke-opacity: 1; stroke-width: 2px; opacity: 1;"/></g><g class="points"/><g class="text"/></g><g class="trace scatter tracedfb027" style="stroke-miterlimit: 2; opacity: 1;"><g class="fills"/><g class="errorbars"/><g class="lines"><path class="js-line" d="M0,57.16L5.45,66.85L10.91,70.24L16.36,72.49L21.82,73.9L38.18,76.53L43.64,78.17L54.55,78.92L60,79.83L70.91,82.27L76.36,82.95L81.82,85.01L87.27,85.69L92.73,86.77L98.18,86.93L103.64,89.66L109.09,91.3L114.55,93L120,93.82L125.45,96.02L130.91,97.21L141.82,99.85L147.27,102.2L152.73,104.66L158.18,105.48L174.55,112.23L180,113.29L190.91,118.31L196.36,119.69L201.82,122.72L207.27,123.72L212.73,127.5L218.18,127.99L223.64,131.65L229.09,134.32L234.55,137.04L240,137.58L245.45,141.35L250.91,142.62L256.36,145.91L261.82,148.2L267.27,149.41L272.73,152.59L278.18,151.99L283.64,155.53L289.09,155.91L294.55,162.87L300,164.39L305.45,167.66L310.91,169.02L316.36,167.23L321.82,173.92L327.27,177.92L332.73,176.9L338.18,183.69L343.64,182.35L349.09,188.15L354.55,188.05L360,193.06L365.45,195.03L370.91,200.37L376.36,202.54L381.82,205.78L387.27,206.31L392.73,209.59L398.18,215.94L403.64,217.51L409.09,218.89L414.55,222.17L420,226.61L425.45,225.5L430.91,231.61L436.36,239.42L441.82,238.66L447.27,245.06L452.73,245.63L458.18,248.46L463.64,254.68L469.09,257.67L474.55,264.15L480,267.69L485.45,268.34L490.91,272.01L496.36,276.3L501.82,276.97L512.73,287.5L518.18,289.31L523.64,297.81L529.09,299.27L540,304" style="vector-effect: non-scaling-stroke; fill: none; stroke: rgb(0, 176, 246); stroke-opacity: 1; stroke-width: 2px; opacity: 1;"/></g><g class="points"/><g class="text"/></g><g class="trace scatter traceae8d40" style="stroke-miterlimit: 2; opacity: 1;"><g class="fills"/><g class="errorbars"/><g class="lines"><path class="js-line" d="M0,57.28L5.45,66.67L10.91,70.06L32.73,75.79L38.18,76.52L92.73,87.24L98.18,86.99L103.64,89.52L109.09,90.12L163.64,103.52L169.09,105.36L174.55,107.2L180,107.73L190.91,111.8L196.36,112.7L201.82,114.44L207.27,113.33L212.73,118.15L218.18,116.71L223.64,118.92L229.09,120.23L240,123.73L245.45,124.03L261.82,130.32L267.27,130.12L278.18,134.34L283.64,132.72L289.09,134.67L294.55,138.73L300,135.42L305.45,136.2L310.91,140.18L316.36,141.47L321.82,140.15L327.27,141.01L332.73,143.46L338.18,142.84L349.09,143.49L354.55,144.99L360,144.34L365.45,149.05L370.91,145.9L376.36,150.09L381.82,147.81L387.27,150.12L392.73,152.58L398.18,153.63L403.64,149.08L409.09,152.96L414.55,154.16L420,152.96L425.45,158.71L430.91,153.9L436.36,149.79L441.82,154.75L447.27,151.95L452.73,152.5L458.18,149.27L463.64,150.86L469.09,145.02L474.55,146.32L480,142.01L485.45,148.58L490.91,148.22L496.36,140.26L501.82,141.4L507.27,135.42L512.73,123.86L518.18,137.8L523.64,137.88L529.09,134.53L534.55,126.91L540,122.23" style="vector-effect: non-scaling-stroke; fill: none; stroke: rgb(231, 107, 243); stroke-opacity: 1; stroke-width: 2px; opacity: 1;"/></g><g class="points"/><g class="text"/></g><g class="trace scatter traceb9a564" style="stroke-miterlimit: 2; opacity: 1;"><g class="fills"/><g class="errorbars"/><g class="lines"><path class="js-line" d="M0,57.18L5.45,66.24L10.91,69.73L21.82,73.5L27.27,74.72L65.45,82.18L70.91,82.43L81.82,85.29L87.27,85.2L92.73,87.06L98.18,87.88L136.36,96.04L141.82,98.63L147.27,99.22L152.73,100.81L169.09,106.14L174.55,106.54L190.91,113.62L196.36,114.76L201.82,116.67L207.27,120.19L218.18,125.59L223.64,129.1L229.09,131.24L234.55,134.41L250.91,142.66L256.36,145.41L261.82,145.63L267.27,147.98L272.73,152.41L278.18,154.99L289.09,163.94L294.55,165.54L305.45,171.92L310.91,176.87L316.36,177.06L321.82,182.61L327.27,184.41L332.73,187.34L338.18,185.73L343.64,190.28L349.09,190.75L354.55,192.14L360,194.99L365.45,193.88L376.36,198.19L381.82,197.79L387.27,199.39L392.73,199.65L398.18,201.55L403.64,201.1L414.55,207.75L420,205.7L425.45,210.35L430.91,210.94L436.36,212.72L441.82,213.71L447.27,213.69L452.73,217.39L458.18,219.82L463.64,219.98L469.09,217.92L474.55,221.99L480,219.4L485.45,224.12L490.91,220.42L496.36,215.65L501.82,217.09L507.27,221.42L512.73,221.78L518.18,228.38L523.64,226.39L529.09,225.45L534.55,223.44L540,225.81" style="vector-effect: non-scaling-stroke; fill: none; stroke: rgb(248, 118, 109); stroke-opacity: 1; stroke-width: 2px; opacity: 1;"/></g><g class="points"/><g class="text"/></g><g class="trace scatter trace11039e" style="stroke-miterlimit: 2; opacity: 1;"><g class="fills"/><g class="errorbars"/><g class="lines"><path class="js-line" d="M0,56.52L5.45,67.09L10.91,70.2L27.27,74.79L32.73,75.86L49.09,78.77L54.55,79.17L70.91,82.68L76.36,83L81.82,83.55L87.27,85.49L92.73,85.76L98.18,87.37L103.64,88.57L109.09,88.8L114.55,90.82L120,90.81L125.45,92.09L130.91,91.47L141.82,94.7L147.27,94.9L152.73,96.94L158.18,98.16L169.09,98.6L174.55,102.58L180,105.07L185.45,104.66L196.36,109.17L201.82,110.72L212.73,112.62L218.18,112.63L223.64,117.75L229.09,118.36L240,123.46L245.45,121.85L256.36,127.87L261.82,128.47L272.73,133.54L278.18,134.58L283.64,137.51L289.09,137.67L294.55,140.95L300,141.19L310.91,145.3L316.36,146.18L321.82,148.96L327.27,150.47L338.18,151.84L343.64,153.38L354.55,152.77L360,155.4L365.45,158.14L370.91,155.78L387.27,162.59L392.73,166.33L398.18,170.12L403.64,169.9L414.55,171.03L420,175.53L425.45,175.09L430.91,173.23L436.36,177.49L441.82,180.05L447.27,181.73L452.73,179.99L458.18,178.25L463.64,179.06L474.55,185.26L480,186.27L485.45,191.33L490.91,192.26L501.82,194.01L507.27,193.01L512.73,194.99L518.18,195.73L523.64,195.88L529.09,193.94L540,201.15" style="vector-effect: non-scaling-stroke; fill: none; stroke: rgb(163, 165, 0); stroke-opacity: 1; stroke-width: 2px; opacity: 1;"/></g><g class="points"/><g class="text"/></g><g class="trace scatter trace761275" style="stroke-miterlimit: 2; opacity: 1;"><g class="fills"/><g class="errorbars"/><g class="lines"><path class="js-line" d="M0,56.78L5.45,66.66L10.91,70.3L32.73,76.42L38.18,76.76L49.09,78.65L54.55,79.52L109.09,88.21L114.55,90.16L120,91.51L125.45,91.91L130.91,93.1L136.36,95.38L147.27,97.12L152.73,99.09L158.18,101.19L163.64,101.87L169.09,104.06L174.55,105.31L180,106.23L185.45,107.98L190.91,108.55L196.36,111.14L201.82,114.69L207.27,116.34L218.18,120.88L223.64,120.84L234.55,125.13L240,126.08L245.45,126.82L250.91,128.76L256.36,129.43L261.82,130.89L267.27,133.63L272.73,134.14L278.18,135.58L283.64,135.74L289.09,138.63L294.55,138.41L300,138.17L305.45,140.28L316.36,141.96L321.82,143L327.27,146.6L332.73,142.98L338.18,147.98L343.64,144.04L349.09,144.56L354.55,148.12L360,145.26L365.45,145.87L370.91,150.02L376.36,145.43L381.82,151.04L387.27,148.22L392.73,147.48L398.18,145.25L403.64,145.97L409.09,152.01L414.55,148.5L420,145.94L425.45,153.09L430.91,151.32L436.36,157.18L441.82,149.46L447.27,153.1L452.73,148.93L458.18,151.17L463.64,149.39L469.09,152.05L474.55,150.98L480,153.65L485.45,152.15L490.91,148.2L496.36,152.53L501.82,151.37L507.27,155.49L512.73,153.94L518.18,150.13L523.64,153.65L529.09,147.92L534.55,149.1L540,145.97" style="vector-effect: non-scaling-stroke; fill: none; stroke: rgb(0, 191, 125); stroke-opacity: 1; stroke-width: 2px; opacity: 1;"/></g><g class="points"/><g class="text"/></g><g class="trace scatter trace24ff2b" style="stroke-miterlimit: 2; opacity: 1;"><g class="fills"/><g class="errorbars"/><g class="lines"><path class="js-line" d="M0,57.28L5.45,66.74L10.91,69.78L21.82,73.58L27.27,74.53L43.64,78.33L49.09,78.91L81.82,83.49L87.27,83.56L92.73,85.44L98.18,86.03L103.64,87.44L109.09,88.02L130.91,93.95L136.36,92.64L158.18,98.37L163.64,99.66L169.09,99.72L174.55,100.6L185.45,103.73L190.91,106.96L196.36,108.15L201.82,108.2L218.18,116.04L223.64,117.4L229.09,120.12L234.55,120.33L240,122.02L245.45,122.09L250.91,125.72L256.36,126.07L272.73,131.75L278.18,131.46L283.64,135.01L289.09,135L294.55,137.51L300,137.96L310.91,142.69L316.36,144.36L321.82,146.54L327.27,146.94L332.73,150.39L338.18,152.01L354.55,157.26L360,155.08L365.45,157.83L370.91,158.09L376.36,156.88L381.82,158.75L387.27,156.23L392.73,155.84L398.18,158.36L403.64,159.67L409.09,162.2L414.55,167.04L425.45,176.2L430.91,176.22L441.82,182.53L447.27,182.33L452.73,189.09L458.18,185.92L469.09,192.11L474.55,191.61L480,195.45L485.45,195.49L490.91,203.53L496.36,202.3L501.82,207.13L507.27,206.13L512.73,209.65L518.18,206.68L523.64,212.2L529.09,214.09L534.55,215.58L540,218.73" style="vector-effect: non-scaling-stroke; fill: none; stroke: rgb(0, 176, 246); stroke-opacity: 1; stroke-width: 2px; opacity: 1;"/></g><g class="points"/><g class="text"/></g><g class="trace scatter trace373126" style="stroke-miterlimit: 2; opacity: 1;"><g class="fills"/><g class="errorbars"/><g class="lines"><path class="js-line" d="M0,57.05L5.45,66.57L10.91,70.15L16.36,71.29L21.82,73.29L27.27,74.24L32.73,75.99L38.18,77.76L43.64,77.71L49.09,79.49L54.55,80.32L60,80.22L65.45,81.19L70.91,81.63L76.36,83.98L87.27,85.4L92.73,87.03L103.64,89.49L109.09,89.86L120,91.73L125.45,92.63L130.91,94.8L136.36,94.61L141.82,96.16L147.27,95.97L163.64,101.88L169.09,103.78L174.55,104.38L180,106.08L185.45,106.41L190.91,108.76L196.36,107.42L201.82,109.73L223.64,112.89L229.09,112.94L240,117.28L245.45,116.64L250.91,119.13L256.36,117.32L261.82,120.62L267.27,120.49L272.73,121.8L278.18,124.45L283.64,124.26L289.09,127.92L294.55,125.22L300,127.31L305.45,131.07L310.91,132.76L321.82,135.86L327.27,137.37L338.18,142.05L343.64,143.56L349.09,141.76L354.55,142.83L365.45,143.26L370.91,145.33L376.36,146.25L381.82,148L387.27,147.84L392.73,149.63L403.64,149.74L409.09,153.47L414.55,150.89L420,153.48L430.91,153.29L436.36,157.21L441.82,152.74L447.27,155.49L452.73,148.88L458.18,153.1L463.64,152.29L469.09,149.3L474.55,156.2L480,155.45L485.45,153.34L490.91,159.8L496.36,161.12L501.82,158.06L507.27,162.63L512.73,161.81L518.18,157.55L523.64,161.9L529.09,163.35L534.55,160.56L540,163.56" style="vector-effect: non-scaling-stroke; fill: none; stroke: rgb(231, 107, 243); stroke-opacity: 1; stroke-width: 2px; opacity: 1;"/></g><g class="points"/><g class="text"/></g><g class="trace scatter trace41eb72" style="stroke-miterlimit: 2; opacity: 1;"><g class="fills"/><g class="errorbars"/><g class="lines"><path class="js-line" d="M0,56.87L5.45,66.32L10.91,69.37L21.82,73.18L27.27,74.29L38.18,77.02L43.64,78.26L49.09,79.05L54.55,80.65L70.91,82.93L76.36,84.61L92.73,88.04L98.18,88.22L109.09,90.64L114.55,90.88L125.45,93.37L130.91,94.5L136.36,95.85L141.82,96.1L147.27,98.1L152.73,98.96L158.18,98.48L163.64,101.88L169.09,100.78L174.55,102.82L180,101.92L185.45,104.35L190.91,105.69L196.36,108.09L201.82,109.32L207.27,111.81L218.18,108.9L223.64,114.42L229.09,116.54L234.55,117.11L245.45,122.76L250.91,124.48L261.82,129.78L267.27,131.4L272.73,131.9L278.18,133.91L283.64,132.46L289.09,135.8L294.55,136.14L300,134.95L310.91,138.27L316.36,135.74L321.82,138.68L327.27,139.52L332.73,140.85L338.18,141.37L343.64,141.51L349.09,143.21L354.55,140.41L360,141.73L365.45,142.37L370.91,144.81L376.36,142.37L381.82,143.21L387.27,146.06L392.73,146.59L398.18,150.14L403.64,148.25L409.09,149.67L414.55,144.86L420,153.44L425.45,155.97L430.91,157.38L436.36,155.37L441.82,156.56L447.27,153.98L452.73,158.15L458.18,154.75L463.64,157.15L469.09,150.59L474.55,157.25L480,155.65L485.45,156.17L490.91,155.62L496.36,153.96L501.82,155.25L507.27,150.21L512.73,158.06L518.18,158.81L523.64,155.32L529.09,152.44L534.55,153.14L540,155.63" style="vector-effect: non-scaling-stroke; fill: none; stroke: rgb(248, 118, 109); stroke-opacity: 1; stroke-width: 2px; opacity: 1;"/></g><g class="points"/><g class="text"/></g><g class="trace scatter tracea781d6" style="stroke-miterlimit: 2; opacity: 1;"><g class="fills"/><g class="errorbars"/><g class="lines"><path class="js-line" d="M0,57.69L5.45,66.91L10.91,70.5L38.18,77.46L43.64,78.43L54.55,79.78L60,81.35L65.45,81.73L70.91,83.2L81.82,84.65L87.27,85.58L103.64,88.14L109.09,88.74L114.55,89.2L120,91.77L125.45,93.22L130.91,93.76L136.36,95.08L141.82,94.99L147.27,95.69L152.73,97.4L158.18,99.9L163.64,99.81L169.09,102.67L174.55,103.67L180,104.37L185.45,106.28L190.91,107.7L196.36,109.92L207.27,113.57L212.73,113.76L218.18,117.49L223.64,118.88L229.09,120.77L234.55,123.88L240,124.69L245.45,126.28L250.91,128.27L256.36,128.09L261.82,129.93L267.27,128.85L272.73,131.29L278.18,131.45L283.64,132.19L289.09,135.24L294.55,133.96L300,135.54L305.45,138.01L310.91,135.35L316.36,135.63L321.82,138.31L327.27,139.31L332.73,137.62L338.18,142.54L343.64,141.78L349.09,142.51L354.55,144.13L365.45,143.15L370.91,143.25L376.36,142.51L381.82,145.83L387.27,142.47L392.73,142.1L398.18,138.13L403.64,140.2L409.09,142.68L414.55,141.97L420,142L425.45,143.46L430.91,139.95L436.36,143.22L441.82,143.02L447.27,138.69L452.73,140.02L458.18,139.97L463.64,129.59L469.09,136.29L474.55,135.18L480,136.12L485.45,136.07L490.91,127.31L496.36,130.07L501.82,130.79L507.27,128.25L512.73,129.56L529.09,145.32L534.55,143.52L540,149.62" style="vector-effect: non-scaling-stroke; fill: none; stroke: rgb(163, 165, 0); stroke-opacity: 1; stroke-width: 2px; opacity: 1;"/></g><g class="points"/><g class="text"/></g><g class="trace scatter trace850de8" style="stroke-miterlimit: 2; opacity: 1;"><g class="fills"/><g class="errorbars"/><g class="lines"><path class="js-line" d="M0,57.14L5.45,66.73L10.91,69.59L21.82,73.42L27.27,73.99L43.64,78.13L49.09,78.54L60,80.78L65.45,81.21L103.64,87.99L109.09,87.45L114.55,89.42L120,89.3L125.45,89.78L130.91,89.17L136.36,91.97L141.82,91.73L147.27,91.72L152.73,93.45L158.18,93.15L163.64,95.96L180,97.62L185.45,100.82L196.36,102.45L201.82,105.18L207.27,106.04L212.73,108.91L218.18,109.4L223.64,110.77L229.09,112.69L234.55,111.44L240,111.68L245.45,113.97L250.91,114.52L256.36,112.12L261.82,116.26L267.27,117.28L272.73,119.21L278.18,117.69L283.64,120.6L289.09,119.53L300,121.19L305.45,117.98L310.91,122.97L316.36,121.14L321.82,120.45L327.27,122.35L332.73,122.57L338.18,120.15L343.64,119.16L349.09,123.25L354.55,120.13L360,118.17L365.45,114.99L370.91,110.6L376.36,115.63L381.82,110.97L387.27,109.33L392.73,117.23L398.18,116.22L403.64,113.31L409.09,106.9L414.55,112.98L420,109.06L425.45,112.36L430.91,102.51L436.36,99.69L441.82,111.32L447.27,97.64L452.73,95.92L458.18,101.04L463.64,100.96L469.09,91.68L474.55,94.34L480,94.24L485.45,89.31L490.91,91.91L496.36,88.15L501.82,87.9L507.27,88.98L512.73,85.53L518.18,85.5L523.64,79.16L529.09,78.12L534.55,80.59L540,69.39" style="vector-effect: non-scaling-stroke; fill: none; stroke: rgb(0, 191, 125); stroke-opacity: 1; stroke-width: 2px; opacity: 1;"/></g><g class="points"/><g class="text"/></g><g class="trace scatter trace63d0e4" style="stroke-miterlimit: 2; opacity: 1;"><g class="fills"/><g class="errorbars"/><g class="lines"><path class="js-line" d="M0,56.91L5.45,66.95L10.91,70.11L16.36,72.29L21.82,73.64L54.55,81.23L60,81.57L65.45,83.14L70.91,83.7L81.82,85.79L87.27,87.52L103.64,90.28L109.09,92.2L120,94.81L125.45,96.15L147.27,102.35L152.73,103.04L169.09,107.44L174.55,108.17L196.36,115.73L201.82,115.85L207.27,116.38L212.73,119.24L218.18,120.26L223.64,123.01L229.09,124.51L234.55,124.14L245.45,128.29L250.91,130.51L256.36,131.35L261.82,130.57L267.27,130.57L272.73,132.58L278.18,135.1L283.64,136.72L289.09,138.8L294.55,134.66L300,136.53L305.45,133.84L316.36,139.35L321.82,138.77L327.27,139.65L332.73,143.3L338.18,145.19L343.64,142.93L349.09,141.42L354.55,143L365.45,150.24L370.91,144.73L376.36,145.98L381.82,143.22L387.27,150.17L392.73,152.8L398.18,153.24L403.64,154.62L409.09,156.4L414.55,147.86L420,155.18L425.45,157.54L430.91,156.1L436.36,159.66L441.82,154.17L447.27,159.31L452.73,153.14L458.18,155.01L463.64,157.63L469.09,164.38L474.55,167.74L480,172.89L496.36,178.17L501.82,178.01L507.27,175.52L512.73,175.42L518.18,179.31L523.64,176.71L529.09,176.84L534.55,181.84L540,183.07" style="vector-effect: non-scaling-stroke; fill: none; stroke: rgb(0, 176, 246); stroke-opacity: 1; stroke-width: 2px; opacity: 1;"/></g><g class="points"/><g class="text"/></g><g class="trace scatter trace3e43d7" style="stroke-miterlimit: 2; opacity: 1;"><g class="fills"/><g class="errorbars"/><g class="lines"><path class="js-line" d="M0,57.53L5.45,67L10.91,70.47L32.73,75.52L38.18,76.45L43.64,77.46L49.09,79.56L60,81.89L65.45,82.16L70.91,84.06L76.36,84.55L81.82,84.52L87.27,86.11L92.73,88.13L98.18,88.51L109.09,91.33L114.55,91.1L120,93.62L125.45,93.8L130.91,96.21L136.36,97.77L152.73,102.17L158.18,105.23L174.55,110.11L180,110.26L185.45,113.04L190.91,114.74L196.36,115.57L201.82,118.63L207.27,120.13L212.73,122.78L218.18,122.55L223.64,124.49L240,134L245.45,135.95L250.91,135.18L256.36,135.93L261.82,139.47L267.27,138.33L272.73,141.35L278.18,140.22L283.64,142.44L289.09,142.46L294.55,142.72L300,141.35L310.91,145.1L316.36,145.18L321.82,146.82L327.27,145L332.73,142.69L338.18,142.27L343.64,142.44L349.09,146.5L354.55,142.73L360,145.62L365.45,141.38L370.91,143.29L376.36,145.62L381.82,139.36L387.27,146.1L392.73,139.07L398.18,137.88L403.64,138.09L420,125.19L425.45,122.22L430.91,123.05L436.36,117.53L447.27,111.3L452.73,105.28L458.18,102.53L463.64,105.37L469.09,102.52L474.55,91.25L480,97.93L485.45,89.82L490.91,88.9L496.36,80.4L501.82,92.26L507.27,87.35L512.73,76.87L518.18,62.75L523.64,77.19L529.09,62.35L534.55,59.45L540,73.5" style="vector-effect: non-scaling-stroke; fill: none; stroke: rgb(231, 107, 243); stroke-opacity: 1; stroke-width: 2px; opacity: 1;"/></g><g class="points"/><g class="text"/></g><g class="trace scatter tracefb1311" style="stroke-miterlimit: 2; opacity: 1;"><g class="fills"/><g class="errorbars"/><g class="lines"><path class="js-line" d="M0,57.09L5.45,66.72L10.91,69.58L21.82,73.4L27.27,74.92L49.09,79.15L54.55,80.19L60,80.72L65.45,82.08L81.82,84.25L87.27,86.43L98.18,86.61L103.64,88.17L109.09,88.5L114.55,89.93L120,90.61L125.45,92.5L130.91,91.79L136.36,92.69L141.82,94.21L147.27,93.98L158.18,96L163.64,97.79L169.09,97.06L174.55,99.49L180,100.84L185.45,101.38L201.82,101.8L207.27,105.19L212.73,104.5L218.18,107.31L229.09,110.67L234.55,110.86L245.45,113.21L250.91,112.38L256.36,112.85L261.82,111.03L267.27,112.05L272.73,111.78L278.18,111.44L283.64,112.26L289.09,111.66L294.55,109.16L300,107.86L305.45,103.75L310.91,106.96L316.36,104.87L327.27,94.44L332.73,95.11L338.18,93.06L343.64,91.91L349.09,89.21L354.55,91.67L360,90.36L365.45,92.62L370.91,95.74L376.36,94.11L381.82,98.39L387.27,88.75L392.73,91.7L398.18,89.5L403.64,89.55L409.09,86.91L414.55,87.88L420,86.38L430.91,77.78L436.36,83.52L441.82,63.24L447.27,75.24L452.73,76.68L458.18,68.51L463.64,69.65L469.09,65.27L474.55,68.83L480,51.24L485.45,65.93L490.91,71.34L496.36,54.21L501.82,58.23L507.27,45.93L512.73,62.11L518.18,54.07L523.64,40.65L529.09,59.24L534.55,16L540,50.8" style="vector-effect: non-scaling-stroke; fill: none; stroke: rgb(248, 118, 109); stroke-opacity: 1; stroke-width: 2px; opacity: 1;"/></g><g class="points"/><g class="text"/></g><g class="trace scatter traced57b2e" style="stroke-miterlimit: 2; opacity: 1;"><g class="fills"/><g class="errorbars"/><g class="lines"><path class="js-line" d="M0,56.89L5.45,66.74L10.91,69.37L16.36,71.96L21.82,73.38L49.09,78.61L54.55,80.4L70.91,82.33L76.36,83.43L81.82,84.08L87.27,85.59L92.73,85.93L98.18,87.9L103.64,87.26L109.09,89.22L114.55,89.8L120,91.78L125.45,93.27L130.91,93.92L141.82,96.25L147.27,98.2L152.73,100.17L158.18,100.74L180,106.04L185.45,108.26L196.36,113.49L201.82,115.33L212.73,120.47L218.18,121.92L229.09,125.36L234.55,129.36L245.45,130.75L250.91,134.14L261.82,140.55L267.27,139.17L272.73,141.85L278.18,143.53L283.64,146.3L289.09,146.45L294.55,148.78L300,149.68L310.91,152.47L316.36,152.92L321.82,153.03L327.27,150.08L332.73,154.42L338.18,156.37L343.64,153.08L349.09,152.16L354.55,154.55L360,154.58L365.45,153.39L370.91,152.97L376.36,151.03L381.82,152.18L387.27,155.15L392.73,149.59L398.18,148.79L403.64,149.7L409.09,146.29L414.55,149.66L420,142.78L425.45,147.55L436.36,146.05L441.82,146.3L447.27,148.93L452.73,145.24L458.18,145.08L463.64,150.58L469.09,150.85L474.55,153.48L480,143.28L485.45,143.95L490.91,140.38L496.36,138.95L501.82,131.35L507.27,139.71L512.73,123.78L518.18,133.06L523.64,128.05L529.09,125.53L534.55,131.66L540,125.77" style="vector-effect: non-scaling-stroke; fill: none; stroke: rgb(163, 165, 0); stroke-opacity: 1; stroke-width: 2px; opacity: 1;"/></g><g class="points"/><g class="text"/></g><g class="trace scatter tracef7f413" style="stroke-miterlimit: 2; opacity: 1;"><g class="fills"/><g class="errorbars"/><g class="lines"><path class="js-line" d="M0,56.51L5.45,66.65L10.91,70.2L27.27,75.03L32.73,75.99L38.18,76.82L43.64,78.5L49.09,78.73L54.55,80.03L81.82,84.43L87.27,86.45L103.64,88.96L109.09,90.27L114.55,90.43L120,92.04L125.45,92.27L130.91,94.35L136.36,95.82L141.82,96.12L147.27,95.8L152.73,99.73L158.18,99.27L163.64,101.48L169.09,102.29L174.55,102.02L180,105.88L185.45,104.26L190.91,106.9L196.36,107.21L201.82,109.82L207.27,110.25L212.73,111.99L218.18,116.79L223.64,119.38L229.09,119.26L234.55,124.35L240,125.89L245.45,127.08L250.91,131.2L261.82,135.23L267.27,134.77L272.73,139.12L278.18,140.72L283.64,140.96L289.09,143.78L300,151.33L305.45,149.3L316.36,156.59L321.82,156.49L327.27,162.66L332.73,166.98L338.18,169.15L343.64,169.35L354.55,176.48L360,176.67L365.45,176.33L370.91,179.71L376.36,181.67L381.82,181.33L387.27,181.38L392.73,185.64L398.18,184.97L403.64,189.58L409.09,191.07L414.55,193.56L420,190.7L425.45,192.99L430.91,197.55L436.36,197.64L441.82,194.39L447.27,198.09L458.18,202.14L463.64,206.42L469.09,207.31L474.55,214.31L480,213.54L485.45,216.57L490.91,218.65L496.36,219.68L507.27,217.97L512.73,218.92L523.64,220.41L529.09,222.02L534.55,219.25L540,224.76" style="vector-effect: non-scaling-stroke; fill: none; stroke: rgb(0, 191, 125); stroke-opacity: 1; stroke-width: 2px; opacity: 1;"/></g><g class="points"/><g class="text"/></g><g class="trace scatter trace37e013" style="stroke-miterlimit: 2; opacity: 1;"><g class="fills"/><g class="errorbars"/><g class="lines"><path class="js-line" d="M0,56.99L5.45,67.33L10.91,70.19L21.82,73.83L27.27,75.29L38.18,77.27L43.64,78.4L92.73,88.49L98.18,89.85L103.64,90.57L109.09,92.53L120,94.56L125.45,94.52L136.36,96.77L141.82,99.25L152.73,101.42L158.18,104.1L180,111.28L185.45,112.73L190.91,116.72L196.36,116.81L201.82,120.36L207.27,122.6L212.73,122.83L218.18,125.58L229.09,129.67L234.55,133.39L240,133.95L245.45,135.34L256.36,140.32L261.82,140.4L267.27,143.78L272.73,144.92L278.18,147.96L283.64,148.61L289.09,152.42L294.55,153.54L300,153.94L305.45,156.88L310.91,158.51L316.36,162.67L327.27,166.79L332.73,171.54L338.18,172.28L343.64,176.16L349.09,182.31L354.55,182.84L360,185.1L365.45,190.09L370.91,192.89L376.36,197.31L387.27,202.04L392.73,205.98L398.18,209.43L403.64,210.39L409.09,213.33L414.55,214.58L420,220.03L425.45,220L430.91,220.76L436.36,224.05L441.82,228.45L447.27,224.86L452.73,230.32L458.18,229.96L463.64,233.73L469.09,232.65L474.55,235.58L480,237.58L485.45,238.5L490.91,240.48L496.36,241.31L501.82,243.33L507.27,244.61L512.73,244.03L518.18,245.48L523.64,249.77L529.09,249.9L534.55,247.47L540,249.2" style="vector-effect: non-scaling-stroke; fill: none; stroke: rgb(0, 176, 246); stroke-opacity: 1; stroke-width: 2px; opacity: 1;"/></g><g class="points"/><g class="text"/></g><g class="trace scatter tracec910a0" style="stroke-miterlimit: 2; opacity: 1;"><g class="fills"/><g class="errorbars"/><g class="lines"><path class="js-line" d="M0,56.74L5.45,66.63L10.91,69.94L16.36,72.11L21.82,73.17L32.73,75.86L38.18,76.62L43.64,78.38L49.09,79L54.55,80.43L60,80.15L70.91,82.77L76.36,84.18L120,89.41L125.45,90.81L130.91,91.94L136.36,94.14L141.82,93.67L147.27,95.84L152.73,95.41L158.18,98.58L174.55,101.77L180,104.92L185.45,105.83L190.91,109.48L196.36,109.44L201.82,111.55L212.73,118.41L218.18,120.01L223.64,119.46L229.09,123.13L234.55,123.95L240,127.65L245.45,128.83L250.91,134.37L261.82,139.39L267.27,142.77L278.18,145.54L283.64,150.33L289.09,151.62L294.55,155.51L310.91,163.03L316.36,162.06L321.82,167.64L327.27,169.62L332.73,173.69L338.18,174.57L343.64,175.63L349.09,177.77L354.55,178.33L360,180.44L365.45,184.18L370.91,185.44L376.36,186.41L381.82,190.93L387.27,191.95L392.73,195.09L398.18,197.68L403.64,196.61L409.09,200.26L414.55,205.73L420,209.11L425.45,208.15L430.91,213.95L436.36,216.83L441.82,219.7L447.27,220.38L452.73,224.19L458.18,225.91L463.64,224.87L469.09,227.52L474.55,229.4L480,228.87L485.45,228.85L490.91,235.93L496.36,237.89L501.82,237.82L507.27,239.06L512.73,241.09L518.18,244.18L523.64,248.17L534.55,244.55L540,249.67" style="vector-effect: non-scaling-stroke; fill: none; stroke: rgb(231, 107, 243); stroke-opacity: 1; stroke-width: 2px; opacity: 1;"/></g><g class="points"/><g class="text"/></g><g class="trace scatter trace049805" style="stroke-miterlimit: 2; opacity: 1;"><g class="fills"/><g class="errorbars"/><g class="lines"><path class="js-line" d="M0,57.01L5.45,66.09L10.91,70L21.82,73.79L27.27,74.52L54.55,80.28L60,80.73L76.36,84.09L81.82,84.26L92.73,86.43L98.18,88.28L103.64,88.52L109.09,89.63L120,89.76L125.45,92.47L130.91,92.7L136.36,93.87L141.82,95.71L147.27,96.64L152.73,97.78L158.18,100.23L163.64,101.58L169.09,101.56L174.55,105.11L180,105.41L185.45,106.44L190.91,109.65L201.82,111.33L207.27,112.53L218.18,116.09L223.64,116.82L229.09,116.34L234.55,120.44L240,119.44L245.45,121.96L250.91,124.51L256.36,128.29L267.27,134.01L272.73,135.27L278.18,135.82L283.64,139.79L300,145.06L305.45,146.12L310.91,148.4L316.36,148.96L321.82,151.57L327.27,153.31L332.73,152.62L338.18,156.26L343.64,156.96L349.09,158.67L354.55,160.15L360,160.59L370.91,160.07L376.36,162.13L381.82,157.98L387.27,160.92L392.73,161.6L398.18,161.35L403.64,164.21L409.09,162.18L414.55,166.4L420,167.73L425.45,164.22L430.91,167.12L436.36,167.03L441.82,168.68L447.27,168.05L452.73,173.2L458.18,170.83L463.64,166.56L469.09,170.13L474.55,171.36L480,164.75L485.45,162.54L496.36,163.36L501.82,166.05L507.27,164.87L512.73,161.32L518.18,162.65L523.64,159.42L529.09,156.28L534.55,158.75L540,152.48" style="vector-effect: non-scaling-stroke; fill: none; stroke: rgb(248, 118, 109); stroke-opacity: 1; stroke-width: 2px; opacity: 1;"/></g><g class="points"/><g class="text"/></g><g class="trace scatter trace4d546b" style="stroke-miterlimit: 2; opacity: 1;"><g class="fills"/><g class="errorbars"/><g class="lines"><path class="js-line" d="M0,57.39L5.45,66.16L10.91,70.2L32.73,75.91L38.18,77.29L49.09,78.62L54.55,80.38L76.36,83.99L81.82,85.45L87.27,85.54L92.73,86.98L109.09,90.02L114.55,90.2L120,92.15L125.45,92.24L136.36,96.27L141.82,96.59L147.27,97.11L152.73,99.39L163.64,100.8L169.09,102.95L174.55,103.6L180,102.7L185.45,106.92L190.91,109.1L201.82,111.94L207.27,112.39L218.18,117.74L223.64,117.74L229.09,121.89L234.55,120.35L240,123.12L245.45,124.82L250.91,128.2L256.36,127.69L261.82,128.04L267.27,129.72L283.64,133.96L289.09,138.59L294.55,140.47L300,138.74L310.91,145.04L316.36,146.7L321.82,144.99L327.27,148.35L332.73,151.93L338.18,156.49L343.64,155.06L349.09,156.3L360,161.04L365.45,161.46L376.36,162.48L381.82,164.47L392.73,165.55L398.18,169.7L403.64,173.23L409.09,170.89L420,175.31L425.45,174.72L430.91,175.68L436.36,173.35L441.82,177.46L447.27,178.12L452.73,183.11L458.18,184.64L463.64,186.55L469.09,190.39L474.55,190.79L480,194.4L485.45,199.95L490.91,196.59L501.82,204.58L507.27,205.88L512.73,204.36L518.18,207.18L523.64,209.06L529.09,205.23L534.55,211.94L540,213.66" style="vector-effect: non-scaling-stroke; fill: none; stroke: rgb(163, 165, 0); stroke-opacity: 1; stroke-width: 2px; opacity: 1;"/></g><g class="points"/><g class="text"/></g><g class="trace scatter trace15073f" style="stroke-miterlimit: 2; opacity: 1;"><g class="fills"/><g class="errorbars"/><g class="lines"><path class="js-line" d="M0,56.96L5.45,66.31L10.91,70.07L27.27,74.62L32.73,75.76L43.64,78.42L49.09,78.81L60,81.27L65.45,82.16L70.91,81.51L76.36,82.95L81.82,84.72L87.27,85.21L103.64,87.68L109.09,88.6L114.55,89.72L120,89.72L125.45,90.6L130.91,92.78L136.36,94.6L141.82,94.66L158.18,97.28L163.64,98.91L169.09,99.13L174.55,100.51L185.45,100.35L190.91,103.78L196.36,103.89L201.82,105.57L207.27,105.48L212.73,107.82L218.18,105.74L223.64,107.05L229.09,109.56L234.55,108.85L245.45,110.88L250.91,110.87L256.36,112.63L261.82,111.08L267.27,114.44L272.73,111.24L278.18,113.39L283.64,114.6L289.09,118.16L294.55,117.04L305.45,118.56L310.91,120.37L316.36,115.56L321.82,115.7L327.27,117.6L332.73,122.11L338.18,118.68L343.64,120.94L354.55,120.39L360,124.36L376.36,123.6L381.82,118.37L387.27,120.09L392.73,116.44L398.18,116.23L403.64,113.99L409.09,111.52L414.55,114.83L425.45,111.67L430.91,112L436.36,117.2L441.82,118.56L458.18,112.16L463.64,111.87L469.09,112.57L474.55,108.96L480,99.11L485.45,115.6L490.91,111.2L496.36,108.72L501.82,105.82L507.27,111.58L512.73,105.43L518.18,104.05L523.64,103.04L529.09,109.71L534.55,96.37L540,99.59" style="vector-effect: non-scaling-stroke; fill: none; stroke: rgb(0, 191, 125); stroke-opacity: 1; stroke-width: 2px; opacity: 1;"/></g><g class="points"/><g class="text"/></g><g class="trace scatter trace1f3f08" style="stroke-miterlimit: 2; opacity: 1;"><g class="fills"/><g class="errorbars"/><g class="lines"><path class="js-line" d="M0,56.75L5.45,66.8L10.91,69.83L21.82,73.69L27.27,74.81L38.18,77.53L43.64,78.36L49.09,80.13L54.55,80.44L65.45,81.86L70.91,82.98L98.18,88.21L103.64,90.28L109.09,92.19L114.55,93.21L130.91,96.92L136.36,98.68L141.82,99.5L147.27,101.92L158.18,105.31L163.64,105.77L169.09,108.47L174.55,109.73L180,113.31L185.45,114.57L190.91,118.36L196.36,119.44L201.82,120.68L207.27,123.57L212.73,126.18L218.18,129.7L223.64,131.15L229.09,134.45L234.55,136.64L240,137.75L261.82,148.33L267.27,149.17L278.18,155.3L283.64,156.45L300,159.8L305.45,163.96L310.91,163.98L316.36,168.88L321.82,171.26L327.27,171.56L343.64,175.36L349.09,180.03L354.55,182.96L360,181.94L370.91,189.09L376.36,188.46L381.82,187.57L387.27,187.5L403.64,193.29L409.09,192.7L414.55,198.18L420,200.7L425.45,203.13L430.91,201.65L436.36,204.94L441.82,205.35L447.27,206L452.73,210.84L458.18,209.32L463.64,212.2L474.55,215.7L480,216.63L485.45,217.25L490.91,219.66L496.36,218.96L501.82,220.56L507.27,223.82L512.73,225.18L518.18,226.15L523.64,225.36L529.09,220.75L534.55,220.72L540,221.54" style="vector-effect: non-scaling-stroke; fill: none; stroke: rgb(0, 176, 246); stroke-opacity: 1; stroke-width: 2px; opacity: 1;"/></g><g class="points"/><g class="text"/></g><g class="trace scatter trace9117ac" style="stroke-miterlimit: 2; opacity: 1;"><g class="fills"/><g class="errorbars"/><g class="lines"><path class="js-line" d="M0,56.7L5.45,66.56L10.91,69.77L16.36,72.34L21.82,73.53L32.73,76.11L38.18,77.15L54.55,78.95L60,80.49L76.36,81.61L81.82,83.4L87.27,82.8L92.73,84.01L98.18,85.27L103.64,85.07L109.09,85.99L114.55,86.08L120,85.78L125.45,88.4L130.91,90.3L136.36,90.16L141.82,91.05L147.27,93.02L174.55,97.65L180,99.41L185.45,100.34L190.91,102.83L196.36,105.31L201.82,106.83L207.27,106.94L212.73,108.16L229.09,110.91L234.55,111.46L240,112.37L245.45,114.79L250.91,114.98L256.36,116.04L261.82,115.71L267.27,116.49L272.73,117.46L278.18,119.34L283.64,119.7L289.09,123.74L305.45,124.93L310.91,126.89L316.36,129.1L321.82,127.45L327.27,131.38L332.73,132.68L343.64,136.75L349.09,135.95L354.55,140.11L360,134.77L365.45,138.75L370.91,141.24L376.36,145.54L381.82,144.76L387.27,141.81L392.73,148.41L398.18,147.76L403.64,148.63L409.09,149.42L414.55,152.81L420,151.81L425.45,153.37L436.36,155.96L441.82,156.19L447.27,159.92L452.73,160.17L463.64,160.15L469.09,161.17L474.55,159.51L480,162.43L490.91,166.25L496.36,163.21L501.82,167.5L507.27,165.53L512.73,168.4L518.18,168.36L523.64,162.7L529.09,166.9L534.55,170.65L540,169.69" style="vector-effect: non-scaling-stroke; fill: none; stroke: rgb(231, 107, 243); stroke-opacity: 1; stroke-width: 2px; opacity: 1;"/></g><g class="points"/><g class="text"/></g><g class="trace scatter trace4a927d" style="stroke-miterlimit: 2; opacity: 1;"><g class="fills"/><g class="errorbars"/><g class="lines"><path class="js-line" d="M0,57.06L5.45,67.03L10.91,69.91L21.82,73.4L27.27,74.83L49.09,79.81L54.55,80.53L98.18,88.41L103.64,90.34L109.09,91.33L114.55,90.7L120,93.12L125.45,93.34L130.91,94.98L136.36,95.45L141.82,97.28L147.27,98.02L158.18,100.68L163.64,101.37L169.09,104.14L174.55,104.25L180,103.13L185.45,105.4L190.91,109.51L196.36,110.15L201.82,111.58L207.27,110.63L212.73,113.83L218.18,113.26L223.64,115.19L229.09,115.61L240,121.63L245.45,122.39L261.82,125.89L267.27,126.61L272.73,129.64L278.18,129.8L283.64,131.26L289.09,131.18L300,132.31L305.45,134.67L310.91,132.01L316.36,137.05L321.82,135.81L327.27,136.55L332.73,136.66L338.18,138.2L343.64,136.91L349.09,137.12L360,137.25L365.45,139.2L370.91,137.5L376.36,134.89L381.82,138.55L387.27,136.13L392.73,134.5L398.18,133.68L403.64,132.64L409.09,129.32L414.55,132.39L420,133.73L425.45,129.65L430.91,135.4L436.36,134.61L441.82,125.92L447.27,126.58L452.73,122.26L458.18,125.29L463.64,121.83L469.09,124.72L474.55,130.06L480,126.33L485.45,125.9L490.91,127.49L496.36,115.86L501.82,117.96L507.27,122.89L512.73,121.4L518.18,117.36L523.64,125.77L529.09,114.41L534.55,124.87L540,97.51" style="vector-effect: non-scaling-stroke; fill: none; stroke: rgb(248, 118, 109); stroke-opacity: 1; stroke-width: 2px; opacity: 1;"/></g><g class="points"/><g class="text"/></g><g class="trace scatter tracea7b156" style="stroke-miterlimit: 2; opacity: 1;"><g class="fills"/><g class="errorbars"/><g class="lines"><path class="js-line" d="M0,56.93L5.45,66.9L10.91,70.26L27.27,75.21L32.73,75.89L49.09,78.53L54.55,79.25L65.45,82.01L70.91,82.83L76.36,83.58L81.82,85.15L87.27,85.75L92.73,87.31L98.18,87.91L103.64,89.59L114.55,92.38L120,92.9L125.45,93.97L130.91,95.81L136.36,96.5L141.82,96.28L147.27,96.35L152.73,98.89L158.18,100.65L163.64,100.73L169.09,103.11L174.55,106.7L196.36,113.42L201.82,116.07L207.27,116.86L212.73,118.57L234.55,124.38L240,124.24L245.45,128.93L250.91,128.44L256.36,133.16L261.82,134.86L267.27,137.97L272.73,137.35L278.18,134.5L283.64,139.77L294.55,145.58L300,146.09L310.91,146.37L316.36,149.23L327.27,152.12L332.73,152.48L338.18,156.13L343.64,155.75L349.09,155.13L354.55,161.14L360,160.4L365.45,160.42L370.91,156.68L376.36,161.17L381.82,163.37L387.27,166.73L398.18,167.29L403.64,165.6L409.09,172.32L414.55,172.66L420,175.53L425.45,175.18L430.91,175.81L436.36,175.4L441.82,183.24L447.27,182.85L452.73,188.49L458.18,191.84L463.64,191.67L469.09,196.77L474.55,196.04L480,201.11L485.45,201.79L490.91,206.64L496.36,209.56L501.82,208.74L512.73,216.81L518.18,216.02L523.64,213.94L529.09,215.67L534.55,217.84L540,221.21" style="vector-effect: non-scaling-stroke; fill: none; stroke: rgb(163, 165, 0); stroke-opacity: 1; stroke-width: 2px; opacity: 1;"/></g><g class="points"/><g class="text"/></g><g class="trace scatter trace496a06" style="stroke-miterlimit: 2; opacity: 1;"><g class="fills"/><g class="errorbars"/><g class="lines"><path class="js-line" d="M0,57.67L5.45,67.02L10.91,70.09L27.27,74.89L32.73,76L65.45,82.47L70.91,83.06L87.27,85.33L92.73,87.03L103.64,88.77L109.09,90.45L114.55,90.6L120,93.17L125.45,93.46L130.91,95.13L136.36,97.07L141.82,96.59L158.18,101.08L163.64,104.43L169.09,107.11L174.55,108.46L185.45,110.02L190.91,112.45L196.36,113.64L201.82,115.84L212.73,120.5L218.18,120.95L223.64,123.78L229.09,124.41L234.55,126.21L240,128.85L245.45,131.57L250.91,132.75L256.36,135.72L261.82,135.71L272.73,140.22L278.18,143.48L283.64,144.48L289.09,146.38L294.55,146.75L300,149.71L305.45,148.02L310.91,154.24L321.82,157.51L327.27,158.29L332.73,159.8L338.18,162.2L343.64,165.42L349.09,164.24L354.55,167.06L360,166.57L365.45,168.09L370.91,168L376.36,170.95L381.82,169.99L387.27,172.77L392.73,169.38L409.09,170.38L414.55,168.67L420,173.1L425.45,171.97L436.36,175.33L441.82,168.99L447.27,171.8L452.73,169.12L458.18,170.02L463.64,169.51L469.09,166.77L474.55,157.51L480,161.49L485.45,159.38L490.91,157.4L496.36,160.89L501.82,157.15L507.27,159.33L512.73,155.53L518.18,152.94L523.64,152.14L529.09,154.96L534.55,160.06L540,157.55" style="vector-effect: non-scaling-stroke; fill: none; stroke: rgb(0, 191, 125); stroke-opacity: 1; stroke-width: 2px; opacity: 1;"/></g><g class="points"/><g class="text"/></g><g class="trace scatter trace715e10" style="stroke-miterlimit: 2; opacity: 1;"><g class="fills"/><g class="errorbars"/><g class="lines"><path class="js-line" d="M0,57.38L5.45,67.09L10.91,69.74L16.36,72.25L21.82,73.69L38.18,77.15L43.64,78.21L70.91,83.4L76.36,84.82L81.82,85.22L87.27,86.72L103.64,89.13L109.09,87.75L114.55,90.77L120,92.53L130.91,95.83L136.36,95.59L141.82,96.33L147.27,98.59L180,108.76L185.45,110.01L190.91,113.79L196.36,113.79L207.27,117.4L212.73,121.11L218.18,122.94L223.64,123.89L240,131.85L245.45,133.48L256.36,139.45L261.82,143.58L278.18,146.75L283.64,148.64L305.45,155L310.91,157.59L316.36,156.49L321.82,156.16L327.27,158.72L332.73,160.4L338.18,159.32L343.64,165.64L349.09,160.42L354.55,163.58L360,161.16L365.45,164.79L370.91,161.06L376.36,167.13L381.82,165.91L387.27,168.12L392.73,167.29L398.18,167.29L403.64,170.42L409.09,165.85L414.55,164.45L420,164.75L425.45,168.31L430.91,166.36L436.36,165.82L441.82,166.71L447.27,170.04L452.73,163.8L458.18,169.31L463.64,168.88L469.09,163.94L474.55,169.39L480,162.14L485.45,167.21L490.91,167.1L496.36,172.51L501.82,167.18L507.27,168.4L512.73,159.07L518.18,167.09L523.64,154.51L529.09,164.71L534.55,170.9L540,159.25" style="vector-effect: non-scaling-stroke; fill: none; stroke: rgb(0, 176, 246); stroke-opacity: 1; stroke-width: 2px; opacity: 1;"/></g><g class="points"/><g class="text"/></g><g class="trace scatter trace4f2f5c" style="stroke-miterlimit: 2; opacity: 1;"><g class="fills"/><g class="errorbars"/><g class="lines"><path class="js-line" d="M0,56.76L5.45,66.5L10.91,69.68L16.36,72.23L21.82,73.7L32.73,76.18L38.18,77.56L49.09,78.75L54.55,79.88L65.45,81.01L70.91,82.5L76.36,82.67L81.82,83.94L87.27,85.27L92.73,85.56L98.18,88.13L103.64,87.8L114.55,90.42L120,92.11L136.36,96.02L141.82,95.95L147.27,98.81L152.73,99.77L158.18,99.86L163.64,102.46L169.09,104.72L174.55,105.92L185.45,108.24L190.91,111.55L196.36,112.95L201.82,113.3L207.27,115.79L212.73,115.29L218.18,115.49L223.64,118.78L229.09,120.63L234.55,125.39L240,126.23L245.45,127.89L250.91,129.68L256.36,128.46L261.82,128.28L267.27,129.27L278.18,128.94L283.64,130.37L289.09,129.71L294.55,127.92L305.45,130.87L310.91,127.34L316.36,129.62L321.82,128.14L327.27,129.83L332.73,126.06L338.18,130.33L343.64,126.88L349.09,124.59L354.55,126.55L360,122.59L365.45,123.08L370.91,116.89L376.36,114.81L381.82,115.47L387.27,106.68L392.73,109.48L398.18,103.43L403.64,87.16L409.09,94.63L414.55,89.31L420,82.5L425.45,78.37L430.91,64.9L436.36,58.98L441.82,63.81L447.27,60.44L452.73,63.38L458.18,62.83L463.64,60.96L469.09,35.88L474.55,45.2L480,51.98L485.45,50.4L490.91,35.45L496.36,60.48L501.82,60.14L507.27,56.11L512.73,56.6L518.18,47.77L523.64,60.81L529.09,53.42L534.55,62.23L540,43.2" style="vector-effect: non-scaling-stroke; fill: none; stroke: rgb(231, 107, 243); stroke-opacity: 1; stroke-width: 2px; opacity: 1;"/></g><g class="points"/><g class="text"/></g></g></g><g class="overplot"/><path class="xlines-above crisp" d="" style="fill: none; stroke-width: 1px; stroke: rgb(0, 0, 0); stroke-opacity: 0;"/><path class="ylines-above crisp" d="" style="fill: none; stroke-width: 1px; stroke: rgb(0, 0, 0); stroke-opacity: 0;"/><g class="overlines-above"/><g class="xaxislayer-above"><path class="xtick ticks crisp" d="M0,421v5" transform="translate(80,0)" style="stroke: rgb(51, 51, 51); stroke-opacity: 1; stroke-width: 1px;"/><path class="xtick ticks crisp" d="M0,421v5" transform="translate(189.09,0)" style="stroke: rgb(51, 51, 51); stroke-opacity: 1; stroke-width: 1px;"/><path class="xtick ticks crisp" d="M0,421v5" transform="translate(298.18,0)" style="stroke: rgb(51, 51, 51); stroke-opacity: 1; stroke-width: 1px;"/><path class="xtick ticks crisp" d="M0,421v5" transform="translate(407.27,0)" style="stroke: rgb(51, 51, 51); stroke-opacity: 1; stroke-width: 1px;"/><path class="xtick ticks crisp" d="M0,421v5" transform="translate(516.36,0)" style="stroke: rgb(51, 51, 51); stroke-opacity: 1; stroke-width: 1px;"/><g class="xtick"><text text-anchor="middle" x="0" y="440.4" transform="translate(80,0)" style="font-family: 'Open Sans', verdana, arial, sans-serif; font-size: 12px; fill: rgb(51, 51, 51); fill-opacity: 1; white-space: pre; opacity: 1;">0</text></g><g class="xtick"><text text-anchor="middle" x="0" y="440.4" style="font-family: 'Open Sans', verdana, arial, sans-serif; font-size: 12px; fill: rgb(51, 51, 51); fill-opacity: 1; white-space: pre; opacity: 1;" transform="translate(189.09,0)">20</text></g><g class="xtick"><text text-anchor="middle" x="0" y="440.4" style="font-family: 'Open Sans', verdana, arial, sans-serif; font-size: 12px; fill: rgb(51, 51, 51); fill-opacity: 1; white-space: pre; opacity: 1;" transform="translate(298.18,0)">40</text></g><g class="xtick"><text text-anchor="middle" x="0" y="440.4" style="font-family: 'Open Sans', verdana, arial, sans-serif; font-size: 12px; fill: rgb(51, 51, 51); fill-opacity: 1; white-space: pre; opacity: 1;" transform="translate(407.27,0)">60</text></g><g class="xtick"><text text-anchor="middle" x="0" y="440.4" style="font-family: 'Open Sans', verdana, arial, sans-serif; font-size: 12px; fill: rgb(51, 51, 51); fill-opacity: 1; white-space: pre; opacity: 1;" transform="translate(516.36,0)">80</text></g></g><g class="yaxislayer-above"><path class="ytick ticks crisp" d="M79,0h-5" transform="translate(0,401.82)" style="stroke: rgb(51, 51, 51); stroke-opacity: 1; stroke-width: 1px;"/><path class="ytick ticks crisp" d="M79,0h-5" transform="translate(0,366.15)" style="stroke: rgb(51, 51, 51); stroke-opacity: 1; stroke-width: 1px;"/><path class="ytick ticks crisp" d="M79,0h-5" transform="translate(0,330.48)" style="stroke: rgb(51, 51, 51); stroke-opacity: 1; stroke-width: 1px;"/><path class="ytick ticks crisp" d="M79,0h-5" transform="translate(0,294.82)" style="stroke: rgb(51, 51, 51); stroke-opacity: 1; stroke-width: 1px;"/><path class="ytick ticks crisp" d="M79,0h-5" transform="translate(0,259.15)" style="stroke: rgb(51, 51, 51); stroke-opacity: 1; stroke-width: 1px;"/><path class="ytick ticks crisp" d="M79,0h-5" transform="translate(0,223.48000000000002)" style="stroke: rgb(51, 51, 51); stroke-opacity: 1; stroke-width: 1px;"/><path class="ytick ticks crisp" d="M79,0h-5" transform="translate(0,187.82)" style="stroke: rgb(51, 51, 51); stroke-opacity: 1; stroke-width: 1px;"/><path class="ytick ticks crisp" d="M79,0h-5" transform="translate(0,152.15)" style="stroke: rgb(51, 51, 51); stroke-opacity: 1; stroke-width: 1px;"/><path class="ytick ticks crisp" d="M79,0h-5" transform="translate(0,116.48)" style="stroke: rgb(51, 51, 51); stroke-opacity: 1; stroke-width: 1px;"/><g class="ytick"><text text-anchor="end" x="71.6" y="4.199999999999999" transform="translate(0,401.82)" style="font-family: 'Open Sans', verdana, arial, sans-serif; font-size: 12px; fill: rgb(51, 51, 51); fill-opacity: 1; white-space: pre; opacity: 1;">1.1</text></g><g class="ytick"><text text-anchor="end" x="71.6" y="4.199999999999999" style="font-family: 'Open Sans', verdana, arial, sans-serif; font-size: 12px; fill: rgb(51, 51, 51); fill-opacity: 1; white-space: pre; opacity: 1;" transform="translate(0,366.15)">1.2</text></g><g class="ytick"><text text-anchor="end" x="71.6" y="4.199999999999999" style="font-family: 'Open Sans', verdana, arial, sans-serif; font-size: 12px; fill: rgb(51, 51, 51); fill-opacity: 1; white-space: pre; opacity: 1;" transform="translate(0,330.48)">1.3</text></g><g class="ytick"><text text-anchor="end" x="71.6" y="4.199999999999999" style="font-family: 'Open Sans', verdana, arial, sans-serif; font-size: 12px; fill: rgb(51, 51, 51); fill-opacity: 1; white-space: pre; opacity: 1;" transform="translate(0,294.82)">1.4</text></g><g class="ytick"><text text-anchor="end" x="71.6" y="4.199999999999999" style="font-family: 'Open Sans', verdana, arial, sans-serif; font-size: 12px; fill: rgb(51, 51, 51); fill-opacity: 1; white-space: pre; opacity: 1;" transform="translate(0,259.15)">1.5</text></g><g class="ytick"><text text-anchor="end" x="71.6" y="4.199999999999999" style="font-family: 'Open Sans', verdana, arial, sans-serif; font-size: 12px; fill: rgb(51, 51, 51); fill-opacity: 1; white-space: pre; opacity: 1;" transform="translate(0,223.48000000000002)">1.6</text></g><g class="ytick"><text text-anchor="end" x="71.6" y="4.199999999999999" style="font-family: 'Open Sans', verdana, arial, sans-serif; font-size: 12px; fill: rgb(51, 51, 51); fill-opacity: 1; white-space: pre; opacity: 1;" transform="translate(0,187.82)">1.7</text></g><g class="ytick"><text text-anchor="end" x="71.6" y="4.199999999999999" style="font-family: 'Open Sans', verdana, arial, sans-serif; font-size: 12px; fill: rgb(51, 51, 51); fill-opacity: 1; white-space: pre; opacity: 1;" transform="translate(0,152.15)">1.8</text></g><g class="ytick"><text text-anchor="end" x="71.6" y="4.199999999999999" style="font-family: 'Open Sans', verdana, arial, sans-serif; font-size: 12px; fill: rgb(51, 51, 51); fill-opacity: 1; white-space: pre; opacity: 1;" transform="translate(0,116.48)">1.9</text></g></g><g class="overaxes-above"/></g></g><g class="polarlayer"/><g class="ternarylayer"/><g class="geolayer"/><g class="funnelarealayer"/><g class="pielayer"/><g class="iciclelayer"/><g class="treemaplayer"/><g class="sunburstlayer"/><g class="glimages"/><defs id="topdefs-c9e1e0"><g class="clips"/></defs><g class="layer-above"><g class="imagelayer"/><g class="shapelayer"/></g><g class="infolayer"><g class="g-gtitle"><text class="gtitle" x="350" y="50" text-anchor="middle" dy="0em" style="font-family: 'Open Sans', verdana, arial, sans-serif; font-size: 17px; fill: rgb(51, 51, 51); opacity: 1; font-weight: normal; white-space: pre;">Train Loss: ascad_v1_fk_0-aisy_mlp_hw (early_stopping)</text></g><g class="g-xtitle"/><g class="g-ytitle"/></g></svg>