<svg class="main-svg" xmlns="http://www.w3.org/2000/svg" xmlns:xlink="http://www.w3.org/1999/xlink" width="700" height="500" style="" viewBox="0 0 700 500"><rect x="0" y="0" width="700" height="500" style="fill: rgb(255, 255, 255); fill-opacity: 1;"/><defs id="defs-cda87b"><g class="clips"><clipPath id="clipcda87bxyplot" class="plotclip"><rect width="540" height="320"/></clipPath><clipPath class="axesclip" id="clipcda87bx"><rect x="80" y="0" width="540" height="500"/></clipPath><clipPath class="axesclip" id="clipcda87by"><rect x="0" y="100" width="700" height="320"/></clipPath><clipPath class="axesclip" id="clipcda87bxy"><rect x="80" y="100" width="540" height="320"/></clipPath></g><g class="gradients"/><g class="patterns"/></defs><g class="bglayer"><rect class="bg" x="80" y="100" width="540" height="320" style="fill: rgb(237, 237, 237); fill-opacity: 1; stroke-width: 0;"/></g><g class="layer-below"><g class="imagelayer"/><g class="shapelayer"/></g><g class="cartesianlayer"><g class="subplot xy"><g class="layer-subplot"><g class="shapelayer"/><g class="imagelayer"/></g><g class="gridlayer"><g class="x"><path class="xgrid crisp" transform="translate(189.09,0)" d="M0,100v320" style="stroke: rgb(255, 255, 255); stroke-opacity: 1; stroke-width: 1px;"/><path class="xgrid crisp" transform="translate(298.18,0)" d="M0,100v320" style="stroke: rgb(255, 255, 255); stroke-opacity: 1; stroke-width: 1px;"/><path class="xgrid crisp" transform="translate(407.27,0)" d="M0,100v320" style="stroke: rgb(255, 255, 255); stroke-opacity: 1; stroke-width: 1px;"/><path class="xgrid crisp" transform="translate(516.36,0)" d="M0,100v320" style="stroke: rgb(255, 255, 255); stroke-opacity: 1; stroke-width: 1px;"/></g><g class="y"><path class="ygrid crisp" transform="translate(0,408.48)" d="M80,0h540" style="stroke: rgb(255, 255, 255); stroke-opacity: 1; stroke-width: 1px;"/><path class="ygrid crisp" transform="translate(0,358.34)" d="M80,0h540" style="stroke: rgb(255, 255, 255); stroke-opacity: 1; stroke-width: 1px;"/><path class="ygrid crisp" transform="translate(0,308.2)" d="M80,0h540" style="stroke: rgb(255, 255, 255); stroke-opacity: 1; stroke-width: 1px;"/><path class="ygrid crisp" transform="translate(0,258.06)" d="M80,0h540" style="stroke: rgb(255, 255, 255); stroke-opacity: 1; stroke-width: 1px;"/><path class="ygrid crisp" transform="translate(0,207.92000000000002)" d="M80,0h540" style="stroke: rgb(255, 255, 255); stroke-opacity: 1; stroke-width: 1px;"/><path class="ygrid crisp" transform="translate(0,157.78)" d="M80,0h540" style="stroke: rgb(255, 255, 255); stroke-opacity: 1; stroke-width: 1px;"/><path class="ygrid crisp" transform="translate(0,107.64)" d="M80,0h540" style="stroke: rgb(255, 255, 255); stroke-opacity: 1; stroke-width: 1px;"/></g></g><g class="zerolinelayer"><path class="xzl zl crisp" transform="translate(80,0)" d="M0,100v320" style="stroke: rgb(255, 255, 255); stroke-opacity: 1; stroke-width: 1px;"/></g><path class="xlines-below"/><path class="ylines-below"/><g class="overlines-below"/><g class="xaxislayer-below"/><g class="yaxislayer-below"/><g class="overaxes-below"/><g class="plot" transform="translate(80,100)" clip-path="url(#clipcda87bxyplot)"><g class="scatterlayer mlayer"><g class="trace scatter trace2a5009" style="stroke-miterlimit: 2; opacity: 1;"><g class="fills"/><g class="errorbars"/><g class="lines"><path class="js-line" d="M0,298.92L5.45,290.43L10.91,284.64L16.36,286.11L21.82,282.56L27.27,285.1L32.73,280.94L38.18,283.36L43.64,281.49L49.09,281.49L54.55,279.31L60,280.2L65.45,280.11L70.91,279.87L76.36,277.53L81.82,276.55L87.27,274.67L92.73,274.41L98.18,273.07L103.64,274.01L109.09,273L114.55,274.03L120,272.4L125.45,270.8L130.91,270.15L147.27,268.26L152.73,268.55L158.18,266.9L163.64,266.7L169.09,262.46L174.55,262.8L185.45,259.43L190.91,258.79L196.36,252.9L201.82,254.64L207.27,251.83L212.73,250.94L218.18,249.74L223.64,246.82L229.09,246.73L234.55,244.88L240,242.54L245.45,243.54L250.91,242.43L256.36,240.45L267.27,233.96L272.73,233.47L278.18,234.58L283.64,228.14L289.09,230.42L294.55,228.14L300,227.88L305.45,225.14L310.91,223.2L316.36,218.43L321.82,221.68L327.27,220.12L332.73,218.07L338.18,215.11L343.64,214.93L349.09,216.98L354.55,215.18L360,211.34L365.45,212.35L370.91,210.36L376.36,206.28L381.82,208.36L387.27,206.28L392.73,205.62L403.64,200.11L409.09,200.29L414.55,194.94L420,195.88L430.91,191.47L436.36,190.55L441.82,187.1L447.27,189.73L452.73,184.27L458.18,185.45L463.64,185.14L469.09,182.2L474.55,181.48L480,182.86L490.91,180.66L496.36,183.44L501.82,180.99L507.27,182.64L512.73,182.06L518.18,183.67L523.64,180.99L529.09,179.52L534.55,178.94L540,180.55" style="vector-effect: non-scaling-stroke; fill: none; stroke: rgb(248, 118, 109); stroke-opacity: 1; stroke-width: 2px; opacity: 1;"/></g><g class="points"/><g class="text"/></g><g class="trace scatter trace249862" style="stroke-miterlimit: 2; opacity: 1;"><g class="fills"/><g class="errorbars"/><g class="lines"><path class="js-line" d="M0,296.76L5.45,289.43L10.91,287.67L16.36,283.79L21.82,284.14L32.73,282.3L38.18,281.74L43.64,281.65L49.09,282.58L54.55,281.4L60,279.29L65.45,281.09L70.91,279.33L76.36,277.15L81.82,281.14L87.27,275.86L92.73,275.19L98.18,278.53L103.64,277.42L109.09,273.8L114.55,273.63L120,271.53L125.45,272.58L130.91,269.84L136.36,268.61L141.82,268.14L147.27,265.94L152.73,262.97L158.18,262.73L163.64,259.74L169.09,259.7L174.55,255.44L180,253.93L185.45,250.67L190.91,250.5L196.36,248.09L201.82,244.26L207.27,241.2L212.73,240.18L218.18,236.92L223.64,237.73L229.09,234.79L234.55,233.34L240,229.19L245.45,226.32L250.91,225.54L256.36,218.67L261.82,220.52L267.27,216.62L272.73,216.76L278.18,212.61L283.64,208.96L289.09,203.12L300,202.9L305.45,200.51L310.91,194.16L316.36,191.87L321.82,189.66L327.27,183.71L332.73,181.75L338.18,181.37L343.64,173.82L349.09,174.62L354.55,170.72L360,164.77L365.45,159.29L370.91,158.13L376.36,159.18L381.82,153.76L387.27,152.22L392.73,148.99L398.18,144.33L403.64,143.13L414.55,139.34L420,134.28L430.91,126.71L436.36,126.84L452.73,121.72L458.18,118.66L463.64,114.56L469.09,114.76L474.55,113.27L480,112.89L485.45,105.76L490.91,106.61L496.36,105.43L501.82,105.49L507.27,100.81L512.73,99.16L518.18,97.03L523.64,96.22L529.09,91.43L534.55,89.56L540,89.78" style="vector-effect: non-scaling-stroke; fill: none; stroke: rgb(163, 165, 0); stroke-opacity: 1; stroke-width: 2px; opacity: 1;"/></g><g class="points"/><g class="text"/></g><g class="trace scatter traceaff75a" style="stroke-miterlimit: 2; opacity: 1;"><g class="fills"/><g class="errorbars"/><g class="lines"><path class="js-line" d="M0,299.72L5.45,290.09L10.91,285.24L16.36,286.17L21.82,284.43L27.27,281.85L32.73,282.67L38.18,281.85L43.64,279.84L49.09,281.47L54.55,279.78L60,280.45L65.45,280.07L70.91,277.55L76.36,279.15L87.27,276.48L92.73,276.81L114.55,273.58L120,272.4L130.91,271.71L136.36,269.66L141.82,266.07L147.27,268.81L152.73,264.85L158.18,263.8L163.64,263.84L169.09,262.04L174.55,257.94L180,255.29L185.45,253.68L190.91,253.59L196.36,249.18L201.82,247.29L207.27,245.55L212.73,242.21L218.18,235.74L223.64,238.04L229.09,233.76L234.55,228.28L240,223.87L245.45,221.68L250.91,221.91L256.36,215.53L261.82,216.07L267.27,210.85L272.73,207.89L278.18,203.77L283.64,199.55L289.09,199.64L294.55,193.27L300,191.18L305.45,188.43L310.91,183.73L316.36,180.68L321.82,179.21L327.27,175.89L332.73,170.92L338.18,168.98L343.64,165.3L349.09,163.3L354.55,162.65L360,160.78L365.45,153.85L376.36,154.32L381.82,151.93L387.27,146.54L392.73,147.86L403.64,140.59L409.09,140.86L414.55,139.45L420,135.82L425.45,138.65L430.91,134.08L436.36,131.7L441.82,131.34L447.27,131.77L452.73,133.33L458.18,129.98L463.64,130.9L469.09,125.46L474.55,127.8L480,126.95L485.45,130.36L490.91,128.98L496.36,123.57L501.82,124.7L507.27,123.34L512.73,121.45L518.18,124.17L523.64,121.38L529.09,122.79L534.55,120.94L540,117.79" style="vector-effect: non-scaling-stroke; fill: none; stroke: rgb(0, 191, 125); stroke-opacity: 1; stroke-width: 2px; opacity: 1;"/></g><g class="points"/><g class="text"/></g><g class="trace scatter traceccd11f" style="stroke-miterlimit: 2; opacity: 1;"><g class="fills"/><g class="errorbars"/><g class="lines"><path class="js-line" d="M0,298.01L5.45,290.34L10.91,288.31L16.36,286.19L21.82,282.76L27.27,283.41L32.73,282.76L43.64,281.4L49.09,279.84L60,278.97L65.45,280.85L76.36,275.19L81.82,276.35L87.27,275.28L92.73,276.3L98.18,273.65L103.64,274.94L109.09,272.56L114.55,272.31L120,270.48L125.45,266.72L130.91,266.54L136.36,263.15L141.82,263.51L147.27,262.28L152.73,263.71L158.18,259.41L163.64,256.31L169.09,257.07L174.55,252.48L180,254.53L185.45,253.75L190.91,248.6L201.82,244.3L207.27,242.87L212.73,240.6L218.18,241.6L229.09,233.92L234.55,236.43L245.45,222.44L250.91,225.25L256.36,221.37L261.82,220.68L267.27,214.35L272.73,212.3L283.64,201.81L289.09,198.4L294.55,195.79L300,191.55L305.45,185.6L310.91,183.73L316.36,179.63L321.82,176.6L327.27,169.98L332.73,167.96L338.18,166.26L343.64,160.91L349.09,159.71L354.55,154.87L360,153.49L365.45,149.17L370.91,143L376.36,139.05L381.82,135.24L387.27,132.99L398.18,127.18L403.64,125.55L414.55,117.84L420,115.65L425.45,112.07L430.91,106.94L441.82,104.16L447.27,103.62L452.73,96.25L458.18,97.85L463.64,93.88L469.09,92.55L474.55,86.77L480,83.61L485.45,79.13L490.91,77.33L496.36,76.1L501.82,73.85L512.73,70.86L518.18,68.57L523.64,61.79L529.09,58.67L540,55.87" style="vector-effect: non-scaling-stroke; fill: none; stroke: rgb(0, 176, 246); stroke-opacity: 1; stroke-width: 2px; opacity: 1;"/></g><g class="points"/><g class="text"/></g><g class="trace scatter trace4fb9f3" style="stroke-miterlimit: 2; opacity: 1;"><g class="fills"/><g class="errorbars"/><g class="lines"><path class="js-line" d="M0,297.94L5.45,290.38L10.91,286.44L16.36,283.86L21.82,284.41L27.27,284.28L32.73,282.43L38.18,280.38L43.64,281.27L49.09,278.06L54.55,280.6L65.45,277.73L70.91,277.28L76.36,277.13L81.82,280.33L87.27,275.77L92.73,275.08L98.18,277.46L103.64,276.57L109.09,277.44L114.55,272.67L120,272.89L125.45,269.62L141.82,269.79L147.27,266.32L158.18,263.11L163.64,261.55L169.09,260.68L174.55,257.49L185.45,253.3L190.91,252.28L196.36,251.41L201.82,247.64L207.27,248.07L212.73,246.02L218.18,240.42L223.64,239.67L229.09,235.14L234.55,235.61L240,229.99L245.45,225.67L250.91,222.33L256.36,220.19L261.82,220.28L267.27,215.98L272.73,211.63L278.18,204.12L294.55,203.16L300,199.24L305.45,195.68L310.91,189.08L316.36,188.75L321.82,186.81L332.73,183.6L338.18,176.76L343.64,180.97L349.09,177.47L354.55,176.6L360,171.45L365.45,171.68L370.91,167.96L376.36,165.62L381.82,160.94L387.27,162.14L392.73,159.11L398.18,155.52L403.64,154.05L409.09,150.35L414.55,152.76L425.45,148.28L430.91,147.36L436.36,143.87L441.82,145.76L447.27,149.93L452.73,148.72L458.18,150.19L463.64,145.67L469.09,146.25L474.55,145.49L480,145.94L485.45,150.37L490.91,149.28L496.36,147.16L501.82,149.53L507.27,149.17L512.73,155.86L518.18,154.27L529.09,155.12L534.55,152.85L540,159.22" style="vector-effect: non-scaling-stroke; fill: none; stroke: rgb(231, 107, 243); stroke-opacity: 1; stroke-width: 2px; opacity: 1;"/></g><g class="points"/><g class="text"/></g><g class="trace scatter trace1168dc" style="stroke-miterlimit: 2; opacity: 1;"><g class="fills"/><g class="errorbars"/><g class="lines"><path class="js-line" d="M0,299.65L5.45,288.89L10.91,286.62L16.36,286.13L21.82,284.7L27.27,284.79L32.73,282.38L38.18,282.58L43.64,281.58L49.09,281.63L54.55,278.31L60,276.79L65.45,281.83L70.91,279.22L76.36,279.6L81.82,279.91L87.27,276.59L92.73,277.88L98.18,275.39L103.64,276.43L109.09,274.61L120,270.04L125.45,271.53L130.91,271.26L136.36,266.94L141.82,267.63L147.27,266.43L152.73,264.09L158.18,263.13L180,252.23L185.45,254.62L190.91,247.33L196.36,244.19L201.82,245.26L207.27,241.56L212.73,240.2L218.18,235.14L223.64,229.68L229.09,229.04L234.55,226.74L240,223.35L245.45,221.04L250.91,215.8L256.36,212.9L261.82,209.07L272.73,203.34L278.18,201.92L283.64,196.88L289.09,196.97L294.55,192.16L300,188.88L305.45,185.8L310.91,179.92L316.36,181.62L321.82,175.55L327.27,174.91L332.73,172.5L338.18,166.75L343.64,164.77L349.09,164.32L354.55,159.15L360,155.99L365.45,156.43L370.91,155.57L376.36,149.73L381.82,150.28L387.27,145.65L392.73,144.49L398.18,141.7L403.64,140.66L409.09,143.09L414.55,136.76L420,136.18L425.45,134.6L430.91,130.52L436.36,131.14L441.82,129.52L452.73,129.29L458.18,127.42L463.64,125.04L469.09,125.13L474.55,127.47L480,124.26L485.45,122.99L490.91,122.92L496.36,120.98L501.82,127.58L507.27,124.32L512.73,129.67L518.18,128.4L523.64,132.03L529.09,129.03L534.55,133.55L540,136.13" style="vector-effect: non-scaling-stroke; fill: none; stroke: rgb(248, 118, 109); stroke-opacity: 1; stroke-width: 2px; opacity: 1;"/></g><g class="points"/><g class="text"/></g><g class="trace scatter traceec9cdb" style="stroke-miterlimit: 2; opacity: 1;"><g class="fills"/><g class="errorbars"/><g class="lines"><path class="js-line" d="M0,301.79L5.45,290.34L10.91,286.33L16.36,284.23L21.82,283.19L27.27,285.55L32.73,282.03L43.64,282.27L49.09,280.62L54.55,281.85L60,279.82L70.91,280.02L76.36,277.88L81.82,278.84L87.27,277.42L92.73,276.21L98.18,276.01L103.64,275.86L109.09,274.9L114.55,272.47L120,273.27L125.45,272.71L130.91,267.86L136.36,269.55L141.82,266.72L152.73,264.96L158.18,259.72L163.64,260.61L169.09,256.47L174.55,253.91L180,249.63L185.45,250.38L190.91,245.75L196.36,243.48L201.82,237.57L207.27,236.35L212.73,232.49L223.64,224L229.09,220.26L234.55,216.56L240,211.08L245.45,208.69L250.91,205.37L256.36,201.81L261.82,199.55L267.27,198.46L272.73,191.22L278.18,194.47L283.64,186.03L289.09,183.87L294.55,178.72L305.45,175.82L310.91,166.4L316.36,165.7L321.82,161.03L327.27,158.89L332.73,158.37L338.18,150.28L343.64,151.15L349.09,146.18L354.55,142.82L360,140.1L365.45,140.59L370.91,135.96L376.36,135.67L381.82,132.48L387.27,128.38L392.73,126.19L398.18,124.97L403.64,121.96L409.09,122.54L414.55,118.4L420,116.21L425.45,115.9L430.91,114.52L436.36,110.42L441.82,104.58L447.27,106.21L452.73,102.06L458.18,104.85L463.64,101.35L469.09,99.92L474.55,97.03L480,93.15L485.45,93.86L496.36,85.13L501.82,85.7L518.18,80.04L523.64,79.33L529.09,76.08L534.55,77.66L540,77.19" style="vector-effect: non-scaling-stroke; fill: none; stroke: rgb(163, 165, 0); stroke-opacity: 1; stroke-width: 2px; opacity: 1;"/></g><g class="points"/><g class="text"/></g><g class="trace scatter trace4f9bb7" style="stroke-miterlimit: 2; opacity: 1;"><g class="fills"/><g class="errorbars"/><g class="lines"><path class="js-line" d="M0,299.86L5.45,291.61L10.91,288.25L16.36,286.37L21.82,286.06L38.18,282.16L43.64,280.31L49.09,282.85L54.55,280.22L65.45,279.18L70.91,278.53L76.36,276.77L81.82,276.52L87.27,277.97L92.73,278.04L98.18,276.81L103.64,273.27L114.55,273.96L120,274.54L125.45,272.76L130.91,271.96L136.36,269.68L141.82,268.68L147.27,270.22L152.73,267.63L158.18,266.9L163.64,267.74L169.09,261.95L174.55,260.26L180,261.26L185.45,258.61L196.36,251.74L201.82,251.63L207.27,253.08L212.73,248.04L218.18,243.63L223.64,243.08L229.09,241.4L234.55,241.25L240,238.37L245.45,232.38L250.91,233.23L256.36,228.86L267.27,224.56L272.73,220.64L278.18,216.74L283.64,214.73L289.09,213.06L294.55,208.53L300,206.4L305.45,202.23L316.36,194.34L321.82,194.65L332.73,186.56L338.18,184.33L343.64,180.19L349.09,177.16L360,170.52L365.45,169.05L376.36,162.01L381.82,162.85L387.27,158.17L392.73,155.05L398.18,151.55L403.64,146.63L409.09,143.53L414.55,141.48L420,140.39L425.45,135.53L430.91,133.33L436.36,125.84L441.82,123.54L447.27,120.09L452.73,119.44L458.18,114.58L463.64,110.89L469.09,113.67L480,105.34L485.45,104.04L490.91,100.64L496.36,99.03L501.82,96.65L507.27,92.3L512.73,90.05L518.18,85.57L523.64,82.5L529.09,82.05L534.55,74.76L540,72" style="vector-effect: non-scaling-stroke; fill: none; stroke: rgb(0, 191, 125); stroke-opacity: 1; stroke-width: 2px; opacity: 1;"/></g><g class="points"/><g class="text"/></g><g class="trace scatter trace0090de" style="stroke-miterlimit: 2; opacity: 1;"><g class="fills"/><g class="errorbars"/><g class="lines"><path class="js-line" d="M0,299.59L5.45,288.98L10.91,286.11L16.36,285.15L21.82,285.24L27.27,285.53L32.73,281.96L38.18,284.12L43.64,281.72L49.09,282.85L54.55,282.12L65.45,280.67L70.91,278.37L81.82,278.55L87.27,277.93L92.73,278.64L98.18,277.24L109.09,274.16L114.55,274.21L120,273.03L125.45,273.18L130.91,273.16L136.36,270.55L147.27,269.04L152.73,269.44L158.18,264.45L163.64,265.58L174.55,262.06L180,260.06L185.45,260.23L190.91,255.04L196.36,254.13L201.82,254.31L207.27,253.62L212.73,249.05L218.18,247.78L223.64,250.32L229.09,243.86L234.55,244.55L245.45,237.37L250.91,235.34L261.82,229.04L267.27,228.17L272.73,224.6L278.18,223.18L283.64,219.41L289.09,219.28L294.55,215.2L300,213.06L305.45,211.28L310.91,206.66L316.36,211.5L321.82,206.53L327.27,204.81L332.73,205.26L338.18,199.44L343.64,200.36L354.55,191.67L360,193.03L365.45,194.09L370.91,188.3L376.36,193.29L381.82,191.55L387.27,190.75L392.73,191.18L398.18,187.32L403.64,186.74L409.09,190.82L414.55,193L420,189.17L425.45,188.57L430.91,188.28L436.36,183.31L441.82,177.76L447.27,174.46L458.18,176.13L463.64,173.55L469.09,175.62L474.55,175.42L480,170.61L485.45,169.36L490.91,170.47L496.36,169.38L501.82,169.74L507.27,166.75L512.73,168.22L518.18,166.33L523.64,168.47L529.09,167.75L534.55,169.09L540,171.3" style="vector-effect: non-scaling-stroke; fill: none; stroke: rgb(0, 176, 246); stroke-opacity: 1; stroke-width: 2px; opacity: 1;"/></g><g class="points"/><g class="text"/></g><g class="trace scatter trace99db4c" style="stroke-miterlimit: 2; opacity: 1;"><g class="fills"/><g class="errorbars"/><g class="lines"><path class="js-line" d="M0,300.66L5.45,288.87L10.91,287.33L16.36,284.7L21.82,285.66L27.27,281.87L32.73,282.92L38.18,282.76L43.64,283.52L54.55,281.07L60,279.04L65.45,278.97L70.91,280.56L87.27,276.84L92.73,278.08L98.18,276.23L103.64,273.05L114.55,272.6L120,274.54L125.45,272.29L130.91,269.21L141.82,268.81L147.27,266.65L158.18,260.99L163.64,262.8L169.09,258.81L174.55,257.72L180,254.33L185.45,252.41L190.91,248.13L196.36,249.07L201.82,244.84L207.27,244.46L212.73,238.66L218.18,234.58L223.64,233.36L229.09,229.35L234.55,229.04L240,224.69L245.45,220.46L250.91,218.74L256.36,212.06L261.82,212.99L267.27,212.3L272.73,206.4L278.18,205.59L283.64,198.06L289.09,197.06L294.55,193.38L300,192.51L305.45,189.68L310.91,188.06L316.36,182.22L321.82,178.45L327.27,176.58L332.73,171.61L338.18,173.39L343.64,167.98L349.09,167.58L354.55,162.99L360,159.51L365.45,159.04L370.91,154.21L376.36,151.75L381.82,147.14L387.27,143.44L392.73,143.47L398.18,140.23L403.64,141.24L409.09,139.34L414.55,132.37L420,133.21L425.45,131.12L430.91,128.16L436.36,123.12L441.82,125.06L447.27,124.26L452.73,117.17L458.18,113.34L469.09,115.08L474.55,110.04L480,107.01L485.45,107.32L490.91,106.38L496.36,103.62L501.82,101.28L507.27,103.55L512.73,102.2L518.18,99.08L523.64,96.98L529.09,96.96L534.55,94.06L540,95.11" style="vector-effect: non-scaling-stroke; fill: none; stroke: rgb(231, 107, 243); stroke-opacity: 1; stroke-width: 2px; opacity: 1;"/></g><g class="points"/><g class="text"/></g><g class="trace scatter trace2c8da2" style="stroke-miterlimit: 2; opacity: 1;"><g class="fills"/><g class="errorbars"/><g class="lines"><path class="js-line" d="M0,299.14L5.45,290.3L10.91,286.64L16.36,284.75L21.82,285.17L27.27,282.92L32.73,283.86L38.18,280.47L43.64,281.67L49.09,281.87L54.55,279.96L60,278.89L65.45,279.84L76.36,278.15L81.82,275.94L98.18,275.86L103.64,275.12L114.55,273.4L120,273.58L125.45,272.45L130.91,273.07L136.36,272.49L141.82,270.71L147.27,271.53L152.73,269.35L158.18,270.24L163.64,266.54L169.09,267.72L174.55,266.79L180,263.82L185.45,263.96L190.91,264.22L196.36,262.62L207.27,259.21L212.73,258.81L218.18,255.8L223.64,253.68L229.09,254.48L234.55,253.26L240,252.23L245.45,250.01L250.91,248.13L256.36,249.2L261.82,242.92L267.27,242.05L272.73,242.7L278.18,240.51L283.64,242.25L289.09,235.83L294.55,239.55L300,238.22L305.45,238.19L310.91,236.46L316.36,234.65L321.82,235.03L327.27,233.18L332.73,232.47L338.18,234.18L343.64,232.25L349.09,234.07L354.55,230.69L360,230.44L365.45,228.66L370.91,231.02L376.36,229.15L381.82,231.58L387.27,229.84L392.73,233.6L398.18,233.65L403.64,231.15L409.09,230.04L414.55,229.19L420,227.08L430.91,227.74L436.36,225.56L441.82,224L447.27,226.7L452.73,228.26L458.18,223.22L463.64,226.9L469.09,226.81L474.55,226.94L480,231L485.45,228.1L490.91,228.12L496.36,228.92L501.82,228.3L512.73,231.06L518.18,227.72L523.64,229.48L529.09,229.06L534.55,228.95L540,231.09" style="vector-effect: non-scaling-stroke; fill: none; stroke: rgb(248, 118, 109); stroke-opacity: 1; stroke-width: 2px; opacity: 1;"/></g><g class="points"/><g class="text"/></g><g class="trace scatter trace3be9a5" style="stroke-miterlimit: 2; opacity: 1;"><g class="fills"/><g class="errorbars"/><g class="lines"><path class="js-line" d="M0,300.12L5.45,290.87L10.91,285.82L16.36,284.86L21.82,284.81L27.27,283.45L32.73,283.39L43.64,281.8L49.09,280.29L54.55,281.43L60,279.04L65.45,279.87L70.91,279.8L87.27,277.66L92.73,277.19L103.64,272.67L109.09,271.06L114.55,272.07L120,267.88L125.45,270.48L130.91,267.77L136.36,267.39L141.82,265.05L147.27,263.44L152.73,263.02L163.64,259.83L169.09,259.92L174.55,255.18L180,254.71L185.45,251.59L190.91,249.72L196.36,248.42L201.82,245.93L207.27,244.32L212.73,240.82L218.18,238.31L223.64,234.45L234.55,231.84L240,230.04L245.45,227.65L250.91,222.84L256.36,221.33L261.82,216.71L267.27,216.49L272.73,214.66L278.18,214.31L283.64,211.19L289.09,204.88L294.55,201.85L300,201.27L305.45,199.02L310.91,194.79L316.36,192.56L321.82,191.4L327.27,188.19L332.73,187.05L338.18,183.11L343.64,179.14L349.09,177.16L360,170.9L365.45,171.63L370.91,167.89L376.36,168.07L381.82,170.07L387.27,163.21L392.73,160.18L398.18,160.09L409.09,155.48L414.55,149.06L420,148.68L425.45,147.01L430.91,148.08L436.36,142.35L441.82,141.48L447.27,136.49L458.18,132.99L463.64,135.44L469.09,129.6L474.55,127.38L480,125.37L485.45,125.3L490.91,122.36L496.36,117.62L501.82,115.63L507.27,119.04L518.18,110.46L523.64,112.69L529.09,105.52L534.55,104.25L540,105.14" style="vector-effect: non-scaling-stroke; fill: none; stroke: rgb(163, 165, 0); stroke-opacity: 1; stroke-width: 2px; opacity: 1;"/></g><g class="points"/><g class="text"/></g><g class="trace scatter tracea70107" style="stroke-miterlimit: 2; opacity: 1;"><g class="fills"/><g class="errorbars"/><g class="lines"><path class="js-line" d="M0,300.55L5.45,290.36L10.91,289.09L16.36,284.23L21.82,283.08L27.27,284.1L32.73,282.54L38.18,280.85L43.64,284.03L49.09,283.77L54.55,280.18L60,280.51L65.45,279L70.91,277.84L76.36,278.06L87.27,276.35L92.73,276.1L98.18,275.21L103.64,271.71L109.09,272.27L114.55,273.63L120,273.29L125.45,269.95L130.91,269.53L136.36,265.38L141.82,267.45L147.27,264.67L152.73,265.11L158.18,262.86L163.64,260.7L169.09,261.28L174.55,255.38L180,255.6L185.45,252.95L190.91,252.9L207.27,247.09L212.73,246.51L218.18,240.29L223.64,239.18L229.09,237.33L234.55,233.49L240,232.89L245.45,227.97L256.36,224.09L261.82,219.79L267.27,221.99L272.73,214.17L278.18,215.96L283.64,212.48L289.09,208.22L294.55,209.74L300,204.64L305.45,201.54L310.91,203.88L316.36,196.9L321.82,197.59L327.27,193.72L332.73,191L338.18,191.8L343.64,190.42L349.09,184.89L354.55,183.73L360,179.3L365.45,181.37L370.91,181.37L376.36,172.95L381.82,173.57L387.27,165.35L392.73,167.42L398.18,163.48L403.64,163.14L414.55,161.69L420,159.4L425.45,157.7L430.91,158.13L436.36,157.17L441.82,150.46L447.27,151.49L452.73,150.62L458.18,146.83L463.64,148.43L469.09,141.04L474.55,143.71L485.45,139.34L490.91,139.7L496.36,138.43L501.82,140.7L507.27,141.21L512.73,136.8L518.18,136L523.64,134.2L529.09,137.65L534.55,138.14L540,137.36" style="vector-effect: non-scaling-stroke; fill: none; stroke: rgb(0, 191, 125); stroke-opacity: 1; stroke-width: 2px; opacity: 1;"/></g><g class="points"/><g class="text"/></g><g class="trace scatter tracecfbe4d" style="stroke-miterlimit: 2; opacity: 1;"><g class="fills"/><g class="errorbars"/><g class="lines"><path class="js-line" d="M0,294.86L5.45,289.87L10.91,287.8L16.36,285.33L21.82,284.57L27.27,282.45L32.73,281.18L38.18,283.74L43.64,282.27L54.55,279.91L60,277.86L65.45,279.58L70.91,279.62L76.36,278.11L81.82,278.26L87.27,276.55L92.73,277.62L98.18,278.62L103.64,274.83L109.09,275.1L114.55,276.5L120,271.53L125.45,271.84L130.91,271.51L136.36,269.28L141.82,267.59L147.27,268.72L152.73,266.61L158.18,266.65L163.64,262.28L169.09,263L174.55,259.5L180,258.36L185.45,259.43L190.91,254.24L196.36,254.04L201.82,252.3L207.27,253.5L212.73,252.97L218.18,247.13L223.64,250.27L229.09,245.75L234.55,243.57L240,244.12L245.45,240.31L250.91,239.33L256.36,234.9L267.27,236.41L272.73,231.47L283.64,226.87L289.09,225.14L294.55,223.09L300,223.73L305.45,219.41L310.91,220.41L316.36,220.55L321.82,215.24L338.18,212.26L343.64,212.19L349.09,210.07L354.55,211.83L365.45,206.4L370.91,207.78L376.36,203.14L381.82,202.96L387.27,205.5L392.73,203.94L398.18,202.94L403.64,196.7L409.09,200.4L414.55,196.59L420,193.18L425.45,191L430.91,192.22L436.36,188.5L441.82,189.17L447.27,188.88L458.18,189.15L463.64,192.82L474.55,192.27L480,196.23L485.45,191.87L490.91,193.87L496.36,193.89L501.82,195.79L507.27,199.51L512.73,198.73L518.18,201.92L523.64,202.12L529.09,205.7L534.55,207.35L540,203.1" style="vector-effect: non-scaling-stroke; fill: none; stroke: rgb(0, 176, 246); stroke-opacity: 1; stroke-width: 2px; opacity: 1;"/></g><g class="points"/><g class="text"/></g><g class="trace scatter trace32a88c" style="stroke-miterlimit: 2; opacity: 1;"><g class="fills"/><g class="errorbars"/><g class="lines"><path class="js-line" d="M0,298.36L5.45,289.49L10.91,284.48L16.36,285.66L21.82,284.08L27.27,283.97L32.73,279.78L38.18,283.36L43.64,282.18L54.55,279.4L60,280.67L70.91,279.2L76.36,275.77L81.82,278.71L87.27,276.08L98.18,276.12L103.64,273L109.09,272.69L114.55,274.09L125.45,270.08L130.91,270.42L136.36,267.45L141.82,269.1L147.27,264.58L152.73,263.91L158.18,264.47L163.64,260.12L174.55,259.83L180,256.27L185.45,254.89L190.91,252.64L196.36,250.85L201.82,246.97L207.27,246.11L212.73,240.74L218.18,240.4L223.64,236.66L234.55,231.98L240,227.9L250.91,223.02L256.36,217.72L261.82,219.1L267.27,216.85L272.73,207.98L278.18,204.21L283.64,201.76L289.09,198.15L294.55,196.48L300,192.18L305.45,188.06L310.91,185.4L316.36,180.88L321.82,178.25L327.27,172.75L332.73,169.07L343.64,160.69L349.09,157.24L360,152.42L365.45,146.56L370.91,142.31L376.36,140.81L381.82,133.5L387.27,133.77L392.73,129.05L398.18,126.97L403.64,122.36L409.09,121.78L414.55,116.14L420,114.05L425.45,112.49L430.91,107.77L436.36,108.86L441.82,105.03L447.27,102.91L452.73,99.94L463.64,95.22L469.09,88.29L474.55,85.42L480,86.31L485.45,82.65L490.91,80.22L501.82,78.33L507.27,76.32L518.18,72.98L523.64,71.06L529.09,68.43L534.55,67.34L540,60.81" style="vector-effect: non-scaling-stroke; fill: none; stroke: rgb(231, 107, 243); stroke-opacity: 1; stroke-width: 2px; opacity: 1;"/></g><g class="points"/><g class="text"/></g><g class="trace scatter trace0f80a5" style="stroke-miterlimit: 2; opacity: 1;"><g class="fills"/><g class="errorbars"/><g class="lines"><path class="js-line" d="M0,296.16L5.45,290.05L10.91,286.73L16.36,287.11L21.82,284.23L27.27,282.21L32.73,281.65L38.18,282.09L43.64,281.76L49.09,278.13L54.55,281.29L60,280.33L65.45,281.36L70.91,278.4L76.36,279.18L81.82,278.44L87.27,276.32L92.73,277.13L98.18,275.57L103.64,274.94L109.09,275.08L114.55,273.07L120,273.87L125.45,268.66L130.91,271.55L136.36,271.53L141.82,267.45L147.27,267.05L152.73,264.45L158.18,264.22L163.64,262.04L174.55,255.06L180,255.22L185.45,253.75L190.91,251.39L196.36,249.31L201.82,245.17L207.27,246.17L212.73,241.78L218.18,240.07L223.64,233.87L229.09,234.74L234.55,232.96L240,227.61L245.45,224.07L250.91,223.98L256.36,218.47L261.82,218.14L267.27,213.01L272.73,208.6L278.18,210.3L283.64,204.66L289.09,204.41L294.55,203.41L300,194.7L305.45,195.21L310.91,188.88L316.36,187.1L321.82,181.99L327.27,177.52L332.73,175.15L338.18,171.9L343.64,169.78L354.55,162.41L360,160.38L365.45,162.45L370.91,158.53L376.36,151.09L381.82,146.45L387.27,144.4L392.73,139.08L403.64,131.25L409.09,133.19L420,123.83L425.45,123.34L447.27,113.52L452.73,109.28L458.18,110.46L463.64,102.33L469.09,106.05L474.55,99.74L480,99.28L485.45,92.77L490.91,96.96L496.36,92.06L501.82,87.44L507.27,88.87L512.73,84.48L518.18,84.75L523.64,89.74L529.09,83.9L534.55,79.75L540,82.94" style="vector-effect: non-scaling-stroke; fill: none; stroke: rgb(248, 118, 109); stroke-opacity: 1; stroke-width: 2px; opacity: 1;"/></g><g class="points"/><g class="text"/></g><g class="trace scatter trace8d37e5" style="stroke-miterlimit: 2; opacity: 1;"><g class="fills"/><g class="errorbars"/><g class="lines"><path class="js-line" d="M0,296.27L5.45,290.61L10.91,286.69L16.36,288.13L21.82,284.03L38.18,282.27L43.64,282.12L49.09,279.78L54.55,278.62L60,279.51L65.45,279.29L76.36,279.02L81.82,277.93L92.73,278.89L98.18,278.13L103.64,275.52L109.09,275.21L114.55,270.84L120,273.49L130.91,268.1L136.36,270.95L141.82,266.76L147.27,265.58L158.18,264.91L163.64,260.66L169.09,260.77L174.55,257.54L180,259.36L185.45,254.84L190.91,255.29L196.36,251.52L201.82,252.41L207.27,245.95L212.73,244.95L218.18,242.72L229.09,237.68L234.55,234.09L245.45,227.14L250.91,226.07L256.36,226.72L261.82,224.07L267.27,220.14L272.73,219.81L278.18,214.28L283.64,218.76L289.09,213.91L294.55,210.83L300,210.21L305.45,205.73L310.91,202.05L316.36,201.74L321.82,198.86L327.27,197.62L332.73,192.98L338.18,192.09L343.64,192.89L349.09,189.39L360,182.8L365.45,183.62L370.91,178.76L376.36,175.98L381.82,175.18L387.27,173.1L392.73,168.69L398.18,167.47L403.64,165.75L409.09,164.95L414.55,162.79L420,159.6L425.45,157.59L430.91,159.47L436.36,155.41L441.82,156.86L447.27,151.47L452.73,151.55L458.18,145.6L463.64,144.67L469.09,144.74L474.55,141.62L480,141.28L485.45,138.63L490.91,139.32L496.36,137.38L501.82,138.96L507.27,136.65L512.73,137.11L518.18,134.89L523.64,129.14L529.09,127.89L540,125.88" style="vector-effect: non-scaling-stroke; fill: none; stroke: rgb(163, 165, 0); stroke-opacity: 1; stroke-width: 2px; opacity: 1;"/></g><g class="points"/><g class="text"/></g><g class="trace scatter trace81777c" style="stroke-miterlimit: 2; opacity: 1;"><g class="fills"/><g class="errorbars"/><g class="lines"><path class="js-line" d="M0,299.23L5.45,288.51L10.91,284.1L16.36,284.95L21.82,283.81L27.27,285.46L32.73,282.38L38.18,281.14L43.64,281.29L49.09,279.42L54.55,280.58L65.45,279.35L70.91,277.46L76.36,281.16L81.82,278.53L92.73,275.97L98.18,276.52L114.55,271.53L120,274.5L125.45,274.14L130.91,272.33L136.36,271.55L141.82,266.94L147.27,268.79L152.73,266.47L158.18,268.28L163.64,263.96L174.55,263.49L180,259.28L185.45,258.76L190.91,256.51L196.36,254.44L201.82,250.63L207.27,248.98L212.73,245.64L223.64,244.95L229.09,241.67L234.55,239.51L240,239.38L245.45,236.19L250.91,228.95L256.36,230.24L261.82,225.65L267.27,224.6L272.73,222.6L278.18,222.66L283.64,219.43L294.55,213.21L300,214.64L305.45,209.72L310.91,206.84L316.36,202.96L321.82,204.75L327.27,202.67L332.73,196.88L338.18,200.56L343.64,198.24L349.09,195.88L354.55,194.61L365.45,194.54L370.91,193.69L381.82,189.79L387.27,192.27L398.18,190.51L403.64,188.14L420,189.42L425.45,187.72L430.91,181.17L436.36,183.91L441.82,183.91L447.27,184.89L452.73,185.23L458.18,184L463.64,184.16L469.09,185.76L474.55,181.97L480,182.91L485.45,185.69L490.91,185.36L496.36,182.02L501.82,181.59L507.27,180.75L512.73,179.03L523.64,179.34L529.09,176.02L540,173.91" style="vector-effect: non-scaling-stroke; fill: none; stroke: rgb(0, 191, 125); stroke-opacity: 1; stroke-width: 2px; opacity: 1;"/></g><g class="points"/><g class="text"/></g><g class="trace scatter traced53259" style="stroke-miterlimit: 2; opacity: 1;"><g class="fills"/><g class="errorbars"/><g class="lines"><path class="js-line" d="M0,297.09L5.45,291.61L10.91,287.49L16.36,285.15L21.82,284.19L27.27,284.95L32.73,283.14L38.18,283.45L43.64,281.92L49.09,282.01L54.55,281.16L60,281.29L65.45,279.06L76.36,280.47L81.82,277.91L87.27,278.24L92.73,276.01L98.18,274.63L103.64,275.08L109.09,275.28L114.55,272.62L120,271.6L125.45,273.36L130.91,270.02L136.36,270.53L141.82,266.87L147.27,265.63L158.18,263.91L163.64,261.66L169.09,259.65L174.55,254.84L180,257.2L185.45,253.79L190.91,255.02L196.36,249.23L201.82,247.96L207.27,244.79L212.73,242.76L218.18,237.73L223.64,238.04L229.09,234.36L240,228.95L245.45,223.73L250.91,224.07L256.36,221.7L261.82,219.72L267.27,212.66L272.73,211.92L278.18,210.25L283.64,209.98L289.09,204.21L294.55,204.37L300,207.22L305.45,199.73L310.91,196.55L316.36,197.1L321.82,194.34L332.73,193.76L338.18,188.66L343.64,187.83L349.09,183.51L354.55,183.24L360,180.17L365.45,181.35L370.91,176.85L376.36,179.83L381.82,171.81L387.27,175.38L392.73,173.7L398.18,171.05L403.64,173.82L409.09,172.28L414.55,168.56L420,173.3L425.45,175.51L430.91,172.19L436.36,174.62L441.82,170.96L447.27,174.62L452.73,173.39L458.18,176.85L463.64,171.88L469.09,176.18L474.55,175L480,179.14L485.45,172.43L490.91,177.4L496.36,181.7L501.82,181.3L507.27,182.04L512.73,177.16L523.64,180.41L529.09,177.81L534.55,173.35L540,183.78" style="vector-effect: non-scaling-stroke; fill: none; stroke: rgb(0, 176, 246); stroke-opacity: 1; stroke-width: 2px; opacity: 1;"/></g><g class="points"/><g class="text"/></g><g class="trace scatter tracee3bb3a" style="stroke-miterlimit: 2; opacity: 1;"><g class="fills"/><g class="errorbars"/><g class="lines"><path class="js-line" d="M0,299.03L5.45,288.51L10.91,287.87L16.36,285.44L21.82,285.24L27.27,282.61L32.73,284.21L38.18,283.39L43.64,281.14L49.09,282.18L54.55,281.4L60,279.93L65.45,279.84L70.91,279.71L76.36,278.33L81.82,280.96L87.27,276.79L98.18,277.93L103.64,274.85L109.09,275.48L114.55,273.87L120,272.51L125.45,274.14L130.91,269.35L136.36,268.41L147.27,268.84L152.73,265.96L158.18,263.55L163.64,263.87L169.09,261.37L174.55,259.99L180,259.99L185.45,259.01L190.91,254.84L196.36,255.42L201.82,252.52L207.27,251.39L212.73,252.41L218.18,248.04L223.64,248.22L229.09,242.67L234.55,244.35L240,241.63L245.45,240.89L250.91,237.28L256.36,233.98L261.82,236.5L272.73,232.18L278.18,235.01L283.64,231.73L289.09,232.67L300,230.84L305.45,228.26L310.91,229.39L316.36,226.25L321.82,226.12L327.27,223.2L332.73,226.7L338.18,222.06L349.09,227.05L354.55,223.51L360,224.13L365.45,226.38L376.36,225.43L381.82,226.83L387.27,226.52L392.73,223.96L398.18,225.07L403.64,224.04L409.09,228.01L414.55,225.52L420,223.84L425.45,228.7L436.36,229.73L441.82,227.45L447.27,231.96L452.73,234.85L458.18,235.74L463.64,239.49L469.09,244.08L474.55,242.05L480,245.99L485.45,246.95L490.91,252.28L496.36,254.26L507.27,255.87L512.73,256.04L529.09,269.04L534.55,270.84L540,273.05" style="vector-effect: non-scaling-stroke; fill: none; stroke: rgb(231, 107, 243); stroke-opacity: 1; stroke-width: 2px; opacity: 1;"/></g><g class="points"/><g class="text"/></g><g class="trace scatter trace759b5d" style="stroke-miterlimit: 2; opacity: 1;"><g class="fills"/><g class="errorbars"/><g class="lines"><path class="js-line" d="M0,299.77L5.45,288.96L10.91,286.53L16.36,286.53L21.82,284.03L27.27,284.19L32.73,283.57L38.18,283.77L43.64,282.92L49.09,279.87L54.55,280.74L60,279.82L65.45,279.82L70.91,279.09L76.36,279.8L81.82,276.61L87.27,277.77L92.73,275.9L98.18,276.3L109.09,275.01L114.55,275.12L120,272.36L125.45,273.09L130.91,270.37L136.36,270.57L147.27,267.5L152.73,266.47L158.18,266.83L163.64,262.69L169.09,261.3L174.55,258.56L185.45,256.33L190.91,253.24L201.82,247.33L207.27,246.75L212.73,248.58L218.18,243.9L223.64,243.41L229.09,239.58L234.55,236.75L240,237.24L250.91,232.67L256.36,231.18L272.73,227.05L278.18,227.01L283.64,224.11L289.09,225.6L305.45,221.01L310.91,221.01L316.36,221.88L321.82,218.5L327.27,219.25L332.73,218.34L338.18,217.25L343.64,214.04L354.55,211.99L360,214.02L365.45,214.13L370.91,212.41L376.36,214.57L381.82,211.1L387.27,212.72L392.73,212.37L403.64,213.48L409.09,215.13L414.55,212.3L420,219.21L425.45,218.9L430.91,220.26L436.36,220.64L441.82,217.18L447.27,219.39L452.73,217.23L458.18,214.91L463.64,215.38L469.09,218.99L474.55,215.82L480,215.47L485.45,217.4L501.82,223.26L507.27,221.35L512.73,221.42L518.18,222.86L523.64,224.36L529.09,222.86L534.55,224.89L540,224.51" style="vector-effect: non-scaling-stroke; fill: none; stroke: rgb(248, 118, 109); stroke-opacity: 1; stroke-width: 2px; opacity: 1;"/></g><g class="points"/><g class="text"/></g><g class="trace scatter trace8d6495" style="stroke-miterlimit: 2; opacity: 1;"><g class="fills"/><g class="errorbars"/><g class="lines"><path class="js-line" d="M0,302.75L5.45,291.5L10.91,287.4L21.82,284.59L27.27,282.3L32.73,282.21L38.18,280.4L43.64,281.87L49.09,281.6L54.55,280.2L60,279.67L65.45,281.29L70.91,280.47L76.36,276.57L81.82,277.62L87.27,278.17L92.73,275.39L98.18,275.79L103.64,274.79L109.09,274.54L114.55,273.05L120,271.84L125.45,271.4L130.91,271.49L136.36,268.68L147.27,265.87L152.73,262.55L158.18,263.13L163.64,260.88L169.09,257.4L174.55,252.5L180,255.64L185.45,249.38L190.91,249.31L196.36,246.89L201.82,246.91L207.27,241.36L212.73,241.81L218.18,238.13L223.64,234.12L229.09,234.36L240,227.9L245.45,225.52L250.91,226.47L256.36,222.84L261.82,218.03L267.27,215.04L272.73,209.2L278.18,208.67L283.64,203.72L289.09,201.81L294.55,198.71L300,198.95L305.45,191.11L310.91,190.82L316.36,188.97L321.82,185.2L327.27,180.46L332.73,179.28L338.18,179.05L343.64,174.37L354.55,167.11L360,162.81L365.45,157.99L370.91,158.24L376.36,158.08L381.82,151.15L392.73,142.53L398.18,142.22L403.64,137.74L409.09,136.87L414.55,129.16L420,127.67L425.45,129.65L430.91,124.17L436.36,117.01L441.82,117.24L452.73,108.3L458.18,107.16L463.64,103.67L469.09,102.26L474.55,100.19L480,93.42L485.45,92.21L490.91,88.33L496.36,85.91L501.82,88.33L507.27,80.82L512.73,83.97L518.18,79.22L523.64,72.11L529.09,72.25L534.55,69.26L540,69.66" style="vector-effect: non-scaling-stroke; fill: none; stroke: rgb(163, 165, 0); stroke-opacity: 1; stroke-width: 2px; opacity: 1;"/></g><g class="points"/><g class="text"/></g><g class="trace scatter trace100be6" style="stroke-miterlimit: 2; opacity: 1;"><g class="fills"/><g class="errorbars"/><g class="lines"><path class="js-line" d="M0,299.7L5.45,290.99L10.91,285.48L16.36,284.32L21.82,284.23L27.27,285.1L32.73,281.27L38.18,283.61L43.64,283.21L54.55,280.4L60,279.6L65.45,279.13L70.91,279.96L76.36,279.51L81.82,278.11L92.73,278.35L98.18,275.08L103.64,276.12L109.09,275.68L114.55,274.92L120,271.91L125.45,271.73L130.91,267.94L136.36,268.77L141.82,268.7L147.27,268.08L152.73,265.07L163.64,264.65L169.09,261.91L174.55,260.84L180,258.65L185.45,257.52L190.91,253.57L207.27,250.85L212.73,248.53L229.09,240.47L234.55,240.42L240,235.45L245.45,236.08L250.91,229.79L256.36,226.87L261.82,224.82L267.27,224.38L272.73,222.48L278.18,214.71L294.55,212.66L300,209.09L310.91,201.03L316.36,197.59L321.82,199.35L327.27,196.08L332.73,196.28L338.18,190.64L349.09,186.92L354.55,182.64L360,180.35L365.45,179.81L370.91,179.25L376.36,174.64L387.27,169.6L392.73,169.14L403.64,162.56L409.09,161.69L414.55,154.23L420,154.41L425.45,153.6L430.91,149.66L436.36,149.19L441.82,144.45L452.73,142.42L458.18,139.52L463.64,140.46L469.09,137.09L474.55,132.37L480,136.82L485.45,131.57L490.91,131.25L496.36,128.04L501.82,120.47L507.27,120.13L512.73,116.48L523.64,113.94L529.09,114.85L540,112.04" style="vector-effect: non-scaling-stroke; fill: none; stroke: rgb(0, 191, 125); stroke-opacity: 1; stroke-width: 2px; opacity: 1;"/></g><g class="points"/><g class="text"/></g><g class="trace scatter tracee7faf8" style="stroke-miterlimit: 2; opacity: 1;"><g class="fills"/><g class="errorbars"/><g class="lines"><path class="js-line" d="M0,298.5L5.45,287.62L10.91,287.49L16.36,286.6L21.82,282.83L27.27,285.64L32.73,282.83L38.18,282.85L43.64,282.07L60,280.87L65.45,281.58L70.91,278.71L76.36,277.55L81.82,278.51L87.27,274.74L103.64,274.76L109.09,274.27L120,270.35L125.45,271.84L130.91,270.06L136.36,267.32L141.82,265L147.27,265.52L152.73,261.17L158.18,262.04L169.09,258.45L174.55,258.16L185.45,251.16L190.91,250.67L196.36,245.59L201.82,244.12L207.27,241.65L212.73,238.31L218.18,235.92L223.64,231.73L234.55,229.73L240,226.61L245.45,222.08L250.91,220.61L256.36,214.46L261.82,210.61L267.27,211.14L272.73,206.31L278.18,203.16L283.64,202.63L294.55,196.35L300,194.38L305.45,187.99L310.91,188.14L316.36,183.87L321.82,181.66L327.27,174.93L332.73,174.69L338.18,172.01L343.64,172.03L349.09,169.16L354.55,162.58L360,159.55L365.45,155.01L370.91,150.04L376.36,149.17L381.82,143.91L387.27,137.25L392.73,134.69L398.18,130.9L403.64,129.31L409.09,122.96L414.55,119.15L420,113.58L425.45,108.59L430.91,107.1L436.36,104.94L441.82,97.27L447.27,96.18L452.73,86.69L463.64,78.04L469.09,77.64L474.55,69.46L480,66.52L485.45,59.57L490.91,56.76L496.36,49.27L501.82,45.17L512.73,37.37L518.18,32.31L523.64,27.5L529.09,19.7L534.55,21.04L540,16" style="vector-effect: non-scaling-stroke; fill: none; stroke: rgb(0, 176, 246); stroke-opacity: 1; stroke-width: 2px; opacity: 1;"/></g><g class="points"/><g class="text"/></g><g class="trace scatter trace084519" style="stroke-miterlimit: 2; opacity: 1;"><g class="fills"/><g class="errorbars"/><g class="lines"><path class="js-line" d="M0,297.6L5.45,291.23L10.91,288.47L16.36,285.53L21.82,284.66L27.27,285.53L32.73,284.46L49.09,279.31L54.55,280.6L70.91,279L76.36,277.55L87.27,277.59L92.73,277.1L98.18,274.03L103.64,272.98L109.09,273.29L114.55,274.58L120,273.49L125.45,271.55L136.36,268.7L141.82,266.38L147.27,267.05L152.73,263.69L158.18,261.82L163.64,262.15L169.09,257.54L174.55,256.6L185.45,253.84L190.91,251.77L196.36,251.12L201.82,246.71L207.27,247.47L212.73,245.44L218.18,244.48L223.64,240.94L229.09,238.44L234.55,233.4L240,234.23L245.45,232.62L250.91,232.31L256.36,227.97L261.82,224.25L267.27,224.56L272.73,220.37L278.18,219.12L289.09,217.36L294.55,212.95L300,212.32L305.45,209.58L310.91,209.65L316.36,205.68L321.82,203.79L327.27,200.82L332.73,199.51L338.18,197.28L343.64,199.73L349.09,197.82L354.55,195.05L360,195.34L365.45,190.48L370.91,188.68L376.36,187.5L381.82,187.14L387.27,185.4L392.73,181.62L403.64,181.7L409.09,180.92L414.55,178.65L420,177.45L425.45,176.78L430.91,174.75L436.36,176.07L441.82,175.53L447.27,176.27L452.73,173.46L458.18,170.85L463.64,175.29L474.55,172.06L480,173.84L485.45,172.88L490.91,170.36L496.36,175.84L501.82,178.79L507.27,177.4L512.73,178.14L518.18,178.65L523.64,175L529.09,178.25L534.55,180.57L540,181.39" style="vector-effect: non-scaling-stroke; fill: none; stroke: rgb(231, 107, 243); stroke-opacity: 1; stroke-width: 2px; opacity: 1;"/></g><g class="points"/><g class="text"/></g><g class="trace scatter trace869017" style="stroke-miterlimit: 2; opacity: 1;"><g class="fills"/><g class="errorbars"/><g class="lines"><path class="js-line" d="M0,298.16L5.45,290.79L10.91,285.33L16.36,285.59L21.82,284.5L27.27,284.9L32.73,281.43L38.18,282.34L43.64,282.47L49.09,282.23L54.55,281L60,278.24L65.45,280.2L76.36,279.31L81.82,276.86L87.27,277.97L92.73,276.43L98.18,277.35L103.64,274.7L114.55,273.8L120,272.82L125.45,270.31L130.91,270.84L136.36,271.49L141.82,266.81L147.27,268.19L152.73,266.32L158.18,262.11L163.64,262.33L174.55,259.28L180,259.9L185.45,252.9L190.91,251.32L196.36,251.01L201.82,245.66L212.73,242.16L218.18,240.91L223.64,232.65L229.09,229.88L234.55,227.97L240,220.59L245.45,220.35L250.91,215.06L256.36,212.86L261.82,211.5L267.27,206.33L272.73,202.23L278.18,198.51L283.64,195.83L289.09,188.26L294.55,187.21L300,185.76L305.45,179.83L310.91,172.68L316.36,168.98L327.27,159.38L332.73,158.84L338.18,153.07L343.64,148.66L349.09,149.88L354.55,149.84L360,142.46L365.45,139.23L376.36,136.8L381.82,133.95L387.27,133.01L392.73,129.85L398.18,129.45L403.64,126.11L414.55,118.62L420,120.67L425.45,117.26L430.91,112.74L436.36,107.88L441.82,110.46L452.73,104.76L458.18,100.9L463.64,96.42L469.09,95.84L474.55,96.76L480,94.02L485.45,93.24L490.91,94.8L496.36,89.85L501.82,92.21L518.18,84.19L523.64,83.63L529.09,85.66L534.55,82.83L540,84.14" style="vector-effect: non-scaling-stroke; fill: none; stroke: rgb(248, 118, 109); stroke-opacity: 1; stroke-width: 2px; opacity: 1;"/></g><g class="points"/><g class="text"/></g><g class="trace scatter trace6c486c" style="stroke-miterlimit: 2; opacity: 1;"><g class="fills"/><g class="errorbars"/><g class="lines"><path class="js-line" d="M0,298.54L5.45,290.52L10.91,287.09L16.36,288.4L21.82,284.01L27.27,283.45L32.73,280.49L38.18,283.81L43.64,282.38L49.09,279.73L54.55,280.85L60,282.21L65.45,279.15L70.91,278.08L76.36,278.51L81.82,280.87L87.27,275.1L92.73,277.68L98.18,277.93L103.64,277.17L109.09,275.01L114.55,276.3L120,271.96L125.45,271.49L130.91,268.5L136.36,273.05L141.82,270.46L147.27,268.88L152.73,268.84L163.64,263.84L169.09,264.29L174.55,262.19L180,261.77L185.45,258.61L190.91,258.25L196.36,252.59L201.82,254.13L207.27,254.11L212.73,249L218.18,246.08L223.64,246.31L229.09,240.38L234.55,240.27L240,237.17L245.45,236.75L250.91,232.29L256.36,230.37L261.82,227.3L267.27,225.54L272.73,219.34L278.18,215.62L300,209.23L305.45,206.6L310.91,204.84L316.36,200.07L321.82,197.01L327.27,196.35L332.73,196.23L338.18,192.07L343.64,186.67L349.09,187.9L354.55,191.15L360,186.92L365.45,183.73L370.91,178.96L381.82,174.82L387.27,172.5L392.73,171.14L398.18,168.65L403.64,163.52L409.09,163.97L414.55,162.36L420,157.66L430.91,157.17L436.36,154.21L441.82,152.13L447.27,150.97L452.73,144.51L458.18,146.63L463.64,143.24L469.09,144.02L474.55,140.23L480,138.25L485.45,135.8L490.91,134.77L496.36,131.54L501.82,129.87L507.27,127.62L512.73,128.67L518.18,124.79L523.64,124.86L534.55,119.33L540,120.8" style="vector-effect: non-scaling-stroke; fill: none; stroke: rgb(163, 165, 0); stroke-opacity: 1; stroke-width: 2px; opacity: 1;"/></g><g class="points"/><g class="text"/></g><g class="trace scatter trace9aa20d" style="stroke-miterlimit: 2; opacity: 1;"><g class="fills"/><g class="errorbars"/><g class="lines"><path class="js-line" d="M0,299.99L5.45,287.31L10.91,286.64L32.73,283.34L38.18,280.96L60,279.58L65.45,278.82L70.91,278.24L76.36,280.53L81.82,276.32L87.27,276.17L92.73,274.92L98.18,274.47L109.09,273.36L114.55,272.85L120,273.45L125.45,270.48L130.91,270.48L136.36,266.81L147.27,265.87L152.73,264.18L158.18,263.26L163.64,259.68L169.09,258.94L174.55,255.89L185.45,251.23L190.91,252.79L196.36,247.26L201.82,248.36L212.73,239.4L218.18,240.27L223.64,233.85L229.09,233.07L234.55,230.11L240,228.1L245.45,225.8L250.91,225.09L256.36,221.19L261.82,220.37L267.27,220.03L272.73,215.71L278.18,210.41L283.64,211.25L289.09,209.34L294.55,208.47L300,208.31L305.45,204.68L310.91,204.37L316.36,202.94L321.82,196.95L327.27,197.79L332.73,195.99L338.18,191.78L343.64,197.3L349.09,188.99L354.55,188.97L360,191L365.45,186.5L370.91,184.8L376.36,185.87L381.82,184L387.27,182.51L392.73,182.84L403.64,177.56L409.09,178.3L414.55,175.69L420,178.05L425.45,175.38L430.91,177.36L436.36,170.81L441.82,171.99L447.27,167.89L452.73,171.59L458.18,171.72L463.64,168.02L469.09,168.31L474.55,164.43L480,169.09L485.45,164.52L490.91,162.58L496.36,164.79L507.27,160.18L512.73,162.83L518.18,162.65L523.64,158.77L540,164.26" style="vector-effect: non-scaling-stroke; fill: none; stroke: rgb(0, 191, 125); stroke-opacity: 1; stroke-width: 2px; opacity: 1;"/></g><g class="points"/><g class="text"/></g><g class="trace scatter trace10a60d" style="stroke-miterlimit: 2; opacity: 1;"><g class="fills"/><g class="errorbars"/><g class="lines"><path class="js-line" d="M0,297.56L5.45,293.53L10.91,286.15L21.82,286.35L27.27,283.72L32.73,283.34L38.18,281.25L43.64,280.78L49.09,281.23L54.55,279.53L60,280.51L65.45,278.4L70.91,279.33L76.36,276.99L81.82,278.37L98.18,274.32L103.64,275.88L114.55,273.92L120,274.45L125.45,270.26L130.91,269.46L136.36,269.46L141.82,268.59L147.27,270.26L152.73,264.25L158.18,265.18L163.64,263.22L169.09,261.53L174.55,262.37L180,261.57L185.45,258.18L196.36,253.84L201.82,249.63L207.27,249.45L212.73,247.31L218.18,243.99L223.64,244.81L229.09,239.64L234.55,238.97L240,239.11L245.45,233.4L250.91,233.58L256.36,229.93L261.82,230.86L267.27,223.87L272.73,225.05L278.18,221.95L283.64,222.08L289.09,221.28L294.55,217.74L300,215.18L305.45,213.93L310.91,210.47L316.36,205.82L321.82,204.55L327.27,202.67L332.73,199.44L338.18,199.89L343.64,196.46L354.55,190.91L360,189.55L365.45,183.91L370.91,185.18L376.36,181.86L381.82,183.18L387.27,183.31L392.73,184.96L398.18,179.86L403.64,177.92L414.55,171.86L420,166.51L425.45,162.47L430.91,163.19L436.36,156.35L441.82,155.72L447.27,152.76L452.73,151.18L458.18,145.05L463.64,147.01L469.09,147.34L474.55,139.3L480,141.28L485.45,137.07L490.91,129.27L496.36,128.74L507.27,123.03L512.73,118.66L518.18,119.47L523.64,119L529.09,115.63L534.55,110.35L540,109.91" style="vector-effect: non-scaling-stroke; fill: none; stroke: rgb(0, 176, 246); stroke-opacity: 1; stroke-width: 2px; opacity: 1;"/></g><g class="points"/><g class="text"/></g><g class="trace scatter tracea70903" style="stroke-miterlimit: 2; opacity: 1;"><g class="fills"/><g class="errorbars"/><g class="lines"><path class="js-line" d="M0,299.57L5.45,290.56L10.91,286.71L16.36,283.21L21.82,285.57L27.27,282.96L32.73,283.88L38.18,281.52L43.64,280.98L54.55,277.21L60,279.6L65.45,281.31L70.91,278.26L76.36,279.38L81.82,276.7L92.73,279.55L98.18,277.55L109.09,275.3L114.55,276.01L120,271.2L125.45,273.07L130.91,269.82L136.36,271.09L147.27,266.03L152.73,264.62L163.64,263.02L169.09,261.24L174.55,261.62L180,260.17L185.45,255.53L190.91,256.82L196.36,253.99L201.82,254.11L207.27,251.28L212.73,250.23L218.18,245.95L223.64,245.44L229.09,247.98L234.55,244.28L240,240.85L245.45,240.76L250.91,239.09L256.36,235.5L267.27,235.97L272.73,233.29L283.64,229.42L289.09,226.72L300,222.11L305.45,220.88L310.91,220.61L316.36,215.53L327.27,213.57L332.73,208.82L338.18,204.86L343.64,203.63L349.09,203.88L354.55,200.71L360,198.11L365.45,198.53L370.91,195.05L376.36,195.92L381.82,194.23L387.27,193.94L392.73,192L398.18,189.13L403.64,187.28L409.09,184.47L414.55,186.63L420,183.49L430.91,183.6L436.36,178.92L441.82,176.62L447.27,179.86L458.18,177.52L463.64,175.78L469.09,174.97L474.55,175.49L480,171.7L485.45,175.58L490.91,166.77L496.36,167.6L501.82,165.66L507.27,164.79L512.73,159.64L518.18,162.14L529.09,156.77L534.55,156.41L540,158.91" style="vector-effect: non-scaling-stroke; fill: none; stroke: rgb(231, 107, 243); stroke-opacity: 1; stroke-width: 2px; opacity: 1;"/></g><g class="points"/><g class="text"/></g><g class="trace scatter trace86f659" style="stroke-miterlimit: 2; opacity: 1;"><g class="fills"/><g class="errorbars"/><g class="lines"><path class="js-line" d="M0,297.96L5.45,290.76L10.91,286.64L16.36,286.15L21.82,284.39L32.73,283.12L38.18,281.78L43.64,281.2L49.09,282.63L54.55,282.21L60,279.64L76.36,277.77L81.82,278.82L92.73,275.79L98.18,275.7L109.09,271.6L114.55,274.63L125.45,272.67L130.91,269.77L147.27,266.38L152.73,264.8L163.64,263.09L169.09,260.92L180,258.67L185.45,253.53L190.91,254.57L196.36,250.45L201.82,252.19L207.27,247.2L212.73,244.97L218.18,244.39L223.64,241.16L229.09,238.86L240,236.01L245.45,233.8L250.91,231.44L256.36,227.68L267.27,221.82L272.73,221.64L278.18,220.12L283.64,220.97L289.09,212.84L294.55,212.75L300,212.39L305.45,208.82L310.91,207.02L316.36,206.89L321.82,202.67L327.27,205.21L332.73,201.36L338.18,200.09L343.64,197.08L349.09,196.61L354.55,197.75L360,195.34L365.45,191.93L370.91,189.64L381.82,191.13L387.27,186.3L392.73,188.17L398.18,184.13L403.64,181.33L409.09,179.77L420,176.78L425.45,177.4L430.91,172.57L436.36,173.33L441.82,170.87L447.27,173.17L452.73,166.86L458.18,165.91L469.09,167.02L474.55,165.93L480,164.3L485.45,164.88L490.91,162.61L496.36,163.92L501.82,164.86L507.27,164.01L512.73,160.4L518.18,158.15L523.64,160.74L529.09,164.72L534.55,162.05L540,160.47" style="vector-effect: non-scaling-stroke; fill: none; stroke: rgb(248, 118, 109); stroke-opacity: 1; stroke-width: 2px; opacity: 1;"/></g><g class="points"/><g class="text"/></g><g class="trace scatter tracea808a7" style="stroke-miterlimit: 2; opacity: 1;"><g class="fills"/><g class="errorbars"/><g class="lines"><path class="js-line" d="M0,296.98L5.45,290.81L10.91,287.53L16.36,284.32L21.82,284.92L38.18,283.41L43.64,280.47L49.09,280.82L54.55,282.18L60,281.34L65.45,279.18L70.91,280L76.36,279.44L81.82,278.93L87.27,277.66L92.73,277.73L98.18,275.5L103.64,277.55L109.09,275.77L114.55,274.99L120,271.11L125.45,273.87L130.91,270.95L136.36,270.55L141.82,269.17L147.27,267.01L152.73,266.67L158.18,265.16L163.64,260.59L169.09,258.76L174.55,259.74L180,257.05L185.45,257.29L190.91,254.6L196.36,253.13L201.82,248.6L207.27,248.51L212.73,247.02L218.18,243.08L223.64,242.18L229.09,239.49L234.55,236.52L240,234.9L245.45,234.5L250.91,231.09L261.82,227.1L267.27,222.15L272.73,223.89L278.18,222.19L283.64,218.21L289.09,216.51L294.55,216.2L300,212.61L305.45,210.03L310.91,213.35L316.36,209.2L321.82,206.28L327.27,204.41L332.73,203.43L338.18,201.81L343.64,201.92L354.55,197.95L360,193.74L365.45,194.9L370.91,192.8L376.36,194.34L381.82,189.3L387.27,193.18L392.73,187.83L398.18,190.22L403.64,191.44L409.09,188.01L414.55,186.09L425.45,187.63L430.91,188.03L436.36,183.04L441.82,182.24L452.73,183.8L458.18,182.51L463.64,185L469.09,185.29L474.55,183.44L480,183.53L485.45,182.57L490.91,184.96L496.36,186.9L501.82,182.97L507.27,187.45L512.73,183.64L518.18,183.47L523.64,176.09L529.09,179.16L534.55,175.96L540,171.25" style="vector-effect: non-scaling-stroke; fill: none; stroke: rgb(163, 165, 0); stroke-opacity: 1; stroke-width: 2px; opacity: 1;"/></g><g class="points"/><g class="text"/></g><g class="trace scatter trace2bd5fc" style="stroke-miterlimit: 2; opacity: 1;"><g class="fills"/><g class="errorbars"/><g class="lines"><path class="js-line" d="M0,299.12L5.45,290.12L10.91,288.8L16.36,288.16L21.82,284.35L27.27,284.1L32.73,285.57L38.18,281.83L43.64,280.33L49.09,283.57L54.55,279.91L60,281.43L65.45,279.82L70.91,279.96L76.36,279L81.82,279.8L87.27,275.1L98.18,277.93L103.64,276.86L114.55,274.07L120,274.94L125.45,276.59L130.91,273.05L136.36,271.49L141.82,271.22L147.27,269.21L152.73,269.1L158.18,269.88L163.64,269.75L169.09,266.56L174.55,266.21L180,263.98L185.45,263.51L190.91,259.88L196.36,260.41L201.82,256.69L207.27,258.07L212.73,254.24L218.18,253.42L223.64,252.39L229.09,250.5L234.55,247.09L240,247.24L245.45,246.26L250.91,241.54L256.36,241.87L261.82,240.33L267.27,237.26L272.73,236.48L278.18,235.72L283.64,231.73L294.55,228.55L300,225.89L305.45,227.7L310.91,226.05L321.82,220.97L327.27,221.17L332.73,223.42L338.18,220.08L343.64,220.95L349.09,219.92L354.55,215.31L360,219.92L365.45,222.51L370.91,218.72L376.36,222.77L381.82,222.6L387.27,220.39L392.73,219.19L398.18,216.38L403.64,218.12L409.09,217.98L414.55,216.42L420,216.27L425.45,213.95L430.91,214.77L436.36,218.21L441.82,215.49L447.27,216.51L452.73,220.32L458.18,216.02L463.64,216.31L469.09,220.41L474.55,221.95L480,221.55L485.45,221.3L490.91,222.15L496.36,219.28L501.82,223.24L507.27,221.97L512.73,223.69L518.18,226.92L523.64,225.31L529.09,226.94L534.55,227.74L540,234.18" style="vector-effect: non-scaling-stroke; fill: none; stroke: rgb(0, 191, 125); stroke-opacity: 1; stroke-width: 2px; opacity: 1;"/></g><g class="points"/><g class="text"/></g><g class="trace scatter trace3ecbad" style="stroke-miterlimit: 2; opacity: 1;"><g class="fills"/><g class="errorbars"/><g class="lines"><path class="js-line" d="M0,299.77L5.45,290.47L10.91,289.6L21.82,284.35L27.27,283.45L38.18,282.52L43.64,280.31L49.09,280.96L54.55,279.82L60,279.02L65.45,277.33L70.91,276.3L76.36,276.35L81.82,275.48L87.27,276.81L92.73,272.94L98.18,274.05L103.64,274.58L109.09,270.62L114.55,271.22L120,269.37L125.45,270.04L130.91,269.84L136.36,268.52L141.82,263.93L147.27,265.52L152.73,262.11L158.18,260.37L163.64,259.81L169.09,256.67L174.55,255.96L180,256.53L185.45,251.32L190.91,252.21L196.36,246.66L201.82,242.63L207.27,245.33L218.18,236.9L223.64,238.77L229.09,237.26L234.55,232.31L240,230.46L245.45,227.34L250.91,226.14L256.36,226.09L261.82,219.74L267.27,222.71L272.73,219.19L278.18,213.79L289.09,213.19L294.55,210.87L300,210.14L305.45,205.46L310.91,207.58L316.36,203.59L321.82,201.27L327.27,201.65L343.64,196.86L349.09,195.77L354.55,191.58L360,192.6L365.45,190.24L370.91,191.31L376.36,188.79L381.82,183.71L387.27,183.62L392.73,181.3L398.18,181.17L403.64,178.21L409.09,175.58L414.55,176.78L430.91,172.01L436.36,169L441.82,171.83L447.27,168.78L452.73,169.43L458.18,169.25L469.09,160.53L474.55,157.68L480,152.78L485.45,151.24L490.91,151.38L496.36,147.54L501.82,149.1L507.27,143.47L512.73,146.32L518.18,141.33L523.64,143.62L529.09,141.3L534.55,136.89L540,136.87" style="vector-effect: non-scaling-stroke; fill: none; stroke: rgb(0, 176, 246); stroke-opacity: 1; stroke-width: 2px; opacity: 1;"/></g><g class="points"/><g class="text"/></g><g class="trace scatter trace5a8d84" style="stroke-miterlimit: 2; opacity: 1;"><g class="fills"/><g class="errorbars"/><g class="lines"><path class="js-line" d="M0,300.08L5.45,290.54L10.91,286.64L16.36,285.7L21.82,282.87L32.73,282.65L38.18,282.96L49.09,280.42L54.55,277.82L60,280.76L65.45,277.75L76.36,279.38L81.82,277.7L87.27,278.31L92.73,275.7L98.18,274.79L103.64,275.25L114.55,271.8L120,270.48L130.91,268.37L136.36,269.62L141.82,266.41L147.27,262.33L152.73,260.35L158.18,259.63L163.64,258.96L169.09,255.13L174.55,250.94L180,253.3L190.91,247.93L196.36,245.44L212.73,237.21L218.18,235.77L223.64,234.54L229.09,228.72L234.55,224.51L240,222.55L245.45,220.84L250.91,220.19L256.36,216.04L261.82,213.35L267.27,209.65L272.73,207.87L278.18,209.45L283.64,205.53L289.09,203.28L294.55,202.74L300,202.34L305.45,197.06L310.91,194.54L316.36,199.26L321.82,195.77L327.27,194.99L332.73,196.21L338.18,194.65L349.09,193.78L354.55,190.11L360,189.5L365.45,190.33L376.36,188.32L381.82,191.87L387.27,189.53L392.73,193.52L398.18,190.89L403.64,191.44L409.09,193.54L414.55,197.97L420,194.27L425.45,196.19L430.91,201.58L436.36,203.45L441.82,204.23L447.27,207.96L452.73,210.21L458.18,211.57L463.64,210.05L469.09,211.97L474.55,214.77L480,212.92L485.45,219.23L490.91,222.73L496.36,218.74L501.82,221.88L507.27,220.95L512.73,222.84L518.18,226.72L523.64,233.49L529.09,236.01L534.55,231.47L540,232.2" style="vector-effect: non-scaling-stroke; fill: none; stroke: rgb(231, 107, 243); stroke-opacity: 1; stroke-width: 2px; opacity: 1;"/></g><g class="points"/><g class="text"/></g><g class="trace scatter tracea7e2dd" style="stroke-miterlimit: 2; opacity: 1;"><g class="fills"/><g class="errorbars"/><g class="lines"><path class="js-line" d="M0,297.56L5.45,291.63L10.91,288.31L16.36,286.02L21.82,282.52L27.27,284.48L32.73,283.36L43.64,282.38L49.09,283.21L54.55,279.31L60,279.35L65.45,280.29L70.91,278.91L87.27,276.88L92.73,275.16L98.18,278.62L103.64,276.55L109.09,274.41L114.55,274.94L120,272.33L125.45,274.43L130.91,271.87L136.36,272.29L141.82,270.82L147.27,270.33L152.73,269.93L158.18,266.38L169.09,264.33L174.55,262.53L180,263.31L185.45,259.01L196.36,258.63L201.82,256.69L207.27,256.74L212.73,256.02L218.18,249.63L223.64,251.34L229.09,250.14L234.55,247.62L240,243.43L245.45,240.62L250.91,241L256.36,239L261.82,239.44L267.27,238.11L272.73,234.96L278.18,235.03L283.64,233.14L289.09,232.91L294.55,233.96L300,232.82L310.91,234.41L316.36,232.87L321.82,237.57L327.27,238.15L332.73,236.92L338.18,236.77L343.64,238.71L349.09,235.81L354.55,233.34L360,236.55L365.45,236.12L370.91,231.73L376.36,230.44L381.82,231.18L387.27,232.82L392.73,231.78L398.18,228.97L403.64,231.09L409.09,229.91L414.55,231.67L420,230.71L425.45,230.89L430.91,233.03L436.36,239.13L441.82,236.01L447.27,236.17L452.73,235.79L458.18,239.47L463.64,237.5L469.09,240.8L474.55,242.41L480,246.11L485.45,243.21L490.91,245.79L496.36,243.94L501.82,248.71L512.73,248.87L518.18,253.77L523.64,252.75L529.09,253.06L540,264.18" style="vector-effect: non-scaling-stroke; fill: none; stroke: rgb(248, 118, 109); stroke-opacity: 1; stroke-width: 2px; opacity: 1;"/></g><g class="points"/><g class="text"/></g><g class="trace scatter trace38000c" style="stroke-miterlimit: 2; opacity: 1;"><g class="fills"/><g class="errorbars"/><g class="lines"><path class="js-line" d="M0,297.4L5.45,288.56L10.91,288.67L16.36,285.04L21.82,282.83L27.27,285.88L32.73,283.48L43.64,282.52L49.09,280.74L54.55,281.65L60,281L65.45,280.96L70.91,282.07L76.36,281.38L81.82,278.42L92.73,277.04L98.18,279.47L103.64,277.37L109.09,273.18L114.55,278.33L120,273.25L125.45,270.64L130.91,274.21L136.36,273.56L141.82,271.35L147.27,269.21L152.73,268.48L158.18,265.03L163.64,264.51L169.09,264.69L174.55,260.06L180,260.1L185.45,261.24L190.91,255.89L196.36,254.77L201.82,252.43L207.27,248.58L212.73,247.13L218.18,243.92L223.64,239.53L229.09,237.42L234.55,233.34L240,233.47L245.45,227.65L250.91,226.65L256.36,222.86L261.82,221.66L272.73,216.2L278.18,212.88L283.64,208.27L289.09,207.26L294.55,207.11L300,200.91L305.45,201.38L310.91,198.8L316.36,194.41L321.82,195.61L327.27,197.99L332.73,192.16L343.64,188.14L349.09,189.82L354.55,184.96L360,183.91L370.91,185.85L376.36,182.55L381.82,183.67L387.27,178.83L392.73,182.71L398.18,179.45L403.64,181.42L409.09,181.08L414.55,177.36L420,178.58L425.45,180.39L430.91,177.94L436.36,178.27L441.82,175.4L447.27,175.8L452.73,173.01L458.18,175.89L463.64,169.63L469.09,170.96L474.55,171.1L480,173.28L485.45,174.08L490.91,171.39L496.36,172.28L501.82,175.8L507.27,171.81L512.73,174.33L518.18,175.11L523.64,178.85L529.09,177.52L534.55,176.25L540,177.52" style="vector-effect: non-scaling-stroke; fill: none; stroke: rgb(163, 165, 0); stroke-opacity: 1; stroke-width: 2px; opacity: 1;"/></g><g class="points"/><g class="text"/></g><g class="trace scatter trace12d21a" style="stroke-miterlimit: 2; opacity: 1;"><g class="fills"/><g class="errorbars"/><g class="lines"><path class="js-line" d="M0,299.99L5.45,288.76L10.91,287.13L16.36,284.97L21.82,283.77L27.27,284.64L32.73,282.23L38.18,283.81L43.64,284.14L49.09,281.92L54.55,281.56L60,280.78L65.45,281.96L70.91,281.03L76.36,281.18L87.27,277.13L92.73,278.17L98.18,275.74L103.64,276.64L109.09,272.94L114.55,273.49L120,272.98L125.45,270.71L130.91,273.31L136.36,269.04L152.73,267.01L158.18,263.42L163.64,260.19L169.09,261.21L174.55,260.9L180,256.91L190.91,256.07L196.36,252.3L207.27,249.6L212.73,247.24L223.64,241.25L229.09,240.49L234.55,237.99L240,236.84L245.45,229.06L250.91,227.43L261.82,222.57L267.27,221.73L289.09,207.35L294.55,202.18L300,201.49L305.45,196.79L310.91,197.55L316.36,194.12L321.82,194.23L327.27,190.77L332.73,184.29L338.18,181.04L343.64,176.62L349.09,174.89L354.55,168.82L360,169.31L365.45,163.77L370.91,164.37L376.36,159.69L381.82,157.06L387.27,154.09L392.73,154.01L398.18,152.56L403.64,146.85L409.09,146.87L414.55,145.74L420,144.6L425.45,140.3L430.91,134.37L436.36,133.86L441.82,135.58L447.27,133.28L452.73,125.15L458.18,124.61L463.64,123.81L469.09,116.7L474.55,115.12L480,111.6L485.45,108.86L490.91,103.62L496.36,106.05L501.82,102.02L507.27,98.14L512.73,102.73L518.18,96.91L523.64,99.99L534.55,91.57L540,89.76" style="vector-effect: non-scaling-stroke; fill: none; stroke: rgb(0, 191, 125); stroke-opacity: 1; stroke-width: 2px; opacity: 1;"/></g><g class="points"/><g class="text"/></g><g class="trace scatter trace24e1c6" style="stroke-miterlimit: 2; opacity: 1;"><g class="fills"/><g class="errorbars"/><g class="lines"><path class="js-line" d="M0,304L5.45,290.09L10.91,287.98L16.36,287.49L21.82,285.95L27.27,281.36L32.73,282.27L38.18,282.23L43.64,281.43L49.09,280.91L54.55,281.38L76.36,277.93L81.82,276.1L87.27,275.14L92.73,277.3L98.18,277.28L103.64,275.74L120,271.6L125.45,271.55L130.91,273.52L136.36,268.9L141.82,269.01L147.27,266.67L152.73,265.23L158.18,261.15L163.64,259.23L169.09,260.79L174.55,256.85L180,254.48L185.45,250.65L190.91,253.46L196.36,248.53L201.82,248.36L207.27,242.7L212.73,242.65L234.55,231.89L240,224.78L245.45,224.91L250.91,220.9L261.82,215.58L267.27,209.63L272.73,209.49L278.18,208.51L283.64,205.86L289.09,200.82L294.55,200.29L300,198.37L310.91,193.52L316.36,189.15L327.27,181.64L332.73,178.9L338.18,176.71L343.64,172.17L349.09,164.9L354.55,164.79L360,162.23L365.45,157.26L370.91,151.8L376.36,148.23L381.82,141.95L387.27,142.13L398.18,129.38L403.64,127.2L409.09,121.58L414.55,121.65L425.45,113.98L430.91,112.22L436.36,109.17L441.82,103.47L447.27,102.75L452.73,99.28L458.18,97L463.64,92.99L474.55,90.58L480,87.89L485.45,89.56L490.91,84.72L496.36,83.03L501.82,76.79L507.27,75.72L512.73,76.26L518.18,70.06L523.64,69.1L534.55,71.02L540,68.01" style="vector-effect: non-scaling-stroke; fill: none; stroke: rgb(0, 176, 246); stroke-opacity: 1; stroke-width: 2px; opacity: 1;"/></g><g class="points"/><g class="text"/></g><g class="trace scatter traceb0b18f" style="stroke-miterlimit: 2; opacity: 1;"><g class="fills"/><g class="errorbars"/><g class="lines"><path class="js-line" d="M0,301.64L5.45,292.26L10.91,287.69L16.36,284.57L21.82,285.06L27.27,283.14L32.73,283.1L38.18,280.96L43.64,281.23L49.09,280.47L54.55,281.43L70.91,278.57L76.36,279L81.82,276.5L87.27,278.6L92.73,276.01L98.18,277.39L103.64,277.46L109.09,276.61L114.55,273.36L120,273.23L125.45,273.49L130.91,271.04L141.82,271.35L147.27,269.64L152.73,268.03L158.18,268.97L163.64,264.33L169.09,266.12L174.55,264.45L180,263.69L185.45,257.07L190.91,259.12L196.36,253.08L201.82,251.1L207.27,251.12L212.73,247L218.18,245.37L223.64,244.79L234.55,237.04L240,236.26L245.45,230.37L250.91,228.28L267.27,214.51L272.73,211.59L278.18,209.2L283.64,205.21L294.55,202.76L300,197.59L305.45,191.71L310.91,192.04L316.36,189.24L321.82,179.7L327.27,182.75L332.73,178.81L338.18,174.17L343.64,168.47L349.09,168.58L354.55,165.26L360,163.99L365.45,160.02L370.91,157.1L376.36,155.65L392.73,146.7L398.18,146.43L403.64,139.83L409.09,137.11L414.55,131.36L420,128.85L425.45,122.96L430.91,121.29L436.36,116.88L441.82,115.63L447.27,108.95L452.73,108.01L458.18,107.1L463.64,104.33L474.55,95.35L480,95.38L485.45,91.52L490.91,85.68L496.36,85.73L501.82,81.31L507.27,81.05L512.73,76.7L518.18,72.62L523.64,73.87L529.09,70.75L534.55,71.09L540,65.54" style="vector-effect: non-scaling-stroke; fill: none; stroke: rgb(231, 107, 243); stroke-opacity: 1; stroke-width: 2px; opacity: 1;"/></g><g class="points"/><g class="text"/></g><g class="trace scatter trace82096b" style="stroke-miterlimit: 2; opacity: 1;"><g class="fills"/><g class="errorbars"/><g class="lines"><path class="js-line" d="M0,298.58L5.45,290.43L10.91,288.58L16.36,285.3L21.82,284.59L27.27,282.52L32.73,282.12L38.18,282.43L43.64,280.38L49.09,282.63L54.55,280.49L60,278.8L65.45,279.26L70.91,277.39L76.36,276.9L81.82,276.7L87.27,278.02L92.73,276.43L98.18,276.43L114.55,272.4L120,273.23L125.45,270.19L130.91,273.4L136.36,269.5L141.82,269.48L147.27,268.84L152.73,270.35L158.18,263.11L163.64,262.37L169.09,264.58L174.55,261.62L180,257.78L185.45,258.21L190.91,256.6L196.36,252.23L207.27,249.58L212.73,246.22L218.18,242.61L223.64,246.46L229.09,239.6L234.55,239.67L245.45,237.13L250.91,232.11L256.36,228.01L261.82,226.09L267.27,224.16L272.73,219.3L278.18,219.92L283.64,214.89L289.09,212.86L294.55,209.07L300,206.53L305.45,205.3L316.36,201.27L321.82,196.75L332.73,192.18L338.18,193.05L349.09,182.95L354.55,182.37L360,181.66L365.45,183.22L370.91,178.9L376.36,176.36L387.27,174.93L392.73,173.3L398.18,173.08L403.64,169.63L409.09,170.67L414.55,168.13L420,161.38L425.45,163.08L430.91,161.94L436.36,162.54L447.27,158.53L452.73,154.52L458.18,153.94L463.64,154.3L469.09,154.25L474.55,152.4L480,150.95L485.45,155.08L490.91,151.62L496.36,150.93L501.82,152.18L507.27,149.44L512.73,155.36L518.18,153.18L523.64,155.3L529.09,150.89L534.55,152.94L540,156.41" style="vector-effect: non-scaling-stroke; fill: none; stroke: rgb(248, 118, 109); stroke-opacity: 1; stroke-width: 2px; opacity: 1;"/></g><g class="points"/><g class="text"/></g><g class="trace scatter traced7f972" style="stroke-miterlimit: 2; opacity: 1;"><g class="fills"/><g class="errorbars"/><g class="lines"><path class="js-line" d="M0,297.43L5.45,290.38L10.91,284.97L16.36,282.99L21.82,284.77L27.27,281.54L32.73,282.56L43.64,282.79L49.09,279.67L54.55,280.31L60,282.74L65.45,278.33L70.91,277.06L76.36,277.42L81.82,279.29L87.27,276.46L92.73,277.08L98.18,277.88L103.64,275.61L109.09,273.89L114.55,274.3L120,273.16L125.45,273.25L130.91,271.06L136.36,270.02L141.82,269.64L147.27,266.94L152.73,266.94L158.18,264.13L163.64,265.18L169.09,264.94L174.55,259.59L180,260.43L190.91,254.35L196.36,252.41L201.82,252.1L207.27,249.52L212.73,245.84L218.18,247L223.64,241.11L229.09,238.55L240,235.7L245.45,236.03L250.91,231.98L256.36,231.31L261.82,229.15L267.27,225.47L272.73,222.13L278.18,220.23L283.64,217.49L289.09,216.49L294.55,216.94L300,215.24L305.45,213.15L310.91,209.4L316.36,207.53L321.82,203.41L327.27,204.9L332.73,199.02L338.18,195.03L343.64,194.87L349.09,195.14L354.55,190.4L360,189.97L365.45,187.21L370.91,183.44L376.36,182.2L381.82,183.26L387.27,179.61L398.18,173.75L403.64,172.01L409.09,173.91L414.55,166.66L420,166.91L425.45,164.19L430.91,161.36L436.36,161.74L441.82,158.17L447.27,157.95L452.73,154.34L458.18,152.29L463.64,149.42L469.09,145.11L480,141.82L485.45,138.27L490.91,135.04L496.36,132.86L501.82,128.31L507.27,125.06L512.73,129.74L518.18,122.74L523.64,123.88L529.09,120.04L534.55,120.47L540,115.21" style="vector-effect: non-scaling-stroke; fill: none; stroke: rgb(163, 165, 0); stroke-opacity: 1; stroke-width: 2px; opacity: 1;"/></g><g class="points"/><g class="text"/></g><g class="trace scatter trace5add1e" style="stroke-miterlimit: 2; opacity: 1;"><g class="fills"/><g class="errorbars"/><g class="lines"><path class="js-line" d="M0,298.25L5.45,291.14L10.91,288.8L16.36,284.61L21.82,285.79L32.73,283.63L38.18,283.59L43.64,280.62L49.09,281.87L60,280.69L65.45,279.02L70.91,277.62L76.36,278.24L81.82,275.48L87.27,277.66L92.73,278.19L98.18,277.01L103.64,275.83L109.09,275.99L114.55,272.07L120,271.69L125.45,272.89L130.91,270.84L136.36,268.59L141.82,268.97L147.27,268.12L152.73,265.98L158.18,267.45L163.64,264.45L169.09,262.31L174.55,262.17L180,260.21L185.45,259.7L196.36,255.84L201.82,252.41L207.27,253.44L212.73,252.77L218.18,250.34L223.64,249.09L229.09,247.6L234.55,248.53L250.91,242.92L256.36,239.75L261.82,237.91L267.27,240.29L272.73,239.91L278.18,236.48L283.64,233.54L289.09,233.58L294.55,233.31L300,230.75L305.45,224.27L310.91,227.34L321.82,225.36L327.27,226.67L332.73,223.24L338.18,223.84L343.64,223.22L349.09,220.28L354.55,219.36L360,219.61L365.45,215.73L370.91,214.08L376.36,215.04L381.82,214.11L387.27,217.2L392.73,213.17L398.18,214.4L403.64,212.1L409.09,218.12L414.55,216.02L425.45,211.12L430.91,212.95L436.36,211.59L441.82,211.97L447.27,211.79L452.73,209.47L458.18,212.41L463.64,211.52L469.09,207.91L474.55,210.07L480,214.4L485.45,210.56L496.36,209.45L501.82,213.46L507.27,209.03L512.73,206.37L518.18,210.34L523.64,209L529.09,208.62L534.55,211.19L540,212.46" style="vector-effect: non-scaling-stroke; fill: none; stroke: rgb(0, 191, 125); stroke-opacity: 1; stroke-width: 2px; opacity: 1;"/></g><g class="points"/><g class="text"/></g><g class="trace scatter trace48d0bb" style="stroke-miterlimit: 2; opacity: 1;"><g class="fills"/><g class="errorbars"/><g class="lines"><path class="js-line" d="M0,299.52L5.45,290.21L10.91,286.19L16.36,285.73L21.82,283.59L27.27,281.8L32.73,281.16L49.09,282.34L54.55,280.49L70.91,280.8L76.36,277.99L81.82,279.78L87.27,279.29L92.73,276.81L98.18,275.63L103.64,275.7L109.09,274.14L114.55,273.11L120,270.84L125.45,268.01L130.91,268.12L136.36,270.28L141.82,267.25L158.18,262.17L163.64,258.65L169.09,258.41L174.55,256.47L180,253.57L185.45,249.07L190.91,249.18L196.36,248.49L201.82,244.14L207.27,241.87L212.73,240.94L218.18,234.9L223.64,234.05L229.09,229.68L234.55,224.2L240,221.55L250.91,216.16L256.36,209.69L267.27,207.89L272.73,203.77L278.18,198.08L283.64,196.86L289.09,197.62L294.55,191.64L305.45,186.03L310.91,184.74L316.36,179.03L321.82,178.09L327.27,177.78L332.73,172.52L338.18,170.3L343.64,166.37L354.55,163.5L360,159.71L365.45,155.01L370.91,154.56L376.36,156.84L381.82,148.9L387.27,148.9L392.73,147.41L398.18,142.86L403.64,141.04L409.09,142.57L414.55,133.75L420,134.77L425.45,130.99L436.36,125.79L441.82,125.21L447.27,122.41L452.73,118.62L458.18,118.64L463.64,116.35L474.55,110.77L480,111L485.45,105.03L490.91,108.12L496.36,105.58L501.82,106.01L507.27,97.87L512.73,100.26L518.18,99.77L523.64,97.47L529.09,99.03L534.55,97.81L540,94.75" style="vector-effect: non-scaling-stroke; fill: none; stroke: rgb(0, 176, 246); stroke-opacity: 1; stroke-width: 2px; opacity: 1;"/></g><g class="points"/><g class="text"/></g><g class="trace scatter trace94bf33" style="stroke-miterlimit: 2; opacity: 1;"><g class="fills"/><g class="errorbars"/><g class="lines"><path class="js-line" d="M0,298.54L10.91,287.98L16.36,284.95L21.82,283.48L27.27,283.14L32.73,282.27L38.18,283.3L65.45,277.33L70.91,279.82L81.82,278.71L87.27,277.66L92.73,276.03L98.18,275.9L103.64,276.95L109.09,276.08L114.55,273.54L120,275.39L125.45,273.8L130.91,275.28L136.36,270.91L141.82,273.89L147.27,268.97L152.73,269.86L169.09,266.41L174.55,263.96L185.45,263.35L190.91,259.92L196.36,257.31L201.82,257.67L207.27,255.44L212.73,256.31L218.18,252.01L223.64,250.38L229.09,248.85L234.55,245.04L240,244.72L245.45,242.01L261.82,239.98L267.27,236.75L272.73,235.12L278.18,236.99L283.64,234.76L289.09,231.24L294.55,228.41L300,227.43L305.45,230.66L310.91,226.16L316.36,225.23L321.82,222.77L332.73,220.9L338.18,215.98L349.09,214.33L354.55,211.19L360,212.84L365.45,212.06L370.91,210.96L376.36,207.35L387.27,201.63L392.73,201.54L398.18,198.51L403.64,200.11L409.09,194.47L414.55,194.03L420,192.18L425.45,191.67L447.27,185.83L452.73,180.43L458.18,182.91L463.64,180.61L469.09,177.49L474.55,176.58L480,171.99L485.45,171.81L490.91,170.87L496.36,167.84L507.27,164.57L512.73,165.06L523.64,163.1L529.09,160.89L534.55,158.26L540,162.45" style="vector-effect: non-scaling-stroke; fill: none; stroke: rgb(231, 107, 243); stroke-opacity: 1; stroke-width: 2px; opacity: 1;"/></g><g class="points"/><g class="text"/></g><g class="trace scatter tracecb7c82" style="stroke-miterlimit: 2; opacity: 1;"><g class="fills"/><g class="errorbars"/><g class="lines"><path class="js-line" d="M0,298.47L5.45,289.11L10.91,286.04L16.36,284.46L21.82,285.33L27.27,283.61L32.73,283.43L38.18,279.64L43.64,281.54L49.09,282.05L54.55,279.6L60,278.73L65.45,279.2L70.91,277.91L76.36,278.69L81.82,276.08L87.27,276.48L92.73,275.23L98.18,275.21L109.09,273.09L114.55,274.65L120,272.13L125.45,272.47L130.91,269.08L136.36,268.43L141.82,265.92L147.27,264.76L152.73,264.6L158.18,262.64L163.64,263.2L169.09,262.11L180,256.22L185.45,258.36L190.91,254.46L196.36,251.77L201.82,250.63L207.27,250.61L212.73,248.56L218.18,244.08L223.64,245.19L229.09,240.62L240,239.38L245.45,231.53L250.91,235.03L256.36,231.11L261.82,230.6L267.27,227.21L272.73,223.33L278.18,223.67L283.64,218.5L289.09,216.16L294.55,217.83L300,211.94L305.45,213.93L310.91,209.4L316.36,206.89L321.82,205.77L327.27,209.31L332.73,201.49L338.18,200.91L343.64,202.5L349.09,197.95L354.55,197.84L360,197.68L365.45,196.59L370.91,192.09L376.36,195.81L387.27,195.1L392.73,193.92L403.64,191.96L409.09,192.62L414.55,194.34L420,190.86L430.91,189.97L436.36,191.11L441.82,189.33L447.27,188.88L452.73,192.07L458.18,190.64L463.64,191.2L469.09,194.58L474.55,188.52L480,187.92L485.45,188.23L490.91,186.81L496.36,188.17L501.82,192.78L507.27,185.94L512.73,187.5L518.18,184.53L523.64,185.8L529.09,183.84L534.55,186.41L540,186.52" style="vector-effect: non-scaling-stroke; fill: none; stroke: rgb(248, 118, 109); stroke-opacity: 1; stroke-width: 2px; opacity: 1;"/></g><g class="points"/><g class="text"/></g><g class="trace scatter tracedf6c09" style="stroke-miterlimit: 2; opacity: 1;"><g class="fills"/><g class="errorbars"/><g class="lines"><path class="js-line" d="M0,301.24L5.45,288.16L10.91,285.95L16.36,286.02L21.82,284.32L27.27,282.67L32.73,283.68L38.18,283.32L43.64,281.52L49.09,282.12L54.55,279.24L60,280.16L65.45,279.55L70.91,277.13L76.36,279.31L81.82,277.53L87.27,277.1L98.18,274.21L103.64,275.65L114.55,273.09L120,269.57L125.45,271.78L130.91,268.26L136.36,270.28L141.82,271.24L147.27,264.65L152.73,265.78L163.64,265.83L169.09,263.29L180,255.58L185.45,254.64L190.91,254.91L196.36,249.87L201.82,248.27L207.27,247.89L212.73,241.18L218.18,241.49L234.55,236.06L240,235.12L245.45,232.78L250.91,226.96L256.36,225.94L261.82,221.17L267.27,221.35L272.73,218.47L278.18,215.44L283.64,215.2L289.09,214.53L294.55,210.45L300,206.77L305.45,204.39L316.36,201.11L321.82,198.04L332.73,193.96L338.18,194.79L343.64,189.28L349.09,187.72L354.55,184.53L360,184.18L365.45,182.04L370.91,183.26L381.82,176.87L387.27,174.44L392.73,171.81L398.18,173.28L403.64,167.84L409.09,165.86L414.55,164.32L420,160.62L425.45,158.57L430.91,159.6L436.36,155.57L441.82,153.83L447.27,147.43L452.73,146.36L458.18,143.42L463.64,137.65L469.09,133.37L474.55,132.39L480,129.92L485.45,129.11L490.91,123.54L496.36,121.87L501.82,118.04L507.27,115.19L512.73,107.16L518.18,111.53L523.64,107.86L529.09,106.16L534.55,107.34L540,102.4" style="vector-effect: non-scaling-stroke; fill: none; stroke: rgb(163, 165, 0); stroke-opacity: 1; stroke-width: 2px; opacity: 1;"/></g><g class="points"/><g class="text"/></g><g class="trace scatter trace253e47" style="stroke-miterlimit: 2; opacity: 1;"><g class="fills"/><g class="errorbars"/><g class="lines"><path class="js-line" d="M0,299.1L5.45,289.18L10.91,285.93L16.36,283.5L21.82,284.48L27.27,283.03L32.73,282.74L43.64,279.13L49.09,280.62L54.55,280.69L60,278.66L65.45,279.62L70.91,279.75L76.36,278.44L81.82,278.35L92.73,274.81L98.18,276.52L103.64,274.07L109.09,274.12L114.55,275.03L120,270.46L125.45,272.65L130.91,270.62L136.36,268.52L141.82,268.43L147.27,266.41L152.73,261.48L158.18,261.57L163.64,260.26L169.09,258.09L174.55,257.45L180,255.75L185.45,254.86L190.91,253.95L196.36,245.19L201.82,250.32L207.27,243.03L212.73,239.73L218.18,241.47L223.64,238.15L229.09,233.65L234.55,232.2L240,229.19L245.45,230.84L250.91,224.45L261.82,222.35L267.27,217.78L272.73,215.67L278.18,214.37L283.64,210.43L289.09,210.43L294.55,207.58L300,201.03L305.45,198.53L310.91,199.49L316.36,195.05L321.82,188.19L327.27,191.11L332.73,188.66L338.18,183.51L343.64,183.13L349.09,178.3L354.55,179.59L360,179.45L365.45,174.48L376.36,169.09L381.82,171.65L387.27,166.55L392.73,169.47L403.64,162.61L409.09,163.5L420,164.35L425.45,160.85L430.91,158.75L436.36,157.86L441.82,160.2L447.27,157.42L452.73,158.13L458.18,156.17L469.09,157.42L474.55,160.58L480,158.91L485.45,160.96L490.91,160.82L496.36,159.67L501.82,160L507.27,159.09L512.73,165.88L518.18,159.4L523.64,162.3L529.09,157.95L534.55,155.39L540,155.81" style="vector-effect: non-scaling-stroke; fill: none; stroke: rgb(0, 191, 125); stroke-opacity: 1; stroke-width: 2px; opacity: 1;"/></g><g class="points"/><g class="text"/></g><g class="trace scatter tracee3f57b" style="stroke-miterlimit: 2; opacity: 1;"><g class="fills"/><g class="errorbars"/><g class="lines"><path class="js-line" d="M0,298.47L5.45,287.91L10.91,287.6L21.82,282.41L27.27,283.65L32.73,283.83L38.18,282.45L43.64,280.42L49.09,280.22L60,278.53L65.45,279.31L70.91,278.51L76.36,276.43L81.82,277.39L87.27,276.14L92.73,278.33L98.18,274.85L103.64,276.14L109.09,276.46L120,273.89L125.45,272.13L130.91,271.44L136.36,272.13L141.82,269.57L147.27,268.84L152.73,264.91L158.18,265.94L163.64,263.29L169.09,262.37L174.55,258.72L180,256.85L185.45,255.91L190.91,250.92L196.36,253.77L201.82,247.13L207.27,246.62L212.73,243.23L218.18,238.55L223.64,236.72L229.09,235.03L234.55,231.26L240,228.99L245.45,225.16L250.91,221.99L256.36,221.5L261.82,214.22L267.27,211.41L272.73,211.97L278.18,208.36L283.64,207.62L289.09,203.92L294.55,197.1L300,197.55L305.45,192.89L310.91,191.93L316.36,191.78L321.82,189.5L327.27,185.25L332.73,182.2L338.18,183.24L343.64,177.98L354.55,176.62L360,175.02L365.45,170.01L370.91,171.45L376.36,166.95L381.82,172.06L387.27,165.3L392.73,167.93L398.18,165.44L403.64,163.92L420,161.36L425.45,159.91L430.91,156.88L436.36,156.1L441.82,157.99L447.27,155.03L452.73,156.77L458.18,155.01L463.64,154.16L469.09,156.9L480,152.22L485.45,152.6L490.91,153.07L496.36,147.14L501.82,145.47L507.27,150.48L512.73,151.69L518.18,146.85L523.64,152.16L529.09,148.32L534.55,142.71L540,143.29" style="vector-effect: non-scaling-stroke; fill: none; stroke: rgb(0, 176, 246); stroke-opacity: 1; stroke-width: 2px; opacity: 1;"/></g><g class="points"/><g class="text"/></g><g class="trace scatter trace43af72" style="stroke-miterlimit: 2; opacity: 1;"><g class="fills"/><g class="errorbars"/><g class="lines"><path class="js-line" d="M0,300.21L5.45,288.91L10.91,288.53L16.36,283.52L21.82,284.81L27.27,282.34L32.73,282.16L43.64,281.83L49.09,282.67L54.55,280.49L60,280.82L70.91,278.69L76.36,279.35L81.82,279.29L87.27,275.32L92.73,277.66L98.18,274.61L109.09,276.14L114.55,275.41L125.45,271.84L130.91,272.02L136.36,271.06L141.82,266.85L147.27,266.45L152.73,264.6L158.18,266.67L163.64,264.36L180,255.96L185.45,254.17L190.91,252.9L196.36,250.85L201.82,248.53L207.27,247.75L212.73,246.6L218.18,241.34L223.64,239.67L229.09,236.14L234.55,236.17L240,230.93L245.45,229.28L250.91,229.3L256.36,226.3L261.82,226.27L267.27,224.87L272.73,221.73L283.64,219.54L289.09,217.45L294.55,212.26L300,210.74L310.91,211.21L316.36,209.23L321.82,211.65L327.27,208.4L332.73,208.85L338.18,205.84L349.09,208.07L354.55,208L360,207.18L365.45,210.27L370.91,209.78L376.36,212.08L381.82,212.52L387.27,216.91L398.18,219.7L403.64,227.79L409.09,226.54L414.55,228.52L420,234.58L425.45,234.45L430.91,241.94L436.36,243.43L441.82,252.35L447.27,252.64L452.73,256.91L458.18,263.06L463.64,265.2L469.09,260.43L474.55,263.22L480,265.03L485.45,268.26L490.91,268.61L496.36,270.64L501.82,274.09L507.27,278.22L512.73,278.24L523.64,277.5L529.09,277.24L534.55,277.86L540,276.5" style="vector-effect: non-scaling-stroke; fill: none; stroke: rgb(231, 107, 243); stroke-opacity: 1; stroke-width: 2px; opacity: 1;"/></g><g class="points"/><g class="text"/></g></g></g><g class="overplot"/><path class="xlines-above crisp" d="" style="fill: none; stroke-width: 1px; stroke: rgb(0, 0, 0); stroke-opacity: 0;"/><path class="ylines-above crisp" d="" style="fill: none; stroke-width: 1px; stroke: rgb(0, 0, 0); stroke-opacity: 0;"/><g class="overlines-above"/><g class="xaxislayer-above"><path class="xtick ticks crisp" d="M0,421v5" transform="translate(80,0)" style="stroke: rgb(51, 51, 51); stroke-opacity: 1; stroke-width: 1px;"/><path class="xtick ticks crisp" d="M0,421v5" transform="translate(189.09,0)" style="stroke: rgb(51, 51, 51); stroke-opacity: 1; stroke-width: 1px;"/><path class="xtick ticks crisp" d="M0,421v5" transform="translate(298.18,0)" style="stroke: rgb(51, 51, 51); stroke-opacity: 1; stroke-width: 1px;"/><path class="xtick ticks crisp" d="M0,421v5" transform="translate(407.27,0)" style="stroke: rgb(51, 51, 51); stroke-opacity: 1; stroke-width: 1px;"/><path class="xtick ticks crisp" d="M0,421v5" transform="translate(516.36,0)" style="stroke: rgb(51, 51, 51); stroke-opacity: 1; stroke-width: 1px;"/><g class="xtick"><text text-anchor="middle" x="0" y="440.4" transform="translate(80,0)" style="font-family: 'Open Sans', verdana, arial, sans-serif; font-size: 12px; fill: rgb(51, 51, 51); fill-opacity: 1; white-space: pre; opacity: 1;">0</text></g><g class="xtick"><text text-anchor="middle" x="0" y="440.4" style="font-family: 'Open Sans', verdana, arial, sans-serif; font-size: 12px; fill: rgb(51, 51, 51); fill-opacity: 1; white-space: pre; opacity: 1;" transform="translate(189.09,0)">20</text></g><g class="xtick"><text text-anchor="middle" x="0" y="440.4" style="font-family: 'Open Sans', verdana, arial, sans-serif; font-size: 12px; fill: rgb(51, 51, 51); fill-opacity: 1; white-space: pre; opacity: 1;" transform="translate(298.18,0)">40</text></g><g class="xtick"><text text-anchor="middle" x="0" y="440.4" style="font-family: 'Open Sans', verdana, arial, sans-serif; font-size: 12px; fill: rgb(51, 51, 51); fill-opacity: 1; white-space: pre; opacity: 1;" transform="translate(407.27,0)">60</text></g><g class="xtick"><text text-anchor="middle" x="0" y="440.4" style="font-family: 'Open Sans', verdana, arial, sans-serif; font-size: 12px; fill: rgb(51, 51, 51); fill-opacity: 1; white-space: pre; opacity: 1;" transform="translate(516.36,0)">80</text></g></g><g class="yaxislayer-above"><path class="ytick ticks crisp" d="M79,0h-5" transform="translate(0,408.48)" style="stroke: rgb(51, 51, 51); stroke-opacity: 1; stroke-width: 1px;"/><path class="ytick ticks crisp" d="M79,0h-5" transform="translate(0,358.34)" style="stroke: rgb(51, 51, 51); stroke-opacity: 1; stroke-width: 1px;"/><path class="ytick ticks crisp" d="M79,0h-5" transform="translate(0,308.2)" style="stroke: rgb(51, 51, 51); stroke-opacity: 1; stroke-width: 1px;"/><path class="ytick ticks crisp" d="M79,0h-5" transform="translate(0,258.06)" style="stroke: rgb(51, 51, 51); stroke-opacity: 1; stroke-width: 1px;"/><path class="ytick ticks crisp" d="M79,0h-5" transform="translate(0,207.92000000000002)" style="stroke: rgb(51, 51, 51); stroke-opacity: 1; stroke-width: 1px;"/><path class="ytick ticks crisp" d="M79,0h-5" transform="translate(0,157.78)" style="stroke: rgb(51, 51, 51); stroke-opacity: 1; stroke-width: 1px;"/><path class="ytick ticks crisp" d="M79,0h-5" transform="translate(0,107.64)" style="stroke: rgb(51, 51, 51); stroke-opacity: 1; stroke-width: 1px;"/><g class="ytick"><text text-anchor="end" x="71.6" y="4.199999999999999" transform="translate(0,408.48)" style="font-family: 'Open Sans', verdana, arial, sans-serif; font-size: 12px; fill: rgb(51, 51, 51); fill-opacity: 1; white-space: pre; opacity: 1;">0.25</text></g><g class="ytick"><text text-anchor="end" x="71.6" y="4.199999999999999" style="font-family: 'Open Sans', verdana, arial, sans-serif; font-size: 12px; fill: rgb(51, 51, 51); fill-opacity: 1; white-space: pre; opacity: 1;" transform="translate(0,358.34)">0.3</text></g><g class="ytick"><text text-anchor="end" x="71.6" y="4.199999999999999" style="font-family: 'Open Sans', verdana, arial, sans-serif; font-size: 12px; fill: rgb(51, 51, 51); fill-opacity: 1; white-space: pre; opacity: 1;" transform="translate(0,308.2)">0.35</text></g><g class="ytick"><text text-anchor="end" x="71.6" y="4.199999999999999" style="font-family: 'Open Sans', verdana, arial, sans-serif; font-size: 12px; fill: rgb(51, 51, 51); fill-opacity: 1; white-space: pre; opacity: 1;" transform="translate(0,258.06)">0.4</text></g><g class="ytick"><text text-anchor="end" x="71.6" y="4.199999999999999" style="font-family: 'Open Sans', verdana, arial, sans-serif; font-size: 12px; fill: rgb(51, 51, 51); fill-opacity: 1; white-space: pre; opacity: 1;" transform="translate(0,207.92000000000002)">0.45</text></g><g class="ytick"><text text-anchor="end" x="71.6" y="4.199999999999999" style="font-family: 'Open Sans', verdana, arial, sans-serif; font-size: 12px; fill: rgb(51, 51, 51); fill-opacity: 1; white-space: pre; opacity: 1;" transform="translate(0,157.78)">0.5</text></g><g class="ytick"><text text-anchor="end" x="71.6" y="4.199999999999999" style="font-family: 'Open Sans', verdana, arial, sans-serif; font-size: 12px; fill: rgb(51, 51, 51); fill-opacity: 1; white-space: pre; opacity: 1;" transform="translate(0,107.64)">0.55</text></g></g><g class="overaxes-above"/></g></g><g class="polarlayer"/><g class="ternarylayer"/><g class="geolayer"/><g class="funnelarealayer"/><g class="pielayer"/><g class="iciclelayer"/><g class="treemaplayer"/><g class="sunburstlayer"/><g class="glimages"/><defs id="topdefs-cda87b"><g class="clips"/></defs><g class="layer-above"><g class="imagelayer"/><g class="shapelayer"/></g><g class="infolayer"><g class="g-gtitle"><text class="gtitle" x="350" y="50" text-anchor="middle" dy="0em" style="font-family: 'Open Sans', verdana, arial, sans-serif; font-size: 17px; fill: rgb(51, 51, 51); opacity: 1; font-weight: normal; white-space: pre;">Train Accuracy: ascad_v1_fk_0-aisy_mlp_hw (early_stopping)</text></g><g class="g-xtitle"/><g class="g-ytitle"/></g></svg>