<svg class="main-svg" xmlns="http://www.w3.org/2000/svg" xmlns:xlink="http://www.w3.org/1999/xlink" width="700" height="500" style="" viewBox="0 0 700 500"><rect x="0" y="0" width="700" height="500" style="fill: rgb(255, 255, 255); fill-opacity: 1;"/><defs id="defs-10f40f"><g class="clips"><clipPath id="clip10f40fxyplot" class="plotclip"><rect width="470" height="320"/></clipPath><clipPath class="axesclip" id="clip10f40fx"><rect x="80" y="0" width="470" height="500"/></clipPath><clipPath class="axesclip" id="clip10f40fy"><rect x="0" y="100" width="700" height="320"/></clipPath><clipPath class="axesclip" id="clip10f40fxy"><rect x="80" y="100" width="470" height="320"/></clipPath></g><g class="gradients"/><g class="patterns"/></defs><g class="bglayer"><rect class="bg" x="80" y="100" width="470" height="320" style="fill: rgb(237, 237, 237); fill-opacity: 1; stroke-width: 0;"/></g><g class="layer-below"><g class="imagelayer"/><g class="shapelayer"/></g><g class="cartesianlayer"><g class="subplot xy"><g class="layer-subplot"><g class="shapelayer"/><g class="imagelayer"/></g><g class="gridlayer"><g class="x"><path class="xgrid crisp" transform="translate(199.75,0)" d="M0,100v320" style="stroke: rgb(255, 255, 255); stroke-opacity: 1; stroke-width: 1px;"/><path class="xgrid crisp" transform="translate(433.25,0)" d="M0,100v320" style="stroke: rgb(255, 255, 255); stroke-opacity: 1; stroke-width: 1px;"/></g><g class="y"><path class="ygrid crisp" transform="translate(0,358.96)" d="M80,0h470" style="stroke: rgb(255, 255, 255); stroke-opacity: 1; stroke-width: 1px;"/><path class="ygrid crisp" transform="translate(0,313.94)" d="M80,0h470" style="stroke: rgb(255, 255, 255); stroke-opacity: 1; stroke-width: 1px;"/><path class="ygrid crisp" transform="translate(0,268.91999999999996)" d="M80,0h470" style="stroke: rgb(255, 255, 255); stroke-opacity: 1; stroke-width: 1px;"/><path class="ygrid crisp" transform="translate(0,223.9)" d="M80,0h470" style="stroke: rgb(255, 255, 255); stroke-opacity: 1; stroke-width: 1px;"/><path class="ygrid crisp" transform="translate(0,178.88)" d="M80,0h470" style="stroke: rgb(255, 255, 255); stroke-opacity: 1; stroke-width: 1px;"/><path class="ygrid crisp" transform="translate(0,133.86)" d="M80,0h470" style="stroke: rgb(255, 255, 255); stroke-opacity: 1; stroke-width: 1px;"/></g></g><g class="zerolinelayer"><path class="yzl zl crisp" transform="translate(0,403.98)" d="M80,0h470" style="stroke: rgb(255, 255, 255); stroke-opacity: 1; stroke-width: 1px;"/></g><path class="xlines-below"/><path class="ylines-below"/><g class="overlines-below"/><g class="xaxislayer-below"/><g class="yaxislayer-below"/><g class="overaxes-below"/><g class="plot" transform="translate(80,100)" clip-path="url(#clip10f40fxyplot)"><g class="violinlayer mlayer"><g class="trace violins" style="opacity: 1;"><path class="violin" d="M127.49,304Q131.64,304 133.99,304C136.79,304 139.98,303.99 143.2,303.99C146.74,303.99 150.63,303.99 154.34,303.99C158.04,303.99 162,303.99 165.43,303.99C168.41,303.99 171.65,303.99 173.77,303.99C175.08,303.99 176.96,303.98 176.96,303.98C176.96,303.98 175.23,303.98 174,303.98C171.95,303.98 168.75,303.98 165.82,303.98C162.42,303.98 158.47,303.97 154.78,303.97C151.07,303.97 147.16,303.97 143.6,303.97C140.36,303.97 137.14,303.97 134.3,303.97C131.91,303.97 129.63,303.96 127.69,303.96C126.17,303.96 124.77,303.96 123.63,303.96C122.79,303.96 122.04,303.96 121.45,303.96C121.04,303.96 120.69,303.96 120.42,303.96C120.24,303.96 120.09,303.95 119.98,303.95C119.91,303.95 119.86,303.95 119.82,303.95C119.8,303.95 119.78,303.95 119.77,303.95C119.76,303.95 119.76,303.94 119.76,303.94C119.76,303.94 119.75,303.94 119.75,303.94C119.75,303.94 119.75,303.94 119.75,303.94C119.75,303.94 119.75,303.93 119.75,303.93C119.75,303.93 119.75,303.93 119.75,303.93C119.75,303.93 119.75,303.93 119.75,303.93C119.75,303.93 119.75,303.93 119.75,303.93C119.75,303.93 119.75,303.92 119.75,303.92C119.75,303.92 119.75,303.92 119.75,303.92C119.75,303.92 119.75,303.92 119.75,303.92C119.75,303.92 119.75,303.91 119.75,303.91C119.75,303.91 119.75,303.91 119.75,303.91C119.75,303.91 119.75,303.91 119.75,303.91C119.75,303.91 119.75,303.9 119.75,303.9C119.75,303.9 119.75,303.9 119.75,303.9C119.75,303.9 119.75,303.9 119.75,303.9C119.75,303.9 119.75,303.9 119.75,303.9C119.75,303.9 119.75,303.89 119.75,303.89C119.75,303.89 119.75,303.89 119.75,303.89C119.75,303.89 119.75,303.89 119.75,303.89C119.75,303.89 119.75,303.88 119.75,303.88C119.75,303.88 119.75,303.88 119.75,303.88C119.75,303.88 119.75,303.88 119.75,303.88C119.75,303.88 119.75,303.87 119.75,303.87C119.75,303.87 119.75,303.87 119.75,303.87C119.75,303.87 119.75,303.87 119.75,303.87C119.75,303.87 119.75,303.87 119.75,303.87C119.75,303.87 119.75,303.86 119.75,303.86C119.75,303.86 119.75,303.86 119.75,303.86C119.75,303.86 119.75,303.86 119.75,303.86C119.75,303.86 119.75,303.85 119.75,303.85C119.75,303.85 119.75,303.85 119.75,303.85C119.75,303.85 119.75,303.85 119.75,303.85C119.75,303.85 119.75,303.84 119.75,303.84C119.75,303.84 119.75,303.84 119.75,303.84C119.75,303.84 119.75,303.84 119.75,303.84C119.75,303.84 119.75,303.84 119.75,303.84C119.75,303.84 119.75,303.83 119.75,303.83C119.75,303.83 119.75,303.83 119.75,303.83C119.75,303.83 119.75,303.83 119.75,303.83C119.75,303.83 119.75,303.82 119.75,303.82C119.75,303.82 119.75,303.82 119.75,303.82C119.75,303.82 119.75,303.82 119.75,303.82C119.75,303.82 119.75,303.81 119.75,303.81C119.75,303.81 119.75,303.81 119.75,303.81C119.75,303.81 119.75,303.81 119.75,303.81C119.75,303.81 119.75,303.81 119.75,303.81C119.75,303.81 119.75,303.8 119.75,303.8C119.75,303.8 119.75,303.8 119.75,303.8C119.75,303.8 119.75,303.8 119.75,303.8C119.75,303.8 119.75,303.79 119.75,303.79C119.75,303.79 119.75,303.79 119.75,303.79C119.75,303.79 119.75,303.79 119.75,303.79C119.75,303.79 119.75,303.78 119.75,303.78C119.75,303.78 119.75,303.78 119.75,303.78C119.75,303.78 119.75,303.78 119.75,303.78C119.75,303.78 119.75,303.78 119.75,303.78C119.75,303.78 119.75,303.77 119.75,303.77C119.75,303.77 119.75,303.77 119.75,303.77C119.75,303.77 119.75,303.77 119.75,303.77C119.75,303.77 119.75,303.76 119.75,303.76C119.75,303.76 119.75,303.76 119.75,303.76C119.75,303.76 119.75,303.76 119.75,303.76C119.75,303.76 119.75,303.75 119.75,303.75C119.75,303.75 119.75,303.75 119.75,303.75C119.75,303.75 119.75,303.75 119.75,303.75C119.75,303.75 119.75,303.75 119.75,303.75C119.75,303.75 119.75,303.74 119.75,303.74C119.75,303.74 119.75,303.74 119.75,303.74C119.75,303.74 119.75,303.74 119.75,303.74C119.75,303.74 119.75,303.73 119.75,303.73C119.75,303.73 119.75,303.73 119.75,303.73C119.75,303.73 119.75,303.73 119.75,303.73C119.75,303.73 119.75,303.72 119.75,303.72C119.75,303.72 119.75,303.72 119.75,303.72C119.75,303.72 119.75,303.72 119.75,303.72C119.75,303.72 119.75,303.72 119.75,303.72C119.75,303.72 119.75,303.71 119.75,303.71C119.75,303.71 119.75,303.71 119.75,303.71C119.75,303.71 119.75,303.71 119.75,303.71C119.75,303.71 119.75,303.7 119.75,303.7C119.75,303.7 119.75,303.7 119.75,303.7C119.75,303.7 119.75,303.7 119.75,303.7C119.75,303.7 119.75,303.69 119.75,303.69C119.75,303.69 119.75,303.69 119.75,303.69C119.75,303.69 119.75,303.69 119.75,303.69C119.75,303.69 119.75,303.69 119.75,303.69C119.75,303.69 119.75,303.68 119.75,303.68C119.75,303.68 119.75,303.68 119.75,303.68C119.75,303.68 119.75,303.68 119.75,303.68C119.75,303.68 119.75,303.67 119.75,303.67C119.75,303.67 119.75,303.67 119.75,303.67C119.75,303.67 119.75,303.67 119.75,303.67C119.75,303.67 119.75,303.66 119.75,303.66C119.75,303.66 119.75,303.66 119.75,303.66C119.75,303.66 119.75,303.66 119.75,303.66C119.75,303.66 119.75,303.66 119.75,303.66C119.75,303.66 119.75,303.65 119.75,303.65C119.75,303.65 119.75,303.65 119.75,303.65C119.75,303.65 119.75,303.65 119.75,303.65C119.75,303.65 119.75,303.64 119.75,303.64C119.75,303.64 119.75,303.64 119.75,303.64C119.75,303.64 119.75,303.64 119.75,303.64C119.75,303.64 119.75,303.63 119.75,303.63C119.75,303.63 119.75,303.63 119.75,303.63C119.75,303.63 119.75,303.63 119.75,303.63C119.75,303.63 119.75,303.63 119.75,303.63C119.75,303.63 119.75,303.62 119.75,303.62C119.75,303.62 119.75,303.62 119.75,303.62C119.75,303.62 119.75,303.62 119.75,303.62C119.75,303.62 119.75,303.61 119.75,303.61C119.75,303.61 119.75,303.61 119.75,303.61C119.75,303.61 119.75,303.61 119.75,303.61C119.75,303.61 119.75,303.61 119.75,303.61C119.75,303.61 119.75,303.6 119.75,303.6C119.75,303.6 119.75,303.6 119.75,303.6C119.75,303.6 119.75,303.6 119.75,303.6C119.75,303.6 119.75,303.59 119.75,303.59C119.75,303.59 119.75,303.59 119.75,303.59C119.75,303.59 119.75,303.59 119.75,303.59C119.75,303.59 119.75,303.58 119.75,303.58C119.75,303.58 119.75,303.58 119.75,303.58C119.75,303.58 119.75,303.58 119.75,303.58C119.75,303.58 119.75,303.58 119.75,303.58C119.75,303.58 119.75,303.57 119.75,303.57C119.75,303.57 119.75,303.57 119.75,303.57C119.75,303.57 119.76,303.57 119.76,303.57C119.76,303.57 119.76,303.56 119.77,303.56C119.78,303.56 119.79,303.56 119.81,303.56C119.84,303.56 119.87,303.56 119.91,303.56C119.97,303.56 120.04,303.55 120.13,303.55C120.25,303.55 120.41,303.55 120.58,303.55C120.81,303.55 121.08,303.55 121.37,303.55C121.73,303.55 122.14,303.55 122.56,303.55C123.04,303.55 123.58,303.54 124.11,303.54C124.67,303.54 125.28,303.54 125.83,303.54C126.35,303.54 126.9,303.54 127.33,303.54C127.66,303.54 128.21,303.53 128.21,303.53C128.21,303.53 128.21,303.53 128.21,303.53C128.21,303.53 127.66,303.53 127.33,303.53C126.9,303.53 126.35,303.52 125.83,303.52C125.28,303.52 124.67,303.52 124.11,303.52C123.58,303.52 123.04,303.52 122.56,303.52C122.14,303.52 121.73,303.52 121.37,303.52C121.08,303.52 120.81,303.51 120.58,303.51C120.41,303.51 120.25,303.51 120.13,303.51C120.04,303.51 119.97,303.51 119.91,303.51C119.87,303.51 119.84,303.5 119.81,303.5C119.79,303.5 119.78,303.5 119.77,303.5C119.77,303.5 119.76,303.5 119.76,303.5C119.76,303.5 119.75,303.49 119.75,303.49C119.75,303.49 119.75,303.49 119.75,303.49C119.75,303.49 119.75,303.49 119.75,303.49C119.75,303.49 119.75,303.49 119.75,303.49C119.75,303.49 119.75,303.48 119.75,303.48C119.75,303.48 119.75,303.48 119.75,303.48C119.75,303.48 119.75,303.48 119.75,303.48C119.75,303.48 119.75,303.47 119.75,303.47C119.75,303.47 119.75,303.47 119.75,303.47C119.75,303.47 119.75,303.47 119.75,303.47C119.75,303.47 119.75,303.46 119.75,303.46C119.75,303.46 119.75,303.46 119.75,303.46C119.75,303.46 119.75,303.46 119.75,303.46C119.75,303.46 119.75,303.46 119.75,303.46C119.75,303.46 119.75,303.45 119.75,303.45C119.75,303.45 119.75,303.45 119.75,303.45C119.75,303.45 119.75,303.45 119.75,303.45C119.75,303.45 119.75,303.44 119.75,303.44C119.75,303.44 119.75,303.44 119.75,303.44C119.75,303.44 119.75,303.44 119.75,303.44C119.75,303.44 119.75,303.43 119.75,303.43C119.75,303.43 119.75,303.43 119.75,303.43C119.75,303.43 119.75,303.43 119.75,303.43C119.75,303.43 119.75,303.43 119.75,303.43C119.75,303.43 119.75,303.42 119.75,303.42C119.75,303.42 119.75,303.42 119.75,303.42C119.75,303.42 119.75,303.42 119.75,303.42C119.75,303.42 119.75,303.41 119.75,303.41C119.75,303.41 119.75,303.41 119.75,303.41C119.75,303.41 119.75,303.41 119.75,303.41C119.75,303.41 119.75,303.4 119.75,303.4C119.75,303.4 119.75,303.4 119.75,303.4C119.75,303.4 119.75,303.4 119.75,303.4C119.75,303.4 119.75,303.4 119.75,303.4C119.75,303.4 119.75,303.39 119.75,303.39C119.75,303.39 119.75,303.39 119.75,303.39C119.75,303.39 119.75,303.39 119.75,303.39C119.75,303.39 119.75,303.38 119.75,303.38C119.75,303.38 119.75,303.38 119.75,303.38C119.75,303.38 119.75,303.38 119.75,303.38C119.75,303.38 119.75,303.37 119.75,303.37C119.75,303.37 119.75,303.37 119.75,303.37C119.75,303.37 119.75,303.37 119.75,303.37C119.75,303.37 119.75,303.37 119.75,303.37C119.75,303.37 119.75,303.36 119.75,303.36C119.75,303.36 119.75,303.36 119.75,303.36C119.75,303.36 119.75,303.36 119.75,303.36C119.75,303.36 119.75,303.35 119.75,303.35C119.75,303.35 119.75,303.35 119.75,303.35C119.75,303.35 119.75,303.35 119.75,303.35C119.75,303.35 119.75,303.34 119.75,303.34C119.75,303.34 119.75,303.34 119.75,303.34C119.75,303.34 119.75,303.34 119.75,303.34C119.75,303.34 119.75,303.34 119.75,303.34C119.75,303.34 119.75,303.33 119.75,303.33C119.75,303.33 119.75,303.33 119.75,303.33C119.75,303.33 119.75,303.33 119.75,303.33C119.75,303.33 119.75,303.32 119.75,303.32C119.75,303.32 119.75,303.32 119.75,303.32C119.75,303.32 119.75,303.32 119.75,303.32C119.75,303.32 119.75,303.31 119.75,303.31C119.75,303.31 119.75,303.31 119.75,303.31C119.75,303.31 119.75,303.31 119.75,303.31C119.75,303.31 119.75,303.31 119.75,303.31C119.75,303.31 119.75,303.3 119.75,303.3C119.75,303.3 119.75,303.3 119.75,303.3C119.75,303.3 119.75,303.3 119.75,303.3C119.75,303.3 119.75,303.29 119.75,303.29C119.75,303.29 119.75,303.29 119.75,303.29C119.75,303.29 119.75,303.29 119.75,303.29C119.75,303.29 119.75,303.28 119.75,303.28C119.75,303.28 119.75,303.28 119.75,303.28C119.75,303.28 119.75,303.28 119.75,303.28C119.75,303.28 119.75,303.28 119.75,303.28C119.75,303.28 119.75,303.27 119.75,303.27C119.75,303.27 119.75,303.27 119.75,303.27C119.75,303.27 119.75,303.27 119.75,303.27C119.75,303.27 119.75,303.26 119.75,303.26C119.75,303.26 119.75,303.26 119.75,303.26C119.75,303.26 119.75,303.26 119.75,303.26C119.75,303.26 119.75,303.26 119.75,303.26C119.75,303.26 119.75,303.25 119.75,303.25C119.75,303.25 119.75,303.25 119.75,303.25C119.75,303.25 119.75,303.25 119.75,303.25C119.75,303.25 119.75,303.24 119.75,303.24C119.75,303.24 119.75,303.24 119.75,303.24C119.75,303.24 119.75,303.24 119.75,303.24C119.75,303.24 119.75,303.23 119.75,303.23C119.75,303.23 119.75,303.23 119.75,303.23C119.75,303.23 119.75,303.23 119.75,303.23C119.75,303.23 119.75,303.23 119.75,303.23C119.75,303.23 119.75,303.22 119.75,303.22C119.75,303.22 119.75,303.22 119.75,303.22C119.75,303.22 119.75,303.22 119.75,303.22C119.75,303.22 119.75,303.21 119.75,303.21C119.75,303.21 119.75,303.21 119.75,303.21C119.75,303.21 119.75,303.21 119.75,303.21C119.75,303.21 119.75,303.2 119.75,303.2C119.75,303.2 119.75,303.2 119.75,303.2C119.75,303.2 119.75,303.2 119.75,303.2C119.75,303.2 119.75,303.2 119.75,303.2C119.75,303.2 119.75,303.19 119.75,303.19C119.75,303.19 119.75,303.19 119.75,303.19C119.75,303.19 119.75,303.19 119.75,303.19C119.75,303.19 119.75,303.18 119.75,303.18C119.75,303.18 119.75,303.18 119.75,303.18C119.75,303.18 119.75,303.18 119.75,303.18C119.75,303.18 119.75,303.17 119.75,303.17C119.75,303.17 119.75,303.17 119.75,303.17C119.75,303.17 119.75,303.17 119.75,303.17C119.75,303.17 119.75,303.17 119.75,303.17C119.75,303.17 119.75,303.16 119.75,303.16C119.75,303.16 119.75,303.16 119.75,303.16C119.75,303.16 119.75,303.16 119.75,303.16C119.75,303.16 119.75,303.15 119.75,303.15C119.75,303.15 119.75,303.15 119.75,303.15C119.75,303.15 119.75,303.15 119.75,303.15C119.75,303.15 119.75,303.14 119.75,303.14C119.75,303.14 119.75,303.14 119.75,303.14C119.75,303.14 119.75,303.14 119.75,303.14C119.75,303.14 119.75,303.14 119.75,303.14C119.75,303.14 119.75,303.13 119.75,303.13C119.75,303.13 119.75,303.13 119.75,303.13C119.75,303.13 119.75,303.13 119.75,303.13C119.75,303.13 119.75,303.12 119.75,303.12C119.75,303.12 119.75,303.12 119.75,303.12C119.75,303.12 119.75,303.12 119.75,303.12C119.75,303.12 119.76,303.11 119.76,303.11C119.76,303.11 119.77,303.11 119.77,303.11C119.78,303.11 119.8,303.11 119.82,303.11C119.85,303.11 119.88,303.11 119.92,303.11C119.98,303.11 120.06,303.1 120.14,303.1C120.25,303.1 120.39,303.1 120.54,303.1C120.73,303.1 120.96,303.1 121.2,303.1C121.49,303.1 121.81,303.09 122.14,303.09C122.49,303.09 122.88,303.09 123.25,303.09C123.62,303.09 124.02,303.09 124.36,303.09C124.65,303.09 124.98,303.08 125.18,303.08C125.3,303.08 125.47,303.08 125.47,303.08C125.47,303.08 125.28,303.08 125.15,303.08C124.94,303.08 124.62,303.08 124.32,303.08C123.98,303.08 123.58,303.07 123.21,303.07C122.84,303.07 122.45,303.07 122.1,303.07C121.78,303.07 121.45,303.07 121.17,303.07Q120.93,303.07 120.52,303.06L118.98,303.06Q118.57,303.07 118.33,303.07C118.05,303.07 117.72,303.07 117.4,303.07C117.05,303.07 116.66,303.07 116.29,303.07C115.92,303.07 115.52,303.08 115.18,303.08C114.88,303.08 114.56,303.08 114.35,303.08C114.22,303.08 114.03,303.08 114.03,303.08C114.03,303.08 114.2,303.08 114.32,303.08C114.52,303.08 114.85,303.09 115.14,303.09C115.48,303.09 115.88,303.09 116.25,303.09C116.62,303.09 117.01,303.09 117.36,303.09C117.69,303.09 118.01,303.1 118.3,303.1C118.54,303.1 118.77,303.1 118.96,303.1C119.11,303.1 119.25,303.1 119.36,303.1C119.44,303.1 119.52,303.11 119.58,303.11C119.62,303.11 119.65,303.11 119.68,303.11C119.7,303.11 119.72,303.11 119.73,303.11C119.73,303.11 119.74,303.11 119.74,303.11C119.74,303.11 119.75,303.12 119.75,303.12C119.75,303.12 119.75,303.12 119.75,303.12C119.75,303.12 119.75,303.12 119.75,303.12C119.75,303.12 119.75,303.13 119.75,303.13C119.75,303.13 119.75,303.13 119.75,303.13C119.75,303.13 119.75,303.13 119.75,303.13C119.75,303.13 119.75,303.14 119.75,303.14C119.75,303.14 119.75,303.14 119.75,303.14C119.75,303.14 119.75,303.14 119.75,303.14C119.75,303.14 119.75,303.14 119.75,303.14C119.75,303.14 119.75,303.15 119.75,303.15C119.75,303.15 119.75,303.15 119.75,303.15C119.75,303.15 119.75,303.15 119.75,303.15C119.75,303.15 119.75,303.16 119.75,303.16C119.75,303.16 119.75,303.16 119.75,303.16C119.75,303.16 119.75,303.16 119.75,303.16C119.75,303.16 119.75,303.17 119.75,303.17C119.75,303.17 119.75,303.17 119.75,303.17C119.75,303.17 119.75,303.17 119.75,303.17C119.75,303.17 119.75,303.17 119.75,303.17C119.75,303.17 119.75,303.18 119.75,303.18C119.75,303.18 119.75,303.18 119.75,303.18C119.75,303.18 119.75,303.18 119.75,303.18C119.75,303.18 119.75,303.19 119.75,303.19C119.75,303.19 119.75,303.19 119.75,303.19C119.75,303.19 119.75,303.19 119.75,303.19C119.75,303.19 119.75,303.2 119.75,303.2C119.75,303.2 119.75,303.2 119.75,303.2C119.75,303.2 119.75,303.2 119.75,303.2C119.75,303.2 119.75,303.2 119.75,303.2C119.75,303.2 119.75,303.21 119.75,303.21C119.75,303.21 119.75,303.21 119.75,303.21C119.75,303.21 119.75,303.21 119.75,303.21C119.75,303.21 119.75,303.22 119.75,303.22C119.75,303.22 119.75,303.22 119.75,303.22C119.75,303.22 119.75,303.22 119.75,303.22C119.75,303.22 119.75,303.23 119.75,303.23C119.75,303.23 119.75,303.23 119.75,303.23C119.75,303.23 119.75,303.23 119.75,303.23C119.75,303.23 119.75,303.23 119.75,303.23C119.75,303.23 119.75,303.24 119.75,303.24C119.75,303.24 119.75,303.24 119.75,303.24C119.75,303.24 119.75,303.24 119.75,303.24C119.75,303.24 119.75,303.25 119.75,303.25C119.75,303.25 119.75,303.25 119.75,303.25C119.75,303.25 119.75,303.25 119.75,303.25C119.75,303.25 119.75,303.26 119.75,303.26C119.75,303.26 119.75,303.26 119.75,303.26C119.75,303.26 119.75,303.26 119.75,303.26C119.75,303.26 119.75,303.26 119.75,303.26C119.75,303.26 119.75,303.27 119.75,303.27C119.75,303.27 119.75,303.27 119.75,303.27C119.75,303.27 119.75,303.27 119.75,303.27C119.75,303.27 119.75,303.28 119.75,303.28C119.75,303.28 119.75,303.28 119.75,303.28C119.75,303.28 119.75,303.28 119.75,303.28C119.75,303.28 119.75,303.28 119.75,303.28C119.75,303.28 119.75,303.29 119.75,303.29C119.75,303.29 119.75,303.29 119.75,303.29C119.75,303.29 119.75,303.29 119.75,303.29C119.75,303.29 119.75,303.3 119.75,303.3C119.75,303.3 119.75,303.3 119.75,303.3C119.75,303.3 119.75,303.3 119.75,303.3C119.75,303.3 119.75,303.31 119.75,303.31C119.75,303.31 119.75,303.31 119.75,303.31C119.75,303.31 119.75,303.31 119.75,303.31C119.75,303.31 119.75,303.31 119.75,303.31C119.75,303.31 119.75,303.32 119.75,303.32C119.75,303.32 119.75,303.32 119.75,303.32C119.75,303.32 119.75,303.32 119.75,303.32C119.75,303.32 119.75,303.33 119.75,303.33C119.75,303.33 119.75,303.33 119.75,303.33C119.75,303.33 119.75,303.33 119.75,303.33C119.75,303.33 119.75,303.34 119.75,303.34C119.75,303.34 119.75,303.34 119.75,303.34C119.75,303.34 119.75,303.34 119.75,303.34C119.75,303.34 119.75,303.34 119.75,303.34C119.75,303.34 119.75,303.35 119.75,303.35C119.75,303.35 119.75,303.35 119.75,303.35C119.75,303.35 119.75,303.35 119.75,303.35C119.75,303.35 119.75,303.36 119.75,303.36C119.75,303.36 119.75,303.36 119.75,303.36C119.75,303.36 119.75,303.36 119.75,303.36C119.75,303.36 119.75,303.37 119.75,303.37C119.75,303.37 119.75,303.37 119.75,303.37C119.75,303.37 119.75,303.37 119.75,303.37C119.75,303.37 119.75,303.37 119.75,303.37C119.75,303.37 119.75,303.38 119.75,303.38C119.75,303.38 119.75,303.38 119.75,303.38C119.75,303.38 119.75,303.38 119.75,303.38C119.75,303.38 119.75,303.39 119.75,303.39C119.75,303.39 119.75,303.39 119.75,303.39C119.75,303.39 119.75,303.39 119.75,303.39C119.75,303.39 119.75,303.4 119.75,303.4C119.75,303.4 119.75,303.4 119.75,303.4C119.75,303.4 119.75,303.4 119.75,303.4C119.75,303.4 119.75,303.4 119.75,303.4C119.75,303.4 119.75,303.41 119.75,303.41C119.75,303.41 119.75,303.41 119.75,303.41C119.75,303.41 119.75,303.41 119.75,303.41C119.75,303.41 119.75,303.42 119.75,303.42C119.75,303.42 119.75,303.42 119.75,303.42C119.75,303.42 119.75,303.42 119.75,303.42C119.75,303.42 119.75,303.43 119.75,303.43C119.75,303.43 119.75,303.43 119.75,303.43C119.75,303.43 119.75,303.43 119.75,303.43C119.75,303.43 119.75,303.43 119.75,303.43C119.75,303.43 119.75,303.44 119.75,303.44C119.75,303.44 119.75,303.44 119.75,303.44C119.75,303.44 119.75,303.44 119.75,303.44C119.75,303.44 119.75,303.45 119.75,303.45C119.75,303.45 119.75,303.45 119.75,303.45C119.75,303.45 119.75,303.45 119.75,303.45C119.75,303.45 119.75,303.46 119.75,303.46C119.75,303.46 119.75,303.46 119.75,303.46C119.75,303.46 119.75,303.46 119.75,303.46C119.75,303.46 119.75,303.46 119.75,303.46C119.75,303.46 119.75,303.47 119.75,303.47C119.75,303.47 119.75,303.47 119.75,303.47C119.75,303.47 119.75,303.47 119.75,303.47C119.75,303.47 119.75,303.48 119.75,303.48C119.75,303.48 119.75,303.48 119.75,303.48C119.75,303.48 119.75,303.48 119.75,303.48C119.75,303.48 119.75,303.49 119.75,303.49C119.75,303.49 119.75,303.49 119.75,303.49C119.75,303.49 119.75,303.49 119.75,303.49C119.75,303.49 119.75,303.49 119.75,303.49C119.75,303.49 119.74,303.5 119.74,303.5C119.74,303.5 119.73,303.5 119.73,303.5C119.72,303.5 119.71,303.5 119.69,303.5C119.66,303.5 119.63,303.51 119.59,303.51C119.53,303.51 119.46,303.51 119.37,303.51C119.25,303.51 119.09,303.51 118.92,303.51C118.69,303.51 118.42,303.52 118.13,303.52C117.77,303.52 117.36,303.52 116.94,303.52C116.46,303.52 115.92,303.52 115.39,303.52C114.83,303.52 114.22,303.52 113.67,303.52C113.15,303.52 112.6,303.53 112.17,303.53C111.84,303.53 111.29,303.53 111.29,303.53C111.29,303.53 111.29,303.53 111.29,303.53C111.29,303.53 111.84,303.54 112.17,303.54C112.6,303.54 113.15,303.54 113.67,303.54C114.22,303.54 114.83,303.54 115.39,303.54C115.92,303.54 116.46,303.55 116.94,303.55C117.36,303.55 117.77,303.55 118.13,303.55C118.42,303.55 118.69,303.55 118.92,303.55C119.09,303.55 119.25,303.55 119.37,303.55C119.46,303.55 119.53,303.56 119.59,303.56C119.63,303.56 119.66,303.56 119.69,303.56C119.71,303.56 119.72,303.56 119.73,303.56C119.74,303.56 119.74,303.57 119.74,303.57C119.74,303.57 119.75,303.57 119.75,303.57C119.75,303.57 119.75,303.57 119.75,303.57C119.75,303.57 119.75,303.58 119.75,303.58C119.75,303.58 119.75,303.58 119.75,303.58C119.75,303.58 119.75,303.58 119.75,303.58C119.75,303.58 119.75,303.58 119.75,303.58C119.75,303.58 119.75,303.59 119.75,303.59C119.75,303.59 119.75,303.59 119.75,303.59C119.75,303.59 119.75,303.59 119.75,303.59C119.75,303.59 119.75,303.6 119.75,303.6C119.75,303.6 119.75,303.6 119.75,303.6C119.75,303.6 119.75,303.6 119.75,303.6C119.75,303.6 119.75,303.61 119.75,303.61C119.75,303.61 119.75,303.61 119.75,303.61C119.75,303.61 119.75,303.61 119.75,303.61C119.75,303.61 119.75,303.61 119.75,303.61C119.75,303.61 119.75,303.62 119.75,303.62C119.75,303.62 119.75,303.62 119.75,303.62C119.75,303.62 119.75,303.62 119.75,303.62C119.75,303.62 119.75,303.63 119.75,303.63C119.75,303.63 119.75,303.63 119.75,303.63C119.75,303.63 119.75,303.63 119.75,303.63C119.75,303.63 119.75,303.63 119.75,303.63C119.75,303.63 119.75,303.64 119.75,303.64C119.75,303.64 119.75,303.64 119.75,303.64C119.75,303.64 119.75,303.64 119.75,303.64C119.75,303.64 119.75,303.65 119.75,303.65C119.75,303.65 119.75,303.65 119.75,303.65C119.75,303.65 119.75,303.65 119.75,303.65C119.75,303.65 119.75,303.66 119.75,303.66C119.75,303.66 119.75,303.66 119.75,303.66C119.75,303.66 119.75,303.66 119.75,303.66C119.75,303.66 119.75,303.66 119.75,303.66C119.75,303.66 119.75,303.67 119.75,303.67C119.75,303.67 119.75,303.67 119.75,303.67C119.75,303.67 119.75,303.67 119.75,303.67C119.75,303.67 119.75,303.68 119.75,303.68C119.75,303.68 119.75,303.68 119.75,303.68C119.75,303.68 119.75,303.68 119.75,303.68C119.75,303.68 119.75,303.69 119.75,303.69C119.75,303.69 119.75,303.69 119.75,303.69C119.75,303.69 119.75,303.69 119.75,303.69C119.75,303.69 119.75,303.69 119.75,303.69C119.75,303.69 119.75,303.7 119.75,303.7C119.75,303.7 119.75,303.7 119.75,303.7C119.75,303.7 119.75,303.7 119.75,303.7C119.75,303.7 119.75,303.71 119.75,303.71C119.75,303.71 119.75,303.71 119.75,303.71C119.75,303.71 119.75,303.71 119.75,303.71C119.75,303.71 119.75,303.72 119.75,303.72C119.75,303.72 119.75,303.72 119.75,303.72C119.75,303.72 119.75,303.72 119.75,303.72C119.75,303.72 119.75,303.72 119.75,303.72C119.75,303.72 119.75,303.73 119.75,303.73C119.75,303.73 119.75,303.73 119.75,303.73C119.75,303.73 119.75,303.73 119.75,303.73C119.75,303.73 119.75,303.74 119.75,303.74C119.75,303.74 119.75,303.74 119.75,303.74C119.75,303.74 119.75,303.74 119.75,303.74C119.75,303.74 119.75,303.75 119.75,303.75C119.75,303.75 119.75,303.75 119.75,303.75C119.75,303.75 119.75,303.75 119.75,303.75C119.75,303.75 119.75,303.75 119.75,303.75C119.75,303.75 119.75,303.76 119.75,303.76C119.75,303.76 119.75,303.76 119.75,303.76C119.75,303.76 119.75,303.76 119.75,303.76C119.75,303.76 119.75,303.77 119.75,303.77C119.75,303.77 119.75,303.77 119.75,303.77C119.75,303.77 119.75,303.77 119.75,303.77C119.75,303.77 119.75,303.78 119.75,303.78C119.75,303.78 119.75,303.78 119.75,303.78C119.75,303.78 119.75,303.78 119.75,303.78C119.75,303.78 119.75,303.78 119.75,303.78C119.75,303.78 119.75,303.79 119.75,303.79C119.75,303.79 119.75,303.79 119.75,303.79C119.75,303.79 119.75,303.79 119.75,303.79C119.75,303.79 119.75,303.8 119.75,303.8C119.75,303.8 119.75,303.8 119.75,303.8C119.75,303.8 119.75,303.8 119.75,303.8C119.75,303.8 119.75,303.81 119.75,303.81C119.75,303.81 119.75,303.81 119.75,303.81C119.75,303.81 119.75,303.81 119.75,303.81C119.75,303.81 119.75,303.81 119.75,303.81C119.75,303.81 119.75,303.82 119.75,303.82C119.75,303.82 119.75,303.82 119.75,303.82C119.75,303.82 119.75,303.82 119.75,303.82C119.75,303.82 119.75,303.83 119.75,303.83C119.75,303.83 119.75,303.83 119.75,303.83C119.75,303.83 119.75,303.83 119.75,303.83C119.75,303.83 119.75,303.84 119.75,303.84C119.75,303.84 119.75,303.84 119.75,303.84C119.75,303.84 119.75,303.84 119.75,303.84C119.75,303.84 119.75,303.84 119.75,303.84C119.75,303.84 119.75,303.85 119.75,303.85C119.75,303.85 119.75,303.85 119.75,303.85C119.75,303.85 119.75,303.85 119.75,303.85C119.75,303.85 119.75,303.86 119.75,303.86C119.75,303.86 119.75,303.86 119.75,303.86C119.75,303.86 119.75,303.86 119.75,303.86C119.75,303.86 119.75,303.87 119.75,303.87C119.75,303.87 119.75,303.87 119.75,303.87C119.75,303.87 119.75,303.87 119.75,303.87C119.75,303.87 119.75,303.87 119.75,303.87C119.75,303.87 119.75,303.88 119.75,303.88C119.75,303.88 119.75,303.88 119.75,303.88C119.75,303.88 119.75,303.88 119.75,303.88C119.75,303.88 119.75,303.89 119.75,303.89C119.75,303.89 119.75,303.89 119.75,303.89C119.75,303.89 119.75,303.89 119.75,303.89C119.75,303.89 119.75,303.9 119.75,303.9C119.75,303.9 119.75,303.9 119.75,303.9C119.75,303.9 119.75,303.9 119.75,303.9C119.75,303.9 119.75,303.9 119.75,303.9C119.75,303.9 119.75,303.91 119.75,303.91C119.75,303.91 119.75,303.91 119.75,303.91C119.75,303.91 119.75,303.91 119.75,303.91C119.75,303.91 119.75,303.92 119.75,303.92C119.75,303.92 119.75,303.92 119.75,303.92C119.75,303.92 119.75,303.92 119.75,303.92C119.75,303.92 119.75,303.93 119.75,303.93C119.75,303.93 119.75,303.93 119.75,303.93C119.75,303.93 119.75,303.93 119.75,303.93C119.75,303.93 119.75,303.93 119.75,303.93C119.75,303.93 119.75,303.94 119.75,303.94C119.75,303.94 119.75,303.94 119.75,303.94C119.75,303.94 119.74,303.94 119.74,303.94C119.74,303.94 119.74,303.95 119.73,303.95C119.72,303.95 119.7,303.95 119.68,303.95C119.64,303.95 119.59,303.95 119.52,303.95C119.41,303.95 119.26,303.96 119.08,303.96C118.81,303.96 118.46,303.96 118.05,303.96C117.46,303.96 116.71,303.96 115.87,303.96C114.73,303.96 113.33,303.96 111.81,303.96C109.87,303.96 107.59,303.97 105.2,303.97C102.36,303.97 99.14,303.97 95.9,303.97C92.34,303.97 88.43,303.97 84.72,303.97C81.03,303.97 77.08,303.98 73.68,303.98C70.75,303.98 67.55,303.98 65.5,303.98C64.27,303.98 62.54,303.98 62.54,303.98C62.54,303.98 64.42,303.99 65.73,303.99C67.85,303.99 71.09,303.99 74.07,303.99C77.5,303.99 81.46,303.99 85.16,303.99C88.87,303.99 92.76,303.99 96.3,303.99C99.52,303.99 102.71,304 105.51,304Q107.86,304 112.01,304Z" style="vector-effect: non-scaling-stroke; stroke-width: 2px; stroke: rgb(99, 110, 250); stroke-opacity: 1; fill: rgb(99, 110, 250); fill-opacity: 0.5;"/><g class="points"><path class="point" transform="translate(42.84,303.98)" d="M3,0A3,3 0 1,1 0,-3A3,3 0 0,1 3,0Z" style="opacity: 1; stroke-width: 0px; fill: rgb(99, 110, 250); fill-opacity: 1;"/><path class="point" transform="translate(23,303.98)" d="M3,0A3,3 0 1,1 0,-3A3,3 0 0,1 3,0Z" style="opacity: 1; stroke-width: 0px; fill: rgb(99, 110, 250); fill-opacity: 1;"/><path class="point" transform="translate(47.25,303.98)" d="M3,0A3,3 0 1,1 0,-3A3,3 0 0,1 3,0Z" style="opacity: 1; stroke-width: 0px; fill: rgb(99, 110, 250); fill-opacity: 1;"/><path class="point" transform="translate(19.42,303.98)" d="M3,0A3,3 0 1,1 0,-3A3,3 0 0,1 3,0Z" style="opacity: 1; stroke-width: 0px; fill: rgb(99, 110, 250); fill-opacity: 1;"/><path class="point" transform="translate(29.71,303.98)" d="M3,0A3,3 0 1,1 0,-3A3,3 0 0,1 3,0Z" style="opacity: 1; stroke-width: 0px; fill: rgb(99, 110, 250); fill-opacity: 1;"/><path class="point" transform="translate(42.95,303.98)" d="M3,0A3,3 0 1,1 0,-3A3,3 0 0,1 3,0Z" style="opacity: 1; stroke-width: 0px; fill: rgb(99, 110, 250); fill-opacity: 1;"/><path class="point" transform="translate(33.3,303.98)" d="M3,0A3,3 0 1,1 0,-3A3,3 0 0,1 3,0Z" style="opacity: 1; stroke-width: 0px; fill: rgb(99, 110, 250); fill-opacity: 1;"/><path class="point" transform="translate(38.91,303.98)" d="M3,0A3,3 0 1,1 0,-3A3,3 0 0,1 3,0Z" style="opacity: 1; stroke-width: 0px; fill: rgb(99, 110, 250); fill-opacity: 1;"/><path class="point" transform="translate(28.46,303.98)" d="M3,0A3,3 0 1,1 0,-3A3,3 0 0,1 3,0Z" style="opacity: 1; stroke-width: 0px; fill: rgb(99, 110, 250); fill-opacity: 1;"/><path class="point" transform="translate(21.36,303.98)" d="M3,0A3,3 0 1,1 0,-3A3,3 0 0,1 3,0Z" style="opacity: 1; stroke-width: 0px; fill: rgb(99, 110, 250); fill-opacity: 1;"/><path class="point" transform="translate(38.53,303.98)" d="M3,0A3,3 0 1,1 0,-3A3,3 0 0,1 3,0Z" style="opacity: 1; stroke-width: 0px; fill: rgb(99, 110, 250); fill-opacity: 1;"/><path class="point" transform="translate(28.29,303.98)" d="M3,0A3,3 0 1,1 0,-3A3,3 0 0,1 3,0Z" style="opacity: 1; stroke-width: 0px; fill: rgb(99, 110, 250); fill-opacity: 1;"/><path class="point" transform="translate(44.82,303.98)" d="M3,0A3,3 0 1,1 0,-3A3,3 0 0,1 3,0Z" style="opacity: 1; stroke-width: 0px; fill: rgb(99, 110, 250); fill-opacity: 1;"/><path class="point" transform="translate(17.23,303.98)" d="M3,0A3,3 0 1,1 0,-3A3,3 0 0,1 3,0Z" style="opacity: 1; stroke-width: 0px; fill: rgb(99, 110, 250); fill-opacity: 1;"/><path class="point" transform="translate(24.01,303.98)" d="M3,0A3,3 0 1,1 0,-3A3,3 0 0,1 3,0Z" style="opacity: 1; stroke-width: 0px; fill: rgb(99, 110, 250); fill-opacity: 1;"/><path class="point" transform="translate(49.12,303.98)" d="M3,0A3,3 0 1,1 0,-3A3,3 0 0,1 3,0Z" style="opacity: 1; stroke-width: 0px; fill: rgb(99, 110, 250); fill-opacity: 1;"/><path class="point" transform="translate(29.64,303.98)" d="M3,0A3,3 0 1,1 0,-3A3,3 0 0,1 3,0Z" style="opacity: 1; stroke-width: 0px; fill: rgb(99, 110, 250); fill-opacity: 1;"/><path class="point" transform="translate(19.21,303.98)" d="M3,0A3,3 0 1,1 0,-3A3,3 0 0,1 3,0Z" style="opacity: 1; stroke-width: 0px; fill: rgb(99, 110, 250); fill-opacity: 1;"/><path class="point" transform="translate(28.27,303.98)" d="M3,0A3,3 0 1,1 0,-3A3,3 0 0,1 3,0Z" style="opacity: 1; stroke-width: 0px; fill: rgb(99, 110, 250); fill-opacity: 1;"/><path class="point" transform="translate(33.57,303.98)" d="M3,0A3,3 0 1,1 0,-3A3,3 0 0,1 3,0Z" style="opacity: 1; stroke-width: 0px; fill: rgb(99, 110, 250); fill-opacity: 1;"/><path class="point" transform="translate(41.66,303.98)" d="M3,0A3,3 0 1,1 0,-3A3,3 0 0,1 3,0Z" style="opacity: 1; stroke-width: 0px; fill: rgb(99, 110, 250); fill-opacity: 1;"/><path class="point" transform="translate(35.85,303.98)" d="M3,0A3,3 0 1,1 0,-3A3,3 0 0,1 3,0Z" style="opacity: 1; stroke-width: 0px; fill: rgb(99, 110, 250); fill-opacity: 1;"/><path class="point" transform="translate(29.1,303.98)" d="M3,0A3,3 0 1,1 0,-3A3,3 0 0,1 3,0Z" style="opacity: 1; stroke-width: 0px; fill: rgb(99, 110, 250); fill-opacity: 1;"/><path class="point" transform="translate(19.59,303.98)" d="M3,0A3,3 0 1,1 0,-3A3,3 0 0,1 3,0Z" style="opacity: 1; stroke-width: 0px; fill: rgb(99, 110, 250); fill-opacity: 1;"/><path class="point" transform="translate(33.89,303.98)" d="M3,0A3,3 0 1,1 0,-3A3,3 0 0,1 3,0Z" style="opacity: 1; stroke-width: 0px; fill: rgb(99, 110, 250); fill-opacity: 1;"/><path class="point" transform="translate(28.92,303.98)" d="M3,0A3,3 0 1,1 0,-3A3,3 0 0,1 3,0Z" style="opacity: 1; stroke-width: 0px; fill: rgb(99, 110, 250); fill-opacity: 1;"/><path class="point" transform="translate(41.93,303.98)" d="M3,0A3,3 0 1,1 0,-3A3,3 0 0,1 3,0Z" style="opacity: 1; stroke-width: 0px; fill: rgb(99, 110, 250); fill-opacity: 1;"/><path class="point" transform="translate(32.42,303.98)" d="M3,0A3,3 0 1,1 0,-3A3,3 0 0,1 3,0Z" style="opacity: 1; stroke-width: 0px; fill: rgb(99, 110, 250); fill-opacity: 1;"/><path class="point" transform="translate(22.71,303.98)" d="M3,0A3,3 0 1,1 0,-3A3,3 0 0,1 3,0Z" style="opacity: 1; stroke-width: 0px; fill: rgb(99, 110, 250); fill-opacity: 1;"/><path class="point" transform="translate(17.93,303.98)" d="M3,0A3,3 0 1,1 0,-3A3,3 0 0,1 3,0Z" style="opacity: 1; stroke-width: 0px; fill: rgb(99, 110, 250); fill-opacity: 1;"/><path class="point" transform="translate(43.62,303.98)" d="M3,0A3,3 0 1,1 0,-3A3,3 0 0,1 3,0Z" style="opacity: 1; stroke-width: 0px; fill: rgb(99, 110, 250); fill-opacity: 1;"/><path class="point" transform="translate(19.28,303.98)" d="M3,0A3,3 0 1,1 0,-3A3,3 0 0,1 3,0Z" style="opacity: 1; stroke-width: 0px; fill: rgb(99, 110, 250); fill-opacity: 1;"/><path class="point" transform="translate(44.14,303.98)" d="M3,0A3,3 0 1,1 0,-3A3,3 0 0,1 3,0Z" style="opacity: 1; stroke-width: 0px; fill: rgb(99, 110, 250); fill-opacity: 1;"/><path class="point" transform="translate(37.69,303.98)" d="M3,0A3,3 0 1,1 0,-3A3,3 0 0,1 3,0Z" style="opacity: 1; stroke-width: 0px; fill: rgb(99, 110, 250); fill-opacity: 1;"/><path class="point" transform="translate(28.82,303.98)" d="M3,0A3,3 0 1,1 0,-3A3,3 0 0,1 3,0Z" style="opacity: 1; stroke-width: 0px; fill: rgb(99, 110, 250); fill-opacity: 1;"/><path class="point" transform="translate(32.5,303.98)" d="M3,0A3,3 0 1,1 0,-3A3,3 0 0,1 3,0Z" style="opacity: 1; stroke-width: 0px; fill: rgb(99, 110, 250); fill-opacity: 1;"/><path class="point" transform="translate(35.03,303.98)" d="M3,0A3,3 0 1,1 0,-3A3,3 0 0,1 3,0Z" style="opacity: 1; stroke-width: 0px; fill: rgb(99, 110, 250); fill-opacity: 1;"/><path class="point" transform="translate(33.68,303.98)" d="M3,0A3,3 0 1,1 0,-3A3,3 0 0,1 3,0Z" style="opacity: 1; stroke-width: 0px; fill: rgb(99, 110, 250); fill-opacity: 1;"/><path class="point" transform="translate(35.61,303.98)" d="M3,0A3,3 0 1,1 0,-3A3,3 0 0,1 3,0Z" style="opacity: 1; stroke-width: 0px; fill: rgb(99, 110, 250); fill-opacity: 1;"/><path class="point" transform="translate(31.9,303.98)" d="M3,0A3,3 0 1,1 0,-3A3,3 0 0,1 3,0Z" style="opacity: 1; stroke-width: 0px; fill: rgb(99, 110, 250); fill-opacity: 1;"/><path class="point" transform="translate(35.49,303.53)" d="M3,0A3,3 0 1,1 0,-3A3,3 0 0,1 3,0Z" style="opacity: 1; stroke-width: 0px; fill: rgb(99, 110, 250); fill-opacity: 1;"/><path class="point" transform="translate(33.8,303.53)" d="M3,0A3,3 0 1,1 0,-3A3,3 0 0,1 3,0Z" style="opacity: 1; stroke-width: 0px; fill: rgb(99, 110, 250); fill-opacity: 1;"/><path class="point" transform="translate(33.26,303.53)" d="M3,0A3,3 0 1,1 0,-3A3,3 0 0,1 3,0Z" style="opacity: 1; stroke-width: 0px; fill: rgb(99, 110, 250); fill-opacity: 1;"/><path class="point" transform="translate(32.25,303.53)" d="M3,0A3,3 0 1,1 0,-3A3,3 0 0,1 3,0Z" style="opacity: 1; stroke-width: 0px; fill: rgb(99, 110, 250); fill-opacity: 1;"/><path class="point" transform="translate(33.27,303.53)" d="M3,0A3,3 0 1,1 0,-3A3,3 0 0,1 3,0Z" style="opacity: 1; stroke-width: 0px; fill: rgb(99, 110, 250); fill-opacity: 1;"/><path class="point" transform="translate(35.48,303.53)" d="M3,0A3,3 0 1,1 0,-3A3,3 0 0,1 3,0Z" style="opacity: 1; stroke-width: 0px; fill: rgb(99, 110, 250); fill-opacity: 1;"/><path class="point" transform="translate(33.42,303.08)" d="M3,0A3,3 0 1,1 0,-3A3,3 0 0,1 3,0Z" style="opacity: 1; stroke-width: 0px; fill: rgb(99, 110, 250); fill-opacity: 1;"/><path class="point" transform="translate(32.36,303.08)" d="M3,0A3,3 0 1,1 0,-3A3,3 0 0,1 3,0Z" style="opacity: 1; stroke-width: 0px; fill: rgb(99, 110, 250); fill-opacity: 1;"/><path class="point" transform="translate(34.85,303.08)" d="M3,0A3,3 0 1,1 0,-3A3,3 0 0,1 3,0Z" style="opacity: 1; stroke-width: 0px; fill: rgb(99, 110, 250); fill-opacity: 1;"/><path class="point" transform="translate(33.02,303.08)" d="M3,0A3,3 0 1,1 0,-3A3,3 0 0,1 3,0Z" style="opacity: 1; stroke-width: 0px; fill: rgb(99, 110, 250); fill-opacity: 1;"/></g></g><g class="trace violins" style="opacity: 1;"><path class="violin" d="M353.25,244.21Q353.25,241.96 353.25,240.83C353.25,239.7 353.25,238.58 353.25,237.45C353.25,236.32 353.25,235.2 353.25,234.07C353.25,232.94 353.25,231.82 353.25,230.69C353.25,229.56 353.25,228.44 353.25,227.31C353.25,226.18 353.25,225.05 353.25,223.92C353.25,222.79 353.26,221.67 353.26,220.54C353.26,219.41 353.26,218.29 353.26,217.16C353.26,216.03 353.26,214.91 353.26,213.78C353.26,212.65 353.26,211.53 353.26,210.4C353.26,209.27 353.26,208.15 353.26,207.02C353.26,205.89 353.26,204.77 353.26,203.64C353.26,202.51 353.26,201.39 353.26,200.26C353.26,199.13 353.26,198.01 353.26,196.88C353.26,195.75 353.26,194.63 353.26,193.5C353.26,192.37 353.26,191.25 353.26,190.12C353.26,188.99 353.26,187.87 353.26,186.74C353.26,185.61 353.26,184.48 353.26,183.35C353.26,182.22 353.26,181.1 353.26,179.97C353.26,178.84 353.27,177.72 353.27,176.59C353.27,175.46 353.27,174.34 353.27,173.21C353.27,172.08 353.27,170.96 353.27,169.83C353.27,168.7 353.27,167.58 353.27,166.45C353.27,165.32 353.28,164.2 353.28,163.07C353.28,161.94 353.28,160.82 353.28,159.69C353.28,158.56 353.28,157.44 353.28,156.31C353.28,155.18 353.27,154.06 353.27,152.93C353.27,151.8 353.27,150.68 353.27,149.55C353.27,148.42 353.27,147.3 353.27,146.17C353.27,145.04 353.27,143.92 353.27,142.79C353.27,141.66 353.26,140.53 353.26,139.4C353.26,138.27 353.26,137.15 353.26,136.02C353.26,134.89 353.26,133.77 353.26,132.64C353.26,131.51 353.26,130.39 353.26,129.26C353.26,128.13 353.26,127.01 353.26,125.88C353.26,124.75 353.26,123.63 353.26,122.5C353.26,121.37 353.26,120.25 353.26,119.12C353.26,117.99 353.26,116.87 353.26,115.74C353.26,114.61 353.26,113.49 353.26,112.36C353.26,111.23 353.26,110.11 353.26,108.98C353.26,107.85 353.26,106.73 353.26,105.6C353.26,104.47 353.26,103.35 353.26,102.22C353.26,101.09 353.25,99.97 353.25,98.84C353.25,97.71 353.25,96.58 353.25,95.45C353.25,94.32 353.25,93.2 353.25,92.07C353.25,90.94 353.25,89.82 353.25,88.69C353.25,87.56 353.25,86.44 353.25,85.31C353.25,84.18 353.25,83.06 353.25,81.93C353.25,80.8 353.25,79.68 353.25,78.55Q353.25,77.42 353.25,75.17L353.25,75.17Q353.25,77.42 353.25,78.55C353.25,79.68 353.25,80.8 353.25,81.93C353.25,83.06 353.25,84.18 353.25,85.31C353.25,86.44 353.25,87.56 353.25,88.69C353.25,89.82 353.25,90.94 353.25,92.07C353.25,93.2 353.25,94.32 353.25,95.45C353.25,96.58 353.25,97.71 353.25,98.84C353.25,99.97 353.24,101.09 353.24,102.22C353.24,103.35 353.24,104.47 353.24,105.6C353.24,106.73 353.24,107.85 353.24,108.98C353.24,110.11 353.24,111.23 353.24,112.36C353.24,113.49 353.24,114.61 353.24,115.74C353.24,116.87 353.24,117.99 353.24,119.12C353.24,120.25 353.24,121.37 353.24,122.5C353.24,123.63 353.24,124.75 353.24,125.88C353.24,127.01 353.24,128.13 353.24,129.26C353.24,130.39 353.24,131.51 353.24,132.64C353.24,133.77 353.24,134.89 353.24,136.02C353.24,137.15 353.24,138.27 353.24,139.4C353.24,140.53 353.23,141.66 353.23,142.79C353.23,143.92 353.23,145.04 353.23,146.17C353.23,147.3 353.23,148.42 353.23,149.55C353.23,150.68 353.23,151.8 353.23,152.93C353.23,154.06 353.22,155.18 353.22,156.31C353.22,157.44 353.22,158.56 353.22,159.69C353.22,160.82 353.22,161.94 353.22,163.07C353.22,164.2 353.23,165.32 353.23,166.45C353.23,167.58 353.23,168.7 353.23,169.83C353.23,170.96 353.23,172.08 353.23,173.21C353.23,174.34 353.23,175.46 353.23,176.59C353.23,177.72 353.24,178.84 353.24,179.97C353.24,181.1 353.24,182.22 353.24,183.35C353.24,184.48 353.24,185.61 353.24,186.74C353.24,187.87 353.24,188.99 353.24,190.12C353.24,191.25 353.24,192.37 353.24,193.5C353.24,194.63 353.24,195.75 353.24,196.88C353.24,198.01 353.24,199.13 353.24,200.26C353.24,201.39 353.24,202.51 353.24,203.64C353.24,204.77 353.24,205.89 353.24,207.02C353.24,208.15 353.24,209.27 353.24,210.4C353.24,211.53 353.24,212.65 353.24,213.78C353.24,214.91 353.24,216.03 353.24,217.16C353.24,218.29 353.24,219.41 353.24,220.54C353.24,221.67 353.25,222.79 353.25,223.92C353.25,225.05 353.25,226.18 353.25,227.31C353.25,228.44 353.25,229.56 353.25,230.69C353.25,231.82 353.25,232.94 353.25,234.07C353.25,235.2 353.25,236.32 353.25,237.45C353.25,238.58 353.25,239.7 353.25,240.83Q353.25,241.96 353.25,244.21Z" style="vector-effect: non-scaling-stroke; stroke-width: 2px; stroke: rgb(239, 85, 59); stroke-opacity: 1; fill: rgb(239, 85, 59); fill-opacity: 0.5;"/><g class="points"><path class="point" transform="translate(271.51,223.84)" d="M3,0A3,3 0 1,1 0,-3A3,3 0 0,1 3,0Z" style="opacity: 1; stroke-width: 0px; fill: rgb(239, 85, 59); fill-opacity: 1;"/><path class="point" transform="translate(263.05,218.44)" d="M3,0A3,3 0 1,1 0,-3A3,3 0 0,1 3,0Z" style="opacity: 1; stroke-width: 0px; fill: rgb(239, 85, 59); fill-opacity: 1;"/><path class="point" transform="translate(273.01,217.54)" d="M3,0A3,3 0 1,1 0,-3A3,3 0 0,1 3,0Z" style="opacity: 1; stroke-width: 0px; fill: rgb(239, 85, 59); fill-opacity: 1;"/><path class="point" transform="translate(260.95,209.89)" d="M3,0A3,3 0 1,1 0,-3A3,3 0 0,1 3,0Z" style="opacity: 1; stroke-width: 0px; fill: rgb(239, 85, 59); fill-opacity: 1;"/><path class="point" transform="translate(265.64,205.84)" d="M3,0A3,3 0 1,1 0,-3A3,3 0 0,1 3,0Z" style="opacity: 1; stroke-width: 0px; fill: rgb(239, 85, 59); fill-opacity: 1;"/><path class="point" transform="translate(271.22,204.49)" d="M3,0A3,3 0 1,1 0,-3A3,3 0 0,1 3,0Z" style="opacity: 1; stroke-width: 0px; fill: rgb(239, 85, 59); fill-opacity: 1;"/><path class="point" transform="translate(267.16,193.68)" d="M3,0A3,3 0 1,1 0,-3A3,3 0 0,1 3,0Z" style="opacity: 1; stroke-width: 0px; fill: rgb(239, 85, 59); fill-opacity: 1;"/><path class="point" transform="translate(269.6,191.43)" d="M3,0A3,3 0 1,1 0,-3A3,3 0 0,1 3,0Z" style="opacity: 1; stroke-width: 0px; fill: rgb(239, 85, 59); fill-opacity: 1;"/><path class="point" transform="translate(264.84,191.43)" d="M3,0A3,3 0 1,1 0,-3A3,3 0 0,1 3,0Z" style="opacity: 1; stroke-width: 0px; fill: rgb(239, 85, 59); fill-opacity: 1;"/><path class="point" transform="translate(261.19,183.78)" d="M3,0A3,3 0 1,1 0,-3A3,3 0 0,1 3,0Z" style="opacity: 1; stroke-width: 0px; fill: rgb(239, 85, 59); fill-opacity: 1;"/><path class="point" transform="translate(269.67,177.92)" d="M3,0A3,3 0 1,1 0,-3A3,3 0 0,1 3,0Z" style="opacity: 1; stroke-width: 0px; fill: rgb(239, 85, 59); fill-opacity: 1;"/><path class="point" transform="translate(264.12,176.57)" d="M3,0A3,3 0 1,1 0,-3A3,3 0 0,1 3,0Z" style="opacity: 1; stroke-width: 0px; fill: rgb(239, 85, 59); fill-opacity: 1;"/><path class="point" transform="translate(273.84,174.77)" d="M3,0A3,3 0 1,1 0,-3A3,3 0 0,1 3,0Z" style="opacity: 1; stroke-width: 0px; fill: rgb(239, 85, 59); fill-opacity: 1;"/><path class="point" transform="translate(257.97,173.87)" d="M3,0A3,3 0 1,1 0,-3A3,3 0 0,1 3,0Z" style="opacity: 1; stroke-width: 0px; fill: rgb(239, 85, 59); fill-opacity: 1;"/><path class="point" transform="translate(261.23,172.97)" d="M3,0A3,3 0 1,1 0,-3A3,3 0 0,1 3,0Z" style="opacity: 1; stroke-width: 0px; fill: rgb(239, 85, 59); fill-opacity: 1;"/><path class="point" transform="translate(278.65,170.27)" d="M3,0A3,3 0 1,1 0,-3A3,3 0 0,1 3,0Z" style="opacity: 1; stroke-width: 0px; fill: rgb(239, 85, 59); fill-opacity: 1;"/><path class="point" transform="translate(264.21,170.27)" d="M3,0A3,3 0 1,1 0,-3A3,3 0 0,1 3,0Z" style="opacity: 1; stroke-width: 0px; fill: rgb(239, 85, 59); fill-opacity: 1;"/><path class="point" transform="translate(256.21,168.02)" d="M3,0A3,3 0 1,1 0,-3A3,3 0 0,1 3,0Z" style="opacity: 1; stroke-width: 0px; fill: rgb(239, 85, 59); fill-opacity: 1;"/><path class="point" transform="translate(262.97,166.22)" d="M3,0A3,3 0 1,1 0,-3A3,3 0 0,1 3,0Z" style="opacity: 1; stroke-width: 0px; fill: rgb(239, 85, 59); fill-opacity: 1;"/><path class="point" transform="translate(267.15,163.07)" d="M3,0A3,3 0 1,1 0,-3A3,3 0 0,1 3,0Z" style="opacity: 1; stroke-width: 0px; fill: rgb(239, 85, 59); fill-opacity: 1;"/><path class="point" transform="translate(274.12,163.07)" d="M3,0A3,3 0 1,1 0,-3A3,3 0 0,1 3,0Z" style="opacity: 1; stroke-width: 0px; fill: rgb(239, 85, 59); fill-opacity: 1;"/><path class="point" transform="translate(269.06,162.17)" d="M3,0A3,3 0 1,1 0,-3A3,3 0 0,1 3,0Z" style="opacity: 1; stroke-width: 0px; fill: rgb(239, 85, 59); fill-opacity: 1;"/><path class="point" transform="translate(263.25,160.81)" d="M3,0A3,3 0 1,1 0,-3A3,3 0 0,1 3,0Z" style="opacity: 1; stroke-width: 0px; fill: rgb(239, 85, 59); fill-opacity: 1;"/><path class="point" transform="translate(255.26,160.81)" d="M3,0A3,3 0 1,1 0,-3A3,3 0 0,1 3,0Z" style="opacity: 1; stroke-width: 0px; fill: rgb(239, 85, 59); fill-opacity: 1;"/><path class="point" transform="translate(267.39,159.46)" d="M3,0A3,3 0 1,1 0,-3A3,3 0 0,1 3,0Z" style="opacity: 1; stroke-width: 0px; fill: rgb(239, 85, 59); fill-opacity: 1;"/><path class="point" transform="translate(262.8,159.46)" d="M3,0A3,3 0 1,1 0,-3A3,3 0 0,1 3,0Z" style="opacity: 1; stroke-width: 0px; fill: rgb(239, 85, 59); fill-opacity: 1;"/><path class="point" transform="translate(275.02,159.01)" d="M3,0A3,3 0 1,1 0,-3A3,3 0 0,1 3,0Z" style="opacity: 1; stroke-width: 0px; fill: rgb(239, 85, 59); fill-opacity: 1;"/><path class="point" transform="translate(266.09,157.21)" d="M3,0A3,3 0 1,1 0,-3A3,3 0 0,1 3,0Z" style="opacity: 1; stroke-width: 0px; fill: rgb(239, 85, 59); fill-opacity: 1;"/><path class="point" transform="translate(257.5,154.96)" d="M3,0A3,3 0 1,1 0,-3A3,3 0 0,1 3,0Z" style="opacity: 1; stroke-width: 0px; fill: rgb(239, 85, 59); fill-opacity: 1;"/><path class="point" transform="translate(253.27,154.96)" d="M3,0A3,3 0 1,1 0,-3A3,3 0 0,1 3,0Z" style="opacity: 1; stroke-width: 0px; fill: rgb(239, 85, 59); fill-opacity: 1;"/><path class="point" transform="translate(275.65,153.61)" d="M3,0A3,3 0 1,1 0,-3A3,3 0 0,1 3,0Z" style="opacity: 1; stroke-width: 0px; fill: rgb(239, 85, 59); fill-opacity: 1;"/><path class="point" transform="translate(255.47,153.16)" d="M3,0A3,3 0 1,1 0,-3A3,3 0 0,1 3,0Z" style="opacity: 1; stroke-width: 0px; fill: rgb(239, 85, 59); fill-opacity: 1;"/><path class="point" transform="translate(276.27,150.46)" d="M3,0A3,3 0 1,1 0,-3A3,3 0 0,1 3,0Z" style="opacity: 1; stroke-width: 0px; fill: rgb(239, 85, 59); fill-opacity: 1;"/><path class="point" transform="translate(270.76,150.46)" d="M3,0A3,3 0 1,1 0,-3A3,3 0 0,1 3,0Z" style="opacity: 1; stroke-width: 0px; fill: rgb(239, 85, 59); fill-opacity: 1;"/><path class="point" transform="translate(264.09,149.11)" d="M3,0A3,3 0 1,1 0,-3A3,3 0 0,1 3,0Z" style="opacity: 1; stroke-width: 0px; fill: rgb(239, 85, 59); fill-opacity: 1;"/><path class="point" transform="translate(260.71,148.21)" d="M3,0A3,3 0 1,1 0,-3A3,3 0 0,1 3,0Z" style="opacity: 1; stroke-width: 0px; fill: rgb(239, 85, 59); fill-opacity: 1;"/><path class="point" transform="translate(272.45,146.86)" d="M3,0A3,3 0 1,1 0,-3A3,3 0 0,1 3,0Z" style="opacity: 1; stroke-width: 0px; fill: rgb(239, 85, 59); fill-opacity: 1;"/><path class="point" transform="translate(266.2,146.41)" d="M3,0A3,3 0 1,1 0,-3A3,3 0 0,1 3,0Z" style="opacity: 1; stroke-width: 0px; fill: rgb(239, 85, 59); fill-opacity: 1;"/><path class="point" transform="translate(274.18,144.61)" d="M3,0A3,3 0 1,1 0,-3A3,3 0 0,1 3,0Z" style="opacity: 1; stroke-width: 0px; fill: rgb(239, 85, 59); fill-opacity: 1;"/><path class="point" transform="translate(259.53,136.05)" d="M3,0A3,3 0 1,1 0,-3A3,3 0 0,1 3,0Z" style="opacity: 1; stroke-width: 0px; fill: rgb(239, 85, 59); fill-opacity: 1;"/><path class="point" transform="translate(272.96,135.15)" d="M3,0A3,3 0 1,1 0,-3A3,3 0 0,1 3,0Z" style="opacity: 1; stroke-width: 0px; fill: rgb(239, 85, 59); fill-opacity: 1;"/><path class="point" transform="translate(266.79,133.8)" d="M3,0A3,3 0 1,1 0,-3A3,3 0 0,1 3,0Z" style="opacity: 1; stroke-width: 0px; fill: rgb(239, 85, 59); fill-opacity: 1;"/><path class="point" transform="translate(264.5,132.45)" d="M3,0A3,3 0 1,1 0,-3A3,3 0 0,1 3,0Z" style="opacity: 1; stroke-width: 0px; fill: rgb(239, 85, 59); fill-opacity: 1;"/><path class="point" transform="translate(260.34,125.7)" d="M3,0A3,3 0 1,1 0,-3A3,3 0 0,1 3,0Z" style="opacity: 1; stroke-width: 0px; fill: rgb(239, 85, 59); fill-opacity: 1;"/><path class="point" transform="translate(264.44,122.1)" d="M3,0A3,3 0 1,1 0,-3A3,3 0 0,1 3,0Z" style="opacity: 1; stroke-width: 0px; fill: rgb(239, 85, 59); fill-opacity: 1;"/><path class="point" transform="translate(272.36,116.24)" d="M3,0A3,3 0 1,1 0,-3A3,3 0 0,1 3,0Z" style="opacity: 1; stroke-width: 0px; fill: rgb(239, 85, 59); fill-opacity: 1;"/><path class="point" transform="translate(265.75,108.14)" d="M3,0A3,3 0 1,1 0,-3A3,3 0 0,1 3,0Z" style="opacity: 1; stroke-width: 0px; fill: rgb(239, 85, 59); fill-opacity: 1;"/><path class="point" transform="translate(262.21,103.64)" d="M3,0A3,3 0 1,1 0,-3A3,3 0 0,1 3,0Z" style="opacity: 1; stroke-width: 0px; fill: rgb(239, 85, 59); fill-opacity: 1;"/><path class="point" transform="translate(270.77,98.69)" d="M3,0A3,3 0 1,1 0,-3A3,3 0 0,1 3,0Z" style="opacity: 1; stroke-width: 0px; fill: rgb(239, 85, 59); fill-opacity: 1;"/><path class="point" transform="translate(263.85,95.53)" d="M3,0A3,3 0 1,1 0,-3A3,3 0 0,1 3,0Z" style="opacity: 1; stroke-width: 0px; fill: rgb(239, 85, 59); fill-opacity: 1;"/></g></g></g></g><g class="overplot"/><path class="xlines-above crisp" d="" style="fill: none; stroke-width: 1px; stroke: rgb(0, 0, 0); stroke-opacity: 0;"/><path class="ylines-above crisp" d="" style="fill: none; stroke-width: 1px; stroke: rgb(0, 0, 0); stroke-opacity: 0;"/><g class="overlines-above"/><g class="xaxislayer-above"><path class="xtick ticks crisp" d="M0,421v5" transform="translate(199.75,0)" style="stroke: rgb(51, 51, 51); stroke-opacity: 1; stroke-width: 1px;"/><path class="xtick ticks crisp" d="M0,421v5" transform="translate(433.25,0)" style="stroke: rgb(51, 51, 51); stroke-opacity: 1; stroke-width: 1px;"/><g class="xtick"><text text-anchor="middle" x="0" y="440.4" transform="translate(199.75,0)" style="font-family: 'Open Sans', verdana, arial, sans-serif; font-size: 12px; fill: rgb(51, 51, 51); fill-opacity: 1; white-space: pre; opacity: 1;">s_eff_cnn_id</text></g><g class="xtick"><text text-anchor="middle" x="0" y="440.4" transform="translate(433.25,0)" style="font-family: 'Open Sans', verdana, arial, sans-serif; font-size: 12px; fill: rgb(51, 51, 51); fill-opacity: 1; white-space: pre; opacity: 1;">s_eff_cnn_hw</text></g></g><g class="yaxislayer-above"><path class="ytick ticks crisp" d="M79,0h-5" transform="translate(0,403.98)" style="stroke: rgb(51, 51, 51); stroke-opacity: 1; stroke-width: 1px;"/><path class="ytick ticks crisp" d="M79,0h-5" transform="translate(0,358.96)" style="stroke: rgb(51, 51, 51); stroke-opacity: 1; stroke-width: 1px;"/><path class="ytick ticks crisp" d="M79,0h-5" transform="translate(0,313.94)" style="stroke: rgb(51, 51, 51); stroke-opacity: 1; stroke-width: 1px;"/><path class="ytick ticks crisp" d="M79,0h-5" transform="translate(0,268.91999999999996)" style="stroke: rgb(51, 51, 51); stroke-opacity: 1; stroke-width: 1px;"/><path class="ytick ticks crisp" d="M79,0h-5" transform="translate(0,223.9)" style="stroke: rgb(51, 51, 51); stroke-opacity: 1; stroke-width: 1px;"/><path class="ytick ticks crisp" d="M79,0h-5" transform="translate(0,178.88)" style="stroke: rgb(51, 51, 51); stroke-opacity: 1; stroke-width: 1px;"/><path class="ytick ticks crisp" d="M79,0h-5" transform="translate(0,133.86)" style="stroke: rgb(51, 51, 51); stroke-opacity: 1; stroke-width: 1px;"/><g class="ytick"><text text-anchor="end" x="71.6" y="4.199999999999999" transform="translate(0,403.98)" style="font-family: 'Open Sans', verdana, arial, sans-serif; font-size: 12px; fill: rgb(51, 51, 51); fill-opacity: 1; white-space: pre; opacity: 1;">0</text></g><g class="ytick"><text text-anchor="end" x="71.6" y="4.199999999999999" style="font-family: 'Open Sans', verdana, arial, sans-serif; font-size: 12px; fill: rgb(51, 51, 51); fill-opacity: 1; white-space: pre; opacity: 1;" transform="translate(0,358.96)">5</text></g><g class="ytick"><text text-anchor="end" x="71.6" y="4.199999999999999" style="font-family: 'Open Sans', verdana, arial, sans-serif; font-size: 12px; fill: rgb(51, 51, 51); fill-opacity: 1; white-space: pre; opacity: 1;" transform="translate(0,313.94)">10</text></g><g class="ytick"><text text-anchor="end" x="71.6" y="4.199999999999999" style="font-family: 'Open Sans', verdana, arial, sans-serif; font-size: 12px; fill: rgb(51, 51, 51); fill-opacity: 1; white-space: pre; opacity: 1;" transform="translate(0,268.91999999999996)">15</text></g><g class="ytick"><text text-anchor="end" x="71.6" y="4.199999999999999" style="font-family: 'Open Sans', verdana, arial, sans-serif; font-size: 12px; fill: rgb(51, 51, 51); fill-opacity: 1; white-space: pre; opacity: 1;" transform="translate(0,223.9)">20</text></g><g class="ytick"><text text-anchor="end" x="71.6" y="4.199999999999999" style="font-family: 'Open Sans', verdana, arial, sans-serif; font-size: 12px; fill: rgb(51, 51, 51); fill-opacity: 1; white-space: pre; opacity: 1;" transform="translate(0,178.88)">25</text></g><g class="ytick"><text text-anchor="end" x="71.6" y="4.199999999999999" style="font-family: 'Open Sans', verdana, arial, sans-serif; font-size: 12px; fill: rgb(51, 51, 51); fill-opacity: 1; white-space: pre; opacity: 1;" transform="translate(0,133.86)">30</text></g></g><g class="overaxes-above"/></g></g><g class="polarlayer"/><g class="ternarylayer"/><g class="geolayer"/><g class="funnelarealayer"/><g class="pielayer"/><g class="iciclelayer"/><g class="treemaplayer"/><g class="sunburstlayer"/><g class="glimages"/><defs id="topdefs-10f40f"><g class="clips"/><clipPath id="legend10f40f"><rect width="129" height="67" x="0" y="0"/></clipPath></defs><g class="layer-above"><g class="imagelayer"/><g class="shapelayer"/></g><g class="infolayer"><g class="legend" pointer-events="all" transform="translate(559.4000000000001,100)"><rect class="bg" shape-rendering="crispEdges" width="129" height="67" x="0" y="0" style="stroke: rgb(68, 68, 68); stroke-opacity: 1; fill: rgb(255, 255, 255); fill-opacity: 1; stroke-width: 0px;"/><g class="scrollbox" transform="" clip-path="url(#legend10f40f)"><text class="legendtitletext" text-anchor="start" x="2" y="18.2" style="font-family: 'Open Sans', verdana, arial, sans-serif; font-size: 14px; fill: rgb(51, 51, 51); fill-opacity: 1; white-space: pre;">model</text><g class="groups" transform=""><g class="traces" transform="translate(0,32.7)" style="opacity: 1;"><text class="legendtext" text-anchor="start" x="40" y="4.680000000000001" style="font-family: 'Open Sans', verdana, arial, sans-serif; font-size: 12px; fill: rgb(51, 51, 51); fill-opacity: 1; white-space: pre;">s_eff_cnn_id</text><g class="layers" style="opacity: 1;"><g class="legendfill"/><g class="legendlines"/><g class="legendsymbols"><g class="legendpoints"><path class="legendbox" d="M6,6H-6V-6H6Z" transform="translate(20,0)" style="stroke-width: 2px; fill: rgb(99, 110, 250); fill-opacity: 0.5; stroke: rgb(99, 110, 250); stroke-opacity: 1;"/></g></g></g><rect class="legendtoggle" x="0" y="-9.5" width="123.703125" height="19" style="fill: rgb(0, 0, 0); fill-opacity: 0;"/></g></g><g class="groups" transform=""><g class="traces" transform="translate(0,51.7)" style="opacity: 1;"><text class="legendtext" text-anchor="start" x="40" y="4.680000000000001" style="font-family: 'Open Sans', verdana, arial, sans-serif; font-size: 12px; fill: rgb(51, 51, 51); fill-opacity: 1; white-space: pre;">s_eff_cnn_hw</text><g class="layers" style="opacity: 1;"><g class="legendfill"/><g class="legendlines"/><g class="legendsymbols"><g class="legendpoints"><path class="legendbox" d="M6,6H-6V-6H6Z" transform="translate(20,0)" style="stroke-width: 2px; fill: rgb(239, 85, 59); fill-opacity: 0.5; stroke: rgb(239, 85, 59); stroke-opacity: 1;"/></g></g></g><rect class="legendtoggle" x="0" y="-9.5" width="123.703125" height="19" style="fill: rgb(0, 0, 0); fill-opacity: 0;"/></g></g></g><rect class="scrollbar" rx="20" ry="3" width="0" height="0" x="0" y="0" style="fill: rgb(128, 139, 164); fill-opacity: 1;"/></g><g class="g-gtitle"><text class="gtitle" x="350" y="50" text-anchor="middle" dy="0em" style="font-family: 'Open Sans', verdana, arial, sans-serif; font-size: 17px; fill: rgb(51, 51, 51); opacity: 1; font-weight: normal; white-space: pre;">Distribution of average ranks over 50 experiments (with 400 traces)</text></g><g class="g-xtitle"><text class="xtitle" x="315" y="468.20625" text-anchor="middle" style="font-family: 'Open Sans', verdana, arial, sans-serif; font-size: 14px; fill: rgb(51, 51, 51); opacity: 1; font-weight: normal; white-space: pre;">model</text></g><g class="g-ytitle"><text class="ytitle" transform="rotate(-90,31.528125000000003,260)" x="31.528125000000003" y="260" text-anchor="middle" style="font-family: 'Open Sans', verdana, arial, sans-serif; font-size: 14px; fill: rgb(51, 51, 51); opacity: 1; font-weight: normal; white-space: pre;">Average Ranks</text></g><g class="annotation" data-index="0" style="opacity: 1;"><g class="annotation-text-g" transform="rotate(0,199.75,133)"><g class="cursor-pointer" transform="translate(157,100)"><rect class="bg" x="0.5" y="0.5" width="85" height="65" style="stroke-width: 1px; stroke: rgb(0, 0, 0); stroke-opacity: 1; fill: rgb(211, 211, 211); fill-opacity: 1;"/><text class="annotation-text" text-anchor="middle" x="42.65625" y="-1.59375" style="font-family: 'Open Sans', verdana, arial, sans-serif; font-size: 12px; fill: rgb(51, 51, 51); fill-opacity: 1; white-space: pre;"><tspan class="line" dy="0em" x="42.65625" y="-1.59375"></tspan><tspan class="line" dy="1.3em" x="42.65625" y="-1.59375">min: 0.00</tspan><tspan class="line" dy="2.6em" x="42.65625" y="-1.59375">max: 0.10</tspan><tspan class="line" dy="3.9000000000000004em" x="42.65625" y="-1.59375">median: 0.00</tspan><tspan class="line" dy="5.2em" x="42.65625" y="-1.59375">mean: 0.01</tspan></text></g></g></g><g class="annotation" data-index="1" style="opacity: 1;"><g class="annotation-text-g" transform="rotate(0,433.25,133)"><g class="cursor-pointer" transform="translate(387,100)"><rect class="bg" x="0.5" y="0.5" width="92" height="65" style="stroke-width: 1px; stroke: rgb(0, 0, 0); stroke-opacity: 1; fill: rgb(211, 211, 211); fill-opacity: 1;"/><text class="annotation-text" text-anchor="middle" x="46.484375" y="-1.59375" style="font-family: 'Open Sans', verdana, arial, sans-serif; font-size: 12px; fill: rgb(51, 51, 51); fill-opacity: 1; white-space: pre;"><tspan class="line" dy="0em" x="46.484375" y="-1.59375"></tspan><tspan class="line" dy="1.3em" x="46.484375" y="-1.59375">min: 8.90</tspan><tspan class="line" dy="2.6em" x="46.484375" y="-1.59375">max: 23.15</tspan><tspan class="line" dy="3.9000000000000004em" x="46.484375" y="-1.59375">median: 16.05</tspan><tspan class="line" dy="5.2em" x="46.484375" y="-1.59375">mean: 16.00</tspan></text></g></g></g></g></svg>