<svg class="main-svg" xmlns="http://www.w3.org/2000/svg" xmlns:xlink="http://www.w3.org/1999/xlink" width="700" height="500" style="" viewBox="0 0 700 500"><rect x="0" y="0" width="700" height="500" style="fill: rgb(255, 255, 255); fill-opacity: 1;"/><defs id="defs-5d422e"><g class="clips"><clipPath id="clip5d422exyplot" class="plotclip"><rect width="540" height="320"/></clipPath><clipPath class="axesclip" id="clip5d422ex"><rect x="80" y="0" width="540" height="500"/></clipPath><clipPath class="axesclip" id="clip5d422ey"><rect x="0" y="100" width="700" height="320"/></clipPath><clipPath class="axesclip" id="clip5d422exy"><rect x="80" y="100" width="540" height="320"/></clipPath></g><g class="gradients"/><g class="patterns"/></defs><g class="bglayer"><rect class="bg" x="80" y="100" width="540" height="320" style="fill: rgb(237, 237, 237); fill-opacity: 1; stroke-width: 0;"/></g><g class="layer-below"><g class="imagelayer"/><g class="shapelayer"/></g><g class="cartesianlayer"><g class="subplot xy"><g class="layer-subplot"><g class="shapelayer"/><g class="imagelayer"/></g><g class="gridlayer"><g class="x"><path class="xgrid crisp" transform="translate(188.43,0)" d="M0,100v320" style="stroke: rgb(255, 255, 255); stroke-opacity: 1; stroke-width: 1px;"/><path class="xgrid crisp" transform="translate(296.87,0)" d="M0,100v320" style="stroke: rgb(255, 255, 255); stroke-opacity: 1; stroke-width: 1px;"/><path class="xgrid crisp" transform="translate(405.3,0)" d="M0,100v320" style="stroke: rgb(255, 255, 255); stroke-opacity: 1; stroke-width: 1px;"/><path class="xgrid crisp" transform="translate(513.73,0)" d="M0,100v320" style="stroke: rgb(255, 255, 255); stroke-opacity: 1; stroke-width: 1px;"/></g><g class="y"><path class="ygrid crisp" transform="translate(0,342.06)" d="M80,0h540" style="stroke: rgb(255, 255, 255); stroke-opacity: 1; stroke-width: 1px;"/><path class="ygrid crisp" transform="translate(0,280.13)" d="M80,0h540" style="stroke: rgb(255, 255, 255); stroke-opacity: 1; stroke-width: 1px;"/><path class="ygrid crisp" transform="translate(0,218.19)" d="M80,0h540" style="stroke: rgb(255, 255, 255); stroke-opacity: 1; stroke-width: 1px;"/><path class="ygrid crisp" transform="translate(0,156.26)" d="M80,0h540" style="stroke: rgb(255, 255, 255); stroke-opacity: 1; stroke-width: 1px;"/></g></g><g class="zerolinelayer"><path class="xzl zl crisp" transform="translate(80,0)" d="M0,100v320" style="stroke: rgb(255, 255, 255); stroke-opacity: 1; stroke-width: 1px;"/><path class="yzl zl crisp" transform="translate(0,404)" d="M80,0h540" style="stroke: rgb(255, 255, 255); stroke-opacity: 1; stroke-width: 1px;"/></g><path class="xlines-below"/><path class="ylines-below"/><g class="overlines-below"/><g class="xaxislayer-below"/><g class="yaxislayer-below"/><g class="overaxes-below"/><g class="plot" transform="translate(80,100)" clip-path="url(#clip5d422exyplot)"><g class="scatterlayer mlayer"><g class="trace scatter trace712f67" style="stroke-miterlimit: 2; opacity: 1;"><g class="fills"/><g class="errorbars"/><g class="lines"><path class="js-line" d="M0,42.35L4.34,116.3L6.51,158.23L10.84,203.35L13.01,210.45L19.52,232.87L21.69,244.57L23.86,245.44L26.02,248.47L28.19,253.43L30.36,255.41L34.7,258.07L36.87,265.2L43.37,269.16L45.54,270.93L49.88,271.79L52.05,274.77L54.22,276.22L56.39,278.67L60.72,280.62L62.89,280.84L78.07,285.67L80.24,285.76L84.58,287.34L86.75,288.14L91.08,290.13L93.25,290.41L97.59,290.93L99.76,290.34L101.93,291.4L104.1,291.46L106.27,292.85L108.43,292.7L110.6,292.57L112.77,293.22L121.45,295.02L123.61,295.42L130.12,296.38L132.29,296.23L138.8,297.22L140.96,297.37L147.47,297.93L149.64,297.84L158.31,298.95L160.48,299.05L164.82,298.36L166.99,298.7L171.33,299.17L173.49,299.23L177.83,299.63L180,299.54L184.34,299.54L186.51,299.63L210.36,300.53L212.53,300.66L227.71,301.18L229.88,301.43L245.06,301.34L247.23,301.43L409.88,303.69L412.05,303.63L442.41,303.75L444.58,303.75L540,303.81" style="vector-effect: non-scaling-stroke; fill: none; stroke: rgb(248, 118, 109); stroke-opacity: 1; stroke-width: 2px; opacity: 1;"/></g><g class="points"/><g class="text"/></g><g class="trace scatter tracead3a19" style="stroke-miterlimit: 2; opacity: 1;"><g class="fills"/><g class="errorbars"/><g class="lines"><path class="js-line" d="M0,62.08L8.67,188.21L10.84,203.97L13.01,213.2L15.18,217.04L21.69,243.74L23.86,243.09L26.02,250.09L28.19,253.03L30.36,258.23L32.53,260.8L34.7,261.54L36.87,267.24L39.04,267.74L41.2,271.17L43.37,273.78L45.54,274.46L47.71,276.53L49.88,276.38L56.39,279.66L58.55,279.47L67.23,283.34L69.4,283.1L73.73,284.43L75.9,285.67L78.07,286.1L80.24,285.64L82.41,287.09L84.58,287.4L86.75,287.31L88.92,288.33L93.25,289.72L95.42,289.79L99.76,290.25L101.93,290.87L106.27,291.83L108.43,291.74L119.28,293.94L121.45,294.21L123.61,294.12L125.78,294.96L138.8,296.69L140.96,296.38L147.47,296.97L149.64,296.78L156.14,297.03L158.31,297.25L164.82,297.43L166.99,297.81L173.49,298.46L175.66,298.83L199.52,299.57L201.69,299.91L214.7,300.1L216.87,299.85L225.54,300.31L227.71,300.66L297.11,303.1L299.28,303.07L318.8,303.54L320.96,303.54L338.31,303.57L340.48,303.72L383.86,303.85L386.02,303.85L427.23,303.66L429.4,303.81L474.94,303.85L477.11,303.91L524.82,304L526.99,304L540,304" style="vector-effect: non-scaling-stroke; fill: none; stroke: rgb(163, 165, 0); stroke-opacity: 1; stroke-width: 2px; opacity: 1;"/></g><g class="points"/><g class="text"/></g><g class="trace scatter trace0dc48d" style="stroke-miterlimit: 2; opacity: 1;"><g class="fills"/><g class="errorbars"/><g class="lines"><path class="js-line" d="M0,48.3L6.51,164.92L8.67,183.97L13.01,209.95L15.18,218.37L17.35,223.02L19.52,230.79L21.69,242.31L23.86,240.7L28.19,251.2L30.36,253.74L34.7,255.97L36.87,261.48L39.04,260.92L41.2,265.17L43.37,267.09L45.54,270.55L47.71,270.71L49.88,269.94L52.05,274.15L54.22,274.92L56.39,277.52L58.55,277.83L60.72,279.04L62.89,278.48L69.4,281.3L71.57,282.04L73.73,281.8L75.9,283.5L78.07,284.34L80.24,284.12L82.41,286.16L84.58,286.78L86.75,287.62L88.92,287.43L97.59,290.56L99.76,290.71L101.93,292.11L104.1,292.29L106.27,292.94L108.43,292.2L117.11,293.47L119.28,294.43L127.95,295.76L130.12,296.32L134.46,296.91L136.63,297.59L140.96,297.71L143.13,297.99L171.33,299.45L173.49,299.76L180,300.16L182.17,299.88L188.67,300.28L190.84,300.35L214.7,301.06L216.87,300.84L223.37,301.4L225.54,301.52L234.22,302.08L236.39,301.99L242.89,302.23L245.06,302.42L258.07,302.58L260.24,302.58L284.1,302.85L286.27,302.85L294.94,303.01L297.11,302.98L379.52,303.6L381.69,303.75L405.54,303.72L407.71,303.81L435.9,303.78L438.07,303.81L540,303.97" style="vector-effect: non-scaling-stroke; fill: none; stroke: rgb(0, 191, 125); stroke-opacity: 1; stroke-width: 2px; opacity: 1;"/></g><g class="points"/><g class="text"/></g><g class="trace scatter tracec3aec0" style="stroke-miterlimit: 2; opacity: 1;"><g class="fills"/><g class="errorbars"/><g class="lines"><path class="js-line" d="M0,69.2L8.67,189.64L10.84,206.23L13.01,208.56L15.18,214.84L21.69,240.61L23.86,242.25L30.36,258.73L32.53,260.77L34.7,261.79L36.87,266.81L39.04,267.67L41.2,270.49L43.37,273.87L45.54,274.7L47.71,276.81L49.88,276.59L52.05,278.95L54.22,279.72L58.55,282.6L60.72,283.03L65.06,285.36L67.23,285.54L71.57,288.02L73.73,288.98L78.07,289.29L80.24,289.1L88.92,290.28L91.08,290.96L101.93,293.84L104.1,293.9L110.6,295.61L112.77,295.67L140.96,299.79L143.13,299.88L147.47,300.01L149.64,299.76L173.49,301.24L175.66,301.37L197.35,301.96L199.52,302.02L227.71,302.48L229.88,302.58L240.72,302.61L242.89,302.73L262.41,303.1L264.58,303.19L325.3,303.6L327.47,303.6L540,304" style="vector-effect: non-scaling-stroke; fill: none; stroke: rgb(0, 176, 246); stroke-opacity: 1; stroke-width: 2px; opacity: 1;"/></g><g class="points"/><g class="text"/></g><g class="trace scatter trace506be9" style="stroke-miterlimit: 2; opacity: 1;"><g class="fills"/><g class="errorbars"/><g class="lines"><path class="js-line" d="M0,60.04L8.67,198.31L10.84,213.98L13.01,216.58L15.18,226.52L17.35,231.54L19.52,240.45L21.69,246.09L23.86,245.9L26.02,251.05L28.19,253.4L30.36,259.13L32.53,261.88L36.87,268.33L39.04,267.67L41.2,270.86L43.37,272.63L47.71,276.53L49.88,276.07L52.05,278.33L54.22,278.89L58.55,281.98L60.72,282.82L65.06,285.05L67.23,284.99L69.4,286.16L71.57,285.98L73.73,286.35L75.9,287.96L80.24,287.22L82.41,288.49L88.92,290.31L91.08,291.21L95.42,291.77L97.59,292.11L104.1,293.47L106.27,294.62L117.11,296.78L119.28,296.69L123.61,296.75L125.78,297.53L158.31,300.41L160.48,300.44L212.53,302.02L214.7,301.96L221.2,302.02L223.37,302.33L229.88,302.39L232.05,302.45L273.25,303.47L275.42,303.41L540,303.94" style="vector-effect: non-scaling-stroke; fill: none; stroke: rgb(231, 107, 243); stroke-opacity: 1; stroke-width: 2px; opacity: 1;"/></g><g class="points"/><g class="text"/></g><g class="trace scatter trace4f4d7c" style="stroke-miterlimit: 2; opacity: 1;"><g class="fills"/><g class="errorbars"/><g class="lines"><path class="js-line" d="M0,65.08L2.17,97.2L4.34,116.65L6.51,165.23L8.67,195.95L10.84,214.19L13.01,220.39L17.35,239.96L19.52,245.47L21.69,254.36L23.86,254.54L28.19,261.98L30.36,264.61L32.53,267.77L34.7,268.42L36.87,271.55L39.04,272.91L41.2,276.19L43.37,277.68L45.54,280L47.71,280.87L49.88,280.81L52.05,283.28L54.22,282.79L56.39,285.88L62.89,287.18L65.06,288.3L67.23,288.11L69.4,289.57L73.73,290.59L75.9,292.36L80.24,292.26L82.41,293.32L88.92,293.75L91.08,294.55L104.1,295.98L106.27,296.6L114.94,298.3L117.11,298.67L134.46,299.42L136.63,300.22L140.96,299.63L143.13,299.73L149.64,300.19L151.81,300.04L160.48,300.25L162.65,300.28L171.33,300.87L173.49,301L184.34,301.18L186.51,301.15L195.18,301.37L197.35,301.71L223.37,302.08L225.54,302.3L245.06,302.61L247.23,302.64L255.9,302.67L258.07,302.82L294.94,303.41L297.11,303.35L390.36,303.91L392.53,303.88L453.25,303.97L455.42,303.97L540,304" style="vector-effect: non-scaling-stroke; fill: none; stroke: rgb(248, 118, 109); stroke-opacity: 1; stroke-width: 2px; opacity: 1;"/></g><g class="points"/><g class="text"/></g><g class="trace scatter traceeecafe" style="stroke-miterlimit: 2; opacity: 1;"><g class="fills"/><g class="errorbars"/><g class="lines"><path class="js-line" d="M0,68.86L4.34,109.77L6.51,149.13L8.67,181.52L10.84,196.42L13.01,200.75L15.18,210.66L21.69,234.32L23.86,234.85L28.19,246.12L30.36,250.15L34.7,255.23L36.87,260.09L41.2,264.92L43.37,268.14L47.71,271.73L49.88,272.69L54.22,274.12L56.39,276.47L60.72,279.44L62.89,281.24L69.4,282.88L71.57,282.97L78.07,285.98L80.24,285.79L82.41,286.97L84.58,287.09L88.92,288.24L91.08,290L97.59,290.41L99.76,290.87L101.93,292.26L104.1,292.29L106.27,293.1L108.43,293.07L119.28,294.8L121.45,294.28L125.78,295.7L127.95,295.48L147.47,298.92L149.64,298.89L160.48,299.51L162.65,299.45L175.66,299.91L177.83,300.01L188.67,299.88L190.84,300.13L197.35,300.59L199.52,300.41L227.71,301.55L229.88,301.77L236.39,301.46L238.55,301.8L255.9,302.2L258.07,302.42L273.25,302.54L275.42,302.58L294.94,302.85L297.11,302.95L342.65,303.47L344.82,303.32L364.34,303.38L366.51,303.44L412.05,303.5L414.22,303.54L496.63,303.94L498.8,303.94L540,303.97" style="vector-effect: non-scaling-stroke; fill: none; stroke: rgb(163, 165, 0); stroke-opacity: 1; stroke-width: 2px; opacity: 1;"/></g><g class="points"/><g class="text"/></g><g class="trace scatter traceb3bf51" style="stroke-miterlimit: 2; opacity: 1;"><g class="fills"/><g class="errorbars"/><g class="lines"><path class="js-line" d="M0,73.48L6.51,169.88L8.67,198.8L10.84,213.45L13.01,215.53L17.35,234.79L19.52,238.01L21.69,246.06L23.86,247.45L28.19,260.4L30.36,264.14L36.87,271.55L39.04,273.59L43.37,276.1L45.54,278.92L49.88,280.12L52.05,282.63L54.22,283.25L56.39,285.11L60.72,287.12L62.89,288.11L73.73,289.57L75.9,290.96L82.41,292.91L84.58,292.45L95.42,295.36L97.59,295.61L108.43,296.78L110.6,297.74L114.94,297.96L117.11,298.58L149.64,301L151.81,300.87L180,302.39L182.17,302.3L188.67,302.39L190.84,302.3L208.19,302.82L210.36,302.82L229.88,303.32L232.05,303.13L277.59,303.66L279.76,303.69L540,304" style="vector-effect: non-scaling-stroke; fill: none; stroke: rgb(0, 191, 125); stroke-opacity: 1; stroke-width: 2px; opacity: 1;"/></g><g class="points"/><g class="text"/></g><g class="trace scatter traced228a9" style="stroke-miterlimit: 2; opacity: 1;"><g class="fills"/><g class="errorbars"/><g class="lines"><path class="js-line" d="M0,63.88L8.67,173.22L10.84,184.25L19.52,219.12L21.69,227.11L23.86,225.25L26.02,233.21L28.19,236.46L30.36,241.85L34.7,247.79L36.87,254.61L39.04,256.19L41.2,259.65L43.37,260.92L45.54,263.15L49.88,263.65L52.05,265.01L56.39,265.88L58.55,267.37L60.72,269.25L62.89,268.88L65.06,270.12L67.23,270.49L69.4,271.95L71.57,272.26L73.73,272.85L75.9,274.67L78.07,276.1L80.24,276.07L95.42,278.2L97.59,279.38L99.76,279.91L101.93,281.7L104.1,281.67L106.27,283.34L112.77,284.83L114.94,285.23L121.45,286.32L123.61,286.63L125.78,286.94L127.95,286.1L130.12,286.97L132.29,287.03L138.8,288.64L140.96,289.38L147.47,290.65L149.64,290.56L162.65,292.67L164.82,292.29L177.83,294.28L180,294.06L190.84,294.31L193.01,294.52L197.35,294.96L199.52,295.17L208.19,296.44L210.36,296.51L216.87,297.13L219.04,296.75L223.37,297.43L225.54,297.71L236.39,297.9L238.55,298.49L260.24,299.26L262.41,299.05L277.59,299.7L279.76,300.01L290.6,300.81L292.77,300.81L318.8,301.09L320.96,301.24L327.47,301.34L329.64,301.52L381.69,302.45L383.86,302.23L396.87,302.58L399.04,302.54L418.55,302.33L420.72,302.54L479.28,303.04L481.45,302.98L535.66,303.04L537.83,302.98L540,303.04" style="vector-effect: non-scaling-stroke; fill: none; stroke: rgb(0, 176, 246); stroke-opacity: 1; stroke-width: 2px; opacity: 1;"/></g><g class="points"/><g class="text"/></g><g class="trace scatter tracea1aa3c" style="stroke-miterlimit: 2; opacity: 1;"><g class="fills"/><g class="errorbars"/><g class="lines"><path class="js-line" d="M0,56.94L2.17,92.86L4.34,109.86L8.67,178.36L10.84,187.53L15.18,204.44L17.35,217.23L19.52,220.98L21.69,232.31L23.86,233.3L26.02,237.76L30.36,250.98L32.53,252.59L34.7,256.74L36.87,263.25L39.04,263.96L41.2,266.75L43.37,265.1L45.54,266.68L47.71,269.41L49.88,270.03L52.05,273.47L54.22,273.84L58.55,277.03L60.72,279.01L69.4,280.9L71.57,282.32L78.07,286.04L80.24,285.7L86.75,285.73L88.92,286.5L97.59,287.68L99.76,287.8L104.1,289.2L106.27,290.06L119.28,291.46L121.45,292.14L125.78,293.25L127.95,292.7L132.29,292.48L134.46,293.32L140.96,294.18L143.13,294.65L145.3,295.05L147.47,294.68L158.31,296.44L160.48,295.86L166.99,297.06L169.16,297.31L173.49,297.56L175.66,297.56L180,297.93L182.17,297.62L184.34,297.99L186.51,297.5L212.53,299.14L214.7,298.77L238.55,300.13L240.72,300.16L260.24,301.18L262.41,301.37L286.27,302.61L288.43,302.79L299.28,302.73L301.45,302.79L314.46,302.79L316.63,303.01L327.47,302.89L329.64,302.98L346.99,303.19L349.16,303.23L364.34,303.26L366.51,303.29L377.35,303.41L379.52,303.44L540,303.81" style="vector-effect: non-scaling-stroke; fill: none; stroke: rgb(231, 107, 243); stroke-opacity: 1; stroke-width: 2px; opacity: 1;"/></g><g class="points"/><g class="text"/></g><g class="trace scatter trace76d89b" style="stroke-miterlimit: 2; opacity: 1;"><g class="fills"/><g class="errorbars"/><g class="lines"><path class="js-line" d="M0,78.9L2.17,98.13L4.34,130.7L8.67,189.76L10.84,204.9L13.01,208.81L15.18,217.79L19.52,229L21.69,238.44L23.86,239.4L26.02,246.06L30.36,255.01L32.53,258.38L34.7,259.59L36.87,264.18L39.04,265.26L41.2,269.56L45.54,274.46L47.71,275.54L49.88,275.26L52.05,278.2L54.22,278.3L56.39,279.97L58.55,280.15L60.72,281.77L62.89,283.59L65.06,283.99L67.23,284.92L69.4,284.99L75.9,287.31L78.07,287.99L80.24,287.18L82.41,287.77L86.75,288.14L88.92,288.58L93.25,290.93L95.42,291.24L108.43,292.85L110.6,293.01L114.94,293.53L117.11,294.49L121.45,294.18L123.61,294.8L127.95,295.3L130.12,295.7L136.63,297.43L138.8,297.53L143.13,297.93L145.3,298.12L151.81,298.12L153.98,298.58L162.65,299.35L164.82,299.35L175.66,299.42L177.83,299.48L184.34,299.48L186.51,299.85L193.01,300.1L195.18,300.16L258.07,302.08L260.24,302.45L290.6,302.7L292.77,302.76L396.87,303.6L399.04,303.57L472.77,303.97L474.94,303.97L529.16,303.97L531.33,303.97L540,303.97" style="vector-effect: non-scaling-stroke; fill: none; stroke: rgb(248, 118, 109); stroke-opacity: 1; stroke-width: 2px; opacity: 1;"/></g><g class="points"/><g class="text"/></g><g class="trace scatter traceb72400" style="stroke-miterlimit: 2; opacity: 1;"><g class="fills"/><g class="errorbars"/><g class="lines"><path class="js-line" d="M0,37.65L4.34,95.15L6.51,144.45L8.67,175.89L10.84,189.51L17.35,211.78L19.52,213.17L21.69,221.72L23.86,224.63L32.53,244.36L34.7,247.24L36.87,251.05L39.04,252.25L45.54,261.05L47.71,260.74L52.05,264.49L54.22,266.03L56.39,267.4L58.55,267.18L62.89,269.35L65.06,269.9L69.4,269.66L71.57,270.83L78.07,275.08L80.24,274.18L86.75,275.29L88.92,275.35L93.25,276.87L95.42,276.13L97.59,276.25L99.76,277.55L106.27,278.36L108.43,279.63L110.6,281.02L112.77,281.21L119.28,282.35L121.45,282.26L125.78,283.22L127.95,282.79L134.46,284.37L136.63,286.19L143.13,286.57L145.3,286.66L147.47,287.74L149.64,287.37L156.14,287.06L158.31,287.93L175.66,288.89L177.83,289.79L182.17,290.16L184.34,291.09L190.84,291.18L193.01,291.86L195.18,291.92L197.35,293.04L201.69,294.52L203.86,294.18L206.02,293.9L208.19,294.93L210.36,294.25L212.53,294.49L216.87,294.18L219.04,294.55L223.37,294.8L225.54,295.17L232.05,296.23L234.22,295.89L242.89,296.41L245.06,297.06L264.58,298.33L266.75,298.24L271.08,298.92L273.25,299.01L284.1,299.42L286.27,299.57L323.13,301.31L325.3,301.15L336.14,301.09L338.31,301.09L373.01,302.08L375.18,301.99L388.19,302.11L390.36,302.33L472.77,302.82L474.94,302.67L537.83,302.89L540,302.85" style="vector-effect: non-scaling-stroke; fill: none; stroke: rgb(163, 165, 0); stroke-opacity: 1; stroke-width: 2px; opacity: 1;"/></g><g class="points"/><g class="text"/></g><g class="trace scatter tracee702a3" style="stroke-miterlimit: 2; opacity: 1;"><g class="fills"/><g class="errorbars"/><g class="lines"><path class="js-line" d="M0,73.97L4.34,131.39L6.51,176.82L8.67,208.62L10.84,221.32L15.18,230.67L17.35,237.57L21.69,249.43L23.86,248.88L26.02,258.42L28.19,264.24L32.53,269.29L34.7,270.77L36.87,275.17L39.04,276.84L41.2,279.16L43.37,280.28L45.54,282.45L47.71,282.88L49.88,282.66L52.05,284.52L58.55,287.43L60.72,288.08L65.06,289.51L67.23,289.32L78.07,293.41L80.24,293.07L82.41,293.97L84.58,293.94L91.08,295.36L93.25,296.17L99.76,297.31L101.93,297.78L106.27,298.67L108.43,298.8L117.11,299.57L119.28,299.6L147.47,301.34L149.64,301.37L162.65,301.93L164.82,302.02L193.01,302.92L195.18,302.85L225.54,303.13L227.71,303.23L312.29,303.66L314.46,303.66L346.99,303.85L349.16,303.81L540,304" style="vector-effect: non-scaling-stroke; fill: none; stroke: rgb(0, 191, 125); stroke-opacity: 1; stroke-width: 2px; opacity: 1;"/></g><g class="points"/><g class="text"/></g><g class="trace scatter trace8c994d" style="stroke-miterlimit: 2; opacity: 1;"><g class="fills"/><g class="errorbars"/><g class="lines"><path class="js-line" d="M0,72.61L8.67,193.63L10.84,206.64L13.01,208.37L15.18,217.38L19.52,236.74L21.69,245.87L23.86,243.86L26.02,250.49L30.36,261.33L32.53,263.49L34.7,264.98L36.87,271.14L39.04,270.49L41.2,273.16L45.54,276.97L47.71,278.33L49.88,277.86L52.05,281.18L54.22,281.39L56.39,283.25L58.55,284.92L60.72,284.74L73.73,288.36L75.9,289.82L78.07,290.22L80.24,289.32L88.92,292.14L91.08,292.51L101.93,293.84L104.1,293.94L112.77,295.21L114.94,294.93L117.11,295.82L119.28,295.36L130.12,297.03L132.29,297.34L145.3,299.26L147.47,299.29L153.98,298.89L156.14,299.2L164.82,299.94L166.99,299.97L175.66,300.25L177.83,300.38L186.51,300.56L188.67,300.35L242.89,302.14L245.06,302.14L253.73,302.42L255.9,302.54L264.58,302.79L266.75,302.76L277.59,302.89L279.76,302.85L299.28,303.38L301.45,303.35L316.63,303.41L318.8,303.47L405.54,303.94L407.71,303.94L461.93,303.94L464.1,303.94L520.48,303.97L522.65,303.97L540,303.97" style="vector-effect: non-scaling-stroke; fill: none; stroke: rgb(0, 176, 246); stroke-opacity: 1; stroke-width: 2px; opacity: 1;"/></g><g class="points"/><g class="text"/></g><g class="trace scatter trace158ba2" style="stroke-miterlimit: 2; opacity: 1;"><g class="fills"/><g class="errorbars"/><g class="lines"><path class="js-line" d="M0,47.62L4.34,104.82L6.51,146.03L8.67,173.44L10.84,183.63L13.01,188.27L15.18,198.52L19.52,215.71L21.69,227.26L23.86,229.93L26.02,237.2L28.19,242.78L30.36,245.59L34.7,252.1L36.87,259.22L39.04,260.92L41.2,264.92L43.37,267.92L45.54,269.44L47.71,271.55L49.88,271.86L52.05,273.99L54.22,274.24L56.39,276.01L58.55,276.59L62.89,278.7L65.06,280L67.23,279.94L69.4,280.65L73.73,281.86L75.9,283.65L78.07,284.61L80.24,284.65L88.92,285.14L91.08,286.26L97.59,287.83L99.76,287.43L110.6,290.99L112.77,291.24L117.11,291.49L119.28,291.83L130.12,292.94L132.29,293.44L147.47,295.82L149.64,295.79L173.49,298.05L175.66,297.87L182.17,297.78L184.34,297.71L195.18,297.65L197.35,298.27L203.86,298.36L206.02,298.12L212.53,298.55L214.7,298.43L225.54,299.29L227.71,299.73L264.58,301.31L266.75,301.15L307.95,302.17L310.12,302.14L320.96,302.23L323.13,302.42L329.64,302.08L331.81,302.17L394.7,303.19L396.87,303.1L540,303.69" style="vector-effect: non-scaling-stroke; fill: none; stroke: rgb(231, 107, 243); stroke-opacity: 1; stroke-width: 2px; opacity: 1;"/></g><g class="points"/><g class="text"/></g><g class="trace scatter tracebe2d45" style="stroke-miterlimit: 2; opacity: 1;"><g class="fills"/><g class="errorbars"/><g class="lines"><path class="js-line" d="M0,38.58L6.51,147.77L8.67,176.41L10.84,193.66L13.01,196.51L17.35,215.15L19.52,222.06L21.69,231.72L23.86,232.31L28.19,245.07L30.36,249.65L32.53,254.33L34.7,255.1L36.87,259.16L39.04,261.17L47.71,270.18L49.88,270.43L52.05,273.74L54.22,273.87L56.39,277.31L58.55,278.54L62.89,281.46L65.06,281.95L67.23,282.69L69.4,282.35L78.07,287.09L80.24,285.7L82.41,286.91L84.58,286.97L93.25,289.01L95.42,289.26L127.95,295.64L130.12,296.04L138.8,297.34L140.96,297.43L153.98,298.58L156.14,299.23L173.49,299.97L175.66,300.07L180,300.44L182.17,300.28L190.84,299.97L193.01,300.1L199.52,300.62L201.69,300.62L210.36,300.9L212.53,300.9L219.04,300.41L221.2,300.97L294.94,303.32L297.11,303.29L388.19,303.81L390.36,303.75L418.55,303.78L420.72,303.78L540,303.94" style="vector-effect: non-scaling-stroke; fill: none; stroke: rgb(248, 118, 109); stroke-opacity: 1; stroke-width: 2px; opacity: 1;"/></g><g class="points"/><g class="text"/></g><g class="trace scatter tracec7075a" style="stroke-miterlimit: 2; opacity: 1;"><g class="fills"/><g class="errorbars"/><g class="lines"><path class="js-line" d="M0,66.66L4.34,120.14L6.51,164.77L8.67,189.08L10.84,200.04L13.01,202.77L15.18,215L17.35,220.67L19.52,229.65L21.69,240.55L23.86,239.96L28.19,250.18L30.36,253.8L34.7,258.35L36.87,263.9L39.04,264.11L41.2,266.87L45.54,272.17L47.71,273.28L49.88,273.56L52.05,275.17L54.22,275.35L56.39,276.75L65.06,281.46L67.23,282.38L69.4,283.31L71.57,283.22L82.41,286.53L84.58,286.38L91.08,288.83L93.25,288.89L104.1,291.09L106.27,292.45L110.6,292.91L112.77,293.13L119.28,294.25L121.45,294.09L125.78,294.8L127.95,294.55L134.46,294.93L136.63,295.92L145.3,296.66L147.47,296.91L151.81,296.78L153.98,297.4L169.16,298.12L171.33,298.43L177.83,298.77L180,298.74L206.02,300.66L208.19,300.66L212.53,300.66L214.7,300.75L225.54,301.18L227.71,301.21L262.41,302.33L264.58,302.39L284.1,302.79L286.27,302.85L299.28,303.13L301.45,303.1L318.8,303.29L320.96,303.32L353.49,303.47L355.66,303.5L396.87,303.66L399.04,303.66L420.72,303.75L422.89,303.75L448.92,303.72L451.08,303.75L540,303.94" style="vector-effect: non-scaling-stroke; fill: none; stroke: rgb(163, 165, 0); stroke-opacity: 1; stroke-width: 2px; opacity: 1;"/></g><g class="points"/><g class="text"/></g><g class="trace scatter trace0a1b68" style="stroke-miterlimit: 2; opacity: 1;"><g class="fills"/><g class="errorbars"/><g class="lines"><path class="js-line" d="M0,76.85L4.34,131.82L6.51,169.72L8.67,194.9L10.84,208.68L13.01,212.34L15.18,223.11L17.35,232.53L19.52,237.2L21.69,245.41L23.86,245.35L30.36,259.65L32.53,261.17L34.7,262.35L36.87,267.09L39.04,268.48L41.2,271.14L43.37,272.82L45.54,275.94L49.88,278.17L52.05,280.46L58.55,284.58L60.72,285.64L65.06,287.59L67.23,288.52L71.57,289.57L73.73,290.1L75.9,291.49L78.07,291.95L80.24,291.15L82.41,292.11L88.92,291.77L91.08,292.63L93.25,293.81L95.42,293.87L99.76,295.39L101.93,295.42L110.6,296.6L112.77,296.88L123.61,297.99L125.78,298.15L136.63,299.48L138.8,299.73L143.13,299.88L145.3,300.01L166.99,301.68L169.16,301.62L251.57,303.13L253.73,303.29L344.82,303.85L346.99,303.81L540,304" style="vector-effect: non-scaling-stroke; fill: none; stroke: rgb(0, 191, 125); stroke-opacity: 1; stroke-width: 2px; opacity: 1;"/></g><g class="points"/><g class="text"/></g><g class="trace scatter tracefd4517" style="stroke-miterlimit: 2; opacity: 1;"><g class="fills"/><g class="errorbars"/><g class="lines"><path class="js-line" d="M0,75.8L4.34,117.42L6.51,165.82L8.67,192.61L10.84,201.13L13.01,207.81L15.18,219.58L21.69,240.08L23.86,241.63L28.19,253.65L30.36,256.74L34.7,262.78L36.87,267.18L39.04,267.37L41.2,270.31L45.54,274.77L47.71,275.17L49.88,274.7L52.05,275.82L54.22,276.04L56.39,278.95L58.55,279.16L60.72,281.24L67.23,283.53L69.4,283.72L73.73,286.19L75.9,286.57L78.07,287.9L80.24,288.21L86.75,289.57L88.92,290.19L91.08,291.15L93.25,289.94L99.76,291.64L101.93,292.2L106.27,293.04L108.43,293.32L112.77,294.46L114.94,294.37L119.28,296.1L121.45,296.32L125.78,296.75L127.95,297L134.46,297L136.63,297.22L147.47,298.8L149.64,298.27L158.31,298.77L160.48,299.23L175.66,300.53L177.83,300.75L184.34,300.56L186.51,300.5L193.01,301.15L195.18,301.18L206.02,302.05L208.19,302.05L214.7,302.05L216.87,302.08L223.37,302.33L225.54,302.39L258.07,302.82L260.24,302.76L277.59,303.19L279.76,303.13L307.95,303.44L310.12,303.54L540,304" style="vector-effect: non-scaling-stroke; fill: none; stroke: rgb(0, 176, 246); stroke-opacity: 1; stroke-width: 2px; opacity: 1;"/></g><g class="points"/><g class="text"/></g><g class="trace scatter trace68f72e" style="stroke-miterlimit: 2; opacity: 1;"><g class="fills"/><g class="errorbars"/><g class="lines"><path class="js-line" d="M0,58.36L8.67,185.3L10.84,202.05L13.01,205.21L15.18,216.98L17.35,221.97L19.52,230.02L21.69,236.4L23.86,237.26L30.36,254.58L32.53,258.29L36.87,264.58L39.04,265.72L41.2,269.07L43.37,270.18L45.54,272.75L47.71,273.68L49.88,274.36L52.05,277.55L54.22,278.67L56.39,280.74L60.72,283.03L62.89,284.37L67.23,286.22L69.4,286.63L78.07,288.14L80.24,287.87L84.58,289.35L86.75,289.45L95.42,291.58L97.59,291.77L104.1,292.7L106.27,293.78L121.45,295.86L123.61,296.57L134.46,297.71L136.63,298.58L140.96,298.61L143.13,298.92L156.14,299.57L158.31,299.85L177.83,300.1L180,300.35L190.84,300.13L193.01,300.47L221.2,301.43L223.37,301.58L294.94,303.44L297.11,303.44L325.3,303.78L327.47,303.78L373.01,303.81L375.18,303.88L540,303.97" style="vector-effect: non-scaling-stroke; fill: none; stroke: rgb(231, 107, 243); stroke-opacity: 1; stroke-width: 2px; opacity: 1;"/></g><g class="points"/><g class="text"/></g><g class="trace scatter traceea7f4c" style="stroke-miterlimit: 2; opacity: 1;"><g class="fills"/><g class="errorbars"/><g class="lines"><path class="js-line" d="M0,75.49L2.17,89.61L4.34,111.47L6.51,158.98L8.67,184.15L13.01,204.38L15.18,213.2L21.69,238.32L23.86,237.36L30.36,254.11L32.53,258.29L34.7,259.78L36.87,266.13L45.54,272.29L47.71,273.56L54.22,279.01L56.39,281.61L62.89,284.21L65.06,284.12L69.4,285.48L71.57,285.11L78.07,285.91L80.24,285.51L86.75,287.56L88.92,287.56L93.25,289.32L95.42,289.26L99.76,290.84L101.93,291.52L104.1,291.52L106.27,292.57L108.43,292.57L110.6,293.41L114.94,293.81L117.11,294.99L121.45,294.68L123.61,295.42L130.12,296.54L132.29,296.75L138.8,297.93L140.96,298.27L147.47,298.8L149.64,298.86L156.14,299.48L158.31,299.88L182.17,300.38L184.34,300.22L229.88,302.39L232.05,302.42L240.72,302.48L242.89,302.64L260.24,303.1L262.41,303.16L333.98,303.47L336.14,303.69L540,304" style="vector-effect: non-scaling-stroke; fill: none; stroke: rgb(248, 118, 109); stroke-opacity: 1; stroke-width: 2px; opacity: 1;"/></g><g class="points"/><g class="text"/></g><g class="trace scatter traceb39912" style="stroke-miterlimit: 2; opacity: 1;"><g class="fills"/><g class="errorbars"/><g class="lines"><path class="js-line" d="M0,50.13L2.17,87.78L4.34,111.29L8.67,187.96L10.84,204.16L13.01,206.61L15.18,214.26L21.69,237.82L23.86,237.57L26.02,244.23L28.19,248.1L30.36,251.26L32.53,252.9L34.7,255.47L36.87,264.21L39.04,262.72L41.2,264.58L43.37,265.57L45.54,267.43L47.71,270.31L49.88,270.15L52.05,273.96L54.22,274.83L58.55,279.32L60.72,281.02L65.06,283.47L67.23,282.85L71.57,283.75L73.73,284.89L82.41,287.53L84.58,287L88.92,287.15L91.08,287.96L93.25,288.76L95.42,288.21L99.76,289.26L101.93,290.62L106.27,292.51L108.43,292.02L119.28,293.1L121.45,292.94L123.61,293.25L125.78,294.83L132.29,295.27L134.46,295.95L143.13,297.56L145.3,297.37L149.64,297.16L151.81,297.34L160.48,298.95L162.65,299.17L169.16,300.13L171.33,300.07L177.83,300.59L180,300.56L193.01,300.69L195.18,300.56L201.69,300.93L203.86,300.69L214.7,300.9L216.87,300.9L221.2,301.31L223.37,301.65L240.72,301.99L242.89,301.96L262.41,302.36L264.58,302.54L279.76,302.82L281.93,302.85L316.63,302.92L318.8,303.04L346.99,303.54L349.16,303.54L396.87,303.6L399.04,303.47L442.41,303.54L444.58,303.6L540,303.94" style="vector-effect: non-scaling-stroke; fill: none; stroke: rgb(163, 165, 0); stroke-opacity: 1; stroke-width: 2px; opacity: 1;"/></g><g class="points"/><g class="text"/></g><g class="trace scatter trace8fb9be" style="stroke-miterlimit: 2; opacity: 1;"><g class="fills"/><g class="errorbars"/><g class="lines"><path class="js-line" d="M0,50.31L8.67,183.07L10.84,202.95L13.01,202.61L15.18,211.03L19.52,227.11L21.69,239.03L23.86,237.61L26.02,246.4L30.36,256.99L32.53,255.66L36.87,262.53L39.04,262.97L45.54,272.01L47.71,274.39L49.88,274.18L52.05,276.47L54.22,277.09L56.39,279.88L62.89,281.49L65.06,282.42L67.23,282.45L69.4,284.49L73.73,284.4L75.9,285.2L99.76,290.44L101.93,291.49L104.1,291.71L106.27,292.82L114.94,294.03L117.11,295.05L119.28,295.3L121.45,294.62L127.95,296.2L130.12,296.01L136.63,297.81L138.8,297.34L149.64,297.74L151.81,297.56L158.31,298.18L160.48,298.05L166.99,299.01L169.16,298.92L175.66,299.14L177.83,299.48L186.51,299.26L188.67,299.39L208.19,300.53L210.36,300.81L219.04,300.41L221.2,300.72L247.23,301.27L249.4,301.31L258.07,301.8L260.24,301.96L266.75,302.08L268.92,302.08L279.76,302.36L281.93,302.36L303.61,302.73L305.78,302.79L333.98,302.95L336.14,303.13L425.06,303.78L427.23,303.75L540,304" style="vector-effect: non-scaling-stroke; fill: none; stroke: rgb(0, 191, 125); stroke-opacity: 1; stroke-width: 2px; opacity: 1;"/></g><g class="points"/><g class="text"/></g><g class="trace scatter trace62cdc2" style="stroke-miterlimit: 2; opacity: 1;"><g class="fills"/><g class="errorbars"/><g class="lines"><path class="js-line" d="M0,34.95L6.51,153.28L8.67,179.57L10.84,194.16L13.01,199.48L15.18,212.58L17.35,217.2L19.52,221.9L21.69,236.86L23.86,238.91L26.02,247.51L28.19,251.63L30.36,252.25L32.53,256.4L34.7,258.29L36.87,263.49L39.04,263.71L41.2,266.56L43.37,267.92L45.54,268.94L47.71,269.13L49.88,269.38L52.05,271.24L54.22,271.95L56.39,274.92L62.89,277.18L65.06,278.42L69.4,279.94L71.57,280.5L73.73,280.59L75.9,282.73L78.07,284.21L80.24,283.93L82.41,284.77L84.58,284.4L86.75,284.15L88.92,284.99L93.25,287.65L95.42,287.4L97.59,288.11L99.76,287.83L106.27,290.84L108.43,290.22L112.77,291.55L114.94,292.08L117.11,292.91L119.28,292.57L121.45,291.89L123.61,293.01L132.29,293.47L134.46,294.25L143.13,295.48L145.3,295.45L151.81,295.36L153.98,295.67L158.31,295.79L160.48,296.07L166.99,296.82L169.16,297.19L180,298.43L182.17,298.18L195.18,298.67L197.35,299.01L201.69,299.51L203.86,299.42L208.19,299.66L210.36,299.48L216.87,299.91L219.04,299.91L236.39,300.41L238.55,300.78L249.4,301.37L251.57,301.37L260.24,302.02L262.41,302.2L338.31,302.95L340.48,303.04L425.06,303.54L427.23,303.5L490.12,303.91L492.29,303.85L540,303.88" style="vector-effect: non-scaling-stroke; fill: none; stroke: rgb(0, 176, 246); stroke-opacity: 1; stroke-width: 2px; opacity: 1;"/></g><g class="points"/><g class="text"/></g><g class="trace scatter trace32a480" style="stroke-miterlimit: 2; opacity: 1;"><g class="fills"/><g class="errorbars"/><g class="lines"><path class="js-line" d="M0,69.7L2.17,81.71L4.34,120.95L6.51,163.59L8.67,189.79L10.84,204.22L13.01,209.02L17.35,230.05L19.52,236.37L21.69,247.33L23.86,247.92L26.02,254.17L28.19,257.83L30.36,262.47L32.53,263.49L34.7,264.39L36.87,268.57L39.04,266.87L41.2,269.81L43.37,270.62L45.54,272.78L47.71,274.52L49.88,273.9L52.05,277.12L54.22,277.77L56.39,280.25L58.55,280.81L60.72,281.3L62.89,282.57L69.4,285.67L71.57,285.57L73.73,285.73L75.9,287.59L78.07,287.09L80.24,287.37L82.41,288.24L84.58,287.93L104.1,291.83L106.27,292.6L108.43,292.08L110.6,292.57L125.78,294.06L127.95,294.28L134.46,294.8L136.63,295.86L169.16,298.77L171.33,299.05L175.66,299.39L177.83,299.7L188.67,299.79L190.84,299.82L203.86,300.47L206.02,300.59L212.53,300.72L214.7,300.62L227.71,301.4L229.88,301.52L238.55,301.77L240.72,301.86L247.23,301.8L249.4,301.8L253.73,301.89L255.9,302.02L262.41,302.33L264.58,302.45L286.27,302.58L288.43,302.67L301.45,302.85L303.61,302.73L325.3,302.98L327.47,302.98L399.04,303.32L401.2,303.13L440.24,303.47L442.41,303.47L455.42,303.6L457.59,303.63L494.46,303.85L496.63,303.85L540,303.91" style="vector-effect: non-scaling-stroke; fill: none; stroke: rgb(231, 107, 243); stroke-opacity: 1; stroke-width: 2px; opacity: 1;"/></g><g class="points"/><g class="text"/></g><g class="trace scatter trace15fcf9" style="stroke-miterlimit: 2; opacity: 1;"><g class="fills"/><g class="errorbars"/><g class="lines"><path class="js-line" d="M0,52.26L4.34,102.18L6.51,139.69L8.67,172.26L10.84,186.07L13.01,195.67L15.18,201.06L19.52,216.52L21.69,226.21L23.86,228.13L26.02,232.28L28.19,240.08L30.36,242.03L34.7,249.03L36.87,255.01L39.04,256.06L41.2,260.34L43.37,261.33L45.54,263.22L47.71,266.34L49.88,267.15L52.05,269.38L54.22,270.4L56.39,270.96L58.55,272.75L67.23,277.65L69.4,278.48L75.9,280.9L78.07,281.08L80.24,281.36L82.41,280.77L86.75,281.11L88.92,281.55L93.25,282.66L95.42,283.07L97.59,283.62L99.76,283.38L104.1,285.7L106.27,286.29L108.43,285.98L110.6,287.93L112.77,287.12L114.94,287.99L117.11,288.3L119.28,287.77L125.78,289.29L127.95,288.76L134.46,289.29L136.63,290.1L145.3,290.9L147.47,291.98L169.16,294.62L171.33,294.52L186.51,294.83L188.67,294.49L199.52,295.86L201.69,295.82L206.02,295.45L208.19,295.98L216.87,296.26L219.04,296.07L223.37,297.06L225.54,297L236.39,297.9L238.55,298.15L266.75,299.97L268.92,299.97L288.43,300.59L290.6,300.66L333.98,301.43L336.14,301.37L353.49,301.8L355.66,301.89L459.76,303.38L461.93,303.41L485.78,303.44L487.95,303.54L540,303.78" style="vector-effect: non-scaling-stroke; fill: none; stroke: rgb(248, 118, 109); stroke-opacity: 1; stroke-width: 2px; opacity: 1;"/></g><g class="points"/><g class="text"/></g><g class="trace scatter tracec5189a" style="stroke-miterlimit: 2; opacity: 1;"><g class="fills"/><g class="errorbars"/><g class="lines"><path class="js-line" d="M0,38.58L2.17,82.98L4.34,104.94L8.67,179.42L10.84,190.91L15.18,211.22L17.35,219.58L21.69,233.73L23.86,237.64L30.36,248.69L32.53,250.33L34.7,252.5L36.87,256.77L39.04,256.31L41.2,258.82L43.37,261.7L45.54,262.41L47.71,264.11L49.88,263.34L52.05,267.71L54.22,267.15L56.39,269.56L58.55,270.46L60.72,272.78L62.89,273.53L65.06,275.08L67.23,274.58L69.4,274.15L71.57,276.01L73.73,276.5L75.9,277.77L78.07,279.07L80.24,279.04L88.92,280.15L91.08,280.81L101.93,283.75L104.1,284.55L106.27,285.98L108.43,285.2L112.77,285.79L114.94,286.1L117.11,286.63L119.28,287.96L136.63,290.25L138.8,290L140.96,290.03L143.13,290.96L147.47,291.24L149.64,291.18L153.98,292.26L156.14,292.63L158.31,291.95L160.48,292.17L162.65,292.63L164.82,291.89L169.16,292.45L171.33,292.54L180,293.66L182.17,293.29L190.84,293.75L193.01,293.53L219.04,295.33L221.2,295.86L232.05,296.57L234.22,296.1L255.9,297.56L258.07,298.05L264.58,298.33L266.75,298.33L286.27,299.2L288.43,299.45L299.28,299.85L301.45,299.73L323.13,300.62L325.3,300.62L336.14,300.66L338.31,300.84L346.99,301.24L349.16,301.12L412.05,302.58L414.22,302.76L433.73,303.07L435.9,303.19L479.28,303.32L481.45,303.23L516.14,303.5L518.31,303.47L540,303.47" style="vector-effect: non-scaling-stroke; fill: none; stroke: rgb(163, 165, 0); stroke-opacity: 1; stroke-width: 2px; opacity: 1;"/></g><g class="points"/><g class="text"/></g><g class="trace scatter trace13e5ea" style="stroke-miterlimit: 2; opacity: 1;"><g class="fills"/><g class="errorbars"/><g class="lines"><path class="js-line" d="M0,45.08L4.34,98.1L6.51,148.36L10.84,196.54L13.01,205.96L17.35,215.93L19.52,224.78L21.69,234.79L23.86,235.56L30.36,250.24L32.53,251.76L34.7,252.75L36.87,256L39.04,257.7L41.2,260.65L45.54,262.13L47.71,262.57L49.88,262.94L52.05,265.01L54.22,265.01L56.39,267.02L58.55,269.59L60.72,270.12L69.4,272.66L71.57,274.95L75.9,277.68L78.07,277.62L80.24,278.95L82.41,278.89L84.58,279.1L86.75,280.22L95.42,282.35L97.59,282.6L108.43,286.32L110.6,286.19L112.77,285.54L114.94,286.41L121.45,288.05L123.61,288.79L127.95,290.59L130.12,290.53L134.46,292.54L136.63,292.63L147.47,294.52L149.64,294.12L164.82,295.08L166.99,295.58L190.84,296.47L193.01,295.73L197.35,295.67L199.52,295.92L203.86,296.32L206.02,296.44L212.53,296.85L214.7,296.6L221.2,296.41L223.37,296.41L225.54,297.13L227.71,296.97L232.05,297.19L234.22,297.06L242.89,297.16L245.06,297.28L247.23,298.02L249.4,297.9L255.9,298.86L258.07,299.05L266.75,299.01L268.92,299.2L286.27,299.76L288.43,300.01L355.66,302.51L357.83,302.39L425.06,303.13L427.23,303.16L440.24,303.35L442.41,303.38L459.76,303.35L461.93,303.38L513.98,303.41L516.14,303.41L540,303.63" style="vector-effect: non-scaling-stroke; fill: none; stroke: rgb(0, 191, 125); stroke-opacity: 1; stroke-width: 2px; opacity: 1;"/></g><g class="points"/><g class="text"/></g><g class="trace scatter trace6a7870" style="stroke-miterlimit: 2; opacity: 1;"><g class="fills"/><g class="errorbars"/><g class="lines"><path class="js-line" d="M0,71.99L8.67,196.45L10.84,210.2L13.01,213.26L15.18,223.76L17.35,234.79L19.52,240.24L21.69,248.66L23.86,248.47L30.36,262.35L32.53,264.27L34.7,265.72L36.87,271.36L39.04,272.29L41.2,275.94L43.37,276.28L45.54,277.52L47.71,279.26L49.88,278.08L56.39,283.47L58.55,284.12L65.06,287.12L67.23,287.68L69.4,287.28L71.57,288.3L78.07,291.77L80.24,291.3L82.41,292.36L84.58,292.48L88.92,294.15L91.08,295.3L95.42,295.36L97.59,295.55L110.6,297.87L112.77,297.74L119.28,298.18L121.45,298.58L125.78,298.67L127.95,298.8L132.29,298.8L134.46,299.23L140.96,299.88L143.13,300.13L151.81,299.63L153.98,299.97L177.83,301.12L180,301.43L184.34,301.52L186.51,301.74L195.18,301.49L197.35,301.62L212.53,302.08L214.7,302.14L223.37,302.17L225.54,302.23L242.89,302.54L245.06,302.58L268.92,303.23L271.08,303.19L305.78,303.69L307.95,303.66L540,303.97" style="vector-effect: non-scaling-stroke; fill: none; stroke: rgb(0, 176, 246); stroke-opacity: 1; stroke-width: 2px; opacity: 1;"/></g><g class="points"/><g class="text"/></g><g class="trace scatter trace228353" style="stroke-miterlimit: 2; opacity: 1;"><g class="fills"/><g class="errorbars"/><g class="lines"><path class="js-line" d="M0,38.7L4.34,106.89L6.51,131.66L8.67,167.53L10.84,172.6L13.01,186.63L15.18,193.54L19.52,208.59L21.69,215.9L30.36,239.74L32.53,243.98L34.7,245.38L36.87,248.72L45.54,259.34L47.71,259.99L52.05,263.31L54.22,262.84L58.55,266.87L60.72,268.76L62.89,268.29L65.06,268.91L67.23,269.94L69.4,269.84L75.9,271.33L78.07,270.77L86.75,271.05L88.92,271.11L93.25,271.21L95.42,271.58L104.1,273.9L106.27,274.36L112.77,275.39L114.94,277L121.45,278.67L123.61,278.95L125.78,278.48L127.95,278.98L140.96,281.92L143.13,282.94L147.47,283.9L149.64,283.59L162.65,283.03L164.82,283.72L166.99,283.53L169.16,284.21L180,286.01L182.17,285.08L195.18,286.78L197.35,287.49L201.69,288.64L203.86,288.55L206.02,288.14L208.19,289.01L216.87,288.92L219.04,288.52L221.2,289.82L223.37,290.22L225.54,290.06L227.71,290.81L234.22,291.02L236.39,292.2L242.89,291.43L245.06,292.14L266.75,294.31L268.92,294.25L273.25,294.46L275.42,294.4L279.76,294.43L281.93,294.37L290.6,294.99L292.77,294.8L297.11,295.39L299.28,295.33L305.78,296.13L307.95,296.35L310.12,296.91L312.29,296.66L323.13,297.74L325.3,297.53L331.81,297.65L333.98,298.02L349.16,298.49L351.33,298.27L364.34,298.15L366.51,298.49L375.18,298.8L377.35,299.42L394.7,300.13L396.87,300.22L420.72,300.75L422.89,300.66L490.12,301.96L492.29,301.89L507.47,302.51L509.64,302.54L520.48,302.61L522.65,302.73L533.49,302.7L535.66,302.79L540,302.7" style="vector-effect: non-scaling-stroke; fill: none; stroke: rgb(231, 107, 243); stroke-opacity: 1; stroke-width: 2px; opacity: 1;"/></g><g class="points"/><g class="text"/></g><g class="trace scatter traceb87892" style="stroke-miterlimit: 2; opacity: 1;"><g class="fills"/><g class="errorbars"/><g class="lines"><path class="js-line" d="M0,16L2.17,60.01L4.34,83.51L8.67,141.11L10.84,153.62L15.18,182.98L17.35,194L19.52,202.89L21.69,208.4L26.02,219.02L28.19,228.25L30.36,232.43L32.53,231.94L34.7,234.35L36.87,240.73L39.04,245.47L41.2,247.86L47.71,254.33L49.88,256L52.05,255.16L54.22,255.26L60.72,261.02L62.89,261.26L65.06,261.73L67.23,263.09L73.73,266.44L75.9,267.92L88.92,269.38L91.08,270.31L99.76,271.14L101.93,272.88L110.6,274.7L112.77,273.99L114.94,274.15L117.11,275.14L123.61,278.05L125.78,277.99L132.29,277.24L134.46,278.54L140.96,279.85L143.13,279.69L158.31,281.05L160.48,281.98L164.82,283.19L166.99,284.18L173.49,283.9L175.66,284.61L177.83,283.87L180,284.09L184.34,283.96L186.51,284.12L197.35,285.91L199.52,286.97L203.86,287.62L206.02,287.49L212.53,288.7L214.7,288.3L229.88,290.68L232.05,290.22L236.39,290.34L238.55,290.96L242.89,290.68L245.06,291.02L268.92,292.63L271.08,292.67L275.42,293.07L277.59,292.51L299.28,293.87L301.45,294.65L314.46,294.28L316.63,294.93L333.98,296.23L336.14,296.01L366.51,296.88L368.67,297.16L379.52,297.99L381.69,297.99L394.7,298.86L396.87,298.7L403.37,298.74L405.54,298.95L409.88,298.77L412.05,298.55L425.06,298.98L427.23,298.95L455.42,300.1L457.59,299.94L464.1,300.1L466.27,300.25L470.6,300.44L472.77,300.69L481.45,300.28L483.61,300.22L535.66,301.24L537.83,301.15L540,301.31" style="vector-effect: non-scaling-stroke; fill: none; stroke: rgb(248, 118, 109); stroke-opacity: 1; stroke-width: 2px; opacity: 1;"/></g><g class="points"/><g class="text"/></g><g class="trace scatter trace94663c" style="stroke-miterlimit: 2; opacity: 1;"><g class="fills"/><g class="errorbars"/><g class="lines"><path class="js-line" d="M0,73.38L4.34,123.58L6.51,165.64L8.67,195.77L10.84,212.09L13.01,217.29L15.18,225.59L21.69,248.41L23.86,247.67L28.19,259.56L30.36,264.58L34.7,268.08L36.87,272.2L39.04,273.9L41.2,276.59L43.37,277.52L45.54,279.85L47.71,281.21L49.88,280.46L56.39,285.51L58.55,286.32L73.73,290.06L75.9,291.21L78.07,292.11L80.24,291.89L82.41,292.98L84.58,292.91L91.08,293.66L93.25,293.69L97.59,294L99.76,294.99L106.27,296.69L108.43,296.72L119.28,298.09L121.45,297.87L127.95,298.55L130.12,298.8L132.29,298.89L134.46,299.76L138.8,300.01L140.96,299.82L153.98,300.47L156.14,300.53L175.66,301.77L177.83,301.89L188.67,301.55L190.84,301.77L197.35,301.99L199.52,302.05L349.16,303.91L351.33,303.85L414.22,304L416.39,304L540,304" style="vector-effect: non-scaling-stroke; fill: none; stroke: rgb(163, 165, 0); stroke-opacity: 1; stroke-width: 2px; opacity: 1;"/></g><g class="points"/><g class="text"/></g><g class="trace scatter tracee82e9f" style="stroke-miterlimit: 2; opacity: 1;"><g class="fills"/><g class="errorbars"/><g class="lines"><path class="js-line" d="M0,58.12L4.34,104.13L6.51,141.11L8.67,173.5L10.84,187.34L15.18,211.13L17.35,216.14L19.52,221.78L21.69,233.33L23.86,233.92L26.02,236.46L28.19,243.98L30.36,247.51L32.53,250.83L34.7,250.77L36.87,256.19L39.04,256.53L43.37,261.88L45.54,263.59L49.88,264.64L52.05,266.99L54.22,267.71L56.39,270L58.55,270.74L60.72,272.78L62.89,272.94L65.06,275.29L69.4,275.79L71.57,276.97L73.73,276.78L75.9,277.65L78.07,278.73L80.24,278.14L82.41,277.77L84.58,278.39L91.08,278.7L93.25,278.85L95.42,278.82L97.59,279.63L99.76,279.88L101.93,281.58L104.1,281.92L106.27,283.5L108.43,283.41L110.6,284.15L117.11,283.84L119.28,284.77L125.78,286.29L127.95,285.39L136.63,286.72L138.8,286.29L145.3,287.83L147.47,288.27L153.98,289.29L156.14,289.66L162.65,290.75L164.82,290.06L173.49,290.28L175.66,290.56L180,291.33L182.17,291.43L184.34,291.12L186.51,291.61L193.01,291.95L195.18,291.8L208.19,293.56L210.36,293.72L216.87,294.34L219.04,294.06L223.37,294.71L225.54,295.02L229.88,295.27L232.05,295.14L258.07,296.97L260.24,297.34L268.92,297.47L271.08,298.12L279.76,298.36L281.93,298.24L290.6,299.08L292.77,299.01L310.12,300.53L312.29,300.47L331.81,300.59L333.98,300.59L351.33,301.27L353.49,301.27L364.34,301.58L366.51,301.46L409.88,302.2L412.05,302.3L431.57,303.04L433.73,303.01L457.59,303.29L459.76,303.26L535.66,303.57L537.83,303.5L540,303.47" style="vector-effect: non-scaling-stroke; fill: none; stroke: rgb(0, 191, 125); stroke-opacity: 1; stroke-width: 2px; opacity: 1;"/></g><g class="points"/><g class="text"/></g><g class="trace scatter tracee9fd89" style="stroke-miterlimit: 2; opacity: 1;"><g class="fills"/><g class="errorbars"/><g class="lines"><path class="js-line" d="M0,61.12L4.34,104.1L6.51,150.77L8.67,175.64L10.84,187.75L13.01,198.18L15.18,202.55L17.35,206.58L19.52,214.6L21.69,226.64L23.86,227.94L26.02,236.34L28.19,240.86L32.53,249.47L34.7,250.39L36.87,254.79L39.04,255.97L43.37,261.08L45.54,263.09L49.88,265.35L52.05,269.01L54.22,269.53L56.39,271.67L58.55,271.73L60.72,273.5L67.23,275.85L69.4,276.62L71.57,278.2L73.73,278.39L75.9,279.32L78.07,281.15L80.24,281.05L82.41,281.86L86.75,281.98L88.92,282.76L95.42,282.79L97.59,283.16L104.1,284.8L106.27,285.91L117.11,286.84L119.28,286.53L125.78,287.28L127.95,287.28L134.46,287.68L136.63,288.36L138.8,288.45L140.96,289.41L143.13,290.65L145.3,290.87L171.33,293.87L173.49,294L182.17,293.84L184.34,294.28L190.84,294.49L193.01,294.49L195.18,294.09L197.35,294.86L199.52,295.67L201.69,295.51L212.53,296.91L214.7,296.44L223.37,297.06L225.54,297L242.89,298.77L245.06,298.77L260.24,299.6L262.41,299.45L266.75,299.88L268.92,299.85L279.76,300.53L281.93,300.62L294.94,301.21L297.11,301.15L316.63,301.58L318.8,301.77L336.14,301.99L338.31,301.99L364.34,301.96L366.51,302.02L394.7,302.85L396.87,302.79L520.48,303.47L522.65,303.6L540,303.57" style="vector-effect: non-scaling-stroke; fill: none; stroke: rgb(0, 176, 246); stroke-opacity: 1; stroke-width: 2px; opacity: 1;"/></g><g class="points"/><g class="text"/></g><g class="trace scatter trace539521" style="stroke-miterlimit: 2; opacity: 1;"><g class="fills"/><g class="errorbars"/><g class="lines"><path class="js-line" d="M0,71.56L4.34,128.57L6.51,162.23L8.67,192.61L10.84,204.59L13.01,208.25L15.18,218.65L21.69,240.95L23.86,241.2L28.19,253.18L30.36,256.25L36.87,264.39L39.04,265.63L41.2,266.65L43.37,269.87L45.54,272.29L47.71,273.31L49.88,273.93L52.05,276.13L56.39,280.06L58.55,280.03L60.72,282.14L62.89,280.9L65.06,283.53L67.23,283.22L73.73,284.77L75.9,285.95L80.24,285.42L82.41,287.09L84.58,286.44L86.75,286.84L93.25,289.75L95.42,289.51L99.76,289.94L101.93,290.53L106.27,292.26L108.43,292.29L110.6,293.07L112.77,292.94L121.45,293.66L123.61,294.18L125.78,295.3L127.95,295.21L132.29,295.48L134.46,296.57L138.8,297.28L140.96,297.03L147.47,297.96L149.64,298.02L156.14,298.33L158.31,298.36L186.51,299.51L188.67,299.45L216.87,300.07L219.04,299.94L227.71,300.72L229.88,300.9L238.55,301.09L240.72,301.12L245.06,301.15L247.23,301.31L255.9,301.37L258.07,301.93L264.58,302.11L266.75,301.93L323.13,302.95L325.3,302.82L336.14,302.92L338.31,302.92L349.16,302.98L351.33,302.85L375.18,303.29L377.35,303.26L540,303.97" style="vector-effect: non-scaling-stroke; fill: none; stroke: rgb(231, 107, 243); stroke-opacity: 1; stroke-width: 2px; opacity: 1;"/></g><g class="points"/><g class="text"/></g><g class="trace scatter trace1a12a3" style="stroke-miterlimit: 2; opacity: 1;"><g class="fills"/><g class="errorbars"/><g class="lines"><path class="js-line" d="M0,59.57L6.51,163.81L8.67,189.95L10.84,204.53L13.01,211.56L21.69,242.16L23.86,241.6L30.36,257.21L32.53,259.65L34.7,261.54L36.87,266.68L39.04,267.8L41.2,269.97L45.54,274.09L47.71,275.17L49.88,275.29L52.05,279.29L54.22,278.92L56.39,281.55L60.72,283.53L62.89,284.61L80.24,287.77L82.41,288.42L88.92,288.98L91.08,289.75L101.93,291.58L104.1,292.2L114.94,293.97L117.11,294.62L145.3,298.3L147.47,298.46L153.98,298.15L156.14,298.7L169.16,300.25L171.33,300.1L201.69,301.43L203.86,301.46L221.2,301.83L223.37,302.05L234.22,302.33L236.39,302.33L249.4,302.39L251.57,302.45L310.12,303.47L312.29,303.47L342.65,303.75L344.82,303.78L386.02,303.88L388.19,303.91L446.75,303.97L448.92,303.97L540,304" style="vector-effect: non-scaling-stroke; fill: none; stroke: rgb(248, 118, 109); stroke-opacity: 1; stroke-width: 2px; opacity: 1;"/></g><g class="points"/><g class="text"/></g><g class="trace scatter trace9a3290" style="stroke-miterlimit: 2; opacity: 1;"><g class="fills"/><g class="errorbars"/><g class="lines"><path class="js-line" d="M0,72.11L2.17,90.54L4.34,122.99L8.67,189.02L10.84,200.78L13.01,204.59L15.18,213.42L21.69,241.2L23.86,239.25L30.36,255.16L32.53,257.46L34.7,257.39L36.87,262.87L39.04,263.46L41.2,265.57L45.54,270.25L47.71,271.58L54.22,275.88L56.39,278.61L62.89,282.85L65.06,283.31L69.4,284.55L71.57,285.57L73.73,285.79L75.9,286.91L78.07,288.24L80.24,288.21L88.92,290.1L91.08,291.55L95.42,291.74L97.59,292.42L99.76,292.23L101.93,293.07L108.43,293.5L110.6,294.55L114.94,294.86L117.11,295.48L121.45,295.24L123.61,296.2L138.8,298.86L140.96,298.83L212.53,301.77L214.7,301.52L219.04,301.46L221.2,301.62L232.05,301.83L234.22,301.8L249.4,302.39L251.57,302.2L262.41,302.85L264.58,302.85L273.25,303.13L275.42,303.26L290.6,303.29L292.77,303.32L377.35,303.81L379.52,303.78L435.9,303.85L438.07,303.78L540,303.97" style="vector-effect: non-scaling-stroke; fill: none; stroke: rgb(163, 165, 0); stroke-opacity: 1; stroke-width: 2px; opacity: 1;"/></g><g class="points"/><g class="text"/></g><g class="trace scatter trace739bae" style="stroke-miterlimit: 2; opacity: 1;"><g class="fills"/><g class="errorbars"/><g class="lines"><path class="js-line" d="M0,65.98L2.17,84.72L4.34,126.43L8.67,194.13L10.84,204.62L13.01,208.93L15.18,217.91L21.69,241.54L23.86,243.15L28.19,251.7L30.36,258.54L32.53,260.71L34.7,260.99L36.87,265.57L39.04,264.67L41.2,268.26L43.37,270.28L47.71,274.12L49.88,273.4L52.05,277.18L54.22,277.03L56.39,278.89L58.55,279.47L65.06,283.31L67.23,283.78L73.73,285.3L75.9,286.44L80.24,286.97L82.41,288.83L84.58,288.45L86.75,289.29L104.1,292.2L106.27,293.19L110.6,292.91L112.77,293.19L119.28,293.72L121.45,293.41L127.95,295.27L130.12,295.64L147.47,298.86L149.64,298.89L156.14,299.05L158.31,299.42L175.66,300.31L177.83,300.5L193.01,300.56L195.18,300.78L208.19,301.31L210.36,301.21L221.2,301.49L223.37,301.65L234.22,301.89L236.39,301.74L245.06,302.2L247.23,302.23L260.24,302.54L262.41,302.76L284.1,303.04L286.27,302.95L292.77,303.38L294.94,303.38L318.8,303.47L320.96,303.44L336.14,303.54L338.31,303.63L399.04,303.85L401.2,303.72L540,303.97" style="vector-effect: non-scaling-stroke; fill: none; stroke: rgb(0, 191, 125); stroke-opacity: 1; stroke-width: 2px; opacity: 1;"/></g><g class="points"/><g class="text"/></g><g class="trace scatter trace8ba4c1" style="stroke-miterlimit: 2; opacity: 1;"><g class="fills"/><g class="errorbars"/><g class="lines"><path class="js-line" d="M0,69.05L2.17,88.09L4.34,124.14L8.67,191.53L10.84,203.73L13.01,205.65L15.18,216.36L19.52,231.78L21.69,241.85L23.86,240.33L26.02,243.46L30.36,255.01L32.53,258.38L34.7,259.19L36.87,264.52L39.04,264.02L41.2,266.44L43.37,267.24L45.54,270.12L49.88,271.95L52.05,274.33L54.22,274.49L56.39,277.34L65.06,282.91L67.23,282.63L75.9,284.99L78.07,285.95L80.24,285.67L82.41,286.35L84.58,285.91L86.75,286.69L91.08,287.25L93.25,287.53L110.6,290.65L112.77,290.71L117.11,292.39L119.28,292.23L123.61,292.79L125.78,293.47L132.29,293.9L134.46,294.74L138.8,295.61L140.96,295.3L145.3,296.69L147.47,296.54L151.81,296.66L153.98,297L160.48,296.97L162.65,297.28L177.83,299.05L180,298.7L184.34,298.7L186.51,298.55L193.01,299.32L195.18,299.54L208.19,300.41L210.36,300.25L214.7,300.53L216.87,300.5L219.04,300.13L221.2,300.56L232.05,301.06L234.22,301.24L260.24,301.96L262.41,302.2L268.92,302.3L271.08,302.23L284.1,302.36L286.27,302.39L305.78,302.92L307.95,302.82L373.01,303.54L375.18,303.6L409.88,303.81L412.05,303.85L540,304" style="vector-effect: non-scaling-stroke; fill: none; stroke: rgb(0, 176, 246); stroke-opacity: 1; stroke-width: 2px; opacity: 1;"/></g><g class="points"/><g class="text"/></g><g class="trace scatter trace7444b6" style="stroke-miterlimit: 2; opacity: 1;"><g class="fills"/><g class="errorbars"/><g class="lines"><path class="js-line" d="M0,65.92L2.17,87.41L4.34,117.85L8.67,186.82L10.84,198.68L13.01,204.69L15.18,214.01L19.52,228.19L21.69,237.51L23.86,237.88L26.02,245.1L28.19,249.34L30.36,251.82L32.53,255.13L34.7,256.9L36.87,261.98L39.04,262.6L43.37,268.76L45.54,270.93L49.88,273.37L52.05,276.44L54.22,277.03L56.39,278.7L60.72,280.56L62.89,282.32L78.07,286.41L80.24,286.13L82.41,286.97L84.58,286.84L86.75,287.59L88.92,287.43L93.25,289.63L95.42,289.23L101.93,290.56L104.1,290.19L106.27,291.12L108.43,290.75L110.6,291.67L112.77,291.61L114.94,291.46L117.11,292.6L121.45,292.42L123.61,292.98L127.95,293.97L130.12,293.97L132.29,294L134.46,295.21L140.96,296.44L143.13,296.91L149.64,297.59L151.81,297.19L156.14,297.99L158.31,298.18L162.65,298.67L164.82,298.74L203.86,300.69L206.02,300.44L214.7,300.84L216.87,300.75L221.2,301.03L223.37,301.15L227.71,301.77L229.88,301.89L331.81,303.44L333.98,303.32L357.83,303.6L360,303.6L431.57,303.85L433.73,303.81L540,303.94" style="vector-effect: non-scaling-stroke; fill: none; stroke: rgb(231, 107, 243); stroke-opacity: 1; stroke-width: 2px; opacity: 1;"/></g><g class="points"/><g class="text"/></g><g class="trace scatter traceae9826" style="stroke-miterlimit: 2; opacity: 1;"><g class="fills"/><g class="errorbars"/><g class="lines"><path class="js-line" d="M0,63.35L2.17,87.5L4.34,123.3L8.67,194.31L10.84,205.65L13.01,212.21L15.18,221.84L19.52,232.53L21.69,242.31L23.86,242.34L26.02,250.05L30.36,257.02L32.53,262.19L34.7,264.11L36.87,268.11L39.04,267.61L41.2,271.36L43.37,270.9L45.54,272.6L47.71,274.61L49.88,275.05L52.05,278.3L54.22,279.41L60.72,284.92L62.89,285.51L69.4,286.84L71.57,286.5L73.73,287.03L75.9,288.64L80.24,288.18L82.41,289.45L84.58,289.17L86.75,290.1L88.92,290.37L91.08,291.58L93.25,292.54L95.42,292.63L99.76,293.9L101.93,294.43L106.27,294.74L108.43,295.17L117.11,296.01L119.28,296.91L127.95,297.31L130.12,297.16L134.46,298.05L136.63,298.74L149.64,299.14L151.81,299.01L164.82,300.13L166.99,300.19L203.86,301.68L206.02,301.49L210.36,301.71L212.53,301.71L223.37,301.83L225.54,302.02L294.94,303.41L297.11,303.44L540,304" style="vector-effect: non-scaling-stroke; fill: none; stroke: rgb(248, 118, 109); stroke-opacity: 1; stroke-width: 2px; opacity: 1;"/></g><g class="points"/><g class="text"/></g><g class="trace scatter tracecadb20" style="stroke-miterlimit: 2; opacity: 1;"><g class="fills"/><g class="errorbars"/><g class="lines"><path class="js-line" d="M0,55.17L4.34,128.97L6.51,163.41L8.67,192.61L10.84,205.43L13.01,206.85L15.18,218.78L17.35,221.78L19.52,227.7L21.69,239.37L23.86,238.87L30.36,255.57L32.53,258.29L34.7,260.27L36.87,267.3L39.04,267.09L41.2,271.05L43.37,274.92L45.54,276.41L47.71,279.13L49.88,278.92L52.05,281.7L54.22,281.7L56.39,283.34L58.55,284.03L65.06,286.38L67.23,286.5L71.57,288.27L73.73,288.02L75.9,289.51L78.07,289.94L80.24,290.31L82.41,291.52L86.75,291.92L88.92,292.67L93.25,294.83L95.42,294.71L117.11,297.99L119.28,297.5L127.95,298.27L130.12,298.05L145.3,300.1L147.47,300.31L156.14,300.1L158.31,300.22L203.86,302.11L206.02,302.02L245.06,302.98L247.23,302.85L264.58,303.23L266.75,303.16L290.6,303.54L292.77,303.57L366.51,303.88L368.67,303.81L394.7,303.94L396.87,303.94L451.08,303.94L453.25,303.91L481.45,303.97L483.61,303.97L540,303.97" style="vector-effect: non-scaling-stroke; fill: none; stroke: rgb(163, 165, 0); stroke-opacity: 1; stroke-width: 2px; opacity: 1;"/></g><g class="points"/><g class="text"/></g><g class="trace scatter tracedeae7d" style="stroke-miterlimit: 2; opacity: 1;"><g class="fills"/><g class="errorbars"/><g class="lines"><path class="js-line" d="M0,63.81L2.17,96.76L4.34,116.18L8.67,187L10.84,200.13L13.01,204.38L15.18,214.81L21.69,235.19L23.86,233.55L30.36,253.52L32.53,257.24L34.7,258.23L36.87,263.34L39.04,264.02L41.2,268.7L47.71,275.01L49.88,274.39L52.05,277.52L54.22,277.93L58.55,281.02L60.72,281.92L62.89,283.62L65.06,284.34L73.73,286.35L75.9,287.34L78.07,288.24L80.24,287.34L82.41,288.36L84.58,288.3L86.75,288.95L88.92,288.7L91.08,289.94L93.25,290.13L95.42,289.66L97.59,289.97L110.6,293.22L112.77,292.91L119.28,294.8L121.45,294.55L125.78,295.79L127.95,295.42L134.46,295.95L136.63,296.6L143.13,297.43L145.3,297.5L158.31,298.92L160.48,299.05L164.82,299.35L166.99,299.63L175.66,299.97L177.83,300.35L223.37,301.65L225.54,301.86L290.6,303.32L292.77,303.29L379.52,303.88L381.69,303.78L399.04,303.85L401.2,303.88L461.93,303.97L464.1,303.97L540,304" style="vector-effect: non-scaling-stroke; fill: none; stroke: rgb(0, 191, 125); stroke-opacity: 1; stroke-width: 2px; opacity: 1;"/></g><g class="points"/><g class="text"/></g><g class="trace scatter trace0b27f7" style="stroke-miterlimit: 2; opacity: 1;"><g class="fills"/><g class="errorbars"/><g class="lines"><path class="js-line" d="M0,66.32L6.51,166.29L8.67,190.29L10.84,203.97L13.01,210.01L15.18,219.67L17.35,224.41L19.52,232.25L21.69,245.66L23.86,247.92L26.02,251.88L30.36,261.05L32.53,260.24L34.7,261.23L36.87,268.17L39.04,267.3L41.2,269.66L45.54,271.92L47.71,273.53L49.88,272.97L52.05,277.27L54.22,278.73L56.39,281.64L60.72,283.41L62.89,283.84L65.06,284.58L67.23,284.4L73.73,286.1L75.9,287.96L78.07,287.56L80.24,288.02L91.08,290.28L93.25,291.24L95.42,291.67L97.59,291.33L99.76,291.4L101.93,292.26L110.6,293.94L112.77,293.87L125.78,295.33L127.95,296.17L132.29,296.54L134.46,297.37L136.63,298.05L138.8,297.81L140.96,297.65L143.13,298.43L147.47,298.58L149.64,298.67L153.98,299.17L156.14,299.29L182.17,300.56L184.34,300.59L188.67,300.69L190.84,300.87L203.86,301.71L206.02,301.65L227.71,302.3L229.88,302.54L238.55,302.48L240.72,302.48L249.4,302.48L251.57,302.48L275.42,302.95L277.59,302.82L357.83,303.54L360,303.41L386.02,303.75L388.19,303.78L442.41,303.78L444.58,303.78L540,303.94" style="vector-effect: non-scaling-stroke; fill: none; stroke: rgb(0, 176, 246); stroke-opacity: 1; stroke-width: 2px; opacity: 1;"/></g><g class="points"/><g class="text"/></g><g class="trace scatter trace8359d2" style="stroke-miterlimit: 2; opacity: 1;"><g class="fills"/><g class="errorbars"/><g class="lines"><path class="js-line" d="M0,48.73L8.67,178.43L10.84,194.71L13.01,200.88L15.18,211.99L17.35,215.31L19.52,223.89L21.69,233.86L23.86,233.21L26.02,239.74L28.19,243.27L30.36,249.84L32.53,253.52L34.7,254.64L36.87,260.43L39.04,258.2L41.2,262.5L43.37,264.86L45.54,265.2L47.71,268.54L49.88,267.89L52.05,271.98L54.22,272.51L58.55,274.43L60.72,274.92L62.89,277.06L65.06,277.31L67.23,277.71L69.4,280.15L75.9,281.95L78.07,283.38L80.24,282.6L82.41,283.84L91.08,286.5L93.25,287.4L95.42,287.15L97.59,287.99L104.1,288.98L106.27,289.88L112.77,290.1L114.94,290.84L119.28,291.43L121.45,291.83L145.3,297.25L147.47,297.19L151.81,296.94L153.98,297.19L164.82,298.46L166.99,298.36L180,299.45L182.17,299.17L214.7,301.4L216.87,301.4L247.23,301.99L249.4,302.17L255.9,302.33L258.07,302.45L299.28,303.44L301.45,303.41L325.3,303.69L327.47,303.69L340.48,303.85L342.65,303.85L360,303.94L362.17,303.85L418.55,303.88L420.72,303.88L540,303.97" style="vector-effect: non-scaling-stroke; fill: none; stroke: rgb(231, 107, 243); stroke-opacity: 1; stroke-width: 2px; opacity: 1;"/></g><g class="points"/><g class="text"/></g><g class="trace scatter traceb264db" style="stroke-miterlimit: 2; opacity: 1;"><g class="fills"/><g class="errorbars"/><g class="lines"><path class="js-line" d="M0,68.74L10.84,215.25L13.01,218.56L21.69,249.16L23.86,250.55L28.19,261.26L30.36,264.55L32.53,266L34.7,269.13L36.87,273.13L39.04,274.77L45.54,281.52L47.71,281.24L49.88,280.96L52.05,283.16L54.22,283.72L56.39,285.33L65.06,289.32L67.23,289.29L73.73,289.97L75.9,291.3L82.41,293.47L84.58,292.82L86.75,293.75L88.92,293.47L112.77,298.52L114.94,298.46L119.28,298.74L121.45,298.3L127.95,298.64L130.12,298.86L143.13,300.66L145.3,300.87L158.31,300.53L160.48,300.72L169.16,301.15L171.33,301.18L184.34,301.74L186.51,301.62L214.7,302.51L216.87,302.36L240.72,302.79L242.89,302.79L275.42,303.29L277.59,303.44L297.11,303.6L299.28,303.63L540,304" style="vector-effect: non-scaling-stroke; fill: none; stroke: rgb(248, 118, 109); stroke-opacity: 1; stroke-width: 2px; opacity: 1;"/></g><g class="points"/><g class="text"/></g><g class="trace scatter tracee3b438" style="stroke-miterlimit: 2; opacity: 1;"><g class="fills"/><g class="errorbars"/><g class="lines"><path class="js-line" d="M0,51.71L2.17,70.47L4.34,114.97L6.51,159.85L8.67,187L10.84,201.65L13.01,206.36L15.18,219.55L17.35,227.08L21.69,242.81L23.86,242.99L28.19,252.07L30.36,254.7L32.53,258.17L34.7,258.91L36.87,262.66L39.04,261.61L41.2,265.14L43.37,267.24L47.71,271.55L49.88,271.92L52.05,275.29L54.22,275.7L56.39,278.89L58.55,280.4L62.89,280.84L65.06,281.52L67.23,282.32L69.4,281.52L71.57,283.38L73.73,282.97L78.07,286.38L80.24,285.54L82.41,286.97L84.58,286.44L93.25,289.45L95.42,289.41L106.27,292.08L108.43,291.8L114.94,293.04L117.11,294.15L125.78,295.45L127.95,295.67L143.13,298.15L145.3,298.24L149.64,298.67L151.81,298.52L156.14,298.83L158.31,299.05L188.67,301.46L190.84,301.52L206.02,302.14L208.19,302.33L260.24,303.26L262.41,303.41L288.43,303.78L290.6,303.85L301.45,303.78L303.61,303.78L331.81,303.75L333.98,303.78L346.99,304L349.16,303.94L399.04,303.88L401.2,303.85L540,303.97" style="vector-effect: non-scaling-stroke; fill: none; stroke: rgb(163, 165, 0); stroke-opacity: 1; stroke-width: 2px; opacity: 1;"/></g><g class="points"/><g class="text"/></g><g class="trace scatter trace2531bc" style="stroke-miterlimit: 2; opacity: 1;"><g class="fills"/><g class="errorbars"/><g class="lines"><path class="js-line" d="M0,53.1L8.67,183.69L10.84,193.2L13.01,197.78L15.18,205.96L17.35,217.75L19.52,224.41L21.69,235.28L23.86,236.89L26.02,241.6L28.19,249.13L32.53,253.96L34.7,256.74L36.87,261.48L39.04,264.08L45.54,271.51L47.71,272.6L49.88,273.96L52.05,276.38L60.72,282.45L62.89,282.69L67.23,283.22L69.4,283.19L73.73,284.03L75.9,285.23L78.07,285.08L80.24,285.73L84.58,286.01L86.75,287.34L91.08,287.43L93.25,287.96L97.59,288.14L99.76,288.24L106.27,290.84L108.43,290.68L117.11,293.25L119.28,293.1L123.61,293.87L125.78,295.02L132.29,294L134.46,295.64L138.8,296.26L140.96,296.32L147.47,296.47L149.64,296.23L169.16,297.65L171.33,297.43L195.18,298.8L197.35,299.14L216.87,300.31L219.04,300.1L229.88,301.37L232.05,301.21L245.06,301.18L247.23,301.24L251.57,301.27L253.73,301.4L260.24,301.4L262.41,301.71L277.59,302.45L279.76,302.27L414.22,303.44L416.39,303.32L540,303.78" style="vector-effect: non-scaling-stroke; fill: none; stroke: rgb(0, 191, 125); stroke-opacity: 1; stroke-width: 2px; opacity: 1;"/></g><g class="points"/><g class="text"/></g><g class="trace scatter trace3d30f5" style="stroke-miterlimit: 2; opacity: 1;"><g class="fills"/><g class="errorbars"/><g class="lines"><path class="js-line" d="M0,65.67L8.67,191.9L10.84,207.32L13.01,210.76L15.18,217.54L17.35,221.72L19.52,229.58L21.69,239.18L23.86,238.87L26.02,246.37L28.19,249.5L30.36,254.98L32.53,257.08L34.7,258.07L36.87,262.47L39.04,262.75L41.2,265.45L45.54,271.05L47.71,272.85L49.88,272.47L52.05,275.05L65.06,284.34L67.23,284.46L69.4,284.55L71.57,285.73L73.73,285.88L75.9,287.87L78.07,288.58L80.24,288.49L86.75,290.53L88.92,291.61L93.25,292.57L95.42,292.33L99.76,293.1L101.93,293.47L108.43,294.09L110.6,294.74L114.94,295.14L117.11,295.92L119.28,295.51L121.45,295.89L140.96,297.96L143.13,298.64L147.47,298.92L149.64,298.24L160.48,299.42L162.65,299.32L169.16,299.97L171.33,299.73L210.36,301.24L212.53,301.18L223.37,301.4L225.54,301.71L232.05,301.74L234.22,301.89L255.9,302.64L258.07,302.76L268.92,303.07L271.08,303.1L451.08,303.85L453.25,303.91L500.96,304L503.13,304L540,304" style="vector-effect: non-scaling-stroke; fill: none; stroke: rgb(0, 176, 246); stroke-opacity: 1; stroke-width: 2px; opacity: 1;"/></g><g class="points"/><g class="text"/></g><g class="trace scatter trace7261b3" style="stroke-miterlimit: 2; opacity: 1;"><g class="fills"/><g class="errorbars"/><g class="lines"><path class="js-line" d="M0,59.82L2.17,80.38L4.34,115.47L6.51,161.67L8.67,183.85L10.84,196.76L13.01,200.32L21.69,236.03L23.86,237.23L26.02,244.48L28.19,249.06L30.36,252.84L32.53,255.04L34.7,256.99L36.87,261.05L39.04,261.54L41.2,264.89L45.54,270.77L47.71,272.51L49.88,272.51L52.05,274.89L54.22,276.1L56.39,278.36L60.72,280.19L62.89,280.81L67.23,282.85L69.4,283.87L71.57,284.43L73.73,284.21L78.07,286.01L80.24,285.51L86.75,288.24L88.92,288.02L104.1,291.71L106.27,292.79L114.94,293.78L117.11,294.25L119.28,294.99L121.45,294.86L143.13,298.33L145.3,298.21L171.33,299.17L173.49,299.11L184.34,300.01L186.51,299.85L193.01,300.22L195.18,300.19L206.02,301L208.19,301.21L225.54,301.62L227.71,301.65L238.55,302.27L240.72,302.11L264.58,302.36L266.75,302.45L292.77,303.32L294.94,303.38L305.78,303.35L307.95,303.35L540,304" style="vector-effect: non-scaling-stroke; fill: none; stroke: rgb(231, 107, 243); stroke-opacity: 1; stroke-width: 2px; opacity: 1;"/></g><g class="points"/><g class="text"/></g></g></g><g class="overplot"/><path class="xlines-above crisp" d="" style="fill: none; stroke-width: 1px; stroke: rgb(0, 0, 0); stroke-opacity: 0;"/><path class="ylines-above crisp" d="" style="fill: none; stroke-width: 1px; stroke: rgb(0, 0, 0); stroke-opacity: 0;"/><g class="overlines-above"/><g class="xaxislayer-above"><path class="xtick ticks crisp" d="M0,421v5" transform="translate(80,0)" style="stroke: rgb(51, 51, 51); stroke-opacity: 1; stroke-width: 1px;"/><path class="xtick ticks crisp" d="M0,421v5" transform="translate(188.43,0)" style="stroke: rgb(51, 51, 51); stroke-opacity: 1; stroke-width: 1px;"/><path class="xtick ticks crisp" d="M0,421v5" transform="translate(296.87,0)" style="stroke: rgb(51, 51, 51); stroke-opacity: 1; stroke-width: 1px;"/><path class="xtick ticks crisp" d="M0,421v5" transform="translate(405.3,0)" style="stroke: rgb(51, 51, 51); stroke-opacity: 1; stroke-width: 1px;"/><path class="xtick ticks crisp" d="M0,421v5" transform="translate(513.73,0)" style="stroke: rgb(51, 51, 51); stroke-opacity: 1; stroke-width: 1px;"/><g class="xtick"><text text-anchor="middle" x="0" y="440.4" transform="translate(80,0)" style="font-family: 'Open Sans', verdana, arial, sans-serif; font-size: 12px; fill: rgb(51, 51, 51); fill-opacity: 1; white-space: pre; opacity: 1;">0</text></g><g class="xtick"><text text-anchor="middle" x="0" y="440.4" style="font-family: 'Open Sans', verdana, arial, sans-serif; font-size: 12px; fill: rgb(51, 51, 51); fill-opacity: 1; white-space: pre; opacity: 1;" transform="translate(188.43,0)">50</text></g><g class="xtick"><text text-anchor="middle" x="0" y="440.4" style="font-family: 'Open Sans', verdana, arial, sans-serif; font-size: 12px; fill: rgb(51, 51, 51); fill-opacity: 1; white-space: pre; opacity: 1;" transform="translate(296.87,0)">100</text></g><g class="xtick"><text text-anchor="middle" x="0" y="440.4" style="font-family: 'Open Sans', verdana, arial, sans-serif; font-size: 12px; fill: rgb(51, 51, 51); fill-opacity: 1; white-space: pre; opacity: 1;" transform="translate(405.3,0)">150</text></g><g class="xtick"><text text-anchor="middle" x="0" y="440.4" style="font-family: 'Open Sans', verdana, arial, sans-serif; font-size: 12px; fill: rgb(51, 51, 51); fill-opacity: 1; white-space: pre; opacity: 1;" transform="translate(513.73,0)">200</text></g></g><g class="yaxislayer-above"><path class="ytick ticks crisp" d="M79,0h-5" transform="translate(0,404)" style="stroke: rgb(51, 51, 51); stroke-opacity: 1; stroke-width: 1px;"/><path class="ytick ticks crisp" d="M79,0h-5" transform="translate(0,342.06)" style="stroke: rgb(51, 51, 51); stroke-opacity: 1; stroke-width: 1px;"/><path class="ytick ticks crisp" d="M79,0h-5" transform="translate(0,280.13)" style="stroke: rgb(51, 51, 51); stroke-opacity: 1; stroke-width: 1px;"/><path class="ytick ticks crisp" d="M79,0h-5" transform="translate(0,218.19)" style="stroke: rgb(51, 51, 51); stroke-opacity: 1; stroke-width: 1px;"/><path class="ytick ticks crisp" d="M79,0h-5" transform="translate(0,156.26)" style="stroke: rgb(51, 51, 51); stroke-opacity: 1; stroke-width: 1px;"/><g class="ytick"><text text-anchor="end" x="71.6" y="4.199999999999999" transform="translate(0,404)" style="font-family: 'Open Sans', verdana, arial, sans-serif; font-size: 12px; fill: rgb(51, 51, 51); fill-opacity: 1; white-space: pre; opacity: 1;">0</text></g><g class="ytick"><text text-anchor="end" x="71.6" y="4.199999999999999" style="font-family: 'Open Sans', verdana, arial, sans-serif; font-size: 12px; fill: rgb(51, 51, 51); fill-opacity: 1; white-space: pre; opacity: 1;" transform="translate(0,342.06)">20</text></g><g class="ytick"><text text-anchor="end" x="71.6" y="4.199999999999999" style="font-family: 'Open Sans', verdana, arial, sans-serif; font-size: 12px; fill: rgb(51, 51, 51); fill-opacity: 1; white-space: pre; opacity: 1;" transform="translate(0,280.13)">40</text></g><g class="ytick"><text text-anchor="end" x="71.6" y="4.199999999999999" style="font-family: 'Open Sans', verdana, arial, sans-serif; font-size: 12px; fill: rgb(51, 51, 51); fill-opacity: 1; white-space: pre; opacity: 1;" transform="translate(0,218.19)">60</text></g><g class="ytick"><text text-anchor="end" x="71.6" y="4.199999999999999" style="font-family: 'Open Sans', verdana, arial, sans-serif; font-size: 12px; fill: rgb(51, 51, 51); fill-opacity: 1; white-space: pre; opacity: 1;" transform="translate(0,156.26)">80</text></g></g><g class="overaxes-above"/></g></g><g class="polarlayer"/><g class="ternarylayer"/><g class="geolayer"/><g class="funnelarealayer"/><g class="pielayer"/><g class="iciclelayer"/><g class="treemaplayer"/><g class="sunburstlayer"/><g class="glimages"/><defs id="topdefs-5d422e"><g class="clips"/></defs><g class="layer-above"><g class="imagelayer"/><g class="shapelayer"/></g><g class="infolayer"><g class="g-gtitle"><text class="gtitle" x="350" y="50" text-anchor="middle" dy="0em" style="font-family: 'Open Sans', verdana, arial, sans-serif; font-size: 17px; fill: rgb(51, 51, 51); opacity: 1; font-weight: normal; white-space: pre;">Average Rank: ascad_v1_fk_0-s_eff_cnn_id (early_stopping)</text></g><g class="g-xtitle"/><g class="g-ytitle"/></g></svg>