<svg class="main-svg" xmlns="http://www.w3.org/2000/svg" xmlns:xlink="http://www.w3.org/1999/xlink" width="700" height="500" style="" viewBox="0 0 700 500"><rect x="0" y="0" width="700" height="500" style="fill: rgb(255, 255, 255); fill-opacity: 1;"/><defs id="defs-eb3e19"><g class="clips"><clipPath id="clipeb3e19xyplot" class="plotclip"><rect width="474" height="320"/></clipPath><clipPath class="axesclip" id="clipeb3e19x"><rect x="80" y="0" width="474" height="500"/></clipPath><clipPath class="axesclip" id="clipeb3e19y"><rect x="0" y="100" width="700" height="320"/></clipPath><clipPath class="axesclip" id="clipeb3e19xy"><rect x="80" y="100" width="474" height="320"/></clipPath></g><g class="gradients"/><g class="patterns"/></defs><g class="bglayer"><rect class="bg" x="80" y="100" width="474" height="320" style="fill: rgb(237, 237, 237); fill-opacity: 1; stroke-width: 0;"/></g><g class="layer-below"><g class="imagelayer"/><g class="shapelayer"/></g><g class="cartesianlayer"><g class="subplot xy"><g class="layer-subplot"><g class="shapelayer"/><g class="imagelayer"/></g><g class="gridlayer"><g class="x"><path class="xgrid crisp" transform="translate(200.75,0)" d="M0,100v320" style="stroke: rgb(255, 255, 255); stroke-opacity: 1; stroke-width: 1px;"/><path class="xgrid crisp" transform="translate(436.25,0)" d="M0,100v320" style="stroke: rgb(255, 255, 255); stroke-opacity: 1; stroke-width: 1px;"/></g><g class="y"><path class="ygrid crisp" transform="translate(0,343.26)" d="M80,0h474" style="stroke: rgb(255, 255, 255); stroke-opacity: 1; stroke-width: 1px;"/><path class="ygrid crisp" transform="translate(0,282.40999999999997)" d="M80,0h474" style="stroke: rgb(255, 255, 255); stroke-opacity: 1; stroke-width: 1px;"/><path class="ygrid crisp" transform="translate(0,221.56)" d="M80,0h474" style="stroke: rgb(255, 255, 255); stroke-opacity: 1; stroke-width: 1px;"/><path class="ygrid crisp" transform="translate(0,160.7)" d="M80,0h474" style="stroke: rgb(255, 255, 255); stroke-opacity: 1; stroke-width: 1px;"/></g></g><g class="zerolinelayer"><path class="yzl zl crisp" transform="translate(0,404.11)" d="M80,0h474" style="stroke: rgb(255, 255, 255); stroke-opacity: 1; stroke-width: 1px;"/></g><path class="xlines-below"/><path class="ylines-below"/><g class="overlines-below"/><g class="xaxislayer-below"/><g class="yaxislayer-below"/><g class="overaxes-below"/><g class="plot" transform="translate(80,100)" clip-path="url(#clipeb3e19xyplot)"><g class="violinlayer mlayer"><g class="trace violins" style="opacity: 1;"><path class="violin" d="M121.38,304Q121.78,303.32 122.08,303.01C122.42,302.65 122.85,302.32 123.35,302.02C123.96,301.65 124.69,301.33 125.5,301.03C126.49,300.66 127.63,300.35 128.87,300.05C130.34,299.69 132.01,299.37 133.77,299.06C135.79,298.7 138.03,298.39 140.33,298.07C142.87,297.72 145.62,297.4 148.36,297.08C151.23,296.74 154.27,296.42 157.2,296.09C160.09,295.76 163.07,295.45 165.8,295.1C168.28,294.78 170.81,294.49 172.89,294.11C174.55,293.81 176.39,293.6 177.34,293.12C177.88,292.84 178.5,292.43 178.45,292.14C178.39,291.75 177.06,291.44 176.11,291.15C174.73,290.73 172.76,290.47 170.88,290.16C168.7,289.8 166.2,289.49 163.79,289.17C161.28,288.83 158.62,288.52 156.12,288.18C153.73,287.86 151.29,287.54 149.1,287.19C147.15,286.88 145.24,286.57 143.6,286.2C142.25,285.9 140.98,285.6 139.95,285.22C139.15,284.92 138.45,284.61 137.9,284.23C137.47,283.93 137.16,283.58 136.86,283.24C136.58,282.92 136.4,282.57 136.12,282.25C135.83,281.91 135.51,281.57 135.14,281.26C134.73,280.91 134.24,280.59 133.74,280.27C133.2,279.93 132.6,279.61 132.02,279.28C131.44,278.95 130.82,278.64 130.26,278.3C129.72,277.98 129.18,277.65 128.7,277.31C128.26,276.99 127.84,276.67 127.48,276.32C127.15,276 126.86,275.67 126.62,275.33C126.39,275.01 126.21,274.68 126.06,274.34C125.92,274.02 125.82,273.68 125.74,273.35C125.67,273.02 125.63,272.69 125.61,272.36C125.59,272.03 125.6,271.7 125.61,271.37C125.62,271.04 125.66,270.72 125.67,270.39C125.68,270.06 125.71,269.73 125.69,269.4C125.67,269.07 125.63,268.74 125.54,268.41C125.45,268.07 125.32,267.74 125.15,267.42C124.98,267.08 124.74,266.75 124.51,266.43C124.27,266.09 123.99,265.77 123.72,265.44C123.45,265.11 123.17,264.78 122.91,264.45C122.66,264.13 122.41,263.81 122.21,263.47C122.02,263.15 121.85,262.82 121.73,262.48C121.62,262.16 121.54,261.82 121.51,261.49C121.48,261.16 121.49,260.83 121.53,260.5C121.57,260.17 121.65,259.84 121.74,259.51C121.83,259.18 121.96,258.85 122.08,258.52C122.2,258.19 122.33,257.86 122.44,257.53C122.54,257.2 122.65,256.87 122.71,256.54C122.77,256.22 122.8,255.89 122.79,255.56C122.78,255.23 122.73,254.9 122.66,254.57C122.59,254.24 122.47,253.91 122.36,253.58C122.24,253.25 122.1,252.92 121.97,252.59C121.84,252.26 121.7,251.93 121.58,251.6C121.46,251.27 121.34,250.94 121.25,250.61Q121.16,250.28 121.03,249.62L120.47,249.62Q120.34,250.28 120.25,250.61C120.16,250.94 120.04,251.27 119.92,251.6C119.8,251.93 119.66,252.26 119.53,252.59C119.4,252.92 119.26,253.25 119.14,253.58C119.03,253.91 118.91,254.24 118.84,254.57C118.77,254.9 118.72,255.23 118.71,255.56C118.7,255.89 118.73,256.22 118.79,256.54C118.85,256.87 118.96,257.2 119.06,257.53C119.17,257.86 119.3,258.19 119.42,258.52C119.54,258.85 119.67,259.18 119.76,259.51C119.85,259.84 119.93,260.17 119.97,260.5C120.01,260.83 120.02,261.16 119.99,261.49C119.96,261.82 119.88,262.16 119.77,262.48C119.65,262.82 119.48,263.15 119.29,263.47C119.09,263.81 118.84,264.13 118.59,264.45C118.33,264.78 118.05,265.11 117.78,265.44C117.51,265.77 117.23,266.09 116.99,266.43C116.76,266.75 116.52,267.08 116.35,267.42C116.18,267.74 116.05,268.07 115.96,268.41C115.87,268.74 115.83,269.07 115.81,269.4C115.79,269.73 115.82,270.06 115.83,270.39C115.84,270.72 115.88,271.04 115.89,271.37C115.9,271.7 115.91,272.03 115.89,272.36C115.87,272.69 115.83,273.02 115.76,273.35C115.68,273.68 115.58,274.02 115.44,274.34C115.29,274.68 115.11,275.01 114.88,275.33C114.64,275.67 114.35,276 114.02,276.32C113.66,276.67 113.24,276.99 112.8,277.31C112.32,277.65 111.78,277.98 111.24,278.3C110.68,278.64 110.06,278.95 109.48,279.28C108.9,279.61 108.3,279.93 107.76,280.27C107.26,280.59 106.77,280.91 106.36,281.26C105.99,281.57 105.67,281.91 105.38,282.25C105.1,282.57 104.92,282.92 104.64,283.24C104.34,283.58 104.03,283.93 103.6,284.23C103.05,284.61 102.35,284.92 101.55,285.22C100.52,285.6 99.25,285.9 97.9,286.2C96.26,286.57 94.35,286.88 92.4,287.19C90.21,287.54 87.77,287.86 85.38,288.18C82.88,288.52 80.22,288.83 77.71,289.17C75.3,289.49 72.8,289.8 70.62,290.16C68.74,290.47 66.77,290.73 65.39,291.15C64.44,291.44 63.11,291.75 63.05,292.14C63,292.43 63.62,292.84 64.16,293.12C65.11,293.6 66.95,293.81 68.61,294.11C70.69,294.49 73.22,294.78 75.7,295.1C78.43,295.45 81.41,295.76 84.3,296.09C87.23,296.42 90.27,296.74 93.14,297.08C95.88,297.4 98.63,297.72 101.17,298.07C103.47,298.39 105.71,298.7 107.73,299.06C109.49,299.37 111.16,299.69 112.63,300.05C113.87,300.35 115.01,300.66 116,301.03C116.81,301.33 117.54,301.65 118.15,302.02C118.65,302.32 119.08,302.65 119.42,303.01Q119.72,303.32 120.12,304Z" style="vector-effect: non-scaling-stroke; stroke-width: 2px; stroke: rgb(99, 110, 250); stroke-opacity: 1; fill: rgb(99, 110, 250); fill-opacity: 0.5;"/><g class="points"><path class="point" transform="translate(37.93,297.97)" d="M3,0A3,3 0 1,1 0,-3A3,3 0 0,1 3,0Z" style="opacity: 1; stroke-width: 0px; fill: rgb(99, 110, 250); fill-opacity: 1;"/><path class="point" transform="translate(29.35,297.37)" d="M3,0A3,3 0 1,1 0,-3A3,3 0 0,1 3,0Z" style="opacity: 1; stroke-width: 0px; fill: rgb(99, 110, 250); fill-opacity: 1;"/><path class="point" transform="translate(40.56,295.09)" d="M3,0A3,3 0 1,1 0,-3A3,3 0 0,1 3,0Z" style="opacity: 1; stroke-width: 0px; fill: rgb(99, 110, 250); fill-opacity: 1;"/><path class="point" transform="translate(26.85,294.93)" d="M3,0A3,3 0 1,1 0,-3A3,3 0 0,1 3,0Z" style="opacity: 1; stroke-width: 0px; fill: rgb(99, 110, 250); fill-opacity: 1;"/><path class="point" transform="translate(31.94,294.79)" d="M3,0A3,3 0 1,1 0,-3A3,3 0 0,1 3,0Z" style="opacity: 1; stroke-width: 0px; fill: rgb(99, 110, 250); fill-opacity: 1;"/><path class="point" transform="translate(39.16,294.6)" d="M3,0A3,3 0 1,1 0,-3A3,3 0 0,1 3,0Z" style="opacity: 1; stroke-width: 0px; fill: rgb(99, 110, 250); fill-opacity: 1;"/><path class="point" transform="translate(33.82,294.37)" d="M3,0A3,3 0 1,1 0,-3A3,3 0 0,1 3,0Z" style="opacity: 1; stroke-width: 0px; fill: rgb(99, 110, 250); fill-opacity: 1;"/><path class="point" transform="translate(39.22,294.34)" d="M3,0A3,3 0 1,1 0,-3A3,3 0 0,1 3,0Z" style="opacity: 1; stroke-width: 0px; fill: rgb(99, 110, 250); fill-opacity: 1;"/><path class="point" transform="translate(29.25,294.28)" d="M3,0A3,3 0 1,1 0,-3A3,3 0 0,1 3,0Z" style="opacity: 1; stroke-width: 0px; fill: rgb(99, 110, 250); fill-opacity: 1;"/><path class="point" transform="translate(22.86,294.25)" d="M3,0A3,3 0 1,1 0,-3A3,3 0 0,1 3,0Z" style="opacity: 1; stroke-width: 0px; fill: rgb(99, 110, 250); fill-opacity: 1;"/><path class="point" transform="translate(38.43,294.06)" d="M3,0A3,3 0 1,1 0,-3A3,3 0 0,1 3,0Z" style="opacity: 1; stroke-width: 0px; fill: rgb(99, 110, 250); fill-opacity: 1;"/><path class="point" transform="translate(29.21,294.01)" d="M3,0A3,3 0 1,1 0,-3A3,3 0 0,1 3,0Z" style="opacity: 1; stroke-width: 0px; fill: rgb(99, 110, 250); fill-opacity: 1;"/><path class="point" transform="translate(42.79,293.92)" d="M3,0A3,3 0 1,1 0,-3A3,3 0 0,1 3,0Z" style="opacity: 1; stroke-width: 0px; fill: rgb(99, 110, 250); fill-opacity: 1;"/><path class="point" transform="translate(21.23,293.49)" d="M3,0A3,3 0 1,1 0,-3A3,3 0 0,1 3,0Z" style="opacity: 1; stroke-width: 0px; fill: rgb(99, 110, 250); fill-opacity: 1;"/><path class="point" transform="translate(27.12,293.34)" d="M3,0A3,3 0 1,1 0,-3A3,3 0 0,1 3,0Z" style="opacity: 1; stroke-width: 0px; fill: rgb(99, 110, 250); fill-opacity: 1;"/><path class="point" transform="translate(45.05,293.21)" d="M3,0A3,3 0 1,1 0,-3A3,3 0 0,1 3,0Z" style="opacity: 1; stroke-width: 0px; fill: rgb(99, 110, 250); fill-opacity: 1;"/><path class="point" transform="translate(31.2,292.85)" d="M3,0A3,3 0 1,1 0,-3A3,3 0 0,1 3,0Z" style="opacity: 1; stroke-width: 0px; fill: rgb(99, 110, 250); fill-opacity: 1;"/><path class="point" transform="translate(24.2,292.45)" d="M3,0A3,3 0 1,1 0,-3A3,3 0 0,1 3,0Z" style="opacity: 1; stroke-width: 0px; fill: rgb(99, 110, 250); fill-opacity: 1;"/><path class="point" transform="translate(30.14,292.32)" d="M3,0A3,3 0 1,1 0,-3A3,3 0 0,1 3,0Z" style="opacity: 1; stroke-width: 0px; fill: rgb(99, 110, 250); fill-opacity: 1;"/><path class="point" transform="translate(33.95,291.92)" d="M3,0A3,3 0 1,1 0,-3A3,3 0 0,1 3,0Z" style="opacity: 1; stroke-width: 0px; fill: rgb(99, 110, 250); fill-opacity: 1;"/><path class="point" transform="translate(39.67,291.74)" d="M3,0A3,3 0 1,1 0,-3A3,3 0 0,1 3,0Z" style="opacity: 1; stroke-width: 0px; fill: rgb(99, 110, 250); fill-opacity: 1;"/><path class="point" transform="translate(35.67,291.58)" d="M3,0A3,3 0 1,1 0,-3A3,3 0 0,1 3,0Z" style="opacity: 1; stroke-width: 0px; fill: rgb(99, 110, 250); fill-opacity: 1;"/><path class="point" transform="translate(30.19,291.36)" d="M3,0A3,3 0 1,1 0,-3A3,3 0 0,1 3,0Z" style="opacity: 1; stroke-width: 0px; fill: rgb(99, 110, 250); fill-opacity: 1;"/><path class="point" transform="translate(22.97,291.19)" d="M3,0A3,3 0 1,1 0,-3A3,3 0 0,1 3,0Z" style="opacity: 1; stroke-width: 0px; fill: rgb(99, 110, 250); fill-opacity: 1;"/><path class="point" transform="translate(34.16,290.89)" d="M3,0A3,3 0 1,1 0,-3A3,3 0 0,1 3,0Z" style="opacity: 1; stroke-width: 0px; fill: rgb(99, 110, 250); fill-opacity: 1;"/><path class="point" transform="translate(30.23,290.84)" d="M3,0A3,3 0 1,1 0,-3A3,3 0 0,1 3,0Z" style="opacity: 1; stroke-width: 0px; fill: rgb(99, 110, 250); fill-opacity: 1;"/><path class="point" transform="translate(40.5,290.84)" d="M3,0A3,3 0 1,1 0,-3A3,3 0 0,1 3,0Z" style="opacity: 1; stroke-width: 0px; fill: rgb(99, 110, 250); fill-opacity: 1;"/><path class="point" transform="translate(33.05,290.73)" d="M3,0A3,3 0 1,1 0,-3A3,3 0 0,1 3,0Z" style="opacity: 1; stroke-width: 0px; fill: rgb(99, 110, 250); fill-opacity: 1;"/><path class="point" transform="translate(25.61,290.39)" d="M3,0A3,3 0 1,1 0,-3A3,3 0 0,1 3,0Z" style="opacity: 1; stroke-width: 0px; fill: rgb(99, 110, 250); fill-opacity: 1;"/><path class="point" transform="translate(22.39,290.23)" d="M3,0A3,3 0 1,1 0,-3A3,3 0 0,1 3,0Z" style="opacity: 1; stroke-width: 0px; fill: rgb(99, 110, 250); fill-opacity: 1;"/><path class="point" transform="translate(39.92,289.86)" d="M3,0A3,3 0 1,1 0,-3A3,3 0 0,1 3,0Z" style="opacity: 1; stroke-width: 0px; fill: rgb(99, 110, 250); fill-opacity: 1;"/><path class="point" transform="translate(26.66,289.68)" d="M3,0A3,3 0 1,1 0,-3A3,3 0 0,1 3,0Z" style="opacity: 1; stroke-width: 0px; fill: rgb(99, 110, 250); fill-opacity: 1;"/><path class="point" transform="translate(38.24,289.3)" d="M3,0A3,3 0 1,1 0,-3A3,3 0 0,1 3,0Z" style="opacity: 1; stroke-width: 0px; fill: rgb(99, 110, 250); fill-opacity: 1;"/><path class="point" transform="translate(35.69,289.17)" d="M3,0A3,3 0 1,1 0,-3A3,3 0 0,1 3,0Z" style="opacity: 1; stroke-width: 0px; fill: rgb(99, 110, 250); fill-opacity: 1;"/><path class="point" transform="translate(32.24,288.72)" d="M3,0A3,3 0 1,1 0,-3A3,3 0 0,1 3,0Z" style="opacity: 1; stroke-width: 0px; fill: rgb(99, 110, 250); fill-opacity: 1;"/><path class="point" transform="translate(30.24,287.46)" d="M3,0A3,3 0 1,1 0,-3A3,3 0 0,1 3,0Z" style="opacity: 1; stroke-width: 0px; fill: rgb(99, 110, 250); fill-opacity: 1;"/><path class="point" transform="translate(37.16,286.38)" d="M3,0A3,3 0 1,1 0,-3A3,3 0 0,1 3,0Z" style="opacity: 1; stroke-width: 0px; fill: rgb(99, 110, 250); fill-opacity: 1;"/><path class="point" transform="translate(33.51,283.18)" d="M3,0A3,3 0 1,1 0,-3A3,3 0 0,1 3,0Z" style="opacity: 1; stroke-width: 0px; fill: rgb(99, 110, 250); fill-opacity: 1;"/><path class="point" transform="translate(38.13,282.83)" d="M3,0A3,3 0 1,1 0,-3A3,3 0 0,1 3,0Z" style="opacity: 1; stroke-width: 0px; fill: rgb(99, 110, 250); fill-opacity: 1;"/><path class="point" transform="translate(29.82,282.18)" d="M3,0A3,3 0 1,1 0,-3A3,3 0 0,1 3,0Z" style="opacity: 1; stroke-width: 0px; fill: rgb(99, 110, 250); fill-opacity: 1;"/><path class="point" transform="translate(37.3,282.09)" d="M3,0A3,3 0 1,1 0,-3A3,3 0 0,1 3,0Z" style="opacity: 1; stroke-width: 0px; fill: rgb(99, 110, 250); fill-opacity: 1;"/><path class="point" transform="translate(33.84,281.55)" d="M3,0A3,3 0 1,1 0,-3A3,3 0 0,1 3,0Z" style="opacity: 1; stroke-width: 0px; fill: rgb(99, 110, 250); fill-opacity: 1;"/><path class="point" transform="translate(32.37,280.99)" d="M3,0A3,3 0 1,1 0,-3A3,3 0 0,1 3,0Z" style="opacity: 1; stroke-width: 0px; fill: rgb(99, 110, 250); fill-opacity: 1;"/><path class="point" transform="translate(30.68,278.52)" d="M3,0A3,3 0 1,1 0,-3A3,3 0 0,1 3,0Z" style="opacity: 1; stroke-width: 0px; fill: rgb(99, 110, 250); fill-opacity: 1;"/><path class="point" transform="translate(32.86,275.88)" d="M3,0A3,3 0 1,1 0,-3A3,3 0 0,1 3,0Z" style="opacity: 1; stroke-width: 0px; fill: rgb(99, 110, 250); fill-opacity: 1;"/><path class="point" transform="translate(36.37,272.66)" d="M3,0A3,3 0 1,1 0,-3A3,3 0 0,1 3,0Z" style="opacity: 1; stroke-width: 0px; fill: rgb(99, 110, 250); fill-opacity: 1;"/><path class="point" transform="translate(33.47,268.69)" d="M3,0A3,3 0 1,1 0,-3A3,3 0 0,1 3,0Z" style="opacity: 1; stroke-width: 0px; fill: rgb(99, 110, 250); fill-opacity: 1;"/><path class="point" transform="translate(31.97,267.27)" d="M3,0A3,3 0 1,1 0,-3A3,3 0 0,1 3,0Z" style="opacity: 1; stroke-width: 0px; fill: rgb(99, 110, 250); fill-opacity: 1;"/><path class="point" transform="translate(35.54,255.65)" d="M3,0A3,3 0 1,1 0,-3A3,3 0 0,1 3,0Z" style="opacity: 1; stroke-width: 0px; fill: rgb(99, 110, 250); fill-opacity: 1;"/></g></g><g class="trace violins" style="opacity: 1;"><path class="violin" d="M356.97,303.36Q357.39,301.67 357.71,300.85C358.04,300 358.46,299.15 358.96,298.34C359.49,297.48 360.13,296.64 360.83,295.83C361.57,294.97 362.44,294.14 363.32,293.32C364.24,292.46 365.27,291.64 366.26,290.81C367.26,289.97 368.33,289.14 369.31,288.29C370.26,287.46 371.23,286.65 372.04,285.78C372.79,284.97 373.52,284.14 374.04,283.27C374.51,282.47 374.9,281.61 375.08,280.76C375.26,279.94 375.26,279.08 375.16,278.25C375.06,277.4 374.77,276.56 374.48,275.73C374.18,274.88 373.77,274.05 373.39,273.22C373.01,272.38 372.58,271.55 372.21,270.71C371.84,269.88 371.49,269.04 371.16,268.2C370.84,267.37 370.56,266.53 370.25,265.69C369.94,264.85 369.66,264.01 369.31,263.18C368.96,262.33 368.59,261.49 368.15,260.66C367.7,259.81 367.19,258.98 366.65,258.15C366.1,257.3 365.47,256.47 364.86,255.64C364.25,254.8 363.6,253.97 363,253.13C362.41,252.3 361.81,251.47 361.3,250.62C360.8,249.79 360.34,248.95 359.96,248.1C359.59,247.28 359.29,246.44 359.05,245.59C358.82,244.76 358.66,243.92 358.53,243.08C358.4,242.25 358.32,241.41 358.25,240.57C358.18,239.73 358.14,238.9 358.1,238.06C358.06,237.22 358.03,236.38 357.99,235.54C357.95,234.7 357.91,233.87 357.87,233.03C357.83,232.19 357.78,231.36 357.74,230.52C357.69,229.68 357.65,228.85 357.6,228.01C357.55,227.17 357.5,226.34 357.45,225.5C357.4,224.66 357.35,223.83 357.3,222.99C357.25,222.15 357.2,221.31 357.15,220.47C357.11,219.63 357.06,218.8 357.03,217.96C357,217.12 356.98,216.29 356.97,215.45C356.96,214.61 356.97,213.78 356.98,212.94C356.99,212.1 357.01,211.27 357.02,210.43C357.04,209.59 357.06,208.75 357.07,207.91C357.08,207.07 357.09,206.24 357.08,205.4C357.07,204.56 357.05,203.73 357.02,202.89C356.99,202.05 356.95,201.22 356.9,200.38C356.85,199.54 356.79,198.71 356.74,197.87C356.69,197.03 356.63,196.2 356.58,195.36C356.53,194.52 356.49,193.68 356.46,192.84C356.43,192 356.4,191.17 356.38,190.33C356.36,189.49 356.34,188.66 356.34,187.82C356.34,186.98 356.35,186.15 356.36,185.31C356.37,184.47 356.39,183.64 356.42,182.8C356.45,181.96 356.49,181.12 356.53,180.28C356.57,179.44 356.63,178.61 356.68,177.77C356.73,176.93 356.79,176.1 356.84,175.26C356.89,174.42 356.94,173.59 356.97,172.75C357,171.91 357.03,171.08 357.04,170.24C357.05,169.4 357.05,168.57 357.03,167.73C357.01,166.89 356.98,166.05 356.94,165.21C356.9,164.37 356.84,163.54 356.79,162.7C356.74,161.86 356.68,161.03 356.63,160.19C356.58,159.35 356.53,158.52 356.49,157.68C356.45,156.84 356.42,156.01 356.39,155.17C356.36,154.33 356.35,153.49 356.33,152.65C356.32,151.81 356.3,150.98 356.3,150.14C356.3,149.3 356.3,148.47 356.31,147.63C356.32,146.79 356.34,145.96 356.37,145.12C356.4,144.28 356.43,143.45 356.48,142.61C356.53,141.77 356.59,140.93 356.66,140.09C356.73,139.25 356.83,138.42 356.92,137.58C357.02,136.74 357.13,135.91 357.23,135.07C357.33,134.23 357.44,133.4 357.53,132.56C357.62,131.72 357.7,130.89 357.75,130.05C357.8,129.21 357.83,128.38 357.83,127.54C357.83,126.7 357.8,125.86 357.75,125.02C357.7,124.18 357.6,123.35 357.52,122.51C357.43,121.67 357.33,120.84 357.24,120C357.15,119.16 357.04,118.33 356.96,117.49C356.88,116.65 356.81,115.82 356.76,114.98C356.71,114.14 356.68,113.3 356.67,112.46C356.66,111.62 356.67,110.79 356.69,109.95C356.71,109.11 356.74,108.28 356.78,107.44C356.82,106.6 356.87,105.77 356.91,104.93C356.95,104.09 356.99,103.26 357.01,102.42C357.03,101.58 357.05,100.75 357.05,99.91C357.05,99.07 357.04,98.23 357.01,97.39C356.98,96.55 356.94,95.72 356.89,94.88C356.84,94.04 356.78,93.21 356.73,92.37C356.68,91.53 356.63,90.7 356.58,89.86C356.53,89.02 356.49,88.19 356.45,87.35Q356.41,86.51 356.36,84.83L356.14,84.83Q356.09,86.51 356.05,87.35C356.01,88.19 355.97,89.02 355.92,89.86C355.87,90.7 355.82,91.53 355.77,92.37C355.72,93.21 355.66,94.04 355.61,94.88C355.56,95.72 355.52,96.55 355.49,97.39C355.46,98.23 355.45,99.07 355.45,99.91C355.45,100.75 355.47,101.58 355.49,102.42C355.51,103.26 355.55,104.09 355.59,104.93C355.63,105.77 355.68,106.6 355.72,107.44C355.76,108.28 355.79,109.11 355.81,109.95C355.83,110.79 355.84,111.62 355.83,112.46C355.82,113.3 355.79,114.14 355.74,114.98C355.69,115.82 355.62,116.65 355.54,117.49C355.46,118.33 355.35,119.16 355.26,120C355.17,120.84 355.07,121.67 354.98,122.51C354.9,123.35 354.8,124.18 354.75,125.02C354.7,125.86 354.67,126.7 354.67,127.54C354.67,128.38 354.7,129.21 354.75,130.05C354.8,130.89 354.88,131.72 354.97,132.56C355.06,133.4 355.17,134.23 355.27,135.07C355.37,135.91 355.48,136.74 355.58,137.58C355.67,138.42 355.77,139.25 355.84,140.09C355.91,140.93 355.97,141.77 356.02,142.61C356.07,143.45 356.1,144.28 356.13,145.12C356.16,145.96 356.18,146.79 356.19,147.63C356.2,148.47 356.2,149.3 356.2,150.14C356.2,150.98 356.18,151.81 356.17,152.65C356.15,153.49 356.14,154.33 356.11,155.17C356.08,156.01 356.05,156.84 356.01,157.68C355.97,158.52 355.92,159.35 355.87,160.19C355.82,161.03 355.76,161.86 355.71,162.7C355.66,163.54 355.6,164.37 355.56,165.21C355.52,166.05 355.49,166.89 355.47,167.73C355.45,168.57 355.45,169.4 355.46,170.24C355.47,171.08 355.5,171.91 355.53,172.75C355.56,173.59 355.61,174.42 355.66,175.26C355.71,176.1 355.77,176.93 355.82,177.77C355.87,178.61 355.93,179.44 355.97,180.28C356.01,181.12 356.05,181.96 356.08,182.8C356.11,183.64 356.13,184.47 356.14,185.31C356.15,186.15 356.16,186.98 356.16,187.82C356.16,188.66 356.14,189.49 356.12,190.33C356.1,191.17 356.07,192 356.04,192.84C356.01,193.68 355.97,194.52 355.92,195.36C355.87,196.2 355.81,197.03 355.76,197.87C355.71,198.71 355.65,199.54 355.6,200.38C355.55,201.22 355.51,202.05 355.48,202.89C355.45,203.73 355.43,204.56 355.42,205.4C355.41,206.24 355.42,207.07 355.43,207.91C355.44,208.75 355.46,209.59 355.48,210.43C355.49,211.27 355.51,212.1 355.52,212.94C355.53,213.78 355.54,214.61 355.53,215.45C355.52,216.29 355.5,217.12 355.47,217.96C355.44,218.8 355.39,219.63 355.35,220.47C355.3,221.31 355.25,222.15 355.2,222.99C355.15,223.83 355.1,224.66 355.05,225.5C355,226.34 354.95,227.17 354.9,228.01C354.85,228.85 354.81,229.68 354.76,230.52C354.72,231.36 354.67,232.19 354.63,233.03C354.59,233.87 354.55,234.7 354.51,235.54C354.47,236.38 354.44,237.22 354.4,238.06C354.36,238.9 354.32,239.73 354.25,240.57C354.18,241.41 354.1,242.25 353.97,243.08C353.84,243.92 353.68,244.76 353.45,245.59C353.21,246.44 352.91,247.28 352.54,248.1C352.16,248.95 351.7,249.79 351.2,250.62C350.69,251.47 350.09,252.3 349.5,253.13C348.9,253.97 348.25,254.8 347.64,255.64C347.03,256.47 346.4,257.3 345.85,258.15C345.31,258.98 344.8,259.81 344.35,260.66C343.91,261.49 343.54,262.33 343.19,263.18C342.84,264.01 342.56,264.85 342.25,265.69C341.94,266.53 341.66,267.37 341.34,268.2C341.01,269.04 340.66,269.88 340.29,270.71C339.92,271.55 339.49,272.38 339.11,273.22C338.73,274.05 338.32,274.88 338.02,275.73C337.73,276.56 337.44,277.4 337.34,278.25C337.24,279.08 337.24,279.94 337.42,280.76C337.6,281.61 337.99,282.47 338.46,283.27C338.98,284.14 339.71,284.97 340.46,285.78C341.27,286.65 342.24,287.46 343.19,288.29C344.17,289.14 345.24,289.97 346.24,290.81C347.23,291.64 348.26,292.46 349.18,293.32C350.06,294.14 350.93,294.97 351.67,295.83C352.37,296.64 353.01,297.48 353.54,298.34C354.04,299.15 354.46,300 354.79,300.85Q355.11,301.67 355.53,303.36Z" style="vector-effect: non-scaling-stroke; stroke-width: 2px; stroke: rgb(239, 85, 59); stroke-opacity: 1; fill: rgb(239, 85, 59); fill-opacity: 0.5;"/><g class="points"><path class="point" transform="translate(276.73,288.28)" d="M3,0A3,3 0 1,1 0,-3A3,3 0 0,1 3,0Z" style="opacity: 1; stroke-width: 0px; fill: rgb(239, 85, 59); fill-opacity: 1;"/><path class="point" transform="translate(260.36,288.13)" d="M3,0A3,3 0 1,1 0,-3A3,3 0 0,1 3,0Z" style="opacity: 1; stroke-width: 0px; fill: rgb(239, 85, 59); fill-opacity: 1;"/><path class="point" transform="translate(281.22,288.06)" d="M3,0A3,3 0 1,1 0,-3A3,3 0 0,1 3,0Z" style="opacity: 1; stroke-width: 0px; fill: rgb(239, 85, 59); fill-opacity: 1;"/><path class="point" transform="translate(256.45,287.8)" d="M3,0A3,3 0 1,1 0,-3A3,3 0 0,1 3,0Z" style="opacity: 1; stroke-width: 0px; fill: rgb(239, 85, 59); fill-opacity: 1;"/><path class="point" transform="translate(265.62,284.89)" d="M3,0A3,3 0 1,1 0,-3A3,3 0 0,1 3,0Z" style="opacity: 1; stroke-width: 0px; fill: rgb(239, 85, 59); fill-opacity: 1;"/><path class="point" transform="translate(278.54,284.8)" d="M3,0A3,3 0 1,1 0,-3A3,3 0 0,1 3,0Z" style="opacity: 1; stroke-width: 0px; fill: rgb(239, 85, 59); fill-opacity: 1;"/><path class="point" transform="translate(269.16,284.72)" d="M3,0A3,3 0 1,1 0,-3A3,3 0 0,1 3,0Z" style="opacity: 1; stroke-width: 0px; fill: rgb(239, 85, 59); fill-opacity: 1;"/><path class="point" transform="translate(274,284.23)" d="M3,0A3,3 0 1,1 0,-3A3,3 0 0,1 3,0Z" style="opacity: 1; stroke-width: 0px; fill: rgb(239, 85, 59); fill-opacity: 1;"/><path class="point" transform="translate(265.3,284.13)" d="M3,0A3,3 0 1,1 0,-3A3,3 0 0,1 3,0Z" style="opacity: 1; stroke-width: 0px; fill: rgb(239, 85, 59); fill-opacity: 1;"/><path class="point" transform="translate(257.02,284.1)" d="M3,0A3,3 0 1,1 0,-3A3,3 0 0,1 3,0Z" style="opacity: 1; stroke-width: 0px; fill: rgb(239, 85, 59); fill-opacity: 1;"/><path class="point" transform="translate(274.21,283.77)" d="M3,0A3,3 0 1,1 0,-3A3,3 0 0,1 3,0Z" style="opacity: 1; stroke-width: 0px; fill: rgb(239, 85, 59); fill-opacity: 1;"/><path class="point" transform="translate(265.22,282.25)" d="M3,0A3,3 0 1,1 0,-3A3,3 0 0,1 3,0Z" style="opacity: 1; stroke-width: 0px; fill: rgb(239, 85, 59); fill-opacity: 1;"/><path class="point" transform="translate(278.41,282.25)" d="M3,0A3,3 0 1,1 0,-3A3,3 0 0,1 3,0Z" style="opacity: 1; stroke-width: 0px; fill: rgb(239, 85, 59); fill-opacity: 1;"/><path class="point" transform="translate(256.62,281.08)" d="M3,0A3,3 0 1,1 0,-3A3,3 0 0,1 3,0Z" style="opacity: 1; stroke-width: 0px; fill: rgb(239, 85, 59); fill-opacity: 1;"/><path class="point" transform="translate(262.01,280.63)" d="M3,0A3,3 0 1,1 0,-3A3,3 0 0,1 3,0Z" style="opacity: 1; stroke-width: 0px; fill: rgb(239, 85, 59); fill-opacity: 1;"/><path class="point" transform="translate(281.74,280.32)" d="M3,0A3,3 0 1,1 0,-3A3,3 0 0,1 3,0Z" style="opacity: 1; stroke-width: 0px; fill: rgb(239, 85, 59); fill-opacity: 1;"/><path class="point" transform="translate(265.94,277.85)" d="M3,0A3,3 0 1,1 0,-3A3,3 0 0,1 3,0Z" style="opacity: 1; stroke-width: 0px; fill: rgb(239, 85, 59); fill-opacity: 1;"/><path class="point" transform="translate(257.08,277.46)" d="M3,0A3,3 0 1,1 0,-3A3,3 0 0,1 3,0Z" style="opacity: 1; stroke-width: 0px; fill: rgb(239, 85, 59); fill-opacity: 1;"/><path class="point" transform="translate(265.14,277.06)" d="M3,0A3,3 0 1,1 0,-3A3,3 0 0,1 3,0Z" style="opacity: 1; stroke-width: 0px; fill: rgb(239, 85, 59); fill-opacity: 1;"/><path class="point" transform="translate(269.41,276.89)" d="M3,0A3,3 0 1,1 0,-3A3,3 0 0,1 3,0Z" style="opacity: 1; stroke-width: 0px; fill: rgb(239, 85, 59); fill-opacity: 1;"/><path class="point" transform="translate(275.45,276.88)" d="M3,0A3,3 0 1,1 0,-3A3,3 0 0,1 3,0Z" style="opacity: 1; stroke-width: 0px; fill: rgb(239, 85, 59); fill-opacity: 1;"/><path class="point" transform="translate(271.39,276.6)" d="M3,0A3,3 0 1,1 0,-3A3,3 0 0,1 3,0Z" style="opacity: 1; stroke-width: 0px; fill: rgb(239, 85, 59); fill-opacity: 1;"/><path class="point" transform="translate(265.89,276.36)" d="M3,0A3,3 0 1,1 0,-3A3,3 0 0,1 3,0Z" style="opacity: 1; stroke-width: 0px; fill: rgb(239, 85, 59); fill-opacity: 1;"/><path class="point" transform="translate(259.16,274.39)" d="M3,0A3,3 0 1,1 0,-3A3,3 0 0,1 3,0Z" style="opacity: 1; stroke-width: 0px; fill: rgb(239, 85, 59); fill-opacity: 1;"/><path class="point" transform="translate(269.67,273.7)" d="M3,0A3,3 0 1,1 0,-3A3,3 0 0,1 3,0Z" style="opacity: 1; stroke-width: 0px; fill: rgb(239, 85, 59); fill-opacity: 1;"/><path class="point" transform="translate(266.78,272.5)" d="M3,0A3,3 0 1,1 0,-3A3,3 0 0,1 3,0Z" style="opacity: 1; stroke-width: 0px; fill: rgb(239, 85, 59); fill-opacity: 1;"/><path class="point" transform="translate(274.13,272.31)" d="M3,0A3,3 0 1,1 0,-3A3,3 0 0,1 3,0Z" style="opacity: 1; stroke-width: 0px; fill: rgb(239, 85, 59); fill-opacity: 1;"/><path class="point" transform="translate(268.85,270.48)" d="M3,0A3,3 0 1,1 0,-3A3,3 0 0,1 3,0Z" style="opacity: 1; stroke-width: 0px; fill: rgb(239, 85, 59); fill-opacity: 1;"/><path class="point" transform="translate(262.95,269.04)" d="M3,0A3,3 0 1,1 0,-3A3,3 0 0,1 3,0Z" style="opacity: 1; stroke-width: 0px; fill: rgb(239, 85, 59); fill-opacity: 1;"/><path class="point" transform="translate(259.79,265.56)" d="M3,0A3,3 0 1,1 0,-3A3,3 0 0,1 3,0Z" style="opacity: 1; stroke-width: 0px; fill: rgb(239, 85, 59); fill-opacity: 1;"/><path class="point" transform="translate(275.91,264.13)" d="M3,0A3,3 0 1,1 0,-3A3,3 0 0,1 3,0Z" style="opacity: 1; stroke-width: 0px; fill: rgb(239, 85, 59); fill-opacity: 1;"/><path class="point" transform="translate(260.45,262.47)" d="M3,0A3,3 0 1,1 0,-3A3,3 0 0,1 3,0Z" style="opacity: 1; stroke-width: 0px; fill: rgb(239, 85, 59); fill-opacity: 1;"/><path class="point" transform="translate(276.69,262.43)" d="M3,0A3,3 0 1,1 0,-3A3,3 0 0,1 3,0Z" style="opacity: 1; stroke-width: 0px; fill: rgb(239, 85, 59); fill-opacity: 1;"/><path class="point" transform="translate(271.96,262.41)" d="M3,0A3,3 0 1,1 0,-3A3,3 0 0,1 3,0Z" style="opacity: 1; stroke-width: 0px; fill: rgb(239, 85, 59); fill-opacity: 1;"/><path class="point" transform="translate(266.07,262.4)" d="M3,0A3,3 0 1,1 0,-3A3,3 0 0,1 3,0Z" style="opacity: 1; stroke-width: 0px; fill: rgb(239, 85, 59); fill-opacity: 1;"/><path class="point" transform="translate(262.03,261.95)" d="M3,0A3,3 0 1,1 0,-3A3,3 0 0,1 3,0Z" style="opacity: 1; stroke-width: 0px; fill: rgb(239, 85, 59); fill-opacity: 1;"/><path class="point" transform="translate(275.78,261.42)" d="M3,0A3,3 0 1,1 0,-3A3,3 0 0,1 3,0Z" style="opacity: 1; stroke-width: 0px; fill: rgb(239, 85, 59); fill-opacity: 1;"/><path class="point" transform="translate(268.86,261.25)" d="M3,0A3,3 0 1,1 0,-3A3,3 0 0,1 3,0Z" style="opacity: 1; stroke-width: 0px; fill: rgb(239, 85, 59); fill-opacity: 1;"/><path class="point" transform="translate(274.48,257.05)" d="M3,0A3,3 0 1,1 0,-3A3,3 0 0,1 3,0Z" style="opacity: 1; stroke-width: 0px; fill: rgb(239, 85, 59); fill-opacity: 1;"/><path class="point" transform="translate(264.81,256.97)" d="M3,0A3,3 0 1,1 0,-3A3,3 0 0,1 3,0Z" style="opacity: 1; stroke-width: 0px; fill: rgb(239, 85, 59); fill-opacity: 1;"/><path class="point" transform="translate(272.74,256.54)" d="M3,0A3,3 0 1,1 0,-3A3,3 0 0,1 3,0Z" style="opacity: 1; stroke-width: 0px; fill: rgb(239, 85, 59); fill-opacity: 1;"/><path class="point" transform="translate(269.4,255.44)" d="M3,0A3,3 0 1,1 0,-3A3,3 0 0,1 3,0Z" style="opacity: 1; stroke-width: 0px; fill: rgb(239, 85, 59); fill-opacity: 1;"/><path class="point" transform="translate(268.48,241.72)" d="M3,0A3,3 0 1,1 0,-3A3,3 0 0,1 3,0Z" style="opacity: 1; stroke-width: 0px; fill: rgb(239, 85, 59); fill-opacity: 1;"/><path class="point" transform="translate(266.63,236.04)" d="M3,0A3,3 0 1,1 0,-3A3,3 0 0,1 3,0Z" style="opacity: 1; stroke-width: 0px; fill: rgb(239, 85, 59); fill-opacity: 1;"/><path class="point" transform="translate(268.59,224.74)" d="M3,0A3,3 0 1,1 0,-3A3,3 0 0,1 3,0Z" style="opacity: 1; stroke-width: 0px; fill: rgb(239, 85, 59); fill-opacity: 1;"/><path class="point" transform="translate(271.51,205.38)" d="M3,0A3,3 0 1,1 0,-3A3,3 0 0,1 3,0Z" style="opacity: 1; stroke-width: 0px; fill: rgb(239, 85, 59); fill-opacity: 1;"/><path class="point" transform="translate(269.09,169.39)" d="M3,0A3,3 0 1,1 0,-3A3,3 0 0,1 3,0Z" style="opacity: 1; stroke-width: 0px; fill: rgb(239, 85, 59); fill-opacity: 1;"/><path class="point" transform="translate(267.75,128.75)" d="M3,0A3,3 0 1,1 0,-3A3,3 0 0,1 3,0Z" style="opacity: 1; stroke-width: 0px; fill: rgb(239, 85, 59); fill-opacity: 1;"/><path class="point" transform="translate(270.85,126.45)" d="M3,0A3,3 0 1,1 0,-3A3,3 0 0,1 3,0Z" style="opacity: 1; stroke-width: 0px; fill: rgb(239, 85, 59); fill-opacity: 1;"/><path class="point" transform="translate(268.49,99.92)" d="M3,0A3,3 0 1,1 0,-3A3,3 0 0,1 3,0Z" style="opacity: 1; stroke-width: 0px; fill: rgb(239, 85, 59); fill-opacity: 1;"/></g></g></g></g><g class="overplot"/><path class="xlines-above crisp" d="" style="fill: none; stroke-width: 1px; stroke: rgb(0, 0, 0); stroke-opacity: 0;"/><path class="ylines-above crisp" d="" style="fill: none; stroke-width: 1px; stroke: rgb(0, 0, 0); stroke-opacity: 0;"/><g class="overlines-above"/><g class="xaxislayer-above"><path class="xtick ticks crisp" d="M0,421v5" transform="translate(200.75,0)" style="stroke: rgb(51, 51, 51); stroke-opacity: 1; stroke-width: 1px;"/><path class="xtick ticks crisp" d="M0,421v5" transform="translate(436.25,0)" style="stroke: rgb(51, 51, 51); stroke-opacity: 1; stroke-width: 1px;"/><g class="xtick"><text text-anchor="middle" x="0" y="440.4" transform="translate(200.75,0)" style="font-family: 'Open Sans', verdana, arial, sans-serif; font-size: 12px; fill: rgb(51, 51, 51); fill-opacity: 1; white-space: pre; opacity: 1;">aisy_mlp_id</text></g><g class="xtick"><text text-anchor="middle" x="0" y="440.4" transform="translate(436.25,0)" style="font-family: 'Open Sans', verdana, arial, sans-serif; font-size: 12px; fill: rgb(51, 51, 51); fill-opacity: 1; white-space: pre; opacity: 1;">aisy_mlp_hw</text></g></g><g class="yaxislayer-above"><path class="ytick ticks crisp" d="M79,0h-5" transform="translate(0,404.11)" style="stroke: rgb(51, 51, 51); stroke-opacity: 1; stroke-width: 1px;"/><path class="ytick ticks crisp" d="M79,0h-5" transform="translate(0,343.26)" style="stroke: rgb(51, 51, 51); stroke-opacity: 1; stroke-width: 1px;"/><path class="ytick ticks crisp" d="M79,0h-5" transform="translate(0,282.40999999999997)" style="stroke: rgb(51, 51, 51); stroke-opacity: 1; stroke-width: 1px;"/><path class="ytick ticks crisp" d="M79,0h-5" transform="translate(0,221.56)" style="stroke: rgb(51, 51, 51); stroke-opacity: 1; stroke-width: 1px;"/><path class="ytick ticks crisp" d="M79,0h-5" transform="translate(0,160.7)" style="stroke: rgb(51, 51, 51); stroke-opacity: 1; stroke-width: 1px;"/><g class="ytick"><text text-anchor="end" x="71.6" y="4.199999999999999" transform="translate(0,404.11)" style="font-family: 'Open Sans', verdana, arial, sans-serif; font-size: 12px; fill: rgb(51, 51, 51); fill-opacity: 1; white-space: pre; opacity: 1;">0</text></g><g class="ytick"><text text-anchor="end" x="71.6" y="4.199999999999999" style="font-family: 'Open Sans', verdana, arial, sans-serif; font-size: 12px; fill: rgb(51, 51, 51); fill-opacity: 1; white-space: pre; opacity: 1;" transform="translate(0,343.26)">10k</text></g><g class="ytick"><text text-anchor="end" x="71.6" y="4.199999999999999" style="font-family: 'Open Sans', verdana, arial, sans-serif; font-size: 12px; fill: rgb(51, 51, 51); fill-opacity: 1; white-space: pre; opacity: 1;" transform="translate(0,282.40999999999997)">20k</text></g><g class="ytick"><text text-anchor="end" x="71.6" y="4.199999999999999" style="font-family: 'Open Sans', verdana, arial, sans-serif; font-size: 12px; fill: rgb(51, 51, 51); fill-opacity: 1; white-space: pre; opacity: 1;" transform="translate(0,221.56)">30k</text></g><g class="ytick"><text text-anchor="end" x="71.6" y="4.199999999999999" style="font-family: 'Open Sans', verdana, arial, sans-serif; font-size: 12px; fill: rgb(51, 51, 51); fill-opacity: 1; white-space: pre; opacity: 1;" transform="translate(0,160.7)">40k</text></g></g><g class="overaxes-above"/></g></g><g class="polarlayer"/><g class="ternarylayer"/><g class="geolayer"/><g class="funnelarealayer"/><g class="pielayer"/><g class="iciclelayer"/><g class="treemaplayer"/><g class="sunburstlayer"/><g class="glimages"/><defs id="topdefs-eb3e19"><g class="clips"/><clipPath id="legendeb3e19"><rect width="125" height="67" x="0" y="0"/></clipPath></defs><g class="layer-above"><g class="imagelayer"/><g class="shapelayer"/></g><g class="infolayer"><g class="legend" pointer-events="all" transform="translate(563.48,100)"><rect class="bg" shape-rendering="crispEdges" width="125" height="67" x="0" y="0" style="stroke: rgb(68, 68, 68); stroke-opacity: 1; fill: rgb(255, 255, 255); fill-opacity: 1; stroke-width: 0px;"/><g class="scrollbox" transform="" clip-path="url(#legendeb3e19)"><text class="legendtitletext" text-anchor="start" x="2" y="18.2" style="font-family: 'Open Sans', verdana, arial, sans-serif; font-size: 14px; fill: rgb(51, 51, 51); fill-opacity: 1; white-space: pre;">model</text><g class="groups" transform=""><g class="traces" transform="translate(0,32.7)" style="opacity: 1;"><text class="legendtext" text-anchor="start" x="40" y="4.680000000000001" style="font-family: 'Open Sans', verdana, arial, sans-serif; font-size: 12px; fill: rgb(51, 51, 51); fill-opacity: 1; white-space: pre;">aisy_mlp_id</text><g class="layers" style="opacity: 1;"><g class="legendfill"/><g class="legendlines"/><g class="legendsymbols"><g class="legendpoints"><path class="legendbox" d="M6,6H-6V-6H6Z" transform="translate(20,0)" style="stroke-width: 2px; fill: rgb(99, 110, 250); fill-opacity: 0.5; stroke: rgb(99, 110, 250); stroke-opacity: 1;"/></g></g></g><rect class="legendtoggle" x="0" y="-9.5" width="119.09375" height="19" style="fill: rgb(0, 0, 0); fill-opacity: 0;"/></g></g><g class="groups" transform=""><g class="traces" transform="translate(0,51.7)" style="opacity: 1;"><text class="legendtext" text-anchor="start" x="40" y="4.680000000000001" style="font-family: 'Open Sans', verdana, arial, sans-serif; font-size: 12px; fill: rgb(51, 51, 51); fill-opacity: 1; white-space: pre;">aisy_mlp_hw</text><g class="layers" style="opacity: 1;"><g class="legendfill"/><g class="legendlines"/><g class="legendsymbols"><g class="legendpoints"><path class="legendbox" d="M6,6H-6V-6H6Z" transform="translate(20,0)" style="stroke-width: 2px; fill: rgb(239, 85, 59); fill-opacity: 0.5; stroke: rgb(239, 85, 59); stroke-opacity: 1;"/></g></g></g><rect class="legendtoggle" x="0" y="-9.5" width="119.09375" height="19" style="fill: rgb(0, 0, 0); fill-opacity: 0;"/></g></g></g><rect class="scrollbar" rx="20" ry="3" width="0" height="0" x="0" y="0" style="fill: rgb(128, 139, 164); fill-opacity: 1;"/></g><g class="g-gtitle"><text class="gtitle" x="350" y="50" text-anchor="middle" dy="0em" style="font-family: 'Open Sans', verdana, arial, sans-serif; font-size: 17px; fill: rgb(51, 51, 51); opacity: 1; font-weight: normal; white-space: pre;">Distribution of min traces needed for average rank to be zero over 50 experiments</text></g><g class="g-xtitle"><text class="xtitle" x="317" y="468.20625" text-anchor="middle" style="font-family: 'Open Sans', verdana, arial, sans-serif; font-size: 14px; fill: rgb(51, 51, 51); opacity: 1; font-weight: normal; white-space: pre;">model</text></g><g class="g-ytitle"><text class="ytitle" transform="rotate(-90,24.434375000000003,260)" x="24.434375000000003" y="260" text-anchor="middle" style="font-family: 'Open Sans', verdana, arial, sans-serif; font-size: 14px; fill: rgb(51, 51, 51); opacity: 1; font-weight: normal; white-space: pre;">min traces needed for average rank to be zero</text></g><g class="annotation" data-index="0" style="opacity: 1;"><g class="annotation-text-g" transform="rotate(0,200.75,140.5)"><g class="cursor-pointer" transform="translate(150,100)"><rect class="bg" x="0.5" y="0.5" width="100" height="80" style="stroke-width: 1px; stroke: rgb(255, 0, 0); stroke-opacity: 1; fill: rgb(255, 192, 203); fill-opacity: 1;"/><text class="annotation-text" text-anchor="middle" x="50.296875" y="14" style="font-family: 'Open Sans', verdana, arial, sans-serif; font-size: 12px; fill: rgb(51, 51, 51); fill-opacity: 1; white-space: pre;"><tspan class="line" dy="0em" x="50.296875" y="14"> 2.00 % failed </tspan><tspan class="line" dy="1.3em" x="50.296875" y="14">min: 1009</tspan><tspan class="line" dy="2.6em" x="50.296875" y="14">max: inf</tspan><tspan class="line" dy="3.9000000000000004em" x="50.296875" y="14">median: 2176.0</tspan><tspan class="line" dy="5.2em" x="50.296875" y="14">mean: inf</tspan></text></g></g></g><g class="annotation" data-index="1" style="opacity: 1;"><g class="annotation-text-g" transform="rotate(0,436.25,140.5)"><g class="cursor-pointer" transform="translate(386,100)"><rect class="bg" x="0.5" y="0.5" width="100" height="80" style="stroke-width: 1px; stroke: rgb(0, 128, 0); stroke-opacity: 1; fill: rgb(144, 238, 144); fill-opacity: 1;"/><text class="annotation-text" text-anchor="middle" x="50.296875" y="14" style="font-family: 'Open Sans', verdana, arial, sans-serif; font-size: 12px; fill: rgb(51, 51, 51); fill-opacity: 1; white-space: pre;"><tspan class="line" dy="0em" x="50.296875" y="14"> All passed </tspan><tspan class="line" dy="1.3em" x="50.296875" y="14">min: 2601</tspan><tspan class="line" dy="2.6em" x="50.296875" y="14">max: 33556</tspan><tspan class="line" dy="3.9000000000000004em" x="50.296875" y="14">median: 5095.5</tspan><tspan class="line" dy="5.2em" x="50.296875" y="14">mean: 7434.88</tspan></text></g></g></g></g></svg>