<svg class="main-svg" xmlns="http://www.w3.org/2000/svg" xmlns:xlink="http://www.w3.org/1999/xlink" width="700" height="500" style="" viewBox="0 0 700 500"><rect x="0" y="0" width="700" height="500" style="fill: rgb(255, 255, 255); fill-opacity: 1;"/><defs id="defs-e13540"><g class="clips"><clipPath id="clipe13540xyplot" class="plotclip"><rect width="474" height="320"/></clipPath><clipPath class="axesclip" id="clipe13540x"><rect x="80" y="0" width="474" height="500"/></clipPath><clipPath class="axesclip" id="clipe13540y"><rect x="0" y="100" width="700" height="320"/></clipPath><clipPath class="axesclip" id="clipe13540xy"><rect x="80" y="100" width="474" height="320"/></clipPath></g><g class="gradients"/><g class="patterns"/></defs><g class="bglayer"><rect class="bg" x="80" y="100" width="474" height="320" style="fill: rgb(237, 237, 237); fill-opacity: 1; stroke-width: 0;"/></g><g class="layer-below"><g class="imagelayer"/><g class="shapelayer"/></g><g class="cartesianlayer"><g class="subplot xy"><g class="layer-subplot"><g class="shapelayer"/><g class="imagelayer"/></g><g class="gridlayer"><g class="x"><path class="xgrid crisp" transform="translate(200.75,0)" d="M0,100v320" style="stroke: rgb(255, 255, 255); stroke-opacity: 1; stroke-width: 1px;"/><path class="xgrid crisp" transform="translate(436.25,0)" d="M0,100v320" style="stroke: rgb(255, 255, 255); stroke-opacity: 1; stroke-width: 1px;"/></g><g class="y"><path class="ygrid crisp" transform="translate(0,315.53)" d="M80,0h474" style="stroke: rgb(255, 255, 255); stroke-opacity: 1; stroke-width: 1px;"/><path class="ygrid crisp" transform="translate(0,250.31)" d="M80,0h474" style="stroke: rgb(255, 255, 255); stroke-opacity: 1; stroke-width: 1px;"/><path class="ygrid crisp" transform="translate(0,185.07999999999998)" d="M80,0h474" style="stroke: rgb(255, 255, 255); stroke-opacity: 1; stroke-width: 1px;"/><path class="ygrid crisp" transform="translate(0,119.85)" d="M80,0h474" style="stroke: rgb(255, 255, 255); stroke-opacity: 1; stroke-width: 1px;"/></g></g><g class="zerolinelayer"><path class="yzl zl crisp" transform="translate(0,380.76)" d="M80,0h474" style="stroke: rgb(255, 255, 255); stroke-opacity: 1; stroke-width: 1px;"/></g><path class="xlines-below"/><path class="ylines-below"/><g class="overlines-below"/><g class="xaxislayer-below"/><g class="yaxislayer-below"/><g class="overaxes-below"/><g class="plot" transform="translate(80,100)" clip-path="url(#clipe13540xyplot)"><g class="violinlayer mlayer"><g class="trace violins" style="opacity: 1;"><path class="violin" d="M121.8,284.57Q122.57,284.12 123.06,283.93C123.7,283.68 124.5,283.48 125.37,283.29C126.48,283.04 127.79,282.85 129.19,282.65C130.9,282.41 132.86,282.21 134.91,282.01C137.28,281.78 139.9,281.57 142.57,281.37C145.49,281.15 148.65,280.94 151.75,280.73C154.93,280.51 158.27,280.31 161.4,280.09C164.36,279.88 167.42,279.69 170.05,279.45C172.26,279.25 174.59,279.1 176.13,278.81C177.1,278.63 178.44,278.4 178.45,278.17C178.46,277.97 177.42,277.71 176.65,277.53C175.36,277.23 173.27,277.09 171.36,276.89C169.12,276.66 166.49,276.46 164.02,276.25C161.49,276.03 158.8,275.83 156.34,275.61C154.06,275.4 151.77,275.2 149.74,274.97C148,274.77 146.34,274.57 144.91,274.33C143.76,274.14 142.72,273.93 141.81,273.69C141.07,273.49 140.46,273.28 139.84,273.05C139.28,272.85 138.8,272.62 138.27,272.41C137.72,272.19 137.18,271.98 136.59,271.77C135.96,271.55 135.28,271.34 134.61,271.13C133.91,270.91 133.17,270.71 132.47,270.49C131.79,270.28 131.09,270.08 130.47,269.85C129.91,269.65 129.36,269.45 128.91,269.21C128.54,269.02 128.18,268.82 127.95,268.58C127.76,268.39 127.61,268.16 127.55,267.94C127.49,267.73 127.53,267.51 127.55,267.3C127.57,267.09 127.65,266.87 127.66,266.66C127.67,266.45 127.68,266.23 127.62,266.02C127.55,265.8 127.42,265.58 127.26,265.38C127.07,265.15 126.8,264.94 126.52,264.74C126.21,264.51 125.85,264.31 125.5,264.1C125.13,263.88 124.73,263.68 124.35,263.46C123.98,263.25 123.6,263.04 123.26,262.82C122.94,262.61 122.62,262.4 122.35,262.18C122.1,261.98 121.87,261.76 121.68,261.54C121.51,261.34 121.37,261.12 121.25,260.9C121.14,260.69 121.06,260.48 120.99,260.26C120.93,260.05 120.89,259.83 120.86,259.62C120.83,259.41 120.81,259.19 120.8,258.98C120.79,258.77 120.79,258.55 120.79,258.34C120.79,258.13 120.8,257.91 120.82,257.7C120.84,257.49 120.87,257.27 120.91,257.06C120.95,256.85 120.99,256.63 121.06,256.42C121.13,256.2 121.21,255.99 121.31,255.78C121.41,255.56 121.52,255.35 121.64,255.14C121.76,254.92 121.9,254.71 122.03,254.5C122.16,254.29 122.3,254.08 122.4,253.86C122.5,253.65 122.59,253.44 122.64,253.22C122.69,253.01 122.71,252.79 122.69,252.58C122.67,252.37 122.62,252.15 122.54,251.94C122.46,251.72 122.34,251.51 122.22,251.3C122.1,251.08 121.96,250.87 121.83,250.66C121.7,250.45 121.57,250.24 121.46,250.02C121.35,249.81 121.25,249.6 121.17,249.38C121.09,249.17 121.02,248.95 120.97,248.74C120.92,248.53 120.88,248.31 120.85,248.1C120.82,247.89 120.8,247.67 120.79,247.46C120.78,247.25 120.78,247.03 120.77,246.82C120.77,246.61 120.76,246.39 120.76,246.18C120.76,245.97 120.75,245.76 120.75,245.55C120.75,245.34 120.75,245.12 120.75,244.91C120.75,244.7 120.75,244.48 120.75,244.27C120.75,244.06 120.75,243.84 120.75,243.63C120.75,243.42 120.75,243.2 120.75,242.99C120.75,242.78 120.75,242.56 120.75,242.35C120.75,242.14 120.75,241.92 120.75,241.71C120.75,241.5 120.75,241.28 120.75,241.07C120.75,240.86 120.75,240.64 120.75,240.43C120.75,240.22 120.75,240 120.75,239.79C120.75,239.58 120.75,239.36 120.75,239.15C120.75,238.94 120.75,238.72 120.75,238.51C120.75,238.3 120.75,238.08 120.75,237.87C120.75,237.66 120.75,237.44 120.75,237.23C120.75,237.02 120.75,236.8 120.75,236.59C120.75,236.38 120.75,236.16 120.75,235.95C120.75,235.74 120.75,235.52 120.75,235.31C120.75,235.1 120.75,234.88 120.75,234.67C120.75,234.46 120.75,234.24 120.75,234.03C120.75,233.82 120.75,233.6 120.75,233.39C120.75,233.18 120.75,232.96 120.75,232.75C120.75,232.54 120.75,232.32 120.75,232.11C120.75,231.9 120.75,231.68 120.75,231.47C120.75,231.26 120.75,231.04 120.75,230.83C120.75,230.62 120.75,230.4 120.75,230.19C120.75,229.98 120.75,229.76 120.75,229.55C120.75,229.34 120.75,229.12 120.75,228.91C120.75,228.7 120.75,228.48 120.75,228.27C120.75,228.06 120.75,227.84 120.75,227.63C120.75,227.42 120.75,227.2 120.75,226.99C120.75,226.78 120.75,226.56 120.75,226.35C120.75,226.14 120.75,225.92 120.75,225.71C120.75,225.5 120.75,225.28 120.75,225.07C120.75,224.86 120.75,224.64 120.75,224.43C120.75,224.22 120.75,224 120.75,223.79C120.75,223.58 120.75,223.37 120.75,223.16C120.75,222.95 120.75,222.73 120.75,222.52C120.75,222.31 120.75,222.09 120.75,221.88C120.75,221.67 120.75,221.45 120.75,221.24C120.75,221.03 120.75,220.81 120.75,220.6C120.75,220.39 120.75,220.17 120.75,219.96C120.75,219.75 120.75,219.53 120.75,219.32C120.75,219.11 120.75,218.89 120.75,218.68C120.75,218.47 120.75,218.25 120.75,218.04C120.75,217.83 120.75,217.61 120.75,217.4C120.75,217.19 120.75,216.97 120.75,216.76C120.75,216.55 120.75,216.33 120.75,216.12C120.75,215.91 120.75,215.69 120.75,215.48C120.75,215.27 120.75,215.05 120.75,214.84C120.75,214.63 120.75,214.41 120.75,214.2C120.75,213.99 120.75,213.77 120.75,213.56C120.75,213.35 120.75,213.13 120.75,212.92C120.75,212.71 120.75,212.49 120.75,212.28C120.75,212.07 120.75,211.85 120.75,211.64C120.75,211.43 120.75,211.21 120.75,211C120.75,210.79 120.75,210.57 120.75,210.36C120.75,210.15 120.75,209.93 120.75,209.72C120.75,209.51 120.75,209.29 120.75,209.08C120.75,208.87 120.75,208.65 120.75,208.44C120.75,208.23 120.75,208.01 120.75,207.8C120.75,207.59 120.75,207.37 120.75,207.16C120.75,206.95 120.75,206.73 120.75,206.52C120.75,206.31 120.75,206.09 120.75,205.88C120.75,205.67 120.75,205.45 120.75,205.24C120.75,205.03 120.75,204.81 120.75,204.6C120.75,204.39 120.75,204.17 120.75,203.96C120.75,203.75 120.75,203.53 120.75,203.32C120.75,203.11 120.75,202.89 120.75,202.68C120.75,202.47 120.75,202.25 120.75,202.04C120.75,201.83 120.75,201.61 120.75,201.4C120.75,201.19 120.75,200.98 120.75,200.77C120.75,200.56 120.75,200.34 120.75,200.13C120.75,199.92 120.75,199.7 120.75,199.49C120.75,199.28 120.75,199.06 120.75,198.85C120.75,198.64 120.75,198.42 120.75,198.21C120.75,198 120.75,197.78 120.75,197.57C120.75,197.36 120.75,197.14 120.75,196.93C120.75,196.72 120.75,196.5 120.75,196.29C120.75,196.08 120.75,195.86 120.75,195.65C120.75,195.44 120.75,195.22 120.75,195.01C120.75,194.8 120.75,194.58 120.75,194.37C120.75,194.16 120.75,193.94 120.75,193.73C120.75,193.52 120.75,193.3 120.75,193.09C120.75,192.88 120.75,192.66 120.75,192.45C120.75,192.24 120.75,192.02 120.75,191.81C120.75,191.6 120.75,191.38 120.75,191.17C120.75,190.96 120.75,190.74 120.75,190.53C120.75,190.32 120.75,190.1 120.75,189.89C120.75,189.68 120.76,189.46 120.76,189.25C120.76,189.04 120.76,188.82 120.77,188.61C120.78,188.4 120.79,188.18 120.81,187.97C120.83,187.76 120.85,187.54 120.88,187.33C120.91,187.12 120.95,186.9 121.01,186.69C121.07,186.47 121.15,186.26 121.24,186.05C121.33,185.83 121.44,185.62 121.55,185.41C121.67,185.19 121.8,184.98 121.93,184.77C122.06,184.56 122.2,184.35 122.31,184.13C122.42,183.92 122.52,183.71 122.59,183.49C122.65,183.28 122.7,183.06 122.7,182.85C122.7,182.64 122.65,182.42 122.59,182.21C122.52,181.99 122.42,181.78 122.31,181.57C122.2,181.35 122.06,181.14 121.93,180.93C121.8,180.72 121.67,180.51 121.55,180.29C121.44,180.08 121.33,179.87 121.24,179.65Q121.15,179.44 121.01,179.01L120.49,179.01Q120.35,179.44 120.26,179.65C120.17,179.87 120.06,180.08 119.95,180.29C119.83,180.51 119.7,180.72 119.57,180.93C119.44,181.14 119.3,181.35 119.19,181.57C119.08,181.78 118.98,181.99 118.91,182.21C118.85,182.42 118.8,182.64 118.8,182.85C118.8,183.06 118.85,183.28 118.91,183.49C118.98,183.71 119.08,183.92 119.19,184.13C119.3,184.35 119.44,184.56 119.57,184.77C119.7,184.98 119.83,185.19 119.95,185.41C120.06,185.62 120.17,185.83 120.26,186.05C120.35,186.26 120.43,186.47 120.49,186.69C120.55,186.9 120.59,187.12 120.62,187.33C120.65,187.54 120.67,187.76 120.69,187.97C120.71,188.18 120.72,188.4 120.73,188.61C120.74,188.82 120.74,189.04 120.74,189.25C120.74,189.46 120.75,189.68 120.75,189.89C120.75,190.1 120.75,190.32 120.75,190.53C120.75,190.74 120.75,190.96 120.75,191.17C120.75,191.38 120.75,191.6 120.75,191.81C120.75,192.02 120.75,192.24 120.75,192.45C120.75,192.66 120.75,192.88 120.75,193.09C120.75,193.3 120.75,193.52 120.75,193.73C120.75,193.94 120.75,194.16 120.75,194.37C120.75,194.58 120.75,194.8 120.75,195.01C120.75,195.22 120.75,195.44 120.75,195.65C120.75,195.86 120.75,196.08 120.75,196.29C120.75,196.5 120.75,196.72 120.75,196.93C120.75,197.14 120.75,197.36 120.75,197.57C120.75,197.78 120.75,198 120.75,198.21C120.75,198.42 120.75,198.64 120.75,198.85C120.75,199.06 120.75,199.28 120.75,199.49C120.75,199.7 120.75,199.92 120.75,200.13C120.75,200.34 120.75,200.56 120.75,200.77C120.75,200.98 120.75,201.19 120.75,201.4C120.75,201.61 120.75,201.83 120.75,202.04C120.75,202.25 120.75,202.47 120.75,202.68C120.75,202.89 120.75,203.11 120.75,203.32C120.75,203.53 120.75,203.75 120.75,203.96C120.75,204.17 120.75,204.39 120.75,204.6C120.75,204.81 120.75,205.03 120.75,205.24C120.75,205.45 120.75,205.67 120.75,205.88C120.75,206.09 120.75,206.31 120.75,206.52C120.75,206.73 120.75,206.95 120.75,207.16C120.75,207.37 120.75,207.59 120.75,207.8C120.75,208.01 120.75,208.23 120.75,208.44C120.75,208.65 120.75,208.87 120.75,209.08C120.75,209.29 120.75,209.51 120.75,209.72C120.75,209.93 120.75,210.15 120.75,210.36C120.75,210.57 120.75,210.79 120.75,211C120.75,211.21 120.75,211.43 120.75,211.64C120.75,211.85 120.75,212.07 120.75,212.28C120.75,212.49 120.75,212.71 120.75,212.92C120.75,213.13 120.75,213.35 120.75,213.56C120.75,213.77 120.75,213.99 120.75,214.2C120.75,214.41 120.75,214.63 120.75,214.84C120.75,215.05 120.75,215.27 120.75,215.48C120.75,215.69 120.75,215.91 120.75,216.12C120.75,216.33 120.75,216.55 120.75,216.76C120.75,216.97 120.75,217.19 120.75,217.4C120.75,217.61 120.75,217.83 120.75,218.04C120.75,218.25 120.75,218.47 120.75,218.68C120.75,218.89 120.75,219.11 120.75,219.32C120.75,219.53 120.75,219.75 120.75,219.96C120.75,220.17 120.75,220.39 120.75,220.6C120.75,220.81 120.75,221.03 120.75,221.24C120.75,221.45 120.75,221.67 120.75,221.88C120.75,222.09 120.75,222.31 120.75,222.52C120.75,222.73 120.75,222.95 120.75,223.16C120.75,223.37 120.75,223.58 120.75,223.79C120.75,224 120.75,224.22 120.75,224.43C120.75,224.64 120.75,224.86 120.75,225.07C120.75,225.28 120.75,225.5 120.75,225.71C120.75,225.92 120.75,226.14 120.75,226.35C120.75,226.56 120.75,226.78 120.75,226.99C120.75,227.2 120.75,227.42 120.75,227.63C120.75,227.84 120.75,228.06 120.75,228.27C120.75,228.48 120.75,228.7 120.75,228.91C120.75,229.12 120.75,229.34 120.75,229.55C120.75,229.76 120.75,229.98 120.75,230.19C120.75,230.4 120.75,230.62 120.75,230.83C120.75,231.04 120.75,231.26 120.75,231.47C120.75,231.68 120.75,231.9 120.75,232.11C120.75,232.32 120.75,232.54 120.75,232.75C120.75,232.96 120.75,233.18 120.75,233.39C120.75,233.6 120.75,233.82 120.75,234.03C120.75,234.24 120.75,234.46 120.75,234.67C120.75,234.88 120.75,235.1 120.75,235.31C120.75,235.52 120.75,235.74 120.75,235.95C120.75,236.16 120.75,236.38 120.75,236.59C120.75,236.8 120.75,237.02 120.75,237.23C120.75,237.44 120.75,237.66 120.75,237.87C120.75,238.08 120.75,238.3 120.75,238.51C120.75,238.72 120.75,238.94 120.75,239.15C120.75,239.36 120.75,239.58 120.75,239.79C120.75,240 120.75,240.22 120.75,240.43C120.75,240.64 120.75,240.86 120.75,241.07C120.75,241.28 120.75,241.5 120.75,241.71C120.75,241.92 120.75,242.14 120.75,242.35C120.75,242.56 120.75,242.78 120.75,242.99C120.75,243.2 120.75,243.42 120.75,243.63C120.75,243.84 120.75,244.06 120.75,244.27C120.75,244.48 120.75,244.7 120.75,244.91C120.75,245.12 120.75,245.34 120.75,245.55C120.75,245.76 120.74,245.97 120.74,246.18C120.74,246.39 120.73,246.61 120.73,246.82C120.72,247.03 120.72,247.25 120.71,247.46C120.7,247.67 120.68,247.89 120.65,248.1C120.62,248.31 120.58,248.53 120.53,248.74C120.48,248.95 120.41,249.17 120.33,249.38C120.25,249.6 120.15,249.81 120.04,250.02C119.93,250.24 119.8,250.45 119.67,250.66C119.54,250.87 119.4,251.08 119.28,251.3C119.16,251.51 119.04,251.72 118.96,251.94C118.88,252.15 118.83,252.37 118.81,252.58C118.79,252.79 118.81,253.01 118.86,253.22C118.91,253.44 119,253.65 119.1,253.86C119.2,254.08 119.34,254.29 119.47,254.5C119.6,254.71 119.74,254.92 119.86,255.14C119.98,255.35 120.09,255.56 120.19,255.78C120.29,255.99 120.37,256.2 120.44,256.42C120.51,256.63 120.55,256.85 120.59,257.06C120.63,257.27 120.66,257.49 120.68,257.7C120.7,257.91 120.71,258.13 120.71,258.34C120.71,258.55 120.71,258.77 120.7,258.98C120.69,259.19 120.67,259.41 120.64,259.62C120.61,259.83 120.57,260.05 120.51,260.26C120.44,260.48 120.36,260.69 120.25,260.9C120.13,261.12 119.99,261.34 119.82,261.54C119.63,261.76 119.4,261.98 119.15,262.18C118.88,262.4 118.56,262.61 118.24,262.82C117.9,263.04 117.52,263.25 117.15,263.46C116.77,263.68 116.37,263.88 116,264.1C115.65,264.31 115.29,264.51 114.98,264.74C114.7,264.94 114.43,265.15 114.24,265.38C114.08,265.58 113.95,265.8 113.88,266.02C113.82,266.23 113.83,266.45 113.84,266.66C113.85,266.87 113.93,267.09 113.95,267.3C113.97,267.51 114.01,267.73 113.95,267.94C113.89,268.16 113.74,268.39 113.55,268.58C113.32,268.82 112.96,269.02 112.59,269.21C112.14,269.45 111.59,269.65 111.03,269.85C110.41,270.08 109.71,270.28 109.03,270.49C108.33,270.71 107.59,270.91 106.89,271.13C106.22,271.34 105.54,271.55 104.91,271.77C104.32,271.98 103.78,272.19 103.23,272.41C102.7,272.62 102.22,272.85 101.66,273.05C101.04,273.28 100.43,273.49 99.69,273.69C98.78,273.93 97.74,274.14 96.59,274.33C95.16,274.57 93.5,274.77 91.76,274.97C89.73,275.2 87.44,275.4 85.16,275.61C82.7,275.83 80.01,276.03 77.48,276.25C75.01,276.46 72.38,276.66 70.14,276.89C68.23,277.09 66.14,277.23 64.85,277.53C64.08,277.71 63.04,277.97 63.05,278.17C63.06,278.4 64.4,278.63 65.37,278.81C66.91,279.1 69.24,279.25 71.45,279.45C74.08,279.69 77.14,279.88 80.1,280.09C83.23,280.31 86.57,280.51 89.75,280.73C92.85,280.94 96.01,281.15 98.93,281.37C101.6,281.57 104.22,281.78 106.59,282.01C108.64,282.21 110.6,282.41 112.31,282.65C113.71,282.85 115.02,283.04 116.13,283.29C117,283.48 117.8,283.68 118.44,283.93Q118.93,284.12 119.7,284.57Z" style="vector-effect: non-scaling-stroke; stroke-width: 2px; stroke: rgb(99, 110, 250); stroke-opacity: 1; fill: rgb(99, 110, 250); fill-opacity: 0.5;"/><g class="points"><path class="point" transform="translate(39.78,280.73)" d="M3,0A3,3 0 1,1 0,-3A3,3 0 0,1 3,0Z" style="opacity: 1; stroke-width: 0px; fill: rgb(99, 110, 250); fill-opacity: 1;"/><path class="point" transform="translate(26.71,280.04)" d="M3,0A3,3 0 1,1 0,-3A3,3 0 0,1 3,0Z" style="opacity: 1; stroke-width: 0px; fill: rgb(99, 110, 250); fill-opacity: 1;"/><path class="point" transform="translate(43.81,279.98)" d="M3,0A3,3 0 1,1 0,-3A3,3 0 0,1 3,0Z" style="opacity: 1; stroke-width: 0px; fill: rgb(99, 110, 250); fill-opacity: 1;"/><path class="point" transform="translate(23,279.91)" d="M3,0A3,3 0 1,1 0,-3A3,3 0 0,1 3,0Z" style="opacity: 1; stroke-width: 0px; fill: rgb(99, 110, 250); fill-opacity: 1;"/><path class="point" transform="translate(30.97,279.55)" d="M3,0A3,3 0 1,1 0,-3A3,3 0 0,1 3,0Z" style="opacity: 1; stroke-width: 0px; fill: rgb(99, 110, 250); fill-opacity: 1;"/><path class="point" transform="translate(40.86,279.46)" d="M3,0A3,3 0 1,1 0,-3A3,3 0 0,1 3,0Z" style="opacity: 1; stroke-width: 0px; fill: rgb(99, 110, 250); fill-opacity: 1;"/><path class="point" transform="translate(33.65,279.46)" d="M3,0A3,3 0 1,1 0,-3A3,3 0 0,1 3,0Z" style="opacity: 1; stroke-width: 0px; fill: rgb(99, 110, 250); fill-opacity: 1;"/><path class="point" transform="translate(38.4,279.39)" d="M3,0A3,3 0 1,1 0,-3A3,3 0 0,1 3,0Z" style="opacity: 1; stroke-width: 0px; fill: rgb(99, 110, 250); fill-opacity: 1;"/><path class="point" transform="translate(29.79,279.39)" d="M3,0A3,3 0 1,1 0,-3A3,3 0 0,1 3,0Z" style="opacity: 1; stroke-width: 0px; fill: rgb(99, 110, 250); fill-opacity: 1;"/><path class="point" transform="translate(22.62,279.19)" d="M3,0A3,3 0 1,1 0,-3A3,3 0 0,1 3,0Z" style="opacity: 1; stroke-width: 0px; fill: rgb(99, 110, 250); fill-opacity: 1;"/><path class="point" transform="translate(38.16,278.9)" d="M3,0A3,3 0 1,1 0,-3A3,3 0 0,1 3,0Z" style="opacity: 1; stroke-width: 0px; fill: rgb(99, 110, 250); fill-opacity: 1;"/><path class="point" transform="translate(29.39,278.74)" d="M3,0A3,3 0 1,1 0,-3A3,3 0 0,1 3,0Z" style="opacity: 1; stroke-width: 0px; fill: rgb(99, 110, 250); fill-opacity: 1;"/><path class="point" transform="translate(43.59,278.58)" d="M3,0A3,3 0 1,1 0,-3A3,3 0 0,1 3,0Z" style="opacity: 1; stroke-width: 0px; fill: rgb(99, 110, 250); fill-opacity: 1;"/><path class="point" transform="translate(20.44,278.38)" d="M3,0A3,3 0 1,1 0,-3A3,3 0 0,1 3,0Z" style="opacity: 1; stroke-width: 0px; fill: rgb(99, 110, 250); fill-opacity: 1;"/><path class="point" transform="translate(25.42,278.38)" d="M3,0A3,3 0 1,1 0,-3A3,3 0 0,1 3,0Z" style="opacity: 1; stroke-width: 0px; fill: rgb(99, 110, 250); fill-opacity: 1;"/><path class="point" transform="translate(48.59,278.12)" d="M3,0A3,3 0 1,1 0,-3A3,3 0 0,1 3,0Z" style="opacity: 1; stroke-width: 0px; fill: rgb(99, 110, 250); fill-opacity: 1;"/><path class="point" transform="translate(29.86,278.09)" d="M3,0A3,3 0 1,1 0,-3A3,3 0 0,1 3,0Z" style="opacity: 1; stroke-width: 0px; fill: rgb(99, 110, 250); fill-opacity: 1;"/><path class="point" transform="translate(19.35,278.05)" d="M3,0A3,3 0 1,1 0,-3A3,3 0 0,1 3,0Z" style="opacity: 1; stroke-width: 0px; fill: rgb(99, 110, 250); fill-opacity: 1;"/><path class="point" transform="translate(28.48,277.92)" d="M3,0A3,3 0 1,1 0,-3A3,3 0 0,1 3,0Z" style="opacity: 1; stroke-width: 0px; fill: rgb(99, 110, 250); fill-opacity: 1;"/><path class="point" transform="translate(33.83,277.92)" d="M3,0A3,3 0 1,1 0,-3A3,3 0 0,1 3,0Z" style="opacity: 1; stroke-width: 0px; fill: rgb(99, 110, 250); fill-opacity: 1;"/><path class="point" transform="translate(41.99,277.79)" d="M3,0A3,3 0 1,1 0,-3A3,3 0 0,1 3,0Z" style="opacity: 1; stroke-width: 0px; fill: rgb(99, 110, 250); fill-opacity: 1;"/><path class="point" transform="translate(36.13,277.76)" d="M3,0A3,3 0 1,1 0,-3A3,3 0 0,1 3,0Z" style="opacity: 1; stroke-width: 0px; fill: rgb(99, 110, 250); fill-opacity: 1;"/><path class="point" transform="translate(29.32,277.73)" d="M3,0A3,3 0 1,1 0,-3A3,3 0 0,1 3,0Z" style="opacity: 1; stroke-width: 0px; fill: rgb(99, 110, 250); fill-opacity: 1;"/><path class="point" transform="translate(19.73,277.73)" d="M3,0A3,3 0 1,1 0,-3A3,3 0 0,1 3,0Z" style="opacity: 1; stroke-width: 0px; fill: rgb(99, 110, 250); fill-opacity: 1;"/><path class="point" transform="translate(34.15,277.53)" d="M3,0A3,3 0 1,1 0,-3A3,3 0 0,1 3,0Z" style="opacity: 1; stroke-width: 0px; fill: rgb(99, 110, 250); fill-opacity: 1;"/><path class="point" transform="translate(29.15,277.53)" d="M3,0A3,3 0 1,1 0,-3A3,3 0 0,1 3,0Z" style="opacity: 1; stroke-width: 0px; fill: rgb(99, 110, 250); fill-opacity: 1;"/><path class="point" transform="translate(42.26,277.4)" d="M3,0A3,3 0 1,1 0,-3A3,3 0 0,1 3,0Z" style="opacity: 1; stroke-width: 0px; fill: rgb(99, 110, 250); fill-opacity: 1;"/><path class="point" transform="translate(33.03,277.27)" d="M3,0A3,3 0 1,1 0,-3A3,3 0 0,1 3,0Z" style="opacity: 1; stroke-width: 0px; fill: rgb(99, 110, 250); fill-opacity: 1;"/><path class="point" transform="translate(25.76,277.14)" d="M3,0A3,3 0 1,1 0,-3A3,3 0 0,1 3,0Z" style="opacity: 1; stroke-width: 0px; fill: rgb(99, 110, 250); fill-opacity: 1;"/><path class="point" transform="translate(23.15,277.11)" d="M3,0A3,3 0 1,1 0,-3A3,3 0 0,1 3,0Z" style="opacity: 1; stroke-width: 0px; fill: rgb(99, 110, 250); fill-opacity: 1;"/><path class="point" transform="translate(39.15,276.88)" d="M3,0A3,3 0 1,1 0,-3A3,3 0 0,1 3,0Z" style="opacity: 1; stroke-width: 0px; fill: rgb(99, 110, 250); fill-opacity: 1;"/><path class="point" transform="translate(26.65,276.85)" d="M3,0A3,3 0 1,1 0,-3A3,3 0 0,1 3,0Z" style="opacity: 1; stroke-width: 0px; fill: rgb(99, 110, 250); fill-opacity: 1;"/><path class="point" transform="translate(39.26,276.06)" d="M3,0A3,3 0 1,1 0,-3A3,3 0 0,1 3,0Z" style="opacity: 1; stroke-width: 0px; fill: rgb(99, 110, 250); fill-opacity: 1;"/><path class="point" transform="translate(35.94,275.97)" d="M3,0A3,3 0 1,1 0,-3A3,3 0 0,1 3,0Z" style="opacity: 1; stroke-width: 0px; fill: rgb(99, 110, 250); fill-opacity: 1;"/><path class="point" transform="translate(31.84,275.44)" d="M3,0A3,3 0 1,1 0,-3A3,3 0 0,1 3,0Z" style="opacity: 1; stroke-width: 0px; fill: rgb(99, 110, 250); fill-opacity: 1;"/><path class="point" transform="translate(29.44,273.72)" d="M3,0A3,3 0 1,1 0,-3A3,3 0 0,1 3,0Z" style="opacity: 1; stroke-width: 0px; fill: rgb(99, 110, 250); fill-opacity: 1;"/><path class="point" transform="translate(37.63,273.65)" d="M3,0A3,3 0 1,1 0,-3A3,3 0 0,1 3,0Z" style="opacity: 1; stroke-width: 0px; fill: rgb(99, 110, 250); fill-opacity: 1;"/><path class="point" transform="translate(33.39,273.23)" d="M3,0A3,3 0 1,1 0,-3A3,3 0 0,1 3,0Z" style="opacity: 1; stroke-width: 0px; fill: rgb(99, 110, 250); fill-opacity: 1;"/><path class="point" transform="translate(39.11,272.48)" d="M3,0A3,3 0 1,1 0,-3A3,3 0 0,1 3,0Z" style="opacity: 1; stroke-width: 0px; fill: rgb(99, 110, 250); fill-opacity: 1;"/><path class="point" transform="translate(29.02,272.44)" d="M3,0A3,3 0 1,1 0,-3A3,3 0 0,1 3,0Z" style="opacity: 1; stroke-width: 0px; fill: rgb(99, 110, 250); fill-opacity: 1;"/><path class="point" transform="translate(38.16,272.35)" d="M3,0A3,3 0 1,1 0,-3A3,3 0 0,1 3,0Z" style="opacity: 1; stroke-width: 0px; fill: rgb(99, 110, 250); fill-opacity: 1;"/><path class="point" transform="translate(33.7,271.76)" d="M3,0A3,3 0 1,1 0,-3A3,3 0 0,1 3,0Z" style="opacity: 1; stroke-width: 0px; fill: rgb(99, 110, 250); fill-opacity: 1;"/><path class="point" transform="translate(31.94,270.98)" d="M3,0A3,3 0 1,1 0,-3A3,3 0 0,1 3,0Z" style="opacity: 1; stroke-width: 0px; fill: rgb(99, 110, 250); fill-opacity: 1;"/><path class="point" transform="translate(30.41,270.23)" d="M3,0A3,3 0 1,1 0,-3A3,3 0 0,1 3,0Z" style="opacity: 1; stroke-width: 0px; fill: rgb(99, 110, 250); fill-opacity: 1;"/><path class="point" transform="translate(33.5,267.71)" d="M3,0A3,3 0 1,1 0,-3A3,3 0 0,1 3,0Z" style="opacity: 1; stroke-width: 0px; fill: rgb(99, 110, 250); fill-opacity: 1;"/><path class="point" transform="translate(35.35,266.08)" d="M3,0A3,3 0 1,1 0,-3A3,3 0 0,1 3,0Z" style="opacity: 1; stroke-width: 0px; fill: rgb(99, 110, 250); fill-opacity: 1;"/><path class="point" transform="translate(33.82,265.76)" d="M3,0A3,3 0 1,1 0,-3A3,3 0 0,1 3,0Z" style="opacity: 1; stroke-width: 0px; fill: rgb(99, 110, 250); fill-opacity: 1;"/><path class="point" transform="translate(33.02,264.42)" d="M3,0A3,3 0 1,1 0,-3A3,3 0 0,1 3,0Z" style="opacity: 1; stroke-width: 0px; fill: rgb(99, 110, 250); fill-opacity: 1;"/><path class="point" transform="translate(34.89,252.75)" d="M3,0A3,3 0 1,1 0,-3A3,3 0 0,1 3,0Z" style="opacity: 1; stroke-width: 0px; fill: rgb(99, 110, 250); fill-opacity: 1;"/><path class="point" transform="translate(33.5,182.86)" d="M3,0A3,3 0 1,1 0,-3A3,3 0 0,1 3,0Z" style="opacity: 1; stroke-width: 0px; fill: rgb(99, 110, 250); fill-opacity: 1;"/></g></g><g class="trace violins" style="opacity: 1;"><path class="violin" d="M356.39,304Q356.47,299.92 356.54,297.88C356.61,295.84 356.7,293.8 356.82,291.76C356.94,289.72 357.08,287.68 357.25,285.64C357.42,283.6 357.63,281.56 357.86,279.52C358.09,277.48 358.35,275.44 358.61,273.4C358.87,271.36 359.15,269.32 359.41,267.28C359.66,265.24 359.93,263.2 360.14,261.16C360.35,259.12 360.52,257.08 360.65,255.04C360.77,253 360.86,250.96 360.89,248.92C360.92,246.88 360.9,244.84 360.86,242.8C360.82,240.76 360.73,238.73 360.65,236.69C360.57,234.65 360.46,232.61 360.38,230.57C360.3,228.53 360.22,226.49 360.15,224.45C360.08,222.41 360.03,220.37 359.97,218.33C359.91,216.29 359.87,214.25 359.81,212.21C359.75,210.17 359.7,208.13 359.62,206.09C359.54,204.05 359.44,202.01 359.34,199.97C359.24,197.93 359.12,195.89 359,193.85C358.88,191.81 358.74,189.77 358.62,187.73C358.5,185.69 358.37,183.65 358.27,181.61C358.17,179.57 358.08,177.53 358,175.49C357.92,173.45 357.86,171.41 357.8,169.37C357.74,167.33 357.69,165.29 357.65,163.25C357.61,161.21 357.58,159.17 357.54,157.13C357.5,155.09 357.47,153.05 357.43,151.01C357.39,148.97 357.36,146.93 357.32,144.89C357.29,142.85 357.25,140.81 357.22,138.77C357.19,136.73 357.15,134.69 357.13,132.65C357.11,130.61 357.09,128.57 357.08,126.53C357.07,124.49 357.07,122.45 357.06,120.41C357.06,118.37 357.05,116.34 357.05,114.3C357.04,112.26 357.04,110.22 357.03,108.18C357.02,106.14 357.01,104.1 356.99,102.06C356.97,100.02 356.95,97.98 356.92,95.94C356.89,93.9 356.86,91.86 356.82,89.82C356.78,87.78 356.74,85.74 356.7,83.7C356.66,81.66 356.62,79.62 356.58,77.58C356.54,75.54 356.5,73.5 356.47,71.46C356.44,69.42 356.41,67.38 356.39,65.34C356.37,63.3 356.35,61.26 356.33,59.22Q356.31,57.18 356.29,53.1L356.21,53.1Q356.19,57.18 356.17,59.22C356.15,61.26 356.13,63.3 356.11,65.34C356.09,67.38 356.06,69.42 356.03,71.46C356,73.5 355.96,75.54 355.92,77.58C355.88,79.62 355.84,81.66 355.8,83.7C355.76,85.74 355.72,87.78 355.68,89.82C355.64,91.86 355.61,93.9 355.58,95.94C355.55,97.98 355.53,100.02 355.51,102.06C355.49,104.1 355.48,106.14 355.47,108.18C355.46,110.22 355.46,112.26 355.45,114.3C355.45,116.34 355.44,118.37 355.44,120.41C355.43,122.45 355.43,124.49 355.42,126.53C355.41,128.57 355.39,130.61 355.37,132.65C355.35,134.69 355.31,136.73 355.28,138.77C355.25,140.81 355.21,142.85 355.18,144.89C355.14,146.93 355.11,148.97 355.07,151.01C355.03,153.05 355,155.09 354.96,157.13C354.92,159.17 354.89,161.21 354.85,163.25C354.81,165.29 354.76,167.33 354.7,169.37C354.64,171.41 354.58,173.45 354.5,175.49C354.42,177.53 354.33,179.57 354.23,181.61C354.13,183.65 354,185.69 353.88,187.73C353.76,189.77 353.62,191.81 353.5,193.85C353.38,195.89 353.26,197.93 353.16,199.97C353.06,202.01 352.96,204.05 352.88,206.09C352.8,208.13 352.75,210.17 352.69,212.21C352.63,214.25 352.59,216.29 352.53,218.33C352.47,220.37 352.42,222.41 352.35,224.45C352.28,226.49 352.2,228.53 352.12,230.57C352.04,232.61 351.93,234.65 351.85,236.69C351.77,238.73 351.68,240.76 351.64,242.8C351.6,244.84 351.58,246.88 351.61,248.92C351.64,250.96 351.73,253 351.85,255.04C351.98,257.08 352.15,259.12 352.36,261.16C352.57,263.2 352.84,265.24 353.09,267.28C353.35,269.32 353.63,271.36 353.89,273.4C354.15,275.44 354.41,277.48 354.64,279.52C354.87,281.56 355.08,283.6 355.25,285.64C355.42,287.68 355.56,289.72 355.68,291.76C355.8,293.8 355.89,295.84 355.96,297.88Q356.03,299.92 356.11,304Z" style="vector-effect: non-scaling-stroke; stroke-width: 2px; stroke: rgb(239, 85, 59); stroke-opacity: 1; fill: rgb(239, 85, 59); fill-opacity: 0.5;"/><g class="points"><path class="point" transform="translate(274.85,266.93)" d="M3,0A3,3 0 1,1 0,-3A3,3 0 0,1 3,0Z" style="opacity: 1; stroke-width: 0px; fill: rgb(239, 85, 59); fill-opacity: 1;"/><path class="point" transform="translate(262.87,262.56)" d="M3,0A3,3 0 1,1 0,-3A3,3 0 0,1 3,0Z" style="opacity: 1; stroke-width: 0px; fill: rgb(239, 85, 59); fill-opacity: 1;"/><path class="point" transform="translate(278.14,261.81)" d="M3,0A3,3 0 1,1 0,-3A3,3 0 0,1 3,0Z" style="opacity: 1; stroke-width: 0px; fill: rgb(239, 85, 59); fill-opacity: 1;"/><path class="point" transform="translate(260.14,260.83)" d="M3,0A3,3 0 1,1 0,-3A3,3 0 0,1 3,0Z" style="opacity: 1; stroke-width: 0px; fill: rgb(239, 85, 59); fill-opacity: 1;"/><path class="point" transform="translate(266.84,259.76)" d="M3,0A3,3 0 1,1 0,-3A3,3 0 0,1 3,0Z" style="opacity: 1; stroke-width: 0px; fill: rgb(239, 85, 59); fill-opacity: 1;"/><path class="point" transform="translate(276.12,255.94)" d="M3,0A3,3 0 1,1 0,-3A3,3 0 0,1 3,0Z" style="opacity: 1; stroke-width: 0px; fill: rgb(239, 85, 59); fill-opacity: 1;"/><path class="point" transform="translate(269.21,255.65)" d="M3,0A3,3 0 1,1 0,-3A3,3 0 0,1 3,0Z" style="opacity: 1; stroke-width: 0px; fill: rgb(239, 85, 59); fill-opacity: 1;"/><path class="point" transform="translate(273.66,254.15)" d="M3,0A3,3 0 1,1 0,-3A3,3 0 0,1 3,0Z" style="opacity: 1; stroke-width: 0px; fill: rgb(239, 85, 59); fill-opacity: 1;"/><path class="point" transform="translate(265.16,253.43)" d="M3,0A3,3 0 1,1 0,-3A3,3 0 0,1 3,0Z" style="opacity: 1; stroke-width: 0px; fill: rgb(239, 85, 59); fill-opacity: 1;"/><path class="point" transform="translate(259.13,252.58)" d="M3,0A3,3 0 1,1 0,-3A3,3 0 0,1 3,0Z" style="opacity: 1; stroke-width: 0px; fill: rgb(239, 85, 59); fill-opacity: 1;"/><path class="point" transform="translate(274.33,252.48)" d="M3,0A3,3 0 1,1 0,-3A3,3 0 0,1 3,0Z" style="opacity: 1; stroke-width: 0px; fill: rgb(239, 85, 59); fill-opacity: 1;"/><path class="point" transform="translate(264.3,250.3)" d="M3,0A3,3 0 1,1 0,-3A3,3 0 0,1 3,0Z" style="opacity: 1; stroke-width: 0px; fill: rgb(239, 85, 59); fill-opacity: 1;"/><path class="point" transform="translate(280.08,250.23)" d="M3,0A3,3 0 1,1 0,-3A3,3 0 0,1 3,0Z" style="opacity: 1; stroke-width: 0px; fill: rgb(239, 85, 59); fill-opacity: 1;"/><path class="point" transform="translate(255.09,250.2)" d="M3,0A3,3 0 1,1 0,-3A3,3 0 0,1 3,0Z" style="opacity: 1; stroke-width: 0px; fill: rgb(239, 85, 59); fill-opacity: 1;"/><path class="point" transform="translate(261.47,249.39)" d="M3,0A3,3 0 1,1 0,-3A3,3 0 0,1 3,0Z" style="opacity: 1; stroke-width: 0px; fill: rgb(239, 85, 59); fill-opacity: 1;"/><path class="point" transform="translate(282.22,248.73)" d="M3,0A3,3 0 1,1 0,-3A3,3 0 0,1 3,0Z" style="opacity: 1; stroke-width: 0px; fill: rgb(239, 85, 59); fill-opacity: 1;"/><path class="point" transform="translate(266.07,247.63)" d="M3,0A3,3 0 1,1 0,-3A3,3 0 0,1 3,0Z" style="opacity: 1; stroke-width: 0px; fill: rgb(239, 85, 59); fill-opacity: 1;"/><path class="point" transform="translate(260.72,246.09)" d="M3,0A3,3 0 1,1 0,-3A3,3 0 0,1 3,0Z" style="opacity: 1; stroke-width: 0px; fill: rgb(239, 85, 59); fill-opacity: 1;"/><path class="point" transform="translate(266.63,243.84)" d="M3,0A3,3 0 1,1 0,-3A3,3 0 0,1 3,0Z" style="opacity: 1; stroke-width: 0px; fill: rgb(239, 85, 59); fill-opacity: 1;"/><path class="point" transform="translate(269.52,241.92)" d="M3,0A3,3 0 1,1 0,-3A3,3 0 0,1 3,0Z" style="opacity: 1; stroke-width: 0px; fill: rgb(239, 85, 59); fill-opacity: 1;"/><path class="point" transform="translate(273.53,241.69)" d="M3,0A3,3 0 1,1 0,-3A3,3 0 0,1 3,0Z" style="opacity: 1; stroke-width: 0px; fill: rgb(239, 85, 59); fill-opacity: 1;"/><path class="point" transform="translate(270.66,239.99)" d="M3,0A3,3 0 1,1 0,-3A3,3 0 0,1 3,0Z" style="opacity: 1; stroke-width: 0px; fill: rgb(239, 85, 59); fill-opacity: 1;"/><path class="point" transform="translate(267.23,230.54)" d="M3,0A3,3 0 1,1 0,-3A3,3 0 0,1 3,0Z" style="opacity: 1; stroke-width: 0px; fill: rgb(239, 85, 59); fill-opacity: 1;"/><path class="point" transform="translate(262.92,225.25)" d="M3,0A3,3 0 1,1 0,-3A3,3 0 0,1 3,0Z" style="opacity: 1; stroke-width: 0px; fill: rgb(239, 85, 59); fill-opacity: 1;"/><path class="point" transform="translate(269.68,219.12)" d="M3,0A3,3 0 1,1 0,-3A3,3 0 0,1 3,0Z" style="opacity: 1; stroke-width: 0px; fill: rgb(239, 85, 59); fill-opacity: 1;"/><path class="point" transform="translate(267.4,218.89)" d="M3,0A3,3 0 1,1 0,-3A3,3 0 0,1 3,0Z" style="opacity: 1; stroke-width: 0px; fill: rgb(239, 85, 59); fill-opacity: 1;"/><path class="point" transform="translate(273.45,218.31)" d="M3,0A3,3 0 1,1 0,-3A3,3 0 0,1 3,0Z" style="opacity: 1; stroke-width: 0px; fill: rgb(239, 85, 59); fill-opacity: 1;"/><path class="point" transform="translate(268.87,218.08)" d="M3,0A3,3 0 1,1 0,-3A3,3 0 0,1 3,0Z" style="opacity: 1; stroke-width: 0px; fill: rgb(239, 85, 59); fill-opacity: 1;"/><path class="point" transform="translate(263.18,211.03)" d="M3,0A3,3 0 1,1 0,-3A3,3 0 0,1 3,0Z" style="opacity: 1; stroke-width: 0px; fill: rgb(239, 85, 59); fill-opacity: 1;"/><path class="point" transform="translate(259.49,207.61)" d="M3,0A3,3 0 1,1 0,-3A3,3 0 0,1 3,0Z" style="opacity: 1; stroke-width: 0px; fill: rgb(239, 85, 59); fill-opacity: 1;"/><path class="point" transform="translate(275.68,206.99)" d="M3,0A3,3 0 1,1 0,-3A3,3 0 0,1 3,0Z" style="opacity: 1; stroke-width: 0px; fill: rgb(239, 85, 59); fill-opacity: 1;"/><path class="point" transform="translate(260.63,206.56)" d="M3,0A3,3 0 1,1 0,-3A3,3 0 0,1 3,0Z" style="opacity: 1; stroke-width: 0px; fill: rgb(239, 85, 59); fill-opacity: 1;"/><path class="point" transform="translate(275.96,206.3)" d="M3,0A3,3 0 1,1 0,-3A3,3 0 0,1 3,0Z" style="opacity: 1; stroke-width: 0px; fill: rgb(239, 85, 59); fill-opacity: 1;"/><path class="point" transform="translate(271.78,203.53)" d="M3,0A3,3 0 1,1 0,-3A3,3 0 0,1 3,0Z" style="opacity: 1; stroke-width: 0px; fill: rgb(239, 85, 59); fill-opacity: 1;"/><path class="point" transform="translate(266.85,201.09)" d="M3,0A3,3 0 1,1 0,-3A3,3 0 0,1 3,0Z" style="opacity: 1; stroke-width: 0px; fill: rgb(239, 85, 59); fill-opacity: 1;"/><path class="point" transform="translate(265.13,199.65)" d="M3,0A3,3 0 1,1 0,-3A3,3 0 0,1 3,0Z" style="opacity: 1; stroke-width: 0px; fill: rgb(239, 85, 59); fill-opacity: 1;"/><path class="point" transform="translate(272.83,199.16)" d="M3,0A3,3 0 1,1 0,-3A3,3 0 0,1 3,0Z" style="opacity: 1; stroke-width: 0px; fill: rgb(239, 85, 59); fill-opacity: 1;"/><path class="point" transform="translate(268.96,198.61)" d="M3,0A3,3 0 1,1 0,-3A3,3 0 0,1 3,0Z" style="opacity: 1; stroke-width: 0px; fill: rgb(239, 85, 59); fill-opacity: 1;"/><path class="point" transform="translate(274.22,187.13)" d="M3,0A3,3 0 1,1 0,-3A3,3 0 0,1 3,0Z" style="opacity: 1; stroke-width: 0px; fill: rgb(239, 85, 59); fill-opacity: 1;"/><path class="point" transform="translate(264.23,183.96)" d="M3,0A3,3 0 1,1 0,-3A3,3 0 0,1 3,0Z" style="opacity: 1; stroke-width: 0px; fill: rgb(239, 85, 59); fill-opacity: 1;"/><path class="point" transform="translate(273.4,170.79)" d="M3,0A3,3 0 1,1 0,-3A3,3 0 0,1 3,0Z" style="opacity: 1; stroke-width: 0px; fill: rgb(239, 85, 59); fill-opacity: 1;"/><path class="point" transform="translate(269.27,161.46)" d="M3,0A3,3 0 1,1 0,-3A3,3 0 0,1 3,0Z" style="opacity: 1; stroke-width: 0px; fill: rgb(239, 85, 59); fill-opacity: 1;"/><path class="point" transform="translate(267.79,161.36)" d="M3,0A3,3 0 1,1 0,-3A3,3 0 0,1 3,0Z" style="opacity: 1; stroke-width: 0px; fill: rgb(239, 85, 59); fill-opacity: 1;"/><path class="point" transform="translate(264.81,153.67)" d="M3,0A3,3 0 1,1 0,-3A3,3 0 0,1 3,0Z" style="opacity: 1; stroke-width: 0px; fill: rgb(239, 85, 59); fill-opacity: 1;"/><path class="point" transform="translate(267.83,150.08)" d="M3,0A3,3 0 1,1 0,-3A3,3 0 0,1 3,0Z" style="opacity: 1; stroke-width: 0px; fill: rgb(239, 85, 59); fill-opacity: 1;"/><path class="point" transform="translate(272.98,135.27)" d="M3,0A3,3 0 1,1 0,-3A3,3 0 0,1 3,0Z" style="opacity: 1; stroke-width: 0px; fill: rgb(239, 85, 59); fill-opacity: 1;"/><path class="point" transform="translate(268.53,119.19)" d="M3,0A3,3 0 1,1 0,-3A3,3 0 0,1 3,0Z" style="opacity: 1; stroke-width: 0px; fill: rgb(239, 85, 59); fill-opacity: 1;"/><path class="point" transform="translate(266.12,107.81)" d="M3,0A3,3 0 1,1 0,-3A3,3 0 0,1 3,0Z" style="opacity: 1; stroke-width: 0px; fill: rgb(239, 85, 59); fill-opacity: 1;"/><path class="point" transform="translate(271.89,99.76)" d="M3,0A3,3 0 1,1 0,-3A3,3 0 0,1 3,0Z" style="opacity: 1; stroke-width: 0px; fill: rgb(239, 85, 59); fill-opacity: 1;"/><path class="point" transform="translate(267.43,90.17)" d="M3,0A3,3 0 1,1 0,-3A3,3 0 0,1 3,0Z" style="opacity: 1; stroke-width: 0px; fill: rgb(239, 85, 59); fill-opacity: 1;"/></g></g></g></g><g class="overplot"/><path class="xlines-above crisp" d="" style="fill: none; stroke-width: 1px; stroke: rgb(0, 0, 0); stroke-opacity: 0;"/><path class="ylines-above crisp" d="" style="fill: none; stroke-width: 1px; stroke: rgb(0, 0, 0); stroke-opacity: 0;"/><g class="overlines-above"/><g class="xaxislayer-above"><path class="xtick ticks crisp" d="M0,421v5" transform="translate(200.75,0)" style="stroke: rgb(51, 51, 51); stroke-opacity: 1; stroke-width: 1px;"/><path class="xtick ticks crisp" d="M0,421v5" transform="translate(436.25,0)" style="stroke: rgb(51, 51, 51); stroke-opacity: 1; stroke-width: 1px;"/><g class="xtick"><text text-anchor="middle" x="0" y="440.4" transform="translate(200.75,0)" style="font-family: 'Open Sans', verdana, arial, sans-serif; font-size: 12px; fill: rgb(51, 51, 51); fill-opacity: 1; white-space: pre; opacity: 1;">aisy_mlp_id</text></g><g class="xtick"><text text-anchor="middle" x="0" y="440.4" transform="translate(436.25,0)" style="font-family: 'Open Sans', verdana, arial, sans-serif; font-size: 12px; fill: rgb(51, 51, 51); fill-opacity: 1; white-space: pre; opacity: 1;">aisy_mlp_hw</text></g></g><g class="yaxislayer-above"><path class="ytick ticks crisp" d="M79,0h-5" transform="translate(0,380.76)" style="stroke: rgb(51, 51, 51); stroke-opacity: 1; stroke-width: 1px;"/><path class="ytick ticks crisp" d="M79,0h-5" transform="translate(0,315.53)" style="stroke: rgb(51, 51, 51); stroke-opacity: 1; stroke-width: 1px;"/><path class="ytick ticks crisp" d="M79,0h-5" transform="translate(0,250.31)" style="stroke: rgb(51, 51, 51); stroke-opacity: 1; stroke-width: 1px;"/><path class="ytick ticks crisp" d="M79,0h-5" transform="translate(0,185.07999999999998)" style="stroke: rgb(51, 51, 51); stroke-opacity: 1; stroke-width: 1px;"/><path class="ytick ticks crisp" d="M79,0h-5" transform="translate(0,119.85)" style="stroke: rgb(51, 51, 51); stroke-opacity: 1; stroke-width: 1px;"/><g class="ytick"><text text-anchor="end" x="71.6" y="4.199999999999999" transform="translate(0,380.76)" style="font-family: 'Open Sans', verdana, arial, sans-serif; font-size: 12px; fill: rgb(51, 51, 51); fill-opacity: 1; white-space: pre; opacity: 1;">0</text></g><g class="ytick"><text text-anchor="end" x="71.6" y="4.199999999999999" style="font-family: 'Open Sans', verdana, arial, sans-serif; font-size: 12px; fill: rgb(51, 51, 51); fill-opacity: 1; white-space: pre; opacity: 1;" transform="translate(0,315.53)">20</text></g><g class="ytick"><text text-anchor="end" x="71.6" y="4.199999999999999" style="font-family: 'Open Sans', verdana, arial, sans-serif; font-size: 12px; fill: rgb(51, 51, 51); fill-opacity: 1; white-space: pre; opacity: 1;" transform="translate(0,250.31)">40</text></g><g class="ytick"><text text-anchor="end" x="71.6" y="4.199999999999999" style="font-family: 'Open Sans', verdana, arial, sans-serif; font-size: 12px; fill: rgb(51, 51, 51); fill-opacity: 1; white-space: pre; opacity: 1;" transform="translate(0,185.07999999999998)">60</text></g><g class="ytick"><text text-anchor="end" x="71.6" y="4.199999999999999" style="font-family: 'Open Sans', verdana, arial, sans-serif; font-size: 12px; fill: rgb(51, 51, 51); fill-opacity: 1; white-space: pre; opacity: 1;" transform="translate(0,119.85)">80</text></g></g><g class="overaxes-above"/></g></g><g class="polarlayer"/><g class="ternarylayer"/><g class="geolayer"/><g class="funnelarealayer"/><g class="pielayer"/><g class="iciclelayer"/><g class="treemaplayer"/><g class="sunburstlayer"/><g class="glimages"/><defs id="topdefs-e13540"><g class="clips"/><clipPath id="legende13540"><rect width="125" height="67" x="0" y="0"/></clipPath></defs><g class="layer-above"><g class="imagelayer"/><g class="shapelayer"/></g><g class="infolayer"><g class="legend" pointer-events="all" transform="translate(563.48,100)"><rect class="bg" shape-rendering="crispEdges" width="125" height="67" x="0" y="0" style="stroke: rgb(68, 68, 68); stroke-opacity: 1; fill: rgb(255, 255, 255); fill-opacity: 1; stroke-width: 0px;"/><g class="scrollbox" transform="" clip-path="url(#legende13540)"><text class="legendtitletext" text-anchor="start" x="2" y="18.2" style="font-family: 'Open Sans', verdana, arial, sans-serif; font-size: 14px; fill: rgb(51, 51, 51); fill-opacity: 1; white-space: pre;">model</text><g class="groups" transform=""><g class="traces" transform="translate(0,32.7)" style="opacity: 1;"><text class="legendtext" text-anchor="start" x="40" y="4.680000000000001" style="font-family: 'Open Sans', verdana, arial, sans-serif; font-size: 12px; fill: rgb(51, 51, 51); fill-opacity: 1; white-space: pre;">aisy_mlp_id</text><g class="layers" style="opacity: 1;"><g class="legendfill"/><g class="legendlines"/><g class="legendsymbols"><g class="legendpoints"><path class="legendbox" d="M6,6H-6V-6H6Z" transform="translate(20,0)" style="stroke-width: 2px; fill: rgb(99, 110, 250); fill-opacity: 0.5; stroke: rgb(99, 110, 250); stroke-opacity: 1;"/></g></g></g><rect class="legendtoggle" x="0" y="-9.5" width="119.09375" height="19" style="fill: rgb(0, 0, 0); fill-opacity: 0;"/></g></g><g class="groups" transform=""><g class="traces" transform="translate(0,51.7)" style="opacity: 1;"><text class="legendtext" text-anchor="start" x="40" y="4.680000000000001" style="font-family: 'Open Sans', verdana, arial, sans-serif; font-size: 12px; fill: rgb(51, 51, 51); fill-opacity: 1; white-space: pre;">aisy_mlp_hw</text><g class="layers" style="opacity: 1;"><g class="legendfill"/><g class="legendlines"/><g class="legendsymbols"><g class="legendpoints"><path class="legendbox" d="M6,6H-6V-6H6Z" transform="translate(20,0)" style="stroke-width: 2px; fill: rgb(239, 85, 59); fill-opacity: 0.5; stroke: rgb(239, 85, 59); stroke-opacity: 1;"/></g></g></g><rect class="legendtoggle" x="0" y="-9.5" width="119.09375" height="19" style="fill: rgb(0, 0, 0); fill-opacity: 0;"/></g></g></g><rect class="scrollbar" rx="20" ry="3" width="0" height="0" x="0" y="0" style="fill: rgb(128, 139, 164); fill-opacity: 1;"/></g><g class="g-gtitle"><text class="gtitle" x="350" y="50" text-anchor="middle" dy="0em" style="font-family: 'Open Sans', verdana, arial, sans-serif; font-size: 17px; fill: rgb(51, 51, 51); opacity: 1; font-weight: normal; white-space: pre;">Distribution of average ranks over 50 experiments (with 750 traces)</text></g><g class="g-xtitle"><text class="xtitle" x="317" y="468.20625" text-anchor="middle" style="font-family: 'Open Sans', verdana, arial, sans-serif; font-size: 14px; fill: rgb(51, 51, 51); opacity: 1; font-weight: normal; white-space: pre;">model</text></g><g class="g-ytitle"><text class="ytitle" transform="rotate(-90,31.528125000000003,260)" x="31.528125000000003" y="260" text-anchor="middle" style="font-family: 'Open Sans', verdana, arial, sans-serif; font-size: 14px; fill: rgb(51, 51, 51); opacity: 1; font-weight: normal; white-space: pre;">Average Ranks</text></g><g class="annotation" data-index="0" style="opacity: 1;"><g class="annotation-text-g" transform="rotate(0,200.75,133)"><g class="cursor-pointer" transform="translate(158,100)"><rect class="bg" x="0.5" y="0.5" width="85" height="65" style="stroke-width: 1px; stroke: rgb(0, 0, 0); stroke-opacity: 1; fill: rgb(211, 211, 211); fill-opacity: 1;"/><text class="annotation-text" text-anchor="middle" x="42.65625" y="-1.59375" style="font-family: 'Open Sans', verdana, arial, sans-serif; font-size: 12px; fill: rgb(51, 51, 51); fill-opacity: 1; white-space: pre;"><tspan class="line" dy="0em" x="42.65625" y="-1.59375"></tspan><tspan class="line" dy="1.3em" x="42.65625" y="-1.59375">min: 0.01</tspan><tspan class="line" dy="2.6em" x="42.65625" y="-1.59375">max: 30.02</tspan><tspan class="line" dy="3.9000000000000004em" x="42.65625" y="-1.59375">median: 0.99</tspan><tspan class="line" dy="5.2em" x="42.65625" y="-1.59375">mean: 2.15</tspan></text></g></g></g><g class="annotation" data-index="1" style="opacity: 1;"><g class="annotation-text-g" transform="rotate(0,436.25,133)"><g class="cursor-pointer" transform="translate(390,100)"><rect class="bg" x="0.5" y="0.5" width="92" height="65" style="stroke-width: 1px; stroke: rgb(0, 0, 0); stroke-opacity: 1; fill: rgb(211, 211, 211); fill-opacity: 1;"/><text class="annotation-text" text-anchor="middle" x="46.484375" y="-1.59375" style="font-family: 'Open Sans', verdana, arial, sans-serif; font-size: 12px; fill: rgb(51, 51, 51); fill-opacity: 1; white-space: pre;"><tspan class="line" dy="0em" x="46.484375" y="-1.59375"></tspan><tspan class="line" dy="1.3em" x="46.484375" y="-1.59375">min: 4.24</tspan><tspan class="line" dy="2.6em" x="46.484375" y="-1.59375">max: 58.44</tspan><tspan class="line" dy="3.9000000000000004em" x="46.484375" y="-1.59375">median: 18.93</tspan><tspan class="line" dy="5.2em" x="46.484375" y="-1.59375">mean: 20.85</tspan></text></g></g></g></g></svg>